<?xml version="1.0" encoding="UTF-8" standalone="no"?>
<!DOCTYPE svg PUBLIC "-//W3C//DTD SVG 1.1//EN"
 "http://www.w3.org/Graphics/SVG/1.1/DTD/svg11.dtd">
<!-- Generated by graphviz version 2.43.0 (0)
 -->
<!-- Title: cv::detail::is_meta_descr&lt; GArrayDesc &gt; Pages: 1 -->
<svg width="130pt" height="153pt"
 viewBox="0.00 0.00 130.00 153.00" xmlns="http://www.w3.org/2000/svg" xmlns:xlink="http://www.w3.org/1999/xlink">
<g id="graph0" class="graph" transform="scale(1 1) rotate(0) translate(4 149)">
<title>cv::detail::is_meta_descr&lt; GArrayDesc &gt;</title>
<!-- Node1 -->
<g id="Node000001" class="node">
<title>Node1</title>
<g id="a_Node000001"><a xlink:title=" ">
<polygon fill="#999999" stroke="transparent" points="122,-60 0,-60 0,0 122,0 122,-60"/>
<text text-anchor="start" x="5" y="-48" font-family="Helvetica,sans-Serif" font-size="10.00">cv::detail::is_meta</text>
<text text-anchor="start" x="5" y="-37" font-family="Helvetica,sans-Serif" font-size="10.00">_descr&lt; GArrayDesc &gt;</text>
<text text-anchor="start" x="59" y="-22" font-family="Helvetica,sans-Serif" font-size="10.00"> </text>
<text text-anchor="start" x="59" y="-7" font-family="Helvetica,sans-Serif" font-size="10.00"> </text>
<polygon fill="#666666" stroke="#666666" points="0,-32 0,-32 122,-32 122,-32 0,-32"/>
<polygon fill="#666666" stroke="#666666" points="0,-17 0,-17 122,-17 122,-17 0,-17"/>
<polygon fill="none" stroke="#666666" points="0,0 0,-60 122,-60 122,0 0,0"/>
</a>
</g>
</g>
<!-- Node2 -->
<g id="Node000002" class="node">
<title>Node2</title>
<g id="a_Node000002"><a xlink:title=" ">
<polygon fill="white" stroke="transparent" points="100,-145 22,-145 22,-96 100,-96 100,-145"/>
<text text-anchor="start" x="27" y="-132.5" font-family="Helvetica,sans-Serif" font-size="10.00">std::true_type</text>
<text text-anchor="start" x="59" y="-117.5" font-family="Helvetica,sans-Serif" font-size="10.00"> </text>
<text text-anchor="start" x="59" y="-102.5" font-family="Helvetica,sans-Serif" font-size="10.00"> </text>
<polygon fill="#666666" stroke="#666666" points="22,-127.5 22,-127.5 100,-127.5 100,-127.5 22,-127.5"/>
<polygon fill="#666666" stroke="#666666" points="22,-112.5 22,-112.5 100,-112.5 100,-112.5 22,-112.5"/>
<polygon fill="none" stroke="#666666" points="22,-96 22,-145 100,-145 100,-96 22,-96"/>
</a>
</g>
</g>
<!-- Node2&#45;&gt;Node1 -->
<g id="edge1_Node000001_Node000002" class="edge">
<title>Node2&#45;&gt;Node1</title>
<g id="a_edge1_Node000001_Node000002"><a xlink:title=" ">
<path fill="none" stroke="#63b8ff" d="M61,-85.55C61,-77.18 61,-68.28 61,-60.16"/>
<polygon fill="none" stroke="#63b8ff" points="57.5,-85.78 61,-95.78 64.5,-85.78 57.5,-85.78"/>
</a>
</g>
</g>
</g>
</svg>
