<?xml version="1.0" encoding="UTF-8" standalone="no"?>
<!DOCTYPE svg PUBLIC "-//W3C//DTD SVG 1.1//EN"
 "http://www.w3.org/Graphics/SVG/1.1/DTD/svg11.dtd">
<!-- Generated by graphviz version 2.43.0 (0)
 -->
<!-- Title: cv::cudev::SingleMaskChannelsSz&lt; MaskPtr &gt; Pages: 1 -->
<svg width="230pt" height="261pt"
 viewBox="0.00 0.00 230.00 261.00" xmlns="http://www.w3.org/2000/svg" xmlns:xlink="http://www.w3.org/1999/xlink">
<g id="graph0" class="graph" transform="scale(1 1) rotate(0) translate(4 257)">
<title>cv::cudev::SingleMaskChannelsSz&lt; MaskPtr &gt;</title>
<!-- Node1 -->
<g id="Node000001" class="node">
<title>Node1</title>
<g id="a_Node000001"><a xlink:title=" ">
<polygon fill="#999999" stroke="transparent" points="222,-60 59,-60 59,0 222,0 222,-60"/>
<text text-anchor="start" x="64.5" y="-48" font-family="Helvetica,sans-Serif" font-size="10.00">cv::cudev::SingleMaskChannels</text>
<text text-anchor="start" x="104" y="-37" font-family="Helvetica,sans-Serif" font-size="10.00">Sz&lt; MaskPtr &gt;</text>
<text text-anchor="start" x="139" y="-22" font-family="Helvetica,sans-Serif" font-size="10.00"> </text>
<text text-anchor="start" x="139" y="-7" font-family="Helvetica,sans-Serif" font-size="10.00"> </text>
<polygon fill="#666666" stroke="#666666" points="59.5,-32 59.5,-32 222.5,-32 222.5,-32 59.5,-32"/>
<polygon fill="#666666" stroke="#666666" points="59.5,-17 59.5,-17 222.5,-17 222.5,-17 59.5,-17"/>
<polygon fill="none" stroke="#666666" points="59,0 59,-60 222,-60 222,0 59,0"/>
</a>
</g>
</g>
<!-- Node2 -->
<g id="Node000002" class="node">
<title>Node2</title>
<g id="a_Node000002"><a xlink:href="../../db/dce/structcv_1_1cudev_1_1SingleMaskChannels.html" target="_top" xlink:title=" ">
<polygon fill="white" stroke="transparent" points="163,-157 0,-157 0,-97 163,-97 163,-157"/>
<text text-anchor="start" x="5.5" y="-145" font-family="Helvetica,sans-Serif" font-size="10.00">cv::cudev::SingleMaskChannels</text>
<text text-anchor="start" x="50.5" y="-134" font-family="Helvetica,sans-Serif" font-size="10.00">&lt; MaskPtr &gt;</text>
<text text-anchor="start" x="80" y="-119" font-family="Helvetica,sans-Serif" font-size="10.00"> </text>
<text text-anchor="start" x="25.5" y="-104" font-family="Helvetica,sans-Serif" font-size="10.00">+</text>
<text text-anchor="start" x="59.5" y="-104" font-family="Helvetica,sans-Serif" font-size="10.00">operator()()</text>
<polygon fill="#666666" stroke="#666666" points="0.5,-129 0.5,-129 163.5,-129 163.5,-129 0.5,-129"/>
<polygon fill="#666666" stroke="#666666" points="0.5,-114 0.5,-114 163.5,-114 163.5,-114 0.5,-114"/>
<polygon fill="none" stroke="#666666" points="0,-97 0,-157 163,-157 163,-97 0,-97"/>
</a>
</g>
</g>
<!-- Node2&#45;&gt;Node1 -->
<g id="edge1_Node000001_Node000002" class="edge">
<title>Node2&#45;&gt;Node1</title>
<g id="a_edge1_Node000001_Node000002"><a xlink:title=" ">
<path fill="none" stroke="#63b8ff" d="M104.95,-88.24C110.75,-78.9 116.88,-69.03 122.38,-60.17"/>
<polygon fill="none" stroke="#63b8ff" points="101.83,-86.64 99.52,-96.98 107.77,-90.33 101.83,-86.64"/>
</a>
</g>
</g>
<!-- Node3 -->
<g id="Node000003" class="node">
<title>Node3</title>
<g id="a_Node000003"><a xlink:title=" ">
<polygon fill="white" stroke="transparent" points="92.5,-253 42.5,-253 42.5,-204 92.5,-204 92.5,-253"/>
<text text-anchor="start" x="47.5" y="-240.5" font-family="Helvetica,sans-Serif" font-size="10.00">MaskPtr</text>
<text text-anchor="start" x="65.5" y="-225.5" font-family="Helvetica,sans-Serif" font-size="10.00"> </text>
<text text-anchor="start" x="65.5" y="-210.5" font-family="Helvetica,sans-Serif" font-size="10.00"> </text>
<polygon fill="#666666" stroke="#666666" points="42.5,-235.5 42.5,-235.5 92.5,-235.5 92.5,-235.5 42.5,-235.5"/>
<polygon fill="#666666" stroke="#666666" points="42.5,-220.5 42.5,-220.5 92.5,-220.5 92.5,-220.5 42.5,-220.5"/>
<polygon fill="none" stroke="#666666" points="42.5,-204 42.5,-253 92.5,-253 92.5,-204 42.5,-204"/>
</a>
</g>
</g>
<!-- Node3&#45;&gt;Node2 -->
<g id="edge2_Node000002_Node000003" class="edge">
<title>Node3&#45;&gt;Node2</title>
<g id="a_edge2_Node000002_Node000003"><a xlink:title=" ">
<path fill="none" stroke="#63b8ff" d="M66.7,-203.88C66.71,-194.81 67.14,-184.38 68.5,-175 68.79,-172.98 69.15,-170.93 69.55,-168.87"/>
<polygon fill="none" stroke="#63b8ff" points="69.56,-168.79 67,-162.05 72.24,-157.09 74.8,-163.83 69.56,-168.79"/>
</a>
</g>
<text text-anchor="middle" x="88" y="-178" font-family="Helvetica,sans-Serif" font-size="10.00" fill="grey"> +mask</text>
</g>
<!-- Node4 -->
<g id="Node000004" class="node">
<title>Node4</title>
<g id="a_Node000004"><a xlink:title=" ">
<polygon fill="white" stroke="transparent" points="176,-253 153,-253 153,-204 176,-204 176,-253"/>
<text text-anchor="start" x="158.5" y="-240.5" font-family="Helvetica,sans-Serif" font-size="10.00">int</text>
<text text-anchor="start" x="163" y="-225.5" font-family="Helvetica,sans-Serif" font-size="10.00"> </text>
<text text-anchor="start" x="163" y="-210.5" font-family="Helvetica,sans-Serif" font-size="10.00"> </text>
<polygon fill="#666666" stroke="#666666" points="153.5,-235.5 153.5,-235.5 176.5,-235.5 176.5,-235.5 153.5,-235.5"/>
<polygon fill="#666666" stroke="#666666" points="153.5,-220.5 153.5,-220.5 176.5,-220.5 176.5,-220.5 153.5,-220.5"/>
<polygon fill="none" stroke="#666666" points="153,-204 153,-253 176,-253 176,-204 153,-204"/>
</a>
</g>
</g>
<!-- Node4&#45;&gt;Node1 -->
<g id="edge4_Node000001_Node000004" class="edge">
<title>Node4&#45;&gt;Node1</title>
<g id="a_edge4_Node000001_Node000004"><a xlink:title=" ">
<path fill="none" stroke="#63b8ff" d="M176.08,-209.21C179.87,-202.23 183.59,-194.01 185.5,-186 186.63,-181.24 185.9,-179.87 185.5,-175 182.6,-139.97 183.16,-130.49 172.5,-97 169.76,-88.41 166.09,-79.52 162.21,-71.16"/>
<polygon fill="none" stroke="#63b8ff" points="162.11,-70.94 155.89,-67.3 156.86,-60.15 163.08,-63.8 162.11,-70.94"/>
</a>
</g>
<text text-anchor="middle" x="199.5" y="-130" font-family="Helvetica,sans-Serif" font-size="10.00" fill="grey"> +cols</text>
<text text-anchor="middle" x="199.5" y="-119" font-family="Helvetica,sans-Serif" font-size="10.00" fill="grey">+rows</text>
</g>
<!-- Node4&#45;&gt;Node2 -->
<g id="edge3_Node000002_Node000004" class="edge">
<title>Node4&#45;&gt;Node2</title>
<g id="a_edge3_Node000002_Node000004"><a xlink:title=" ">
<path fill="none" stroke="#63b8ff" d="M152.96,-213.66C142.83,-201.52 127.61,-183.27 113.81,-166.73"/>
<polygon fill="none" stroke="#63b8ff" points="113.58,-166.46 106.67,-164.42 105.9,-157.25 112.81,-159.29 113.58,-166.46"/>
</a>
</g>
<text text-anchor="middle" x="156" y="-178" font-family="Helvetica,sans-Serif" font-size="10.00" fill="grey"> +channels</text>
</g>
</g>
</svg>
