<?xml version="1.0" encoding="UTF-8" standalone="no"?>
<!DOCTYPE svg PUBLIC "-//W3C//DTD SVG 1.1//EN"
 "http://www.w3.org/Graphics/SVG/1.1/DTD/svg11.dtd">
<!-- Generated by graphviz version 2.43.0 (0)
 -->
<!-- Title: cvhalKeyPoint Pages: 1 -->
<svg width="142pt" height="197pt"
 viewBox="0.00 0.00 142.00 197.00" xmlns="http://www.w3.org/2000/svg" xmlns:xlink="http://www.w3.org/1999/xlink">
<g id="graph0" class="graph" transform="scale(1 1) rotate(0) translate(4 193)">
<title>cvhalKeyPoint</title>
<!-- Node1 -->
<g id="Node000001" class="node">
<title>Node1</title>
<g id="a_Node000001"><a xlink:title=" ">
<polygon fill="#999999" stroke="transparent" points="94,-49 14,-49 14,0 94,0 94,-49"/>
<text text-anchor="start" x="19" y="-36.5" font-family="Helvetica,sans-Serif" font-size="10.00">cvhalKeyPoint</text>
<text text-anchor="start" x="52" y="-21.5" font-family="Helvetica,sans-Serif" font-size="10.00"> </text>
<text text-anchor="start" x="52" y="-6.5" font-family="Helvetica,sans-Serif" font-size="10.00"> </text>
<polygon fill="#666666" stroke="#666666" points="14,-31.5 14,-31.5 94,-31.5 94,-31.5 14,-31.5"/>
<polygon fill="#666666" stroke="#666666" points="14,-16.5 14,-16.5 94,-16.5 94,-16.5 14,-16.5"/>
<polygon fill="none" stroke="#666666" points="14,0 14,-49 94,-49 94,0 14,0"/>
</a>
</g>
</g>
<!-- Node2 -->
<g id="Node000002" class="node">
<title>Node2</title>
<g id="a_Node000002"><a xlink:title=" ">
<polygon fill="white" stroke="transparent" points="32,-189 0,-189 0,-140 32,-140 32,-189"/>
<text text-anchor="start" x="5" y="-176.5" font-family="Helvetica,sans-Serif" font-size="10.00">float</text>
<text text-anchor="start" x="14" y="-161.5" font-family="Helvetica,sans-Serif" font-size="10.00"> </text>
<text text-anchor="start" x="14" y="-146.5" font-family="Helvetica,sans-Serif" font-size="10.00"> </text>
<polygon fill="#666666" stroke="#666666" points="0,-171.5 0,-171.5 32,-171.5 32,-171.5 0,-171.5"/>
<polygon fill="#666666" stroke="#666666" points="0,-156.5 0,-156.5 32,-156.5 32,-156.5 0,-156.5"/>
<polygon fill="none" stroke="#666666" points="0,-140 0,-189 32,-189 32,-140 0,-140"/>
</a>
</g>
</g>
<!-- Node2&#45;&gt;Node1 -->
<g id="edge1_Node000001_Node000002" class="edge">
<title>Node2&#45;&gt;Node1</title>
<g id="a_edge1_Node000001_Node000002"><a xlink:title=" ">
<path fill="none" stroke="#63b8ff" d="M11.71,-139.62C9.15,-119.54 7.93,-90.44 17,-67 17.99,-64.44 19.22,-61.94 20.62,-59.51"/>
<polygon fill="none" stroke="#63b8ff" points="20.79,-59.26 20.94,-52.05 27.65,-49.41 27.5,-56.62 20.79,-59.26"/>
</a>
</g>
<text text-anchor="middle" x="43.5" y="-114" font-family="Helvetica,sans-Serif" font-size="10.00" fill="grey"> +angle</text>
<text text-anchor="middle" x="43.5" y="-103" font-family="Helvetica,sans-Serif" font-size="10.00" fill="grey">+response</text>
<text text-anchor="middle" x="43.5" y="-92" font-family="Helvetica,sans-Serif" font-size="10.00" fill="grey">+size</text>
<text text-anchor="middle" x="43.5" y="-81" font-family="Helvetica,sans-Serif" font-size="10.00" fill="grey">+x</text>
<text text-anchor="middle" x="43.5" y="-70" font-family="Helvetica,sans-Serif" font-size="10.00" fill="grey">+y</text>
</g>
<!-- Node3 -->
<g id="Node000003" class="node">
<title>Node3</title>
<g id="a_Node000003"><a xlink:title=" ">
<polygon fill="white" stroke="transparent" points="103.5,-189 80.5,-189 80.5,-140 103.5,-140 103.5,-189"/>
<text text-anchor="start" x="86" y="-176.5" font-family="Helvetica,sans-Serif" font-size="10.00">int</text>
<text text-anchor="start" x="90.5" y="-161.5" font-family="Helvetica,sans-Serif" font-size="10.00"> </text>
<text text-anchor="start" x="90.5" y="-146.5" font-family="Helvetica,sans-Serif" font-size="10.00"> </text>
<polygon fill="#666666" stroke="#666666" points="81,-171.5 81,-171.5 104,-171.5 104,-171.5 81,-171.5"/>
<polygon fill="#666666" stroke="#666666" points="81,-156.5 81,-156.5 104,-156.5 104,-156.5 81,-156.5"/>
<polygon fill="none" stroke="#666666" points="80.5,-140 80.5,-189 103.5,-189 103.5,-140 80.5,-140"/>
</a>
</g>
</g>
<!-- Node3&#45;&gt;Node1 -->
<g id="edge2_Node000001_Node000003" class="edge">
<title>Node3&#45;&gt;Node1</title>
<g id="a_edge2_Node000001_Node000003"><a xlink:title=" ">
<path fill="none" stroke="#63b8ff" d="M87.6,-139.85C83.7,-120.16 77.47,-91.49 70,-67 69.4,-65.02 68.74,-63 68.06,-60.97"/>
<polygon fill="none" stroke="#63b8ff" points="67.97,-60.72 62.17,-56.44 63.9,-49.43 69.7,-53.72 67.97,-60.72"/>
</a>
</g>
<text text-anchor="middle" x="108.5" y="-97.5" font-family="Helvetica,sans-Serif" font-size="10.00" fill="grey"> +class_id</text>
<text text-anchor="middle" x="108.5" y="-86.5" font-family="Helvetica,sans-Serif" font-size="10.00" fill="grey">+octave</text>
</g>
</g>
</svg>
