<?xml version="1.0" encoding="UTF-8" standalone="no"?>
<!DOCTYPE svg PUBLIC "-//W3C//DTD SVG 1.1//EN"
 "http://www.w3.org/Graphics/SVG/1.1/DTD/svg11.dtd">
<!-- Generated by graphviz version 2.43.0 (0)
 -->
<!-- Title: cv::gapi::infer2 Pages: 1 -->
<svg width="407pt" height="94pt"
 viewBox="0.00 0.00 407.00 93.50" xmlns="http://www.w3.org/2000/svg" xmlns:xlink="http://www.w3.org/1999/xlink">
<g id="graph0" class="graph" transform="scale(1 1) rotate(0) translate(4 89.5)">
<title>cv::gapi::infer2</title>
<!-- Node1 -->
<g id="Node000001" class="node">
<title>Node1</title>
<g id="a_Node000001"><a xlink:title="Calculates responses for the specified network for every region in the source image,...">
<polygon fill="#999999" stroke="#666666" points="89,-45.5 0,-45.5 0,-26.5 89,-26.5 89,-45.5"/>
<text text-anchor="middle" x="44.5" y="-33.5" font-family="Helvetica,sans-Serif" font-size="10.00">cv::gapi::infer2</text>
</a>
</g>
</g>
<!-- Node2 -->
<g id="Node000002" class="node">
<title>Node2</title>
<g id="a_Node000002"><a xlink:href="../../d3/dce/namespacecv_1_1util.html#a71f02f915a836dd4fa73b9dbc76d297b" target="_top" xlink:title=" ">
<polygon fill="white" stroke="#666666" points="224,-67.5 153,-67.5 153,-48.5 224,-48.5 224,-67.5"/>
<text text-anchor="middle" x="188.5" y="-55.5" font-family="Helvetica,sans-Serif" font-size="10.00">cv::util::get</text>
</a>
</g>
</g>
<!-- Node1&#45;&gt;Node2 -->
<g id="edge1_Node000001_Node000002" class="edge">
<title>Node1&#45;&gt;Node2</title>
<g id="a_edge1_Node000001_Node000002"><a xlink:title=" ">
<path fill="none" stroke="#63b8ff" d="M89.26,-42.78C106.13,-45.39 125.42,-48.38 142.42,-51.02"/>
<polygon fill="#63b8ff" stroke="#63b8ff" points="142.24,-54.53 152.66,-52.6 143.31,-47.61 142.24,-54.53"/>
</a>
</g>
</g>
<!-- Node4 -->
<g id="Node000004" class="node">
<title>Node4</title>
<g id="a_Node000004"><a xlink:href="../../d5/dce/classcv_1_1detail_1_1GInferInputsTyped.html#a38aa79c0af98c7f3fcf193022bf81579" target="_top" xlink:title=" ">
<polygon fill="white" stroke="#666666" points="252,-30 125,-30 125,0 252,0 252,-30"/>
<text text-anchor="start" x="133" y="-18" font-family="Helvetica,sans-Serif" font-size="10.00">cv::detail::GInferInputs</text>
<text text-anchor="middle" x="188.5" y="-7" font-family="Helvetica,sans-Serif" font-size="10.00">Typed::getBlobs</text>
</a>
</g>
</g>
<!-- Node1&#45;&gt;Node4 -->
<g id="edge4_Node000001_Node000004" class="edge">
<title>Node1&#45;&gt;Node4</title>
<g id="a_edge4_Node000001_Node000004"><a xlink:title=" ">
<path fill="none" stroke="#63b8ff" d="M89.26,-29.53C97.35,-28.33 105.98,-27.06 114.66,-25.77"/>
<polygon fill="#63b8ff" stroke="#63b8ff" points="115.45,-29.19 124.83,-24.27 114.42,-22.27 115.45,-29.19"/>
</a>
</g>
</g>
<!-- Node2&#45;&gt;Node2 -->
<g id="edge2_Node000002_Node000002" class="edge">
<title>Node2&#45;&gt;Node2</title>
<g id="a_edge2_Node000002_Node000002"><a xlink:title=" ">
<path fill="none" stroke="#63b8ff" d="M166.31,-67.58C155.51,-76.23 162.91,-85.5 188.5,-85.5 204.9,-85.5 213.82,-81.7 215.29,-76.69"/>
<polygon fill="#63b8ff" stroke="#63b8ff" points="218.32,-74.94 210.69,-67.58 212.07,-78.09 218.32,-74.94"/>
</a>
</g>
</g>
<!-- Node3 -->
<g id="Node000003" class="node">
<title>Node3</title>
<g id="a_Node000003"><a xlink:href="../../d3/dce/namespacecv_1_1util.html#a40544b3ca23b3917f2a5de6b0273079d" target="_top" xlink:title=" ">
<polygon fill="white" stroke="#666666" points="399,-67.5 288,-67.5 288,-48.5 399,-48.5 399,-67.5"/>
<text text-anchor="middle" x="343.5" y="-55.5" font-family="Helvetica,sans-Serif" font-size="10.00">cv::util::throw_error</text>
</a>
</g>
</g>
<!-- Node2&#45;&gt;Node3 -->
<g id="edge3_Node000002_Node000003" class="edge">
<title>Node2&#45;&gt;Node3</title>
<g id="a_edge3_Node000002_Node000003"><a xlink:title=" ">
<path fill="none" stroke="#63b8ff" d="M224.22,-58C240.06,-58 259.36,-58 277.73,-58"/>
<polygon fill="#63b8ff" stroke="#63b8ff" points="277.81,-61.5 287.81,-58 277.81,-54.5 277.81,-61.5"/>
</a>
</g>
</g>
</g>
</svg>
