<?xml version="1.0" encoding="UTF-8" standalone="no"?>
<!DOCTYPE svg PUBLIC "-//W3C//DTD SVG 1.1//EN"
 "http://www.w3.org/Graphics/SVG/1.1/DTD/svg11.dtd">
<!-- Generated by graphviz version 2.43.0 (0)
 -->
<!-- Title: cv::gapi::infer Pages: 1 -->
<svg width="256pt" height="76pt"
 viewBox="0.00 0.00 256.00 75.50" xmlns="http://www.w3.org/2000/svg" xmlns:xlink="http://www.w3.org/1999/xlink">
<g id="graph0" class="graph" transform="scale(1 1) rotate(0) translate(4 71.5)">
<title>cv::gapi::infer</title>
<!-- Node1 -->
<g id="Node000001" class="node">
<title>Node1</title>
<g id="a_Node000001"><a xlink:title="Calculates response for generic network.">
<polygon fill="#999999" stroke="#666666" points="83,-40 0,-40 0,-21 83,-21 83,-40"/>
<text text-anchor="middle" x="41.5" y="-28" font-family="Helvetica,sans-Serif" font-size="10.00">cv::gapi::infer</text>
</a>
</g>
</g>
<!-- Node2 -->
<g id="Node000002" class="node">
<title>Node2</title>
<g id="a_Node000002"><a xlink:href="../../d5/dce/classcv_1_1detail_1_1GInferInputsTyped.html#a38aa79c0af98c7f3fcf193022bf81579" target="_top" xlink:title=" ">
<polygon fill="white" stroke="#666666" points="247,-67.5 120,-67.5 120,-37.5 247,-37.5 247,-67.5"/>
<text text-anchor="start" x="128" y="-55.5" font-family="Helvetica,sans-Serif" font-size="10.00">cv::detail::GInferInputs</text>
<text text-anchor="middle" x="183.5" y="-44.5" font-family="Helvetica,sans-Serif" font-size="10.00">Typed::getBlobs</text>
</a>
</g>
</g>
<!-- Node1&#45;&gt;Node2 -->
<g id="edge1_Node000001_Node000002" class="edge">
<title>Node1&#45;&gt;Node2</title>
<g id="a_edge1_Node000001_Node000002"><a xlink:title=" ">
<path fill="none" stroke="#63b8ff" d="M83.37,-36.92C91.79,-38.25 100.89,-39.68 110.04,-41.11"/>
<polygon fill="#63b8ff" stroke="#63b8ff" points="109.55,-44.58 119.97,-42.67 110.64,-37.66 109.55,-44.58"/>
</a>
</g>
</g>
<!-- Node3 -->
<g id="Node000003" class="node">
<title>Node3</title>
<g id="a_Node000003"><a xlink:href="../../d2/daf/namespacecv_1_1detail.html#a2f3b650bb58db1c7b03169735e78994d" target="_top" xlink:title=" ">
<polygon fill="white" stroke="#666666" points="248,-19 119,-19 119,0 248,0 248,-19"/>
<text text-anchor="middle" x="183.5" y="-7" font-family="Helvetica,sans-Serif" font-size="10.00">cv::detail::unpackBlobs</text>
</a>
</g>
</g>
<!-- Node1&#45;&gt;Node3 -->
<g id="edge2_Node000001_Node000003" class="edge">
<title>Node1&#45;&gt;Node3</title>
<g id="a_edge2_Node000001_Node000003"><a xlink:title=" ">
<path fill="none" stroke="#63b8ff" d="M83.37,-24.37C91.46,-23.16 100.19,-21.85 108.99,-20.53"/>
<polygon fill="#63b8ff" stroke="#63b8ff" points="109.55,-23.98 118.92,-19.04 108.51,-17.06 109.55,-23.98"/>
</a>
</g>
</g>
</g>
</svg>
