<?xml version="1.0" encoding="UTF-8" standalone="no"?>
<!DOCTYPE svg PUBLIC "-//W3C//DTD SVG 1.1//EN"
 "http://www.w3.org/Graphics/SVG/1.1/DTD/svg11.dtd">
<!-- Generated by graphviz version 2.43.0 (0)
 -->
<!-- Title: cv::detail::tracking::TrackerSamplerPF Pages: 1 -->
<svg width="267pt" height="459pt"
 viewBox="0.00 0.00 267.00 459.00" xmlns="http://www.w3.org/2000/svg" xmlns:xlink="http://www.w3.org/1999/xlink">
<g id="graph0" class="graph" transform="scale(1 1) rotate(0) translate(4 455)">
<title>cv::detail::tracking::TrackerSamplerPF</title>
<!-- Node1 -->
<g id="Node000001" class="node">
<title>Node1</title>
<g id="a_Node000001"><a xlink:title="This sampler is based on particle filtering.">
<polygon fill="#999999" stroke="transparent" points="156,-75 40,-75 40,0 156,0 156,-75"/>
<text text-anchor="start" x="51" y="-62.5" font-family="Helvetica,sans-Serif" font-size="10.00">cv::detail::tracking</text>
<text text-anchor="start" x="51" y="-51.5" font-family="Helvetica,sans-Serif" font-size="10.00">::TrackerSamplerPF</text>
<text text-anchor="start" x="96" y="-36.5" font-family="Helvetica,sans-Serif" font-size="10.00"> </text>
<text text-anchor="start" x="44" y="-21.5" font-family="Helvetica,sans-Serif" font-size="10.00">+</text>
<text text-anchor="start" x="57" y="-21.5" font-family="Helvetica,sans-Serif" font-size="10.00">TrackerSamplerPF()</text>
<text text-anchor="start" x="44" y="-6.5" font-family="Helvetica,sans-Serif" font-size="10.00">#</text>
<text text-anchor="start" x="57" y="-6.5" font-family="Helvetica,sans-Serif" font-size="10.00">samplingImpl()</text>
<polygon fill="#666666" stroke="#666666" points="40,-46.5 40,-46.5 156,-46.5 156,-46.5 40,-46.5"/>
<polygon fill="#666666" stroke="#666666" points="40,-31.5 40,-31.5 156,-31.5 156,-31.5 40,-31.5"/>
<polygon fill="none" stroke="#666666" points="40,0 40,-75 156,-75 156,0 40,0"/>
</a>
</g>
</g>
<!-- Node2 -->
<g id="Node000002" class="node">
<title>Node2</title>
<g id="a_Node000002"><a xlink:href="../../dc/d27/classcv_1_1detail_1_1tracking_1_1TrackerContribSamplerAlgorithm.html" target="_top" xlink:title="Abstract base class for TrackerContribSamplerAlgorithm that represents the algorithm for the specific...">
<polygon fill="white" stroke="transparent" points="196,-232 0,-232 0,-112 196,-112 196,-232"/>
<text text-anchor="start" x="15.5" y="-220" font-family="Helvetica,sans-Serif" font-size="10.00">cv::detail::tracking</text>
<text text-anchor="start" x="15.5" y="-209" font-family="Helvetica,sans-Serif" font-size="10.00">::TrackerContribSamplerAlgorithm</text>
<text text-anchor="start" x="96" y="-194" font-family="Helvetica,sans-Serif" font-size="10.00"> </text>
<text text-anchor="start" x="4" y="-179" font-family="Helvetica,sans-Serif" font-size="10.00">+</text>
<text text-anchor="start" x="17" y="-179" font-family="Helvetica,sans-Serif" font-size="10.00">~TrackerContribSamplerAlgorithm()</text>
<text text-anchor="start" x="4" y="-164" font-family="Helvetica,sans-Serif" font-size="10.00">+</text>
<text text-anchor="start" x="17" y="-164" font-family="Helvetica,sans-Serif" font-size="10.00">getClassName()</text>
<text text-anchor="start" x="4" y="-149" font-family="Helvetica,sans-Serif" font-size="10.00">+</text>
<text text-anchor="start" x="17" y="-149" font-family="Helvetica,sans-Serif" font-size="10.00">sampling()</text>
<text text-anchor="start" x="4" y="-134" font-family="Helvetica,sans-Serif" font-size="10.00">+</text>
<text text-anchor="start" x="17" y="-134" font-family="Helvetica,sans-Serif" font-size="10.00">create()</text>
<text text-anchor="start" x="4" y="-119" font-family="Helvetica,sans-Serif" font-size="10.00">#</text>
<text text-anchor="start" x="17" y="-119" font-family="Helvetica,sans-Serif" font-size="10.00">samplingImpl()</text>
<polygon fill="#666666" stroke="#666666" points="0,-204 0,-204 196,-204 196,-204 0,-204"/>
<polygon fill="#666666" stroke="#666666" points="0,-189 0,-189 196,-189 196,-189 0,-189"/>
<polygon fill="none" stroke="#666666" points="0,-112 0,-232 196,-232 196,-112 0,-112"/>
</a>
</g>
</g>
<!-- Node2&#45;&gt;Node1 -->
<g id="edge1_Node000001_Node000002" class="edge">
<title>Node2&#45;&gt;Node1</title>
<g id="a_edge1_Node000001_Node000002"><a xlink:title=" ">
<path fill="none" stroke="#63b8ff" d="M98,-101.51C98,-92.47 98,-83.5 98,-75.29"/>
<polygon fill="none" stroke="#63b8ff" points="94.5,-101.73 98,-111.73 101.5,-101.73 94.5,-101.73"/>
</a>
</g>
</g>
<!-- Node3 -->
<g id="Node000003" class="node">
<title>Node3</title>
<g id="a_Node000003"><a xlink:href="../../de/d0a/classcv_1_1detail_1_1tracking_1_1TrackerSamplerAlgorithm.html" target="_top" xlink:title="Abstract base class for TrackerSamplerAlgorithm that represents the algorithm for the specific sample...">
<polygon fill="white" stroke="transparent" points="162,-354 2,-354 2,-279 162,-279 162,-354"/>
<text text-anchor="start" x="17" y="-341.5" font-family="Helvetica,sans-Serif" font-size="10.00">cv::detail::tracking</text>
<text text-anchor="start" x="17" y="-330.5" font-family="Helvetica,sans-Serif" font-size="10.00">::TrackerSamplerAlgorithm</text>
<text text-anchor="start" x="80" y="-315.5" font-family="Helvetica,sans-Serif" font-size="10.00"> </text>
<text text-anchor="start" x="6" y="-300.5" font-family="Helvetica,sans-Serif" font-size="10.00">+</text>
<text text-anchor="start" x="19" y="-300.5" font-family="Helvetica,sans-Serif" font-size="10.00">~TrackerSamplerAlgorithm()</text>
<text text-anchor="start" x="6" y="-285.5" font-family="Helvetica,sans-Serif" font-size="10.00">+</text>
<text text-anchor="start" x="19" y="-285.5" font-family="Helvetica,sans-Serif" font-size="10.00">sampling()</text>
<polygon fill="#666666" stroke="#666666" points="2,-325.5 2,-325.5 162,-325.5 162,-325.5 2,-325.5"/>
<polygon fill="#666666" stroke="#666666" points="2,-310.5 2,-310.5 162,-310.5 162,-310.5 2,-310.5"/>
<polygon fill="none" stroke="#666666" points="2,-279 2,-354 162,-354 162,-279 2,-279"/>
</a>
</g>
</g>
<!-- Node3&#45;&gt;Node2 -->
<g id="edge2_Node000002_Node000003" class="edge">
<title>Node3&#45;&gt;Node2</title>
<g id="a_edge2_Node000002_Node000003"><a xlink:title=" ">
<path fill="none" stroke="#63b8ff" d="M87.24,-268.83C88.55,-257.14 89.98,-244.45 91.35,-232.24"/>
<polygon fill="none" stroke="#63b8ff" points="83.76,-268.47 86.12,-278.8 90.71,-269.26 83.76,-268.47"/>
</a>
</g>
</g>
<!-- Node4 -->
<g id="Node000004" class="node">
<title>Node4</title>
<g id="a_Node000004"><a xlink:title=" ">
<polygon fill="white" stroke="transparent" points="239.5,-341 180.5,-341 180.5,-292 239.5,-292 239.5,-341"/>
<text text-anchor="start" x="186" y="-328.5" font-family="Helvetica,sans-Serif" font-size="10.00">std::string</text>
<text text-anchor="start" x="208.5" y="-313.5" font-family="Helvetica,sans-Serif" font-size="10.00"> </text>
<text text-anchor="start" x="208.5" y="-298.5" font-family="Helvetica,sans-Serif" font-size="10.00"> </text>
<polygon fill="#666666" stroke="#666666" points="181,-323.5 181,-323.5 240,-323.5 240,-323.5 181,-323.5"/>
<polygon fill="#666666" stroke="#666666" points="181,-308.5 181,-308.5 240,-308.5 240,-308.5 181,-308.5"/>
<polygon fill="none" stroke="#666666" points="180.5,-292 180.5,-341 239.5,-341 239.5,-292 180.5,-292"/>
</a>
</g>
</g>
<!-- Node4&#45;&gt;Node2 -->
<g id="edge3_Node000002_Node000004" class="edge">
<title>Node4&#45;&gt;Node2</title>
<g id="a_edge3_Node000002_Node000004"><a xlink:title=" ">
<path fill="none" stroke="#63b8ff" d="M191.51,-291.97C180.71,-278.23 166.46,-260.11 152.36,-242.16"/>
<polygon fill="none" stroke="#63b8ff" points="151.98,-241.67 145.12,-239.43 144.56,-232.24 151.41,-234.49 151.98,-241.67"/>
</a>
</g>
<text text-anchor="middle" x="197" y="-253" font-family="Helvetica,sans-Serif" font-size="10.00" fill="grey"> #className</text>
</g>
<!-- Node5 -->
<g id="Node000005" class="node">
<title>Node5</title>
<g id="a_Node000005"><a xlink:title=" ">
<polygon fill="white" stroke="transparent" points="259,-451 161,-451 161,-391 259,-391 259,-451"/>
<text text-anchor="start" x="166" y="-439" font-family="Helvetica,sans-Serif" font-size="10.00">std::basic_string&lt;</text>
<text text-anchor="start" x="191.5" y="-428" font-family="Helvetica,sans-Serif" font-size="10.00"> Char &gt;</text>
<text text-anchor="start" x="208" y="-413" font-family="Helvetica,sans-Serif" font-size="10.00"> </text>
<text text-anchor="start" x="208" y="-398" font-family="Helvetica,sans-Serif" font-size="10.00"> </text>
<polygon fill="#666666" stroke="#666666" points="161,-423 161,-423 259,-423 259,-423 161,-423"/>
<polygon fill="#666666" stroke="#666666" points="161,-408 161,-408 259,-408 259,-408 161,-408"/>
<polygon fill="none" stroke="#666666" points="161,-391 161,-451 259,-451 259,-391 161,-391"/>
</a>
</g>
</g>
<!-- Node5&#45;&gt;Node4 -->
<g id="edge4_Node000004_Node000005" class="edge">
<title>Node5&#45;&gt;Node4</title>
<g id="a_edge4_Node000004_Node000005"><a xlink:title=" ">
<path fill="none" stroke="#63b8ff" d="M210,-380.55C210,-367.25 210,-352.84 210,-341.15"/>
<polygon fill="none" stroke="#63b8ff" points="206.5,-380.9 210,-390.9 213.5,-380.9 206.5,-380.9"/>
</a>
</g>
</g>
</g>
</svg>
