<?xml version="1.0" encoding="UTF-8" standalone="no"?>
<!DOCTYPE svg PUBLIC "-//W3C//DTD SVG 1.1//EN"
 "http://www.w3.org/Graphics/SVG/1.1/DTD/svg11.dtd">
<!-- Generated by graphviz version 2.43.0 (0)
 -->
<!-- Title: cv::detail::OpaqueRefT&lt; T &gt; Pages: 1 -->
<svg width="157pt" height="434pt"
 viewBox="0.00 0.00 157.00 434.00" xmlns="http://www.w3.org/2000/svg" xmlns:xlink="http://www.w3.org/1999/xlink">
<g id="graph0" class="graph" transform="scale(1 1) rotate(0) translate(4 430)">
<title>cv::detail::OpaqueRefT&lt; T &gt;</title>
<!-- Node1 -->
<g id="Node000001" class="node">
<title>Node1</title>
<g id="a_Node000001"><a xlink:title=" ">
<polygon fill="#999999" stroke="transparent" points="149,-199 0,-199 0,0 149,0 149,-199"/>
<text text-anchor="start" x="5.5" y="-186.5" font-family="Helvetica,sans-Serif" font-size="10.00">cv::detail::OpaqueRefT&lt; T &gt;</text>
<text text-anchor="start" x="73" y="-171.5" font-family="Helvetica,sans-Serif" font-size="10.00"> </text>
<text text-anchor="start" x="17.5" y="-156.5" font-family="Helvetica,sans-Serif" font-size="10.00">+</text>
<text text-anchor="start" x="43.5" y="-156.5" font-family="Helvetica,sans-Serif" font-size="10.00">OpaqueRefT()</text>
<text text-anchor="start" x="17.5" y="-141.5" font-family="Helvetica,sans-Serif" font-size="10.00">+</text>
<text text-anchor="start" x="43.5" y="-141.5" font-family="Helvetica,sans-Serif" font-size="10.00">OpaqueRefT()</text>
<text text-anchor="start" x="17.5" y="-126.5" font-family="Helvetica,sans-Serif" font-size="10.00">+</text>
<text text-anchor="start" x="43.5" y="-126.5" font-family="Helvetica,sans-Serif" font-size="10.00">OpaqueRefT()</text>
<text text-anchor="start" x="17.5" y="-111.5" font-family="Helvetica,sans-Serif" font-size="10.00">+</text>
<text text-anchor="start" x="43.5" y="-111.5" font-family="Helvetica,sans-Serif" font-size="10.00">OpaqueRefT()</text>
<text text-anchor="start" x="17.5" y="-96.5" font-family="Helvetica,sans-Serif" font-size="10.00">+</text>
<text text-anchor="start" x="43.5" y="-96.5" font-family="Helvetica,sans-Serif" font-size="10.00">~OpaqueRefT()</text>
<text text-anchor="start" x="17.5" y="-81.5" font-family="Helvetica,sans-Serif" font-size="10.00">+</text>
<text text-anchor="start" x="43.5" y="-81.5" font-family="Helvetica,sans-Serif" font-size="10.00">mov()</text>
<text text-anchor="start" x="17.5" y="-66.5" font-family="Helvetica,sans-Serif" font-size="10.00">+</text>
<text text-anchor="start" x="43.5" y="-66.5" font-family="Helvetica,sans-Serif" font-size="10.00">ptr()</text>
<text text-anchor="start" x="17.5" y="-51.5" font-family="Helvetica,sans-Serif" font-size="10.00">+</text>
<text text-anchor="start" x="43.5" y="-51.5" font-family="Helvetica,sans-Serif" font-size="10.00">reset()</text>
<text text-anchor="start" x="17.5" y="-36.5" font-family="Helvetica,sans-Serif" font-size="10.00">+</text>
<text text-anchor="start" x="43.5" y="-36.5" font-family="Helvetica,sans-Serif" font-size="10.00">rref()</text>
<text text-anchor="start" x="17.5" y="-21.5" font-family="Helvetica,sans-Serif" font-size="10.00">+</text>
<text text-anchor="start" x="43.5" y="-21.5" font-family="Helvetica,sans-Serif" font-size="10.00">set()</text>
<text text-anchor="start" x="17.5" y="-6.5" font-family="Helvetica,sans-Serif" font-size="10.00">+</text>
<text text-anchor="start" x="43.5" y="-6.5" font-family="Helvetica,sans-Serif" font-size="10.00">wref()</text>
<polygon fill="#666666" stroke="#666666" points="0.5,-181.5 0.5,-181.5 149.5,-181.5 149.5,-181.5 0.5,-181.5"/>
<polygon fill="#666666" stroke="#666666" points="0.5,-166.5 0.5,-166.5 149.5,-166.5 149.5,-166.5 0.5,-166.5"/>
<polygon fill="none" stroke="#666666" points="0,0 0,-199 149,-199 149,0 0,0"/>
</a>
</g>
</g>
<!-- Node2 -->
<g id="Node000002" class="node">
<title>Node2</title>
<g id="a_Node000002"><a xlink:href="../../d0/d1d/classcv_1_1detail_1_1BasicOpaqueRef.html" target="_top" xlink:title=" ">
<polygon fill="white" stroke="transparent" points="145,-330 4,-330 4,-236 145,-236 145,-330"/>
<text text-anchor="start" x="9.5" y="-318" font-family="Helvetica,sans-Serif" font-size="10.00">cv::detail::BasicOpaqueRef</text>
<text text-anchor="start" x="73" y="-303" font-family="Helvetica,sans-Serif" font-size="10.00"> </text>
<text text-anchor="start" x="14" y="-288" font-family="Helvetica,sans-Serif" font-size="10.00">+</text>
<text text-anchor="start" x="32.5" y="-288" font-family="Helvetica,sans-Serif" font-size="10.00">~BasicOpaqueRef()</text>
<text text-anchor="start" x="14" y="-273" font-family="Helvetica,sans-Serif" font-size="10.00">+</text>
<text text-anchor="start" x="32.5" y="-273" font-family="Helvetica,sans-Serif" font-size="10.00">mov()</text>
<text text-anchor="start" x="14" y="-258" font-family="Helvetica,sans-Serif" font-size="10.00">+</text>
<text text-anchor="start" x="32.5" y="-258" font-family="Helvetica,sans-Serif" font-size="10.00">ptr()</text>
<text text-anchor="start" x="14" y="-243" font-family="Helvetica,sans-Serif" font-size="10.00">+</text>
<text text-anchor="start" x="32.5" y="-243" font-family="Helvetica,sans-Serif" font-size="10.00">set()</text>
<polygon fill="#666666" stroke="#666666" points="4.5,-313 4.5,-313 145.5,-313 145.5,-313 4.5,-313"/>
<polygon fill="#666666" stroke="#666666" points="4.5,-298 4.5,-298 145.5,-298 145.5,-298 4.5,-298"/>
<polygon fill="none" stroke="#666666" points="4,-236 4,-330 145,-330 145,-236 4,-236"/>
</a>
</g>
</g>
<!-- Node2&#45;&gt;Node1 -->
<g id="edge1_Node000001_Node000002" class="edge">
<title>Node2&#45;&gt;Node1</title>
<g id="a_edge1_Node000001_Node000002"><a xlink:title=" ">
<path fill="none" stroke="#63b8ff" d="M74.5,-225.61C74.5,-217.1 74.5,-208.12 74.5,-199.03"/>
<polygon fill="none" stroke="#63b8ff" points="71,-225.73 74.5,-235.73 78,-225.73 71,-225.73"/>
</a>
</g>
</g>
<!-- Node3 -->
<g id="Node000003" class="node">
<title>Node3</title>
<g id="a_Node000003"><a xlink:href="../../d2/d93/structcv_1_1GOpaqueDesc.html" target="_top" xlink:title=" ">
<polygon fill="white" stroke="transparent" points="122.5,-426 26.5,-426 26.5,-377 122.5,-377 122.5,-426"/>
<text text-anchor="start" x="31.5" y="-413.5" font-family="Helvetica,sans-Serif" font-size="10.00">cv::GOpaqueDesc</text>
<text text-anchor="start" x="72.5" y="-398.5" font-family="Helvetica,sans-Serif" font-size="10.00"> </text>
<text text-anchor="start" x="32.5" y="-383.5" font-family="Helvetica,sans-Serif" font-size="10.00">+</text>
<text text-anchor="start" x="47.5" y="-383.5" font-family="Helvetica,sans-Serif" font-size="10.00">operator==()</text>
<polygon fill="#666666" stroke="#666666" points="26.5,-408.5 26.5,-408.5 122.5,-408.5 122.5,-408.5 26.5,-408.5"/>
<polygon fill="#666666" stroke="#666666" points="26.5,-393.5 26.5,-393.5 122.5,-393.5 122.5,-393.5 26.5,-393.5"/>
<polygon fill="none" stroke="#666666" points="26.5,-377 26.5,-426 122.5,-426 122.5,-377 26.5,-377"/>
</a>
</g>
</g>
<!-- Node3&#45;&gt;Node2 -->
<g id="edge2_Node000002_Node000003" class="edge">
<title>Node3&#45;&gt;Node2</title>
<g id="a_edge2_Node000002_Node000003"><a xlink:title=" ">
<path fill="none" stroke="#63b8ff" d="M74.5,-376.92C74.5,-366.85 74.5,-354.6 74.5,-342.35"/>
<polygon fill="none" stroke="#63b8ff" points="74.5,-342.17 70.5,-336.17 74.5,-330.17 78.5,-336.17 74.5,-342.17"/>
</a>
</g>
<text text-anchor="middle" x="99" y="-351" font-family="Helvetica,sans-Serif" font-size="10.00" fill="grey"> +m_desc</text>
</g>
</g>
</svg>
