<?xml version="1.0" encoding="UTF-8" standalone="no"?>
<!DOCTYPE svg PUBLIC "-//W3C//DTD SVG 1.1//EN"
 "http://www.w3.org/Graphics/SVG/1.1/DTD/svg11.dtd">
<!-- Generated by graphviz version 2.43.0 (0)
 -->
<!-- Title: cv::cudev::PtrTraits&lt; Texture&lt; T, R &gt; &gt; Pages: 1 -->
<svg width="192pt" height="354pt"
 viewBox="0.00 0.00 191.50 354.00" xmlns="http://www.w3.org/2000/svg" xmlns:xlink="http://www.w3.org/1999/xlink">
<g id="graph0" class="graph" transform="scale(1 1) rotate(0) translate(4 350)">
<title>cv::cudev::PtrTraits&lt; Texture&lt; T, R &gt; &gt;</title>
<!-- Node1 -->
<g id="Node000001" class="node">
<title>Node1</title>
<g id="a_Node000001"><a xlink:title=" ">
<polygon fill="#999999" stroke="transparent" points="132.5,-60 22.5,-60 22.5,0 132.5,0 132.5,-60"/>
<text text-anchor="start" x="27.5" y="-48" font-family="Helvetica,sans-Serif" font-size="10.00">cv::cudev::PtrTraits</text>
<text text-anchor="start" x="27.5" y="-37" font-family="Helvetica,sans-Serif" font-size="10.00">&lt; Texture&lt; T, R &gt; &gt;</text>
<text text-anchor="start" x="75.5" y="-22" font-family="Helvetica,sans-Serif" font-size="10.00"> </text>
<text text-anchor="start" x="75.5" y="-7" font-family="Helvetica,sans-Serif" font-size="10.00"> </text>
<polygon fill="#666666" stroke="#666666" points="22.5,-32 22.5,-32 132.5,-32 132.5,-32 22.5,-32"/>
<polygon fill="#666666" stroke="#666666" points="22.5,-17 22.5,-17 132.5,-17 132.5,-17 22.5,-17"/>
<polygon fill="none" stroke="#666666" points="22.5,0 22.5,-60 132.5,-60 132.5,0 22.5,0"/>
</a>
</g>
</g>
<!-- Node2 -->
<g id="Node000002" class="node">
<title>Node2</title>
<g id="a_Node000002"><a xlink:href="../../db/d3c/structcv_1_1cudev_1_1PtrTraitsBase.html" target="_top" xlink:title=" ">
<polygon fill="white" stroke="transparent" points="155,-198 0,-198 0,-97 155,-97 155,-198"/>
<text text-anchor="start" x="5.5" y="-185.5" font-family="Helvetica,sans-Serif" font-size="10.00">cv::cudev::PtrTraitsBase</text>
<text text-anchor="start" x="5.5" y="-174.5" font-family="Helvetica,sans-Serif" font-size="10.00">&lt; Texture&lt; T, R &gt;, TexturePtr</text>
<text text-anchor="start" x="51.5" y="-163.5" font-family="Helvetica,sans-Serif" font-size="10.00">&lt; T, R &gt; &gt;</text>
<text text-anchor="start" x="76" y="-148.5" font-family="Helvetica,sans-Serif" font-size="10.00"> </text>
<text text-anchor="start" x="25" y="-133.5" font-family="Helvetica,sans-Serif" font-size="10.00">+</text>
<text text-anchor="start" x="58.5" y="-133.5" font-family="Helvetica,sans-Serif" font-size="10.00">getCols()</text>
<text text-anchor="start" x="25" y="-118.5" font-family="Helvetica,sans-Serif" font-size="10.00">+</text>
<text text-anchor="start" x="58.5" y="-118.5" font-family="Helvetica,sans-Serif" font-size="10.00">getRows()</text>
<text text-anchor="start" x="25" y="-103.5" font-family="Helvetica,sans-Serif" font-size="10.00">+</text>
<text text-anchor="start" x="58.5" y="-103.5" font-family="Helvetica,sans-Serif" font-size="10.00">shrinkPtr()</text>
<polygon fill="#666666" stroke="#666666" points="0.5,-158.5 0.5,-158.5 155.5,-158.5 155.5,-158.5 0.5,-158.5"/>
<polygon fill="#666666" stroke="#666666" points="0.5,-143.5 0.5,-143.5 155.5,-143.5 155.5,-143.5 0.5,-143.5"/>
<polygon fill="none" stroke="#666666" points="0,-97 0,-198 155,-198 155,-97 0,-97"/>
</a>
</g>
</g>
<!-- Node2&#45;&gt;Node1 -->
<g id="edge1_Node000001_Node000002" class="edge">
<title>Node2&#45;&gt;Node1</title>
<g id="a_edge1_Node000001_Node000002"><a xlink:title=" ">
<path fill="none" stroke="#63b8ff" d="M77.5,-86.84C77.5,-77.61 77.5,-68.44 77.5,-60.28"/>
<polygon fill="none" stroke="#63b8ff" points="74,-86.85 77.5,-96.85 81,-86.85 74,-86.85"/>
</a>
</g>
</g>
<!-- Node3 -->
<g id="Node000003" class="node">
<title>Node3</title>
<g id="a_Node000003"><a xlink:href="../../db/d3c/structcv_1_1cudev_1_1PtrTraitsBase.html" target="_top" xlink:title=" ">
<polygon fill="white" stroke="transparent" points="140,-346 15,-346 15,-256 140,-256 140,-346"/>
<text text-anchor="start" x="20.5" y="-334" font-family="Helvetica,sans-Serif" font-size="10.00">cv::cudev::PtrTraitsBase</text>
<text text-anchor="start" x="31" y="-323" font-family="Helvetica,sans-Serif" font-size="10.00">&lt; Ptr2DSz, Ptr2D &gt;</text>
<text text-anchor="start" x="76" y="-308" font-family="Helvetica,sans-Serif" font-size="10.00"> </text>
<text text-anchor="start" x="32.5" y="-293" font-family="Helvetica,sans-Serif" font-size="10.00">+</text>
<text text-anchor="start" x="58.5" y="-293" font-family="Helvetica,sans-Serif" font-size="10.00">getCols()</text>
<text text-anchor="start" x="32.5" y="-278" font-family="Helvetica,sans-Serif" font-size="10.00">+</text>
<text text-anchor="start" x="58.5" y="-278" font-family="Helvetica,sans-Serif" font-size="10.00">getRows()</text>
<text text-anchor="start" x="32.5" y="-263" font-family="Helvetica,sans-Serif" font-size="10.00">+</text>
<text text-anchor="start" x="58.5" y="-263" font-family="Helvetica,sans-Serif" font-size="10.00">shrinkPtr()</text>
<polygon fill="#666666" stroke="#666666" points="15.5,-318 15.5,-318 140.5,-318 140.5,-318 15.5,-318"/>
<polygon fill="#666666" stroke="#666666" points="15.5,-303 15.5,-303 140.5,-303 140.5,-303 15.5,-303"/>
<polygon fill="none" stroke="#666666" points="15,-256 15,-346 140,-346 140,-256 15,-256"/>
</a>
</g>
</g>
<!-- Node3&#45;&gt;Node2 -->
<g id="edge2_Node000002_Node000003" class="edge">
<title>Node3&#45;&gt;Node2</title>
<g id="a_edge2_Node000002_Node000003"><a xlink:title=" ">
<path fill="none" stroke="orange" d="M77.5,-245.33C77.5,-229.9 77.5,-213.21 77.5,-198.1"/>
<polygon fill="orange" stroke="orange" points="74,-245.77 77.5,-255.77 81,-245.77 74,-245.77"/>
</a>
</g>
<text text-anchor="start" x="77.5" y="-230" font-family="Helvetica,sans-Serif" font-size="10.00" fill="grey"> &lt; Texture&lt; T, R &gt;,</text>
<text text-anchor="middle" x="130.5" y="-219" font-family="Helvetica,sans-Serif" font-size="10.00" fill="grey"> TexturePtr&lt; T, R &gt; &gt;</text>
</g>
</g>
</svg>
