<?xml version="1.0" encoding="UTF-8" standalone="no"?>
<!DOCTYPE svg PUBLIC "-//W3C//DTD SVG 1.1//EN"
 "http://www.w3.org/Graphics/SVG/1.1/DTD/svg11.dtd">
<!-- Generated by graphviz version 2.43.0 (0)
 -->
<!-- Title: opencv2/cudev/functional/functional.hpp Pages: 1 -->
<svg width="719pt" height="225pt"
 viewBox="0.00 0.00 719.02 225.00" xmlns="http://www.w3.org/2000/svg" xmlns:xlink="http://www.w3.org/1999/xlink">
<g id="graph0" class="graph" transform="scale(1 1) rotate(0) translate(4 221)">
<title>opencv2/cudev/functional/functional.hpp</title>
<!-- Node1 -->
<g id="Node000001" class="node">
<title>Node1</title>
<g id="a_Node000001"><a xlink:title=" ">
<polygon fill="#999999" stroke="#666666" points="275.02,-217 133.02,-217 133.02,-187 275.02,-187 275.02,-217"/>
<text text-anchor="start" x="141.02" y="-205" font-family="Helvetica,sans-Serif" font-size="10.00">opencv2/cudev/functional</text>
<text text-anchor="middle" x="204.02" y="-194" font-family="Helvetica,sans-Serif" font-size="10.00">/functional.hpp</text>
</a>
</g>
</g>
<!-- Node2 -->
<g id="Node000002" class="node">
<title>Node2</title>
<g id="a_Node000002"><a xlink:href="../../d6/d38/cudev_8hpp.html" target="_top" xlink:title=" ">
<polygon fill="white" stroke="#666666" points="491.02,-19 381.02,-19 381.02,0 491.02,0 491.02,-19"/>
<text text-anchor="middle" x="436.02" y="-7" font-family="Helvetica,sans-Serif" font-size="10.00">opencv2/cudev.hpp</text>
</a>
</g>
</g>
<!-- Node1&#45;&gt;Node2 -->
<g id="edge1_Node000001_Node000002" class="edge">
<title>Node1&#45;&gt;Node2</title>
<g id="a_edge1_Node000001_Node000002"><a xlink:title=" ">
<path fill="none" stroke="#63b8ff" d="M147.21,-183.78C74.48,-158.97 -36.56,-110.07 13.02,-55 37.2,-28.14 271.72,-16.34 380.77,-12.27"/>
<polygon fill="#63b8ff" stroke="#63b8ff" points="146.16,-187.12 156.75,-186.97 148.38,-180.48 146.16,-187.12"/>
</a>
</g>
</g>
<!-- Node3 -->
<g id="Node000003" class="node">
<title>Node3</title>
<g id="a_Node000003"><a xlink:href="../../d5/dbb/contrib_2modules_2cudev_2include_2opencv2_2cudev_2block_2vec__distance_8hpp.html" target="_top" xlink:title=" ">
<polygon fill="white" stroke="#666666" points="141.52,-85 22.52,-85 22.52,-55 141.52,-55 141.52,-85"/>
<text text-anchor="start" x="30.52" y="-73" font-family="Helvetica,sans-Serif" font-size="10.00">opencv2/cudev/block</text>
<text text-anchor="middle" x="82.02" y="-62" font-family="Helvetica,sans-Serif" font-size="10.00">/vec_distance.hpp</text>
</a>
</g>
</g>
<!-- Node1&#45;&gt;Node3 -->
<g id="edge2_Node000001_Node000003" class="edge">
<title>Node1&#45;&gt;Node3</title>
<g id="a_edge2_Node000001_Node000003"><a xlink:title=" ">
<path fill="none" stroke="#63b8ff" d="M172.5,-181.21C160.34,-172.74 146.8,-162.23 136.02,-151 116.28,-130.46 98.95,-101.92 89.52,-85.06"/>
<polygon fill="#63b8ff" stroke="#63b8ff" points="170.8,-184.29 181.04,-186.99 174.72,-178.49 170.8,-184.29"/>
</a>
</g>
</g>
<!-- Node4 -->
<g id="Node000004" class="node">
<title>Node4</title>
<g id="a_Node000004"><a xlink:href="../../d3/d3c/binary__func_8hpp.html" target="_top" xlink:title=" ">
<polygon fill="white" stroke="#666666" points="274.52,-85 159.52,-85 159.52,-55 274.52,-55 274.52,-85"/>
<text text-anchor="start" x="167.52" y="-73" font-family="Helvetica,sans-Serif" font-size="10.00">opencv2/cudev/expr</text>
<text text-anchor="middle" x="217.02" y="-62" font-family="Helvetica,sans-Serif" font-size="10.00">/binary_func.hpp</text>
</a>
</g>
</g>
<!-- Node1&#45;&gt;Node4 -->
<g id="edge4_Node000001_Node000004" class="edge">
<title>Node1&#45;&gt;Node4</title>
<g id="a_edge4_Node000001_Node000004"><a xlink:title=" ">
<path fill="none" stroke="#63b8ff" d="M170.06,-181.09C159.74,-173.15 149.65,-163.01 144.02,-151 138.36,-138.93 137.8,-132.79 144.02,-121 152.4,-105.1 168.37,-93.29 183.24,-85.15"/>
<polygon fill="#63b8ff" stroke="#63b8ff" points="168.13,-184.01 178.3,-186.97 172.2,-178.31 168.13,-184.01"/>
</a>
</g>
</g>
<!-- Node5 -->
<g id="Node000005" class="node">
<title>Node5</title>
<g id="a_Node000005"><a xlink:href="../../d7/d8d/binary__op_8hpp.html" target="_top" xlink:title=" ">
<polygon fill="white" stroke="#666666" points="407.52,-85 292.52,-85 292.52,-55 407.52,-55 407.52,-85"/>
<text text-anchor="start" x="300.52" y="-73" font-family="Helvetica,sans-Serif" font-size="10.00">opencv2/cudev/expr</text>
<text text-anchor="middle" x="350.02" y="-62" font-family="Helvetica,sans-Serif" font-size="10.00">/binary_op.hpp</text>
</a>
</g>
</g>
<!-- Node1&#45;&gt;Node5 -->
<g id="edge6_Node000001_Node000005" class="edge">
<title>Node1&#45;&gt;Node5</title>
<g id="a_edge6_Node000001_Node000005"><a xlink:title=" ">
<path fill="none" stroke="#63b8ff" d="M185.93,-178.42C174.57,-161.32 164.26,-137.96 177.02,-121 184.23,-111.41 244.99,-95.34 292.49,-84.02"/>
<polygon fill="#63b8ff" stroke="#63b8ff" points="183.2,-180.61 191.85,-186.72 188.9,-176.55 183.2,-180.61"/>
</a>
</g>
</g>
<!-- Node6 -->
<g id="Node000006" class="node">
<title>Node6</title>
<g id="a_Node000006"><a xlink:href="../../dd/d7e/per__element__func_8hpp.html" target="_top" xlink:title=" ">
<polygon fill="white" stroke="#666666" points="314.02,-151 186.02,-151 186.02,-121 314.02,-121 314.02,-151"/>
<text text-anchor="start" x="194.02" y="-139" font-family="Helvetica,sans-Serif" font-size="10.00">opencv2/cudev/expr</text>
<text text-anchor="middle" x="250.02" y="-128" font-family="Helvetica,sans-Serif" font-size="10.00">/per_element_func.hpp</text>
</a>
</g>
</g>
<!-- Node1&#45;&gt;Node6 -->
<g id="edge8_Node000001_Node000006" class="edge">
<title>Node1&#45;&gt;Node6</title>
<g id="a_edge8_Node000001_Node000006"><a xlink:title=" ">
<path fill="none" stroke="#63b8ff" d="M220.17,-178.53C226.71,-169.43 234.07,-159.19 239.84,-151.16"/>
<polygon fill="#63b8ff" stroke="#63b8ff" points="217.22,-176.63 214.23,-186.8 222.91,-180.72 217.22,-176.63"/>
</a>
</g>
</g>
<!-- Node7 -->
<g id="Node000007" class="node">
<title>Node7</title>
<g id="a_Node000007"><a xlink:href="../../da/d71/unary__func_8hpp.html" target="_top" xlink:title=" ">
<polygon fill="white" stroke="#666666" points="447.52,-151 332.52,-151 332.52,-121 447.52,-121 447.52,-151"/>
<text text-anchor="start" x="340.52" y="-139" font-family="Helvetica,sans-Serif" font-size="10.00">opencv2/cudev/expr</text>
<text text-anchor="middle" x="390.02" y="-128" font-family="Helvetica,sans-Serif" font-size="10.00">/unary_func.hpp</text>
</a>
</g>
</g>
<!-- Node1&#45;&gt;Node7 -->
<g id="edge10_Node000001_Node000007" class="edge">
<title>Node1&#45;&gt;Node7</title>
<g id="a_edge10_Node000001_Node000007"><a xlink:title=" ">
<path fill="none" stroke="#63b8ff" d="M254.62,-183.59C284.35,-173.36 321.45,-160.59 349.29,-151.01"/>
<polygon fill="#63b8ff" stroke="#63b8ff" points="253.15,-180.39 244.84,-186.95 255.43,-187.01 253.15,-180.39"/>
</a>
</g>
</g>
<!-- Node8 -->
<g id="Node000008" class="node">
<title>Node8</title>
<g id="a_Node000008"><a xlink:href="../../da/d1f/unary__op_8hpp.html" target="_top" xlink:title=" ">
<polygon fill="white" stroke="#666666" points="580.52,-151 465.52,-151 465.52,-121 580.52,-121 580.52,-151"/>
<text text-anchor="start" x="473.52" y="-139" font-family="Helvetica,sans-Serif" font-size="10.00">opencv2/cudev/expr</text>
<text text-anchor="middle" x="523.02" y="-128" font-family="Helvetica,sans-Serif" font-size="10.00">/unary_op.hpp</text>
</a>
</g>
</g>
<!-- Node1&#45;&gt;Node8 -->
<g id="edge12_Node000001_Node000008" class="edge">
<title>Node1&#45;&gt;Node8</title>
<g id="a_edge12_Node000001_Node000008"><a xlink:title=" ">
<path fill="none" stroke="#63b8ff" d="M285.19,-185.11C334.6,-175.38 398.98,-162.62 456.02,-151 459.05,-150.38 462.15,-149.75 465.28,-149.1"/>
<polygon fill="#63b8ff" stroke="#63b8ff" points="284.34,-181.71 275.2,-187.08 285.69,-188.58 284.34,-181.71"/>
</a>
</g>
</g>
<!-- Node9 -->
<g id="Node000009" class="node">
<title>Node9</title>
<g id="a_Node000009"><a xlink:href="../../d3/ddc/reduce__to__vec_8hpp.html" target="_top" xlink:title=" ">
<polygon fill="white" stroke="#666666" points="711.02,-151 599.02,-151 599.02,-121 711.02,-121 711.02,-151"/>
<text text-anchor="start" x="607.02" y="-139" font-family="Helvetica,sans-Serif" font-size="10.00">opencv2/cudev/grid</text>
<text text-anchor="middle" x="655.02" y="-128" font-family="Helvetica,sans-Serif" font-size="10.00">/reduce_to_vec.hpp</text>
</a>
</g>
</g>
<!-- Node1&#45;&gt;Node9 -->
<g id="edge14_Node000001_Node000009" class="edge">
<title>Node1&#45;&gt;Node9</title>
<g id="a_edge14_Node000001_Node000009"><a xlink:title=" ">
<path fill="none" stroke="#63b8ff" d="M285.49,-192.33C363.61,-183.57 484.74,-168.8 589.02,-151 592.25,-150.45 595.57,-149.85 598.91,-149.22"/>
<polygon fill="#63b8ff" stroke="#63b8ff" points="284.78,-188.89 275.23,-193.48 285.56,-195.85 284.78,-188.89"/>
</a>
</g>
</g>
<!-- Node3&#45;&gt;Node2 -->
<g id="edge3_Node000003_Node000002" class="edge">
<title>Node3&#45;&gt;Node2</title>
<g id="a_edge3_Node000003_Node000002"><a xlink:title=" ">
<path fill="none" stroke="#63b8ff" d="M151.54,-54.77C236.86,-39.52 325.23,-26.29 380.79,-18.28"/>
<polygon fill="#63b8ff" stroke="#63b8ff" points="150.91,-51.33 141.69,-56.54 152.15,-58.22 150.91,-51.33"/>
</a>
</g>
</g>
<!-- Node4&#45;&gt;Node2 -->
<g id="edge5_Node000004_Node000002" class="edge">
<title>Node4&#45;&gt;Node2</title>
<g id="a_edge5_Node000004_Node000002"><a xlink:title=" ">
<path fill="none" stroke="#63b8ff" d="M279.3,-52.36C319.97,-41.5 371.38,-27.77 404,-19.05"/>
<polygon fill="#63b8ff" stroke="#63b8ff" points="278.23,-49.03 269.47,-54.99 280.04,-55.79 278.23,-49.03"/>
</a>
</g>
</g>
<!-- Node5&#45;&gt;Node2 -->
<g id="edge7_Node000005_Node000002" class="edge">
<title>Node5&#45;&gt;Node2</title>
<g id="a_edge7_Node000005_Node000002"><a xlink:title=" ">
<path fill="none" stroke="#63b8ff" d="M379.33,-49.06C394.34,-38.85 411.84,-26.95 423.38,-19.09"/>
<polygon fill="#63b8ff" stroke="#63b8ff" points="377.14,-46.32 370.84,-54.84 381.07,-52.11 377.14,-46.32"/>
</a>
</g>
</g>
<!-- Node6&#45;&gt;Node2 -->
<g id="edge9_Node000006_Node000002" class="edge">
<title>Node6&#45;&gt;Node2</title>
<g id="a_edge9_Node000006_Node000002"><a xlink:title=" ">
<path fill="none" stroke="#63b8ff" d="M324.14,-120.09C361.96,-111.07 402.74,-98.68 416.02,-85 433.74,-66.74 436.17,-34.55 436.25,-19.16"/>
<polygon fill="#63b8ff" stroke="#63b8ff" points="323.04,-116.75 314.09,-122.42 324.63,-123.57 323.04,-116.75"/>
</a>
</g>
</g>
<!-- Node7&#45;&gt;Node2 -->
<g id="edge11_Node000007_Node000002" class="edge">
<title>Node7&#45;&gt;Node2</title>
<g id="a_edge11_Node000007_Node000002"><a xlink:title=" ">
<path fill="none" stroke="#63b8ff" d="M423.98,-115.09C434.3,-107.15 444.39,-97.01 450.02,-85 460.4,-62.83 448.31,-33.55 440.91,-19.19"/>
<polygon fill="#63b8ff" stroke="#63b8ff" points="421.84,-112.31 415.74,-120.97 425.91,-118.01 421.84,-112.31"/>
</a>
</g>
</g>
<!-- Node8&#45;&gt;Node2 -->
<g id="edge13_Node000008_Node000002" class="edge">
<title>Node8&#45;&gt;Node2</title>
<g id="a_edge13_Node000008_Node000002"><a xlink:title=" ">
<path fill="none" stroke="#63b8ff" d="M507.17,-112.33C487.61,-84.33 455.29,-38.08 442.01,-19.07"/>
<polygon fill="#63b8ff" stroke="#63b8ff" points="504.44,-114.53 513.04,-120.72 510.18,-110.52 504.44,-114.53"/>
</a>
</g>
</g>
<!-- Node9&#45;&gt;Node2 -->
<g id="edge15_Node000009_Node000002" class="edge">
<title>Node9&#45;&gt;Node2</title>
<g id="a_edge15_Node000009_Node000002"><a xlink:title=" ">
<path fill="none" stroke="#63b8ff" d="M621.5,-115.94C573.24,-88.51 486.14,-38.99 451.16,-19.11"/>
<polygon fill="#63b8ff" stroke="#63b8ff" points="619.9,-119.06 630.32,-120.96 623.36,-112.98 619.9,-119.06"/>
</a>
</g>
</g>
<!-- Node10 -->
<g id="Node000010" class="node">
<title>Node10</title>
<g id="a_Node000010"><a xlink:href="../../d2/da5/reduction_8hpp.html" target="_top" xlink:title=" ">
<polygon fill="white" stroke="#666666" points="708.52,-85 593.52,-85 593.52,-55 708.52,-55 708.52,-85"/>
<text text-anchor="start" x="601.52" y="-73" font-family="Helvetica,sans-Serif" font-size="10.00">opencv2/cudev/expr</text>
<text text-anchor="middle" x="651.02" y="-62" font-family="Helvetica,sans-Serif" font-size="10.00">/reduction.hpp</text>
</a>
</g>
</g>
<!-- Node9&#45;&gt;Node10 -->
<g id="edge16_Node000009_Node000010" class="edge">
<title>Node9&#45;&gt;Node10</title>
<g id="a_edge16_Node000009_Node000010"><a xlink:title=" ">
<path fill="none" stroke="#63b8ff" d="M653.49,-110.54C652.95,-101.96 652.37,-92.61 651.9,-85.16"/>
<polygon fill="#63b8ff" stroke="#63b8ff" points="650.01,-111.03 654.13,-120.8 657,-110.6 650.01,-111.03"/>
</a>
</g>
</g>
<!-- Node10&#45;&gt;Node2 -->
<g id="edge17_Node000010_Node000002" class="edge">
<title>Node10&#45;&gt;Node2</title>
<g id="a_edge17_Node000010_Node000002"><a xlink:title=" ">
<path fill="none" stroke="#63b8ff" d="M589.62,-52.29C549.74,-41.44 499.4,-27.75 467.45,-19.05"/>
<polygon fill="#63b8ff" stroke="#63b8ff" points="588.95,-55.74 599.52,-54.99 590.79,-48.99 588.95,-55.74"/>
</a>
</g>
</g>
</g>
</svg>
