<?xml version="1.0" encoding="UTF-8" standalone="no"?>
<!DOCTYPE svg PUBLIC "-//W3C//DTD SVG 1.1//EN"
 "http://www.w3.org/Graphics/SVG/1.1/DTD/svg11.dtd">
<!-- Generated by graphviz version 2.43.0 (0)
 -->
<!-- Title: cv::cudev::PtrTraits&lt; LaplacianPtrSz&lt; ksize, SrcPtr &gt; &gt; Pages: 1 -->
<svg width="201pt" height="387pt"
 viewBox="0.00 0.00 200.50 387.00" xmlns="http://www.w3.org/2000/svg" xmlns:xlink="http://www.w3.org/1999/xlink">
<g id="graph0" class="graph" transform="scale(1 1) rotate(0) translate(4 383)">
<title>cv::cudev::PtrTraits&lt; LaplacianPtrSz&lt; ksize, SrcPtr &gt; &gt;</title>
<!-- Node1 -->
<g id="Node000001" class="node">
<title>Node1</title>
<g id="a_Node000001"><a xlink:title=" ">
<polygon fill="#999999" stroke="transparent" points="133,-71 0,-71 0,0 133,0 133,-71"/>
<text text-anchor="start" x="5.5" y="-58.5" font-family="Helvetica,sans-Serif" font-size="10.00">cv::cudev::PtrTraits</text>
<text text-anchor="start" x="5.5" y="-47.5" font-family="Helvetica,sans-Serif" font-size="10.00">&lt; LaplacianPtrSz&lt; ksize,</text>
<text text-anchor="start" x="39.5" y="-36.5" font-family="Helvetica,sans-Serif" font-size="10.00"> SrcPtr &gt; &gt;</text>
<text text-anchor="start" x="65" y="-21.5" font-family="Helvetica,sans-Serif" font-size="10.00"> </text>
<text text-anchor="start" x="65" y="-6.5" font-family="Helvetica,sans-Serif" font-size="10.00"> </text>
<polygon fill="#666666" stroke="#666666" points="0.5,-31.5 0.5,-31.5 133.5,-31.5 133.5,-31.5 0.5,-31.5"/>
<polygon fill="#666666" stroke="#666666" points="0.5,-16.5 0.5,-16.5 133.5,-16.5 133.5,-16.5 0.5,-16.5"/>
<polygon fill="none" stroke="#666666" points="0,0 0,-71 133,-71 133,0 0,0"/>
</a>
</g>
</g>
<!-- Node2 -->
<g id="Node000002" class="node">
<title>Node2</title>
<g id="a_Node000002"><a xlink:href="../../db/d3c/structcv_1_1cudev_1_1PtrTraitsBase.html" target="_top" xlink:title=" ">
<polygon fill="white" stroke="transparent" points="133,-220 0,-220 0,-108 133,-108 133,-220"/>
<text text-anchor="start" x="5.5" y="-208" font-family="Helvetica,sans-Serif" font-size="10.00">cv::cudev::PtrTraitsBase</text>
<text text-anchor="start" x="5.5" y="-197" font-family="Helvetica,sans-Serif" font-size="10.00">&lt; LaplacianPtrSz&lt; ksize,</text>
<text text-anchor="start" x="5.5" y="-186" font-family="Helvetica,sans-Serif" font-size="10.00"> SrcPtr &gt;, LaplacianPtr</text>
<text text-anchor="start" x="20" y="-175" font-family="Helvetica,sans-Serif" font-size="10.00">&lt; ksize, SrcPtr &gt; &gt;</text>
<text text-anchor="start" x="65" y="-160" font-family="Helvetica,sans-Serif" font-size="10.00"> </text>
<text text-anchor="start" x="19.5" y="-145" font-family="Helvetica,sans-Serif" font-size="10.00">+</text>
<text text-anchor="start" x="47.5" y="-145" font-family="Helvetica,sans-Serif" font-size="10.00">getCols()</text>
<text text-anchor="start" x="19.5" y="-130" font-family="Helvetica,sans-Serif" font-size="10.00">+</text>
<text text-anchor="start" x="47.5" y="-130" font-family="Helvetica,sans-Serif" font-size="10.00">getRows()</text>
<text text-anchor="start" x="19.5" y="-115" font-family="Helvetica,sans-Serif" font-size="10.00">+</text>
<text text-anchor="start" x="47.5" y="-115" font-family="Helvetica,sans-Serif" font-size="10.00">shrinkPtr()</text>
<polygon fill="#666666" stroke="#666666" points="0.5,-170 0.5,-170 133.5,-170 133.5,-170 0.5,-170"/>
<polygon fill="#666666" stroke="#666666" points="0.5,-155 0.5,-155 133.5,-155 133.5,-155 0.5,-155"/>
<polygon fill="none" stroke="#666666" points="0,-108 0,-220 133,-220 133,-108 0,-108"/>
</a>
</g>
</g>
<!-- Node2&#45;&gt;Node1 -->
<g id="edge1_Node000001_Node000002" class="edge">
<title>Node2&#45;&gt;Node1</title>
<g id="a_edge1_Node000001_Node000002"><a xlink:title=" ">
<path fill="none" stroke="#63b8ff" d="M66.5,-97.85C66.5,-88.6 66.5,-79.4 66.5,-71.04"/>
<polygon fill="none" stroke="#63b8ff" points="63,-97.88 66.5,-107.88 70,-97.88 63,-97.88"/>
</a>
</g>
</g>
<!-- Node3 -->
<g id="Node000003" class="node">
<title>Node3</title>
<g id="a_Node000003"><a xlink:href="../../db/d3c/structcv_1_1cudev_1_1PtrTraitsBase.html" target="_top" xlink:title=" ">
<polygon fill="white" stroke="transparent" points="129,-379 4,-379 4,-289 129,-289 129,-379"/>
<text text-anchor="start" x="9.5" y="-367" font-family="Helvetica,sans-Serif" font-size="10.00">cv::cudev::PtrTraitsBase</text>
<text text-anchor="start" x="20" y="-356" font-family="Helvetica,sans-Serif" font-size="10.00">&lt; Ptr2DSz, Ptr2D &gt;</text>
<text text-anchor="start" x="65" y="-341" font-family="Helvetica,sans-Serif" font-size="10.00"> </text>
<text text-anchor="start" x="21.5" y="-326" font-family="Helvetica,sans-Serif" font-size="10.00">+</text>
<text text-anchor="start" x="47.5" y="-326" font-family="Helvetica,sans-Serif" font-size="10.00">getCols()</text>
<text text-anchor="start" x="21.5" y="-311" font-family="Helvetica,sans-Serif" font-size="10.00">+</text>
<text text-anchor="start" x="47.5" y="-311" font-family="Helvetica,sans-Serif" font-size="10.00">getRows()</text>
<text text-anchor="start" x="21.5" y="-296" font-family="Helvetica,sans-Serif" font-size="10.00">+</text>
<text text-anchor="start" x="47.5" y="-296" font-family="Helvetica,sans-Serif" font-size="10.00">shrinkPtr()</text>
<polygon fill="#666666" stroke="#666666" points="4.5,-351 4.5,-351 129.5,-351 129.5,-351 4.5,-351"/>
<polygon fill="#666666" stroke="#666666" points="4.5,-336 4.5,-336 129.5,-336 129.5,-336 4.5,-336"/>
<polygon fill="none" stroke="#666666" points="4,-289 4,-379 129,-379 129,-289 4,-289"/>
</a>
</g>
</g>
<!-- Node3&#45;&gt;Node2 -->
<g id="edge2_Node000002_Node000003" class="edge">
<title>Node3&#45;&gt;Node2</title>
<g id="a_edge2_Node000002_Node000003"><a xlink:title=" ">
<path fill="none" stroke="orange" d="M66.5,-278.73C66.5,-260.02 66.5,-239.06 66.5,-220.27"/>
<polygon fill="orange" stroke="orange" points="63,-278.86 66.5,-288.86 70,-278.86 63,-278.86"/>
</a>
</g>
<text text-anchor="start" x="66.5" y="-263" font-family="Helvetica,sans-Serif" font-size="10.00" fill="grey"> &lt; LaplacianPtrSz&lt; ksize,</text>
<text text-anchor="start" x="66.5" y="-252" font-family="Helvetica,sans-Serif" font-size="10.00" fill="grey"> SrcPtr &gt;, LaplacianPtr</text>
<text text-anchor="middle" x="129.5" y="-241" font-family="Helvetica,sans-Serif" font-size="10.00" fill="grey">&lt; ksize, SrcPtr &gt; &gt;</text>
</g>
</g>
</svg>
