<?xml version="1.0" encoding="UTF-8" standalone="no"?>
<!DOCTYPE svg PUBLIC "-//W3C//DTD SVG 1.1//EN"
 "http://www.w3.org/Graphics/SVG/1.1/DTD/svg11.dtd">
<!-- Generated by graphviz version 2.43.0 (0)
 -->
<!-- Title: cv::cudev::Sum&lt; T &gt; Pages: 1 -->
<svg width="145pt" height="362pt"
 viewBox="0.00 0.00 145.00 362.00" xmlns="http://www.w3.org/2000/svg" xmlns:xlink="http://www.w3.org/1999/xlink">
<g id="graph0" class="graph" transform="scale(1 1) rotate(0) translate(4 358)">
<title>cv::cudev::Sum&lt; T &gt;</title>
<!-- Node1 -->
<g id="Node000001" class="node">
<title>Node1</title>
<g id="a_Node000001"><a xlink:title=" ">
<polygon fill="#999999" stroke="transparent" points="124.5,-64 12.5,-64 12.5,0 124.5,0 124.5,-64"/>
<text text-anchor="start" x="17.5" y="-52" font-family="Helvetica,sans-Serif" font-size="10.00">cv::cudev::Sum&lt; T &gt;</text>
<text text-anchor="start" x="66.5" y="-37" font-family="Helvetica,sans-Serif" font-size="10.00"> </text>
<text text-anchor="start" x="23.5" y="-22" font-family="Helvetica,sans-Serif" font-size="10.00">+</text>
<text text-anchor="start" x="43.5" y="-22" font-family="Helvetica,sans-Serif" font-size="10.00">initialValue()</text>
<text text-anchor="start" x="23.5" y="-7" font-family="Helvetica,sans-Serif" font-size="10.00">+</text>
<text text-anchor="start" x="43.5" y="-7" font-family="Helvetica,sans-Serif" font-size="10.00">result()</text>
<polygon fill="#666666" stroke="#666666" points="12.5,-47 12.5,-47 124.5,-47 124.5,-47 12.5,-47"/>
<polygon fill="#666666" stroke="#666666" points="12.5,-32 12.5,-32 124.5,-32 124.5,-32 12.5,-32"/>
<polygon fill="none" stroke="#666666" points="12.5,0 12.5,-64 124.5,-64 124.5,0 12.5,0"/>
</a>
</g>
</g>
<!-- Node2 -->
<g id="Node000002" class="node">
<title>Node2</title>
<g id="a_Node000002"><a xlink:href="../../d4/dd0/structcv_1_1cudev_1_1plus.html" target="_top" xlink:title=" ">
<polygon fill="white" stroke="transparent" points="123.5,-150 13.5,-150 13.5,-101 123.5,-101 123.5,-150"/>
<text text-anchor="start" x="18.5" y="-137.5" font-family="Helvetica,sans-Serif" font-size="10.00">cv::cudev::plus&lt; T &gt;</text>
<text text-anchor="start" x="66.5" y="-122.5" font-family="Helvetica,sans-Serif" font-size="10.00"> </text>
<text text-anchor="start" x="25.5" y="-107.5" font-family="Helvetica,sans-Serif" font-size="10.00">+</text>
<text text-anchor="start" x="46.5" y="-107.5" font-family="Helvetica,sans-Serif" font-size="10.00">operator()()</text>
<polygon fill="#666666" stroke="#666666" points="13.5,-132.5 13.5,-132.5 123.5,-132.5 123.5,-132.5 13.5,-132.5"/>
<polygon fill="#666666" stroke="#666666" points="13.5,-117.5 13.5,-117.5 123.5,-117.5 123.5,-117.5 13.5,-117.5"/>
<polygon fill="none" stroke="#666666" points="13.5,-101 13.5,-150 123.5,-150 123.5,-101 13.5,-101"/>
</a>
</g>
</g>
<!-- Node2&#45;&gt;Node1 -->
<g id="edge1_Node000001_Node000002" class="edge">
<title>Node2&#45;&gt;Node1</title>
<g id="a_edge1_Node000001_Node000002"><a xlink:title=" ">
<path fill="none" stroke="#63b8ff" d="M68.5,-90.71C68.5,-81.99 68.5,-72.65 68.5,-64.08"/>
<polygon fill="none" stroke="#63b8ff" points="65,-90.94 68.5,-100.94 72,-90.94 65,-90.94"/>
</a>
</g>
</g>
<!-- Node3 -->
<g id="Node000003" class="node">
<title>Node3</title>
<g id="a_Node000003"><a xlink:title=" ">
<polygon fill="white" stroke="transparent" points="137,-247 0,-247 0,-187 137,-187 137,-247"/>
<text text-anchor="start" x="5.5" y="-235" font-family="Helvetica,sans-Serif" font-size="10.00">cv::cudev::binary_function</text>
<text text-anchor="start" x="42.5" y="-224" font-family="Helvetica,sans-Serif" font-size="10.00">&lt; T, T, T &gt;</text>
<text text-anchor="start" x="67" y="-209" font-family="Helvetica,sans-Serif" font-size="10.00"> </text>
<text text-anchor="start" x="67" y="-194" font-family="Helvetica,sans-Serif" font-size="10.00"> </text>
<polygon fill="#666666" stroke="#666666" points="0.5,-219 0.5,-219 137.5,-219 137.5,-219 0.5,-219"/>
<polygon fill="#666666" stroke="#666666" points="0.5,-204 0.5,-204 137.5,-204 137.5,-204 0.5,-204"/>
<polygon fill="none" stroke="#666666" points="0,-187 0,-247 137,-247 137,-187 0,-187"/>
</a>
</g>
</g>
<!-- Node3&#45;&gt;Node2 -->
<g id="edge2_Node000002_Node000003" class="edge">
<title>Node3&#45;&gt;Node2</title>
<g id="a_edge2_Node000002_Node000003"><a xlink:title=" ">
<path fill="none" stroke="#63b8ff" d="M68.5,-176.41C68.5,-167.47 68.5,-158.25 68.5,-150.21"/>
<polygon fill="none" stroke="#63b8ff" points="65,-176.69 68.5,-186.69 72,-176.69 65,-176.69"/>
</a>
</g>
</g>
<!-- Node4 -->
<g id="Node000004" class="node">
<title>Node4</title>
<g id="a_Node000004"><a xlink:href="../../d6/ddf/structcv_1_1cudev_1_1binary__function.html" target="_top" xlink:title=" ">
<polygon fill="white" stroke="transparent" points="137,-354 0,-354 0,-294 137,-294 137,-354"/>
<text text-anchor="start" x="5.5" y="-342" font-family="Helvetica,sans-Serif" font-size="10.00">cv::cudev::binary_function</text>
<text text-anchor="start" x="5.5" y="-331" font-family="Helvetica,sans-Serif" font-size="10.00">&lt; _Arg1, _Arg2, _Result &gt;</text>
<text text-anchor="start" x="67" y="-316" font-family="Helvetica,sans-Serif" font-size="10.00"> </text>
<text text-anchor="start" x="67" y="-301" font-family="Helvetica,sans-Serif" font-size="10.00"> </text>
<polygon fill="#666666" stroke="#666666" points="0.5,-326 0.5,-326 137.5,-326 137.5,-326 0.5,-326"/>
<polygon fill="#666666" stroke="#666666" points="0.5,-311 0.5,-311 137.5,-311 137.5,-311 0.5,-311"/>
<polygon fill="none" stroke="#666666" points="0,-294 0,-354 137,-354 137,-294 0,-294"/>
</a>
</g>
</g>
<!-- Node4&#45;&gt;Node3 -->
<g id="edge3_Node000003_Node000004" class="edge">
<title>Node4&#45;&gt;Node3</title>
<g id="a_edge3_Node000003_Node000004"><a xlink:title=" ">
<path fill="none" stroke="orange" d="M68.5,-283.46C68.5,-271.39 68.5,-258.34 68.5,-247.09"/>
<polygon fill="orange" stroke="orange" points="65,-283.75 68.5,-293.75 72,-283.75 65,-283.75"/>
</a>
</g>
<text text-anchor="middle" x="96.5" y="-268" font-family="Helvetica,sans-Serif" font-size="10.00" fill="grey"> &lt; T, T, T &gt;</text>
</g>
</g>
</svg>
