<?xml version="1.0" encoding="UTF-8" standalone="no"?>
<!DOCTYPE svg PUBLIC "-//W3C//DTD SVG 1.1//EN"
 "http://www.w3.org/Graphics/SVG/1.1/DTD/svg11.dtd">
<!-- Generated by graphviz version 2.43.0 (0)
 -->
<!-- Title: cv::cudev::Binder2nd&lt; Op &gt; Pages: 1 -->
<svg width="337pt" height="304pt"
 viewBox="0.00 0.00 337.00 304.00" xmlns="http://www.w3.org/2000/svg" xmlns:xlink="http://www.w3.org/1999/xlink">
<g id="graph0" class="graph" transform="scale(1 1) rotate(0) translate(4 300)">
<title>cv::cudev::Binder2nd&lt; Op &gt;</title>
<!-- Node1 -->
<g id="Node000001" class="node">
<title>Node1</title>
<g id="a_Node000001"><a xlink:title=" ">
<polygon fill="#999999" stroke="transparent" points="229,-60 118,-60 118,0 229,0 229,-60"/>
<text text-anchor="start" x="123.5" y="-48" font-family="Helvetica,sans-Serif" font-size="10.00">cv::cudev::Binder2nd</text>
<text text-anchor="start" x="155.5" y="-37" font-family="Helvetica,sans-Serif" font-size="10.00">&lt; Op &gt;</text>
<text text-anchor="start" x="172" y="-22" font-family="Helvetica,sans-Serif" font-size="10.00"> </text>
<text text-anchor="start" x="130.5" y="-7" font-family="Helvetica,sans-Serif" font-size="10.00">+</text>
<text text-anchor="start" x="151.5" y="-7" font-family="Helvetica,sans-Serif" font-size="10.00">operator()()</text>
<polygon fill="#666666" stroke="#666666" points="118.5,-32 118.5,-32 229.5,-32 229.5,-32 118.5,-32"/>
<polygon fill="#666666" stroke="#666666" points="118.5,-17 118.5,-17 229.5,-17 229.5,-17 118.5,-17"/>
<polygon fill="none" stroke="#666666" points="118,0 118,-60 229,-60 229,0 118,0"/>
</a>
</g>
</g>
<!-- Node2 -->
<g id="Node000002" class="node">
<title>Node2</title>
<g id="a_Node000002"><a xlink:href="../../df/d11/structcv_1_1cudev_1_1unary__function.html" target="_top" xlink:title=" ">
<polygon fill="white" stroke="transparent" points="143,-178 0,-178 0,-107 143,-107 143,-178"/>
<text text-anchor="start" x="5.5" y="-165.5" font-family="Helvetica,sans-Serif" font-size="10.00">cv::cudev::unary_function</text>
<text text-anchor="start" x="5.5" y="-154.5" font-family="Helvetica,sans-Serif" font-size="10.00">&lt; Op::first_argument_type,</text>
<text text-anchor="start" x="27.5" y="-143.5" font-family="Helvetica,sans-Serif" font-size="10.00"> Op::result_type &gt;</text>
<text text-anchor="start" x="70" y="-128.5" font-family="Helvetica,sans-Serif" font-size="10.00"> </text>
<text text-anchor="start" x="70" y="-113.5" font-family="Helvetica,sans-Serif" font-size="10.00"> </text>
<polygon fill="#666666" stroke="#666666" points="0.5,-138.5 0.5,-138.5 143.5,-138.5 143.5,-138.5 0.5,-138.5"/>
<polygon fill="#666666" stroke="#666666" points="0.5,-123.5 0.5,-123.5 143.5,-123.5 143.5,-123.5 0.5,-123.5"/>
<polygon fill="none" stroke="#666666" points="0,-107 0,-178 143,-178 143,-107 0,-107"/>
</a>
</g>
</g>
<!-- Node2&#45;&gt;Node1 -->
<g id="edge1_Node000001_Node000002" class="edge">
<title>Node2&#45;&gt;Node1</title>
<g id="a_edge1_Node000001_Node000002"><a xlink:title=" ">
<path fill="none" stroke="#63b8ff" d="M110.43,-99.32C122.44,-86.31 135.4,-72.28 146.42,-60.33"/>
<polygon fill="none" stroke="#63b8ff" points="107.7,-97.12 103.49,-106.84 112.85,-101.87 107.7,-97.12"/>
</a>
</g>
</g>
<!-- Node3 -->
<g id="Node000003" class="node">
<title>Node3</title>
<g id="a_Node000003"><a xlink:href="../../df/d11/structcv_1_1cudev_1_1unary__function.html" target="_top" xlink:title=" ">
<polygon fill="white" stroke="transparent" points="138.5,-296 4.5,-296 4.5,-236 138.5,-236 138.5,-296"/>
<text text-anchor="start" x="9.5" y="-284" font-family="Helvetica,sans-Serif" font-size="10.00">cv::cudev::unary_function</text>
<text text-anchor="start" x="28" y="-273" font-family="Helvetica,sans-Serif" font-size="10.00">&lt; _Arg, _Result &gt;</text>
<text text-anchor="start" x="69.5" y="-258" font-family="Helvetica,sans-Serif" font-size="10.00"> </text>
<text text-anchor="start" x="69.5" y="-243" font-family="Helvetica,sans-Serif" font-size="10.00"> </text>
<polygon fill="#666666" stroke="#666666" points="4.5,-268 4.5,-268 138.5,-268 138.5,-268 4.5,-268"/>
<polygon fill="#666666" stroke="#666666" points="4.5,-253 4.5,-253 138.5,-253 138.5,-253 4.5,-253"/>
<polygon fill="none" stroke="#666666" points="4.5,-236 4.5,-296 138.5,-296 138.5,-236 4.5,-236"/>
</a>
</g>
</g>
<!-- Node3&#45;&gt;Node2 -->
<g id="edge2_Node000002_Node000003" class="edge">
<title>Node3&#45;&gt;Node2</title>
<g id="a_edge2_Node000002_Node000003"><a xlink:title=" ">
<path fill="none" stroke="orange" d="M71.5,-225.74C71.5,-210.51 71.5,-193.21 71.5,-178.42"/>
<polygon fill="orange" stroke="orange" points="68,-225.9 71.5,-235.9 75,-225.9 68,-225.9"/>
</a>
</g>
<text text-anchor="start" x="71.5" y="-210" font-family="Helvetica,sans-Serif" font-size="10.00" fill="grey"> &lt; Op::first_argument</text>
<text text-anchor="middle" x="131" y="-199" font-family="Helvetica,sans-Serif" font-size="10.00" fill="grey">_type, Op::result_type &gt;</text>
</g>
<!-- Node4 -->
<g id="Node000004" class="node">
<title>Node4</title>
<g id="a_Node000004"><a xlink:title=" ">
<polygon fill="white" stroke="transparent" points="185.5,-167 161.5,-167 161.5,-118 185.5,-118 185.5,-167"/>
<text text-anchor="start" x="166.5" y="-154.5" font-family="Helvetica,sans-Serif" font-size="10.00">Op</text>
<text text-anchor="start" x="171.5" y="-139.5" font-family="Helvetica,sans-Serif" font-size="10.00"> </text>
<text text-anchor="start" x="171.5" y="-124.5" font-family="Helvetica,sans-Serif" font-size="10.00"> </text>
<polygon fill="#666666" stroke="#666666" points="161.5,-149.5 161.5,-149.5 185.5,-149.5 185.5,-149.5 161.5,-149.5"/>
<polygon fill="#666666" stroke="#666666" points="161.5,-134.5 161.5,-134.5 185.5,-134.5 185.5,-134.5 161.5,-134.5"/>
<polygon fill="none" stroke="#666666" points="161.5,-118 161.5,-167 185.5,-167 185.5,-118 161.5,-118"/>
</a>
</g>
</g>
<!-- Node4&#45;&gt;Node1 -->
<g id="edge3_Node000001_Node000004" class="edge">
<title>Node4&#45;&gt;Node1</title>
<g id="a_edge3_Node000001_Node000004"><a xlink:title=" ">
<path fill="none" stroke="#63b8ff" d="M173.5,-117.79C173.5,-104.62 173.5,-87.84 173.5,-72.55"/>
<polygon fill="none" stroke="#63b8ff" points="173.5,-72.17 169.5,-66.17 173.5,-60.17 177.5,-66.17 173.5,-72.17"/>
</a>
</g>
<text text-anchor="middle" x="185.5" y="-81" font-family="Helvetica,sans-Serif" font-size="10.00" fill="grey"> +op</text>
</g>
<!-- Node5 -->
<g id="Node000005" class="node">
<title>Node5</title>
<g id="a_Node000005"><a xlink:title=" ">
<polygon fill="white" stroke="transparent" points="329,-167 204,-167 204,-118 329,-118 329,-167"/>
<text text-anchor="start" x="209.5" y="-154.5" font-family="Helvetica,sans-Serif" font-size="10.00">second_argument_type</text>
<text text-anchor="start" x="265" y="-139.5" font-family="Helvetica,sans-Serif" font-size="10.00"> </text>
<text text-anchor="start" x="265" y="-124.5" font-family="Helvetica,sans-Serif" font-size="10.00"> </text>
<polygon fill="#666666" stroke="#666666" points="204.5,-149.5 204.5,-149.5 329.5,-149.5 329.5,-149.5 204.5,-149.5"/>
<polygon fill="#666666" stroke="#666666" points="204.5,-134.5 204.5,-134.5 329.5,-134.5 329.5,-134.5 204.5,-134.5"/>
<polygon fill="none" stroke="#666666" points="204,-118 204,-167 329,-167 329,-118 204,-118"/>
</a>
</g>
</g>
<!-- Node5&#45;&gt;Node1 -->
<g id="edge4_Node000001_Node000005" class="edge">
<title>Node5&#45;&gt;Node1</title>
<g id="a_edge4_Node000001_Node000005"><a xlink:title=" ">
<path fill="none" stroke="#63b8ff" d="M246.55,-117.79C234.68,-103.69 219.34,-85.47 205.79,-69.36"/>
<polygon fill="none" stroke="#63b8ff" points="205.78,-69.35 198.86,-67.34 198.05,-60.17 204.98,-62.19 205.78,-69.35"/>
</a>
</g>
<text text-anchor="middle" x="236.5" y="-81" font-family="Helvetica,sans-Serif" font-size="10.00" fill="grey"> +arg2</text>
</g>
</g>
</svg>
