<?xml version="1.0" encoding="UTF-8" standalone="no"?>
<!DOCTYPE svg PUBLIC "-//W3C//DTD SVG 1.1//EN"
 "http://www.w3.org/Graphics/SVG/1.1/DTD/svg11.dtd">
<!-- Generated by graphviz version 2.43.0 (0)
 -->
<!-- Title: cv::videostab::FastMarchingMethod::run Pages: 1 -->
<svg width="290pt" height="101pt"
 viewBox="0.00 0.00 290.00 101.00" xmlns="http://www.w3.org/2000/svg" xmlns:xlink="http://www.w3.org/1999/xlink">
<g id="graph0" class="graph" transform="scale(1 1) rotate(0) translate(4 97)">
<title>cv::videostab::FastMarchingMethod::run</title>
<!-- Node1 -->
<g id="Node000001" class="node">
<title>Node1</title>
<g id="a_Node000001"><a xlink:title="Template method that runs the Fast Marching Method.">
<polygon fill="#999999" stroke="#666666" points="152,-61.5 0,-61.5 0,-31.5 152,-31.5 152,-61.5"/>
<text text-anchor="start" x="8" y="-49.5" font-family="Helvetica,sans-Serif" font-size="10.00">cv::videostab::FastMarching</text>
<text text-anchor="middle" x="76" y="-38.5" font-family="Helvetica,sans-Serif" font-size="10.00">Method::run</text>
</a>
</g>
</g>
<!-- Node2 -->
<g id="Node000002" class="node">
<title>Node2</title>
<g id="a_Node000002"><a xlink:href="../../df/dfc/classcv_1_1Mat__.html#adce382b8089699ea55fdbee77fe76ddb" target="_top" xlink:title="equivalent to Mat::create(_rows, _cols, DataType&lt;_Tp&gt;::type)">
<polygon fill="white" stroke="#666666" points="282,-93 188,-93 188,-74 282,-74 282,-93"/>
<text text-anchor="middle" x="235" y="-81" font-family="Helvetica,sans-Serif" font-size="10.00">cv::Mat_::create</text>
</a>
</g>
</g>
<!-- Node1&#45;&gt;Node2 -->
<g id="edge1_Node000001_Node000002" class="edge">
<title>Node1&#45;&gt;Node2</title>
<g id="a_edge1_Node000001_Node000002"><a xlink:title=" ">
<path fill="none" stroke="#63b8ff" d="M140.86,-61.55C155.06,-64.9 169.93,-68.4 183.52,-71.6"/>
<polygon fill="#63b8ff" stroke="#63b8ff" points="183.08,-75.1 193.62,-73.98 184.69,-68.28 183.08,-75.1"/>
</a>
</g>
</g>
<!-- Node3 -->
<g id="Node000003" class="node">
<title>Node3</title>
<g id="a_Node000003"><a xlink:href="../../d3/d63/classcv_1_1Mat.html#a55ced2c8d844d683ea9a725c60037ad0" target="_top" xlink:title="Allocates new array data if needed.">
<polygon fill="white" stroke="#666666" points="279.5,-56 190.5,-56 190.5,-37 279.5,-37 279.5,-56"/>
<text text-anchor="middle" x="235" y="-44" font-family="Helvetica,sans-Serif" font-size="10.00">cv::Mat::create</text>
</a>
</g>
</g>
<!-- Node1&#45;&gt;Node3 -->
<g id="edge2_Node000001_Node000003" class="edge">
<title>Node1&#45;&gt;Node3</title>
<g id="a_edge2_Node000001_Node000003"><a xlink:title=" ">
<path fill="none" stroke="#63b8ff" d="M152.28,-46.5C161.67,-46.5 171.12,-46.5 180.1,-46.5"/>
<polygon fill="#63b8ff" stroke="#63b8ff" points="180.38,-50 190.38,-46.5 180.38,-43 180.38,-50"/>
</a>
</g>
</g>
<!-- Node4 -->
<g id="Node000004" class="node">
<title>Node4</title>
<g id="a_Node000004"><a xlink:href="../../d7/d8b/group__photo__inpaint.html#gaedd30dfa0214fec4c88138b51d678085" target="_top" xlink:title="Restores the selected region in an image using the region neighborhood.">
<polygon fill="white" stroke="#666666" points="268.5,-19 201.5,-19 201.5,0 268.5,0 268.5,-19"/>
<text text-anchor="middle" x="235" y="-7" font-family="Helvetica,sans-Serif" font-size="10.00">cv::inpaint</text>
</a>
</g>
</g>
<!-- Node1&#45;&gt;Node4 -->
<g id="edge3_Node000001_Node000004" class="edge">
<title>Node1&#45;&gt;Node4</title>
<g id="a_edge3_Node000001_Node000004"><a xlink:title=" ">
<path fill="none" stroke="#63b8ff" d="M140.86,-31.45C157.85,-27.45 175.79,-23.22 191.34,-19.55"/>
<polygon fill="#63b8ff" stroke="#63b8ff" points="192.25,-22.93 201.18,-17.23 190.65,-16.12 192.25,-22.93"/>
</a>
</g>
</g>
</g>
</svg>
