<?xml version="1.0" encoding="UTF-8" standalone="no"?>
<!DOCTYPE svg PUBLIC "-//W3C//DTD SVG 1.1//EN"
 "http://www.w3.org/Graphics/SVG/1.1/DTD/svg11.dtd">
<!-- Generated by graphviz version 2.43.0 (0)
 -->
<!-- Title: opencv2/face/facerec.hpp Pages: 1 -->
<svg width="150pt" height="82pt"
 viewBox="0.00 0.00 150.00 82.00" xmlns="http://www.w3.org/2000/svg" xmlns:xlink="http://www.w3.org/1999/xlink">
<g id="graph0" class="graph" transform="scale(1 1) rotate(0) translate(4 78)">
<title>opencv2/face/facerec.hpp</title>
<!-- Node1 -->
<g id="Node000001" class="node">
<title>Node1</title>
<g id="a_Node000001"><a xlink:title=" ">
<polygon fill="#999999" stroke="#666666" points="142,-74 0,-74 0,-55 142,-55 142,-74"/>
<text text-anchor="middle" x="71" y="-62" font-family="Helvetica,sans-Serif" font-size="10.00">opencv2/face/facerec.hpp</text>
</a>
</g>
</g>
<!-- Node2 -->
<g id="Node000002" class="node">
<title>Node2</title>
<g id="a_Node000002"><a xlink:href="../../d2/dc4/contrib_2modules_2face_2include_2opencv2_2face_8hpp.html" target="_top" xlink:title=" ">
<polygon fill="white" stroke="#666666" points="122.5,-19 19.5,-19 19.5,0 122.5,0 122.5,-19"/>
<text text-anchor="middle" x="71" y="-7" font-family="Helvetica,sans-Serif" font-size="10.00">opencv2/face.hpp</text>
</a>
</g>
</g>
<!-- Node1&#45;&gt;Node2 -->
<g id="edge1_Node000001_Node000002" class="edge">
<title>Node1&#45;&gt;Node2</title>
<g id="a_edge1_Node000001_Node000002"><a xlink:title=" ">
<path fill="none" stroke="#63b8ff" d="M64.51,-44.66C63.91,-35.93 64.36,-25.99 65.87,-19.09"/>
<polygon fill="#63b8ff" stroke="#63b8ff" points="61.06,-45.29 65.83,-54.75 68,-44.38 61.06,-45.29"/>
</a>
</g>
</g>
<!-- Node2&#45;&gt;Node1 -->
<g id="edge2_Node000002_Node000001" class="edge">
<title>Node2&#45;&gt;Node1</title>
<g id="a_edge2_Node000002_Node000001"><a xlink:title=" ">
<path fill="none" stroke="#63b8ff" d="M77.48,-29.13C78.1,-37.85 77.66,-47.8 76.17,-54.75"/>
<polygon fill="#63b8ff" stroke="#63b8ff" points="80.93,-28.53 76.13,-19.09 73.99,-29.47 80.93,-28.53"/>
</a>
</g>
</g>
</g>
</svg>
