<?xml version="1.0" encoding="UTF-8" standalone="no"?>
<!DOCTYPE svg PUBLIC "-//W3C//DTD SVG 1.1//EN"
 "http://www.w3.org/Graphics/SVG/1.1/DTD/svg11.dtd">
<!-- Generated by graphviz version 2.43.0 (0)
 -->
<!-- Title: cv::_InputArray Pages: 1 -->
<svg width="257pt" height="620pt"
 viewBox="0.00 0.00 257.00 620.00" xmlns="http://www.w3.org/2000/svg" xmlns:xlink="http://www.w3.org/1999/xlink">
<g id="graph0" class="graph" transform="scale(1 1) rotate(0) translate(4 616)">
<title>cv::_InputArray</title>
<!-- Node1 -->
<g id="Node000001" class="node">
<title>Node1</title>
<g id="a_Node000001"><a xlink:title="This is the proxy class for passing read&#45;only input arrays into OpenCV functions.">
<polygon fill="#999999" stroke="transparent" points="115.5,-259 23.5,-259 23.5,0 115.5,0 115.5,-259"/>
<text text-anchor="start" x="33" y="-246.5" font-family="Helvetica,sans-Serif" font-size="10.00">cv::_InputArray</text>
<text text-anchor="start" x="67.5" y="-231.5" font-family="Helvetica,sans-Serif" font-size="10.00"> </text>
<text text-anchor="start" x="27.5" y="-216.5" font-family="Helvetica,sans-Serif" font-size="10.00">+</text>
<text text-anchor="start" x="40.5" y="-216.5" font-family="Helvetica,sans-Serif" font-size="10.00">_InputArray()</text>
<text text-anchor="start" x="27.5" y="-201.5" font-family="Helvetica,sans-Serif" font-size="10.00">+</text>
<text text-anchor="start" x="40.5" y="-201.5" font-family="Helvetica,sans-Serif" font-size="10.00">_InputArray()</text>
<text text-anchor="start" x="27.5" y="-186.5" font-family="Helvetica,sans-Serif" font-size="10.00">+</text>
<text text-anchor="start" x="40.5" y="-186.5" font-family="Helvetica,sans-Serif" font-size="10.00">_InputArray()</text>
<text text-anchor="start" x="27.5" y="-171.5" font-family="Helvetica,sans-Serif" font-size="10.00">+</text>
<text text-anchor="start" x="40.5" y="-171.5" font-family="Helvetica,sans-Serif" font-size="10.00">_InputArray()</text>
<text text-anchor="start" x="27.5" y="-156.5" font-family="Helvetica,sans-Serif" font-size="10.00">+</text>
<text text-anchor="start" x="40.5" y="-156.5" font-family="Helvetica,sans-Serif" font-size="10.00">_InputArray()</text>
<text text-anchor="start" x="27.5" y="-141.5" font-family="Helvetica,sans-Serif" font-size="10.00">+</text>
<text text-anchor="start" x="40.5" y="-141.5" font-family="Helvetica,sans-Serif" font-size="10.00">_InputArray()</text>
<text text-anchor="start" x="27.5" y="-126.5" font-family="Helvetica,sans-Serif" font-size="10.00">+</text>
<text text-anchor="start" x="40.5" y="-126.5" font-family="Helvetica,sans-Serif" font-size="10.00">_InputArray()</text>
<text text-anchor="start" x="27.5" y="-111.5" font-family="Helvetica,sans-Serif" font-size="10.00">+</text>
<text text-anchor="start" x="40.5" y="-111.5" font-family="Helvetica,sans-Serif" font-size="10.00">_InputArray()</text>
<text text-anchor="start" x="27.5" y="-96.5" font-family="Helvetica,sans-Serif" font-size="10.00">+</text>
<text text-anchor="start" x="40.5" y="-96.5" font-family="Helvetica,sans-Serif" font-size="10.00">_InputArray()</text>
<text text-anchor="start" x="27.5" y="-81.5" font-family="Helvetica,sans-Serif" font-size="10.00">+</text>
<text text-anchor="start" x="40.5" y="-81.5" font-family="Helvetica,sans-Serif" font-size="10.00">_InputArray()</text>
<text text-anchor="start" x="40.5" y="-66.5" font-family="Helvetica,sans-Serif" font-size="10.00">and 51 more...</text>
<text text-anchor="start" x="27.5" y="-51.5" font-family="Helvetica,sans-Serif" font-size="10.00">+</text>
<text text-anchor="start" x="40.5" y="-51.5" font-family="Helvetica,sans-Serif" font-size="10.00">rawIn()</text>
<text text-anchor="start" x="27.5" y="-36.5" font-family="Helvetica,sans-Serif" font-size="10.00">+</text>
<text text-anchor="start" x="40.5" y="-36.5" font-family="Helvetica,sans-Serif" font-size="10.00">rawIn()</text>
<text text-anchor="start" x="27.5" y="-21.5" font-family="Helvetica,sans-Serif" font-size="10.00">#</text>
<text text-anchor="start" x="40.5" y="-21.5" font-family="Helvetica,sans-Serif" font-size="10.00">init()</text>
<text text-anchor="start" x="27.5" y="-6.5" font-family="Helvetica,sans-Serif" font-size="10.00">#</text>
<text text-anchor="start" x="40.5" y="-6.5" font-family="Helvetica,sans-Serif" font-size="10.00">init()</text>
<polygon fill="#666666" stroke="#666666" points="23.5,-241.5 23.5,-241.5 115.5,-241.5 115.5,-241.5 23.5,-241.5"/>
<polygon fill="#666666" stroke="#666666" points="23.5,-226.5 23.5,-226.5 115.5,-226.5 115.5,-226.5 23.5,-226.5"/>
<polygon fill="none" stroke="#666666" points="23.5,0 23.5,-259 115.5,-259 115.5,0 23.5,0"/>
</a>
</g>
</g>
<!-- Node2 -->
<g id="Node000002" class="node">
<title>Node2</title>
<g id="a_Node000002"><a xlink:title=" ">
<polygon fill="white" stroke="transparent" points="23,-430 0,-430 0,-381 23,-381 23,-430"/>
<text text-anchor="start" x="5.5" y="-417.5" font-family="Helvetica,sans-Serif" font-size="10.00">int</text>
<text text-anchor="start" x="10" y="-402.5" font-family="Helvetica,sans-Serif" font-size="10.00"> </text>
<text text-anchor="start" x="10" y="-387.5" font-family="Helvetica,sans-Serif" font-size="10.00"> </text>
<polygon fill="#666666" stroke="#666666" points="0.5,-412.5 0.5,-412.5 23.5,-412.5 23.5,-412.5 0.5,-412.5"/>
<polygon fill="#666666" stroke="#666666" points="0.5,-397.5 0.5,-397.5 23.5,-397.5 23.5,-397.5 0.5,-397.5"/>
<polygon fill="none" stroke="#666666" points="0,-381 0,-430 23,-430 23,-381 0,-381"/>
</a>
</g>
</g>
<!-- Node2&#45;&gt;Node1 -->
<g id="edge1_Node000001_Node000002" class="edge">
<title>Node2&#45;&gt;Node1</title>
<g id="a_edge1_Node000001_Node000002"><a xlink:title=" ">
<path fill="none" stroke="#63b8ff" d="M14.22,-380.86C17.36,-355.16 23.06,-312.94 30.5,-277 30.89,-275.1 31.3,-273.18 31.71,-271.26"/>
<polygon fill="none" stroke="#63b8ff" points="31.76,-271.05 29.15,-264.33 34.35,-259.33 36.96,-266.05 31.76,-271.05"/>
</a>
</g>
<text text-anchor="middle" x="48" y="-280" font-family="Helvetica,sans-Serif" font-size="10.00" fill="grey"> #flags</text>
</g>
<!-- Node3 -->
<g id="Node000003" class="node">
<title>Node3</title>
<g id="a_Node000003"><a xlink:title=" ">
<polygon fill="white" stroke="transparent" points="85.5,-430 53.5,-430 53.5,-381 85.5,-381 85.5,-430"/>
<text text-anchor="start" x="58.5" y="-417.5" font-family="Helvetica,sans-Serif" font-size="10.00">void</text>
<text text-anchor="start" x="67.5" y="-402.5" font-family="Helvetica,sans-Serif" font-size="10.00"> </text>
<text text-anchor="start" x="67.5" y="-387.5" font-family="Helvetica,sans-Serif" font-size="10.00"> </text>
<polygon fill="#666666" stroke="#666666" points="53.5,-412.5 53.5,-412.5 85.5,-412.5 85.5,-412.5 53.5,-412.5"/>
<polygon fill="#666666" stroke="#666666" points="53.5,-397.5 53.5,-397.5 85.5,-397.5 85.5,-397.5 53.5,-397.5"/>
<polygon fill="none" stroke="#666666" points="53.5,-381 53.5,-430 85.5,-430 85.5,-381 53.5,-381"/>
</a>
</g>
</g>
<!-- Node3&#45;&gt;Node1 -->
<g id="edge2_Node000001_Node000003" class="edge">
<title>Node3&#45;&gt;Node1</title>
<g id="a_edge2_Node000001_Node000003"><a xlink:title=" ">
<path fill="none" stroke="#63b8ff" d="M69.5,-380.66C69.5,-355.49 69.5,-313.65 69.5,-271.32"/>
<polygon fill="none" stroke="#63b8ff" points="69.5,-271.08 65.5,-265.08 69.5,-259.08 73.5,-265.08 69.5,-271.08"/>
</a>
</g>
<text text-anchor="middle" x="83" y="-280" font-family="Helvetica,sans-Serif" font-size="10.00" fill="grey"> #obj</text>
</g>
<!-- Node4 -->
<g id="Node000004" class="node">
<title>Node4</title>
<g id="a_Node000004"><a xlink:href="../../d6/d50/classcv_1_1Size__.html" target="_top" xlink:title="Template class for specifying the size of an image or rectangle.">
<polygon fill="white" stroke="transparent" points="249,-505 104,-505 104,-306 249,-306 249,-505"/>
<text text-anchor="start" x="136" y="-492.5" font-family="Helvetica,sans-Serif" font-size="10.00">cv::Size_&lt; _Tp &gt;</text>
<text text-anchor="start" x="175" y="-477.5" font-family="Helvetica,sans-Serif" font-size="10.00"> </text>
<text text-anchor="start" x="108.5" y="-462.5" font-family="Helvetica,sans-Serif" font-size="10.00">+</text>
<text text-anchor="start" x="121.5" y="-462.5" font-family="Helvetica,sans-Serif" font-size="10.00">Size_()</text>
<text text-anchor="start" x="108.5" y="-447.5" font-family="Helvetica,sans-Serif" font-size="10.00">+</text>
<text text-anchor="start" x="121.5" y="-447.5" font-family="Helvetica,sans-Serif" font-size="10.00">Size_()</text>
<text text-anchor="start" x="108.5" y="-432.5" font-family="Helvetica,sans-Serif" font-size="10.00">+</text>
<text text-anchor="start" x="121.5" y="-432.5" font-family="Helvetica,sans-Serif" font-size="10.00">Size_()</text>
<text text-anchor="start" x="108.5" y="-417.5" font-family="Helvetica,sans-Serif" font-size="10.00">+</text>
<text text-anchor="start" x="121.5" y="-417.5" font-family="Helvetica,sans-Serif" font-size="10.00">Size_()</text>
<text text-anchor="start" x="108.5" y="-402.5" font-family="Helvetica,sans-Serif" font-size="10.00">+</text>
<text text-anchor="start" x="121.5" y="-402.5" font-family="Helvetica,sans-Serif" font-size="10.00">Size_()</text>
<text text-anchor="start" x="108.5" y="-387.5" font-family="Helvetica,sans-Serif" font-size="10.00">+</text>
<text text-anchor="start" x="121.5" y="-387.5" font-family="Helvetica,sans-Serif" font-size="10.00">area()</text>
<text text-anchor="start" x="108.5" y="-372.5" font-family="Helvetica,sans-Serif" font-size="10.00">+</text>
<text text-anchor="start" x="121.5" y="-372.5" font-family="Helvetica,sans-Serif" font-size="10.00">aspectRatio()</text>
<text text-anchor="start" x="108.5" y="-357.5" font-family="Helvetica,sans-Serif" font-size="10.00">+</text>
<text text-anchor="start" x="121.5" y="-357.5" font-family="Helvetica,sans-Serif" font-size="10.00">empty()</text>
<text text-anchor="start" x="108.5" y="-342.5" font-family="Helvetica,sans-Serif" font-size="10.00">+</text>
<text text-anchor="start" x="121.5" y="-342.5" font-family="Helvetica,sans-Serif" font-size="10.00">operator Size_&lt; _Tp2 &gt;()</text>
<text text-anchor="start" x="108.5" y="-327.5" font-family="Helvetica,sans-Serif" font-size="10.00">+</text>
<text text-anchor="start" x="121.5" y="-327.5" font-family="Helvetica,sans-Serif" font-size="10.00">operator=()</text>
<text text-anchor="start" x="108.5" y="-312.5" font-family="Helvetica,sans-Serif" font-size="10.00">+</text>
<text text-anchor="start" x="121.5" y="-312.5" font-family="Helvetica,sans-Serif" font-size="10.00">operator=()</text>
<polygon fill="#666666" stroke="#666666" points="104.5,-487.5 104.5,-487.5 249.5,-487.5 249.5,-487.5 104.5,-487.5"/>
<polygon fill="#666666" stroke="#666666" points="104.5,-472.5 104.5,-472.5 249.5,-472.5 249.5,-472.5 104.5,-472.5"/>
<polygon fill="none" stroke="#666666" points="104,-306 104,-505 249,-505 249,-306 104,-306"/>
</a>
</g>
</g>
<!-- Node4&#45;&gt;Node1 -->
<g id="edge3_Node000001_Node000004" class="edge">
<title>Node4&#45;&gt;Node1</title>
<g id="a_edge3_Node000001_Node000004"><a xlink:title=" ">
<path fill="none" stroke="#63b8ff" d="M138.02,-305.97C132.19,-291.03 126.1,-275.43 120.05,-259.95"/>
<polygon fill="none" stroke="#63b8ff" points="120.03,-259.9 114.12,-255.76 115.67,-248.72 121.57,-252.85 120.03,-259.9"/>
</a>
</g>
<text text-anchor="middle" x="140.5" y="-280" font-family="Helvetica,sans-Serif" font-size="10.00" fill="grey"> #sz</text>
</g>
<!-- Node5 -->
<g id="Node000005" class="node">
<title>Node5</title>
<g id="a_Node000005"><a xlink:href="../../d1/dd7/class__Tp.html" target="_top" xlink:title=" ">
<polygon fill="white" stroke="transparent" points="190.5,-612 162.5,-612 162.5,-563 190.5,-563 190.5,-612"/>
<text text-anchor="start" x="167.5" y="-599.5" font-family="Helvetica,sans-Serif" font-size="10.00">_Tp</text>
<text text-anchor="start" x="174.5" y="-584.5" font-family="Helvetica,sans-Serif" font-size="10.00"> </text>
<text text-anchor="start" x="174.5" y="-569.5" font-family="Helvetica,sans-Serif" font-size="10.00"> </text>
<polygon fill="#666666" stroke="#666666" points="162.5,-594.5 162.5,-594.5 190.5,-594.5 190.5,-594.5 162.5,-594.5"/>
<polygon fill="#666666" stroke="#666666" points="162.5,-579.5 162.5,-579.5 190.5,-579.5 190.5,-579.5 162.5,-579.5"/>
<polygon fill="none" stroke="#666666" points="162.5,-563 162.5,-612 190.5,-612 190.5,-563 162.5,-563"/>
</a>
</g>
</g>
<!-- Node5&#45;&gt;Node4 -->
<g id="edge4_Node000004_Node000005" class="edge">
<title>Node5&#45;&gt;Node4</title>
<g id="a_edge4_Node000004_Node000005"><a xlink:title=" ">
<path fill="none" stroke="#63b8ff" d="M176.5,-562.97C176.5,-550.58 176.5,-534.4 176.5,-517.14"/>
<polygon fill="none" stroke="#63b8ff" points="176.5,-517.06 172.5,-511.06 176.5,-505.06 180.5,-511.06 176.5,-517.06"/>
</a>
</g>
<text text-anchor="middle" x="198" y="-537" font-family="Helvetica,sans-Serif" font-size="10.00" fill="grey"> +height</text>
<text text-anchor="middle" x="198" y="-526" font-family="Helvetica,sans-Serif" font-size="10.00" fill="grey">+width</text>
</g>
</g>
</svg>
