<?xml version="1.0" encoding="UTF-8" standalone="no"?>
<!DOCTYPE svg PUBLIC "-//W3C//DTD SVG 1.1//EN"
 "http://www.w3.org/Graphics/SVG/1.1/DTD/svg11.dtd">
<!-- Generated by graphviz version 2.43.0 (0)
 -->
<!-- Title: opencv2/gapi/gcall.hpp Pages: 1 -->
<svg width="4597pt" height="335pt"
 viewBox="0.00 0.00 4597.00 335.00" xmlns="http://www.w3.org/2000/svg" xmlns:xlink="http://www.w3.org/1999/xlink">
<g id="graph0" class="graph" transform="scale(1 1) rotate(0) translate(4 331)">
<title>opencv2/gapi/gcall.hpp</title>
<!-- Node1 -->
<g id="Node000001" class="node">
<title>Node1</title>
<g id="a_Node000001"><a xlink:title=" ">
<polygon fill="#999999" stroke="#666666" points="2326.5,-327 2197.5,-327 2197.5,-308 2326.5,-308 2326.5,-327"/>
<text text-anchor="middle" x="2262" y="-315" font-family="Helvetica,sans-Serif" font-size="10.00">opencv2/gapi/gcall.hpp</text>
</a>
</g>
</g>
<!-- Node2 -->
<g id="Node000002" class="node">
<title>Node2</title>
<g id="a_Node000002"><a xlink:href="../../de/d7f/gkernel_8hpp.html" target="_top" xlink:title=" ">
<polygon fill="white" stroke="#666666" points="2333,-272 2191,-272 2191,-253 2333,-253 2333,-272"/>
<text text-anchor="middle" x="2262" y="-260" font-family="Helvetica,sans-Serif" font-size="10.00">opencv2/gapi/gkernel.hpp</text>
</a>
</g>
</g>
<!-- Node1&#45;&gt;Node2 -->
<g id="edge1_Node000001_Node000002" class="edge">
<title>Node1&#45;&gt;Node2</title>
<g id="a_edge1_Node000001_Node000002"><a xlink:title=" ">
<path fill="none" stroke="#63b8ff" d="M2262,-297.66C2262,-288.93 2262,-278.99 2262,-272.09"/>
<polygon fill="#63b8ff" stroke="#63b8ff" points="2258.5,-297.75 2262,-307.75 2265.5,-297.75 2258.5,-297.75"/>
</a>
</g>
</g>
<!-- Node39 -->
<g id="Node000039" class="node">
<title>Node39</title>
<g id="a_Node000039"><a xlink:href="../../dd/d25/desync_8hpp.html" target="_top" xlink:title=" ">
<polygon fill="white" stroke="#666666" points="134,-217 0,-217 0,-187 134,-187 134,-217"/>
<text text-anchor="start" x="8" y="-205" font-family="Helvetica,sans-Serif" font-size="10.00">opencv2/gapi/streaming</text>
<text text-anchor="middle" x="67" y="-194" font-family="Helvetica,sans-Serif" font-size="10.00">/desync.hpp</text>
</a>
</g>
</g>
<!-- Node1&#45;&gt;Node39 -->
<g id="edge55_Node000001_Node000039" class="edge">
<title>Node1&#45;&gt;Node39</title>
<g id="a_edge55_Node000001_Node000039"><a xlink:title=" ">
<path fill="none" stroke="#63b8ff" d="M2187.09,-315.31C1915.46,-310.48 956.93,-289.06 170,-217 158.41,-215.94 146.12,-214.52 134.22,-213"/>
<polygon fill="#63b8ff" stroke="#63b8ff" points="2187.16,-318.81 2197.22,-315.49 2187.29,-311.81 2187.16,-318.81"/>
</a>
</g>
</g>
<!-- Node41 -->
<g id="Node000041" class="node">
<title>Node41</title>
<g id="a_Node000041"><a xlink:href="../../d7/de1/meta_8hpp.html" target="_top" xlink:title=" ">
<polygon fill="white" stroke="#666666" points="4437,-217 4303,-217 4303,-187 4437,-187 4437,-217"/>
<text text-anchor="start" x="4311" y="-205" font-family="Helvetica,sans-Serif" font-size="10.00">opencv2/gapi/streaming</text>
<text text-anchor="middle" x="4370" y="-194" font-family="Helvetica,sans-Serif" font-size="10.00">/meta.hpp</text>
</a>
</g>
</g>
<!-- Node1&#45;&gt;Node41 -->
<g id="edge56_Node000001_Node000041" class="edge">
<title>Node1&#45;&gt;Node41</title>
<g id="a_edge56_Node000001_Node000041"><a xlink:title=" ">
<path fill="none" stroke="#63b8ff" d="M2336.88,-316.12C2603.33,-314.06 3530.01,-300.9 4289,-217 4293.54,-216.5 4298.21,-215.9 4302.91,-215.25"/>
<polygon fill="#63b8ff" stroke="#63b8ff" points="2336.53,-312.62 2326.56,-316.19 2336.58,-319.62 2336.53,-312.62"/>
</a>
</g>
</g>
<!-- Node3 -->
<g id="Node000003" class="node">
<title>Node3</title>
<g id="a_Node000003"><a xlink:href="../../d7/d20/gapi_8hpp.html" target="_top" xlink:title=" ">
<polygon fill="white" stroke="#666666" points="261.5,-145.5 158.5,-145.5 158.5,-126.5 261.5,-126.5 261.5,-145.5"/>
<text text-anchor="middle" x="210" y="-133.5" font-family="Helvetica,sans-Serif" font-size="10.00">opencv2/gapi.hpp</text>
</a>
</g>
</g>
<!-- Node2&#45;&gt;Node3 -->
<g id="edge2_Node000002_Node000003" class="edge">
<title>Node2&#45;&gt;Node3</title>
<g id="a_edge2_Node000002_Node000003"><a xlink:title=" ">
<path fill="none" stroke="#63b8ff" d="M2180.59,-260.52C1798.26,-255.84 198.8,-235.19 181,-217 161.16,-196.73 187.39,-161.86 201.75,-145.7"/>
<polygon fill="#63b8ff" stroke="#63b8ff" points="2180.69,-264.02 2190.74,-260.65 2180.78,-257.03 2180.69,-264.02"/>
</a>
</g>
</g>
<!-- Node4 -->
<g id="Node000004" class="node">
<title>Node4</title>
<g id="a_Node000004"><a xlink:href="../../d4/d80/ot_8hpp.html" target="_top" xlink:title=" ">
<polygon fill="white" stroke="#666666" points="1276,-79.5 1160,-79.5 1160,-60.5 1276,-60.5 1276,-79.5"/>
<text text-anchor="middle" x="1218" y="-67.5" font-family="Helvetica,sans-Serif" font-size="10.00">opencv2/gapi/ot.hpp</text>
</a>
</g>
</g>
<!-- Node2&#45;&gt;Node4 -->
<g id="edge41_Node000002_Node000004" class="edge">
<title>Node2&#45;&gt;Node4</title>
<g id="a_edge41_Node000002_Node000004"><a xlink:title=" ">
<path fill="none" stroke="#63b8ff" d="M2246.53,-245.46C2228.51,-227.88 2196.97,-200.4 2164,-187 2001.03,-120.77 1456.19,-84.54 1276.23,-74.16"/>
<polygon fill="#63b8ff" stroke="#63b8ff" points="2244.27,-248.15 2253.82,-252.76 2249.22,-243.21 2244.27,-248.15"/>
</a>
</g>
</g>
<!-- Node7 -->
<g id="Node000007" class="node">
<title>Node7</title>
<g id="a_Node000007"><a xlink:href="../../d4/df9/gapi_2include_2opencv2_2gapi_2core_8hpp.html" target="_top" xlink:title=" ">
<polygon fill="white" stroke="#666666" points="478.5,-145.5 351.5,-145.5 351.5,-126.5 478.5,-126.5 478.5,-145.5"/>
<text text-anchor="middle" x="415" y="-133.5" font-family="Helvetica,sans-Serif" font-size="10.00">opencv2/gapi/core.hpp</text>
</a>
</g>
</g>
<!-- Node2&#45;&gt;Node7 -->
<g id="edge6_Node000002_Node000007" class="edge">
<title>Node2&#45;&gt;Node7</title>
<g id="a_edge6_Node000002_Node000007"><a xlink:title=" ">
<path fill="none" stroke="#63b8ff" d="M2233.28,-248.55C2215.34,-240.16 2191.94,-228.65 2172,-217 2151.56,-205.06 2150.51,-194.31 2128,-187 1969.08,-135.43 770.2,-135.86 478.72,-136.75"/>
<polygon fill="#63b8ff" stroke="#63b8ff" points="2232.09,-251.86 2242.63,-252.88 2235.03,-245.5 2232.09,-251.86"/>
</a>
</g>
</g>
<!-- Node8 -->
<g id="Node000008" class="node">
<title>Node8</title>
<g id="a_Node000008"><a xlink:href="../../d4/df2/gapi_2include_2opencv2_2gapi_2cpu_2core_8hpp.html" target="_top" xlink:title=" ">
<polygon fill="white" stroke="#666666" points="653.5,-211.5 506.5,-211.5 506.5,-192.5 653.5,-192.5 653.5,-211.5"/>
<text text-anchor="middle" x="580" y="-199.5" font-family="Helvetica,sans-Serif" font-size="10.00">opencv2/gapi/cpu/core.hpp</text>
</a>
</g>
</g>
<!-- Node2&#45;&gt;Node8 -->
<g id="edge7_Node000002_Node000008" class="edge">
<title>Node2&#45;&gt;Node8</title>
<g id="a_edge7_Node000002_Node000008"><a xlink:title=" ">
<path fill="none" stroke="#63b8ff" d="M2180.66,-260.76C1898.29,-257.95 961.29,-246.56 662,-217 649.35,-215.75 635.71,-213.71 623.25,-211.56"/>
<polygon fill="#63b8ff" stroke="#63b8ff" points="2180.8,-264.26 2190.83,-260.86 2180.87,-257.26 2180.8,-264.26"/>
</a>
</g>
</g>
<!-- Node9 -->
<g id="Node000009" class="node">
<title>Node9</title>
<g id="a_Node000009"><a xlink:href="../../da/d73/gcpukernel_8hpp.html" target="_top" xlink:title=" ">
<polygon fill="white" stroke="#666666" points="850.5,-211.5 671.5,-211.5 671.5,-192.5 850.5,-192.5 850.5,-211.5"/>
<text text-anchor="middle" x="761" y="-199.5" font-family="Helvetica,sans-Serif" font-size="10.00">opencv2/gapi/cpu/gcpukernel.hpp</text>
</a>
</g>
</g>
<!-- Node2&#45;&gt;Node9 -->
<g id="edge8_Node000002_Node000009" class="edge">
<title>Node2&#45;&gt;Node9</title>
<g id="a_edge8_Node000002_Node000009"><a xlink:title=" ">
<path fill="none" stroke="#63b8ff" d="M2180.42,-262.01C1964.51,-262.67 1360.4,-260.19 860,-217 844.87,-215.69 828.51,-213.64 813.54,-211.51"/>
<polygon fill="#63b8ff" stroke="#63b8ff" points="2180.73,-265.5 2190.71,-261.97 2180.7,-258.5 2180.73,-265.5"/>
</a>
</g>
</g>
<!-- Node10 -->
<g id="Node000010" class="node">
<title>Node10</title>
<g id="a_Node000010"><a xlink:href="../../d0/d08/gapi_2include_2opencv2_2gapi_2cpu_2imgproc_8hpp.html" target="_top" xlink:title=" ">
<polygon fill="white" stroke="#666666" points="1035,-211.5 869,-211.5 869,-192.5 1035,-192.5 1035,-211.5"/>
<text text-anchor="middle" x="952" y="-199.5" font-family="Helvetica,sans-Serif" font-size="10.00">opencv2/gapi/cpu/imgproc.hpp</text>
</a>
</g>
</g>
<!-- Node2&#45;&gt;Node10 -->
<g id="edge9_Node000002_Node000010" class="edge">
<title>Node2&#45;&gt;Node10</title>
<g id="a_edge9_Node000002_Node000010"><a xlink:title=" ">
<path fill="none" stroke="#63b8ff" d="M2180.55,-261.74C1984.43,-261.61 1470.61,-257.12 1044,-217 1030.01,-215.68 1014.9,-213.65 1001.05,-211.53"/>
<polygon fill="#63b8ff" stroke="#63b8ff" points="2180.77,-265.24 2190.77,-261.74 2180.77,-258.24 2180.77,-265.24"/>
</a>
</g>
</g>
<!-- Node11 -->
<g id="Node000011" class="node">
<title>Node11</title>
<g id="a_Node000011"><a xlink:href="../../d1/dca/cpu_2ot_8hpp.html" target="_top" xlink:title=" ">
<polygon fill="white" stroke="#666666" points="1189,-211.5 1053,-211.5 1053,-192.5 1189,-192.5 1189,-211.5"/>
<text text-anchor="middle" x="1121" y="-199.5" font-family="Helvetica,sans-Serif" font-size="10.00">opencv2/gapi/cpu/ot.hpp</text>
</a>
</g>
</g>
<!-- Node2&#45;&gt;Node11 -->
<g id="edge10_Node000002_Node000011" class="edge">
<title>Node2&#45;&gt;Node11</title>
<g id="a_edge10_Node000002_Node000011"><a xlink:title=" ">
<path fill="none" stroke="#63b8ff" d="M2180.67,-261.92C2002.19,-261.99 1563.01,-257.62 1198,-217 1186.25,-215.69 1173.6,-213.66 1162.01,-211.54"/>
<polygon fill="#63b8ff" stroke="#63b8ff" points="2180.77,-265.42 2190.77,-261.91 2180.76,-258.42 2180.77,-265.42"/>
</a>
</g>
</g>
<!-- Node12 -->
<g id="Node000012" class="node">
<title>Node12</title>
<g id="a_Node000012"><a xlink:href="../../d1/ddf/modules_2gapi_2include_2opencv2_2gapi_2cpu_2stereo_8hpp.html" target="_top" xlink:title=" ">
<polygon fill="white" stroke="#666666" points="1364.5,-211.5 1207.5,-211.5 1207.5,-192.5 1364.5,-192.5 1364.5,-211.5"/>
<text text-anchor="middle" x="1286" y="-199.5" font-family="Helvetica,sans-Serif" font-size="10.00">opencv2/gapi/cpu/stereo.hpp</text>
</a>
</g>
</g>
<!-- Node2&#45;&gt;Node12 -->
<g id="edge11_Node000002_Node000012" class="edge">
<title>Node2&#45;&gt;Node12</title>
<g id="a_edge11_Node000002_Node000012"><a xlink:title=" ">
<path fill="none" stroke="#63b8ff" d="M2180.9,-260.41C2024.32,-257.65 1669.63,-248.2 1373,-217 1359.92,-215.62 1345.8,-213.59 1332.83,-211.5"/>
<polygon fill="#63b8ff" stroke="#63b8ff" points="2180.87,-263.91 2190.92,-260.58 2180.99,-256.91 2180.87,-263.91"/>
</a>
</g>
</g>
<!-- Node13 -->
<g id="Node000013" class="node">
<title>Node13</title>
<g id="a_Node000013"><a xlink:href="../../d3/d41/gapi_2include_2opencv2_2gapi_2cpu_2video_8hpp.html" target="_top" xlink:title=" ">
<polygon fill="white" stroke="#666666" points="1535.5,-211.5 1382.5,-211.5 1382.5,-192.5 1535.5,-192.5 1535.5,-211.5"/>
<text text-anchor="middle" x="1459" y="-199.5" font-family="Helvetica,sans-Serif" font-size="10.00">opencv2/gapi/cpu/video.hpp</text>
</a>
</g>
</g>
<!-- Node2&#45;&gt;Node13 -->
<g id="edge12_Node000002_Node000013" class="edge">
<title>Node2&#45;&gt;Node13</title>
<g id="a_edge12_Node000002_Node000013"><a xlink:title=" ">
<path fill="none" stroke="#63b8ff" d="M2180.69,-259.09C2047.5,-254.54 1774.66,-242.76 1545,-217 1532.37,-215.58 1518.77,-213.59 1506.2,-211.55"/>
<polygon fill="#63b8ff" stroke="#63b8ff" points="2180.7,-262.59 2190.81,-259.43 2180.94,-255.59 2180.7,-262.59"/>
</a>
</g>
</g>
<!-- Node14 -->
<g id="Node000014" class="node">
<title>Node14</title>
<g id="a_Node000014"><a xlink:href="../../d3/d81/gapi_2include_2opencv2_2gapi_2fluid_2core_8hpp.html" target="_top" xlink:title=" ">
<polygon fill="white" stroke="#666666" points="1660,-217 1554,-217 1554,-187 1660,-187 1660,-217"/>
<text text-anchor="start" x="1562" y="-205" font-family="Helvetica,sans-Serif" font-size="10.00">opencv2/gapi/fluid</text>
<text text-anchor="middle" x="1607" y="-194" font-family="Helvetica,sans-Serif" font-size="10.00">/core.hpp</text>
</a>
</g>
</g>
<!-- Node2&#45;&gt;Node14 -->
<g id="edge13_Node000002_Node000014" class="edge">
<title>Node2&#45;&gt;Node14</title>
<g id="a_edge13_Node000002_Node000014"><a xlink:title=" ">
<path fill="none" stroke="#63b8ff" d="M2180.78,-259.19C2066.16,-255.07 1850.63,-244.17 1669,-217 1666.05,-216.56 1663.04,-216.06 1660,-215.51"/>
<polygon fill="#63b8ff" stroke="#63b8ff" points="2180.76,-262.69 2190.88,-259.54 2181.01,-255.69 2180.76,-262.69"/>
</a>
</g>
</g>
<!-- Node15 -->
<g id="Node000015" class="node">
<title>Node15</title>
<g id="a_Node000015"><a xlink:href="../../d3/d53/gfluidkernel_8hpp.html" target="_top" xlink:title=" ">
<polygon fill="white" stroke="#666666" points="1784,-217 1678,-217 1678,-187 1784,-187 1784,-217"/>
<text text-anchor="start" x="1686" y="-205" font-family="Helvetica,sans-Serif" font-size="10.00">opencv2/gapi/fluid</text>
<text text-anchor="middle" x="1731" y="-194" font-family="Helvetica,sans-Serif" font-size="10.00">/gfluidkernel.hpp</text>
</a>
</g>
</g>
<!-- Node2&#45;&gt;Node15 -->
<g id="edge14_Node000002_Node000015" class="edge">
<title>Node2&#45;&gt;Node15</title>
<g id="a_edge14_Node000002_Node000015"><a xlink:title=" ">
<path fill="none" stroke="#63b8ff" d="M2180.94,-256.96C2087.13,-250.97 1928.2,-238.59 1793,-217 1790.06,-216.53 1787.05,-216 1784.01,-215.44"/>
<polygon fill="#63b8ff" stroke="#63b8ff" points="2180.73,-260.45 2190.93,-257.59 2181.17,-253.46 2180.73,-260.45"/>
</a>
</g>
</g>
<!-- Node16 -->
<g id="Node000016" class="node">
<title>Node16</title>
<g id="a_Node000016"><a xlink:href="../../de/da0/gapi_2include_2opencv2_2gapi_2fluid_2imgproc_8hpp.html" target="_top" xlink:title=" ">
<polygon fill="white" stroke="#666666" points="1908,-217 1802,-217 1802,-187 1908,-187 1908,-217"/>
<text text-anchor="start" x="1810" y="-205" font-family="Helvetica,sans-Serif" font-size="10.00">opencv2/gapi/fluid</text>
<text text-anchor="middle" x="1855" y="-194" font-family="Helvetica,sans-Serif" font-size="10.00">/imgproc.hpp</text>
</a>
</g>
</g>
<!-- Node2&#45;&gt;Node16 -->
<g id="edge15_Node000002_Node000016" class="edge">
<title>Node2&#45;&gt;Node16</title>
<g id="a_edge15_Node000002_Node000016"><a xlink:title=" ">
<path fill="none" stroke="#63b8ff" d="M2180.58,-253.18C2110.46,-245.49 2006.7,-232.88 1917,-217 1914.07,-216.48 1911.06,-215.92 1908.03,-215.32"/>
<polygon fill="#63b8ff" stroke="#63b8ff" points="2180.35,-256.67 2190.67,-254.28 2181.11,-249.72 2180.35,-256.67"/>
</a>
</g>
</g>
<!-- Node17 -->
<g id="Node000017" class="node">
<title>Node17</title>
<g id="a_Node000017"><a xlink:href="../../da/dc1/gcompoundkernel_8hpp.html" target="_top" xlink:title=" ">
<polygon fill="white" stroke="#666666" points="2119.5,-211.5 1926.5,-211.5 1926.5,-192.5 2119.5,-192.5 2119.5,-211.5"/>
<text text-anchor="middle" x="2023" y="-199.5" font-family="Helvetica,sans-Serif" font-size="10.00">opencv2/gapi/gcompoundkernel.hpp</text>
</a>
</g>
</g>
<!-- Node2&#45;&gt;Node17 -->
<g id="edge16_Node000002_Node000017" class="edge">
<title>Node2&#45;&gt;Node17</title>
<g id="a_edge16_Node000002_Node000017"><a xlink:title=" ">
<path fill="none" stroke="#63b8ff" d="M2217.51,-250.61C2171.32,-239.3 2100.03,-221.85 2057.79,-211.52"/>
<polygon fill="#63b8ff" stroke="#63b8ff" points="2216.7,-254.02 2227.25,-252.99 2218.37,-247.22 2216.7,-254.02"/>
</a>
</g>
</g>
<!-- Node18 -->
<g id="Node000018" class="node">
<title>Node18</title>
<g id="a_Node000018"><a xlink:href="../../d4/d75/gapi_2include_2opencv2_2gapi_2imgproc_8hpp.html" target="_top" xlink:title=" ">
<polygon fill="white" stroke="#666666" points="488,-211.5 342,-211.5 342,-192.5 488,-192.5 488,-211.5"/>
<text text-anchor="middle" x="415" y="-199.5" font-family="Helvetica,sans-Serif" font-size="10.00">opencv2/gapi/imgproc.hpp</text>
</a>
</g>
</g>
<!-- Node2&#45;&gt;Node18 -->
<g id="edge17_Node000002_Node000018" class="edge">
<title>Node2&#45;&gt;Node18</title>
<g id="a_edge17_Node000002_Node000018"><a xlink:title=" ">
<path fill="none" stroke="#63b8ff" d="M2180.56,-261C1879.56,-258.93 830.16,-249.47 497,-217 484.21,-215.75 470.4,-213.68 457.83,-211.51"/>
<polygon fill="#63b8ff" stroke="#63b8ff" points="2180.93,-264.51 2190.95,-261.07 2180.97,-257.51 2180.93,-264.51"/>
</a>
</g>
</g>
<!-- Node19 -->
<g id="Node000019" class="node">
<title>Node19</title>
<g id="a_Node000019"><a xlink:href="../../d6/d32/infer_8hpp.html" target="_top" xlink:title=" ">
<polygon fill="white" stroke="#666666" points="2418,-211.5 2290,-211.5 2290,-192.5 2418,-192.5 2418,-211.5"/>
<text text-anchor="middle" x="2354" y="-199.5" font-family="Helvetica,sans-Serif" font-size="10.00">opencv2/gapi/infer.hpp</text>
</a>
</g>
</g>
<!-- Node2&#45;&gt;Node19 -->
<g id="edge19_Node000002_Node000019" class="edge">
<title>Node2&#45;&gt;Node19</title>
<g id="a_edge19_Node000002_Node000019"><a xlink:title=" ">
<path fill="none" stroke="#63b8ff" d="M2284.07,-247.47C2301.59,-236.32 2325.53,-221.1 2340.37,-211.67"/>
<polygon fill="#63b8ff" stroke="#63b8ff" points="2282.14,-244.55 2275.57,-252.87 2285.89,-250.46 2282.14,-244.55"/>
</a>
</g>
</g>
<!-- Node20 -->
<g id="Node000020" class="node">
<title>Node20</title>
<g id="a_Node000020"><a xlink:href="../../df/d70/ie_8hpp.html" target="_top" xlink:title=" ">
<polygon fill="white" stroke="#666666" points="2911.5,-151 2804.5,-151 2804.5,-121 2911.5,-121 2911.5,-151"/>
<text text-anchor="start" x="2812.5" y="-139" font-family="Helvetica,sans-Serif" font-size="10.00">opencv2/gapi/infer</text>
<text text-anchor="middle" x="2858" y="-128" font-family="Helvetica,sans-Serif" font-size="10.00">/ie.hpp</text>
</a>
</g>
</g>
<!-- Node2&#45;&gt;Node20 -->
<g id="edge29_Node000002_Node000020" class="edge">
<title>Node2&#45;&gt;Node20</title>
<g id="a_edge29_Node000002_Node000020"><a xlink:title=" ">
<path fill="none" stroke="#63b8ff" d="M2343.3,-261.69C2503.15,-261.2 2846.05,-255.62 2882,-217 2898.99,-198.74 2882.32,-168.91 2869.54,-151.29"/>
<polygon fill="#63b8ff" stroke="#63b8ff" points="2343.03,-258.19 2333.04,-261.71 2343.05,-265.19 2343.03,-258.19"/>
</a>
</g>
</g>
<!-- Node21 -->
<g id="Node000021" class="node">
<title>Node21</title>
<g id="a_Node000021"><a xlink:href="../../d5/d51/bindings__ie_8hpp.html" target="_top" xlink:title=" ">
<polygon fill="white" stroke="#666666" points="2930.5,-85 2823.5,-85 2823.5,-55 2930.5,-55 2930.5,-85"/>
<text text-anchor="start" x="2831.5" y="-73" font-family="Helvetica,sans-Serif" font-size="10.00">opencv2/gapi/infer</text>
<text text-anchor="middle" x="2877" y="-62" font-family="Helvetica,sans-Serif" font-size="10.00">/bindings_ie.hpp</text>
</a>
</g>
</g>
<!-- Node2&#45;&gt;Node21 -->
<g id="edge26_Node000002_Node000021" class="edge">
<title>Node2&#45;&gt;Node21</title>
<g id="a_edge26_Node000002_Node000021"><a xlink:title=" ">
<path fill="none" stroke="#63b8ff" d="M2343.53,-260.9C2505.82,-258.99 2857.44,-250.93 2900,-217 2934.08,-189.83 2935.15,-161.86 2920,-121 2914.82,-107.04 2903.82,-94.37 2894.23,-85.27"/>
<polygon fill="#63b8ff" stroke="#63b8ff" points="2343.08,-257.41 2333.12,-261.02 2343.15,-264.41 2343.08,-257.41"/>
</a>
</g>
</g>
<!-- Node22 -->
<g id="Node000022" class="node">
<title>Node22</title>
<g id="a_Node000022"><a xlink:href="../../d6/d71/onnx_8hpp.html" target="_top" xlink:title=" ">
<polygon fill="white" stroke="#666666" points="2359.5,-151 2252.5,-151 2252.5,-121 2359.5,-121 2359.5,-151"/>
<text text-anchor="start" x="2260.5" y="-139" font-family="Helvetica,sans-Serif" font-size="10.00">opencv2/gapi/infer</text>
<text text-anchor="middle" x="2306" y="-128" font-family="Helvetica,sans-Serif" font-size="10.00">/onnx.hpp</text>
</a>
</g>
</g>
<!-- Node2&#45;&gt;Node22 -->
<g id="edge30_Node000002_Node000022" class="edge">
<title>Node2&#45;&gt;Node22</title>
<g id="a_edge30_Node000002_Node000022"><a xlink:title=" ">
<path fill="none" stroke="#63b8ff" d="M2265.7,-242.37C2268.93,-227.11 2274.17,-205.34 2281,-187 2285.68,-174.45 2292.58,-160.9 2297.94,-151.08"/>
<polygon fill="#63b8ff" stroke="#63b8ff" points="2262.18,-242.1 2263.63,-252.6 2269.04,-243.49 2262.18,-242.1"/>
</a>
</g>
</g>
<!-- Node23 -->
<g id="Node000023" class="node">
<title>Node23</title>
<g id="a_Node000023"><a xlink:href="../../d0/d47/bindings__onnx_8hpp.html" target="_top" xlink:title=" ">
<polygon fill="white" stroke="#666666" points="2320.5,-85 2209.5,-85 2209.5,-55 2320.5,-55 2320.5,-85"/>
<text text-anchor="start" x="2217.5" y="-73" font-family="Helvetica,sans-Serif" font-size="10.00">opencv2/gapi/infer</text>
<text text-anchor="middle" x="2265" y="-62" font-family="Helvetica,sans-Serif" font-size="10.00">/bindings_onnx.hpp</text>
</a>
</g>
</g>
<!-- Node2&#45;&gt;Node23 -->
<g id="edge27_Node000002_Node000023" class="edge">
<title>Node2&#45;&gt;Node23</title>
<g id="a_edge27_Node000002_Node000023"><a xlink:title=" ">
<path fill="none" stroke="#63b8ff" d="M2255.59,-243.25C2247.01,-216.31 2233.87,-164.4 2243,-121 2245.65,-108.38 2251.7,-95.06 2256.78,-85.34"/>
<polygon fill="#63b8ff" stroke="#63b8ff" points="2252.31,-244.5 2258.8,-252.87 2258.95,-242.28 2252.31,-244.5"/>
</a>
</g>
</g>
<!-- Node24 -->
<g id="Node000024" class="node">
<title>Node24</title>
<g id="a_Node000024"><a xlink:href="../../da/d96/ov_8hpp.html" target="_top" xlink:title=" ">
<polygon fill="white" stroke="#666666" points="3075.5,-151 2968.5,-151 2968.5,-121 3075.5,-121 3075.5,-151"/>
<text text-anchor="start" x="2976.5" y="-139" font-family="Helvetica,sans-Serif" font-size="10.00">opencv2/gapi/infer</text>
<text text-anchor="middle" x="3022" y="-128" font-family="Helvetica,sans-Serif" font-size="10.00">/ov.hpp</text>
</a>
</g>
</g>
<!-- Node2&#45;&gt;Node24 -->
<g id="edge31_Node000002_Node000024" class="edge">
<title>Node2&#45;&gt;Node24</title>
<g id="a_edge31_Node000002_Node000024"><a xlink:title=" ">
<path fill="none" stroke="#63b8ff" d="M2343.43,-259.82C2514.65,-255.77 2900.66,-243.78 2954,-217 2982.83,-202.52 3004.3,-169.82 3014.81,-151.02"/>
<polygon fill="#63b8ff" stroke="#63b8ff" points="2343.12,-256.33 2333.21,-260.06 2343.28,-263.32 2343.12,-256.33"/>
</a>
</g>
</g>
<!-- Node25 -->
<g id="Node000025" class="node">
<title>Node25</title>
<g id="a_Node000025"><a xlink:href="../../d8/d97/bindings__ov_8hpp.html" target="_top" xlink:title=" ">
<polygon fill="white" stroke="#666666" points="3701.5,-85 3594.5,-85 3594.5,-55 3701.5,-55 3701.5,-85"/>
<text text-anchor="start" x="3602.5" y="-73" font-family="Helvetica,sans-Serif" font-size="10.00">opencv2/gapi/infer</text>
<text text-anchor="middle" x="3648" y="-62" font-family="Helvetica,sans-Serif" font-size="10.00">/bindings_ov.hpp</text>
</a>
</g>
</g>
<!-- Node2&#45;&gt;Node25 -->
<g id="edge28_Node000002_Node000025" class="edge">
<title>Node2&#45;&gt;Node25</title>
<g id="a_edge28_Node000002_Node000025"><a xlink:title=" ">
<path fill="none" stroke="#63b8ff" d="M2343.13,-261.21C2712.74,-259.71 4220.77,-251.47 4255,-217 4285.06,-186.72 4284.91,-152.38 4256,-121 4218.82,-80.64 3843.35,-72.86 3701.7,-71.36"/>
<polygon fill="#63b8ff" stroke="#63b8ff" points="2343.03,-257.71 2333.05,-261.25 2343.06,-264.71 2343.03,-257.71"/>
</a>
</g>
</g>
<!-- Node26 -->
<g id="Node000026" class="node">
<title>Node26</title>
<g id="a_Node000026"><a xlink:href="../../de/db3/parsers_8hpp.html" target="_top" xlink:title=" ">
<polygon fill="white" stroke="#666666" points="2543.5,-217 2436.5,-217 2436.5,-187 2543.5,-187 2543.5,-217"/>
<text text-anchor="start" x="2444.5" y="-205" font-family="Helvetica,sans-Serif" font-size="10.00">opencv2/gapi/infer</text>
<text text-anchor="middle" x="2490" y="-194" font-family="Helvetica,sans-Serif" font-size="10.00">/parsers.hpp</text>
</a>
</g>
</g>
<!-- Node2&#45;&gt;Node26 -->
<g id="edge32_Node000002_Node000026" class="edge">
<title>Node2&#45;&gt;Node26</title>
<g id="a_edge32_Node000002_Node000026"><a xlink:title=" ">
<path fill="none" stroke="#63b8ff" d="M2305.17,-250.42C2342.31,-240.89 2396.09,-227.1 2436.07,-216.84"/>
<polygon fill="#63b8ff" stroke="#63b8ff" points="2303.97,-247.12 2295.15,-252.99 2305.71,-253.9 2303.97,-247.12"/>
</a>
</g>
</g>
<!-- Node27 -->
<g id="Node000027" class="node">
<title>Node27</title>
<g id="a_Node000027"><a xlink:href="../../d8/db1/oak_2infer_8hpp.html" target="_top" xlink:title=" ">
<polygon fill="white" stroke="#666666" points="2710.5,-211.5 2561.5,-211.5 2561.5,-192.5 2710.5,-192.5 2710.5,-211.5"/>
<text text-anchor="middle" x="2636" y="-199.5" font-family="Helvetica,sans-Serif" font-size="10.00">opencv2/gapi/oak/infer.hpp</text>
</a>
</g>
</g>
<!-- Node2&#45;&gt;Node27 -->
<g id="edge33_Node000002_Node000027" class="edge">
<title>Node2&#45;&gt;Node27</title>
<g id="a_edge33_Node000002_Node000027"><a xlink:title=" ">
<path fill="none" stroke="#63b8ff" d="M2328.89,-251.49C2387.7,-242.62 2475.57,-229.23 2552,-217 2562.8,-215.27 2574.38,-213.37 2585.38,-211.55"/>
<polygon fill="#63b8ff" stroke="#63b8ff" points="2328.35,-248.03 2318.99,-252.98 2329.4,-254.95 2328.35,-248.03"/>
</a>
</g>
</g>
<!-- Node28 -->
<g id="Node000028" class="node">
<title>Node28</title>
<g id="a_Node000028"><a xlink:href="../../de/d62/oak_8hpp.html" target="_top" xlink:title=" ">
<polygon fill="white" stroke="#666666" points="2873.5,-211.5 2728.5,-211.5 2728.5,-192.5 2873.5,-192.5 2873.5,-211.5"/>
<text text-anchor="middle" x="2801" y="-199.5" font-family="Helvetica,sans-Serif" font-size="10.00">opencv2/gapi/oak/oak.hpp</text>
</a>
</g>
</g>
<!-- Node2&#45;&gt;Node28 -->
<g id="edge34_Node000002_Node000028" class="edge">
<title>Node2&#45;&gt;Node28</title>
<g id="a_edge34_Node000002_Node000028"><a xlink:title=" ">
<path fill="none" stroke="#63b8ff" d="M2343.06,-255.38C2434.58,-248.06 2587.82,-234.56 2719,-217 2730.59,-215.45 2743.06,-213.48 2754.69,-211.51"/>
<polygon fill="#63b8ff" stroke="#63b8ff" points="2342.72,-251.9 2333.03,-256.18 2343.28,-258.87 2342.72,-251.9"/>
</a>
</g>
</g>
<!-- Node29 -->
<g id="Node000029" class="node">
<title>Node29</title>
<g id="a_Node000029"><a xlink:href="../../dd/db3/gapi_2include_2opencv2_2gapi_2ocl_2core_8hpp.html" target="_top" xlink:title=" ">
<polygon fill="white" stroke="#666666" points="3874,-211.5 3730,-211.5 3730,-192.5 3874,-192.5 3874,-211.5"/>
<text text-anchor="middle" x="3802" y="-199.5" font-family="Helvetica,sans-Serif" font-size="10.00">opencv2/gapi/ocl/core.hpp</text>
</a>
</g>
</g>
<!-- Node2&#45;&gt;Node29 -->
<g id="edge35_Node000002_Node000029" class="edge">
<title>Node2&#45;&gt;Node29</title>
<g id="a_edge35_Node000002_Node000029"><a xlink:title=" ">
<path fill="none" stroke="#63b8ff" d="M2343.64,-260.5C2609.67,-257 3449.89,-244.05 3720,-217 3732.65,-215.73 3746.29,-213.68 3758.75,-211.54"/>
<polygon fill="#63b8ff" stroke="#63b8ff" points="2343.24,-257 2333.29,-260.63 2343.33,-264 2343.24,-257"/>
</a>
</g>
</g>
<!-- Node31 -->
<g id="Node000031" class="node">
<title>Node31</title>
<g id="a_Node000031"><a xlink:href="../../d4/d96/goclkernel_8hpp.html" target="_top" xlink:title=" ">
<polygon fill="white" stroke="#666666" points="4065.5,-211.5 3892.5,-211.5 3892.5,-192.5 4065.5,-192.5 4065.5,-211.5"/>
<text text-anchor="middle" x="3979" y="-199.5" font-family="Helvetica,sans-Serif" font-size="10.00">opencv2/gapi/ocl/goclkernel.hpp</text>
</a>
</g>
</g>
<!-- Node2&#45;&gt;Node31 -->
<g id="edge37_Node000002_Node000031" class="edge">
<title>Node2&#45;&gt;Node31</title>
<g id="a_edge37_Node000002_Node000031"><a xlink:title=" ">
<path fill="none" stroke="#63b8ff" d="M2343.4,-260.53C2628.21,-256.94 3579.1,-243.24 3883,-217 3897.77,-215.72 3913.73,-213.67 3928.31,-211.53"/>
<polygon fill="#63b8ff" stroke="#63b8ff" points="2343.11,-257.03 2333.15,-260.66 2343.19,-264.03 2343.11,-257.03"/>
</a>
</g>
</g>
<!-- Node33 -->
<g id="Node000033" class="node">
<title>Node33</title>
<g id="a_Node000033"><a xlink:href="../../d9/dca/gapi_2include_2opencv2_2gapi_2ocl_2imgproc_8hpp.html" target="_top" xlink:title=" ">
<polygon fill="white" stroke="#666666" points="4246.5,-211.5 4083.5,-211.5 4083.5,-192.5 4246.5,-192.5 4246.5,-211.5"/>
<text text-anchor="middle" x="4165" y="-199.5" font-family="Helvetica,sans-Serif" font-size="10.00">opencv2/gapi/ocl/imgproc.hpp</text>
</a>
</g>
</g>
<!-- Node2&#45;&gt;Node33 -->
<g id="edge39_Node000002_Node000033" class="edge">
<title>Node2&#45;&gt;Node33</title>
<g id="a_edge39_Node000002_Node000033"><a xlink:title=" ">
<path fill="none" stroke="#63b8ff" d="M2343.57,-260.89C2649.82,-258.37 3730.95,-247.47 4074,-217 4088.01,-215.76 4103.14,-213.71 4116.97,-211.57"/>
<polygon fill="#63b8ff" stroke="#63b8ff" points="2343.41,-257.39 2333.44,-260.97 2343.46,-264.39 2343.41,-257.39"/>
</a>
</g>
</g>
<!-- Node35 -->
<g id="Node000035" class="node">
<title>Node35</title>
<g id="a_Node000035"><a xlink:href="../../dc/d2d/gapi_2include_2opencv2_2gapi_2plaidml_2core_8hpp.html" target="_top" xlink:title=" ">
<polygon fill="white" stroke="#666666" points="3128,-217 3006,-217 3006,-187 3128,-187 3128,-217"/>
<text text-anchor="start" x="3014" y="-205" font-family="Helvetica,sans-Serif" font-size="10.00">opencv2/gapi/plaidml</text>
<text text-anchor="middle" x="3067" y="-194" font-family="Helvetica,sans-Serif" font-size="10.00">/core.hpp</text>
</a>
</g>
</g>
<!-- Node2&#45;&gt;Node35 -->
<g id="edge42_Node000002_Node000035" class="edge">
<title>Node2&#45;&gt;Node35</title>
<g id="a_edge42_Node000002_Node000035"><a xlink:title=" ">
<path fill="none" stroke="#63b8ff" d="M2343.52,-259.82C2478.74,-256.29 2757.73,-245.89 2992,-217 2996.47,-216.45 3001.08,-215.8 3005.7,-215.08"/>
<polygon fill="#63b8ff" stroke="#63b8ff" points="2343.16,-256.32 2333.25,-260.08 2343.34,-263.32 2343.16,-256.32"/>
</a>
</g>
</g>
<!-- Node36 -->
<g id="Node000036" class="node">
<title>Node36</title>
<g id="a_Node000036"><a xlink:href="../../d9/dae/gplaidmlkernel_8hpp.html" target="_top" xlink:title=" ">
<polygon fill="white" stroke="#666666" points="3268,-217 3146,-217 3146,-187 3268,-187 3268,-217"/>
<text text-anchor="start" x="3154" y="-205" font-family="Helvetica,sans-Serif" font-size="10.00">opencv2/gapi/plaidml</text>
<text text-anchor="middle" x="3207" y="-194" font-family="Helvetica,sans-Serif" font-size="10.00">/gplaidmlkernel.hpp</text>
</a>
</g>
</g>
<!-- Node2&#45;&gt;Node36 -->
<g id="edge43_Node000002_Node000036" class="edge">
<title>Node2&#45;&gt;Node36</title>
<g id="a_edge43_Node000002_Node000036"><a xlink:title=" ">
<path fill="none" stroke="#63b8ff" d="M2343.58,-261.33C2498.72,-260.13 2846.7,-253.21 3137,-217 3139.83,-216.65 3142.71,-216.24 3145.62,-215.8"/>
<polygon fill="#63b8ff" stroke="#63b8ff" points="2343.17,-257.83 2333.19,-261.41 2343.22,-264.83 2343.17,-257.83"/>
</a>
</g>
</g>
<!-- Node37 -->
<g id="Node000037" class="node">
<title>Node37</title>
<g id="a_Node000037"><a xlink:href="../../d4/d44/python_8hpp.html" target="_top" xlink:title=" ">
<polygon fill="white" stroke="#666666" points="3405.5,-217 3286.5,-217 3286.5,-187 3405.5,-187 3405.5,-217"/>
<text text-anchor="start" x="3294.5" y="-205" font-family="Helvetica,sans-Serif" font-size="10.00">opencv2/gapi/python</text>
<text text-anchor="middle" x="3346" y="-194" font-family="Helvetica,sans-Serif" font-size="10.00">/python.hpp</text>
</a>
</g>
</g>
<!-- Node2&#45;&gt;Node37 -->
<g id="edge44_Node000002_Node000037" class="edge">
<title>Node2&#45;&gt;Node37</title>
<g id="a_edge44_Node000002_Node000037"><a xlink:title=" ">
<path fill="none" stroke="#63b8ff" d="M2343.09,-262.23C2515.62,-262.85 2931.55,-259.35 3277,-217 3280.03,-216.63 3283.13,-216.2 3286.25,-215.72"/>
<polygon fill="#63b8ff" stroke="#63b8ff" points="2343.09,-258.73 2333.07,-262.19 2343.06,-265.73 2343.09,-258.73"/>
</a>
</g>
</g>
<!-- Node38 -->
<g id="Node000038" class="node">
<title>Node38</title>
<g id="a_Node000038"><a xlink:href="../../d4/def/modules_2gapi_2include_2opencv2_2gapi_2stereo_8hpp.html" target="_top" xlink:title=" ">
<polygon fill="white" stroke="#666666" points="3560.5,-211.5 3423.5,-211.5 3423.5,-192.5 3560.5,-192.5 3560.5,-211.5"/>
<text text-anchor="middle" x="3492" y="-199.5" font-family="Helvetica,sans-Serif" font-size="10.00">opencv2/gapi/stereo.hpp</text>
</a>
</g>
</g>
<!-- Node2&#45;&gt;Node38 -->
<g id="edge45_Node000002_Node000038" class="edge">
<title>Node2&#45;&gt;Node38</title>
<g id="a_edge45_Node000002_Node000038"><a xlink:title=" ">
<path fill="none" stroke="#63b8ff" d="M2343.15,-262.23C2531.73,-263.08 3013.95,-260.42 3414,-217 3425.9,-215.71 3438.72,-213.68 3450.46,-211.56"/>
<polygon fill="#63b8ff" stroke="#63b8ff" points="2343.06,-258.73 2333.04,-262.18 2343.02,-265.73 2343.06,-258.73"/>
</a>
</g>
</g>
<!-- Node2&#45;&gt;Node39 -->
<g id="edge46_Node000002_Node000039" class="edge">
<title>Node2&#45;&gt;Node39</title>
<g id="a_edge46_Node000002_Node000039"><a xlink:title=" ">
<path fill="none" stroke="#63b8ff" d="M2180.71,-261.42C1843.48,-260.84 553.28,-256.07 148,-217 143.45,-216.56 138.78,-216.01 134.08,-215.39"/>
<polygon fill="#63b8ff" stroke="#63b8ff" points="2180.88,-264.92 2190.88,-261.44 2180.89,-257.92 2180.88,-264.92"/>
</a>
</g>
</g>
<!-- Node40 -->
<g id="Node000040" class="node">
<title>Node40</title>
<g id="a_Node000040"><a xlink:href="../../d4/d0a/format_8hpp.html" target="_top" xlink:title=" ">
<polygon fill="white" stroke="#666666" points="324,-217 190,-217 190,-187 324,-187 324,-217"/>
<text text-anchor="start" x="198" y="-205" font-family="Helvetica,sans-Serif" font-size="10.00">opencv2/gapi/streaming</text>
<text text-anchor="middle" x="257" y="-194" font-family="Helvetica,sans-Serif" font-size="10.00">/format.hpp</text>
</a>
</g>
</g>
<!-- Node2&#45;&gt;Node40 -->
<g id="edge48_Node000002_Node000040" class="edge">
<title>Node2&#45;&gt;Node40</title>
<g id="a_edge48_Node000002_Node000040"><a xlink:title=" ">
<path fill="none" stroke="#63b8ff" d="M2180.78,-261.35C1862.52,-260.49 699.83,-254.78 333,-217 330.06,-216.7 327.07,-216.34 324.05,-215.95"/>
<polygon fill="#63b8ff" stroke="#63b8ff" points="2180.84,-264.85 2190.85,-261.38 2180.86,-257.85 2180.84,-264.85"/>
</a>
</g>
</g>
<!-- Node2&#45;&gt;Node41 -->
<g id="edge51_Node000002_Node000041" class="edge">
<title>Node2&#45;&gt;Node41</title>
<g id="a_edge51_Node000002_Node000041"><a xlink:title=" ">
<path fill="none" stroke="#63b8ff" d="M2343.43,-261.34C2672.09,-260.42 3901.79,-254.5 4289,-217 4293.55,-216.56 4298.22,-216.01 4302.92,-215.39"/>
<polygon fill="#63b8ff" stroke="#63b8ff" points="2343.03,-257.84 2333.04,-261.36 2343.05,-264.84 2343.03,-257.84"/>
</a>
</g>
</g>
<!-- Node44 -->
<g id="Node000044" class="node">
<title>Node44</title>
<g id="a_Node000044"><a xlink:href="../../d6/deb/gapi_2include_2opencv2_2gapi_2video_8hpp.html" target="_top" xlink:title=" ">
<polygon fill="white" stroke="#666666" points="3711.5,-211.5 3578.5,-211.5 3578.5,-192.5 3711.5,-192.5 3711.5,-211.5"/>
<text text-anchor="middle" x="3645" y="-199.5" font-family="Helvetica,sans-Serif" font-size="10.00">opencv2/gapi/video.hpp</text>
</a>
</g>
</g>
<!-- Node2&#45;&gt;Node44 -->
<g id="edge54_Node000002_Node000044" class="edge">
<title>Node2&#45;&gt;Node44</title>
<g id="a_edge54_Node000002_Node000044"><a xlink:title=" ">
<path fill="none" stroke="#63b8ff" d="M2343.51,-260.31C2590.74,-256.44 3329.79,-242.96 3569,-217 3580.74,-215.73 3593.39,-213.67 3604.93,-211.53"/>
<polygon fill="#63b8ff" stroke="#63b8ff" points="2343.11,-256.81 2333.16,-260.47 2343.22,-263.81 2343.11,-256.81"/>
</a>
</g>
</g>
<!-- Node3&#45;&gt;Node4 -->
<g id="edge3_Node000003_Node000004" class="edge">
<title>Node3&#45;&gt;Node4</title>
<g id="a_edge3_Node000003_Node000004"><a xlink:title=" ">
<path fill="none" stroke="#63b8ff" d="M271.62,-127.84C293.78,-125.43 318.99,-122.88 342,-121 649.64,-95.92 1019.08,-79.22 1159.76,-73.34"/>
<polygon fill="#63b8ff" stroke="#63b8ff" points="271.22,-124.36 261.66,-128.93 271.99,-131.32 271.22,-124.36"/>
</a>
</g>
</g>
<!-- Node5 -->
<g id="Node000005" class="node">
<title>Node5</title>
<g id="a_Node000005"><a xlink:href="../../d1/dda/render_2render_8hpp.html" target="_top" xlink:title=" ">
<polygon fill="white" stroke="#666666" points="268,-85 152,-85 152,-55 268,-55 268,-85"/>
<text text-anchor="start" x="160" y="-73" font-family="Helvetica,sans-Serif" font-size="10.00">opencv2/gapi/render</text>
<text text-anchor="middle" x="210" y="-62" font-family="Helvetica,sans-Serif" font-size="10.00">/render.hpp</text>
</a>
</g>
</g>
<!-- Node3&#45;&gt;Node5 -->
<g id="edge4_Node000003_Node000005" class="edge">
<title>Node3&#45;&gt;Node5</title>
<g id="a_edge4_Node000003_Node000005"><a xlink:title=" ">
<path fill="none" stroke="#63b8ff" d="M210,-116.35C210,-106.47 210,-94.51 210,-85.36"/>
<polygon fill="#63b8ff" stroke="#63b8ff" points="206.5,-116.37 210,-126.37 213.5,-116.37 206.5,-116.37"/>
</a>
</g>
</g>
<!-- Node6 -->
<g id="Node000006" class="node">
<title>Node6</title>
<g id="a_Node000006"><a xlink:href="../../d6/d4b/render_8hpp.html" target="_top" xlink:title=" ">
<polygon fill="white" stroke="#666666" points="278.5,-19 141.5,-19 141.5,0 278.5,0 278.5,-19"/>
<text text-anchor="middle" x="210" y="-7" font-family="Helvetica,sans-Serif" font-size="10.00">opencv2/gapi/render.hpp</text>
</a>
</g>
</g>
<!-- Node5&#45;&gt;Node6 -->
<g id="edge5_Node000005_Node000006" class="edge">
<title>Node5&#45;&gt;Node6</title>
<g id="a_edge5_Node000005_Node000006"><a xlink:title=" ">
<path fill="none" stroke="#63b8ff" d="M210,-44.75C210,-35.72 210,-26.03 210,-19.27"/>
<polygon fill="#63b8ff" stroke="#63b8ff" points="206.5,-44.84 210,-54.84 213.5,-44.84 206.5,-44.84"/>
</a>
</g>
</g>
<!-- Node18&#45;&gt;Node7 -->
<g id="edge18_Node000018_Node000007" class="edge">
<title>Node18&#45;&gt;Node7</title>
<g id="a_edge18_Node000018_Node000007"><a xlink:title=" ">
<path fill="none" stroke="#63b8ff" d="M415,-182.08C415,-170.13 415,-155.22 415,-145.91"/>
<polygon fill="#63b8ff" stroke="#63b8ff" points="411.5,-182.37 415,-192.37 418.5,-182.37 411.5,-182.37"/>
</a>
</g>
</g>
<!-- Node19&#45;&gt;Node20 -->
<g id="edge20_Node000019_Node000020" class="edge">
<title>Node19&#45;&gt;Node20</title>
<g id="a_edge20_Node000019_Node000020"><a xlink:title=" ">
<path fill="none" stroke="#63b8ff" d="M2405.86,-190.57C2412.95,-189.28 2420.14,-188.05 2427,-187 2562.32,-166.2 2722.74,-149.73 2804.41,-141.93"/>
<polygon fill="#63b8ff" stroke="#63b8ff" points="2404.79,-187.2 2395.6,-192.47 2406.07,-194.09 2404.79,-187.2"/>
</a>
</g>
</g>
<!-- Node19&#45;&gt;Node22 -->
<g id="edge22_Node000019_Node000022" class="edge">
<title>Node19&#45;&gt;Node22</title>
<g id="a_edge22_Node000019_Node000022"><a xlink:title=" ">
<path fill="none" stroke="#63b8ff" d="M2341.43,-184.24C2333.77,-174.02 2324.08,-161.1 2316.77,-151.36"/>
<polygon fill="#63b8ff" stroke="#63b8ff" points="2338.73,-186.47 2347.53,-192.37 2344.33,-182.27 2338.73,-186.47"/>
</a>
</g>
</g>
<!-- Node19&#45;&gt;Node24 -->
<g id="edge24_Node000019_Node000024" class="edge">
<title>Node19&#45;&gt;Node24</title>
<g id="a_edge24_Node000019_Node000024"><a xlink:title=" ">
<path fill="none" stroke="#63b8ff" d="M2403.98,-190.62C2411.67,-189.25 2419.53,-187.99 2427,-187 2644.81,-158.26 2701.51,-173.95 2920,-151 2935.73,-149.35 2952.78,-147.16 2968.35,-145.02"/>
<polygon fill="#63b8ff" stroke="#63b8ff" points="2403.22,-187.2 2394.03,-192.45 2404.49,-194.08 2403.22,-187.2"/>
</a>
</g>
</g>
<!-- Node20&#45;&gt;Node21 -->
<g id="edge21_Node000020_Node000021" class="edge">
<title>Node20&#45;&gt;Node21</title>
<g id="a_edge21_Node000020_Node000021"><a xlink:title=" ">
<path fill="none" stroke="#63b8ff" d="M2865.09,-111.11C2867.69,-102.38 2870.53,-92.78 2872.8,-85.16"/>
<polygon fill="#63b8ff" stroke="#63b8ff" points="2861.71,-110.21 2862.22,-120.8 2868.42,-112.21 2861.71,-110.21"/>
</a>
</g>
</g>
<!-- Node22&#45;&gt;Node23 -->
<g id="edge23_Node000022_Node000023" class="edge">
<title>Node22&#45;&gt;Node23</title>
<g id="a_edge23_Node000022_Node000023"><a xlink:title=" ">
<path fill="none" stroke="#63b8ff" d="M2291.42,-112.24C2285.64,-103.21 2279.16,-93.11 2274.07,-85.16"/>
<polygon fill="#63b8ff" stroke="#63b8ff" points="2288.56,-114.26 2296.9,-120.8 2294.45,-110.49 2288.56,-114.26"/>
</a>
</g>
</g>
<!-- Node24&#45;&gt;Node25 -->
<g id="edge25_Node000024_Node000025" class="edge">
<title>Node24&#45;&gt;Node25</title>
<g id="a_edge25_Node000024_Node000025"><a xlink:title=" ">
<path fill="none" stroke="#63b8ff" d="M3085.71,-128.49C3209.25,-115.86 3479.33,-88.24 3594.38,-76.48"/>
<polygon fill="#63b8ff" stroke="#63b8ff" points="3085.24,-125.02 3075.64,-129.52 3085.95,-131.98 3085.24,-125.02"/>
</a>
</g>
</g>
<!-- Node30 -->
<g id="Node000030" class="node">
<title>Node30</title>
<g id="a_Node000030"><a xlink:href="../../d9/d1a/gapi_2include_2opencv2_2gapi_2gpu_2core_8hpp.html" target="_top" xlink:title=" ">
<polygon fill="white" stroke="#666666" points="3863,-145.5 3715,-145.5 3715,-126.5 3863,-126.5 3863,-145.5"/>
<text text-anchor="middle" x="3789" y="-133.5" font-family="Helvetica,sans-Serif" font-size="10.00">opencv2/gapi/gpu/core.hpp</text>
</a>
</g>
</g>
<!-- Node29&#45;&gt;Node30 -->
<g id="edge36_Node000029_Node000030" class="edge">
<title>Node29&#45;&gt;Node30</title>
<g id="a_edge36_Node000029_Node000030"><a xlink:title=" ">
<path fill="none" stroke="#63b8ff" d="M3798.23,-182.45C3795.79,-170.43 3792.72,-155.32 3790.81,-145.91"/>
<polygon fill="#63b8ff" stroke="#63b8ff" points="3794.83,-183.27 3800.25,-192.37 3801.69,-181.87 3794.83,-183.27"/>
</a>
</g>
</g>
<!-- Node32 -->
<g id="Node000032" class="node">
<title>Node32</title>
<g id="a_Node000032"><a xlink:href="../../de/d7f/ggpukernel_8hpp.html" target="_top" xlink:title=" ">
<polygon fill="white" stroke="#666666" points="4062.5,-145.5 3881.5,-145.5 3881.5,-126.5 4062.5,-126.5 4062.5,-145.5"/>
<text text-anchor="middle" x="3972" y="-133.5" font-family="Helvetica,sans-Serif" font-size="10.00">opencv2/gapi/gpu/ggpukernel.hpp</text>
</a>
</g>
</g>
<!-- Node31&#45;&gt;Node32 -->
<g id="edge38_Node000031_Node000032" class="edge">
<title>Node31&#45;&gt;Node32</title>
<g id="a_edge38_Node000031_Node000032"><a xlink:title=" ">
<path fill="none" stroke="#63b8ff" d="M3976.93,-182.08C3975.62,-170.13 3973.99,-155.22 3972.97,-145.91"/>
<polygon fill="#63b8ff" stroke="#63b8ff" points="3973.49,-182.81 3978.06,-192.37 3980.45,-182.05 3973.49,-182.81"/>
</a>
</g>
</g>
<!-- Node34 -->
<g id="Node000034" class="node">
<title>Node34</title>
<g id="a_Node000034"><a xlink:href="../../d8/d8e/gapi_2include_2opencv2_2gapi_2gpu_2imgproc_8hpp.html" target="_top" xlink:title=" ">
<polygon fill="white" stroke="#666666" points="4247.5,-145.5 4080.5,-145.5 4080.5,-126.5 4247.5,-126.5 4247.5,-145.5"/>
<text text-anchor="middle" x="4164" y="-133.5" font-family="Helvetica,sans-Serif" font-size="10.00">opencv2/gapi/gpu/imgproc.hpp</text>
</a>
</g>
</g>
<!-- Node33&#45;&gt;Node34 -->
<g id="edge40_Node000033_Node000034" class="edge">
<title>Node33&#45;&gt;Node34</title>
<g id="a_edge40_Node000033_Node000034"><a xlink:title=" ">
<path fill="none" stroke="#63b8ff" d="M4164.7,-182.08C4164.52,-170.13 4164.28,-155.22 4164.14,-145.91"/>
<polygon fill="#63b8ff" stroke="#63b8ff" points="4161.21,-182.42 4164.87,-192.37 4168.21,-182.32 4161.21,-182.42"/>
</a>
</g>
</g>
<!-- Node39&#45;&gt;Node3 -->
<g id="edge47_Node000039_Node000003" class="edge">
<title>Node39&#45;&gt;Node3</title>
<g id="a_edge47_Node000039_Node000003"><a xlink:title=" ">
<path fill="none" stroke="#63b8ff" d="M107.71,-182.78C135.05,-170.54 169.82,-154.98 190.97,-145.52"/>
<polygon fill="#63b8ff" stroke="#63b8ff" points="106.08,-179.68 98.38,-186.95 108.94,-186.06 106.08,-179.68"/>
</a>
</g>
</g>
<!-- Node40&#45;&gt;Node3 -->
<g id="edge49_Node000040_Node000003" class="edge">
<title>Node40&#45;&gt;Node3</title>
<g id="a_edge49_Node000040_Node000003"><a xlink:title=" ">
<path fill="none" stroke="#63b8ff" d="M240.56,-178.61C232.27,-167.32 222.69,-154.28 216.5,-145.84"/>
<polygon fill="#63b8ff" stroke="#63b8ff" points="237.83,-180.81 246.57,-186.8 243.47,-176.66 237.83,-180.81"/>
</a>
</g>
</g>
<!-- Node40&#45;&gt;Node7 -->
<g id="edge50_Node000040_Node000007" class="edge">
<title>Node40&#45;&gt;Node7</title>
<g id="a_edge50_Node000040_Node000007"><a xlink:title=" ">
<path fill="none" stroke="#63b8ff" d="M301.19,-183.1C331.52,-170.82 370.4,-155.06 393.97,-145.52"/>
<polygon fill="#63b8ff" stroke="#63b8ff" points="299.63,-179.96 291.67,-186.95 302.26,-186.44 299.63,-179.96"/>
</a>
</g>
</g>
<!-- Node42 -->
<g id="Node000042" class="node">
<title>Node42</title>
<g id="a_Node000042"><a xlink:href="../../d8/dd3/cap_8hpp.html" target="_top" xlink:title=" ">
<polygon fill="white" stroke="#666666" points="4437,-151 4303,-151 4303,-121 4437,-121 4437,-151"/>
<text text-anchor="start" x="4311" y="-139" font-family="Helvetica,sans-Serif" font-size="10.00">opencv2/gapi/streaming</text>
<text text-anchor="middle" x="4370" y="-128" font-family="Helvetica,sans-Serif" font-size="10.00">/cap.hpp</text>
</a>
</g>
</g>
<!-- Node41&#45;&gt;Node42 -->
<g id="edge52_Node000041_Node000042" class="edge">
<title>Node41&#45;&gt;Node42</title>
<g id="a_edge52_Node000041_Node000042"><a xlink:title=" ">
<path fill="none" stroke="#63b8ff" d="M4370,-176.54C4370,-167.96 4370,-158.61 4370,-151.16"/>
<polygon fill="#63b8ff" stroke="#63b8ff" points="4366.5,-176.8 4370,-186.8 4373.5,-176.8 4366.5,-176.8"/>
</a>
</g>
</g>
<!-- Node43 -->
<g id="Node000043" class="node">
<title>Node43</title>
<g id="a_Node000043"><a xlink:href="../../de/d43/onevpl_2source_8hpp.html" target="_top" xlink:title=" ">
<polygon fill="white" stroke="#666666" points="4589,-151 4455,-151 4455,-121 4589,-121 4589,-151"/>
<text text-anchor="start" x="4463" y="-139" font-family="Helvetica,sans-Serif" font-size="10.00">opencv2/gapi/streaming</text>
<text text-anchor="middle" x="4522" y="-128" font-family="Helvetica,sans-Serif" font-size="10.00">/onevpl/source.hpp</text>
</a>
</g>
</g>
<!-- Node41&#45;&gt;Node43 -->
<g id="edge53_Node000041_Node000043" class="edge">
<title>Node41&#45;&gt;Node43</title>
<g id="a_edge53_Node000041_Node000043"><a xlink:title=" ">
<path fill="none" stroke="#63b8ff" d="M4412.62,-183.05C4436.7,-172.91 4466.36,-160.43 4488.72,-151.01"/>
<polygon fill="#63b8ff" stroke="#63b8ff" points="4411.22,-179.85 4403.36,-186.95 4413.93,-186.3 4411.22,-179.85"/>
</a>
</g>
</g>
</g>
</svg>
