<?xml version="1.0" encoding="UTF-8" standalone="no"?>
<!DOCTYPE svg PUBLIC "-//W3C//DTD SVG 1.1//EN"
 "http://www.w3.org/Graphics/SVG/1.1/DTD/svg11.dtd">
<!-- Generated by graphviz version 2.43.0 (0)
 -->
<!-- Title: cv::gapi::fluid::Buffer::Cache Pages: 1 -->
<svg width="588pt" height="763pt"
 viewBox="0.00 0.00 587.50 763.00" xmlns="http://www.w3.org/2000/svg" xmlns:xlink="http://www.w3.org/1999/xlink">
<g id="graph0" class="graph" transform="scale(1 1) rotate(0) translate(4 759)">
<title>cv::gapi::fluid::Buffer::Cache</title>
<!-- Node1 -->
<g id="Node000001" class="node">
<title>Node1</title>
<g id="a_Node000001"><a xlink:title=" ">
<polygon fill="#999999" stroke="transparent" points="222,-60 112,-60 112,0 222,0 222,-60"/>
<text text-anchor="start" x="117" y="-48" font-family="Helvetica,sans-Serif" font-size="10.00">cv::gapi::fluid::Buffer</text>
<text text-anchor="start" x="148.5" y="-37" font-family="Helvetica,sans-Serif" font-size="10.00">::Cache</text>
<text text-anchor="start" x="165" y="-22" font-family="Helvetica,sans-Serif" font-size="10.00"> </text>
<text text-anchor="start" x="165" y="-7" font-family="Helvetica,sans-Serif" font-size="10.00"> </text>
<polygon fill="#666666" stroke="#666666" points="112,-32 112,-32 222,-32 222,-32 112,-32"/>
<polygon fill="#666666" stroke="#666666" points="112,-17 112,-17 222,-17 222,-17 112,-17"/>
<polygon fill="none" stroke="#666666" points="112,0 112,-60 222,-60 222,0 112,0"/>
</a>
</g>
</g>
<!-- Node2 -->
<g id="Node000002" class="node">
<title>Node2</title>
<g id="a_Node000002"><a xlink:title=" ">
<polygon fill="white" stroke="transparent" points="152,-482.5 54,-482.5 54,-422.5 152,-422.5 152,-482.5"/>
<text text-anchor="start" x="59" y="-470.5" font-family="Helvetica,sans-Serif" font-size="10.00">std::vector&lt; uint8</text>
<text text-anchor="start" x="88.5" y="-459.5" font-family="Helvetica,sans-Serif" font-size="10.00">_t * &gt;</text>
<text text-anchor="start" x="101" y="-444.5" font-family="Helvetica,sans-Serif" font-size="10.00"> </text>
<text text-anchor="start" x="101" y="-429.5" font-family="Helvetica,sans-Serif" font-size="10.00"> </text>
<polygon fill="#666666" stroke="#666666" points="54,-454.5 54,-454.5 152,-454.5 152,-454.5 54,-454.5"/>
<polygon fill="#666666" stroke="#666666" points="54,-439.5 54,-439.5 152,-439.5 152,-439.5 54,-439.5"/>
<polygon fill="none" stroke="#666666" points="54,-422.5 54,-482.5 152,-482.5 152,-422.5 54,-422.5"/>
</a>
</g>
</g>
<!-- Node2&#45;&gt;Node1 -->
<g id="edge1_Node000001_Node000002" class="edge">
<title>Node2&#45;&gt;Node1</title>
<g id="a_edge1_Node000001_Node000002"><a xlink:title=" ">
<path fill="none" stroke="#63b8ff" d="M107.45,-422.27C118.62,-348.85 147.89,-156.56 160.77,-71.95"/>
<polygon fill="none" stroke="#63b8ff" points="160.77,-71.9 157.72,-65.37 162.58,-60.04 165.63,-66.57 160.77,-71.9"/>
</a>
</g>
<text text-anchor="middle" x="187" y="-204" font-family="Helvetica,sans-Serif" font-size="10.00" fill="grey"> +m_linePtrs</text>
</g>
<!-- Node3 -->
<g id="Node000003" class="node">
<title>Node3</title>
<g id="a_Node000003"><a xlink:title=" ">
<polygon fill="white" stroke="transparent" points="44,-659 0,-659 0,-610 44,-610 44,-659"/>
<text text-anchor="start" x="5" y="-646.5" font-family="Helvetica,sans-Serif" font-size="10.00">uint8_t</text>
<text text-anchor="start" x="20" y="-631.5" font-family="Helvetica,sans-Serif" font-size="10.00"> </text>
<text text-anchor="start" x="20" y="-616.5" font-family="Helvetica,sans-Serif" font-size="10.00"> </text>
<polygon fill="#666666" stroke="#666666" points="0,-641.5 0,-641.5 44,-641.5 44,-641.5 0,-641.5"/>
<polygon fill="#666666" stroke="#666666" points="0,-626.5 0,-626.5 44,-626.5 44,-626.5 0,-626.5"/>
<polygon fill="none" stroke="#666666" points="0,-610 0,-659 44,-659 44,-610 0,-610"/>
</a>
</g>
</g>
<!-- Node3&#45;&gt;Node2 -->
<g id="edge2_Node000002_Node000003" class="edge">
<title>Node3&#45;&gt;Node2</title>
<g id="a_edge2_Node000002_Node000003"><a xlink:title=" ">
<path fill="none" stroke="#63b8ff" d="M24.49,-609.74C26.27,-597.58 29.21,-582.7 34,-570 44.27,-542.78 60.73,-514.66 75,-492.86"/>
<polygon fill="none" stroke="#63b8ff" points="75.13,-492.67 75.14,-485.46 81.8,-482.7 81.79,-489.91 75.13,-492.67"/>
</a>
</g>
<text text-anchor="middle" x="63" y="-578.5" font-family="Helvetica,sans-Serif" font-size="10.00" fill="grey"> +elements</text>
</g>
<!-- Node4 -->
<g id="Node000004" class="node">
<title>Node4</title>
<g id="a_Node000004"><a xlink:title=" ">
<polygon fill="white" stroke="transparent" points="214.5,-659 123.5,-659 123.5,-610 214.5,-610 214.5,-659"/>
<text text-anchor="start" x="129" y="-646.5" font-family="Helvetica,sans-Serif" font-size="10.00">std::vector&lt; T &gt;</text>
<text text-anchor="start" x="167.5" y="-631.5" font-family="Helvetica,sans-Serif" font-size="10.00"> </text>
<text text-anchor="start" x="167.5" y="-616.5" font-family="Helvetica,sans-Serif" font-size="10.00"> </text>
<polygon fill="#666666" stroke="#666666" points="124,-641.5 124,-641.5 215,-641.5 215,-641.5 124,-641.5"/>
<polygon fill="#666666" stroke="#666666" points="124,-626.5 124,-626.5 215,-626.5 215,-626.5 124,-626.5"/>
<polygon fill="none" stroke="#666666" points="123.5,-610 123.5,-659 214.5,-659 214.5,-610 123.5,-610"/>
</a>
</g>
</g>
<!-- Node4&#45;&gt;Node2 -->
<g id="edge3_Node000002_Node000004" class="edge">
<title>Node4&#45;&gt;Node2</title>
<g id="a_edge3_Node000002_Node000004"><a xlink:title=" ">
<path fill="none" stroke="orange" d="M115.4,-606.28C110.9,-602.08 106.95,-597.33 104,-592 85.27,-558.12 89.71,-512.07 95.57,-482.56"/>
<polygon fill="orange" stroke="orange" points="113.47,-609.22 123.43,-612.84 117.9,-603.8 113.47,-609.22"/>
</a>
</g>
<text text-anchor="middle" x="138" y="-578.5" font-family="Helvetica,sans-Serif" font-size="10.00" fill="grey"> &lt; uint8_t * &gt;</text>
</g>
<!-- Node11 -->
<g id="Node000011" class="node">
<title>Node11</title>
<g id="a_Node000011"><a xlink:title=" ">
<polygon fill="white" stroke="transparent" points="293,-477 195,-477 195,-428 293,-428 293,-477"/>
<text text-anchor="start" x="200" y="-464.5" font-family="Helvetica,sans-Serif" font-size="10.00">std::vector&lt; int &gt;</text>
<text text-anchor="start" x="242" y="-449.5" font-family="Helvetica,sans-Serif" font-size="10.00"> </text>
<text text-anchor="start" x="242" y="-434.5" font-family="Helvetica,sans-Serif" font-size="10.00"> </text>
<polygon fill="#666666" stroke="#666666" points="195,-459.5 195,-459.5 293,-459.5 293,-459.5 195,-459.5"/>
<polygon fill="#666666" stroke="#666666" points="195,-444.5 195,-444.5 293,-444.5 293,-444.5 195,-444.5"/>
<polygon fill="none" stroke="#666666" points="195,-428 195,-477 293,-477 293,-428 195,-428"/>
</a>
</g>
</g>
<!-- Node4&#45;&gt;Node11 -->
<g id="edge12_Node000011_Node000004" class="edge">
<title>Node4&#45;&gt;Node11</title>
<g id="a_edge12_Node000011_Node000004"><a xlink:title=" ">
<path fill="none" stroke="orange" d="M182.77,-600.46C197.67,-564.7 221.05,-508.57 234.19,-477.04"/>
<polygon fill="orange" stroke="orange" points="179.42,-599.39 178.8,-609.97 185.88,-602.08 179.42,-599.39"/>
</a>
</g>
<text text-anchor="middle" x="215.5" y="-578.5" font-family="Helvetica,sans-Serif" font-size="10.00" fill="grey"> &lt; int &gt;</text>
</g>
<!-- Node5 -->
<g id="Node000005" class="node">
<title>Node5</title>
<g id="a_Node000005"><a xlink:title=" ">
<polygon fill="white" stroke="transparent" points="177.5,-755 160.5,-755 160.5,-706 177.5,-706 177.5,-755"/>
<text text-anchor="start" x="166" y="-742.5" font-family="Helvetica,sans-Serif" font-size="10.00">T</text>
<text text-anchor="start" x="167.5" y="-727.5" font-family="Helvetica,sans-Serif" font-size="10.00"> </text>
<text text-anchor="start" x="167.5" y="-712.5" font-family="Helvetica,sans-Serif" font-size="10.00"> </text>
<polygon fill="#666666" stroke="#666666" points="161,-737.5 161,-737.5 178,-737.5 178,-737.5 161,-737.5"/>
<polygon fill="#666666" stroke="#666666" points="161,-722.5 161,-722.5 178,-722.5 178,-722.5 161,-722.5"/>
<polygon fill="none" stroke="#666666" points="160.5,-706 160.5,-755 177.5,-755 177.5,-706 160.5,-706"/>
</a>
</g>
</g>
<!-- Node5&#45;&gt;Node4 -->
<g id="edge4_Node000004_Node000005" class="edge">
<title>Node5&#45;&gt;Node4</title>
<g id="a_edge4_Node000004_Node000005"><a xlink:title=" ">
<path fill="none" stroke="#63b8ff" d="M169,-705.78C169,-695.32 169,-682.79 169,-671.23"/>
<polygon fill="none" stroke="#63b8ff" points="169,-671.21 165,-665.21 169,-659.21 173,-665.21 169,-671.21"/>
</a>
</g>
<text text-anchor="middle" x="198" y="-680" font-family="Helvetica,sans-Serif" font-size="10.00" fill="grey"> +elements</text>
</g>
<!-- Node6 -->
<g id="Node000006" class="node">
<title>Node6</title>
<g id="a_Node000006"><a xlink:href="../../d0/d82/structcv_1_1GMatDesc.html" target="_top" xlink:title=" ">
<polygon fill="white" stroke="transparent" points="377,-306 281,-306 281,-107 377,-107 377,-306"/>
<text text-anchor="start" x="295.5" y="-293.5" font-family="Helvetica,sans-Serif" font-size="10.00">cv::GMatDesc</text>
<text text-anchor="start" x="327" y="-278.5" font-family="Helvetica,sans-Serif" font-size="10.00"> </text>
<text text-anchor="start" x="285" y="-263.5" font-family="Helvetica,sans-Serif" font-size="10.00">+</text>
<text text-anchor="start" x="298" y="-263.5" font-family="Helvetica,sans-Serif" font-size="10.00">GMatDesc()</text>
<text text-anchor="start" x="285" y="-248.5" font-family="Helvetica,sans-Serif" font-size="10.00">+</text>
<text text-anchor="start" x="298" y="-248.5" font-family="Helvetica,sans-Serif" font-size="10.00">GMatDesc()</text>
<text text-anchor="start" x="285" y="-233.5" font-family="Helvetica,sans-Serif" font-size="10.00">+</text>
<text text-anchor="start" x="298" y="-233.5" font-family="Helvetica,sans-Serif" font-size="10.00">GMatDesc()</text>
<text text-anchor="start" x="285" y="-218.5" font-family="Helvetica,sans-Serif" font-size="10.00">+</text>
<text text-anchor="start" x="298" y="-218.5" font-family="Helvetica,sans-Serif" font-size="10.00">GMatDesc()</text>
<text text-anchor="start" x="285" y="-203.5" font-family="Helvetica,sans-Serif" font-size="10.00">+</text>
<text text-anchor="start" x="298" y="-203.5" font-family="Helvetica,sans-Serif" font-size="10.00">asInterleaved()</text>
<text text-anchor="start" x="285" y="-188.5" font-family="Helvetica,sans-Serif" font-size="10.00">+</text>
<text text-anchor="start" x="298" y="-188.5" font-family="Helvetica,sans-Serif" font-size="10.00">asPlanar()</text>
<text text-anchor="start" x="285" y="-173.5" font-family="Helvetica,sans-Serif" font-size="10.00">+</text>
<text text-anchor="start" x="298" y="-173.5" font-family="Helvetica,sans-Serif" font-size="10.00">asPlanar()</text>
<text text-anchor="start" x="285" y="-158.5" font-family="Helvetica,sans-Serif" font-size="10.00">+</text>
<text text-anchor="start" x="298" y="-158.5" font-family="Helvetica,sans-Serif" font-size="10.00">canDescribe()</text>
<text text-anchor="start" x="285" y="-143.5" font-family="Helvetica,sans-Serif" font-size="10.00">+</text>
<text text-anchor="start" x="298" y="-143.5" font-family="Helvetica,sans-Serif" font-size="10.00">canDescribe()</text>
<text text-anchor="start" x="285" y="-128.5" font-family="Helvetica,sans-Serif" font-size="10.00">+</text>
<text text-anchor="start" x="298" y="-128.5" font-family="Helvetica,sans-Serif" font-size="10.00">isND()</text>
<text text-anchor="start" x="298" y="-113.5" font-family="Helvetica,sans-Serif" font-size="10.00">and 7 more...</text>
<polygon fill="#666666" stroke="#666666" points="281,-288.5 281,-288.5 377,-288.5 377,-288.5 281,-288.5"/>
<polygon fill="#666666" stroke="#666666" points="281,-273.5 281,-273.5 377,-273.5 377,-273.5 281,-273.5"/>
<polygon fill="none" stroke="#666666" points="281,-107 281,-306 377,-306 377,-107 281,-107"/>
</a>
</g>
</g>
<!-- Node6&#45;&gt;Node1 -->
<g id="edge5_Node000001_Node000006" class="edge">
<title>Node6&#45;&gt;Node1</title>
<g id="a_edge5_Node000001_Node000006"><a xlink:title=" ">
<path fill="none" stroke="#63b8ff" d="M280.83,-153.62C255.69,-126.54 225.47,-93.98 202.49,-69.22"/>
<polygon fill="none" stroke="#63b8ff" points="202.22,-68.94 195.21,-67.26 194.06,-60.15 201.07,-61.82 202.22,-68.94"/>
</a>
</g>
<text text-anchor="middle" x="243.5" y="-81" font-family="Helvetica,sans-Serif" font-size="10.00" fill="grey"> +m_desc</text>
</g>
<!-- Node7 -->
<g id="Node000007" class="node">
<title>Node7</title>
<g id="a_Node000007"><a xlink:title=" ">
<polygon fill="white" stroke="transparent" points="291.5,-659 268.5,-659 268.5,-610 291.5,-610 291.5,-659"/>
<text text-anchor="start" x="274" y="-646.5" font-family="Helvetica,sans-Serif" font-size="10.00">int</text>
<text text-anchor="start" x="278.5" y="-631.5" font-family="Helvetica,sans-Serif" font-size="10.00"> </text>
<text text-anchor="start" x="278.5" y="-616.5" font-family="Helvetica,sans-Serif" font-size="10.00"> </text>
<polygon fill="#666666" stroke="#666666" points="269,-641.5 269,-641.5 292,-641.5 292,-641.5 269,-641.5"/>
<polygon fill="#666666" stroke="#666666" points="269,-626.5 269,-626.5 292,-626.5 292,-626.5 269,-626.5"/>
<polygon fill="none" stroke="#666666" points="268.5,-610 268.5,-659 291.5,-659 291.5,-610 268.5,-610"/>
</a>
</g>
</g>
<!-- Node7&#45;&gt;Node6 -->
<g id="edge6_Node000006_Node000007" class="edge">
<title>Node7&#45;&gt;Node6</title>
<g id="a_edge6_Node000006_Node000007"><a xlink:title=" ">
<path fill="none" stroke="#63b8ff" d="M291.77,-623.57C299.94,-615.89 310.18,-604.49 315,-592 333.58,-543.9 334.84,-413.96 332.91,-318.39"/>
<polygon fill="none" stroke="#63b8ff" points="332.91,-318.32 328.78,-312.41 332.65,-306.33 336.78,-312.24 332.91,-318.32"/>
</a>
</g>
<text text-anchor="middle" x="351.5" y="-455.5" font-family="Helvetica,sans-Serif" font-size="10.00" fill="grey"> +chan</text>
<text text-anchor="middle" x="351.5" y="-444.5" font-family="Helvetica,sans-Serif" font-size="10.00" fill="grey">+depth</text>
</g>
<!-- Node7&#45;&gt;Node11 -->
<g id="edge11_Node000011_Node000007" class="edge">
<title>Node7&#45;&gt;Node11</title>
<g id="a_edge11_Node000011_Node000007"><a xlink:title=" ">
<path fill="none" stroke="#63b8ff" d="M268.46,-616.45C264.13,-609.21 259.63,-600.5 257,-592 246.55,-558.18 243.8,-517.7 243.36,-489.26"/>
<polygon fill="none" stroke="#63b8ff" points="243.36,-489.1 239.34,-483.12 243.31,-477.1 247.34,-483.09 243.36,-489.1"/>
</a>
</g>
<text text-anchor="middle" x="286" y="-578.5" font-family="Helvetica,sans-Serif" font-size="10.00" fill="grey"> +elements</text>
</g>
<!-- Node8 -->
<g id="Node000008" class="node">
<title>Node8</title>
<g id="a_Node000008"><a xlink:href="../../d6/d50/classcv_1_1Size__.html" target="_top" xlink:title="Template class for specifying the size of an image or rectangle.">
<polygon fill="white" stroke="transparent" points="579.5,-552 434.5,-552 434.5,-353 579.5,-353 579.5,-552"/>
<text text-anchor="start" x="466.5" y="-539.5" font-family="Helvetica,sans-Serif" font-size="10.00">cv::Size_&lt; _Tp &gt;</text>
<text text-anchor="start" x="505.5" y="-524.5" font-family="Helvetica,sans-Serif" font-size="10.00"> </text>
<text text-anchor="start" x="439" y="-509.5" font-family="Helvetica,sans-Serif" font-size="10.00">+</text>
<text text-anchor="start" x="452" y="-509.5" font-family="Helvetica,sans-Serif" font-size="10.00">Size_()</text>
<text text-anchor="start" x="439" y="-494.5" font-family="Helvetica,sans-Serif" font-size="10.00">+</text>
<text text-anchor="start" x="452" y="-494.5" font-family="Helvetica,sans-Serif" font-size="10.00">Size_()</text>
<text text-anchor="start" x="439" y="-479.5" font-family="Helvetica,sans-Serif" font-size="10.00">+</text>
<text text-anchor="start" x="452" y="-479.5" font-family="Helvetica,sans-Serif" font-size="10.00">Size_()</text>
<text text-anchor="start" x="439" y="-464.5" font-family="Helvetica,sans-Serif" font-size="10.00">+</text>
<text text-anchor="start" x="452" y="-464.5" font-family="Helvetica,sans-Serif" font-size="10.00">Size_()</text>
<text text-anchor="start" x="439" y="-449.5" font-family="Helvetica,sans-Serif" font-size="10.00">+</text>
<text text-anchor="start" x="452" y="-449.5" font-family="Helvetica,sans-Serif" font-size="10.00">Size_()</text>
<text text-anchor="start" x="439" y="-434.5" font-family="Helvetica,sans-Serif" font-size="10.00">+</text>
<text text-anchor="start" x="452" y="-434.5" font-family="Helvetica,sans-Serif" font-size="10.00">area()</text>
<text text-anchor="start" x="439" y="-419.5" font-family="Helvetica,sans-Serif" font-size="10.00">+</text>
<text text-anchor="start" x="452" y="-419.5" font-family="Helvetica,sans-Serif" font-size="10.00">aspectRatio()</text>
<text text-anchor="start" x="439" y="-404.5" font-family="Helvetica,sans-Serif" font-size="10.00">+</text>
<text text-anchor="start" x="452" y="-404.5" font-family="Helvetica,sans-Serif" font-size="10.00">empty()</text>
<text text-anchor="start" x="439" y="-389.5" font-family="Helvetica,sans-Serif" font-size="10.00">+</text>
<text text-anchor="start" x="452" y="-389.5" font-family="Helvetica,sans-Serif" font-size="10.00">operator Size_&lt; _Tp2 &gt;()</text>
<text text-anchor="start" x="439" y="-374.5" font-family="Helvetica,sans-Serif" font-size="10.00">+</text>
<text text-anchor="start" x="452" y="-374.5" font-family="Helvetica,sans-Serif" font-size="10.00">operator=()</text>
<text text-anchor="start" x="439" y="-359.5" font-family="Helvetica,sans-Serif" font-size="10.00">+</text>
<text text-anchor="start" x="452" y="-359.5" font-family="Helvetica,sans-Serif" font-size="10.00">operator=()</text>
<polygon fill="#666666" stroke="#666666" points="435,-534.5 435,-534.5 580,-534.5 580,-534.5 435,-534.5"/>
<polygon fill="#666666" stroke="#666666" points="435,-519.5 435,-519.5 580,-519.5 580,-519.5 435,-519.5"/>
<polygon fill="none" stroke="#666666" points="434.5,-353 434.5,-552 579.5,-552 579.5,-353 434.5,-353"/>
</a>
</g>
</g>
<!-- Node8&#45;&gt;Node6 -->
<g id="edge7_Node000006_Node000008" class="edge">
<title>Node8&#45;&gt;Node6</title>
<g id="a_edge7_Node000006_Node000008"><a xlink:title=" ">
<path fill="none" stroke="#63b8ff" d="M435.11,-352.96C418.21,-329.79 400.45,-305.45 384.4,-283.45"/>
<polygon fill="none" stroke="#63b8ff" points="384.23,-283.21 377.46,-280.72 377.16,-273.52 383.93,-276.01 384.23,-283.21"/>
</a>
</g>
<text text-anchor="middle" x="433.5" y="-327" font-family="Helvetica,sans-Serif" font-size="10.00" fill="grey"> +size</text>
</g>
<!-- Node9 -->
<g id="Node000009" class="node">
<title>Node9</title>
<g id="a_Node000009"><a xlink:href="../../d1/dd7/class__Tp.html" target="_top" xlink:title=" ">
<polygon fill="white" stroke="transparent" points="521,-659 493,-659 493,-610 521,-610 521,-659"/>
<text text-anchor="start" x="498" y="-646.5" font-family="Helvetica,sans-Serif" font-size="10.00">_Tp</text>
<text text-anchor="start" x="505" y="-631.5" font-family="Helvetica,sans-Serif" font-size="10.00"> </text>
<text text-anchor="start" x="505" y="-616.5" font-family="Helvetica,sans-Serif" font-size="10.00"> </text>
<polygon fill="#666666" stroke="#666666" points="493,-641.5 493,-641.5 521,-641.5 521,-641.5 493,-641.5"/>
<polygon fill="#666666" stroke="#666666" points="493,-626.5 493,-626.5 521,-626.5 521,-626.5 493,-626.5"/>
<polygon fill="none" stroke="#666666" points="493,-610 493,-659 521,-659 521,-610 493,-610"/>
</a>
</g>
</g>
<!-- Node9&#45;&gt;Node8 -->
<g id="edge8_Node000008_Node000009" class="edge">
<title>Node9&#45;&gt;Node8</title>
<g id="a_edge8_Node000008_Node000009"><a xlink:title=" ">
<path fill="none" stroke="#63b8ff" d="M507,-609.97C507,-597.58 507,-581.4 507,-564.14"/>
<polygon fill="none" stroke="#63b8ff" points="507,-564.06 503,-558.06 507,-552.06 511,-558.06 507,-564.06"/>
</a>
</g>
<text text-anchor="middle" x="528.5" y="-584" font-family="Helvetica,sans-Serif" font-size="10.00" fill="grey"> +height</text>
<text text-anchor="middle" x="528.5" y="-573" font-family="Helvetica,sans-Serif" font-size="10.00" fill="grey">+width</text>
</g>
<!-- Node10 -->
<g id="Node000010" class="node">
<title>Node10</title>
<g id="a_Node000010"><a xlink:title=" ">
<polygon fill="white" stroke="transparent" points="416,-477 384,-477 384,-428 416,-428 416,-477"/>
<text text-anchor="start" x="389" y="-464.5" font-family="Helvetica,sans-Serif" font-size="10.00">bool</text>
<text text-anchor="start" x="398" y="-449.5" font-family="Helvetica,sans-Serif" font-size="10.00"> </text>
<text text-anchor="start" x="398" y="-434.5" font-family="Helvetica,sans-Serif" font-size="10.00"> </text>
<polygon fill="#666666" stroke="#666666" points="384,-459.5 384,-459.5 416,-459.5 416,-459.5 384,-459.5"/>
<polygon fill="#666666" stroke="#666666" points="384,-444.5 384,-444.5 416,-444.5 416,-444.5 384,-444.5"/>
<polygon fill="none" stroke="#666666" points="384,-428 384,-477 416,-477 416,-428 384,-428"/>
</a>
</g>
</g>
<!-- Node10&#45;&gt;Node6 -->
<g id="edge9_Node000006_Node000010" class="edge">
<title>Node10&#45;&gt;Node6</title>
<g id="a_edge9_Node000006_Node000010"><a xlink:title=" ">
<path fill="none" stroke="#63b8ff" d="M393.06,-427.66C385.55,-401.85 373.03,-358.82 361.04,-317.62"/>
<polygon fill="none" stroke="#63b8ff" points="361.03,-317.59 355.52,-312.94 357.68,-306.07 363.2,-310.71 361.03,-317.59"/>
</a>
</g>
<text text-anchor="middle" x="385.5" y="-327" font-family="Helvetica,sans-Serif" font-size="10.00" fill="grey"> +planar</text>
</g>
<!-- Node11&#45;&gt;Node6 -->
<g id="edge10_Node000006_Node000011" class="edge">
<title>Node11&#45;&gt;Node6</title>
<g id="a_edge10_Node000006_Node000011"><a xlink:title=" ">
<path fill="none" stroke="#63b8ff" d="M249.49,-427.7C255.7,-401.86 266.56,-359.53 279,-324 279.73,-321.91 280.48,-319.8 281.25,-317.69"/>
<polygon fill="none" stroke="#63b8ff" points="281.31,-317.52 279.66,-310.5 285.51,-306.28 287.16,-313.3 281.31,-317.52"/>
</a>
</g>
<text text-anchor="middle" x="297" y="-327" font-family="Helvetica,sans-Serif" font-size="10.00" fill="grey"> +dims</text>
</g>
</g>
</svg>
