<?xml version="1.0" encoding="UTF-8" standalone="no"?>
<!DOCTYPE svg PUBLIC "-//W3C//DTD SVG 1.1//EN"
 "http://www.w3.org/Graphics/SVG/1.1/DTD/svg11.dtd">
<!-- Generated by graphviz version 2.43.0 (0)
 -->
<!-- Title: opencv2/cvv/call_meta_data.hpp Pages: 1 -->
<svg width="488pt" height="203pt"
 viewBox="0.00 0.00 487.97 203.00" xmlns="http://www.w3.org/2000/svg" xmlns:xlink="http://www.w3.org/1999/xlink">
<g id="graph0" class="graph" transform="scale(1 1) rotate(0) translate(4 199)">
<title>opencv2/cvv/call_meta_data.hpp</title>
<!-- Node1 -->
<g id="Node000001" class="node">
<title>Node1</title>
<g id="a_Node000001"><a xlink:title=" ">
<polygon fill="#999999" stroke="#666666" points="225.47,-195 96.47,-195 96.47,-165 225.47,-165 225.47,-195"/>
<text text-anchor="start" x="104.47" y="-183" font-family="Helvetica,sans-Serif" font-size="10.00">opencv2/cvv/call_meta</text>
<text text-anchor="middle" x="160.97" y="-172" font-family="Helvetica,sans-Serif" font-size="10.00">_data.hpp</text>
</a>
</g>
</g>
<!-- Node2 -->
<g id="Node000002" class="node">
<title>Node2</title>
<g id="a_Node000002"><a xlink:href="../../d4/d7f/cvv_8hpp.html" target="_top" xlink:title=" ">
<polygon fill="white" stroke="#666666" points="209.97,-74 111.97,-74 111.97,-55 209.97,-55 209.97,-74"/>
<text text-anchor="middle" x="160.97" y="-62" font-family="Helvetica,sans-Serif" font-size="10.00">opencv2/cvv.hpp</text>
</a>
</g>
</g>
<!-- Node1&#45;&gt;Node2 -->
<g id="edge1_Node000001_Node000002" class="edge">
<title>Node1&#45;&gt;Node2</title>
<g id="a_edge1_Node000001_Node000002"><a xlink:title=" ">
<path fill="none" stroke="#63b8ff" d="M86.13,-170.71C35.15,-161.88 -18.78,-144.25 6.97,-110 19.68,-93.1 71.59,-80.58 111.67,-73.2"/>
<polygon fill="#63b8ff" stroke="#63b8ff" points="85.83,-174.21 96.26,-172.36 86.95,-167.3 85.83,-174.21"/>
</a>
</g>
</g>
<!-- Node4 -->
<g id="Node000004" class="node">
<title>Node4</title>
<g id="a_Node000004"><a xlink:href="../../d7/de1/dmatch_8hpp.html" target="_top" xlink:title=" ">
<polygon fill="white" stroke="#666666" points="155.47,-129 16.47,-129 16.47,-110 155.47,-110 155.47,-129"/>
<text text-anchor="middle" x="85.97" y="-117" font-family="Helvetica,sans-Serif" font-size="10.00">opencv2/cvv/dmatch.hpp</text>
</a>
</g>
</g>
<!-- Node1&#45;&gt;Node4 -->
<g id="edge3_Node000001_Node000004" class="edge">
<title>Node1&#45;&gt;Node4</title>
<g id="a_edge3_Node000001_Node000004"><a xlink:title=" ">
<path fill="none" stroke="#63b8ff" d="M134.73,-158.53C121.89,-148.51 107.1,-136.98 97.21,-129.27"/>
<polygon fill="#63b8ff" stroke="#63b8ff" points="132.78,-161.45 142.82,-164.84 137.09,-155.93 132.78,-161.45"/>
</a>
</g>
</g>
<!-- Node5 -->
<g id="Node000005" class="node">
<title>Node5</title>
<g id="a_Node000005"><a xlink:href="../../d1/dd2/filter_8hpp.html" target="_top" xlink:title=" ">
<polygon fill="white" stroke="#666666" points="297.97,-129 173.97,-129 173.97,-110 297.97,-110 297.97,-129"/>
<text text-anchor="middle" x="235.97" y="-117" font-family="Helvetica,sans-Serif" font-size="10.00">opencv2/cvv/filter.hpp</text>
</a>
</g>
</g>
<!-- Node1&#45;&gt;Node5 -->
<g id="edge5_Node000001_Node000005" class="edge">
<title>Node1&#45;&gt;Node5</title>
<g id="a_edge5_Node000001_Node000005"><a xlink:title=" ">
<path fill="none" stroke="#63b8ff" d="M187.22,-158.53C200.06,-148.51 214.84,-136.98 224.73,-129.27"/>
<polygon fill="#63b8ff" stroke="#63b8ff" points="184.86,-155.93 179.13,-164.84 189.17,-161.45 184.86,-155.93"/>
</a>
</g>
</g>
<!-- Node6 -->
<g id="Node000006" class="node">
<title>Node6</title>
<g id="a_Node000006"><a xlink:href="../../df/d91/show__image_8hpp.html" target="_top" xlink:title=" ">
<polygon fill="white" stroke="#666666" points="479.97,-129 315.97,-129 315.97,-110 479.97,-110 479.97,-129"/>
<text text-anchor="middle" x="397.97" y="-117" font-family="Helvetica,sans-Serif" font-size="10.00">opencv2/cvv/show_image.hpp</text>
</a>
</g>
</g>
<!-- Node1&#45;&gt;Node6 -->
<g id="edge7_Node000001_Node000006" class="edge">
<title>Node1&#45;&gt;Node6</title>
<g id="a_edge7_Node000001_Node000006"><a xlink:title=" ">
<path fill="none" stroke="#63b8ff" d="M227.54,-162.57C271.68,-151.67 327.8,-137.82 363.32,-129.05"/>
<polygon fill="#63b8ff" stroke="#63b8ff" points="226.61,-159.19 217.74,-164.99 228.29,-165.99 226.61,-159.19"/>
</a>
</g>
</g>
<!-- Node3 -->
<g id="Node000003" class="node">
<title>Node3</title>
<g id="a_Node000003"><a xlink:href="../../d2/dcf/cvv_2cvv_8hpp.html" target="_top" xlink:title=" ">
<polygon fill="white" stroke="#666666" points="220.47,-19 101.47,-19 101.47,0 220.47,0 220.47,-19"/>
<text text-anchor="middle" x="160.97" y="-7" font-family="Helvetica,sans-Serif" font-size="10.00">opencv2/cvv/cvv.hpp</text>
</a>
</g>
</g>
<!-- Node2&#45;&gt;Node3 -->
<g id="edge2_Node000002_Node000003" class="edge">
<title>Node2&#45;&gt;Node3</title>
<g id="a_edge2_Node000002_Node000003"><a xlink:title=" ">
<path fill="none" stroke="#63b8ff" d="M160.97,-44.66C160.97,-35.93 160.97,-25.99 160.97,-19.09"/>
<polygon fill="#63b8ff" stroke="#63b8ff" points="157.47,-44.75 160.97,-54.75 164.47,-44.75 157.47,-44.75"/>
</a>
</g>
</g>
<!-- Node4&#45;&gt;Node2 -->
<g id="edge4_Node000004_Node000002" class="edge">
<title>Node4&#45;&gt;Node2</title>
<g id="a_edge4_Node000004_Node000002"><a xlink:title=" ">
<path fill="none" stroke="#63b8ff" d="M106.28,-104.15C119.83,-94.57 137.22,-82.29 148.7,-74.17"/>
<polygon fill="#63b8ff" stroke="#63b8ff" points="104.17,-101.36 98.02,-109.98 108.21,-107.07 104.17,-101.36"/>
</a>
</g>
</g>
<!-- Node5&#45;&gt;Node2 -->
<g id="edge6_Node000005_Node000002" class="edge">
<title>Node5&#45;&gt;Node2</title>
<g id="a_edge6_Node000005_Node000002"><a xlink:title=" ">
<path fill="none" stroke="#63b8ff" d="M215.67,-104.15C202.11,-94.57 184.73,-82.29 173.24,-74.17"/>
<polygon fill="#63b8ff" stroke="#63b8ff" points="213.74,-107.07 223.92,-109.98 217.78,-101.36 213.74,-107.07"/>
</a>
</g>
</g>
<!-- Node6&#45;&gt;Node2 -->
<g id="edge8_Node000006_Node000002" class="edge">
<title>Node6&#45;&gt;Node2</title>
<g id="a_edge8_Node000006_Node000002"><a xlink:title=" ">
<path fill="none" stroke="#63b8ff" d="M349.92,-107.75C305.51,-97.82 240.38,-83.26 199.35,-74.08"/>
<polygon fill="#63b8ff" stroke="#63b8ff" points="349.37,-111.22 359.89,-109.98 350.9,-104.39 349.37,-111.22"/>
</a>
</g>
</g>
</g>
</svg>
