<?xml version="1.0" encoding="UTF-8" standalone="no"?>
<!DOCTYPE svg PUBLIC "-//W3C//DTD SVG 1.1//EN"
 "http://www.w3.org/Graphics/SVG/1.1/DTD/svg11.dtd">
<!-- Generated by graphviz version 2.43.0 (0)
 -->
<!-- Title: cv::cudev::saturate_cast_fp16_func&lt; float, short &gt; Pages: 1 -->
<svg width="154pt" height="283pt"
 viewBox="0.00 0.00 154.00 283.00" xmlns="http://www.w3.org/2000/svg" xmlns:xlink="http://www.w3.org/1999/xlink">
<g id="graph0" class="graph" transform="scale(1 1) rotate(0) translate(4 279)">
<title>cv::cudev::saturate_cast_fp16_func&lt; float, short &gt;</title>
<!-- Node1 -->
<g id="Node000001" class="node">
<title>Node1</title>
<g id="a_Node000001"><a xlink:title=" ">
<polygon fill="#999999" stroke="transparent" points="129.5,-71 4.5,-71 4.5,0 129.5,0 129.5,-71"/>
<text text-anchor="start" x="10" y="-58.5" font-family="Helvetica,sans-Serif" font-size="10.00">cv::cudev::saturate</text>
<text text-anchor="start" x="10" y="-47.5" font-family="Helvetica,sans-Serif" font-size="10.00">_cast_fp16_func&lt; float,</text>
<text text-anchor="start" x="47.5" y="-36.5" font-family="Helvetica,sans-Serif" font-size="10.00"> short &gt;</text>
<text text-anchor="start" x="65.5" y="-21.5" font-family="Helvetica,sans-Serif" font-size="10.00"> </text>
<text text-anchor="start" x="20.5" y="-6.5" font-family="Helvetica,sans-Serif" font-size="10.00">+</text>
<text text-anchor="start" x="45" y="-6.5" font-family="Helvetica,sans-Serif" font-size="10.00">operator()()</text>
<polygon fill="#666666" stroke="#666666" points="5,-31.5 5,-31.5 130,-31.5 130,-31.5 5,-31.5"/>
<polygon fill="#666666" stroke="#666666" points="5,-16.5 5,-16.5 130,-16.5 130,-16.5 5,-16.5"/>
<polygon fill="none" stroke="#666666" points="4.5,0 4.5,-71 129.5,-71 129.5,0 4.5,0"/>
</a>
</g>
</g>
<!-- Node2 -->
<g id="Node000002" class="node">
<title>Node2</title>
<g id="a_Node000002"><a xlink:href="../../df/d11/structcv_1_1cudev_1_1unary__function.html" target="_top" xlink:title=" ">
<polygon fill="white" stroke="transparent" points="134,-168 0,-168 0,-108 134,-108 134,-168"/>
<text text-anchor="start" x="5" y="-156" font-family="Helvetica,sans-Serif" font-size="10.00">cv::cudev::unary_function</text>
<text text-anchor="start" x="29" y="-145" font-family="Helvetica,sans-Serif" font-size="10.00">&lt; float, short &gt;</text>
<text text-anchor="start" x="65" y="-130" font-family="Helvetica,sans-Serif" font-size="10.00"> </text>
<text text-anchor="start" x="65" y="-115" font-family="Helvetica,sans-Serif" font-size="10.00"> </text>
<polygon fill="#666666" stroke="#666666" points="0,-140 0,-140 134,-140 134,-140 0,-140"/>
<polygon fill="#666666" stroke="#666666" points="0,-125 0,-125 134,-125 134,-125 0,-125"/>
<polygon fill="none" stroke="#666666" points="0,-108 0,-168 134,-168 134,-108 0,-108"/>
</a>
</g>
</g>
<!-- Node2&#45;&gt;Node1 -->
<g id="edge1_Node000001_Node000002" class="edge">
<title>Node2&#45;&gt;Node1</title>
<g id="a_edge1_Node000001_Node000002"><a xlink:title=" ">
<path fill="none" stroke="#63b8ff" d="M67,-97.89C67,-89.08 67,-79.8 67,-71.19"/>
<polygon fill="none" stroke="#63b8ff" points="63.5,-97.93 67,-107.93 70.5,-97.93 63.5,-97.93"/>
</a>
</g>
</g>
<!-- Node3 -->
<g id="Node000003" class="node">
<title>Node3</title>
<g id="a_Node000003"><a xlink:href="../../df/d11/structcv_1_1cudev_1_1unary__function.html" target="_top" xlink:title=" ">
<polygon fill="white" stroke="transparent" points="134,-275 0,-275 0,-215 134,-215 134,-275"/>
<text text-anchor="start" x="5" y="-263" font-family="Helvetica,sans-Serif" font-size="10.00">cv::cudev::unary_function</text>
<text text-anchor="start" x="23.5" y="-252" font-family="Helvetica,sans-Serif" font-size="10.00">&lt; _Arg, _Result &gt;</text>
<text text-anchor="start" x="65" y="-237" font-family="Helvetica,sans-Serif" font-size="10.00"> </text>
<text text-anchor="start" x="65" y="-222" font-family="Helvetica,sans-Serif" font-size="10.00"> </text>
<polygon fill="#666666" stroke="#666666" points="0,-247 0,-247 134,-247 134,-247 0,-247"/>
<polygon fill="#666666" stroke="#666666" points="0,-232 0,-232 134,-232 134,-232 0,-232"/>
<polygon fill="none" stroke="#666666" points="0,-215 0,-275 134,-275 134,-215 0,-215"/>
</a>
</g>
</g>
<!-- Node3&#45;&gt;Node2 -->
<g id="edge2_Node000002_Node000003" class="edge">
<title>Node3&#45;&gt;Node2</title>
<g id="a_edge2_Node000002_Node000003"><a xlink:title=" ">
<path fill="none" stroke="orange" d="M67,-204.46C67,-192.39 67,-179.34 67,-168.09"/>
<polygon fill="orange" stroke="orange" points="63.5,-204.75 67,-214.75 70.5,-204.75 63.5,-204.75"/>
</a>
</g>
<text text-anchor="middle" x="106.5" y="-189" font-family="Helvetica,sans-Serif" font-size="10.00" fill="grey"> &lt; float, short &gt;</text>
</g>
</g>
</svg>
