<?xml version="1.0" encoding="UTF-8" standalone="no"?>
<!DOCTYPE svg PUBLIC "-//W3C//DTD SVG 1.1//EN"
 "http://www.w3.org/Graphics/SVG/1.1/DTD/svg11.dtd">
<!-- Generated by graphviz version 2.43.0 (0)
 -->
<!-- Title: cv::detail::BasicVectorRef Pages: 1 -->
<svg width="167pt" height="198pt"
 viewBox="0.00 0.00 166.50 198.00" xmlns="http://www.w3.org/2000/svg" xmlns:xlink="http://www.w3.org/1999/xlink">
<g id="graph0" class="graph" transform="scale(1 1) rotate(0) translate(4 194)">
<title>cv::detail::BasicVectorRef</title>
<!-- Node1 -->
<g id="Node000001" class="node">
<title>Node1</title>
<g id="a_Node000001"><a xlink:title=" ">
<polygon fill="#999999" stroke="transparent" points="134,-94 0,-94 0,0 134,0 134,-94"/>
<text text-anchor="start" x="5" y="-82" font-family="Helvetica,sans-Serif" font-size="10.00">cv::detail::BasicVectorRef</text>
<text text-anchor="start" x="65" y="-67" font-family="Helvetica,sans-Serif" font-size="10.00"> </text>
<text text-anchor="start" x="9.5" y="-52" font-family="Helvetica,sans-Serif" font-size="10.00">+</text>
<text text-anchor="start" x="28" y="-52" font-family="Helvetica,sans-Serif" font-size="10.00">~BasicVectorRef()</text>
<text text-anchor="start" x="9.5" y="-37" font-family="Helvetica,sans-Serif" font-size="10.00">+</text>
<text text-anchor="start" x="28" y="-37" font-family="Helvetica,sans-Serif" font-size="10.00">mov()</text>
<text text-anchor="start" x="9.5" y="-22" font-family="Helvetica,sans-Serif" font-size="10.00">+</text>
<text text-anchor="start" x="28" y="-22" font-family="Helvetica,sans-Serif" font-size="10.00">ptr()</text>
<text text-anchor="start" x="9.5" y="-7" font-family="Helvetica,sans-Serif" font-size="10.00">+</text>
<text text-anchor="start" x="28" y="-7" font-family="Helvetica,sans-Serif" font-size="10.00">size()</text>
<polygon fill="#666666" stroke="#666666" points="0,-77 0,-77 134,-77 134,-77 0,-77"/>
<polygon fill="#666666" stroke="#666666" points="0,-62 0,-62 134,-62 134,-62 0,-62"/>
<polygon fill="none" stroke="#666666" points="0,0 0,-94 134,-94 134,0 0,0"/>
</a>
</g>
</g>
<!-- Node2 -->
<g id="Node000002" class="node">
<title>Node2</title>
<g id="a_Node000002"><a xlink:title=" ">
<polygon fill="white" stroke="transparent" points="39.5,-190 0.5,-190 0.5,-141 39.5,-141 39.5,-190"/>
<text text-anchor="start" x="6" y="-177.5" font-family="Helvetica,sans-Serif" font-size="10.00">size_t</text>
<text text-anchor="start" x="18.5" y="-162.5" font-family="Helvetica,sans-Serif" font-size="10.00"> </text>
<text text-anchor="start" x="18.5" y="-147.5" font-family="Helvetica,sans-Serif" font-size="10.00"> </text>
<polygon fill="#666666" stroke="#666666" points="1,-172.5 1,-172.5 40,-172.5 40,-172.5 1,-172.5"/>
<polygon fill="#666666" stroke="#666666" points="1,-157.5 1,-157.5 40,-157.5 40,-157.5 1,-157.5"/>
<polygon fill="none" stroke="#666666" points="0.5,-141 0.5,-190 39.5,-190 39.5,-141 0.5,-141"/>
</a>
</g>
</g>
<!-- Node2&#45;&gt;Node1 -->
<g id="edge1_Node000001_Node000002" class="edge">
<title>Node2&#45;&gt;Node1</title>
<g id="a_edge1_Node000001_Node000002"><a xlink:title=" ">
<path fill="none" stroke="#63b8ff" d="M17.49,-140.99C17.25,-131.75 17.95,-121.17 21,-112 21.79,-109.62 22.71,-107.25 23.73,-104.9"/>
<polygon fill="none" stroke="#63b8ff" points="23.75,-104.84 22.87,-97.68 29.14,-94.12 30.02,-101.28 23.75,-104.84"/>
</a>
</g>
<text text-anchor="middle" x="57" y="-115" font-family="Helvetica,sans-Serif" font-size="10.00" fill="grey"> +m_elemSize</text>
</g>
<!-- Node3 -->
<g id="Node000003" class="node">
<title>Node3</title>
<g id="a_Node000003"><a xlink:href="../../d7/dd5/structcv_1_1GArrayDesc.html" target="_top" xlink:title=" ">
<polygon fill="white" stroke="transparent" points="158.5,-190 71.5,-190 71.5,-141 158.5,-141 158.5,-190"/>
<text text-anchor="start" x="78" y="-177.5" font-family="Helvetica,sans-Serif" font-size="10.00">cv::GArrayDesc</text>
<text text-anchor="start" x="113.5" y="-162.5" font-family="Helvetica,sans-Serif" font-size="10.00"> </text>
<text text-anchor="start" x="76" y="-147.5" font-family="Helvetica,sans-Serif" font-size="10.00">+</text>
<text text-anchor="start" x="89" y="-147.5" font-family="Helvetica,sans-Serif" font-size="10.00">operator==()</text>
<polygon fill="#666666" stroke="#666666" points="72,-172.5 72,-172.5 159,-172.5 159,-172.5 72,-172.5"/>
<polygon fill="#666666" stroke="#666666" points="72,-157.5 72,-157.5 159,-157.5 159,-157.5 72,-157.5"/>
<polygon fill="none" stroke="#666666" points="71.5,-141 71.5,-190 158.5,-190 158.5,-141 71.5,-141"/>
</a>
</g>
</g>
<!-- Node3&#45;&gt;Node1 -->
<g id="edge2_Node000001_Node000003" class="edge">
<title>Node3&#45;&gt;Node1</title>
<g id="a_edge2_Node000001_Node000003"><a xlink:title=" ">
<path fill="none" stroke="#63b8ff" d="M105.29,-140.92C101.05,-130.64 95.88,-118.09 90.73,-105.58"/>
<polygon fill="none" stroke="#63b8ff" points="90.6,-105.27 84.61,-101.25 86.02,-94.17 92.01,-98.2 90.6,-105.27"/>
</a>
</g>
<text text-anchor="middle" x="120.5" y="-115" font-family="Helvetica,sans-Serif" font-size="10.00" fill="grey"> +m_desc</text>
</g>
</g>
</svg>
