<?xml version="1.0" encoding="UTF-8" standalone="no"?>
<!DOCTYPE svg PUBLIC "-//W3C//DTD SVG 1.1//EN"
 "http://www.w3.org/Graphics/SVG/1.1/DTD/svg11.dtd">
<!-- Generated by graphviz version 2.43.0 (0)
 -->
<!-- Title: cv::CalibrateRobertson Pages: 1 -->
<svg width="129pt" height="482pt"
 viewBox="0.00 0.00 129.00 482.00" xmlns="http://www.w3.org/2000/svg" xmlns:xlink="http://www.w3.org/1999/xlink">
<g id="graph0" class="graph" transform="scale(1 1) rotate(0) translate(4 478)">
<title>cv::CalibrateRobertson</title>
<!-- Node1 -->
<g id="Node000001" class="node">
<title>Node1</title>
<g id="a_Node000001"><a xlink:title="Inverse camera response function is extracted for each brightness value by minimizing an objective fu...">
<polygon fill="#999999" stroke="transparent" points="121,-109 0,-109 0,0 121,0 121,-109"/>
<text text-anchor="start" x="5.5" y="-96.5" font-family="Helvetica,sans-Serif" font-size="10.00">cv::CalibrateRobertson</text>
<text text-anchor="start" x="59" y="-81.5" font-family="Helvetica,sans-Serif" font-size="10.00"> </text>
<text text-anchor="start" x="11.5" y="-66.5" font-family="Helvetica,sans-Serif" font-size="10.00">+</text>
<text text-anchor="start" x="31.5" y="-66.5" font-family="Helvetica,sans-Serif" font-size="10.00">getMaxIter()</text>
<text text-anchor="start" x="11.5" y="-51.5" font-family="Helvetica,sans-Serif" font-size="10.00">+</text>
<text text-anchor="start" x="31.5" y="-51.5" font-family="Helvetica,sans-Serif" font-size="10.00">getRadiance()</text>
<text text-anchor="start" x="11.5" y="-36.5" font-family="Helvetica,sans-Serif" font-size="10.00">+</text>
<text text-anchor="start" x="31.5" y="-36.5" font-family="Helvetica,sans-Serif" font-size="10.00">getThreshold()</text>
<text text-anchor="start" x="11.5" y="-21.5" font-family="Helvetica,sans-Serif" font-size="10.00">+</text>
<text text-anchor="start" x="31.5" y="-21.5" font-family="Helvetica,sans-Serif" font-size="10.00">setMaxIter()</text>
<text text-anchor="start" x="11.5" y="-6.5" font-family="Helvetica,sans-Serif" font-size="10.00">+</text>
<text text-anchor="start" x="31.5" y="-6.5" font-family="Helvetica,sans-Serif" font-size="10.00">setThreshold()</text>
<polygon fill="#666666" stroke="#666666" points="0.5,-91.5 0.5,-91.5 121.5,-91.5 121.5,-91.5 0.5,-91.5"/>
<polygon fill="#666666" stroke="#666666" points="0.5,-76.5 0.5,-76.5 121.5,-76.5 121.5,-76.5 0.5,-76.5"/>
<polygon fill="none" stroke="#666666" points="0,0 0,-109 121,-109 121,0 0,0"/>
</a>
</g>
</g>
<!-- Node2 -->
<g id="Node000002" class="node">
<title>Node2</title>
<g id="a_Node000002"><a xlink:href="../../dd/de3/classcv_1_1CalibrateCRF.html" target="_top" xlink:title="The base class for camera response calibration algorithms.">
<polygon fill="white" stroke="transparent" points="106,-194 15,-194 15,-145 106,-145 106,-194"/>
<text text-anchor="start" x="20.5" y="-181.5" font-family="Helvetica,sans-Serif" font-size="10.00">cv::CalibrateCRF</text>
<text text-anchor="start" x="59" y="-166.5" font-family="Helvetica,sans-Serif" font-size="10.00"> </text>
<text text-anchor="start" x="25.5" y="-151.5" font-family="Helvetica,sans-Serif" font-size="10.00">+</text>
<text text-anchor="start" x="44.5" y="-151.5" font-family="Helvetica,sans-Serif" font-size="10.00">process()</text>
<polygon fill="#666666" stroke="#666666" points="15.5,-176.5 15.5,-176.5 106.5,-176.5 106.5,-176.5 15.5,-176.5"/>
<polygon fill="#666666" stroke="#666666" points="15.5,-161.5 15.5,-161.5 106.5,-161.5 106.5,-161.5 15.5,-161.5"/>
<polygon fill="none" stroke="#666666" points="15,-145 15,-194 106,-194 106,-145 15,-145"/>
</a>
</g>
</g>
<!-- Node2&#45;&gt;Node1 -->
<g id="edge1_Node000001_Node000002" class="edge">
<title>Node2&#45;&gt;Node1</title>
<g id="a_edge1_Node000001_Node000002"><a xlink:title=" ">
<path fill="none" stroke="#63b8ff" d="M60.5,-134.79C60.5,-126.79 60.5,-118.06 60.5,-109.41"/>
<polygon fill="none" stroke="#63b8ff" points="57,-134.81 60.5,-144.81 64,-134.81 57,-134.81"/>
</a>
</g>
</g>
<!-- Node3 -->
<g id="Node000003" class="node">
<title>Node3</title>
<g id="a_Node000003"><a xlink:href="../../d3/d46/classcv_1_1Algorithm.html" target="_top" xlink:title="This is a base class for all more or less complex algorithms in OpenCV.">
<polygon fill="white" stroke="transparent" points="115.5,-474 5.5,-474 5.5,-230 115.5,-230 115.5,-474"/>
<text text-anchor="start" x="28" y="-462" font-family="Helvetica,sans-Serif" font-size="10.00">cv::Algorithm</text>
<text text-anchor="start" x="58.5" y="-447" font-family="Helvetica,sans-Serif" font-size="10.00"> </text>
<text text-anchor="start" x="9.5" y="-432" font-family="Helvetica,sans-Serif" font-size="10.00">+</text>
<text text-anchor="start" x="22.5" y="-432" font-family="Helvetica,sans-Serif" font-size="10.00">Algorithm()</text>
<text text-anchor="start" x="9.5" y="-417" font-family="Helvetica,sans-Serif" font-size="10.00">+</text>
<text text-anchor="start" x="22.5" y="-417" font-family="Helvetica,sans-Serif" font-size="10.00">~Algorithm()</text>
<text text-anchor="start" x="9.5" y="-402" font-family="Helvetica,sans-Serif" font-size="10.00">+</text>
<text text-anchor="start" x="22.5" y="-402" font-family="Helvetica,sans-Serif" font-size="10.00">clear()</text>
<text text-anchor="start" x="9.5" y="-387" font-family="Helvetica,sans-Serif" font-size="10.00">+</text>
<text text-anchor="start" x="22.5" y="-387" font-family="Helvetica,sans-Serif" font-size="10.00">empty()</text>
<text text-anchor="start" x="9.5" y="-372" font-family="Helvetica,sans-Serif" font-size="10.00">+</text>
<text text-anchor="start" x="22.5" y="-372" font-family="Helvetica,sans-Serif" font-size="10.00">getDefaultName()</text>
<text text-anchor="start" x="9.5" y="-357" font-family="Helvetica,sans-Serif" font-size="10.00">+</text>
<text text-anchor="start" x="22.5" y="-357" font-family="Helvetica,sans-Serif" font-size="10.00">read()</text>
<text text-anchor="start" x="9.5" y="-342" font-family="Helvetica,sans-Serif" font-size="10.00">+</text>
<text text-anchor="start" x="22.5" y="-342" font-family="Helvetica,sans-Serif" font-size="10.00">save()</text>
<text text-anchor="start" x="9.5" y="-327" font-family="Helvetica,sans-Serif" font-size="10.00">+</text>
<text text-anchor="start" x="22.5" y="-327" font-family="Helvetica,sans-Serif" font-size="10.00">write()</text>
<text text-anchor="start" x="9.5" y="-312" font-family="Helvetica,sans-Serif" font-size="10.00">+</text>
<text text-anchor="start" x="22.5" y="-312" font-family="Helvetica,sans-Serif" font-size="10.00">write()</text>
<text text-anchor="start" x="9.5" y="-297" font-family="Helvetica,sans-Serif" font-size="10.00">+</text>
<text text-anchor="start" x="22.5" y="-297" font-family="Helvetica,sans-Serif" font-size="10.00">write()</text>
<text text-anchor="start" x="9.5" y="-282" font-family="Helvetica,sans-Serif" font-size="10.00">+</text>
<text text-anchor="start" x="22.5" y="-282" font-family="Helvetica,sans-Serif" font-size="10.00">load()</text>
<text text-anchor="start" x="9.5" y="-267" font-family="Helvetica,sans-Serif" font-size="10.00">+</text>
<text text-anchor="start" x="22.5" y="-267" font-family="Helvetica,sans-Serif" font-size="10.00">loadFromString()</text>
<text text-anchor="start" x="9.5" y="-252" font-family="Helvetica,sans-Serif" font-size="10.00">+</text>
<text text-anchor="start" x="22.5" y="-252" font-family="Helvetica,sans-Serif" font-size="10.00">read()</text>
<text text-anchor="start" x="9.5" y="-237" font-family="Helvetica,sans-Serif" font-size="10.00">#</text>
<text text-anchor="start" x="22.5" y="-237" font-family="Helvetica,sans-Serif" font-size="10.00">writeFormat()</text>
<polygon fill="#666666" stroke="#666666" points="5.5,-457 5.5,-457 115.5,-457 115.5,-457 5.5,-457"/>
<polygon fill="#666666" stroke="#666666" points="5.5,-442 5.5,-442 115.5,-442 115.5,-442 5.5,-442"/>
<polygon fill="none" stroke="#666666" points="5.5,-230 5.5,-474 115.5,-474 115.5,-230 5.5,-230"/>
</a>
</g>
</g>
<!-- Node3&#45;&gt;Node2 -->
<g id="edge2_Node000002_Node000003" class="edge">
<title>Node3&#45;&gt;Node2</title>
<g id="a_edge2_Node000002_Node000003"><a xlink:title=" ">
<path fill="none" stroke="#63b8ff" d="M60.5,-219.69C60.5,-210.18 60.5,-201.45 60.5,-194.06"/>
<polygon fill="none" stroke="#63b8ff" points="57,-219.85 60.5,-229.85 64,-219.85 57,-219.85"/>
</a>
</g>
</g>
</g>
</svg>
