<?xml version="1.0" encoding="UTF-8" standalone="no"?>
<!DOCTYPE svg PUBLIC "-//W3C//DTD SVG 1.1//EN"
 "http://www.w3.org/Graphics/SVG/1.1/DTD/svg11.dtd">
<!-- Generated by graphviz version 2.43.0 (0)
 -->
<!-- Title: cv::detail::GCompoundKernelImpl&lt; Impl, K &gt; Pages: 1 -->
<svg width="285pt" height="320pt"
 viewBox="0.00 0.00 285.00 320.00" xmlns="http://www.w3.org/2000/svg" xmlns:xlink="http://www.w3.org/1999/xlink">
<g id="graph0" class="graph" transform="scale(1 1) rotate(0) translate(4 316)">
<title>cv::detail::GCompoundKernelImpl&lt; Impl, K &gt;</title>
<!-- Node1 -->
<g id="Node000001" class="node">
<title>Node1</title>
<g id="a_Node000001"><a xlink:title=" ">
<polygon fill="#999999" stroke="transparent" points="263,-75 111,-75 111,0 263,0 263,-75"/>
<text text-anchor="start" x="116" y="-62.5" font-family="Helvetica,sans-Serif" font-size="10.00">cv::detail::GCompoundKernel</text>
<text text-anchor="start" x="147.5" y="-51.5" font-family="Helvetica,sans-Serif" font-size="10.00">Impl&lt; Impl, K &gt;</text>
<text text-anchor="start" x="185" y="-36.5" font-family="Helvetica,sans-Serif" font-size="10.00"> </text>
<text text-anchor="start" x="135.5" y="-21.5" font-family="Helvetica,sans-Serif" font-size="10.00">+</text>
<text text-anchor="start" x="169" y="-21.5" font-family="Helvetica,sans-Serif" font-size="10.00">backend()</text>
<text text-anchor="start" x="135.5" y="-6.5" font-family="Helvetica,sans-Serif" font-size="10.00">+</text>
<text text-anchor="start" x="169" y="-6.5" font-family="Helvetica,sans-Serif" font-size="10.00">kernel()</text>
<polygon fill="#666666" stroke="#666666" points="111,-46.5 111,-46.5 263,-46.5 263,-46.5 111,-46.5"/>
<polygon fill="#666666" stroke="#666666" points="111,-31.5 111,-31.5 263,-31.5 263,-31.5 111,-31.5"/>
<polygon fill="none" stroke="#666666" points="111,0 111,-75 263,-75 263,0 111,0"/>
</a>
</g>
</g>
<!-- Node2 -->
<g id="Node000002" class="node">
<title>Node2</title>
<g id="a_Node000002"><a xlink:href="../../df/d45/structcv_1_1detail_1_1GCompoundCallHelper.html" target="_top" xlink:title=" ">
<polygon fill="white" stroke="transparent" points="151,-183 11,-183 11,-112 151,-112 151,-183"/>
<text text-anchor="start" x="16" y="-170.5" font-family="Helvetica,sans-Serif" font-size="10.00">cv::detail::GCompoundCall</text>
<text text-anchor="start" x="16" y="-159.5" font-family="Helvetica,sans-Serif" font-size="10.00">Helper&lt; Impl, K::InArgs,</text>
<text text-anchor="start" x="47.5" y="-148.5" font-family="Helvetica,sans-Serif" font-size="10.00"> K::OutArgs &gt;</text>
<text text-anchor="start" x="79" y="-133.5" font-family="Helvetica,sans-Serif" font-size="10.00"> </text>
<text text-anchor="start" x="79" y="-118.5" font-family="Helvetica,sans-Serif" font-size="10.00"> </text>
<polygon fill="#666666" stroke="#666666" points="11,-143.5 11,-143.5 151,-143.5 151,-143.5 11,-143.5"/>
<polygon fill="#666666" stroke="#666666" points="11,-128.5 11,-128.5 151,-128.5 151,-128.5 11,-128.5"/>
<polygon fill="none" stroke="#666666" points="11,-112 11,-183 151,-183 151,-112 11,-112"/>
</a>
</g>
</g>
<!-- Node2&#45;&gt;Node1 -->
<g id="edge1_Node000001_Node000002" class="edge">
<title>Node2&#45;&gt;Node1</title>
<g id="a_edge1_Node000001_Node000002"><a xlink:title=" ">
<path fill="none" stroke="#63b8ff" d="M122.28,-104.44C131.8,-94.75 141.85,-84.5 151.12,-75.06"/>
<polygon fill="none" stroke="#63b8ff" points="119.63,-102.15 115.12,-111.73 124.63,-107.05 119.63,-102.15"/>
</a>
</g>
</g>
<!-- Node3 -->
<g id="Node000003" class="node">
<title>Node3</title>
<g id="a_Node000003"><a xlink:href="../../df/d45/structcv_1_1detail_1_1GCompoundCallHelper.html" target="_top" xlink:title=" ">
<polygon fill="white" stroke="transparent" points="162,-312 0,-312 0,-241 162,-241 162,-312"/>
<text text-anchor="start" x="5" y="-299.5" font-family="Helvetica,sans-Serif" font-size="10.00">cv::detail::GCompoundCall</text>
<text text-anchor="start" x="5" y="-288.5" font-family="Helvetica,sans-Serif" font-size="10.00">Helper&lt; typename, typename,</text>
<text text-anchor="start" x="49" y="-277.5" font-family="Helvetica,sans-Serif" font-size="10.00"> typename &gt;</text>
<text text-anchor="start" x="79" y="-262.5" font-family="Helvetica,sans-Serif" font-size="10.00"> </text>
<text text-anchor="start" x="79" y="-247.5" font-family="Helvetica,sans-Serif" font-size="10.00"> </text>
<polygon fill="#666666" stroke="#666666" points="0,-272.5 0,-272.5 162,-272.5 162,-272.5 0,-272.5"/>
<polygon fill="#666666" stroke="#666666" points="0,-257.5 0,-257.5 162,-257.5 162,-257.5 0,-257.5"/>
<polygon fill="none" stroke="#666666" points="0,-241 0,-312 162,-312 162,-241 0,-241"/>
</a>
</g>
</g>
<!-- Node3&#45;&gt;Node2 -->
<g id="edge2_Node000002_Node000003" class="edge">
<title>Node3&#45;&gt;Node2</title>
<g id="a_edge2_Node000002_Node000003"><a xlink:title=" ">
<path fill="none" stroke="orange" d="M81,-230.36C81,-214.84 81,-197.72 81,-183.16"/>
<polygon fill="orange" stroke="orange" points="77.5,-230.8 81,-240.8 84.5,-230.8 77.5,-230.8"/>
</a>
</g>
<text text-anchor="start" x="81" y="-215" font-family="Helvetica,sans-Serif" font-size="10.00" fill="grey"> &lt; Impl, K::InArgs,</text>
<text text-anchor="middle" x="125.5" y="-204" font-family="Helvetica,sans-Serif" font-size="10.00" fill="grey"> K::OutArgs &gt;</text>
</g>
<!-- Node4 -->
<g id="Node000004" class="node">
<title>Node4</title>
<g id="a_Node000004"><a xlink:href="../../d4/d88/structcv_1_1detail_1_1KernelTag.html" target="_top" xlink:title=" ">
<polygon fill="white" stroke="transparent" points="277,-172 169,-172 169,-123 277,-123 277,-172"/>
<text text-anchor="start" x="174" y="-159.5" font-family="Helvetica,sans-Serif" font-size="10.00">cv::detail::KernelTag</text>
<text text-anchor="start" x="221" y="-144.5" font-family="Helvetica,sans-Serif" font-size="10.00"> </text>
<text text-anchor="start" x="221" y="-129.5" font-family="Helvetica,sans-Serif" font-size="10.00"> </text>
<polygon fill="#666666" stroke="#666666" points="169,-154.5 169,-154.5 277,-154.5 277,-154.5 169,-154.5"/>
<polygon fill="#666666" stroke="#666666" points="169,-139.5 169,-139.5 277,-139.5 277,-139.5 169,-139.5"/>
<polygon fill="none" stroke="#666666" points="169,-123 169,-172 277,-172 277,-123 169,-123"/>
</a>
</g>
</g>
<!-- Node4&#45;&gt;Node1 -->
<g id="edge3_Node000001_Node000004" class="edge">
<title>Node4&#45;&gt;Node1</title>
<g id="a_edge3_Node000001_Node000004"><a xlink:title=" ">
<path fill="none" stroke="#63b8ff" d="M211.89,-113.17C207.89,-101.17 203.36,-87.58 199.27,-75.31"/>
<polygon fill="none" stroke="#63b8ff" points="208.62,-114.42 215.1,-122.8 215.26,-112.21 208.62,-114.42"/>
</a>
</g>
</g>
</g>
</svg>
