<?xml version="1.0" encoding="UTF-8" standalone="no"?>
<!DOCTYPE svg PUBLIC "-//W3C//DTD SVG 1.1//EN"
 "http://www.w3.org/Graphics/SVG/1.1/DTD/svg11.dtd">
<!-- Generated by graphviz version 2.43.0 (0)
 -->
<!-- Title: cv::xfeatures2d::TEBLID Pages: 1 -->
<svg width="134pt" height="587pt"
 viewBox="0.00 0.00 134.00 587.00" xmlns="http://www.w3.org/2000/svg" xmlns:xlink="http://www.w3.org/1999/xlink">
<g id="graph0" class="graph" transform="scale(1 1) rotate(0) translate(4 583)">
<title>cv::xfeatures2d::TEBLID</title>
<!-- Node1 -->
<g id="Node000001" class="node">
<title>Node1</title>
<g id="a_Node000001"><a xlink:title="Class implementing TEBLID (Triplet&#45;based Efficient Binary Local Image Descriptor),...">
<polygon fill="#999999" stroke="transparent" points="126,-64 0,-64 0,0 126,0 126,-64"/>
<text text-anchor="start" x="5" y="-52" font-family="Helvetica,sans-Serif" font-size="10.00">cv::xfeatures2d::TEBLID</text>
<text text-anchor="start" x="61" y="-37" font-family="Helvetica,sans-Serif" font-size="10.00"> </text>
<text text-anchor="start" x="8" y="-22" font-family="Helvetica,sans-Serif" font-size="10.00">+</text>
<text text-anchor="start" x="25" y="-22" font-family="Helvetica,sans-Serif" font-size="10.00">getDefaultName()</text>
<text text-anchor="start" x="8" y="-7" font-family="Helvetica,sans-Serif" font-size="10.00">+</text>
<text text-anchor="start" x="25" y="-7" font-family="Helvetica,sans-Serif" font-size="10.00">create()</text>
<polygon fill="#666666" stroke="#666666" points="0,-47 0,-47 126,-47 126,-47 0,-47"/>
<polygon fill="#666666" stroke="#666666" points="0,-32 0,-32 126,-32 126,-32 0,-32"/>
<polygon fill="none" stroke="#666666" points="0,0 0,-64 126,-64 126,0 0,0"/>
</a>
</g>
</g>
<!-- Node2 -->
<g id="Node000002" class="node">
<title>Node2</title>
<g id="a_Node000002"><a xlink:href="../../d0/d13/classcv_1_1Feature2D.html" target="_top" xlink:title="Abstract base class for 2D image feature detectors and descriptor extractors.">
<polygon fill="white" stroke="transparent" points="124.5,-299 1.5,-299 1.5,-100 124.5,-100 124.5,-299"/>
<text text-anchor="start" x="30" y="-286.5" font-family="Helvetica,sans-Serif" font-size="10.00">cv::Feature2D</text>
<text text-anchor="start" x="61.5" y="-271.5" font-family="Helvetica,sans-Serif" font-size="10.00"> </text>
<text text-anchor="start" x="6" y="-256.5" font-family="Helvetica,sans-Serif" font-size="10.00">+</text>
<text text-anchor="start" x="19" y="-256.5" font-family="Helvetica,sans-Serif" font-size="10.00">~Feature2D()</text>
<text text-anchor="start" x="6" y="-241.5" font-family="Helvetica,sans-Serif" font-size="10.00">+</text>
<text text-anchor="start" x="19" y="-241.5" font-family="Helvetica,sans-Serif" font-size="10.00">compute()</text>
<text text-anchor="start" x="6" y="-226.5" font-family="Helvetica,sans-Serif" font-size="10.00">+</text>
<text text-anchor="start" x="19" y="-226.5" font-family="Helvetica,sans-Serif" font-size="10.00">compute()</text>
<text text-anchor="start" x="6" y="-211.5" font-family="Helvetica,sans-Serif" font-size="10.00">+</text>
<text text-anchor="start" x="19" y="-211.5" font-family="Helvetica,sans-Serif" font-size="10.00">defaultNorm()</text>
<text text-anchor="start" x="6" y="-196.5" font-family="Helvetica,sans-Serif" font-size="10.00">+</text>
<text text-anchor="start" x="19" y="-196.5" font-family="Helvetica,sans-Serif" font-size="10.00">descriptorSize()</text>
<text text-anchor="start" x="6" y="-181.5" font-family="Helvetica,sans-Serif" font-size="10.00">+</text>
<text text-anchor="start" x="19" y="-181.5" font-family="Helvetica,sans-Serif" font-size="10.00">descriptorType()</text>
<text text-anchor="start" x="6" y="-166.5" font-family="Helvetica,sans-Serif" font-size="10.00">+</text>
<text text-anchor="start" x="19" y="-166.5" font-family="Helvetica,sans-Serif" font-size="10.00">detect()</text>
<text text-anchor="start" x="6" y="-151.5" font-family="Helvetica,sans-Serif" font-size="10.00">+</text>
<text text-anchor="start" x="19" y="-151.5" font-family="Helvetica,sans-Serif" font-size="10.00">detect()</text>
<text text-anchor="start" x="6" y="-136.5" font-family="Helvetica,sans-Serif" font-size="10.00">+</text>
<text text-anchor="start" x="19" y="-136.5" font-family="Helvetica,sans-Serif" font-size="10.00">detectAndCompute()</text>
<text text-anchor="start" x="6" y="-121.5" font-family="Helvetica,sans-Serif" font-size="10.00">+</text>
<text text-anchor="start" x="19" y="-121.5" font-family="Helvetica,sans-Serif" font-size="10.00">empty()</text>
<text text-anchor="start" x="19" y="-106.5" font-family="Helvetica,sans-Serif" font-size="10.00">and 7 more...</text>
<polygon fill="#666666" stroke="#666666" points="2,-281.5 2,-281.5 125,-281.5 125,-281.5 2,-281.5"/>
<polygon fill="#666666" stroke="#666666" points="2,-266.5 2,-266.5 125,-266.5 125,-266.5 2,-266.5"/>
<polygon fill="none" stroke="#666666" points="1.5,-100 1.5,-299 124.5,-299 124.5,-100 1.5,-100"/>
</a>
</g>
</g>
<!-- Node2&#45;&gt;Node1 -->
<g id="edge1_Node000001_Node000002" class="edge">
<title>Node2&#45;&gt;Node1</title>
<g id="a_edge1_Node000001_Node000002"><a xlink:title=" ">
<path fill="none" stroke="#63b8ff" d="M63,-89.72C63,-80.54 63,-71.83 63,-64.12"/>
<polygon fill="none" stroke="#63b8ff" points="59.5,-89.84 63,-99.84 66.5,-89.84 59.5,-89.84"/>
</a>
</g>
</g>
<!-- Node3 -->
<g id="Node000003" class="node">
<title>Node3</title>
<g id="a_Node000003"><a xlink:href="../../d3/d46/classcv_1_1Algorithm.html" target="_top" xlink:title="This is a base class for all more or less complex algorithms in OpenCV.">
<polygon fill="white" stroke="transparent" points="118,-579 8,-579 8,-335 118,-335 118,-579"/>
<text text-anchor="start" x="30.5" y="-567" font-family="Helvetica,sans-Serif" font-size="10.00">cv::Algorithm</text>
<text text-anchor="start" x="61" y="-552" font-family="Helvetica,sans-Serif" font-size="10.00"> </text>
<text text-anchor="start" x="12" y="-537" font-family="Helvetica,sans-Serif" font-size="10.00">+</text>
<text text-anchor="start" x="25" y="-537" font-family="Helvetica,sans-Serif" font-size="10.00">Algorithm()</text>
<text text-anchor="start" x="12" y="-522" font-family="Helvetica,sans-Serif" font-size="10.00">+</text>
<text text-anchor="start" x="25" y="-522" font-family="Helvetica,sans-Serif" font-size="10.00">~Algorithm()</text>
<text text-anchor="start" x="12" y="-507" font-family="Helvetica,sans-Serif" font-size="10.00">+</text>
<text text-anchor="start" x="25" y="-507" font-family="Helvetica,sans-Serif" font-size="10.00">clear()</text>
<text text-anchor="start" x="12" y="-492" font-family="Helvetica,sans-Serif" font-size="10.00">+</text>
<text text-anchor="start" x="25" y="-492" font-family="Helvetica,sans-Serif" font-size="10.00">empty()</text>
<text text-anchor="start" x="12" y="-477" font-family="Helvetica,sans-Serif" font-size="10.00">+</text>
<text text-anchor="start" x="25" y="-477" font-family="Helvetica,sans-Serif" font-size="10.00">getDefaultName()</text>
<text text-anchor="start" x="12" y="-462" font-family="Helvetica,sans-Serif" font-size="10.00">+</text>
<text text-anchor="start" x="25" y="-462" font-family="Helvetica,sans-Serif" font-size="10.00">read()</text>
<text text-anchor="start" x="12" y="-447" font-family="Helvetica,sans-Serif" font-size="10.00">+</text>
<text text-anchor="start" x="25" y="-447" font-family="Helvetica,sans-Serif" font-size="10.00">save()</text>
<text text-anchor="start" x="12" y="-432" font-family="Helvetica,sans-Serif" font-size="10.00">+</text>
<text text-anchor="start" x="25" y="-432" font-family="Helvetica,sans-Serif" font-size="10.00">write()</text>
<text text-anchor="start" x="12" y="-417" font-family="Helvetica,sans-Serif" font-size="10.00">+</text>
<text text-anchor="start" x="25" y="-417" font-family="Helvetica,sans-Serif" font-size="10.00">write()</text>
<text text-anchor="start" x="12" y="-402" font-family="Helvetica,sans-Serif" font-size="10.00">+</text>
<text text-anchor="start" x="25" y="-402" font-family="Helvetica,sans-Serif" font-size="10.00">write()</text>
<text text-anchor="start" x="12" y="-387" font-family="Helvetica,sans-Serif" font-size="10.00">+</text>
<text text-anchor="start" x="25" y="-387" font-family="Helvetica,sans-Serif" font-size="10.00">load()</text>
<text text-anchor="start" x="12" y="-372" font-family="Helvetica,sans-Serif" font-size="10.00">+</text>
<text text-anchor="start" x="25" y="-372" font-family="Helvetica,sans-Serif" font-size="10.00">loadFromString()</text>
<text text-anchor="start" x="12" y="-357" font-family="Helvetica,sans-Serif" font-size="10.00">+</text>
<text text-anchor="start" x="25" y="-357" font-family="Helvetica,sans-Serif" font-size="10.00">read()</text>
<text text-anchor="start" x="12" y="-342" font-family="Helvetica,sans-Serif" font-size="10.00">#</text>
<text text-anchor="start" x="25" y="-342" font-family="Helvetica,sans-Serif" font-size="10.00">writeFormat()</text>
<polygon fill="#666666" stroke="#666666" points="8,-562 8,-562 118,-562 118,-562 8,-562"/>
<polygon fill="#666666" stroke="#666666" points="8,-547 8,-547 118,-547 118,-547 8,-547"/>
<polygon fill="none" stroke="#666666" points="8,-335 8,-579 118,-579 118,-335 8,-335"/>
</a>
</g>
</g>
<!-- Node3&#45;&gt;Node2 -->
<g id="edge2_Node000002_Node000003" class="edge">
<title>Node3&#45;&gt;Node2</title>
<g id="a_edge2_Node000002_Node000003"><a xlink:title=" ">
<path fill="none" stroke="#63b8ff" d="M63,-324.85C63,-316.22 63,-307.62 63,-299.18"/>
<polygon fill="none" stroke="#63b8ff" points="59.5,-324.98 63,-334.98 66.5,-324.98 59.5,-324.98"/>
</a>
</g>
</g>
</g>
</svg>
