<?xml version="1.0" encoding="UTF-8" standalone="no"?>
<!DOCTYPE svg PUBLIC "-//W3C//DTD SVG 1.1//EN"
 "http://www.w3.org/Graphics/SVG/1.1/DTD/svg11.dtd">
<!-- Generated by graphviz version 2.43.0 (0)
 -->
<!-- Title: cv::ParamType&lt; uchar &gt; Pages: 1 -->
<svg width="138pt" height="153pt"
 viewBox="0.00 0.00 138.00 153.00" xmlns="http://www.w3.org/2000/svg" xmlns:xlink="http://www.w3.org/1999/xlink">
<g id="graph0" class="graph" transform="scale(1 1) rotate(0) translate(4 149)">
<title>cv::ParamType&lt; uchar &gt;</title>
<!-- Node1 -->
<g id="Node000001" class="node">
<title>Node1</title>
<g id="a_Node000001"><a xlink:title=" ">
<polygon fill="#999999" stroke="transparent" points="130,-49 0,-49 0,0 130,0 130,-49"/>
<text text-anchor="start" x="5" y="-36.5" font-family="Helvetica,sans-Serif" font-size="10.00">cv::ParamType&lt; uchar &gt;</text>
<text text-anchor="start" x="63" y="-21.5" font-family="Helvetica,sans-Serif" font-size="10.00"> </text>
<text text-anchor="start" x="63" y="-6.5" font-family="Helvetica,sans-Serif" font-size="10.00"> </text>
<polygon fill="#666666" stroke="#666666" points="0,-31.5 0,-31.5 130,-31.5 130,-31.5 0,-31.5"/>
<polygon fill="#666666" stroke="#666666" points="0,-16.5 0,-16.5 130,-16.5 130,-16.5 0,-16.5"/>
<polygon fill="none" stroke="#666666" points="0,0 0,-49 130,-49 130,0 0,0"/>
</a>
</g>
</g>
<!-- Node2 -->
<g id="Node000002" class="node">
<title>Node2</title>
<g id="a_Node000002"><a xlink:title=" ">
<polygon fill="white" stroke="transparent" points="115.5,-145 14.5,-145 14.5,-96 115.5,-96 115.5,-145"/>
<text text-anchor="start" x="20" y="-132.5" font-family="Helvetica,sans-Serif" font-size="10.00">static const Param</text>
<text text-anchor="start" x="63.5" y="-117.5" font-family="Helvetica,sans-Serif" font-size="10.00"> </text>
<text text-anchor="start" x="63.5" y="-102.5" font-family="Helvetica,sans-Serif" font-size="10.00"> </text>
<polygon fill="#666666" stroke="#666666" points="15,-127.5 15,-127.5 116,-127.5 116,-127.5 15,-127.5"/>
<polygon fill="#666666" stroke="#666666" points="15,-112.5 15,-112.5 116,-112.5 116,-112.5 15,-112.5"/>
<polygon fill="none" stroke="#666666" points="14.5,-96 14.5,-145 115.5,-145 115.5,-96 14.5,-96"/>
</a>
</g>
</g>
<!-- Node2&#45;&gt;Node1 -->
<g id="edge1_Node000001_Node000002" class="edge">
<title>Node2&#45;&gt;Node1</title>
<g id="a_edge1_Node000001_Node000002"><a xlink:title=" ">
<path fill="none" stroke="#63b8ff" d="M65,-95.78C65,-85.32 65,-72.79 65,-61.23"/>
<polygon fill="none" stroke="#63b8ff" points="65,-61.21 61,-55.21 65,-49.21 69,-55.21 65,-61.21"/>
</a>
</g>
<text text-anchor="middle" x="82" y="-70" font-family="Helvetica,sans-Serif" font-size="10.00" fill="grey"> +type</text>
</g>
</g>
</svg>
