<?xml version="1.0" encoding="UTF-8" standalone="no"?>
<!DOCTYPE svg PUBLIC "-//W3C//DTD SVG 1.1//EN"
 "http://www.w3.org/Graphics/SVG/1.1/DTD/svg11.dtd">
<!-- Generated by graphviz version 2.43.0 (0)
 -->
<!-- Title: opencv2/dnn/utils/inference_engine.hpp Pages: 1 -->
<svg width="920pt" height="280pt"
 viewBox="0.00 0.00 919.50 280.00" xmlns="http://www.w3.org/2000/svg" xmlns:xlink="http://www.w3.org/1999/xlink">
<g id="graph0" class="graph" transform="scale(1 1) rotate(0) translate(4 276)">
<title>opencv2/dnn/utils/inference_engine.hpp</title>
<!-- Node1 -->
<g id="Node000001" class="node">
<title>Node1</title>
<g id="a_Node000001"><a xlink:title=" ">
<polygon fill="#999999" stroke="#666666" points="645,-272 493,-272 493,-242 645,-242 645,-272"/>
<text text-anchor="start" x="501" y="-260" font-family="Helvetica,sans-Serif" font-size="10.00">opencv2/dnn/utils/inference</text>
<text text-anchor="middle" x="569" y="-249" font-family="Helvetica,sans-Serif" font-size="10.00">_engine.hpp</text>
</a>
</g>
</g>
<!-- Node2 -->
<g id="Node000002" class="node">
<title>Node2</title>
<g id="a_Node000002"><a xlink:href="../../db/ddc/dnn_2dnn_8hpp.html" target="_top" xlink:title=" ">
<polygon fill="white" stroke="#666666" points="629.5,-206 508.5,-206 508.5,-187 629.5,-187 629.5,-206"/>
<text text-anchor="middle" x="569" y="-194" font-family="Helvetica,sans-Serif" font-size="10.00">opencv2/dnn/dnn.hpp</text>
</a>
</g>
</g>
<!-- Node1&#45;&gt;Node2 -->
<g id="edge1_Node000001_Node000002" class="edge">
<title>Node1&#45;&gt;Node2</title>
<g id="a_edge1_Node000001_Node000002"><a xlink:title=" ">
<path fill="none" stroke="#63b8ff" d="M562.34,-231.75C562.02,-222.72 562.58,-213.03 564.02,-206.27"/>
<polygon fill="#63b8ff" stroke="#63b8ff" points="558.86,-232.14 563.12,-241.84 565.84,-231.6 558.86,-232.14"/>
</a>
</g>
</g>
<!-- Node2&#45;&gt;Node1 -->
<g id="edge15_Node000002_Node000001" class="edge">
<title>Node2&#45;&gt;Node1</title>
<g id="a_edge15_Node000002_Node000001"><a xlink:title=" ">
<path fill="none" stroke="#63b8ff" d="M575.36,-216.45C576.01,-224.7 575.85,-234.21 574.88,-241.84"/>
<polygon fill="#63b8ff" stroke="#63b8ff" points="578.79,-215.71 573.98,-206.27 571.86,-216.65 578.79,-215.71"/>
</a>
</g>
</g>
<!-- Node3 -->
<g id="Node000003" class="node">
<title>Node3</title>
<g id="a_Node000003"><a xlink:href="../../d9/d8c/dnn_8hpp.html" target="_top" xlink:title=" ">
<polygon fill="white" stroke="#666666" points="411,-145.5 311,-145.5 311,-126.5 411,-126.5 411,-145.5"/>
<text text-anchor="middle" x="361" y="-133.5" font-family="Helvetica,sans-Serif" font-size="10.00">opencv2/dnn.hpp</text>
</a>
</g>
</g>
<!-- Node2&#45;&gt;Node3 -->
<g id="edge2_Node000002_Node000003" class="edge">
<title>Node2&#45;&gt;Node3</title>
<g id="a_edge2_Node000002_Node000003"><a xlink:title=" ">
<path fill="none" stroke="#63b8ff" d="M529.01,-184.25C488.78,-172.94 427.65,-155.75 391.28,-145.52"/>
<polygon fill="#63b8ff" stroke="#63b8ff" points="528.18,-187.66 538.76,-186.99 530.08,-180.92 528.18,-187.66"/>
</a>
</g>
</g>
<!-- Node11 -->
<g id="Node000011" class="node">
<title>Node11</title>
<g id="a_Node000011"><a xlink:href="../../df/de6/dict_8hpp.html" target="_top" xlink:title=" ">
<polygon fill="white" stroke="#666666" points="550.5,-145.5 429.5,-145.5 429.5,-126.5 550.5,-126.5 550.5,-145.5"/>
<text text-anchor="middle" x="490" y="-133.5" font-family="Helvetica,sans-Serif" font-size="10.00">opencv2/dnn/dict.hpp</text>
</a>
</g>
</g>
<!-- Node2&#45;&gt;Node11 -->
<g id="edge11_Node000002_Node000011" class="edge">
<title>Node2&#45;&gt;Node11</title>
<g id="a_edge11_Node000002_Node000011"><a xlink:title=" ">
<path fill="none" stroke="#63b8ff" d="M543.73,-181.16C527.34,-170.05 507.35,-155.01 496.74,-145.67"/>
<polygon fill="#63b8ff" stroke="#63b8ff" points="542.11,-184.28 552.39,-186.87 545.97,-178.44 542.11,-184.28"/>
</a>
</g>
</g>
<!-- Node12 -->
<g id="Node000012" class="node">
<title>Node12</title>
<g id="a_Node000012"><a xlink:href="../../d1/ddb/shape__utils_8hpp.html" target="_top" xlink:title=" ">
<polygon fill="white" stroke="#666666" points="727,-145.5 569,-145.5 569,-126.5 727,-126.5 727,-145.5"/>
<text text-anchor="middle" x="648" y="-133.5" font-family="Helvetica,sans-Serif" font-size="10.00">opencv2/dnn/shape_utils.hpp</text>
</a>
</g>
</g>
<!-- Node2&#45;&gt;Node12 -->
<g id="edge13_Node000002_Node000012" class="edge">
<title>Node2&#45;&gt;Node12</title>
<g id="a_edge13_Node000002_Node000012"><a xlink:title=" ">
<path fill="none" stroke="#63b8ff" d="M588.79,-180.85C603.75,-169.77 623.79,-154.93 636.3,-145.67"/>
<polygon fill="#63b8ff" stroke="#63b8ff" points="586.61,-178.1 580.66,-186.87 590.78,-183.73 586.61,-178.1"/>
</a>
</g>
</g>
<!-- Node13 -->
<g id="Node000013" class="node">
<title>Node13</title>
<g id="a_Node000013"><a xlink:href="../../d6/d32/debug__utils_8hpp.html" target="_top" xlink:title=" ">
<polygon fill="white" stroke="#666666" points="881,-151 745,-151 745,-121 881,-121 881,-151"/>
<text text-anchor="start" x="753" y="-139" font-family="Helvetica,sans-Serif" font-size="10.00">opencv2/dnn/utils/debug</text>
<text text-anchor="middle" x="813" y="-128" font-family="Helvetica,sans-Serif" font-size="10.00">_utils.hpp</text>
</a>
</g>
</g>
<!-- Node2&#45;&gt;Node13 -->
<g id="edge14_Node000002_Node000013" class="edge">
<title>Node2&#45;&gt;Node13</title>
<g id="a_edge14_Node000002_Node000013"><a xlink:title=" ">
<path fill="none" stroke="#63b8ff" d="M614.36,-184.62C653.86,-175.16 711.36,-161.37 754.34,-151.06"/>
<polygon fill="#63b8ff" stroke="#63b8ff" points="613.39,-181.26 604.48,-186.99 615.02,-188.07 613.39,-181.26"/>
</a>
</g>
</g>
<!-- Node4 -->
<g id="Node000004" class="node">
<title>Node4</title>
<g id="a_Node000004"><a xlink:href="../../dd/d6b/all__layers_8hpp.html" target="_top" xlink:title=" ">
<polygon fill="white" stroke="#666666" points="520,-79.5 370,-79.5 370,-60.5 520,-60.5 520,-79.5"/>
<text text-anchor="middle" x="445" y="-67.5" font-family="Helvetica,sans-Serif" font-size="10.00">opencv2/dnn/all_layers.hpp</text>
</a>
</g>
</g>
<!-- Node3&#45;&gt;Node4 -->
<g id="edge3_Node000003_Node000004" class="edge">
<title>Node3&#45;&gt;Node4</title>
<g id="a_edge3_Node000003_Node000004"><a xlink:title=" ">
<path fill="none" stroke="#63b8ff" d="M380.7,-119.99C397.15,-107.46 420.01,-90.04 433.58,-79.7"/>
<polygon fill="#63b8ff" stroke="#63b8ff" points="378.16,-117.52 372.33,-126.37 382.4,-123.09 378.16,-117.52"/>
</a>
</g>
</g>
<!-- Node5 -->
<g id="Node000005" class="node">
<title>Node5</title>
<g id="a_Node000005"><a xlink:href="../../d4/db0/layer_8hpp.html" target="_top" xlink:title=" ">
<polygon fill="white" stroke="#666666" points="893.5,-79.5 766.5,-79.5 766.5,-60.5 893.5,-60.5 893.5,-79.5"/>
<text text-anchor="middle" x="830" y="-67.5" font-family="Helvetica,sans-Serif" font-size="10.00">opencv2/dnn/layer.hpp</text>
</a>
</g>
</g>
<!-- Node3&#45;&gt;Node5 -->
<g id="edge4_Node000003_Node000005" class="edge">
<title>Node3&#45;&gt;Node5</title>
<g id="a_edge4_Node000003_Node000005"><a xlink:title=" ">
<path fill="none" stroke="#63b8ff" d="M404.07,-124.19C409.42,-123.03 414.82,-121.93 420,-121 541.76,-99.2 685.59,-84.08 766.46,-76.53"/>
<polygon fill="#63b8ff" stroke="#63b8ff" points="402.92,-120.87 393.94,-126.5 404.47,-127.69 402.92,-120.87"/>
</a>
</g>
</g>
<!-- Node7 -->
<g id="Node000007" class="node">
<title>Node7</title>
<g id="a_Node000007"><a xlink:href="../../d0/d7e/layer__reg_8private_8hpp.html" target="_top" xlink:title=" ">
<polygon fill="white" stroke="#666666" points="186,-79.5 0,-79.5 0,-60.5 186,-60.5 186,-79.5"/>
<text text-anchor="middle" x="93" y="-67.5" font-family="Helvetica,sans-Serif" font-size="10.00">opencv2/dnn/layer_reg.private.hpp</text>
</a>
</g>
</g>
<!-- Node3&#45;&gt;Node7 -->
<g id="edge7_Node000003_Node000007" class="edge">
<title>Node3&#45;&gt;Node7</title>
<g id="a_edge7_Node000003_Node000007"><a xlink:title=" ">
<path fill="none" stroke="#63b8ff" d="M315.36,-124.1C262.57,-111.49 176.78,-91.01 128.65,-79.51"/>
<polygon fill="#63b8ff" stroke="#63b8ff" points="314.59,-127.52 325.13,-126.44 316.22,-120.71 314.59,-127.52"/>
</a>
</g>
</g>
<!-- Node8 -->
<g id="Node000008" class="node">
<title>Node8</title>
<g id="a_Node000008"><a xlink:href="../../d3/db0/dnn__superres_8hpp.html" target="_top" xlink:title=" ">
<polygon fill="white" stroke="#666666" points="351.5,-79.5 204.5,-79.5 204.5,-60.5 351.5,-60.5 351.5,-79.5"/>
<text text-anchor="middle" x="278" y="-67.5" font-family="Helvetica,sans-Serif" font-size="10.00">opencv2/dnn_superres.hpp</text>
</a>
</g>
</g>
<!-- Node3&#45;&gt;Node8 -->
<g id="edge8_Node000003_Node000008" class="edge">
<title>Node3&#45;&gt;Node8</title>
<g id="a_edge8_Node000003_Node000008"><a xlink:title=" ">
<path fill="none" stroke="#63b8ff" d="M341.53,-119.99C325.28,-107.46 302.69,-90.04 289.28,-79.7"/>
<polygon fill="#63b8ff" stroke="#63b8ff" points="339.75,-123.03 349.81,-126.37 344.02,-117.49 339.75,-123.03"/>
</a>
</g>
</g>
<!-- Node9 -->
<g id="Node000009" class="node">
<title>Node9</title>
<g id="a_Node000009"><a xlink:href="../../d1/d09/checker__detector_8hpp.html" target="_top" xlink:title=" ">
<polygon fill="white" stroke="#666666" points="660,-85 538,-85 538,-55 660,-55 660,-85"/>
<text text-anchor="start" x="546" y="-73" font-family="Helvetica,sans-Serif" font-size="10.00">opencv2/mcc/checker</text>
<text text-anchor="middle" x="599" y="-62" font-family="Helvetica,sans-Serif" font-size="10.00">_detector.hpp</text>
</a>
</g>
</g>
<!-- Node3&#45;&gt;Node9 -->
<g id="edge9_Node000003_Node000009" class="edge">
<title>Node3&#45;&gt;Node9</title>
<g id="a_edge9_Node000003_Node000009"><a xlink:title=" ">
<path fill="none" stroke="#63b8ff" d="M402.8,-123.76C442.81,-113 503.28,-96.74 546.51,-85.12"/>
<polygon fill="#63b8ff" stroke="#63b8ff" points="401.85,-120.39 393.1,-126.37 403.66,-127.15 401.85,-120.39"/>
</a>
</g>
</g>
<!-- Node5&#45;&gt;Node2 -->
<g id="edge5_Node000005_Node000002" class="edge">
<title>Node5&#45;&gt;Node2</title>
<g id="a_edge5_Node000005_Node000002"><a xlink:title=" ">
<path fill="none" stroke="#63b8ff" d="M853.43,-85.23C877.54,-101.61 909.09,-129.08 890,-151 856.93,-188.97 713.17,-195.6 629.68,-196.15"/>
<polygon fill="#63b8ff" stroke="#63b8ff" points="855.28,-82.26 844.99,-79.73 851.45,-88.12 855.28,-82.26"/>
</a>
</g>
</g>
<!-- Node6 -->
<g id="Node000006" class="node">
<title>Node6</title>
<g id="a_Node000006"><a xlink:href="../../df/d8c/layer_8details_8hpp.html" target="_top" xlink:title=" ">
<polygon fill="white" stroke="#666666" points="911.5,-19 748.5,-19 748.5,0 911.5,0 911.5,-19"/>
<text text-anchor="middle" x="830" y="-7" font-family="Helvetica,sans-Serif" font-size="10.00">opencv2/dnn/layer.details.hpp</text>
</a>
</g>
</g>
<!-- Node5&#45;&gt;Node6 -->
<g id="edge6_Node000005_Node000006" class="edge">
<title>Node5&#45;&gt;Node6</title>
<g id="a_edge6_Node000005_Node000006"><a xlink:title=" ">
<path fill="none" stroke="#63b8ff" d="M830,-50.16C830,-39.74 830,-27.3 830,-19.17"/>
<polygon fill="#63b8ff" stroke="#63b8ff" points="826.5,-50.37 830,-60.37 833.5,-50.37 826.5,-50.37"/>
</a>
</g>
</g>
<!-- Node10 -->
<g id="Node000010" class="node">
<title>Node10</title>
<g id="a_Node000010"><a xlink:href="../../df/d35/mcc_8hpp.html" target="_top" xlink:title=" ">
<polygon fill="white" stroke="#666666" points="650,-19 548,-19 548,0 650,0 650,-19"/>
<text text-anchor="middle" x="599" y="-7" font-family="Helvetica,sans-Serif" font-size="10.00">opencv2/mcc.hpp</text>
</a>
</g>
</g>
<!-- Node9&#45;&gt;Node10 -->
<g id="edge10_Node000009_Node000010" class="edge">
<title>Node9&#45;&gt;Node10</title>
<g id="a_edge10_Node000009_Node000010"><a xlink:title=" ">
<path fill="none" stroke="#63b8ff" d="M599,-44.75C599,-35.72 599,-26.03 599,-19.27"/>
<polygon fill="#63b8ff" stroke="#63b8ff" points="595.5,-44.84 599,-54.84 602.5,-44.84 595.5,-44.84"/>
</a>
</g>
</g>
<!-- Node11&#45;&gt;Node2 -->
<g id="edge12_Node000011_Node000002" class="edge">
<title>Node11&#45;&gt;Node2</title>
<g id="a_edge12_Node000011_Node000002"><a xlink:title=" ">
<path fill="none" stroke="#63b8ff" d="M515.33,-151.38C531.73,-162.51 551.71,-177.54 562.3,-186.87"/>
<polygon fill="#63b8ff" stroke="#63b8ff" points="516.94,-148.25 506.67,-145.67 513.09,-154.1 516.94,-148.25"/>
</a>
</g>
</g>
</g>
</svg>
