<?xml version="1.0" encoding="UTF-8" standalone="no"?>
<!DOCTYPE svg PUBLIC "-//W3C//DTD SVG 1.1//EN"
 "http://www.w3.org/Graphics/SVG/1.1/DTD/svg11.dtd">
<!-- Generated by graphviz version 2.43.0 (0)
 -->
<!-- Title: cv::cuda::BackgroundSubtractorMOG2 Pages: 1 -->
<svg width="206pt" height="702pt"
 viewBox="0.00 0.00 206.00 702.00" xmlns="http://www.w3.org/2000/svg" xmlns:xlink="http://www.w3.org/1999/xlink">
<g id="graph0" class="graph" transform="scale(1 1) rotate(0) translate(4 698)">
<title>cv::cuda::BackgroundSubtractorMOG2</title>
<!-- Node1 -->
<g id="Node000001" class="node">
<title>Node1</title>
<g id="a_Node000001"><a xlink:title="Gaussian Mixture&#45;based Background/Foreground Segmentation Algorithm.">
<polygon fill="#999999" stroke="transparent" points="196,-79 2,-79 2,0 196,0 196,-79"/>
<text text-anchor="start" x="7" y="-66.5" font-family="Helvetica,sans-Serif" font-size="10.00">cv::cuda::BackgroundSubtractorMOG2</text>
<text text-anchor="start" x="97" y="-51.5" font-family="Helvetica,sans-Serif" font-size="10.00"> </text>
<text text-anchor="start" x="21" y="-36.5" font-family="Helvetica,sans-Serif" font-size="10.00">+</text>
<text text-anchor="start" x="49" y="-36.5" font-family="Helvetica,sans-Serif" font-size="10.00">apply()</text>
<text text-anchor="start" x="21" y="-21.5" font-family="Helvetica,sans-Serif" font-size="10.00">+</text>
<text text-anchor="start" x="49" y="-21.5" font-family="Helvetica,sans-Serif" font-size="10.00">getBackgroundImage()</text>
<text text-anchor="start" x="21" y="-6.5" font-family="Helvetica,sans-Serif" font-size="10.00">+</text>
<text text-anchor="start" x="49" y="-6.5" font-family="Helvetica,sans-Serif" font-size="10.00">getBackgroundImage()</text>
<polygon fill="#666666" stroke="#666666" points="2,-61.5 2,-61.5 196,-61.5 196,-61.5 2,-61.5"/>
<polygon fill="#666666" stroke="#666666" points="2,-46.5 2,-46.5 196,-46.5 196,-46.5 2,-46.5"/>
<polygon fill="none" stroke="#666666" points="2,0 2,-79 196,-79 196,0 2,0"/>
</a>
</g>
</g>
<!-- Node2 -->
<g id="Node000002" class="node">
<title>Node2</title>
<g id="a_Node000002"><a xlink:href="../../d7/d7b/classcv_1_1BackgroundSubtractorMOG2.html" target="_top" xlink:title="Gaussian Mixture&#45;based Background/Foreground Segmentation Algorithm.">
<polygon fill="white" stroke="transparent" points="198,-314 0,-314 0,-115 198,-115 198,-314"/>
<text text-anchor="start" x="21.5" y="-301.5" font-family="Helvetica,sans-Serif" font-size="10.00">cv::BackgroundSubtractorMOG2</text>
<text text-anchor="start" x="97" y="-286.5" font-family="Helvetica,sans-Serif" font-size="10.00"> </text>
<text text-anchor="start" x="4" y="-271.5" font-family="Helvetica,sans-Serif" font-size="10.00">+</text>
<text text-anchor="start" x="17" y="-271.5" font-family="Helvetica,sans-Serif" font-size="10.00">apply()</text>
<text text-anchor="start" x="4" y="-256.5" font-family="Helvetica,sans-Serif" font-size="10.00">+</text>
<text text-anchor="start" x="17" y="-256.5" font-family="Helvetica,sans-Serif" font-size="10.00">getBackgroundRatio()</text>
<text text-anchor="start" x="4" y="-241.5" font-family="Helvetica,sans-Serif" font-size="10.00">+</text>
<text text-anchor="start" x="17" y="-241.5" font-family="Helvetica,sans-Serif" font-size="10.00">getComplexityReductionThreshold()</text>
<text text-anchor="start" x="4" y="-226.5" font-family="Helvetica,sans-Serif" font-size="10.00">+</text>
<text text-anchor="start" x="17" y="-226.5" font-family="Helvetica,sans-Serif" font-size="10.00">getDetectShadows()</text>
<text text-anchor="start" x="4" y="-211.5" font-family="Helvetica,sans-Serif" font-size="10.00">+</text>
<text text-anchor="start" x="17" y="-211.5" font-family="Helvetica,sans-Serif" font-size="10.00">getHistory()</text>
<text text-anchor="start" x="4" y="-196.5" font-family="Helvetica,sans-Serif" font-size="10.00">+</text>
<text text-anchor="start" x="17" y="-196.5" font-family="Helvetica,sans-Serif" font-size="10.00">getNMixtures()</text>
<text text-anchor="start" x="4" y="-181.5" font-family="Helvetica,sans-Serif" font-size="10.00">+</text>
<text text-anchor="start" x="17" y="-181.5" font-family="Helvetica,sans-Serif" font-size="10.00">getShadowThreshold()</text>
<text text-anchor="start" x="4" y="-166.5" font-family="Helvetica,sans-Serif" font-size="10.00">+</text>
<text text-anchor="start" x="17" y="-166.5" font-family="Helvetica,sans-Serif" font-size="10.00">getShadowValue()</text>
<text text-anchor="start" x="4" y="-151.5" font-family="Helvetica,sans-Serif" font-size="10.00">+</text>
<text text-anchor="start" x="17" y="-151.5" font-family="Helvetica,sans-Serif" font-size="10.00">getVarInit()</text>
<text text-anchor="start" x="4" y="-136.5" font-family="Helvetica,sans-Serif" font-size="10.00">+</text>
<text text-anchor="start" x="17" y="-136.5" font-family="Helvetica,sans-Serif" font-size="10.00">getVarMax()</text>
<text text-anchor="start" x="17" y="-121.5" font-family="Helvetica,sans-Serif" font-size="10.00">and 15 more...</text>
<polygon fill="#666666" stroke="#666666" points="0,-296.5 0,-296.5 198,-296.5 198,-296.5 0,-296.5"/>
<polygon fill="#666666" stroke="#666666" points="0,-281.5 0,-281.5 198,-281.5 198,-281.5 0,-281.5"/>
<polygon fill="none" stroke="#666666" points="0,-115 0,-314 198,-314 198,-115 0,-115"/>
</a>
</g>
</g>
<!-- Node2&#45;&gt;Node1 -->
<g id="edge1_Node000001_Node000002" class="edge">
<title>Node2&#45;&gt;Node1</title>
<g id="a_edge1_Node000001_Node000002"><a xlink:title=" ">
<path fill="none" stroke="#63b8ff" d="M99,-104.64C99,-95.69 99,-87.08 99,-79.23"/>
<polygon fill="none" stroke="#63b8ff" points="95.5,-104.87 99,-114.87 102.5,-104.87 95.5,-104.87"/>
</a>
</g>
</g>
<!-- Node3 -->
<g id="Node000003" class="node">
<title>Node3</title>
<g id="a_Node000003"><a xlink:href="../../d7/df6/classcv_1_1BackgroundSubtractor.html" target="_top" xlink:title="Base class for background/foreground segmentation. :">
<polygon fill="white" stroke="transparent" points="166.5,-414 31.5,-414 31.5,-350 166.5,-350 166.5,-414"/>
<text text-anchor="start" x="37" y="-402" font-family="Helvetica,sans-Serif" font-size="10.00">cv::BackgroundSubtractor</text>
<text text-anchor="start" x="97.5" y="-387" font-family="Helvetica,sans-Serif" font-size="10.00"> </text>
<text text-anchor="start" x="36.5" y="-372" font-family="Helvetica,sans-Serif" font-size="10.00">+</text>
<text text-anchor="start" x="50" y="-372" font-family="Helvetica,sans-Serif" font-size="10.00">apply()</text>
<text text-anchor="start" x="36.5" y="-357" font-family="Helvetica,sans-Serif" font-size="10.00">+</text>
<text text-anchor="start" x="50" y="-357" font-family="Helvetica,sans-Serif" font-size="10.00">getBackgroundImage()</text>
<polygon fill="#666666" stroke="#666666" points="32,-397 32,-397 167,-397 167,-397 32,-397"/>
<polygon fill="#666666" stroke="#666666" points="32,-382 32,-382 167,-382 167,-382 32,-382"/>
<polygon fill="none" stroke="#666666" points="31.5,-350 31.5,-414 166.5,-414 166.5,-350 31.5,-350"/>
</a>
</g>
</g>
<!-- Node3&#45;&gt;Node2 -->
<g id="edge2_Node000002_Node000003" class="edge">
<title>Node3&#45;&gt;Node2</title>
<g id="a_edge2_Node000002_Node000003"><a xlink:title=" ">
<path fill="none" stroke="#63b8ff" d="M99,-339.81C99,-331.82 99,-323.14 99,-314.19"/>
<polygon fill="none" stroke="#63b8ff" points="95.5,-339.87 99,-349.87 102.5,-339.87 95.5,-339.87"/>
</a>
</g>
</g>
<!-- Node4 -->
<g id="Node000004" class="node">
<title>Node4</title>
<g id="a_Node000004"><a xlink:href="../../d3/d46/classcv_1_1Algorithm.html" target="_top" xlink:title="This is a base class for all more or less complex algorithms in OpenCV.">
<polygon fill="white" stroke="transparent" points="154,-694 44,-694 44,-450 154,-450 154,-694"/>
<text text-anchor="start" x="66.5" y="-682" font-family="Helvetica,sans-Serif" font-size="10.00">cv::Algorithm</text>
<text text-anchor="start" x="97" y="-667" font-family="Helvetica,sans-Serif" font-size="10.00"> </text>
<text text-anchor="start" x="48" y="-652" font-family="Helvetica,sans-Serif" font-size="10.00">+</text>
<text text-anchor="start" x="61" y="-652" font-family="Helvetica,sans-Serif" font-size="10.00">Algorithm()</text>
<text text-anchor="start" x="48" y="-637" font-family="Helvetica,sans-Serif" font-size="10.00">+</text>
<text text-anchor="start" x="61" y="-637" font-family="Helvetica,sans-Serif" font-size="10.00">~Algorithm()</text>
<text text-anchor="start" x="48" y="-622" font-family="Helvetica,sans-Serif" font-size="10.00">+</text>
<text text-anchor="start" x="61" y="-622" font-family="Helvetica,sans-Serif" font-size="10.00">clear()</text>
<text text-anchor="start" x="48" y="-607" font-family="Helvetica,sans-Serif" font-size="10.00">+</text>
<text text-anchor="start" x="61" y="-607" font-family="Helvetica,sans-Serif" font-size="10.00">empty()</text>
<text text-anchor="start" x="48" y="-592" font-family="Helvetica,sans-Serif" font-size="10.00">+</text>
<text text-anchor="start" x="61" y="-592" font-family="Helvetica,sans-Serif" font-size="10.00">getDefaultName()</text>
<text text-anchor="start" x="48" y="-577" font-family="Helvetica,sans-Serif" font-size="10.00">+</text>
<text text-anchor="start" x="61" y="-577" font-family="Helvetica,sans-Serif" font-size="10.00">read()</text>
<text text-anchor="start" x="48" y="-562" font-family="Helvetica,sans-Serif" font-size="10.00">+</text>
<text text-anchor="start" x="61" y="-562" font-family="Helvetica,sans-Serif" font-size="10.00">save()</text>
<text text-anchor="start" x="48" y="-547" font-family="Helvetica,sans-Serif" font-size="10.00">+</text>
<text text-anchor="start" x="61" y="-547" font-family="Helvetica,sans-Serif" font-size="10.00">write()</text>
<text text-anchor="start" x="48" y="-532" font-family="Helvetica,sans-Serif" font-size="10.00">+</text>
<text text-anchor="start" x="61" y="-532" font-family="Helvetica,sans-Serif" font-size="10.00">write()</text>
<text text-anchor="start" x="48" y="-517" font-family="Helvetica,sans-Serif" font-size="10.00">+</text>
<text text-anchor="start" x="61" y="-517" font-family="Helvetica,sans-Serif" font-size="10.00">write()</text>
<text text-anchor="start" x="48" y="-502" font-family="Helvetica,sans-Serif" font-size="10.00">+</text>
<text text-anchor="start" x="61" y="-502" font-family="Helvetica,sans-Serif" font-size="10.00">load()</text>
<text text-anchor="start" x="48" y="-487" font-family="Helvetica,sans-Serif" font-size="10.00">+</text>
<text text-anchor="start" x="61" y="-487" font-family="Helvetica,sans-Serif" font-size="10.00">loadFromString()</text>
<text text-anchor="start" x="48" y="-472" font-family="Helvetica,sans-Serif" font-size="10.00">+</text>
<text text-anchor="start" x="61" y="-472" font-family="Helvetica,sans-Serif" font-size="10.00">read()</text>
<text text-anchor="start" x="48" y="-457" font-family="Helvetica,sans-Serif" font-size="10.00">#</text>
<text text-anchor="start" x="61" y="-457" font-family="Helvetica,sans-Serif" font-size="10.00">writeFormat()</text>
<polygon fill="#666666" stroke="#666666" points="44,-677 44,-677 154,-677 154,-677 44,-677"/>
<polygon fill="#666666" stroke="#666666" points="44,-662 44,-662 154,-662 154,-662 44,-662"/>
<polygon fill="none" stroke="#666666" points="44,-450 44,-694 154,-694 154,-450 44,-450"/>
</a>
</g>
</g>
<!-- Node4&#45;&gt;Node3 -->
<g id="edge3_Node000003_Node000004" class="edge">
<title>Node4&#45;&gt;Node3</title>
<g id="a_edge3_Node000003_Node000004"><a xlink:title=" ">
<path fill="none" stroke="#63b8ff" d="M99,-439.58C99,-430.33 99,-421.67 99,-414.03"/>
<polygon fill="none" stroke="#63b8ff" points="95.5,-439.81 99,-449.81 102.5,-439.81 95.5,-439.81"/>
</a>
</g>
</g>
</g>
</svg>
