<?xml version="1.0" encoding="UTF-8" standalone="no"?>
<!DOCTYPE svg PUBLIC "-//W3C//DTD SVG 1.1//EN"
 "http://www.w3.org/Graphics/SVG/1.1/DTD/svg11.dtd">
<!-- Generated by graphviz version 2.43.0 (0)
 -->
<!-- Title: opencv2/core/cuda/datamov_utils.hpp Pages: 1 -->
<svg width="362pt" height="148pt"
 viewBox="0.00 0.00 361.50 148.00" xmlns="http://www.w3.org/2000/svg" xmlns:xlink="http://www.w3.org/1999/xlink">
<g id="graph0" class="graph" transform="scale(1 1) rotate(0) translate(4 144)">
<title>opencv2/core/cuda/datamov_utils.hpp</title>
<!-- Node1 -->
<g id="Node000001" class="node">
<title>Node1</title>
<g id="a_Node000001"><a xlink:title=" ">
<polygon fill="#999999" stroke="#666666" points="248,-140 93,-140 93,-110 248,-110 248,-140"/>
<text text-anchor="start" x="101" y="-128" font-family="Helvetica,sans-Serif" font-size="10.00">opencv2/core/cuda/datamov</text>
<text text-anchor="middle" x="170.5" y="-117" font-family="Helvetica,sans-Serif" font-size="10.00">_utils.hpp</text>
</a>
</g>
</g>
<!-- Node2 -->
<g id="Node000002" class="node">
<title>Node2</title>
<g id="a_Node000002"><a xlink:href="../../df/dc3/cuda_2utility_8hpp.html" target="_top" xlink:title=" ">
<polygon fill="white" stroke="#666666" points="250,-74 91,-74 91,-55 250,-55 250,-74"/>
<text text-anchor="middle" x="170.5" y="-62" font-family="Helvetica,sans-Serif" font-size="10.00">opencv2/core/cuda/utility.hpp</text>
</a>
</g>
</g>
<!-- Node1&#45;&gt;Node2 -->
<g id="edge1_Node000001_Node000002" class="edge">
<title>Node1&#45;&gt;Node2</title>
<g id="a_edge1_Node000001_Node000002"><a xlink:title=" ">
<path fill="none" stroke="#63b8ff" d="M170.5,-99.75C170.5,-90.72 170.5,-81.03 170.5,-74.27"/>
<polygon fill="#63b8ff" stroke="#63b8ff" points="167,-99.84 170.5,-109.84 174,-99.84 167,-99.84"/>
</a>
</g>
</g>
<!-- Node3 -->
<g id="Node000003" class="node">
<title>Node3</title>
<g id="a_Node000003"><a xlink:href="../../d5/dc3/modules_2core_2include_2opencv2_2core_2cuda_2scan_8hpp.html" target="_top" xlink:title=" ">
<polygon fill="white" stroke="#666666" points="155,-19 0,-19 0,0 155,0 155,-19"/>
<text text-anchor="middle" x="77.5" y="-7" font-family="Helvetica,sans-Serif" font-size="10.00">opencv2/core/cuda/scan.hpp</text>
</a>
</g>
</g>
<!-- Node2&#45;&gt;Node3 -->
<g id="edge2_Node000002_Node000003" class="edge">
<title>Node2&#45;&gt;Node3</title>
<g id="a_edge2_Node000002_Node000003"><a xlink:title=" ">
<path fill="none" stroke="#63b8ff" d="M146.75,-49.97C129.75,-40.28 107.37,-27.52 92.71,-19.17"/>
<polygon fill="#63b8ff" stroke="#63b8ff" points="145.14,-53.07 155.56,-54.98 148.6,-46.99 145.14,-53.07"/>
</a>
</g>
</g>
<!-- Node4 -->
<g id="Node000004" class="node">
<title>Node4</title>
<g id="a_Node000004"><a xlink:href="../../da/da3/modules_2core_2include_2opencv2_2core_2cuda_2transform_8hpp.html" target="_top" xlink:title=" ">
<polygon fill="white" stroke="#666666" points="353.5,-19 173.5,-19 173.5,0 353.5,0 353.5,-19"/>
<text text-anchor="middle" x="263.5" y="-7" font-family="Helvetica,sans-Serif" font-size="10.00">opencv2/core/cuda/transform.hpp</text>
</a>
</g>
</g>
<!-- Node2&#45;&gt;Node4 -->
<g id="edge3_Node000002_Node000004" class="edge">
<title>Node2&#45;&gt;Node4</title>
<g id="a_edge3_Node000002_Node000004"><a xlink:title=" ">
<path fill="none" stroke="#63b8ff" d="M194.25,-49.97C211.25,-40.28 233.63,-27.52 248.29,-19.17"/>
<polygon fill="#63b8ff" stroke="#63b8ff" points="192.4,-46.99 185.44,-54.98 195.86,-53.07 192.4,-46.99"/>
</a>
</g>
</g>
</g>
</svg>
