<?xml version="1.0" encoding="UTF-8" standalone="no"?>
<!DOCTYPE svg PUBLIC "-//W3C//DTD SVG 1.1//EN"
 "http://www.w3.org/Graphics/SVG/1.1/DTD/svg11.dtd">
<!-- Generated by graphviz version 2.43.0 (0)
 -->
<!-- Title: cv::datasets::HPE_parseObj Pages: 1 -->
<svg width="212pt" height="250pt"
 viewBox="0.00 0.00 211.50 250.00" xmlns="http://www.w3.org/2000/svg" xmlns:xlink="http://www.w3.org/1999/xlink">
<g id="graph0" class="graph" transform="scale(1 1) rotate(0) translate(4 246)">
<title>cv::datasets::HPE_parseObj</title>
<!-- Node1 -->
<g id="Node000001" class="node">
<title>Node1</title>
<g id="a_Node000001"><a xlink:title=" ">
<polygon fill="#999999" stroke="transparent" points="158,-49 15,-49 15,0 158,0 158,-49"/>
<text text-anchor="start" x="20.5" y="-36.5" font-family="Helvetica,sans-Serif" font-size="10.00">cv::datasets::HPE_parseObj</text>
<text text-anchor="start" x="85" y="-21.5" font-family="Helvetica,sans-Serif" font-size="10.00"> </text>
<text text-anchor="start" x="85" y="-6.5" font-family="Helvetica,sans-Serif" font-size="10.00"> </text>
<polygon fill="#666666" stroke="#666666" points="15.5,-31.5 15.5,-31.5 158.5,-31.5 158.5,-31.5 15.5,-31.5"/>
<polygon fill="#666666" stroke="#666666" points="15.5,-16.5 15.5,-16.5 158.5,-16.5 158.5,-16.5 15.5,-16.5"/>
<polygon fill="none" stroke="#666666" points="15,0 15,-49 158,-49 158,0 15,0"/>
</a>
</g>
</g>
<!-- Node2 -->
<g id="Node000002" class="node">
<title>Node2</title>
<g id="a_Node000002"><a xlink:href="../../de/d47/structcv_1_1datasets_1_1Object.html" target="_top" xlink:title=" ">
<polygon fill="white" stroke="transparent" points="107,-145 0,-145 0,-96 107,-96 107,-145"/>
<text text-anchor="start" x="5.5" y="-132.5" font-family="Helvetica,sans-Serif" font-size="10.00">cv::datasets::Object</text>
<text text-anchor="start" x="52" y="-117.5" font-family="Helvetica,sans-Serif" font-size="10.00"> </text>
<text text-anchor="start" x="52" y="-102.5" font-family="Helvetica,sans-Serif" font-size="10.00"> </text>
<polygon fill="#666666" stroke="#666666" points="0.5,-127.5 0.5,-127.5 107.5,-127.5 107.5,-127.5 0.5,-127.5"/>
<polygon fill="#666666" stroke="#666666" points="0.5,-112.5 0.5,-112.5 107.5,-112.5 107.5,-112.5 0.5,-112.5"/>
<polygon fill="none" stroke="#666666" points="0,-96 0,-145 107,-145 107,-96 0,-96"/>
</a>
</g>
</g>
<!-- Node2&#45;&gt;Node1 -->
<g id="edge1_Node000001_Node000002" class="edge">
<title>Node2&#45;&gt;Node1</title>
<g id="a_edge1_Node000001_Node000002"><a xlink:title=" ">
<path fill="none" stroke="#63b8ff" d="M65.15,-86.32C69.45,-74.08 74.23,-60.46 78.18,-49.21"/>
<polygon fill="none" stroke="#63b8ff" points="61.84,-85.18 61.83,-95.78 68.44,-87.5 61.84,-85.18"/>
</a>
</g>
</g>
<!-- Node3 -->
<g id="Node000003" class="node">
<title>Node3</title>
<g id="a_Node000003"><a xlink:title=" ">
<polygon fill="white" stroke="transparent" points="184,-145 125,-145 125,-96 184,-96 184,-145"/>
<text text-anchor="start" x="130.5" y="-132.5" font-family="Helvetica,sans-Serif" font-size="10.00">std::string</text>
<text text-anchor="start" x="153" y="-117.5" font-family="Helvetica,sans-Serif" font-size="10.00"> </text>
<text text-anchor="start" x="153" y="-102.5" font-family="Helvetica,sans-Serif" font-size="10.00"> </text>
<polygon fill="#666666" stroke="#666666" points="125.5,-127.5 125.5,-127.5 184.5,-127.5 184.5,-127.5 125.5,-127.5"/>
<polygon fill="#666666" stroke="#666666" points="125.5,-112.5 125.5,-112.5 184.5,-112.5 184.5,-112.5 125.5,-112.5"/>
<polygon fill="none" stroke="#666666" points="125,-96 125,-145 184,-145 184,-96 125,-96"/>
</a>
</g>
</g>
<!-- Node3&#45;&gt;Node1 -->
<g id="edge2_Node000001_Node000003" class="edge">
<title>Node3&#45;&gt;Node1</title>
<g id="a_edge2_Node000001_Node000003"><a xlink:title=" ">
<path fill="none" stroke="#63b8ff" d="M137.34,-95.78C129.29,-84.65 119.55,-71.18 110.76,-59.03"/>
<polygon fill="none" stroke="#63b8ff" points="110.69,-58.94 103.93,-56.42 103.65,-49.21 110.41,-51.73 110.69,-58.94"/>
</a>
</g>
<text text-anchor="middle" x="142.5" y="-70" font-family="Helvetica,sans-Serif" font-size="10.00" fill="grey"> +name</text>
</g>
<!-- Node4 -->
<g id="Node000004" class="node">
<title>Node4</title>
<g id="a_Node000004"><a xlink:title=" ">
<polygon fill="white" stroke="transparent" points="203.5,-242 105.5,-242 105.5,-182 203.5,-182 203.5,-242"/>
<text text-anchor="start" x="110.5" y="-230" font-family="Helvetica,sans-Serif" font-size="10.00">std::basic_string&lt;</text>
<text text-anchor="start" x="136" y="-219" font-family="Helvetica,sans-Serif" font-size="10.00"> Char &gt;</text>
<text text-anchor="start" x="152.5" y="-204" font-family="Helvetica,sans-Serif" font-size="10.00"> </text>
<text text-anchor="start" x="152.5" y="-189" font-family="Helvetica,sans-Serif" font-size="10.00"> </text>
<polygon fill="#666666" stroke="#666666" points="105.5,-214 105.5,-214 203.5,-214 203.5,-214 105.5,-214"/>
<polygon fill="#666666" stroke="#666666" points="105.5,-199 105.5,-199 203.5,-199 203.5,-199 105.5,-199"/>
<polygon fill="none" stroke="#666666" points="105.5,-182 105.5,-242 203.5,-242 203.5,-182 105.5,-182"/>
</a>
</g>
</g>
<!-- Node4&#45;&gt;Node3 -->
<g id="edge3_Node000003_Node000004" class="edge">
<title>Node4&#45;&gt;Node3</title>
<g id="a_edge3_Node000003_Node000004"><a xlink:title=" ">
<path fill="none" stroke="#63b8ff" d="M154.5,-171.41C154.5,-162.47 154.5,-153.25 154.5,-145.21"/>
<polygon fill="none" stroke="#63b8ff" points="151,-171.69 154.5,-181.69 158,-171.69 151,-171.69"/>
</a>
</g>
</g>
</g>
</svg>
