<?xml version="1.0" encoding="UTF-8" standalone="no"?>
<!DOCTYPE svg PUBLIC "-//W3C//DTD SVG 1.1//EN"
 "http://www.w3.org/Graphics/SVG/1.1/DTD/svg11.dtd">
<!-- Generated by graphviz version 2.43.0 (0)
 -->
<!-- Title: opencv2/stitching/detail/matchers.hpp Pages: 1 -->
<svg width="308pt" height="159pt"
 viewBox="0.00 0.00 308.25 159.00" xmlns="http://www.w3.org/2000/svg" xmlns:xlink="http://www.w3.org/1999/xlink">
<g id="graph0" class="graph" transform="scale(1 1) rotate(0) translate(4 155)">
<title>opencv2/stitching/detail/matchers.hpp</title>
<!-- Node1 -->
<g id="Node000001" class="node">
<title>Node1</title>
<g id="a_Node000001"><a xlink:title=" ">
<polygon fill="#999999" stroke="#666666" points="148.25,-151 14.25,-151 14.25,-121 148.25,-121 148.25,-151"/>
<text text-anchor="start" x="22.25" y="-139" font-family="Helvetica,sans-Serif" font-size="10.00">opencv2/stitching/detail</text>
<text text-anchor="middle" x="81.25" y="-128" font-family="Helvetica,sans-Serif" font-size="10.00">/matchers.hpp</text>
</a>
</g>
</g>
<!-- Node2 -->
<g id="Node000002" class="node">
<title>Node2</title>
<g id="a_Node000002"><a xlink:href="../../dc/d7a/stitching_8hpp.html" target="_top" xlink:title=" ">
<polygon fill="white" stroke="#666666" points="171.25,-19 47.25,-19 47.25,0 171.25,0 171.25,-19"/>
<text text-anchor="middle" x="109.25" y="-7" font-family="Helvetica,sans-Serif" font-size="10.00">opencv2/stitching.hpp</text>
</a>
</g>
</g>
<!-- Node1&#45;&gt;Node2 -->
<g id="edge1_Node000001_Node000002" class="edge">
<title>Node1&#45;&gt;Node2</title>
<g id="a_edge1_Node000001_Node000002"><a xlink:title=" ">
<path fill="none" stroke="#63b8ff" d="M36.67,-115.81C24.25,-108.14 12.25,-97.98 5.25,-85 -1.07,-73.26 -2.09,-66.13 5.25,-55 17.64,-36.23 39.75,-25.35 60.41,-19.05"/>
<polygon fill="#63b8ff" stroke="#63b8ff" points="35.3,-119.06 45.73,-120.96 38.77,-112.98 35.3,-119.06"/>
</a>
</g>
</g>
<!-- Node3 -->
<g id="Node000003" class="node">
<title>Node3</title>
<g id="a_Node000003"><a xlink:href="../../d3/d45/autocalib_8hpp.html" target="_top" xlink:title=" ">
<polygon fill="white" stroke="#666666" points="148.25,-85 14.25,-85 14.25,-55 148.25,-55 148.25,-85"/>
<text text-anchor="start" x="22.25" y="-73" font-family="Helvetica,sans-Serif" font-size="10.00">opencv2/stitching/detail</text>
<text text-anchor="middle" x="81.25" y="-62" font-family="Helvetica,sans-Serif" font-size="10.00">/autocalib.hpp</text>
</a>
</g>
</g>
<!-- Node1&#45;&gt;Node3 -->
<g id="edge2_Node000001_Node000003" class="edge">
<title>Node1&#45;&gt;Node3</title>
<g id="a_edge2_Node000001_Node000003"><a xlink:title=" ">
<path fill="none" stroke="#63b8ff" d="M81.25,-110.54C81.25,-101.96 81.25,-92.61 81.25,-85.16"/>
<polygon fill="#63b8ff" stroke="#63b8ff" points="77.75,-110.8 81.25,-120.8 84.75,-110.8 77.75,-110.8"/>
</a>
</g>
</g>
<!-- Node4 -->
<g id="Node000004" class="node">
<title>Node4</title>
<g id="a_Node000004"><a xlink:href="../../d3/d73/motion__estimators_8hpp.html" target="_top" xlink:title=" ">
<polygon fill="white" stroke="#666666" points="300.25,-85 166.25,-85 166.25,-55 300.25,-55 300.25,-85"/>
<text text-anchor="start" x="174.25" y="-73" font-family="Helvetica,sans-Serif" font-size="10.00">opencv2/stitching/detail</text>
<text text-anchor="middle" x="233.25" y="-62" font-family="Helvetica,sans-Serif" font-size="10.00">/motion_estimators.hpp</text>
</a>
</g>
</g>
<!-- Node1&#45;&gt;Node4 -->
<g id="edge3_Node000001_Node000004" class="edge">
<title>Node1&#45;&gt;Node4</title>
<g id="a_edge3_Node000001_Node000004"><a xlink:title=" ">
<path fill="none" stroke="#63b8ff" d="M123.88,-117.05C147.96,-106.91 177.62,-94.43 199.97,-85.01"/>
<polygon fill="#63b8ff" stroke="#63b8ff" points="122.47,-113.85 114.61,-120.95 125.18,-120.3 122.47,-113.85"/>
</a>
</g>
</g>
<!-- Node4&#45;&gt;Node2 -->
<g id="edge4_Node000004_Node000002" class="edge">
<title>Node4&#45;&gt;Node2</title>
<g id="a_edge4_Node000004_Node000002"><a xlink:title=" ">
<path fill="none" stroke="#63b8ff" d="M194.32,-50.63C172.02,-40.11 145.07,-27.4 127.57,-19.14"/>
<polygon fill="#63b8ff" stroke="#63b8ff" points="193.01,-53.89 203.55,-54.99 196,-47.56 193.01,-53.89"/>
</a>
</g>
</g>
</g>
</svg>
