<?xml version="1.0" encoding="UTF-8" standalone="no"?>
<!DOCTYPE svg PUBLIC "-//W3C//DTD SVG 1.1//EN"
 "http://www.w3.org/Graphics/SVG/1.1/DTD/svg11.dtd">
<!-- Generated by graphviz version 2.43.0 (0)
 -->
<!-- Title: cv::xfeatures2d::BriefDescriptorExtractor Pages: 1 -->
<svg width="173pt" height="658pt"
 viewBox="0.00 0.00 173.00 658.00" xmlns="http://www.w3.org/2000/svg" xmlns:xlink="http://www.w3.org/1999/xlink">
<g id="graph0" class="graph" transform="scale(1 1) rotate(0) translate(4 654)">
<title>cv::xfeatures2d::BriefDescriptorExtractor</title>
<!-- Node1 -->
<g id="Node000001" class="node">
<title>Node1</title>
<g id="a_Node000001"><a xlink:title="Class for computing BRIEF descriptors described in &#160;.">
<polygon fill="#999999" stroke="transparent" points="165,-135 0,-135 0,0 165,0 165,-135"/>
<text text-anchor="start" x="5.5" y="-122.5" font-family="Helvetica,sans-Serif" font-size="10.00">cv::xfeatures2d::BriefDescriptor</text>
<text text-anchor="start" x="60.5" y="-111.5" font-family="Helvetica,sans-Serif" font-size="10.00">Extractor</text>
<text text-anchor="start" x="81" y="-96.5" font-family="Helvetica,sans-Serif" font-size="10.00"> </text>
<text text-anchor="start" x="16" y="-81.5" font-family="Helvetica,sans-Serif" font-size="10.00">+</text>
<text text-anchor="start" x="40.5" y="-81.5" font-family="Helvetica,sans-Serif" font-size="10.00">getDefaultName()</text>
<text text-anchor="start" x="16" y="-66.5" font-family="Helvetica,sans-Serif" font-size="10.00">+</text>
<text text-anchor="start" x="40.5" y="-66.5" font-family="Helvetica,sans-Serif" font-size="10.00">getDescriptorSize()</text>
<text text-anchor="start" x="16" y="-51.5" font-family="Helvetica,sans-Serif" font-size="10.00">+</text>
<text text-anchor="start" x="40.5" y="-51.5" font-family="Helvetica,sans-Serif" font-size="10.00">getUseOrientation()</text>
<text text-anchor="start" x="16" y="-36.5" font-family="Helvetica,sans-Serif" font-size="10.00">+</text>
<text text-anchor="start" x="40.5" y="-36.5" font-family="Helvetica,sans-Serif" font-size="10.00">setDescriptorSize()</text>
<text text-anchor="start" x="16" y="-21.5" font-family="Helvetica,sans-Serif" font-size="10.00">+</text>
<text text-anchor="start" x="40.5" y="-21.5" font-family="Helvetica,sans-Serif" font-size="10.00">setUseOrientation()</text>
<text text-anchor="start" x="16" y="-6.5" font-family="Helvetica,sans-Serif" font-size="10.00">+</text>
<text text-anchor="start" x="40.5" y="-6.5" font-family="Helvetica,sans-Serif" font-size="10.00">create()</text>
<polygon fill="#666666" stroke="#666666" points="0.5,-106.5 0.5,-106.5 165.5,-106.5 165.5,-106.5 0.5,-106.5"/>
<polygon fill="#666666" stroke="#666666" points="0.5,-91.5 0.5,-91.5 165.5,-91.5 165.5,-91.5 0.5,-91.5"/>
<polygon fill="none" stroke="#666666" points="0,0 0,-135 165,-135 165,0 0,0"/>
</a>
</g>
</g>
<!-- Node2 -->
<g id="Node000002" class="node">
<title>Node2</title>
<g id="a_Node000002"><a xlink:href="../../d0/d13/classcv_1_1Feature2D.html" target="_top" xlink:title="Abstract base class for 2D image feature detectors and descriptor extractors.">
<polygon fill="white" stroke="transparent" points="144,-370 21,-370 21,-171 144,-171 144,-370"/>
<text text-anchor="start" x="49.5" y="-357.5" font-family="Helvetica,sans-Serif" font-size="10.00">cv::Feature2D</text>
<text text-anchor="start" x="81" y="-342.5" font-family="Helvetica,sans-Serif" font-size="10.00"> </text>
<text text-anchor="start" x="25.5" y="-327.5" font-family="Helvetica,sans-Serif" font-size="10.00">+</text>
<text text-anchor="start" x="38.5" y="-327.5" font-family="Helvetica,sans-Serif" font-size="10.00">~Feature2D()</text>
<text text-anchor="start" x="25.5" y="-312.5" font-family="Helvetica,sans-Serif" font-size="10.00">+</text>
<text text-anchor="start" x="38.5" y="-312.5" font-family="Helvetica,sans-Serif" font-size="10.00">compute()</text>
<text text-anchor="start" x="25.5" y="-297.5" font-family="Helvetica,sans-Serif" font-size="10.00">+</text>
<text text-anchor="start" x="38.5" y="-297.5" font-family="Helvetica,sans-Serif" font-size="10.00">compute()</text>
<text text-anchor="start" x="25.5" y="-282.5" font-family="Helvetica,sans-Serif" font-size="10.00">+</text>
<text text-anchor="start" x="38.5" y="-282.5" font-family="Helvetica,sans-Serif" font-size="10.00">defaultNorm()</text>
<text text-anchor="start" x="25.5" y="-267.5" font-family="Helvetica,sans-Serif" font-size="10.00">+</text>
<text text-anchor="start" x="38.5" y="-267.5" font-family="Helvetica,sans-Serif" font-size="10.00">descriptorSize()</text>
<text text-anchor="start" x="25.5" y="-252.5" font-family="Helvetica,sans-Serif" font-size="10.00">+</text>
<text text-anchor="start" x="38.5" y="-252.5" font-family="Helvetica,sans-Serif" font-size="10.00">descriptorType()</text>
<text text-anchor="start" x="25.5" y="-237.5" font-family="Helvetica,sans-Serif" font-size="10.00">+</text>
<text text-anchor="start" x="38.5" y="-237.5" font-family="Helvetica,sans-Serif" font-size="10.00">detect()</text>
<text text-anchor="start" x="25.5" y="-222.5" font-family="Helvetica,sans-Serif" font-size="10.00">+</text>
<text text-anchor="start" x="38.5" y="-222.5" font-family="Helvetica,sans-Serif" font-size="10.00">detect()</text>
<text text-anchor="start" x="25.5" y="-207.5" font-family="Helvetica,sans-Serif" font-size="10.00">+</text>
<text text-anchor="start" x="38.5" y="-207.5" font-family="Helvetica,sans-Serif" font-size="10.00">detectAndCompute()</text>
<text text-anchor="start" x="25.5" y="-192.5" font-family="Helvetica,sans-Serif" font-size="10.00">+</text>
<text text-anchor="start" x="38.5" y="-192.5" font-family="Helvetica,sans-Serif" font-size="10.00">empty()</text>
<text text-anchor="start" x="38.5" y="-177.5" font-family="Helvetica,sans-Serif" font-size="10.00">and 7 more...</text>
<polygon fill="#666666" stroke="#666666" points="21.5,-352.5 21.5,-352.5 144.5,-352.5 144.5,-352.5 21.5,-352.5"/>
<polygon fill="#666666" stroke="#666666" points="21.5,-337.5 21.5,-337.5 144.5,-337.5 144.5,-337.5 21.5,-337.5"/>
<polygon fill="none" stroke="#666666" points="21,-171 21,-370 144,-370 144,-171 21,-171"/>
</a>
</g>
</g>
<!-- Node2&#45;&gt;Node1 -->
<g id="edge1_Node000001_Node000002" class="edge">
<title>Node2&#45;&gt;Node1</title>
<g id="a_edge1_Node000001_Node000002"><a xlink:title=" ">
<path fill="none" stroke="#63b8ff" d="M82.5,-160.55C82.5,-151.87 82.5,-143.28 82.5,-135.03"/>
<polygon fill="none" stroke="#63b8ff" points="79,-160.77 82.5,-170.77 86,-160.77 79,-160.77"/>
</a>
</g>
</g>
<!-- Node3 -->
<g id="Node000003" class="node">
<title>Node3</title>
<g id="a_Node000003"><a xlink:href="../../d3/d46/classcv_1_1Algorithm.html" target="_top" xlink:title="This is a base class for all more or less complex algorithms in OpenCV.">
<polygon fill="white" stroke="transparent" points="137.5,-650 27.5,-650 27.5,-406 137.5,-406 137.5,-650"/>
<text text-anchor="start" x="50" y="-638" font-family="Helvetica,sans-Serif" font-size="10.00">cv::Algorithm</text>
<text text-anchor="start" x="80.5" y="-623" font-family="Helvetica,sans-Serif" font-size="10.00"> </text>
<text text-anchor="start" x="31.5" y="-608" font-family="Helvetica,sans-Serif" font-size="10.00">+</text>
<text text-anchor="start" x="44.5" y="-608" font-family="Helvetica,sans-Serif" font-size="10.00">Algorithm()</text>
<text text-anchor="start" x="31.5" y="-593" font-family="Helvetica,sans-Serif" font-size="10.00">+</text>
<text text-anchor="start" x="44.5" y="-593" font-family="Helvetica,sans-Serif" font-size="10.00">~Algorithm()</text>
<text text-anchor="start" x="31.5" y="-578" font-family="Helvetica,sans-Serif" font-size="10.00">+</text>
<text text-anchor="start" x="44.5" y="-578" font-family="Helvetica,sans-Serif" font-size="10.00">clear()</text>
<text text-anchor="start" x="31.5" y="-563" font-family="Helvetica,sans-Serif" font-size="10.00">+</text>
<text text-anchor="start" x="44.5" y="-563" font-family="Helvetica,sans-Serif" font-size="10.00">empty()</text>
<text text-anchor="start" x="31.5" y="-548" font-family="Helvetica,sans-Serif" font-size="10.00">+</text>
<text text-anchor="start" x="44.5" y="-548" font-family="Helvetica,sans-Serif" font-size="10.00">getDefaultName()</text>
<text text-anchor="start" x="31.5" y="-533" font-family="Helvetica,sans-Serif" font-size="10.00">+</text>
<text text-anchor="start" x="44.5" y="-533" font-family="Helvetica,sans-Serif" font-size="10.00">read()</text>
<text text-anchor="start" x="31.5" y="-518" font-family="Helvetica,sans-Serif" font-size="10.00">+</text>
<text text-anchor="start" x="44.5" y="-518" font-family="Helvetica,sans-Serif" font-size="10.00">save()</text>
<text text-anchor="start" x="31.5" y="-503" font-family="Helvetica,sans-Serif" font-size="10.00">+</text>
<text text-anchor="start" x="44.5" y="-503" font-family="Helvetica,sans-Serif" font-size="10.00">write()</text>
<text text-anchor="start" x="31.5" y="-488" font-family="Helvetica,sans-Serif" font-size="10.00">+</text>
<text text-anchor="start" x="44.5" y="-488" font-family="Helvetica,sans-Serif" font-size="10.00">write()</text>
<text text-anchor="start" x="31.5" y="-473" font-family="Helvetica,sans-Serif" font-size="10.00">+</text>
<text text-anchor="start" x="44.5" y="-473" font-family="Helvetica,sans-Serif" font-size="10.00">write()</text>
<text text-anchor="start" x="31.5" y="-458" font-family="Helvetica,sans-Serif" font-size="10.00">+</text>
<text text-anchor="start" x="44.5" y="-458" font-family="Helvetica,sans-Serif" font-size="10.00">load()</text>
<text text-anchor="start" x="31.5" y="-443" font-family="Helvetica,sans-Serif" font-size="10.00">+</text>
<text text-anchor="start" x="44.5" y="-443" font-family="Helvetica,sans-Serif" font-size="10.00">loadFromString()</text>
<text text-anchor="start" x="31.5" y="-428" font-family="Helvetica,sans-Serif" font-size="10.00">+</text>
<text text-anchor="start" x="44.5" y="-428" font-family="Helvetica,sans-Serif" font-size="10.00">read()</text>
<text text-anchor="start" x="31.5" y="-413" font-family="Helvetica,sans-Serif" font-size="10.00">#</text>
<text text-anchor="start" x="44.5" y="-413" font-family="Helvetica,sans-Serif" font-size="10.00">writeFormat()</text>
<polygon fill="#666666" stroke="#666666" points="27.5,-633 27.5,-633 137.5,-633 137.5,-633 27.5,-633"/>
<polygon fill="#666666" stroke="#666666" points="27.5,-618 27.5,-618 137.5,-618 137.5,-618 27.5,-618"/>
<polygon fill="none" stroke="#666666" points="27.5,-406 27.5,-650 137.5,-650 137.5,-406 27.5,-406"/>
</a>
</g>
</g>
<!-- Node3&#45;&gt;Node2 -->
<g id="edge2_Node000002_Node000003" class="edge">
<title>Node3&#45;&gt;Node2</title>
<g id="a_edge2_Node000002_Node000003"><a xlink:title=" ">
<path fill="none" stroke="#63b8ff" d="M82.5,-395.85C82.5,-387.22 82.5,-378.62 82.5,-370.18"/>
<polygon fill="none" stroke="#63b8ff" points="79,-395.98 82.5,-405.98 86,-395.98 79,-395.98"/>
</a>
</g>
</g>
</g>
</svg>
