<?xml version="1.0" encoding="UTF-8" standalone="no"?>
<!DOCTYPE svg PUBLIC "-//W3C//DTD SVG 1.1//EN"
 "http://www.w3.org/Graphics/SVG/1.1/DTD/svg11.dtd">
<!-- Generated by graphviz version 2.43.0 (0)
 -->
<!-- Title: cv::linemod::DepthNormal Pages: 1 -->
<svg width="359pt" height="370pt"
 viewBox="0.00 0.00 359.00 370.00" xmlns="http://www.w3.org/2000/svg" xmlns:xlink="http://www.w3.org/1999/xlink">
<g id="graph0" class="graph" transform="scale(1 1) rotate(0) translate(4 366)">
<title>cv::linemod::DepthNormal</title>
<!-- Node1 -->
<g id="Node000001" class="node">
<title>Node1</title>
<g id="a_Node000001"><a xlink:title="Modality that computes quantized surface normals from a dense depth map.">
<polygon fill="#999999" stroke="transparent" points="215,-139 77,-139 77,0 215,0 215,-139"/>
<text text-anchor="start" x="82" y="-126.5" font-family="Helvetica,sans-Serif" font-size="10.00">cv::linemod::DepthNormal</text>
<text text-anchor="start" x="144" y="-111.5" font-family="Helvetica,sans-Serif" font-size="10.00"> </text>
<text text-anchor="start" x="92" y="-96.5" font-family="Helvetica,sans-Serif" font-size="10.00">+</text>
<text text-anchor="start" x="116" y="-96.5" font-family="Helvetica,sans-Serif" font-size="10.00">DepthNormal()</text>
<text text-anchor="start" x="92" y="-81.5" font-family="Helvetica,sans-Serif" font-size="10.00">+</text>
<text text-anchor="start" x="116" y="-81.5" font-family="Helvetica,sans-Serif" font-size="10.00">DepthNormal()</text>
<text text-anchor="start" x="92" y="-66.5" font-family="Helvetica,sans-Serif" font-size="10.00">+</text>
<text text-anchor="start" x="116" y="-66.5" font-family="Helvetica,sans-Serif" font-size="10.00">name()</text>
<text text-anchor="start" x="92" y="-51.5" font-family="Helvetica,sans-Serif" font-size="10.00">+</text>
<text text-anchor="start" x="116" y="-51.5" font-family="Helvetica,sans-Serif" font-size="10.00">read()</text>
<text text-anchor="start" x="92" y="-36.5" font-family="Helvetica,sans-Serif" font-size="10.00">+</text>
<text text-anchor="start" x="116" y="-36.5" font-family="Helvetica,sans-Serif" font-size="10.00">write()</text>
<text text-anchor="start" x="92" y="-21.5" font-family="Helvetica,sans-Serif" font-size="10.00">+</text>
<text text-anchor="start" x="116" y="-21.5" font-family="Helvetica,sans-Serif" font-size="10.00">create()</text>
<text text-anchor="start" x="92" y="-6.5" font-family="Helvetica,sans-Serif" font-size="10.00">#</text>
<text text-anchor="start" x="116" y="-6.5" font-family="Helvetica,sans-Serif" font-size="10.00">processImpl()</text>
<polygon fill="#666666" stroke="#666666" points="77,-121.5 77,-121.5 215,-121.5 215,-121.5 77,-121.5"/>
<polygon fill="#666666" stroke="#666666" points="77,-106.5 77,-106.5 215,-106.5 215,-106.5 77,-106.5"/>
<polygon fill="none" stroke="#666666" points="77,0 77,-139 215,-139 215,0 77,0"/>
</a>
</g>
</g>
<!-- Node2 -->
<g id="Node000002" class="node">
<title>Node2</title>
<g id="a_Node000002"><a xlink:href="../../d5/d1c/classcv_1_1linemod_1_1Modality.html" target="_top" xlink:title="Interface for modalities that plug into the LINE template matching representation.">
<polygon fill="white" stroke="transparent" points="116,-362 0,-362 0,-208 116,-208 116,-362"/>
<text text-anchor="start" x="5" y="-350" font-family="Helvetica,sans-Serif" font-size="10.00">cv::linemod::Modality</text>
<text text-anchor="start" x="56" y="-335" font-family="Helvetica,sans-Serif" font-size="10.00"> </text>
<text text-anchor="start" x="11" y="-320" font-family="Helvetica,sans-Serif" font-size="10.00">+</text>
<text text-anchor="start" x="31" y="-320" font-family="Helvetica,sans-Serif" font-size="10.00">~Modality()</text>
<text text-anchor="start" x="11" y="-305" font-family="Helvetica,sans-Serif" font-size="10.00">+</text>
<text text-anchor="start" x="31" y="-305" font-family="Helvetica,sans-Serif" font-size="10.00">name()</text>
<text text-anchor="start" x="11" y="-290" font-family="Helvetica,sans-Serif" font-size="10.00">+</text>
<text text-anchor="start" x="31" y="-290" font-family="Helvetica,sans-Serif" font-size="10.00">process()</text>
<text text-anchor="start" x="11" y="-275" font-family="Helvetica,sans-Serif" font-size="10.00">+</text>
<text text-anchor="start" x="31" y="-275" font-family="Helvetica,sans-Serif" font-size="10.00">read()</text>
<text text-anchor="start" x="11" y="-260" font-family="Helvetica,sans-Serif" font-size="10.00">+</text>
<text text-anchor="start" x="31" y="-260" font-family="Helvetica,sans-Serif" font-size="10.00">write()</text>
<text text-anchor="start" x="11" y="-245" font-family="Helvetica,sans-Serif" font-size="10.00">+</text>
<text text-anchor="start" x="31" y="-245" font-family="Helvetica,sans-Serif" font-size="10.00">create()</text>
<text text-anchor="start" x="11" y="-230" font-family="Helvetica,sans-Serif" font-size="10.00">+</text>
<text text-anchor="start" x="31" y="-230" font-family="Helvetica,sans-Serif" font-size="10.00">create()</text>
<text text-anchor="start" x="11" y="-215" font-family="Helvetica,sans-Serif" font-size="10.00">#</text>
<text text-anchor="start" x="31" y="-215" font-family="Helvetica,sans-Serif" font-size="10.00">processImpl()</text>
<polygon fill="#666666" stroke="#666666" points="0,-345 0,-345 116,-345 116,-345 0,-345"/>
<polygon fill="#666666" stroke="#666666" points="0,-330 0,-330 116,-330 116,-330 0,-330"/>
<polygon fill="none" stroke="#666666" points="0,-208 0,-362 116,-362 116,-208 0,-208"/>
</a>
</g>
</g>
<!-- Node2&#45;&gt;Node1 -->
<g id="edge1_Node000001_Node000002" class="edge">
<title>Node2&#45;&gt;Node1</title>
<g id="a_edge1_Node000001_Node000002"><a xlink:title=" ">
<path fill="none" stroke="#63b8ff" d="M93.22,-198.54C101.35,-178.82 109.9,-158.08 117.69,-139.18"/>
<polygon fill="none" stroke="#63b8ff" points="89.97,-197.25 89.4,-207.83 96.44,-199.91 89.97,-197.25"/>
</a>
</g>
</g>
<!-- Node3 -->
<g id="Node000003" class="node">
<title>Node3</title>
<g id="a_Node000003"><a xlink:title=" ">
<polygon fill="white" stroke="transparent" points="157.5,-309.5 134.5,-309.5 134.5,-260.5 157.5,-260.5 157.5,-309.5"/>
<text text-anchor="start" x="140" y="-297" font-family="Helvetica,sans-Serif" font-size="10.00">int</text>
<text text-anchor="start" x="144.5" y="-282" font-family="Helvetica,sans-Serif" font-size="10.00"> </text>
<text text-anchor="start" x="144.5" y="-267" font-family="Helvetica,sans-Serif" font-size="10.00"> </text>
<polygon fill="#666666" stroke="#666666" points="135,-292 135,-292 158,-292 158,-292 135,-292"/>
<polygon fill="#666666" stroke="#666666" points="135,-277 135,-277 158,-277 158,-277 135,-277"/>
<polygon fill="none" stroke="#666666" points="134.5,-260.5 134.5,-309.5 157.5,-309.5 157.5,-260.5 134.5,-260.5"/>
</a>
</g>
</g>
<!-- Node3&#45;&gt;Node1 -->
<g id="edge2_Node000001_Node000003" class="edge">
<title>Node3&#45;&gt;Node1</title>
<g id="a_edge2_Node000001_Node000003"><a xlink:title=" ">
<path fill="none" stroke="#63b8ff" d="M146,-260.34C146,-234.12 146,-190.42 146,-151.54"/>
<polygon fill="none" stroke="#63b8ff" points="146,-151.39 142,-145.39 146,-139.39 150,-145.39 146,-151.39"/>
</a>
</g>
<text text-anchor="middle" x="202" y="-182" font-family="Helvetica,sans-Serif" font-size="10.00" fill="grey"> +difference_threshold</text>
<text text-anchor="middle" x="202" y="-171" font-family="Helvetica,sans-Serif" font-size="10.00" fill="grey">+distance_threshold</text>
<text text-anchor="middle" x="202" y="-160" font-family="Helvetica,sans-Serif" font-size="10.00" fill="grey">+extract_threshold</text>
</g>
<!-- Node4 -->
<g id="Node000004" class="node">
<title>Node4</title>
<g id="a_Node000004"><a xlink:title=" ">
<polygon fill="white" stroke="transparent" points="300.5,-309.5 261.5,-309.5 261.5,-260.5 300.5,-260.5 300.5,-309.5"/>
<text text-anchor="start" x="267" y="-297" font-family="Helvetica,sans-Serif" font-size="10.00">size_t</text>
<text text-anchor="start" x="279.5" y="-282" font-family="Helvetica,sans-Serif" font-size="10.00"> </text>
<text text-anchor="start" x="279.5" y="-267" font-family="Helvetica,sans-Serif" font-size="10.00"> </text>
<polygon fill="#666666" stroke="#666666" points="262,-292 262,-292 301,-292 301,-292 262,-292"/>
<polygon fill="#666666" stroke="#666666" points="262,-277 262,-277 301,-277 301,-277 262,-277"/>
<polygon fill="none" stroke="#666666" points="261.5,-260.5 261.5,-309.5 300.5,-309.5 300.5,-260.5 261.5,-260.5"/>
</a>
</g>
</g>
<!-- Node4&#45;&gt;Node1 -->
<g id="edge3_Node000001_Node000004" class="edge">
<title>Node4&#45;&gt;Node1</title>
<g id="a_edge3_Node000001_Node000004"><a xlink:title=" ">
<path fill="none" stroke="#63b8ff" d="M281.89,-260.21C281.82,-233.27 278.36,-188.97 259,-157 250.2,-142.46 237.96,-129.49 224.78,-118.29"/>
<polygon fill="none" stroke="#63b8ff" points="224.39,-117.98 217.21,-117.33 215.05,-110.45 222.23,-111.1 224.39,-117.98"/>
</a>
</g>
<text text-anchor="middle" x="311.5" y="-171" font-family="Helvetica,sans-Serif" font-size="10.00" fill="grey"> +num_features</text>
</g>
</g>
</svg>
