<?xml version="1.0" encoding="UTF-8" standalone="no"?>
<!DOCTYPE svg PUBLIC "-//W3C//DTD SVG 1.1//EN"
 "http://www.w3.org/Graphics/SVG/1.1/DTD/svg11.dtd">
<!-- Generated by graphviz version 2.43.0 (0)
 -->
<!-- Title: cv::detail::AffineBestOf2NearestMatcher Pages: 1 -->
<svg width="579pt" height="544pt"
 viewBox="0.00 0.00 578.50 544.00" xmlns="http://www.w3.org/2000/svg" xmlns:xlink="http://www.w3.org/1999/xlink">
<g id="graph0" class="graph" transform="scale(1 1) rotate(0) translate(4 540)">
<title>cv::detail::AffineBestOf2NearestMatcher</title>
<!-- Node1 -->
<g id="Node000001" class="node">
<title>Node1</title>
<g id="a_Node000001"><a xlink:title="Features matcher similar to cv::detail::BestOf2NearestMatcher which finds two best matches for each f...">
<polygon fill="#999999" stroke="transparent" points="175,-75 0,-75 0,0 175,0 175,-75"/>
<text text-anchor="start" x="29" y="-62.5" font-family="Helvetica,sans-Serif" font-size="10.00">cv::detail::AffineBestOf2</text>
<text text-anchor="start" x="48.5" y="-51.5" font-family="Helvetica,sans-Serif" font-size="10.00">NearestMatcher</text>
<text text-anchor="start" x="86" y="-36.5" font-family="Helvetica,sans-Serif" font-size="10.00"> </text>
<text text-anchor="start" x="4.5" y="-21.5" font-family="Helvetica,sans-Serif" font-size="10.00">+</text>
<text text-anchor="start" x="17.5" y="-21.5" font-family="Helvetica,sans-Serif" font-size="10.00">AffineBestOf2NearestMatcher()</text>
<text text-anchor="start" x="4.5" y="-6.5" font-family="Helvetica,sans-Serif" font-size="10.00">#</text>
<text text-anchor="start" x="17.5" y="-6.5" font-family="Helvetica,sans-Serif" font-size="10.00">match()</text>
<polygon fill="#666666" stroke="#666666" points="0.5,-46.5 0.5,-46.5 175.5,-46.5 175.5,-46.5 0.5,-46.5"/>
<polygon fill="#666666" stroke="#666666" points="0.5,-31.5 0.5,-31.5 175.5,-31.5 175.5,-31.5 0.5,-31.5"/>
<polygon fill="none" stroke="#666666" points="0,0 0,-75 175,-75 175,0 0,0"/>
</a>
</g>
</g>
<!-- Node2 -->
<g id="Node000002" class="node">
<title>Node2</title>
<g id="a_Node000002"><a xlink:href="../../d4/d26/classcv_1_1detail_1_1BestOf2NearestMatcher.html" target="_top" xlink:title="Features matcher which finds two best matches for each feature and leaves the best one only if the ra...">
<polygon fill="white" stroke="transparent" points="296.5,-217 150.5,-217 150.5,-112 296.5,-112 296.5,-217"/>
<text text-anchor="start" x="159.5" y="-204.5" font-family="Helvetica,sans-Serif" font-size="10.00">cv::detail::BestOf2Nearest</text>
<text text-anchor="start" x="203.5" y="-193.5" font-family="Helvetica,sans-Serif" font-size="10.00">Matcher</text>
<text text-anchor="start" x="221.5" y="-178.5" font-family="Helvetica,sans-Serif" font-size="10.00"> </text>
<text text-anchor="start" x="154.5" y="-163.5" font-family="Helvetica,sans-Serif" font-size="10.00">+</text>
<text text-anchor="start" x="167.5" y="-163.5" font-family="Helvetica,sans-Serif" font-size="10.00">BestOf2NearestMatcher()</text>
<text text-anchor="start" x="154.5" y="-148.5" font-family="Helvetica,sans-Serif" font-size="10.00">+</text>
<text text-anchor="start" x="167.5" y="-148.5" font-family="Helvetica,sans-Serif" font-size="10.00">collectGarbage()</text>
<text text-anchor="start" x="154.5" y="-133.5" font-family="Helvetica,sans-Serif" font-size="10.00">+</text>
<text text-anchor="start" x="167.5" y="-133.5" font-family="Helvetica,sans-Serif" font-size="10.00">create()</text>
<text text-anchor="start" x="154.5" y="-118.5" font-family="Helvetica,sans-Serif" font-size="10.00">#</text>
<text text-anchor="start" x="167.5" y="-118.5" font-family="Helvetica,sans-Serif" font-size="10.00">match()</text>
<polygon fill="#666666" stroke="#666666" points="150.5,-188.5 150.5,-188.5 296.5,-188.5 296.5,-188.5 150.5,-188.5"/>
<polygon fill="#666666" stroke="#666666" points="150.5,-173.5 150.5,-173.5 296.5,-173.5 296.5,-173.5 150.5,-173.5"/>
<polygon fill="none" stroke="#666666" points="150.5,-112 150.5,-217 296.5,-217 296.5,-112 150.5,-112"/>
</a>
</g>
</g>
<!-- Node2&#45;&gt;Node1 -->
<g id="edge1_Node000001_Node000002" class="edge">
<title>Node2&#45;&gt;Node1</title>
<g id="a_edge1_Node000001_Node000002"><a xlink:title=" ">
<path fill="none" stroke="#63b8ff" d="M159.77,-104.93C148.7,-94.75 137.48,-84.43 127.28,-75.06"/>
<polygon fill="none" stroke="#63b8ff" points="157.67,-107.75 167.4,-111.94 162.4,-102.59 157.67,-107.75"/>
</a>
</g>
</g>
<!-- Node3 -->
<g id="Node000003" class="node">
<title>Node3</title>
<g id="a_Node000003"><a xlink:href="../../da/d87/classcv_1_1detail_1_1FeaturesMatcher.html" target="_top" xlink:title="Feature matchers base class.">
<polygon fill="white" stroke="transparent" points="211,-440 68,-440 68,-286 211,-286 211,-440"/>
<text text-anchor="start" x="73.5" y="-428" font-family="Helvetica,sans-Serif" font-size="10.00">cv::detail::FeaturesMatcher</text>
<text text-anchor="start" x="138" y="-413" font-family="Helvetica,sans-Serif" font-size="10.00"> </text>
<text text-anchor="start" x="78.5" y="-398" font-family="Helvetica,sans-Serif" font-size="10.00">+</text>
<text text-anchor="start" x="97.5" y="-398" font-family="Helvetica,sans-Serif" font-size="10.00">~FeaturesMatcher()</text>
<text text-anchor="start" x="78.5" y="-383" font-family="Helvetica,sans-Serif" font-size="10.00">+</text>
<text text-anchor="start" x="97.5" y="-383" font-family="Helvetica,sans-Serif" font-size="10.00">collectGarbage()</text>
<text text-anchor="start" x="78.5" y="-368" font-family="Helvetica,sans-Serif" font-size="10.00">+</text>
<text text-anchor="start" x="97.5" y="-368" font-family="Helvetica,sans-Serif" font-size="10.00">isThreadSafe()</text>
<text text-anchor="start" x="78.5" y="-353" font-family="Helvetica,sans-Serif" font-size="10.00">+</text>
<text text-anchor="start" x="97.5" y="-353" font-family="Helvetica,sans-Serif" font-size="10.00">operator()()</text>
<text text-anchor="start" x="78.5" y="-338" font-family="Helvetica,sans-Serif" font-size="10.00">+</text>
<text text-anchor="start" x="97.5" y="-338" font-family="Helvetica,sans-Serif" font-size="10.00">operator()()</text>
<text text-anchor="start" x="78.5" y="-323" font-family="Helvetica,sans-Serif" font-size="10.00">#</text>
<text text-anchor="start" x="97.5" y="-323" font-family="Helvetica,sans-Serif" font-size="10.00">FeaturesMatcher()</text>
<text text-anchor="start" x="78.5" y="-308" font-family="Helvetica,sans-Serif" font-size="10.00">#</text>
<text text-anchor="start" x="97.5" y="-308" font-family="Helvetica,sans-Serif" font-size="10.00">match()</text>
<text text-anchor="start" x="78.5" y="-293" font-family="Helvetica,sans-Serif" font-size="10.00">#</text>
<text text-anchor="start" x="97.5" y="-293" font-family="Helvetica,sans-Serif" font-size="10.00">match()</text>
<polygon fill="#666666" stroke="#666666" points="68.5,-423 68.5,-423 211.5,-423 211.5,-423 68.5,-423"/>
<polygon fill="#666666" stroke="#666666" points="68.5,-408 68.5,-408 211.5,-408 211.5,-408 68.5,-408"/>
<polygon fill="none" stroke="#666666" points="68,-286 68,-440 211,-440 211,-286 68,-286"/>
</a>
</g>
</g>
<!-- Node3&#45;&gt;Node2 -->
<g id="edge2_Node000002_Node000003" class="edge">
<title>Node3&#45;&gt;Node2</title>
<g id="a_edge2_Node000002_Node000003"><a xlink:title=" ">
<path fill="none" stroke="#63b8ff" d="M176.04,-276.51C184.69,-256.28 193.66,-235.31 201.43,-217.12"/>
<polygon fill="none" stroke="#63b8ff" points="172.81,-275.18 172.1,-285.75 179.25,-277.93 172.81,-275.18"/>
</a>
</g>
</g>
<!-- Node4 -->
<g id="Node000004" class="node">
<title>Node4</title>
<g id="a_Node000004"><a xlink:title=" ">
<polygon fill="white" stroke="transparent" points="71.5,-536 39.5,-536 39.5,-487 71.5,-487 71.5,-536"/>
<text text-anchor="start" x="44.5" y="-523.5" font-family="Helvetica,sans-Serif" font-size="10.00">bool</text>
<text text-anchor="start" x="53.5" y="-508.5" font-family="Helvetica,sans-Serif" font-size="10.00"> </text>
<text text-anchor="start" x="53.5" y="-493.5" font-family="Helvetica,sans-Serif" font-size="10.00"> </text>
<polygon fill="#666666" stroke="#666666" points="39.5,-518.5 39.5,-518.5 71.5,-518.5 71.5,-518.5 39.5,-518.5"/>
<polygon fill="#666666" stroke="#666666" points="39.5,-503.5 39.5,-503.5 71.5,-503.5 71.5,-503.5 39.5,-503.5"/>
<polygon fill="none" stroke="#666666" points="39.5,-487 39.5,-536 71.5,-536 71.5,-487 39.5,-487"/>
</a>
</g>
</g>
<!-- Node4&#45;&gt;Node1 -->
<g id="edge7_Node000001_Node000004" class="edge">
<title>Node4&#45;&gt;Node1</title>
<g id="a_edge7_Node000001_Node000004"><a xlink:title=" ">
<path fill="none" stroke="#63b8ff" d="M55.02,-486.87C54.35,-445.92 53.74,-359.13 58.5,-286 63.01,-216.75 73.25,-137.11 80.27,-87.29"/>
<polygon fill="none" stroke="#63b8ff" points="80.29,-87.17 77.18,-80.67 81.98,-75.29 85.1,-81.8 80.29,-87.17"/>
</a>
</g>
<text text-anchor="middle" x="95.5" y="-249" font-family="Helvetica,sans-Serif" font-size="10.00" fill="grey"> #full_affine_</text>
</g>
<!-- Node4&#45;&gt;Node3 -->
<g id="edge3_Node000003_Node000004" class="edge">
<title>Node4&#45;&gt;Node3</title>
<g id="a_edge3_Node000003_Node000004"><a xlink:title=" ">
<path fill="none" stroke="#63b8ff" d="M69,-486.96C74.85,-476.75 82.11,-464.1 89.71,-450.83"/>
<polygon fill="none" stroke="#63b8ff" points="89.9,-450.5 89.42,-443.31 95.87,-440.09 96.36,-447.29 89.9,-450.5"/>
</a>
</g>
<text text-anchor="middle" x="129.5" y="-461" font-family="Helvetica,sans-Serif" font-size="10.00" fill="grey"> #is_thread_safe_</text>
</g>
<!-- Node5 -->
<g id="Node000005" class="node">
<title>Node5</title>
<g id="a_Node000005"><a xlink:title=" ">
<polygon fill="white" stroke="transparent" points="252,-387.5 229,-387.5 229,-338.5 252,-338.5 252,-387.5"/>
<text text-anchor="start" x="234.5" y="-375" font-family="Helvetica,sans-Serif" font-size="10.00">int</text>
<text text-anchor="start" x="239" y="-360" font-family="Helvetica,sans-Serif" font-size="10.00"> </text>
<text text-anchor="start" x="239" y="-345" font-family="Helvetica,sans-Serif" font-size="10.00"> </text>
<polygon fill="#666666" stroke="#666666" points="229.5,-370 229.5,-370 252.5,-370 252.5,-370 229.5,-370"/>
<polygon fill="#666666" stroke="#666666" points="229.5,-355 229.5,-355 252.5,-355 252.5,-355 229.5,-355"/>
<polygon fill="none" stroke="#666666" points="229,-338.5 229,-387.5 252,-387.5 252,-338.5 229,-338.5"/>
</a>
</g>
</g>
<!-- Node5&#45;&gt;Node2 -->
<g id="edge4_Node000002_Node000005" class="edge">
<title>Node5&#45;&gt;Node2</title>
<g id="a_edge4_Node000002_Node000005"><a xlink:title=" ">
<path fill="none" stroke="#63b8ff" d="M235.37,-338.18C231.55,-319.26 226.65,-292.07 224.5,-268 223.38,-255.51 222.81,-242.13 222.55,-229.29"/>
<polygon fill="none" stroke="#63b8ff" points="222.55,-229.2 218.48,-223.25 222.41,-217.2 226.48,-223.15 222.55,-229.2"/>
</a>
</g>
<text text-anchor="start" x="224.5" y="-260" font-family="Helvetica,sans-Serif" font-size="10.00" fill="grey"> #num_matches_thresh1</text>
<text text-anchor="middle" x="287" y="-249" font-family="Helvetica,sans-Serif" font-size="10.00" fill="grey">_</text>
<text text-anchor="middle" x="287" y="-238" font-family="Helvetica,sans-Serif" font-size="10.00" fill="grey">#num_matches_thresh2_</text>
</g>
<!-- Node6 -->
<g id="Node000006" class="node">
<title>Node6</title>
<g id="a_Node000006"><a xlink:title=" ">
<polygon fill="white" stroke="transparent" points="393.5,-387.5 349.5,-387.5 349.5,-338.5 393.5,-338.5 393.5,-387.5"/>
<text text-anchor="start" x="354.5" y="-375" font-family="Helvetica,sans-Serif" font-size="10.00">double</text>
<text text-anchor="start" x="369.5" y="-360" font-family="Helvetica,sans-Serif" font-size="10.00"> </text>
<text text-anchor="start" x="369.5" y="-345" font-family="Helvetica,sans-Serif" font-size="10.00"> </text>
<polygon fill="#666666" stroke="#666666" points="349.5,-370 349.5,-370 393.5,-370 393.5,-370 349.5,-370"/>
<polygon fill="#666666" stroke="#666666" points="349.5,-355 349.5,-355 393.5,-355 393.5,-355 349.5,-355"/>
<polygon fill="none" stroke="#666666" points="349.5,-338.5 349.5,-387.5 393.5,-387.5 393.5,-338.5 349.5,-338.5"/>
</a>
</g>
</g>
<!-- Node6&#45;&gt;Node2 -->
<g id="edge5_Node000002_Node000006" class="edge">
<title>Node6&#45;&gt;Node2</title>
<g id="a_edge5_Node000002_Node000006"><a xlink:title=" ">
<path fill="none" stroke="#63b8ff" d="M373.22,-338.15C373.97,-310.74 371.32,-265.62 349.5,-235 338.68,-219.81 323.45,-207.57 307.31,-197.85"/>
<polygon fill="none" stroke="#63b8ff" points="307.07,-197.72 299.88,-198.25 296.61,-191.82 303.8,-191.28 307.07,-197.72"/>
</a>
</g>
<text text-anchor="start" x="364.5" y="-254.5" font-family="Helvetica,sans-Serif" font-size="10.00" fill="grey"> #matches_confindece</text>
<text text-anchor="middle" x="420.5" y="-243.5" font-family="Helvetica,sans-Serif" font-size="10.00" fill="grey">_thresh_</text>
</g>
<!-- Node7 -->
<g id="Node000007" class="node">
<title>Node7</title>
<g id="a_Node000007"><a xlink:title=" ">
<polygon fill="white" stroke="transparent" points="570.5,-393 442.5,-393 442.5,-333 570.5,-333 570.5,-393"/>
<text text-anchor="start" x="447.5" y="-381" font-family="Helvetica,sans-Serif" font-size="10.00">Ptr&lt; cv::detail::Features</text>
<text text-anchor="start" x="480.5" y="-370" font-family="Helvetica,sans-Serif" font-size="10.00">Matcher &gt;</text>
<text text-anchor="start" x="504.5" y="-355" font-family="Helvetica,sans-Serif" font-size="10.00"> </text>
<text text-anchor="start" x="504.5" y="-340" font-family="Helvetica,sans-Serif" font-size="10.00"> </text>
<polygon fill="#666666" stroke="#666666" points="442.5,-365 442.5,-365 570.5,-365 570.5,-365 442.5,-365"/>
<polygon fill="#666666" stroke="#666666" points="442.5,-350 442.5,-350 570.5,-350 570.5,-350 442.5,-350"/>
<polygon fill="none" stroke="#666666" points="442.5,-333 442.5,-393 570.5,-393 570.5,-333 442.5,-333"/>
</a>
</g>
</g>
<!-- Node7&#45;&gt;Node2 -->
<g id="edge6_Node000002_Node000007" class="edge">
<title>Node7&#45;&gt;Node2</title>
<g id="a_edge6_Node000002_Node000007"><a xlink:title=" ">
<path fill="none" stroke="#63b8ff" d="M508.68,-332.89C509.15,-304.29 505.16,-261.24 480.5,-235 456.96,-209.95 374.01,-190.55 308.64,-178.69"/>
<polygon fill="none" stroke="#63b8ff" points="308.47,-178.66 301.87,-181.55 296.66,-176.56 303.27,-173.67 308.47,-178.66"/>
</a>
</g>
<text text-anchor="middle" x="519" y="-249" font-family="Helvetica,sans-Serif" font-size="10.00" fill="grey"> #impl_</text>
</g>
</g>
</svg>
