<?xml version="1.0" encoding="UTF-8" standalone="no"?>
<!DOCTYPE svg PUBLIC "-//W3C//DTD SVG 1.1//EN"
 "http://www.w3.org/Graphics/SVG/1.1/DTD/svg11.dtd">
<!-- Generated by graphviz version 2.43.0 (0)
 -->
<!-- Title: cv::img_hash::BlockMeanHash Pages: 1 -->
<svg width="248pt" height="524pt"
 viewBox="0.00 0.00 248.00 524.00" xmlns="http://www.w3.org/2000/svg" xmlns:xlink="http://www.w3.org/1999/xlink">
<g id="graph0" class="graph" transform="scale(1 1) rotate(0) translate(4 520)">
<title>cv::img_hash::BlockMeanHash</title>
<!-- Node1 -->
<g id="Node000001" class="node">
<title>Node1</title>
<g id="a_Node000001"><a xlink:title="Image hash based on block mean.">
<polygon fill="#999999" stroke="transparent" points="198.5,-94 39.5,-94 39.5,0 198.5,0 198.5,-94"/>
<text text-anchor="start" x="45" y="-82" font-family="Helvetica,sans-Serif" font-size="10.00">cv::img_hash::BlockMeanHash</text>
<text text-anchor="start" x="117.5" y="-67" font-family="Helvetica,sans-Serif" font-size="10.00"> </text>
<text text-anchor="start" x="56.5" y="-52" font-family="Helvetica,sans-Serif" font-size="10.00">+</text>
<text text-anchor="start" x="82" y="-52" font-family="Helvetica,sans-Serif" font-size="10.00">getMean()</text>
<text text-anchor="start" x="56.5" y="-37" font-family="Helvetica,sans-Serif" font-size="10.00">+</text>
<text text-anchor="start" x="82" y="-37" font-family="Helvetica,sans-Serif" font-size="10.00">setMode()</text>
<text text-anchor="start" x="56.5" y="-22" font-family="Helvetica,sans-Serif" font-size="10.00">+</text>
<text text-anchor="start" x="82" y="-22" font-family="Helvetica,sans-Serif" font-size="10.00">create()</text>
<text text-anchor="start" x="56.5" y="-7" font-family="Helvetica,sans-Serif" font-size="10.00">#</text>
<text text-anchor="start" x="82" y="-7" font-family="Helvetica,sans-Serif" font-size="10.00">BlockMeanHash()</text>
<polygon fill="#666666" stroke="#666666" points="40,-77 40,-77 199,-77 199,-77 40,-77"/>
<polygon fill="#666666" stroke="#666666" points="40,-62 40,-62 199,-62 199,-62 40,-62"/>
<polygon fill="none" stroke="#666666" points="39.5,0 39.5,-94 198.5,-94 198.5,0 39.5,0"/>
</a>
</g>
</g>
<!-- Node2 -->
<g id="Node000002" class="node">
<title>Node2</title>
<g id="a_Node000002"><a xlink:href="../../de/d29/classcv_1_1img__hash_1_1ImgHashBase.html" target="_top" xlink:title="The base class for image hash algorithms.">
<polygon fill="white" stroke="transparent" points="193,-225 45,-225 45,-131 193,-131 193,-225"/>
<text text-anchor="start" x="50" y="-213" font-family="Helvetica,sans-Serif" font-size="10.00">cv::img_hash::ImgHashBase</text>
<text text-anchor="start" x="117" y="-198" font-family="Helvetica,sans-Serif" font-size="10.00"> </text>
<text text-anchor="start" x="59.5" y="-183" font-family="Helvetica,sans-Serif" font-size="10.00">+</text>
<text text-anchor="start" x="83" y="-183" font-family="Helvetica,sans-Serif" font-size="10.00">~ImgHashBase()</text>
<text text-anchor="start" x="59.5" y="-168" font-family="Helvetica,sans-Serif" font-size="10.00">+</text>
<text text-anchor="start" x="83" y="-168" font-family="Helvetica,sans-Serif" font-size="10.00">compare()</text>
<text text-anchor="start" x="59.5" y="-153" font-family="Helvetica,sans-Serif" font-size="10.00">+</text>
<text text-anchor="start" x="83" y="-153" font-family="Helvetica,sans-Serif" font-size="10.00">compute()</text>
<text text-anchor="start" x="59.5" y="-138" font-family="Helvetica,sans-Serif" font-size="10.00">#</text>
<text text-anchor="start" x="83" y="-138" font-family="Helvetica,sans-Serif" font-size="10.00">ImgHashBase()</text>
<polygon fill="#666666" stroke="#666666" points="45,-208 45,-208 193,-208 193,-208 45,-208"/>
<polygon fill="#666666" stroke="#666666" points="45,-193 45,-193 193,-193 193,-193 45,-193"/>
<polygon fill="none" stroke="#666666" points="45,-131 45,-225 193,-225 193,-131 45,-131"/>
</a>
</g>
</g>
<!-- Node2&#45;&gt;Node1 -->
<g id="edge1_Node000001_Node000002" class="edge">
<title>Node2&#45;&gt;Node1</title>
<g id="a_edge1_Node000001_Node000002"><a xlink:title=" ">
<path fill="none" stroke="#63b8ff" d="M119,-120.62C119,-111.83 119,-102.84 119,-94.32"/>
<polygon fill="none" stroke="#63b8ff" points="115.5,-120.79 119,-130.79 122.5,-120.79 115.5,-120.79"/>
</a>
</g>
</g>
<!-- Node3 -->
<g id="Node000003" class="node">
<title>Node3</title>
<g id="a_Node000003"><a xlink:href="../../d3/d46/classcv_1_1Algorithm.html" target="_top" xlink:title="This is a base class for all more or less complex algorithms in OpenCV.">
<polygon fill="white" stroke="transparent" points="110,-516 0,-516 0,-272 110,-272 110,-516"/>
<text text-anchor="start" x="22.5" y="-504" font-family="Helvetica,sans-Serif" font-size="10.00">cv::Algorithm</text>
<text text-anchor="start" x="53" y="-489" font-family="Helvetica,sans-Serif" font-size="10.00"> </text>
<text text-anchor="start" x="4" y="-474" font-family="Helvetica,sans-Serif" font-size="10.00">+</text>
<text text-anchor="start" x="17" y="-474" font-family="Helvetica,sans-Serif" font-size="10.00">Algorithm()</text>
<text text-anchor="start" x="4" y="-459" font-family="Helvetica,sans-Serif" font-size="10.00">+</text>
<text text-anchor="start" x="17" y="-459" font-family="Helvetica,sans-Serif" font-size="10.00">~Algorithm()</text>
<text text-anchor="start" x="4" y="-444" font-family="Helvetica,sans-Serif" font-size="10.00">+</text>
<text text-anchor="start" x="17" y="-444" font-family="Helvetica,sans-Serif" font-size="10.00">clear()</text>
<text text-anchor="start" x="4" y="-429" font-family="Helvetica,sans-Serif" font-size="10.00">+</text>
<text text-anchor="start" x="17" y="-429" font-family="Helvetica,sans-Serif" font-size="10.00">empty()</text>
<text text-anchor="start" x="4" y="-414" font-family="Helvetica,sans-Serif" font-size="10.00">+</text>
<text text-anchor="start" x="17" y="-414" font-family="Helvetica,sans-Serif" font-size="10.00">getDefaultName()</text>
<text text-anchor="start" x="4" y="-399" font-family="Helvetica,sans-Serif" font-size="10.00">+</text>
<text text-anchor="start" x="17" y="-399" font-family="Helvetica,sans-Serif" font-size="10.00">read()</text>
<text text-anchor="start" x="4" y="-384" font-family="Helvetica,sans-Serif" font-size="10.00">+</text>
<text text-anchor="start" x="17" y="-384" font-family="Helvetica,sans-Serif" font-size="10.00">save()</text>
<text text-anchor="start" x="4" y="-369" font-family="Helvetica,sans-Serif" font-size="10.00">+</text>
<text text-anchor="start" x="17" y="-369" font-family="Helvetica,sans-Serif" font-size="10.00">write()</text>
<text text-anchor="start" x="4" y="-354" font-family="Helvetica,sans-Serif" font-size="10.00">+</text>
<text text-anchor="start" x="17" y="-354" font-family="Helvetica,sans-Serif" font-size="10.00">write()</text>
<text text-anchor="start" x="4" y="-339" font-family="Helvetica,sans-Serif" font-size="10.00">+</text>
<text text-anchor="start" x="17" y="-339" font-family="Helvetica,sans-Serif" font-size="10.00">write()</text>
<text text-anchor="start" x="4" y="-324" font-family="Helvetica,sans-Serif" font-size="10.00">+</text>
<text text-anchor="start" x="17" y="-324" font-family="Helvetica,sans-Serif" font-size="10.00">load()</text>
<text text-anchor="start" x="4" y="-309" font-family="Helvetica,sans-Serif" font-size="10.00">+</text>
<text text-anchor="start" x="17" y="-309" font-family="Helvetica,sans-Serif" font-size="10.00">loadFromString()</text>
<text text-anchor="start" x="4" y="-294" font-family="Helvetica,sans-Serif" font-size="10.00">+</text>
<text text-anchor="start" x="17" y="-294" font-family="Helvetica,sans-Serif" font-size="10.00">read()</text>
<text text-anchor="start" x="4" y="-279" font-family="Helvetica,sans-Serif" font-size="10.00">#</text>
<text text-anchor="start" x="17" y="-279" font-family="Helvetica,sans-Serif" font-size="10.00">writeFormat()</text>
<polygon fill="#666666" stroke="#666666" points="0,-499 0,-499 110,-499 110,-499 0,-499"/>
<polygon fill="#666666" stroke="#666666" points="0,-484 0,-484 110,-484 110,-484 0,-484"/>
<polygon fill="none" stroke="#666666" points="0,-272 0,-516 110,-516 110,-272 0,-272"/>
</a>
</g>
</g>
<!-- Node3&#45;&gt;Node2 -->
<g id="edge2_Node000002_Node000003" class="edge">
<title>Node3&#45;&gt;Node2</title>
<g id="a_edge2_Node000002_Node000003"><a xlink:title=" ">
<path fill="none" stroke="#63b8ff" d="M94.11,-262.24C98.05,-249.04 101.85,-236.35 105.23,-225.03"/>
<polygon fill="none" stroke="#63b8ff" points="90.72,-261.35 91.21,-271.93 97.43,-263.35 90.72,-261.35"/>
</a>
</g>
</g>
<!-- Node4 -->
<g id="Node000004" class="node">
<title>Node4</title>
<g id="a_Node000004"><a xlink:title=" ">
<polygon fill="white" stroke="transparent" points="240,-418.5 128,-418.5 128,-369.5 240,-369.5 240,-418.5"/>
<text text-anchor="start" x="133" y="-406" font-family="Helvetica,sans-Serif" font-size="10.00">Ptr&lt; ImgHashImpl &gt;</text>
<text text-anchor="start" x="182" y="-391" font-family="Helvetica,sans-Serif" font-size="10.00"> </text>
<text text-anchor="start" x="182" y="-376" font-family="Helvetica,sans-Serif" font-size="10.00"> </text>
<polygon fill="#666666" stroke="#666666" points="128,-401 128,-401 240,-401 240,-401 128,-401"/>
<polygon fill="#666666" stroke="#666666" points="128,-386 128,-386 240,-386 240,-386 128,-386"/>
<polygon fill="none" stroke="#666666" points="128,-369.5 128,-418.5 240,-418.5 240,-369.5 128,-369.5"/>
</a>
</g>
</g>
<!-- Node4&#45;&gt;Node2 -->
<g id="edge3_Node000002_Node000004" class="edge">
<title>Node4&#45;&gt;Node2</title>
<g id="a_edge3_Node000002_Node000004"><a xlink:title=" ">
<path fill="none" stroke="#63b8ff" d="M176.8,-369.28C167.17,-337.58 149.79,-280.36 136.59,-236.92"/>
<polygon fill="none" stroke="#63b8ff" points="136.57,-236.83 130.99,-232.25 133.08,-225.35 138.65,-229.93 136.57,-236.83"/>
</a>
</g>
<text text-anchor="middle" x="161" y="-246" font-family="Helvetica,sans-Serif" font-size="10.00" fill="grey"> #pImpl</text>
</g>
</g>
</svg>
