<?xml version="1.0" encoding="UTF-8" standalone="no"?>
<!DOCTYPE svg PUBLIC "-//W3C//DTD SVG 1.1//EN"
 "http://www.w3.org/Graphics/SVG/1.1/DTD/svg11.dtd">
<!-- Generated by graphviz version 2.43.0 (0)
 -->
<!-- Title: opencv2/videostab/fast_marching_inl.hpp Pages: 1 -->
<svg width="190pt" height="269pt"
 viewBox="0.00 0.00 190.00 269.00" xmlns="http://www.w3.org/2000/svg" xmlns:xlink="http://www.w3.org/1999/xlink">
<g id="graph0" class="graph" transform="scale(1 1) rotate(0) translate(4 265)">
<title>opencv2/videostab/fast_marching_inl.hpp</title>
<!-- Node1 -->
<g id="Node000001" class="node">
<title>Node1</title>
<g id="a_Node000001"><a xlink:title=" ">
<polygon fill="#999999" stroke="#666666" points="156.5,-261 25.5,-261 25.5,-231 156.5,-231 156.5,-261"/>
<text text-anchor="start" x="33.5" y="-249" font-family="Helvetica,sans-Serif" font-size="10.00">opencv2/videostab/fast</text>
<text text-anchor="middle" x="91" y="-238" font-family="Helvetica,sans-Serif" font-size="10.00">_marching_inl.hpp</text>
</a>
</g>
</g>
<!-- Node2 -->
<g id="Node000002" class="node">
<title>Node2</title>
<g id="a_Node000002"><a xlink:href="../../df/d48/fast__marching_8hpp.html" target="_top" xlink:title=" ">
<polygon fill="white" stroke="#666666" points="156.5,-195 25.5,-195 25.5,-165 156.5,-165 156.5,-195"/>
<text text-anchor="start" x="33.5" y="-183" font-family="Helvetica,sans-Serif" font-size="10.00">opencv2/videostab/fast</text>
<text text-anchor="middle" x="91" y="-172" font-family="Helvetica,sans-Serif" font-size="10.00">_marching.hpp</text>
</a>
</g>
</g>
<!-- Node1&#45;&gt;Node2 -->
<g id="edge1_Node000001_Node000002" class="edge">
<title>Node1&#45;&gt;Node2</title>
<g id="a_edge1_Node000001_Node000002"><a xlink:title=" ">
<path fill="none" stroke="#63b8ff" d="M84.43,-220.83C84.02,-212.17 84.31,-202.7 85.29,-195.16"/>
<polygon fill="#63b8ff" stroke="#63b8ff" points="80.95,-221.13 85.28,-230.8 87.92,-220.54 80.95,-221.13"/>
</a>
</g>
</g>
<!-- Node2&#45;&gt;Node1 -->
<g id="edge2_Node000002_Node000001" class="edge">
<title>Node2&#45;&gt;Node1</title>
<g id="a_edge2_Node000002_Node000001"><a xlink:title=" ">
<path fill="none" stroke="#63b8ff" d="M97.57,-205.13C97.98,-213.78 97.7,-223.26 96.72,-230.8"/>
<polygon fill="#63b8ff" stroke="#63b8ff" points="101.05,-204.83 96.71,-195.16 94.08,-205.43 101.05,-204.83"/>
</a>
</g>
</g>
<!-- Node3 -->
<g id="Node000003" class="node">
<title>Node3</title>
<g id="a_Node000003"><a xlink:href="../../dc/dc7/videostab_2include_2opencv2_2videostab_2inpainting_8hpp.html" target="_top" xlink:title=" ">
<polygon fill="white" stroke="#666666" points="182,-129 0,-129 0,-110 182,-110 182,-129"/>
<text text-anchor="middle" x="91" y="-117" font-family="Helvetica,sans-Serif" font-size="10.00">opencv2/videostab/inpainting.hpp</text>
</a>
</g>
</g>
<!-- Node2&#45;&gt;Node3 -->
<g id="edge3_Node000002_Node000003" class="edge">
<title>Node2&#45;&gt;Node3</title>
<g id="a_edge3_Node000002_Node000003"><a xlink:title=" ">
<path fill="none" stroke="#63b8ff" d="M91,-154.75C91,-145.72 91,-136.03 91,-129.27"/>
<polygon fill="#63b8ff" stroke="#63b8ff" points="87.5,-154.84 91,-164.84 94.5,-154.84 87.5,-154.84"/>
</a>
</g>
</g>
<!-- Node4 -->
<g id="Node000004" class="node">
<title>Node4</title>
<g id="a_Node000004"><a xlink:href="../../da/dde/stabilizer_8hpp.html" target="_top" xlink:title=" ">
<polygon fill="white" stroke="#666666" points="179.5,-74 2.5,-74 2.5,-55 179.5,-55 179.5,-74"/>
<text text-anchor="middle" x="91" y="-62" font-family="Helvetica,sans-Serif" font-size="10.00">opencv2/videostab/stabilizer.hpp</text>
</a>
</g>
</g>
<!-- Node3&#45;&gt;Node4 -->
<g id="edge4_Node000003_Node000004" class="edge">
<title>Node3&#45;&gt;Node4</title>
<g id="a_edge4_Node000003_Node000004"><a xlink:title=" ">
<path fill="none" stroke="#63b8ff" d="M91,-99.66C91,-90.93 91,-80.99 91,-74.09"/>
<polygon fill="#63b8ff" stroke="#63b8ff" points="87.5,-99.75 91,-109.75 94.5,-99.75 87.5,-99.75"/>
</a>
</g>
</g>
<!-- Node5 -->
<g id="Node000005" class="node">
<title>Node5</title>
<g id="a_Node000005"><a xlink:href="../../dd/d91/videostab_8hpp.html" target="_top" xlink:title=" ">
<polygon fill="white" stroke="#666666" points="156,-19 26,-19 26,0 156,0 156,-19"/>
<text text-anchor="middle" x="91" y="-7" font-family="Helvetica,sans-Serif" font-size="10.00">opencv2/videostab.hpp</text>
</a>
</g>
</g>
<!-- Node4&#45;&gt;Node5 -->
<g id="edge5_Node000004_Node000005" class="edge">
<title>Node4&#45;&gt;Node5</title>
<g id="a_edge5_Node000004_Node000005"><a xlink:title=" ">
<path fill="none" stroke="#63b8ff" d="M91,-44.66C91,-35.93 91,-25.99 91,-19.09"/>
<polygon fill="#63b8ff" stroke="#63b8ff" points="87.5,-44.75 91,-54.75 94.5,-44.75 87.5,-44.75"/>
</a>
</g>
</g>
</g>
</svg>
