<?xml version="1.0" encoding="UTF-8" standalone="no"?>
<!DOCTYPE svg PUBLIC "-//W3C//DTD SVG 1.1//EN"
 "http://www.w3.org/Graphics/SVG/1.1/DTD/svg11.dtd">
<!-- Generated by graphviz version 2.43.0 (0)
 -->
<!-- Title: cv::gapi::onnx::ep::TensorRT Pages: 1 -->
<svg width="114pt" height="164pt"
 viewBox="0.00 0.00 114.00 164.00" xmlns="http://www.w3.org/2000/svg" xmlns:xlink="http://www.w3.org/1999/xlink">
<g id="graph0" class="graph" transform="scale(1 1) rotate(0) translate(4 160)">
<title>cv::gapi::onnx::ep::TensorRT</title>
<!-- Node1 -->
<g id="Node000001" class="node">
<title>Node1</title>
<g id="a_Node000001"><a xlink:title="This structure provides functions that fill inference options for TensorRT Execution Provider....">
<polygon fill="#999999" stroke="transparent" points="96,-60 0,-60 0,0 96,0 96,-60"/>
<text text-anchor="start" x="5" y="-48" font-family="Helvetica,sans-Serif" font-size="10.00">cv::gapi::onnx::ep</text>
<text text-anchor="start" x="23" y="-37" font-family="Helvetica,sans-Serif" font-size="10.00">::TensorRT</text>
<text text-anchor="start" x="46" y="-22" font-family="Helvetica,sans-Serif" font-size="10.00"> </text>
<text text-anchor="start" x="9.5" y="-7" font-family="Helvetica,sans-Serif" font-size="10.00">+</text>
<text text-anchor="start" x="28" y="-7" font-family="Helvetica,sans-Serif" font-size="10.00">TensorRT()</text>
<polygon fill="#666666" stroke="#666666" points="0,-32 0,-32 96,-32 96,-32 0,-32"/>
<polygon fill="#666666" stroke="#666666" points="0,-17 0,-17 96,-17 96,-17 0,-17"/>
<polygon fill="none" stroke="#666666" points="0,0 0,-60 96,-60 96,0 0,0"/>
</a>
</g>
</g>
<!-- Node2 -->
<g id="Node000002" class="node">
<title>Node2</title>
<g id="a_Node000002"><a xlink:title=" ">
<polygon fill="white" stroke="transparent" points="59.5,-156 36.5,-156 36.5,-107 59.5,-107 59.5,-156"/>
<text text-anchor="start" x="42" y="-143.5" font-family="Helvetica,sans-Serif" font-size="10.00">int</text>
<text text-anchor="start" x="46.5" y="-128.5" font-family="Helvetica,sans-Serif" font-size="10.00"> </text>
<text text-anchor="start" x="46.5" y="-113.5" font-family="Helvetica,sans-Serif" font-size="10.00"> </text>
<polygon fill="#666666" stroke="#666666" points="37,-138.5 37,-138.5 60,-138.5 60,-138.5 37,-138.5"/>
<polygon fill="#666666" stroke="#666666" points="37,-123.5 37,-123.5 60,-123.5 60,-123.5 37,-123.5"/>
<polygon fill="none" stroke="#666666" points="36.5,-107 36.5,-156 59.5,-156 59.5,-107 36.5,-107"/>
</a>
</g>
</g>
<!-- Node2&#45;&gt;Node1 -->
<g id="edge1_Node000001_Node000002" class="edge">
<title>Node2&#45;&gt;Node1</title>
<g id="a_edge1_Node000001_Node000002"><a xlink:title=" ">
<path fill="none" stroke="#63b8ff" d="M48,-106.92C48,-96.51 48,-83.97 48,-72.1"/>
<polygon fill="none" stroke="#63b8ff" points="48,-72.1 44,-66.1 48,-60.1 52,-66.1 48,-72.1"/>
</a>
</g>
<text text-anchor="middle" x="77" y="-81" font-family="Helvetica,sans-Serif" font-size="10.00" fill="grey"> +device_id</text>
</g>
</g>
</svg>
