<?xml version="1.0" encoding="UTF-8" standalone="no"?>
<!DOCTYPE svg PUBLIC "-//W3C//DTD SVG 1.1//EN"
 "http://www.w3.org/Graphics/SVG/1.1/DTD/svg11.dtd">
<!-- Generated by graphviz version 2.43.0 (0)
 -->
<!-- Title: opencv2/gapi/util/variant.hpp Pages: 1 -->
<svg width="724pt" height="148pt"
 viewBox="0.00 0.00 724.00 148.00" xmlns="http://www.w3.org/2000/svg" xmlns:xlink="http://www.w3.org/1999/xlink">
<g id="graph0" class="graph" transform="scale(1 1) rotate(0) translate(4 144)">
<title>opencv2/gapi/util/variant.hpp</title>
<!-- Node1 -->
<g id="Node000001" class="node">
<title>Node1</title>
<g id="a_Node000001"><a xlink:title=" ">
<polygon fill="#999999" stroke="#666666" points="327.5,-140 168.5,-140 168.5,-121 327.5,-121 327.5,-140"/>
<text text-anchor="middle" x="248" y="-128" font-family="Helvetica,sans-Serif" font-size="10.00">opencv2/gapi/util/variant.hpp</text>
</a>
</g>
</g>
<!-- Node2 -->
<g id="Node000002" class="node">
<title>Node2</title>
<g id="a_Node000002"><a xlink:title=" ">
<polygon fill="#e0e0e0" stroke="#999999" points="42,-79.5 0,-79.5 0,-60.5 42,-60.5 42,-79.5"/>
<text text-anchor="middle" x="21" y="-67.5" font-family="Helvetica,sans-Serif" font-size="10.00">array</text>
</a>
</g>
</g>
<!-- Node1&#45;&gt;Node2 -->
<g id="edge1_Node000001_Node000002" class="edge">
<title>Node1&#45;&gt;Node2</title>
<g id="a_edge1_Node000001_Node000002"><a xlink:title=" ">
<path fill="none" stroke="#63b8ff" d="M202.48,-120.99C163.24,-113.17 105.3,-100.47 56,-85 54.13,-84.41 52.21,-83.77 50.29,-83.09"/>
<polygon fill="#63b8ff" stroke="#63b8ff" points="51.39,-79.77 40.8,-79.53 48.93,-86.32 51.39,-79.77"/>
</a>
</g>
</g>
<!-- Node3 -->
<g id="Node000003" class="node">
<title>Node3</title>
<g id="a_Node000003"><a xlink:title=" ">
<polygon fill="#e0e0e0" stroke="#999999" points="232.5,-19 163.5,-19 163.5,0 232.5,0 232.5,-19"/>
<text text-anchor="middle" x="198" y="-7" font-family="Helvetica,sans-Serif" font-size="10.00">type_traits</text>
</a>
</g>
</g>
<!-- Node1&#45;&gt;Node3 -->
<g id="edge2_Node000001_Node000003" class="edge">
<title>Node1&#45;&gt;Node3</title>
<g id="a_edge2_Node000001_Node000003"><a xlink:title=" ">
<path fill="none" stroke="#63b8ff" d="M191.33,-121C150.9,-113.63 101.56,-101.56 89,-85 80.94,-74.38 81.56,-66.07 89,-55 103.41,-33.55 130.18,-22.43 153.58,-16.67"/>
<polygon fill="#63b8ff" stroke="#63b8ff" points="154.34,-20.09 163.35,-14.52 152.83,-13.25 154.34,-20.09"/>
</a>
</g>
</g>
<!-- Node4 -->
<g id="Node000004" class="node">
<title>Node4</title>
<g id="a_Node000004"><a xlink:href="../../d6/d2e/compiler__hints_8hpp.html" target="_top" xlink:title=" ">
<polygon fill="white" stroke="#666666" points="244,-85 98,-85 98,-55 244,-55 244,-85"/>
<text text-anchor="start" x="106" y="-73" font-family="Helvetica,sans-Serif" font-size="10.00">opencv2/gapi/util/compiler</text>
<text text-anchor="middle" x="171" y="-62" font-family="Helvetica,sans-Serif" font-size="10.00">_hints.hpp</text>
</a>
</g>
</g>
<!-- Node1&#45;&gt;Node4 -->
<g id="edge3_Node000001_Node000004" class="edge">
<title>Node1&#45;&gt;Node4</title>
<g id="a_edge3_Node000001_Node000004"><a xlink:title=" ">
<path fill="none" stroke="#63b8ff" d="M236.64,-120.87C226.38,-113.08 210.9,-101.32 197.55,-91.17"/>
<polygon fill="#63b8ff" stroke="#63b8ff" points="199.66,-88.38 189.58,-85.11 195.42,-93.95 199.66,-88.38"/>
</a>
</g>
</g>
<!-- Node5 -->
<g id="Node000005" class="node">
<title>Node5</title>
<g id="a_Node000005"><a xlink:href="../../d6/dd8/throw_8hpp.html" target="_top" xlink:title=" ">
<polygon fill="white" stroke="#666666" points="558,-79.5 406,-79.5 406,-60.5 558,-60.5 558,-79.5"/>
<text text-anchor="middle" x="482" y="-67.5" font-family="Helvetica,sans-Serif" font-size="10.00">opencv2/gapi/util/throw.hpp</text>
</a>
</g>
</g>
<!-- Node1&#45;&gt;Node5 -->
<g id="edge4_Node000001_Node000005" class="edge">
<title>Node1&#45;&gt;Node5</title>
<g id="a_edge4_Node000001_Node000005"><a xlink:title=" ">
<path fill="none" stroke="#63b8ff" d="M282.03,-120.99C323.27,-110.68 392.86,-93.28 438.11,-81.97"/>
<polygon fill="#63b8ff" stroke="#63b8ff" points="439.08,-85.34 447.93,-79.52 437.38,-78.55 439.08,-85.34"/>
</a>
</g>
</g>
<!-- Node9 -->
<g id="Node000009" class="node">
<title>Node9</title>
<g id="a_Node000009"><a xlink:href="../../d1/d59/modules_2gapi_2include_2opencv2_2gapi_2util_2util_8hpp.html" target="_top" xlink:title=" ">
<polygon fill="white" stroke="#666666" points="716,-79.5 576,-79.5 576,-60.5 716,-60.5 716,-79.5"/>
<text text-anchor="middle" x="646" y="-67.5" font-family="Helvetica,sans-Serif" font-size="10.00">opencv2/gapi/util/util.hpp</text>
</a>
</g>
</g>
<!-- Node1&#45;&gt;Node9 -->
<g id="edge8_Node000001_Node000009" class="edge">
<title>Node1&#45;&gt;Node9</title>
<g id="a_edge8_Node000001_Node000009"><a xlink:title=" ">
<path fill="none" stroke="#63b8ff" d="M314.39,-120.96C378.99,-112.48 479.87,-98.79 567,-85 574.37,-83.83 582.11,-82.54 589.74,-81.23"/>
<polygon fill="#63b8ff" stroke="#63b8ff" points="590.43,-84.66 599.68,-79.5 589.23,-77.77 590.43,-84.66"/>
</a>
</g>
</g>
<!-- Node11 -->
<g id="Node000011" class="node">
<title>Node11</title>
<g id="a_Node000011"><a xlink:href="../../df/d0f/modules_2gapi_2include_2opencv2_2gapi_2util_2type__traits_8hpp.html" target="_top" xlink:title=" ">
<polygon fill="white" stroke="#666666" points="387.5,-85 262.5,-85 262.5,-55 387.5,-55 387.5,-85"/>
<text text-anchor="start" x="270.5" y="-73" font-family="Helvetica,sans-Serif" font-size="10.00">opencv2/gapi/util/type</text>
<text text-anchor="middle" x="325" y="-62" font-family="Helvetica,sans-Serif" font-size="10.00">_traits.hpp</text>
</a>
</g>
</g>
<!-- Node1&#45;&gt;Node11 -->
<g id="edge10_Node000001_Node000011" class="edge">
<title>Node1&#45;&gt;Node11</title>
<g id="a_edge10_Node000001_Node000011"><a xlink:title=" ">
<path fill="none" stroke="#63b8ff" d="M259.36,-120.87C269.62,-113.08 285.1,-101.32 298.45,-91.17"/>
<polygon fill="#63b8ff" stroke="#63b8ff" points="300.58,-93.95 306.42,-85.11 296.34,-88.38 300.58,-93.95"/>
</a>
</g>
</g>
<!-- Node6 -->
<g id="Node000006" class="node">
<title>Node6</title>
<g id="a_Node000006"><a xlink:title=" ">
<polygon fill="#e0e0e0" stroke="#999999" points="437.5,-19 392.5,-19 392.5,0 437.5,0 437.5,-19"/>
<text text-anchor="middle" x="415" y="-7" font-family="Helvetica,sans-Serif" font-size="10.00">utility</text>
</a>
</g>
</g>
<!-- Node5&#45;&gt;Node6 -->
<g id="edge5_Node000005_Node000006" class="edge">
<title>Node5&#45;&gt;Node6</title>
<g id="a_edge5_Node000005_Node000006"><a xlink:title=" ">
<path fill="none" stroke="#63b8ff" d="M472.11,-60.37C461.72,-51.3 445.16,-36.84 432.55,-25.82"/>
<polygon fill="#63b8ff" stroke="#63b8ff" points="434.76,-23.11 424.93,-19.17 430.16,-28.38 434.76,-23.11"/>
</a>
</g>
</g>
<!-- Node7 -->
<g id="Node000007" class="node">
<title>Node7</title>
<g id="a_Node000007"><a xlink:title=" ">
<polygon fill="#e0e0e0" stroke="#999999" points="508.5,-19 455.5,-19 455.5,0 508.5,0 508.5,-19"/>
<text text-anchor="middle" x="482" y="-7" font-family="Helvetica,sans-Serif" font-size="10.00">stdlib.h</text>
</a>
</g>
</g>
<!-- Node5&#45;&gt;Node7 -->
<g id="edge6_Node000005_Node000007" class="edge">
<title>Node5&#45;&gt;Node7</title>
<g id="a_edge6_Node000005_Node000007"><a xlink:title=" ">
<path fill="none" stroke="#63b8ff" d="M482,-60.37C482,-52.25 482,-39.81 482,-29.39"/>
<polygon fill="#63b8ff" stroke="#63b8ff" points="485.5,-29.17 482,-19.17 478.5,-29.17 485.5,-29.17"/>
</a>
</g>
</g>
<!-- Node8 -->
<g id="Node000008" class="node">
<title>Node8</title>
<g id="a_Node000008"><a xlink:title=" ">
<polygon fill="#e0e0e0" stroke="#999999" points="577,-19 527,-19 527,0 577,0 577,-19"/>
<text text-anchor="middle" x="552" y="-7" font-family="Helvetica,sans-Serif" font-size="10.00">stdio.h</text>
</a>
</g>
</g>
<!-- Node5&#45;&gt;Node8 -->
<g id="edge7_Node000005_Node000008" class="edge">
<title>Node5&#45;&gt;Node8</title>
<g id="a_edge7_Node000005_Node000008"><a xlink:title=" ">
<path fill="none" stroke="#63b8ff" d="M492.33,-60.37C503.19,-51.3 520.49,-36.84 533.67,-25.82"/>
<polygon fill="#63b8ff" stroke="#63b8ff" points="536.2,-28.27 541.63,-19.17 531.71,-22.89 536.2,-28.27"/>
</a>
</g>
</g>
<!-- Node10 -->
<g id="Node000010" class="node">
<title>Node10</title>
<g id="a_Node000010"><a xlink:title=" ">
<polygon fill="#e0e0e0" stroke="#999999" points="666.5,-19 625.5,-19 625.5,0 666.5,0 666.5,-19"/>
<text text-anchor="middle" x="646" y="-7" font-family="Helvetica,sans-Serif" font-size="10.00">tuple</text>
</a>
</g>
</g>
<!-- Node9&#45;&gt;Node10 -->
<g id="edge9_Node000009_Node000010" class="edge">
<title>Node9&#45;&gt;Node10</title>
<g id="a_edge9_Node000009_Node000010"><a xlink:title=" ">
<path fill="none" stroke="#63b8ff" d="M646,-60.37C646,-52.25 646,-39.81 646,-29.39"/>
<polygon fill="#63b8ff" stroke="#63b8ff" points="649.5,-29.17 646,-19.17 642.5,-29.17 649.5,-29.17"/>
</a>
</g>
</g>
<!-- Node11&#45;&gt;Node3 -->
<g id="edge11_Node000011_Node000003" class="edge">
<title>Node11&#45;&gt;Node3</title>
<g id="a_edge11_Node000011_Node000003"><a xlink:title=" ">
<path fill="none" stroke="#63b8ff" d="M294.58,-54.99C273.77,-45.4 246.38,-32.79 226.09,-23.44"/>
<polygon fill="#63b8ff" stroke="#63b8ff" points="227.3,-20.14 216.76,-19.14 224.37,-26.5 227.3,-20.14"/>
</a>
</g>
</g>
</g>
</svg>
