<?xml version="1.0" encoding="UTF-8" standalone="no"?>
<!DOCTYPE svg PUBLIC "-//W3C//DTD SVG 1.1//EN"
 "http://www.w3.org/Graphics/SVG/1.1/DTD/svg11.dtd">
<!-- Generated by graphviz version 2.43.0 (0)
 -->
<!-- Title: cv::legacy::TrackerMedianFlow::Params Pages: 1 -->
<svg width="582pt" height="462pt"
 viewBox="0.00 0.00 582.33 462.00" xmlns="http://www.w3.org/2000/svg" xmlns:xlink="http://www.w3.org/1999/xlink">
<g id="graph0" class="graph" transform="scale(1 1) rotate(0) translate(4 458)">
<title>cv::legacy::TrackerMedianFlow::Params</title>
<!-- Node1 -->
<g id="Node000001" class="node">
<title>Node1</title>
<g id="a_Node000001"><a xlink:title=" ">
<polygon fill="#999999" stroke="transparent" points="254.33,-90 119.33,-90 119.33,0 254.33,0 254.33,-90"/>
<text text-anchor="start" x="124.83" y="-78" font-family="Helvetica,sans-Serif" font-size="10.00">cv::legacy::TrackerMedian</text>
<text text-anchor="start" x="154.83" y="-67" font-family="Helvetica,sans-Serif" font-size="10.00">Flow::Params</text>
<text text-anchor="start" x="185.33" y="-52" font-family="Helvetica,sans-Serif" font-size="10.00"> </text>
<text text-anchor="start" x="141.33" y="-37" font-family="Helvetica,sans-Serif" font-size="10.00">+</text>
<text text-anchor="start" x="171.83" y="-37" font-family="Helvetica,sans-Serif" font-size="10.00">Params()</text>
<text text-anchor="start" x="141.33" y="-22" font-family="Helvetica,sans-Serif" font-size="10.00">+</text>
<text text-anchor="start" x="171.83" y="-22" font-family="Helvetica,sans-Serif" font-size="10.00">read()</text>
<text text-anchor="start" x="141.33" y="-7" font-family="Helvetica,sans-Serif" font-size="10.00">+</text>
<text text-anchor="start" x="171.83" y="-7" font-family="Helvetica,sans-Serif" font-size="10.00">write()</text>
<polygon fill="#666666" stroke="#666666" points="119.83,-62 119.83,-62 254.83,-62 254.83,-62 119.83,-62"/>
<polygon fill="#666666" stroke="#666666" points="119.83,-47 119.83,-47 254.83,-47 254.83,-47 119.83,-47"/>
<polygon fill="none" stroke="#666666" points="119.33,0 119.33,-90 254.33,-90 254.33,0 119.33,0"/>
</a>
</g>
</g>
<!-- Node2 -->
<g id="Node000002" class="node">
<title>Node2</title>
<g id="a_Node000002"><a xlink:title=" ">
<polygon fill="white" stroke="transparent" points="38.33,-454 15.33,-454 15.33,-405 38.33,-405 38.33,-454"/>
<text text-anchor="start" x="20.83" y="-441.5" font-family="Helvetica,sans-Serif" font-size="10.00">int</text>
<text text-anchor="start" x="25.33" y="-426.5" font-family="Helvetica,sans-Serif" font-size="10.00"> </text>
<text text-anchor="start" x="25.33" y="-411.5" font-family="Helvetica,sans-Serif" font-size="10.00"> </text>
<polygon fill="#666666" stroke="#666666" points="15.83,-436.5 15.83,-436.5 38.83,-436.5 38.83,-436.5 15.83,-436.5"/>
<polygon fill="#666666" stroke="#666666" points="15.83,-421.5 15.83,-421.5 38.83,-421.5 38.83,-421.5 15.83,-421.5"/>
<polygon fill="none" stroke="#666666" points="15.33,-405 15.33,-454 38.33,-454 38.33,-405 15.33,-405"/>
</a>
</g>
</g>
<!-- Node2&#45;&gt;Node1 -->
<g id="edge1_Node000001_Node000002" class="edge">
<title>Node2&#45;&gt;Node1</title>
<g id="a_edge1_Node000001_Node000002"><a xlink:title=" ">
<path fill="none" stroke="#63b8ff" d="M19.69,-404.85C5.82,-354.11 -19.54,-232.54 26.83,-148 44.47,-115.83 77.04,-92.35 108.21,-76.08"/>
<polygon fill="none" stroke="#63b8ff" points="108.42,-75.98 112,-69.72 119.16,-70.63 115.57,-76.88 108.42,-75.98"/>
</a>
</g>
<text text-anchor="middle" x="60.83" y="-250.5" font-family="Helvetica,sans-Serif" font-size="10.00" fill="grey"> +maxLevel</text>
<text text-anchor="middle" x="60.83" y="-239.5" font-family="Helvetica,sans-Serif" font-size="10.00" fill="grey">+pointsInGrid</text>
</g>
<!-- Node5 -->
<g id="Node000005" class="node">
<title>Node5</title>
<g id="a_Node000005"><a xlink:href="../../d9/d5d/classcv_1_1TermCriteria.html" target="_top" xlink:title="The class defining termination criteria for iterative algorithms.">
<polygon fill="white" stroke="transparent" points="193.33,-287 104.33,-287 104.33,-208 193.33,-208 193.33,-287"/>
<text text-anchor="start" x="110.83" y="-274.5" font-family="Helvetica,sans-Serif" font-size="10.00">cv::TermCriteria</text>
<text text-anchor="start" x="147.33" y="-259.5" font-family="Helvetica,sans-Serif" font-size="10.00"> </text>
<text text-anchor="start" x="108.83" y="-244.5" font-family="Helvetica,sans-Serif" font-size="10.00">+</text>
<text text-anchor="start" x="121.83" y="-244.5" font-family="Helvetica,sans-Serif" font-size="10.00">TermCriteria()</text>
<text text-anchor="start" x="108.83" y="-229.5" font-family="Helvetica,sans-Serif" font-size="10.00">+</text>
<text text-anchor="start" x="121.83" y="-229.5" font-family="Helvetica,sans-Serif" font-size="10.00">TermCriteria()</text>
<text text-anchor="start" x="108.83" y="-214.5" font-family="Helvetica,sans-Serif" font-size="10.00">+</text>
<text text-anchor="start" x="121.83" y="-214.5" font-family="Helvetica,sans-Serif" font-size="10.00">isValid()</text>
<polygon fill="#666666" stroke="#666666" points="104.83,-269.5 104.83,-269.5 193.83,-269.5 193.83,-269.5 104.83,-269.5"/>
<polygon fill="#666666" stroke="#666666" points="104.83,-254.5 104.83,-254.5 193.83,-254.5 193.83,-254.5 104.83,-254.5"/>
<polygon fill="none" stroke="#666666" points="104.33,-208 104.33,-287 193.33,-287 193.33,-208 104.33,-208"/>
</a>
</g>
</g>
<!-- Node2&#45;&gt;Node5 -->
<g id="edge5_Node000005_Node000002" class="edge">
<title>Node2&#45;&gt;Node5</title>
<g id="a_edge5_Node000005_Node000002"><a xlink:title=" ">
<path fill="none" stroke="#63b8ff" d="M38.51,-414.46C51.57,-398.51 73.09,-371.52 89.83,-347 100.51,-331.35 111.39,-313.74 120.86,-297.78"/>
<polygon fill="none" stroke="#63b8ff" points="121.08,-297.39 120.67,-290.19 127.16,-287.05 127.57,-294.24 121.08,-297.39"/>
</a>
</g>
<text text-anchor="middle" x="107.83" y="-379" font-family="Helvetica,sans-Serif" font-size="10.00" fill="grey"> +maxCount</text>
<text text-anchor="middle" x="107.83" y="-368" font-family="Helvetica,sans-Serif" font-size="10.00" fill="grey">+type</text>
</g>
<!-- Node3 -->
<g id="Node000003" class="node">
<title>Node3</title>
<g id="a_Node000003"><a xlink:href="../../d6/d50/classcv_1_1Size__.html" target="_top" xlink:title="Template class for specifying the size of an image or rectangle.">
<polygon fill="white" stroke="transparent" points="574.33,-347 429.33,-347 429.33,-148 574.33,-148 574.33,-347"/>
<text text-anchor="start" x="461.33" y="-334.5" font-family="Helvetica,sans-Serif" font-size="10.00">cv::Size_&lt; _Tp &gt;</text>
<text text-anchor="start" x="500.33" y="-319.5" font-family="Helvetica,sans-Serif" font-size="10.00"> </text>
<text text-anchor="start" x="433.83" y="-304.5" font-family="Helvetica,sans-Serif" font-size="10.00">+</text>
<text text-anchor="start" x="446.83" y="-304.5" font-family="Helvetica,sans-Serif" font-size="10.00">Size_()</text>
<text text-anchor="start" x="433.83" y="-289.5" font-family="Helvetica,sans-Serif" font-size="10.00">+</text>
<text text-anchor="start" x="446.83" y="-289.5" font-family="Helvetica,sans-Serif" font-size="10.00">Size_()</text>
<text text-anchor="start" x="433.83" y="-274.5" font-family="Helvetica,sans-Serif" font-size="10.00">+</text>
<text text-anchor="start" x="446.83" y="-274.5" font-family="Helvetica,sans-Serif" font-size="10.00">Size_()</text>
<text text-anchor="start" x="433.83" y="-259.5" font-family="Helvetica,sans-Serif" font-size="10.00">+</text>
<text text-anchor="start" x="446.83" y="-259.5" font-family="Helvetica,sans-Serif" font-size="10.00">Size_()</text>
<text text-anchor="start" x="433.83" y="-244.5" font-family="Helvetica,sans-Serif" font-size="10.00">+</text>
<text text-anchor="start" x="446.83" y="-244.5" font-family="Helvetica,sans-Serif" font-size="10.00">Size_()</text>
<text text-anchor="start" x="433.83" y="-229.5" font-family="Helvetica,sans-Serif" font-size="10.00">+</text>
<text text-anchor="start" x="446.83" y="-229.5" font-family="Helvetica,sans-Serif" font-size="10.00">area()</text>
<text text-anchor="start" x="433.83" y="-214.5" font-family="Helvetica,sans-Serif" font-size="10.00">+</text>
<text text-anchor="start" x="446.83" y="-214.5" font-family="Helvetica,sans-Serif" font-size="10.00">aspectRatio()</text>
<text text-anchor="start" x="433.83" y="-199.5" font-family="Helvetica,sans-Serif" font-size="10.00">+</text>
<text text-anchor="start" x="446.83" y="-199.5" font-family="Helvetica,sans-Serif" font-size="10.00">empty()</text>
<text text-anchor="start" x="433.83" y="-184.5" font-family="Helvetica,sans-Serif" font-size="10.00">+</text>
<text text-anchor="start" x="446.83" y="-184.5" font-family="Helvetica,sans-Serif" font-size="10.00">operator Size_&lt; _Tp2 &gt;()</text>
<text text-anchor="start" x="433.83" y="-169.5" font-family="Helvetica,sans-Serif" font-size="10.00">+</text>
<text text-anchor="start" x="446.83" y="-169.5" font-family="Helvetica,sans-Serif" font-size="10.00">operator=()</text>
<text text-anchor="start" x="433.83" y="-154.5" font-family="Helvetica,sans-Serif" font-size="10.00">+</text>
<text text-anchor="start" x="446.83" y="-154.5" font-family="Helvetica,sans-Serif" font-size="10.00">operator=()</text>
<polygon fill="#666666" stroke="#666666" points="429.83,-329.5 429.83,-329.5 574.83,-329.5 574.83,-329.5 429.83,-329.5"/>
<polygon fill="#666666" stroke="#666666" points="429.83,-314.5 429.83,-314.5 574.83,-314.5 574.83,-314.5 429.83,-314.5"/>
<polygon fill="none" stroke="#666666" points="429.33,-148 429.33,-347 574.33,-347 574.33,-148 429.33,-148"/>
</a>
</g>
</g>
<!-- Node3&#45;&gt;Node1 -->
<g id="edge2_Node000001_Node000003" class="edge">
<title>Node3&#45;&gt;Node1</title>
<g id="a_edge2_Node000001_Node000003"><a xlink:title=" ">
<path fill="none" stroke="#63b8ff" d="M429.17,-159.58C424.49,-155.48 419.7,-151.58 414.83,-148 369.65,-114.79 311.95,-89.11 265.9,-71.82"/>
<polygon fill="none" stroke="#63b8ff" points="265.72,-71.75 258.71,-73.43 254.46,-67.61 261.47,-65.93 265.72,-71.75"/>
</a>
</g>
<text text-anchor="middle" x="420.33" y="-122" font-family="Helvetica,sans-Serif" font-size="10.00" fill="grey"> +winSize</text>
<text text-anchor="middle" x="420.33" y="-111" font-family="Helvetica,sans-Serif" font-size="10.00" fill="grey">+winSizeNCC</text>
</g>
<!-- Node4 -->
<g id="Node000004" class="node">
<title>Node4</title>
<g id="a_Node000004"><a xlink:href="../../d1/dd7/class__Tp.html" target="_top" xlink:title=" ">
<polygon fill="white" stroke="transparent" points="515.83,-454 487.83,-454 487.83,-405 515.83,-405 515.83,-454"/>
<text text-anchor="start" x="492.83" y="-441.5" font-family="Helvetica,sans-Serif" font-size="10.00">_Tp</text>
<text text-anchor="start" x="499.83" y="-426.5" font-family="Helvetica,sans-Serif" font-size="10.00"> </text>
<text text-anchor="start" x="499.83" y="-411.5" font-family="Helvetica,sans-Serif" font-size="10.00"> </text>
<polygon fill="#666666" stroke="#666666" points="487.83,-436.5 487.83,-436.5 515.83,-436.5 515.83,-436.5 487.83,-436.5"/>
<polygon fill="#666666" stroke="#666666" points="487.83,-421.5 487.83,-421.5 515.83,-421.5 515.83,-421.5 487.83,-421.5"/>
<polygon fill="none" stroke="#666666" points="487.83,-405 487.83,-454 515.83,-454 515.83,-405 487.83,-405"/>
</a>
</g>
</g>
<!-- Node4&#45;&gt;Node3 -->
<g id="edge3_Node000003_Node000004" class="edge">
<title>Node4&#45;&gt;Node3</title>
<g id="a_edge3_Node000003_Node000004"><a xlink:title=" ">
<path fill="none" stroke="#63b8ff" d="M501.83,-404.97C501.83,-392.58 501.83,-376.4 501.83,-359.14"/>
<polygon fill="none" stroke="#63b8ff" points="501.83,-359.06 497.83,-353.06 501.83,-347.06 505.83,-353.06 501.83,-359.06"/>
</a>
</g>
<text text-anchor="middle" x="523.33" y="-379" font-family="Helvetica,sans-Serif" font-size="10.00" fill="grey"> +height</text>
<text text-anchor="middle" x="523.33" y="-368" font-family="Helvetica,sans-Serif" font-size="10.00" fill="grey">+width</text>
</g>
<!-- Node5&#45;&gt;Node1 -->
<g id="edge4_Node000001_Node000005" class="edge">
<title>Node5&#45;&gt;Node1</title>
<g id="a_edge4_Node000001_Node000005"><a xlink:title=" ">
<path fill="none" stroke="#63b8ff" d="M141.19,-207.99C137.13,-179.7 134.81,-140.66 144.83,-108 145.53,-105.72 146.34,-103.44 147.26,-101.18"/>
<polygon fill="none" stroke="#63b8ff" points="147.37,-100.95 146.33,-93.81 152.52,-90.11 153.56,-97.25 147.37,-100.95"/>
</a>
</g>
<text text-anchor="middle" x="180.33" y="-116.5" font-family="Helvetica,sans-Serif" font-size="10.00" fill="grey"> +termCriteria</text>
</g>
<!-- Node6 -->
<g id="Node000006" class="node">
<title>Node6</title>
<g id="a_Node000006"><a xlink:title=" ">
<polygon fill="white" stroke="transparent" points="216.83,-454 172.83,-454 172.83,-405 216.83,-405 216.83,-454"/>
<text text-anchor="start" x="177.83" y="-441.5" font-family="Helvetica,sans-Serif" font-size="10.00">double</text>
<text text-anchor="start" x="192.83" y="-426.5" font-family="Helvetica,sans-Serif" font-size="10.00"> </text>
<text text-anchor="start" x="192.83" y="-411.5" font-family="Helvetica,sans-Serif" font-size="10.00"> </text>
<polygon fill="#666666" stroke="#666666" points="172.83,-436.5 172.83,-436.5 216.83,-436.5 216.83,-436.5 172.83,-436.5"/>
<polygon fill="#666666" stroke="#666666" points="172.83,-421.5 172.83,-421.5 216.83,-421.5 216.83,-421.5 172.83,-421.5"/>
<polygon fill="none" stroke="#666666" points="172.83,-405 172.83,-454 216.83,-454 216.83,-405 172.83,-405"/>
</a>
</g>
</g>
<!-- Node6&#45;&gt;Node1 -->
<g id="edge7_Node000001_Node000006" class="edge">
<title>Node6&#45;&gt;Node1</title>
<g id="a_edge7_Node000001_Node000006"><a xlink:title=" ">
<path fill="none" stroke="#63b8ff" d="M209.26,-404.65C211.97,-399.05 214.4,-392.97 215.83,-387 244.61,-266.39 242.74,-229.04 215.83,-108 215.35,-105.87 214.8,-103.73 214.18,-101.59"/>
<polygon fill="none" stroke="#63b8ff" points="214.17,-101.58 208.45,-97.19 210.3,-90.22 216.02,-94.61 214.17,-101.58"/>
</a>
</g>
<text text-anchor="start" x="236.83" y="-250.5" font-family="Helvetica,sans-Serif" font-size="10.00" fill="grey"> +maxMedianLengthOfDisplacement</text>
<text text-anchor="middle" x="327.33" y="-239.5" font-family="Helvetica,sans-Serif" font-size="10.00" fill="grey">Difference</text>
</g>
<!-- Node6&#45;&gt;Node5 -->
<g id="edge6_Node000005_Node000006" class="edge">
<title>Node6&#45;&gt;Node5</title>
<g id="a_edge6_Node000005_Node000006"><a xlink:title=" ">
<path fill="none" stroke="#63b8ff" d="M177.64,-404.8C174.25,-399.19 171.05,-393.07 168.83,-387 158.57,-359.04 153.55,-326.1 151.1,-299.36"/>
<polygon fill="none" stroke="#63b8ff" points="151.09,-299.13 146.62,-293.47 150.12,-287.17 154.59,-292.83 151.09,-299.13"/>
</a>
</g>
<text text-anchor="middle" x="192.33" y="-373.5" font-family="Helvetica,sans-Serif" font-size="10.00" fill="grey"> +epsilon</text>
</g>
</g>
</svg>
