<?xml version="1.0" encoding="UTF-8" standalone="no"?>
<!DOCTYPE svg PUBLIC "-//W3C//DTD SVG 1.1//EN"
 "http://www.w3.org/Graphics/SVG/1.1/DTD/svg11.dtd">
<!-- Generated by graphviz version 2.43.0 (0)
 -->
<!-- Title: cv::MediaFrame::View Pages: 1 -->
<svg width="430pt" height="367pt"
 viewBox="0.00 0.00 429.50 367.00" xmlns="http://www.w3.org/2000/svg" xmlns:xlink="http://www.w3.org/1999/xlink">
<g id="graph0" class="graph" transform="scale(1 1) rotate(0) translate(4 363)">
<title>cv::MediaFrame::View</title>
<!-- Node1 -->
<g id="Node000001" class="node">
<title>Node1</title>
<g id="a_Node000001"><a xlink:title="Provides access to the MediaFrame&#39;s underlying data.">
<polygon fill="#999999" stroke="transparent" points="179.5,-49 61.5,-49 61.5,0 179.5,0 179.5,-49"/>
<text text-anchor="start" x="66.5" y="-36.5" font-family="Helvetica,sans-Serif" font-size="10.00">cv::MediaFrame::View</text>
<text text-anchor="start" x="118.5" y="-21.5" font-family="Helvetica,sans-Serif" font-size="10.00"> </text>
<text text-anchor="start" x="79.5" y="-6.5" font-family="Helvetica,sans-Serif" font-size="10.00">+</text>
<text text-anchor="start" x="106.5" y="-6.5" font-family="Helvetica,sans-Serif" font-size="10.00">~View()</text>
<polygon fill="#666666" stroke="#666666" points="61.5,-31.5 61.5,-31.5 179.5,-31.5 179.5,-31.5 61.5,-31.5"/>
<polygon fill="#666666" stroke="#666666" points="61.5,-16.5 61.5,-16.5 179.5,-16.5 179.5,-16.5 61.5,-16.5"/>
<polygon fill="none" stroke="#666666" points="61.5,0 61.5,-49 179.5,-49 179.5,0 61.5,0"/>
</a>
</g>
</g>
<!-- Node2 -->
<g id="Node000002" class="node">
<title>Node2</title>
<g id="a_Node000002"><a xlink:title=" ">
<polygon fill="white" stroke="transparent" points="39,-150.5 0,-150.5 0,-101.5 39,-101.5 39,-150.5"/>
<text text-anchor="start" x="5.5" y="-138" font-family="Helvetica,sans-Serif" font-size="10.00">size_t</text>
<text text-anchor="start" x="18" y="-123" font-family="Helvetica,sans-Serif" font-size="10.00"> </text>
<text text-anchor="start" x="18" y="-108" font-family="Helvetica,sans-Serif" font-size="10.00"> </text>
<polygon fill="#666666" stroke="#666666" points="0.5,-133 0.5,-133 39.5,-133 39.5,-133 0.5,-133"/>
<polygon fill="#666666" stroke="#666666" points="0.5,-118 0.5,-118 39.5,-118 39.5,-118 0.5,-118"/>
<polygon fill="none" stroke="#666666" points="0,-101.5 0,-150.5 39,-150.5 39,-101.5 0,-101.5"/>
</a>
</g>
</g>
<!-- Node2&#45;&gt;Node1 -->
<g id="edge1_Node000001_Node000002" class="edge">
<title>Node2&#45;&gt;Node1</title>
<g id="a_edge1_Node000001_Node000002"><a xlink:title=" ">
<path fill="none" stroke="#63b8ff" d="M21.47,-101.45C23.48,-89.99 27.49,-76.64 35.5,-67 40,-61.58 45.38,-56.81 51.22,-52.62"/>
<polygon fill="none" stroke="#63b8ff" points="51.3,-52.57 54.2,-45.97 61.41,-46.12 58.51,-52.72 51.3,-52.57"/>
</a>
</g>
<text text-anchor="middle" x="74.5" y="-70" font-family="Helvetica,sans-Serif" font-size="10.00" fill="grey"> +MAX_PLANES</text>
</g>
<!-- Node3 -->
<g id="Node000003" class="node">
<title>Node3</title>
<g id="a_Node000003"><a xlink:title=" ">
<polygon fill="white" stroke="transparent" points="164,-156 63,-156 63,-96 164,-96 164,-156"/>
<text text-anchor="start" x="68.5" y="-144" font-family="Helvetica,sans-Serif" font-size="10.00">std::array&lt; void *,</text>
<text text-anchor="start" x="73.5" y="-133" font-family="Helvetica,sans-Serif" font-size="10.00"> MAX_PLANES &gt;</text>
<text text-anchor="start" x="112" y="-118" font-family="Helvetica,sans-Serif" font-size="10.00"> </text>
<text text-anchor="start" x="112" y="-103" font-family="Helvetica,sans-Serif" font-size="10.00"> </text>
<polygon fill="#666666" stroke="#666666" points="63.5,-128 63.5,-128 164.5,-128 164.5,-128 63.5,-128"/>
<polygon fill="#666666" stroke="#666666" points="63.5,-113 63.5,-113 164.5,-113 164.5,-113 63.5,-113"/>
<polygon fill="none" stroke="#666666" points="63,-96 63,-156 164,-156 164,-96 63,-96"/>
</a>
</g>
</g>
<!-- Node3&#45;&gt;Node1 -->
<g id="edge2_Node000001_Node000003" class="edge">
<title>Node3&#45;&gt;Node1</title>
<g id="a_edge2_Node000001_Node000003"><a xlink:title=" ">
<path fill="none" stroke="#63b8ff" d="M115.54,-95.95C116.31,-85.12 117.18,-72.69 117.98,-61.31"/>
<polygon fill="none" stroke="#63b8ff" points="118,-61.03 114.43,-54.77 118.84,-49.06 122.41,-55.33 118,-61.03"/>
</a>
</g>
<text text-anchor="middle" x="130" y="-70" font-family="Helvetica,sans-Serif" font-size="10.00" fill="grey"> +ptr</text>
</g>
<!-- Node4 -->
<g id="Node000004" class="node">
<title>Node4</title>
<g id="a_Node000004"><a xlink:title=" ">
<polygon fill="white" stroke="transparent" points="52.5,-263 12.5,-263 12.5,-214 52.5,-214 52.5,-263"/>
<text text-anchor="start" x="17.5" y="-250.5" font-family="Helvetica,sans-Serif" font-size="10.00">void *</text>
<text text-anchor="start" x="30.5" y="-235.5" font-family="Helvetica,sans-Serif" font-size="10.00"> </text>
<text text-anchor="start" x="30.5" y="-220.5" font-family="Helvetica,sans-Serif" font-size="10.00"> </text>
<polygon fill="#666666" stroke="#666666" points="12.5,-245.5 12.5,-245.5 52.5,-245.5 52.5,-245.5 12.5,-245.5"/>
<polygon fill="#666666" stroke="#666666" points="12.5,-230.5 12.5,-230.5 52.5,-230.5 52.5,-230.5 12.5,-230.5"/>
<polygon fill="none" stroke="#666666" points="12.5,-214 12.5,-263 52.5,-263 52.5,-214 12.5,-214"/>
</a>
</g>
</g>
<!-- Node4&#45;&gt;Node3 -->
<g id="edge3_Node000003_Node000004" class="edge">
<title>Node4&#45;&gt;Node3</title>
<g id="a_edge3_Node000003_Node000004"><a xlink:title=" ">
<path fill="none" stroke="#63b8ff" d="M33.6,-213.86C35.15,-201.16 38.67,-185.74 46.5,-174 48.71,-170.69 51.23,-167.54 53.98,-164.56"/>
<polygon fill="none" stroke="#63b8ff" points="54.13,-164.42 55.7,-157.38 62.8,-156.11 61.23,-163.15 54.13,-164.42"/>
</a>
</g>
<text text-anchor="middle" x="75.5" y="-182.5" font-family="Helvetica,sans-Serif" font-size="10.00" fill="grey"> +elements</text>
</g>
<!-- Node5 -->
<g id="Node000005" class="node">
<title>Node5</title>
<g id="a_Node000005"><a xlink:title=" ">
<polygon fill="white" stroke="transparent" points="231.5,-263 145.5,-263 145.5,-214 231.5,-214 231.5,-263"/>
<text text-anchor="start" x="150.5" y="-250.5" font-family="Helvetica,sans-Serif" font-size="10.00">std::array&lt; T &gt;</text>
<text text-anchor="start" x="186.5" y="-235.5" font-family="Helvetica,sans-Serif" font-size="10.00"> </text>
<text text-anchor="start" x="186.5" y="-220.5" font-family="Helvetica,sans-Serif" font-size="10.00"> </text>
<polygon fill="#666666" stroke="#666666" points="145.5,-245.5 145.5,-245.5 231.5,-245.5 231.5,-245.5 145.5,-245.5"/>
<polygon fill="#666666" stroke="#666666" points="145.5,-230.5 145.5,-230.5 231.5,-230.5 231.5,-230.5 145.5,-230.5"/>
<polygon fill="none" stroke="#666666" points="145.5,-214 145.5,-263 231.5,-263 231.5,-214 145.5,-214"/>
</a>
</g>
</g>
<!-- Node5&#45;&gt;Node3 -->
<g id="edge4_Node000003_Node000005" class="edge">
<title>Node5&#45;&gt;Node3</title>
<g id="a_edge4_Node000003_Node000005"><a xlink:title=" ">
<path fill="none" stroke="orange" d="M136.33,-217.58C127.64,-211.93 119.76,-204.83 114.5,-196 107.51,-184.27 106.55,-169.3 107.63,-156.31"/>
<polygon fill="orange" stroke="orange" points="134.82,-220.75 145.23,-222.77 138.35,-214.71 134.82,-220.75"/>
</a>
</g>
<text text-anchor="middle" x="178" y="-182.5" font-family="Helvetica,sans-Serif" font-size="10.00" fill="grey"> &lt; void *, MAX_PLANES &gt;</text>
</g>
<!-- Node7 -->
<g id="Node000007" class="node">
<title>Node7</title>
<g id="a_Node000007"><a xlink:title=" ">
<polygon fill="white" stroke="transparent" points="318,-156 209,-156 209,-96 318,-96 318,-156"/>
<text text-anchor="start" x="214.5" y="-144" font-family="Helvetica,sans-Serif" font-size="10.00">std::array&lt; std::size</text>
<text text-anchor="start" x="217.5" y="-133" font-family="Helvetica,sans-Serif" font-size="10.00">_t, MAX_PLANES &gt;</text>
<text text-anchor="start" x="262" y="-118" font-family="Helvetica,sans-Serif" font-size="10.00"> </text>
<text text-anchor="start" x="262" y="-103" font-family="Helvetica,sans-Serif" font-size="10.00"> </text>
<polygon fill="#666666" stroke="#666666" points="209.5,-128 209.5,-128 318.5,-128 318.5,-128 209.5,-128"/>
<polygon fill="#666666" stroke="#666666" points="209.5,-113 209.5,-113 318.5,-113 318.5,-113 209.5,-113"/>
<polygon fill="none" stroke="#666666" points="209,-96 209,-156 318,-156 318,-96 209,-96"/>
</a>
</g>
</g>
<!-- Node5&#45;&gt;Node7 -->
<g id="edge8_Node000007_Node000005" class="edge">
<title>Node5&#45;&gt;Node7</title>
<g id="a_edge8_Node000007_Node000005"><a xlink:title=" ">
<path fill="none" stroke="orange" d="M232.5,-206.74C235.81,-203.36 238.88,-199.77 241.5,-196 249.68,-184.23 254.94,-169.26 258.26,-156.27"/>
<polygon fill="orange" stroke="orange" points="229.87,-204.41 224.93,-213.79 234.63,-209.54 229.87,-204.41"/>
</a>
</g>
<text text-anchor="start" x="252.5" y="-188" font-family="Helvetica,sans-Serif" font-size="10.00" fill="grey"> &lt; std::size_t, MAX</text>
<text text-anchor="middle" x="299" y="-177" font-family="Helvetica,sans-Serif" font-size="10.00" fill="grey">_PLANES &gt;</text>
</g>
<!-- Node6 -->
<g id="Node000006" class="node">
<title>Node6</title>
<g id="a_Node000006"><a xlink:title=" ">
<polygon fill="white" stroke="transparent" points="197,-359 180,-359 180,-310 197,-310 197,-359"/>
<text text-anchor="start" x="185.5" y="-346.5" font-family="Helvetica,sans-Serif" font-size="10.00">T</text>
<text text-anchor="start" x="187" y="-331.5" font-family="Helvetica,sans-Serif" font-size="10.00"> </text>
<text text-anchor="start" x="187" y="-316.5" font-family="Helvetica,sans-Serif" font-size="10.00"> </text>
<polygon fill="#666666" stroke="#666666" points="180.5,-341.5 180.5,-341.5 197.5,-341.5 197.5,-341.5 180.5,-341.5"/>
<polygon fill="#666666" stroke="#666666" points="180.5,-326.5 180.5,-326.5 197.5,-326.5 197.5,-326.5 180.5,-326.5"/>
<polygon fill="none" stroke="#666666" points="180,-310 180,-359 197,-359 197,-310 180,-310"/>
</a>
</g>
</g>
<!-- Node6&#45;&gt;Node5 -->
<g id="edge5_Node000005_Node000006" class="edge">
<title>Node6&#45;&gt;Node5</title>
<g id="a_edge5_Node000005_Node000006"><a xlink:title=" ">
<path fill="none" stroke="#63b8ff" d="M188.5,-309.78C188.5,-299.32 188.5,-286.79 188.5,-275.23"/>
<polygon fill="none" stroke="#63b8ff" points="188.5,-275.21 184.5,-269.21 188.5,-263.21 192.5,-269.21 188.5,-275.21"/>
</a>
</g>
<text text-anchor="middle" x="217.5" y="-284" font-family="Helvetica,sans-Serif" font-size="10.00" fill="grey"> +elements</text>
</g>
<!-- Node7&#45;&gt;Node1 -->
<g id="edge6_Node000001_Node000007" class="edge">
<title>Node7&#45;&gt;Node1</title>
<g id="a_edge6_Node000001_Node000007"><a xlink:title=" ">
<path fill="none" stroke="#63b8ff" d="M221.75,-95.95C203.75,-83.43 182.69,-68.77 164.45,-56.08"/>
<polygon fill="none" stroke="#63b8ff" points="164.21,-55.92 157,-55.77 154.36,-49.06 161.57,-49.21 164.21,-55.92"/>
</a>
</g>
<text text-anchor="middle" x="212.5" y="-70" font-family="Helvetica,sans-Serif" font-size="10.00" fill="grey"> +stride</text>
</g>
<!-- Node8 -->
<g id="Node000008" class="node">
<title>Node8</title>
<g id="a_Node000008"><a xlink:title=" ">
<polygon fill="white" stroke="transparent" points="399,-263 360,-263 360,-214 399,-214 399,-263"/>
<text text-anchor="start" x="365.5" y="-250.5" font-family="Helvetica,sans-Serif" font-size="10.00">size_t</text>
<text text-anchor="start" x="378" y="-235.5" font-family="Helvetica,sans-Serif" font-size="10.00"> </text>
<text text-anchor="start" x="378" y="-220.5" font-family="Helvetica,sans-Serif" font-size="10.00"> </text>
<polygon fill="#666666" stroke="#666666" points="360.5,-245.5 360.5,-245.5 399.5,-245.5 399.5,-245.5 360.5,-245.5"/>
<polygon fill="#666666" stroke="#666666" points="360.5,-230.5 360.5,-230.5 399.5,-230.5 399.5,-230.5 360.5,-230.5"/>
<polygon fill="none" stroke="#666666" points="360,-214 360,-263 399,-263 399,-214 360,-214"/>
</a>
</g>
</g>
<!-- Node8&#45;&gt;Node7 -->
<g id="edge7_Node000007_Node000008" class="edge">
<title>Node8&#45;&gt;Node7</title>
<g id="a_edge7_Node000007_Node000008"><a xlink:title=" ">
<path fill="none" stroke="#63b8ff" d="M372.42,-213.96C367.59,-200.98 360.12,-185.27 349.5,-174 343.33,-167.46 336.05,-161.61 328.37,-156.46"/>
<polygon fill="none" stroke="#63b8ff" points="328.29,-156.41 321.09,-156.64 318.1,-150.08 325.31,-149.85 328.29,-156.41"/>
</a>
</g>
<text text-anchor="middle" x="392.5" y="-182.5" font-family="Helvetica,sans-Serif" font-size="10.00" fill="grey"> +elements</text>
</g>
</g>
</svg>
