<?xml version="1.0" encoding="UTF-8" standalone="no"?>
<!DOCTYPE svg PUBLIC "-//W3C//DTD SVG 1.1//EN"
 "http://www.w3.org/Graphics/SVG/1.1/DTD/svg11.dtd">
<!-- Generated by graphviz version 2.43.0 (0)
 -->
<!-- Title: opencv2/aruco/aruco_calib.hpp Pages: 1 -->
<svg width="179pt" height="148pt"
 viewBox="0.00 0.00 178.50 148.00" xmlns="http://www.w3.org/2000/svg" xmlns:xlink="http://www.w3.org/1999/xlink">
<g id="graph0" class="graph" transform="scale(1 1) rotate(0) translate(4 144)">
<title>opencv2/aruco/aruco_calib.hpp</title>
<!-- Node1 -->
<g id="Node000001" class="node">
<title>Node1</title>
<g id="a_Node000001"><a xlink:title=" ">
<polygon fill="#999999" stroke="#666666" points="154.5,-140 36.5,-140 36.5,-110 154.5,-110 154.5,-140"/>
<text text-anchor="start" x="44.5" y="-128" font-family="Helvetica,sans-Serif" font-size="10.00">opencv2/aruco/aruco</text>
<text text-anchor="middle" x="95.5" y="-117" font-family="Helvetica,sans-Serif" font-size="10.00">_calib.hpp</text>
</a>
</g>
</g>
<!-- Node2 -->
<g id="Node000002" class="node">
<title>Node2</title>
<g id="a_Node000002"><a xlink:href="../../d9/d53/aruco_8hpp.html" target="_top" xlink:title=" ">
<polygon fill="white" stroke="#666666" points="109,-74 0,-74 0,-55 109,-55 109,-74"/>
<text text-anchor="middle" x="54.5" y="-62" font-family="Helvetica,sans-Serif" font-size="10.00">opencv2/aruco.hpp</text>
</a>
</g>
</g>
<!-- Node1&#45;&gt;Node2 -->
<g id="edge1_Node000001_Node000002" class="edge">
<title>Node1&#45;&gt;Node2</title>
<g id="a_edge1_Node000001_Node000002"><a xlink:title=" ">
<path fill="none" stroke="#63b8ff" d="M79.74,-101.51C73.07,-91.99 65.69,-81.47 60.64,-74.27"/>
<polygon fill="#63b8ff" stroke="#63b8ff" points="76.97,-103.66 85.58,-109.84 82.7,-99.64 76.97,-103.66"/>
</a>
</g>
</g>
<!-- Node3 -->
<g id="Node000003" class="node">
<title>Node3</title>
<g id="a_Node000003"><a xlink:href="../../da/d3b/charuco_8hpp.html" target="_top" xlink:title=" ">
<polygon fill="white" stroke="#666666" points="170.5,-19 20.5,-19 20.5,0 170.5,0 170.5,-19"/>
<text text-anchor="middle" x="95.5" y="-7" font-family="Helvetica,sans-Serif" font-size="10.00">opencv2/aruco/charuco.hpp</text>
</a>
</g>
</g>
<!-- Node1&#45;&gt;Node3 -->
<g id="edge3_Node000001_Node000003" class="edge">
<title>Node1&#45;&gt;Node3</title>
<g id="a_edge3_Node000001_Node000003"><a xlink:title=" ">
<path fill="none" stroke="#63b8ff" d="M110,-101.01C116.65,-87.72 122.29,-70.6 118.5,-55 115.25,-41.65 107.25,-27.83 101.6,-19.2"/>
<polygon fill="#63b8ff" stroke="#63b8ff" points="106.85,-99.48 105.1,-109.93 112.98,-102.85 106.85,-99.48"/>
</a>
</g>
</g>
<!-- Node2&#45;&gt;Node3 -->
<g id="edge2_Node000002_Node000003" class="edge">
<title>Node2&#45;&gt;Node3</title>
<g id="a_edge2_Node000002_Node000003"><a xlink:title=" ">
<path fill="none" stroke="#63b8ff" d="M67.52,-46.67C74.62,-37.5 83.1,-26.52 88.86,-19.09"/>
<polygon fill="#63b8ff" stroke="#63b8ff" points="64.62,-44.7 61.27,-54.75 70.16,-48.98 64.62,-44.7"/>
</a>
</g>
</g>
</g>
</svg>
