<?xml version="1.0" encoding="UTF-8" standalone="no"?>
<!DOCTYPE svg PUBLIC "-//W3C//DTD SVG 1.1//EN"
 "http://www.w3.org/Graphics/SVG/1.1/DTD/svg11.dtd">
<!-- Generated by graphviz version 2.43.0 (0)
 -->
<!-- Title: cv::optflow::GPCForest::findCorrespondences Pages: 1 -->
<svg width="321pt" height="375pt"
 viewBox="0.00 0.00 321.00 375.00" xmlns="http://www.w3.org/2000/svg" xmlns:xlink="http://www.w3.org/1999/xlink">
<g id="graph0" class="graph" transform="scale(1 1) rotate(0) translate(4 371)">
<title>cv::optflow::GPCForest::findCorrespondences</title>
<!-- Node1 -->
<g id="Node000001" class="node">
<title>Node1</title>
<g id="a_Node000001"><a xlink:title="Find correspondences between two images.">
<polygon fill="#999999" stroke="#666666" points="125,-207.5 0,-207.5 0,-177.5 125,-177.5 125,-207.5"/>
<text text-anchor="start" x="8" y="-195.5" font-family="Helvetica,sans-Serif" font-size="10.00">cv::optflow::GPCForest</text>
<text text-anchor="middle" x="62.5" y="-184.5" font-family="Helvetica,sans-Serif" font-size="10.00">::findCorrespondences</text>
</a>
</g>
</g>
<!-- Node2 -->
<g id="Node000002" class="node">
<title>Node2</title>
<g id="a_Node000002"><a xlink:href="../../d4/d32/classcv_1_1__InputArray.html#af198cb2bf572d2877185756a58b724f8" target="_top" xlink:title=" ">
<polygon fill="white" stroke="#666666" points="306,-367 168,-367 168,-348 306,-348 306,-367"/>
<text text-anchor="middle" x="237" y="-355" font-family="Helvetica,sans-Serif" font-size="10.00">cv::_InputArray::channels</text>
</a>
</g>
</g>
<!-- Node1&#45;&gt;Node2 -->
<g id="edge1_Node000001_Node000002" class="edge">
<title>Node1&#45;&gt;Node2</title>
<g id="a_edge1_Node000001_Node000002"><a xlink:title=" ">
<path fill="none" stroke="#63b8ff" d="M69.13,-207.73C81.11,-237.9 112.06,-305.27 161,-339.5 163.11,-340.98 165.33,-342.33 167.63,-343.58"/>
<polygon fill="#63b8ff" stroke="#63b8ff" points="166.28,-346.81 176.82,-347.86 169.23,-340.47 166.28,-346.81"/>
</a>
</g>
</g>
<!-- Node3 -->
<g id="Node000003" class="node">
<title>Node3</title>
<g id="a_Node000003"><a xlink:href="../../d3/d63/classcv_1_1Mat.html#adf88c60c5b4980e05bb556080916978b" target="_top" xlink:title="Converts an array to another data type with optional scaling.">
<polygon fill="white" stroke="#666666" points="289.5,-330 184.5,-330 184.5,-311 289.5,-311 289.5,-330"/>
<text text-anchor="middle" x="237" y="-318" font-family="Helvetica,sans-Serif" font-size="10.00">cv::Mat::convertTo</text>
</a>
</g>
</g>
<!-- Node1&#45;&gt;Node3 -->
<g id="edge2_Node000001_Node000003" class="edge">
<title>Node1&#45;&gt;Node3</title>
<g id="a_edge2_Node000001_Node000003"><a xlink:title=" ">
<path fill="none" stroke="#63b8ff" d="M72.5,-207.58C87.63,-231.58 120.52,-278.2 161,-302.5 165.34,-305.1 170.03,-307.33 174.87,-309.24"/>
<polygon fill="#63b8ff" stroke="#63b8ff" points="173.74,-312.55 184.33,-312.52 176.03,-305.93 173.74,-312.55"/>
</a>
</g>
</g>
<!-- Node4 -->
<g id="Node000004" class="node">
<title>Node4</title>
<g id="a_Node000004"><a xlink:href="../../d8/d01/group__imgproc__color__conversions.html#ga397ae87e1288a81d2363b61574eb8cab" target="_top" xlink:title="Converts an image from one color space to another.">
<polygon fill="white" stroke="#666666" points="274,-293 200,-293 200,-274 274,-274 274,-293"/>
<text text-anchor="middle" x="237" y="-281" font-family="Helvetica,sans-Serif" font-size="10.00">cv::cvtColor</text>
</a>
</g>
</g>
<!-- Node1&#45;&gt;Node4 -->
<g id="edge3_Node000001_Node000004" class="edge">
<title>Node1&#45;&gt;Node4</title>
<g id="a_edge3_Node000001_Node000004"><a xlink:title=" ">
<path fill="none" stroke="#63b8ff" d="M79.81,-207.69C98.19,-224.03 129.62,-249.65 161,-264.5 170.11,-268.81 180.31,-272.23 190.2,-274.9"/>
<polygon fill="#63b8ff" stroke="#63b8ff" points="189.37,-278.3 199.92,-277.33 191.07,-271.51 189.37,-278.3"/>
</a>
</g>
</g>
<!-- Node5 -->
<g id="Node000005" class="node">
<title>Node5</title>
<g id="a_Node000005"><a xlink:href="../../d0/dba/classcv_1_1optflow_1_1GPCDetails.html#abeab00b6118efef02aae861afc12f5a0" target="_top" xlink:title=" ">
<polygon fill="white" stroke="#666666" points="301.5,-255.5 172.5,-255.5 172.5,-225.5 301.5,-225.5 301.5,-255.5"/>
<text text-anchor="start" x="180.5" y="-243.5" font-family="Helvetica,sans-Serif" font-size="10.00">cv::optflow::GPCDetails</text>
<text text-anchor="middle" x="237" y="-232.5" font-family="Helvetica,sans-Serif" font-size="10.00">::dropOutliers</text>
</a>
</g>
</g>
<!-- Node1&#45;&gt;Node5 -->
<g id="edge4_Node000001_Node000005" class="edge">
<title>Node1&#45;&gt;Node5</title>
<g id="a_edge4_Node000001_Node000005"><a xlink:title=" ">
<path fill="none" stroke="#63b8ff" d="M117.61,-207.56C134.95,-212.38 154.31,-217.77 172.27,-222.77"/>
<polygon fill="#63b8ff" stroke="#63b8ff" points="171.51,-226.19 182.09,-225.5 173.39,-219.44 171.51,-226.19"/>
</a>
</g>
</g>
<!-- Node6 -->
<g id="Node000006" class="node">
<title>Node6</title>
<g id="a_Node000006"><a xlink:href="../../d0/dba/classcv_1_1optflow_1_1GPCDetails.html#aa081385adda786d93076539854e0d57e" target="_top" xlink:title=" ">
<polygon fill="white" stroke="#666666" points="313,-207.5 161,-207.5 161,-177.5 313,-177.5 313,-207.5"/>
<text text-anchor="start" x="169" y="-195.5" font-family="Helvetica,sans-Serif" font-size="10.00">cv::optflow::GPCDetails</text>
<text text-anchor="middle" x="237" y="-184.5" font-family="Helvetica,sans-Serif" font-size="10.00">::getAllDescriptorsForImage</text>
</a>
</g>
</g>
<!-- Node1&#45;&gt;Node6 -->
<g id="edge5_Node000001_Node000006" class="edge">
<title>Node1&#45;&gt;Node6</title>
<g id="a_edge5_Node000001_Node000006"><a xlink:title=" ">
<path fill="none" stroke="#63b8ff" d="M125.29,-192.5C133.56,-192.5 142.15,-192.5 150.74,-192.5"/>
<polygon fill="#63b8ff" stroke="#63b8ff" points="150.78,-196 160.78,-192.5 150.78,-189 150.78,-196"/>
</a>
</g>
</g>
<!-- Node7 -->
<g id="Node000007" class="node">
<title>Node7</title>
<g id="a_Node000007"><a xlink:href="../../d0/dba/classcv_1_1optflow_1_1GPCDetails.html#ad7c9abbcf3844761136088ee69ea7cd8" target="_top" xlink:title=" ">
<polygon fill="white" stroke="#666666" points="311.5,-159.5 162.5,-159.5 162.5,-129.5 311.5,-129.5 311.5,-159.5"/>
<text text-anchor="start" x="170.5" y="-147.5" font-family="Helvetica,sans-Serif" font-size="10.00">cv::optflow::GPCDetails</text>
<text text-anchor="middle" x="237" y="-136.5" font-family="Helvetica,sans-Serif" font-size="10.00">::getCoordinatesFromIndex</text>
</a>
</g>
</g>
<!-- Node1&#45;&gt;Node7 -->
<g id="edge6_Node000001_Node000007" class="edge">
<title>Node1&#45;&gt;Node7</title>
<g id="a_edge6_Node000001_Node000007"><a xlink:title=" ">
<path fill="none" stroke="#63b8ff" d="M117.61,-177.44C134.95,-172.62 154.31,-167.23 172.27,-162.23"/>
<polygon fill="#63b8ff" stroke="#63b8ff" points="173.39,-165.56 182.09,-159.5 171.51,-158.81 173.39,-165.56"/>
</a>
</g>
</g>
<!-- Node8 -->
<g id="Node000008" class="node">
<title>Node8</title>
<g id="a_Node000008"><a xlink:href="../../d4/d32/classcv_1_1__InputArray.html#a9c09739ca3e0ce212e2ab8374aa2f195" target="_top" xlink:title=" ">
<polygon fill="white" stroke="#666666" points="301.5,-111 172.5,-111 172.5,-92 301.5,-92 301.5,-111"/>
<text text-anchor="middle" x="237" y="-99" font-family="Helvetica,sans-Serif" font-size="10.00">cv::_InputArray::getMat</text>
</a>
</g>
</g>
<!-- Node1&#45;&gt;Node8 -->
<g id="edge7_Node000001_Node000008" class="edge">
<title>Node1&#45;&gt;Node8</title>
<g id="a_edge7_Node000001_Node000008"><a xlink:title=" ">
<path fill="none" stroke="#63b8ff" d="M79.81,-177.31C98.19,-160.97 129.62,-135.35 161,-120.5 166.01,-118.13 171.35,-116.03 176.79,-114.17"/>
<polygon fill="#63b8ff" stroke="#63b8ff" points="178.13,-117.42 186.63,-111.09 176.04,-110.74 178.13,-117.42"/>
</a>
</g>
</g>
<!-- Node9 -->
<g id="Node000009" class="node">
<title>Node9</title>
<g id="a_Node000009"><a xlink:href="../../d3/d89/group__core__parallel.html#gaa42ec9937b847cb52a97c613fc894c4a" target="_top" xlink:title="Parallel data processor.">
<polygon fill="white" stroke="#666666" points="284,-74 190,-74 190,-55 284,-55 284,-74"/>
<text text-anchor="middle" x="237" y="-62" font-family="Helvetica,sans-Serif" font-size="10.00">cv::parallel_for_</text>
</a>
</g>
</g>
<!-- Node1&#45;&gt;Node9 -->
<g id="edge8_Node000001_Node000009" class="edge">
<title>Node1&#45;&gt;Node9</title>
<g id="a_edge8_Node000001_Node000009"><a xlink:title=" ">
<path fill="none" stroke="#63b8ff" d="M72.82,-177.23C88.15,-153.42 121.04,-107.7 161,-83.5 166.87,-79.95 173.38,-77.06 180.04,-74.7"/>
<polygon fill="#63b8ff" stroke="#63b8ff" points="181.36,-77.96 189.86,-71.63 179.27,-71.28 181.36,-77.96"/>
</a>
</g>
</g>
<!-- Node10 -->
<g id="Node000010" class="node">
<title>Node10</title>
<g id="a_Node000010"><a xlink:href="../../d2/de8/group__core__array.html#ga0547c7fed86152d7e9d0096029c8518a" target="_top" xlink:title="Divides a multi&#45;channel array into several single&#45;channel arrays.">
<polygon fill="white" stroke="#666666" points="264,-19 210,-19 210,0 264,0 264,-19"/>
<text text-anchor="middle" x="237" y="-7" font-family="Helvetica,sans-Serif" font-size="10.00">cv::split</text>
</a>
</g>
</g>
<!-- Node1&#45;&gt;Node10 -->
<g id="edge9_Node000001_Node000010" class="edge">
<title>Node1&#45;&gt;Node10</title>
<g id="a_edge9_Node000001_Node000010"><a xlink:title=" ">
<path fill="none" stroke="#63b8ff" d="M70.27,-177.37C83.82,-148.58 116.78,-85.3 161,-46.5 172.42,-36.48 187.03,-28.47 200.31,-22.51"/>
<polygon fill="#63b8ff" stroke="#63b8ff" points="201.86,-25.65 209.69,-18.52 199.12,-19.21 201.86,-25.65"/>
</a>
</g>
</g>
<!-- Node10&#45;&gt;Node10 -->
<g id="edge10_Node000010_Node000010" class="edge">
<title>Node10&#45;&gt;Node10</title>
<g id="a_edge10_Node000010_Node000010"><a xlink:title=" ">
<path fill="none" stroke="#63b8ff" d="M210.18,-19.08C197.13,-27.73 206.07,-37 237,-37 257.78,-37 268.63,-32.82 269.56,-27.45"/>
<polygon fill="#63b8ff" stroke="#63b8ff" points="272.36,-25.35 263.82,-19.08 266.59,-29.31 272.36,-25.35"/>
</a>
</g>
</g>
</g>
</svg>
