<?xml version="1.0" encoding="UTF-8" standalone="no"?>
<!DOCTYPE svg PUBLIC "-//W3C//DTD SVG 1.1//EN"
 "http://www.w3.org/Graphics/SVG/1.1/DTD/svg11.dtd">
<!-- Generated by graphviz version 2.43.0 (0)
 -->
<!-- Title: cv::GFluidParallelOutputRois Pages: 1 -->
<svg width="379pt" height="791pt"
 viewBox="0.00 0.00 379.00 791.00" xmlns="http://www.w3.org/2000/svg" xmlns:xlink="http://www.w3.org/1999/xlink">
<g id="graph0" class="graph" transform="scale(1 1) rotate(0) translate(4 787)">
<title>cv::GFluidParallelOutputRois</title>
<!-- Node1 -->
<g id="Node000001" class="node">
<title>Node1</title>
<g id="a_Node000001"><a xlink:title="This structure forces Fluid backend to generate multiple parallel output regions in the graph....">
<polygon fill="#999999" stroke="transparent" points="269.5,-49 120.5,-49 120.5,0 269.5,0 269.5,-49"/>
<text text-anchor="start" x="126" y="-36.5" font-family="Helvetica,sans-Serif" font-size="10.00">cv::GFluidParallelOutputRois</text>
<text text-anchor="start" x="193.5" y="-21.5" font-family="Helvetica,sans-Serif" font-size="10.00"> </text>
<text text-anchor="start" x="193.5" y="-6.5" font-family="Helvetica,sans-Serif" font-size="10.00"> </text>
<polygon fill="#666666" stroke="#666666" points="121,-31.5 121,-31.5 270,-31.5 270,-31.5 121,-31.5"/>
<polygon fill="#666666" stroke="#666666" points="121,-16.5 121,-16.5 270,-16.5 270,-16.5 121,-16.5"/>
<polygon fill="none" stroke="#666666" points="120.5,0 120.5,-49 269.5,-49 269.5,0 120.5,0"/>
</a>
</g>
</g>
<!-- Node2 -->
<g id="Node000002" class="node">
<title>Node2</title>
<g id="a_Node000002"><a xlink:title=" ">
<polygon fill="white" stroke="transparent" points="272.5,-156 117.5,-156 117.5,-96 272.5,-96 272.5,-156"/>
<text text-anchor="start" x="123" y="-144" font-family="Helvetica,sans-Serif" font-size="10.00">std::vector&lt; cv::GFluidOutput</text>
<text text-anchor="start" x="179" y="-133" font-family="Helvetica,sans-Serif" font-size="10.00">Rois &gt;</text>
<text text-anchor="start" x="193.5" y="-118" font-family="Helvetica,sans-Serif" font-size="10.00"> </text>
<text text-anchor="start" x="193.5" y="-103" font-family="Helvetica,sans-Serif" font-size="10.00"> </text>
<polygon fill="#666666" stroke="#666666" points="118,-128 118,-128 273,-128 273,-128 118,-128"/>
<polygon fill="#666666" stroke="#666666" points="118,-113 118,-113 273,-113 273,-113 118,-113"/>
<polygon fill="none" stroke="#666666" points="117.5,-96 117.5,-156 272.5,-156 272.5,-96 117.5,-96"/>
</a>
</g>
</g>
<!-- Node2&#45;&gt;Node1 -->
<g id="edge1_Node000001_Node000002" class="edge">
<title>Node2&#45;&gt;Node1</title>
<g id="a_edge1_Node000001_Node000002"><a xlink:title=" ">
<path fill="none" stroke="#63b8ff" d="M195,-95.95C195,-85.12 195,-72.69 195,-61.31"/>
<polygon fill="none" stroke="#63b8ff" points="195,-61.06 191,-55.06 195,-49.06 199,-55.06 195,-61.06"/>
</a>
</g>
<text text-anchor="middle" x="231" y="-70" font-family="Helvetica,sans-Serif" font-size="10.00" fill="grey"> +parallel_rois</text>
</g>
<!-- Node3 -->
<g id="Node000003" class="node">
<title>Node3</title>
<g id="a_Node000003"><a xlink:href="../../d9/d17/structcv_1_1GFluidOutputRois.html" target="_top" xlink:title="This structure allows to control the output image region which Fluid backend will produce in the grap...">
<polygon fill="white" stroke="transparent" points="208.5,-252 95.5,-252 95.5,-203 208.5,-203 208.5,-252"/>
<text text-anchor="start" x="101" y="-239.5" font-family="Helvetica,sans-Serif" font-size="10.00">cv::GFluidOutputRois</text>
<text text-anchor="start" x="150.5" y="-224.5" font-family="Helvetica,sans-Serif" font-size="10.00"> </text>
<text text-anchor="start" x="150.5" y="-209.5" font-family="Helvetica,sans-Serif" font-size="10.00"> </text>
<polygon fill="#666666" stroke="#666666" points="96,-234.5 96,-234.5 209,-234.5 209,-234.5 96,-234.5"/>
<polygon fill="#666666" stroke="#666666" points="96,-219.5 96,-219.5 209,-219.5 209,-219.5 96,-219.5"/>
<polygon fill="none" stroke="#666666" points="95.5,-203 95.5,-252 208.5,-252 208.5,-203 95.5,-203"/>
</a>
</g>
</g>
<!-- Node3&#45;&gt;Node2 -->
<g id="edge2_Node000002_Node000003" class="edge">
<title>Node3&#45;&gt;Node2</title>
<g id="a_edge2_Node000002_Node000003"><a xlink:title=" ">
<path fill="none" stroke="#63b8ff" d="M157.38,-202.79C159.82,-193.61 163.05,-183.14 167,-174 168,-171.68 169.09,-169.34 170.25,-167.01"/>
<polygon fill="none" stroke="#63b8ff" points="170.36,-166.8 169.66,-159.62 176.02,-156.22 176.72,-163.4 170.36,-166.8"/>
</a>
</g>
<text text-anchor="middle" x="196" y="-177" font-family="Helvetica,sans-Serif" font-size="10.00" fill="grey"> +elements</text>
</g>
<!-- Node4 -->
<g id="Node000004" class="node">
<title>Node4</title>
<g id="a_Node000004"><a xlink:title=" ">
<polygon fill="white" stroke="transparent" points="211,-348 83,-348 83,-299 211,-299 211,-348"/>
<text text-anchor="start" x="88" y="-335.5" font-family="Helvetica,sans-Serif" font-size="10.00">std::vector&lt; cv::Rect_ &gt;</text>
<text text-anchor="start" x="145" y="-320.5" font-family="Helvetica,sans-Serif" font-size="10.00"> </text>
<text text-anchor="start" x="145" y="-305.5" font-family="Helvetica,sans-Serif" font-size="10.00"> </text>
<polygon fill="#666666" stroke="#666666" points="83,-330.5 83,-330.5 211,-330.5 211,-330.5 83,-330.5"/>
<polygon fill="#666666" stroke="#666666" points="83,-315.5 83,-315.5 211,-315.5 211,-315.5 83,-315.5"/>
<polygon fill="none" stroke="#666666" points="83,-299 83,-348 211,-348 211,-299 83,-299"/>
</a>
</g>
</g>
<!-- Node4&#45;&gt;Node3 -->
<g id="edge3_Node000003_Node000004" class="edge">
<title>Node4&#45;&gt;Node3</title>
<g id="a_edge3_Node000003_Node000004"><a xlink:title=" ">
<path fill="none" stroke="#63b8ff" d="M148.26,-298.78C148.82,-288.32 149.48,-275.79 150.1,-264.23"/>
<polygon fill="none" stroke="#63b8ff" points="150.1,-264.2 146.43,-257.99 150.74,-252.21 154.41,-258.42 150.1,-264.2"/>
</a>
</g>
<text text-anchor="middle" x="165" y="-273" font-family="Helvetica,sans-Serif" font-size="10.00" fill="grey"> +rois</text>
</g>
<!-- Node5 -->
<g id="Node000005" class="node">
<title>Node5</title>
<g id="a_Node000005"><a xlink:href="../../d2/d44/classcv_1_1Rect__.html" target="_top" xlink:title="Template class for 2D rectangles.">
<polygon fill="white" stroke="transparent" points="146,-654 0,-654 0,-395 146,-395 146,-654"/>
<text text-anchor="start" x="31" y="-641.5" font-family="Helvetica,sans-Serif" font-size="10.00">cv::Rect_&lt; _Tp &gt;</text>
<text text-anchor="start" x="71" y="-626.5" font-family="Helvetica,sans-Serif" font-size="10.00"> </text>
<text text-anchor="start" x="4" y="-611.5" font-family="Helvetica,sans-Serif" font-size="10.00">+</text>
<text text-anchor="start" x="17" y="-611.5" font-family="Helvetica,sans-Serif" font-size="10.00">Rect_()</text>
<text text-anchor="start" x="4" y="-596.5" font-family="Helvetica,sans-Serif" font-size="10.00">+</text>
<text text-anchor="start" x="17" y="-596.5" font-family="Helvetica,sans-Serif" font-size="10.00">Rect_()</text>
<text text-anchor="start" x="4" y="-581.5" font-family="Helvetica,sans-Serif" font-size="10.00">+</text>
<text text-anchor="start" x="17" y="-581.5" font-family="Helvetica,sans-Serif" font-size="10.00">Rect_()</text>
<text text-anchor="start" x="4" y="-566.5" font-family="Helvetica,sans-Serif" font-size="10.00">+</text>
<text text-anchor="start" x="17" y="-566.5" font-family="Helvetica,sans-Serif" font-size="10.00">Rect_()</text>
<text text-anchor="start" x="4" y="-551.5" font-family="Helvetica,sans-Serif" font-size="10.00">+</text>
<text text-anchor="start" x="17" y="-551.5" font-family="Helvetica,sans-Serif" font-size="10.00">Rect_()</text>
<text text-anchor="start" x="4" y="-536.5" font-family="Helvetica,sans-Serif" font-size="10.00">+</text>
<text text-anchor="start" x="17" y="-536.5" font-family="Helvetica,sans-Serif" font-size="10.00">Rect_()</text>
<text text-anchor="start" x="4" y="-521.5" font-family="Helvetica,sans-Serif" font-size="10.00">+</text>
<text text-anchor="start" x="17" y="-521.5" font-family="Helvetica,sans-Serif" font-size="10.00">area()</text>
<text text-anchor="start" x="4" y="-506.5" font-family="Helvetica,sans-Serif" font-size="10.00">+</text>
<text text-anchor="start" x="17" y="-506.5" font-family="Helvetica,sans-Serif" font-size="10.00">br()</text>
<text text-anchor="start" x="4" y="-491.5" font-family="Helvetica,sans-Serif" font-size="10.00">+</text>
<text text-anchor="start" x="17" y="-491.5" font-family="Helvetica,sans-Serif" font-size="10.00">contains()</text>
<text text-anchor="start" x="4" y="-476.5" font-family="Helvetica,sans-Serif" font-size="10.00">+</text>
<text text-anchor="start" x="17" y="-476.5" font-family="Helvetica,sans-Serif" font-size="10.00">empty()</text>
<text text-anchor="start" x="4" y="-461.5" font-family="Helvetica,sans-Serif" font-size="10.00">+</text>
<text text-anchor="start" x="17" y="-461.5" font-family="Helvetica,sans-Serif" font-size="10.00">operator Rect_&lt; _Tp2 &gt;()</text>
<text text-anchor="start" x="4" y="-446.5" font-family="Helvetica,sans-Serif" font-size="10.00">+</text>
<text text-anchor="start" x="17" y="-446.5" font-family="Helvetica,sans-Serif" font-size="10.00">operator=()</text>
<text text-anchor="start" x="4" y="-431.5" font-family="Helvetica,sans-Serif" font-size="10.00">+</text>
<text text-anchor="start" x="17" y="-431.5" font-family="Helvetica,sans-Serif" font-size="10.00">operator=()</text>
<text text-anchor="start" x="4" y="-416.5" font-family="Helvetica,sans-Serif" font-size="10.00">+</text>
<text text-anchor="start" x="17" y="-416.5" font-family="Helvetica,sans-Serif" font-size="10.00">size()</text>
<text text-anchor="start" x="4" y="-401.5" font-family="Helvetica,sans-Serif" font-size="10.00">+</text>
<text text-anchor="start" x="17" y="-401.5" font-family="Helvetica,sans-Serif" font-size="10.00">tl()</text>
<polygon fill="#666666" stroke="#666666" points="0,-636.5 0,-636.5 146,-636.5 146,-636.5 0,-636.5"/>
<polygon fill="#666666" stroke="#666666" points="0,-621.5 0,-621.5 146,-621.5 146,-621.5 0,-621.5"/>
<polygon fill="none" stroke="#666666" points="0,-395 0,-654 146,-654 146,-395 0,-395"/>
</a>
</g>
</g>
<!-- Node5&#45;&gt;Node4 -->
<g id="edge4_Node000004_Node000005" class="edge">
<title>Node5&#45;&gt;Node4</title>
<g id="a_edge4_Node000004_Node000005"><a xlink:title=" ">
<path fill="none" stroke="#63b8ff" d="M62.51,-394.88C65.03,-384.74 68.75,-374.96 74,-366 76.06,-362.48 78.55,-359.23 81.34,-356.24"/>
<polygon fill="none" stroke="#63b8ff" points="81.58,-356.03 83.37,-349.04 90.51,-348.01 88.71,-355 81.58,-356.03"/>
</a>
</g>
<text text-anchor="middle" x="103" y="-369" font-family="Helvetica,sans-Serif" font-size="10.00" fill="grey"> +elements</text>
</g>
<!-- Node6 -->
<g id="Node000006" class="node">
<title>Node6</title>
<g id="a_Node000006"><a xlink:href="../../d1/dd7/class__Tp.html" target="_top" xlink:title=" ">
<polygon fill="white" stroke="transparent" points="87,-783 59,-783 59,-734 87,-734 87,-783"/>
<text text-anchor="start" x="64" y="-770.5" font-family="Helvetica,sans-Serif" font-size="10.00">_Tp</text>
<text text-anchor="start" x="71" y="-755.5" font-family="Helvetica,sans-Serif" font-size="10.00"> </text>
<text text-anchor="start" x="71" y="-740.5" font-family="Helvetica,sans-Serif" font-size="10.00"> </text>
<polygon fill="#666666" stroke="#666666" points="59,-765.5 59,-765.5 87,-765.5 87,-765.5 59,-765.5"/>
<polygon fill="#666666" stroke="#666666" points="59,-750.5 59,-750.5 87,-750.5 87,-750.5 59,-750.5"/>
<polygon fill="none" stroke="#666666" points="59,-734 59,-783 87,-783 87,-734 59,-734"/>
</a>
</g>
</g>
<!-- Node6&#45;&gt;Node5 -->
<g id="edge5_Node000005_Node000006" class="edge">
<title>Node6&#45;&gt;Node5</title>
<g id="a_edge5_Node000005_Node000006"><a xlink:title=" ">
<path fill="none" stroke="#63b8ff" d="M73,-733.98C73,-717 73,-692.51 73,-666.25"/>
<polygon fill="none" stroke="#63b8ff" points="73,-666.08 69,-660.08 73,-654.08 77,-660.08 73,-666.08"/>
</a>
</g>
<text text-anchor="middle" x="94.5" y="-708" font-family="Helvetica,sans-Serif" font-size="10.00" fill="grey"> +height</text>
<text text-anchor="middle" x="94.5" y="-697" font-family="Helvetica,sans-Serif" font-size="10.00" fill="grey">+width</text>
<text text-anchor="middle" x="94.5" y="-686" font-family="Helvetica,sans-Serif" font-size="10.00" fill="grey">+x</text>
<text text-anchor="middle" x="94.5" y="-675" font-family="Helvetica,sans-Serif" font-size="10.00" fill="grey">+y</text>
</g>
<!-- Node7 -->
<g id="Node000007" class="node">
<title>Node7</title>
<g id="a_Node000007"><a xlink:title=" ">
<polygon fill="white" stroke="transparent" points="269.5,-549 178.5,-549 178.5,-500 269.5,-500 269.5,-549"/>
<text text-anchor="start" x="184" y="-536.5" font-family="Helvetica,sans-Serif" font-size="10.00">std::vector&lt; T &gt;</text>
<text text-anchor="start" x="222.5" y="-521.5" font-family="Helvetica,sans-Serif" font-size="10.00"> </text>
<text text-anchor="start" x="222.5" y="-506.5" font-family="Helvetica,sans-Serif" font-size="10.00"> </text>
<polygon fill="#666666" stroke="#666666" points="179,-531.5 179,-531.5 270,-531.5 270,-531.5 179,-531.5"/>
<polygon fill="#666666" stroke="#666666" points="179,-516.5 179,-516.5 270,-516.5 270,-516.5 179,-516.5"/>
<polygon fill="none" stroke="#666666" points="178.5,-500 178.5,-549 269.5,-549 269.5,-500 178.5,-500"/>
</a>
</g>
</g>
<!-- Node7&#45;&gt;Node2 -->
<g id="edge8_Node000002_Node000007" class="edge">
<title>Node7&#45;&gt;Node2</title>
<g id="a_edge8_Node000002_Node000007"><a xlink:title=" ">
<path fill="none" stroke="orange" d="M230.29,-489.76C240.78,-426.36 257.63,-285.77 225,-174 223.21,-167.87 220.35,-161.77 217.09,-156.1"/>
<polygon fill="orange" stroke="orange" points="226.78,-489.52 228.55,-499.97 233.68,-490.7 226.78,-489.52"/>
</a>
</g>
<text text-anchor="middle" x="307" y="-273" font-family="Helvetica,sans-Serif" font-size="10.00" fill="grey"> &lt; cv::GFluidOutputRois &gt;</text>
</g>
<!-- Node7&#45;&gt;Node4 -->
<g id="edge6_Node000004_Node000007" class="edge">
<title>Node7&#45;&gt;Node4</title>
<g id="a_edge6_Node000004_Node000007"><a xlink:title=" ">
<path fill="none" stroke="orange" d="M205.41,-491.13C189.59,-462.15 167.49,-418.01 155,-377 152.18,-367.74 150.33,-357.24 149.12,-348.08"/>
<polygon fill="orange" stroke="orange" points="202.4,-492.93 210.31,-499.99 208.53,-489.54 202.4,-492.93"/>
</a>
</g>
<text text-anchor="middle" x="190" y="-369" font-family="Helvetica,sans-Serif" font-size="10.00" fill="grey"> &lt; cv::Rect_ &gt;</text>
</g>
<!-- Node8 -->
<g id="Node000008" class="node">
<title>Node8</title>
<g id="a_Node000008"><a xlink:title=" ">
<polygon fill="white" stroke="transparent" points="232.5,-783 215.5,-783 215.5,-734 232.5,-734 232.5,-783"/>
<text text-anchor="start" x="221" y="-770.5" font-family="Helvetica,sans-Serif" font-size="10.00">T</text>
<text text-anchor="start" x="222.5" y="-755.5" font-family="Helvetica,sans-Serif" font-size="10.00"> </text>
<text text-anchor="start" x="222.5" y="-740.5" font-family="Helvetica,sans-Serif" font-size="10.00"> </text>
<polygon fill="#666666" stroke="#666666" points="216,-765.5 216,-765.5 233,-765.5 233,-765.5 216,-765.5"/>
<polygon fill="#666666" stroke="#666666" points="216,-750.5 216,-750.5 233,-750.5 233,-750.5 216,-750.5"/>
<polygon fill="none" stroke="#666666" points="215.5,-734 215.5,-783 232.5,-783 232.5,-734 215.5,-734"/>
</a>
</g>
</g>
<!-- Node8&#45;&gt;Node7 -->
<g id="edge7_Node000007_Node000008" class="edge">
<title>Node8&#45;&gt;Node7</title>
<g id="a_edge7_Node000007_Node000008"><a xlink:title=" ">
<path fill="none" stroke="#63b8ff" d="M224,-733.98C224,-693.25 224,-609.35 224,-561.33"/>
<polygon fill="none" stroke="#63b8ff" points="224,-561.08 220,-555.08 224,-549.08 228,-555.08 224,-561.08"/>
</a>
</g>
<text text-anchor="middle" x="253" y="-691.5" font-family="Helvetica,sans-Serif" font-size="10.00" fill="grey"> +elements</text>
</g>
</g>
</svg>
