<?xml version="1.0" encoding="UTF-8" standalone="no"?>
<!DOCTYPE svg PUBLIC "-//W3C//DTD SVG 1.1//EN"
 "http://www.w3.org/Graphics/SVG/1.1/DTD/svg11.dtd">
<!-- Generated by graphviz version 2.43.0 (0)
 -->
<!-- Title: cv::detail::Timelapser Pages: 1 -->
<svg width="929pt" height="1323pt"
 viewBox="0.00 0.00 928.90 1323.00" xmlns="http://www.w3.org/2000/svg" xmlns:xlink="http://www.w3.org/1999/xlink">
<g id="graph0" class="graph" transform="scale(1 1) rotate(0) translate(4 1319)">
<title>cv::detail::Timelapser</title>
<!-- Node1 -->
<g id="Node000001" class="node">
<title>Node1</title>
<g id="a_Node000001"><a xlink:title=" ">
<polygon fill="#999999" stroke="transparent" points="474.9,-124 358.9,-124 358.9,0 474.9,0 474.9,-124"/>
<text text-anchor="start" x="363.9" y="-112" font-family="Helvetica,sans-Serif" font-size="10.00">cv::detail::Timelapser</text>
<text text-anchor="start" x="414.9" y="-97" font-family="Helvetica,sans-Serif" font-size="10.00"> </text>
<text text-anchor="start" x="367.9" y="-82" font-family="Helvetica,sans-Serif" font-size="10.00">+</text>
<text text-anchor="start" x="385.9" y="-82" font-family="Helvetica,sans-Serif" font-size="10.00">~Timelapser()</text>
<text text-anchor="start" x="367.9" y="-67" font-family="Helvetica,sans-Serif" font-size="10.00">+</text>
<text text-anchor="start" x="385.9" y="-67" font-family="Helvetica,sans-Serif" font-size="10.00">getDst()</text>
<text text-anchor="start" x="367.9" y="-52" font-family="Helvetica,sans-Serif" font-size="10.00">+</text>
<text text-anchor="start" x="385.9" y="-52" font-family="Helvetica,sans-Serif" font-size="10.00">initialize()</text>
<text text-anchor="start" x="367.9" y="-37" font-family="Helvetica,sans-Serif" font-size="10.00">+</text>
<text text-anchor="start" x="385.9" y="-37" font-family="Helvetica,sans-Serif" font-size="10.00">process()</text>
<text text-anchor="start" x="367.9" y="-22" font-family="Helvetica,sans-Serif" font-size="10.00">+</text>
<text text-anchor="start" x="385.9" y="-22" font-family="Helvetica,sans-Serif" font-size="10.00">createDefault()</text>
<text text-anchor="start" x="367.9" y="-7" font-family="Helvetica,sans-Serif" font-size="10.00">#</text>
<text text-anchor="start" x="385.9" y="-7" font-family="Helvetica,sans-Serif" font-size="10.00">test_point()</text>
<polygon fill="#666666" stroke="#666666" points="358.9,-107 358.9,-107 474.9,-107 474.9,-107 358.9,-107"/>
<polygon fill="#666666" stroke="#666666" points="358.9,-92 358.9,-92 474.9,-92 474.9,-92 358.9,-92"/>
<polygon fill="none" stroke="#666666" points="358.9,0 358.9,-124 474.9,-124 474.9,0 358.9,0"/>
</a>
</g>
</g>
<!-- Node2 -->
<g id="Node000002" class="node">
<title>Node2</title>
<g id="a_Node000002"><a xlink:href="../../d7/d45/classcv_1_1UMat.html" target="_top" xlink:title=" ">
<polygon fill="white" stroke="transparent" points="397.9,-535 293.9,-535 293.9,-171 397.9,-171 397.9,-535"/>
<text text-anchor="start" x="324.4" y="-523" font-family="Helvetica,sans-Serif" font-size="10.00">cv::UMat</text>
<text text-anchor="start" x="343.9" y="-508" font-family="Helvetica,sans-Serif" font-size="10.00"> </text>
<text text-anchor="start" x="297.9" y="-493" font-family="Helvetica,sans-Serif" font-size="10.00">+</text>
<text text-anchor="start" x="310.9" y="-493" font-family="Helvetica,sans-Serif" font-size="10.00">UMat()</text>
<text text-anchor="start" x="297.9" y="-478" font-family="Helvetica,sans-Serif" font-size="10.00">+</text>
<text text-anchor="start" x="310.9" y="-478" font-family="Helvetica,sans-Serif" font-size="10.00">UMat()</text>
<text text-anchor="start" x="297.9" y="-463" font-family="Helvetica,sans-Serif" font-size="10.00">+</text>
<text text-anchor="start" x="310.9" y="-463" font-family="Helvetica,sans-Serif" font-size="10.00">UMat()</text>
<text text-anchor="start" x="297.9" y="-448" font-family="Helvetica,sans-Serif" font-size="10.00">+</text>
<text text-anchor="start" x="310.9" y="-448" font-family="Helvetica,sans-Serif" font-size="10.00">UMat()</text>
<text text-anchor="start" x="297.9" y="-433" font-family="Helvetica,sans-Serif" font-size="10.00">+</text>
<text text-anchor="start" x="310.9" y="-433" font-family="Helvetica,sans-Serif" font-size="10.00">UMat()</text>
<text text-anchor="start" x="297.9" y="-418" font-family="Helvetica,sans-Serif" font-size="10.00">+</text>
<text text-anchor="start" x="310.9" y="-418" font-family="Helvetica,sans-Serif" font-size="10.00">UMat()</text>
<text text-anchor="start" x="297.9" y="-403" font-family="Helvetica,sans-Serif" font-size="10.00">+</text>
<text text-anchor="start" x="310.9" y="-403" font-family="Helvetica,sans-Serif" font-size="10.00">UMat()</text>
<text text-anchor="start" x="297.9" y="-388" font-family="Helvetica,sans-Serif" font-size="10.00">+</text>
<text text-anchor="start" x="310.9" y="-388" font-family="Helvetica,sans-Serif" font-size="10.00">UMat()</text>
<text text-anchor="start" x="297.9" y="-373" font-family="Helvetica,sans-Serif" font-size="10.00">+</text>
<text text-anchor="start" x="310.9" y="-373" font-family="Helvetica,sans-Serif" font-size="10.00">UMat()</text>
<text text-anchor="start" x="297.9" y="-358" font-family="Helvetica,sans-Serif" font-size="10.00">+</text>
<text text-anchor="start" x="310.9" y="-358" font-family="Helvetica,sans-Serif" font-size="10.00">UMat()</text>
<text text-anchor="start" x="310.9" y="-343" font-family="Helvetica,sans-Serif" font-size="10.00">and 56 more...</text>
<text text-anchor="start" x="297.9" y="-328" font-family="Helvetica,sans-Serif" font-size="10.00">+</text>
<text text-anchor="start" x="310.9" y="-328" font-family="Helvetica,sans-Serif" font-size="10.00">diag()</text>
<text text-anchor="start" x="297.9" y="-313" font-family="Helvetica,sans-Serif" font-size="10.00">+</text>
<text text-anchor="start" x="310.9" y="-313" font-family="Helvetica,sans-Serif" font-size="10.00">diag()</text>
<text text-anchor="start" x="297.9" y="-298" font-family="Helvetica,sans-Serif" font-size="10.00">+</text>
<text text-anchor="start" x="310.9" y="-298" font-family="Helvetica,sans-Serif" font-size="10.00">eye()</text>
<text text-anchor="start" x="297.9" y="-283" font-family="Helvetica,sans-Serif" font-size="10.00">+</text>
<text text-anchor="start" x="310.9" y="-283" font-family="Helvetica,sans-Serif" font-size="10.00">eye()</text>
<text text-anchor="start" x="297.9" y="-268" font-family="Helvetica,sans-Serif" font-size="10.00">+</text>
<text text-anchor="start" x="310.9" y="-268" font-family="Helvetica,sans-Serif" font-size="10.00">eye()</text>
<text text-anchor="start" x="297.9" y="-253" font-family="Helvetica,sans-Serif" font-size="10.00">+</text>
<text text-anchor="start" x="310.9" y="-253" font-family="Helvetica,sans-Serif" font-size="10.00">eye()</text>
<text text-anchor="start" x="297.9" y="-238" font-family="Helvetica,sans-Serif" font-size="10.00">+</text>
<text text-anchor="start" x="310.9" y="-238" font-family="Helvetica,sans-Serif" font-size="10.00">getStdAllocator()</text>
<text text-anchor="start" x="297.9" y="-223" font-family="Helvetica,sans-Serif" font-size="10.00">+</text>
<text text-anchor="start" x="310.9" y="-223" font-family="Helvetica,sans-Serif" font-size="10.00">ones()</text>
<text text-anchor="start" x="297.9" y="-208" font-family="Helvetica,sans-Serif" font-size="10.00">+</text>
<text text-anchor="start" x="310.9" y="-208" font-family="Helvetica,sans-Serif" font-size="10.00">ones()</text>
<text text-anchor="start" x="297.9" y="-193" font-family="Helvetica,sans-Serif" font-size="10.00">+</text>
<text text-anchor="start" x="310.9" y="-193" font-family="Helvetica,sans-Serif" font-size="10.00">ones()</text>
<text text-anchor="start" x="310.9" y="-178" font-family="Helvetica,sans-Serif" font-size="10.00">and 9 more...</text>
<polygon fill="#666666" stroke="#666666" points="293.9,-518 293.9,-518 397.9,-518 397.9,-518 293.9,-518"/>
<polygon fill="#666666" stroke="#666666" points="293.9,-503 293.9,-503 397.9,-503 397.9,-503 293.9,-503"/>
<polygon fill="none" stroke="#666666" points="293.9,-171 293.9,-535 397.9,-535 397.9,-171 293.9,-171"/>
</a>
</g>
</g>
<!-- Node2&#45;&gt;Node1 -->
<g id="edge1_Node000001_Node000002" class="edge">
<title>Node2&#45;&gt;Node1</title>
<g id="a_edge1_Node000001_Node000002"><a xlink:title=" ">
<path fill="none" stroke="#63b8ff" d="M390.46,-170.61C393.4,-158.67 396.24,-147.08 398.91,-136.21"/>
<polygon fill="none" stroke="#63b8ff" points="398.99,-135.92 396.53,-129.13 401.85,-124.26 404.3,-131.04 398.99,-135.92"/>
</a>
</g>
<text text-anchor="middle" x="412.9" y="-145" font-family="Helvetica,sans-Serif" font-size="10.00" fill="grey"> #dst_</text>
</g>
<!-- Node3 -->
<g id="Node000003" class="node">
<title>Node3</title>
<g id="a_Node000003"><a xlink:title=" ">
<polygon fill="white" stroke="transparent" points="119.4,-1048 96.4,-1048 96.4,-999 119.4,-999 119.4,-1048"/>
<text text-anchor="start" x="101.9" y="-1035.5" font-family="Helvetica,sans-Serif" font-size="10.00">int</text>
<text text-anchor="start" x="106.4" y="-1020.5" font-family="Helvetica,sans-Serif" font-size="10.00"> </text>
<text text-anchor="start" x="106.4" y="-1005.5" font-family="Helvetica,sans-Serif" font-size="10.00"> </text>
<polygon fill="#666666" stroke="#666666" points="96.9,-1030.5 96.9,-1030.5 119.9,-1030.5 119.9,-1030.5 96.9,-1030.5"/>
<polygon fill="#666666" stroke="#666666" points="96.9,-1015.5 96.9,-1015.5 119.9,-1015.5 119.9,-1015.5 96.9,-1015.5"/>
<polygon fill="none" stroke="#666666" points="96.4,-999 96.4,-1048 119.4,-1048 119.4,-999 96.4,-999"/>
</a>
</g>
</g>
<!-- Node3&#45;&gt;Node2 -->
<g id="edge2_Node000002_Node000003" class="edge">
<title>Node3&#45;&gt;Node2</title>
<g id="a_edge2_Node000002_Node000003"><a xlink:title=" ">
<path fill="none" stroke="#63b8ff" d="M96.32,-1004.46C60.08,-945.56 -44.89,-754.57 21.9,-615 75.76,-502.44 204.47,-422.94 282.49,-383.14"/>
<polygon fill="none" stroke="#63b8ff" points="282.89,-382.94 286.46,-376.67 293.61,-377.56 290.05,-383.82 282.89,-382.94"/>
</a>
</g>
<text text-anchor="middle" x="38.4" y="-743.5" font-family="Helvetica,sans-Serif" font-size="10.00" fill="grey"> +cols</text>
<text text-anchor="middle" x="38.4" y="-732.5" font-family="Helvetica,sans-Serif" font-size="10.00" fill="grey">+dims</text>
<text text-anchor="middle" x="38.4" y="-721.5" font-family="Helvetica,sans-Serif" font-size="10.00" fill="grey">+flags</text>
<text text-anchor="middle" x="38.4" y="-710.5" font-family="Helvetica,sans-Serif" font-size="10.00" fill="grey">+rows</text>
</g>
<!-- Node6 -->
<g id="Node000006" class="node">
<title>Node6</title>
<g id="a_Node000006"><a xlink:href="../../db/d58/structcv_1_1UMatData.html" target="_top" xlink:title=" ">
<polygon fill="white" stroke="transparent" points="530.4,-844 373.4,-844 373.4,-615 530.4,-615 530.4,-844"/>
<text text-anchor="start" x="418.9" y="-831.5" font-family="Helvetica,sans-Serif" font-size="10.00">cv::UMatData</text>
<text text-anchor="start" x="450.4" y="-816.5" font-family="Helvetica,sans-Serif" font-size="10.00"> </text>
<text text-anchor="start" x="377.9" y="-801.5" font-family="Helvetica,sans-Serif" font-size="10.00">+</text>
<text text-anchor="start" x="390.9" y="-801.5" font-family="Helvetica,sans-Serif" font-size="10.00">UMatData()</text>
<text text-anchor="start" x="377.9" y="-786.5" font-family="Helvetica,sans-Serif" font-size="10.00">+</text>
<text text-anchor="start" x="390.9" y="-786.5" font-family="Helvetica,sans-Serif" font-size="10.00">~UMatData()</text>
<text text-anchor="start" x="377.9" y="-771.5" font-family="Helvetica,sans-Serif" font-size="10.00">+</text>
<text text-anchor="start" x="390.9" y="-771.5" font-family="Helvetica,sans-Serif" font-size="10.00">copyOnMap()</text>
<text text-anchor="start" x="377.9" y="-756.5" font-family="Helvetica,sans-Serif" font-size="10.00">+</text>
<text text-anchor="start" x="390.9" y="-756.5" font-family="Helvetica,sans-Serif" font-size="10.00">deviceCopyObsolete()</text>
<text text-anchor="start" x="377.9" y="-741.5" font-family="Helvetica,sans-Serif" font-size="10.00">+</text>
<text text-anchor="start" x="390.9" y="-741.5" font-family="Helvetica,sans-Serif" font-size="10.00">deviceMemMapped()</text>
<text text-anchor="start" x="377.9" y="-726.5" font-family="Helvetica,sans-Serif" font-size="10.00">+</text>
<text text-anchor="start" x="390.9" y="-726.5" font-family="Helvetica,sans-Serif" font-size="10.00">hostCopyObsolete()</text>
<text text-anchor="start" x="377.9" y="-711.5" font-family="Helvetica,sans-Serif" font-size="10.00">+</text>
<text text-anchor="start" x="390.9" y="-711.5" font-family="Helvetica,sans-Serif" font-size="10.00">lock()</text>
<text text-anchor="start" x="377.9" y="-696.5" font-family="Helvetica,sans-Serif" font-size="10.00">+</text>
<text text-anchor="start" x="390.9" y="-696.5" font-family="Helvetica,sans-Serif" font-size="10.00">markDeviceCopyObsolete()</text>
<text text-anchor="start" x="377.9" y="-681.5" font-family="Helvetica,sans-Serif" font-size="10.00">+</text>
<text text-anchor="start" x="390.9" y="-681.5" font-family="Helvetica,sans-Serif" font-size="10.00">markDeviceMemMapped()</text>
<text text-anchor="start" x="377.9" y="-666.5" font-family="Helvetica,sans-Serif" font-size="10.00">+</text>
<text text-anchor="start" x="390.9" y="-666.5" font-family="Helvetica,sans-Serif" font-size="10.00">markHostCopyObsolete()</text>
<text text-anchor="start" x="377.9" y="-651.5" font-family="Helvetica,sans-Serif" font-size="10.00">+</text>
<text text-anchor="start" x="390.9" y="-651.5" font-family="Helvetica,sans-Serif" font-size="10.00">tempCopiedUMat()</text>
<text text-anchor="start" x="377.9" y="-636.5" font-family="Helvetica,sans-Serif" font-size="10.00">+</text>
<text text-anchor="start" x="390.9" y="-636.5" font-family="Helvetica,sans-Serif" font-size="10.00">tempUMat()</text>
<text text-anchor="start" x="377.9" y="-621.5" font-family="Helvetica,sans-Serif" font-size="10.00">+</text>
<text text-anchor="start" x="390.9" y="-621.5" font-family="Helvetica,sans-Serif" font-size="10.00">unlock()</text>
<polygon fill="#666666" stroke="#666666" points="373.9,-826.5 373.9,-826.5 530.9,-826.5 530.9,-826.5 373.9,-826.5"/>
<polygon fill="#666666" stroke="#666666" points="373.9,-811.5 373.9,-811.5 530.9,-811.5 530.9,-811.5 373.9,-811.5"/>
<polygon fill="none" stroke="#666666" points="373.4,-615 373.4,-844 530.4,-844 530.4,-615 373.4,-615"/>
</a>
</g>
</g>
<!-- Node3&#45;&gt;Node6 -->
<g id="edge7_Node000006_Node000003" class="edge">
<title>Node3&#45;&gt;Node6</title>
<g id="a_edge7_Node000006_Node000003"><a xlink:title=" ">
<path fill="none" stroke="#63b8ff" d="M113.12,-998.98C122.48,-962.85 145.82,-894.46 193.9,-862 255.04,-820.73 294.04,-879.14 358.9,-844 360.29,-843.25 361.66,-842.47 363.02,-841.66"/>
<polygon fill="none" stroke="#63b8ff" points="363.18,-841.55 365.98,-834.91 373.19,-834.94 370.39,-841.58 363.18,-841.55"/>
</a>
</g>
<text text-anchor="middle" x="236.9" y="-898" font-family="Helvetica,sans-Serif" font-size="10.00" fill="grey"> +allocatorFlags_</text>
<text text-anchor="middle" x="236.9" y="-887" font-family="Helvetica,sans-Serif" font-size="10.00" fill="grey">+mapcount</text>
<text text-anchor="middle" x="236.9" y="-876" font-family="Helvetica,sans-Serif" font-size="10.00" fill="grey">+refcount</text>
<text text-anchor="middle" x="236.9" y="-865" font-family="Helvetica,sans-Serif" font-size="10.00" fill="grey">+urefcount</text>
</g>
<!-- Node15 -->
<g id="Node000015" class="node">
<title>Node15</title>
<g id="a_Node000015"><a xlink:href="../../df/d63/structcv_1_1MatSize.html" target="_top" xlink:title=" ">
<polygon fill="white" stroke="transparent" points="151.4,-799 64.4,-799 64.4,-660 151.4,-660 151.4,-799"/>
<text text-anchor="start" x="80.4" y="-786.5" font-family="Helvetica,sans-Serif" font-size="10.00">cv::MatSize</text>
<text text-anchor="start" x="106.4" y="-771.5" font-family="Helvetica,sans-Serif" font-size="10.00"> </text>
<text text-anchor="start" x="68.9" y="-756.5" font-family="Helvetica,sans-Serif" font-size="10.00">+</text>
<text text-anchor="start" x="81.9" y="-756.5" font-family="Helvetica,sans-Serif" font-size="10.00">MatSize()</text>
<text text-anchor="start" x="68.9" y="-741.5" font-family="Helvetica,sans-Serif" font-size="10.00">+</text>
<text text-anchor="start" x="81.9" y="-741.5" font-family="Helvetica,sans-Serif" font-size="10.00">dims()</text>
<text text-anchor="start" x="68.9" y="-726.5" font-family="Helvetica,sans-Serif" font-size="10.00">+</text>
<text text-anchor="start" x="81.9" y="-726.5" font-family="Helvetica,sans-Serif" font-size="10.00">operator!=()</text>
<text text-anchor="start" x="68.9" y="-711.5" font-family="Helvetica,sans-Serif" font-size="10.00">+</text>
<text text-anchor="start" x="81.9" y="-711.5" font-family="Helvetica,sans-Serif" font-size="10.00">operator()()</text>
<text text-anchor="start" x="68.9" y="-696.5" font-family="Helvetica,sans-Serif" font-size="10.00">+</text>
<text text-anchor="start" x="81.9" y="-696.5" font-family="Helvetica,sans-Serif" font-size="10.00">operator==()</text>
<text text-anchor="start" x="68.9" y="-681.5" font-family="Helvetica,sans-Serif" font-size="10.00">+</text>
<text text-anchor="start" x="81.9" y="-681.5" font-family="Helvetica,sans-Serif" font-size="10.00">operator[]()</text>
<text text-anchor="start" x="68.9" y="-666.5" font-family="Helvetica,sans-Serif" font-size="10.00">+</text>
<text text-anchor="start" x="81.9" y="-666.5" font-family="Helvetica,sans-Serif" font-size="10.00">operator[]()</text>
<polygon fill="#666666" stroke="#666666" points="64.9,-781.5 64.9,-781.5 151.9,-781.5 151.9,-781.5 64.9,-781.5"/>
<polygon fill="#666666" stroke="#666666" points="64.9,-766.5 64.9,-766.5 151.9,-766.5 151.9,-766.5 64.9,-766.5"/>
<polygon fill="none" stroke="#666666" points="64.4,-660 64.4,-799 151.4,-799 151.4,-660 64.4,-660"/>
</a>
</g>
</g>
<!-- Node3&#45;&gt;Node15 -->
<g id="edge19_Node000015_Node000003" class="edge">
<title>Node3&#45;&gt;Node15</title>
<g id="a_edge19_Node000015_Node000003"><a xlink:title=" ">
<path fill="none" stroke="#63b8ff" d="M107.9,-998.6C107.9,-958.19 107.9,-874.57 107.9,-811.4"/>
<polygon fill="none" stroke="#63b8ff" points="107.9,-811.06 103.9,-805.06 107.9,-799.06 111.9,-805.06 107.9,-811.06"/>
</a>
</g>
<text text-anchor="middle" x="116.9" y="-881.5" font-family="Helvetica,sans-Serif" font-size="10.00" fill="grey"> +p</text>
</g>
<!-- Node4 -->
<g id="Node000004" class="node">
<title>Node4</title>
<g id="a_Node000004"><a xlink:href="../../df/d4c/classcv_1_1MatAllocator.html" target="_top" xlink:title="Custom array allocator.">
<polygon fill="white" stroke="transparent" points="327.4,-1123 184.4,-1123 184.4,-924 327.4,-924 327.4,-1123"/>
<text text-anchor="start" x="216.9" y="-1110.5" font-family="Helvetica,sans-Serif" font-size="10.00">cv::MatAllocator</text>
<text text-anchor="start" x="254.4" y="-1095.5" font-family="Helvetica,sans-Serif" font-size="10.00"> </text>
<text text-anchor="start" x="188.9" y="-1080.5" font-family="Helvetica,sans-Serif" font-size="10.00">+</text>
<text text-anchor="start" x="201.9" y="-1080.5" font-family="Helvetica,sans-Serif" font-size="10.00">MatAllocator()</text>
<text text-anchor="start" x="188.9" y="-1065.5" font-family="Helvetica,sans-Serif" font-size="10.00">+</text>
<text text-anchor="start" x="201.9" y="-1065.5" font-family="Helvetica,sans-Serif" font-size="10.00">~MatAllocator()</text>
<text text-anchor="start" x="188.9" y="-1050.5" font-family="Helvetica,sans-Serif" font-size="10.00">+</text>
<text text-anchor="start" x="201.9" y="-1050.5" font-family="Helvetica,sans-Serif" font-size="10.00">allocate()</text>
<text text-anchor="start" x="188.9" y="-1035.5" font-family="Helvetica,sans-Serif" font-size="10.00">+</text>
<text text-anchor="start" x="201.9" y="-1035.5" font-family="Helvetica,sans-Serif" font-size="10.00">allocate()</text>
<text text-anchor="start" x="188.9" y="-1020.5" font-family="Helvetica,sans-Serif" font-size="10.00">+</text>
<text text-anchor="start" x="201.9" y="-1020.5" font-family="Helvetica,sans-Serif" font-size="10.00">copy()</text>
<text text-anchor="start" x="188.9" y="-1005.5" font-family="Helvetica,sans-Serif" font-size="10.00">+</text>
<text text-anchor="start" x="201.9" y="-1005.5" font-family="Helvetica,sans-Serif" font-size="10.00">deallocate()</text>
<text text-anchor="start" x="188.9" y="-990.5" font-family="Helvetica,sans-Serif" font-size="10.00">+</text>
<text text-anchor="start" x="201.9" y="-990.5" font-family="Helvetica,sans-Serif" font-size="10.00">download()</text>
<text text-anchor="start" x="188.9" y="-975.5" font-family="Helvetica,sans-Serif" font-size="10.00">+</text>
<text text-anchor="start" x="201.9" y="-975.5" font-family="Helvetica,sans-Serif" font-size="10.00">getBufferPoolController()</text>
<text text-anchor="start" x="188.9" y="-960.5" font-family="Helvetica,sans-Serif" font-size="10.00">+</text>
<text text-anchor="start" x="201.9" y="-960.5" font-family="Helvetica,sans-Serif" font-size="10.00">map()</text>
<text text-anchor="start" x="188.9" y="-945.5" font-family="Helvetica,sans-Serif" font-size="10.00">+</text>
<text text-anchor="start" x="201.9" y="-945.5" font-family="Helvetica,sans-Serif" font-size="10.00">unmap()</text>
<text text-anchor="start" x="188.9" y="-930.5" font-family="Helvetica,sans-Serif" font-size="10.00">+</text>
<text text-anchor="start" x="201.9" y="-930.5" font-family="Helvetica,sans-Serif" font-size="10.00">upload()</text>
<polygon fill="#666666" stroke="#666666" points="184.9,-1105.5 184.9,-1105.5 327.9,-1105.5 327.9,-1105.5 184.9,-1105.5"/>
<polygon fill="#666666" stroke="#666666" points="184.9,-1090.5 184.9,-1090.5 327.9,-1090.5 327.9,-1090.5 184.9,-1090.5"/>
<polygon fill="none" stroke="#666666" points="184.4,-924 184.4,-1123 327.4,-1123 327.4,-924 184.4,-924"/>
</a>
</g>
</g>
<!-- Node4&#45;&gt;Node2 -->
<g id="edge3_Node000002_Node000004" class="edge">
<title>Node4&#45;&gt;Node2</title>
<g id="a_edge3_Node000002_Node000004"><a xlink:title=" ">
<path fill="none" stroke="#63b8ff" d="M268.43,-923.65C278.98,-841.1 294.58,-720.33 308.9,-615 311.89,-592.99 315.08,-569.94 318.28,-547.04"/>
<polygon fill="none" stroke="#63b8ff" points="318.29,-546.97 315.16,-540.47 319.95,-535.09 323.08,-541.58 318.29,-546.97"/>
</a>
</g>
<text text-anchor="middle" x="336.4" y="-727" font-family="Helvetica,sans-Serif" font-size="10.00" fill="grey"> +allocator</text>
</g>
<!-- Node4&#45;&gt;Node6 -->
<g id="edge6_Node000006_Node000004" class="edge">
<title>Node4&#45;&gt;Node6</title>
<g id="a_edge6_Node000006_Node000004"><a xlink:title=" ">
<path fill="none" stroke="#63b8ff" d="M275.44,-923.67C283.68,-901.25 295.36,-879.05 311.9,-862 327.48,-845.95 340.76,-857.09 358.9,-844 360.57,-842.8 362.22,-841.55 363.87,-840.28"/>
<polygon fill="none" stroke="#63b8ff" points="363.87,-840.28 365.95,-833.37 373.12,-832.64 371.04,-839.54 363.87,-840.28"/>
</a>
</g>
<text text-anchor="middle" x="348.9" y="-887" font-family="Helvetica,sans-Serif" font-size="10.00" fill="grey"> +currAllocator</text>
<text text-anchor="middle" x="348.9" y="-876" font-family="Helvetica,sans-Serif" font-size="10.00" fill="grey">+prevAllocator</text>
</g>
<!-- Node5 -->
<g id="Node000005" class="node">
<title>Node5</title>
<g id="a_Node000005"><a xlink:title=" ">
<polygon fill="white" stroke="transparent" points="263.9,-754 169.9,-754 169.9,-705 263.9,-705 263.9,-754"/>
<text text-anchor="start" x="174.9" y="-741.5" font-family="Helvetica,sans-Serif" font-size="10.00">UMatUsageFlags</text>
<text text-anchor="start" x="214.9" y="-726.5" font-family="Helvetica,sans-Serif" font-size="10.00"> </text>
<text text-anchor="start" x="214.9" y="-711.5" font-family="Helvetica,sans-Serif" font-size="10.00"> </text>
<polygon fill="#666666" stroke="#666666" points="169.9,-736.5 169.9,-736.5 263.9,-736.5 263.9,-736.5 169.9,-736.5"/>
<polygon fill="#666666" stroke="#666666" points="169.9,-721.5 169.9,-721.5 263.9,-721.5 263.9,-721.5 169.9,-721.5"/>
<polygon fill="none" stroke="#666666" points="169.9,-705 169.9,-754 263.9,-754 263.9,-705 169.9,-705"/>
</a>
</g>
</g>
<!-- Node5&#45;&gt;Node2 -->
<g id="edge4_Node000002_Node000005" class="edge">
<title>Node5&#45;&gt;Node2</title>
<g id="a_edge4_Node000002_Node000005"><a xlink:title=" ">
<path fill="none" stroke="#63b8ff" d="M213.14,-704.89C208.58,-670.61 203.27,-605.42 218.9,-553 232.6,-507.05 260.3,-461.53 286.35,-425.65"/>
<polygon fill="none" stroke="#63b8ff" points="286.5,-425.44 286.86,-418.24 293.64,-415.79 293.29,-423 286.5,-425.44"/>
</a>
</g>
<text text-anchor="middle" x="252.4" y="-572.5" font-family="Helvetica,sans-Serif" font-size="10.00" fill="grey"> +usageFlags</text>
</g>
<!-- Node6&#45;&gt;Node2 -->
<g id="edge5_Node000002_Node000006" class="edge">
<title>Node6&#45;&gt;Node2</title>
<g id="a_edge5_Node000002_Node000006"><a xlink:title=" ">
<path fill="none" stroke="#63b8ff" d="M419.74,-614.87C413.64,-593.32 407.1,-570.23 400.53,-547.03"/>
<polygon fill="none" stroke="#63b8ff" points="400.47,-546.81 394.99,-542.12 397.2,-535.26 402.69,-539.94 400.47,-546.81"/>
</a>
</g>
<text text-anchor="middle" x="423.9" y="-572.5" font-family="Helvetica,sans-Serif" font-size="10.00" fill="grey"> +u</text>
</g>
<!-- Node6&#45;&gt;Node6 -->
<g id="edge12_Node000006_Node000006" class="edge">
<title>Node6&#45;&gt;Node6</title>
<g id="a_edge12_Node000006_Node000006"><a xlink:title=" ">
<path fill="none" stroke="#63b8ff" d="M530.66,-755.12C541.31,-750.82 548.4,-742.28 548.4,-729.5 548.4,-721.51 545.63,-715.18 540.95,-710.51"/>
<polygon fill="none" stroke="#63b8ff" points="540.75,-710.37 533.54,-710.49 530.66,-703.88 537.87,-703.76 540.75,-710.37"/>
</a>
</g>
<text text-anchor="middle" x="597.4" y="-727" font-family="Helvetica,sans-Serif" font-size="10.00" fill="grey"> +originalUMatData</text>
</g>
<!-- Node7 -->
<g id="Node000007" class="node">
<title>Node7</title>
<g id="a_Node000007"><a xlink:title=" ">
<polygon fill="white" stroke="transparent" points="397.9,-1048 351.9,-1048 351.9,-999 397.9,-999 397.9,-1048"/>
<text text-anchor="start" x="356.9" y="-1035.5" font-family="Helvetica,sans-Serif" font-size="10.00">uchar *</text>
<text text-anchor="start" x="372.9" y="-1020.5" font-family="Helvetica,sans-Serif" font-size="10.00"> </text>
<text text-anchor="start" x="372.9" y="-1005.5" font-family="Helvetica,sans-Serif" font-size="10.00"> </text>
<polygon fill="#666666" stroke="#666666" points="351.9,-1030.5 351.9,-1030.5 397.9,-1030.5 397.9,-1030.5 351.9,-1030.5"/>
<polygon fill="#666666" stroke="#666666" points="351.9,-1015.5 351.9,-1015.5 397.9,-1015.5 397.9,-1015.5 351.9,-1015.5"/>
<polygon fill="none" stroke="#666666" points="351.9,-999 351.9,-1048 397.9,-1048 397.9,-999 351.9,-999"/>
</a>
</g>
</g>
<!-- Node7&#45;&gt;Node6 -->
<g id="edge8_Node000006_Node000007" class="edge">
<title>Node7&#45;&gt;Node6</title>
<g id="a_edge8_Node000006_Node000007"><a xlink:title=" ">
<path fill="none" stroke="#63b8ff" d="M376.7,-998.75C379.49,-967.11 385.95,-909.57 398.9,-862 399.44,-860 400.01,-857.99 400.6,-855.97"/>
<polygon fill="none" stroke="#63b8ff" points="400.64,-855.82 398.57,-848.91 404.15,-844.34 406.22,-851.25 400.64,-855.82"/>
</a>
</g>
<text text-anchor="middle" x="423.4" y="-887" font-family="Helvetica,sans-Serif" font-size="10.00" fill="grey"> +data</text>
<text text-anchor="middle" x="423.4" y="-876" font-family="Helvetica,sans-Serif" font-size="10.00" fill="grey">+origdata</text>
</g>
<!-- Node8 -->
<g id="Node000008" class="node">
<title>Node8</title>
<g id="a_Node000008"><a xlink:title=" ">
<polygon fill="white" stroke="transparent" points="766.4,-1048 727.4,-1048 727.4,-999 766.4,-999 766.4,-1048"/>
<text text-anchor="start" x="732.9" y="-1035.5" font-family="Helvetica,sans-Serif" font-size="10.00">size_t</text>
<text text-anchor="start" x="745.4" y="-1020.5" font-family="Helvetica,sans-Serif" font-size="10.00"> </text>
<text text-anchor="start" x="745.4" y="-1005.5" font-family="Helvetica,sans-Serif" font-size="10.00"> </text>
<polygon fill="#666666" stroke="#666666" points="727.9,-1030.5 727.9,-1030.5 766.9,-1030.5 766.9,-1030.5 727.9,-1030.5"/>
<polygon fill="#666666" stroke="#666666" points="727.9,-1015.5 727.9,-1015.5 766.9,-1015.5 766.9,-1015.5 727.9,-1015.5"/>
<polygon fill="none" stroke="#666666" points="727.4,-999 727.4,-1048 766.4,-1048 766.4,-999 727.4,-999"/>
</a>
</g>
</g>
<!-- Node8&#45;&gt;Node2 -->
<g id="edge17_Node000002_Node000008" class="edge">
<title>Node8&#45;&gt;Node2</title>
<g id="a_edge17_Node000002_Node000008"><a xlink:title=" ">
<path fill="none" stroke="#63b8ff" d="M747.58,-998.88C747.87,-967.14 746.25,-909.24 732.9,-862 730.47,-853.39 727.2,-852.31 723.9,-844 684.65,-745.21 713.25,-703.85 654.9,-615 590.47,-516.88 478.42,-435.61 408.42,-391.02"/>
<polygon fill="none" stroke="#63b8ff" points="408.14,-390.85 400.93,-391.03 397.99,-384.45 405.2,-384.26 408.14,-390.85"/>
</a>
</g>
<text text-anchor="middle" x="743.9" y="-727" font-family="Helvetica,sans-Serif" font-size="10.00" fill="grey"> +offset</text>
</g>
<!-- Node8&#45;&gt;Node6 -->
<g id="edge9_Node000006_Node000008" class="edge">
<title>Node8&#45;&gt;Node6</title>
<g id="a_edge9_Node000006_Node000008"><a xlink:title=" ">
<path fill="none" stroke="#63b8ff" d="M738.45,-998.75C724.16,-959.51 694.91,-883.32 675.9,-862 639.23,-820.88 586.54,-789.06 541.48,-767.02"/>
<polygon fill="none" stroke="#63b8ff" points="541.33,-766.95 534.19,-767.97 530.5,-761.77 537.64,-760.75 541.33,-766.95"/>
</a>
</g>
<text text-anchor="middle" x="716.4" y="-881.5" font-family="Helvetica,sans-Serif" font-size="10.00" fill="grey"> +size</text>
</g>
<!-- Node16 -->
<g id="Node000016" class="node">
<title>Node16</title>
<g id="a_Node000016"><a xlink:href="../../d4/d26/structcv_1_1MatStep.html" target="_top" xlink:title=" ">
<polygon fill="white" stroke="transparent" points="874.9,-799 772.9,-799 772.9,-660 874.9,-660 874.9,-799"/>
<text text-anchor="start" x="794.9" y="-786.5" font-family="Helvetica,sans-Serif" font-size="10.00">cv::MatStep</text>
<text text-anchor="start" x="821.9" y="-771.5" font-family="Helvetica,sans-Serif" font-size="10.00"> </text>
<text text-anchor="start" x="776.9" y="-756.5" font-family="Helvetica,sans-Serif" font-size="10.00">+</text>
<text text-anchor="start" x="789.9" y="-756.5" font-family="Helvetica,sans-Serif" font-size="10.00">MatStep()</text>
<text text-anchor="start" x="776.9" y="-741.5" font-family="Helvetica,sans-Serif" font-size="10.00">+</text>
<text text-anchor="start" x="789.9" y="-741.5" font-family="Helvetica,sans-Serif" font-size="10.00">MatStep()</text>
<text text-anchor="start" x="776.9" y="-726.5" font-family="Helvetica,sans-Serif" font-size="10.00">+</text>
<text text-anchor="start" x="789.9" y="-726.5" font-family="Helvetica,sans-Serif" font-size="10.00">operator size_t()</text>
<text text-anchor="start" x="776.9" y="-711.5" font-family="Helvetica,sans-Serif" font-size="10.00">+</text>
<text text-anchor="start" x="789.9" y="-711.5" font-family="Helvetica,sans-Serif" font-size="10.00">operator=()</text>
<text text-anchor="start" x="776.9" y="-696.5" font-family="Helvetica,sans-Serif" font-size="10.00">+</text>
<text text-anchor="start" x="789.9" y="-696.5" font-family="Helvetica,sans-Serif" font-size="10.00">operator[]()</text>
<text text-anchor="start" x="776.9" y="-681.5" font-family="Helvetica,sans-Serif" font-size="10.00">+</text>
<text text-anchor="start" x="789.9" y="-681.5" font-family="Helvetica,sans-Serif" font-size="10.00">operator[]()</text>
<text text-anchor="start" x="776.9" y="-666.5" font-family="Helvetica,sans-Serif" font-size="10.00">#</text>
<text text-anchor="start" x="789.9" y="-666.5" font-family="Helvetica,sans-Serif" font-size="10.00">operator=()</text>
<polygon fill="#666666" stroke="#666666" points="772.9,-781.5 772.9,-781.5 874.9,-781.5 874.9,-781.5 772.9,-781.5"/>
<polygon fill="#666666" stroke="#666666" points="772.9,-766.5 772.9,-766.5 874.9,-766.5 874.9,-766.5 772.9,-766.5"/>
<polygon fill="none" stroke="#666666" points="772.9,-660 772.9,-799 874.9,-799 874.9,-660 772.9,-660"/>
</a>
</g>
</g>
<!-- Node8&#45;&gt;Node16 -->
<g id="edge21_Node000016_Node000008" class="edge">
<title>Node8&#45;&gt;Node16</title>
<g id="a_edge21_Node000016_Node000008"><a xlink:title=" ">
<path fill="none" stroke="#63b8ff" d="M753.2,-998.6C763.88,-958.1 786,-874.23 802.67,-811.01"/>
<polygon fill="none" stroke="#63b8ff" points="802.76,-810.66 800.42,-803.84 805.82,-799.06 808.16,-805.88 802.76,-810.66"/>
</a>
</g>
<text text-anchor="middle" x="800.9" y="-887" font-family="Helvetica,sans-Serif" font-size="10.00" fill="grey"> +buf</text>
<text text-anchor="middle" x="800.9" y="-876" font-family="Helvetica,sans-Serif" font-size="10.00" fill="grey">+p</text>
</g>
<!-- Node9 -->
<g id="Node000009" class="node">
<title>Node9</title>
<g id="a_Node000009"><a xlink:title=" ">
<polygon fill="white" stroke="transparent" points="487.9,-1048 415.9,-1048 415.9,-999 487.9,-999 487.9,-1048"/>
<text text-anchor="start" x="420.9" y="-1035.5" font-family="Helvetica,sans-Serif" font-size="10.00">MemoryFlag</text>
<text text-anchor="start" x="449.9" y="-1020.5" font-family="Helvetica,sans-Serif" font-size="10.00"> </text>
<text text-anchor="start" x="449.9" y="-1005.5" font-family="Helvetica,sans-Serif" font-size="10.00"> </text>
<polygon fill="#666666" stroke="#666666" points="415.9,-1030.5 415.9,-1030.5 487.9,-1030.5 487.9,-1030.5 415.9,-1030.5"/>
<polygon fill="#666666" stroke="#666666" points="415.9,-1015.5 415.9,-1015.5 487.9,-1015.5 487.9,-1015.5 415.9,-1015.5"/>
<polygon fill="none" stroke="#666666" points="415.9,-999 415.9,-1048 487.9,-1048 487.9,-999 415.9,-999"/>
</a>
</g>
</g>
<!-- Node9&#45;&gt;Node6 -->
<g id="edge10_Node000006_Node000009" class="edge">
<title>Node9&#45;&gt;Node6</title>
<g id="a_edge10_Node000006_Node000009"><a xlink:title=" ">
<path fill="none" stroke="#63b8ff" d="M451.9,-998.6C451.9,-967.26 451.9,-909.94 451.9,-856.33"/>
<polygon fill="none" stroke="#63b8ff" points="451.9,-856.24 447.9,-850.24 451.9,-844.24 455.9,-850.24 451.9,-856.24"/>
</a>
</g>
<text text-anchor="middle" x="469.4" y="-881.5" font-family="Helvetica,sans-Serif" font-size="10.00" fill="grey"> +flags</text>
</g>
<!-- Node10 -->
<g id="Node000010" class="node">
<title>Node10</title>
<g id="a_Node000010"><a xlink:title=" ">
<polygon fill="white" stroke="transparent" points="545.9,-1048 505.9,-1048 505.9,-999 545.9,-999 545.9,-1048"/>
<text text-anchor="start" x="510.9" y="-1035.5" font-family="Helvetica,sans-Serif" font-size="10.00">void *</text>
<text text-anchor="start" x="523.9" y="-1020.5" font-family="Helvetica,sans-Serif" font-size="10.00"> </text>
<text text-anchor="start" x="523.9" y="-1005.5" font-family="Helvetica,sans-Serif" font-size="10.00"> </text>
<polygon fill="#666666" stroke="#666666" points="505.9,-1030.5 505.9,-1030.5 545.9,-1030.5 545.9,-1030.5 505.9,-1030.5"/>
<polygon fill="#666666" stroke="#666666" points="505.9,-1015.5 505.9,-1015.5 545.9,-1015.5 545.9,-1015.5 505.9,-1015.5"/>
<polygon fill="none" stroke="#666666" points="505.9,-999 505.9,-1048 545.9,-1048 545.9,-999 505.9,-999"/>
</a>
</g>
</g>
<!-- Node10&#45;&gt;Node6 -->
<g id="edge11_Node000006_Node000010" class="edge">
<title>Node10&#45;&gt;Node6</title>
<g id="a_edge11_Node000006_Node000010"><a xlink:title=" ">
<path fill="none" stroke="#63b8ff" d="M520.55,-998.78C513.42,-967.4 500.25,-910.42 487.9,-862 487.39,-859.99 486.87,-857.96 486.34,-855.92"/>
<polygon fill="none" stroke="#63b8ff" points="486.29,-855.73 480.91,-850.94 483.27,-844.12 488.65,-848.92 486.29,-855.73"/>
</a>
</g>
<text text-anchor="middle" x="524.9" y="-887" font-family="Helvetica,sans-Serif" font-size="10.00" fill="grey"> +handle</text>
<text text-anchor="middle" x="524.9" y="-876" font-family="Helvetica,sans-Serif" font-size="10.00" fill="grey">+userdata</text>
</g>
<!-- Node11 -->
<g id="Node000011" class="node">
<title>Node11</title>
<g id="a_Node000011"><a xlink:title=" ">
<polygon fill="white" stroke="transparent" points="691.4,-1048 564.4,-1048 564.4,-999 691.4,-999 691.4,-1048"/>
<text text-anchor="start" x="569.9" y="-1035.5" font-family="Helvetica,sans-Serif" font-size="10.00">std::shared_ptr&lt; void &gt;</text>
<text text-anchor="start" x="626.4" y="-1020.5" font-family="Helvetica,sans-Serif" font-size="10.00"> </text>
<text text-anchor="start" x="626.4" y="-1005.5" font-family="Helvetica,sans-Serif" font-size="10.00"> </text>
<polygon fill="#666666" stroke="#666666" points="564.9,-1030.5 564.9,-1030.5 691.9,-1030.5 691.9,-1030.5 564.9,-1030.5"/>
<polygon fill="#666666" stroke="#666666" points="564.9,-1015.5 564.9,-1015.5 691.9,-1015.5 691.9,-1015.5 564.9,-1015.5"/>
<polygon fill="none" stroke="#666666" points="564.4,-999 564.4,-1048 691.4,-1048 691.4,-999 564.4,-999"/>
</a>
</g>
</g>
<!-- Node11&#45;&gt;Node6 -->
<g id="edge13_Node000006_Node000011" class="edge">
<title>Node11&#45;&gt;Node6</title>
<g id="a_edge13_Node000006_Node000011"><a xlink:title=" ">
<path fill="none" stroke="#63b8ff" d="M619.16,-998.77C606.88,-966.64 582.86,-908.05 554.9,-862 549.54,-853.17 543.68,-844.26 537.56,-835.45"/>
<polygon fill="none" stroke="#63b8ff" points="537.5,-835.36 530.76,-832.77 530.56,-825.57 537.29,-828.15 537.5,-835.36"/>
</a>
</g>
<text text-anchor="middle" x="625.4" y="-881.5" font-family="Helvetica,sans-Serif" font-size="10.00" fill="grey"> +allocatorContext</text>
</g>
<!-- Node12 -->
<g id="Node000012" class="node">
<title>Node12</title>
<g id="a_Node000012"><a xlink:title=" ">
<polygon fill="white" stroke="transparent" points="608.9,-1219 576.9,-1219 576.9,-1170 608.9,-1170 608.9,-1219"/>
<text text-anchor="start" x="581.9" y="-1206.5" font-family="Helvetica,sans-Serif" font-size="10.00">void</text>
<text text-anchor="start" x="590.9" y="-1191.5" font-family="Helvetica,sans-Serif" font-size="10.00"> </text>
<text text-anchor="start" x="590.9" y="-1176.5" font-family="Helvetica,sans-Serif" font-size="10.00"> </text>
<polygon fill="#666666" stroke="#666666" points="576.9,-1201.5 576.9,-1201.5 608.9,-1201.5 608.9,-1201.5 576.9,-1201.5"/>
<polygon fill="#666666" stroke="#666666" points="576.9,-1186.5 576.9,-1186.5 608.9,-1186.5 608.9,-1186.5 576.9,-1186.5"/>
<polygon fill="none" stroke="#666666" points="576.9,-1170 576.9,-1219 608.9,-1219 608.9,-1170 576.9,-1170"/>
</a>
</g>
</g>
<!-- Node12&#45;&gt;Node11 -->
<g id="edge14_Node000011_Node000012" class="edge">
<title>Node12&#45;&gt;Node11</title>
<g id="a_edge14_Node000011_Node000012"><a xlink:title=" ">
<path fill="none" stroke="#63b8ff" d="M597.84,-1169.64C603.76,-1141.08 613.72,-1092.99 620.54,-1060.05"/>
<polygon fill="none" stroke="#63b8ff" points="620.55,-1059.98 617.85,-1053.3 622.98,-1048.23 625.68,-1054.92 620.55,-1059.98"/>
</a>
</g>
<text text-anchor="middle" x="616.4" y="-1144" font-family="Helvetica,sans-Serif" font-size="10.00" fill="grey"> +ptr</text>
</g>
<!-- Node13 -->
<g id="Node000013" class="node">
<title>Node13</title>
<g id="a_Node000013"><a xlink:title=" ">
<polygon fill="white" stroke="transparent" points="738.9,-1219 626.9,-1219 626.9,-1170 738.9,-1170 738.9,-1219"/>
<text text-anchor="start" x="631.9" y="-1206.5" font-family="Helvetica,sans-Serif" font-size="10.00">std::shared_ptr&lt; T &gt;</text>
<text text-anchor="start" x="680.9" y="-1191.5" font-family="Helvetica,sans-Serif" font-size="10.00"> </text>
<text text-anchor="start" x="638.4" y="-1176.5" font-family="Helvetica,sans-Serif" font-size="10.00">+</text>
<text text-anchor="start" x="658.9" y="-1176.5" font-family="Helvetica,sans-Serif" font-size="10.00">operator&#45;&gt;()</text>
<polygon fill="#666666" stroke="#666666" points="626.9,-1201.5 626.9,-1201.5 738.9,-1201.5 738.9,-1201.5 626.9,-1201.5"/>
<polygon fill="#666666" stroke="#666666" points="626.9,-1186.5 626.9,-1186.5 738.9,-1186.5 738.9,-1186.5 626.9,-1186.5"/>
<polygon fill="none" stroke="#666666" points="626.9,-1170 626.9,-1219 738.9,-1219 738.9,-1170 626.9,-1170"/>
</a>
</g>
</g>
<!-- Node13&#45;&gt;Node11 -->
<g id="edge15_Node000011_Node000013" class="edge">
<title>Node13&#45;&gt;Node11</title>
<g id="a_edge15_Node000011_Node000013"><a xlink:title=" ">
<path fill="none" stroke="orange" d="M671.99,-1159.97C661.24,-1126.96 645.11,-1077.37 635.62,-1048.23"/>
<polygon fill="orange" stroke="orange" points="668.71,-1161.22 675.14,-1169.64 675.37,-1159.05 668.71,-1161.22"/>
</a>
</g>
<text text-anchor="middle" x="692.4" y="-1144" font-family="Helvetica,sans-Serif" font-size="10.00" fill="grey"> &lt; void &gt;</text>
</g>
<!-- Node14 -->
<g id="Node000014" class="node">
<title>Node14</title>
<g id="a_Node000014"><a xlink:title=" ">
<polygon fill="white" stroke="transparent" points="691.4,-1315 674.4,-1315 674.4,-1266 691.4,-1266 691.4,-1315"/>
<text text-anchor="start" x="679.9" y="-1302.5" font-family="Helvetica,sans-Serif" font-size="10.00">T</text>
<text text-anchor="start" x="681.4" y="-1287.5" font-family="Helvetica,sans-Serif" font-size="10.00"> </text>
<text text-anchor="start" x="681.4" y="-1272.5" font-family="Helvetica,sans-Serif" font-size="10.00"> </text>
<polygon fill="#666666" stroke="#666666" points="674.9,-1297.5 674.9,-1297.5 691.9,-1297.5 691.9,-1297.5 674.9,-1297.5"/>
<polygon fill="#666666" stroke="#666666" points="674.9,-1282.5 674.9,-1282.5 691.9,-1282.5 691.9,-1282.5 674.9,-1282.5"/>
<polygon fill="none" stroke="#666666" points="674.4,-1266 674.4,-1315 691.4,-1315 691.4,-1266 674.4,-1266"/>
</a>
</g>
</g>
<!-- Node14&#45;&gt;Node13 -->
<g id="edge16_Node000013_Node000014" class="edge">
<title>Node14&#45;&gt;Node13</title>
<g id="a_edge16_Node000013_Node000014"><a xlink:title=" ">
<path fill="none" stroke="#63b8ff" d="M682.9,-1265.78C682.9,-1255.32 682.9,-1242.79 682.9,-1231.23"/>
<polygon fill="none" stroke="#63b8ff" points="682.9,-1231.21 678.9,-1225.21 682.9,-1219.21 686.9,-1225.21 682.9,-1231.21"/>
</a>
</g>
<text text-anchor="middle" x="695.4" y="-1240" font-family="Helvetica,sans-Serif" font-size="10.00" fill="grey"> +ptr</text>
</g>
<!-- Node15&#45;&gt;Node2 -->
<g id="edge18_Node000002_Node000015" class="edge">
<title>Node15&#45;&gt;Node2</title>
<g id="a_edge18_Node000002_Node000015"><a xlink:title=" ">
<path fill="none" stroke="#63b8ff" d="M128.5,-659.77C140,-626.32 156.05,-586.24 175.9,-553 206.31,-502.07 249.91,-451.34 285.34,-413.85"/>
<polygon fill="none" stroke="#63b8ff" points="285.41,-413.78 286.65,-406.67 293.69,-405.09 292.44,-412.2 285.41,-413.78"/>
</a>
</g>
<text text-anchor="middle" x="191.4" y="-572.5" font-family="Helvetica,sans-Serif" font-size="10.00" fill="grey"> +size</text>
</g>
<!-- Node16&#45;&gt;Node2 -->
<g id="edge20_Node000002_Node000016" class="edge">
<title>Node16&#45;&gt;Node2</title>
<g id="a_edge20_Node000002_Node000016"><a xlink:title=" ">
<path fill="none" stroke="#63b8ff" d="M803.54,-659.98C788.84,-622.51 765.09,-578.63 728.9,-553 687.4,-523.6 663.24,-553.59 615.9,-535 538.02,-504.41 459.78,-448.54 407.72,-406.93"/>
<polygon fill="none" stroke="#63b8ff" points="407.65,-406.87 400.47,-406.22 398.31,-399.34 405.49,-399.99 407.65,-406.87"/>
</a>
</g>
<text text-anchor="middle" x="785.4" y="-572.5" font-family="Helvetica,sans-Serif" font-size="10.00" fill="grey"> +step</text>
</g>
<!-- Node17 -->
<g id="Node000017" class="node">
<title>Node17</title>
<g id="a_Node000017"><a xlink:href="../../d2/d44/classcv_1_1Rect__.html" target="_top" xlink:title="Template class for 2D rectangles.">
<polygon fill="white" stroke="transparent" points="770.9,-482.5 624.9,-482.5 624.9,-223.5 770.9,-223.5 770.9,-482.5"/>
<text text-anchor="start" x="655.9" y="-470" font-family="Helvetica,sans-Serif" font-size="10.00">cv::Rect_&lt; _Tp &gt;</text>
<text text-anchor="start" x="695.9" y="-455" font-family="Helvetica,sans-Serif" font-size="10.00"> </text>
<text text-anchor="start" x="628.9" y="-440" font-family="Helvetica,sans-Serif" font-size="10.00">+</text>
<text text-anchor="start" x="641.9" y="-440" font-family="Helvetica,sans-Serif" font-size="10.00">Rect_()</text>
<text text-anchor="start" x="628.9" y="-425" font-family="Helvetica,sans-Serif" font-size="10.00">+</text>
<text text-anchor="start" x="641.9" y="-425" font-family="Helvetica,sans-Serif" font-size="10.00">Rect_()</text>
<text text-anchor="start" x="628.9" y="-410" font-family="Helvetica,sans-Serif" font-size="10.00">+</text>
<text text-anchor="start" x="641.9" y="-410" font-family="Helvetica,sans-Serif" font-size="10.00">Rect_()</text>
<text text-anchor="start" x="628.9" y="-395" font-family="Helvetica,sans-Serif" font-size="10.00">+</text>
<text text-anchor="start" x="641.9" y="-395" font-family="Helvetica,sans-Serif" font-size="10.00">Rect_()</text>
<text text-anchor="start" x="628.9" y="-380" font-family="Helvetica,sans-Serif" font-size="10.00">+</text>
<text text-anchor="start" x="641.9" y="-380" font-family="Helvetica,sans-Serif" font-size="10.00">Rect_()</text>
<text text-anchor="start" x="628.9" y="-365" font-family="Helvetica,sans-Serif" font-size="10.00">+</text>
<text text-anchor="start" x="641.9" y="-365" font-family="Helvetica,sans-Serif" font-size="10.00">Rect_()</text>
<text text-anchor="start" x="628.9" y="-350" font-family="Helvetica,sans-Serif" font-size="10.00">+</text>
<text text-anchor="start" x="641.9" y="-350" font-family="Helvetica,sans-Serif" font-size="10.00">area()</text>
<text text-anchor="start" x="628.9" y="-335" font-family="Helvetica,sans-Serif" font-size="10.00">+</text>
<text text-anchor="start" x="641.9" y="-335" font-family="Helvetica,sans-Serif" font-size="10.00">br()</text>
<text text-anchor="start" x="628.9" y="-320" font-family="Helvetica,sans-Serif" font-size="10.00">+</text>
<text text-anchor="start" x="641.9" y="-320" font-family="Helvetica,sans-Serif" font-size="10.00">contains()</text>
<text text-anchor="start" x="628.9" y="-305" font-family="Helvetica,sans-Serif" font-size="10.00">+</text>
<text text-anchor="start" x="641.9" y="-305" font-family="Helvetica,sans-Serif" font-size="10.00">empty()</text>
<text text-anchor="start" x="628.9" y="-290" font-family="Helvetica,sans-Serif" font-size="10.00">+</text>
<text text-anchor="start" x="641.9" y="-290" font-family="Helvetica,sans-Serif" font-size="10.00">operator Rect_&lt; _Tp2 &gt;()</text>
<text text-anchor="start" x="628.9" y="-275" font-family="Helvetica,sans-Serif" font-size="10.00">+</text>
<text text-anchor="start" x="641.9" y="-275" font-family="Helvetica,sans-Serif" font-size="10.00">operator=()</text>
<text text-anchor="start" x="628.9" y="-260" font-family="Helvetica,sans-Serif" font-size="10.00">+</text>
<text text-anchor="start" x="641.9" y="-260" font-family="Helvetica,sans-Serif" font-size="10.00">operator=()</text>
<text text-anchor="start" x="628.9" y="-245" font-family="Helvetica,sans-Serif" font-size="10.00">+</text>
<text text-anchor="start" x="641.9" y="-245" font-family="Helvetica,sans-Serif" font-size="10.00">size()</text>
<text text-anchor="start" x="628.9" y="-230" font-family="Helvetica,sans-Serif" font-size="10.00">+</text>
<text text-anchor="start" x="641.9" y="-230" font-family="Helvetica,sans-Serif" font-size="10.00">tl()</text>
<polygon fill="#666666" stroke="#666666" points="624.9,-465 624.9,-465 770.9,-465 770.9,-465 624.9,-465"/>
<polygon fill="#666666" stroke="#666666" points="624.9,-450 624.9,-450 770.9,-450 770.9,-450 624.9,-450"/>
<polygon fill="none" stroke="#666666" points="624.9,-223.5 624.9,-482.5 770.9,-482.5 770.9,-223.5 624.9,-223.5"/>
</a>
</g>
</g>
<!-- Node17&#45;&gt;Node1 -->
<g id="edge22_Node000001_Node000017" class="edge">
<title>Node17&#45;&gt;Node1</title>
<g id="a_edge22_Node000001_Node000017"><a xlink:title=" ">
<path fill="none" stroke="#63b8ff" d="M624.8,-276.82C581.14,-231.92 526.1,-175.31 483.62,-131.62"/>
<polygon fill="none" stroke="#63b8ff" points="483.39,-131.38 476.34,-129.87 475.02,-122.78 482.07,-124.29 483.39,-131.38"/>
</a>
</g>
<text text-anchor="middle" x="525.9" y="-145" font-family="Helvetica,sans-Serif" font-size="10.00" fill="grey"> #dst_roi_</text>
</g>
<!-- Node18 -->
<g id="Node000018" class="node">
<title>Node18</title>
<g id="a_Node000018"><a xlink:href="../../d1/dd7/class__Tp.html" target="_top" xlink:title=" ">
<polygon fill="white" stroke="transparent" points="920.9,-754 892.9,-754 892.9,-705 920.9,-705 920.9,-754"/>
<text text-anchor="start" x="897.9" y="-741.5" font-family="Helvetica,sans-Serif" font-size="10.00">_Tp</text>
<text text-anchor="start" x="904.9" y="-726.5" font-family="Helvetica,sans-Serif" font-size="10.00"> </text>
<text text-anchor="start" x="904.9" y="-711.5" font-family="Helvetica,sans-Serif" font-size="10.00"> </text>
<polygon fill="#666666" stroke="#666666" points="892.9,-736.5 892.9,-736.5 920.9,-736.5 920.9,-736.5 892.9,-736.5"/>
<polygon fill="#666666" stroke="#666666" points="892.9,-721.5 892.9,-721.5 920.9,-721.5 920.9,-721.5 892.9,-721.5"/>
<polygon fill="none" stroke="#666666" points="892.9,-705 892.9,-754 920.9,-754 920.9,-705 892.9,-705"/>
</a>
</g>
</g>
<!-- Node18&#45;&gt;Node17 -->
<g id="edge23_Node000017_Node000018" class="edge">
<title>Node18&#45;&gt;Node17</title>
<g id="a_edge23_Node000017_Node000018"><a xlink:title=" ">
<path fill="none" stroke="#63b8ff" d="M904.98,-704.59C902.42,-681.01 896.63,-644.32 883.9,-615 857.68,-554.6 815.95,-494.26 778.66,-446.84"/>
<polygon fill="none" stroke="#63b8ff" points="778.48,-446.62 771.62,-444.41 771.02,-437.23 777.88,-439.44 778.48,-446.62"/>
</a>
</g>
<text text-anchor="middle" x="894.4" y="-589" font-family="Helvetica,sans-Serif" font-size="10.00" fill="grey"> +height</text>
<text text-anchor="middle" x="894.4" y="-578" font-family="Helvetica,sans-Serif" font-size="10.00" fill="grey">+width</text>
<text text-anchor="middle" x="894.4" y="-567" font-family="Helvetica,sans-Serif" font-size="10.00" fill="grey">+x</text>
<text text-anchor="middle" x="894.4" y="-556" font-family="Helvetica,sans-Serif" font-size="10.00" fill="grey">+y</text>
</g>
</g>
</svg>
