<?xml version="1.0" encoding="UTF-8" standalone="no"?>
<!DOCTYPE svg PUBLIC "-//W3C//DTD SVG 1.1//EN"
 "http://www.w3.org/Graphics/SVG/1.1/DTD/svg11.dtd">
<!-- Generated by graphviz version 2.43.0 (0)
 -->
<!-- Title: cv::face::StandardCollector Pages: 1 -->
<svg width="531pt" height="502pt"
 viewBox="0.00 0.00 530.50 502.00" xmlns="http://www.w3.org/2000/svg" xmlns:xlink="http://www.w3.org/1999/xlink">
<g id="graph0" class="graph" transform="scale(1 1) rotate(0) translate(4 498)">
<title>cv::face::StandardCollector</title>
<!-- Node1 -->
<g id="Node000001" class="node">
<title>Node1</title>
<g id="a_Node000001"><a xlink:title="Default predict collector.">
<polygon fill="#999999" stroke="transparent" points="266,-154 125,-154 125,0 266,0 266,-154"/>
<text text-anchor="start" x="130.5" y="-142" font-family="Helvetica,sans-Serif" font-size="10.00">cv::face::StandardCollector</text>
<text text-anchor="start" x="194" y="-127" font-family="Helvetica,sans-Serif" font-size="10.00"> </text>
<text text-anchor="start" x="135.5" y="-112" font-family="Helvetica,sans-Serif" font-size="10.00">+</text>
<text text-anchor="start" x="154.5" y="-112" font-family="Helvetica,sans-Serif" font-size="10.00">StandardCollector()</text>
<text text-anchor="start" x="135.5" y="-97" font-family="Helvetica,sans-Serif" font-size="10.00">+</text>
<text text-anchor="start" x="154.5" y="-97" font-family="Helvetica,sans-Serif" font-size="10.00">collect()</text>
<text text-anchor="start" x="135.5" y="-82" font-family="Helvetica,sans-Serif" font-size="10.00">+</text>
<text text-anchor="start" x="154.5" y="-82" font-family="Helvetica,sans-Serif" font-size="10.00">getMinDist()</text>
<text text-anchor="start" x="135.5" y="-67" font-family="Helvetica,sans-Serif" font-size="10.00">+</text>
<text text-anchor="start" x="154.5" y="-67" font-family="Helvetica,sans-Serif" font-size="10.00">getMinLabel()</text>
<text text-anchor="start" x="135.5" y="-52" font-family="Helvetica,sans-Serif" font-size="10.00">+</text>
<text text-anchor="start" x="154.5" y="-52" font-family="Helvetica,sans-Serif" font-size="10.00">getResults()</text>
<text text-anchor="start" x="135.5" y="-37" font-family="Helvetica,sans-Serif" font-size="10.00">+</text>
<text text-anchor="start" x="154.5" y="-37" font-family="Helvetica,sans-Serif" font-size="10.00">getResultsMap()</text>
<text text-anchor="start" x="135.5" y="-22" font-family="Helvetica,sans-Serif" font-size="10.00">+</text>
<text text-anchor="start" x="154.5" y="-22" font-family="Helvetica,sans-Serif" font-size="10.00">init()</text>
<text text-anchor="start" x="135.5" y="-7" font-family="Helvetica,sans-Serif" font-size="10.00">+</text>
<text text-anchor="start" x="154.5" y="-7" font-family="Helvetica,sans-Serif" font-size="10.00">create()</text>
<polygon fill="#666666" stroke="#666666" points="125.5,-137 125.5,-137 266.5,-137 266.5,-137 125.5,-137"/>
<polygon fill="#666666" stroke="#666666" points="125.5,-122 125.5,-122 266.5,-122 266.5,-122 125.5,-122"/>
<polygon fill="none" stroke="#666666" points="125,0 125,-154 266,-154 266,0 125,0"/>
</a>
</g>
</g>
<!-- Node2 -->
<g id="Node000002" class="node">
<title>Node2</title>
<g id="a_Node000002"><a xlink:href="../../da/d6a/classcv_1_1face_1_1PredictCollector.html" target="_top" xlink:title="Abstract base class for all strategies of prediction result handling.">
<polygon fill="white" stroke="transparent" points="131,-280 0,-280 0,-201 131,-201 131,-280"/>
<text text-anchor="start" x="5.5" y="-267.5" font-family="Helvetica,sans-Serif" font-size="10.00">cv::face::PredictCollector</text>
<text text-anchor="start" x="64" y="-252.5" font-family="Helvetica,sans-Serif" font-size="10.00"> </text>
<text text-anchor="start" x="8.5" y="-237.5" font-family="Helvetica,sans-Serif" font-size="10.00">+</text>
<text text-anchor="start" x="25.5" y="-237.5" font-family="Helvetica,sans-Serif" font-size="10.00">~PredictCollector()</text>
<text text-anchor="start" x="8.5" y="-222.5" font-family="Helvetica,sans-Serif" font-size="10.00">+</text>
<text text-anchor="start" x="25.5" y="-222.5" font-family="Helvetica,sans-Serif" font-size="10.00">collect()</text>
<text text-anchor="start" x="8.5" y="-207.5" font-family="Helvetica,sans-Serif" font-size="10.00">+</text>
<text text-anchor="start" x="25.5" y="-207.5" font-family="Helvetica,sans-Serif" font-size="10.00">init()</text>
<polygon fill="#666666" stroke="#666666" points="0.5,-262.5 0.5,-262.5 131.5,-262.5 131.5,-262.5 0.5,-262.5"/>
<polygon fill="#666666" stroke="#666666" points="0.5,-247.5 0.5,-247.5 131.5,-247.5 131.5,-247.5 0.5,-247.5"/>
<polygon fill="none" stroke="#666666" points="0,-201 0,-280 131,-280 131,-201 0,-201"/>
</a>
</g>
</g>
<!-- Node2&#45;&gt;Node1 -->
<g id="edge1_Node000001_Node000002" class="edge">
<title>Node2&#45;&gt;Node1</title>
<g id="a_edge1_Node000001_Node000002"><a xlink:title=" ">
<path fill="none" stroke="#63b8ff" d="M102.93,-193.01C112.74,-180.82 123.58,-167.35 134.28,-154.06"/>
<polygon fill="none" stroke="#63b8ff" points="100.18,-190.83 96.64,-200.82 105.64,-195.22 100.18,-190.83"/>
</a>
</g>
</g>
<!-- Node3 -->
<g id="Node000003" class="node">
<title>Node3</title>
<g id="a_Node000003"><a xlink:title=" ">
<polygon fill="white" stroke="transparent" points="198.5,-494 154.5,-494 154.5,-445 198.5,-445 198.5,-494"/>
<text text-anchor="start" x="159.5" y="-481.5" font-family="Helvetica,sans-Serif" font-size="10.00">double</text>
<text text-anchor="start" x="174.5" y="-466.5" font-family="Helvetica,sans-Serif" font-size="10.00"> </text>
<text text-anchor="start" x="174.5" y="-451.5" font-family="Helvetica,sans-Serif" font-size="10.00"> </text>
<polygon fill="#666666" stroke="#666666" points="154.5,-476.5 154.5,-476.5 198.5,-476.5 198.5,-476.5 154.5,-476.5"/>
<polygon fill="#666666" stroke="#666666" points="154.5,-461.5 154.5,-461.5 198.5,-461.5 198.5,-461.5 154.5,-461.5"/>
<polygon fill="none" stroke="#666666" points="154.5,-445 154.5,-494 198.5,-494 198.5,-445 154.5,-445"/>
</a>
</g>
</g>
<!-- Node3&#45;&gt;Node1 -->
<g id="edge2_Node000001_Node000003" class="edge">
<title>Node3&#45;&gt;Node1</title>
<g id="a_edge2_Node000001_Node000003"><a xlink:title=" ">
<path fill="none" stroke="#63b8ff" d="M176.51,-444.92C176.6,-418.77 176.99,-375.36 178.5,-338 180.81,-280.79 184.99,-216.6 188.63,-166.32"/>
<polygon fill="none" stroke="#63b8ff" points="188.64,-166.14 185.09,-159.86 189.51,-154.17 193.07,-160.45 188.64,-166.14"/>
</a>
</g>
<text text-anchor="middle" x="209.5" y="-306.5" font-family="Helvetica,sans-Serif" font-size="10.00" fill="grey"> #threshold</text>
</g>
<!-- Node4 -->
<g id="Node000004" class="node">
<title>Node4</title>
<g id="a_Node000004"><a xlink:href="../../d2/d5a/structcv_1_1face_1_1StandardCollector_1_1PredictResult.html" target="_top" xlink:title=" ">
<polygon fill="white" stroke="transparent" points="329,-398 188,-398 188,-338 329,-338 329,-398"/>
<text text-anchor="start" x="193.5" y="-386" font-family="Helvetica,sans-Serif" font-size="10.00">cv::face::StandardCollector</text>
<text text-anchor="start" x="223.5" y="-375" font-family="Helvetica,sans-Serif" font-size="10.00">::PredictResult</text>
<text text-anchor="start" x="257" y="-360" font-family="Helvetica,sans-Serif" font-size="10.00"> </text>
<text text-anchor="start" x="204" y="-345" font-family="Helvetica,sans-Serif" font-size="10.00">+</text>
<text text-anchor="start" x="228.5" y="-345" font-family="Helvetica,sans-Serif" font-size="10.00">PredictResult()</text>
<polygon fill="#666666" stroke="#666666" points="188.5,-370 188.5,-370 329.5,-370 329.5,-370 188.5,-370"/>
<polygon fill="#666666" stroke="#666666" points="188.5,-355 188.5,-355 329.5,-355 329.5,-355 188.5,-355"/>
<polygon fill="none" stroke="#666666" points="188,-338 188,-398 329,-398 329,-338 188,-338"/>
</a>
</g>
</g>
<!-- Node3&#45;&gt;Node4 -->
<g id="edge5_Node000004_Node000003" class="edge">
<title>Node3&#45;&gt;Node4</title>
<g id="a_edge5_Node000004_Node000003"><a xlink:title=" ">
<path fill="none" stroke="#63b8ff" d="M188,-444.74C193.06,-435.36 199.46,-424.75 206.5,-416 208.98,-412.92 211.67,-409.86 214.47,-406.87"/>
<polygon fill="none" stroke="#63b8ff" points="214.68,-406.67 216.07,-399.59 223.13,-398.16 221.74,-405.23 214.68,-406.67"/>
</a>
</g>
<text text-anchor="middle" x="233" y="-419" font-family="Helvetica,sans-Serif" font-size="10.00" fill="grey"> +distance</text>
</g>
<!-- Node4&#45;&gt;Node1 -->
<g id="edge3_Node000001_Node000004" class="edge">
<title>Node4&#45;&gt;Node1</title>
<g id="a_edge3_Node000001_Node000004"><a xlink:title=" ">
<path fill="none" stroke="#63b8ff" d="M252.17,-337.97C243.49,-298.13 227.5,-224.78 214.71,-166.13"/>
<polygon fill="none" stroke="#63b8ff" points="214.67,-165.96 209.49,-160.95 212.12,-154.23 217.3,-159.24 214.67,-165.96"/>
</a>
</g>
<text text-anchor="middle" x="264" y="-238" font-family="Helvetica,sans-Serif" font-size="10.00" fill="grey"> #minRes</text>
</g>
<!-- Node6 -->
<g id="Node000006" class="node">
<title>Node6</title>
<g id="a_Node000006"><a xlink:title=" ">
<polygon fill="white" stroke="transparent" points="411,-276 300,-276 300,-205 411,-205 411,-276"/>
<text text-anchor="start" x="305.5" y="-263.5" font-family="Helvetica,sans-Serif" font-size="10.00">std::vector&lt; cv::face</text>
<text text-anchor="start" x="305.5" y="-252.5" font-family="Helvetica,sans-Serif" font-size="10.00">::StandardCollector::</text>
<text text-anchor="start" x="318" y="-241.5" font-family="Helvetica,sans-Serif" font-size="10.00">PredictResult &gt;</text>
<text text-anchor="start" x="354" y="-226.5" font-family="Helvetica,sans-Serif" font-size="10.00"> </text>
<text text-anchor="start" x="354" y="-211.5" font-family="Helvetica,sans-Serif" font-size="10.00"> </text>
<polygon fill="#666666" stroke="#666666" points="300.5,-236.5 300.5,-236.5 411.5,-236.5 411.5,-236.5 300.5,-236.5"/>
<polygon fill="#666666" stroke="#666666" points="300.5,-221.5 300.5,-221.5 411.5,-221.5 411.5,-221.5 300.5,-221.5"/>
<polygon fill="none" stroke="#666666" points="300,-205 300,-276 411,-276 411,-205 300,-205"/>
</a>
</g>
</g>
<!-- Node4&#45;&gt;Node6 -->
<g id="edge7_Node000006_Node000004" class="edge">
<title>Node4&#45;&gt;Node6</title>
<g id="a_edge7_Node000006_Node000004"><a xlink:title=" ">
<path fill="none" stroke="#63b8ff" d="M280.09,-338C289.37,-325.62 300.39,-311.04 310.5,-298 313.61,-293.99 316.86,-289.83 320.14,-285.67"/>
<polygon fill="none" stroke="#63b8ff" points="320.3,-285.46 320.89,-278.27 327.75,-276.05 327.16,-283.23 320.3,-285.46"/>
</a>
</g>
<text text-anchor="middle" x="339.5" y="-306.5" font-family="Helvetica,sans-Serif" font-size="10.00" fill="grey"> +elements</text>
</g>
<!-- Node5 -->
<g id="Node000005" class="node">
<title>Node5</title>
<g id="a_Node000005"><a xlink:title=" ">
<polygon fill="white" stroke="transparent" points="280,-494 257,-494 257,-445 280,-445 280,-494"/>
<text text-anchor="start" x="262.5" y="-481.5" font-family="Helvetica,sans-Serif" font-size="10.00">int</text>
<text text-anchor="start" x="267" y="-466.5" font-family="Helvetica,sans-Serif" font-size="10.00"> </text>
<text text-anchor="start" x="267" y="-451.5" font-family="Helvetica,sans-Serif" font-size="10.00"> </text>
<polygon fill="#666666" stroke="#666666" points="257.5,-476.5 257.5,-476.5 280.5,-476.5 280.5,-476.5 257.5,-476.5"/>
<polygon fill="#666666" stroke="#666666" points="257.5,-461.5 257.5,-461.5 280.5,-461.5 280.5,-461.5 257.5,-461.5"/>
<polygon fill="none" stroke="#666666" points="257,-445 257,-494 280,-494 280,-445 257,-445"/>
</a>
</g>
</g>
<!-- Node5&#45;&gt;Node4 -->
<g id="edge4_Node000004_Node000005" class="edge">
<title>Node5&#45;&gt;Node4</title>
<g id="a_edge4_Node000004_Node000005"><a xlink:title=" ">
<path fill="none" stroke="#63b8ff" d="M266.13,-444.92C265.08,-434.51 263.82,-421.97 262.63,-410.1"/>
<polygon fill="none" stroke="#63b8ff" points="262.62,-410.04 258.04,-404.47 261.42,-398.1 266,-403.67 262.62,-410.04"/>
</a>
</g>
<text text-anchor="middle" x="282.5" y="-419" font-family="Helvetica,sans-Serif" font-size="10.00" fill="grey"> +label</text>
</g>
<!-- Node6&#45;&gt;Node1 -->
<g id="edge6_Node000001_Node000006" class="edge">
<title>Node6&#45;&gt;Node1</title>
<g id="a_edge6_Node000001_Node000006"><a xlink:title=" ">
<path fill="none" stroke="#63b8ff" d="M321.18,-204.85C307.49,-191.04 291.13,-174.52 274.8,-158.04"/>
<polygon fill="none" stroke="#63b8ff" points="274.73,-157.97 267.66,-156.52 266.28,-149.45 273.35,-150.89 274.73,-157.97"/>
</a>
</g>
<text text-anchor="middle" x="316.5" y="-175" font-family="Helvetica,sans-Serif" font-size="10.00" fill="grey"> #data</text>
</g>
<!-- Node7 -->
<g id="Node000007" class="node">
<title>Node7</title>
<g id="a_Node000007"><a xlink:title=" ">
<polygon fill="white" stroke="transparent" points="438,-392.5 347,-392.5 347,-343.5 438,-343.5 438,-392.5"/>
<text text-anchor="start" x="352.5" y="-380" font-family="Helvetica,sans-Serif" font-size="10.00">std::vector&lt; T &gt;</text>
<text text-anchor="start" x="391" y="-365" font-family="Helvetica,sans-Serif" font-size="10.00"> </text>
<text text-anchor="start" x="391" y="-350" font-family="Helvetica,sans-Serif" font-size="10.00"> </text>
<polygon fill="#666666" stroke="#666666" points="347.5,-375 347.5,-375 438.5,-375 438.5,-375 347.5,-375"/>
<polygon fill="#666666" stroke="#666666" points="347.5,-360 347.5,-360 438.5,-360 438.5,-360 347.5,-360"/>
<polygon fill="none" stroke="#666666" points="347,-343.5 347,-392.5 438,-392.5 438,-343.5 347,-343.5"/>
</a>
</g>
</g>
<!-- Node7&#45;&gt;Node6 -->
<g id="edge8_Node000006_Node000007" class="edge">
<title>Node7&#45;&gt;Node6</title>
<g id="a_edge8_Node000006_Node000007"><a xlink:title=" ">
<path fill="none" stroke="orange" d="M382.63,-333.52C377.43,-315.87 371.05,-294.24 365.78,-276.38"/>
<polygon fill="orange" stroke="orange" points="379.36,-334.79 385.54,-343.39 386.07,-332.81 379.36,-334.79"/>
</a>
</g>
<text text-anchor="start" x="377.5" y="-312" font-family="Helvetica,sans-Serif" font-size="10.00" fill="grey"> &lt; cv::face::StandardCollector</text>
<text text-anchor="middle" x="450" y="-301" font-family="Helvetica,sans-Serif" font-size="10.00" fill="grey">::PredictResult &gt;</text>
</g>
<!-- Node8 -->
<g id="Node000008" class="node">
<title>Node8</title>
<g id="a_Node000008"><a xlink:title=" ">
<polygon fill="white" stroke="transparent" points="401,-494 384,-494 384,-445 401,-445 401,-494"/>
<text text-anchor="start" x="389.5" y="-481.5" font-family="Helvetica,sans-Serif" font-size="10.00">T</text>
<text text-anchor="start" x="391" y="-466.5" font-family="Helvetica,sans-Serif" font-size="10.00"> </text>
<text text-anchor="start" x="391" y="-451.5" font-family="Helvetica,sans-Serif" font-size="10.00"> </text>
<polygon fill="#666666" stroke="#666666" points="384.5,-476.5 384.5,-476.5 401.5,-476.5 401.5,-476.5 384.5,-476.5"/>
<polygon fill="#666666" stroke="#666666" points="384.5,-461.5 384.5,-461.5 401.5,-461.5 401.5,-461.5 384.5,-461.5"/>
<polygon fill="none" stroke="#666666" points="384,-445 384,-494 401,-494 401,-445 384,-445"/>
</a>
</g>
</g>
<!-- Node8&#45;&gt;Node7 -->
<g id="edge9_Node000007_Node000008" class="edge">
<title>Node8&#45;&gt;Node7</title>
<g id="a_edge9_Node000007_Node000008"><a xlink:title=" ">
<path fill="none" stroke="#63b8ff" d="M392.5,-444.92C392.5,-432.99 392.5,-418.25 392.5,-404.94"/>
<polygon fill="none" stroke="#63b8ff" points="392.5,-404.76 388.5,-398.76 392.5,-392.76 396.5,-398.76 392.5,-404.76"/>
</a>
</g>
<text text-anchor="middle" x="421.5" y="-419" font-family="Helvetica,sans-Serif" font-size="10.00" fill="grey"> +elements</text>
</g>
</g>
</svg>
