<?xml version="1.0" encoding="UTF-8" standalone="no"?>
<!DOCTYPE svg PUBLIC "-//W3C//DTD SVG 1.1//EN"
 "http://www.w3.org/Graphics/SVG/1.1/DTD/svg11.dtd">
<!-- Generated by graphviz version 2.43.0 (0)
 -->
<!-- Title: opencv2/cudev/expr/expr.hpp Pages: 1 -->
<svg width="2396pt" height="423pt"
 viewBox="0.00 0.00 2395.52 423.00" xmlns="http://www.w3.org/2000/svg" xmlns:xlink="http://www.w3.org/1999/xlink">
<g id="graph0" class="graph" transform="scale(1 1) rotate(0) translate(4 419)">
<title>opencv2/cudev/expr/expr.hpp</title>
<!-- Node1 -->
<g id="Node000001" class="node">
<title>Node1</title>
<g id="a_Node000001"><a xlink:title=" ">
<polygon fill="#999999" stroke="#666666" points="600.02,-415 485.02,-415 485.02,-385 600.02,-385 600.02,-415"/>
<text text-anchor="start" x="493.02" y="-403" font-family="Helvetica,sans-Serif" font-size="10.00">opencv2/cudev/expr</text>
<text text-anchor="middle" x="542.52" y="-392" font-family="Helvetica,sans-Serif" font-size="10.00">/expr.hpp</text>
</a>
</g>
</g>
<!-- Node2 -->
<g id="Node000002" class="node">
<title>Node2</title>
<g id="a_Node000002"><a xlink:href="../../d6/d38/cudev_8hpp.html" target="_top" xlink:title=" ">
<polygon fill="white" stroke="#666666" points="1491.52,-19 1381.52,-19 1381.52,0 1491.52,0 1491.52,-19"/>
<text text-anchor="middle" x="1436.52" y="-7" font-family="Helvetica,sans-Serif" font-size="10.00">opencv2/cudev.hpp</text>
</a>
</g>
</g>
<!-- Node1&#45;&gt;Node2 -->
<g id="edge1_Node000001_Node000002" class="edge">
<title>Node1&#45;&gt;Node2</title>
<g id="a_edge1_Node000001_Node000002"><a xlink:title=" ">
<path fill="none" stroke="#63b8ff" d="M474.5,-396.29C332.9,-388.78 19.52,-361.7 19.52,-269 19.52,-269 19.52,-269 19.52,-135 19.52,-107.41 -98.08,-114.65 251.52,-55 472.98,-17.21 1178.12,-11.51 1381.26,-10.65"/>
<polygon fill="#63b8ff" stroke="#63b8ff" points="474.64,-399.8 484.8,-396.81 474.99,-392.81 474.64,-399.8"/>
</a>
</g>
</g>
<!-- Node3 -->
<g id="Node000003" class="node">
<title>Node3</title>
<g id="a_Node000003"><a xlink:href="../../d3/d3c/binary__func_8hpp.html" target="_top" xlink:title=" ">
<polygon fill="white" stroke="#666666" points="163.02,-151 48.02,-151 48.02,-121 163.02,-121 163.02,-151"/>
<text text-anchor="start" x="56.02" y="-139" font-family="Helvetica,sans-Serif" font-size="10.00">opencv2/cudev/expr</text>
<text text-anchor="middle" x="105.52" y="-128" font-family="Helvetica,sans-Serif" font-size="10.00">/binary_func.hpp</text>
</a>
</g>
</g>
<!-- Node1&#45;&gt;Node3 -->
<g id="edge2_Node000001_Node000003" class="edge">
<title>Node1&#45;&gt;Node3</title>
<g id="a_edge2_Node000001_Node000003"><a xlink:title=" ">
<path fill="none" stroke="#63b8ff" d="M505.08,-380.34C487.19,-371.2 465.56,-359.86 446.52,-349 323.28,-278.73 180.5,-186.22 127.11,-151.23"/>
<polygon fill="#63b8ff" stroke="#63b8ff" points="503.57,-383.49 514.07,-384.9 506.74,-377.25 503.57,-383.49"/>
</a>
</g>
</g>
<!-- Node4 -->
<g id="Node000004" class="node">
<title>Node4</title>
<g id="a_Node000004"><a xlink:href="../../d7/d8d/binary__op_8hpp.html" target="_top" xlink:title=" ">
<polygon fill="white" stroke="#666666" points="562.02,-151 447.02,-151 447.02,-121 562.02,-121 562.02,-151"/>
<text text-anchor="start" x="455.02" y="-139" font-family="Helvetica,sans-Serif" font-size="10.00">opencv2/cudev/expr</text>
<text text-anchor="middle" x="504.52" y="-128" font-family="Helvetica,sans-Serif" font-size="10.00">/binary_op.hpp</text>
</a>
</g>
</g>
<!-- Node1&#45;&gt;Node4 -->
<g id="edge4_Node000001_Node000004" class="edge">
<title>Node1&#45;&gt;Node4</title>
<g id="a_edge4_Node000001_Node000004"><a xlink:title=" ">
<path fill="none" stroke="#63b8ff" d="M534.97,-375.03C532.61,-366.84 530.2,-357.58 528.52,-349 514.11,-275.2 507.46,-185.14 505.33,-151.01"/>
<polygon fill="#63b8ff" stroke="#63b8ff" points="531.64,-376.13 537.86,-384.71 538.35,-374.12 531.64,-376.13"/>
</a>
</g>
</g>
<!-- Node5 -->
<g id="Node000005" class="node">
<title>Node5</title>
<g id="a_Node000005"><a xlink:href="../../dc/d7a/contrib_2modules_2cudev_2include_2opencv2_2cudev_2expr_2color_8hpp.html" target="_top" xlink:title=" ">
<polygon fill="white" stroke="#666666" points="296.02,-151 181.02,-151 181.02,-121 296.02,-121 296.02,-151"/>
<text text-anchor="start" x="189.02" y="-139" font-family="Helvetica,sans-Serif" font-size="10.00">opencv2/cudev/expr</text>
<text text-anchor="middle" x="238.52" y="-128" font-family="Helvetica,sans-Serif" font-size="10.00">/color.hpp</text>
</a>
</g>
</g>
<!-- Node1&#45;&gt;Node5 -->
<g id="edge6_Node000001_Node000005" class="edge">
<title>Node1&#45;&gt;Node5</title>
<g id="a_edge6_Node000001_Node000005"><a xlink:title=" ">
<path fill="none" stroke="#63b8ff" d="M518.4,-378.21C458.74,-326.8 305.47,-194.7 254.94,-151.16"/>
<polygon fill="#63b8ff" stroke="#63b8ff" points="516.31,-381.04 526.17,-384.91 520.88,-375.73 516.31,-381.04"/>
</a>
</g>
</g>
<!-- Node6 -->
<g id="Node000006" class="node">
<title>Node6</title>
<g id="a_Node000006"><a xlink:href="../../df/d27/expr_2deriv_8hpp.html" target="_top" xlink:title=" ">
<polygon fill="white" stroke="#666666" points="429.02,-151 314.02,-151 314.02,-121 429.02,-121 429.02,-151"/>
<text text-anchor="start" x="322.02" y="-139" font-family="Helvetica,sans-Serif" font-size="10.00">opencv2/cudev/expr</text>
<text text-anchor="middle" x="371.52" y="-128" font-family="Helvetica,sans-Serif" font-size="10.00">/deriv.hpp</text>
</a>
</g>
</g>
<!-- Node1&#45;&gt;Node6 -->
<g id="edge8_Node000001_Node000006" class="edge">
<title>Node1&#45;&gt;Node6</title>
<g id="a_edge8_Node000001_Node000006"><a xlink:title=" ">
<path fill="none" stroke="#63b8ff" d="M527.69,-376.28C493.29,-323.57 408.83,-194.16 380.76,-151.16"/>
<polygon fill="#63b8ff" stroke="#63b8ff" points="524.93,-378.45 533.33,-384.91 530.79,-374.63 524.93,-378.45"/>
</a>
</g>
</g>
<!-- Node7 -->
<g id="Node000007" class="node">
<title>Node7</title>
<g id="a_Node000007"><a xlink:href="../../dd/d7e/per__element__func_8hpp.html" target="_top" xlink:title=" ">
<polygon fill="white" stroke="#666666" points="879.52,-151 751.52,-151 751.52,-121 879.52,-121 879.52,-151"/>
<text text-anchor="start" x="759.52" y="-139" font-family="Helvetica,sans-Serif" font-size="10.00">opencv2/cudev/expr</text>
<text text-anchor="middle" x="815.52" y="-128" font-family="Helvetica,sans-Serif" font-size="10.00">/per_element_func.hpp</text>
</a>
</g>
</g>
<!-- Node1&#45;&gt;Node7 -->
<g id="edge10_Node000001_Node000007" class="edge">
<title>Node1&#45;&gt;Node7</title>
<g id="a_edge10_Node000001_Node000007"><a xlink:title=" ">
<path fill="none" stroke="#63b8ff" d="M593.62,-381.22C657.66,-355.9 764.82,-302.76 812.52,-217 824,-196.35 821.56,-167.85 818.62,-151.03"/>
<polygon fill="#63b8ff" stroke="#63b8ff" points="592.17,-378.03 584.11,-384.9 594.7,-384.56 592.17,-378.03"/>
</a>
</g>
</g>
<!-- Node8 -->
<g id="Node000008" class="node">
<title>Node8</title>
<g id="a_Node000008"><a xlink:href="../../d2/da5/reduction_8hpp.html" target="_top" xlink:title=" ">
<polygon fill="white" stroke="#666666" points="2162.02,-85 2047.02,-85 2047.02,-55 2162.02,-55 2162.02,-85"/>
<text text-anchor="start" x="2055.02" y="-73" font-family="Helvetica,sans-Serif" font-size="10.00">opencv2/cudev/expr</text>
<text text-anchor="middle" x="2104.52" y="-62" font-family="Helvetica,sans-Serif" font-size="10.00">/reduction.hpp</text>
</a>
</g>
</g>
<!-- Node1&#45;&gt;Node8 -->
<g id="edge12_Node000001_Node000008" class="edge">
<title>Node1&#45;&gt;Node8</title>
<g id="a_edge12_Node000001_Node000008"><a xlink:title=" ">
<path fill="none" stroke="#63b8ff" d="M610.31,-398.48C841,-396.39 1594.45,-386.76 1833.52,-349 1963.05,-328.54 2117.52,-400.13 2117.52,-269 2117.52,-269 2117.52,-269 2117.52,-201 2117.52,-158.81 2110.66,-109.3 2106.9,-85.38"/>
<polygon fill="#63b8ff" stroke="#63b8ff" points="610.02,-394.98 600.05,-398.57 610.08,-401.98 610.02,-394.98"/>
</a>
</g>
</g>
<!-- Node9 -->
<g id="Node000009" class="node">
<title>Node9</title>
<g id="a_Node000009"><a xlink:href="../../da/d71/unary__func_8hpp.html" target="_top" xlink:title=" ">
<polygon fill="white" stroke="#666666" points="1715.02,-151 1600.02,-151 1600.02,-121 1715.02,-121 1715.02,-151"/>
<text text-anchor="start" x="1608.02" y="-139" font-family="Helvetica,sans-Serif" font-size="10.00">opencv2/cudev/expr</text>
<text text-anchor="middle" x="1657.52" y="-128" font-family="Helvetica,sans-Serif" font-size="10.00">/unary_func.hpp</text>
</a>
</g>
</g>
<!-- Node1&#45;&gt;Node9 -->
<g id="edge14_Node000001_Node000009" class="edge">
<title>Node1&#45;&gt;Node9</title>
<g id="a_edge14_Node000001_Node000009"><a xlink:title=" ">
<path fill="none" stroke="#63b8ff" d="M610.3,-398.94C883.44,-398.01 1893.05,-387.48 1984.52,-283 1993.3,-272.97 1992.21,-263.89 1984.52,-253 1952.81,-208.1 1800.12,-168.27 1715.06,-149.09"/>
<polygon fill="#63b8ff" stroke="#63b8ff" points="610.13,-395.45 600.14,-398.98 610.15,-402.44 610.13,-395.45"/>
</a>
</g>
</g>
<!-- Node10 -->
<g id="Node000010" class="node">
<title>Node10</title>
<g id="a_Node000010"><a xlink:href="../../da/d1f/unary__op_8hpp.html" target="_top" xlink:title=" ">
<polygon fill="white" stroke="#666666" points="695.02,-151 580.02,-151 580.02,-121 695.02,-121 695.02,-151"/>
<text text-anchor="start" x="588.02" y="-139" font-family="Helvetica,sans-Serif" font-size="10.00">opencv2/cudev/expr</text>
<text text-anchor="middle" x="637.52" y="-128" font-family="Helvetica,sans-Serif" font-size="10.00">/unary_op.hpp</text>
</a>
</g>
</g>
<!-- Node1&#45;&gt;Node10 -->
<g id="edge16_Node000001_Node000010" class="edge">
<title>Node1&#45;&gt;Node10</title>
<g id="a_edge16_Node000001_Node000010"><a xlink:title=" ">
<path fill="none" stroke="#63b8ff" d="M543.66,-374.63C545.69,-345.03 551.27,-293.99 566.52,-253 581.34,-213.17 610.42,-172 626.38,-151.07"/>
<polygon fill="#63b8ff" stroke="#63b8ff" points="540.15,-374.66 543.05,-384.85 547.14,-375.08 540.15,-374.66"/>
</a>
</g>
</g>
<!-- Node11 -->
<g id="Node000011" class="node">
<title>Node11</title>
<g id="a_Node000011"><a xlink:href="../../d7/d51/expr_2warping_8hpp.html" target="_top" xlink:title=" ">
<polygon fill="white" stroke="#666666" points="1309.02,-85 1194.02,-85 1194.02,-55 1309.02,-55 1309.02,-85"/>
<text text-anchor="start" x="1202.02" y="-73" font-family="Helvetica,sans-Serif" font-size="10.00">opencv2/cudev/expr</text>
<text text-anchor="middle" x="1251.52" y="-62" font-family="Helvetica,sans-Serif" font-size="10.00">/warping.hpp</text>
</a>
</g>
</g>
<!-- Node1&#45;&gt;Node11 -->
<g id="edge18_Node000001_Node000011" class="edge">
<title>Node1&#45;&gt;Node11</title>
<g id="a_edge18_Node000001_Node000011"><a xlink:title=" ">
<path fill="none" stroke="#63b8ff" d="M609.05,-382.24C638.59,-373.81 673.41,-362.5 703.52,-349 887.07,-266.68 909.4,-199.73 1094.52,-121 1128.48,-106.56 1168.08,-93.98 1199.01,-85.04"/>
<polygon fill="#63b8ff" stroke="#63b8ff" points="607.93,-378.92 599.25,-384.99 609.82,-385.66 607.93,-378.92"/>
</a>
</g>
</g>
<!-- Node12 -->
<g id="Node000012" class="node">
<title>Node12</title>
<g id="a_Node000012"><a xlink:href="../../d2/db3/gpumat_8hpp.html" target="_top" xlink:title=" ">
<polygon fill="white" stroke="#666666" points="1481.02,-349 1362.02,-349 1362.02,-319 1481.02,-319 1481.02,-349"/>
<text text-anchor="start" x="1370.02" y="-337" font-family="Helvetica,sans-Serif" font-size="10.00">opencv2/cudev/ptr2d</text>
<text text-anchor="middle" x="1421.52" y="-326" font-family="Helvetica,sans-Serif" font-size="10.00">/gpumat.hpp</text>
</a>
</g>
</g>
<!-- Node1&#45;&gt;Node12 -->
<g id="edge20_Node000001_Node000012" class="edge">
<title>Node1&#45;&gt;Node12</title>
<g id="a_edge20_Node000001_Node000012"><a xlink:title=" ">
<path fill="none" stroke="#63b8ff" d="M610.31,-394.06C776.9,-381.93 1204.22,-350.82 1361.9,-339.34"/>
<polygon fill="#63b8ff" stroke="#63b8ff" points="609.91,-390.58 600.19,-394.8 610.42,-397.57 609.91,-390.58"/>
</a>
</g>
</g>
<!-- Node3&#45;&gt;Node2 -->
<g id="edge3_Node000003_Node000002" class="edge">
<title>Node3&#45;&gt;Node2</title>
<g id="a_edge3_Node000003_Node000002"><a xlink:title=" ">
<path fill="none" stroke="#63b8ff" d="M151.7,-117.45C204.64,-98.23 294.44,-68.37 374.52,-55 571.1,-22.17 1192,-13.06 1381.24,-11.02"/>
<polygon fill="#63b8ff" stroke="#63b8ff" points="150.45,-114.18 142.26,-120.91 152.85,-120.75 150.45,-114.18"/>
</a>
</g>
</g>
<!-- Node4&#45;&gt;Node2 -->
<g id="edge5_Node000004_Node000002" class="edge">
<title>Node4&#45;&gt;Node2</title>
<g id="a_edge5_Node000004_Node000002"><a xlink:title=" ">
<path fill="none" stroke="#63b8ff" d="M535.27,-115.5C567.38,-96.26 619.89,-67.92 669.52,-55 804.17,-19.94 1228.74,-12.47 1381.27,-10.91"/>
<polygon fill="#63b8ff" stroke="#63b8ff" points="533.11,-112.72 526.38,-120.9 536.74,-118.7 533.11,-112.72"/>
</a>
</g>
</g>
<!-- Node5&#45;&gt;Node2 -->
<g id="edge7_Node000005_Node000002" class="edge">
<title>Node5&#45;&gt;Node2</title>
<g id="a_edge7_Node000005_Node000002"><a xlink:title=" ">
<path fill="none" stroke="#63b8ff" d="M282.12,-117.25C331.5,-98.05 414.82,-68.42 489.52,-55 662.55,-23.91 1206.24,-13.72 1381.49,-11.2"/>
<polygon fill="#63b8ff" stroke="#63b8ff" points="280.74,-114.03 272.71,-120.94 283.3,-120.54 280.74,-114.03"/>
</a>
</g>
</g>
<!-- Node6&#45;&gt;Node2 -->
<g id="edge9_Node000006_Node000002" class="edge">
<title>Node6&#45;&gt;Node2</title>
<g id="a_edge9_Node000006_Node000002"><a xlink:title=" ">
<path fill="none" stroke="#63b8ff" d="M410.59,-116.77C453.8,-97.58 525.98,-68.33 591.52,-55 743.39,-24.1 1218.95,-13.91 1381.45,-11.28"/>
<polygon fill="#63b8ff" stroke="#63b8ff" points="408.99,-113.65 401.3,-120.94 411.86,-120.04 408.99,-113.65"/>
</a>
</g>
</g>
<!-- Node7&#45;&gt;Node2 -->
<g id="edge11_Node000007_Node000002" class="edge">
<title>Node7&#45;&gt;Node2</title>
<g id="a_edge11_Node000007_Node000002"><a xlink:title=" ">
<path fill="none" stroke="#63b8ff" d="M847.33,-115.84C880.38,-96.95 934.19,-68.94 984.52,-55 1123.77,-16.44 1295.27,-10.28 1381.5,-9.9"/>
<polygon fill="#63b8ff" stroke="#63b8ff" points="845.48,-112.87 838.58,-120.91 848.99,-118.93 845.48,-112.87"/>
</a>
</g>
</g>
<!-- Node8&#45;&gt;Node2 -->
<g id="edge13_Node000008_Node000002" class="edge">
<title>Node8&#45;&gt;Node2</title>
<g id="a_edge13_Node000008_Node000002"><a xlink:title=" ">
<path fill="none" stroke="#63b8ff" d="M2036.87,-56.94C2032.02,-56.23 2027.2,-55.58 2022.52,-55 1828.09,-31.07 1595.68,-18.01 1491.63,-12.97"/>
<polygon fill="#63b8ff" stroke="#63b8ff" points="2036.41,-60.41 2046.83,-58.46 2037.47,-53.49 2036.41,-60.41"/>
</a>
</g>
</g>
<!-- Node9&#45;&gt;Node2 -->
<g id="edge15_Node000009_Node000002" class="edge">
<title>Node9&#45;&gt;Node2</title>
<g id="a_edge15_Node000009_Node000002"><a xlink:title=" ">
<path fill="none" stroke="#63b8ff" d="M1642.77,-112.75C1629.72,-94.72 1609.13,-69.94 1585.52,-55 1556.54,-36.67 1519.65,-25.57 1489.82,-19.05"/>
<polygon fill="#63b8ff" stroke="#63b8ff" points="1639.94,-114.81 1648.55,-120.98 1645.67,-110.79 1639.94,-114.81"/>
</a>
</g>
</g>
<!-- Node10&#45;&gt;Node2 -->
<g id="edge17_Node000010_Node000002" class="edge">
<title>Node10&#45;&gt;Node2</title>
<g id="a_edge17_Node000010_Node000002"><a xlink:title=" ">
<path fill="none" stroke="#63b8ff" d="M650.82,-112.27C663.32,-93.27 683.92,-67.35 709.52,-55 769.45,-26.08 1222.36,-14.63 1381.47,-11.48"/>
<polygon fill="#63b8ff" stroke="#63b8ff" points="647.72,-110.63 645.35,-120.95 653.64,-114.36 647.72,-110.63"/>
</a>
</g>
</g>
<!-- Node11&#45;&gt;Node2 -->
<g id="edge19_Node000011_Node000002" class="edge">
<title>Node11&#45;&gt;Node2</title>
<g id="a_edge19_Node000011_Node000002"><a xlink:title=" ">
<path fill="none" stroke="#63b8ff" d="M1305.66,-51.88C1339.77,-41.09 1382.33,-27.64 1409.47,-19.05"/>
<polygon fill="#63b8ff" stroke="#63b8ff" points="1304.31,-48.64 1295.83,-54.99 1306.42,-55.31 1304.31,-48.64"/>
</a>
</g>
</g>
<!-- Node12&#45;&gt;Node2 -->
<g id="edge21_Node000012_Node000002" class="edge">
<title>Node12&#45;&gt;Node2</title>
<g id="a_edge21_Node000012_Node000002"><a xlink:title=" ">
<path fill="none" stroke="#63b8ff" d="M1483.87,-316.16C1614.81,-279.22 1902.58,-188.92 1854.52,-121 1829.07,-85.03 1710.05,-66.53 1667.52,-55 1608.19,-38.91 1538.79,-26.36 1491.65,-18.75"/>
<polygon fill="#63b8ff" stroke="#63b8ff" points="1482.64,-312.87 1473.96,-318.94 1484.53,-319.61 1482.64,-312.87"/>
</a>
</g>
</g>
<!-- Node12&#45;&gt;Node4 -->
<g id="edge22_Node000012_Node000004" class="edge">
<title>Node12&#45;&gt;Node4</title>
<g id="a_edge22_Node000012_Node000004"><a xlink:title=" ">
<path fill="none" stroke="#63b8ff" d="M1351.76,-332.48C1198.95,-330.63 839.15,-322.1 724.52,-283 638.18,-253.55 553.13,-181.66 519.54,-151.11"/>
<polygon fill="#63b8ff" stroke="#63b8ff" points="1351.92,-335.98 1361.96,-332.6 1352,-328.99 1351.92,-335.98"/>
</a>
</g>
</g>
<!-- Node12&#45;&gt;Node10 -->
<g id="edge23_Node000012_Node000010" class="edge">
<title>Node12&#45;&gt;Node10</title>
<g id="a_edge23_Node000012_Node000010"><a xlink:title=" ">
<path fill="none" stroke="#63b8ff" d="M1351.85,-332.76C1243.98,-331.08 1030.6,-322.49 854.52,-283 771.78,-264.45 738.12,-274.19 675.52,-217 655.88,-199.06 645.43,-168.83 640.72,-151.12"/>
<polygon fill="#63b8ff" stroke="#63b8ff" points="1351.91,-336.26 1361.96,-332.91 1352.01,-329.27 1351.91,-336.26"/>
</a>
</g>
</g>
<!-- Node13 -->
<g id="Node000013" class="node">
<title>Node13</title>
<g id="a_Node000013"><a xlink:href="../../d7/deb/copy_8hpp.html" target="_top" xlink:title=" ">
<polygon fill="white" stroke="#666666" points="1393.52,-283 1281.52,-283 1281.52,-253 1393.52,-253 1393.52,-283"/>
<text text-anchor="start" x="1289.52" y="-271" font-family="Helvetica,sans-Serif" font-size="10.00">opencv2/cudev/grid</text>
<text text-anchor="middle" x="1337.52" y="-260" font-family="Helvetica,sans-Serif" font-size="10.00">/copy.hpp</text>
</a>
</g>
</g>
<!-- Node12&#45;&gt;Node13 -->
<g id="edge24_Node000012_Node000013" class="edge">
<title>Node12&#45;&gt;Node13</title>
<g id="a_edge24_Node000012_Node000013"><a xlink:title=" ">
<path fill="none" stroke="#63b8ff" d="M1394.58,-312.48C1382.03,-302.91 1367.41,-291.77 1356.11,-283.16"/>
<polygon fill="#63b8ff" stroke="#63b8ff" points="1392.8,-315.52 1402.88,-318.8 1397.04,-309.95 1392.8,-315.52"/>
</a>
</g>
</g>
<!-- Node14 -->
<g id="Node000014" class="node">
<title>Node14</title>
<g id="a_Node000014"><a xlink:href="../../dd/da3/ptr2d_2deriv_8hpp.html" target="_top" xlink:title=" ">
<polygon fill="white" stroke="#666666" points="1101.02,-217 982.02,-217 982.02,-187 1101.02,-187 1101.02,-217"/>
<text text-anchor="start" x="990.02" y="-205" font-family="Helvetica,sans-Serif" font-size="10.00">opencv2/cudev/ptr2d</text>
<text text-anchor="middle" x="1041.52" y="-194" font-family="Helvetica,sans-Serif" font-size="10.00">/deriv.hpp</text>
</a>
</g>
</g>
<!-- Node12&#45;&gt;Node14 -->
<g id="edge72_Node000012_Node000014" class="edge">
<title>Node12&#45;&gt;Node14</title>
<g id="a_edge72_Node000012_Node000014"><a xlink:title=" ">
<path fill="none" stroke="#63b8ff" d="M1351.63,-326.89C1274.29,-319.2 1155.28,-304.37 1115.52,-283 1086.35,-267.33 1062.48,-235.7 1050.3,-217.25"/>
<polygon fill="#63b8ff" stroke="#63b8ff" points="1351.5,-330.39 1361.79,-327.88 1352.18,-323.42 1351.5,-330.39"/>
</a>
</g>
</g>
<!-- Node15 -->
<g id="Node000015" class="node">
<title>Node15</title>
<g id="a_Node000015"><a xlink:href="../../d7/d32/lut_8hpp.html" target="_top" xlink:title=" ">
<polygon fill="white" stroke="#666666" points="1414.02,-217 1295.02,-217 1295.02,-187 1414.02,-187 1414.02,-217"/>
<text text-anchor="start" x="1303.02" y="-205" font-family="Helvetica,sans-Serif" font-size="10.00">opencv2/cudev/ptr2d</text>
<text text-anchor="middle" x="1354.52" y="-194" font-family="Helvetica,sans-Serif" font-size="10.00">/lut.hpp</text>
</a>
</g>
</g>
<!-- Node12&#45;&gt;Node15 -->
<g id="edge73_Node000012_Node000015" class="edge">
<title>Node12&#45;&gt;Node15</title>
<g id="a_edge73_Node000012_Node000015"><a xlink:title=" ">
<path fill="none" stroke="#63b8ff" d="M1419.17,-308.93C1416.78,-292.39 1411.99,-270.38 1402.52,-253 1394.92,-239.05 1382.39,-226.2 1372.04,-217.01"/>
<polygon fill="#63b8ff" stroke="#63b8ff" points="1415.71,-309.42 1420.43,-318.9 1422.65,-308.54 1415.71,-309.42"/>
</a>
</g>
</g>
<!-- Node16 -->
<g id="Node000016" class="node">
<title>Node16</title>
<g id="a_Node000016"><a xlink:href="../../d1/d59/remap_8hpp.html" target="_top" xlink:title=" ">
<polygon fill="white" stroke="#666666" points="1277.02,-217 1158.02,-217 1158.02,-187 1277.02,-187 1277.02,-217"/>
<text text-anchor="start" x="1166.02" y="-205" font-family="Helvetica,sans-Serif" font-size="10.00">opencv2/cudev/ptr2d</text>
<text text-anchor="middle" x="1217.52" y="-194" font-family="Helvetica,sans-Serif" font-size="10.00">/remap.hpp</text>
</a>
</g>
</g>
<!-- Node12&#45;&gt;Node16 -->
<g id="edge74_Node000012_Node000016" class="edge">
<title>Node12&#45;&gt;Node16</title>
<g id="a_edge74_Node000012_Node000016"><a xlink:title=" ">
<path fill="none" stroke="#63b8ff" d="M1352.11,-319.65C1325.37,-312.07 1295.7,-300.49 1272.52,-283 1249.24,-265.44 1232.31,-235.08 1223.77,-217.24"/>
<polygon fill="#63b8ff" stroke="#63b8ff" points="1351.25,-323.04 1361.81,-322.26 1353.07,-316.28 1351.25,-323.04"/>
</a>
</g>
</g>
<!-- Node17 -->
<g id="Node000017" class="node">
<title>Node17</title>
<g id="a_Node000017"><a xlink:href="../../db/ddb/ptr2d_2warping_8hpp.html" target="_top" xlink:title=" ">
<polygon fill="white" stroke="#666666" points="1223.02,-151 1104.02,-151 1104.02,-121 1223.02,-121 1223.02,-151"/>
<text text-anchor="start" x="1112.02" y="-139" font-family="Helvetica,sans-Serif" font-size="10.00">opencv2/cudev/ptr2d</text>
<text text-anchor="middle" x="1163.52" y="-128" font-family="Helvetica,sans-Serif" font-size="10.00">/warping.hpp</text>
</a>
</g>
</g>
<!-- Node12&#45;&gt;Node17 -->
<g id="edge77_Node000012_Node000017" class="edge">
<title>Node12&#45;&gt;Node17</title>
<g id="a_edge77_Node000012_Node000017"><a xlink:title=" ">
<path fill="none" stroke="#63b8ff" d="M1351.74,-327.28C1284.14,-317.39 1186.45,-290.44 1148.52,-217 1137.56,-195.78 1147.61,-167.71 1155.7,-151.09"/>
<polygon fill="#63b8ff" stroke="#63b8ff" points="1351.52,-330.78 1361.9,-328.67 1352.47,-323.84 1351.52,-330.78"/>
</a>
</g>
</g>
<!-- Node18 -->
<g id="Node000018" class="node">
<title>Node18</title>
<g id="a_Node000018"><a xlink:href="../../dc/d12/resize_8hpp.html" target="_top" xlink:title=" ">
<polygon fill="white" stroke="#666666" points="1551.02,-217 1432.02,-217 1432.02,-187 1551.02,-187 1551.02,-217"/>
<text text-anchor="start" x="1440.02" y="-205" font-family="Helvetica,sans-Serif" font-size="10.00">opencv2/cudev/ptr2d</text>
<text text-anchor="middle" x="1491.52" y="-194" font-family="Helvetica,sans-Serif" font-size="10.00">/resize.hpp</text>
</a>
</g>
</g>
<!-- Node12&#45;&gt;Node18 -->
<g id="edge75_Node000012_Node000018" class="edge">
<title>Node12&#45;&gt;Node18</title>
<g id="a_edge75_Node000012_Node000018"><a xlink:title=" ">
<path fill="none" stroke="#63b8ff" d="M1434.04,-309.75C1448.53,-282.84 1471.92,-239.4 1483.9,-217.14"/>
<polygon fill="#63b8ff" stroke="#63b8ff" points="1430.8,-308.38 1429.14,-318.84 1436.97,-311.69 1430.8,-308.38"/>
</a>
</g>
</g>
<!-- Node19 -->
<g id="Node000019" class="node">
<title>Node19</title>
<g id="a_Node000019"><a xlink:href="../../dc/d14/contrib_2modules_2cudev_2include_2opencv2_2cudev_2ptr2d_2transform_8hpp.html" target="_top" xlink:title=" ">
<polygon fill="white" stroke="#666666" points="804.02,-217 685.02,-217 685.02,-187 804.02,-187 804.02,-217"/>
<text text-anchor="start" x="693.02" y="-205" font-family="Helvetica,sans-Serif" font-size="10.00">opencv2/cudev/ptr2d</text>
<text text-anchor="middle" x="744.52" y="-194" font-family="Helvetica,sans-Serif" font-size="10.00">/transform.hpp</text>
</a>
</g>
</g>
<!-- Node12&#45;&gt;Node19 -->
<g id="edge76_Node000012_Node000019" class="edge">
<title>Node12&#45;&gt;Node19</title>
<g id="a_edge76_Node000012_Node000019"><a xlink:title=" ">
<path fill="none" stroke="#63b8ff" d="M1351.65,-331.39C1258.64,-327.94 1089.59,-317.1 949.52,-283 884.37,-267.14 812.2,-235.43 773.26,-217.05"/>
<polygon fill="#63b8ff" stroke="#63b8ff" points="1351.67,-334.89 1361.78,-331.75 1351.91,-327.9 1351.67,-334.89"/>
</a>
</g>
</g>
<!-- Node20 -->
<g id="Node000020" class="node">
<title>Node20</title>
<g id="a_Node000020"><a xlink:href="../../d4/d25/contrib_2modules_2cudev_2include_2opencv2_2cudev_2grid_2reduce_8hpp.html" target="_top" xlink:title=" ">
<polygon fill="white" stroke="#666666" points="1845.52,-151 1733.52,-151 1733.52,-121 1845.52,-121 1845.52,-151"/>
<text text-anchor="start" x="1741.52" y="-139" font-family="Helvetica,sans-Serif" font-size="10.00">opencv2/cudev/grid</text>
<text text-anchor="middle" x="1789.52" y="-128" font-family="Helvetica,sans-Serif" font-size="10.00">/reduce.hpp</text>
</a>
</g>
</g>
<!-- Node12&#45;&gt;Node20 -->
<g id="edge61_Node000012_Node000020" class="edge">
<title>Node12&#45;&gt;Node20</title>
<g id="a_edge61_Node000012_Node000020"><a xlink:title=" ">
<path fill="none" stroke="#63b8ff" d="M1471.13,-315.48C1494.68,-306.62 1522.96,-295.17 1547.52,-283 1632.8,-240.71 1727.8,-178.67 1768.82,-151.1"/>
<polygon fill="#63b8ff" stroke="#63b8ff" points="1469.85,-312.22 1461.69,-318.99 1472.29,-318.78 1469.85,-312.22"/>
</a>
</g>
</g>
<!-- Node21 -->
<g id="Node000021" class="node">
<title>Node21</title>
<g id="a_Node000021"><a xlink:href="../../d5/d6e/histogram_8hpp.html" target="_top" xlink:title=" ">
<polygon fill="white" stroke="#666666" points="2089.52,-151 1977.52,-151 1977.52,-121 2089.52,-121 2089.52,-151"/>
<text text-anchor="start" x="1985.52" y="-139" font-family="Helvetica,sans-Serif" font-size="10.00">opencv2/cudev/grid</text>
<text text-anchor="middle" x="2033.52" y="-128" font-family="Helvetica,sans-Serif" font-size="10.00">/histogram.hpp</text>
</a>
</g>
</g>
<!-- Node12&#45;&gt;Node21 -->
<g id="edge52_Node000012_Node000021" class="edge">
<title>Node12&#45;&gt;Node21</title>
<g id="a_edge52_Node000012_Node000021"><a xlink:title=" ">
<path fill="none" stroke="#63b8ff" d="M1491.52,-331.02C1633.8,-326.4 1946.58,-312.92 1984.52,-283 2026.09,-250.22 2032.67,-180.81 2033.51,-151.04"/>
<polygon fill="#63b8ff" stroke="#63b8ff" points="1491.05,-327.53 1481.16,-331.35 1491.27,-334.53 1491.05,-327.53"/>
</a>
</g>
</g>
<!-- Node22 -->
<g id="Node000022" class="node">
<title>Node22</title>
<g id="a_Node000022"><a xlink:href="../../d3/da8/integral_8hpp.html" target="_top" xlink:title=" ">
<polygon fill="white" stroke="#666666" points="2257.52,-151 2145.52,-151 2145.52,-121 2257.52,-121 2257.52,-151"/>
<text text-anchor="start" x="2153.52" y="-139" font-family="Helvetica,sans-Serif" font-size="10.00">opencv2/cudev/grid</text>
<text text-anchor="middle" x="2201.52" y="-128" font-family="Helvetica,sans-Serif" font-size="10.00">/integral.hpp</text>
</a>
</g>
</g>
<!-- Node12&#45;&gt;Node22 -->
<g id="edge55_Node000012_Node000022" class="edge">
<title>Node12&#45;&gt;Node22</title>
<g id="a_edge55_Node000012_Node000022"><a xlink:title=" ">
<path fill="none" stroke="#63b8ff" d="M1491.31,-331.98C1626.36,-329.22 1918.34,-319.13 2011.52,-283 2088.7,-253.07 2160.7,-181.45 2188.93,-151.04"/>
<polygon fill="#63b8ff" stroke="#63b8ff" points="1491.01,-328.49 1481.08,-332.19 1491.15,-335.49 1491.01,-328.49"/>
</a>
</g>
</g>
<!-- Node23 -->
<g id="Node000023" class="node">
<title>Node23</title>
<g id="a_Node000023"><a xlink:href="../../d9/d3e/pyramids_8hpp.html" target="_top" xlink:title=" ">
<polygon fill="white" stroke="#666666" points="1009.52,-151 897.52,-151 897.52,-121 1009.52,-121 1009.52,-151"/>
<text text-anchor="start" x="905.52" y="-139" font-family="Helvetica,sans-Serif" font-size="10.00">opencv2/cudev/grid</text>
<text text-anchor="middle" x="953.52" y="-128" font-family="Helvetica,sans-Serif" font-size="10.00">/pyramids.hpp</text>
</a>
</g>
</g>
<!-- Node12&#45;&gt;Node23 -->
<g id="edge58_Node000012_Node000023" class="edge">
<title>Node12&#45;&gt;Node23</title>
<g id="a_edge58_Node000012_Node000023"><a xlink:title=" ">
<path fill="none" stroke="#63b8ff" d="M1351.55,-331.54C1280.1,-328.08 1166.99,-317.09 1075.52,-283 1024.57,-264.02 1003.98,-261.34 972.52,-217 958.39,-197.09 954.66,-168.08 953.74,-151.02"/>
<polygon fill="#63b8ff" stroke="#63b8ff" points="1351.64,-335.05 1361.79,-332 1351.95,-328.05 1351.64,-335.05"/>
</a>
</g>
</g>
<!-- Node24 -->
<g id="Node000024" class="node">
<title>Node24</title>
<g id="a_Node000024"><a xlink:href="../../d3/ddc/reduce__to__vec_8hpp.html" target="_top" xlink:title=" ">
<polygon fill="white" stroke="#666666" points="2387.52,-151 2275.52,-151 2275.52,-121 2387.52,-121 2387.52,-151"/>
<text text-anchor="start" x="2283.52" y="-139" font-family="Helvetica,sans-Serif" font-size="10.00">opencv2/cudev/grid</text>
<text text-anchor="middle" x="2331.52" y="-128" font-family="Helvetica,sans-Serif" font-size="10.00">/reduce_to_vec.hpp</text>
</a>
</g>
</g>
<!-- Node12&#45;&gt;Node24 -->
<g id="edge62_Node000012_Node000024" class="edge">
<title>Node12&#45;&gt;Node24</title>
<g id="a_edge62_Node000012_Node000024"><a xlink:title=" ">
<path fill="none" stroke="#63b8ff" d="M1491.44,-331.03C1633.35,-326.46 1950.51,-313.13 2054.52,-283 2158.43,-252.9 2268.17,-181.37 2311.89,-151.01"/>
<polygon fill="#63b8ff" stroke="#63b8ff" points="1491,-327.55 1481.12,-331.36 1491.23,-334.54 1491,-327.55"/>
</a>
</g>
</g>
<!-- Node25 -->
<g id="Node000025" class="node">
<title>Node25</title>
<g id="a_Node000025"><a xlink:href="../../d6/d56/split__merge_8hpp.html" target="_top" xlink:title=" ">
<polygon fill="white" stroke="#666666" points="1921.52,-85 1809.52,-85 1809.52,-55 1921.52,-55 1921.52,-85"/>
<text text-anchor="start" x="1817.52" y="-73" font-family="Helvetica,sans-Serif" font-size="10.00">opencv2/cudev/grid</text>
<text text-anchor="middle" x="1865.52" y="-62" font-family="Helvetica,sans-Serif" font-size="10.00">/split_merge.hpp</text>
</a>
</g>
</g>
<!-- Node12&#45;&gt;Node25 -->
<g id="edge65_Node000012_Node000025" class="edge">
<title>Node12&#45;&gt;Node25</title>
<g id="a_edge65_Node000012_Node000025"><a xlink:title=" ">
<path fill="none" stroke="#63b8ff" d="M1491.29,-331.39C1589.04,-327.91 1760.5,-317.01 1811.52,-283 1867.85,-245.45 1870.04,-216.4 1887.52,-151 1893.69,-127.9 1882.61,-101.12 1874.05,-85.15"/>
<polygon fill="#63b8ff" stroke="#63b8ff" points="1491.08,-327.89 1481.2,-331.73 1491.32,-334.89 1491.08,-327.89"/>
</a>
</g>
</g>
<!-- Node26 -->
<g id="Node000026" class="node">
<title>Node26</title>
<g id="a_Node000026"><a xlink:href="../../dc/df5/contrib_2modules_2cudev_2include_2opencv2_2cudev_2grid_2transform_8hpp.html" target="_top" xlink:title=" ">
<polygon fill="white" stroke="#666666" points="1975.52,-283 1863.52,-283 1863.52,-253 1975.52,-253 1975.52,-283"/>
<text text-anchor="start" x="1871.52" y="-271" font-family="Helvetica,sans-Serif" font-size="10.00">opencv2/cudev/grid</text>
<text text-anchor="middle" x="1919.52" y="-260" font-family="Helvetica,sans-Serif" font-size="10.00">/transform.hpp</text>
</a>
</g>
</g>
<!-- Node12&#45;&gt;Node26 -->
<g id="edge67_Node000012_Node000026" class="edge">
<title>Node12&#45;&gt;Node26</title>
<g id="a_edge67_Node000012_Node000026"><a xlink:title=" ">
<path fill="none" stroke="#63b8ff" d="M1491.31,-326.6C1576.23,-318.41 1723.84,-302.88 1849.52,-283 1854.05,-282.28 1858.73,-281.48 1863.43,-280.63"/>
<polygon fill="#63b8ff" stroke="#63b8ff" points="1490.89,-323.13 1481.27,-327.56 1491.56,-330.09 1490.89,-323.13"/>
</a>
</g>
</g>
<!-- Node27 -->
<g id="Node000027" class="node">
<title>Node27</title>
<g id="a_Node000027"><a xlink:href="../../d3/dfa/transpose_8hpp.html" target="_top" xlink:title=" ">
<polygon fill="white" stroke="#666666" points="1429.52,-151 1317.52,-151 1317.52,-121 1429.52,-121 1429.52,-151"/>
<text text-anchor="start" x="1325.52" y="-139" font-family="Helvetica,sans-Serif" font-size="10.00">opencv2/cudev/grid</text>
<text text-anchor="middle" x="1373.52" y="-128" font-family="Helvetica,sans-Serif" font-size="10.00">/transpose.hpp</text>
</a>
</g>
</g>
<!-- Node12&#45;&gt;Node27 -->
<g id="edge69_Node000012_Node000027" class="edge">
<title>Node12&#45;&gt;Node27</title>
<g id="a_edge69_Node000012_Node000027"><a xlink:title=" ">
<path fill="none" stroke="#63b8ff" d="M1462.4,-314.45C1515.55,-287.78 1597.36,-236.35 1559.52,-187 1543.7,-166.37 1478.47,-152.35 1429.7,-144.53"/>
<polygon fill="#63b8ff" stroke="#63b8ff" points="1460.61,-311.43 1453.17,-318.98 1463.69,-317.72 1460.61,-311.43"/>
</a>
</g>
</g>
<!-- Node13&#45;&gt;Node2 -->
<g id="edge25_Node000013_Node000002" class="edge">
<title>Node13&#45;&gt;Node2</title>
<g id="a_edge25_Node000013_Node000002"><a xlink:title=" ">
<path fill="none" stroke="#63b8ff" d="M1403.99,-261.07C1462.15,-254.35 1540.28,-241.05 1559.52,-217 1587.82,-181.62 1612.05,-159.25 1528.52,-55 1514.1,-37 1490.6,-25.81 1470.96,-19.15"/>
<polygon fill="#63b8ff" stroke="#63b8ff" points="1403.3,-257.63 1393.75,-262.22 1404.07,-264.59 1403.3,-257.63"/>
</a>
</g>
</g>
<!-- Node13&#45;&gt;Node14 -->
<g id="edge26_Node000013_Node000014" class="edge">
<title>Node13&#45;&gt;Node14</title>
<g id="a_edge26_Node000013_Node000014"><a xlink:title=" ">
<path fill="none" stroke="#63b8ff" d="M1271.55,-252.74C1220.53,-241.7 1150.47,-226.56 1101.12,-215.89"/>
<polygon fill="#63b8ff" stroke="#63b8ff" points="1270.98,-256.19 1281.5,-254.89 1272.46,-249.35 1270.98,-256.19"/>
</a>
</g>
</g>
<!-- Node13&#45;&gt;Node15 -->
<g id="edge29_Node000013_Node000015" class="edge">
<title>Node13&#45;&gt;Node15</title>
<g id="a_edge29_Node000013_Node000015"><a xlink:title=" ">
<path fill="none" stroke="#63b8ff" d="M1343.86,-243.11C1346.18,-234.38 1348.73,-224.78 1350.76,-217.16"/>
<polygon fill="#63b8ff" stroke="#63b8ff" points="1340.48,-242.23 1341.29,-252.8 1347.24,-244.03 1340.48,-242.23"/>
</a>
</g>
</g>
<!-- Node13&#45;&gt;Node16 -->
<g id="edge32_Node000013_Node000016" class="edge">
<title>Node13&#45;&gt;Node16</title>
<g id="a_edge32_Node000013_Node000016"><a xlink:title=" ">
<path fill="none" stroke="#63b8ff" d="M1302.35,-248.24C1283.62,-238.25 1260.97,-226.18 1243.79,-217.01"/>
<polygon fill="#63b8ff" stroke="#63b8ff" points="1300.71,-251.34 1311.18,-252.95 1304.01,-245.16 1300.71,-251.34"/>
</a>
</g>
</g>
<!-- Node13&#45;&gt;Node18 -->
<g id="edge38_Node000013_Node000018" class="edge">
<title>Node13&#45;&gt;Node18</title>
<g id="a_edge38_Node000013_Node000018"><a xlink:title=" ">
<path fill="none" stroke="#63b8ff" d="M1380.7,-249.05C1405.1,-238.91 1435.15,-226.43 1457.8,-217.01"/>
<polygon fill="#63b8ff" stroke="#63b8ff" points="1379.21,-245.89 1371.31,-252.95 1381.89,-252.35 1379.21,-245.89"/>
</a>
</g>
</g>
<!-- Node13&#45;&gt;Node19 -->
<g id="edge41_Node000013_Node000019" class="edge">
<title>Node13&#45;&gt;Node19</title>
<g id="a_edge41_Node000013_Node000019"><a xlink:title=" ">
<path fill="none" stroke="#63b8ff" d="M1271.27,-259.85C1154.88,-247.29 915.48,-221.45 804.04,-209.42"/>
<polygon fill="#63b8ff" stroke="#63b8ff" points="1271.15,-263.36 1281.46,-260.95 1271.9,-256.4 1271.15,-263.36"/>
</a>
</g>
</g>
<!-- Node14&#45;&gt;Node2 -->
<g id="edge27_Node000014_Node000002" class="edge">
<title>Node14&#45;&gt;Node2</title>
<g id="a_edge27_Node000014_Node000002"><a xlink:title=" ">
<path fill="none" stroke="#63b8ff" d="M1053.12,-177.66C1071.47,-143.64 1110.7,-81.6 1164.52,-55 1233.9,-20.7 1324.2,-11.98 1381.28,-10.21"/>
<polygon fill="#63b8ff" stroke="#63b8ff" points="1049.84,-176.37 1048.3,-186.86 1056.04,-179.62 1049.84,-176.37"/>
</a>
</g>
</g>
<!-- Node14&#45;&gt;Node6 -->
<g id="edge28_Node000014_Node000006" class="edge">
<title>Node14&#45;&gt;Node6</title>
<g id="a_edge28_Node000014_Node000006"><a xlink:title=" ">
<path fill="none" stroke="#63b8ff" d="M971.6,-196.33C835.36,-187.04 538.85,-165.88 437.52,-151 434.74,-150.59 431.9,-150.14 429.03,-149.65"/>
<polygon fill="#63b8ff" stroke="#63b8ff" points="971.7,-199.84 981.91,-197.03 972.17,-192.86 971.7,-199.84"/>
</a>
</g>
</g>
<!-- Node15&#45;&gt;Node2 -->
<g id="edge30_Node000015_Node000002" class="edge">
<title>Node15&#45;&gt;Node2</title>
<g id="a_edge30_Node000015_Node000002"><a xlink:title=" ">
<path fill="none" stroke="#63b8ff" d="M1423.55,-186.5C1442.25,-179.07 1460.38,-167.87 1471.52,-151 1495.02,-115.39 1485.48,-95.32 1471.52,-55 1466.57,-40.7 1454.91,-27.5 1446.4,-19.25"/>
<polygon fill="#63b8ff" stroke="#63b8ff" points="1422.26,-183.25 1414.05,-189.95 1424.65,-189.82 1422.26,-183.25"/>
</a>
</g>
</g>
<!-- Node15&#45;&gt;Node7 -->
<g id="edge31_Node000015_Node000007" class="edge">
<title>Node15&#45;&gt;Node7</title>
<g id="a_edge31_Node000015_Node000007"><a xlink:title=" ">
<path fill="none" stroke="#63b8ff" d="M1284.62,-186.99C1108.46,-161.87 1060.7,-175.26 888.52,-151 885.58,-150.59 882.58,-150.13 879.55,-149.65"/>
<polygon fill="#63b8ff" stroke="#63b8ff" points="1284.35,-190.49 1294.75,-188.46 1285.35,-183.56 1284.35,-190.49"/>
</a>
</g>
</g>
<!-- Node16&#45;&gt;Node2 -->
<g id="edge33_Node000016_Node000002" class="edge">
<title>Node16&#45;&gt;Node2</title>
<g id="a_edge33_Node000016_Node000002"><a xlink:title=" ">
<path fill="none" stroke="#63b8ff" d="M1287.33,-186.28C1351.17,-172.66 1436.08,-154.06 1438.52,-151 1470.19,-111.36 1449.08,-43.38 1440.04,-19.29"/>
<polygon fill="#63b8ff" stroke="#63b8ff" points="1286.33,-182.91 1277.28,-188.42 1287.79,-189.76 1286.33,-182.91"/>
</a>
</g>
</g>
<!-- Node16&#45;&gt;Node11 -->
<g id="edge34_Node000016_Node000011" class="edge">
<title>Node16&#45;&gt;Node11</title>
<g id="a_edge34_Node000016_Node000011"><a xlink:title=" ">
<path fill="none" stroke="#63b8ff" d="M1224.42,-176.89C1226.73,-168.68 1229.28,-159.46 1231.52,-151 1237.61,-128.03 1244.21,-101.21 1248.1,-85.19"/>
<polygon fill="#63b8ff" stroke="#63b8ff" points="1221.03,-176.01 1221.67,-186.59 1227.76,-177.92 1221.03,-176.01"/>
</a>
</g>
</g>
<!-- Node16&#45;&gt;Node17 -->
<g id="edge35_Node000016_Node000017" class="edge">
<title>Node16&#45;&gt;Node17</title>
<g id="a_edge35_Node000016_Node000017"><a xlink:title=" ">
<path fill="none" stroke="#63b8ff" d="M1199.03,-179.09C1191.23,-169.85 1182.38,-159.36 1175.47,-151.16"/>
<polygon fill="#63b8ff" stroke="#63b8ff" points="1196.41,-181.41 1205.53,-186.8 1201.76,-176.9 1196.41,-181.41"/>
</a>
</g>
</g>
<!-- Node17&#45;&gt;Node2 -->
<g id="edge36_Node000017_Node000002" class="edge">
<title>Node17&#45;&gt;Node2</title>
<g id="a_edge36_Node000017_Node000002"><a xlink:title=" ">
<path fill="none" stroke="#63b8ff" d="M1163.31,-110.79C1164.52,-92.82 1169.23,-69.09 1184.52,-55 1212.54,-29.19 1316.11,-17.99 1381.43,-13.41"/>
<polygon fill="#63b8ff" stroke="#63b8ff" points="1159.81,-110.73 1162.95,-120.85 1166.8,-110.98 1159.81,-110.73"/>
</a>
</g>
</g>
<!-- Node17&#45;&gt;Node11 -->
<g id="edge37_Node000017_Node000011" class="edge">
<title>Node17&#45;&gt;Node11</title>
<g id="a_edge37_Node000017_Node000011"><a xlink:title=" ">
<path fill="none" stroke="#63b8ff" d="M1191.36,-114.75C1204.59,-105.13 1220.09,-93.86 1232.04,-85.16"/>
<polygon fill="#63b8ff" stroke="#63b8ff" points="1189.08,-112.08 1183.05,-120.8 1193.19,-117.75 1189.08,-112.08"/>
</a>
</g>
</g>
<!-- Node18&#45;&gt;Node2 -->
<g id="edge39_Node000018_Node000002" class="edge">
<title>Node18&#45;&gt;Node2</title>
<g id="a_edge39_Node000018_Node000002"><a xlink:title=" ">
<path fill="none" stroke="#63b8ff" d="M1502.7,-177.27C1515.25,-146.9 1531.2,-93.61 1509.52,-55 1499.63,-37.4 1479.65,-25.94 1463.09,-19.06"/>
<polygon fill="#63b8ff" stroke="#63b8ff" points="1499.41,-176.07 1498.64,-186.63 1505.83,-178.86 1499.41,-176.07"/>
</a>
</g>
</g>
<!-- Node18&#45;&gt;Node11 -->
<g id="edge40_Node000018_Node000011" class="edge">
<title>Node18&#45;&gt;Node11</title>
<g id="a_edge40_Node000018_Node000011"><a xlink:title=" ">
<path fill="none" stroke="#63b8ff" d="M1422.74,-184.58C1374.99,-172.77 1318.25,-157.79 1308.52,-151 1284.18,-134.02 1266.6,-103.16 1257.83,-85.14"/>
<polygon fill="#63b8ff" stroke="#63b8ff" points="1421.92,-187.98 1432.47,-186.97 1423.59,-181.18 1421.92,-187.98"/>
</a>
</g>
</g>
<!-- Node19&#45;&gt;Node2 -->
<g id="edge42_Node000019_Node000002" class="edge">
<title>Node19&#45;&gt;Node2</title>
<g id="a_edge42_Node000019_Node000002"><a xlink:title=" ">
<path fill="none" stroke="#63b8ff" d="M737.1,-177.13C733.32,-160.07 731.54,-137.33 742.52,-121 785.9,-56.48 828.91,-73.12 904.52,-55 1074.87,-14.18 1283.66,-9.38 1381.28,-9.66"/>
<polygon fill="#63b8ff" stroke="#63b8ff" points="733.74,-178.11 739.62,-186.92 740.52,-176.36 733.74,-178.11"/>
</a>
</g>
</g>
<!-- Node19&#45;&gt;Node3 -->
<g id="edge43_Node000019_Node000003" class="edge">
<title>Node19&#45;&gt;Node3</title>
<g id="a_edge43_Node000019_Node000003"><a xlink:title=" ">
<path fill="none" stroke="#63b8ff" d="M674.71,-197.66C566.48,-191.86 351.87,-177.89 171.52,-151 168.74,-150.59 165.9,-150.13 163.04,-149.63"/>
<polygon fill="#63b8ff" stroke="#63b8ff" points="674.68,-201.16 684.85,-198.2 675.05,-194.17 674.68,-201.16"/>
</a>
</g>
</g>
<!-- Node19&#45;&gt;Node4 -->
<g id="edge44_Node000019_Node000004" class="edge">
<title>Node19&#45;&gt;Node4</title>
<g id="a_edge44_Node000019_Node000004"><a xlink:title=" ">
<path fill="none" stroke="#63b8ff" d="M681.72,-184.25C642.95,-173.91 593.77,-160.8 557.07,-151.01"/>
<polygon fill="#63b8ff" stroke="#63b8ff" points="681.29,-187.76 691.85,-186.95 683.09,-181 681.29,-187.76"/>
</a>
</g>
</g>
<!-- Node19&#45;&gt;Node5 -->
<g id="edge45_Node000019_Node000005" class="edge">
<title>Node19&#45;&gt;Node5</title>
<g id="a_edge45_Node000019_Node000005"><a xlink:title=" ">
<path fill="none" stroke="#63b8ff" d="M674.83,-195.16C587.83,-187.39 434.63,-172.14 304.52,-151 301.74,-150.55 298.91,-150.06 296.05,-149.54"/>
<polygon fill="#63b8ff" stroke="#63b8ff" points="674.58,-198.65 684.85,-196.05 675.19,-191.68 674.58,-198.65"/>
</a>
</g>
</g>
<!-- Node19&#45;&gt;Node7 -->
<g id="edge46_Node000019_Node000007" class="edge">
<title>Node19&#45;&gt;Node7</title>
<g id="a_edge46_Node000019_Node000007"><a xlink:title=" ">
<path fill="none" stroke="#63b8ff" d="M767.9,-179.92C778.37,-170.49 790.44,-159.61 799.81,-151.16"/>
<polygon fill="#63b8ff" stroke="#63b8ff" points="765.36,-177.5 760.28,-186.8 770.05,-182.7 765.36,-177.5"/>
</a>
</g>
</g>
<!-- Node19&#45;&gt;Node9 -->
<g id="edge47_Node000019_Node000009" class="edge">
<title>Node19&#45;&gt;Node9</title>
<g id="a_edge47_Node000019_Node000009"><a xlink:title=" ">
<path fill="none" stroke="#63b8ff" d="M814.14,-196.12C988.17,-183.92 1439.65,-152.27 1599.99,-141.03"/>
<polygon fill="#63b8ff" stroke="#63b8ff" points="813.8,-192.63 804.07,-196.83 814.29,-199.62 813.8,-192.63"/>
</a>
</g>
</g>
<!-- Node19&#45;&gt;Node10 -->
<g id="edge48_Node000019_Node000010" class="edge">
<title>Node19&#45;&gt;Node10</title>
<g id="a_edge48_Node000019_Node000010"><a xlink:title=" ">
<path fill="none" stroke="#63b8ff" d="M712.24,-181.69C695.73,-171.82 675.99,-160.01 660.95,-151.01"/>
<polygon fill="#63b8ff" stroke="#63b8ff" points="710.66,-184.83 721.04,-186.95 714.25,-178.82 710.66,-184.83"/>
</a>
</g>
</g>
<!-- Node19&#45;&gt;Node20 -->
<g id="edge49_Node000019_Node000020" class="edge">
<title>Node19&#45;&gt;Node20</title>
<g id="a_edge49_Node000019_Node000020"><a xlink:title=" ">
<path fill="none" stroke="#63b8ff" d="M814.3,-196.47C859.42,-193.6 919.43,-189.9 972.52,-187 1306.18,-168.76 1392.11,-193.81 1723.52,-151 1726.77,-150.58 1730.1,-150.08 1733.46,-149.53"/>
<polygon fill="#63b8ff" stroke="#63b8ff" points="813.79,-193 804.03,-197.13 814.24,-199.98 813.79,-193"/>
</a>
</g>
</g>
<!-- Node20&#45;&gt;Node2 -->
<g id="edge50_Node000020_Node000002" class="edge">
<title>Node20&#45;&gt;Node2</title>
<g id="a_edge50_Node000020_Node000002"><a xlink:title=" ">
<path fill="none" stroke="#63b8ff" d="M1754.05,-116.16C1719.65,-98.48 1665.6,-72.24 1616.52,-55 1571.42,-39.16 1518.07,-26.72 1481.22,-19.07"/>
<polygon fill="#63b8ff" stroke="#63b8ff" points="1752.72,-119.41 1763.21,-120.9 1755.94,-113.2 1752.72,-119.41"/>
</a>
</g>
</g>
<!-- Node20&#45;&gt;Node8 -->
<g id="edge51_Node000020_Node000008" class="edge">
<title>Node20&#45;&gt;Node8</title>
<g id="a_edge51_Node000020_Node000008"><a xlink:title=" ">
<path fill="none" stroke="#63b8ff" d="M1855.75,-121.54C1912.32,-110.05 1992.87,-93.69 2046.83,-82.72"/>
<polygon fill="#63b8ff" stroke="#63b8ff" points="1854.94,-118.14 1845.83,-123.56 1856.33,-125 1854.94,-118.14"/>
</a>
</g>
</g>
<!-- Node21&#45;&gt;Node2 -->
<g id="edge53_Node000021_Node000002" class="edge">
<title>Node21&#45;&gt;Node2</title>
<g id="a_edge53_Node000021_Node000002"><a xlink:title=" ">
<path fill="none" stroke="#63b8ff" d="M2020.46,-112.1C2008.34,-93.23 1988.43,-67.59 1963.52,-55 1882.09,-13.83 1609.45,-9.76 1491.58,-10"/>
<polygon fill="#63b8ff" stroke="#63b8ff" points="2017.55,-114.06 2025.78,-120.74 2023.52,-110.39 2017.55,-114.06"/>
</a>
</g>
</g>
<!-- Node21&#45;&gt;Node8 -->
<g id="edge54_Node000021_Node000008" class="edge">
<title>Node21&#45;&gt;Node8</title>
<g id="a_edge54_Node000021_Node000008"><a xlink:title=" ">
<path fill="none" stroke="#63b8ff" d="M2056.9,-113.92C2067.37,-104.49 2079.44,-93.61 2088.81,-85.16"/>
<polygon fill="#63b8ff" stroke="#63b8ff" points="2054.36,-111.5 2049.28,-120.8 2059.05,-116.7 2054.36,-111.5"/>
</a>
</g>
</g>
<!-- Node22&#45;&gt;Node2 -->
<g id="edge56_Node000022_Node000002" class="edge">
<title>Node22&#45;&gt;Node2</title>
<g id="a_edge56_Node000022_Node000002"><a xlink:title=" ">
<path fill="none" stroke="#63b8ff" d="M2199.07,-110.91C2195.81,-92.42 2188.22,-67.93 2170.52,-55 2116.14,-15.28 1652.77,-10.81 1491.54,-10.46"/>
<polygon fill="#63b8ff" stroke="#63b8ff" points="2195.63,-111.58 2200.53,-120.98 2202.56,-110.58 2195.63,-111.58"/>
</a>
</g>
</g>
<!-- Node22&#45;&gt;Node8 -->
<g id="edge57_Node000022_Node000008" class="edge">
<title>Node22&#45;&gt;Node8</title>
<g id="a_edge57_Node000022_Node000008"><a xlink:title=" ">
<path fill="none" stroke="#63b8ff" d="M2171.25,-115.03C2156.57,-105.34 2139.29,-93.94 2125.99,-85.16"/>
<polygon fill="#63b8ff" stroke="#63b8ff" points="2169.72,-118.21 2179.99,-120.8 2173.57,-112.37 2169.72,-118.21"/>
</a>
</g>
</g>
<!-- Node23&#45;&gt;Node2 -->
<g id="edge59_Node000023_Node000002" class="edge">
<title>Node23&#45;&gt;Node2</title>
<g id="a_edge59_Node000023_Node000002"><a xlink:title=" ">
<path fill="none" stroke="#63b8ff" d="M966.65,-112.25C978.82,-93.47 998.76,-67.88 1023.52,-55 1084.46,-23.3 1283.4,-14.14 1381.21,-11.52"/>
<polygon fill="#63b8ff" stroke="#63b8ff" points="963.62,-110.5 961.31,-120.84 969.56,-114.19 963.62,-110.5"/>
</a>
</g>
</g>
<!-- Node23&#45;&gt;Node11 -->
<g id="edge60_Node000023_Node000011" class="edge">
<title>Node23&#45;&gt;Node11</title>
<g id="a_edge60_Node000023_Node000011"><a xlink:title=" ">
<path fill="none" stroke="#63b8ff" d="M1019.41,-120.85C1071.67,-109.62 1143.98,-94.1 1193.94,-83.37"/>
<polygon fill="#63b8ff" stroke="#63b8ff" points="1018.61,-117.44 1009.57,-122.96 1020.08,-124.28 1018.61,-117.44"/>
</a>
</g>
</g>
<!-- Node24&#45;&gt;Node2 -->
<g id="edge63_Node000024_Node000002" class="edge">
<title>Node24&#45;&gt;Node2</title>
<g id="a_edge63_Node000024_Node000002"><a xlink:title=" ">
<path fill="none" stroke="#63b8ff" d="M2305.7,-114.71C2279.57,-95.47 2237.2,-67.67 2195.52,-55 2063.86,-14.97 1643.19,-10.63 1491.62,-10.39"/>
<polygon fill="#63b8ff" stroke="#63b8ff" points="2303.81,-117.67 2313.91,-120.88 2308.01,-112.07 2303.81,-117.67"/>
</a>
</g>
</g>
<!-- Node24&#45;&gt;Node8 -->
<g id="edge64_Node000024_Node000008" class="edge">
<title>Node24&#45;&gt;Node8</title>
<g id="a_edge64_Node000024_Node000008"><a xlink:title=" ">
<path fill="none" stroke="#63b8ff" d="M2271.65,-118.12C2235.05,-107.8 2188.79,-94.76 2154.22,-85.01"/>
<polygon fill="#63b8ff" stroke="#63b8ff" points="2271.13,-121.61 2281.7,-120.95 2273.03,-114.87 2271.13,-121.61"/>
</a>
</g>
</g>
<!-- Node25&#45;&gt;Node2 -->
<g id="edge66_Node000025_Node000002" class="edge">
<title>Node25&#45;&gt;Node2</title>
<g id="a_edge66_Node000025_Node000002"><a xlink:title=" ">
<path fill="none" stroke="#63b8ff" d="M1799.37,-55.64C1798.08,-55.42 1796.79,-55.21 1795.52,-55 1688.42,-37.68 1562.39,-23.47 1491.74,-16.06"/>
<polygon fill="#63b8ff" stroke="#63b8ff" points="1798.97,-59.12 1809.42,-57.4 1800.18,-52.22 1798.97,-59.12"/>
</a>
</g>
</g>
<!-- Node26&#45;&gt;Node2 -->
<g id="edge68_Node000026_Node000002" class="edge">
<title>Node26&#45;&gt;Node2</title>
<g id="a_edge68_Node000026_Node000002"><a xlink:title=" ">
<path fill="none" stroke="#63b8ff" d="M1930.29,-243.42C1948.31,-200.01 1978.17,-107.13 1930.52,-55 1901.36,-23.1 1614.15,-13.87 1491.54,-11.37"/>
<polygon fill="#63b8ff" stroke="#63b8ff" points="1926.97,-242.29 1926.23,-252.86 1933.4,-245.06 1926.97,-242.29"/>
</a>
</g>
</g>
<!-- Node27&#45;&gt;Node2 -->
<g id="edge70_Node000027_Node000002" class="edge">
<title>Node27&#45;&gt;Node2</title>
<g id="a_edge70_Node000027_Node000002"><a xlink:title=" ">
<path fill="none" stroke="#63b8ff" d="M1385.36,-111.6C1399.56,-83.53 1422.64,-37.92 1432.18,-19.07"/>
<polygon fill="#63b8ff" stroke="#63b8ff" points="1382.14,-110.22 1380.75,-120.72 1388.38,-113.38 1382.14,-110.22"/>
</a>
</g>
</g>
<!-- Node27&#45;&gt;Node11 -->
<g id="edge71_Node000027_Node000011" class="edge">
<title>Node27&#45;&gt;Node11</title>
<g id="a_edge71_Node000027_Node000011"><a xlink:title=" ">
<path fill="none" stroke="#63b8ff" d="M1337.76,-116.24C1318.72,-106.25 1295.7,-94.18 1278.23,-85.01"/>
<polygon fill="#63b8ff" stroke="#63b8ff" points="1336.26,-119.41 1346.75,-120.95 1339.52,-113.21 1336.26,-119.41"/>
</a>
</g>
</g>
</g>
</svg>
