<?xml version="1.0" encoding="UTF-8" standalone="no"?>
<!DOCTYPE svg PUBLIC "-//W3C//DTD SVG 1.1//EN"
 "http://www.w3.org/Graphics/SVG/1.1/DTD/svg11.dtd">
<!-- Generated by graphviz version 2.43.0 (0)
 -->
<!-- Title: opencv2/viz/widgets.hpp Pages: 1 -->
<svg width="218pt" height="192pt"
 viewBox="0.00 0.00 218.50 192.00" xmlns="http://www.w3.org/2000/svg" xmlns:xlink="http://www.w3.org/1999/xlink">
<g id="graph0" class="graph" transform="scale(1 1) rotate(0) translate(4 188)">
<title>opencv2/viz/widgets.hpp</title>
<!-- Node1 -->
<g id="Node000001" class="node">
<title>Node1</title>
<g id="a_Node000001"><a xlink:title=" ">
<polygon fill="#999999" stroke="#666666" points="146,-184 9,-184 9,-165 146,-165 146,-184"/>
<text text-anchor="middle" x="77.5" y="-172" font-family="Helvetica,sans-Serif" font-size="10.00">opencv2/viz/widgets.hpp</text>
</a>
</g>
</g>
<!-- Node2 -->
<g id="Node000002" class="node">
<title>Node2</title>
<g id="a_Node000002"><a xlink:href="../../d0/d7e/viz_8hpp.html" target="_top" xlink:title=" ">
<polygon fill="white" stroke="#666666" points="96.5,-19 0.5,-19 0.5,0 96.5,0 96.5,-19"/>
<text text-anchor="middle" x="48.5" y="-7" font-family="Helvetica,sans-Serif" font-size="10.00">opencv2/viz.hpp</text>
</a>
</g>
</g>
<!-- Node1&#45;&gt;Node2 -->
<g id="edge1_Node000001_Node000002" class="edge">
<title>Node1&#45;&gt;Node2</title>
<g id="a_edge1_Node000001_Node000002"><a xlink:title=" ">
<path fill="none" stroke="#63b8ff" d="M42.61,-160.5C28.78,-153.43 14.34,-143.17 6.5,-129 -14.75,-90.61 23.26,-39.45 40.57,-19.24"/>
<polygon fill="#63b8ff" stroke="#63b8ff" points="41.45,-163.82 51.99,-164.9 44.42,-157.48 41.45,-163.82"/>
</a>
</g>
</g>
<!-- Node3 -->
<g id="Node000003" class="node">
<title>Node3</title>
<g id="a_Node000003"><a xlink:href="../../de/d82/viz3d_8hpp.html" target="_top" xlink:title=" ">
<polygon fill="white" stroke="#666666" points="140,-129 15,-129 15,-110 140,-110 140,-129"/>
<text text-anchor="middle" x="77.5" y="-117" font-family="Helvetica,sans-Serif" font-size="10.00">opencv2/viz/viz3d.hpp</text>
</a>
</g>
</g>
<!-- Node1&#45;&gt;Node3 -->
<g id="edge2_Node000001_Node000003" class="edge">
<title>Node1&#45;&gt;Node3</title>
<g id="a_edge2_Node000001_Node000003"><a xlink:title=" ">
<path fill="none" stroke="#63b8ff" d="M77.5,-154.66C77.5,-145.93 77.5,-135.99 77.5,-129.09"/>
<polygon fill="#63b8ff" stroke="#63b8ff" points="74,-154.75 77.5,-164.75 81,-154.75 74,-154.75"/>
</a>
</g>
</g>
<!-- Node4 -->
<g id="Node000004" class="node">
<title>Node4</title>
<g id="a_Node000004"><a xlink:href="../../d2/d4b/vizcore_8hpp.html" target="_top" xlink:title=" ">
<polygon fill="white" stroke="#666666" points="210.5,-74 76.5,-74 76.5,-55 210.5,-55 210.5,-74"/>
<text text-anchor="middle" x="143.5" y="-62" font-family="Helvetica,sans-Serif" font-size="10.00">opencv2/viz/vizcore.hpp</text>
</a>
</g>
</g>
<!-- Node1&#45;&gt;Node4 -->
<g id="edge6_Node000001_Node000004" class="edge">
<title>Node1&#45;&gt;Node4</title>
<g id="a_edge6_Node000001_Node000004"><a xlink:title=" ">
<path fill="none" stroke="#63b8ff" d="M112.46,-160.82C126.6,-153.76 141.45,-143.42 149.5,-129 159.2,-111.59 152.29,-87.27 147.33,-74.36"/>
<polygon fill="#63b8ff" stroke="#63b8ff" points="110.98,-157.64 103.35,-164.99 113.9,-164.01 110.98,-157.64"/>
</a>
</g>
</g>
<!-- Node3&#45;&gt;Node2 -->
<g id="edge3_Node000003_Node000002" class="edge">
<title>Node3&#45;&gt;Node2</title>
<g id="a_edge3_Node000003_Node000002"><a xlink:title=" ">
<path fill="none" stroke="#63b8ff" d="M72.48,-99.8C66.14,-76.2 55.5,-36.58 50.82,-19.16"/>
<polygon fill="#63b8ff" stroke="#63b8ff" points="69.15,-100.91 75.12,-109.66 75.91,-99.1 69.15,-100.91"/>
</a>
</g>
</g>
<!-- Node3&#45;&gt;Node4 -->
<g id="edge4_Node000003_Node000004" class="edge">
<title>Node3&#45;&gt;Node4</title>
<g id="a_edge4_Node000003_Node000004"><a xlink:title=" ">
<path fill="none" stroke="#63b8ff" d="M96.05,-103.6C107.87,-94.11 122.78,-82.13 132.7,-74.17"/>
<polygon fill="#63b8ff" stroke="#63b8ff" points="93.71,-100.99 88.1,-109.98 98.09,-106.45 93.71,-100.99"/>
</a>
</g>
</g>
<!-- Node4&#45;&gt;Node2 -->
<g id="edge5_Node000004_Node000002" class="edge">
<title>Node4&#45;&gt;Node2</title>
<g id="a_edge5_Node000004_Node000002"><a xlink:title=" ">
<path fill="none" stroke="#63b8ff" d="M119.24,-49.97C101.87,-40.28 79,-27.52 64.04,-19.17"/>
<polygon fill="#63b8ff" stroke="#63b8ff" points="117.79,-53.17 128.23,-54.98 121.2,-47.06 117.79,-53.17"/>
</a>
</g>
</g>
</g>
</svg>
