<?xml version="1.0" encoding="UTF-8" standalone="no"?>
<!DOCTYPE svg PUBLIC "-//W3C//DTD SVG 1.1//EN"
 "http://www.w3.org/Graphics/SVG/1.1/DTD/svg11.dtd">
<!-- Generated by graphviz version 2.43.0 (0)
 -->
<!-- Title: cv::GMatP Pages: 1 -->
<svg width="67pt" height="172pt"
 viewBox="0.00 0.00 67.00 172.00" xmlns="http://www.w3.org/2000/svg" xmlns:xlink="http://www.w3.org/1999/xlink">
<g id="graph0" class="graph" transform="scale(1 1) rotate(0) translate(4 168)">
<title>cv::GMatP</title>
<!-- Node1 -->
<g id="Node000001" class="node">
<title>Node1</title>
<g id="a_Node000001"><a xlink:title=" ">
<polygon fill="#999999" stroke="transparent" points="59,-64 0,-64 0,0 59,0 59,-64"/>
<text text-anchor="start" x="5.5" y="-52" font-family="Helvetica,sans-Serif" font-size="10.00">cv::GMatP</text>
<text text-anchor="start" x="28" y="-37" font-family="Helvetica,sans-Serif" font-size="10.00"> </text>
<text text-anchor="start" x="5.5" y="-22" font-family="Helvetica,sans-Serif" font-size="10.00">+</text>
<text text-anchor="start" x="19.5" y="-22" font-family="Helvetica,sans-Serif" font-size="10.00">GMat()</text>
<text text-anchor="start" x="5.5" y="-7" font-family="Helvetica,sans-Serif" font-size="10.00">+</text>
<text text-anchor="start" x="19.5" y="-7" font-family="Helvetica,sans-Serif" font-size="10.00">GMat()</text>
<polygon fill="#666666" stroke="#666666" points="0.5,-47 0.5,-47 59.5,-47 59.5,-47 0.5,-47"/>
<polygon fill="#666666" stroke="#666666" points="0.5,-32 0.5,-32 59.5,-32 59.5,-32 0.5,-32"/>
<polygon fill="none" stroke="#666666" points="0,0 0,-64 59,-64 59,0 0,0"/>
</a>
</g>
</g>
<!-- Node2 -->
<g id="Node000002" class="node">
<title>Node2</title>
<g id="a_Node000002"><a xlink:href="../../df/daa/classcv_1_1GMat.html" target="_top" xlink:title="GMat class represents image or tensor data in the graph.">
<polygon fill="white" stroke="transparent" points="57,-164 2,-164 2,-100 57,-100 57,-164"/>
<text text-anchor="start" x="8.5" y="-152" font-family="Helvetica,sans-Serif" font-size="10.00">cv::GMat</text>
<text text-anchor="start" x="28" y="-137" font-family="Helvetica,sans-Serif" font-size="10.00"> </text>
<text text-anchor="start" x="6.5" y="-122" font-family="Helvetica,sans-Serif" font-size="10.00">+</text>
<text text-anchor="start" x="19.5" y="-122" font-family="Helvetica,sans-Serif" font-size="10.00">GMat()</text>
<text text-anchor="start" x="6.5" y="-107" font-family="Helvetica,sans-Serif" font-size="10.00">+</text>
<text text-anchor="start" x="19.5" y="-107" font-family="Helvetica,sans-Serif" font-size="10.00">GMat()</text>
<polygon fill="#666666" stroke="#666666" points="2.5,-147 2.5,-147 57.5,-147 57.5,-147 2.5,-147"/>
<polygon fill="#666666" stroke="#666666" points="2.5,-132 2.5,-132 57.5,-132 57.5,-132 2.5,-132"/>
<polygon fill="none" stroke="#666666" points="2,-100 2,-164 57,-164 57,-100 2,-100"/>
</a>
</g>
</g>
<!-- Node2&#45;&gt;Node1 -->
<g id="edge1_Node000001_Node000002" class="edge">
<title>Node2&#45;&gt;Node1</title>
<g id="a_edge1_Node000001_Node000002"><a xlink:title=" ">
<path fill="none" stroke="#63b8ff" d="M29.5,-89.76C29.5,-81.19 29.5,-72.28 29.5,-64.14"/>
<polygon fill="none" stroke="#63b8ff" points="26,-89.99 29.5,-99.99 33,-89.99 26,-89.99"/>
</a>
</g>
</g>
</g>
</svg>
