<?xml version="1.0" encoding="UTF-8" standalone="no"?>
<!DOCTYPE svg PUBLIC "-//W3C//DTD SVG 1.1//EN"
 "http://www.w3.org/Graphics/SVG/1.1/DTD/svg11.dtd">
<!-- Generated by graphviz version 2.43.0 (0)
 -->
<!-- Title: cv::img_hash::AverageHash Pages: 1 -->
<svg width="248pt" height="494pt"
 viewBox="0.00 0.00 248.00 494.00" xmlns="http://www.w3.org/2000/svg" xmlns:xlink="http://www.w3.org/1999/xlink">
<g id="graph0" class="graph" transform="scale(1 1) rotate(0) translate(4 490)">
<title>cv::img_hash::AverageHash</title>
<!-- Node1 -->
<g id="Node000001" class="node">
<title>Node1</title>
<g id="a_Node000001"><a xlink:title="Computes average hash value of the input image.">
<polygon fill="#999999" stroke="transparent" points="191.5,-64 46.5,-64 46.5,0 191.5,0 191.5,-64"/>
<text text-anchor="start" x="52" y="-52" font-family="Helvetica,sans-Serif" font-size="10.00">cv::img_hash::AverageHash</text>
<text text-anchor="start" x="117.5" y="-37" font-family="Helvetica,sans-Serif" font-size="10.00"> </text>
<text text-anchor="start" x="63.5" y="-22" font-family="Helvetica,sans-Serif" font-size="10.00">+</text>
<text text-anchor="start" x="89" y="-22" font-family="Helvetica,sans-Serif" font-size="10.00">create()</text>
<text text-anchor="start" x="63.5" y="-7" font-family="Helvetica,sans-Serif" font-size="10.00">#</text>
<text text-anchor="start" x="89" y="-7" font-family="Helvetica,sans-Serif" font-size="10.00">AverageHash()</text>
<polygon fill="#666666" stroke="#666666" points="47,-47 47,-47 192,-47 192,-47 47,-47"/>
<polygon fill="#666666" stroke="#666666" points="47,-32 47,-32 192,-32 192,-32 47,-32"/>
<polygon fill="none" stroke="#666666" points="46.5,0 46.5,-64 191.5,-64 191.5,0 46.5,0"/>
</a>
</g>
</g>
<!-- Node2 -->
<g id="Node000002" class="node">
<title>Node2</title>
<g id="a_Node000002"><a xlink:href="../../de/d29/classcv_1_1img__hash_1_1ImgHashBase.html" target="_top" xlink:title="The base class for image hash algorithms.">
<polygon fill="white" stroke="transparent" points="193,-195 45,-195 45,-101 193,-101 193,-195"/>
<text text-anchor="start" x="50" y="-183" font-family="Helvetica,sans-Serif" font-size="10.00">cv::img_hash::ImgHashBase</text>
<text text-anchor="start" x="117" y="-168" font-family="Helvetica,sans-Serif" font-size="10.00"> </text>
<text text-anchor="start" x="59.5" y="-153" font-family="Helvetica,sans-Serif" font-size="10.00">+</text>
<text text-anchor="start" x="83" y="-153" font-family="Helvetica,sans-Serif" font-size="10.00">~ImgHashBase()</text>
<text text-anchor="start" x="59.5" y="-138" font-family="Helvetica,sans-Serif" font-size="10.00">+</text>
<text text-anchor="start" x="83" y="-138" font-family="Helvetica,sans-Serif" font-size="10.00">compare()</text>
<text text-anchor="start" x="59.5" y="-123" font-family="Helvetica,sans-Serif" font-size="10.00">+</text>
<text text-anchor="start" x="83" y="-123" font-family="Helvetica,sans-Serif" font-size="10.00">compute()</text>
<text text-anchor="start" x="59.5" y="-108" font-family="Helvetica,sans-Serif" font-size="10.00">#</text>
<text text-anchor="start" x="83" y="-108" font-family="Helvetica,sans-Serif" font-size="10.00">ImgHashBase()</text>
<polygon fill="#666666" stroke="#666666" points="45,-178 45,-178 193,-178 193,-178 45,-178"/>
<polygon fill="#666666" stroke="#666666" points="45,-163 45,-163 193,-163 193,-163 45,-163"/>
<polygon fill="none" stroke="#666666" points="45,-101 45,-195 193,-195 193,-101 45,-101"/>
</a>
</g>
</g>
<!-- Node2&#45;&gt;Node1 -->
<g id="edge1_Node000001_Node000002" class="edge">
<title>Node2&#45;&gt;Node1</title>
<g id="a_edge1_Node000001_Node000002"><a xlink:title=" ">
<path fill="none" stroke="#63b8ff" d="M119,-90.71C119,-81.58 119,-72.43 119,-64.18"/>
<polygon fill="none" stroke="#63b8ff" points="115.5,-90.96 119,-100.96 122.5,-90.96 115.5,-90.96"/>
</a>
</g>
</g>
<!-- Node3 -->
<g id="Node000003" class="node">
<title>Node3</title>
<g id="a_Node000003"><a xlink:href="../../d3/d46/classcv_1_1Algorithm.html" target="_top" xlink:title="This is a base class for all more or less complex algorithms in OpenCV.">
<polygon fill="white" stroke="transparent" points="110,-486 0,-486 0,-242 110,-242 110,-486"/>
<text text-anchor="start" x="22.5" y="-474" font-family="Helvetica,sans-Serif" font-size="10.00">cv::Algorithm</text>
<text text-anchor="start" x="53" y="-459" font-family="Helvetica,sans-Serif" font-size="10.00"> </text>
<text text-anchor="start" x="4" y="-444" font-family="Helvetica,sans-Serif" font-size="10.00">+</text>
<text text-anchor="start" x="17" y="-444" font-family="Helvetica,sans-Serif" font-size="10.00">Algorithm()</text>
<text text-anchor="start" x="4" y="-429" font-family="Helvetica,sans-Serif" font-size="10.00">+</text>
<text text-anchor="start" x="17" y="-429" font-family="Helvetica,sans-Serif" font-size="10.00">~Algorithm()</text>
<text text-anchor="start" x="4" y="-414" font-family="Helvetica,sans-Serif" font-size="10.00">+</text>
<text text-anchor="start" x="17" y="-414" font-family="Helvetica,sans-Serif" font-size="10.00">clear()</text>
<text text-anchor="start" x="4" y="-399" font-family="Helvetica,sans-Serif" font-size="10.00">+</text>
<text text-anchor="start" x="17" y="-399" font-family="Helvetica,sans-Serif" font-size="10.00">empty()</text>
<text text-anchor="start" x="4" y="-384" font-family="Helvetica,sans-Serif" font-size="10.00">+</text>
<text text-anchor="start" x="17" y="-384" font-family="Helvetica,sans-Serif" font-size="10.00">getDefaultName()</text>
<text text-anchor="start" x="4" y="-369" font-family="Helvetica,sans-Serif" font-size="10.00">+</text>
<text text-anchor="start" x="17" y="-369" font-family="Helvetica,sans-Serif" font-size="10.00">read()</text>
<text text-anchor="start" x="4" y="-354" font-family="Helvetica,sans-Serif" font-size="10.00">+</text>
<text text-anchor="start" x="17" y="-354" font-family="Helvetica,sans-Serif" font-size="10.00">save()</text>
<text text-anchor="start" x="4" y="-339" font-family="Helvetica,sans-Serif" font-size="10.00">+</text>
<text text-anchor="start" x="17" y="-339" font-family="Helvetica,sans-Serif" font-size="10.00">write()</text>
<text text-anchor="start" x="4" y="-324" font-family="Helvetica,sans-Serif" font-size="10.00">+</text>
<text text-anchor="start" x="17" y="-324" font-family="Helvetica,sans-Serif" font-size="10.00">write()</text>
<text text-anchor="start" x="4" y="-309" font-family="Helvetica,sans-Serif" font-size="10.00">+</text>
<text text-anchor="start" x="17" y="-309" font-family="Helvetica,sans-Serif" font-size="10.00">write()</text>
<text text-anchor="start" x="4" y="-294" font-family="Helvetica,sans-Serif" font-size="10.00">+</text>
<text text-anchor="start" x="17" y="-294" font-family="Helvetica,sans-Serif" font-size="10.00">load()</text>
<text text-anchor="start" x="4" y="-279" font-family="Helvetica,sans-Serif" font-size="10.00">+</text>
<text text-anchor="start" x="17" y="-279" font-family="Helvetica,sans-Serif" font-size="10.00">loadFromString()</text>
<text text-anchor="start" x="4" y="-264" font-family="Helvetica,sans-Serif" font-size="10.00">+</text>
<text text-anchor="start" x="17" y="-264" font-family="Helvetica,sans-Serif" font-size="10.00">read()</text>
<text text-anchor="start" x="4" y="-249" font-family="Helvetica,sans-Serif" font-size="10.00">#</text>
<text text-anchor="start" x="17" y="-249" font-family="Helvetica,sans-Serif" font-size="10.00">writeFormat()</text>
<polygon fill="#666666" stroke="#666666" points="0,-469 0,-469 110,-469 110,-469 0,-469"/>
<polygon fill="#666666" stroke="#666666" points="0,-454 0,-454 110,-454 110,-454 0,-454"/>
<polygon fill="none" stroke="#666666" points="0,-242 0,-486 110,-486 110,-242 0,-242"/>
</a>
</g>
</g>
<!-- Node3&#45;&gt;Node2 -->
<g id="edge2_Node000002_Node000003" class="edge">
<title>Node3&#45;&gt;Node2</title>
<g id="a_edge2_Node000002_Node000003"><a xlink:title=" ">
<path fill="none" stroke="#63b8ff" d="M94.11,-232.24C98.05,-219.04 101.85,-206.35 105.23,-195.03"/>
<polygon fill="none" stroke="#63b8ff" points="90.72,-231.35 91.21,-241.93 97.43,-233.35 90.72,-231.35"/>
</a>
</g>
</g>
<!-- Node4 -->
<g id="Node000004" class="node">
<title>Node4</title>
<g id="a_Node000004"><a xlink:title=" ">
<polygon fill="white" stroke="transparent" points="240,-388.5 128,-388.5 128,-339.5 240,-339.5 240,-388.5"/>
<text text-anchor="start" x="133" y="-376" font-family="Helvetica,sans-Serif" font-size="10.00">Ptr&lt; ImgHashImpl &gt;</text>
<text text-anchor="start" x="182" y="-361" font-family="Helvetica,sans-Serif" font-size="10.00"> </text>
<text text-anchor="start" x="182" y="-346" font-family="Helvetica,sans-Serif" font-size="10.00"> </text>
<polygon fill="#666666" stroke="#666666" points="128,-371 128,-371 240,-371 240,-371 128,-371"/>
<polygon fill="#666666" stroke="#666666" points="128,-356 128,-356 240,-356 240,-356 128,-356"/>
<polygon fill="none" stroke="#666666" points="128,-339.5 128,-388.5 240,-388.5 240,-339.5 128,-339.5"/>
</a>
</g>
</g>
<!-- Node4&#45;&gt;Node2 -->
<g id="edge3_Node000002_Node000004" class="edge">
<title>Node4&#45;&gt;Node2</title>
<g id="a_edge3_Node000002_Node000004"><a xlink:title=" ">
<path fill="none" stroke="#63b8ff" d="M176.8,-339.28C167.17,-307.58 149.79,-250.36 136.59,-206.92"/>
<polygon fill="none" stroke="#63b8ff" points="136.57,-206.83 130.99,-202.25 133.08,-195.35 138.65,-199.93 136.57,-206.83"/>
</a>
</g>
<text text-anchor="middle" x="161" y="-216" font-family="Helvetica,sans-Serif" font-size="10.00" fill="grey"> #pImpl</text>
</g>
</g>
</svg>
