<?xml version="1.0" encoding="UTF-8" standalone="no"?>
<!DOCTYPE svg PUBLIC "-//W3C//DTD SVG 1.1//EN"
 "http://www.w3.org/Graphics/SVG/1.1/DTD/svg11.dtd">
<!-- Generated by graphviz version 2.43.0 (0)
 -->
<!-- Title: cv::Mat Pages: 1 -->
<svg width="910pt" height="1171pt"
 viewBox="0.00 0.00 910.34 1171.00" xmlns="http://www.w3.org/2000/svg" xmlns:xlink="http://www.w3.org/1999/xlink">
<g id="graph0" class="graph" transform="scale(1 1) rotate(0) translate(4 1167)">
<title>cv::Mat</title>
<!-- Node1 -->
<g id="Node000001" class="node">
<title>Node1</title>
<g id="a_Node000001"><a xlink:title="n&#45;dimensional dense array class">
<polygon fill="#999999" stroke="transparent" points="420.84,-394 296.84,-394 296.84,0 420.84,0 420.84,-394"/>
<text text-anchor="start" x="340.84" y="-382" font-family="Helvetica,sans-Serif" font-size="10.00">cv::Mat</text>
<text text-anchor="start" x="356.84" y="-367" font-family="Helvetica,sans-Serif" font-size="10.00"> </text>
<text text-anchor="start" x="300.84" y="-352" font-family="Helvetica,sans-Serif" font-size="10.00">+</text>
<text text-anchor="start" x="313.84" y="-352" font-family="Helvetica,sans-Serif" font-size="10.00">Mat()</text>
<text text-anchor="start" x="300.84" y="-337" font-family="Helvetica,sans-Serif" font-size="10.00">+</text>
<text text-anchor="start" x="313.84" y="-337" font-family="Helvetica,sans-Serif" font-size="10.00">Mat()</text>
<text text-anchor="start" x="300.84" y="-322" font-family="Helvetica,sans-Serif" font-size="10.00">+</text>
<text text-anchor="start" x="313.84" y="-322" font-family="Helvetica,sans-Serif" font-size="10.00">Mat()</text>
<text text-anchor="start" x="300.84" y="-307" font-family="Helvetica,sans-Serif" font-size="10.00">+</text>
<text text-anchor="start" x="313.84" y="-307" font-family="Helvetica,sans-Serif" font-size="10.00">Mat()</text>
<text text-anchor="start" x="300.84" y="-292" font-family="Helvetica,sans-Serif" font-size="10.00">+</text>
<text text-anchor="start" x="313.84" y="-292" font-family="Helvetica,sans-Serif" font-size="10.00">Mat()</text>
<text text-anchor="start" x="300.84" y="-277" font-family="Helvetica,sans-Serif" font-size="10.00">+</text>
<text text-anchor="start" x="313.84" y="-277" font-family="Helvetica,sans-Serif" font-size="10.00">Mat()</text>
<text text-anchor="start" x="300.84" y="-262" font-family="Helvetica,sans-Serif" font-size="10.00">+</text>
<text text-anchor="start" x="313.84" y="-262" font-family="Helvetica,sans-Serif" font-size="10.00">Mat()</text>
<text text-anchor="start" x="300.84" y="-247" font-family="Helvetica,sans-Serif" font-size="10.00">+</text>
<text text-anchor="start" x="313.84" y="-247" font-family="Helvetica,sans-Serif" font-size="10.00">Mat()</text>
<text text-anchor="start" x="300.84" y="-232" font-family="Helvetica,sans-Serif" font-size="10.00">+</text>
<text text-anchor="start" x="313.84" y="-232" font-family="Helvetica,sans-Serif" font-size="10.00">Mat()</text>
<text text-anchor="start" x="300.84" y="-217" font-family="Helvetica,sans-Serif" font-size="10.00">+</text>
<text text-anchor="start" x="313.84" y="-217" font-family="Helvetica,sans-Serif" font-size="10.00">Mat()</text>
<text text-anchor="start" x="313.84" y="-202" font-family="Helvetica,sans-Serif" font-size="10.00">and 129 more...</text>
<text text-anchor="start" x="300.84" y="-187" font-family="Helvetica,sans-Serif" font-size="10.00">+</text>
<text text-anchor="start" x="313.84" y="-187" font-family="Helvetica,sans-Serif" font-size="10.00">diag()</text>
<text text-anchor="start" x="300.84" y="-172" font-family="Helvetica,sans-Serif" font-size="10.00">+</text>
<text text-anchor="start" x="313.84" y="-172" font-family="Helvetica,sans-Serif" font-size="10.00">eye()</text>
<text text-anchor="start" x="300.84" y="-157" font-family="Helvetica,sans-Serif" font-size="10.00">+</text>
<text text-anchor="start" x="313.84" y="-157" font-family="Helvetica,sans-Serif" font-size="10.00">eye()</text>
<text text-anchor="start" x="300.84" y="-142" font-family="Helvetica,sans-Serif" font-size="10.00">+</text>
<text text-anchor="start" x="313.84" y="-142" font-family="Helvetica,sans-Serif" font-size="10.00">getDefaultAllocator()</text>
<text text-anchor="start" x="300.84" y="-127" font-family="Helvetica,sans-Serif" font-size="10.00">+</text>
<text text-anchor="start" x="313.84" y="-127" font-family="Helvetica,sans-Serif" font-size="10.00">getStdAllocator()</text>
<text text-anchor="start" x="300.84" y="-112" font-family="Helvetica,sans-Serif" font-size="10.00">+</text>
<text text-anchor="start" x="313.84" y="-112" font-family="Helvetica,sans-Serif" font-size="10.00">ones()</text>
<text text-anchor="start" x="300.84" y="-97" font-family="Helvetica,sans-Serif" font-size="10.00">+</text>
<text text-anchor="start" x="313.84" y="-97" font-family="Helvetica,sans-Serif" font-size="10.00">ones()</text>
<text text-anchor="start" x="300.84" y="-82" font-family="Helvetica,sans-Serif" font-size="10.00">+</text>
<text text-anchor="start" x="313.84" y="-82" font-family="Helvetica,sans-Serif" font-size="10.00">ones()</text>
<text text-anchor="start" x="300.84" y="-67" font-family="Helvetica,sans-Serif" font-size="10.00">+</text>
<text text-anchor="start" x="313.84" y="-67" font-family="Helvetica,sans-Serif" font-size="10.00">setDefaultAllocator()</text>
<text text-anchor="start" x="300.84" y="-52" font-family="Helvetica,sans-Serif" font-size="10.00">+</text>
<text text-anchor="start" x="313.84" y="-52" font-family="Helvetica,sans-Serif" font-size="10.00">zeros()</text>
<text text-anchor="start" x="300.84" y="-37" font-family="Helvetica,sans-Serif" font-size="10.00">+</text>
<text text-anchor="start" x="313.84" y="-37" font-family="Helvetica,sans-Serif" font-size="10.00">zeros()</text>
<text text-anchor="start" x="300.84" y="-22" font-family="Helvetica,sans-Serif" font-size="10.00">+</text>
<text text-anchor="start" x="313.84" y="-22" font-family="Helvetica,sans-Serif" font-size="10.00">zeros()</text>
<text text-anchor="start" x="300.84" y="-7" font-family="Helvetica,sans-Serif" font-size="10.00">#</text>
<text text-anchor="start" x="313.84" y="-7" font-family="Helvetica,sans-Serif" font-size="10.00">forEach_impl()</text>
<polygon fill="#666666" stroke="#666666" points="296.84,-377 296.84,-377 420.84,-377 420.84,-377 296.84,-377"/>
<polygon fill="#666666" stroke="#666666" points="296.84,-362 296.84,-362 420.84,-362 420.84,-362 296.84,-362"/>
<polygon fill="none" stroke="#666666" points="296.84,0 296.84,-394 420.84,-394 420.84,0 296.84,0"/>
</a>
</g>
</g>
<!-- Node2 -->
<g id="Node000002" class="node">
<title>Node2</title>
<g id="a_Node000002"><a xlink:title=" ">
<polygon fill="white" stroke="transparent" points="65.34,-896 42.34,-896 42.34,-847 65.34,-847 65.34,-896"/>
<text text-anchor="start" x="47.84" y="-883.5" font-family="Helvetica,sans-Serif" font-size="10.00">int</text>
<text text-anchor="start" x="52.34" y="-868.5" font-family="Helvetica,sans-Serif" font-size="10.00"> </text>
<text text-anchor="start" x="52.34" y="-853.5" font-family="Helvetica,sans-Serif" font-size="10.00"> </text>
<polygon fill="#666666" stroke="#666666" points="42.84,-878.5 42.84,-878.5 65.84,-878.5 65.84,-878.5 42.84,-878.5"/>
<polygon fill="#666666" stroke="#666666" points="42.84,-863.5 42.84,-863.5 65.84,-863.5 65.84,-863.5 42.84,-863.5"/>
<polygon fill="none" stroke="#666666" points="42.34,-847 42.34,-896 65.34,-896 65.34,-847 42.34,-847"/>
</a>
</g>
</g>
<!-- Node2&#45;&gt;Node1 -->
<g id="edge1_Node000001_Node000002" class="edge">
<title>Node2&#45;&gt;Node1</title>
<g id="a_edge1_Node000001_Node000002"><a xlink:title=" ">
<path fill="none" stroke="#63b8ff" d="M44.92,-846.92C21.82,-781.88 -33.79,-595.97 29.84,-463 82.61,-352.74 206.11,-273.73 285.88,-232.01"/>
<polygon fill="none" stroke="#63b8ff" points="286.17,-231.86 289.67,-225.56 296.84,-226.37 293.33,-232.68 286.17,-231.86"/>
</a>
</g>
<text text-anchor="middle" x="46.34" y="-591.5" font-family="Helvetica,sans-Serif" font-size="10.00" fill="grey"> +cols</text>
<text text-anchor="middle" x="46.34" y="-580.5" font-family="Helvetica,sans-Serif" font-size="10.00" fill="grey">+dims</text>
<text text-anchor="middle" x="46.34" y="-569.5" font-family="Helvetica,sans-Serif" font-size="10.00" fill="grey">+flags</text>
<text text-anchor="middle" x="46.34" y="-558.5" font-family="Helvetica,sans-Serif" font-size="10.00" fill="grey">+rows</text>
</g>
<!-- Node6 -->
<g id="Node000006" class="node">
<title>Node6</title>
<g id="a_Node000006"><a xlink:href="../../db/d58/structcv_1_1UMatData.html" target="_top" xlink:title=" ">
<polygon fill="white" stroke="transparent" points="437.34,-692 280.34,-692 280.34,-463 437.34,-463 437.34,-692"/>
<text text-anchor="start" x="325.84" y="-679.5" font-family="Helvetica,sans-Serif" font-size="10.00">cv::UMatData</text>
<text text-anchor="start" x="357.34" y="-664.5" font-family="Helvetica,sans-Serif" font-size="10.00"> </text>
<text text-anchor="start" x="284.84" y="-649.5" font-family="Helvetica,sans-Serif" font-size="10.00">+</text>
<text text-anchor="start" x="297.84" y="-649.5" font-family="Helvetica,sans-Serif" font-size="10.00">UMatData()</text>
<text text-anchor="start" x="284.84" y="-634.5" font-family="Helvetica,sans-Serif" font-size="10.00">+</text>
<text text-anchor="start" x="297.84" y="-634.5" font-family="Helvetica,sans-Serif" font-size="10.00">~UMatData()</text>
<text text-anchor="start" x="284.84" y="-619.5" font-family="Helvetica,sans-Serif" font-size="10.00">+</text>
<text text-anchor="start" x="297.84" y="-619.5" font-family="Helvetica,sans-Serif" font-size="10.00">copyOnMap()</text>
<text text-anchor="start" x="284.84" y="-604.5" font-family="Helvetica,sans-Serif" font-size="10.00">+</text>
<text text-anchor="start" x="297.84" y="-604.5" font-family="Helvetica,sans-Serif" font-size="10.00">deviceCopyObsolete()</text>
<text text-anchor="start" x="284.84" y="-589.5" font-family="Helvetica,sans-Serif" font-size="10.00">+</text>
<text text-anchor="start" x="297.84" y="-589.5" font-family="Helvetica,sans-Serif" font-size="10.00">deviceMemMapped()</text>
<text text-anchor="start" x="284.84" y="-574.5" font-family="Helvetica,sans-Serif" font-size="10.00">+</text>
<text text-anchor="start" x="297.84" y="-574.5" font-family="Helvetica,sans-Serif" font-size="10.00">hostCopyObsolete()</text>
<text text-anchor="start" x="284.84" y="-559.5" font-family="Helvetica,sans-Serif" font-size="10.00">+</text>
<text text-anchor="start" x="297.84" y="-559.5" font-family="Helvetica,sans-Serif" font-size="10.00">lock()</text>
<text text-anchor="start" x="284.84" y="-544.5" font-family="Helvetica,sans-Serif" font-size="10.00">+</text>
<text text-anchor="start" x="297.84" y="-544.5" font-family="Helvetica,sans-Serif" font-size="10.00">markDeviceCopyObsolete()</text>
<text text-anchor="start" x="284.84" y="-529.5" font-family="Helvetica,sans-Serif" font-size="10.00">+</text>
<text text-anchor="start" x="297.84" y="-529.5" font-family="Helvetica,sans-Serif" font-size="10.00">markDeviceMemMapped()</text>
<text text-anchor="start" x="284.84" y="-514.5" font-family="Helvetica,sans-Serif" font-size="10.00">+</text>
<text text-anchor="start" x="297.84" y="-514.5" font-family="Helvetica,sans-Serif" font-size="10.00">markHostCopyObsolete()</text>
<text text-anchor="start" x="284.84" y="-499.5" font-family="Helvetica,sans-Serif" font-size="10.00">+</text>
<text text-anchor="start" x="297.84" y="-499.5" font-family="Helvetica,sans-Serif" font-size="10.00">tempCopiedUMat()</text>
<text text-anchor="start" x="284.84" y="-484.5" font-family="Helvetica,sans-Serif" font-size="10.00">+</text>
<text text-anchor="start" x="297.84" y="-484.5" font-family="Helvetica,sans-Serif" font-size="10.00">tempUMat()</text>
<text text-anchor="start" x="284.84" y="-469.5" font-family="Helvetica,sans-Serif" font-size="10.00">+</text>
<text text-anchor="start" x="297.84" y="-469.5" font-family="Helvetica,sans-Serif" font-size="10.00">unlock()</text>
<polygon fill="#666666" stroke="#666666" points="280.84,-674.5 280.84,-674.5 437.84,-674.5 437.84,-674.5 280.84,-674.5"/>
<polygon fill="#666666" stroke="#666666" points="280.84,-659.5 280.84,-659.5 437.84,-659.5 437.84,-659.5 280.84,-659.5"/>
<polygon fill="none" stroke="#666666" points="280.34,-463 280.34,-692 437.34,-692 437.34,-463 280.34,-463"/>
</a>
</g>
</g>
<!-- Node2&#45;&gt;Node6 -->
<g id="edge7_Node000006_Node000002" class="edge">
<title>Node2&#45;&gt;Node6</title>
<g id="a_edge7_Node000006_Node000002"><a xlink:title=" ">
<path fill="none" stroke="#63b8ff" d="M60.81,-846.92C72.6,-811.33 100,-744.42 147.84,-710 179.54,-687.19 199.06,-709.75 233.84,-692 246.49,-685.55 258.83,-677.47 270.52,-668.62"/>
<polygon fill="none" stroke="#63b8ff" points="270.74,-668.44 272.99,-661.59 280.18,-661.02 277.93,-667.88 270.74,-668.44"/>
</a>
</g>
<text text-anchor="middle" x="190.84" y="-746" font-family="Helvetica,sans-Serif" font-size="10.00" fill="grey"> +allocatorFlags_</text>
<text text-anchor="middle" x="190.84" y="-735" font-family="Helvetica,sans-Serif" font-size="10.00" fill="grey">+mapcount</text>
<text text-anchor="middle" x="190.84" y="-724" font-family="Helvetica,sans-Serif" font-size="10.00" fill="grey">+refcount</text>
<text text-anchor="middle" x="190.84" y="-713" font-family="Helvetica,sans-Serif" font-size="10.00" fill="grey">+urefcount</text>
</g>
<!-- Node14 -->
<g id="Node000014" class="node">
<title>Node14</title>
<g id="a_Node000014"><a xlink:href="../../df/d63/structcv_1_1MatSize.html" target="_top" xlink:title=" ">
<polygon fill="white" stroke="transparent" points="159.34,-647 72.34,-647 72.34,-508 159.34,-508 159.34,-647"/>
<text text-anchor="start" x="88.34" y="-634.5" font-family="Helvetica,sans-Serif" font-size="10.00">cv::MatSize</text>
<text text-anchor="start" x="114.34" y="-619.5" font-family="Helvetica,sans-Serif" font-size="10.00"> </text>
<text text-anchor="start" x="76.84" y="-604.5" font-family="Helvetica,sans-Serif" font-size="10.00">+</text>
<text text-anchor="start" x="89.84" y="-604.5" font-family="Helvetica,sans-Serif" font-size="10.00">MatSize()</text>
<text text-anchor="start" x="76.84" y="-589.5" font-family="Helvetica,sans-Serif" font-size="10.00">+</text>
<text text-anchor="start" x="89.84" y="-589.5" font-family="Helvetica,sans-Serif" font-size="10.00">dims()</text>
<text text-anchor="start" x="76.84" y="-574.5" font-family="Helvetica,sans-Serif" font-size="10.00">+</text>
<text text-anchor="start" x="89.84" y="-574.5" font-family="Helvetica,sans-Serif" font-size="10.00">operator!=()</text>
<text text-anchor="start" x="76.84" y="-559.5" font-family="Helvetica,sans-Serif" font-size="10.00">+</text>
<text text-anchor="start" x="89.84" y="-559.5" font-family="Helvetica,sans-Serif" font-size="10.00">operator()()</text>
<text text-anchor="start" x="76.84" y="-544.5" font-family="Helvetica,sans-Serif" font-size="10.00">+</text>
<text text-anchor="start" x="89.84" y="-544.5" font-family="Helvetica,sans-Serif" font-size="10.00">operator==()</text>
<text text-anchor="start" x="76.84" y="-529.5" font-family="Helvetica,sans-Serif" font-size="10.00">+</text>
<text text-anchor="start" x="89.84" y="-529.5" font-family="Helvetica,sans-Serif" font-size="10.00">operator[]()</text>
<text text-anchor="start" x="76.84" y="-514.5" font-family="Helvetica,sans-Serif" font-size="10.00">+</text>
<text text-anchor="start" x="89.84" y="-514.5" font-family="Helvetica,sans-Serif" font-size="10.00">operator[]()</text>
<polygon fill="#666666" stroke="#666666" points="72.84,-629.5 72.84,-629.5 159.84,-629.5 159.84,-629.5 72.84,-629.5"/>
<polygon fill="#666666" stroke="#666666" points="72.84,-614.5 72.84,-614.5 159.84,-614.5 159.84,-614.5 72.84,-614.5"/>
<polygon fill="none" stroke="#666666" points="72.34,-508 72.34,-647 159.34,-647 159.34,-508 72.34,-508"/>
</a>
</g>
</g>
<!-- Node2&#45;&gt;Node14 -->
<g id="edge18_Node000014_Node000002" class="edge">
<title>Node2&#45;&gt;Node14</title>
<g id="a_edge18_Node000014_Node000002"><a xlink:title=" ">
<path fill="none" stroke="#63b8ff" d="M50.88,-846.76C47.63,-815.11 44.19,-757.59 54.84,-710 58.71,-692.74 65.05,-675.05 72.21,-658.46"/>
<polygon fill="none" stroke="#63b8ff" points="72.37,-658.11 71.18,-651 77.28,-647.17 78.47,-654.28 72.37,-658.11"/>
</a>
</g>
<text text-anchor="middle" x="63.84" y="-729.5" font-family="Helvetica,sans-Serif" font-size="10.00" fill="grey"> +p</text>
</g>
<!-- Node3 -->
<g id="Node000003" class="node">
<title>Node3</title>
<g id="a_Node000003"><a xlink:title=" ">
<polygon fill="white" stroke="transparent" points="224.84,-896 178.84,-896 178.84,-847 224.84,-847 224.84,-896"/>
<text text-anchor="start" x="183.84" y="-883.5" font-family="Helvetica,sans-Serif" font-size="10.00">uchar *</text>
<text text-anchor="start" x="199.84" y="-868.5" font-family="Helvetica,sans-Serif" font-size="10.00"> </text>
<text text-anchor="start" x="199.84" y="-853.5" font-family="Helvetica,sans-Serif" font-size="10.00"> </text>
<polygon fill="#666666" stroke="#666666" points="178.84,-878.5 178.84,-878.5 224.84,-878.5 224.84,-878.5 178.84,-878.5"/>
<polygon fill="#666666" stroke="#666666" points="178.84,-863.5 178.84,-863.5 224.84,-863.5 224.84,-863.5 178.84,-863.5"/>
<polygon fill="none" stroke="#666666" points="178.84,-847 178.84,-896 224.84,-896 224.84,-847 178.84,-847"/>
</a>
</g>
</g>
<!-- Node3&#45;&gt;Node1 -->
<g id="edge2_Node000001_Node000003" class="edge">
<title>Node3&#45;&gt;Node1</title>
<g id="a_edge2_Node000001_Node000003"><a xlink:title=" ">
<path fill="none" stroke="#63b8ff" d="M201.06,-846.58C199.57,-782.97 199.35,-604.76 236.84,-463 249.56,-414.93 270.46,-364.75 291.41,-321.15"/>
<polygon fill="none" stroke="#63b8ff" points="291.48,-321.01 290.51,-313.86 296.73,-310.22 297.7,-317.36 291.48,-321.01"/>
</a>
</g>
<text text-anchor="middle" x="253.84" y="-575" font-family="Helvetica,sans-Serif" font-size="10.00" fill="grey"> +data</text>
</g>
<!-- Node3&#45;&gt;Node6 -->
<g id="edge8_Node000006_Node000003" class="edge">
<title>Node3&#45;&gt;Node6</title>
<g id="a_edge8_Node000006_Node000003"><a xlink:title=" ">
<path fill="none" stroke="#63b8ff" d="M207.32,-846.91C215.36,-814.71 232.15,-755.75 256.84,-710 261.83,-700.76 267.45,-691.5 273.43,-682.4"/>
<polygon fill="none" stroke="#63b8ff" points="273.6,-682.16 273.65,-674.94 280.32,-672.22 280.28,-679.43 273.6,-682.16"/>
</a>
</g>
<text text-anchor="middle" x="281.34" y="-735" font-family="Helvetica,sans-Serif" font-size="10.00" fill="grey"> +data</text>
<text text-anchor="middle" x="281.34" y="-724" font-family="Helvetica,sans-Serif" font-size="10.00" fill="grey">+origdata</text>
</g>
<!-- Node4 -->
<g id="Node000004" class="node">
<title>Node4</title>
<g id="a_Node000004"><a xlink:title=" ">
<polygon fill="white" stroke="transparent" points="902.34,-602 827.34,-602 827.34,-553 902.34,-553 902.34,-602"/>
<text text-anchor="start" x="832.84" y="-589.5" font-family="Helvetica,sans-Serif" font-size="10.00">const uchar *</text>
<text text-anchor="start" x="863.34" y="-574.5" font-family="Helvetica,sans-Serif" font-size="10.00"> </text>
<text text-anchor="start" x="863.34" y="-559.5" font-family="Helvetica,sans-Serif" font-size="10.00"> </text>
<polygon fill="#666666" stroke="#666666" points="827.84,-584.5 827.84,-584.5 902.84,-584.5 902.84,-584.5 827.84,-584.5"/>
<polygon fill="#666666" stroke="#666666" points="827.84,-569.5 827.84,-569.5 902.84,-569.5 902.84,-569.5 827.84,-569.5"/>
<polygon fill="none" stroke="#666666" points="827.34,-553 827.34,-602 902.34,-602 902.34,-553 827.34,-553"/>
</a>
</g>
</g>
<!-- Node4&#45;&gt;Node1 -->
<g id="edge3_Node000001_Node000004" class="edge">
<title>Node4&#45;&gt;Node1</title>
<g id="a_edge3_Node000001_Node000004"><a xlink:title=" ">
<path fill="none" stroke="#63b8ff" d="M859.81,-552.79C853.55,-528 840.76,-489.14 817.84,-463 710.47,-340.55 532.16,-260.75 432.33,-223.15"/>
<polygon fill="none" stroke="#63b8ff" points="432.1,-223.07 425.08,-224.73 420.85,-218.89 427.87,-217.23 432.1,-223.07"/>
</a>
</g>
<text text-anchor="middle" x="824.34" y="-437" font-family="Helvetica,sans-Serif" font-size="10.00" fill="grey"> +dataend</text>
<text text-anchor="middle" x="824.34" y="-426" font-family="Helvetica,sans-Serif" font-size="10.00" fill="grey">+datalimit</text>
<text text-anchor="middle" x="824.34" y="-415" font-family="Helvetica,sans-Serif" font-size="10.00" fill="grey">+datastart</text>
</g>
<!-- Node5 -->
<g id="Node000005" class="node">
<title>Node5</title>
<g id="a_Node000005"><a xlink:href="../../df/d4c/classcv_1_1MatAllocator.html" target="_top" xlink:title="Custom array allocator.">
<polygon fill="white" stroke="transparent" points="686.34,-971 543.34,-971 543.34,-772 686.34,-772 686.34,-971"/>
<text text-anchor="start" x="575.84" y="-958.5" font-family="Helvetica,sans-Serif" font-size="10.00">cv::MatAllocator</text>
<text text-anchor="start" x="613.34" y="-943.5" font-family="Helvetica,sans-Serif" font-size="10.00"> </text>
<text text-anchor="start" x="547.84" y="-928.5" font-family="Helvetica,sans-Serif" font-size="10.00">+</text>
<text text-anchor="start" x="560.84" y="-928.5" font-family="Helvetica,sans-Serif" font-size="10.00">MatAllocator()</text>
<text text-anchor="start" x="547.84" y="-913.5" font-family="Helvetica,sans-Serif" font-size="10.00">+</text>
<text text-anchor="start" x="560.84" y="-913.5" font-family="Helvetica,sans-Serif" font-size="10.00">~MatAllocator()</text>
<text text-anchor="start" x="547.84" y="-898.5" font-family="Helvetica,sans-Serif" font-size="10.00">+</text>
<text text-anchor="start" x="560.84" y="-898.5" font-family="Helvetica,sans-Serif" font-size="10.00">allocate()</text>
<text text-anchor="start" x="547.84" y="-883.5" font-family="Helvetica,sans-Serif" font-size="10.00">+</text>
<text text-anchor="start" x="560.84" y="-883.5" font-family="Helvetica,sans-Serif" font-size="10.00">allocate()</text>
<text text-anchor="start" x="547.84" y="-868.5" font-family="Helvetica,sans-Serif" font-size="10.00">+</text>
<text text-anchor="start" x="560.84" y="-868.5" font-family="Helvetica,sans-Serif" font-size="10.00">copy()</text>
<text text-anchor="start" x="547.84" y="-853.5" font-family="Helvetica,sans-Serif" font-size="10.00">+</text>
<text text-anchor="start" x="560.84" y="-853.5" font-family="Helvetica,sans-Serif" font-size="10.00">deallocate()</text>
<text text-anchor="start" x="547.84" y="-838.5" font-family="Helvetica,sans-Serif" font-size="10.00">+</text>
<text text-anchor="start" x="560.84" y="-838.5" font-family="Helvetica,sans-Serif" font-size="10.00">download()</text>
<text text-anchor="start" x="547.84" y="-823.5" font-family="Helvetica,sans-Serif" font-size="10.00">+</text>
<text text-anchor="start" x="560.84" y="-823.5" font-family="Helvetica,sans-Serif" font-size="10.00">getBufferPoolController()</text>
<text text-anchor="start" x="547.84" y="-808.5" font-family="Helvetica,sans-Serif" font-size="10.00">+</text>
<text text-anchor="start" x="560.84" y="-808.5" font-family="Helvetica,sans-Serif" font-size="10.00">map()</text>
<text text-anchor="start" x="547.84" y="-793.5" font-family="Helvetica,sans-Serif" font-size="10.00">+</text>
<text text-anchor="start" x="560.84" y="-793.5" font-family="Helvetica,sans-Serif" font-size="10.00">unmap()</text>
<text text-anchor="start" x="547.84" y="-778.5" font-family="Helvetica,sans-Serif" font-size="10.00">+</text>
<text text-anchor="start" x="560.84" y="-778.5" font-family="Helvetica,sans-Serif" font-size="10.00">upload()</text>
<polygon fill="#666666" stroke="#666666" points="543.84,-953.5 543.84,-953.5 686.84,-953.5 686.84,-953.5 543.84,-953.5"/>
<polygon fill="#666666" stroke="#666666" points="543.84,-938.5 543.84,-938.5 686.84,-938.5 686.84,-938.5 543.84,-938.5"/>
<polygon fill="none" stroke="#666666" points="543.34,-772 543.34,-971 686.34,-971 686.34,-772 543.34,-772"/>
</a>
</g>
</g>
<!-- Node5&#45;&gt;Node1 -->
<g id="edge4_Node000001_Node000005" class="edge">
<title>Node5&#45;&gt;Node1</title>
<g id="a_edge4_Node000001_Node000005"><a xlink:title=" ">
<path fill="none" stroke="#63b8ff" d="M623.91,-771.7C624.28,-765.72 624.59,-759.78 624.84,-754 630.51,-621.79 619.6,-582.06 561.84,-463 527.67,-392.56 473.03,-322.67 429.04,-272.36"/>
<polygon fill="none" stroke="#63b8ff" points="428.9,-272.2 421.93,-270.35 420.96,-263.2 427.93,-265.05 428.9,-272.2"/>
</a>
</g>
<text text-anchor="middle" x="654.34" y="-575" font-family="Helvetica,sans-Serif" font-size="10.00" fill="grey"> +allocator</text>
</g>
<!-- Node5&#45;&gt;Node6 -->
<g id="edge6_Node000006_Node000005" class="edge">
<title>Node5&#45;&gt;Node6</title>
<g id="a_edge6_Node000006_Node000005"><a xlink:title=" ">
<path fill="none" stroke="#63b8ff" d="M560.94,-772C544.37,-742.43 529.09,-716.15 523.84,-710 501.7,-684.08 473.85,-659.62 447.37,-638.99"/>
<polygon fill="none" stroke="#63b8ff" points="447.21,-638.87 440.01,-638.4 437.69,-631.57 444.88,-632.05 447.21,-638.87"/>
</a>
</g>
<text text-anchor="middle" x="586.84" y="-735" font-family="Helvetica,sans-Serif" font-size="10.00" fill="grey"> +currAllocator</text>
<text text-anchor="middle" x="586.84" y="-724" font-family="Helvetica,sans-Serif" font-size="10.00" fill="grey">+prevAllocator</text>
</g>
<!-- Node6&#45;&gt;Node1 -->
<g id="edge5_Node000001_Node000006" class="edge">
<title>Node6&#45;&gt;Node1</title>
<g id="a_edge5_Node000001_Node000006"><a xlink:title=" ">
<path fill="none" stroke="#63b8ff" d="M358.84,-462.94C358.84,-444.9 358.84,-425.77 358.84,-406.37"/>
<polygon fill="none" stroke="#63b8ff" points="358.84,-406.27 354.84,-400.27 358.84,-394.27 362.84,-400.27 358.84,-406.27"/>
</a>
</g>
<text text-anchor="middle" x="367.84" y="-426" font-family="Helvetica,sans-Serif" font-size="10.00" fill="grey"> +u</text>
</g>
<!-- Node6&#45;&gt;Node6 -->
<g id="edge12_Node000006_Node000006" class="edge">
<title>Node6&#45;&gt;Node6</title>
<g id="a_edge12_Node000006_Node000006"><a xlink:title=" ">
<path fill="none" stroke="#63b8ff" d="M437.6,-602.12C448.25,-597.99 455.34,-589.79 455.34,-577.5 455.34,-569.82 452.57,-563.74 447.89,-559.25"/>
<polygon fill="none" stroke="#63b8ff" points="447.8,-559.19 440.6,-559.44 437.6,-552.88 444.8,-552.63 447.8,-559.19"/>
</a>
</g>
<text text-anchor="middle" x="504.34" y="-575" font-family="Helvetica,sans-Serif" font-size="10.00" fill="grey"> +originalUMatData</text>
</g>
<!-- Node7 -->
<g id="Node000007" class="node">
<title>Node7</title>
<g id="a_Node000007"><a xlink:title=" ">
<polygon fill="white" stroke="transparent" points="744.34,-896 705.34,-896 705.34,-847 744.34,-847 744.34,-896"/>
<text text-anchor="start" x="710.84" y="-883.5" font-family="Helvetica,sans-Serif" font-size="10.00">size_t</text>
<text text-anchor="start" x="723.34" y="-868.5" font-family="Helvetica,sans-Serif" font-size="10.00"> </text>
<text text-anchor="start" x="723.34" y="-853.5" font-family="Helvetica,sans-Serif" font-size="10.00"> </text>
<polygon fill="#666666" stroke="#666666" points="705.84,-878.5 705.84,-878.5 744.84,-878.5 744.84,-878.5 705.84,-878.5"/>
<polygon fill="#666666" stroke="#666666" points="705.84,-863.5 705.84,-863.5 744.84,-863.5 744.84,-863.5 705.84,-863.5"/>
<polygon fill="none" stroke="#666666" points="705.34,-847 705.34,-896 744.34,-896 744.34,-847 705.34,-847"/>
</a>
</g>
</g>
<!-- Node7&#45;&gt;Node6 -->
<g id="edge9_Node000006_Node000007" class="edge">
<title>Node7&#45;&gt;Node6</title>
<g id="a_edge9_Node000006_Node000007"><a xlink:title=" ">
<path fill="none" stroke="#63b8ff" d="M721.56,-846.73C717.84,-825.79 710.3,-795.12 695.84,-772 674.15,-737.33 661.67,-732.99 627.84,-710 571.65,-671.81 502.72,-638.33 448.7,-614.72"/>
<polygon fill="none" stroke="#63b8ff" points="448.42,-614.6 441.33,-615.89 437.41,-609.83 444.5,-608.54 448.42,-614.6"/>
</a>
</g>
<text text-anchor="middle" x="697.34" y="-729.5" font-family="Helvetica,sans-Serif" font-size="10.00" fill="grey"> +size</text>
</g>
<!-- Node15 -->
<g id="Node000015" class="node">
<title>Node15</title>
<g id="a_Node000015"><a xlink:href="../../d4/d26/structcv_1_1MatStep.html" target="_top" xlink:title=" ">
<polygon fill="white" stroke="transparent" points="808.84,-647 706.84,-647 706.84,-508 808.84,-508 808.84,-647"/>
<text text-anchor="start" x="728.84" y="-634.5" font-family="Helvetica,sans-Serif" font-size="10.00">cv::MatStep</text>
<text text-anchor="start" x="755.84" y="-619.5" font-family="Helvetica,sans-Serif" font-size="10.00"> </text>
<text text-anchor="start" x="710.84" y="-604.5" font-family="Helvetica,sans-Serif" font-size="10.00">+</text>
<text text-anchor="start" x="723.84" y="-604.5" font-family="Helvetica,sans-Serif" font-size="10.00">MatStep()</text>
<text text-anchor="start" x="710.84" y="-589.5" font-family="Helvetica,sans-Serif" font-size="10.00">+</text>
<text text-anchor="start" x="723.84" y="-589.5" font-family="Helvetica,sans-Serif" font-size="10.00">MatStep()</text>
<text text-anchor="start" x="710.84" y="-574.5" font-family="Helvetica,sans-Serif" font-size="10.00">+</text>
<text text-anchor="start" x="723.84" y="-574.5" font-family="Helvetica,sans-Serif" font-size="10.00">operator size_t()</text>
<text text-anchor="start" x="710.84" y="-559.5" font-family="Helvetica,sans-Serif" font-size="10.00">+</text>
<text text-anchor="start" x="723.84" y="-559.5" font-family="Helvetica,sans-Serif" font-size="10.00">operator=()</text>
<text text-anchor="start" x="710.84" y="-544.5" font-family="Helvetica,sans-Serif" font-size="10.00">+</text>
<text text-anchor="start" x="723.84" y="-544.5" font-family="Helvetica,sans-Serif" font-size="10.00">operator[]()</text>
<text text-anchor="start" x="710.84" y="-529.5" font-family="Helvetica,sans-Serif" font-size="10.00">+</text>
<text text-anchor="start" x="723.84" y="-529.5" font-family="Helvetica,sans-Serif" font-size="10.00">operator[]()</text>
<text text-anchor="start" x="710.84" y="-514.5" font-family="Helvetica,sans-Serif" font-size="10.00">#</text>
<text text-anchor="start" x="723.84" y="-514.5" font-family="Helvetica,sans-Serif" font-size="10.00">operator=()</text>
<polygon fill="#666666" stroke="#666666" points="706.84,-629.5 706.84,-629.5 808.84,-629.5 808.84,-629.5 706.84,-629.5"/>
<polygon fill="#666666" stroke="#666666" points="706.84,-614.5 706.84,-614.5 808.84,-614.5 808.84,-614.5 706.84,-614.5"/>
<polygon fill="none" stroke="#666666" points="706.84,-508 706.84,-647 808.84,-647 808.84,-508 706.84,-508"/>
</a>
</g>
</g>
<!-- Node7&#45;&gt;Node15 -->
<g id="edge20_Node000015_Node000007" class="edge">
<title>Node7&#45;&gt;Node15</title>
<g id="a_edge20_Node000015_Node000007"><a xlink:title=" ">
<path fill="none" stroke="#63b8ff" d="M727.54,-846.6C732.12,-806.1 741.6,-722.23 748.74,-659.01"/>
<polygon fill="none" stroke="#63b8ff" points="748.75,-658.98 745.44,-652.57 750.09,-647.06 753.39,-653.47 748.75,-658.98"/>
</a>
</g>
<text text-anchor="middle" x="755.84" y="-735" font-family="Helvetica,sans-Serif" font-size="10.00" fill="grey"> +buf</text>
<text text-anchor="middle" x="755.84" y="-724" font-family="Helvetica,sans-Serif" font-size="10.00" fill="grey">+p</text>
</g>
<!-- Node8 -->
<g id="Node000008" class="node">
<title>Node8</title>
<g id="a_Node000008"><a xlink:title=" ">
<polygon fill="white" stroke="transparent" points="320.84,-896 248.84,-896 248.84,-847 320.84,-847 320.84,-896"/>
<text text-anchor="start" x="253.84" y="-883.5" font-family="Helvetica,sans-Serif" font-size="10.00">MemoryFlag</text>
<text text-anchor="start" x="282.84" y="-868.5" font-family="Helvetica,sans-Serif" font-size="10.00"> </text>
<text text-anchor="start" x="282.84" y="-853.5" font-family="Helvetica,sans-Serif" font-size="10.00"> </text>
<polygon fill="#666666" stroke="#666666" points="248.84,-878.5 248.84,-878.5 320.84,-878.5 320.84,-878.5 248.84,-878.5"/>
<polygon fill="#666666" stroke="#666666" points="248.84,-863.5 248.84,-863.5 320.84,-863.5 320.84,-863.5 248.84,-863.5"/>
<polygon fill="none" stroke="#666666" points="248.84,-847 248.84,-896 320.84,-896 320.84,-847 248.84,-847"/>
</a>
</g>
</g>
<!-- Node8&#45;&gt;Node6 -->
<g id="edge10_Node000006_Node000008" class="edge">
<title>Node8&#45;&gt;Node6</title>
<g id="a_edge10_Node000006_Node000008"><a xlink:title=" ">
<path fill="none" stroke="#63b8ff" d="M289.41,-846.98C295.63,-815.59 307.42,-758.34 319.84,-710 320.36,-707.98 320.89,-705.94 321.43,-703.89"/>
<polygon fill="none" stroke="#63b8ff" points="321.5,-703.63 319.19,-696.8 324.6,-692.04 326.91,-698.87 321.5,-703.63"/>
</a>
</g>
<text text-anchor="middle" x="337.34" y="-729.5" font-family="Helvetica,sans-Serif" font-size="10.00" fill="grey"> +flags</text>
</g>
<!-- Node9 -->
<g id="Node000009" class="node">
<title>Node9</title>
<g id="a_Node000009"><a xlink:title=" ">
<polygon fill="white" stroke="transparent" points="378.84,-896 338.84,-896 338.84,-847 378.84,-847 378.84,-896"/>
<text text-anchor="start" x="343.84" y="-883.5" font-family="Helvetica,sans-Serif" font-size="10.00">void *</text>
<text text-anchor="start" x="356.84" y="-868.5" font-family="Helvetica,sans-Serif" font-size="10.00"> </text>
<text text-anchor="start" x="356.84" y="-853.5" font-family="Helvetica,sans-Serif" font-size="10.00"> </text>
<polygon fill="#666666" stroke="#666666" points="338.84,-878.5 338.84,-878.5 378.84,-878.5 378.84,-878.5 338.84,-878.5"/>
<polygon fill="#666666" stroke="#666666" points="338.84,-863.5 338.84,-863.5 378.84,-863.5 378.84,-863.5 338.84,-863.5"/>
<polygon fill="none" stroke="#666666" points="338.84,-847 338.84,-896 378.84,-896 378.84,-847 338.84,-847"/>
</a>
</g>
</g>
<!-- Node9&#45;&gt;Node6 -->
<g id="edge11_Node000006_Node000009" class="edge">
<title>Node9&#45;&gt;Node6</title>
<g id="a_edge11_Node000006_Node000009"><a xlink:title=" ">
<path fill="none" stroke="#63b8ff" d="M358.84,-846.6C358.84,-815.26 358.84,-757.94 358.84,-704.33"/>
<polygon fill="none" stroke="#63b8ff" points="358.84,-704.24 354.84,-698.24 358.84,-692.24 362.84,-698.24 358.84,-704.24"/>
</a>
</g>
<text text-anchor="middle" x="384.84" y="-735" font-family="Helvetica,sans-Serif" font-size="10.00" fill="grey"> +handle</text>
<text text-anchor="middle" x="384.84" y="-724" font-family="Helvetica,sans-Serif" font-size="10.00" fill="grey">+userdata</text>
</g>
<!-- Node10 -->
<g id="Node000010" class="node">
<title>Node10</title>
<g id="a_Node000010"><a xlink:title=" ">
<polygon fill="white" stroke="transparent" points="524.34,-896 397.34,-896 397.34,-847 524.34,-847 524.34,-896"/>
<text text-anchor="start" x="402.84" y="-883.5" font-family="Helvetica,sans-Serif" font-size="10.00">std::shared_ptr&lt; void &gt;</text>
<text text-anchor="start" x="459.34" y="-868.5" font-family="Helvetica,sans-Serif" font-size="10.00"> </text>
<text text-anchor="start" x="459.34" y="-853.5" font-family="Helvetica,sans-Serif" font-size="10.00"> </text>
<polygon fill="#666666" stroke="#666666" points="397.84,-878.5 397.84,-878.5 524.84,-878.5 524.84,-878.5 397.84,-878.5"/>
<polygon fill="#666666" stroke="#666666" points="397.84,-863.5 397.84,-863.5 524.84,-863.5 524.84,-863.5 397.84,-863.5"/>
<polygon fill="none" stroke="#666666" points="397.34,-847 397.34,-896 524.34,-896 524.34,-847 397.34,-847"/>
</a>
</g>
</g>
<!-- Node10&#45;&gt;Node6 -->
<g id="edge13_Node000006_Node000010" class="edge">
<title>Node10&#45;&gt;Node6</title>
<g id="a_edge13_Node000006_Node000010"><a xlink:title=" ">
<path fill="none" stroke="#63b8ff" d="M454.33,-846.9C445.49,-815.42 428.83,-758.07 411.84,-710 411.1,-707.91 410.35,-705.81 409.59,-703.7"/>
<polygon fill="none" stroke="#63b8ff" points="409.55,-703.58 403.73,-699.32 405.41,-692.31 411.24,-696.57 409.55,-703.58"/>
</a>
</g>
<text text-anchor="middle" x="473.34" y="-729.5" font-family="Helvetica,sans-Serif" font-size="10.00" fill="grey"> +allocatorContext</text>
</g>
<!-- Node11 -->
<g id="Node000011" class="node">
<title>Node11</title>
<g id="a_Node000011"><a xlink:title=" ">
<polygon fill="white" stroke="transparent" points="441.84,-1067 409.84,-1067 409.84,-1018 441.84,-1018 441.84,-1067"/>
<text text-anchor="start" x="414.84" y="-1054.5" font-family="Helvetica,sans-Serif" font-size="10.00">void</text>
<text text-anchor="start" x="423.84" y="-1039.5" font-family="Helvetica,sans-Serif" font-size="10.00"> </text>
<text text-anchor="start" x="423.84" y="-1024.5" font-family="Helvetica,sans-Serif" font-size="10.00"> </text>
<polygon fill="#666666" stroke="#666666" points="409.84,-1049.5 409.84,-1049.5 441.84,-1049.5 441.84,-1049.5 409.84,-1049.5"/>
<polygon fill="#666666" stroke="#666666" points="409.84,-1034.5 409.84,-1034.5 441.84,-1034.5 441.84,-1034.5 409.84,-1034.5"/>
<polygon fill="none" stroke="#666666" points="409.84,-1018 409.84,-1067 441.84,-1067 441.84,-1018 409.84,-1018"/>
</a>
</g>
</g>
<!-- Node11&#45;&gt;Node10 -->
<g id="edge14_Node000010_Node000011" class="edge">
<title>Node11&#45;&gt;Node10</title>
<g id="a_edge14_Node000010_Node000011"><a xlink:title=" ">
<path fill="none" stroke="#63b8ff" d="M430.78,-1017.64C436.7,-989.08 446.66,-940.99 453.48,-908.05"/>
<polygon fill="none" stroke="#63b8ff" points="453.49,-907.98 450.79,-901.3 455.93,-896.23 458.63,-902.92 453.49,-907.98"/>
</a>
</g>
<text text-anchor="middle" x="449.34" y="-992" font-family="Helvetica,sans-Serif" font-size="10.00" fill="grey"> +ptr</text>
</g>
<!-- Node12 -->
<g id="Node000012" class="node">
<title>Node12</title>
<g id="a_Node000012"><a xlink:title=" ">
<polygon fill="white" stroke="transparent" points="571.84,-1067 459.84,-1067 459.84,-1018 571.84,-1018 571.84,-1067"/>
<text text-anchor="start" x="464.84" y="-1054.5" font-family="Helvetica,sans-Serif" font-size="10.00">std::shared_ptr&lt; T &gt;</text>
<text text-anchor="start" x="513.84" y="-1039.5" font-family="Helvetica,sans-Serif" font-size="10.00"> </text>
<text text-anchor="start" x="471.34" y="-1024.5" font-family="Helvetica,sans-Serif" font-size="10.00">+</text>
<text text-anchor="start" x="491.84" y="-1024.5" font-family="Helvetica,sans-Serif" font-size="10.00">operator&#45;&gt;()</text>
<polygon fill="#666666" stroke="#666666" points="459.84,-1049.5 459.84,-1049.5 571.84,-1049.5 571.84,-1049.5 459.84,-1049.5"/>
<polygon fill="#666666" stroke="#666666" points="459.84,-1034.5 459.84,-1034.5 571.84,-1034.5 571.84,-1034.5 459.84,-1034.5"/>
<polygon fill="none" stroke="#666666" points="459.84,-1018 459.84,-1067 571.84,-1067 571.84,-1018 459.84,-1018"/>
</a>
</g>
</g>
<!-- Node12&#45;&gt;Node10 -->
<g id="edge15_Node000010_Node000012" class="edge">
<title>Node12&#45;&gt;Node10</title>
<g id="a_edge15_Node000010_Node000012"><a xlink:title=" ">
<path fill="none" stroke="orange" d="M504.93,-1007.97C494.19,-974.96 478.05,-925.37 468.57,-896.23"/>
<polygon fill="orange" stroke="orange" points="501.65,-1009.22 508.08,-1017.64 508.31,-1007.05 501.65,-1009.22"/>
</a>
</g>
<text text-anchor="middle" x="525.34" y="-992" font-family="Helvetica,sans-Serif" font-size="10.00" fill="grey"> &lt; void &gt;</text>
</g>
<!-- Node13 -->
<g id="Node000013" class="node">
<title>Node13</title>
<g id="a_Node000013"><a xlink:title=" ">
<polygon fill="white" stroke="transparent" points="524.34,-1163 507.34,-1163 507.34,-1114 524.34,-1114 524.34,-1163"/>
<text text-anchor="start" x="512.84" y="-1150.5" font-family="Helvetica,sans-Serif" font-size="10.00">T</text>
<text text-anchor="start" x="514.34" y="-1135.5" font-family="Helvetica,sans-Serif" font-size="10.00"> </text>
<text text-anchor="start" x="514.34" y="-1120.5" font-family="Helvetica,sans-Serif" font-size="10.00"> </text>
<polygon fill="#666666" stroke="#666666" points="507.84,-1145.5 507.84,-1145.5 524.84,-1145.5 524.84,-1145.5 507.84,-1145.5"/>
<polygon fill="#666666" stroke="#666666" points="507.84,-1130.5 507.84,-1130.5 524.84,-1130.5 524.84,-1130.5 507.84,-1130.5"/>
<polygon fill="none" stroke="#666666" points="507.34,-1114 507.34,-1163 524.34,-1163 524.34,-1114 507.34,-1114"/>
</a>
</g>
</g>
<!-- Node13&#45;&gt;Node12 -->
<g id="edge16_Node000012_Node000013" class="edge">
<title>Node13&#45;&gt;Node12</title>
<g id="a_edge16_Node000012_Node000013"><a xlink:title=" ">
<path fill="none" stroke="#63b8ff" d="M515.84,-1113.78C515.84,-1103.32 515.84,-1090.79 515.84,-1079.23"/>
<polygon fill="none" stroke="#63b8ff" points="515.84,-1079.21 511.84,-1073.21 515.84,-1067.21 519.84,-1073.21 515.84,-1079.21"/>
</a>
</g>
<text text-anchor="middle" x="528.34" y="-1088" font-family="Helvetica,sans-Serif" font-size="10.00" fill="grey"> +ptr</text>
</g>
<!-- Node14&#45;&gt;Node1 -->
<g id="edge17_Node000001_Node000014" class="edge">
<title>Node14&#45;&gt;Node1</title>
<g id="a_edge17_Node000001_Node000014"><a xlink:title=" ">
<path fill="none" stroke="#63b8ff" d="M121.73,-507.91C126.51,-477.2 135.16,-441.36 150.84,-412 184.17,-349.57 241.15,-292.84 287.05,-253.5"/>
<polygon fill="none" stroke="#63b8ff" points="287.21,-253.37 289.2,-246.44 296.37,-245.62 294.37,-252.55 287.21,-253.37"/>
</a>
</g>
<text text-anchor="middle" x="166.34" y="-426" font-family="Helvetica,sans-Serif" font-size="10.00" fill="grey"> +size</text>
</g>
<!-- Node15&#45;&gt;Node1 -->
<g id="edge19_Node000001_Node000015" class="edge">
<title>Node15&#45;&gt;Node1</title>
<g id="a_edge19_Node000001_Node000015"><a xlink:title=" ">
<path fill="none" stroke="#63b8ff" d="M721.53,-507.88C712.7,-492.73 702.89,-477.03 692.84,-463 622.66,-365.01 506.62,-284.46 431.46,-238.81"/>
<polygon fill="none" stroke="#63b8ff" points="431.42,-238.78 424.21,-239.12 421.13,-232.6 428.34,-232.26 431.42,-238.78"/>
</a>
</g>
<text text-anchor="middle" x="695.34" y="-426" font-family="Helvetica,sans-Serif" font-size="10.00" fill="grey"> +step</text>
</g>
</g>
</svg>
