<?xml version="1.0" encoding="UTF-8" standalone="no"?>
<!DOCTYPE svg PUBLIC "-//W3C//DTD SVG 1.1//EN"
 "http://www.w3.org/Graphics/SVG/1.1/DTD/svg11.dtd">
<!-- Generated by graphviz version 2.43.0 (0)
 -->
<!-- Title: cv::DetectionBasedTracker::Parameters Pages: 1 -->
<svg width="184pt" height="175pt"
 viewBox="0.00 0.00 183.50 175.00" xmlns="http://www.w3.org/2000/svg" xmlns:xlink="http://www.w3.org/1999/xlink">
<g id="graph0" class="graph" transform="scale(1 1) rotate(0) translate(4 171)">
<title>cv::DetectionBasedTracker::Parameters</title>
<!-- Node1 -->
<g id="Node000001" class="node">
<title>Node1</title>
<g id="a_Node000001"><a xlink:title=" ">
<polygon fill="#999999" stroke="transparent" points="139,-60 0,-60 0,0 139,0 139,-60"/>
<text text-anchor="start" x="5.5" y="-48" font-family="Helvetica,sans-Serif" font-size="10.00">cv::DetectionBasedTracker</text>
<text text-anchor="start" x="39" y="-37" font-family="Helvetica,sans-Serif" font-size="10.00">::Parameters</text>
<text text-anchor="start" x="68" y="-22" font-family="Helvetica,sans-Serif" font-size="10.00"> </text>
<text text-anchor="start" x="18" y="-7" font-family="Helvetica,sans-Serif" font-size="10.00">+</text>
<text text-anchor="start" x="44.5" y="-7" font-family="Helvetica,sans-Serif" font-size="10.00">Parameters()</text>
<polygon fill="#666666" stroke="#666666" points="0.5,-32 0.5,-32 139.5,-32 139.5,-32 0.5,-32"/>
<polygon fill="#666666" stroke="#666666" points="0.5,-17 0.5,-17 139.5,-17 139.5,-17 0.5,-17"/>
<polygon fill="none" stroke="#666666" points="0,0 0,-60 139,-60 139,0 0,0"/>
</a>
</g>
</g>
<!-- Node2 -->
<g id="Node000002" class="node">
<title>Node2</title>
<g id="a_Node000002"><a xlink:title=" ">
<polygon fill="white" stroke="transparent" points="81,-167 58,-167 58,-118 81,-118 81,-167"/>
<text text-anchor="start" x="63.5" y="-154.5" font-family="Helvetica,sans-Serif" font-size="10.00">int</text>
<text text-anchor="start" x="68" y="-139.5" font-family="Helvetica,sans-Serif" font-size="10.00"> </text>
<text text-anchor="start" x="68" y="-124.5" font-family="Helvetica,sans-Serif" font-size="10.00"> </text>
<polygon fill="#666666" stroke="#666666" points="58.5,-149.5 58.5,-149.5 81.5,-149.5 81.5,-149.5 58.5,-149.5"/>
<polygon fill="#666666" stroke="#666666" points="58.5,-134.5 58.5,-134.5 81.5,-134.5 81.5,-134.5 58.5,-134.5"/>
<polygon fill="none" stroke="#666666" points="58,-118 58,-167 81,-167 81,-118 58,-118"/>
</a>
</g>
</g>
<!-- Node2&#45;&gt;Node1 -->
<g id="edge1_Node000001_Node000002" class="edge">
<title>Node2&#45;&gt;Node1</title>
<g id="a_edge1_Node000001_Node000002"><a xlink:title=" ">
<path fill="none" stroke="#63b8ff" d="M69.5,-117.79C69.5,-104.62 69.5,-87.84 69.5,-72.55"/>
<polygon fill="none" stroke="#63b8ff" points="69.5,-72.17 65.5,-66.17 69.5,-60.17 73.5,-66.17 69.5,-72.17"/>
</a>
</g>
<text text-anchor="middle" x="122.5" y="-92" font-family="Helvetica,sans-Serif" font-size="10.00" fill="grey"> +maxTrackLifetime</text>
<text text-anchor="middle" x="122.5" y="-81" font-family="Helvetica,sans-Serif" font-size="10.00" fill="grey">+minDetectionPeriod</text>
</g>
</g>
</svg>
