<?xml version="1.0" encoding="UTF-8" standalone="no"?>
<!DOCTYPE svg PUBLIC "-//W3C//DTD SVG 1.1//EN"
 "http://www.w3.org/Graphics/SVG/1.1/DTD/svg11.dtd">
<!-- Generated by graphviz version 2.43.0 (0)
 -->
<!-- Title: cv::gapi::wip::QueueSourceBase Pages: 1 -->
<svg width="174pt" height="373pt"
 viewBox="0.00 0.00 174.00 373.00" xmlns="http://www.w3.org/2000/svg" xmlns:xlink="http://www.w3.org/1999/xlink">
<g id="graph0" class="graph" transform="scale(1 1) rotate(0) translate(4 369)">
<title>cv::gapi::wip::QueueSourceBase</title>
<!-- Node1 -->
<g id="Node000001" class="node">
<title>Node1</title>
<g id="a_Node000001"><a xlink:title=" ">
<polygon fill="#999999" stroke="transparent" points="166,-124 0,-124 0,0 166,0 166,-124"/>
<text text-anchor="start" x="5" y="-112" font-family="Helvetica,sans-Serif" font-size="10.00">cv::gapi::wip::QueueSourceBase</text>
<text text-anchor="start" x="81" y="-97" font-family="Helvetica,sans-Serif" font-size="10.00"> </text>
<text text-anchor="start" x="14" y="-82" font-family="Helvetica,sans-Serif" font-size="10.00">+</text>
<text text-anchor="start" x="37" y="-82" font-family="Helvetica,sans-Serif" font-size="10.00">QueueSourceBase()</text>
<text text-anchor="start" x="14" y="-67" font-family="Helvetica,sans-Serif" font-size="10.00">+</text>
<text text-anchor="start" x="37" y="-67" font-family="Helvetica,sans-Serif" font-size="10.00">~QueueSourceBase()</text>
<text text-anchor="start" x="14" y="-52" font-family="Helvetica,sans-Serif" font-size="10.00">+</text>
<text text-anchor="start" x="37" y="-52" font-family="Helvetica,sans-Serif" font-size="10.00">descr_of()</text>
<text text-anchor="start" x="14" y="-37" font-family="Helvetica,sans-Serif" font-size="10.00">+</text>
<text text-anchor="start" x="37" y="-37" font-family="Helvetica,sans-Serif" font-size="10.00">halt()</text>
<text text-anchor="start" x="14" y="-22" font-family="Helvetica,sans-Serif" font-size="10.00">+</text>
<text text-anchor="start" x="37" y="-22" font-family="Helvetica,sans-Serif" font-size="10.00">pull()</text>
<text text-anchor="start" x="14" y="-7" font-family="Helvetica,sans-Serif" font-size="10.00">+</text>
<text text-anchor="start" x="37" y="-7" font-family="Helvetica,sans-Serif" font-size="10.00">push()</text>
<polygon fill="#666666" stroke="#666666" points="0,-107 0,-107 166,-107 166,-107 0,-107"/>
<polygon fill="#666666" stroke="#666666" points="0,-92 0,-92 166,-92 166,-92 0,-92"/>
<polygon fill="none" stroke="#666666" points="0,0 0,-124 166,-124 166,0 0,0"/>
</a>
</g>
</g>
<!-- Node2 -->
<g id="Node000002" class="node">
<title>Node2</title>
<g id="a_Node000002"><a xlink:href="../../da/d03/classcv_1_1gapi_1_1wip_1_1IStreamSource.html" target="_top" xlink:title="Abstract streaming pipeline source.">
<polygon fill="white" stroke="transparent" points="157.5,-269 8.5,-269 8.5,-160 157.5,-160 157.5,-269"/>
<text text-anchor="start" x="14" y="-256.5" font-family="Helvetica,sans-Serif" font-size="10.00">cv::gapi::wip::IStreamSource</text>
<text text-anchor="start" x="81.5" y="-241.5" font-family="Helvetica,sans-Serif" font-size="10.00"> </text>
<text text-anchor="start" x="23" y="-226.5" font-family="Helvetica,sans-Serif" font-size="10.00">+</text>
<text text-anchor="start" x="46" y="-226.5" font-family="Helvetica,sans-Serif" font-size="10.00">~IStreamSource()</text>
<text text-anchor="start" x="23" y="-211.5" font-family="Helvetica,sans-Serif" font-size="10.00">+</text>
<text text-anchor="start" x="46" y="-211.5" font-family="Helvetica,sans-Serif" font-size="10.00">descr_of()</text>
<text text-anchor="start" x="23" y="-196.5" font-family="Helvetica,sans-Serif" font-size="10.00">+</text>
<text text-anchor="start" x="46" y="-196.5" font-family="Helvetica,sans-Serif" font-size="10.00">halt()</text>
<text text-anchor="start" x="23" y="-181.5" font-family="Helvetica,sans-Serif" font-size="10.00">+</text>
<text text-anchor="start" x="46" y="-181.5" font-family="Helvetica,sans-Serif" font-size="10.00">ptr()</text>
<text text-anchor="start" x="23" y="-166.5" font-family="Helvetica,sans-Serif" font-size="10.00">+</text>
<text text-anchor="start" x="46" y="-166.5" font-family="Helvetica,sans-Serif" font-size="10.00">pull()</text>
<polygon fill="#666666" stroke="#666666" points="9,-251.5 9,-251.5 158,-251.5 158,-251.5 9,-251.5"/>
<polygon fill="#666666" stroke="#666666" points="9,-236.5 9,-236.5 158,-236.5 158,-236.5 9,-236.5"/>
<polygon fill="none" stroke="#666666" points="8.5,-160 8.5,-269 157.5,-269 157.5,-160 8.5,-160"/>
</a>
</g>
</g>
<!-- Node2&#45;&gt;Node1 -->
<g id="edge1_Node000001_Node000002" class="edge">
<title>Node2&#45;&gt;Node1</title>
<g id="a_edge1_Node000001_Node000002"><a xlink:title=" ">
<path fill="none" stroke="#63b8ff" d="M83,-149.49C83,-141.11 83,-132.54 83,-124.21"/>
<polygon fill="none" stroke="#63b8ff" points="79.5,-149.59 83,-159.59 86.5,-149.59 79.5,-149.59"/>
</a>
</g>
</g>
<!-- Node3 -->
<g id="Node000003" class="node">
<title>Node3</title>
<g id="a_Node000003"><a xlink:title=" ">
<polygon fill="white" stroke="transparent" points="161,-365 5,-365 5,-305 161,-305 161,-365"/>
<text text-anchor="start" x="10" y="-353" font-family="Helvetica,sans-Serif" font-size="10.00">std::enable_shared</text>
<text text-anchor="start" x="10" y="-342" font-family="Helvetica,sans-Serif" font-size="10.00">_from_this&lt; IStreamSource &gt;</text>
<text text-anchor="start" x="81" y="-327" font-family="Helvetica,sans-Serif" font-size="10.00"> </text>
<text text-anchor="start" x="81" y="-312" font-family="Helvetica,sans-Serif" font-size="10.00"> </text>
<polygon fill="#666666" stroke="#666666" points="5,-337 5,-337 161,-337 161,-337 5,-337"/>
<polygon fill="#666666" stroke="#666666" points="5,-322 5,-322 161,-322 161,-322 5,-322"/>
<polygon fill="none" stroke="#666666" points="5,-305 5,-365 161,-365 161,-305 5,-305"/>
</a>
</g>
</g>
<!-- Node3&#45;&gt;Node2 -->
<g id="edge2_Node000002_Node000003" class="edge">
<title>Node3&#45;&gt;Node2</title>
<g id="a_edge2_Node000002_Node000003"><a xlink:title=" ">
<path fill="none" stroke="#63b8ff" d="M83,-294.5C83,-286.45 83,-277.85 83,-269.4"/>
<polygon fill="none" stroke="#63b8ff" points="79.5,-294.71 83,-304.71 86.5,-294.71 79.5,-294.71"/>
</a>
</g>
</g>
</g>
</svg>
