<?xml version="1.0" encoding="UTF-8" standalone="no"?>
<!DOCTYPE svg PUBLIC "-//W3C//DTD SVG 1.1//EN"
 "http://www.w3.org/Graphics/SVG/1.1/DTD/svg11.dtd">
<!-- Generated by graphviz version 2.43.0 (0)
 -->
<!-- Title: HaarStage64 Pages: 1 -->
<svg width="174pt" height="250pt"
 viewBox="0.00 0.00 174.00 250.00" xmlns="http://www.w3.org/2000/svg" xmlns:xlink="http://www.w3.org/1999/xlink">
<g id="graph0" class="graph" transform="scale(1 1) rotate(0) translate(4 246)">
<title>HaarStage64</title>
<!-- Node1 -->
<g id="Node000001" class="node">
<title>Node1</title>
<g id="a_Node000001"><a xlink:title=" ">
<polygon fill="#999999" stroke="transparent" points="166,-146 0,-146 0,0 166,0 166,-146"/>
<text text-anchor="start" x="51" y="-134" font-family="Helvetica,sans-Serif" font-size="10.00">HaarStage64</text>
<text text-anchor="start" x="81" y="-119" font-family="Helvetica,sans-Serif" font-size="10.00"> </text>
<text text-anchor="start" x="4" y="-104" font-family="Helvetica,sans-Serif" font-size="10.00">+</text>
<text text-anchor="start" x="17" y="-104" font-family="Helvetica,sans-Serif" font-size="10.00">getNumClassifierRootNodes()</text>
<text text-anchor="start" x="4" y="-89" font-family="Helvetica,sans-Serif" font-size="10.00">+</text>
<text text-anchor="start" x="17" y="-89" font-family="Helvetica,sans-Serif" font-size="10.00">getStageThreshold()</text>
<text text-anchor="start" x="4" y="-74" font-family="Helvetica,sans-Serif" font-size="10.00">+</text>
<text text-anchor="start" x="17" y="-74" font-family="Helvetica,sans-Serif" font-size="10.00">getStartClassifierRootNode</text>
<text text-anchor="start" x="17" y="-63" font-family="Helvetica,sans-Serif" font-size="10.00">Offset()</text>
<text text-anchor="start" x="4" y="-48" font-family="Helvetica,sans-Serif" font-size="10.00">+</text>
<text text-anchor="start" x="17" y="-48" font-family="Helvetica,sans-Serif" font-size="10.00">setNumClassifierRootNodes()</text>
<text text-anchor="start" x="4" y="-33" font-family="Helvetica,sans-Serif" font-size="10.00">+</text>
<text text-anchor="start" x="17" y="-33" font-family="Helvetica,sans-Serif" font-size="10.00">setStageThreshold()</text>
<text text-anchor="start" x="4" y="-18" font-family="Helvetica,sans-Serif" font-size="10.00">+</text>
<text text-anchor="start" x="17" y="-18" font-family="Helvetica,sans-Serif" font-size="10.00">setStartClassifierRootNode</text>
<text text-anchor="start" x="17" y="-7" font-family="Helvetica,sans-Serif" font-size="10.00">Offset()</text>
<polygon fill="#666666" stroke="#666666" points="0,-129 0,-129 166,-129 166,-129 0,-129"/>
<polygon fill="#666666" stroke="#666666" points="0,-114 0,-114 166,-114 166,-114 0,-114"/>
<polygon fill="none" stroke="#666666" points="0,0 0,-146 166,-146 166,0 0,0"/>
</a>
</g>
</g>
<!-- Node2 -->
<g id="Node000002" class="node">
<title>Node2</title>
<g id="a_Node000002"><a xlink:title=" ">
<polygon fill="white" stroke="transparent" points="100.5,-242 65.5,-242 65.5,-193 100.5,-193 100.5,-242"/>
<text text-anchor="start" x="71" y="-229.5" font-family="Helvetica,sans-Serif" font-size="10.00">uint2</text>
<text text-anchor="start" x="81.5" y="-214.5" font-family="Helvetica,sans-Serif" font-size="10.00"> </text>
<text text-anchor="start" x="81.5" y="-199.5" font-family="Helvetica,sans-Serif" font-size="10.00"> </text>
<polygon fill="#666666" stroke="#666666" points="66,-224.5 66,-224.5 101,-224.5 101,-224.5 66,-224.5"/>
<polygon fill="#666666" stroke="#666666" points="66,-209.5 66,-209.5 101,-209.5 101,-209.5 66,-209.5"/>
<polygon fill="none" stroke="#666666" points="65.5,-193 65.5,-242 100.5,-242 100.5,-193 65.5,-193"/>
</a>
</g>
</g>
<!-- Node2&#45;&gt;Node1 -->
<g id="edge1_Node000001_Node000002" class="edge">
<title>Node2&#45;&gt;Node1</title>
<g id="a_edge1_Node000001_Node000002"><a xlink:title=" ">
<path fill="none" stroke="#63b8ff" d="M83,-192.97C83,-183.14 83,-171.08 83,-158.44"/>
<polygon fill="none" stroke="#63b8ff" points="83,-158.2 79,-152.2 83,-146.2 87,-152.2 83,-158.2"/>
</a>
</g>
<text text-anchor="middle" x="99" y="-167" font-family="Helvetica,sans-Serif" font-size="10.00" fill="grey"> +_ui2</text>
</g>
</g>
</svg>
