<?xml version="1.0" encoding="UTF-8" standalone="no"?>
<!DOCTYPE svg PUBLIC "-//W3C//DTD SVG 1.1//EN"
 "http://www.w3.org/Graphics/SVG/1.1/DTD/svg11.dtd">
<!-- Generated by graphviz version 2.43.0 (0)
 -->
<!-- Title: cv::bgsegm::BackgroundSubtractorMOG Pages: 1 -->
<svg width="212pt" height="542pt"
 viewBox="0.00 0.00 212.00 542.00" xmlns="http://www.w3.org/2000/svg" xmlns:xlink="http://www.w3.org/1999/xlink">
<g id="graph0" class="graph" transform="scale(1 1) rotate(0) translate(4 538)">
<title>cv::bgsegm::BackgroundSubtractorMOG</title>
<!-- Node1 -->
<g id="Node000001" class="node">
<title>Node1</title>
<g id="a_Node000001"><a xlink:title="Gaussian Mixture&#45;based Background/Foreground Segmentation Algorithm.">
<polygon fill="#999999" stroke="transparent" points="204,-154 0,-154 0,0 204,0 204,-154"/>
<text text-anchor="start" x="5" y="-142" font-family="Helvetica,sans-Serif" font-size="10.00">cv::bgsegm::BackgroundSubtractorMOG</text>
<text text-anchor="start" x="100" y="-127" font-family="Helvetica,sans-Serif" font-size="10.00"> </text>
<text text-anchor="start" x="23" y="-112" font-family="Helvetica,sans-Serif" font-size="10.00">+</text>
<text text-anchor="start" x="55" y="-112" font-family="Helvetica,sans-Serif" font-size="10.00">getBackgroundRatio()</text>
<text text-anchor="start" x="23" y="-97" font-family="Helvetica,sans-Serif" font-size="10.00">+</text>
<text text-anchor="start" x="55" y="-97" font-family="Helvetica,sans-Serif" font-size="10.00">getHistory()</text>
<text text-anchor="start" x="23" y="-82" font-family="Helvetica,sans-Serif" font-size="10.00">+</text>
<text text-anchor="start" x="55" y="-82" font-family="Helvetica,sans-Serif" font-size="10.00">getNMixtures()</text>
<text text-anchor="start" x="23" y="-67" font-family="Helvetica,sans-Serif" font-size="10.00">+</text>
<text text-anchor="start" x="55" y="-67" font-family="Helvetica,sans-Serif" font-size="10.00">getNoiseSigma()</text>
<text text-anchor="start" x="23" y="-52" font-family="Helvetica,sans-Serif" font-size="10.00">+</text>
<text text-anchor="start" x="55" y="-52" font-family="Helvetica,sans-Serif" font-size="10.00">setBackgroundRatio()</text>
<text text-anchor="start" x="23" y="-37" font-family="Helvetica,sans-Serif" font-size="10.00">+</text>
<text text-anchor="start" x="55" y="-37" font-family="Helvetica,sans-Serif" font-size="10.00">setHistory()</text>
<text text-anchor="start" x="23" y="-22" font-family="Helvetica,sans-Serif" font-size="10.00">+</text>
<text text-anchor="start" x="55" y="-22" font-family="Helvetica,sans-Serif" font-size="10.00">setNMixtures()</text>
<text text-anchor="start" x="23" y="-7" font-family="Helvetica,sans-Serif" font-size="10.00">+</text>
<text text-anchor="start" x="55" y="-7" font-family="Helvetica,sans-Serif" font-size="10.00">setNoiseSigma()</text>
<polygon fill="#666666" stroke="#666666" points="0,-137 0,-137 204,-137 204,-137 0,-137"/>
<polygon fill="#666666" stroke="#666666" points="0,-122 0,-122 204,-122 204,-122 0,-122"/>
<polygon fill="none" stroke="#666666" points="0,0 0,-154 204,-154 204,0 0,0"/>
</a>
</g>
</g>
<!-- Node2 -->
<g id="Node000002" class="node">
<title>Node2</title>
<g id="a_Node000002"><a xlink:href="../../d7/df6/classcv_1_1BackgroundSubtractor.html" target="_top" xlink:title="Base class for background/foreground segmentation. :">
<polygon fill="white" stroke="transparent" points="169.5,-254 34.5,-254 34.5,-190 169.5,-190 169.5,-254"/>
<text text-anchor="start" x="40" y="-242" font-family="Helvetica,sans-Serif" font-size="10.00">cv::BackgroundSubtractor</text>
<text text-anchor="start" x="100.5" y="-227" font-family="Helvetica,sans-Serif" font-size="10.00"> </text>
<text text-anchor="start" x="39.5" y="-212" font-family="Helvetica,sans-Serif" font-size="10.00">+</text>
<text text-anchor="start" x="53" y="-212" font-family="Helvetica,sans-Serif" font-size="10.00">apply()</text>
<text text-anchor="start" x="39.5" y="-197" font-family="Helvetica,sans-Serif" font-size="10.00">+</text>
<text text-anchor="start" x="53" y="-197" font-family="Helvetica,sans-Serif" font-size="10.00">getBackgroundImage()</text>
<polygon fill="#666666" stroke="#666666" points="35,-237 35,-237 170,-237 170,-237 35,-237"/>
<polygon fill="#666666" stroke="#666666" points="35,-222 35,-222 170,-222 170,-222 35,-222"/>
<polygon fill="none" stroke="#666666" points="34.5,-190 34.5,-254 169.5,-254 169.5,-190 34.5,-190"/>
</a>
</g>
</g>
<!-- Node2&#45;&gt;Node1 -->
<g id="edge1_Node000001_Node000002" class="edge">
<title>Node2&#45;&gt;Node1</title>
<g id="a_edge1_Node000001_Node000002"><a xlink:title=" ">
<path fill="none" stroke="#63b8ff" d="M102,-179.76C102,-171.67 102,-162.96 102,-154.15"/>
<polygon fill="none" stroke="#63b8ff" points="98.5,-179.97 102,-189.97 105.5,-179.97 98.5,-179.97"/>
</a>
</g>
</g>
<!-- Node3 -->
<g id="Node000003" class="node">
<title>Node3</title>
<g id="a_Node000003"><a xlink:href="../../d3/d46/classcv_1_1Algorithm.html" target="_top" xlink:title="This is a base class for all more or less complex algorithms in OpenCV.">
<polygon fill="white" stroke="transparent" points="157,-534 47,-534 47,-290 157,-290 157,-534"/>
<text text-anchor="start" x="69.5" y="-522" font-family="Helvetica,sans-Serif" font-size="10.00">cv::Algorithm</text>
<text text-anchor="start" x="100" y="-507" font-family="Helvetica,sans-Serif" font-size="10.00"> </text>
<text text-anchor="start" x="51" y="-492" font-family="Helvetica,sans-Serif" font-size="10.00">+</text>
<text text-anchor="start" x="64" y="-492" font-family="Helvetica,sans-Serif" font-size="10.00">Algorithm()</text>
<text text-anchor="start" x="51" y="-477" font-family="Helvetica,sans-Serif" font-size="10.00">+</text>
<text text-anchor="start" x="64" y="-477" font-family="Helvetica,sans-Serif" font-size="10.00">~Algorithm()</text>
<text text-anchor="start" x="51" y="-462" font-family="Helvetica,sans-Serif" font-size="10.00">+</text>
<text text-anchor="start" x="64" y="-462" font-family="Helvetica,sans-Serif" font-size="10.00">clear()</text>
<text text-anchor="start" x="51" y="-447" font-family="Helvetica,sans-Serif" font-size="10.00">+</text>
<text text-anchor="start" x="64" y="-447" font-family="Helvetica,sans-Serif" font-size="10.00">empty()</text>
<text text-anchor="start" x="51" y="-432" font-family="Helvetica,sans-Serif" font-size="10.00">+</text>
<text text-anchor="start" x="64" y="-432" font-family="Helvetica,sans-Serif" font-size="10.00">getDefaultName()</text>
<text text-anchor="start" x="51" y="-417" font-family="Helvetica,sans-Serif" font-size="10.00">+</text>
<text text-anchor="start" x="64" y="-417" font-family="Helvetica,sans-Serif" font-size="10.00">read()</text>
<text text-anchor="start" x="51" y="-402" font-family="Helvetica,sans-Serif" font-size="10.00">+</text>
<text text-anchor="start" x="64" y="-402" font-family="Helvetica,sans-Serif" font-size="10.00">save()</text>
<text text-anchor="start" x="51" y="-387" font-family="Helvetica,sans-Serif" font-size="10.00">+</text>
<text text-anchor="start" x="64" y="-387" font-family="Helvetica,sans-Serif" font-size="10.00">write()</text>
<text text-anchor="start" x="51" y="-372" font-family="Helvetica,sans-Serif" font-size="10.00">+</text>
<text text-anchor="start" x="64" y="-372" font-family="Helvetica,sans-Serif" font-size="10.00">write()</text>
<text text-anchor="start" x="51" y="-357" font-family="Helvetica,sans-Serif" font-size="10.00">+</text>
<text text-anchor="start" x="64" y="-357" font-family="Helvetica,sans-Serif" font-size="10.00">write()</text>
<text text-anchor="start" x="51" y="-342" font-family="Helvetica,sans-Serif" font-size="10.00">+</text>
<text text-anchor="start" x="64" y="-342" font-family="Helvetica,sans-Serif" font-size="10.00">load()</text>
<text text-anchor="start" x="51" y="-327" font-family="Helvetica,sans-Serif" font-size="10.00">+</text>
<text text-anchor="start" x="64" y="-327" font-family="Helvetica,sans-Serif" font-size="10.00">loadFromString()</text>
<text text-anchor="start" x="51" y="-312" font-family="Helvetica,sans-Serif" font-size="10.00">+</text>
<text text-anchor="start" x="64" y="-312" font-family="Helvetica,sans-Serif" font-size="10.00">read()</text>
<text text-anchor="start" x="51" y="-297" font-family="Helvetica,sans-Serif" font-size="10.00">#</text>
<text text-anchor="start" x="64" y="-297" font-family="Helvetica,sans-Serif" font-size="10.00">writeFormat()</text>
<polygon fill="#666666" stroke="#666666" points="47,-517 47,-517 157,-517 157,-517 47,-517"/>
<polygon fill="#666666" stroke="#666666" points="47,-502 47,-502 157,-502 157,-502 47,-502"/>
<polygon fill="none" stroke="#666666" points="47,-290 47,-534 157,-534 157,-290 47,-290"/>
</a>
</g>
</g>
<!-- Node3&#45;&gt;Node2 -->
<g id="edge2_Node000002_Node000003" class="edge">
<title>Node3&#45;&gt;Node2</title>
<g id="a_edge2_Node000002_Node000003"><a xlink:title=" ">
<path fill="none" stroke="#63b8ff" d="M102,-279.58C102,-270.33 102,-261.67 102,-254.03"/>
<polygon fill="none" stroke="#63b8ff" points="98.5,-279.81 102,-289.81 105.5,-279.81 98.5,-279.81"/>
</a>
</g>
</g>
</g>
</svg>
