<?xml version="1.0" encoding="UTF-8" standalone="no"?>
<!DOCTYPE svg PUBLIC "-//W3C//DTD SVG 1.1//EN"
 "http://www.w3.org/Graphics/SVG/1.1/DTD/svg11.dtd">
<!-- Generated by graphviz version 2.43.0 (0)
 -->
<!-- Title: cv::optflow::RLOFOpticalFlowParameter Pages: 1 -->
<svg width="744pt" height="373pt"
 viewBox="0.00 0.00 744.00 373.00" xmlns="http://www.w3.org/2000/svg" xmlns:xlink="http://www.w3.org/1999/xlink">
<g id="graph0" class="graph" transform="scale(1 1) rotate(0) translate(4 369)">
<title>cv::optflow::RLOFOpticalFlowParameter</title>
<!-- Node1 -->
<g id="Node000001" class="node">
<title>Node1</title>
<g id="a_Node000001"><a xlink:title="This is used store and set up the parameters of the robust local optical flow (RLOF) algoritm.">
<polygon fill="#999999" stroke="transparent" points="358.5,-225 165.5,-225 165.5,0 358.5,0 358.5,-225"/>
<text text-anchor="start" x="203.5" y="-212.5" font-family="Helvetica,sans-Serif" font-size="10.00">cv::optflow::RLOFOptical</text>
<text text-anchor="start" x="225.5" y="-201.5" font-family="Helvetica,sans-Serif" font-size="10.00">FlowParameter</text>
<text text-anchor="start" x="260.5" y="-186.5" font-family="Helvetica,sans-Serif" font-size="10.00"> </text>
<text text-anchor="start" x="170" y="-171.5" font-family="Helvetica,sans-Serif" font-size="10.00">+</text>
<text text-anchor="start" x="183" y="-171.5" font-family="Helvetica,sans-Serif" font-size="10.00">RLOFOpticalFlowParameter()</text>
<text text-anchor="start" x="170" y="-156.5" font-family="Helvetica,sans-Serif" font-size="10.00">+</text>
<text text-anchor="start" x="183" y="-156.5" font-family="Helvetica,sans-Serif" font-size="10.00">getCrossSegmentationThreshold()</text>
<text text-anchor="start" x="170" y="-141.5" font-family="Helvetica,sans-Serif" font-size="10.00">+</text>
<text text-anchor="start" x="183" y="-141.5" font-family="Helvetica,sans-Serif" font-size="10.00">getGlobalMotionRansacThreshold()</text>
<text text-anchor="start" x="170" y="-126.5" font-family="Helvetica,sans-Serif" font-size="10.00">+</text>
<text text-anchor="start" x="183" y="-126.5" font-family="Helvetica,sans-Serif" font-size="10.00">getLargeWinSize()</text>
<text text-anchor="start" x="170" y="-111.5" font-family="Helvetica,sans-Serif" font-size="10.00">+</text>
<text text-anchor="start" x="183" y="-111.5" font-family="Helvetica,sans-Serif" font-size="10.00">getMaxIteration()</text>
<text text-anchor="start" x="170" y="-96.5" font-family="Helvetica,sans-Serif" font-size="10.00">+</text>
<text text-anchor="start" x="183" y="-96.5" font-family="Helvetica,sans-Serif" font-size="10.00">getMaxLevel()</text>
<text text-anchor="start" x="170" y="-81.5" font-family="Helvetica,sans-Serif" font-size="10.00">+</text>
<text text-anchor="start" x="183" y="-81.5" font-family="Helvetica,sans-Serif" font-size="10.00">getMinEigenValue()</text>
<text text-anchor="start" x="170" y="-66.5" font-family="Helvetica,sans-Serif" font-size="10.00">+</text>
<text text-anchor="start" x="183" y="-66.5" font-family="Helvetica,sans-Serif" font-size="10.00">getNormSigma0()</text>
<text text-anchor="start" x="170" y="-51.5" font-family="Helvetica,sans-Serif" font-size="10.00">+</text>
<text text-anchor="start" x="183" y="-51.5" font-family="Helvetica,sans-Serif" font-size="10.00">getNormSigma1()</text>
<text text-anchor="start" x="170" y="-36.5" font-family="Helvetica,sans-Serif" font-size="10.00">+</text>
<text text-anchor="start" x="183" y="-36.5" font-family="Helvetica,sans-Serif" font-size="10.00">getSmallWinSize()</text>
<text text-anchor="start" x="183" y="-21.5" font-family="Helvetica,sans-Serif" font-size="10.00">and 20 more...</text>
<text text-anchor="start" x="170" y="-6.5" font-family="Helvetica,sans-Serif" font-size="10.00">+</text>
<text text-anchor="start" x="183" y="-6.5" font-family="Helvetica,sans-Serif" font-size="10.00">create()</text>
<polygon fill="#666666" stroke="#666666" points="166,-196.5 166,-196.5 359,-196.5 359,-196.5 166,-196.5"/>
<polygon fill="#666666" stroke="#666666" points="166,-181.5 166,-181.5 359,-181.5 359,-181.5 166,-181.5"/>
<polygon fill="none" stroke="#666666" points="165.5,0 165.5,-225 358.5,-225 358.5,0 165.5,0"/>
</a>
</g>
</g>
<!-- Node2 -->
<g id="Node000002" class="node">
<title>Node2</title>
<g id="a_Node000002"><a xlink:title=" ">
<polygon fill="white" stroke="transparent" points="64,-365 0,-365 0,-316 64,-316 64,-365"/>
<text text-anchor="start" x="5" y="-352.5" font-family="Helvetica,sans-Serif" font-size="10.00">SolverType</text>
<text text-anchor="start" x="30" y="-337.5" font-family="Helvetica,sans-Serif" font-size="10.00"> </text>
<text text-anchor="start" x="30" y="-322.5" font-family="Helvetica,sans-Serif" font-size="10.00"> </text>
<polygon fill="#666666" stroke="#666666" points="0,-347.5 0,-347.5 64,-347.5 64,-347.5 0,-347.5"/>
<polygon fill="#666666" stroke="#666666" points="0,-332.5 0,-332.5 64,-332.5 64,-332.5 0,-332.5"/>
<polygon fill="none" stroke="#666666" points="0,-316 0,-365 64,-365 64,-316 0,-316"/>
</a>
</g>
</g>
<!-- Node2&#45;&gt;Node1 -->
<g id="edge1_Node000001_Node000002" class="edge">
<title>Node2&#45;&gt;Node1</title>
<g id="a_edge1_Node000001_Node000002"><a xlink:title=" ">
<path fill="none" stroke="#63b8ff" d="M37.13,-315.64C42.55,-294.76 52.76,-264.49 70,-243 93.06,-214.26 124.22,-189.51 154.71,-169.56"/>
<polygon fill="none" stroke="#63b8ff" points="154.9,-169.44 157.81,-162.84 165.02,-162.98 162.11,-169.58 154.9,-169.44"/>
</a>
</g>
<text text-anchor="middle" x="102" y="-268" font-family="Helvetica,sans-Serif" font-size="10.00" fill="grey"> +solverType</text>
</g>
<!-- Node3 -->
<g id="Node000003" class="node">
<title>Node3</title>
<g id="a_Node000003"><a xlink:title=" ">
<polygon fill="white" stroke="transparent" points="186,-365 82,-365 82,-316 186,-316 186,-365"/>
<text text-anchor="start" x="87" y="-352.5" font-family="Helvetica,sans-Serif" font-size="10.00">SupportRegionType</text>
<text text-anchor="start" x="132" y="-337.5" font-family="Helvetica,sans-Serif" font-size="10.00"> </text>
<text text-anchor="start" x="132" y="-322.5" font-family="Helvetica,sans-Serif" font-size="10.00"> </text>
<polygon fill="#666666" stroke="#666666" points="82,-347.5 82,-347.5 186,-347.5 186,-347.5 82,-347.5"/>
<polygon fill="#666666" stroke="#666666" points="82,-332.5 82,-332.5 186,-332.5 186,-332.5 82,-332.5"/>
<polygon fill="none" stroke="#666666" points="82,-316 82,-365 186,-365 186,-316 82,-316"/>
</a>
</g>
</g>
<!-- Node3&#45;&gt;Node1 -->
<g id="edge2_Node000001_Node000003" class="edge">
<title>Node3&#45;&gt;Node1</title>
<g id="a_edge2_Node000001_Node000003"><a xlink:title=" ">
<path fill="none" stroke="#63b8ff" d="M135.34,-315.85C137.25,-295.65 141.85,-266.25 153,-243 154.92,-238.99 157,-235 159.21,-231.04"/>
<polygon fill="none" stroke="#63b8ff" points="159.24,-230.99 158.84,-223.79 165.33,-220.65 165.73,-227.85 159.24,-230.99"/>
</a>
</g>
<text text-anchor="middle" x="205.5" y="-268" font-family="Helvetica,sans-Serif" font-size="10.00" fill="grey"> +supportRegionType</text>
</g>
<!-- Node4 -->
<g id="Node000004" class="node">
<title>Node4</title>
<g id="a_Node000004"><a xlink:title=" ">
<polygon fill="white" stroke="transparent" points="278,-365 246,-365 246,-316 278,-316 278,-365"/>
<text text-anchor="start" x="251" y="-352.5" font-family="Helvetica,sans-Serif" font-size="10.00">float</text>
<text text-anchor="start" x="260" y="-337.5" font-family="Helvetica,sans-Serif" font-size="10.00"> </text>
<text text-anchor="start" x="260" y="-322.5" font-family="Helvetica,sans-Serif" font-size="10.00"> </text>
<polygon fill="#666666" stroke="#666666" points="246,-347.5 246,-347.5 278,-347.5 278,-347.5 246,-347.5"/>
<polygon fill="#666666" stroke="#666666" points="246,-332.5 246,-332.5 278,-332.5 278,-332.5 246,-332.5"/>
<polygon fill="none" stroke="#666666" points="246,-316 246,-365 278,-365 278,-316 246,-316"/>
</a>
</g>
</g>
<!-- Node4&#45;&gt;Node1 -->
<g id="edge3_Node000001_Node000004" class="edge">
<title>Node4&#45;&gt;Node1</title>
<g id="a_edge3_Node000001_Node000004"><a xlink:title=" ">
<path fill="none" stroke="#63b8ff" d="M262,-315.74C262,-296.33 262,-267.28 262,-237.2"/>
<polygon fill="none" stroke="#63b8ff" points="262,-237.19 258,-231.19 262,-225.19 266,-231.19 262,-237.19"/>
</a>
</g>
<text text-anchor="middle" x="341.5" y="-284.5" font-family="Helvetica,sans-Serif" font-size="10.00" fill="grey"> +globalMotionRansacThreshold</text>
<text text-anchor="middle" x="341.5" y="-273.5" font-family="Helvetica,sans-Serif" font-size="10.00" fill="grey">+minEigenValue</text>
<text text-anchor="middle" x="341.5" y="-262.5" font-family="Helvetica,sans-Serif" font-size="10.00" fill="grey">+normSigma0</text>
<text text-anchor="middle" x="341.5" y="-251.5" font-family="Helvetica,sans-Serif" font-size="10.00" fill="grey">+normSigma1</text>
</g>
<!-- Node5 -->
<g id="Node000005" class="node">
<title>Node5</title>
<g id="a_Node000005"><a xlink:title=" ">
<polygon fill="white" stroke="transparent" points="455.5,-365 432.5,-365 432.5,-316 455.5,-316 455.5,-365"/>
<text text-anchor="start" x="438" y="-352.5" font-family="Helvetica,sans-Serif" font-size="10.00">int</text>
<text text-anchor="start" x="442.5" y="-337.5" font-family="Helvetica,sans-Serif" font-size="10.00"> </text>
<text text-anchor="start" x="442.5" y="-322.5" font-family="Helvetica,sans-Serif" font-size="10.00"> </text>
<polygon fill="#666666" stroke="#666666" points="433,-347.5 433,-347.5 456,-347.5 456,-347.5 433,-347.5"/>
<polygon fill="#666666" stroke="#666666" points="433,-332.5 433,-332.5 456,-332.5 456,-332.5 433,-332.5"/>
<polygon fill="none" stroke="#666666" points="432.5,-316 432.5,-365 455.5,-365 455.5,-316 432.5,-316"/>
</a>
</g>
</g>
<!-- Node5&#45;&gt;Node1 -->
<g id="edge4_Node000001_Node000005" class="edge">
<title>Node5&#45;&gt;Node1</title>
<g id="a_edge4_Node000001_Node000005"><a xlink:title=" ">
<path fill="none" stroke="#63b8ff" d="M442.9,-315.64C440.98,-295.03 435.81,-265.17 422,-243 407.99,-220.51 388.67,-200.19 368.3,-182.66"/>
<polygon fill="none" stroke="#63b8ff" points="368.09,-182.49 360.92,-181.72 358.88,-174.81 366.05,-175.58 368.09,-182.49"/>
</a>
</g>
<text text-anchor="middle" x="517" y="-290" font-family="Helvetica,sans-Serif" font-size="10.00" fill="grey"> +crossSegmentationThreshold</text>
<text text-anchor="middle" x="517" y="-279" font-family="Helvetica,sans-Serif" font-size="10.00" fill="grey">+largeWinSize</text>
<text text-anchor="middle" x="517" y="-268" font-family="Helvetica,sans-Serif" font-size="10.00" fill="grey">+maxIteration</text>
<text text-anchor="middle" x="517" y="-257" font-family="Helvetica,sans-Serif" font-size="10.00" fill="grey">+maxLevel</text>
<text text-anchor="middle" x="517" y="-246" font-family="Helvetica,sans-Serif" font-size="10.00" fill="grey">+smallWinSize</text>
</g>
<!-- Node6 -->
<g id="Node000006" class="node">
<title>Node6</title>
<g id="a_Node000006"><a xlink:title=" ">
<polygon fill="white" stroke="transparent" points="637,-365 605,-365 605,-316 637,-316 637,-365"/>
<text text-anchor="start" x="610" y="-352.5" font-family="Helvetica,sans-Serif" font-size="10.00">bool</text>
<text text-anchor="start" x="619" y="-337.5" font-family="Helvetica,sans-Serif" font-size="10.00"> </text>
<text text-anchor="start" x="619" y="-322.5" font-family="Helvetica,sans-Serif" font-size="10.00"> </text>
<polygon fill="#666666" stroke="#666666" points="605,-347.5 605,-347.5 637,-347.5 637,-347.5 605,-347.5"/>
<polygon fill="#666666" stroke="#666666" points="605,-332.5 605,-332.5 637,-332.5 637,-332.5 605,-332.5"/>
<polygon fill="none" stroke="#666666" points="605,-316 605,-365 637,-365 637,-316 605,-316"/>
</a>
</g>
</g>
<!-- Node6&#45;&gt;Node1 -->
<g id="edge5_Node000001_Node000006" class="edge">
<title>Node6&#45;&gt;Node1</title>
<g id="a_edge5_Node000001_Node000006"><a xlink:title=" ">
<path fill="none" stroke="#63b8ff" d="M621.29,-315.67C620.3,-294.23 615.57,-263.1 598,-243 540.41,-177.13 445.36,-144.58 371.03,-128.6"/>
<polygon fill="none" stroke="#63b8ff" points="370.57,-128.51 363.88,-131.21 358.81,-126.08 365.5,-123.38 370.57,-128.51"/>
</a>
</g>
<text text-anchor="middle" x="677.5" y="-279" font-family="Helvetica,sans-Serif" font-size="10.00" fill="grey"> +useGlobalMotionPrior</text>
<text text-anchor="middle" x="677.5" y="-268" font-family="Helvetica,sans-Serif" font-size="10.00" fill="grey">+useIlluminationModel</text>
<text text-anchor="middle" x="677.5" y="-257" font-family="Helvetica,sans-Serif" font-size="10.00" fill="grey">+useInitialFlow</text>
</g>
</g>
</svg>
