<?xml version="1.0" encoding="UTF-8" standalone="no"?>
<!DOCTYPE svg PUBLIC "-//W3C//DTD SVG 1.1//EN"
 "http://www.w3.org/Graphics/SVG/1.1/DTD/svg11.dtd">
<!-- Generated by graphviz version 2.43.0 (0)
 -->
<!-- Title: opencv2/video.hpp Pages: 1 -->
<svg width="676pt" height="137pt"
 viewBox="0.00 0.00 676.00 137.00" xmlns="http://www.w3.org/2000/svg" xmlns:xlink="http://www.w3.org/1999/xlink">
<g id="graph0" class="graph" transform="scale(1 1) rotate(0) translate(4 133)">
<title>opencv2/video.hpp</title>
<!-- Node1 -->
<g id="Node000001" class="node">
<title>Node1</title>
<g id="a_Node000001"><a xlink:title=" ">
<polygon fill="#999999" stroke="#666666" points="311,-129 202,-129 202,-110 311,-110 311,-129"/>
<text text-anchor="middle" x="256.5" y="-117" font-family="Helvetica,sans-Serif" font-size="10.00">opencv2/video.hpp</text>
</a>
</g>
</g>
<!-- Node2 -->
<g id="Node000002" class="node">
<title>Node2</title>
<g id="a_Node000002"><a xlink:href="../../d2/dce/bgsegm_8hpp.html" target="_top" xlink:title=" ">
<polygon fill="white" stroke="#666666" points="121,-74 0,-74 0,-55 121,-55 121,-74"/>
<text text-anchor="middle" x="60.5" y="-62" font-family="Helvetica,sans-Serif" font-size="10.00">opencv2/bgsegm.hpp</text>
</a>
</g>
</g>
<!-- Node1&#45;&gt;Node2 -->
<g id="edge1_Node000001_Node000002" class="edge">
<title>Node1&#45;&gt;Node2</title>
<g id="a_edge1_Node000001_Node000002"><a xlink:title=" ">
<path fill="none" stroke="#63b8ff" d="M215.12,-107.31C178.45,-97.39 125.67,-83.12 92.24,-74.08"/>
<polygon fill="#63b8ff" stroke="#63b8ff" points="214.44,-110.75 225.01,-109.98 216.27,-104 214.44,-110.75"/>
</a>
</g>
</g>
<!-- Node3 -->
<g id="Node000003" class="node">
<title>Node3</title>
<g id="a_Node000003"><a xlink:href="../../de/d67/optflow_8hpp.html" target="_top" xlink:title=" ">
<polygon fill="white" stroke="#666666" points="315,-19 198,-19 198,0 315,0 315,-19"/>
<text text-anchor="middle" x="256.5" y="-7" font-family="Helvetica,sans-Serif" font-size="10.00">opencv2/optflow.hpp</text>
</a>
</g>
</g>
<!-- Node1&#45;&gt;Node3 -->
<g id="edge2_Node000001_Node000003" class="edge">
<title>Node1&#45;&gt;Node3</title>
<g id="a_edge2_Node000001_Node000003"><a xlink:title=" ">
<path fill="none" stroke="#63b8ff" d="M210.75,-106.36C194.52,-99.61 177.95,-89.36 168.5,-74 152.32,-47.68 192.98,-29.02 224.3,-19.01"/>
<polygon fill="#63b8ff" stroke="#63b8ff" points="209.62,-109.68 220.21,-109.94 212.1,-103.13 209.62,-109.68"/>
</a>
</g>
</g>
<!-- Node4 -->
<g id="Node000004" class="node">
<title>Node4</title>
<g id="a_Node000004"><a xlink:href="../../dc/dee/pcaflow_8hpp.html" target="_top" xlink:title="Implementation of the PCAFlow algorithm from the following paper: http://files.is....">
<polygon fill="white" stroke="#666666" points="335.5,-74 177.5,-74 177.5,-55 335.5,-55 335.5,-74"/>
<text text-anchor="middle" x="256.5" y="-62" font-family="Helvetica,sans-Serif" font-size="10.00">opencv2/optflow/pcaflow.hpp</text>
</a>
</g>
</g>
<!-- Node1&#45;&gt;Node4 -->
<g id="edge3_Node000001_Node000004" class="edge">
<title>Node1&#45;&gt;Node4</title>
<g id="a_edge3_Node000001_Node000004"><a xlink:title=" ">
<path fill="none" stroke="#63b8ff" d="M256.5,-99.66C256.5,-90.93 256.5,-80.99 256.5,-74.09"/>
<polygon fill="#63b8ff" stroke="#63b8ff" points="253,-99.75 256.5,-109.75 260,-99.75 253,-99.75"/>
</a>
</g>
</g>
<!-- Node5 -->
<g id="Node000005" class="node">
<title>Node5</title>
<g id="a_Node000005"><a xlink:href="../../da/da2/rlofflow_8hpp.html" target="_top" xlink:title=" ">
<polygon fill="white" stroke="#666666" points="511,-74 354,-74 354,-55 511,-55 511,-74"/>
<text text-anchor="middle" x="432.5" y="-62" font-family="Helvetica,sans-Serif" font-size="10.00">opencv2/optflow/rlofflow.hpp</text>
</a>
</g>
</g>
<!-- Node1&#45;&gt;Node5 -->
<g id="edge5_Node000001_Node000005" class="edge">
<title>Node1&#45;&gt;Node5</title>
<g id="a_edge5_Node000001_Node000005"><a xlink:title=" ">
<path fill="none" stroke="#63b8ff" d="M294.5,-107.06C327.4,-97.15 374.24,-83.04 404,-74.08"/>
<polygon fill="#63b8ff" stroke="#63b8ff" points="293.34,-103.75 284.78,-109.98 295.36,-110.45 293.34,-103.75"/>
</a>
</g>
</g>
<!-- Node6 -->
<g id="Node000006" class="node">
<title>Node6</title>
<g id="a_Node000006"><a xlink:href="../../d9/d44/video_2include_2opencv2_2video_2video_8hpp.html" target="_top" xlink:title=" ">
<polygon fill="white" stroke="#666666" points="668,-74 529,-74 529,-55 668,-55 668,-74"/>
<text text-anchor="middle" x="598.5" y="-62" font-family="Helvetica,sans-Serif" font-size="10.00">opencv2/video/video.hpp</text>
</a>
</g>
</g>
<!-- Node1&#45;&gt;Node6 -->
<g id="edge7_Node000001_Node000006" class="edge">
<title>Node1&#45;&gt;Node6</title>
<g id="a_edge7_Node000001_Node000006"><a xlink:title=" ">
<path fill="none" stroke="#63b8ff" d="M321.09,-108.49C385.35,-98.53 482.9,-83.41 543.56,-74.01"/>
<polygon fill="#63b8ff" stroke="#63b8ff" points="320.42,-105.05 311.07,-110.04 321.49,-111.97 320.42,-105.05"/>
</a>
</g>
</g>
<!-- Node4&#45;&gt;Node3 -->
<g id="edge4_Node000004_Node000003" class="edge">
<title>Node4&#45;&gt;Node3</title>
<g id="a_edge4_Node000004_Node000003"><a xlink:title=" ">
<path fill="none" stroke="#63b8ff" d="M256.5,-44.66C256.5,-35.93 256.5,-25.99 256.5,-19.09"/>
<polygon fill="#63b8ff" stroke="#63b8ff" points="253,-44.75 256.5,-54.75 260,-44.75 253,-44.75"/>
</a>
</g>
</g>
<!-- Node5&#45;&gt;Node3 -->
<g id="edge6_Node000005_Node000003" class="edge">
<title>Node5&#45;&gt;Node3</title>
<g id="a_edge6_Node000005_Node000003"><a xlink:title=" ">
<path fill="none" stroke="#63b8ff" d="M394.5,-52.06C361.6,-42.15 314.76,-28.04 285,-19.08"/>
<polygon fill="#63b8ff" stroke="#63b8ff" points="393.64,-55.45 404.22,-54.98 395.66,-48.75 393.64,-55.45"/>
</a>
</g>
</g>
</g>
</svg>
