<?xml version="1.0" encoding="UTF-8" standalone="no"?>
<!DOCTYPE svg PUBLIC "-//W3C//DTD SVG 1.1//EN"
 "http://www.w3.org/Graphics/SVG/1.1/DTD/svg11.dtd">
<!-- Generated by graphviz version 2.43.0 (0)
 -->
<!-- Title: cv::videostab::PyrLkOptFlowEstimatorBase Pages: 1 -->
<svg width="232pt" height="496pt"
 viewBox="0.00 0.00 231.50 496.00" xmlns="http://www.w3.org/2000/svg" xmlns:xlink="http://www.w3.org/1999/xlink">
<g id="graph0" class="graph" transform="scale(1 1) rotate(0) translate(4 492)">
<title>cv::videostab::PyrLkOptFlowEstimatorBase</title>
<!-- Node1 -->
<g id="Node000001" class="node">
<title>Node1</title>
<g id="a_Node000001"><a xlink:title=" ">
<polygon fill="#999999" stroke="transparent" points="223.5,-135 47.5,-135 47.5,0 223.5,0 223.5,-135"/>
<text text-anchor="start" x="66" y="-122.5" font-family="Helvetica,sans-Serif" font-size="10.00">cv::videostab::PyrLkOptFlow</text>
<text text-anchor="start" x="99.5" y="-111.5" font-family="Helvetica,sans-Serif" font-size="10.00">EstimatorBase</text>
<text text-anchor="start" x="133.5" y="-96.5" font-family="Helvetica,sans-Serif" font-size="10.00"> </text>
<text text-anchor="start" x="51.5" y="-81.5" font-family="Helvetica,sans-Serif" font-size="10.00">+</text>
<text text-anchor="start" x="64.5" y="-81.5" font-family="Helvetica,sans-Serif" font-size="10.00">PyrLkOptFlowEstimatorBase()</text>
<text text-anchor="start" x="51.5" y="-66.5" font-family="Helvetica,sans-Serif" font-size="10.00">+</text>
<text text-anchor="start" x="64.5" y="-66.5" font-family="Helvetica,sans-Serif" font-size="10.00">~PyrLkOptFlowEstimatorBase()</text>
<text text-anchor="start" x="51.5" y="-51.5" font-family="Helvetica,sans-Serif" font-size="10.00">+</text>
<text text-anchor="start" x="64.5" y="-51.5" font-family="Helvetica,sans-Serif" font-size="10.00">maxLevel()</text>
<text text-anchor="start" x="51.5" y="-36.5" font-family="Helvetica,sans-Serif" font-size="10.00">+</text>
<text text-anchor="start" x="64.5" y="-36.5" font-family="Helvetica,sans-Serif" font-size="10.00">setMaxLevel()</text>
<text text-anchor="start" x="51.5" y="-21.5" font-family="Helvetica,sans-Serif" font-size="10.00">+</text>
<text text-anchor="start" x="64.5" y="-21.5" font-family="Helvetica,sans-Serif" font-size="10.00">setWinSize()</text>
<text text-anchor="start" x="51.5" y="-6.5" font-family="Helvetica,sans-Serif" font-size="10.00">+</text>
<text text-anchor="start" x="64.5" y="-6.5" font-family="Helvetica,sans-Serif" font-size="10.00">winSize()</text>
<polygon fill="#666666" stroke="#666666" points="47.5,-106.5 47.5,-106.5 223.5,-106.5 223.5,-106.5 47.5,-106.5"/>
<polygon fill="#666666" stroke="#666666" points="47.5,-91.5 47.5,-91.5 223.5,-91.5 223.5,-91.5 47.5,-91.5"/>
<polygon fill="none" stroke="#666666" points="47.5,0 47.5,-135 223.5,-135 223.5,0 47.5,0"/>
</a>
</g>
</g>
<!-- Node2 -->
<g id="Node000002" class="node">
<title>Node2</title>
<g id="a_Node000002"><a xlink:href="../../d6/d50/classcv_1_1Size__.html" target="_top" xlink:title="Template class for specifying the size of an image or rectangle.">
<polygon fill="white" stroke="transparent" points="145,-381 0,-381 0,-182 145,-182 145,-381"/>
<text text-anchor="start" x="32" y="-368.5" font-family="Helvetica,sans-Serif" font-size="10.00">cv::Size_&lt; _Tp &gt;</text>
<text text-anchor="start" x="71" y="-353.5" font-family="Helvetica,sans-Serif" font-size="10.00"> </text>
<text text-anchor="start" x="4.5" y="-338.5" font-family="Helvetica,sans-Serif" font-size="10.00">+</text>
<text text-anchor="start" x="17.5" y="-338.5" font-family="Helvetica,sans-Serif" font-size="10.00">Size_()</text>
<text text-anchor="start" x="4.5" y="-323.5" font-family="Helvetica,sans-Serif" font-size="10.00">+</text>
<text text-anchor="start" x="17.5" y="-323.5" font-family="Helvetica,sans-Serif" font-size="10.00">Size_()</text>
<text text-anchor="start" x="4.5" y="-308.5" font-family="Helvetica,sans-Serif" font-size="10.00">+</text>
<text text-anchor="start" x="17.5" y="-308.5" font-family="Helvetica,sans-Serif" font-size="10.00">Size_()</text>
<text text-anchor="start" x="4.5" y="-293.5" font-family="Helvetica,sans-Serif" font-size="10.00">+</text>
<text text-anchor="start" x="17.5" y="-293.5" font-family="Helvetica,sans-Serif" font-size="10.00">Size_()</text>
<text text-anchor="start" x="4.5" y="-278.5" font-family="Helvetica,sans-Serif" font-size="10.00">+</text>
<text text-anchor="start" x="17.5" y="-278.5" font-family="Helvetica,sans-Serif" font-size="10.00">Size_()</text>
<text text-anchor="start" x="4.5" y="-263.5" font-family="Helvetica,sans-Serif" font-size="10.00">+</text>
<text text-anchor="start" x="17.5" y="-263.5" font-family="Helvetica,sans-Serif" font-size="10.00">area()</text>
<text text-anchor="start" x="4.5" y="-248.5" font-family="Helvetica,sans-Serif" font-size="10.00">+</text>
<text text-anchor="start" x="17.5" y="-248.5" font-family="Helvetica,sans-Serif" font-size="10.00">aspectRatio()</text>
<text text-anchor="start" x="4.5" y="-233.5" font-family="Helvetica,sans-Serif" font-size="10.00">+</text>
<text text-anchor="start" x="17.5" y="-233.5" font-family="Helvetica,sans-Serif" font-size="10.00">empty()</text>
<text text-anchor="start" x="4.5" y="-218.5" font-family="Helvetica,sans-Serif" font-size="10.00">+</text>
<text text-anchor="start" x="17.5" y="-218.5" font-family="Helvetica,sans-Serif" font-size="10.00">operator Size_&lt; _Tp2 &gt;()</text>
<text text-anchor="start" x="4.5" y="-203.5" font-family="Helvetica,sans-Serif" font-size="10.00">+</text>
<text text-anchor="start" x="17.5" y="-203.5" font-family="Helvetica,sans-Serif" font-size="10.00">operator=()</text>
<text text-anchor="start" x="4.5" y="-188.5" font-family="Helvetica,sans-Serif" font-size="10.00">+</text>
<text text-anchor="start" x="17.5" y="-188.5" font-family="Helvetica,sans-Serif" font-size="10.00">operator=()</text>
<polygon fill="#666666" stroke="#666666" points="0.5,-363.5 0.5,-363.5 145.5,-363.5 145.5,-363.5 0.5,-363.5"/>
<polygon fill="#666666" stroke="#666666" points="0.5,-348.5 0.5,-348.5 145.5,-348.5 145.5,-348.5 0.5,-348.5"/>
<polygon fill="none" stroke="#666666" points="0,-182 0,-381 145,-381 145,-182 0,-182"/>
</a>
</g>
</g>
<!-- Node2&#45;&gt;Node1 -->
<g id="edge1_Node000001_Node000002" class="edge">
<title>Node2&#45;&gt;Node1</title>
<g id="a_edge1_Node000001_Node000002"><a xlink:title=" ">
<path fill="none" stroke="#63b8ff" d="M84.76,-181.96C86.94,-172.08 89.5,-162.27 92.5,-153 93.22,-150.77 94,-148.52 94.82,-146.27"/>
<polygon fill="none" stroke="#63b8ff" points="94.85,-146.19 93.33,-139.14 99.25,-135.02 100.77,-142.07 94.85,-146.19"/>
</a>
</g>
<text text-anchor="middle" x="120" y="-156" font-family="Helvetica,sans-Serif" font-size="10.00" fill="grey"> #winSize_</text>
</g>
<!-- Node3 -->
<g id="Node000003" class="node">
<title>Node3</title>
<g id="a_Node000003"><a xlink:href="../../d1/dd7/class__Tp.html" target="_top" xlink:title=" ">
<polygon fill="white" stroke="transparent" points="86.5,-488 58.5,-488 58.5,-439 86.5,-439 86.5,-488"/>
<text text-anchor="start" x="63.5" y="-475.5" font-family="Helvetica,sans-Serif" font-size="10.00">_Tp</text>
<text text-anchor="start" x="70.5" y="-460.5" font-family="Helvetica,sans-Serif" font-size="10.00"> </text>
<text text-anchor="start" x="70.5" y="-445.5" font-family="Helvetica,sans-Serif" font-size="10.00"> </text>
<polygon fill="#666666" stroke="#666666" points="58.5,-470.5 58.5,-470.5 86.5,-470.5 86.5,-470.5 58.5,-470.5"/>
<polygon fill="#666666" stroke="#666666" points="58.5,-455.5 58.5,-455.5 86.5,-455.5 86.5,-455.5 58.5,-455.5"/>
<polygon fill="none" stroke="#666666" points="58.5,-439 58.5,-488 86.5,-488 86.5,-439 58.5,-439"/>
</a>
</g>
</g>
<!-- Node3&#45;&gt;Node2 -->
<g id="edge2_Node000002_Node000003" class="edge">
<title>Node3&#45;&gt;Node2</title>
<g id="a_edge2_Node000002_Node000003"><a xlink:title=" ">
<path fill="none" stroke="#63b8ff" d="M72.5,-438.97C72.5,-426.58 72.5,-410.4 72.5,-393.14"/>
<polygon fill="none" stroke="#63b8ff" points="72.5,-393.06 68.5,-387.06 72.5,-381.06 76.5,-387.06 72.5,-393.06"/>
</a>
</g>
<text text-anchor="middle" x="94" y="-413" font-family="Helvetica,sans-Serif" font-size="10.00" fill="grey"> +height</text>
<text text-anchor="middle" x="94" y="-402" font-family="Helvetica,sans-Serif" font-size="10.00" fill="grey">+width</text>
</g>
<!-- Node4 -->
<g id="Node000004" class="node">
<title>Node4</title>
<g id="a_Node000004"><a xlink:title=" ">
<polygon fill="white" stroke="transparent" points="186,-306 163,-306 163,-257 186,-257 186,-306"/>
<text text-anchor="start" x="168.5" y="-293.5" font-family="Helvetica,sans-Serif" font-size="10.00">int</text>
<text text-anchor="start" x="173" y="-278.5" font-family="Helvetica,sans-Serif" font-size="10.00"> </text>
<text text-anchor="start" x="173" y="-263.5" font-family="Helvetica,sans-Serif" font-size="10.00"> </text>
<polygon fill="#666666" stroke="#666666" points="163.5,-288.5 163.5,-288.5 186.5,-288.5 186.5,-288.5 163.5,-288.5"/>
<polygon fill="#666666" stroke="#666666" points="163.5,-273.5 163.5,-273.5 186.5,-273.5 186.5,-273.5 163.5,-273.5"/>
<polygon fill="none" stroke="#666666" points="163,-257 163,-306 186,-306 186,-257 163,-257"/>
</a>
</g>
</g>
<!-- Node4&#45;&gt;Node1 -->
<g id="edge3_Node000001_Node000004" class="edge">
<title>Node4&#45;&gt;Node1</title>
<g id="a_edge3_Node000001_Node000004"><a xlink:title=" ">
<path fill="none" stroke="#63b8ff" d="M170.1,-256.59C165.23,-230.1 157.11,-185.97 149.96,-147.11"/>
<polygon fill="none" stroke="#63b8ff" points="149.95,-147.05 144.93,-141.87 147.78,-135.24 152.8,-140.42 149.95,-147.05"/>
</a>
</g>
<text text-anchor="middle" x="185" y="-156" font-family="Helvetica,sans-Serif" font-size="10.00" fill="grey"> #maxLevel_</text>
</g>
</g>
</svg>
