<?xml version="1.0" encoding="UTF-8" standalone="no"?>
<!DOCTYPE svg PUBLIC "-//W3C//DTD SVG 1.1//EN"
 "http://www.w3.org/Graphics/SVG/1.1/DTD/svg11.dtd">
<!-- Generated by graphviz version 2.43.0 (0)
 -->
<!-- Title: opencv2/video/tracking.hpp Pages: 1 -->
<svg width="859pt" height="192pt"
 viewBox="0.00 0.00 858.50 192.00" xmlns="http://www.w3.org/2000/svg" xmlns:xlink="http://www.w3.org/1999/xlink">
<g id="graph0" class="graph" transform="scale(1 1) rotate(0) translate(4 188)">
<title>opencv2/video/tracking.hpp</title>
<!-- Node1 -->
<g id="Node000001" class="node">
<title>Node1</title>
<g id="a_Node000001"><a xlink:title=" ">
<polygon fill="#999999" stroke="#666666" points="336,-184 184,-184 184,-165 336,-165 336,-184"/>
<text text-anchor="middle" x="260" y="-172" font-family="Helvetica,sans-Serif" font-size="10.00">opencv2/video/tracking.hpp</text>
</a>
</g>
</g>
<!-- Node2 -->
<g id="Node000002" class="node">
<title>Node2</title>
<g id="a_Node000002"><a xlink:href="../../de/df6/contrib_2modules_2tracking_2include_2opencv2_2tracking_8hpp.html" target="_top" xlink:title=" ">
<polygon fill="white" stroke="#666666" points="254,-129 132,-129 132,-110 254,-110 254,-129"/>
<text text-anchor="middle" x="193" y="-117" font-family="Helvetica,sans-Serif" font-size="10.00">opencv2/tracking.hpp</text>
</a>
</g>
</g>
<!-- Node1&#45;&gt;Node2 -->
<g id="edge1_Node000001_Node000002" class="edge">
<title>Node1&#45;&gt;Node2</title>
<g id="a_edge1_Node000001_Node000002"><a xlink:title=" ">
<path fill="none" stroke="#63b8ff" d="M241.17,-158.6C229.16,-149.11 214.03,-137.13 203.96,-129.17"/>
<polygon fill="#63b8ff" stroke="#63b8ff" points="239.22,-161.53 249.24,-164.98 243.56,-156.04 239.22,-161.53"/>
</a>
</g>
</g>
<!-- Node4 -->
<g id="Node000004" class="node">
<title>Node4</title>
<g id="a_Node000004"><a xlink:href="../../d0/d1c/video_2include_2opencv2_2video_8hpp.html" target="_top" xlink:title=" ">
<polygon fill="white" stroke="#666666" points="439.5,-129 330.5,-129 330.5,-110 439.5,-110 439.5,-129"/>
<text text-anchor="middle" x="385" y="-117" font-family="Helvetica,sans-Serif" font-size="10.00">opencv2/video.hpp</text>
</a>
</g>
</g>
<!-- Node1&#45;&gt;Node4 -->
<g id="edge3_Node000001_Node000004" class="edge">
<title>Node1&#45;&gt;Node4</title>
<g id="a_edge3_Node000001_Node000004"><a xlink:title=" ">
<path fill="none" stroke="#63b8ff" d="M289.41,-161.03C312.53,-151.23 344.13,-137.83 364.55,-129.17"/>
<polygon fill="#63b8ff" stroke="#63b8ff" points="287.92,-157.86 280.08,-164.98 290.66,-164.3 287.92,-157.86"/>
</a>
</g>
</g>
<!-- Node3 -->
<g id="Node000003" class="node">
<title>Node3</title>
<g id="a_Node000003"><a xlink:href="../../d4/d89/contrib_2modules_2tracking_2include_2opencv2_2tracking_2tracking_8hpp.html" target="_top" xlink:title=" ">
<polygon fill="white" stroke="#666666" points="164,-74 0,-74 0,-55 164,-55 164,-74"/>
<text text-anchor="middle" x="82" y="-62" font-family="Helvetica,sans-Serif" font-size="10.00">opencv2/tracking/tracking.hpp</text>
</a>
</g>
</g>
<!-- Node2&#45;&gt;Node3 -->
<g id="edge2_Node000002_Node000003" class="edge">
<title>Node2&#45;&gt;Node3</title>
<g id="a_edge2_Node000002_Node000003"><a xlink:title=" ">
<path fill="none" stroke="#63b8ff" d="M166.05,-105.63C145.61,-95.87 118.05,-82.71 100.16,-74.17"/>
<polygon fill="#63b8ff" stroke="#63b8ff" points="164.63,-108.83 175.17,-109.98 167.65,-102.52 164.63,-108.83"/>
</a>
</g>
</g>
<!-- Node5 -->
<g id="Node000005" class="node">
<title>Node5</title>
<g id="a_Node000005"><a xlink:href="../../d2/dce/bgsegm_8hpp.html" target="_top" xlink:title=" ">
<polygon fill="white" stroke="#666666" points="303.5,-74 182.5,-74 182.5,-55 303.5,-55 303.5,-74"/>
<text text-anchor="middle" x="243" y="-62" font-family="Helvetica,sans-Serif" font-size="10.00">opencv2/bgsegm.hpp</text>
</a>
</g>
</g>
<!-- Node4&#45;&gt;Node5 -->
<g id="edge4_Node000004_Node000005" class="edge">
<title>Node4&#45;&gt;Node5</title>
<g id="a_edge4_Node000004_Node000005"><a xlink:title=" ">
<path fill="none" stroke="#63b8ff" d="M352.64,-106.42C326.29,-96.59 289.74,-82.95 266.23,-74.17"/>
<polygon fill="#63b8ff" stroke="#63b8ff" points="351.59,-109.77 362.19,-109.98 354.04,-103.21 351.59,-109.77"/>
</a>
</g>
</g>
<!-- Node6 -->
<g id="Node000006" class="node">
<title>Node6</title>
<g id="a_Node000006"><a xlink:href="../../de/d67/optflow_8hpp.html" target="_top" xlink:title=" ">
<polygon fill="white" stroke="#666666" points="497.5,-19 380.5,-19 380.5,0 497.5,0 497.5,-19"/>
<text text-anchor="middle" x="439" y="-7" font-family="Helvetica,sans-Serif" font-size="10.00">opencv2/optflow.hpp</text>
</a>
</g>
</g>
<!-- Node4&#45;&gt;Node6 -->
<g id="edge5_Node000004_Node000006" class="edge">
<title>Node4&#45;&gt;Node6</title>
<g id="a_edge5_Node000004_Node000006"><a xlink:title=" ">
<path fill="none" stroke="#63b8ff" d="M366.98,-102.76C354.32,-89.73 341.25,-70.85 351,-55 362.3,-36.62 383.79,-25.56 402.71,-19.06"/>
<polygon fill="#63b8ff" stroke="#63b8ff" points="364.57,-105.29 374.21,-109.69 369.41,-100.24 364.57,-105.29"/>
</a>
</g>
</g>
<!-- Node7 -->
<g id="Node000007" class="node">
<title>Node7</title>
<g id="a_Node000007"><a xlink:href="../../dc/dee/pcaflow_8hpp.html" target="_top" xlink:title="Implementation of the PCAFlow algorithm from the following paper: http://files.is....">
<polygon fill="white" stroke="#666666" points="518,-74 360,-74 360,-55 518,-55 518,-74"/>
<text text-anchor="middle" x="439" y="-62" font-family="Helvetica,sans-Serif" font-size="10.00">opencv2/optflow/pcaflow.hpp</text>
</a>
</g>
</g>
<!-- Node4&#45;&gt;Node7 -->
<g id="edge6_Node000004_Node000007" class="edge">
<title>Node4&#45;&gt;Node7</title>
<g id="a_edge6_Node000004_Node000007"><a xlink:title=" ">
<path fill="none" stroke="#63b8ff" d="M401.28,-102.52C410.8,-93.18 422.44,-81.75 430.25,-74.09"/>
<polygon fill="#63b8ff" stroke="#63b8ff" points="398.6,-100.25 393.92,-109.75 403.51,-105.24 398.6,-100.25"/>
</a>
</g>
</g>
<!-- Node8 -->
<g id="Node000008" class="node">
<title>Node8</title>
<g id="a_Node000008"><a xlink:href="../../da/da2/rlofflow_8hpp.html" target="_top" xlink:title=" ">
<polygon fill="white" stroke="#666666" points="693.5,-74 536.5,-74 536.5,-55 693.5,-55 693.5,-74"/>
<text text-anchor="middle" x="615" y="-62" font-family="Helvetica,sans-Serif" font-size="10.00">opencv2/optflow/rlofflow.hpp</text>
</a>
</g>
</g>
<!-- Node4&#45;&gt;Node8 -->
<g id="edge8_Node000004_Node000008" class="edge">
<title>Node4&#45;&gt;Node8</title>
<g id="a_edge8_Node000004_Node000008"><a xlink:title=" ">
<path fill="none" stroke="#63b8ff" d="M431.91,-107.69C475,-97.76 538.03,-83.24 577.76,-74.08"/>
<polygon fill="#63b8ff" stroke="#63b8ff" points="430.91,-104.33 421.95,-109.98 432.48,-111.15 430.91,-104.33"/>
</a>
</g>
</g>
<!-- Node9 -->
<g id="Node000009" class="node">
<title>Node9</title>
<g id="a_Node000009"><a xlink:href="../../d9/d44/video_2include_2opencv2_2video_2video_8hpp.html" target="_top" xlink:title=" ">
<polygon fill="white" stroke="#666666" points="850.5,-74 711.5,-74 711.5,-55 850.5,-55 850.5,-74"/>
<text text-anchor="middle" x="781" y="-62" font-family="Helvetica,sans-Serif" font-size="10.00">opencv2/video/video.hpp</text>
</a>
</g>
</g>
<!-- Node4&#45;&gt;Node9 -->
<g id="edge10_Node000004_Node000009" class="edge">
<title>Node4&#45;&gt;Node9</title>
<g id="a_edge10_Node000004_Node000009"><a xlink:title=" ">
<path fill="none" stroke="#63b8ff" d="M449.77,-109.83C523.73,-99.93 643.97,-83.84 717.43,-74.01"/>
<polygon fill="#63b8ff" stroke="#63b8ff" points="449.09,-106.39 439.65,-111.19 450.02,-113.33 449.09,-106.39"/>
</a>
</g>
</g>
<!-- Node7&#45;&gt;Node6 -->
<g id="edge7_Node000007_Node000006" class="edge">
<title>Node7&#45;&gt;Node6</title>
<g id="a_edge7_Node000007_Node000006"><a xlink:title=" ">
<path fill="none" stroke="#63b8ff" d="M439,-44.66C439,-35.93 439,-25.99 439,-19.09"/>
<polygon fill="#63b8ff" stroke="#63b8ff" points="435.5,-44.75 439,-54.75 442.5,-44.75 435.5,-44.75"/>
</a>
</g>
</g>
<!-- Node8&#45;&gt;Node6 -->
<g id="edge9_Node000008_Node000006" class="edge">
<title>Node8&#45;&gt;Node6</title>
<g id="a_edge9_Node000008_Node000006"><a xlink:title=" ">
<path fill="none" stroke="#63b8ff" d="M577,-52.06C544.1,-42.15 497.26,-28.04 467.5,-19.08"/>
<polygon fill="#63b8ff" stroke="#63b8ff" points="576.14,-55.45 586.72,-54.98 578.16,-48.75 576.14,-55.45"/>
</a>
</g>
</g>
</g>
</svg>
