<?xml version="1.0" encoding="UTF-8" standalone="no"?>
<!DOCTYPE svg PUBLIC "-//W3C//DTD SVG 1.1//EN"
 "http://www.w3.org/Graphics/SVG/1.1/DTD/svg11.dtd">
<!-- Generated by graphviz version 2.43.0 (0)
 -->
<!-- Title: cv::datasets::OR_sunObj Pages: 1 -->
<svg width="253pt" height="250pt"
 viewBox="0.00 0.00 252.50 250.00" xmlns="http://www.w3.org/2000/svg" xmlns:xlink="http://www.w3.org/1999/xlink">
<g id="graph0" class="graph" transform="scale(1 1) rotate(0) translate(4 246)">
<title>cv::datasets::OR_sunObj</title>
<!-- Node1 -->
<g id="Node000001" class="node">
<title>Node1</title>
<g id="a_Node000001"><a xlink:title=" ">
<polygon fill="#999999" stroke="transparent" points="200.5,-49 72.5,-49 72.5,0 200.5,0 200.5,-49"/>
<text text-anchor="start" x="77.5" y="-36.5" font-family="Helvetica,sans-Serif" font-size="10.00">cv::datasets::OR_sunObj</text>
<text text-anchor="start" x="134.5" y="-21.5" font-family="Helvetica,sans-Serif" font-size="10.00"> </text>
<text text-anchor="start" x="134.5" y="-6.5" font-family="Helvetica,sans-Serif" font-size="10.00"> </text>
<polygon fill="#666666" stroke="#666666" points="72.5,-31.5 72.5,-31.5 200.5,-31.5 200.5,-31.5 72.5,-31.5"/>
<polygon fill="#666666" stroke="#666666" points="72.5,-16.5 72.5,-16.5 200.5,-16.5 200.5,-16.5 72.5,-16.5"/>
<polygon fill="none" stroke="#666666" points="72.5,0 72.5,-49 200.5,-49 200.5,0 72.5,0"/>
</a>
</g>
</g>
<!-- Node2 -->
<g id="Node000002" class="node">
<title>Node2</title>
<g id="a_Node000002"><a xlink:href="../../de/d47/structcv_1_1datasets_1_1Object.html" target="_top" xlink:title=" ">
<polygon fill="white" stroke="transparent" points="107,-145 0,-145 0,-96 107,-96 107,-145"/>
<text text-anchor="start" x="5.5" y="-132.5" font-family="Helvetica,sans-Serif" font-size="10.00">cv::datasets::Object</text>
<text text-anchor="start" x="52" y="-117.5" font-family="Helvetica,sans-Serif" font-size="10.00"> </text>
<text text-anchor="start" x="52" y="-102.5" font-family="Helvetica,sans-Serif" font-size="10.00"> </text>
<polygon fill="#666666" stroke="#666666" points="0.5,-127.5 0.5,-127.5 107.5,-127.5 107.5,-127.5 0.5,-127.5"/>
<polygon fill="#666666" stroke="#666666" points="0.5,-112.5 0.5,-112.5 107.5,-112.5 107.5,-112.5 0.5,-112.5"/>
<polygon fill="none" stroke="#666666" points="0,-96 0,-145 107,-145 107,-96 0,-96"/>
</a>
</g>
</g>
<!-- Node2&#45;&gt;Node1 -->
<g id="edge1_Node000001_Node000002" class="edge">
<title>Node2&#45;&gt;Node1</title>
<g id="a_edge1_Node000001_Node000002"><a xlink:title=" ">
<path fill="none" stroke="#63b8ff" d="M81.2,-88.13C92.41,-75.43 105.14,-61.01 115.56,-49.21"/>
<polygon fill="none" stroke="#63b8ff" points="78.44,-85.97 74.44,-95.78 83.69,-90.6 78.44,-85.97"/>
</a>
</g>
</g>
<!-- Node3 -->
<g id="Node000003" class="node">
<title>Node3</title>
<g id="a_Node000003"><a xlink:title=" ">
<polygon fill="white" stroke="transparent" points="148,-145 125,-145 125,-96 148,-96 148,-145"/>
<text text-anchor="start" x="130.5" y="-132.5" font-family="Helvetica,sans-Serif" font-size="10.00">int</text>
<text text-anchor="start" x="135" y="-117.5" font-family="Helvetica,sans-Serif" font-size="10.00"> </text>
<text text-anchor="start" x="135" y="-102.5" font-family="Helvetica,sans-Serif" font-size="10.00"> </text>
<polygon fill="#666666" stroke="#666666" points="125.5,-127.5 125.5,-127.5 148.5,-127.5 148.5,-127.5 125.5,-127.5"/>
<polygon fill="#666666" stroke="#666666" points="125.5,-112.5 125.5,-112.5 148.5,-112.5 148.5,-112.5 125.5,-112.5"/>
<polygon fill="none" stroke="#666666" points="125,-96 125,-145 148,-145 148,-96 125,-96"/>
</a>
</g>
</g>
<!-- Node3&#45;&gt;Node1 -->
<g id="edge2_Node000001_Node000003" class="edge">
<title>Node3&#45;&gt;Node1</title>
<g id="a_edge2_Node000001_Node000003"><a xlink:title=" ">
<path fill="none" stroke="#63b8ff" d="M136.5,-95.78C136.5,-85.32 136.5,-72.79 136.5,-61.23"/>
<polygon fill="none" stroke="#63b8ff" points="136.5,-61.21 132.5,-55.21 136.5,-49.21 140.5,-55.21 136.5,-61.21"/>
</a>
</g>
<text text-anchor="middle" x="154.5" y="-70" font-family="Helvetica,sans-Serif" font-size="10.00" fill="grey"> +label</text>
</g>
<!-- Node4 -->
<g id="Node000004" class="node">
<title>Node4</title>
<g id="a_Node000004"><a xlink:title=" ">
<polygon fill="white" stroke="transparent" points="225,-145 166,-145 166,-96 225,-96 225,-145"/>
<text text-anchor="start" x="171.5" y="-132.5" font-family="Helvetica,sans-Serif" font-size="10.00">std::string</text>
<text text-anchor="start" x="194" y="-117.5" font-family="Helvetica,sans-Serif" font-size="10.00"> </text>
<text text-anchor="start" x="194" y="-102.5" font-family="Helvetica,sans-Serif" font-size="10.00"> </text>
<polygon fill="#666666" stroke="#666666" points="166.5,-127.5 166.5,-127.5 225.5,-127.5 225.5,-127.5 166.5,-127.5"/>
<polygon fill="#666666" stroke="#666666" points="166.5,-112.5 166.5,-112.5 225.5,-112.5 225.5,-112.5 166.5,-112.5"/>
<polygon fill="none" stroke="#666666" points="166,-96 166,-145 225,-145 225,-96 166,-96"/>
</a>
</g>
</g>
<!-- Node4&#45;&gt;Node1 -->
<g id="edge3_Node000001_Node000004" class="edge">
<title>Node4&#45;&gt;Node1</title>
<g id="a_edge3_Node000001_Node000004"><a xlink:title=" ">
<path fill="none" stroke="#63b8ff" d="M187.55,-95.94C183.91,-86.58 179.14,-75.95 173.5,-67 171.77,-64.26 169.87,-61.53 167.85,-58.85"/>
<polygon fill="none" stroke="#63b8ff" points="167.79,-58.77 160.9,-56.62 160.24,-49.44 167.12,-51.59 167.79,-58.77"/>
</a>
</g>
<text text-anchor="middle" x="199.5" y="-70" font-family="Helvetica,sans-Serif" font-size="10.00" fill="grey"> +name</text>
</g>
<!-- Node5 -->
<g id="Node000005" class="node">
<title>Node5</title>
<g id="a_Node000005"><a xlink:title=" ">
<polygon fill="white" stroke="transparent" points="244.5,-242 146.5,-242 146.5,-182 244.5,-182 244.5,-242"/>
<text text-anchor="start" x="151.5" y="-230" font-family="Helvetica,sans-Serif" font-size="10.00">std::basic_string&lt;</text>
<text text-anchor="start" x="177" y="-219" font-family="Helvetica,sans-Serif" font-size="10.00"> Char &gt;</text>
<text text-anchor="start" x="193.5" y="-204" font-family="Helvetica,sans-Serif" font-size="10.00"> </text>
<text text-anchor="start" x="193.5" y="-189" font-family="Helvetica,sans-Serif" font-size="10.00"> </text>
<polygon fill="#666666" stroke="#666666" points="146.5,-214 146.5,-214 244.5,-214 244.5,-214 146.5,-214"/>
<polygon fill="#666666" stroke="#666666" points="146.5,-199 146.5,-199 244.5,-199 244.5,-199 146.5,-199"/>
<polygon fill="none" stroke="#666666" points="146.5,-182 146.5,-242 244.5,-242 244.5,-182 146.5,-182"/>
</a>
</g>
</g>
<!-- Node5&#45;&gt;Node4 -->
<g id="edge4_Node000004_Node000005" class="edge">
<title>Node5&#45;&gt;Node4</title>
<g id="a_edge4_Node000004_Node000005"><a xlink:title=" ">
<path fill="none" stroke="#63b8ff" d="M195.5,-171.41C195.5,-162.47 195.5,-153.25 195.5,-145.21"/>
<polygon fill="none" stroke="#63b8ff" points="192,-171.69 195.5,-181.69 199,-171.69 192,-171.69"/>
</a>
</g>
</g>
</g>
</svg>
