<?xml version="1.0" encoding="UTF-8" standalone="no"?>
<!DOCTYPE svg PUBLIC "-//W3C//DTD SVG 1.1//EN"
 "http://www.w3.org/Graphics/SVG/1.1/DTD/svg11.dtd">
<!-- Generated by graphviz version 2.43.0 (0)
 -->
<!-- Title: opencv2/reg/mapper.hpp Pages: 1 -->
<svg width="1208pt" height="82pt"
 viewBox="0.00 0.00 1207.50 82.00" xmlns="http://www.w3.org/2000/svg" xmlns:xlink="http://www.w3.org/1999/xlink">
<g id="graph0" class="graph" transform="scale(1 1) rotate(0) translate(4 78)">
<title>opencv2/reg/mapper.hpp</title>
<!-- Node1 -->
<g id="Node000001" class="node">
<title>Node1</title>
<g id="a_Node000001"><a xlink:title=" ">
<polygon fill="#999999" stroke="#666666" points="670.5,-74 533.5,-74 533.5,-55 670.5,-55 670.5,-74"/>
<text text-anchor="middle" x="602" y="-62" font-family="Helvetica,sans-Serif" font-size="10.00">opencv2/reg/mapper.hpp</text>
</a>
</g>
</g>
<!-- Node2 -->
<g id="Node000002" class="node">
<title>Node2</title>
<g id="a_Node000002"><a xlink:href="../../d7/d89/mappergradaffine_8hpp.html" target="_top" xlink:title=" ">
<polygon fill="white" stroke="#666666" points="188,-19 0,-19 0,0 188,0 188,-19"/>
<text text-anchor="middle" x="94" y="-7" font-family="Helvetica,sans-Serif" font-size="10.00">opencv2/reg/mappergradaffine.hpp</text>
</a>
</g>
</g>
<!-- Node1&#45;&gt;Node2 -->
<g id="edge1_Node000001_Node000002" class="edge">
<title>Node1&#45;&gt;Node2</title>
<g id="a_edge1_Node000001_Node000002"><a xlink:title=" ">
<path fill="none" stroke="#63b8ff" d="M523.43,-55.3C429.03,-45.45 271.44,-29.01 175.68,-19.02"/>
<polygon fill="#63b8ff" stroke="#63b8ff" points="523.18,-58.8 533.49,-56.35 523.91,-51.83 523.18,-58.8"/>
</a>
</g>
</g>
<!-- Node3 -->
<g id="Node000003" class="node">
<title>Node3</title>
<g id="a_Node000003"><a xlink:href="../../d3/d4e/mappergradeuclid_8hpp.html" target="_top" xlink:title=" ">
<polygon fill="white" stroke="#666666" points="395.5,-19 206.5,-19 206.5,0 395.5,0 395.5,-19"/>
<text text-anchor="middle" x="301" y="-7" font-family="Helvetica,sans-Serif" font-size="10.00">opencv2/reg/mappergradeuclid.hpp</text>
</a>
</g>
</g>
<!-- Node1&#45;&gt;Node3 -->
<g id="edge2_Node000001_Node000003" class="edge">
<title>Node1&#45;&gt;Node3</title>
<g id="a_edge2_Node000001_Node000003"><a xlink:title=" ">
<path fill="none" stroke="#63b8ff" d="M543.44,-53.19C487.01,-43.25 402.61,-28.39 349.74,-19.08"/>
<polygon fill="#63b8ff" stroke="#63b8ff" points="543.18,-56.7 553.64,-54.98 544.4,-49.8 543.18,-56.7"/>
</a>
</g>
</g>
<!-- Node4 -->
<g id="Node000004" class="node">
<title>Node4</title>
<g id="a_Node000004"><a xlink:href="../../d2/d7f/mappergradproj_8hpp.html" target="_top" xlink:title=" ">
<polygon fill="white" stroke="#666666" points="592.5,-19 413.5,-19 413.5,0 592.5,0 592.5,-19"/>
<text text-anchor="middle" x="503" y="-7" font-family="Helvetica,sans-Serif" font-size="10.00">opencv2/reg/mappergradproj.hpp</text>
</a>
</g>
</g>
<!-- Node1&#45;&gt;Node4 -->
<g id="edge3_Node000001_Node000004" class="edge">
<title>Node1&#45;&gt;Node4</title>
<g id="a_edge3_Node000001_Node000004"><a xlink:title=" ">
<path fill="none" stroke="#63b8ff" d="M577.22,-50.23C559.06,-40.51 534.94,-27.6 519.2,-19.17"/>
<polygon fill="#63b8ff" stroke="#63b8ff" points="575.63,-53.35 586.09,-54.98 578.93,-47.18 575.63,-53.35"/>
</a>
</g>
</g>
<!-- Node5 -->
<g id="Node000005" class="node">
<title>Node5</title>
<g id="a_Node000005"><a xlink:href="../../dc/d62/mappergradshift_8hpp.html" target="_top" xlink:title=" ">
<polygon fill="white" stroke="#666666" points="791.5,-19 610.5,-19 610.5,0 791.5,0 791.5,-19"/>
<text text-anchor="middle" x="701" y="-7" font-family="Helvetica,sans-Serif" font-size="10.00">opencv2/reg/mappergradshift.hpp</text>
</a>
</g>
</g>
<!-- Node1&#45;&gt;Node5 -->
<g id="edge4_Node000001_Node000005" class="edge">
<title>Node1&#45;&gt;Node5</title>
<g id="a_edge4_Node000001_Node000005"><a xlink:title=" ">
<path fill="none" stroke="#63b8ff" d="M626.78,-50.23C644.94,-40.51 669.06,-27.6 684.8,-19.17"/>
<polygon fill="#63b8ff" stroke="#63b8ff" points="625.07,-47.18 617.91,-54.98 628.37,-53.35 625.07,-47.18"/>
</a>
</g>
</g>
<!-- Node6 -->
<g id="Node000006" class="node">
<title>Node6</title>
<g id="a_Node000006"><a xlink:href="../../d1/d14/mappergradsimilar_8hpp.html" target="_top" xlink:title=" ">
<polygon fill="white" stroke="#666666" points="1002.5,-19 809.5,-19 809.5,0 1002.5,0 1002.5,-19"/>
<text text-anchor="middle" x="906" y="-7" font-family="Helvetica,sans-Serif" font-size="10.00">opencv2/reg/mappergradsimilar.hpp</text>
</a>
</g>
</g>
<!-- Node1&#45;&gt;Node6 -->
<g id="edge5_Node000001_Node000006" class="edge">
<title>Node1&#45;&gt;Node6</title>
<g id="a_edge5_Node000001_Node000006"><a xlink:title=" ">
<path fill="none" stroke="#63b8ff" d="M660.8,-53.25C717.89,-43.3 803.54,-28.36 857.03,-19.04"/>
<polygon fill="#63b8ff" stroke="#63b8ff" points="660.09,-49.82 650.84,-54.98 661.3,-56.72 660.09,-49.82"/>
</a>
</g>
</g>
<!-- Node7 -->
<g id="Node000007" class="node">
<title>Node7</title>
<g id="a_Node000007"><a xlink:href="../../de/da9/mapperpyramid_8hpp.html" target="_top" xlink:title=" ">
<polygon fill="white" stroke="#666666" points="1199.5,-19 1020.5,-19 1020.5,0 1199.5,0 1199.5,-19"/>
<text text-anchor="middle" x="1110" y="-7" font-family="Helvetica,sans-Serif" font-size="10.00">opencv2/reg/mapperpyramid.hpp</text>
</a>
</g>
</g>
<!-- Node1&#45;&gt;Node7 -->
<g id="edge6_Node000001_Node000007" class="edge">
<title>Node1&#45;&gt;Node7</title>
<g id="a_edge6_Node000001_Node000007"><a xlink:title=" ">
<path fill="none" stroke="#63b8ff" d="M680.57,-55.3C774.97,-45.45 932.56,-29.01 1028.32,-19.02"/>
<polygon fill="#63b8ff" stroke="#63b8ff" points="680.09,-51.83 670.51,-56.35 680.82,-58.8 680.09,-51.83"/>
</a>
</g>
</g>
</g>
</svg>
