<?xml version="1.0" encoding="UTF-8" standalone="no"?>
<!DOCTYPE svg PUBLIC "-//W3C//DTD SVG 1.1//EN"
 "http://www.w3.org/Graphics/SVG/1.1/DTD/svg11.dtd">
<!-- Generated by graphviz version 2.43.0 (0)
 -->
<!-- Title: cv::cudev::SobelXPtrSz&lt; SrcPtr &gt; Pages: 1 -->
<svg width="186pt" height="282pt"
 viewBox="0.00 0.00 185.50 282.00" xmlns="http://www.w3.org/2000/svg" xmlns:xlink="http://www.w3.org/1999/xlink">
<g id="graph0" class="graph" transform="scale(1 1) rotate(0) translate(4 278)">
<title>cv::cudev::SobelXPtrSz&lt; SrcPtr &gt;</title>
<!-- Node1 -->
<g id="Node000001" class="node">
<title>Node1</title>
<g id="a_Node000001"><a xlink:title=" ">
<polygon fill="#999999" stroke="transparent" points="177.5,-60 57.5,-60 57.5,0 177.5,0 177.5,-60"/>
<text text-anchor="start" x="62.5" y="-48" font-family="Helvetica,sans-Serif" font-size="10.00">cv::cudev::SobelXPtrSz</text>
<text text-anchor="start" x="91.5" y="-37" font-family="Helvetica,sans-Serif" font-size="10.00">&lt; SrcPtr &gt;</text>
<text text-anchor="start" x="115.5" y="-22" font-family="Helvetica,sans-Serif" font-size="10.00"> </text>
<text text-anchor="start" x="73.5" y="-7" font-family="Helvetica,sans-Serif" font-size="10.00">+</text>
<text text-anchor="start" x="98.5" y="-7" font-family="Helvetica,sans-Serif" font-size="10.00">assignTo()</text>
<polygon fill="#666666" stroke="#666666" points="57.5,-32 57.5,-32 177.5,-32 177.5,-32 57.5,-32"/>
<polygon fill="#666666" stroke="#666666" points="57.5,-17 57.5,-17 177.5,-17 177.5,-17 57.5,-17"/>
<polygon fill="none" stroke="#666666" points="57.5,0 57.5,-60 177.5,-60 177.5,0 57.5,0"/>
</a>
</g>
</g>
<!-- Node2 -->
<g id="Node000002" class="node">
<title>Node2</title>
<g id="a_Node000002"><a xlink:href="../../de/dc8/structcv_1_1cudev_1_1SobelXPtr.html" target="_top" xlink:title=" ">
<polygon fill="white" stroke="transparent" points="109,-178 0,-178 0,-118 109,-118 109,-178"/>
<text text-anchor="start" x="5.5" y="-166" font-family="Helvetica,sans-Serif" font-size="10.00">cv::cudev::SobelXPtr</text>
<text text-anchor="start" x="29" y="-155" font-family="Helvetica,sans-Serif" font-size="10.00">&lt; SrcPtr &gt;</text>
<text text-anchor="start" x="53" y="-140" font-family="Helvetica,sans-Serif" font-size="10.00"> </text>
<text text-anchor="start" x="12" y="-125" font-family="Helvetica,sans-Serif" font-size="10.00">+</text>
<text text-anchor="start" x="32.5" y="-125" font-family="Helvetica,sans-Serif" font-size="10.00">operator()()</text>
<polygon fill="#666666" stroke="#666666" points="0.5,-150 0.5,-150 109.5,-150 109.5,-150 0.5,-150"/>
<polygon fill="#666666" stroke="#666666" points="0.5,-135 0.5,-135 109.5,-135 109.5,-135 0.5,-135"/>
<polygon fill="none" stroke="#666666" points="0,-118 0,-178 109,-178 109,-118 0,-118"/>
</a>
</g>
</g>
<!-- Node2&#45;&gt;Node1 -->
<g id="edge1_Node000001_Node000002" class="edge">
<title>Node2&#45;&gt;Node1</title>
<g id="a_edge1_Node000001_Node000002"><a xlink:title=" ">
<path fill="none" stroke="#63b8ff" d="M75.28,-108.73C83.85,-92.95 93.62,-74.96 101.61,-60.26"/>
<polygon fill="none" stroke="#63b8ff" points="72.09,-107.27 70.4,-117.73 78.25,-110.61 72.09,-107.27"/>
</a>
</g>
</g>
<!-- Node3 -->
<g id="Node000003" class="node">
<title>Node3</title>
<g id="a_Node000003"><a xlink:title=" ">
<polygon fill="white" stroke="transparent" points="74,-274 35,-274 35,-225 74,-225 74,-274"/>
<text text-anchor="start" x="40.5" y="-261.5" font-family="Helvetica,sans-Serif" font-size="10.00">SrcPtr</text>
<text text-anchor="start" x="53" y="-246.5" font-family="Helvetica,sans-Serif" font-size="10.00"> </text>
<text text-anchor="start" x="53" y="-231.5" font-family="Helvetica,sans-Serif" font-size="10.00"> </text>
<polygon fill="#666666" stroke="#666666" points="35.5,-256.5 35.5,-256.5 74.5,-256.5 74.5,-256.5 35.5,-256.5"/>
<polygon fill="#666666" stroke="#666666" points="35.5,-241.5 35.5,-241.5 74.5,-241.5 74.5,-241.5 35.5,-241.5"/>
<polygon fill="none" stroke="#666666" points="35,-225 35,-274 74,-274 74,-225 35,-225"/>
</a>
</g>
</g>
<!-- Node3&#45;&gt;Node2 -->
<g id="edge2_Node000002_Node000003" class="edge">
<title>Node3&#45;&gt;Node2</title>
<g id="a_edge2_Node000002_Node000003"><a xlink:title=" ">
<path fill="none" stroke="#63b8ff" d="M54.5,-224.92C54.5,-214.51 54.5,-201.97 54.5,-190.1"/>
<polygon fill="none" stroke="#63b8ff" points="54.5,-190.1 50.5,-184.1 54.5,-178.1 58.5,-184.1 54.5,-190.1"/>
</a>
</g>
<text text-anchor="middle" x="67.5" y="-199" font-family="Helvetica,sans-Serif" font-size="10.00" fill="grey"> +src</text>
</g>
<!-- Node4 -->
<g id="Node000004" class="node">
<title>Node4</title>
<g id="a_Node000004"><a xlink:title=" ">
<polygon fill="white" stroke="transparent" points="150,-172.5 127,-172.5 127,-123.5 150,-123.5 150,-172.5"/>
<text text-anchor="start" x="132.5" y="-160" font-family="Helvetica,sans-Serif" font-size="10.00">int</text>
<text text-anchor="start" x="137" y="-145" font-family="Helvetica,sans-Serif" font-size="10.00"> </text>
<text text-anchor="start" x="137" y="-130" font-family="Helvetica,sans-Serif" font-size="10.00"> </text>
<polygon fill="#666666" stroke="#666666" points="127.5,-155 127.5,-155 150.5,-155 150.5,-155 127.5,-155"/>
<polygon fill="#666666" stroke="#666666" points="127.5,-140 127.5,-140 150.5,-140 150.5,-140 127.5,-140"/>
<polygon fill="none" stroke="#666666" points="127,-123.5 127,-172.5 150,-172.5 150,-123.5 127,-123.5"/>
</a>
</g>
</g>
<!-- Node4&#45;&gt;Node1 -->
<g id="edge3_Node000001_Node000004" class="edge">
<title>Node4&#45;&gt;Node1</title>
<g id="a_edge3_Node000001_Node000004"><a xlink:title=" ">
<path fill="none" stroke="#63b8ff" d="M134.2,-123.25C131.53,-108.52 128.04,-89.22 124.94,-72.07"/>
<polygon fill="none" stroke="#63b8ff" points="124.9,-71.88 119.9,-66.68 122.76,-60.07 127.77,-65.26 124.9,-71.88"/>
</a>
</g>
<text text-anchor="middle" x="145.5" y="-92" font-family="Helvetica,sans-Serif" font-size="10.00" fill="grey"> +cols</text>
<text text-anchor="middle" x="145.5" y="-81" font-family="Helvetica,sans-Serif" font-size="10.00" fill="grey">+rows</text>
</g>
</g>
</svg>
