<?xml version="1.0" encoding="UTF-8" standalone="no"?>
<!DOCTYPE svg PUBLIC "-//W3C//DTD SVG 1.1//EN"
 "http://www.w3.org/Graphics/SVG/1.1/DTD/svg11.dtd">
<!-- Generated by graphviz version 2.43.0 (0)
 -->
<!-- Title: cv::linemod::QuantizedPyramid::Candidate Pages: 1 -->
<svg width="211pt" height="342pt"
 viewBox="0.00 0.00 210.50 342.00" xmlns="http://www.w3.org/2000/svg" xmlns:xlink="http://www.w3.org/1999/xlink">
<g id="graph0" class="graph" transform="scale(1 1) rotate(0) translate(4 338)">
<title>cv::linemod::QuantizedPyramid::Candidate</title>
<!-- Node1 -->
<g id="Node000001" class="node">
<title>Node1</title>
<g id="a_Node000001"><a xlink:title="Candidate feature with a score.">
<polygon fill="#999999" stroke="transparent" points="202.5,-75 39.5,-75 39.5,0 202.5,0 202.5,-75"/>
<text text-anchor="start" x="45" y="-62.5" font-family="Helvetica,sans-Serif" font-size="10.00">cv::linemod::QuantizedPyramid</text>
<text text-anchor="start" x="93.5" y="-51.5" font-family="Helvetica,sans-Serif" font-size="10.00">::Candidate</text>
<text text-anchor="start" x="119.5" y="-36.5" font-family="Helvetica,sans-Serif" font-size="10.00"> </text>
<text text-anchor="start" x="65" y="-21.5" font-family="Helvetica,sans-Serif" font-size="10.00">+</text>
<text text-anchor="start" x="99" y="-21.5" font-family="Helvetica,sans-Serif" font-size="10.00">Candidate()</text>
<text text-anchor="start" x="65" y="-6.5" font-family="Helvetica,sans-Serif" font-size="10.00">+</text>
<text text-anchor="start" x="99" y="-6.5" font-family="Helvetica,sans-Serif" font-size="10.00">operator&lt;()</text>
<polygon fill="#666666" stroke="#666666" points="40,-46.5 40,-46.5 203,-46.5 203,-46.5 40,-46.5"/>
<polygon fill="#666666" stroke="#666666" points="40,-31.5 40,-31.5 203,-31.5 203,-31.5 40,-31.5"/>
<polygon fill="none" stroke="#666666" points="39.5,0 39.5,-75 202.5,-75 202.5,0 39.5,0"/>
</a>
</g>
</g>
<!-- Node2 -->
<g id="Node000002" class="node">
<title>Node2</title>
<g id="a_Node000002"><a xlink:href="../../d9/db9/structcv_1_1linemod_1_1Feature.html" target="_top" xlink:title="Discriminant feature described by its location and label.">
<polygon fill="white" stroke="transparent" points="110,-216 0,-216 0,-122 110,-122 110,-216"/>
<text text-anchor="start" x="5" y="-204" font-family="Helvetica,sans-Serif" font-size="10.00">cv::linemod::Feature</text>
<text text-anchor="start" x="53" y="-189" font-family="Helvetica,sans-Serif" font-size="10.00"> </text>
<text text-anchor="start" x="15" y="-174" font-family="Helvetica,sans-Serif" font-size="10.00">+</text>
<text text-anchor="start" x="39" y="-174" font-family="Helvetica,sans-Serif" font-size="10.00">Feature()</text>
<text text-anchor="start" x="15" y="-159" font-family="Helvetica,sans-Serif" font-size="10.00">+</text>
<text text-anchor="start" x="39" y="-159" font-family="Helvetica,sans-Serif" font-size="10.00">Feature()</text>
<text text-anchor="start" x="15" y="-144" font-family="Helvetica,sans-Serif" font-size="10.00">+</text>
<text text-anchor="start" x="39" y="-144" font-family="Helvetica,sans-Serif" font-size="10.00">read()</text>
<text text-anchor="start" x="15" y="-129" font-family="Helvetica,sans-Serif" font-size="10.00">+</text>
<text text-anchor="start" x="39" y="-129" font-family="Helvetica,sans-Serif" font-size="10.00">write()</text>
<polygon fill="#666666" stroke="#666666" points="0,-199 0,-199 110,-199 110,-199 0,-199"/>
<polygon fill="#666666" stroke="#666666" points="0,-184 0,-184 110,-184 110,-184 0,-184"/>
<polygon fill="none" stroke="#666666" points="0,-122 0,-216 110,-216 110,-122 0,-122"/>
</a>
</g>
</g>
<!-- Node2&#45;&gt;Node1 -->
<g id="edge1_Node000001_Node000002" class="edge">
<title>Node2&#45;&gt;Node1</title>
<g id="a_edge1_Node000001_Node000002"><a xlink:title=" ">
<path fill="none" stroke="#63b8ff" d="M78.45,-121.98C84.41,-110.3 90.81,-97.73 96.8,-85.98"/>
<polygon fill="none" stroke="#63b8ff" points="96.94,-85.71 96.1,-78.55 102.39,-75.02 103.23,-82.18 96.94,-85.71"/>
</a>
</g>
<text text-anchor="middle" x="100" y="-96" font-family="Helvetica,sans-Serif" font-size="10.00" fill="grey"> +f</text>
</g>
<!-- Node3 -->
<g id="Node000003" class="node">
<title>Node3</title>
<g id="a_Node000003"><a xlink:title=" ">
<polygon fill="white" stroke="transparent" points="66.5,-334 43.5,-334 43.5,-285 66.5,-285 66.5,-334"/>
<text text-anchor="start" x="49" y="-321.5" font-family="Helvetica,sans-Serif" font-size="10.00">int</text>
<text text-anchor="start" x="53.5" y="-306.5" font-family="Helvetica,sans-Serif" font-size="10.00"> </text>
<text text-anchor="start" x="53.5" y="-291.5" font-family="Helvetica,sans-Serif" font-size="10.00"> </text>
<polygon fill="#666666" stroke="#666666" points="44,-316.5 44,-316.5 67,-316.5 67,-316.5 44,-316.5"/>
<polygon fill="#666666" stroke="#666666" points="44,-301.5 44,-301.5 67,-301.5 67,-301.5 44,-301.5"/>
<polygon fill="none" stroke="#666666" points="43.5,-285 43.5,-334 66.5,-334 66.5,-285 43.5,-285"/>
</a>
</g>
</g>
<!-- Node3&#45;&gt;Node2 -->
<g id="edge2_Node000002_Node000003" class="edge">
<title>Node3&#45;&gt;Node2</title>
<g id="a_edge2_Node000002_Node000003"><a xlink:title=" ">
<path fill="none" stroke="#63b8ff" d="M55,-284.69C55,-269.13 55,-248.08 55,-228.27"/>
<polygon fill="none" stroke="#63b8ff" points="55,-228.15 51,-222.15 55,-216.15 59,-222.15 55,-228.15"/>
</a>
</g>
<text text-anchor="middle" x="73" y="-259" font-family="Helvetica,sans-Serif" font-size="10.00" fill="grey"> +label</text>
<text text-anchor="middle" x="73" y="-248" font-family="Helvetica,sans-Serif" font-size="10.00" fill="grey">+x</text>
<text text-anchor="middle" x="73" y="-237" font-family="Helvetica,sans-Serif" font-size="10.00" fill="grey">+y</text>
</g>
<!-- Node4 -->
<g id="Node000004" class="node">
<title>Node4</title>
<g id="a_Node000004"><a xlink:title=" ">
<polygon fill="white" stroke="transparent" points="160,-193.5 128,-193.5 128,-144.5 160,-144.5 160,-193.5"/>
<text text-anchor="start" x="133" y="-181" font-family="Helvetica,sans-Serif" font-size="10.00">float</text>
<text text-anchor="start" x="142" y="-166" font-family="Helvetica,sans-Serif" font-size="10.00"> </text>
<text text-anchor="start" x="142" y="-151" font-family="Helvetica,sans-Serif" font-size="10.00"> </text>
<polygon fill="#666666" stroke="#666666" points="128,-176 128,-176 160,-176 160,-176 128,-176"/>
<polygon fill="#666666" stroke="#666666" points="128,-161 128,-161 160,-161 160,-161 128,-161"/>
<polygon fill="none" stroke="#666666" points="128,-144.5 128,-193.5 160,-193.5 160,-144.5 128,-144.5"/>
</a>
</g>
</g>
<!-- Node4&#45;&gt;Node1 -->
<g id="edge3_Node000001_Node000004" class="edge">
<title>Node4&#45;&gt;Node1</title>
<g id="a_edge3_Node000001_Node000004"><a xlink:title=" ">
<path fill="none" stroke="#63b8ff" d="M139.78,-144.25C136.94,-128.22 133.08,-106.51 129.6,-86.92"/>
<polygon fill="none" stroke="#63b8ff" points="129.59,-86.89 124.61,-81.68 127.5,-75.08 132.48,-80.28 129.59,-86.89"/>
</a>
</g>
<text text-anchor="middle" x="151" y="-96" font-family="Helvetica,sans-Serif" font-size="10.00" fill="grey"> +score</text>
</g>
</g>
</svg>
