<?xml version="1.0" encoding="UTF-8" standalone="no"?>
<!DOCTYPE svg PUBLIC "-//W3C//DTD SVG 1.1//EN"
 "http://www.w3.org/Graphics/SVG/1.1/DTD/svg11.dtd">
<!-- Generated by graphviz version 2.43.0 (0)
 -->
<!-- Title: cv::cudev::bit_lshift&lt; T &gt; Pages: 1 -->
<svg width="145pt" height="261pt"
 viewBox="0.00 0.00 145.00 261.00" xmlns="http://www.w3.org/2000/svg" xmlns:xlink="http://www.w3.org/1999/xlink">
<g id="graph0" class="graph" transform="scale(1 1) rotate(0) translate(4 257)">
<title>cv::cudev::bit_lshift&lt; T &gt;</title>
<!-- Node1 -->
<g id="Node000001" class="node">
<title>Node1</title>
<g id="a_Node000001"><a xlink:title=" ">
<polygon fill="#999999" stroke="transparent" points="134.5,-49 2.5,-49 2.5,0 134.5,0 134.5,-49"/>
<text text-anchor="start" x="7.5" y="-36.5" font-family="Helvetica,sans-Serif" font-size="10.00">cv::cudev::bit_lshift&lt; T &gt;</text>
<text text-anchor="start" x="66.5" y="-21.5" font-family="Helvetica,sans-Serif" font-size="10.00"> </text>
<text text-anchor="start" x="20" y="-6.5" font-family="Helvetica,sans-Serif" font-size="10.00">+</text>
<text text-anchor="start" x="46.5" y="-6.5" font-family="Helvetica,sans-Serif" font-size="10.00">operator()()</text>
<polygon fill="#666666" stroke="#666666" points="2.5,-31.5 2.5,-31.5 134.5,-31.5 134.5,-31.5 2.5,-31.5"/>
<polygon fill="#666666" stroke="#666666" points="2.5,-16.5 2.5,-16.5 134.5,-16.5 134.5,-16.5 2.5,-16.5"/>
<polygon fill="none" stroke="#666666" points="2.5,0 2.5,-49 134.5,-49 134.5,0 2.5,0"/>
</a>
</g>
</g>
<!-- Node2 -->
<g id="Node000002" class="node">
<title>Node2</title>
<g id="a_Node000002"><a xlink:title=" ">
<polygon fill="white" stroke="transparent" points="137,-146 0,-146 0,-86 137,-86 137,-146"/>
<text text-anchor="start" x="5.5" y="-134" font-family="Helvetica,sans-Serif" font-size="10.00">cv::cudev::binary_function</text>
<text text-anchor="start" x="42.5" y="-123" font-family="Helvetica,sans-Serif" font-size="10.00">&lt; T, T, T &gt;</text>
<text text-anchor="start" x="67" y="-108" font-family="Helvetica,sans-Serif" font-size="10.00"> </text>
<text text-anchor="start" x="67" y="-93" font-family="Helvetica,sans-Serif" font-size="10.00"> </text>
<polygon fill="#666666" stroke="#666666" points="0.5,-118 0.5,-118 137.5,-118 137.5,-118 0.5,-118"/>
<polygon fill="#666666" stroke="#666666" points="0.5,-103 0.5,-103 137.5,-103 137.5,-103 0.5,-103"/>
<polygon fill="none" stroke="#666666" points="0,-86 0,-146 137,-146 137,-86 0,-86"/>
</a>
</g>
</g>
<!-- Node2&#45;&gt;Node1 -->
<g id="edge1_Node000001_Node000002" class="edge">
<title>Node2&#45;&gt;Node1</title>
<g id="a_edge1_Node000001_Node000002"><a xlink:title=" ">
<path fill="none" stroke="#63b8ff" d="M68.5,-75.41C68.5,-66.47 68.5,-57.25 68.5,-49.21"/>
<polygon fill="none" stroke="#63b8ff" points="65,-75.69 68.5,-85.69 72,-75.69 65,-75.69"/>
</a>
</g>
</g>
<!-- Node3 -->
<g id="Node000003" class="node">
<title>Node3</title>
<g id="a_Node000003"><a xlink:href="../../d6/ddf/structcv_1_1cudev_1_1binary__function.html" target="_top" xlink:title=" ">
<polygon fill="white" stroke="transparent" points="137,-253 0,-253 0,-193 137,-193 137,-253"/>
<text text-anchor="start" x="5.5" y="-241" font-family="Helvetica,sans-Serif" font-size="10.00">cv::cudev::binary_function</text>
<text text-anchor="start" x="5.5" y="-230" font-family="Helvetica,sans-Serif" font-size="10.00">&lt; _Arg1, _Arg2, _Result &gt;</text>
<text text-anchor="start" x="67" y="-215" font-family="Helvetica,sans-Serif" font-size="10.00"> </text>
<text text-anchor="start" x="67" y="-200" font-family="Helvetica,sans-Serif" font-size="10.00"> </text>
<polygon fill="#666666" stroke="#666666" points="0.5,-225 0.5,-225 137.5,-225 137.5,-225 0.5,-225"/>
<polygon fill="#666666" stroke="#666666" points="0.5,-210 0.5,-210 137.5,-210 137.5,-210 0.5,-210"/>
<polygon fill="none" stroke="#666666" points="0,-193 0,-253 137,-253 137,-193 0,-193"/>
</a>
</g>
</g>
<!-- Node3&#45;&gt;Node2 -->
<g id="edge2_Node000002_Node000003" class="edge">
<title>Node3&#45;&gt;Node2</title>
<g id="a_edge2_Node000002_Node000003"><a xlink:title=" ">
<path fill="none" stroke="orange" d="M68.5,-182.46C68.5,-170.39 68.5,-157.34 68.5,-146.09"/>
<polygon fill="orange" stroke="orange" points="65,-182.75 68.5,-192.75 72,-182.75 65,-182.75"/>
</a>
</g>
<text text-anchor="middle" x="96.5" y="-167" font-family="Helvetica,sans-Serif" font-size="10.00" fill="grey"> &lt; T, T, T &gt;</text>
</g>
</g>
</svg>
