<?xml version="1.0" encoding="UTF-8" standalone="no"?>
<!DOCTYPE svg PUBLIC "-//W3C//DTD SVG 1.1//EN"
 "http://www.w3.org/Graphics/SVG/1.1/DTD/svg11.dtd">
<!-- Generated by graphviz version 2.43.0 (0)
 -->
<!-- Title: cv::UMat Pages: 1 -->
<svg width="956pt" height="1119pt"
 viewBox="0.00 0.00 955.61 1119.00" xmlns="http://www.w3.org/2000/svg" xmlns:xlink="http://www.w3.org/1999/xlink">
<g id="graph0" class="graph" transform="scale(1 1) rotate(0) translate(4 1115)">
<title>cv::UMat</title>
<!-- Node1 -->
<g id="Node000001" class="node">
<title>Node1</title>
<g id="a_Node000001"><a xlink:title=" ">
<polygon fill="#999999" stroke="transparent" points="355.61,-364 251.61,-364 251.61,0 355.61,0 355.61,-364"/>
<text text-anchor="start" x="282.11" y="-352" font-family="Helvetica,sans-Serif" font-size="10.00">cv::UMat</text>
<text text-anchor="start" x="301.61" y="-337" font-family="Helvetica,sans-Serif" font-size="10.00"> </text>
<text text-anchor="start" x="255.61" y="-322" font-family="Helvetica,sans-Serif" font-size="10.00">+</text>
<text text-anchor="start" x="268.61" y="-322" font-family="Helvetica,sans-Serif" font-size="10.00">UMat()</text>
<text text-anchor="start" x="255.61" y="-307" font-family="Helvetica,sans-Serif" font-size="10.00">+</text>
<text text-anchor="start" x="268.61" y="-307" font-family="Helvetica,sans-Serif" font-size="10.00">UMat()</text>
<text text-anchor="start" x="255.61" y="-292" font-family="Helvetica,sans-Serif" font-size="10.00">+</text>
<text text-anchor="start" x="268.61" y="-292" font-family="Helvetica,sans-Serif" font-size="10.00">UMat()</text>
<text text-anchor="start" x="255.61" y="-277" font-family="Helvetica,sans-Serif" font-size="10.00">+</text>
<text text-anchor="start" x="268.61" y="-277" font-family="Helvetica,sans-Serif" font-size="10.00">UMat()</text>
<text text-anchor="start" x="255.61" y="-262" font-family="Helvetica,sans-Serif" font-size="10.00">+</text>
<text text-anchor="start" x="268.61" y="-262" font-family="Helvetica,sans-Serif" font-size="10.00">UMat()</text>
<text text-anchor="start" x="255.61" y="-247" font-family="Helvetica,sans-Serif" font-size="10.00">+</text>
<text text-anchor="start" x="268.61" y="-247" font-family="Helvetica,sans-Serif" font-size="10.00">UMat()</text>
<text text-anchor="start" x="255.61" y="-232" font-family="Helvetica,sans-Serif" font-size="10.00">+</text>
<text text-anchor="start" x="268.61" y="-232" font-family="Helvetica,sans-Serif" font-size="10.00">UMat()</text>
<text text-anchor="start" x="255.61" y="-217" font-family="Helvetica,sans-Serif" font-size="10.00">+</text>
<text text-anchor="start" x="268.61" y="-217" font-family="Helvetica,sans-Serif" font-size="10.00">UMat()</text>
<text text-anchor="start" x="255.61" y="-202" font-family="Helvetica,sans-Serif" font-size="10.00">+</text>
<text text-anchor="start" x="268.61" y="-202" font-family="Helvetica,sans-Serif" font-size="10.00">UMat()</text>
<text text-anchor="start" x="255.61" y="-187" font-family="Helvetica,sans-Serif" font-size="10.00">+</text>
<text text-anchor="start" x="268.61" y="-187" font-family="Helvetica,sans-Serif" font-size="10.00">UMat()</text>
<text text-anchor="start" x="268.61" y="-172" font-family="Helvetica,sans-Serif" font-size="10.00">and 56 more...</text>
<text text-anchor="start" x="255.61" y="-157" font-family="Helvetica,sans-Serif" font-size="10.00">+</text>
<text text-anchor="start" x="268.61" y="-157" font-family="Helvetica,sans-Serif" font-size="10.00">diag()</text>
<text text-anchor="start" x="255.61" y="-142" font-family="Helvetica,sans-Serif" font-size="10.00">+</text>
<text text-anchor="start" x="268.61" y="-142" font-family="Helvetica,sans-Serif" font-size="10.00">diag()</text>
<text text-anchor="start" x="255.61" y="-127" font-family="Helvetica,sans-Serif" font-size="10.00">+</text>
<text text-anchor="start" x="268.61" y="-127" font-family="Helvetica,sans-Serif" font-size="10.00">eye()</text>
<text text-anchor="start" x="255.61" y="-112" font-family="Helvetica,sans-Serif" font-size="10.00">+</text>
<text text-anchor="start" x="268.61" y="-112" font-family="Helvetica,sans-Serif" font-size="10.00">eye()</text>
<text text-anchor="start" x="255.61" y="-97" font-family="Helvetica,sans-Serif" font-size="10.00">+</text>
<text text-anchor="start" x="268.61" y="-97" font-family="Helvetica,sans-Serif" font-size="10.00">eye()</text>
<text text-anchor="start" x="255.61" y="-82" font-family="Helvetica,sans-Serif" font-size="10.00">+</text>
<text text-anchor="start" x="268.61" y="-82" font-family="Helvetica,sans-Serif" font-size="10.00">eye()</text>
<text text-anchor="start" x="255.61" y="-67" font-family="Helvetica,sans-Serif" font-size="10.00">+</text>
<text text-anchor="start" x="268.61" y="-67" font-family="Helvetica,sans-Serif" font-size="10.00">getStdAllocator()</text>
<text text-anchor="start" x="255.61" y="-52" font-family="Helvetica,sans-Serif" font-size="10.00">+</text>
<text text-anchor="start" x="268.61" y="-52" font-family="Helvetica,sans-Serif" font-size="10.00">ones()</text>
<text text-anchor="start" x="255.61" y="-37" font-family="Helvetica,sans-Serif" font-size="10.00">+</text>
<text text-anchor="start" x="268.61" y="-37" font-family="Helvetica,sans-Serif" font-size="10.00">ones()</text>
<text text-anchor="start" x="255.61" y="-22" font-family="Helvetica,sans-Serif" font-size="10.00">+</text>
<text text-anchor="start" x="268.61" y="-22" font-family="Helvetica,sans-Serif" font-size="10.00">ones()</text>
<text text-anchor="start" x="268.61" y="-7" font-family="Helvetica,sans-Serif" font-size="10.00">and 9 more...</text>
<polygon fill="#666666" stroke="#666666" points="251.61,-347 251.61,-347 355.61,-347 355.61,-347 251.61,-347"/>
<polygon fill="#666666" stroke="#666666" points="251.61,-332 251.61,-332 355.61,-332 355.61,-332 251.61,-332"/>
<polygon fill="none" stroke="#666666" points="251.61,0 251.61,-364 355.61,-364 355.61,0 251.61,0"/>
</a>
</g>
</g>
<!-- Node2 -->
<g id="Node000002" class="node">
<title>Node2</title>
<g id="a_Node000002"><a xlink:title=" ">
<polygon fill="white" stroke="transparent" points="123.11,-844 100.11,-844 100.11,-795 123.11,-795 123.11,-844"/>
<text text-anchor="start" x="105.61" y="-831.5" font-family="Helvetica,sans-Serif" font-size="10.00">int</text>
<text text-anchor="start" x="110.11" y="-816.5" font-family="Helvetica,sans-Serif" font-size="10.00"> </text>
<text text-anchor="start" x="110.11" y="-801.5" font-family="Helvetica,sans-Serif" font-size="10.00"> </text>
<polygon fill="#666666" stroke="#666666" points="100.61,-826.5 100.61,-826.5 123.61,-826.5 123.61,-826.5 100.61,-826.5"/>
<polygon fill="#666666" stroke="#666666" points="100.61,-811.5 100.61,-811.5 123.61,-811.5 123.61,-811.5 100.61,-811.5"/>
<polygon fill="none" stroke="#666666" points="100.11,-795 100.11,-844 123.11,-844 123.11,-795 100.11,-795"/>
</a>
</g>
</g>
<!-- Node2&#45;&gt;Node1 -->
<g id="edge1_Node000001_Node000002" class="edge">
<title>Node2&#45;&gt;Node1</title>
<g id="a_edge1_Node000001_Node000002"><a xlink:title=" ">
<path fill="none" stroke="#63b8ff" d="M99.99,-801.24C80.06,-770.47 40.08,-703.38 25.61,-640 2.95,-540.78 -17.92,-503 25.61,-411 69.8,-317.6 173.08,-249.66 240.55,-213.3"/>
<polygon fill="none" stroke="#63b8ff" points="240.86,-213.14 244.3,-206.8 251.47,-207.53 248.04,-213.87 240.86,-213.14"/>
</a>
</g>
<text text-anchor="middle" x="42.11" y="-539.5" font-family="Helvetica,sans-Serif" font-size="10.00" fill="grey"> +cols</text>
<text text-anchor="middle" x="42.11" y="-528.5" font-family="Helvetica,sans-Serif" font-size="10.00" fill="grey">+dims</text>
<text text-anchor="middle" x="42.11" y="-517.5" font-family="Helvetica,sans-Serif" font-size="10.00" fill="grey">+flags</text>
<text text-anchor="middle" x="42.11" y="-506.5" font-family="Helvetica,sans-Serif" font-size="10.00" fill="grey">+rows</text>
</g>
<!-- Node5 -->
<g id="Node000005" class="node">
<title>Node5</title>
<g id="a_Node000005"><a xlink:href="../../db/d58/structcv_1_1UMatData.html" target="_top" xlink:title=" ">
<polygon fill="white" stroke="transparent" points="559.11,-640 402.11,-640 402.11,-411 559.11,-411 559.11,-640"/>
<text text-anchor="start" x="447.61" y="-627.5" font-family="Helvetica,sans-Serif" font-size="10.00">cv::UMatData</text>
<text text-anchor="start" x="479.11" y="-612.5" font-family="Helvetica,sans-Serif" font-size="10.00"> </text>
<text text-anchor="start" x="406.61" y="-597.5" font-family="Helvetica,sans-Serif" font-size="10.00">+</text>
<text text-anchor="start" x="419.61" y="-597.5" font-family="Helvetica,sans-Serif" font-size="10.00">UMatData()</text>
<text text-anchor="start" x="406.61" y="-582.5" font-family="Helvetica,sans-Serif" font-size="10.00">+</text>
<text text-anchor="start" x="419.61" y="-582.5" font-family="Helvetica,sans-Serif" font-size="10.00">~UMatData()</text>
<text text-anchor="start" x="406.61" y="-567.5" font-family="Helvetica,sans-Serif" font-size="10.00">+</text>
<text text-anchor="start" x="419.61" y="-567.5" font-family="Helvetica,sans-Serif" font-size="10.00">copyOnMap()</text>
<text text-anchor="start" x="406.61" y="-552.5" font-family="Helvetica,sans-Serif" font-size="10.00">+</text>
<text text-anchor="start" x="419.61" y="-552.5" font-family="Helvetica,sans-Serif" font-size="10.00">deviceCopyObsolete()</text>
<text text-anchor="start" x="406.61" y="-537.5" font-family="Helvetica,sans-Serif" font-size="10.00">+</text>
<text text-anchor="start" x="419.61" y="-537.5" font-family="Helvetica,sans-Serif" font-size="10.00">deviceMemMapped()</text>
<text text-anchor="start" x="406.61" y="-522.5" font-family="Helvetica,sans-Serif" font-size="10.00">+</text>
<text text-anchor="start" x="419.61" y="-522.5" font-family="Helvetica,sans-Serif" font-size="10.00">hostCopyObsolete()</text>
<text text-anchor="start" x="406.61" y="-507.5" font-family="Helvetica,sans-Serif" font-size="10.00">+</text>
<text text-anchor="start" x="419.61" y="-507.5" font-family="Helvetica,sans-Serif" font-size="10.00">lock()</text>
<text text-anchor="start" x="406.61" y="-492.5" font-family="Helvetica,sans-Serif" font-size="10.00">+</text>
<text text-anchor="start" x="419.61" y="-492.5" font-family="Helvetica,sans-Serif" font-size="10.00">markDeviceCopyObsolete()</text>
<text text-anchor="start" x="406.61" y="-477.5" font-family="Helvetica,sans-Serif" font-size="10.00">+</text>
<text text-anchor="start" x="419.61" y="-477.5" font-family="Helvetica,sans-Serif" font-size="10.00">markDeviceMemMapped()</text>
<text text-anchor="start" x="406.61" y="-462.5" font-family="Helvetica,sans-Serif" font-size="10.00">+</text>
<text text-anchor="start" x="419.61" y="-462.5" font-family="Helvetica,sans-Serif" font-size="10.00">markHostCopyObsolete()</text>
<text text-anchor="start" x="406.61" y="-447.5" font-family="Helvetica,sans-Serif" font-size="10.00">+</text>
<text text-anchor="start" x="419.61" y="-447.5" font-family="Helvetica,sans-Serif" font-size="10.00">tempCopiedUMat()</text>
<text text-anchor="start" x="406.61" y="-432.5" font-family="Helvetica,sans-Serif" font-size="10.00">+</text>
<text text-anchor="start" x="419.61" y="-432.5" font-family="Helvetica,sans-Serif" font-size="10.00">tempUMat()</text>
<text text-anchor="start" x="406.61" y="-417.5" font-family="Helvetica,sans-Serif" font-size="10.00">+</text>
<text text-anchor="start" x="419.61" y="-417.5" font-family="Helvetica,sans-Serif" font-size="10.00">unlock()</text>
<polygon fill="#666666" stroke="#666666" points="402.61,-622.5 402.61,-622.5 559.61,-622.5 559.61,-622.5 402.61,-622.5"/>
<polygon fill="#666666" stroke="#666666" points="402.61,-607.5 402.61,-607.5 559.61,-607.5 559.61,-607.5 402.61,-607.5"/>
<polygon fill="none" stroke="#666666" points="402.11,-411 402.11,-640 559.11,-640 559.11,-411 402.11,-411"/>
</a>
</g>
</g>
<!-- Node2&#45;&gt;Node5 -->
<g id="edge6_Node000005_Node000002" class="edge">
<title>Node2&#45;&gt;Node5</title>
<g id="a_edge6_Node000005_Node000002"><a xlink:title=" ">
<path fill="none" stroke="#63b8ff" d="M122.37,-794.99C140.26,-758.87 179.76,-690.49 235.61,-658 284.88,-629.33 311.36,-664.97 362.61,-640 372.85,-635.01 382.78,-628.8 392.24,-621.88"/>
<polygon fill="none" stroke="#63b8ff" points="392.41,-621.74 394.72,-614.91 401.92,-614.42 399.6,-621.25 392.41,-621.74"/>
</a>
</g>
<text text-anchor="middle" x="278.61" y="-694" font-family="Helvetica,sans-Serif" font-size="10.00" fill="grey"> +allocatorFlags_</text>
<text text-anchor="middle" x="278.61" y="-683" font-family="Helvetica,sans-Serif" font-size="10.00" fill="grey">+mapcount</text>
<text text-anchor="middle" x="278.61" y="-672" font-family="Helvetica,sans-Serif" font-size="10.00" fill="grey">+refcount</text>
<text text-anchor="middle" x="278.61" y="-661" font-family="Helvetica,sans-Serif" font-size="10.00" fill="grey">+urefcount</text>
</g>
<!-- Node14 -->
<g id="Node000014" class="node">
<title>Node14</title>
<g id="a_Node000014"><a xlink:href="../../df/d63/structcv_1_1MatSize.html" target="_top" xlink:title=" ">
<polygon fill="white" stroke="transparent" points="155.11,-595 68.11,-595 68.11,-456 155.11,-456 155.11,-595"/>
<text text-anchor="start" x="84.11" y="-582.5" font-family="Helvetica,sans-Serif" font-size="10.00">cv::MatSize</text>
<text text-anchor="start" x="110.11" y="-567.5" font-family="Helvetica,sans-Serif" font-size="10.00"> </text>
<text text-anchor="start" x="72.61" y="-552.5" font-family="Helvetica,sans-Serif" font-size="10.00">+</text>
<text text-anchor="start" x="85.61" y="-552.5" font-family="Helvetica,sans-Serif" font-size="10.00">MatSize()</text>
<text text-anchor="start" x="72.61" y="-537.5" font-family="Helvetica,sans-Serif" font-size="10.00">+</text>
<text text-anchor="start" x="85.61" y="-537.5" font-family="Helvetica,sans-Serif" font-size="10.00">dims()</text>
<text text-anchor="start" x="72.61" y="-522.5" font-family="Helvetica,sans-Serif" font-size="10.00">+</text>
<text text-anchor="start" x="85.61" y="-522.5" font-family="Helvetica,sans-Serif" font-size="10.00">operator!=()</text>
<text text-anchor="start" x="72.61" y="-507.5" font-family="Helvetica,sans-Serif" font-size="10.00">+</text>
<text text-anchor="start" x="85.61" y="-507.5" font-family="Helvetica,sans-Serif" font-size="10.00">operator()()</text>
<text text-anchor="start" x="72.61" y="-492.5" font-family="Helvetica,sans-Serif" font-size="10.00">+</text>
<text text-anchor="start" x="85.61" y="-492.5" font-family="Helvetica,sans-Serif" font-size="10.00">operator==()</text>
<text text-anchor="start" x="72.61" y="-477.5" font-family="Helvetica,sans-Serif" font-size="10.00">+</text>
<text text-anchor="start" x="85.61" y="-477.5" font-family="Helvetica,sans-Serif" font-size="10.00">operator[]()</text>
<text text-anchor="start" x="72.61" y="-462.5" font-family="Helvetica,sans-Serif" font-size="10.00">+</text>
<text text-anchor="start" x="85.61" y="-462.5" font-family="Helvetica,sans-Serif" font-size="10.00">operator[]()</text>
<polygon fill="#666666" stroke="#666666" points="68.61,-577.5 68.61,-577.5 155.61,-577.5 155.61,-577.5 68.61,-577.5"/>
<polygon fill="#666666" stroke="#666666" points="68.61,-562.5 68.61,-562.5 155.61,-562.5 155.61,-562.5 68.61,-562.5"/>
<polygon fill="none" stroke="#666666" points="68.11,-456 68.11,-595 155.11,-595 155.11,-456 68.11,-456"/>
</a>
</g>
</g>
<!-- Node2&#45;&gt;Node14 -->
<g id="edge18_Node000014_Node000002" class="edge">
<title>Node2&#45;&gt;Node14</title>
<g id="a_edge18_Node000014_Node000002"><a xlink:title=" ">
<path fill="none" stroke="#63b8ff" d="M111.61,-794.6C111.61,-754.19 111.61,-670.57 111.61,-607.4"/>
<polygon fill="none" stroke="#63b8ff" points="111.61,-607.06 107.61,-601.06 111.61,-595.06 115.61,-601.06 111.61,-607.06"/>
</a>
</g>
<text text-anchor="middle" x="120.61" y="-677.5" font-family="Helvetica,sans-Serif" font-size="10.00" fill="grey"> +p</text>
</g>
<!-- Node3 -->
<g id="Node000003" class="node">
<title>Node3</title>
<g id="a_Node000003"><a xlink:href="../../df/d4c/classcv_1_1MatAllocator.html" target="_top" xlink:title="Custom array allocator.">
<polygon fill="white" stroke="transparent" points="368.11,-919 225.11,-919 225.11,-720 368.11,-720 368.11,-919"/>
<text text-anchor="start" x="257.61" y="-906.5" font-family="Helvetica,sans-Serif" font-size="10.00">cv::MatAllocator</text>
<text text-anchor="start" x="295.11" y="-891.5" font-family="Helvetica,sans-Serif" font-size="10.00"> </text>
<text text-anchor="start" x="229.61" y="-876.5" font-family="Helvetica,sans-Serif" font-size="10.00">+</text>
<text text-anchor="start" x="242.61" y="-876.5" font-family="Helvetica,sans-Serif" font-size="10.00">MatAllocator()</text>
<text text-anchor="start" x="229.61" y="-861.5" font-family="Helvetica,sans-Serif" font-size="10.00">+</text>
<text text-anchor="start" x="242.61" y="-861.5" font-family="Helvetica,sans-Serif" font-size="10.00">~MatAllocator()</text>
<text text-anchor="start" x="229.61" y="-846.5" font-family="Helvetica,sans-Serif" font-size="10.00">+</text>
<text text-anchor="start" x="242.61" y="-846.5" font-family="Helvetica,sans-Serif" font-size="10.00">allocate()</text>
<text text-anchor="start" x="229.61" y="-831.5" font-family="Helvetica,sans-Serif" font-size="10.00">+</text>
<text text-anchor="start" x="242.61" y="-831.5" font-family="Helvetica,sans-Serif" font-size="10.00">allocate()</text>
<text text-anchor="start" x="229.61" y="-816.5" font-family="Helvetica,sans-Serif" font-size="10.00">+</text>
<text text-anchor="start" x="242.61" y="-816.5" font-family="Helvetica,sans-Serif" font-size="10.00">copy()</text>
<text text-anchor="start" x="229.61" y="-801.5" font-family="Helvetica,sans-Serif" font-size="10.00">+</text>
<text text-anchor="start" x="242.61" y="-801.5" font-family="Helvetica,sans-Serif" font-size="10.00">deallocate()</text>
<text text-anchor="start" x="229.61" y="-786.5" font-family="Helvetica,sans-Serif" font-size="10.00">+</text>
<text text-anchor="start" x="242.61" y="-786.5" font-family="Helvetica,sans-Serif" font-size="10.00">download()</text>
<text text-anchor="start" x="229.61" y="-771.5" font-family="Helvetica,sans-Serif" font-size="10.00">+</text>
<text text-anchor="start" x="242.61" y="-771.5" font-family="Helvetica,sans-Serif" font-size="10.00">getBufferPoolController()</text>
<text text-anchor="start" x="229.61" y="-756.5" font-family="Helvetica,sans-Serif" font-size="10.00">+</text>
<text text-anchor="start" x="242.61" y="-756.5" font-family="Helvetica,sans-Serif" font-size="10.00">map()</text>
<text text-anchor="start" x="229.61" y="-741.5" font-family="Helvetica,sans-Serif" font-size="10.00">+</text>
<text text-anchor="start" x="242.61" y="-741.5" font-family="Helvetica,sans-Serif" font-size="10.00">unmap()</text>
<text text-anchor="start" x="229.61" y="-726.5" font-family="Helvetica,sans-Serif" font-size="10.00">+</text>
<text text-anchor="start" x="242.61" y="-726.5" font-family="Helvetica,sans-Serif" font-size="10.00">upload()</text>
<polygon fill="#666666" stroke="#666666" points="225.61,-901.5 225.61,-901.5 368.61,-901.5 368.61,-901.5 225.61,-901.5"/>
<polygon fill="#666666" stroke="#666666" points="225.61,-886.5 225.61,-886.5 368.61,-886.5 368.61,-886.5 225.61,-886.5"/>
<polygon fill="none" stroke="#666666" points="225.11,-720 225.11,-919 368.11,-919 368.11,-720 225.11,-720"/>
</a>
</g>
</g>
<!-- Node3&#45;&gt;Node1 -->
<g id="edge2_Node000001_Node000003" class="edge">
<title>Node3&#45;&gt;Node1</title>
<g id="a_edge2_Node000001_Node000003"><a xlink:title=" ">
<path fill="none" stroke="#63b8ff" d="M297.69,-719.9C298.7,-628.49 300.23,-489.9 301.48,-376.43"/>
<polygon fill="none" stroke="#63b8ff" points="301.48,-376.13 297.55,-370.08 301.61,-364.13 305.55,-370.17 301.48,-376.13"/>
</a>
</g>
<text text-anchor="middle" x="328.11" y="-523" font-family="Helvetica,sans-Serif" font-size="10.00" fill="grey"> +allocator</text>
</g>
<!-- Node3&#45;&gt;Node5 -->
<g id="edge5_Node000005_Node000003" class="edge">
<title>Node3&#45;&gt;Node5</title>
<g id="a_edge5_Node000005_Node000003"><a xlink:title=" ">
<path fill="none" stroke="#63b8ff" d="M318.99,-719.69C326.06,-698.48 335.12,-676.8 346.61,-658 348.7,-654.58 368.98,-634.36 393.16,-610.76"/>
<polygon fill="none" stroke="#63b8ff" points="393.25,-610.67 394.76,-603.62 401.85,-602.3 400.34,-609.35 393.25,-610.67"/>
</a>
</g>
<text text-anchor="middle" x="383.61" y="-683" font-family="Helvetica,sans-Serif" font-size="10.00" fill="grey"> +currAllocator</text>
<text text-anchor="middle" x="383.61" y="-672" font-family="Helvetica,sans-Serif" font-size="10.00" fill="grey">+prevAllocator</text>
</g>
<!-- Node4 -->
<g id="Node000004" class="node">
<title>Node4</title>
<g id="a_Node000004"><a xlink:title=" ">
<polygon fill="white" stroke="transparent" points="267.61,-550 173.61,-550 173.61,-501 267.61,-501 267.61,-550"/>
<text text-anchor="start" x="178.61" y="-537.5" font-family="Helvetica,sans-Serif" font-size="10.00">UMatUsageFlags</text>
<text text-anchor="start" x="218.61" y="-522.5" font-family="Helvetica,sans-Serif" font-size="10.00"> </text>
<text text-anchor="start" x="218.61" y="-507.5" font-family="Helvetica,sans-Serif" font-size="10.00"> </text>
<polygon fill="#666666" stroke="#666666" points="173.61,-532.5 173.61,-532.5 267.61,-532.5 267.61,-532.5 173.61,-532.5"/>
<polygon fill="#666666" stroke="#666666" points="173.61,-517.5 173.61,-517.5 267.61,-517.5 267.61,-517.5 173.61,-517.5"/>
<polygon fill="none" stroke="#666666" points="173.61,-501 173.61,-550 267.61,-550 267.61,-501 173.61,-501"/>
</a>
</g>
</g>
<!-- Node4&#45;&gt;Node1 -->
<g id="edge3_Node000001_Node000004" class="edge">
<title>Node4&#45;&gt;Node1</title>
<g id="a_edge3_Node000001_Node000004"><a xlink:title=" ">
<path fill="none" stroke="#63b8ff" d="M218.28,-500.76C216.09,-472.24 214.26,-423.1 222.61,-382 228.05,-355.17 237.03,-327.37 247.08,-301.36"/>
<polygon fill="none" stroke="#63b8ff" points="247.18,-301.1 245.67,-294.05 251.59,-289.94 253.11,-296.99 247.18,-301.1"/>
</a>
</g>
<text text-anchor="middle" x="256.11" y="-385" font-family="Helvetica,sans-Serif" font-size="10.00" fill="grey"> +usageFlags</text>
</g>
<!-- Node5&#45;&gt;Node1 -->
<g id="edge4_Node000001_Node000005" class="edge">
<title>Node5&#45;&gt;Node1</title>
<g id="a_edge4_Node000001_Node000005"><a xlink:title=" ">
<path fill="none" stroke="#63b8ff" d="M421.67,-410.79C402.26,-373.35 380.72,-331.78 361.4,-294.5"/>
<polygon fill="none" stroke="#63b8ff" points="361.27,-294.25 354.96,-290.77 355.75,-283.6 362.06,-287.09 361.27,-294.25"/>
</a>
</g>
<text text-anchor="middle" x="416.61" y="-385" font-family="Helvetica,sans-Serif" font-size="10.00" fill="grey"> +u</text>
</g>
<!-- Node5&#45;&gt;Node5 -->
<g id="edge11_Node000005_Node000005" class="edge">
<title>Node5&#45;&gt;Node5</title>
<g id="a_edge11_Node000005_Node000005"><a xlink:title=" ">
<path fill="none" stroke="#63b8ff" d="M559.36,-548.45C570.02,-544.61 577.11,-536.96 577.11,-525.5 577.11,-518.52 574.47,-512.95 570.01,-508.8"/>
<polygon fill="none" stroke="#63b8ff" points="569.71,-508.62 562.51,-509.03 559.36,-502.55 566.56,-502.13 569.71,-508.62"/>
</a>
</g>
<text text-anchor="middle" x="626.11" y="-523" font-family="Helvetica,sans-Serif" font-size="10.00" fill="grey"> +originalUMatData</text>
</g>
<!-- Node6 -->
<g id="Node000006" class="node">
<title>Node6</title>
<g id="a_Node000006"><a xlink:title=" ">
<polygon fill="white" stroke="transparent" points="438.61,-844 392.61,-844 392.61,-795 438.61,-795 438.61,-844"/>
<text text-anchor="start" x="397.61" y="-831.5" font-family="Helvetica,sans-Serif" font-size="10.00">uchar *</text>
<text text-anchor="start" x="413.61" y="-816.5" font-family="Helvetica,sans-Serif" font-size="10.00"> </text>
<text text-anchor="start" x="413.61" y="-801.5" font-family="Helvetica,sans-Serif" font-size="10.00"> </text>
<polygon fill="#666666" stroke="#666666" points="392.61,-826.5 392.61,-826.5 438.61,-826.5 438.61,-826.5 392.61,-826.5"/>
<polygon fill="#666666" stroke="#666666" points="392.61,-811.5 392.61,-811.5 438.61,-811.5 438.61,-811.5 392.61,-811.5"/>
<polygon fill="none" stroke="#666666" points="392.61,-795 392.61,-844 438.61,-844 438.61,-795 392.61,-795"/>
</a>
</g>
</g>
<!-- Node6&#45;&gt;Node5 -->
<g id="edge7_Node000005_Node000006" class="edge">
<title>Node6&#45;&gt;Node5</title>
<g id="a_edge7_Node000005_Node000006"><a xlink:title=" ">
<path fill="none" stroke="#63b8ff" d="M416.31,-794.81C417.66,-763.23 421.54,-705.77 432.61,-658 433.08,-655.97 433.57,-653.92 434.09,-651.86"/>
<polygon fill="none" stroke="#63b8ff" points="434.15,-651.62 431.83,-644.79 437.24,-640.02 439.56,-646.85 434.15,-651.62"/>
</a>
</g>
<text text-anchor="middle" x="457.11" y="-683" font-family="Helvetica,sans-Serif" font-size="10.00" fill="grey"> +data</text>
<text text-anchor="middle" x="457.11" y="-672" font-family="Helvetica,sans-Serif" font-size="10.00" fill="grey">+origdata</text>
</g>
<!-- Node7 -->
<g id="Node000007" class="node">
<title>Node7</title>
<g id="a_Node000007"><a xlink:title=" ">
<polygon fill="white" stroke="transparent" points="807.11,-844 768.11,-844 768.11,-795 807.11,-795 807.11,-844"/>
<text text-anchor="start" x="773.61" y="-831.5" font-family="Helvetica,sans-Serif" font-size="10.00">size_t</text>
<text text-anchor="start" x="786.11" y="-816.5" font-family="Helvetica,sans-Serif" font-size="10.00"> </text>
<text text-anchor="start" x="786.11" y="-801.5" font-family="Helvetica,sans-Serif" font-size="10.00"> </text>
<polygon fill="#666666" stroke="#666666" points="768.61,-826.5 768.61,-826.5 807.61,-826.5 807.61,-826.5 768.61,-826.5"/>
<polygon fill="#666666" stroke="#666666" points="768.61,-811.5 768.61,-811.5 807.61,-811.5 807.61,-811.5 768.61,-811.5"/>
<polygon fill="none" stroke="#666666" points="768.11,-795 768.11,-844 807.11,-844 807.11,-795 768.11,-795"/>
</a>
</g>
</g>
<!-- Node7&#45;&gt;Node1 -->
<g id="edge16_Node000001_Node000007" class="edge">
<title>Node7&#45;&gt;Node1</title>
<g id="a_edge16_Node000001_Node000007"><a xlink:title=" ">
<path fill="none" stroke="#63b8ff" d="M788.26,-794.73C788.88,-726.79 781.76,-529.03 684.61,-411 598.52,-306.41 451.08,-237.97 367.09,-205.34"/>
<polygon fill="none" stroke="#63b8ff" points="366.89,-205.26 359.85,-206.85 355.68,-200.97 362.71,-199.38 366.89,-205.26"/>
</a>
</g>
<text text-anchor="middle" x="794.61" y="-523" font-family="Helvetica,sans-Serif" font-size="10.00" fill="grey"> +offset</text>
</g>
<!-- Node7&#45;&gt;Node5 -->
<g id="edge8_Node000005_Node000007" class="edge">
<title>Node7&#45;&gt;Node5</title>
<g id="a_edge8_Node000005_Node000007"><a xlink:title=" ">
<path fill="none" stroke="#63b8ff" d="M779.05,-794.71C764.58,-755.4 734.94,-679.12 715.61,-658 675.93,-614.65 618.55,-582.16 570.43,-560.33"/>
<polygon fill="none" stroke="#63b8ff" points="570.33,-560.28 563.23,-561.51 559.36,-555.42 566.47,-554.19 570.33,-560.28"/>
</a>
</g>
<text text-anchor="middle" x="756.11" y="-677.5" font-family="Helvetica,sans-Serif" font-size="10.00" fill="grey"> +size</text>
</g>
<!-- Node15 -->
<g id="Node000015" class="node">
<title>Node15</title>
<g id="a_Node000015"><a xlink:href="../../d4/d26/structcv_1_1MatStep.html" target="_top" xlink:title=" ">
<polygon fill="white" stroke="transparent" points="947.61,-595 845.61,-595 845.61,-456 947.61,-456 947.61,-595"/>
<text text-anchor="start" x="867.61" y="-582.5" font-family="Helvetica,sans-Serif" font-size="10.00">cv::MatStep</text>
<text text-anchor="start" x="894.61" y="-567.5" font-family="Helvetica,sans-Serif" font-size="10.00"> </text>
<text text-anchor="start" x="849.61" y="-552.5" font-family="Helvetica,sans-Serif" font-size="10.00">+</text>
<text text-anchor="start" x="862.61" y="-552.5" font-family="Helvetica,sans-Serif" font-size="10.00">MatStep()</text>
<text text-anchor="start" x="849.61" y="-537.5" font-family="Helvetica,sans-Serif" font-size="10.00">+</text>
<text text-anchor="start" x="862.61" y="-537.5" font-family="Helvetica,sans-Serif" font-size="10.00">MatStep()</text>
<text text-anchor="start" x="849.61" y="-522.5" font-family="Helvetica,sans-Serif" font-size="10.00">+</text>
<text text-anchor="start" x="862.61" y="-522.5" font-family="Helvetica,sans-Serif" font-size="10.00">operator size_t()</text>
<text text-anchor="start" x="849.61" y="-507.5" font-family="Helvetica,sans-Serif" font-size="10.00">+</text>
<text text-anchor="start" x="862.61" y="-507.5" font-family="Helvetica,sans-Serif" font-size="10.00">operator=()</text>
<text text-anchor="start" x="849.61" y="-492.5" font-family="Helvetica,sans-Serif" font-size="10.00">+</text>
<text text-anchor="start" x="862.61" y="-492.5" font-family="Helvetica,sans-Serif" font-size="10.00">operator[]()</text>
<text text-anchor="start" x="849.61" y="-477.5" font-family="Helvetica,sans-Serif" font-size="10.00">+</text>
<text text-anchor="start" x="862.61" y="-477.5" font-family="Helvetica,sans-Serif" font-size="10.00">operator[]()</text>
<text text-anchor="start" x="849.61" y="-462.5" font-family="Helvetica,sans-Serif" font-size="10.00">#</text>
<text text-anchor="start" x="862.61" y="-462.5" font-family="Helvetica,sans-Serif" font-size="10.00">operator=()</text>
<polygon fill="#666666" stroke="#666666" points="845.61,-577.5 845.61,-577.5 947.61,-577.5 947.61,-577.5 845.61,-577.5"/>
<polygon fill="#666666" stroke="#666666" points="845.61,-562.5 845.61,-562.5 947.61,-562.5 947.61,-562.5 845.61,-562.5"/>
<polygon fill="none" stroke="#666666" points="845.61,-456 845.61,-595 947.61,-595 947.61,-456 845.61,-456"/>
</a>
</g>
</g>
<!-- Node7&#45;&gt;Node15 -->
<g id="edge20_Node000015_Node000007" class="edge">
<title>Node7&#45;&gt;Node15</title>
<g id="a_edge20_Node000015_Node000007"><a xlink:title=" ">
<path fill="none" stroke="#63b8ff" d="M796.53,-794.6C811.68,-754.02 843.09,-669.88 866.7,-606.61"/>
<polygon fill="none" stroke="#63b8ff" points="866.82,-606.3 865.17,-599.28 871.01,-595.06 872.66,-602.08 866.82,-606.3"/>
</a>
</g>
<text text-anchor="middle" x="858.61" y="-683" font-family="Helvetica,sans-Serif" font-size="10.00" fill="grey"> +buf</text>
<text text-anchor="middle" x="858.61" y="-672" font-family="Helvetica,sans-Serif" font-size="10.00" fill="grey">+p</text>
</g>
<!-- Node8 -->
<g id="Node000008" class="node">
<title>Node8</title>
<g id="a_Node000008"><a xlink:title=" ">
<polygon fill="white" stroke="transparent" points="528.61,-844 456.61,-844 456.61,-795 528.61,-795 528.61,-844"/>
<text text-anchor="start" x="461.61" y="-831.5" font-family="Helvetica,sans-Serif" font-size="10.00">MemoryFlag</text>
<text text-anchor="start" x="490.61" y="-816.5" font-family="Helvetica,sans-Serif" font-size="10.00"> </text>
<text text-anchor="start" x="490.61" y="-801.5" font-family="Helvetica,sans-Serif" font-size="10.00"> </text>
<polygon fill="#666666" stroke="#666666" points="456.61,-826.5 456.61,-826.5 528.61,-826.5 528.61,-826.5 456.61,-826.5"/>
<polygon fill="#666666" stroke="#666666" points="456.61,-811.5 456.61,-811.5 528.61,-811.5 528.61,-811.5 456.61,-811.5"/>
<polygon fill="none" stroke="#666666" points="456.61,-795 456.61,-844 528.61,-844 528.61,-795 456.61,-795"/>
</a>
</g>
</g>
<!-- Node8&#45;&gt;Node5 -->
<g id="edge9_Node000005_Node000008" class="edge">
<title>Node8&#45;&gt;Node5</title>
<g id="a_edge9_Node000005_Node000008"><a xlink:title=" ">
<path fill="none" stroke="#63b8ff" d="M491.63,-794.6C490.34,-763.26 487.98,-705.94 485.78,-652.33"/>
<polygon fill="none" stroke="#63b8ff" points="485.77,-652.23 481.53,-646.4 485.28,-640.24 489.52,-646.07 485.77,-652.23"/>
</a>
</g>
<text text-anchor="middle" x="505.11" y="-677.5" font-family="Helvetica,sans-Serif" font-size="10.00" fill="grey"> +flags</text>
</g>
<!-- Node9 -->
<g id="Node000009" class="node">
<title>Node9</title>
<g id="a_Node000009"><a xlink:title=" ">
<polygon fill="white" stroke="transparent" points="586.61,-844 546.61,-844 546.61,-795 586.61,-795 586.61,-844"/>
<text text-anchor="start" x="551.61" y="-831.5" font-family="Helvetica,sans-Serif" font-size="10.00">void *</text>
<text text-anchor="start" x="564.61" y="-816.5" font-family="Helvetica,sans-Serif" font-size="10.00"> </text>
<text text-anchor="start" x="564.61" y="-801.5" font-family="Helvetica,sans-Serif" font-size="10.00"> </text>
<polygon fill="#666666" stroke="#666666" points="546.61,-826.5 546.61,-826.5 586.61,-826.5 586.61,-826.5 546.61,-826.5"/>
<polygon fill="#666666" stroke="#666666" points="546.61,-811.5 546.61,-811.5 586.61,-811.5 586.61,-811.5 546.61,-811.5"/>
<polygon fill="none" stroke="#666666" points="546.61,-795 546.61,-844 586.61,-844 586.61,-795 546.61,-795"/>
</a>
</g>
</g>
<!-- Node9&#45;&gt;Node5 -->
<g id="edge10_Node000005_Node000009" class="edge">
<title>Node9&#45;&gt;Node5</title>
<g id="a_edge10_Node000005_Node000009"><a xlink:title=" ">
<path fill="none" stroke="#63b8ff" d="M561.45,-794.93C554.4,-763.47 541,-706.15 526.61,-658 526.01,-656.01 525.41,-654 524.79,-651.99"/>
<polygon fill="none" stroke="#63b8ff" points="524.73,-651.79 519.12,-647.25 521.15,-640.33 526.76,-644.87 524.73,-651.79"/>
</a>
</g>
<text text-anchor="middle" x="564.61" y="-683" font-family="Helvetica,sans-Serif" font-size="10.00" fill="grey"> +handle</text>
<text text-anchor="middle" x="564.61" y="-672" font-family="Helvetica,sans-Serif" font-size="10.00" fill="grey">+userdata</text>
</g>
<!-- Node10 -->
<g id="Node000010" class="node">
<title>Node10</title>
<g id="a_Node000010"><a xlink:title=" ">
<polygon fill="white" stroke="transparent" points="732.11,-844 605.11,-844 605.11,-795 732.11,-795 732.11,-844"/>
<text text-anchor="start" x="610.61" y="-831.5" font-family="Helvetica,sans-Serif" font-size="10.00">std::shared_ptr&lt; void &gt;</text>
<text text-anchor="start" x="667.11" y="-816.5" font-family="Helvetica,sans-Serif" font-size="10.00"> </text>
<text text-anchor="start" x="667.11" y="-801.5" font-family="Helvetica,sans-Serif" font-size="10.00"> </text>
<polygon fill="#666666" stroke="#666666" points="605.61,-826.5 605.61,-826.5 732.61,-826.5 732.61,-826.5 605.61,-826.5"/>
<polygon fill="#666666" stroke="#666666" points="605.61,-811.5 605.61,-811.5 732.61,-811.5 732.61,-811.5 605.61,-811.5"/>
<polygon fill="none" stroke="#666666" points="605.11,-795 605.11,-844 732.11,-844 732.11,-795 605.11,-795"/>
</a>
</g>
</g>
<!-- Node10&#45;&gt;Node5 -->
<g id="edge12_Node000005_Node000010" class="edge">
<title>Node10&#45;&gt;Node5</title>
<g id="a_edge12_Node000005_Node000010"><a xlink:title=" ">
<path fill="none" stroke="#63b8ff" d="M660.13,-794.84C648.02,-762.55 623.97,-703.5 594.61,-658 586.32,-645.15 576.85,-632.25 567,-619.81"/>
<polygon fill="none" stroke="#63b8ff" points="566.93,-619.73 560.05,-617.58 559.4,-610.4 566.28,-612.55 566.93,-619.73"/>
</a>
</g>
<text text-anchor="middle" x="665.11" y="-677.5" font-family="Helvetica,sans-Serif" font-size="10.00" fill="grey"> +allocatorContext</text>
</g>
<!-- Node11 -->
<g id="Node000011" class="node">
<title>Node11</title>
<g id="a_Node000011"><a xlink:title=" ">
<polygon fill="white" stroke="transparent" points="649.61,-1015 617.61,-1015 617.61,-966 649.61,-966 649.61,-1015"/>
<text text-anchor="start" x="622.61" y="-1002.5" font-family="Helvetica,sans-Serif" font-size="10.00">void</text>
<text text-anchor="start" x="631.61" y="-987.5" font-family="Helvetica,sans-Serif" font-size="10.00"> </text>
<text text-anchor="start" x="631.61" y="-972.5" font-family="Helvetica,sans-Serif" font-size="10.00"> </text>
<polygon fill="#666666" stroke="#666666" points="617.61,-997.5 617.61,-997.5 649.61,-997.5 649.61,-997.5 617.61,-997.5"/>
<polygon fill="#666666" stroke="#666666" points="617.61,-982.5 617.61,-982.5 649.61,-982.5 649.61,-982.5 617.61,-982.5"/>
<polygon fill="none" stroke="#666666" points="617.61,-966 617.61,-1015 649.61,-1015 649.61,-966 617.61,-966"/>
</a>
</g>
</g>
<!-- Node11&#45;&gt;Node10 -->
<g id="edge13_Node000010_Node000011" class="edge">
<title>Node11&#45;&gt;Node10</title>
<g id="a_edge13_Node000010_Node000011"><a xlink:title=" ">
<path fill="none" stroke="#63b8ff" d="M638.55,-965.64C644.46,-937.08 654.42,-888.99 661.25,-856.05"/>
<polygon fill="none" stroke="#63b8ff" points="661.26,-855.98 658.56,-849.3 663.69,-844.23 666.39,-850.92 661.26,-855.98"/>
</a>
</g>
<text text-anchor="middle" x="656.11" y="-940" font-family="Helvetica,sans-Serif" font-size="10.00" fill="grey"> +ptr</text>
</g>
<!-- Node12 -->
<g id="Node000012" class="node">
<title>Node12</title>
<g id="a_Node000012"><a xlink:title=" ">
<polygon fill="white" stroke="transparent" points="779.61,-1015 667.61,-1015 667.61,-966 779.61,-966 779.61,-1015"/>
<text text-anchor="start" x="672.61" y="-1002.5" font-family="Helvetica,sans-Serif" font-size="10.00">std::shared_ptr&lt; T &gt;</text>
<text text-anchor="start" x="721.61" y="-987.5" font-family="Helvetica,sans-Serif" font-size="10.00"> </text>
<text text-anchor="start" x="679.11" y="-972.5" font-family="Helvetica,sans-Serif" font-size="10.00">+</text>
<text text-anchor="start" x="699.61" y="-972.5" font-family="Helvetica,sans-Serif" font-size="10.00">operator&#45;&gt;()</text>
<polygon fill="#666666" stroke="#666666" points="667.61,-997.5 667.61,-997.5 779.61,-997.5 779.61,-997.5 667.61,-997.5"/>
<polygon fill="#666666" stroke="#666666" points="667.61,-982.5 667.61,-982.5 779.61,-982.5 779.61,-982.5 667.61,-982.5"/>
<polygon fill="none" stroke="#666666" points="667.61,-966 667.61,-1015 779.61,-1015 779.61,-966 667.61,-966"/>
</a>
</g>
</g>
<!-- Node12&#45;&gt;Node10 -->
<g id="edge14_Node000010_Node000012" class="edge">
<title>Node12&#45;&gt;Node10</title>
<g id="a_edge14_Node000010_Node000012"><a xlink:title=" ">
<path fill="none" stroke="orange" d="M712.7,-955.97C701.95,-922.96 685.81,-873.37 676.33,-844.23"/>
<polygon fill="orange" stroke="orange" points="709.42,-957.22 715.84,-965.64 716.08,-955.05 709.42,-957.22"/>
</a>
</g>
<text text-anchor="middle" x="732.11" y="-940" font-family="Helvetica,sans-Serif" font-size="10.00" fill="grey"> &lt; void &gt;</text>
</g>
<!-- Node13 -->
<g id="Node000013" class="node">
<title>Node13</title>
<g id="a_Node000013"><a xlink:title=" ">
<polygon fill="white" stroke="transparent" points="732.11,-1111 715.11,-1111 715.11,-1062 732.11,-1062 732.11,-1111"/>
<text text-anchor="start" x="720.61" y="-1098.5" font-family="Helvetica,sans-Serif" font-size="10.00">T</text>
<text text-anchor="start" x="722.11" y="-1083.5" font-family="Helvetica,sans-Serif" font-size="10.00"> </text>
<text text-anchor="start" x="722.11" y="-1068.5" font-family="Helvetica,sans-Serif" font-size="10.00"> </text>
<polygon fill="#666666" stroke="#666666" points="715.61,-1093.5 715.61,-1093.5 732.61,-1093.5 732.61,-1093.5 715.61,-1093.5"/>
<polygon fill="#666666" stroke="#666666" points="715.61,-1078.5 715.61,-1078.5 732.61,-1078.5 732.61,-1078.5 715.61,-1078.5"/>
<polygon fill="none" stroke="#666666" points="715.11,-1062 715.11,-1111 732.11,-1111 732.11,-1062 715.11,-1062"/>
</a>
</g>
</g>
<!-- Node13&#45;&gt;Node12 -->
<g id="edge15_Node000012_Node000013" class="edge">
<title>Node13&#45;&gt;Node12</title>
<g id="a_edge15_Node000012_Node000013"><a xlink:title=" ">
<path fill="none" stroke="#63b8ff" d="M723.61,-1061.78C723.61,-1051.32 723.61,-1038.79 723.61,-1027.23"/>
<polygon fill="none" stroke="#63b8ff" points="723.61,-1027.21 719.61,-1021.21 723.61,-1015.21 727.61,-1021.21 723.61,-1027.21"/>
</a>
</g>
<text text-anchor="middle" x="736.11" y="-1036" font-family="Helvetica,sans-Serif" font-size="10.00" fill="grey"> +ptr</text>
</g>
<!-- Node14&#45;&gt;Node1 -->
<g id="edge17_Node000001_Node000014" class="edge">
<title>Node14&#45;&gt;Node1</title>
<g id="a_edge17_Node000001_Node000014"><a xlink:title=" ">
<path fill="none" stroke="#63b8ff" d="M142.21,-455.77C149.26,-440.86 156.95,-425.28 164.61,-411 189.35,-364.86 219.31,-315.06 245.07,-273.81"/>
<polygon fill="none" stroke="#63b8ff" points="245.15,-273.68 244.95,-266.47 251.52,-263.51 251.73,-270.72 245.15,-273.68"/>
</a>
</g>
<text text-anchor="middle" x="193.11" y="-385" font-family="Helvetica,sans-Serif" font-size="10.00" fill="grey"> +size</text>
</g>
<!-- Node15&#45;&gt;Node1 -->
<g id="edge19_Node000001_Node000015" class="edge">
<title>Node15&#45;&gt;Node1</title>
<g id="a_edge19_Node000001_Node000015"><a xlink:title=" ">
<path fill="none" stroke="#63b8ff" d="M865.95,-455.66C850.47,-428.58 829.07,-399.77 801.61,-382 658.85,-289.62 466.32,-227.77 367.69,-199.9"/>
<polygon fill="none" stroke="#63b8ff" points="367.41,-199.83 360.56,-202.06 355.85,-196.6 362.71,-194.36 367.41,-199.83"/>
</a>
</g>
<text text-anchor="middle" x="832.11" y="-385" font-family="Helvetica,sans-Serif" font-size="10.00" fill="grey"> +step</text>
</g>
</g>
</svg>
