<?xml version="1.0" encoding="UTF-8" standalone="no"?>
<!DOCTYPE svg PUBLIC "-//W3C//DTD SVG 1.1//EN"
 "http://www.w3.org/Graphics/SVG/1.1/DTD/svg11.dtd">
<!-- Generated by graphviz version 2.43.0 (0)
 -->
<!-- Title: cv::operator&lt;&lt; Pages: 1 -->
<svg width="436pt" height="27pt"
 viewBox="0.00 0.00 436.00 27.00" xmlns="http://www.w3.org/2000/svg" xmlns:xlink="http://www.w3.org/1999/xlink">
<g id="graph0" class="graph" transform="scale(1 1) rotate(0) translate(4 23)">
<title>cv::operator&lt;&lt;</title>
<!-- Node1 -->
<g id="Node000001" class="node">
<title>Node1</title>
<g id="a_Node000001"><a xlink:title="output operator">
<polygon fill="#999999" stroke="#666666" points="91,-19 0,-19 0,0 91,0 91,-19"/>
<text text-anchor="middle" x="45.5" y="-7" font-family="Helvetica,sans-Serif" font-size="10.00">cv::operator&lt;&lt;</text>
</a>
</g>
</g>
<!-- Node2 -->
<g id="Node000002" class="node">
<title>Node2</title>
<g id="a_Node000002"><a xlink:href="../../d9/d6f/classcv_1_1TickMeter.html#a9e21f1bdbe5089c7288b8df81e5ac4a1" target="_top" xlink:title="returns passed time in seconds.">
<polygon fill="white" stroke="#666666" points="273,-19 127,-19 127,0 273,0 273,-19"/>
<text text-anchor="middle" x="200" y="-7" font-family="Helvetica,sans-Serif" font-size="10.00">cv::TickMeter::getTimeSec</text>
</a>
</g>
</g>
<!-- Node1&#45;&gt;Node2 -->
<g id="edge1_Node000001_Node000002" class="edge">
<title>Node1&#45;&gt;Node2</title>
<g id="a_edge1_Node000001_Node000002"><a xlink:title=" ">
<path fill="none" stroke="#63b8ff" d="M91.02,-9.5C99.2,-9.5 107.96,-9.5 116.84,-9.5"/>
<polygon fill="#63b8ff" stroke="#63b8ff" points="116.88,-13 126.88,-9.5 116.88,-6 116.88,-13"/>
</a>
</g>
</g>
<!-- Node3 -->
<g id="Node000003" class="node">
<title>Node3</title>
<g id="a_Node000003"><a xlink:href="../../db/de0/group__core__utils.html#ga705441a9ef01f47acdc55d87fbe5090c" target="_top" xlink:title="Returns the number of ticks per second.">
<polygon fill="white" stroke="#666666" points="428,-19 309,-19 309,0 428,0 428,-19"/>
<text text-anchor="middle" x="368.5" y="-7" font-family="Helvetica,sans-Serif" font-size="10.00">cv::getTickFrequency</text>
</a>
</g>
</g>
<!-- Node2&#45;&gt;Node3 -->
<g id="edge2_Node000002_Node000003" class="edge">
<title>Node2&#45;&gt;Node3</title>
<g id="a_edge2_Node000002_Node000003"><a xlink:title=" ">
<path fill="none" stroke="#63b8ff" d="M273.06,-9.5C281.56,-9.5 290.21,-9.5 298.67,-9.5"/>
<polygon fill="#63b8ff" stroke="#63b8ff" points="298.85,-13 308.85,-9.5 298.85,-6 298.85,-13"/>
</a>
</g>
</g>
</g>
</svg>
