<?xml version="1.0" encoding="UTF-8" standalone="no"?>
<!DOCTYPE svg PUBLIC "-//W3C//DTD SVG 1.1//EN"
 "http://www.w3.org/Graphics/SVG/1.1/DTD/svg11.dtd">
<!-- Generated by graphviz version 2.43.0 (0)
 -->
<!-- Title: cv::Mat::forEach_impl Pages: 1 -->
<svg width="260pt" height="101pt"
 viewBox="0.00 0.00 260.00 101.00" xmlns="http://www.w3.org/2000/svg" xmlns:xlink="http://www.w3.org/1999/xlink">
<g id="graph0" class="graph" transform="scale(1 1) rotate(0) translate(4 97)">
<title>cv::Mat::forEach_impl</title>
<!-- Node1 -->
<g id="Node000001" class="node">
<title>Node1</title>
<g id="a_Node000001"><a xlink:title=" ">
<polygon fill="#999999" stroke="#666666" points="122,-56 0,-56 0,-37 122,-37 122,-56"/>
<text text-anchor="middle" x="61" y="-44" font-family="Helvetica,sans-Serif" font-size="10.00">cv::Mat::forEach_impl</text>
</a>
</g>
</g>
<!-- Node2 -->
<g id="Node000002" class="node">
<title>Node2</title>
<g id="a_Node000002"><a xlink:href="../../d3/d63/classcv_1_1Mat.html#abbec3525a852e77998aba034813fded4" target="_top" xlink:title="Returns true if the array has no elements.">
<polygon fill="white" stroke="#666666" points="249.5,-93 160.5,-93 160.5,-74 249.5,-74 249.5,-93"/>
<text text-anchor="middle" x="205" y="-81" font-family="Helvetica,sans-Serif" font-size="10.00">cv::Mat::empty</text>
</a>
</g>
</g>
<!-- Node1&#45;&gt;Node2 -->
<g id="edge1_Node000001_Node000002" class="edge">
<title>Node1&#45;&gt;Node2</title>
<g id="a_edge1_Node000001_Node000002"><a xlink:title=" ">
<path fill="none" stroke="#63b8ff" d="M98.57,-56.03C116.48,-60.7 138.26,-66.37 157.35,-71.35"/>
<polygon fill="#63b8ff" stroke="#63b8ff" points="156.5,-74.74 167.06,-73.88 158.27,-67.97 156.5,-74.74"/>
</a>
</g>
</g>
<!-- Node3 -->
<g id="Node000003" class="node">
<title>Node3</title>
<g id="a_Node000003"><a xlink:href="../../d3/d89/group__core__parallel.html#gaa42ec9937b847cb52a97c613fc894c4a" target="_top" xlink:title="Parallel data processor.">
<polygon fill="white" stroke="#666666" points="252,-56 158,-56 158,-37 252,-37 252,-56"/>
<text text-anchor="middle" x="205" y="-44" font-family="Helvetica,sans-Serif" font-size="10.00">cv::parallel_for_</text>
</a>
</g>
</g>
<!-- Node1&#45;&gt;Node3 -->
<g id="edge2_Node000001_Node000003" class="edge">
<title>Node1&#45;&gt;Node3</title>
<g id="a_edge2_Node000001_Node000003"><a xlink:title=" ">
<path fill="none" stroke="#63b8ff" d="M122.22,-46.5C130.71,-46.5 139.41,-46.5 147.82,-46.5"/>
<polygon fill="#63b8ff" stroke="#63b8ff" points="147.91,-50 157.91,-46.5 147.91,-43 147.91,-50"/>
</a>
</g>
</g>
<!-- Node4 -->
<g id="Node000004" class="node">
<title>Node4</title>
<g id="a_Node000004"><a xlink:href="../../d3/d63/classcv_1_1Mat.html#aa4d317d43fb0cba9c2503f3c61b866c8" target="_top" xlink:title="Returns the total number of array elements.">
<polygon fill="white" stroke="#666666" points="245,-19 165,-19 165,0 245,0 245,-19"/>
<text text-anchor="middle" x="205" y="-7" font-family="Helvetica,sans-Serif" font-size="10.00">cv::Mat::total</text>
</a>
</g>
</g>
<!-- Node1&#45;&gt;Node4 -->
<g id="edge3_Node000001_Node000004" class="edge">
<title>Node1&#45;&gt;Node4</title>
<g id="a_edge3_Node000001_Node000004"><a xlink:title=" ">
<path fill="none" stroke="#63b8ff" d="M98.57,-36.97C116.48,-32.3 138.26,-26.63 157.35,-21.65"/>
<polygon fill="#63b8ff" stroke="#63b8ff" points="158.27,-25.03 167.06,-19.12 156.5,-18.26 158.27,-25.03"/>
</a>
</g>
</g>
</g>
</svg>
