<?xml version="1.0" encoding="UTF-8" standalone="no"?>
<!DOCTYPE svg PUBLIC "-//W3C//DTD SVG 1.1//EN"
 "http://www.w3.org/Graphics/SVG/1.1/DTD/svg11.dtd">
<!-- Generated by graphviz version 2.43.0 (0)
 -->
<!-- Title: cv::videostab::MotionStabilizationPipeline Pages: 1 -->
<svg width="184pt" height="198pt"
 viewBox="0.00 0.00 184.00 198.00" xmlns="http://www.w3.org/2000/svg" xmlns:xlink="http://www.w3.org/1999/xlink">
<g id="graph0" class="graph" transform="scale(1 1) rotate(0) translate(4 194)">
<title>cv::videostab::MotionStabilizationPipeline</title>
<!-- Node1 -->
<g id="Node000001" class="node">
<title>Node1</title>
<g id="a_Node000001"><a xlink:title=" ">
<polygon fill="#999999" stroke="transparent" points="176,-90 0,-90 0,0 176,0 176,-90"/>
<text text-anchor="start" x="5" y="-78" font-family="Helvetica,sans-Serif" font-size="10.00">cv::videostab::MotionStabilization</text>
<text text-anchor="start" x="68" y="-67" font-family="Helvetica,sans-Serif" font-size="10.00">Pipeline</text>
<text text-anchor="start" x="86" y="-52" font-family="Helvetica,sans-Serif" font-size="10.00"> </text>
<text text-anchor="start" x="29" y="-37" font-family="Helvetica,sans-Serif" font-size="10.00">+</text>
<text text-anchor="start" x="67" y="-37" font-family="Helvetica,sans-Serif" font-size="10.00">empty()</text>
<text text-anchor="start" x="29" y="-22" font-family="Helvetica,sans-Serif" font-size="10.00">+</text>
<text text-anchor="start" x="67" y="-22" font-family="Helvetica,sans-Serif" font-size="10.00">pushBack()</text>
<text text-anchor="start" x="29" y="-7" font-family="Helvetica,sans-Serif" font-size="10.00">+</text>
<text text-anchor="start" x="67" y="-7" font-family="Helvetica,sans-Serif" font-size="10.00">stabilize()</text>
<polygon fill="#666666" stroke="#666666" points="0,-62 0,-62 176,-62 176,-62 0,-62"/>
<polygon fill="#666666" stroke="#666666" points="0,-47 0,-47 176,-47 176,-47 0,-47"/>
<polygon fill="none" stroke="#666666" points="0,0 0,-90 176,-90 176,0 0,0"/>
</a>
</g>
</g>
<!-- Node2 -->
<g id="Node000002" class="node">
<title>Node2</title>
<g id="a_Node000002"><a xlink:href="../../d0/df6/classcv_1_1videostab_1_1IMotionStabilizer.html" target="_top" xlink:title=" ">
<polygon fill="white" stroke="transparent" points="170,-190 6,-190 6,-126 170,-126 170,-190"/>
<text text-anchor="start" x="11" y="-178" font-family="Helvetica,sans-Serif" font-size="10.00">cv::videostab::IMotionStabilizer</text>
<text text-anchor="start" x="86" y="-163" font-family="Helvetica,sans-Serif" font-size="10.00"> </text>
<text text-anchor="start" x="21" y="-148" font-family="Helvetica,sans-Serif" font-size="10.00">+</text>
<text text-anchor="start" x="45" y="-148" font-family="Helvetica,sans-Serif" font-size="10.00">~IMotionStabilizer()</text>
<text text-anchor="start" x="21" y="-133" font-family="Helvetica,sans-Serif" font-size="10.00">+</text>
<text text-anchor="start" x="45" y="-133" font-family="Helvetica,sans-Serif" font-size="10.00">stabilize()</text>
<polygon fill="#666666" stroke="#666666" points="6,-173 6,-173 170,-173 170,-173 6,-173"/>
<polygon fill="#666666" stroke="#666666" points="6,-158 6,-158 170,-158 170,-158 6,-158"/>
<polygon fill="none" stroke="#666666" points="6,-126 6,-190 170,-190 170,-126 6,-126"/>
</a>
</g>
</g>
<!-- Node2&#45;&gt;Node1 -->
<g id="edge1_Node000001_Node000002" class="edge">
<title>Node2&#45;&gt;Node1</title>
<g id="a_edge1_Node000001_Node000002"><a xlink:title=" ">
<path fill="none" stroke="#63b8ff" d="M88,-115.6C88,-107.32 88,-98.6 88,-90.23"/>
<polygon fill="none" stroke="#63b8ff" points="84.5,-115.78 88,-125.78 91.5,-115.78 84.5,-115.78"/>
</a>
</g>
</g>
</g>
</svg>
