<?xml version="1.0" encoding="UTF-8" standalone="no"?>
<!DOCTYPE svg PUBLIC "-//W3C//DTD SVG 1.1//EN"
 "http://www.w3.org/Graphics/SVG/1.1/DTD/svg11.dtd">
<!-- Generated by graphviz version 2.43.0 (0)
 -->
<!-- Title: opencv2/structured_light/structured_light.hpp Pages: 1 -->
<svg width="340pt" height="170pt"
 viewBox="0.00 0.00 339.92 170.00" xmlns="http://www.w3.org/2000/svg" xmlns:xlink="http://www.w3.org/1999/xlink">
<g id="graph0" class="graph" transform="scale(1 1) rotate(0) translate(4 166)">
<title>opencv2/structured_light/structured_light.hpp</title>
<!-- Node1 -->
<g id="Node000001" class="node">
<title>Node1</title>
<g id="a_Node000001"><a xlink:title=" ">
<polygon fill="#999999" stroke="#666666" points="159.92,-162 15.92,-162 15.92,-132 159.92,-132 159.92,-162"/>
<text text-anchor="start" x="23.92" y="-150" font-family="Helvetica,sans-Serif" font-size="10.00">opencv2/structured</text>
<text text-anchor="middle" x="87.92" y="-139" font-family="Helvetica,sans-Serif" font-size="10.00">_light/structured_light.hpp</text>
</a>
</g>
</g>
<!-- Node2 -->
<g id="Node000002" class="node">
<title>Node2</title>
<g id="a_Node000002"><a xlink:href="../../d3/d23/structured__light_8hpp.html" target="_top" xlink:title=" ">
<polygon fill="white" stroke="#666666" points="142.92,-30 32.92,-30 32.92,0 142.92,0 142.92,-30"/>
<text text-anchor="start" x="40.92" y="-18" font-family="Helvetica,sans-Serif" font-size="10.00">opencv2/structured</text>
<text text-anchor="middle" x="87.92" y="-7" font-family="Helvetica,sans-Serif" font-size="10.00">_light.hpp</text>
</a>
</g>
</g>
<!-- Node1&#45;&gt;Node2 -->
<g id="edge1_Node000001_Node000002" class="edge">
<title>Node1&#45;&gt;Node2</title>
<g id="a_edge1_Node000001_Node000002"><a xlink:title=" ">
<path fill="none" stroke="#63b8ff" d="M38.31,-127.07C25.11,-119.5 12.45,-109.33 4.92,-96 -1.64,-84.39 -1.64,-77.61 4.92,-66 14.19,-49.6 31.23,-37.98 47.48,-30.09"/>
<polygon fill="#63b8ff" stroke="#63b8ff" points="37,-130.34 47.48,-131.91 40.27,-124.15 37,-130.34"/>
</a>
</g>
</g>
<!-- Node3 -->
<g id="Node000003" class="node">
<title>Node3</title>
<g id="a_Node000003"><a xlink:href="../../d7/d9c/graycodepattern_8hpp.html" target="_top" xlink:title=" ">
<polygon fill="white" stroke="#666666" points="161.92,-96 13.92,-96 13.92,-66 161.92,-66 161.92,-96"/>
<text text-anchor="start" x="21.92" y="-84" font-family="Helvetica,sans-Serif" font-size="10.00">opencv2/structured</text>
<text text-anchor="middle" x="87.92" y="-73" font-family="Helvetica,sans-Serif" font-size="10.00">_light/graycodepattern.hpp</text>
</a>
</g>
</g>
<!-- Node1&#45;&gt;Node3 -->
<g id="edge2_Node000001_Node000003" class="edge">
<title>Node1&#45;&gt;Node3</title>
<g id="a_edge2_Node000001_Node000003"><a xlink:title=" ">
<path fill="none" stroke="#63b8ff" d="M87.92,-121.54C87.92,-112.96 87.92,-103.61 87.92,-96.16"/>
<polygon fill="#63b8ff" stroke="#63b8ff" points="84.42,-121.8 87.92,-131.8 91.42,-121.8 84.42,-121.8"/>
</a>
</g>
</g>
<!-- Node4 -->
<g id="Node000004" class="node">
<title>Node4</title>
<g id="a_Node000004"><a xlink:href="../../d5/de0/sinusoidalpattern_8hpp.html" target="_top" xlink:title=" ">
<polygon fill="white" stroke="#666666" points="331.92,-96 179.92,-96 179.92,-66 331.92,-66 331.92,-96"/>
<text text-anchor="start" x="187.92" y="-84" font-family="Helvetica,sans-Serif" font-size="10.00">opencv2/structured</text>
<text text-anchor="middle" x="255.92" y="-73" font-family="Helvetica,sans-Serif" font-size="10.00">_light/sinusoidalpattern.hpp</text>
</a>
</g>
</g>
<!-- Node1&#45;&gt;Node4 -->
<g id="edge4_Node000001_Node000004" class="edge">
<title>Node1&#45;&gt;Node4</title>
<g id="a_edge4_Node000001_Node000004"><a xlink:title=" ">
<path fill="none" stroke="#63b8ff" d="M134.32,-128.32C161.06,-118.14 194.21,-105.51 219.14,-96.01"/>
<polygon fill="#63b8ff" stroke="#63b8ff" points="132.89,-125.12 124.79,-131.95 135.38,-131.67 132.89,-125.12"/>
</a>
</g>
</g>
<!-- Node3&#45;&gt;Node2 -->
<g id="edge3_Node000003_Node000002" class="edge">
<title>Node3&#45;&gt;Node2</title>
<g id="a_edge3_Node000003_Node000002"><a xlink:title=" ">
<path fill="none" stroke="#63b8ff" d="M87.92,-55.54C87.92,-46.96 87.92,-37.61 87.92,-30.16"/>
<polygon fill="#63b8ff" stroke="#63b8ff" points="84.42,-55.8 87.92,-65.8 91.42,-55.8 84.42,-55.8"/>
</a>
</g>
</g>
<!-- Node4&#45;&gt;Node2 -->
<g id="edge5_Node000004_Node000002" class="edge">
<title>Node4&#45;&gt;Node2</title>
<g id="a_edge5_Node000004_Node000002"><a xlink:title=" ">
<path fill="none" stroke="#63b8ff" d="M209.52,-62.32C182.78,-52.14 149.63,-39.51 124.7,-30.01"/>
<polygon fill="#63b8ff" stroke="#63b8ff" points="208.46,-65.67 219.05,-65.95 210.95,-59.12 208.46,-65.67"/>
</a>
</g>
</g>
</g>
</svg>
