<?xml version="1.0" encoding="UTF-8" standalone="no"?>
<!DOCTYPE svg PUBLIC "-//W3C//DTD SVG 1.1//EN"
 "http://www.w3.org/Graphics/SVG/1.1/DTD/svg11.dtd">
<!-- Generated by graphviz version 2.43.0 (0)
 -->
<!-- Title: cv::reg::MapperPyramid Pages: 1 -->
<svg width="201pt" height="269pt"
 viewBox="0.00 0.00 201.00 269.00" xmlns="http://www.w3.org/2000/svg" xmlns:xlink="http://www.w3.org/1999/xlink">
<g id="graph0" class="graph" transform="scale(1 1) rotate(0) translate(4 265)">
<title>cv::reg::MapperPyramid</title>
<!-- Node1 -->
<g id="Node000001" class="node">
<title>Node1</title>
<g id="a_Node000001"><a xlink:title=" ">
<polygon fill="#999999" stroke="transparent" points="142,-79 16,-79 16,0 142,0 142,-79"/>
<text text-anchor="start" x="21" y="-66.5" font-family="Helvetica,sans-Serif" font-size="10.00">cv::reg::MapperPyramid</text>
<text text-anchor="start" x="77" y="-51.5" font-family="Helvetica,sans-Serif" font-size="10.00"> </text>
<text text-anchor="start" x="25" y="-36.5" font-family="Helvetica,sans-Serif" font-size="10.00">+</text>
<text text-anchor="start" x="43" y="-36.5" font-family="Helvetica,sans-Serif" font-size="10.00">MapperPyramid()</text>
<text text-anchor="start" x="25" y="-21.5" font-family="Helvetica,sans-Serif" font-size="10.00">+</text>
<text text-anchor="start" x="43" y="-21.5" font-family="Helvetica,sans-Serif" font-size="10.00">calculate()</text>
<text text-anchor="start" x="25" y="-6.5" font-family="Helvetica,sans-Serif" font-size="10.00">+</text>
<text text-anchor="start" x="43" y="-6.5" font-family="Helvetica,sans-Serif" font-size="10.00">getMap()</text>
<polygon fill="#666666" stroke="#666666" points="16,-61.5 16,-61.5 142,-61.5 142,-61.5 16,-61.5"/>
<polygon fill="#666666" stroke="#666666" points="16,-46.5 16,-46.5 142,-46.5 142,-46.5 16,-46.5"/>
<polygon fill="none" stroke="#666666" points="16,0 16,-79 142,-79 142,0 16,0"/>
</a>
</g>
</g>
<!-- Node2 -->
<g id="Node000002" class="node">
<title>Node2</title>
<g id="a_Node000002"><a xlink:href="../../d0/d6c/classcv_1_1reg_1_1Mapper.html" target="_top" xlink:title="Base class for modelling an algorithm for calculating a map.">
<polygon fill="white" stroke="transparent" points="86,-261 0,-261 0,-137 86,-137 86,-261"/>
<text text-anchor="start" x="5" y="-249" font-family="Helvetica,sans-Serif" font-size="10.00">cv::reg::Mapper</text>
<text text-anchor="start" x="41" y="-234" font-family="Helvetica,sans-Serif" font-size="10.00"> </text>
<text text-anchor="start" x="7" y="-219" font-family="Helvetica,sans-Serif" font-size="10.00">+</text>
<text text-anchor="start" x="23" y="-219" font-family="Helvetica,sans-Serif" font-size="10.00">~Mapper()</text>
<text text-anchor="start" x="7" y="-204" font-family="Helvetica,sans-Serif" font-size="10.00">+</text>
<text text-anchor="start" x="23" y="-204" font-family="Helvetica,sans-Serif" font-size="10.00">calculate()</text>
<text text-anchor="start" x="7" y="-189" font-family="Helvetica,sans-Serif" font-size="10.00">+</text>
<text text-anchor="start" x="23" y="-189" font-family="Helvetica,sans-Serif" font-size="10.00">getMap()</text>
<text text-anchor="start" x="7" y="-174" font-family="Helvetica,sans-Serif" font-size="10.00">#</text>
<text text-anchor="start" x="23" y="-174" font-family="Helvetica,sans-Serif" font-size="10.00">gradient()</text>
<text text-anchor="start" x="7" y="-159" font-family="Helvetica,sans-Serif" font-size="10.00">#</text>
<text text-anchor="start" x="23" y="-159" font-family="Helvetica,sans-Serif" font-size="10.00">grid()</text>
<text text-anchor="start" x="7" y="-144" font-family="Helvetica,sans-Serif" font-size="10.00">#</text>
<text text-anchor="start" x="23" y="-144" font-family="Helvetica,sans-Serif" font-size="10.00">sqr()</text>
<polygon fill="#666666" stroke="#666666" points="0,-244 0,-244 86,-244 86,-244 0,-244"/>
<polygon fill="#666666" stroke="#666666" points="0,-229 0,-229 86,-229 86,-229 0,-229"/>
<polygon fill="none" stroke="#666666" points="0,-137 0,-261 86,-261 86,-137 0,-137"/>
</a>
</g>
</g>
<!-- Node2&#45;&gt;Node1 -->
<g id="edge1_Node000001_Node000002" class="edge">
<title>Node2&#45;&gt;Node1</title>
<g id="a_edge1_Node000001_Node000002"><a xlink:title=" ">
<path fill="none" stroke="#63b8ff" d="M59.33,-126.57C63.06,-110.25 66.88,-93.51 70.16,-79.18"/>
<polygon fill="none" stroke="#63b8ff" points="55.84,-126.13 57.02,-136.66 62.66,-127.69 55.84,-126.13"/>
</a>
</g>
</g>
<!-- Node3 -->
<g id="Node000003" class="node">
<title>Node3</title>
<g id="a_Node000003"><a xlink:title=" ">
<polygon fill="white" stroke="transparent" points="127.5,-223.5 104.5,-223.5 104.5,-174.5 127.5,-174.5 127.5,-223.5"/>
<text text-anchor="start" x="110" y="-211" font-family="Helvetica,sans-Serif" font-size="10.00">int</text>
<text text-anchor="start" x="114.5" y="-196" font-family="Helvetica,sans-Serif" font-size="10.00"> </text>
<text text-anchor="start" x="114.5" y="-181" font-family="Helvetica,sans-Serif" font-size="10.00"> </text>
<polygon fill="#666666" stroke="#666666" points="105,-206 105,-206 128,-206 128,-206 105,-206"/>
<polygon fill="#666666" stroke="#666666" points="105,-191 105,-191 128,-191 128,-191 105,-191"/>
<polygon fill="none" stroke="#666666" points="104.5,-174.5 104.5,-223.5 127.5,-223.5 127.5,-174.5 104.5,-174.5"/>
</a>
</g>
</g>
<!-- Node3&#45;&gt;Node1 -->
<g id="edge2_Node000001_Node000003" class="edge">
<title>Node3&#45;&gt;Node1</title>
<g id="a_edge2_Node000001_Node000003"><a xlink:title=" ">
<path fill="none" stroke="#63b8ff" d="M110.46,-174.42C105.32,-152.52 97.48,-119.17 90.92,-91.24"/>
<polygon fill="none" stroke="#63b8ff" points="90.85,-90.93 85.58,-86 88.1,-79.24 93.37,-84.17 90.85,-90.93"/>
</a>
</g>
<text text-anchor="middle" x="144.5" y="-111" font-family="Helvetica,sans-Serif" font-size="10.00" fill="grey"> +numIterPerScale_</text>
<text text-anchor="middle" x="144.5" y="-100" font-family="Helvetica,sans-Serif" font-size="10.00" fill="grey">+numLev_</text>
</g>
</g>
</svg>
