<?xml version="1.0" encoding="UTF-8" standalone="no"?>
<!DOCTYPE svg PUBLIC "-//W3C//DTD SVG 1.1//EN"
 "http://www.w3.org/Graphics/SVG/1.1/DTD/svg11.dtd">
<!-- Generated by graphviz version 2.43.0 (0)
 -->
<!-- Title: cv::add Pages: 1 -->
<svg width="166pt" height="45pt"
 viewBox="0.00 0.00 166.00 45.00" xmlns="http://www.w3.org/2000/svg" xmlns:xlink="http://www.w3.org/1999/xlink">
<g id="graph0" class="graph" transform="scale(1 1) rotate(0) translate(4 41)">
<title>cv::add</title>
<!-- Node1 -->
<g id="Node000001" class="node">
<title>Node1</title>
<g id="a_Node000001"><a xlink:title="Calculates the per&#45;element sum of two arrays or an array and a scalar.">
<polygon fill="#999999" stroke="#666666" points="51,-19 0,-19 0,0 51,0 51,-19"/>
<text text-anchor="middle" x="25.5" y="-7" font-family="Helvetica,sans-Serif" font-size="10.00">cv::add</text>
</a>
</g>
</g>
<!-- Node1&#45;&gt;Node1 -->
<g id="edge1_Node000001_Node000001" class="edge">
<title>Node1&#45;&gt;Node1</title>
<g id="a_edge1_Node000001_Node000001"><a xlink:title=" ">
<path fill="none" stroke="#63b8ff" d="M10.7,-19.08C3.51,-27.73 8.44,-37 25.5,-37 35.9,-37 41.79,-33.56 43.18,-28.91"/>
<polygon fill="#63b8ff" stroke="#63b8ff" points="46.47,-27.69 40.3,-19.08 39.75,-29.66 46.47,-27.69"/>
</a>
</g>
</g>
<!-- Node2 -->
<g id="Node000002" class="node">
<title>Node2</title>
<g id="a_Node000002"><a xlink:href="../../dc/d84/group__core__basic.html#gad9287b23bba2fed753b36ef561ae7346" target="_top" xlink:title=" ">
<polygon fill="white" stroke="#666666" points="158,-19 87,-19 87,0 158,0 158,-19"/>
<text text-anchor="middle" x="122.5" y="-7" font-family="Helvetica,sans-Serif" font-size="10.00">cv::noArray</text>
</a>
</g>
</g>
<!-- Node1&#45;&gt;Node2 -->
<g id="edge2_Node000001_Node000002" class="edge">
<title>Node1&#45;&gt;Node2</title>
<g id="a_edge2_Node000001_Node000002"><a xlink:title=" ">
<path fill="none" stroke="#63b8ff" d="M51.46,-9.5C59.2,-9.5 67.99,-9.5 76.66,-9.5"/>
<polygon fill="#63b8ff" stroke="#63b8ff" points="76.71,-13 86.71,-9.5 76.71,-6 76.71,-13"/>
</a>
</g>
</g>
</g>
</svg>
