<?xml version="1.0" encoding="UTF-8" standalone="no"?>
<!DOCTYPE svg PUBLIC "-//W3C//DTD SVG 1.1//EN"
 "http://www.w3.org/Graphics/SVG/1.1/DTD/svg11.dtd">
<!-- Generated by graphviz version 2.43.0 (0)
 -->
<!-- Title: cv::minMaxLoc Pages: 1 -->
<svg width="329pt" height="45pt"
 viewBox="0.00 0.00 329.00 45.00" xmlns="http://www.w3.org/2000/svg" xmlns:xlink="http://www.w3.org/1999/xlink">
<g id="graph0" class="graph" transform="scale(1 1) rotate(0) translate(4 41)">
<title>cv::minMaxLoc</title>
<!-- Node1 -->
<g id="Node000001" class="node">
<title>Node1</title>
<g id="a_Node000001"><a xlink:title=" ">
<polygon fill="#999999" stroke="#666666" points="89,-19 0,-19 0,0 89,0 89,-19"/>
<text text-anchor="middle" x="44.5" y="-7" font-family="Helvetica,sans-Serif" font-size="10.00">cv::minMaxLoc</text>
</a>
</g>
</g>
<!-- Node2 -->
<g id="Node000002" class="node">
<title>Node2</title>
<g id="a_Node000002"><a xlink:href="../../d2/de8/group__core__array.html#gab473bf2eb6d14ff97e89b355dac20707" target="_top" xlink:title="Finds the global minimum and maximum in an array.">
<polygon fill="white" stroke="#666666" points="214,-19 125,-19 125,0 214,0 214,-19"/>
<text text-anchor="middle" x="169.5" y="-7" font-family="Helvetica,sans-Serif" font-size="10.00">cv::minMaxLoc</text>
</a>
</g>
</g>
<!-- Node1&#45;&gt;Node2 -->
<g id="edge1_Node000001_Node000002" class="edge">
<title>Node1&#45;&gt;Node2</title>
<g id="a_edge1_Node000001_Node000002"><a xlink:title=" ">
<path fill="none" stroke="#63b8ff" d="M89.21,-9.5C97.46,-9.5 106.17,-9.5 114.69,-9.5"/>
<polygon fill="#63b8ff" stroke="#63b8ff" points="114.93,-13 124.93,-9.5 114.93,-6 114.93,-13"/>
</a>
</g>
</g>
<!-- Node2&#45;&gt;Node2 -->
<g id="edge2_Node000002_Node000002" class="edge">
<title>Node2&#45;&gt;Node2</title>
<g id="a_edge2_Node000002_Node000002"><a xlink:title=" ">
<path fill="none" stroke="#63b8ff" d="M151.62,-19.08C142.92,-27.73 148.88,-37 169.5,-37 182.39,-37 189.55,-33.38 190.98,-28.55"/>
<polygon fill="#63b8ff" stroke="#63b8ff" points="194.2,-27.19 187.38,-19.08 187.66,-29.67 194.2,-27.19"/>
</a>
</g>
</g>
<!-- Node3 -->
<g id="Node000003" class="node">
<title>Node3</title>
<g id="a_Node000003"><a xlink:href="../../dc/d84/group__core__basic.html#gad9287b23bba2fed753b36ef561ae7346" target="_top" xlink:title=" ">
<polygon fill="white" stroke="#666666" points="321,-19 250,-19 250,0 321,0 321,-19"/>
<text text-anchor="middle" x="285.5" y="-7" font-family="Helvetica,sans-Serif" font-size="10.00">cv::noArray</text>
</a>
</g>
</g>
<!-- Node2&#45;&gt;Node3 -->
<g id="edge3_Node000002_Node000003" class="edge">
<title>Node2&#45;&gt;Node3</title>
<g id="a_edge3_Node000002_Node000003"><a xlink:title=" ">
<path fill="none" stroke="#63b8ff" d="M214.25,-9.5C222.64,-9.5 231.44,-9.5 239.86,-9.5"/>
<polygon fill="#63b8ff" stroke="#63b8ff" points="239.89,-13 249.89,-9.5 239.89,-6 239.89,-13"/>
</a>
</g>
</g>
</g>
</svg>
