<?xml version="1.0" encoding="UTF-8" standalone="no"?>
<!DOCTYPE svg PUBLIC "-//W3C//DTD SVG 1.1//EN"
 "http://www.w3.org/Graphics/SVG/1.1/DTD/svg11.dtd">
<!-- Generated by graphviz version 2.43.0 (0)
 -->
<!-- Title: cv::vconcat Pages: 1 -->
<svg width="186pt" height="45pt"
 viewBox="0.00 0.00 186.00 45.00" xmlns="http://www.w3.org/2000/svg" xmlns:xlink="http://www.w3.org/1999/xlink">
<g id="graph0" class="graph" transform="scale(1 1) rotate(0) translate(4 41)">
<title>cv::vconcat</title>
<!-- Node1 -->
<g id="Node000001" class="node">
<title>Node1</title>
<g id="a_Node000001"><a xlink:title=" ">
<polygon fill="#999999" stroke="#666666" points="71,-19 0,-19 0,0 71,0 71,-19"/>
<text text-anchor="middle" x="35.5" y="-7" font-family="Helvetica,sans-Serif" font-size="10.00">cv::vconcat</text>
</a>
</g>
</g>
<!-- Node2 -->
<g id="Node000002" class="node">
<title>Node2</title>
<g id="a_Node000002"><a xlink:href="../../d2/de8/group__core__array.html#ga744f53b69f6e4f12156cdde4e76aed27" target="_top" xlink:title="Applies vertical concatenation to given matrices.">
<polygon fill="white" stroke="#666666" points="178,-19 107,-19 107,0 178,0 178,-19"/>
<text text-anchor="middle" x="142.5" y="-7" font-family="Helvetica,sans-Serif" font-size="10.00">cv::vconcat</text>
</a>
</g>
</g>
<!-- Node1&#45;&gt;Node2 -->
<g id="edge1_Node000001_Node000002" class="edge">
<title>Node1&#45;&gt;Node2</title>
<g id="a_edge1_Node000001_Node000002"><a xlink:title=" ">
<path fill="none" stroke="#63b8ff" d="M71.17,-9.5C79.33,-9.5 88.13,-9.5 96.66,-9.5"/>
<polygon fill="#63b8ff" stroke="#63b8ff" points="96.86,-13 106.86,-9.5 96.86,-6 96.86,-13"/>
</a>
</g>
</g>
<!-- Node2&#45;&gt;Node2 -->
<g id="edge2_Node000002_Node000002" class="edge">
<title>Node2&#45;&gt;Node2</title>
<g id="a_edge2_Node000002_Node000002"><a xlink:title=" ">
<path fill="none" stroke="#63b8ff" d="M126.16,-19.08C118.21,-27.73 123.66,-37 142.5,-37 154.27,-37 160.82,-33.38 162.13,-28.55"/>
<polygon fill="#63b8ff" stroke="#63b8ff" points="165.43,-27.38 158.84,-19.08 158.81,-29.68 165.43,-27.38"/>
</a>
</g>
</g>
</g>
</svg>
