<?xml version="1.0" encoding="UTF-8" standalone="no"?>
<!DOCTYPE svg PUBLIC "-//W3C//DTD SVG 1.1//EN"
 "http://www.w3.org/Graphics/SVG/1.1/DTD/svg11.dtd">
<!-- Generated by graphviz version 2.43.0 (0)
 -->
<!-- Title: cv::bitwise_not Pages: 1 -->
<svg width="204pt" height="45pt"
 viewBox="0.00 0.00 204.00 45.00" xmlns="http://www.w3.org/2000/svg" xmlns:xlink="http://www.w3.org/1999/xlink">
<g id="graph0" class="graph" transform="scale(1 1) rotate(0) translate(4 41)">
<title>cv::bitwise_not</title>
<!-- Node1 -->
<g id="Node000001" class="node">
<title>Node1</title>
<g id="a_Node000001"><a xlink:title="Inverts every bit of an array.">
<polygon fill="#999999" stroke="#666666" points="89,-19 0,-19 0,0 89,0 89,-19"/>
<text text-anchor="middle" x="44.5" y="-7" font-family="Helvetica,sans-Serif" font-size="10.00">cv::bitwise_not</text>
</a>
</g>
</g>
<!-- Node1&#45;&gt;Node1 -->
<g id="edge1_Node000001_Node000001" class="edge">
<title>Node1&#45;&gt;Node1</title>
<g id="a_edge1_Node000001_Node000001"><a xlink:title=" ">
<path fill="none" stroke="#63b8ff" d="M26.62,-19.08C17.92,-27.73 23.88,-37 44.5,-37 57.39,-37 64.55,-33.38 65.98,-28.55"/>
<polygon fill="#63b8ff" stroke="#63b8ff" points="69.2,-27.19 62.38,-19.08 62.66,-29.67 69.2,-27.19"/>
</a>
</g>
</g>
<!-- Node2 -->
<g id="Node000002" class="node">
<title>Node2</title>
<g id="a_Node000002"><a xlink:href="../../dc/d84/group__core__basic.html#gad9287b23bba2fed753b36ef561ae7346" target="_top" xlink:title=" ">
<polygon fill="white" stroke="#666666" points="196,-19 125,-19 125,0 196,0 196,-19"/>
<text text-anchor="middle" x="160.5" y="-7" font-family="Helvetica,sans-Serif" font-size="10.00">cv::noArray</text>
</a>
</g>
</g>
<!-- Node1&#45;&gt;Node2 -->
<g id="edge2_Node000001_Node000002" class="edge">
<title>Node1&#45;&gt;Node2</title>
<g id="a_edge2_Node000001_Node000002"><a xlink:title=" ">
<path fill="none" stroke="#63b8ff" d="M89.25,-9.5C97.64,-9.5 106.44,-9.5 114.86,-9.5"/>
<polygon fill="#63b8ff" stroke="#63b8ff" points="114.89,-13 124.89,-9.5 114.89,-6 114.89,-13"/>
</a>
</g>
</g>
</g>
</svg>
