<?xml version="1.0" encoding="UTF-8" standalone="no"?>
<!DOCTYPE svg PUBLIC "-//W3C//DTD SVG 1.1//EN"
 "http://www.w3.org/Graphics/SVG/1.1/DTD/svg11.dtd">
<!-- Generated by graphviz version 2.43.0 (0)
 -->
<!-- Title: cv::split Pages: 1 -->
<svg width="152pt" height="45pt"
 viewBox="0.00 0.00 152.00 45.00" xmlns="http://www.w3.org/2000/svg" xmlns:xlink="http://www.w3.org/1999/xlink">
<g id="graph0" class="graph" transform="scale(1 1) rotate(0) translate(4 41)">
<title>cv::split</title>
<!-- Node1 -->
<g id="Node000001" class="node">
<title>Node1</title>
<g id="a_Node000001"><a xlink:title=" ">
<polygon fill="#999999" stroke="#666666" points="54,-19 0,-19 0,0 54,0 54,-19"/>
<text text-anchor="middle" x="27" y="-7" font-family="Helvetica,sans-Serif" font-size="10.00">cv::split</text>
</a>
</g>
</g>
<!-- Node2 -->
<g id="Node000002" class="node">
<title>Node2</title>
<g id="a_Node000002"><a xlink:href="../../d2/de8/group__core__array.html#ga0547c7fed86152d7e9d0096029c8518a" target="_top" xlink:title="Divides a multi&#45;channel array into several single&#45;channel arrays.">
<polygon fill="white" stroke="#666666" points="144,-19 90,-19 90,0 144,0 144,-19"/>
<text text-anchor="middle" x="117" y="-7" font-family="Helvetica,sans-Serif" font-size="10.00">cv::split</text>
</a>
</g>
</g>
<!-- Node1&#45;&gt;Node2 -->
<g id="edge1_Node000001_Node000002" class="edge">
<title>Node1&#45;&gt;Node2</title>
<g id="a_edge1_Node000001_Node000002"><a xlink:title=" ">
<path fill="none" stroke="#63b8ff" d="M54.4,-9.5C62.39,-9.5 71.31,-9.5 79.82,-9.5"/>
<polygon fill="#63b8ff" stroke="#63b8ff" points="79.92,-13 89.92,-9.5 79.92,-6 79.92,-13"/>
</a>
</g>
</g>
<!-- Node2&#45;&gt;Node2 -->
<g id="edge2_Node000002_Node000002" class="edge">
<title>Node2&#45;&gt;Node2</title>
<g id="a_edge2_Node000002_Node000002"><a xlink:title=" ">
<path fill="none" stroke="#63b8ff" d="M103.13,-19.08C96.38,-27.73 101,-37 117,-37 126.75,-37 132.27,-33.56 133.57,-28.91"/>
<polygon fill="#63b8ff" stroke="#63b8ff" points="136.9,-27.8 130.87,-19.08 130.15,-29.65 136.9,-27.8"/>
</a>
</g>
</g>
</g>
</svg>
