<?xml version="1.0" encoding="UTF-8" standalone="no"?>
<!DOCTYPE svg PUBLIC "-//W3C//DTD SVG 1.1//EN"
 "http://www.w3.org/Graphics/SVG/1.1/DTD/svg11.dtd">
<!-- Generated by graphviz version 2.43.0 (0)
 -->
<!-- Title: cv::gapi::fluid::Border Pages: 1 -->
<svg width="319pt" height="2382pt"
 viewBox="0.00 0.00 319.00 2382.00" xmlns="http://www.w3.org/2000/svg" xmlns:xlink="http://www.w3.org/1999/xlink">
<g id="graph0" class="graph" transform="scale(1 1) rotate(0) translate(4 2378)">
<title>cv::gapi::fluid::Border</title>
<!-- Node1 -->
<g id="Node000001" class="node">
<title>Node1</title>
<g id="a_Node000001"><a xlink:title=" ">
<polygon fill="#999999" stroke="transparent" points="113,-49 0,-49 0,0 113,0 113,-49"/>
<text text-anchor="start" x="5.5" y="-36.5" font-family="Helvetica,sans-Serif" font-size="10.00">cv::gapi::fluid::Border</text>
<text text-anchor="start" x="55" y="-21.5" font-family="Helvetica,sans-Serif" font-size="10.00"> </text>
<text text-anchor="start" x="17.5" y="-6.5" font-family="Helvetica,sans-Serif" font-size="10.00">+</text>
<text text-anchor="start" x="43.5" y="-6.5" font-family="Helvetica,sans-Serif" font-size="10.00">Border()</text>
<polygon fill="#666666" stroke="#666666" points="0.5,-31.5 0.5,-31.5 113.5,-31.5 113.5,-31.5 0.5,-31.5"/>
<polygon fill="#666666" stroke="#666666" points="0.5,-16.5 0.5,-16.5 113.5,-16.5 113.5,-16.5 0.5,-16.5"/>
<polygon fill="none" stroke="#666666" points="0,0 0,-49 113,-49 113,0 0,0"/>
</a>
</g>
</g>
<!-- Node2 -->
<g id="Node000002" class="node">
<title>Node2</title>
<g id="a_Node000002"><a xlink:title=" ">
<polygon fill="white" stroke="transparent" points="40,-235 17,-235 17,-186 40,-186 40,-235"/>
<text text-anchor="start" x="22.5" y="-222.5" font-family="Helvetica,sans-Serif" font-size="10.00">int</text>
<text text-anchor="start" x="27" y="-207.5" font-family="Helvetica,sans-Serif" font-size="10.00"> </text>
<text text-anchor="start" x="27" y="-192.5" font-family="Helvetica,sans-Serif" font-size="10.00"> </text>
<polygon fill="#666666" stroke="#666666" points="17.5,-217.5 17.5,-217.5 40.5,-217.5 40.5,-217.5 17.5,-217.5"/>
<polygon fill="#666666" stroke="#666666" points="17.5,-202.5 17.5,-202.5 40.5,-202.5 40.5,-202.5 17.5,-202.5"/>
<polygon fill="none" stroke="#666666" points="17,-186 17,-235 40,-235 40,-186 17,-186"/>
</a>
</g>
</g>
<!-- Node2&#45;&gt;Node1 -->
<g id="edge1_Node000001_Node000002" class="edge">
<title>Node2&#45;&gt;Node1</title>
<g id="a_edge1_Node000001_Node000002"><a xlink:title=" ">
<path fill="none" stroke="#63b8ff" d="M32.1,-185.82C36.91,-154.22 45.47,-97.97 51.07,-61.21"/>
<polygon fill="none" stroke="#63b8ff" points="51.11,-60.95 48.05,-54.42 52.91,-49.09 55.96,-55.62 51.11,-60.95"/>
</a>
</g>
<text text-anchor="middle" x="67.5" y="-70" font-family="Helvetica,sans-Serif" font-size="10.00" fill="grey"> +type</text>
</g>
<!-- Node3 -->
<g id="Node000003" class="node">
<title>Node3</title>
<g id="a_Node000003"><a xlink:href="../../d1/da0/classcv_1_1Scalar__.html" target="_top" xlink:title=" ">
<polygon fill="white" stroke="transparent" points="201,-325 58,-325 58,-96 201,-96 201,-325"/>
<text text-anchor="start" x="76" y="-312.5" font-family="Helvetica,sans-Serif" font-size="10.00">cv::Scalar_&lt; double &gt;</text>
<text text-anchor="start" x="128" y="-297.5" font-family="Helvetica,sans-Serif" font-size="10.00"> </text>
<text text-anchor="start" x="62.5" y="-282.5" font-family="Helvetica,sans-Serif" font-size="10.00">+</text>
<text text-anchor="start" x="75.5" y="-282.5" font-family="Helvetica,sans-Serif" font-size="10.00">Scalar_()</text>
<text text-anchor="start" x="62.5" y="-267.5" font-family="Helvetica,sans-Serif" font-size="10.00">+</text>
<text text-anchor="start" x="75.5" y="-267.5" font-family="Helvetica,sans-Serif" font-size="10.00">Scalar_()</text>
<text text-anchor="start" x="62.5" y="-252.5" font-family="Helvetica,sans-Serif" font-size="10.00">+</text>
<text text-anchor="start" x="75.5" y="-252.5" font-family="Helvetica,sans-Serif" font-size="10.00">Scalar_()</text>
<text text-anchor="start" x="62.5" y="-237.5" font-family="Helvetica,sans-Serif" font-size="10.00">+</text>
<text text-anchor="start" x="75.5" y="-237.5" font-family="Helvetica,sans-Serif" font-size="10.00">Scalar_()</text>
<text text-anchor="start" x="62.5" y="-222.5" font-family="Helvetica,sans-Serif" font-size="10.00">+</text>
<text text-anchor="start" x="75.5" y="-222.5" font-family="Helvetica,sans-Serif" font-size="10.00">Scalar_()</text>
<text text-anchor="start" x="62.5" y="-207.5" font-family="Helvetica,sans-Serif" font-size="10.00">+</text>
<text text-anchor="start" x="75.5" y="-207.5" font-family="Helvetica,sans-Serif" font-size="10.00">Scalar_()</text>
<text text-anchor="start" x="62.5" y="-192.5" font-family="Helvetica,sans-Serif" font-size="10.00">+</text>
<text text-anchor="start" x="75.5" y="-192.5" font-family="Helvetica,sans-Serif" font-size="10.00">conj()</text>
<text text-anchor="start" x="62.5" y="-177.5" font-family="Helvetica,sans-Serif" font-size="10.00">+</text>
<text text-anchor="start" x="75.5" y="-177.5" font-family="Helvetica,sans-Serif" font-size="10.00">isReal()</text>
<text text-anchor="start" x="62.5" y="-162.5" font-family="Helvetica,sans-Serif" font-size="10.00">+</text>
<text text-anchor="start" x="75.5" y="-162.5" font-family="Helvetica,sans-Serif" font-size="10.00">mul()</text>
<text text-anchor="start" x="62.5" y="-147.5" font-family="Helvetica,sans-Serif" font-size="10.00">+</text>
<text text-anchor="start" x="75.5" y="-147.5" font-family="Helvetica,sans-Serif" font-size="10.00">operator Scalar_&lt; T2 &gt;()</text>
<text text-anchor="start" x="62.5" y="-132.5" font-family="Helvetica,sans-Serif" font-size="10.00">+</text>
<text text-anchor="start" x="75.5" y="-132.5" font-family="Helvetica,sans-Serif" font-size="10.00">operator=()</text>
<text text-anchor="start" x="62.5" y="-117.5" font-family="Helvetica,sans-Serif" font-size="10.00">+</text>
<text text-anchor="start" x="75.5" y="-117.5" font-family="Helvetica,sans-Serif" font-size="10.00">operator=()</text>
<text text-anchor="start" x="62.5" y="-102.5" font-family="Helvetica,sans-Serif" font-size="10.00">+</text>
<text text-anchor="start" x="75.5" y="-102.5" font-family="Helvetica,sans-Serif" font-size="10.00">all()</text>
<polygon fill="#666666" stroke="#666666" points="58.5,-307.5 58.5,-307.5 201.5,-307.5 201.5,-307.5 58.5,-307.5"/>
<polygon fill="#666666" stroke="#666666" points="58.5,-292.5 58.5,-292.5 201.5,-292.5 201.5,-292.5 58.5,-292.5"/>
<polygon fill="none" stroke="#666666" points="58,-96 58,-325 201,-325 201,-96 58,-96"/>
</a>
</g>
</g>
<!-- Node3&#45;&gt;Node1 -->
<g id="edge2_Node000001_Node000003" class="edge">
<title>Node3&#45;&gt;Node1</title>
<g id="a_edge2_Node000001_Node000003"><a xlink:title=" ">
<path fill="none" stroke="#63b8ff" d="M97.96,-95.85C94.14,-85.93 89.99,-76.19 85.5,-67 84.31,-64.56 82.98,-62.11 81.57,-59.68"/>
<polygon fill="none" stroke="#63b8ff" points="81.42,-59.44 74.83,-56.51 75,-49.3 81.59,-52.23 81.42,-59.44"/>
</a>
</g>
<text text-anchor="middle" x="111" y="-70" font-family="Helvetica,sans-Serif" font-size="10.00" fill="grey"> +value</text>
</g>
<!-- Node4 -->
<g id="Node000004" class="node">
<title>Node4</title>
<g id="a_Node000004"><a xlink:href="../../d6/dcf/classcv_1_1Vec.html" target="_top" xlink:title="Template class for short numerical vectors, a partial case of Matx.">
<polygon fill="white" stroke="transparent" points="147,-1264 46,-1264 46,-960 147,-960 147,-1264"/>
<text text-anchor="start" x="51.5" y="-1252" font-family="Helvetica,sans-Serif" font-size="10.00">cv::Vec&lt; _Tp, cn &gt;</text>
<text text-anchor="start" x="95" y="-1237" font-family="Helvetica,sans-Serif" font-size="10.00"> </text>
<text text-anchor="start" x="52.5" y="-1222" font-family="Helvetica,sans-Serif" font-size="10.00">+</text>
<text text-anchor="start" x="67.5" y="-1222" font-family="Helvetica,sans-Serif" font-size="10.00">Vec()</text>
<text text-anchor="start" x="52.5" y="-1207" font-family="Helvetica,sans-Serif" font-size="10.00">+</text>
<text text-anchor="start" x="67.5" y="-1207" font-family="Helvetica,sans-Serif" font-size="10.00">Vec()</text>
<text text-anchor="start" x="52.5" y="-1192" font-family="Helvetica,sans-Serif" font-size="10.00">+</text>
<text text-anchor="start" x="67.5" y="-1192" font-family="Helvetica,sans-Serif" font-size="10.00">Vec()</text>
<text text-anchor="start" x="52.5" y="-1177" font-family="Helvetica,sans-Serif" font-size="10.00">+</text>
<text text-anchor="start" x="67.5" y="-1177" font-family="Helvetica,sans-Serif" font-size="10.00">Vec()</text>
<text text-anchor="start" x="52.5" y="-1162" font-family="Helvetica,sans-Serif" font-size="10.00">+</text>
<text text-anchor="start" x="67.5" y="-1162" font-family="Helvetica,sans-Serif" font-size="10.00">Vec()</text>
<text text-anchor="start" x="52.5" y="-1147" font-family="Helvetica,sans-Serif" font-size="10.00">+</text>
<text text-anchor="start" x="67.5" y="-1147" font-family="Helvetica,sans-Serif" font-size="10.00">Vec()</text>
<text text-anchor="start" x="52.5" y="-1132" font-family="Helvetica,sans-Serif" font-size="10.00">+</text>
<text text-anchor="start" x="67.5" y="-1132" font-family="Helvetica,sans-Serif" font-size="10.00">Vec()</text>
<text text-anchor="start" x="52.5" y="-1117" font-family="Helvetica,sans-Serif" font-size="10.00">+</text>
<text text-anchor="start" x="67.5" y="-1117" font-family="Helvetica,sans-Serif" font-size="10.00">Vec()</text>
<text text-anchor="start" x="52.5" y="-1102" font-family="Helvetica,sans-Serif" font-size="10.00">+</text>
<text text-anchor="start" x="67.5" y="-1102" font-family="Helvetica,sans-Serif" font-size="10.00">Vec()</text>
<text text-anchor="start" x="52.5" y="-1087" font-family="Helvetica,sans-Serif" font-size="10.00">+</text>
<text text-anchor="start" x="67.5" y="-1087" font-family="Helvetica,sans-Serif" font-size="10.00">Vec()</text>
<text text-anchor="start" x="67.5" y="-1072" font-family="Helvetica,sans-Serif" font-size="10.00">and 17 more...</text>
<text text-anchor="start" x="52.5" y="-1057" font-family="Helvetica,sans-Serif" font-size="10.00">+</text>
<text text-anchor="start" x="67.5" y="-1057" font-family="Helvetica,sans-Serif" font-size="10.00">all()</text>
<text text-anchor="start" x="52.5" y="-1042" font-family="Helvetica,sans-Serif" font-size="10.00">+</text>
<text text-anchor="start" x="67.5" y="-1042" font-family="Helvetica,sans-Serif" font-size="10.00">diag()</text>
<text text-anchor="start" x="52.5" y="-1027" font-family="Helvetica,sans-Serif" font-size="10.00">+</text>
<text text-anchor="start" x="67.5" y="-1027" font-family="Helvetica,sans-Serif" font-size="10.00">eye()</text>
<text text-anchor="start" x="52.5" y="-1012" font-family="Helvetica,sans-Serif" font-size="10.00">+</text>
<text text-anchor="start" x="67.5" y="-1012" font-family="Helvetica,sans-Serif" font-size="10.00">ones()</text>
<text text-anchor="start" x="52.5" y="-997" font-family="Helvetica,sans-Serif" font-size="10.00">+</text>
<text text-anchor="start" x="67.5" y="-997" font-family="Helvetica,sans-Serif" font-size="10.00">randn()</text>
<text text-anchor="start" x="52.5" y="-982" font-family="Helvetica,sans-Serif" font-size="10.00">+</text>
<text text-anchor="start" x="67.5" y="-982" font-family="Helvetica,sans-Serif" font-size="10.00">randu()</text>
<text text-anchor="start" x="52.5" y="-967" font-family="Helvetica,sans-Serif" font-size="10.00">+</text>
<text text-anchor="start" x="67.5" y="-967" font-family="Helvetica,sans-Serif" font-size="10.00">zeros()</text>
<polygon fill="#666666" stroke="#666666" points="46.5,-1247 46.5,-1247 147.5,-1247 147.5,-1247 46.5,-1247"/>
<polygon fill="#666666" stroke="#666666" points="46.5,-1232 46.5,-1232 147.5,-1232 147.5,-1232 46.5,-1232"/>
<polygon fill="none" stroke="#666666" points="46,-960 46,-1264 147,-1264 147,-960 46,-960"/>
</a>
</g>
</g>
<!-- Node4&#45;&gt;Node3 -->
<g id="edge3_Node000003_Node000004" class="edge">
<title>Node4&#45;&gt;Node3</title>
<g id="a_edge3_Node000003_Node000004"><a xlink:title=" ">
<path fill="none" stroke="#63b8ff" d="M97.8,-949.6C99.69,-799.81 104.29,-570.69 115.5,-372 116.35,-356.92 117.47,-341.06 118.7,-325.42"/>
<polygon fill="none" stroke="#63b8ff" points="94.3,-949.76 97.68,-959.8 101.3,-949.85 94.3,-949.76"/>
</a>
</g>
</g>
<!-- Node5 -->
<g id="Node000005" class="node">
<title>Node5</title>
<g id="a_Node000005"><a xlink:href="../../de/de1/classcv_1_1Matx.html" target="_top" xlink:title=" ">
<polygon fill="white" stroke="transparent" points="223,-1927 102,-1927 102,-1623 223,-1623 223,-1927"/>
<text text-anchor="start" x="107.5" y="-1915" font-family="Helvetica,sans-Serif" font-size="10.00">cv::Matx&lt; _Tp, cn, 1 &gt;</text>
<text text-anchor="start" x="161" y="-1900" font-family="Helvetica,sans-Serif" font-size="10.00"> </text>
<text text-anchor="start" x="113.5" y="-1885" font-family="Helvetica,sans-Serif" font-size="10.00">+</text>
<text text-anchor="start" x="133.5" y="-1885" font-family="Helvetica,sans-Serif" font-size="10.00">Matx()</text>
<text text-anchor="start" x="113.5" y="-1870" font-family="Helvetica,sans-Serif" font-size="10.00">+</text>
<text text-anchor="start" x="133.5" y="-1870" font-family="Helvetica,sans-Serif" font-size="10.00">Matx()</text>
<text text-anchor="start" x="113.5" y="-1855" font-family="Helvetica,sans-Serif" font-size="10.00">+</text>
<text text-anchor="start" x="133.5" y="-1855" font-family="Helvetica,sans-Serif" font-size="10.00">Matx()</text>
<text text-anchor="start" x="113.5" y="-1840" font-family="Helvetica,sans-Serif" font-size="10.00">+</text>
<text text-anchor="start" x="133.5" y="-1840" font-family="Helvetica,sans-Serif" font-size="10.00">Matx()</text>
<text text-anchor="start" x="113.5" y="-1825" font-family="Helvetica,sans-Serif" font-size="10.00">+</text>
<text text-anchor="start" x="133.5" y="-1825" font-family="Helvetica,sans-Serif" font-size="10.00">Matx()</text>
<text text-anchor="start" x="113.5" y="-1810" font-family="Helvetica,sans-Serif" font-size="10.00">+</text>
<text text-anchor="start" x="133.5" y="-1810" font-family="Helvetica,sans-Serif" font-size="10.00">Matx()</text>
<text text-anchor="start" x="113.5" y="-1795" font-family="Helvetica,sans-Serif" font-size="10.00">+</text>
<text text-anchor="start" x="133.5" y="-1795" font-family="Helvetica,sans-Serif" font-size="10.00">Matx()</text>
<text text-anchor="start" x="113.5" y="-1780" font-family="Helvetica,sans-Serif" font-size="10.00">+</text>
<text text-anchor="start" x="133.5" y="-1780" font-family="Helvetica,sans-Serif" font-size="10.00">Matx()</text>
<text text-anchor="start" x="113.5" y="-1765" font-family="Helvetica,sans-Serif" font-size="10.00">+</text>
<text text-anchor="start" x="133.5" y="-1765" font-family="Helvetica,sans-Serif" font-size="10.00">Matx()</text>
<text text-anchor="start" x="113.5" y="-1750" font-family="Helvetica,sans-Serif" font-size="10.00">+</text>
<text text-anchor="start" x="133.5" y="-1750" font-family="Helvetica,sans-Serif" font-size="10.00">Matx()</text>
<text text-anchor="start" x="133.5" y="-1735" font-family="Helvetica,sans-Serif" font-size="10.00">and 31 more...</text>
<text text-anchor="start" x="113.5" y="-1720" font-family="Helvetica,sans-Serif" font-size="10.00">+</text>
<text text-anchor="start" x="133.5" y="-1720" font-family="Helvetica,sans-Serif" font-size="10.00">all()</text>
<text text-anchor="start" x="113.5" y="-1705" font-family="Helvetica,sans-Serif" font-size="10.00">+</text>
<text text-anchor="start" x="133.5" y="-1705" font-family="Helvetica,sans-Serif" font-size="10.00">diag()</text>
<text text-anchor="start" x="113.5" y="-1690" font-family="Helvetica,sans-Serif" font-size="10.00">+</text>
<text text-anchor="start" x="133.5" y="-1690" font-family="Helvetica,sans-Serif" font-size="10.00">eye()</text>
<text text-anchor="start" x="113.5" y="-1675" font-family="Helvetica,sans-Serif" font-size="10.00">+</text>
<text text-anchor="start" x="133.5" y="-1675" font-family="Helvetica,sans-Serif" font-size="10.00">ones()</text>
<text text-anchor="start" x="113.5" y="-1660" font-family="Helvetica,sans-Serif" font-size="10.00">+</text>
<text text-anchor="start" x="133.5" y="-1660" font-family="Helvetica,sans-Serif" font-size="10.00">randn()</text>
<text text-anchor="start" x="113.5" y="-1645" font-family="Helvetica,sans-Serif" font-size="10.00">+</text>
<text text-anchor="start" x="133.5" y="-1645" font-family="Helvetica,sans-Serif" font-size="10.00">randu()</text>
<text text-anchor="start" x="113.5" y="-1630" font-family="Helvetica,sans-Serif" font-size="10.00">+</text>
<text text-anchor="start" x="133.5" y="-1630" font-family="Helvetica,sans-Serif" font-size="10.00">zeros()</text>
<polygon fill="#666666" stroke="#666666" points="102.5,-1910 102.5,-1910 223.5,-1910 223.5,-1910 102.5,-1910"/>
<polygon fill="#666666" stroke="#666666" points="102.5,-1895 102.5,-1895 223.5,-1895 223.5,-1895 102.5,-1895"/>
<polygon fill="none" stroke="#666666" points="102,-1623 102,-1927 223,-1927 223,-1623 102,-1623"/>
</a>
</g>
</g>
<!-- Node5&#45;&gt;Node4 -->
<g id="edge4_Node000004_Node000005" class="edge">
<title>Node5&#45;&gt;Node4</title>
<g id="a_edge4_Node000004_Node000005"><a xlink:title=" ">
<path fill="none" stroke="#63b8ff" d="M146.38,-1612.59C135.78,-1506.35 121.98,-1368.21 111.59,-1264.13"/>
<polygon fill="none" stroke="#63b8ff" points="142.92,-1613.16 147.4,-1622.77 149.89,-1612.47 142.92,-1613.16"/>
</a>
</g>
</g>
<!-- Node9 -->
<g id="Node000009" class="node">
<title>Node9</title>
<g id="a_Node000009"><a xlink:href="../../d6/dcf/classcv_1_1Vec.html" target="_top" xlink:title=" ">
<polygon fill="white" stroke="transparent" points="244.5,-942 148.5,-942 148.5,-638 244.5,-638 244.5,-942"/>
<text text-anchor="start" x="153.5" y="-930" font-family="Helvetica,sans-Serif" font-size="10.00">cv::Vec&lt; _Tp, 4 &gt;</text>
<text text-anchor="start" x="194.5" y="-915" font-family="Helvetica,sans-Serif" font-size="10.00"> </text>
<text text-anchor="start" x="153.5" y="-900" font-family="Helvetica,sans-Serif" font-size="10.00">+</text>
<text text-anchor="start" x="167.5" y="-900" font-family="Helvetica,sans-Serif" font-size="10.00">Vec()</text>
<text text-anchor="start" x="153.5" y="-885" font-family="Helvetica,sans-Serif" font-size="10.00">+</text>
<text text-anchor="start" x="167.5" y="-885" font-family="Helvetica,sans-Serif" font-size="10.00">Vec()</text>
<text text-anchor="start" x="153.5" y="-870" font-family="Helvetica,sans-Serif" font-size="10.00">+</text>
<text text-anchor="start" x="167.5" y="-870" font-family="Helvetica,sans-Serif" font-size="10.00">Vec()</text>
<text text-anchor="start" x="153.5" y="-855" font-family="Helvetica,sans-Serif" font-size="10.00">+</text>
<text text-anchor="start" x="167.5" y="-855" font-family="Helvetica,sans-Serif" font-size="10.00">Vec()</text>
<text text-anchor="start" x="153.5" y="-840" font-family="Helvetica,sans-Serif" font-size="10.00">+</text>
<text text-anchor="start" x="167.5" y="-840" font-family="Helvetica,sans-Serif" font-size="10.00">Vec()</text>
<text text-anchor="start" x="153.5" y="-825" font-family="Helvetica,sans-Serif" font-size="10.00">+</text>
<text text-anchor="start" x="167.5" y="-825" font-family="Helvetica,sans-Serif" font-size="10.00">Vec()</text>
<text text-anchor="start" x="153.5" y="-810" font-family="Helvetica,sans-Serif" font-size="10.00">+</text>
<text text-anchor="start" x="167.5" y="-810" font-family="Helvetica,sans-Serif" font-size="10.00">Vec()</text>
<text text-anchor="start" x="153.5" y="-795" font-family="Helvetica,sans-Serif" font-size="10.00">+</text>
<text text-anchor="start" x="167.5" y="-795" font-family="Helvetica,sans-Serif" font-size="10.00">Vec()</text>
<text text-anchor="start" x="153.5" y="-780" font-family="Helvetica,sans-Serif" font-size="10.00">+</text>
<text text-anchor="start" x="167.5" y="-780" font-family="Helvetica,sans-Serif" font-size="10.00">Vec()</text>
<text text-anchor="start" x="153.5" y="-765" font-family="Helvetica,sans-Serif" font-size="10.00">+</text>
<text text-anchor="start" x="167.5" y="-765" font-family="Helvetica,sans-Serif" font-size="10.00">Vec()</text>
<text text-anchor="start" x="167.5" y="-750" font-family="Helvetica,sans-Serif" font-size="10.00">and 17 more...</text>
<text text-anchor="start" x="153.5" y="-735" font-family="Helvetica,sans-Serif" font-size="10.00">+</text>
<text text-anchor="start" x="167.5" y="-735" font-family="Helvetica,sans-Serif" font-size="10.00">all()</text>
<text text-anchor="start" x="153.5" y="-720" font-family="Helvetica,sans-Serif" font-size="10.00">+</text>
<text text-anchor="start" x="167.5" y="-720" font-family="Helvetica,sans-Serif" font-size="10.00">diag()</text>
<text text-anchor="start" x="153.5" y="-705" font-family="Helvetica,sans-Serif" font-size="10.00">+</text>
<text text-anchor="start" x="167.5" y="-705" font-family="Helvetica,sans-Serif" font-size="10.00">eye()</text>
<text text-anchor="start" x="153.5" y="-690" font-family="Helvetica,sans-Serif" font-size="10.00">+</text>
<text text-anchor="start" x="167.5" y="-690" font-family="Helvetica,sans-Serif" font-size="10.00">ones()</text>
<text text-anchor="start" x="153.5" y="-675" font-family="Helvetica,sans-Serif" font-size="10.00">+</text>
<text text-anchor="start" x="167.5" y="-675" font-family="Helvetica,sans-Serif" font-size="10.00">randn()</text>
<text text-anchor="start" x="153.5" y="-660" font-family="Helvetica,sans-Serif" font-size="10.00">+</text>
<text text-anchor="start" x="167.5" y="-660" font-family="Helvetica,sans-Serif" font-size="10.00">randu()</text>
<text text-anchor="start" x="153.5" y="-645" font-family="Helvetica,sans-Serif" font-size="10.00">+</text>
<text text-anchor="start" x="167.5" y="-645" font-family="Helvetica,sans-Serif" font-size="10.00">zeros()</text>
<polygon fill="#666666" stroke="#666666" points="148.5,-925 148.5,-925 244.5,-925 244.5,-925 148.5,-925"/>
<polygon fill="#666666" stroke="#666666" points="148.5,-910 148.5,-910 244.5,-910 244.5,-910 148.5,-910"/>
<polygon fill="none" stroke="#666666" points="148.5,-638 148.5,-942 244.5,-942 244.5,-638 148.5,-638"/>
</a>
</g>
</g>
<!-- Node5&#45;&gt;Node9 -->
<g id="edge10_Node000009_Node000005" class="edge">
<title>Node5&#45;&gt;Node9</title>
<g id="a_edge10_Node000009_Node000005"><a xlink:title=" ">
<path fill="none" stroke="#63b8ff" d="M168.08,-1612.69C174.51,-1426.84 184.99,-1123.81 191.27,-942.3"/>
<polygon fill="none" stroke="#63b8ff" points="164.58,-1612.71 167.73,-1622.83 171.57,-1612.96 164.58,-1612.71"/>
</a>
</g>
</g>
<!-- Node10 -->
<g id="Node000010" class="node">
<title>Node10</title>
<g id="a_Node000010"><a xlink:href="../../d6/dcf/classcv_1_1Vec.html" target="_top" xlink:title="Template class for short numerical vectors, a partial case of Matx.">
<polygon fill="white" stroke="transparent" points="292,-1586 191,-1586 191,-1282 292,-1282 292,-1586"/>
<text text-anchor="start" x="196.5" y="-1574" font-family="Helvetica,sans-Serif" font-size="10.00">cv::Vec&lt; _Tp, cn &gt;</text>
<text text-anchor="start" x="240" y="-1559" font-family="Helvetica,sans-Serif" font-size="10.00"> </text>
<text text-anchor="start" x="197.5" y="-1544" font-family="Helvetica,sans-Serif" font-size="10.00">+</text>
<text text-anchor="start" x="212.5" y="-1544" font-family="Helvetica,sans-Serif" font-size="10.00">Vec()</text>
<text text-anchor="start" x="197.5" y="-1529" font-family="Helvetica,sans-Serif" font-size="10.00">+</text>
<text text-anchor="start" x="212.5" y="-1529" font-family="Helvetica,sans-Serif" font-size="10.00">Vec()</text>
<text text-anchor="start" x="197.5" y="-1514" font-family="Helvetica,sans-Serif" font-size="10.00">+</text>
<text text-anchor="start" x="212.5" y="-1514" font-family="Helvetica,sans-Serif" font-size="10.00">Vec()</text>
<text text-anchor="start" x="197.5" y="-1499" font-family="Helvetica,sans-Serif" font-size="10.00">+</text>
<text text-anchor="start" x="212.5" y="-1499" font-family="Helvetica,sans-Serif" font-size="10.00">Vec()</text>
<text text-anchor="start" x="197.5" y="-1484" font-family="Helvetica,sans-Serif" font-size="10.00">+</text>
<text text-anchor="start" x="212.5" y="-1484" font-family="Helvetica,sans-Serif" font-size="10.00">Vec()</text>
<text text-anchor="start" x="197.5" y="-1469" font-family="Helvetica,sans-Serif" font-size="10.00">+</text>
<text text-anchor="start" x="212.5" y="-1469" font-family="Helvetica,sans-Serif" font-size="10.00">Vec()</text>
<text text-anchor="start" x="197.5" y="-1454" font-family="Helvetica,sans-Serif" font-size="10.00">+</text>
<text text-anchor="start" x="212.5" y="-1454" font-family="Helvetica,sans-Serif" font-size="10.00">Vec()</text>
<text text-anchor="start" x="197.5" y="-1439" font-family="Helvetica,sans-Serif" font-size="10.00">+</text>
<text text-anchor="start" x="212.5" y="-1439" font-family="Helvetica,sans-Serif" font-size="10.00">Vec()</text>
<text text-anchor="start" x="197.5" y="-1424" font-family="Helvetica,sans-Serif" font-size="10.00">+</text>
<text text-anchor="start" x="212.5" y="-1424" font-family="Helvetica,sans-Serif" font-size="10.00">Vec()</text>
<text text-anchor="start" x="197.5" y="-1409" font-family="Helvetica,sans-Serif" font-size="10.00">+</text>
<text text-anchor="start" x="212.5" y="-1409" font-family="Helvetica,sans-Serif" font-size="10.00">Vec()</text>
<text text-anchor="start" x="212.5" y="-1394" font-family="Helvetica,sans-Serif" font-size="10.00">and 17 more...</text>
<text text-anchor="start" x="197.5" y="-1379" font-family="Helvetica,sans-Serif" font-size="10.00">+</text>
<text text-anchor="start" x="212.5" y="-1379" font-family="Helvetica,sans-Serif" font-size="10.00">all()</text>
<text text-anchor="start" x="197.5" y="-1364" font-family="Helvetica,sans-Serif" font-size="10.00">+</text>
<text text-anchor="start" x="212.5" y="-1364" font-family="Helvetica,sans-Serif" font-size="10.00">diag()</text>
<text text-anchor="start" x="197.5" y="-1349" font-family="Helvetica,sans-Serif" font-size="10.00">+</text>
<text text-anchor="start" x="212.5" y="-1349" font-family="Helvetica,sans-Serif" font-size="10.00">eye()</text>
<text text-anchor="start" x="197.5" y="-1334" font-family="Helvetica,sans-Serif" font-size="10.00">+</text>
<text text-anchor="start" x="212.5" y="-1334" font-family="Helvetica,sans-Serif" font-size="10.00">ones()</text>
<text text-anchor="start" x="197.5" y="-1319" font-family="Helvetica,sans-Serif" font-size="10.00">+</text>
<text text-anchor="start" x="212.5" y="-1319" font-family="Helvetica,sans-Serif" font-size="10.00">randn()</text>
<text text-anchor="start" x="197.5" y="-1304" font-family="Helvetica,sans-Serif" font-size="10.00">+</text>
<text text-anchor="start" x="212.5" y="-1304" font-family="Helvetica,sans-Serif" font-size="10.00">randu()</text>
<text text-anchor="start" x="197.5" y="-1289" font-family="Helvetica,sans-Serif" font-size="10.00">+</text>
<text text-anchor="start" x="212.5" y="-1289" font-family="Helvetica,sans-Serif" font-size="10.00">zeros()</text>
<polygon fill="#666666" stroke="#666666" points="191.5,-1569 191.5,-1569 292.5,-1569 292.5,-1569 191.5,-1569"/>
<polygon fill="#666666" stroke="#666666" points="191.5,-1554 191.5,-1554 292.5,-1554 292.5,-1554 191.5,-1554"/>
<polygon fill="none" stroke="#666666" points="191,-1282 191,-1586 292,-1586 292,-1282 191,-1282"/>
</a>
</g>
</g>
<!-- Node5&#45;&gt;Node10 -->
<g id="edge12_Node000010_Node000005" class="edge">
<title>Node5&#45;&gt;Node10</title>
<g id="a_edge12_Node000010_Node000005"><a xlink:title=" ">
<path fill="none" stroke="#63b8ff" d="M200.06,-1612.82C202.13,-1603.94 204.21,-1595.02 206.27,-1586.17"/>
<polygon fill="none" stroke="#63b8ff" points="196.59,-1612.31 197.73,-1622.84 203.4,-1613.9 196.59,-1612.31"/>
</a>
</g>
</g>
<!-- Node6 -->
<g id="Node000006" class="node">
<title>Node6</title>
<g id="a_Node000006"><a xlink:href="../../d1/dd7/class__Tp.html" target="_top" xlink:title=" ">
<polygon fill="white" stroke="transparent" points="176.5,-2374 148.5,-2374 148.5,-2325 176.5,-2325 176.5,-2374"/>
<text text-anchor="start" x="153.5" y="-2361.5" font-family="Helvetica,sans-Serif" font-size="10.00">_Tp</text>
<text text-anchor="start" x="160.5" y="-2346.5" font-family="Helvetica,sans-Serif" font-size="10.00"> </text>
<text text-anchor="start" x="160.5" y="-2331.5" font-family="Helvetica,sans-Serif" font-size="10.00"> </text>
<polygon fill="#666666" stroke="#666666" points="148.5,-2356.5 148.5,-2356.5 176.5,-2356.5 176.5,-2356.5 148.5,-2356.5"/>
<polygon fill="#666666" stroke="#666666" points="148.5,-2341.5 148.5,-2341.5 176.5,-2341.5 176.5,-2341.5 148.5,-2341.5"/>
<polygon fill="none" stroke="#666666" points="148.5,-2325 148.5,-2374 176.5,-2374 176.5,-2325 148.5,-2325"/>
</a>
</g>
</g>
<!-- Node6&#45;&gt;Node5 -->
<g id="edge5_Node000005_Node000006" class="edge">
<title>Node6&#45;&gt;Node5</title>
<g id="a_edge5_Node000005_Node000006"><a xlink:title=" ">
<path fill="none" stroke="#63b8ff" d="M159.55,-2324.72C158,-2311.07 156.27,-2293.6 155.5,-2278 149.9,-2164.97 151.78,-2037.47 155,-1939.25"/>
<polygon fill="none" stroke="#63b8ff" points="155,-1939.1 151.21,-1932.97 155.41,-1927.11 159.2,-1933.24 155,-1939.1"/>
</a>
</g>
<text text-anchor="middle" x="169" y="-2123.5" font-family="Helvetica,sans-Serif" font-size="10.00" fill="grey"> +val</text>
</g>
<!-- Node7 -->
<g id="Node000007" class="node">
<title>Node7</title>
<g id="a_Node000007"><a xlink:href="../../de/de1/classcv_1_1Matx.html" target="_top" xlink:title="Template class for small matrices whose type and size are known at compilation time.">
<polygon fill="white" stroke="transparent" points="311,-2278 192,-2278 192,-1974 311,-1974 311,-2278"/>
<text text-anchor="start" x="197.5" y="-2266" font-family="Helvetica,sans-Serif" font-size="10.00">cv::Matx&lt; _Tp, m, n &gt;</text>
<text text-anchor="start" x="250" y="-2251" font-family="Helvetica,sans-Serif" font-size="10.00"> </text>
<text text-anchor="start" x="203" y="-2236" font-family="Helvetica,sans-Serif" font-size="10.00">+</text>
<text text-anchor="start" x="222.5" y="-2236" font-family="Helvetica,sans-Serif" font-size="10.00">Matx()</text>
<text text-anchor="start" x="203" y="-2221" font-family="Helvetica,sans-Serif" font-size="10.00">+</text>
<text text-anchor="start" x="222.5" y="-2221" font-family="Helvetica,sans-Serif" font-size="10.00">Matx()</text>
<text text-anchor="start" x="203" y="-2206" font-family="Helvetica,sans-Serif" font-size="10.00">+</text>
<text text-anchor="start" x="222.5" y="-2206" font-family="Helvetica,sans-Serif" font-size="10.00">Matx()</text>
<text text-anchor="start" x="203" y="-2191" font-family="Helvetica,sans-Serif" font-size="10.00">+</text>
<text text-anchor="start" x="222.5" y="-2191" font-family="Helvetica,sans-Serif" font-size="10.00">Matx()</text>
<text text-anchor="start" x="203" y="-2176" font-family="Helvetica,sans-Serif" font-size="10.00">+</text>
<text text-anchor="start" x="222.5" y="-2176" font-family="Helvetica,sans-Serif" font-size="10.00">Matx()</text>
<text text-anchor="start" x="203" y="-2161" font-family="Helvetica,sans-Serif" font-size="10.00">+</text>
<text text-anchor="start" x="222.5" y="-2161" font-family="Helvetica,sans-Serif" font-size="10.00">Matx()</text>
<text text-anchor="start" x="203" y="-2146" font-family="Helvetica,sans-Serif" font-size="10.00">+</text>
<text text-anchor="start" x="222.5" y="-2146" font-family="Helvetica,sans-Serif" font-size="10.00">Matx()</text>
<text text-anchor="start" x="203" y="-2131" font-family="Helvetica,sans-Serif" font-size="10.00">+</text>
<text text-anchor="start" x="222.5" y="-2131" font-family="Helvetica,sans-Serif" font-size="10.00">Matx()</text>
<text text-anchor="start" x="203" y="-2116" font-family="Helvetica,sans-Serif" font-size="10.00">+</text>
<text text-anchor="start" x="222.5" y="-2116" font-family="Helvetica,sans-Serif" font-size="10.00">Matx()</text>
<text text-anchor="start" x="203" y="-2101" font-family="Helvetica,sans-Serif" font-size="10.00">+</text>
<text text-anchor="start" x="222.5" y="-2101" font-family="Helvetica,sans-Serif" font-size="10.00">Matx()</text>
<text text-anchor="start" x="222.5" y="-2086" font-family="Helvetica,sans-Serif" font-size="10.00">and 31 more...</text>
<text text-anchor="start" x="203" y="-2071" font-family="Helvetica,sans-Serif" font-size="10.00">+</text>
<text text-anchor="start" x="222.5" y="-2071" font-family="Helvetica,sans-Serif" font-size="10.00">all()</text>
<text text-anchor="start" x="203" y="-2056" font-family="Helvetica,sans-Serif" font-size="10.00">+</text>
<text text-anchor="start" x="222.5" y="-2056" font-family="Helvetica,sans-Serif" font-size="10.00">diag()</text>
<text text-anchor="start" x="203" y="-2041" font-family="Helvetica,sans-Serif" font-size="10.00">+</text>
<text text-anchor="start" x="222.5" y="-2041" font-family="Helvetica,sans-Serif" font-size="10.00">eye()</text>
<text text-anchor="start" x="203" y="-2026" font-family="Helvetica,sans-Serif" font-size="10.00">+</text>
<text text-anchor="start" x="222.5" y="-2026" font-family="Helvetica,sans-Serif" font-size="10.00">ones()</text>
<text text-anchor="start" x="203" y="-2011" font-family="Helvetica,sans-Serif" font-size="10.00">+</text>
<text text-anchor="start" x="222.5" y="-2011" font-family="Helvetica,sans-Serif" font-size="10.00">randn()</text>
<text text-anchor="start" x="203" y="-1996" font-family="Helvetica,sans-Serif" font-size="10.00">+</text>
<text text-anchor="start" x="222.5" y="-1996" font-family="Helvetica,sans-Serif" font-size="10.00">randu()</text>
<text text-anchor="start" x="203" y="-1981" font-family="Helvetica,sans-Serif" font-size="10.00">+</text>
<text text-anchor="start" x="222.5" y="-1981" font-family="Helvetica,sans-Serif" font-size="10.00">zeros()</text>
<polygon fill="#666666" stroke="#666666" points="192.5,-2261 192.5,-2261 311.5,-2261 311.5,-2261 192.5,-2261"/>
<polygon fill="#666666" stroke="#666666" points="192.5,-2246 192.5,-2246 311.5,-2246 311.5,-2246 192.5,-2246"/>
<polygon fill="none" stroke="#666666" points="192,-1974 192,-2278 311,-2278 311,-1974 192,-1974"/>
</a>
</g>
</g>
<!-- Node6&#45;&gt;Node7 -->
<g id="edge7_Node000007_Node000006" class="edge">
<title>Node6&#45;&gt;Node7</title>
<g id="a_edge7_Node000007_Node000006"><a xlink:title=" ">
<path fill="none" stroke="#63b8ff" d="M172.02,-2324.8C176.21,-2314.39 181.5,-2301.22 187.36,-2286.63"/>
<polygon fill="none" stroke="#63b8ff" points="187.47,-2286.35 186,-2279.29 191.95,-2275.21 193.42,-2282.27 187.47,-2286.35"/>
</a>
</g>
<text text-anchor="middle" x="196" y="-2299" font-family="Helvetica,sans-Serif" font-size="10.00" fill="grey"> +val</text>
</g>
<!-- Node7&#45;&gt;Node5 -->
<g id="edge6_Node000005_Node000007" class="edge">
<title>Node7&#45;&gt;Node5</title>
<g id="a_edge6_Node000005_Node000007"><a xlink:title=" ">
<path fill="none" stroke="orange" d="M210.46,-1964.07C207.31,-1951.72 204.14,-1939.28 201.01,-1927"/>
<polygon fill="orange" stroke="orange" points="207.12,-1965.13 212.98,-1973.95 213.9,-1963.4 207.12,-1965.13"/>
</a>
</g>
<text text-anchor="middle" x="243" y="-1948" font-family="Helvetica,sans-Serif" font-size="10.00" fill="grey"> &lt; _Tp, cn, 1 &gt;</text>
</g>
<!-- Node8 -->
<g id="Node000008" class="node">
<title>Node8</title>
<g id="a_Node000008"><a xlink:href="../../d1/da0/classcv_1_1Scalar__.html" target="_top" xlink:title="Template class for a 4&#45;element vector derived from Vec.">
<polygon fill="white" stroke="transparent" points="268,-601 125,-601 125,-372 268,-372 268,-601"/>
<text text-anchor="start" x="151" y="-588.5" font-family="Helvetica,sans-Serif" font-size="10.00">cv::Scalar_&lt; _Tp &gt;</text>
<text text-anchor="start" x="195" y="-573.5" font-family="Helvetica,sans-Serif" font-size="10.00"> </text>
<text text-anchor="start" x="129.5" y="-558.5" font-family="Helvetica,sans-Serif" font-size="10.00">+</text>
<text text-anchor="start" x="142.5" y="-558.5" font-family="Helvetica,sans-Serif" font-size="10.00">Scalar_()</text>
<text text-anchor="start" x="129.5" y="-543.5" font-family="Helvetica,sans-Serif" font-size="10.00">+</text>
<text text-anchor="start" x="142.5" y="-543.5" font-family="Helvetica,sans-Serif" font-size="10.00">Scalar_()</text>
<text text-anchor="start" x="129.5" y="-528.5" font-family="Helvetica,sans-Serif" font-size="10.00">+</text>
<text text-anchor="start" x="142.5" y="-528.5" font-family="Helvetica,sans-Serif" font-size="10.00">Scalar_()</text>
<text text-anchor="start" x="129.5" y="-513.5" font-family="Helvetica,sans-Serif" font-size="10.00">+</text>
<text text-anchor="start" x="142.5" y="-513.5" font-family="Helvetica,sans-Serif" font-size="10.00">Scalar_()</text>
<text text-anchor="start" x="129.5" y="-498.5" font-family="Helvetica,sans-Serif" font-size="10.00">+</text>
<text text-anchor="start" x="142.5" y="-498.5" font-family="Helvetica,sans-Serif" font-size="10.00">Scalar_()</text>
<text text-anchor="start" x="129.5" y="-483.5" font-family="Helvetica,sans-Serif" font-size="10.00">+</text>
<text text-anchor="start" x="142.5" y="-483.5" font-family="Helvetica,sans-Serif" font-size="10.00">Scalar_()</text>
<text text-anchor="start" x="129.5" y="-468.5" font-family="Helvetica,sans-Serif" font-size="10.00">+</text>
<text text-anchor="start" x="142.5" y="-468.5" font-family="Helvetica,sans-Serif" font-size="10.00">conj()</text>
<text text-anchor="start" x="129.5" y="-453.5" font-family="Helvetica,sans-Serif" font-size="10.00">+</text>
<text text-anchor="start" x="142.5" y="-453.5" font-family="Helvetica,sans-Serif" font-size="10.00">isReal()</text>
<text text-anchor="start" x="129.5" y="-438.5" font-family="Helvetica,sans-Serif" font-size="10.00">+</text>
<text text-anchor="start" x="142.5" y="-438.5" font-family="Helvetica,sans-Serif" font-size="10.00">mul()</text>
<text text-anchor="start" x="129.5" y="-423.5" font-family="Helvetica,sans-Serif" font-size="10.00">+</text>
<text text-anchor="start" x="142.5" y="-423.5" font-family="Helvetica,sans-Serif" font-size="10.00">operator Scalar_&lt; T2 &gt;()</text>
<text text-anchor="start" x="129.5" y="-408.5" font-family="Helvetica,sans-Serif" font-size="10.00">+</text>
<text text-anchor="start" x="142.5" y="-408.5" font-family="Helvetica,sans-Serif" font-size="10.00">operator=()</text>
<text text-anchor="start" x="129.5" y="-393.5" font-family="Helvetica,sans-Serif" font-size="10.00">+</text>
<text text-anchor="start" x="142.5" y="-393.5" font-family="Helvetica,sans-Serif" font-size="10.00">operator=()</text>
<text text-anchor="start" x="129.5" y="-378.5" font-family="Helvetica,sans-Serif" font-size="10.00">+</text>
<text text-anchor="start" x="142.5" y="-378.5" font-family="Helvetica,sans-Serif" font-size="10.00">all()</text>
<polygon fill="#666666" stroke="#666666" points="125.5,-583.5 125.5,-583.5 268.5,-583.5 268.5,-583.5 125.5,-583.5"/>
<polygon fill="#666666" stroke="#666666" points="125.5,-568.5 125.5,-568.5 268.5,-568.5 268.5,-568.5 125.5,-568.5"/>
<polygon fill="none" stroke="#666666" points="125,-372 125,-601 268,-601 268,-372 125,-372"/>
</a>
</g>
</g>
<!-- Node8&#45;&gt;Node3 -->
<g id="edge8_Node000003_Node000008" class="edge">
<title>Node8&#45;&gt;Node3</title>
<g id="a_edge8_Node000003_Node000008"><a xlink:title=" ">
<path fill="none" stroke="orange" d="M166.29,-361.96C163.31,-349.79 160.3,-337.47 157.35,-325.41"/>
<polygon fill="orange" stroke="orange" points="162.89,-362.8 168.67,-371.68 169.69,-361.13 162.89,-362.8"/>
</a>
</g>
<text text-anchor="middle" x="193" y="-346" font-family="Helvetica,sans-Serif" font-size="10.00" fill="grey"> &lt; double &gt;</text>
</g>
<!-- Node9&#45;&gt;Node8 -->
<g id="edge9_Node000008_Node000009" class="edge">
<title>Node9&#45;&gt;Node8</title>
<g id="a_edge9_Node000008_Node000009"><a xlink:title=" ">
<path fill="none" stroke="#63b8ff" d="M196.5,-627.69C196.5,-618.74 196.5,-609.85 196.5,-601.13"/>
<polygon fill="none" stroke="#63b8ff" points="193,-627.81 196.5,-637.81 200,-627.81 193,-627.81"/>
</a>
</g>
</g>
<!-- Node10&#45;&gt;Node9 -->
<g id="edge11_Node000009_Node000010" class="edge">
<title>Node10&#45;&gt;Node9</title>
<g id="a_edge11_Node000009_Node000010"><a xlink:title=" ">
<path fill="none" stroke="orange" d="M230.19,-1271.67C223.11,-1170.61 214.04,-1041.22 207.09,-942.15"/>
<polygon fill="orange" stroke="orange" points="226.7,-1271.94 230.89,-1281.67 233.68,-1271.45 226.7,-1271.94"/>
</a>
</g>
<text text-anchor="middle" x="256" y="-1109.5" font-family="Helvetica,sans-Serif" font-size="10.00" fill="grey"> &lt; _Tp, 4 &gt;</text>
</g>
</g>
</svg>
