<?xml version="1.0" encoding="UTF-8" standalone="no"?>
<!DOCTYPE svg PUBLIC "-//W3C//DTD SVG 1.1//EN"
 "http://www.w3.org/Graphics/SVG/1.1/DTD/svg11.dtd">
<!-- Generated by graphviz version 2.43.0 (0)
 -->
<!-- Title: cv::gapi::wip::draw::Line Pages: 1 -->
<svg width="336pt" height="2127pt"
 viewBox="0.00 0.00 336.00 2127.00" xmlns="http://www.w3.org/2000/svg" xmlns:xlink="http://www.w3.org/1999/xlink">
<g id="graph0" class="graph" transform="scale(1 1) rotate(0) translate(4 2123)">
<title>cv::gapi::wip::draw::Line</title>
<!-- Node1 -->
<g id="Node000001" class="node">
<title>Node1</title>
<g id="a_Node000001"><a xlink:title="This structure represents a line to draw.">
<polygon fill="#999999" stroke="transparent" points="225,-75 124,-75 124,0 225,0 225,-75"/>
<text text-anchor="start" x="129.5" y="-62.5" font-family="Helvetica,sans-Serif" font-size="10.00">cv::gapi::wip::draw</text>
<text text-anchor="start" x="161.5" y="-51.5" font-family="Helvetica,sans-Serif" font-size="10.00">::Line</text>
<text text-anchor="start" x="173" y="-36.5" font-family="Helvetica,sans-Serif" font-size="10.00"> </text>
<text text-anchor="start" x="141.5" y="-21.5" font-family="Helvetica,sans-Serif" font-size="10.00">+</text>
<text text-anchor="start" x="167.5" y="-21.5" font-family="Helvetica,sans-Serif" font-size="10.00">Line()</text>
<text text-anchor="start" x="141.5" y="-6.5" font-family="Helvetica,sans-Serif" font-size="10.00">+</text>
<text text-anchor="start" x="167.5" y="-6.5" font-family="Helvetica,sans-Serif" font-size="10.00">Line()</text>
<polygon fill="#666666" stroke="#666666" points="124.5,-46.5 124.5,-46.5 225.5,-46.5 225.5,-46.5 124.5,-46.5"/>
<polygon fill="#666666" stroke="#666666" points="124.5,-31.5 124.5,-31.5 225.5,-31.5 225.5,-31.5 124.5,-31.5"/>
<polygon fill="none" stroke="#666666" points="124,0 124,-75 225,-75 225,0 124,0"/>
</a>
</g>
</g>
<!-- Node2 -->
<g id="Node000002" class="node">
<title>Node2</title>
<g id="a_Node000002"><a xlink:href="../../db/d4e/classcv_1_1Point__.html" target="_top" xlink:title="Template class for 2D points specified by its coordinates x and y.">
<polygon fill="white" stroke="transparent" points="149,-1690 0,-1690 0,-1435 149,-1435 149,-1690"/>
<text text-anchor="start" x="31.5" y="-1677.5" font-family="Helvetica,sans-Serif" font-size="10.00">cv::Point_&lt; _Tp &gt;</text>
<text text-anchor="start" x="73" y="-1662.5" font-family="Helvetica,sans-Serif" font-size="10.00"> </text>
<text text-anchor="start" x="4.5" y="-1647.5" font-family="Helvetica,sans-Serif" font-size="10.00">+</text>
<text text-anchor="start" x="17.5" y="-1647.5" font-family="Helvetica,sans-Serif" font-size="10.00">Point_()</text>
<text text-anchor="start" x="4.5" y="-1632.5" font-family="Helvetica,sans-Serif" font-size="10.00">+</text>
<text text-anchor="start" x="17.5" y="-1632.5" font-family="Helvetica,sans-Serif" font-size="10.00">Point_()</text>
<text text-anchor="start" x="4.5" y="-1617.5" font-family="Helvetica,sans-Serif" font-size="10.00">+</text>
<text text-anchor="start" x="17.5" y="-1617.5" font-family="Helvetica,sans-Serif" font-size="10.00">Point_()</text>
<text text-anchor="start" x="4.5" y="-1602.5" font-family="Helvetica,sans-Serif" font-size="10.00">+</text>
<text text-anchor="start" x="17.5" y="-1602.5" font-family="Helvetica,sans-Serif" font-size="10.00">Point_()</text>
<text text-anchor="start" x="4.5" y="-1587.5" font-family="Helvetica,sans-Serif" font-size="10.00">+</text>
<text text-anchor="start" x="17.5" y="-1587.5" font-family="Helvetica,sans-Serif" font-size="10.00">Point_()</text>
<text text-anchor="start" x="4.5" y="-1572.5" font-family="Helvetica,sans-Serif" font-size="10.00">+</text>
<text text-anchor="start" x="17.5" y="-1572.5" font-family="Helvetica,sans-Serif" font-size="10.00">Point_()</text>
<text text-anchor="start" x="4.5" y="-1557.5" font-family="Helvetica,sans-Serif" font-size="10.00">+</text>
<text text-anchor="start" x="17.5" y="-1557.5" font-family="Helvetica,sans-Serif" font-size="10.00">cross()</text>
<text text-anchor="start" x="4.5" y="-1542.5" font-family="Helvetica,sans-Serif" font-size="10.00">+</text>
<text text-anchor="start" x="17.5" y="-1542.5" font-family="Helvetica,sans-Serif" font-size="10.00">ddot()</text>
<text text-anchor="start" x="4.5" y="-1527.5" font-family="Helvetica,sans-Serif" font-size="10.00">+</text>
<text text-anchor="start" x="17.5" y="-1527.5" font-family="Helvetica,sans-Serif" font-size="10.00">dot()</text>
<text text-anchor="start" x="4.5" y="-1512.5" font-family="Helvetica,sans-Serif" font-size="10.00">+</text>
<text text-anchor="start" x="17.5" y="-1512.5" font-family="Helvetica,sans-Serif" font-size="10.00">inside()</text>
<text text-anchor="start" x="4.5" y="-1497.5" font-family="Helvetica,sans-Serif" font-size="10.00">+</text>
<text text-anchor="start" x="17.5" y="-1497.5" font-family="Helvetica,sans-Serif" font-size="10.00">operator Point_&lt; _Tp2 &gt;()</text>
<text text-anchor="start" x="4.5" y="-1482.5" font-family="Helvetica,sans-Serif" font-size="10.00">+</text>
<text text-anchor="start" x="17.5" y="-1482.5" font-family="Helvetica,sans-Serif" font-size="10.00">operator Vec&lt; _Tp,</text>
<text text-anchor="start" x="17.5" y="-1471.5" font-family="Helvetica,sans-Serif" font-size="10.00"> 2 &gt;()</text>
<text text-anchor="start" x="4.5" y="-1456.5" font-family="Helvetica,sans-Serif" font-size="10.00">+</text>
<text text-anchor="start" x="17.5" y="-1456.5" font-family="Helvetica,sans-Serif" font-size="10.00">operator=()</text>
<text text-anchor="start" x="4.5" y="-1441.5" font-family="Helvetica,sans-Serif" font-size="10.00">+</text>
<text text-anchor="start" x="17.5" y="-1441.5" font-family="Helvetica,sans-Serif" font-size="10.00">operator=()</text>
<polygon fill="#666666" stroke="#666666" points="0.5,-1672.5 0.5,-1672.5 149.5,-1672.5 149.5,-1672.5 0.5,-1672.5"/>
<polygon fill="#666666" stroke="#666666" points="0.5,-1657.5 0.5,-1657.5 149.5,-1657.5 149.5,-1657.5 0.5,-1657.5"/>
<polygon fill="none" stroke="#666666" points="0,-1435 0,-1690 149,-1690 149,-1435 0,-1435"/>
</a>
</g>
</g>
<!-- Node2&#45;&gt;Node1 -->
<g id="edge1_Node000001_Node000002" class="edge">
<title>Node2&#45;&gt;Node1</title>
<g id="a_edge1_Node000001_Node000002"><a xlink:title=" ">
<path fill="none" stroke="#63b8ff" d="M74.5,-1434.78C74.5,-1340.96 74.5,-1210.01 74.5,-1095 74.5,-1095 74.5,-1095 74.5,-257.5 74.5,-206.35 73.1,-190.9 93.5,-144 102.75,-122.74 117.2,-101.93 131.36,-84.48"/>
<polygon fill="none" stroke="#63b8ff" points="131.46,-84.36 132.24,-77.19 139.15,-75.15 138.37,-82.32 131.46,-84.36"/>
</a>
</g>
<text text-anchor="middle" x="88.5" y="-746" font-family="Helvetica,sans-Serif" font-size="10.00" fill="grey"> +pt1</text>
<text text-anchor="middle" x="88.5" y="-735" font-family="Helvetica,sans-Serif" font-size="10.00" fill="grey">+pt2</text>
</g>
<!-- Node3 -->
<g id="Node000003" class="node">
<title>Node3</title>
<g id="a_Node000003"><a xlink:href="../../d1/dd7/class__Tp.html" target="_top" xlink:title=" ">
<polygon fill="white" stroke="transparent" points="177.5,-2119 149.5,-2119 149.5,-2070 177.5,-2070 177.5,-2119"/>
<text text-anchor="start" x="154.5" y="-2106.5" font-family="Helvetica,sans-Serif" font-size="10.00">_Tp</text>
<text text-anchor="start" x="161.5" y="-2091.5" font-family="Helvetica,sans-Serif" font-size="10.00"> </text>
<text text-anchor="start" x="161.5" y="-2076.5" font-family="Helvetica,sans-Serif" font-size="10.00"> </text>
<polygon fill="#666666" stroke="#666666" points="149.5,-2101.5 149.5,-2101.5 177.5,-2101.5 177.5,-2101.5 149.5,-2101.5"/>
<polygon fill="#666666" stroke="#666666" points="149.5,-2086.5 149.5,-2086.5 177.5,-2086.5 177.5,-2086.5 149.5,-2086.5"/>
<polygon fill="none" stroke="#666666" points="149.5,-2070 149.5,-2119 177.5,-2119 177.5,-2070 149.5,-2070"/>
</a>
</g>
</g>
<!-- Node3&#45;&gt;Node2 -->
<g id="edge2_Node000002_Node000003" class="edge">
<title>Node3&#45;&gt;Node2</title>
<g id="a_edge2_Node000002_Node000003"><a xlink:title=" ">
<path fill="none" stroke="#63b8ff" d="M149.49,-2079.37C142.9,-2071.86 135.62,-2062.11 131.5,-2052 85.96,-1940.1 73.35,-1802.66 71.18,-1702.1"/>
<polygon fill="none" stroke="#63b8ff" points="71.17,-1702.02 67.07,-1696.09 70.96,-1690.02 75.07,-1695.95 71.17,-1702.02"/>
</a>
</g>
<text text-anchor="middle" x="140.5" y="-2044" font-family="Helvetica,sans-Serif" font-size="10.00" fill="grey"> +x</text>
<text text-anchor="middle" x="140.5" y="-2033" font-family="Helvetica,sans-Serif" font-size="10.00" fill="grey">+y</text>
</g>
<!-- Node6 -->
<g id="Node000006" class="node">
<title>Node6</title>
<g id="a_Node000006"><a xlink:href="../../de/de1/classcv_1_1Matx.html" target="_top" xlink:title=" ">
<polygon fill="white" stroke="transparent" points="256,-1417 135,-1417 135,-1113 256,-1113 256,-1417"/>
<text text-anchor="start" x="140.5" y="-1405" font-family="Helvetica,sans-Serif" font-size="10.00">cv::Matx&lt; _Tp, cn, 1 &gt;</text>
<text text-anchor="start" x="194" y="-1390" font-family="Helvetica,sans-Serif" font-size="10.00"> </text>
<text text-anchor="start" x="146.5" y="-1375" font-family="Helvetica,sans-Serif" font-size="10.00">+</text>
<text text-anchor="start" x="166.5" y="-1375" font-family="Helvetica,sans-Serif" font-size="10.00">Matx()</text>
<text text-anchor="start" x="146.5" y="-1360" font-family="Helvetica,sans-Serif" font-size="10.00">+</text>
<text text-anchor="start" x="166.5" y="-1360" font-family="Helvetica,sans-Serif" font-size="10.00">Matx()</text>
<text text-anchor="start" x="146.5" y="-1345" font-family="Helvetica,sans-Serif" font-size="10.00">+</text>
<text text-anchor="start" x="166.5" y="-1345" font-family="Helvetica,sans-Serif" font-size="10.00">Matx()</text>
<text text-anchor="start" x="146.5" y="-1330" font-family="Helvetica,sans-Serif" font-size="10.00">+</text>
<text text-anchor="start" x="166.5" y="-1330" font-family="Helvetica,sans-Serif" font-size="10.00">Matx()</text>
<text text-anchor="start" x="146.5" y="-1315" font-family="Helvetica,sans-Serif" font-size="10.00">+</text>
<text text-anchor="start" x="166.5" y="-1315" font-family="Helvetica,sans-Serif" font-size="10.00">Matx()</text>
<text text-anchor="start" x="146.5" y="-1300" font-family="Helvetica,sans-Serif" font-size="10.00">+</text>
<text text-anchor="start" x="166.5" y="-1300" font-family="Helvetica,sans-Serif" font-size="10.00">Matx()</text>
<text text-anchor="start" x="146.5" y="-1285" font-family="Helvetica,sans-Serif" font-size="10.00">+</text>
<text text-anchor="start" x="166.5" y="-1285" font-family="Helvetica,sans-Serif" font-size="10.00">Matx()</text>
<text text-anchor="start" x="146.5" y="-1270" font-family="Helvetica,sans-Serif" font-size="10.00">+</text>
<text text-anchor="start" x="166.5" y="-1270" font-family="Helvetica,sans-Serif" font-size="10.00">Matx()</text>
<text text-anchor="start" x="146.5" y="-1255" font-family="Helvetica,sans-Serif" font-size="10.00">+</text>
<text text-anchor="start" x="166.5" y="-1255" font-family="Helvetica,sans-Serif" font-size="10.00">Matx()</text>
<text text-anchor="start" x="146.5" y="-1240" font-family="Helvetica,sans-Serif" font-size="10.00">+</text>
<text text-anchor="start" x="166.5" y="-1240" font-family="Helvetica,sans-Serif" font-size="10.00">Matx()</text>
<text text-anchor="start" x="166.5" y="-1225" font-family="Helvetica,sans-Serif" font-size="10.00">and 31 more...</text>
<text text-anchor="start" x="146.5" y="-1210" font-family="Helvetica,sans-Serif" font-size="10.00">+</text>
<text text-anchor="start" x="166.5" y="-1210" font-family="Helvetica,sans-Serif" font-size="10.00">all()</text>
<text text-anchor="start" x="146.5" y="-1195" font-family="Helvetica,sans-Serif" font-size="10.00">+</text>
<text text-anchor="start" x="166.5" y="-1195" font-family="Helvetica,sans-Serif" font-size="10.00">diag()</text>
<text text-anchor="start" x="146.5" y="-1180" font-family="Helvetica,sans-Serif" font-size="10.00">+</text>
<text text-anchor="start" x="166.5" y="-1180" font-family="Helvetica,sans-Serif" font-size="10.00">eye()</text>
<text text-anchor="start" x="146.5" y="-1165" font-family="Helvetica,sans-Serif" font-size="10.00">+</text>
<text text-anchor="start" x="166.5" y="-1165" font-family="Helvetica,sans-Serif" font-size="10.00">ones()</text>
<text text-anchor="start" x="146.5" y="-1150" font-family="Helvetica,sans-Serif" font-size="10.00">+</text>
<text text-anchor="start" x="166.5" y="-1150" font-family="Helvetica,sans-Serif" font-size="10.00">randn()</text>
<text text-anchor="start" x="146.5" y="-1135" font-family="Helvetica,sans-Serif" font-size="10.00">+</text>
<text text-anchor="start" x="166.5" y="-1135" font-family="Helvetica,sans-Serif" font-size="10.00">randu()</text>
<text text-anchor="start" x="146.5" y="-1120" font-family="Helvetica,sans-Serif" font-size="10.00">+</text>
<text text-anchor="start" x="166.5" y="-1120" font-family="Helvetica,sans-Serif" font-size="10.00">zeros()</text>
<polygon fill="#666666" stroke="#666666" points="135.5,-1400 135.5,-1400 256.5,-1400 256.5,-1400 135.5,-1400"/>
<polygon fill="#666666" stroke="#666666" points="135.5,-1385 135.5,-1385 256.5,-1385 256.5,-1385 135.5,-1385"/>
<polygon fill="none" stroke="#666666" points="135,-1113 135,-1417 256,-1417 256,-1113 135,-1113"/>
</a>
</g>
</g>
<!-- Node3&#45;&gt;Node6 -->
<g id="edge6_Node000006_Node000003" class="edge">
<title>Node3&#45;&gt;Node6</title>
<g id="a_edge6_Node000006_Node000003"><a xlink:title=" ">
<path fill="none" stroke="#63b8ff" d="M163.92,-2069.58C165.04,-2009.04 168.32,-1844.81 173.5,-1708 176.99,-1615.71 182.06,-1512.63 186.45,-1429.24"/>
<polygon fill="none" stroke="#63b8ff" points="186.46,-1429.07 182.78,-1422.87 187.09,-1417.09 190.77,-1423.29 186.46,-1429.07"/>
</a>
</g>
<text text-anchor="middle" x="187" y="-1857.5" font-family="Helvetica,sans-Serif" font-size="10.00" fill="grey"> +val</text>
</g>
<!-- Node7 -->
<g id="Node000007" class="node">
<title>Node7</title>
<g id="a_Node000007"><a xlink:href="../../de/de1/classcv_1_1Matx.html" target="_top" xlink:title="Template class for small matrices whose type and size are known at compilation time.">
<polygon fill="white" stroke="transparent" points="328,-2012 209,-2012 209,-1708 328,-1708 328,-2012"/>
<text text-anchor="start" x="214.5" y="-2000" font-family="Helvetica,sans-Serif" font-size="10.00">cv::Matx&lt; _Tp, m, n &gt;</text>
<text text-anchor="start" x="267" y="-1985" font-family="Helvetica,sans-Serif" font-size="10.00"> </text>
<text text-anchor="start" x="220" y="-1970" font-family="Helvetica,sans-Serif" font-size="10.00">+</text>
<text text-anchor="start" x="239.5" y="-1970" font-family="Helvetica,sans-Serif" font-size="10.00">Matx()</text>
<text text-anchor="start" x="220" y="-1955" font-family="Helvetica,sans-Serif" font-size="10.00">+</text>
<text text-anchor="start" x="239.5" y="-1955" font-family="Helvetica,sans-Serif" font-size="10.00">Matx()</text>
<text text-anchor="start" x="220" y="-1940" font-family="Helvetica,sans-Serif" font-size="10.00">+</text>
<text text-anchor="start" x="239.5" y="-1940" font-family="Helvetica,sans-Serif" font-size="10.00">Matx()</text>
<text text-anchor="start" x="220" y="-1925" font-family="Helvetica,sans-Serif" font-size="10.00">+</text>
<text text-anchor="start" x="239.5" y="-1925" font-family="Helvetica,sans-Serif" font-size="10.00">Matx()</text>
<text text-anchor="start" x="220" y="-1910" font-family="Helvetica,sans-Serif" font-size="10.00">+</text>
<text text-anchor="start" x="239.5" y="-1910" font-family="Helvetica,sans-Serif" font-size="10.00">Matx()</text>
<text text-anchor="start" x="220" y="-1895" font-family="Helvetica,sans-Serif" font-size="10.00">+</text>
<text text-anchor="start" x="239.5" y="-1895" font-family="Helvetica,sans-Serif" font-size="10.00">Matx()</text>
<text text-anchor="start" x="220" y="-1880" font-family="Helvetica,sans-Serif" font-size="10.00">+</text>
<text text-anchor="start" x="239.5" y="-1880" font-family="Helvetica,sans-Serif" font-size="10.00">Matx()</text>
<text text-anchor="start" x="220" y="-1865" font-family="Helvetica,sans-Serif" font-size="10.00">+</text>
<text text-anchor="start" x="239.5" y="-1865" font-family="Helvetica,sans-Serif" font-size="10.00">Matx()</text>
<text text-anchor="start" x="220" y="-1850" font-family="Helvetica,sans-Serif" font-size="10.00">+</text>
<text text-anchor="start" x="239.5" y="-1850" font-family="Helvetica,sans-Serif" font-size="10.00">Matx()</text>
<text text-anchor="start" x="220" y="-1835" font-family="Helvetica,sans-Serif" font-size="10.00">+</text>
<text text-anchor="start" x="239.5" y="-1835" font-family="Helvetica,sans-Serif" font-size="10.00">Matx()</text>
<text text-anchor="start" x="239.5" y="-1820" font-family="Helvetica,sans-Serif" font-size="10.00">and 31 more...</text>
<text text-anchor="start" x="220" y="-1805" font-family="Helvetica,sans-Serif" font-size="10.00">+</text>
<text text-anchor="start" x="239.5" y="-1805" font-family="Helvetica,sans-Serif" font-size="10.00">all()</text>
<text text-anchor="start" x="220" y="-1790" font-family="Helvetica,sans-Serif" font-size="10.00">+</text>
<text text-anchor="start" x="239.5" y="-1790" font-family="Helvetica,sans-Serif" font-size="10.00">diag()</text>
<text text-anchor="start" x="220" y="-1775" font-family="Helvetica,sans-Serif" font-size="10.00">+</text>
<text text-anchor="start" x="239.5" y="-1775" font-family="Helvetica,sans-Serif" font-size="10.00">eye()</text>
<text text-anchor="start" x="220" y="-1760" font-family="Helvetica,sans-Serif" font-size="10.00">+</text>
<text text-anchor="start" x="239.5" y="-1760" font-family="Helvetica,sans-Serif" font-size="10.00">ones()</text>
<text text-anchor="start" x="220" y="-1745" font-family="Helvetica,sans-Serif" font-size="10.00">+</text>
<text text-anchor="start" x="239.5" y="-1745" font-family="Helvetica,sans-Serif" font-size="10.00">randn()</text>
<text text-anchor="start" x="220" y="-1730" font-family="Helvetica,sans-Serif" font-size="10.00">+</text>
<text text-anchor="start" x="239.5" y="-1730" font-family="Helvetica,sans-Serif" font-size="10.00">randu()</text>
<text text-anchor="start" x="220" y="-1715" font-family="Helvetica,sans-Serif" font-size="10.00">+</text>
<text text-anchor="start" x="239.5" y="-1715" font-family="Helvetica,sans-Serif" font-size="10.00">zeros()</text>
<polygon fill="#666666" stroke="#666666" points="209.5,-1995 209.5,-1995 328.5,-1995 328.5,-1995 209.5,-1995"/>
<polygon fill="#666666" stroke="#666666" points="209.5,-1980 209.5,-1980 328.5,-1980 328.5,-1980 209.5,-1980"/>
<polygon fill="none" stroke="#666666" points="209,-1708 209,-2012 328,-2012 328,-1708 209,-1708"/>
</a>
</g>
</g>
<!-- Node3&#45;&gt;Node7 -->
<g id="edge8_Node000007_Node000003" class="edge">
<title>Node3&#45;&gt;Node7</title>
<g id="a_edge8_Node000007_Node000003"><a xlink:title=" ">
<path fill="none" stroke="#63b8ff" d="M174.15,-2069.93C181.65,-2053.31 192.39,-2029.52 203.96,-2003.91"/>
<polygon fill="none" stroke="#63b8ff" points="204.02,-2003.78 202.84,-1996.66 208.96,-1992.84 210.13,-1999.96 204.02,-2003.78"/>
</a>
</g>
<text text-anchor="middle" x="205" y="-2038.5" font-family="Helvetica,sans-Serif" font-size="10.00" fill="grey"> +val</text>
</g>
<!-- Node4 -->
<g id="Node000004" class="node">
<title>Node4</title>
<g id="a_Node000004"><a xlink:href="../../d1/da0/classcv_1_1Scalar__.html" target="_top" xlink:title="Template class for a 4&#45;element vector derived from Vec.">
<polygon fill="white" stroke="transparent" points="246,-373 103,-373 103,-144 246,-144 246,-373"/>
<text text-anchor="start" x="129" y="-360.5" font-family="Helvetica,sans-Serif" font-size="10.00">cv::Scalar_&lt; _Tp &gt;</text>
<text text-anchor="start" x="173" y="-345.5" font-family="Helvetica,sans-Serif" font-size="10.00"> </text>
<text text-anchor="start" x="107.5" y="-330.5" font-family="Helvetica,sans-Serif" font-size="10.00">+</text>
<text text-anchor="start" x="120.5" y="-330.5" font-family="Helvetica,sans-Serif" font-size="10.00">Scalar_()</text>
<text text-anchor="start" x="107.5" y="-315.5" font-family="Helvetica,sans-Serif" font-size="10.00">+</text>
<text text-anchor="start" x="120.5" y="-315.5" font-family="Helvetica,sans-Serif" font-size="10.00">Scalar_()</text>
<text text-anchor="start" x="107.5" y="-300.5" font-family="Helvetica,sans-Serif" font-size="10.00">+</text>
<text text-anchor="start" x="120.5" y="-300.5" font-family="Helvetica,sans-Serif" font-size="10.00">Scalar_()</text>
<text text-anchor="start" x="107.5" y="-285.5" font-family="Helvetica,sans-Serif" font-size="10.00">+</text>
<text text-anchor="start" x="120.5" y="-285.5" font-family="Helvetica,sans-Serif" font-size="10.00">Scalar_()</text>
<text text-anchor="start" x="107.5" y="-270.5" font-family="Helvetica,sans-Serif" font-size="10.00">+</text>
<text text-anchor="start" x="120.5" y="-270.5" font-family="Helvetica,sans-Serif" font-size="10.00">Scalar_()</text>
<text text-anchor="start" x="107.5" y="-255.5" font-family="Helvetica,sans-Serif" font-size="10.00">+</text>
<text text-anchor="start" x="120.5" y="-255.5" font-family="Helvetica,sans-Serif" font-size="10.00">Scalar_()</text>
<text text-anchor="start" x="107.5" y="-240.5" font-family="Helvetica,sans-Serif" font-size="10.00">+</text>
<text text-anchor="start" x="120.5" y="-240.5" font-family="Helvetica,sans-Serif" font-size="10.00">conj()</text>
<text text-anchor="start" x="107.5" y="-225.5" font-family="Helvetica,sans-Serif" font-size="10.00">+</text>
<text text-anchor="start" x="120.5" y="-225.5" font-family="Helvetica,sans-Serif" font-size="10.00">isReal()</text>
<text text-anchor="start" x="107.5" y="-210.5" font-family="Helvetica,sans-Serif" font-size="10.00">+</text>
<text text-anchor="start" x="120.5" y="-210.5" font-family="Helvetica,sans-Serif" font-size="10.00">mul()</text>
<text text-anchor="start" x="107.5" y="-195.5" font-family="Helvetica,sans-Serif" font-size="10.00">+</text>
<text text-anchor="start" x="120.5" y="-195.5" font-family="Helvetica,sans-Serif" font-size="10.00">operator Scalar_&lt; T2 &gt;()</text>
<text text-anchor="start" x="107.5" y="-180.5" font-family="Helvetica,sans-Serif" font-size="10.00">+</text>
<text text-anchor="start" x="120.5" y="-180.5" font-family="Helvetica,sans-Serif" font-size="10.00">operator=()</text>
<text text-anchor="start" x="107.5" y="-165.5" font-family="Helvetica,sans-Serif" font-size="10.00">+</text>
<text text-anchor="start" x="120.5" y="-165.5" font-family="Helvetica,sans-Serif" font-size="10.00">operator=()</text>
<text text-anchor="start" x="107.5" y="-150.5" font-family="Helvetica,sans-Serif" font-size="10.00">+</text>
<text text-anchor="start" x="120.5" y="-150.5" font-family="Helvetica,sans-Serif" font-size="10.00">all()</text>
<polygon fill="#666666" stroke="#666666" points="103.5,-355.5 103.5,-355.5 246.5,-355.5 246.5,-355.5 103.5,-355.5"/>
<polygon fill="#666666" stroke="#666666" points="103.5,-340.5 103.5,-340.5 246.5,-340.5 246.5,-340.5 103.5,-340.5"/>
<polygon fill="none" stroke="#666666" points="103,-144 103,-373 246,-373 246,-144 103,-144"/>
</a>
</g>
</g>
<!-- Node4&#45;&gt;Node1 -->
<g id="edge3_Node000001_Node000004" class="edge">
<title>Node4&#45;&gt;Node1</title>
<g id="a_edge3_Node000001_Node000004"><a xlink:title=" ">
<path fill="none" stroke="#63b8ff" d="M174.5,-143.83C174.5,-124.08 174.5,-104.51 174.5,-87.69"/>
<polygon fill="none" stroke="#63b8ff" points="174.5,-87.41 170.5,-81.41 174.5,-75.41 178.5,-81.41 174.5,-87.41"/>
</a>
</g>
<text text-anchor="middle" x="192.5" y="-107" font-family="Helvetica,sans-Serif" font-size="10.00" fill="grey"> +color</text>
</g>
<!-- Node5 -->
<g id="Node000005" class="node">
<title>Node5</title>
<g id="a_Node000005"><a xlink:href="../../d6/dcf/classcv_1_1Vec.html" target="_top" xlink:title=" ">
<polygon fill="white" stroke="transparent" points="222.5,-714 126.5,-714 126.5,-410 222.5,-410 222.5,-714"/>
<text text-anchor="start" x="131.5" y="-702" font-family="Helvetica,sans-Serif" font-size="10.00">cv::Vec&lt; _Tp, 4 &gt;</text>
<text text-anchor="start" x="172.5" y="-687" font-family="Helvetica,sans-Serif" font-size="10.00"> </text>
<text text-anchor="start" x="131.5" y="-672" font-family="Helvetica,sans-Serif" font-size="10.00">+</text>
<text text-anchor="start" x="145.5" y="-672" font-family="Helvetica,sans-Serif" font-size="10.00">Vec()</text>
<text text-anchor="start" x="131.5" y="-657" font-family="Helvetica,sans-Serif" font-size="10.00">+</text>
<text text-anchor="start" x="145.5" y="-657" font-family="Helvetica,sans-Serif" font-size="10.00">Vec()</text>
<text text-anchor="start" x="131.5" y="-642" font-family="Helvetica,sans-Serif" font-size="10.00">+</text>
<text text-anchor="start" x="145.5" y="-642" font-family="Helvetica,sans-Serif" font-size="10.00">Vec()</text>
<text text-anchor="start" x="131.5" y="-627" font-family="Helvetica,sans-Serif" font-size="10.00">+</text>
<text text-anchor="start" x="145.5" y="-627" font-family="Helvetica,sans-Serif" font-size="10.00">Vec()</text>
<text text-anchor="start" x="131.5" y="-612" font-family="Helvetica,sans-Serif" font-size="10.00">+</text>
<text text-anchor="start" x="145.5" y="-612" font-family="Helvetica,sans-Serif" font-size="10.00">Vec()</text>
<text text-anchor="start" x="131.5" y="-597" font-family="Helvetica,sans-Serif" font-size="10.00">+</text>
<text text-anchor="start" x="145.5" y="-597" font-family="Helvetica,sans-Serif" font-size="10.00">Vec()</text>
<text text-anchor="start" x="131.5" y="-582" font-family="Helvetica,sans-Serif" font-size="10.00">+</text>
<text text-anchor="start" x="145.5" y="-582" font-family="Helvetica,sans-Serif" font-size="10.00">Vec()</text>
<text text-anchor="start" x="131.5" y="-567" font-family="Helvetica,sans-Serif" font-size="10.00">+</text>
<text text-anchor="start" x="145.5" y="-567" font-family="Helvetica,sans-Serif" font-size="10.00">Vec()</text>
<text text-anchor="start" x="131.5" y="-552" font-family="Helvetica,sans-Serif" font-size="10.00">+</text>
<text text-anchor="start" x="145.5" y="-552" font-family="Helvetica,sans-Serif" font-size="10.00">Vec()</text>
<text text-anchor="start" x="131.5" y="-537" font-family="Helvetica,sans-Serif" font-size="10.00">+</text>
<text text-anchor="start" x="145.5" y="-537" font-family="Helvetica,sans-Serif" font-size="10.00">Vec()</text>
<text text-anchor="start" x="145.5" y="-522" font-family="Helvetica,sans-Serif" font-size="10.00">and 17 more...</text>
<text text-anchor="start" x="131.5" y="-507" font-family="Helvetica,sans-Serif" font-size="10.00">+</text>
<text text-anchor="start" x="145.5" y="-507" font-family="Helvetica,sans-Serif" font-size="10.00">all()</text>
<text text-anchor="start" x="131.5" y="-492" font-family="Helvetica,sans-Serif" font-size="10.00">+</text>
<text text-anchor="start" x="145.5" y="-492" font-family="Helvetica,sans-Serif" font-size="10.00">diag()</text>
<text text-anchor="start" x="131.5" y="-477" font-family="Helvetica,sans-Serif" font-size="10.00">+</text>
<text text-anchor="start" x="145.5" y="-477" font-family="Helvetica,sans-Serif" font-size="10.00">eye()</text>
<text text-anchor="start" x="131.5" y="-462" font-family="Helvetica,sans-Serif" font-size="10.00">+</text>
<text text-anchor="start" x="145.5" y="-462" font-family="Helvetica,sans-Serif" font-size="10.00">ones()</text>
<text text-anchor="start" x="131.5" y="-447" font-family="Helvetica,sans-Serif" font-size="10.00">+</text>
<text text-anchor="start" x="145.5" y="-447" font-family="Helvetica,sans-Serif" font-size="10.00">randn()</text>
<text text-anchor="start" x="131.5" y="-432" font-family="Helvetica,sans-Serif" font-size="10.00">+</text>
<text text-anchor="start" x="145.5" y="-432" font-family="Helvetica,sans-Serif" font-size="10.00">randu()</text>
<text text-anchor="start" x="131.5" y="-417" font-family="Helvetica,sans-Serif" font-size="10.00">+</text>
<text text-anchor="start" x="145.5" y="-417" font-family="Helvetica,sans-Serif" font-size="10.00">zeros()</text>
<polygon fill="#666666" stroke="#666666" points="126.5,-697 126.5,-697 222.5,-697 222.5,-697 126.5,-697"/>
<polygon fill="#666666" stroke="#666666" points="126.5,-682 126.5,-682 222.5,-682 222.5,-682 126.5,-682"/>
<polygon fill="none" stroke="#666666" points="126.5,-410 126.5,-714 222.5,-714 222.5,-410 126.5,-410"/>
</a>
</g>
</g>
<!-- Node5&#45;&gt;Node4 -->
<g id="edge4_Node000004_Node000005" class="edge">
<title>Node5&#45;&gt;Node4</title>
<g id="a_edge4_Node000004_Node000005"><a xlink:title=" ">
<path fill="none" stroke="#63b8ff" d="M174.5,-399.69C174.5,-390.74 174.5,-381.85 174.5,-373.13"/>
<polygon fill="none" stroke="#63b8ff" points="171,-399.81 174.5,-409.81 178,-399.81 171,-399.81"/>
</a>
</g>
</g>
<!-- Node6&#45;&gt;Node5 -->
<g id="edge5_Node000005_Node000006" class="edge">
<title>Node6&#45;&gt;Node5</title>
<g id="a_edge5_Node000005_Node000006"><a xlink:title=" ">
<path fill="none" stroke="#63b8ff" d="M178.17,-1102.58C177.52,-1093.59 176.95,-1084.69 176.5,-1076 170.13,-954.37 170,-816.3 171.25,-714.06"/>
<polygon fill="none" stroke="#63b8ff" points="174.69,-1103.04 178.93,-1112.75 181.67,-1102.51 174.69,-1103.04"/>
</a>
</g>
</g>
<!-- Node8 -->
<g id="Node000008" class="node">
<title>Node8</title>
<g id="a_Node000008"><a xlink:href="../../d6/dcf/classcv_1_1Vec.html" target="_top" xlink:title="Template class for short numerical vectors, a partial case of Matx.">
<polygon fill="white" stroke="transparent" points="287,-1076 186,-1076 186,-772 287,-772 287,-1076"/>
<text text-anchor="start" x="191.5" y="-1064" font-family="Helvetica,sans-Serif" font-size="10.00">cv::Vec&lt; _Tp, cn &gt;</text>
<text text-anchor="start" x="235" y="-1049" font-family="Helvetica,sans-Serif" font-size="10.00"> </text>
<text text-anchor="start" x="192.5" y="-1034" font-family="Helvetica,sans-Serif" font-size="10.00">+</text>
<text text-anchor="start" x="207.5" y="-1034" font-family="Helvetica,sans-Serif" font-size="10.00">Vec()</text>
<text text-anchor="start" x="192.5" y="-1019" font-family="Helvetica,sans-Serif" font-size="10.00">+</text>
<text text-anchor="start" x="207.5" y="-1019" font-family="Helvetica,sans-Serif" font-size="10.00">Vec()</text>
<text text-anchor="start" x="192.5" y="-1004" font-family="Helvetica,sans-Serif" font-size="10.00">+</text>
<text text-anchor="start" x="207.5" y="-1004" font-family="Helvetica,sans-Serif" font-size="10.00">Vec()</text>
<text text-anchor="start" x="192.5" y="-989" font-family="Helvetica,sans-Serif" font-size="10.00">+</text>
<text text-anchor="start" x="207.5" y="-989" font-family="Helvetica,sans-Serif" font-size="10.00">Vec()</text>
<text text-anchor="start" x="192.5" y="-974" font-family="Helvetica,sans-Serif" font-size="10.00">+</text>
<text text-anchor="start" x="207.5" y="-974" font-family="Helvetica,sans-Serif" font-size="10.00">Vec()</text>
<text text-anchor="start" x="192.5" y="-959" font-family="Helvetica,sans-Serif" font-size="10.00">+</text>
<text text-anchor="start" x="207.5" y="-959" font-family="Helvetica,sans-Serif" font-size="10.00">Vec()</text>
<text text-anchor="start" x="192.5" y="-944" font-family="Helvetica,sans-Serif" font-size="10.00">+</text>
<text text-anchor="start" x="207.5" y="-944" font-family="Helvetica,sans-Serif" font-size="10.00">Vec()</text>
<text text-anchor="start" x="192.5" y="-929" font-family="Helvetica,sans-Serif" font-size="10.00">+</text>
<text text-anchor="start" x="207.5" y="-929" font-family="Helvetica,sans-Serif" font-size="10.00">Vec()</text>
<text text-anchor="start" x="192.5" y="-914" font-family="Helvetica,sans-Serif" font-size="10.00">+</text>
<text text-anchor="start" x="207.5" y="-914" font-family="Helvetica,sans-Serif" font-size="10.00">Vec()</text>
<text text-anchor="start" x="192.5" y="-899" font-family="Helvetica,sans-Serif" font-size="10.00">+</text>
<text text-anchor="start" x="207.5" y="-899" font-family="Helvetica,sans-Serif" font-size="10.00">Vec()</text>
<text text-anchor="start" x="207.5" y="-884" font-family="Helvetica,sans-Serif" font-size="10.00">and 17 more...</text>
<text text-anchor="start" x="192.5" y="-869" font-family="Helvetica,sans-Serif" font-size="10.00">+</text>
<text text-anchor="start" x="207.5" y="-869" font-family="Helvetica,sans-Serif" font-size="10.00">all()</text>
<text text-anchor="start" x="192.5" y="-854" font-family="Helvetica,sans-Serif" font-size="10.00">+</text>
<text text-anchor="start" x="207.5" y="-854" font-family="Helvetica,sans-Serif" font-size="10.00">diag()</text>
<text text-anchor="start" x="192.5" y="-839" font-family="Helvetica,sans-Serif" font-size="10.00">+</text>
<text text-anchor="start" x="207.5" y="-839" font-family="Helvetica,sans-Serif" font-size="10.00">eye()</text>
<text text-anchor="start" x="192.5" y="-824" font-family="Helvetica,sans-Serif" font-size="10.00">+</text>
<text text-anchor="start" x="207.5" y="-824" font-family="Helvetica,sans-Serif" font-size="10.00">ones()</text>
<text text-anchor="start" x="192.5" y="-809" font-family="Helvetica,sans-Serif" font-size="10.00">+</text>
<text text-anchor="start" x="207.5" y="-809" font-family="Helvetica,sans-Serif" font-size="10.00">randn()</text>
<text text-anchor="start" x="192.5" y="-794" font-family="Helvetica,sans-Serif" font-size="10.00">+</text>
<text text-anchor="start" x="207.5" y="-794" font-family="Helvetica,sans-Serif" font-size="10.00">randu()</text>
<text text-anchor="start" x="192.5" y="-779" font-family="Helvetica,sans-Serif" font-size="10.00">+</text>
<text text-anchor="start" x="207.5" y="-779" font-family="Helvetica,sans-Serif" font-size="10.00">zeros()</text>
<polygon fill="#666666" stroke="#666666" points="186.5,-1059 186.5,-1059 287.5,-1059 287.5,-1059 186.5,-1059"/>
<polygon fill="#666666" stroke="#666666" points="186.5,-1044 186.5,-1044 287.5,-1044 287.5,-1044 186.5,-1044"/>
<polygon fill="none" stroke="#666666" points="186,-772 186,-1076 287,-1076 287,-772 186,-772"/>
</a>
</g>
</g>
<!-- Node6&#45;&gt;Node8 -->
<g id="edge10_Node000008_Node000006" class="edge">
<title>Node6&#45;&gt;Node8</title>
<g id="a_edge10_Node000008_Node000006"><a xlink:title=" ">
<path fill="none" stroke="#63b8ff" d="M214.99,-1102.82C216.07,-1093.94 217.15,-1085.02 218.22,-1076.17"/>
<polygon fill="none" stroke="#63b8ff" points="211.51,-1102.49 213.78,-1112.84 218.46,-1103.33 211.51,-1102.49"/>
</a>
</g>
</g>
<!-- Node7&#45;&gt;Node6 -->
<g id="edge7_Node000006_Node000007" class="edge">
<title>Node7&#45;&gt;Node6</title>
<g id="a_edge7_Node000006_Node000007"><a xlink:title=" ">
<path fill="none" stroke="orange" d="M248.66,-1697.81C237.89,-1610.38 224.67,-1502.98 214.11,-1417.15"/>
<polygon fill="orange" stroke="orange" points="245.19,-1698.33 249.89,-1707.83 252.14,-1697.47 245.19,-1698.33"/>
</a>
</g>
<text text-anchor="middle" x="283" y="-1560" font-family="Helvetica,sans-Serif" font-size="10.00" fill="grey"> &lt; _Tp, cn, 1 &gt;</text>
</g>
<!-- Node8&#45;&gt;Node5 -->
<g id="edge9_Node000005_Node000008" class="edge">
<title>Node8&#45;&gt;Node5</title>
<g id="a_edge9_Node000005_Node000008"><a xlink:title=" ">
<path fill="none" stroke="orange" d="M208.77,-761.99C206.02,-746.02 203.24,-729.86 200.51,-714.01"/>
<polygon fill="orange" stroke="orange" points="205.33,-762.63 210.48,-771.89 212.23,-761.44 205.33,-762.63"/>
</a>
</g>
<text text-anchor="middle" x="234" y="-740.5" font-family="Helvetica,sans-Serif" font-size="10.00" fill="grey"> &lt; _Tp, 4 &gt;</text>
</g>
<!-- Node9 -->
<g id="Node000009" class="node">
<title>Node9</title>
<g id="a_Node000009"><a xlink:title=" ">
<polygon fill="white" stroke="transparent" points="287,-283 264,-283 264,-234 287,-234 287,-283"/>
<text text-anchor="start" x="269.5" y="-270.5" font-family="Helvetica,sans-Serif" font-size="10.00">int</text>
<text text-anchor="start" x="274" y="-255.5" font-family="Helvetica,sans-Serif" font-size="10.00"> </text>
<text text-anchor="start" x="274" y="-240.5" font-family="Helvetica,sans-Serif" font-size="10.00"> </text>
<polygon fill="#666666" stroke="#666666" points="264.5,-265.5 264.5,-265.5 287.5,-265.5 287.5,-265.5 264.5,-265.5"/>
<polygon fill="#666666" stroke="#666666" points="264.5,-250.5 264.5,-250.5 287.5,-250.5 287.5,-250.5 264.5,-250.5"/>
<polygon fill="none" stroke="#666666" points="264,-234 264,-283 287,-283 287,-234 264,-234"/>
</a>
</g>
</g>
<!-- Node9&#45;&gt;Node1 -->
<g id="edge11_Node000001_Node000009" class="edge">
<title>Node9&#45;&gt;Node1</title>
<g id="a_edge11_Node000001_Node000009"><a xlink:title=" ">
<path fill="none" stroke="#63b8ff" d="M274.61,-233.95C272.98,-210.31 268.4,-173.3 255.5,-144 246.16,-122.78 231.69,-101.97 217.54,-84.53"/>
<polygon fill="none" stroke="#63b8ff" points="217.44,-84.41 210.53,-82.36 209.75,-75.2 216.67,-77.24 217.44,-84.41"/>
</a>
</g>
<text text-anchor="middle" x="262" y="-118" font-family="Helvetica,sans-Serif" font-size="10.00" fill="grey"> +lt</text>
<text text-anchor="middle" x="262" y="-107" font-family="Helvetica,sans-Serif" font-size="10.00" fill="grey">+shift</text>
<text text-anchor="middle" x="262" y="-96" font-family="Helvetica,sans-Serif" font-size="10.00" fill="grey">+thick</text>
</g>
</g>
</svg>
