<?xml version="1.0" encoding="UTF-8" standalone="no"?>
<!DOCTYPE svg PUBLIC "-//W3C//DTD SVG 1.1//EN"
 "http://www.w3.org/Graphics/SVG/1.1/DTD/svg11.dtd">
<!-- Generated by graphviz version 2.43.0 (0)
 -->
<!-- Title: cv::ximgproc::AdaptiveManifoldFilter Pages: 1 -->
<svg width="173pt" height="558pt"
 viewBox="0.00 0.00 173.00 558.00" xmlns="http://www.w3.org/2000/svg" xmlns:xlink="http://www.w3.org/1999/xlink">
<g id="graph0" class="graph" transform="scale(1 1) rotate(0) translate(4 554)">
<title>cv::ximgproc::AdaptiveManifoldFilter</title>
<!-- Node1 -->
<g id="Node000001" class="node">
<title>Node1</title>
<g id="a_Node000001"><a xlink:title="Interface for Adaptive Manifold Filter realizations.">
<polygon fill="#999999" stroke="transparent" points="165,-270 0,-270 0,0 165,0 165,-270"/>
<text text-anchor="start" x="5.5" y="-258" font-family="Helvetica,sans-Serif" font-size="10.00">cv::ximgproc::AdaptiveManifold</text>
<text text-anchor="start" x="70.5" y="-247" font-family="Helvetica,sans-Serif" font-size="10.00">Filter</text>
<text text-anchor="start" x="81" y="-232" font-family="Helvetica,sans-Serif" font-size="10.00"> </text>
<text text-anchor="start" x="17" y="-217" font-family="Helvetica,sans-Serif" font-size="10.00">+</text>
<text text-anchor="start" x="42.5" y="-217" font-family="Helvetica,sans-Serif" font-size="10.00">collectGarbage()</text>
<text text-anchor="start" x="17" y="-202" font-family="Helvetica,sans-Serif" font-size="10.00">+</text>
<text text-anchor="start" x="42.5" y="-202" font-family="Helvetica,sans-Serif" font-size="10.00">filter()</text>
<text text-anchor="start" x="17" y="-187" font-family="Helvetica,sans-Serif" font-size="10.00">+</text>
<text text-anchor="start" x="42.5" y="-187" font-family="Helvetica,sans-Serif" font-size="10.00">getAdjustOutliers()</text>
<text text-anchor="start" x="17" y="-172" font-family="Helvetica,sans-Serif" font-size="10.00">+</text>
<text text-anchor="start" x="42.5" y="-172" font-family="Helvetica,sans-Serif" font-size="10.00">getPCAIterations()</text>
<text text-anchor="start" x="17" y="-157" font-family="Helvetica,sans-Serif" font-size="10.00">+</text>
<text text-anchor="start" x="42.5" y="-157" font-family="Helvetica,sans-Serif" font-size="10.00">getSigmaR()</text>
<text text-anchor="start" x="17" y="-142" font-family="Helvetica,sans-Serif" font-size="10.00">+</text>
<text text-anchor="start" x="42.5" y="-142" font-family="Helvetica,sans-Serif" font-size="10.00">getSigmaS()</text>
<text text-anchor="start" x="17" y="-127" font-family="Helvetica,sans-Serif" font-size="10.00">+</text>
<text text-anchor="start" x="42.5" y="-127" font-family="Helvetica,sans-Serif" font-size="10.00">getTreeHeight()</text>
<text text-anchor="start" x="17" y="-112" font-family="Helvetica,sans-Serif" font-size="10.00">+</text>
<text text-anchor="start" x="42.5" y="-112" font-family="Helvetica,sans-Serif" font-size="10.00">getUseRNG()</text>
<text text-anchor="start" x="17" y="-97" font-family="Helvetica,sans-Serif" font-size="10.00">+</text>
<text text-anchor="start" x="42.5" y="-97" font-family="Helvetica,sans-Serif" font-size="10.00">setAdjustOutliers()</text>
<text text-anchor="start" x="17" y="-82" font-family="Helvetica,sans-Serif" font-size="10.00">+</text>
<text text-anchor="start" x="42.5" y="-82" font-family="Helvetica,sans-Serif" font-size="10.00">setPCAIterations()</text>
<text text-anchor="start" x="17" y="-67" font-family="Helvetica,sans-Serif" font-size="10.00">+</text>
<text text-anchor="start" x="42.5" y="-67" font-family="Helvetica,sans-Serif" font-size="10.00">setSigmaR()</text>
<text text-anchor="start" x="17" y="-52" font-family="Helvetica,sans-Serif" font-size="10.00">+</text>
<text text-anchor="start" x="42.5" y="-52" font-family="Helvetica,sans-Serif" font-size="10.00">setSigmaS()</text>
<text text-anchor="start" x="17" y="-37" font-family="Helvetica,sans-Serif" font-size="10.00">+</text>
<text text-anchor="start" x="42.5" y="-37" font-family="Helvetica,sans-Serif" font-size="10.00">setTreeHeight()</text>
<text text-anchor="start" x="17" y="-22" font-family="Helvetica,sans-Serif" font-size="10.00">+</text>
<text text-anchor="start" x="42.5" y="-22" font-family="Helvetica,sans-Serif" font-size="10.00">setUseRNG()</text>
<text text-anchor="start" x="17" y="-7" font-family="Helvetica,sans-Serif" font-size="10.00">+</text>
<text text-anchor="start" x="42.5" y="-7" font-family="Helvetica,sans-Serif" font-size="10.00">create()</text>
<polygon fill="#666666" stroke="#666666" points="0.5,-242 0.5,-242 165.5,-242 165.5,-242 0.5,-242"/>
<polygon fill="#666666" stroke="#666666" points="0.5,-227 0.5,-227 165.5,-227 165.5,-227 0.5,-227"/>
<polygon fill="none" stroke="#666666" points="0,0 0,-270 165,-270 165,0 0,0"/>
</a>
</g>
</g>
<!-- Node2 -->
<g id="Node000002" class="node">
<title>Node2</title>
<g id="a_Node000002"><a xlink:href="../../d3/d46/classcv_1_1Algorithm.html" target="_top" xlink:title="This is a base class for all more or less complex algorithms in OpenCV.">
<polygon fill="white" stroke="transparent" points="137.5,-550 27.5,-550 27.5,-306 137.5,-306 137.5,-550"/>
<text text-anchor="start" x="50" y="-538" font-family="Helvetica,sans-Serif" font-size="10.00">cv::Algorithm</text>
<text text-anchor="start" x="80.5" y="-523" font-family="Helvetica,sans-Serif" font-size="10.00"> </text>
<text text-anchor="start" x="31.5" y="-508" font-family="Helvetica,sans-Serif" font-size="10.00">+</text>
<text text-anchor="start" x="44.5" y="-508" font-family="Helvetica,sans-Serif" font-size="10.00">Algorithm()</text>
<text text-anchor="start" x="31.5" y="-493" font-family="Helvetica,sans-Serif" font-size="10.00">+</text>
<text text-anchor="start" x="44.5" y="-493" font-family="Helvetica,sans-Serif" font-size="10.00">~Algorithm()</text>
<text text-anchor="start" x="31.5" y="-478" font-family="Helvetica,sans-Serif" font-size="10.00">+</text>
<text text-anchor="start" x="44.5" y="-478" font-family="Helvetica,sans-Serif" font-size="10.00">clear()</text>
<text text-anchor="start" x="31.5" y="-463" font-family="Helvetica,sans-Serif" font-size="10.00">+</text>
<text text-anchor="start" x="44.5" y="-463" font-family="Helvetica,sans-Serif" font-size="10.00">empty()</text>
<text text-anchor="start" x="31.5" y="-448" font-family="Helvetica,sans-Serif" font-size="10.00">+</text>
<text text-anchor="start" x="44.5" y="-448" font-family="Helvetica,sans-Serif" font-size="10.00">getDefaultName()</text>
<text text-anchor="start" x="31.5" y="-433" font-family="Helvetica,sans-Serif" font-size="10.00">+</text>
<text text-anchor="start" x="44.5" y="-433" font-family="Helvetica,sans-Serif" font-size="10.00">read()</text>
<text text-anchor="start" x="31.5" y="-418" font-family="Helvetica,sans-Serif" font-size="10.00">+</text>
<text text-anchor="start" x="44.5" y="-418" font-family="Helvetica,sans-Serif" font-size="10.00">save()</text>
<text text-anchor="start" x="31.5" y="-403" font-family="Helvetica,sans-Serif" font-size="10.00">+</text>
<text text-anchor="start" x="44.5" y="-403" font-family="Helvetica,sans-Serif" font-size="10.00">write()</text>
<text text-anchor="start" x="31.5" y="-388" font-family="Helvetica,sans-Serif" font-size="10.00">+</text>
<text text-anchor="start" x="44.5" y="-388" font-family="Helvetica,sans-Serif" font-size="10.00">write()</text>
<text text-anchor="start" x="31.5" y="-373" font-family="Helvetica,sans-Serif" font-size="10.00">+</text>
<text text-anchor="start" x="44.5" y="-373" font-family="Helvetica,sans-Serif" font-size="10.00">write()</text>
<text text-anchor="start" x="31.5" y="-358" font-family="Helvetica,sans-Serif" font-size="10.00">+</text>
<text text-anchor="start" x="44.5" y="-358" font-family="Helvetica,sans-Serif" font-size="10.00">load()</text>
<text text-anchor="start" x="31.5" y="-343" font-family="Helvetica,sans-Serif" font-size="10.00">+</text>
<text text-anchor="start" x="44.5" y="-343" font-family="Helvetica,sans-Serif" font-size="10.00">loadFromString()</text>
<text text-anchor="start" x="31.5" y="-328" font-family="Helvetica,sans-Serif" font-size="10.00">+</text>
<text text-anchor="start" x="44.5" y="-328" font-family="Helvetica,sans-Serif" font-size="10.00">read()</text>
<text text-anchor="start" x="31.5" y="-313" font-family="Helvetica,sans-Serif" font-size="10.00">#</text>
<text text-anchor="start" x="44.5" y="-313" font-family="Helvetica,sans-Serif" font-size="10.00">writeFormat()</text>
<polygon fill="#666666" stroke="#666666" points="27.5,-533 27.5,-533 137.5,-533 137.5,-533 27.5,-533"/>
<polygon fill="#666666" stroke="#666666" points="27.5,-518 27.5,-518 137.5,-518 137.5,-518 27.5,-518"/>
<polygon fill="none" stroke="#666666" points="27.5,-306 27.5,-550 137.5,-550 137.5,-306 27.5,-306"/>
</a>
</g>
</g>
<!-- Node2&#45;&gt;Node1 -->
<g id="edge1_Node000001_Node000002" class="edge">
<title>Node2&#45;&gt;Node1</title>
<g id="a_edge1_Node000001_Node000002"><a xlink:title=" ">
<path fill="none" stroke="#63b8ff" d="M82.5,-295.51C82.5,-287.12 82.5,-278.68 82.5,-270.28"/>
<polygon fill="none" stroke="#63b8ff" points="79,-295.7 82.5,-305.7 86,-295.7 79,-295.7"/>
</a>
</g>
</g>
</g>
</svg>
