<?xml version="1.0" encoding="UTF-8" standalone="no"?>
<!DOCTYPE svg PUBLIC "-//W3C//DTD SVG 1.1//EN"
 "http://www.w3.org/Graphics/SVG/1.1/DTD/svg11.dtd">
<!-- Generated by graphviz version 2.43.0 (0)
 -->
<!-- Title: cv::optflow::GPCTree::Node Pages: 1 -->
<svg width="307pt" height="1884pt"
 viewBox="0.00 0.00 307.00 1884.00" xmlns="http://www.w3.org/2000/svg" xmlns:xlink="http://www.w3.org/1999/xlink">
<g id="graph0" class="graph" transform="scale(1 1) rotate(0) translate(4 1880)">
<title>cv::optflow::GPCTree::Node</title>
<!-- Node1 -->
<g id="Node000001" class="node">
<title>Node1</title>
<g id="a_Node000001"><a xlink:title=" ">
<polygon fill="#999999" stroke="transparent" points="241,-60 132,-60 132,0 241,0 241,-60"/>
<text text-anchor="start" x="137.5" y="-48" font-family="Helvetica,sans-Serif" font-size="10.00">cv::optflow::GPCTree</text>
<text text-anchor="start" x="171" y="-37" font-family="Helvetica,sans-Serif" font-size="10.00">::Node</text>
<text text-anchor="start" x="185" y="-22" font-family="Helvetica,sans-Serif" font-size="10.00"> </text>
<text text-anchor="start" x="142" y="-7" font-family="Helvetica,sans-Serif" font-size="10.00">+</text>
<text text-anchor="start" x="160.5" y="-7" font-family="Helvetica,sans-Serif" font-size="10.00">operator==()</text>
<polygon fill="#666666" stroke="#666666" points="132.5,-32 132.5,-32 241.5,-32 241.5,-32 132.5,-32"/>
<polygon fill="#666666" stroke="#666666" points="132.5,-17 132.5,-17 241.5,-17 241.5,-17 132.5,-17"/>
<polygon fill="none" stroke="#666666" points="132,0 132,-60 241,-60 241,0 132,0"/>
</a>
</g>
</g>
<!-- Node2 -->
<g id="Node000002" class="node">
<title>Node2</title>
<g id="a_Node000002"><a xlink:href="../../d6/dcf/classcv_1_1Vec.html" target="_top" xlink:title=" ">
<polygon fill="white" stroke="transparent" points="146,-433 5,-433 5,-118 146,-118 146,-433"/>
<text text-anchor="start" x="10.5" y="-420.5" font-family="Helvetica,sans-Serif" font-size="10.00">cv::Vec&lt; double, GPCPatch</text>
<text text-anchor="start" x="18" y="-409.5" font-family="Helvetica,sans-Serif" font-size="10.00">Descriptor::nFeatures &gt;</text>
<text text-anchor="start" x="74" y="-394.5" font-family="Helvetica,sans-Serif" font-size="10.00"> </text>
<text text-anchor="start" x="21.5" y="-379.5" font-family="Helvetica,sans-Serif" font-size="10.00">+</text>
<text text-anchor="start" x="46.5" y="-379.5" font-family="Helvetica,sans-Serif" font-size="10.00">Vec()</text>
<text text-anchor="start" x="21.5" y="-364.5" font-family="Helvetica,sans-Serif" font-size="10.00">+</text>
<text text-anchor="start" x="46.5" y="-364.5" font-family="Helvetica,sans-Serif" font-size="10.00">Vec()</text>
<text text-anchor="start" x="21.5" y="-349.5" font-family="Helvetica,sans-Serif" font-size="10.00">+</text>
<text text-anchor="start" x="46.5" y="-349.5" font-family="Helvetica,sans-Serif" font-size="10.00">Vec()</text>
<text text-anchor="start" x="21.5" y="-334.5" font-family="Helvetica,sans-Serif" font-size="10.00">+</text>
<text text-anchor="start" x="46.5" y="-334.5" font-family="Helvetica,sans-Serif" font-size="10.00">Vec()</text>
<text text-anchor="start" x="21.5" y="-319.5" font-family="Helvetica,sans-Serif" font-size="10.00">+</text>
<text text-anchor="start" x="46.5" y="-319.5" font-family="Helvetica,sans-Serif" font-size="10.00">Vec()</text>
<text text-anchor="start" x="21.5" y="-304.5" font-family="Helvetica,sans-Serif" font-size="10.00">+</text>
<text text-anchor="start" x="46.5" y="-304.5" font-family="Helvetica,sans-Serif" font-size="10.00">Vec()</text>
<text text-anchor="start" x="21.5" y="-289.5" font-family="Helvetica,sans-Serif" font-size="10.00">+</text>
<text text-anchor="start" x="46.5" y="-289.5" font-family="Helvetica,sans-Serif" font-size="10.00">Vec()</text>
<text text-anchor="start" x="21.5" y="-274.5" font-family="Helvetica,sans-Serif" font-size="10.00">+</text>
<text text-anchor="start" x="46.5" y="-274.5" font-family="Helvetica,sans-Serif" font-size="10.00">Vec()</text>
<text text-anchor="start" x="21.5" y="-259.5" font-family="Helvetica,sans-Serif" font-size="10.00">+</text>
<text text-anchor="start" x="46.5" y="-259.5" font-family="Helvetica,sans-Serif" font-size="10.00">Vec()</text>
<text text-anchor="start" x="21.5" y="-244.5" font-family="Helvetica,sans-Serif" font-size="10.00">+</text>
<text text-anchor="start" x="46.5" y="-244.5" font-family="Helvetica,sans-Serif" font-size="10.00">Vec()</text>
<text text-anchor="start" x="46.5" y="-229.5" font-family="Helvetica,sans-Serif" font-size="10.00">and 17 more...</text>
<text text-anchor="start" x="21.5" y="-214.5" font-family="Helvetica,sans-Serif" font-size="10.00">+</text>
<text text-anchor="start" x="46.5" y="-214.5" font-family="Helvetica,sans-Serif" font-size="10.00">all()</text>
<text text-anchor="start" x="21.5" y="-199.5" font-family="Helvetica,sans-Serif" font-size="10.00">+</text>
<text text-anchor="start" x="46.5" y="-199.5" font-family="Helvetica,sans-Serif" font-size="10.00">diag()</text>
<text text-anchor="start" x="21.5" y="-184.5" font-family="Helvetica,sans-Serif" font-size="10.00">+</text>
<text text-anchor="start" x="46.5" y="-184.5" font-family="Helvetica,sans-Serif" font-size="10.00">eye()</text>
<text text-anchor="start" x="21.5" y="-169.5" font-family="Helvetica,sans-Serif" font-size="10.00">+</text>
<text text-anchor="start" x="46.5" y="-169.5" font-family="Helvetica,sans-Serif" font-size="10.00">ones()</text>
<text text-anchor="start" x="21.5" y="-154.5" font-family="Helvetica,sans-Serif" font-size="10.00">+</text>
<text text-anchor="start" x="46.5" y="-154.5" font-family="Helvetica,sans-Serif" font-size="10.00">randn()</text>
<text text-anchor="start" x="21.5" y="-139.5" font-family="Helvetica,sans-Serif" font-size="10.00">+</text>
<text text-anchor="start" x="46.5" y="-139.5" font-family="Helvetica,sans-Serif" font-size="10.00">randu()</text>
<text text-anchor="start" x="21.5" y="-124.5" font-family="Helvetica,sans-Serif" font-size="10.00">+</text>
<text text-anchor="start" x="46.5" y="-124.5" font-family="Helvetica,sans-Serif" font-size="10.00">zeros()</text>
<polygon fill="#666666" stroke="#666666" points="5.5,-404.5 5.5,-404.5 146.5,-404.5 146.5,-404.5 5.5,-404.5"/>
<polygon fill="#666666" stroke="#666666" points="5.5,-389.5 5.5,-389.5 146.5,-389.5 146.5,-389.5 5.5,-389.5"/>
<polygon fill="none" stroke="#666666" points="5,-118 5,-433 146,-433 146,-118 5,-118"/>
</a>
</g>
</g>
<!-- Node2&#45;&gt;Node1 -->
<g id="edge1_Node000001_Node000002" class="edge">
<title>Node2&#45;&gt;Node1</title>
<g id="a_edge1_Node000001_Node000002"><a xlink:title=" ">
<path fill="none" stroke="#63b8ff" d="M129.46,-117.76C135.69,-104.06 142.38,-90.62 149.5,-78 151,-75.35 152.63,-72.69 154.36,-70.06"/>
<polygon fill="none" stroke="#63b8ff" points="154.45,-69.93 154.64,-62.72 161.37,-60.12 161.18,-67.33 154.45,-69.93"/>
</a>
</g>
<text text-anchor="middle" x="166" y="-86.5" font-family="Helvetica,sans-Serif" font-size="10.00" fill="grey"> +coef</text>
</g>
<!-- Node3 -->
<g id="Node000003" class="node">
<title>Node3</title>
<g id="a_Node000003"><a xlink:href="../../de/de1/classcv_1_1Matx.html" target="_top" xlink:title="Template class for small matrices whose type and size are known at compilation time.">
<polygon fill="white" stroke="transparent" points="119,-1458 0,-1458 0,-1154 119,-1154 119,-1458"/>
<text text-anchor="start" x="5.5" y="-1446" font-family="Helvetica,sans-Serif" font-size="10.00">cv::Matx&lt; _Tp, m, n &gt;</text>
<text text-anchor="start" x="58" y="-1431" font-family="Helvetica,sans-Serif" font-size="10.00"> </text>
<text text-anchor="start" x="11" y="-1416" font-family="Helvetica,sans-Serif" font-size="10.00">+</text>
<text text-anchor="start" x="30.5" y="-1416" font-family="Helvetica,sans-Serif" font-size="10.00">Matx()</text>
<text text-anchor="start" x="11" y="-1401" font-family="Helvetica,sans-Serif" font-size="10.00">+</text>
<text text-anchor="start" x="30.5" y="-1401" font-family="Helvetica,sans-Serif" font-size="10.00">Matx()</text>
<text text-anchor="start" x="11" y="-1386" font-family="Helvetica,sans-Serif" font-size="10.00">+</text>
<text text-anchor="start" x="30.5" y="-1386" font-family="Helvetica,sans-Serif" font-size="10.00">Matx()</text>
<text text-anchor="start" x="11" y="-1371" font-family="Helvetica,sans-Serif" font-size="10.00">+</text>
<text text-anchor="start" x="30.5" y="-1371" font-family="Helvetica,sans-Serif" font-size="10.00">Matx()</text>
<text text-anchor="start" x="11" y="-1356" font-family="Helvetica,sans-Serif" font-size="10.00">+</text>
<text text-anchor="start" x="30.5" y="-1356" font-family="Helvetica,sans-Serif" font-size="10.00">Matx()</text>
<text text-anchor="start" x="11" y="-1341" font-family="Helvetica,sans-Serif" font-size="10.00">+</text>
<text text-anchor="start" x="30.5" y="-1341" font-family="Helvetica,sans-Serif" font-size="10.00">Matx()</text>
<text text-anchor="start" x="11" y="-1326" font-family="Helvetica,sans-Serif" font-size="10.00">+</text>
<text text-anchor="start" x="30.5" y="-1326" font-family="Helvetica,sans-Serif" font-size="10.00">Matx()</text>
<text text-anchor="start" x="11" y="-1311" font-family="Helvetica,sans-Serif" font-size="10.00">+</text>
<text text-anchor="start" x="30.5" y="-1311" font-family="Helvetica,sans-Serif" font-size="10.00">Matx()</text>
<text text-anchor="start" x="11" y="-1296" font-family="Helvetica,sans-Serif" font-size="10.00">+</text>
<text text-anchor="start" x="30.5" y="-1296" font-family="Helvetica,sans-Serif" font-size="10.00">Matx()</text>
<text text-anchor="start" x="11" y="-1281" font-family="Helvetica,sans-Serif" font-size="10.00">+</text>
<text text-anchor="start" x="30.5" y="-1281" font-family="Helvetica,sans-Serif" font-size="10.00">Matx()</text>
<text text-anchor="start" x="30.5" y="-1266" font-family="Helvetica,sans-Serif" font-size="10.00">and 31 more...</text>
<text text-anchor="start" x="11" y="-1251" font-family="Helvetica,sans-Serif" font-size="10.00">+</text>
<text text-anchor="start" x="30.5" y="-1251" font-family="Helvetica,sans-Serif" font-size="10.00">all()</text>
<text text-anchor="start" x="11" y="-1236" font-family="Helvetica,sans-Serif" font-size="10.00">+</text>
<text text-anchor="start" x="30.5" y="-1236" font-family="Helvetica,sans-Serif" font-size="10.00">diag()</text>
<text text-anchor="start" x="11" y="-1221" font-family="Helvetica,sans-Serif" font-size="10.00">+</text>
<text text-anchor="start" x="30.5" y="-1221" font-family="Helvetica,sans-Serif" font-size="10.00">eye()</text>
<text text-anchor="start" x="11" y="-1206" font-family="Helvetica,sans-Serif" font-size="10.00">+</text>
<text text-anchor="start" x="30.5" y="-1206" font-family="Helvetica,sans-Serif" font-size="10.00">ones()</text>
<text text-anchor="start" x="11" y="-1191" font-family="Helvetica,sans-Serif" font-size="10.00">+</text>
<text text-anchor="start" x="30.5" y="-1191" font-family="Helvetica,sans-Serif" font-size="10.00">randn()</text>
<text text-anchor="start" x="11" y="-1176" font-family="Helvetica,sans-Serif" font-size="10.00">+</text>
<text text-anchor="start" x="30.5" y="-1176" font-family="Helvetica,sans-Serif" font-size="10.00">randu()</text>
<text text-anchor="start" x="11" y="-1161" font-family="Helvetica,sans-Serif" font-size="10.00">+</text>
<text text-anchor="start" x="30.5" y="-1161" font-family="Helvetica,sans-Serif" font-size="10.00">zeros()</text>
<polygon fill="#666666" stroke="#666666" points="0.5,-1441 0.5,-1441 119.5,-1441 119.5,-1441 0.5,-1441"/>
<polygon fill="#666666" stroke="#666666" points="0.5,-1426 0.5,-1426 119.5,-1426 119.5,-1426 0.5,-1426"/>
<polygon fill="none" stroke="#666666" points="0,-1154 0,-1458 119,-1458 119,-1154 0,-1154"/>
</a>
</g>
</g>
<!-- Node3&#45;&gt;Node2 -->
<g id="edge2_Node000002_Node000003" class="edge">
<title>Node3&#45;&gt;Node2</title>
<g id="a_edge2_Node000002_Node000003"><a xlink:title=" ">
<path fill="none" stroke="#63b8ff" d="M62.01,-1143.78C65.03,-949.57 70.07,-625.49 73.06,-433.28"/>
<polygon fill="none" stroke="#63b8ff" points="58.51,-1143.74 61.85,-1153.79 65.51,-1143.85 58.51,-1143.74"/>
</a>
</g>
</g>
<!-- Node4 -->
<g id="Node000004" class="node">
<title>Node4</title>
<g id="a_Node000004"><a xlink:href="../../d1/dd7/class__Tp.html" target="_top" xlink:title=" ">
<polygon fill="white" stroke="transparent" points="148.5,-1876 120.5,-1876 120.5,-1827 148.5,-1827 148.5,-1876"/>
<text text-anchor="start" x="125.5" y="-1863.5" font-family="Helvetica,sans-Serif" font-size="10.00">_Tp</text>
<text text-anchor="start" x="132.5" y="-1848.5" font-family="Helvetica,sans-Serif" font-size="10.00"> </text>
<text text-anchor="start" x="132.5" y="-1833.5" font-family="Helvetica,sans-Serif" font-size="10.00"> </text>
<polygon fill="#666666" stroke="#666666" points="120.5,-1858.5 120.5,-1858.5 148.5,-1858.5 148.5,-1858.5 120.5,-1858.5"/>
<polygon fill="#666666" stroke="#666666" points="120.5,-1843.5 120.5,-1843.5 148.5,-1843.5 148.5,-1843.5 120.5,-1843.5"/>
<polygon fill="none" stroke="#666666" points="120.5,-1827 120.5,-1876 148.5,-1876 148.5,-1827 120.5,-1827"/>
</a>
</g>
</g>
<!-- Node4&#45;&gt;Node3 -->
<g id="edge3_Node000003_Node000004" class="edge">
<title>Node4&#45;&gt;Node3</title>
<g id="a_edge3_Node000003_Node000004"><a xlink:title=" ">
<path fill="none" stroke="#63b8ff" d="M120.46,-1840.62C111.04,-1833.13 99.33,-1821.93 93.5,-1809 45.81,-1703.2 38.46,-1572.02 42.43,-1470.29"/>
<polygon fill="none" stroke="#63b8ff" points="42.44,-1470.03 38.71,-1463.86 42.96,-1458.04 46.7,-1464.21 42.44,-1470.03"/>
</a>
</g>
<text text-anchor="middle" x="107" y="-1801" font-family="Helvetica,sans-Serif" font-size="10.00" fill="grey"> +val</text>
</g>
<!-- Node6 -->
<g id="Node000006" class="node">
<title>Node6</title>
<g id="a_Node000006"><a xlink:href="../../de/de1/classcv_1_1Matx.html" target="_top" xlink:title=" ">
<polygon fill="white" stroke="transparent" points="209,-1136 88,-1136 88,-832 209,-832 209,-1136"/>
<text text-anchor="start" x="93.5" y="-1124" font-family="Helvetica,sans-Serif" font-size="10.00">cv::Matx&lt; _Tp, cn, 1 &gt;</text>
<text text-anchor="start" x="147" y="-1109" font-family="Helvetica,sans-Serif" font-size="10.00"> </text>
<text text-anchor="start" x="99.5" y="-1094" font-family="Helvetica,sans-Serif" font-size="10.00">+</text>
<text text-anchor="start" x="119.5" y="-1094" font-family="Helvetica,sans-Serif" font-size="10.00">Matx()</text>
<text text-anchor="start" x="99.5" y="-1079" font-family="Helvetica,sans-Serif" font-size="10.00">+</text>
<text text-anchor="start" x="119.5" y="-1079" font-family="Helvetica,sans-Serif" font-size="10.00">Matx()</text>
<text text-anchor="start" x="99.5" y="-1064" font-family="Helvetica,sans-Serif" font-size="10.00">+</text>
<text text-anchor="start" x="119.5" y="-1064" font-family="Helvetica,sans-Serif" font-size="10.00">Matx()</text>
<text text-anchor="start" x="99.5" y="-1049" font-family="Helvetica,sans-Serif" font-size="10.00">+</text>
<text text-anchor="start" x="119.5" y="-1049" font-family="Helvetica,sans-Serif" font-size="10.00">Matx()</text>
<text text-anchor="start" x="99.5" y="-1034" font-family="Helvetica,sans-Serif" font-size="10.00">+</text>
<text text-anchor="start" x="119.5" y="-1034" font-family="Helvetica,sans-Serif" font-size="10.00">Matx()</text>
<text text-anchor="start" x="99.5" y="-1019" font-family="Helvetica,sans-Serif" font-size="10.00">+</text>
<text text-anchor="start" x="119.5" y="-1019" font-family="Helvetica,sans-Serif" font-size="10.00">Matx()</text>
<text text-anchor="start" x="99.5" y="-1004" font-family="Helvetica,sans-Serif" font-size="10.00">+</text>
<text text-anchor="start" x="119.5" y="-1004" font-family="Helvetica,sans-Serif" font-size="10.00">Matx()</text>
<text text-anchor="start" x="99.5" y="-989" font-family="Helvetica,sans-Serif" font-size="10.00">+</text>
<text text-anchor="start" x="119.5" y="-989" font-family="Helvetica,sans-Serif" font-size="10.00">Matx()</text>
<text text-anchor="start" x="99.5" y="-974" font-family="Helvetica,sans-Serif" font-size="10.00">+</text>
<text text-anchor="start" x="119.5" y="-974" font-family="Helvetica,sans-Serif" font-size="10.00">Matx()</text>
<text text-anchor="start" x="99.5" y="-959" font-family="Helvetica,sans-Serif" font-size="10.00">+</text>
<text text-anchor="start" x="119.5" y="-959" font-family="Helvetica,sans-Serif" font-size="10.00">Matx()</text>
<text text-anchor="start" x="119.5" y="-944" font-family="Helvetica,sans-Serif" font-size="10.00">and 31 more...</text>
<text text-anchor="start" x="99.5" y="-929" font-family="Helvetica,sans-Serif" font-size="10.00">+</text>
<text text-anchor="start" x="119.5" y="-929" font-family="Helvetica,sans-Serif" font-size="10.00">all()</text>
<text text-anchor="start" x="99.5" y="-914" font-family="Helvetica,sans-Serif" font-size="10.00">+</text>
<text text-anchor="start" x="119.5" y="-914" font-family="Helvetica,sans-Serif" font-size="10.00">diag()</text>
<text text-anchor="start" x="99.5" y="-899" font-family="Helvetica,sans-Serif" font-size="10.00">+</text>
<text text-anchor="start" x="119.5" y="-899" font-family="Helvetica,sans-Serif" font-size="10.00">eye()</text>
<text text-anchor="start" x="99.5" y="-884" font-family="Helvetica,sans-Serif" font-size="10.00">+</text>
<text text-anchor="start" x="119.5" y="-884" font-family="Helvetica,sans-Serif" font-size="10.00">ones()</text>
<text text-anchor="start" x="99.5" y="-869" font-family="Helvetica,sans-Serif" font-size="10.00">+</text>
<text text-anchor="start" x="119.5" y="-869" font-family="Helvetica,sans-Serif" font-size="10.00">randn()</text>
<text text-anchor="start" x="99.5" y="-854" font-family="Helvetica,sans-Serif" font-size="10.00">+</text>
<text text-anchor="start" x="119.5" y="-854" font-family="Helvetica,sans-Serif" font-size="10.00">randu()</text>
<text text-anchor="start" x="99.5" y="-839" font-family="Helvetica,sans-Serif" font-size="10.00">+</text>
<text text-anchor="start" x="119.5" y="-839" font-family="Helvetica,sans-Serif" font-size="10.00">zeros()</text>
<polygon fill="#666666" stroke="#666666" points="88.5,-1119 88.5,-1119 209.5,-1119 209.5,-1119 88.5,-1119"/>
<polygon fill="#666666" stroke="#666666" points="88.5,-1104 88.5,-1104 209.5,-1104 209.5,-1104 88.5,-1104"/>
<polygon fill="none" stroke="#666666" points="88,-832 88,-1136 209,-1136 209,-832 88,-832"/>
</a>
</g>
</g>
<!-- Node4&#45;&gt;Node6 -->
<g id="edge6_Node000006_Node000004" class="edge">
<title>Node4&#45;&gt;Node6</title>
<g id="a_edge6_Node000006_Node000004"><a xlink:title=" ">
<path fill="none" stroke="#63b8ff" d="M134.88,-1826.9C136.43,-1730.98 142.35,-1365.13 145.85,-1148.54"/>
<polygon fill="none" stroke="#63b8ff" points="145.86,-1148.41 141.95,-1142.35 146.05,-1136.42 149.95,-1142.48 145.86,-1148.41"/>
</a>
</g>
<text text-anchor="middle" x="154" y="-1625.5" font-family="Helvetica,sans-Serif" font-size="10.00" fill="grey"> +val</text>
</g>
<!-- Node7 -->
<g id="Node000007" class="node">
<title>Node7</title>
<g id="a_Node000007"><a xlink:href="../../de/de1/classcv_1_1Matx.html" target="_top" xlink:title="Template class for small matrices whose type and size are known at compilation time.">
<polygon fill="white" stroke="transparent" points="299,-1780 180,-1780 180,-1476 299,-1476 299,-1780"/>
<text text-anchor="start" x="185.5" y="-1768" font-family="Helvetica,sans-Serif" font-size="10.00">cv::Matx&lt; _Tp, m, n &gt;</text>
<text text-anchor="start" x="238" y="-1753" font-family="Helvetica,sans-Serif" font-size="10.00"> </text>
<text text-anchor="start" x="191" y="-1738" font-family="Helvetica,sans-Serif" font-size="10.00">+</text>
<text text-anchor="start" x="210.5" y="-1738" font-family="Helvetica,sans-Serif" font-size="10.00">Matx()</text>
<text text-anchor="start" x="191" y="-1723" font-family="Helvetica,sans-Serif" font-size="10.00">+</text>
<text text-anchor="start" x="210.5" y="-1723" font-family="Helvetica,sans-Serif" font-size="10.00">Matx()</text>
<text text-anchor="start" x="191" y="-1708" font-family="Helvetica,sans-Serif" font-size="10.00">+</text>
<text text-anchor="start" x="210.5" y="-1708" font-family="Helvetica,sans-Serif" font-size="10.00">Matx()</text>
<text text-anchor="start" x="191" y="-1693" font-family="Helvetica,sans-Serif" font-size="10.00">+</text>
<text text-anchor="start" x="210.5" y="-1693" font-family="Helvetica,sans-Serif" font-size="10.00">Matx()</text>
<text text-anchor="start" x="191" y="-1678" font-family="Helvetica,sans-Serif" font-size="10.00">+</text>
<text text-anchor="start" x="210.5" y="-1678" font-family="Helvetica,sans-Serif" font-size="10.00">Matx()</text>
<text text-anchor="start" x="191" y="-1663" font-family="Helvetica,sans-Serif" font-size="10.00">+</text>
<text text-anchor="start" x="210.5" y="-1663" font-family="Helvetica,sans-Serif" font-size="10.00">Matx()</text>
<text text-anchor="start" x="191" y="-1648" font-family="Helvetica,sans-Serif" font-size="10.00">+</text>
<text text-anchor="start" x="210.5" y="-1648" font-family="Helvetica,sans-Serif" font-size="10.00">Matx()</text>
<text text-anchor="start" x="191" y="-1633" font-family="Helvetica,sans-Serif" font-size="10.00">+</text>
<text text-anchor="start" x="210.5" y="-1633" font-family="Helvetica,sans-Serif" font-size="10.00">Matx()</text>
<text text-anchor="start" x="191" y="-1618" font-family="Helvetica,sans-Serif" font-size="10.00">+</text>
<text text-anchor="start" x="210.5" y="-1618" font-family="Helvetica,sans-Serif" font-size="10.00">Matx()</text>
<text text-anchor="start" x="191" y="-1603" font-family="Helvetica,sans-Serif" font-size="10.00">+</text>
<text text-anchor="start" x="210.5" y="-1603" font-family="Helvetica,sans-Serif" font-size="10.00">Matx()</text>
<text text-anchor="start" x="210.5" y="-1588" font-family="Helvetica,sans-Serif" font-size="10.00">and 31 more...</text>
<text text-anchor="start" x="191" y="-1573" font-family="Helvetica,sans-Serif" font-size="10.00">+</text>
<text text-anchor="start" x="210.5" y="-1573" font-family="Helvetica,sans-Serif" font-size="10.00">all()</text>
<text text-anchor="start" x="191" y="-1558" font-family="Helvetica,sans-Serif" font-size="10.00">+</text>
<text text-anchor="start" x="210.5" y="-1558" font-family="Helvetica,sans-Serif" font-size="10.00">diag()</text>
<text text-anchor="start" x="191" y="-1543" font-family="Helvetica,sans-Serif" font-size="10.00">+</text>
<text text-anchor="start" x="210.5" y="-1543" font-family="Helvetica,sans-Serif" font-size="10.00">eye()</text>
<text text-anchor="start" x="191" y="-1528" font-family="Helvetica,sans-Serif" font-size="10.00">+</text>
<text text-anchor="start" x="210.5" y="-1528" font-family="Helvetica,sans-Serif" font-size="10.00">ones()</text>
<text text-anchor="start" x="191" y="-1513" font-family="Helvetica,sans-Serif" font-size="10.00">+</text>
<text text-anchor="start" x="210.5" y="-1513" font-family="Helvetica,sans-Serif" font-size="10.00">randn()</text>
<text text-anchor="start" x="191" y="-1498" font-family="Helvetica,sans-Serif" font-size="10.00">+</text>
<text text-anchor="start" x="210.5" y="-1498" font-family="Helvetica,sans-Serif" font-size="10.00">randu()</text>
<text text-anchor="start" x="191" y="-1483" font-family="Helvetica,sans-Serif" font-size="10.00">+</text>
<text text-anchor="start" x="210.5" y="-1483" font-family="Helvetica,sans-Serif" font-size="10.00">zeros()</text>
<polygon fill="#666666" stroke="#666666" points="180.5,-1763 180.5,-1763 299.5,-1763 299.5,-1763 180.5,-1763"/>
<polygon fill="#666666" stroke="#666666" points="180.5,-1748 180.5,-1748 299.5,-1748 299.5,-1748 180.5,-1748"/>
<polygon fill="none" stroke="#666666" points="180,-1476 180,-1780 299,-1780 299,-1476 180,-1476"/>
</a>
</g>
</g>
<!-- Node4&#45;&gt;Node7 -->
<g id="edge8_Node000007_Node000004" class="edge">
<title>Node4&#45;&gt;Node7</title>
<g id="a_edge8_Node000007_Node000004"><a xlink:title=" ">
<path fill="none" stroke="#63b8ff" d="M145.74,-1826.8C153.17,-1811.12 163.58,-1789.15 174.78,-1765.53"/>
<polygon fill="none" stroke="#63b8ff" points="174.83,-1765.42 173.79,-1758.28 179.97,-1754.57 181.02,-1761.71 174.83,-1765.42"/>
</a>
</g>
<text text-anchor="middle" x="170" y="-1801" font-family="Helvetica,sans-Serif" font-size="10.00" fill="grey"> +val</text>
</g>
<!-- Node5 -->
<g id="Node000005" class="node">
<title>Node5</title>
<g id="a_Node000005"><a xlink:href="../../d6/dcf/classcv_1_1Vec.html" target="_top" xlink:title="Template class for short numerical vectors, a partial case of Matx.">
<polygon fill="white" stroke="transparent" points="194,-795 93,-795 93,-491 194,-491 194,-795"/>
<text text-anchor="start" x="98.5" y="-783" font-family="Helvetica,sans-Serif" font-size="10.00">cv::Vec&lt; _Tp, cn &gt;</text>
<text text-anchor="start" x="142" y="-768" font-family="Helvetica,sans-Serif" font-size="10.00"> </text>
<text text-anchor="start" x="99.5" y="-753" font-family="Helvetica,sans-Serif" font-size="10.00">+</text>
<text text-anchor="start" x="114.5" y="-753" font-family="Helvetica,sans-Serif" font-size="10.00">Vec()</text>
<text text-anchor="start" x="99.5" y="-738" font-family="Helvetica,sans-Serif" font-size="10.00">+</text>
<text text-anchor="start" x="114.5" y="-738" font-family="Helvetica,sans-Serif" font-size="10.00">Vec()</text>
<text text-anchor="start" x="99.5" y="-723" font-family="Helvetica,sans-Serif" font-size="10.00">+</text>
<text text-anchor="start" x="114.5" y="-723" font-family="Helvetica,sans-Serif" font-size="10.00">Vec()</text>
<text text-anchor="start" x="99.5" y="-708" font-family="Helvetica,sans-Serif" font-size="10.00">+</text>
<text text-anchor="start" x="114.5" y="-708" font-family="Helvetica,sans-Serif" font-size="10.00">Vec()</text>
<text text-anchor="start" x="99.5" y="-693" font-family="Helvetica,sans-Serif" font-size="10.00">+</text>
<text text-anchor="start" x="114.5" y="-693" font-family="Helvetica,sans-Serif" font-size="10.00">Vec()</text>
<text text-anchor="start" x="99.5" y="-678" font-family="Helvetica,sans-Serif" font-size="10.00">+</text>
<text text-anchor="start" x="114.5" y="-678" font-family="Helvetica,sans-Serif" font-size="10.00">Vec()</text>
<text text-anchor="start" x="99.5" y="-663" font-family="Helvetica,sans-Serif" font-size="10.00">+</text>
<text text-anchor="start" x="114.5" y="-663" font-family="Helvetica,sans-Serif" font-size="10.00">Vec()</text>
<text text-anchor="start" x="99.5" y="-648" font-family="Helvetica,sans-Serif" font-size="10.00">+</text>
<text text-anchor="start" x="114.5" y="-648" font-family="Helvetica,sans-Serif" font-size="10.00">Vec()</text>
<text text-anchor="start" x="99.5" y="-633" font-family="Helvetica,sans-Serif" font-size="10.00">+</text>
<text text-anchor="start" x="114.5" y="-633" font-family="Helvetica,sans-Serif" font-size="10.00">Vec()</text>
<text text-anchor="start" x="99.5" y="-618" font-family="Helvetica,sans-Serif" font-size="10.00">+</text>
<text text-anchor="start" x="114.5" y="-618" font-family="Helvetica,sans-Serif" font-size="10.00">Vec()</text>
<text text-anchor="start" x="114.5" y="-603" font-family="Helvetica,sans-Serif" font-size="10.00">and 17 more...</text>
<text text-anchor="start" x="99.5" y="-588" font-family="Helvetica,sans-Serif" font-size="10.00">+</text>
<text text-anchor="start" x="114.5" y="-588" font-family="Helvetica,sans-Serif" font-size="10.00">all()</text>
<text text-anchor="start" x="99.5" y="-573" font-family="Helvetica,sans-Serif" font-size="10.00">+</text>
<text text-anchor="start" x="114.5" y="-573" font-family="Helvetica,sans-Serif" font-size="10.00">diag()</text>
<text text-anchor="start" x="99.5" y="-558" font-family="Helvetica,sans-Serif" font-size="10.00">+</text>
<text text-anchor="start" x="114.5" y="-558" font-family="Helvetica,sans-Serif" font-size="10.00">eye()</text>
<text text-anchor="start" x="99.5" y="-543" font-family="Helvetica,sans-Serif" font-size="10.00">+</text>
<text text-anchor="start" x="114.5" y="-543" font-family="Helvetica,sans-Serif" font-size="10.00">ones()</text>
<text text-anchor="start" x="99.5" y="-528" font-family="Helvetica,sans-Serif" font-size="10.00">+</text>
<text text-anchor="start" x="114.5" y="-528" font-family="Helvetica,sans-Serif" font-size="10.00">randn()</text>
<text text-anchor="start" x="99.5" y="-513" font-family="Helvetica,sans-Serif" font-size="10.00">+</text>
<text text-anchor="start" x="114.5" y="-513" font-family="Helvetica,sans-Serif" font-size="10.00">randu()</text>
<text text-anchor="start" x="99.5" y="-498" font-family="Helvetica,sans-Serif" font-size="10.00">+</text>
<text text-anchor="start" x="114.5" y="-498" font-family="Helvetica,sans-Serif" font-size="10.00">zeros()</text>
<polygon fill="#666666" stroke="#666666" points="93.5,-778 93.5,-778 194.5,-778 194.5,-778 93.5,-778"/>
<polygon fill="#666666" stroke="#666666" points="93.5,-763 93.5,-763 194.5,-763 194.5,-763 93.5,-763"/>
<polygon fill="none" stroke="#666666" points="93,-491 93,-795 194,-795 194,-491 93,-491"/>
</a>
</g>
</g>
<!-- Node5&#45;&gt;Node2 -->
<g id="edge4_Node000002_Node000005" class="edge">
<title>Node5&#45;&gt;Node2</title>
<g id="a_edge4_Node000002_Node000005"><a xlink:title=" ">
<path fill="none" stroke="orange" d="M113.56,-481.1C110.61,-465.2 107.61,-449.07 104.66,-433.22"/>
<polygon fill="orange" stroke="orange" points="110.13,-481.77 115.4,-490.96 117.01,-480.49 110.13,-481.77"/>
</a>
</g>
<text text-anchor="start" x="112.5" y="-465" font-family="Helvetica,sans-Serif" font-size="10.00" fill="grey"> &lt; double, GPCPatchDescriptor</text>
<text text-anchor="middle" x="188" y="-454" font-family="Helvetica,sans-Serif" font-size="10.00" fill="grey">::nFeatures &gt;</text>
</g>
<!-- Node6&#45;&gt;Node5 -->
<g id="edge5_Node000005_Node000006" class="edge">
<title>Node6&#45;&gt;Node5</title>
<g id="a_edge5_Node000005_Node000006"><a xlink:title=" ">
<path fill="none" stroke="#63b8ff" d="M146.12,-821.82C145.99,-812.94 145.86,-804.02 145.73,-795.17"/>
<polygon fill="none" stroke="#63b8ff" points="142.62,-821.89 146.27,-831.84 149.62,-821.79 142.62,-821.89"/>
</a>
</g>
</g>
<!-- Node7&#45;&gt;Node6 -->
<g id="edge7_Node000006_Node000007" class="edge">
<title>Node7&#45;&gt;Node6</title>
<g id="a_edge7_Node000006_Node000007"><a xlink:title=" ">
<path fill="none" stroke="orange" d="M216.63,-1465.67C202.31,-1364.61 183.97,-1235.22 169.92,-1136.15"/>
<polygon fill="orange" stroke="orange" points="213.18,-1466.26 218.05,-1475.67 220.11,-1465.28 213.18,-1466.26"/>
</a>
</g>
<text text-anchor="middle" x="251" y="-1303.5" font-family="Helvetica,sans-Serif" font-size="10.00" fill="grey"> &lt; _Tp, cn, 1 &gt;</text>
</g>
<!-- Node8 -->
<g id="Node000008" class="node">
<title>Node8</title>
<g id="a_Node000008"><a xlink:title=" ">
<polygon fill="white" stroke="transparent" points="208.5,-300 164.5,-300 164.5,-251 208.5,-251 208.5,-300"/>
<text text-anchor="start" x="169.5" y="-287.5" font-family="Helvetica,sans-Serif" font-size="10.00">double</text>
<text text-anchor="start" x="184.5" y="-272.5" font-family="Helvetica,sans-Serif" font-size="10.00"> </text>
<text text-anchor="start" x="184.5" y="-257.5" font-family="Helvetica,sans-Serif" font-size="10.00"> </text>
<polygon fill="#666666" stroke="#666666" points="164.5,-282.5 164.5,-282.5 208.5,-282.5 208.5,-282.5 164.5,-282.5"/>
<polygon fill="#666666" stroke="#666666" points="164.5,-267.5 164.5,-267.5 208.5,-267.5 208.5,-267.5 164.5,-267.5"/>
<polygon fill="none" stroke="#666666" points="164.5,-251 164.5,-300 208.5,-300 208.5,-251 164.5,-251"/>
</a>
</g>
</g>
<!-- Node8&#45;&gt;Node1 -->
<g id="edge9_Node000001_Node000008" class="edge">
<title>Node8&#45;&gt;Node1</title>
<g id="a_edge9_Node000001_Node000008"><a xlink:title=" ">
<path fill="none" stroke="#63b8ff" d="M186.5,-250.71C186.5,-209.34 186.5,-123.67 186.5,-72.38"/>
<polygon fill="none" stroke="#63b8ff" points="186.5,-72.13 182.5,-66.13 186.5,-60.13 190.5,-66.13 186.5,-72.13"/>
</a>
</g>
<text text-anchor="middle" x="200" y="-86.5" font-family="Helvetica,sans-Serif" font-size="10.00" fill="grey"> +rhs</text>
</g>
<!-- Node9 -->
<g id="Node000009" class="node">
<title>Node9</title>
<g id="a_Node000009"><a xlink:title=" ">
<polygon fill="white" stroke="transparent" points="282,-300 227,-300 227,-251 282,-251 282,-300"/>
<text text-anchor="start" x="232.5" y="-287.5" font-family="Helvetica,sans-Serif" font-size="10.00">unsigned</text>
<text text-anchor="start" x="253" y="-272.5" font-family="Helvetica,sans-Serif" font-size="10.00"> </text>
<text text-anchor="start" x="253" y="-257.5" font-family="Helvetica,sans-Serif" font-size="10.00"> </text>
<polygon fill="#666666" stroke="#666666" points="227.5,-282.5 227.5,-282.5 282.5,-282.5 282.5,-282.5 227.5,-282.5"/>
<polygon fill="#666666" stroke="#666666" points="227.5,-267.5 227.5,-267.5 282.5,-267.5 282.5,-267.5 227.5,-267.5"/>
<polygon fill="none" stroke="#666666" points="227,-251 227,-300 282,-300 282,-251 227,-251"/>
</a>
</g>
</g>
<!-- Node9&#45;&gt;Node1 -->
<g id="edge10_Node000001_Node000009" class="edge">
<title>Node9&#45;&gt;Node1</title>
<g id="a_edge10_Node000001_Node000009"><a xlink:title=" ">
<path fill="none" stroke="#63b8ff" d="M253.08,-250.97C250.14,-213.23 241.53,-137.37 217.5,-78 216.5,-75.53 215.37,-73.06 214.13,-70.61"/>
<polygon fill="none" stroke="#63b8ff" points="214.1,-70.56 207.68,-67.29 208.22,-60.1 214.65,-63.37 214.1,-70.56"/>
</a>
</g>
<text text-anchor="middle" x="240" y="-92" font-family="Helvetica,sans-Serif" font-size="10.00" fill="grey"> +left</text>
<text text-anchor="middle" x="240" y="-81" font-family="Helvetica,sans-Serif" font-size="10.00" fill="grey">+right</text>
</g>
</g>
</svg>
