<?xml version="1.0" encoding="UTF-8" standalone="no"?>
<!DOCTYPE svg PUBLIC "-//W3C//DTD SVG 1.1//EN"
 "http://www.w3.org/Graphics/SVG/1.1/DTD/svg11.dtd">
<!-- Generated by graphviz version 2.43.0 (0)
 -->
<!-- Title: cv::datasets::HPE_humanevaObj Pages: 1 -->
<svg width="653pt" height="866pt"
 viewBox="0.00 0.00 653.00 866.00" xmlns="http://www.w3.org/2000/svg" xmlns:xlink="http://www.w3.org/1999/xlink">
<g id="graph0" class="graph" transform="scale(1 1) rotate(0) translate(4 862)">
<title>cv::datasets::HPE_humanevaObj</title>
<!-- Node1 -->
<g id="Node000001" class="node">
<title>Node1</title>
<g id="a_Node000001"><a xlink:title=" ">
<polygon fill="#999999" stroke="transparent" points="382.5,-49 214.5,-49 214.5,0 382.5,0 382.5,-49"/>
<text text-anchor="start" x="219.5" y="-36.5" font-family="Helvetica,sans-Serif" font-size="10.00">cv::datasets::HPE_humanevaObj</text>
<text text-anchor="start" x="296.5" y="-21.5" font-family="Helvetica,sans-Serif" font-size="10.00"> </text>
<text text-anchor="start" x="296.5" y="-6.5" font-family="Helvetica,sans-Serif" font-size="10.00"> </text>
<polygon fill="#666666" stroke="#666666" points="214.5,-31.5 214.5,-31.5 382.5,-31.5 382.5,-31.5 214.5,-31.5"/>
<polygon fill="#666666" stroke="#666666" points="214.5,-16.5 214.5,-16.5 382.5,-16.5 382.5,-16.5 214.5,-16.5"/>
<polygon fill="none" stroke="#666666" points="214.5,0 214.5,-49 382.5,-49 382.5,0 214.5,0"/>
</a>
</g>
</g>
<!-- Node2 -->
<g id="Node000002" class="node">
<title>Node2</title>
<g id="a_Node000002"><a xlink:href="../../de/d47/structcv_1_1datasets_1_1Object.html" target="_top" xlink:title=" ">
<polygon fill="white" stroke="transparent" points="107,-272.5 0,-272.5 0,-223.5 107,-223.5 107,-272.5"/>
<text text-anchor="start" x="5.5" y="-260" font-family="Helvetica,sans-Serif" font-size="10.00">cv::datasets::Object</text>
<text text-anchor="start" x="52" y="-245" font-family="Helvetica,sans-Serif" font-size="10.00"> </text>
<text text-anchor="start" x="52" y="-230" font-family="Helvetica,sans-Serif" font-size="10.00"> </text>
<polygon fill="#666666" stroke="#666666" points="0.5,-255 0.5,-255 107.5,-255 107.5,-255 0.5,-255"/>
<polygon fill="#666666" stroke="#666666" points="0.5,-240 0.5,-240 107.5,-240 107.5,-240 0.5,-240"/>
<polygon fill="none" stroke="#666666" points="0,-223.5 0,-272.5 107,-272.5 107,-223.5 0,-223.5"/>
</a>
</g>
</g>
<!-- Node2&#45;&gt;Node1 -->
<g id="edge1_Node000001_Node000002" class="edge">
<title>Node2&#45;&gt;Node1</title>
<g id="a_edge1_Node000001_Node000002"><a xlink:title=" ">
<path fill="none" stroke="#63b8ff" d="M60.08,-213.64C68.2,-180.21 84.98,-129.08 116.5,-96 142.44,-68.77 180.11,-51.9 214.45,-41.52"/>
<polygon fill="none" stroke="#63b8ff" points="56.66,-212.88 57.83,-223.41 63.48,-214.45 56.66,-212.88"/>
</a>
</g>
</g>
<!-- Node3 -->
<g id="Node000003" class="node">
<title>Node3</title>
<g id="a_Node000003"><a xlink:title=" ">
<polygon fill="white" stroke="transparent" points="157.5,-272.5 125.5,-272.5 125.5,-223.5 157.5,-223.5 157.5,-272.5"/>
<text text-anchor="start" x="130.5" y="-260" font-family="Helvetica,sans-Serif" font-size="10.00">char</text>
<text text-anchor="start" x="139.5" y="-245" font-family="Helvetica,sans-Serif" font-size="10.00"> </text>
<text text-anchor="start" x="139.5" y="-230" font-family="Helvetica,sans-Serif" font-size="10.00"> </text>
<polygon fill="#666666" stroke="#666666" points="125.5,-255 125.5,-255 157.5,-255 157.5,-255 125.5,-255"/>
<polygon fill="#666666" stroke="#666666" points="125.5,-240 125.5,-240 157.5,-240 157.5,-240 125.5,-240"/>
<polygon fill="none" stroke="#666666" points="125.5,-223.5 125.5,-272.5 157.5,-272.5 157.5,-223.5 125.5,-223.5"/>
</a>
</g>
</g>
<!-- Node3&#45;&gt;Node1 -->
<g id="edge2_Node000001_Node000003" class="edge">
<title>Node3&#45;&gt;Node1</title>
<g id="a_edge2_Node000001_Node000003"><a xlink:title=" ">
<path fill="none" stroke="#63b8ff" d="M140.38,-223.28C139.98,-191.98 143.06,-136.16 166.5,-96 176.79,-78.37 193.2,-64.92 211,-54.75"/>
<polygon fill="none" stroke="#63b8ff" points="211.01,-54.74 214.44,-48.4 221.61,-49.13 218.18,-55.47 211.01,-54.74"/>
</a>
</g>
<text text-anchor="middle" x="213" y="-70" font-family="Helvetica,sans-Serif" font-size="10.00" fill="grey"> +person</text>
</g>
<!-- Node4 -->
<g id="Node000004" class="node">
<title>Node4</title>
<g id="a_Node000004"><a xlink:title=" ">
<polygon fill="white" stroke="transparent" points="339,-623.5 280,-623.5 280,-574.5 339,-574.5 339,-623.5"/>
<text text-anchor="start" x="285.5" y="-611" font-family="Helvetica,sans-Serif" font-size="10.00">std::string</text>
<text text-anchor="start" x="308" y="-596" font-family="Helvetica,sans-Serif" font-size="10.00"> </text>
<text text-anchor="start" x="308" y="-581" font-family="Helvetica,sans-Serif" font-size="10.00"> </text>
<polygon fill="#666666" stroke="#666666" points="280.5,-606 280.5,-606 339.5,-606 339.5,-606 280.5,-606"/>
<polygon fill="#666666" stroke="#666666" points="280.5,-591 280.5,-591 339.5,-591 339.5,-591 280.5,-591"/>
<polygon fill="none" stroke="#666666" points="280,-574.5 280,-623.5 339,-623.5 339,-574.5 280,-574.5"/>
</a>
</g>
</g>
<!-- Node4&#45;&gt;Node1 -->
<g id="edge3_Node000001_Node000004" class="edge">
<title>Node4&#45;&gt;Node1</title>
<g id="a_edge3_Node000001_Node000004"><a xlink:title=" ">
<path fill="none" stroke="#63b8ff" d="M313.57,-574.31C318.94,-541.7 328.12,-481.11 331.5,-429 336.7,-348.72 358.02,-142.95 331.5,-67 330.61,-64.46 329.5,-61.96 328.22,-59.52"/>
<polygon fill="none" stroke="#63b8ff" points="328.17,-59.44 321.58,-56.51 321.75,-49.3 328.34,-52.23 328.17,-59.44"/>
</a>
</g>
<text text-anchor="middle" x="372" y="-256.5" font-family="Helvetica,sans-Serif" font-size="10.00" fill="grey"> +action</text>
<text text-anchor="middle" x="372" y="-245.5" font-family="Helvetica,sans-Serif" font-size="10.00" fill="grey">+fileName</text>
<text text-anchor="middle" x="372" y="-234.5" font-family="Helvetica,sans-Serif" font-size="10.00" fill="grey">+type2</text>
</g>
<!-- Node11 -->
<g id="Node000011" class="node">
<title>Node11</title>
<g id="a_Node000011"><a xlink:title=" ">
<polygon fill="white" stroke="transparent" points="309.5,-272.5 175.5,-272.5 175.5,-223.5 309.5,-223.5 309.5,-272.5"/>
<text text-anchor="start" x="180.5" y="-260" font-family="Helvetica,sans-Serif" font-size="10.00">std::vector&lt; std::string &gt;</text>
<text text-anchor="start" x="240.5" y="-245" font-family="Helvetica,sans-Serif" font-size="10.00"> </text>
<text text-anchor="start" x="240.5" y="-230" font-family="Helvetica,sans-Serif" font-size="10.00"> </text>
<polygon fill="#666666" stroke="#666666" points="175.5,-255 175.5,-255 309.5,-255 309.5,-255 175.5,-255"/>
<polygon fill="#666666" stroke="#666666" points="175.5,-240 175.5,-240 309.5,-240 309.5,-240 175.5,-240"/>
<polygon fill="none" stroke="#666666" points="175.5,-223.5 175.5,-272.5 309.5,-272.5 309.5,-223.5 175.5,-223.5"/>
</a>
</g>
</g>
<!-- Node4&#45;&gt;Node11 -->
<g id="edge11_Node000011_Node000004" class="edge">
<title>Node4&#45;&gt;Node11</title>
<g id="a_edge11_Node000011_Node000004"><a xlink:title=" ">
<path fill="none" stroke="#63b8ff" d="M304.14,-574.27C296.83,-541.63 283.51,-480.99 273.5,-429 263.87,-379 254.13,-320.91 248.2,-284.55"/>
<polygon fill="none" stroke="#63b8ff" points="248.19,-284.49 243.28,-279.2 246.27,-272.64 251.18,-277.92 248.19,-284.49"/>
</a>
</g>
<text text-anchor="middle" x="302.5" y="-421" font-family="Helvetica,sans-Serif" font-size="10.00" fill="grey"> +elements</text>
</g>
<!-- Node5 -->
<g id="Node000005" class="node">
<title>Node5</title>
<g id="a_Node000005"><a xlink:title=" ">
<polygon fill="white" stroke="transparent" points="358.5,-858 260.5,-858 260.5,-798 358.5,-798 358.5,-858"/>
<text text-anchor="start" x="265.5" y="-846" font-family="Helvetica,sans-Serif" font-size="10.00">std::basic_string&lt;</text>
<text text-anchor="start" x="291" y="-835" font-family="Helvetica,sans-Serif" font-size="10.00"> Char &gt;</text>
<text text-anchor="start" x="307.5" y="-820" font-family="Helvetica,sans-Serif" font-size="10.00"> </text>
<text text-anchor="start" x="307.5" y="-805" font-family="Helvetica,sans-Serif" font-size="10.00"> </text>
<polygon fill="#666666" stroke="#666666" points="260.5,-830 260.5,-830 358.5,-830 358.5,-830 260.5,-830"/>
<polygon fill="#666666" stroke="#666666" points="260.5,-815 260.5,-815 358.5,-815 358.5,-815 260.5,-815"/>
<polygon fill="none" stroke="#666666" points="260.5,-798 260.5,-858 358.5,-858 358.5,-798 260.5,-798"/>
</a>
</g>
</g>
<!-- Node5&#45;&gt;Node4 -->
<g id="edge4_Node000004_Node000005" class="edge">
<title>Node5&#45;&gt;Node4</title>
<g id="a_edge4_Node000004_Node000005"><a xlink:title=" ">
<path fill="none" stroke="#63b8ff" d="M309.5,-787.61C309.5,-740.29 309.5,-662.44 309.5,-623.59"/>
<polygon fill="none" stroke="#63b8ff" points="306,-787.79 309.5,-797.79 313,-787.79 306,-787.79"/>
</a>
</g>
</g>
<!-- Node6 -->
<g id="Node000006" class="node">
<title>Node6</title>
<g id="a_Node000006"><a xlink:title=" ">
<polygon fill="white" stroke="transparent" points="440,-272.5 417,-272.5 417,-223.5 440,-223.5 440,-272.5"/>
<text text-anchor="start" x="422.5" y="-260" font-family="Helvetica,sans-Serif" font-size="10.00">int</text>
<text text-anchor="start" x="427" y="-245" font-family="Helvetica,sans-Serif" font-size="10.00"> </text>
<text text-anchor="start" x="427" y="-230" font-family="Helvetica,sans-Serif" font-size="10.00"> </text>
<polygon fill="#666666" stroke="#666666" points="417.5,-255 417.5,-255 440.5,-255 440.5,-255 417.5,-255"/>
<polygon fill="#666666" stroke="#666666" points="417.5,-240 417.5,-240 440.5,-240 440.5,-240 417.5,-240"/>
<polygon fill="none" stroke="#666666" points="417,-223.5 417,-272.5 440,-272.5 440,-223.5 417,-223.5"/>
</a>
</g>
</g>
<!-- Node6&#45;&gt;Node1 -->
<g id="edge5_Node000001_Node000006" class="edge">
<title>Node6&#45;&gt;Node1</title>
<g id="a_edge5_Node000001_Node000006"><a xlink:title=" ">
<path fill="none" stroke="#63b8ff" d="M429.91,-223.24C430.63,-191.64 427.8,-135.23 402.5,-96 392.03,-79.76 376.35,-66.32 360.32,-55.68"/>
<polygon fill="none" stroke="#63b8ff" points="359.96,-55.46 352.75,-55.67 349.79,-49.09 356.99,-48.88 359.96,-55.46"/>
</a>
</g>
<text text-anchor="middle" x="408.5" y="-70" font-family="Helvetica,sans-Serif" font-size="10.00" fill="grey"> +type1</text>
</g>
<!-- Node7 -->
<g id="Node000007" class="node">
<title>Node7</title>
<g id="a_Node000007"><a xlink:href="../../de/de1/classcv_1_1Matx.html" target="_top" xlink:title=" ">
<polygon fill="white" stroke="transparent" points="589,-400 458,-400 458,-96 589,-96 589,-400"/>
<text text-anchor="start" x="463.5" y="-388" font-family="Helvetica,sans-Serif" font-size="10.00">cv::Matx&lt; double, 1, 3 &gt;</text>
<text text-anchor="start" x="522" y="-373" font-family="Helvetica,sans-Serif" font-size="10.00"> </text>
<text text-anchor="start" x="472" y="-358" font-family="Helvetica,sans-Serif" font-size="10.00">+</text>
<text text-anchor="start" x="494.5" y="-358" font-family="Helvetica,sans-Serif" font-size="10.00">Matx()</text>
<text text-anchor="start" x="472" y="-343" font-family="Helvetica,sans-Serif" font-size="10.00">+</text>
<text text-anchor="start" x="494.5" y="-343" font-family="Helvetica,sans-Serif" font-size="10.00">Matx()</text>
<text text-anchor="start" x="472" y="-328" font-family="Helvetica,sans-Serif" font-size="10.00">+</text>
<text text-anchor="start" x="494.5" y="-328" font-family="Helvetica,sans-Serif" font-size="10.00">Matx()</text>
<text text-anchor="start" x="472" y="-313" font-family="Helvetica,sans-Serif" font-size="10.00">+</text>
<text text-anchor="start" x="494.5" y="-313" font-family="Helvetica,sans-Serif" font-size="10.00">Matx()</text>
<text text-anchor="start" x="472" y="-298" font-family="Helvetica,sans-Serif" font-size="10.00">+</text>
<text text-anchor="start" x="494.5" y="-298" font-family="Helvetica,sans-Serif" font-size="10.00">Matx()</text>
<text text-anchor="start" x="472" y="-283" font-family="Helvetica,sans-Serif" font-size="10.00">+</text>
<text text-anchor="start" x="494.5" y="-283" font-family="Helvetica,sans-Serif" font-size="10.00">Matx()</text>
<text text-anchor="start" x="472" y="-268" font-family="Helvetica,sans-Serif" font-size="10.00">+</text>
<text text-anchor="start" x="494.5" y="-268" font-family="Helvetica,sans-Serif" font-size="10.00">Matx()</text>
<text text-anchor="start" x="472" y="-253" font-family="Helvetica,sans-Serif" font-size="10.00">+</text>
<text text-anchor="start" x="494.5" y="-253" font-family="Helvetica,sans-Serif" font-size="10.00">Matx()</text>
<text text-anchor="start" x="472" y="-238" font-family="Helvetica,sans-Serif" font-size="10.00">+</text>
<text text-anchor="start" x="494.5" y="-238" font-family="Helvetica,sans-Serif" font-size="10.00">Matx()</text>
<text text-anchor="start" x="472" y="-223" font-family="Helvetica,sans-Serif" font-size="10.00">+</text>
<text text-anchor="start" x="494.5" y="-223" font-family="Helvetica,sans-Serif" font-size="10.00">Matx()</text>
<text text-anchor="start" x="494.5" y="-208" font-family="Helvetica,sans-Serif" font-size="10.00">and 31 more...</text>
<text text-anchor="start" x="472" y="-193" font-family="Helvetica,sans-Serif" font-size="10.00">+</text>
<text text-anchor="start" x="494.5" y="-193" font-family="Helvetica,sans-Serif" font-size="10.00">all()</text>
<text text-anchor="start" x="472" y="-178" font-family="Helvetica,sans-Serif" font-size="10.00">+</text>
<text text-anchor="start" x="494.5" y="-178" font-family="Helvetica,sans-Serif" font-size="10.00">diag()</text>
<text text-anchor="start" x="472" y="-163" font-family="Helvetica,sans-Serif" font-size="10.00">+</text>
<text text-anchor="start" x="494.5" y="-163" font-family="Helvetica,sans-Serif" font-size="10.00">eye()</text>
<text text-anchor="start" x="472" y="-148" font-family="Helvetica,sans-Serif" font-size="10.00">+</text>
<text text-anchor="start" x="494.5" y="-148" font-family="Helvetica,sans-Serif" font-size="10.00">ones()</text>
<text text-anchor="start" x="472" y="-133" font-family="Helvetica,sans-Serif" font-size="10.00">+</text>
<text text-anchor="start" x="494.5" y="-133" font-family="Helvetica,sans-Serif" font-size="10.00">randn()</text>
<text text-anchor="start" x="472" y="-118" font-family="Helvetica,sans-Serif" font-size="10.00">+</text>
<text text-anchor="start" x="494.5" y="-118" font-family="Helvetica,sans-Serif" font-size="10.00">randu()</text>
<text text-anchor="start" x="472" y="-103" font-family="Helvetica,sans-Serif" font-size="10.00">+</text>
<text text-anchor="start" x="494.5" y="-103" font-family="Helvetica,sans-Serif" font-size="10.00">zeros()</text>
<polygon fill="#666666" stroke="#666666" points="458.5,-383 458.5,-383 589.5,-383 589.5,-383 458.5,-383"/>
<polygon fill="#666666" stroke="#666666" points="458.5,-368 458.5,-368 589.5,-368 589.5,-368 458.5,-368"/>
<polygon fill="none" stroke="#666666" points="458,-96 458,-400 589,-400 589,-96 458,-96"/>
</a>
</g>
</g>
<!-- Node7&#45;&gt;Node1 -->
<g id="edge6_Node000001_Node000007" class="edge">
<title>Node7&#45;&gt;Node1</title>
<g id="a_edge6_Node000001_Node000007"><a xlink:title=" ">
<path fill="none" stroke="#63b8ff" d="M460.04,-95.58C451.83,-85.02 442.68,-75.29 432.5,-67 421.29,-57.87 408.07,-50.74 394.38,-45.18"/>
<polygon fill="none" stroke="#63b8ff" points="394.04,-45.05 387.02,-46.71 382.8,-40.86 389.82,-39.21 394.04,-45.05"/>
</a>
</g>
<text text-anchor="middle" x="458" y="-70" font-family="Helvetica,sans-Serif" font-size="10.00" fill="grey"> +ofs</text>
</g>
<!-- Node8 -->
<g id="Node000008" class="node">
<title>Node8</title>
<g id="a_Node000008"><a xlink:title=" ">
<polygon fill="white" stroke="transparent" points="507.5,-623.5 463.5,-623.5 463.5,-574.5 507.5,-574.5 507.5,-623.5"/>
<text text-anchor="start" x="468.5" y="-611" font-family="Helvetica,sans-Serif" font-size="10.00">double</text>
<text text-anchor="start" x="483.5" y="-596" font-family="Helvetica,sans-Serif" font-size="10.00"> </text>
<text text-anchor="start" x="483.5" y="-581" font-family="Helvetica,sans-Serif" font-size="10.00"> </text>
<polygon fill="#666666" stroke="#666666" points="463.5,-606 463.5,-606 507.5,-606 507.5,-606 463.5,-606"/>
<polygon fill="#666666" stroke="#666666" points="463.5,-591 463.5,-591 507.5,-591 507.5,-591 463.5,-591"/>
<polygon fill="none" stroke="#666666" points="463.5,-574.5 463.5,-623.5 507.5,-623.5 507.5,-574.5 463.5,-574.5"/>
</a>
</g>
</g>
<!-- Node8&#45;&gt;Node7 -->
<g id="edge7_Node000007_Node000008" class="edge">
<title>Node8&#45;&gt;Node7</title>
<g id="a_edge7_Node000007_Node000008"><a xlink:title=" ">
<path fill="none" stroke="#63b8ff" d="M488.08,-574.29C491.76,-540.49 498.83,-475.55 505.69,-412.53"/>
<polygon fill="none" stroke="#63b8ff" points="505.72,-412.31 502.39,-405.91 507.02,-400.38 510.34,-406.78 505.72,-412.31"/>
</a>
</g>
<text text-anchor="middle" x="518" y="-421" font-family="Helvetica,sans-Serif" font-size="10.00" fill="grey"> +val</text>
</g>
<!-- Node9 -->
<g id="Node000009" class="node">
<title>Node9</title>
<g id="a_Node000009"><a xlink:href="../../de/de1/classcv_1_1Matx.html" target="_top" xlink:title="Template class for small matrices whose type and size are known at compilation time.">
<polygon fill="white" stroke="transparent" points="645,-751 526,-751 526,-447 645,-447 645,-751"/>
<text text-anchor="start" x="531.5" y="-739" font-family="Helvetica,sans-Serif" font-size="10.00">cv::Matx&lt; _Tp, m, n &gt;</text>
<text text-anchor="start" x="584" y="-724" font-family="Helvetica,sans-Serif" font-size="10.00"> </text>
<text text-anchor="start" x="537" y="-709" font-family="Helvetica,sans-Serif" font-size="10.00">+</text>
<text text-anchor="start" x="556.5" y="-709" font-family="Helvetica,sans-Serif" font-size="10.00">Matx()</text>
<text text-anchor="start" x="537" y="-694" font-family="Helvetica,sans-Serif" font-size="10.00">+</text>
<text text-anchor="start" x="556.5" y="-694" font-family="Helvetica,sans-Serif" font-size="10.00">Matx()</text>
<text text-anchor="start" x="537" y="-679" font-family="Helvetica,sans-Serif" font-size="10.00">+</text>
<text text-anchor="start" x="556.5" y="-679" font-family="Helvetica,sans-Serif" font-size="10.00">Matx()</text>
<text text-anchor="start" x="537" y="-664" font-family="Helvetica,sans-Serif" font-size="10.00">+</text>
<text text-anchor="start" x="556.5" y="-664" font-family="Helvetica,sans-Serif" font-size="10.00">Matx()</text>
<text text-anchor="start" x="537" y="-649" font-family="Helvetica,sans-Serif" font-size="10.00">+</text>
<text text-anchor="start" x="556.5" y="-649" font-family="Helvetica,sans-Serif" font-size="10.00">Matx()</text>
<text text-anchor="start" x="537" y="-634" font-family="Helvetica,sans-Serif" font-size="10.00">+</text>
<text text-anchor="start" x="556.5" y="-634" font-family="Helvetica,sans-Serif" font-size="10.00">Matx()</text>
<text text-anchor="start" x="537" y="-619" font-family="Helvetica,sans-Serif" font-size="10.00">+</text>
<text text-anchor="start" x="556.5" y="-619" font-family="Helvetica,sans-Serif" font-size="10.00">Matx()</text>
<text text-anchor="start" x="537" y="-604" font-family="Helvetica,sans-Serif" font-size="10.00">+</text>
<text text-anchor="start" x="556.5" y="-604" font-family="Helvetica,sans-Serif" font-size="10.00">Matx()</text>
<text text-anchor="start" x="537" y="-589" font-family="Helvetica,sans-Serif" font-size="10.00">+</text>
<text text-anchor="start" x="556.5" y="-589" font-family="Helvetica,sans-Serif" font-size="10.00">Matx()</text>
<text text-anchor="start" x="537" y="-574" font-family="Helvetica,sans-Serif" font-size="10.00">+</text>
<text text-anchor="start" x="556.5" y="-574" font-family="Helvetica,sans-Serif" font-size="10.00">Matx()</text>
<text text-anchor="start" x="556.5" y="-559" font-family="Helvetica,sans-Serif" font-size="10.00">and 31 more...</text>
<text text-anchor="start" x="537" y="-544" font-family="Helvetica,sans-Serif" font-size="10.00">+</text>
<text text-anchor="start" x="556.5" y="-544" font-family="Helvetica,sans-Serif" font-size="10.00">all()</text>
<text text-anchor="start" x="537" y="-529" font-family="Helvetica,sans-Serif" font-size="10.00">+</text>
<text text-anchor="start" x="556.5" y="-529" font-family="Helvetica,sans-Serif" font-size="10.00">diag()</text>
<text text-anchor="start" x="537" y="-514" font-family="Helvetica,sans-Serif" font-size="10.00">+</text>
<text text-anchor="start" x="556.5" y="-514" font-family="Helvetica,sans-Serif" font-size="10.00">eye()</text>
<text text-anchor="start" x="537" y="-499" font-family="Helvetica,sans-Serif" font-size="10.00">+</text>
<text text-anchor="start" x="556.5" y="-499" font-family="Helvetica,sans-Serif" font-size="10.00">ones()</text>
<text text-anchor="start" x="537" y="-484" font-family="Helvetica,sans-Serif" font-size="10.00">+</text>
<text text-anchor="start" x="556.5" y="-484" font-family="Helvetica,sans-Serif" font-size="10.00">randn()</text>
<text text-anchor="start" x="537" y="-469" font-family="Helvetica,sans-Serif" font-size="10.00">+</text>
<text text-anchor="start" x="556.5" y="-469" font-family="Helvetica,sans-Serif" font-size="10.00">randu()</text>
<text text-anchor="start" x="537" y="-454" font-family="Helvetica,sans-Serif" font-size="10.00">+</text>
<text text-anchor="start" x="556.5" y="-454" font-family="Helvetica,sans-Serif" font-size="10.00">zeros()</text>
<polygon fill="#666666" stroke="#666666" points="526.5,-734 526.5,-734 645.5,-734 645.5,-734 526.5,-734"/>
<polygon fill="#666666" stroke="#666666" points="526.5,-719 526.5,-719 645.5,-719 645.5,-719 526.5,-719"/>
<polygon fill="none" stroke="#666666" points="526,-447 526,-751 645,-751 645,-447 526,-447"/>
</a>
</g>
</g>
<!-- Node9&#45;&gt;Node7 -->
<g id="edge8_Node000007_Node000009" class="edge">
<title>Node9&#45;&gt;Node7</title>
<g id="a_edge8_Node000007_Node000009"><a xlink:title=" ">
<path fill="none" stroke="orange" d="M556.91,-437.07C554.72,-424.72 552.51,-412.28 550.33,-400"/>
<polygon fill="orange" stroke="orange" points="553.47,-437.72 558.67,-446.95 560.36,-436.5 553.47,-437.72"/>
</a>
</g>
<text text-anchor="middle" x="596" y="-421" font-family="Helvetica,sans-Serif" font-size="10.00" fill="grey"> &lt; double, 1, 3 &gt;</text>
</g>
<!-- Node10 -->
<g id="Node000010" class="node">
<title>Node10</title>
<g id="a_Node000010"><a xlink:href="../../d1/dd7/class__Tp.html" target="_top" xlink:title=" ">
<polygon fill="white" stroke="transparent" points="599.5,-852.5 571.5,-852.5 571.5,-803.5 599.5,-803.5 599.5,-852.5"/>
<text text-anchor="start" x="576.5" y="-840" font-family="Helvetica,sans-Serif" font-size="10.00">_Tp</text>
<text text-anchor="start" x="583.5" y="-825" font-family="Helvetica,sans-Serif" font-size="10.00"> </text>
<text text-anchor="start" x="583.5" y="-810" font-family="Helvetica,sans-Serif" font-size="10.00"> </text>
<polygon fill="#666666" stroke="#666666" points="571.5,-835 571.5,-835 599.5,-835 599.5,-835 571.5,-835"/>
<polygon fill="#666666" stroke="#666666" points="571.5,-820 571.5,-820 599.5,-820 599.5,-820 571.5,-820"/>
<polygon fill="none" stroke="#666666" points="571.5,-803.5 571.5,-852.5 599.5,-852.5 599.5,-803.5 571.5,-803.5"/>
</a>
</g>
</g>
<!-- Node10&#45;&gt;Node9 -->
<g id="edge9_Node000009_Node000010" class="edge">
<title>Node10&#45;&gt;Node9</title>
<g id="a_edge9_Node000009_Node000010"><a xlink:title=" ">
<path fill="none" stroke="#63b8ff" d="M585.5,-803.14C585.5,-792.4 585.5,-778.73 585.5,-763.57"/>
<polygon fill="none" stroke="#63b8ff" points="585.5,-763.12 581.5,-757.12 585.5,-751.12 589.5,-757.12 585.5,-763.12"/>
</a>
</g>
<text text-anchor="middle" x="599" y="-772" font-family="Helvetica,sans-Serif" font-size="10.00" fill="grey"> +val</text>
</g>
<!-- Node11&#45;&gt;Node1 -->
<g id="edge10_Node000001_Node000011" class="edge">
<title>Node11&#45;&gt;Node1</title>
<g id="a_edge10_Node000001_Node000011"><a xlink:title=" ">
<path fill="none" stroke="#63b8ff" d="M238.83,-223.5C234.38,-187.78 230.19,-118.56 254.5,-67 255.83,-64.17 257.45,-61.45 259.27,-58.83"/>
<polygon fill="none" stroke="#63b8ff" points="259.46,-58.59 260.19,-51.41 267.09,-49.32 266.37,-56.5 259.46,-58.59"/>
</a>
</g>
<text text-anchor="middle" x="293" y="-70" font-family="Helvetica,sans-Serif" font-size="10.00" fill="grey"> +imageNames</text>
</g>
<!-- Node12 -->
<g id="Node000012" class="node">
<title>Node12</title>
<g id="a_Node000012"><a xlink:title=" ">
<polygon fill="white" stroke="transparent" points="220,-623.5 129,-623.5 129,-574.5 220,-574.5 220,-623.5"/>
<text text-anchor="start" x="134.5" y="-611" font-family="Helvetica,sans-Serif" font-size="10.00">std::vector&lt; T &gt;</text>
<text text-anchor="start" x="173" y="-596" font-family="Helvetica,sans-Serif" font-size="10.00"> </text>
<text text-anchor="start" x="173" y="-581" font-family="Helvetica,sans-Serif" font-size="10.00"> </text>
<polygon fill="#666666" stroke="#666666" points="129.5,-606 129.5,-606 220.5,-606 220.5,-606 129.5,-606"/>
<polygon fill="#666666" stroke="#666666" points="129.5,-591 129.5,-591 220.5,-591 220.5,-591 129.5,-591"/>
<polygon fill="none" stroke="#666666" points="129,-574.5 129,-623.5 220,-623.5 220,-574.5 129,-574.5"/>
</a>
</g>
</g>
<!-- Node12&#45;&gt;Node11 -->
<g id="edge12_Node000011_Node000012" class="edge">
<title>Node12&#45;&gt;Node11</title>
<g id="a_edge12_Node000011_Node000012"><a xlink:title=" ">
<path fill="none" stroke="orange" d="M176.28,-564.14C178.61,-527.76 183.62,-468.38 193.5,-418 203.85,-365.24 223.13,-305.15 234.17,-272.74"/>
<polygon fill="orange" stroke="orange" points="172.78,-564.02 175.67,-574.21 179.77,-564.45 172.78,-564.02"/>
</a>
</g>
<text text-anchor="middle" x="231" y="-421" font-family="Helvetica,sans-Serif" font-size="10.00" fill="grey"> &lt; std::string &gt;</text>
</g>
<!-- Node13 -->
<g id="Node000013" class="node">
<title>Node13</title>
<g id="a_Node000013"><a xlink:title=" ">
<polygon fill="white" stroke="transparent" points="183,-852.5 166,-852.5 166,-803.5 183,-803.5 183,-852.5"/>
<text text-anchor="start" x="171.5" y="-840" font-family="Helvetica,sans-Serif" font-size="10.00">T</text>
<text text-anchor="start" x="173" y="-825" font-family="Helvetica,sans-Serif" font-size="10.00"> </text>
<text text-anchor="start" x="173" y="-810" font-family="Helvetica,sans-Serif" font-size="10.00"> </text>
<polygon fill="#666666" stroke="#666666" points="166.5,-835 166.5,-835 183.5,-835 183.5,-835 166.5,-835"/>
<polygon fill="#666666" stroke="#666666" points="166.5,-820 166.5,-820 183.5,-820 183.5,-820 166.5,-820"/>
<polygon fill="none" stroke="#666666" points="166,-803.5 166,-852.5 183,-852.5 183,-803.5 166,-803.5"/>
</a>
</g>
</g>
<!-- Node13&#45;&gt;Node12 -->
<g id="edge13_Node000012_Node000013" class="edge">
<title>Node13&#45;&gt;Node12</title>
<g id="a_edge13_Node000012_Node000013"><a xlink:title=" ">
<path fill="none" stroke="#63b8ff" d="M174.5,-803.14C174.5,-763.18 174.5,-682.54 174.5,-635.77"/>
<polygon fill="none" stroke="#63b8ff" points="174.5,-635.54 170.5,-629.54 174.5,-623.54 178.5,-629.54 174.5,-635.54"/>
</a>
</g>
<text text-anchor="middle" x="203.5" y="-772" font-family="Helvetica,sans-Serif" font-size="10.00" fill="grey"> +elements</text>
</g>
</g>
</svg>
