<?xml version="1.0" encoding="UTF-8" standalone="no"?>
<!DOCTYPE svg PUBLIC "-//W3C//DTD SVG 1.1//EN"
 "http://www.w3.org/Graphics/SVG/1.1/DTD/svg11.dtd">
<!-- Generated by graphviz version 2.43.0 (0)
 -->
<!-- Title: cv::gapi::wip::onevpl::DataProviderSystemErrorException Pages: 1 -->
<svg width="209pt" height="320pt"
 viewBox="0.00 0.00 209.00 320.00" xmlns="http://www.w3.org/2000/svg" xmlns:xlink="http://www.w3.org/1999/xlink">
<g id="graph0" class="graph" transform="scale(1 1) rotate(0) translate(4 316)">
<title>cv::gapi::wip::onevpl::DataProviderSystemErrorException</title>
<!-- Node1 -->
<g id="Node000001" class="node">
<title>Node1</title>
<g id="a_Node000001"><a xlink:title=" ">
<polygon fill="#999999" stroke="transparent" points="201,-86 0,-86 0,0 201,0 201,-86"/>
<text text-anchor="start" x="12" y="-74" font-family="Helvetica,sans-Serif" font-size="10.00">cv::gapi::wip::onevpl</text>
<text text-anchor="start" x="12" y="-63" font-family="Helvetica,sans-Serif" font-size="10.00">::DataProviderSystemErrorException</text>
<text text-anchor="start" x="99" y="-48" font-family="Helvetica,sans-Serif" font-size="10.00"> </text>
<text text-anchor="start" x="4.5" y="-33" font-family="Helvetica,sans-Serif" font-size="10.00">+</text>
<text text-anchor="start" x="17.5" y="-33" font-family="Helvetica,sans-Serif" font-size="10.00">DataProviderSystemErrorException()</text>
<text text-anchor="start" x="4.5" y="-18" font-family="Helvetica,sans-Serif" font-size="10.00">+</text>
<text text-anchor="start" x="17.5" y="-18" font-family="Helvetica,sans-Serif" font-size="10.00">~DataProviderSystemError</text>
<text text-anchor="start" x="17.5" y="-7" font-family="Helvetica,sans-Serif" font-size="10.00">Exception()</text>
<polygon fill="#666666" stroke="#666666" points="0.5,-58 0.5,-58 201.5,-58 201.5,-58 0.5,-58"/>
<polygon fill="#666666" stroke="#666666" points="0.5,-43 0.5,-43 201.5,-43 201.5,-43 0.5,-43"/>
<polygon fill="none" stroke="#666666" points="0,0 0,-86 201,-86 201,0 0,0"/>
</a>
</g>
</g>
<!-- Node2 -->
<g id="Node000002" class="node">
<title>Node2</title>
<g id="a_Node000002"><a xlink:href="../../d5/ded/structcv_1_1gapi_1_1wip_1_1onevpl_1_1DataProviderException.html" target="_top" xlink:title=" ">
<polygon fill="white" stroke="transparent" points="175,-227 26,-227 26,-122 175,-122 175,-227"/>
<text text-anchor="start" x="42" y="-214.5" font-family="Helvetica,sans-Serif" font-size="10.00">cv::gapi::wip::onevpl</text>
<text text-anchor="start" x="42" y="-203.5" font-family="Helvetica,sans-Serif" font-size="10.00">::DataProviderException</text>
<text text-anchor="start" x="99" y="-188.5" font-family="Helvetica,sans-Serif" font-size="10.00"> </text>
<text text-anchor="start" x="30.5" y="-173.5" font-family="Helvetica,sans-Serif" font-size="10.00">+</text>
<text text-anchor="start" x="43.5" y="-173.5" font-family="Helvetica,sans-Serif" font-size="10.00">DataProviderException()</text>
<text text-anchor="start" x="30.5" y="-158.5" font-family="Helvetica,sans-Serif" font-size="10.00">+</text>
<text text-anchor="start" x="43.5" y="-158.5" font-family="Helvetica,sans-Serif" font-size="10.00">DataProviderException()</text>
<text text-anchor="start" x="30.5" y="-143.5" font-family="Helvetica,sans-Serif" font-size="10.00">+</text>
<text text-anchor="start" x="43.5" y="-143.5" font-family="Helvetica,sans-Serif" font-size="10.00">~DataProviderException()</text>
<text text-anchor="start" x="30.5" y="-128.5" font-family="Helvetica,sans-Serif" font-size="10.00">+</text>
<text text-anchor="start" x="43.5" y="-128.5" font-family="Helvetica,sans-Serif" font-size="10.00">what()</text>
<polygon fill="#666666" stroke="#666666" points="26.5,-198.5 26.5,-198.5 175.5,-198.5 175.5,-198.5 26.5,-198.5"/>
<polygon fill="#666666" stroke="#666666" points="26.5,-183.5 26.5,-183.5 175.5,-183.5 175.5,-183.5 26.5,-183.5"/>
<polygon fill="none" stroke="#666666" points="26,-122 26,-227 175,-227 175,-122 26,-122"/>
</a>
</g>
</g>
<!-- Node2&#45;&gt;Node1 -->
<g id="edge1_Node000001_Node000002" class="edge">
<title>Node2&#45;&gt;Node1</title>
<g id="a_edge1_Node000001_Node000002"><a xlink:title=" ">
<path fill="none" stroke="#63b8ff" d="M100.5,-111.84C100.5,-103.17 100.5,-94.42 100.5,-86.23"/>
<polygon fill="none" stroke="#63b8ff" points="97,-111.95 100.5,-121.95 104,-111.95 97,-111.95"/>
</a>
</g>
</g>
<!-- Node3 -->
<g id="Node000003" class="node">
<title>Node3</title>
<g id="a_Node000003"><a xlink:title=" ">
<polygon fill="white" stroke="transparent" points="140.5,-312 60.5,-312 60.5,-263 140.5,-263 140.5,-312"/>
<text text-anchor="start" x="65.5" y="-299.5" font-family="Helvetica,sans-Serif" font-size="10.00">std::exception</text>
<text text-anchor="start" x="98.5" y="-284.5" font-family="Helvetica,sans-Serif" font-size="10.00"> </text>
<text text-anchor="start" x="98.5" y="-269.5" font-family="Helvetica,sans-Serif" font-size="10.00"> </text>
<polygon fill="#666666" stroke="#666666" points="60.5,-294.5 60.5,-294.5 140.5,-294.5 140.5,-294.5 60.5,-294.5"/>
<polygon fill="#666666" stroke="#666666" points="60.5,-279.5 60.5,-279.5 140.5,-279.5 140.5,-279.5 60.5,-279.5"/>
<polygon fill="none" stroke="#666666" points="60.5,-263 60.5,-312 140.5,-312 140.5,-263 60.5,-263"/>
</a>
</g>
</g>
<!-- Node3&#45;&gt;Node2 -->
<g id="edge2_Node000002_Node000003" class="edge">
<title>Node3&#45;&gt;Node2</title>
<g id="a_edge2_Node000002_Node000003"><a xlink:title=" ">
<path fill="none" stroke="#63b8ff" d="M100.5,-252.85C100.5,-244.79 100.5,-236 100.5,-227.32"/>
<polygon fill="none" stroke="#63b8ff" points="97,-252.96 100.5,-262.96 104,-252.96 97,-252.96"/>
</a>
</g>
</g>
</g>
</svg>
