<?xml version="1.0" encoding="UTF-8" standalone="no"?>
<!DOCTYPE svg PUBLIC "-//W3C//DTD SVG 1.1//EN"
 "http://www.w3.org/Graphics/SVG/1.1/DTD/svg11.dtd">
<!-- Generated by graphviz version 2.43.0 (0)
 -->
<!-- Title: cv::gapi::streaming::detail::desync Pages: 1 -->
<svg width="303pt" height="113pt"
 viewBox="0.00 0.00 303.00 113.00" xmlns="http://www.w3.org/2000/svg" xmlns:xlink="http://www.w3.org/1999/xlink">
<g id="graph0" class="graph" transform="scale(1 1) rotate(0) translate(4 109)">
<title>cv::gapi::streaming::detail::desync</title>
<!-- Node1 -->
<g id="Node000001" class="node">
<title>Node1</title>
<g id="a_Node000001"><a xlink:title=" ">
<polygon fill="#999999" stroke="#666666" points="110,-67.5 0,-67.5 0,-37.5 110,-37.5 110,-67.5"/>
<text text-anchor="start" x="8" y="-55.5" font-family="Helvetica,sans-Serif" font-size="10.00">cv::gapi::streaming</text>
<text text-anchor="middle" x="55" y="-44.5" font-family="Helvetica,sans-Serif" font-size="10.00">::detail::desync</text>
</a>
</g>
</g>
<!-- Node2 -->
<g id="Node000002" class="node">
<title>Node2</title>
<g id="a_Node000002"><a xlink:href="../../d3/d75/structcv_1_1detail_1_1GObtainCtor.html#a71a636eaf14fedf2604a591983fb0be6" target="_top" xlink:title=" ">
<polygon fill="white" stroke="#666666" points="295,-105 146,-105 146,-86 295,-86 295,-105"/>
<text text-anchor="middle" x="220.5" y="-93" font-family="Helvetica,sans-Serif" font-size="10.00">cv::detail::GObtainCtor::get</text>
</a>
</g>
</g>
<!-- Node1&#45;&gt;Node2 -->
<g id="edge1_Node000001_Node000002" class="edge">
<title>Node1&#45;&gt;Node2</title>
<g id="a_edge1_Node000001_Node000002"><a xlink:title=" ">
<path fill="none" stroke="#63b8ff" d="M110.24,-67.03C122.02,-70.17 134.43,-73.46 146,-76.5 154.61,-78.76 163.8,-81.15 172.66,-83.45"/>
<polygon fill="#63b8ff" stroke="#63b8ff" points="171.91,-86.87 182.47,-85.99 173.67,-80.09 171.91,-86.87"/>
</a>
</g>
</g>
<!-- Node3 -->
<g id="Node000003" class="node">
<title>Node3</title>
<g id="a_Node000003"><a xlink:href="../../da/d74/structcv_1_1gapi_1_1streaming_1_1detail_1_1GDesync.html#a54aec126ee3ca58840a93e6a69ebb1a5" target="_top" xlink:title=" ">
<polygon fill="white" stroke="#666666" points="278,-67.5 163,-67.5 163,-37.5 278,-37.5 278,-67.5"/>
<text text-anchor="start" x="171" y="-55.5" font-family="Helvetica,sans-Serif" font-size="10.00">cv::gapi::streaming</text>
<text text-anchor="middle" x="220.5" y="-44.5" font-family="Helvetica,sans-Serif" font-size="10.00">::detail::GDesync::id</text>
</a>
</g>
</g>
<!-- Node1&#45;&gt;Node3 -->
<g id="edge2_Node000001_Node000003" class="edge">
<title>Node1&#45;&gt;Node3</title>
<g id="a_edge2_Node000001_Node000003"><a xlink:title=" ">
<path fill="none" stroke="#63b8ff" d="M110.44,-52.5C123.97,-52.5 138.63,-52.5 152.68,-52.5"/>
<polygon fill="#63b8ff" stroke="#63b8ff" points="152.78,-56 162.78,-52.5 152.78,-49 152.78,-56"/>
</a>
</g>
</g>
<!-- Node4 -->
<g id="Node000004" class="node">
<title>Node4</title>
<g id="a_Node000004"><a xlink:href="../../dc/d02/classcv_1_1GCall.html#a518455dd2c14becbac90092bf8e5b173" target="_top" xlink:title=" ">
<polygon fill="white" stroke="#666666" points="264.5,-19 176.5,-19 176.5,0 264.5,0 264.5,-19"/>
<text text-anchor="middle" x="220.5" y="-7" font-family="Helvetica,sans-Serif" font-size="10.00">cv::GCall::pass</text>
</a>
</g>
</g>
<!-- Node1&#45;&gt;Node4 -->
<g id="edge3_Node000001_Node000004" class="edge">
<title>Node1&#45;&gt;Node4</title>
<g id="a_edge3_Node000001_Node000004"><a xlink:title=" ">
<path fill="none" stroke="#63b8ff" d="M110.24,-37.97C122.02,-34.83 134.43,-31.54 146,-28.5 154.61,-26.24 163.8,-23.85 172.66,-21.55"/>
<polygon fill="#63b8ff" stroke="#63b8ff" points="173.67,-24.91 182.47,-19.01 171.91,-18.13 173.67,-24.91"/>
</a>
</g>
</g>
</g>
</svg>
