<?xml version="1.0" encoding="UTF-8" standalone="no"?>
<!DOCTYPE svg PUBLIC "-//W3C//DTD SVG 1.1//EN"
 "http://www.w3.org/Graphics/SVG/1.1/DTD/svg11.dtd">
<!-- Generated by graphviz version 2.43.0 (0)
 -->
<!-- Title: cv::MatCommaInitializer_&lt; _Tp &gt; Pages: 1 -->
<svg width="145pt" height="194pt"
 viewBox="0.00 0.00 145.00 194.00" xmlns="http://www.w3.org/2000/svg" xmlns:xlink="http://www.w3.org/1999/xlink">
<g id="graph0" class="graph" transform="scale(1 1) rotate(0) translate(4 190)">
<title>cv::MatCommaInitializer_&lt; _Tp &gt;</title>
<!-- Node1 -->
<g id="Node000001" class="node">
<title>Node1</title>
<g id="a_Node000001"><a xlink:title="Comma&#45;separated Matrix Initializer.">
<polygon fill="#999999" stroke="transparent" points="137,-90 0,-90 0,0 137,0 137,-90"/>
<text text-anchor="start" x="9" y="-78" font-family="Helvetica,sans-Serif" font-size="10.00">cv::MatCommaInitializer</text>
<text text-anchor="start" x="46" y="-67" font-family="Helvetica,sans-Serif" font-size="10.00">_&lt; _Tp &gt;</text>
<text text-anchor="start" x="67" y="-52" font-family="Helvetica,sans-Serif" font-size="10.00"> </text>
<text text-anchor="start" x="4.5" y="-37" font-family="Helvetica,sans-Serif" font-size="10.00">+</text>
<text text-anchor="start" x="17.5" y="-37" font-family="Helvetica,sans-Serif" font-size="10.00">MatCommaInitializer_()</text>
<text text-anchor="start" x="4.5" y="-22" font-family="Helvetica,sans-Serif" font-size="10.00">+</text>
<text text-anchor="start" x="17.5" y="-22" font-family="Helvetica,sans-Serif" font-size="10.00">operator Mat_&lt; _Tp &gt;()</text>
<text text-anchor="start" x="4.5" y="-7" font-family="Helvetica,sans-Serif" font-size="10.00">+</text>
<text text-anchor="start" x="17.5" y="-7" font-family="Helvetica,sans-Serif" font-size="10.00">operator,()</text>
<polygon fill="#666666" stroke="#666666" points="0.5,-62 0.5,-62 137.5,-62 137.5,-62 0.5,-62"/>
<polygon fill="#666666" stroke="#666666" points="0.5,-47 0.5,-47 137.5,-47 137.5,-47 0.5,-47"/>
<polygon fill="none" stroke="#666666" points="0,0 0,-90 137,-90 137,0 0,0"/>
</a>
</g>
</g>
<!-- Node2 -->
<g id="Node000002" class="node">
<title>Node2</title>
<g id="a_Node000002"><a xlink:title=" ">
<polygon fill="white" stroke="transparent" points="123.5,-186 13.5,-186 13.5,-137 123.5,-137 123.5,-186"/>
<text text-anchor="start" x="18.5" y="-173.5" font-family="Helvetica,sans-Serif" font-size="10.00">MatIterator_&lt; _Tp &gt;</text>
<text text-anchor="start" x="66.5" y="-158.5" font-family="Helvetica,sans-Serif" font-size="10.00"> </text>
<text text-anchor="start" x="66.5" y="-143.5" font-family="Helvetica,sans-Serif" font-size="10.00"> </text>
<polygon fill="#666666" stroke="#666666" points="13.5,-168.5 13.5,-168.5 123.5,-168.5 123.5,-168.5 13.5,-168.5"/>
<polygon fill="#666666" stroke="#666666" points="13.5,-153.5 13.5,-153.5 123.5,-153.5 123.5,-153.5 13.5,-153.5"/>
<polygon fill="none" stroke="#666666" points="13.5,-137 13.5,-186 123.5,-186 123.5,-137 13.5,-137"/>
</a>
</g>
</g>
<!-- Node2&#45;&gt;Node1 -->
<g id="edge1_Node000001_Node000002" class="edge">
<title>Node2&#45;&gt;Node1</title>
<g id="a_edge1_Node000001_Node000002"><a xlink:title=" ">
<path fill="none" stroke="#63b8ff" d="M68.5,-136.78C68.5,-126.66 68.5,-114.38 68.5,-102.16"/>
<polygon fill="none" stroke="#63b8ff" points="68.5,-102.06 64.5,-96.06 68.5,-90.06 72.5,-96.06 68.5,-102.06"/>
</a>
</g>
<text text-anchor="middle" x="78" y="-111" font-family="Helvetica,sans-Serif" font-size="10.00" fill="grey"> #it</text>
</g>
</g>
</svg>
