<?xml version="1.0" encoding="UTF-8" standalone="no"?>
<!DOCTYPE svg PUBLIC "-//W3C//DTD SVG 1.1//EN"
 "http://www.w3.org/Graphics/SVG/1.1/DTD/svg11.dtd">
<!-- Generated by graphviz version 2.43.0 (0)
 -->
<!-- Title: cv::DescriptorMatcher::read Pages: 1 -->
<svg width="280pt" height="64pt"
 viewBox="0.00 0.00 280.00 64.00" xmlns="http://www.w3.org/2000/svg" xmlns:xlink="http://www.w3.org/1999/xlink">
<g id="graph0" class="graph" transform="scale(1 1) rotate(0) translate(4 60)">
<title>cv::DescriptorMatcher::read</title>
<!-- Node1 -->
<g id="Node000001" class="node">
<title>Node1</title>
<g id="a_Node000001"><a xlink:title=" ">
<polygon fill="#999999" stroke="#666666" points="123,-42.5 0,-42.5 0,-12.5 123,-12.5 123,-42.5"/>
<text text-anchor="start" x="8" y="-30.5" font-family="Helvetica,sans-Serif" font-size="10.00">cv::DescriptorMatcher</text>
<text text-anchor="middle" x="61.5" y="-19.5" font-family="Helvetica,sans-Serif" font-size="10.00">::read</text>
</a>
</g>
</g>
<!-- Node2 -->
<g id="Node000002" class="node">
<title>Node2</title>
<g id="a_Node000002"><a xlink:href="../../d2/d75/namespacecv.html#ae0e331a4e4c5f52a314726adad22abbb" target="_top" xlink:title=" ">
<polygon fill="white" stroke="#666666" points="243,-56 188,-56 188,-37 243,-37 243,-56"/>
<text text-anchor="middle" x="215.5" y="-44" font-family="Helvetica,sans-Serif" font-size="10.00">cv::read</text>
</a>
</g>
</g>
<!-- Node1&#45;&gt;Node2 -->
<g id="edge1_Node000001_Node000002" class="edge">
<title>Node1&#45;&gt;Node2</title>
<g id="a_edge1_Node000001_Node000002"><a xlink:title=" ">
<path fill="none" stroke="#63b8ff" d="M123.01,-35.06C141.48,-37.37 161.23,-39.84 177.63,-41.89"/>
<polygon fill="#63b8ff" stroke="#63b8ff" points="177.53,-45.41 187.88,-43.17 178.39,-38.46 177.53,-45.41"/>
</a>
</g>
</g>
<!-- Node3 -->
<g id="Node000003" class="node">
<title>Node3</title>
<g id="a_Node000003"><a xlink:href="../../da/d56/classcv_1_1FileStorage.html#a504146889949abfe445f87beab4204fd" target="_top" xlink:title="Returns the top&#45;level mapping.">
<polygon fill="white" stroke="#666666" points="272,-19 159,-19 159,0 272,0 272,-19"/>
<text text-anchor="middle" x="215.5" y="-7" font-family="Helvetica,sans-Serif" font-size="10.00">cv::FileStorage::root</text>
</a>
</g>
</g>
<!-- Node1&#45;&gt;Node3 -->
<g id="edge2_Node000001_Node000003" class="edge">
<title>Node1&#45;&gt;Node3</title>
<g id="a_edge2_Node000001_Node000003"><a xlink:title=" ">
<path fill="none" stroke="#63b8ff" d="M123.01,-20.33C131.37,-19.34 139.99,-18.32 148.44,-17.32"/>
<polygon fill="#63b8ff" stroke="#63b8ff" points="149.12,-20.77 158.64,-16.12 148.3,-13.82 149.12,-20.77"/>
</a>
</g>
</g>
</g>
</svg>
