<?xml version="1.0" encoding="UTF-8" standalone="no"?>
<!DOCTYPE svg PUBLIC "-//W3C//DTD SVG 1.1//EN"
 "http://www.w3.org/Graphics/SVG/1.1/DTD/svg11.dtd">
<!-- Generated by graphviz version 2.43.0 (0)
 -->
<!-- Title: cv::detail::tracking::tbm::IDescriptorDistance Pages: 1 -->
<svg width="146pt" height="98pt"
 viewBox="0.00 0.00 146.00 98.00" xmlns="http://www.w3.org/2000/svg" xmlns:xlink="http://www.w3.org/1999/xlink">
<g id="graph0" class="graph" transform="scale(1 1) rotate(0) translate(4 94)">
<title>cv::detail::tracking::tbm::IDescriptorDistance</title>
<!-- Node1 -->
<g id="Node000001" class="node">
<title>Node1</title>
<g id="a_Node000001"><a xlink:title="The IDescriptorDistance class declares an interface for distance computation between reidentification...">
<polygon fill="#999999" stroke="transparent" points="138,-90 0,-90 0,0 138,0 138,-90"/>
<text text-anchor="start" x="5" y="-78" font-family="Helvetica,sans-Serif" font-size="10.00">cv::detail::tracking</text>
<text text-anchor="start" x="5" y="-67" font-family="Helvetica,sans-Serif" font-size="10.00">::tbm::IDescriptorDistance</text>
<text text-anchor="start" x="67" y="-52" font-family="Helvetica,sans-Serif" font-size="10.00"> </text>
<text text-anchor="start" x="5" y="-37" font-family="Helvetica,sans-Serif" font-size="10.00">+</text>
<text text-anchor="start" x="19" y="-37" font-family="Helvetica,sans-Serif" font-size="10.00">~IDescriptorDistance()</text>
<text text-anchor="start" x="5" y="-22" font-family="Helvetica,sans-Serif" font-size="10.00">+</text>
<text text-anchor="start" x="19" y="-22" font-family="Helvetica,sans-Serif" font-size="10.00">compute()</text>
<text text-anchor="start" x="5" y="-7" font-family="Helvetica,sans-Serif" font-size="10.00">+</text>
<text text-anchor="start" x="19" y="-7" font-family="Helvetica,sans-Serif" font-size="10.00">compute()</text>
<polygon fill="#666666" stroke="#666666" points="0,-62 0,-62 138,-62 138,-62 0,-62"/>
<polygon fill="#666666" stroke="#666666" points="0,-47 0,-47 138,-47 138,-47 0,-47"/>
<polygon fill="none" stroke="#666666" points="0,0 0,-90 138,-90 138,0 0,0"/>
</a>
</g>
</g>
</g>
</svg>
