<?xml version="1.0" encoding="UTF-8" standalone="no"?>
<!DOCTYPE svg PUBLIC "-//W3C//DTD SVG 1.1//EN"
 "http://www.w3.org/Graphics/SVG/1.1/DTD/svg11.dtd">
<!-- Generated by graphviz version 2.43.0 (0)
 -->
<!-- Title: cv::CirclesGridFinderParameters Pages: 1 -->
<svg width="586pt" height="689pt"
 viewBox="0.00 0.00 585.87 689.00" xmlns="http://www.w3.org/2000/svg" xmlns:xlink="http://www.w3.org/1999/xlink">
<g id="graph0" class="graph" transform="scale(1 1) rotate(0) translate(4 685)">
<title>cv::CirclesGridFinderParameters</title>
<!-- Node1 -->
<g id="Node000001" class="node">
<title>Node1</title>
<g id="a_Node000001"><a xlink:title=" ">
<polygon fill="#999999" stroke="transparent" points="372.87,-49 204.87,-49 204.87,0 372.87,0 372.87,-49"/>
<text text-anchor="start" x="210.87" y="-36.5" font-family="Helvetica,sans-Serif" font-size="10.00">cv::CirclesGridFinderParameters</text>
<text text-anchor="start" x="208.87" y="-21.5" font-family="Helvetica,sans-Serif" font-size="10.00">+</text>
<text text-anchor="start" x="221.87" y="-21.5" font-family="Helvetica,sans-Serif" font-size="10.00">vertexPenalty</text>
<text text-anchor="start" x="208.87" y="-6.5" font-family="Helvetica,sans-Serif" font-size="10.00">+</text>
<text text-anchor="start" x="221.87" y="-6.5" font-family="Helvetica,sans-Serif" font-size="10.00">CirclesGridFinderParameters()</text>
<polygon fill="#666666" stroke="#666666" points="204.87,-31.5 204.87,-31.5 372.87,-31.5 372.87,-31.5 204.87,-31.5"/>
<polygon fill="#666666" stroke="#666666" points="204.87,-16.5 204.87,-16.5 219.87,-16.5 219.87,-16.5 204.87,-16.5"/>
<polygon fill="#666666" stroke="#666666" points="219.87,-16.5 219.87,-16.5 372.87,-16.5 372.87,-16.5 219.87,-16.5"/>
<polygon fill="none" stroke="#666666" points="204.87,0 204.87,-49 372.87,-49 372.87,0 204.87,0"/>
</a>
</g>
</g>
<!-- Node2 -->
<g id="Node000002" class="node">
<title>Node2</title>
<g id="a_Node000002"><a xlink:href="../../d6/d50/classcv_1_1Size__.html" target="_top" xlink:title=" ">
<polygon fill="white" stroke="transparent" points="311.37,-317 166.37,-317 166.37,-118 311.37,-118 311.37,-317"/>
<text text-anchor="start" x="195.87" y="-304.5" font-family="Helvetica,sans-Serif" font-size="10.00">cv::Size_&lt; float &gt;</text>
<text text-anchor="start" x="237.37" y="-289.5" font-family="Helvetica,sans-Serif" font-size="10.00"> </text>
<text text-anchor="start" x="170.87" y="-274.5" font-family="Helvetica,sans-Serif" font-size="10.00">+</text>
<text text-anchor="start" x="183.87" y="-274.5" font-family="Helvetica,sans-Serif" font-size="10.00">Size_()</text>
<text text-anchor="start" x="170.87" y="-259.5" font-family="Helvetica,sans-Serif" font-size="10.00">+</text>
<text text-anchor="start" x="183.87" y="-259.5" font-family="Helvetica,sans-Serif" font-size="10.00">Size_()</text>
<text text-anchor="start" x="170.87" y="-244.5" font-family="Helvetica,sans-Serif" font-size="10.00">+</text>
<text text-anchor="start" x="183.87" y="-244.5" font-family="Helvetica,sans-Serif" font-size="10.00">Size_()</text>
<text text-anchor="start" x="170.87" y="-229.5" font-family="Helvetica,sans-Serif" font-size="10.00">+</text>
<text text-anchor="start" x="183.87" y="-229.5" font-family="Helvetica,sans-Serif" font-size="10.00">Size_()</text>
<text text-anchor="start" x="170.87" y="-214.5" font-family="Helvetica,sans-Serif" font-size="10.00">+</text>
<text text-anchor="start" x="183.87" y="-214.5" font-family="Helvetica,sans-Serif" font-size="10.00">Size_()</text>
<text text-anchor="start" x="170.87" y="-199.5" font-family="Helvetica,sans-Serif" font-size="10.00">+</text>
<text text-anchor="start" x="183.87" y="-199.5" font-family="Helvetica,sans-Serif" font-size="10.00">area()</text>
<text text-anchor="start" x="170.87" y="-184.5" font-family="Helvetica,sans-Serif" font-size="10.00">+</text>
<text text-anchor="start" x="183.87" y="-184.5" font-family="Helvetica,sans-Serif" font-size="10.00">aspectRatio()</text>
<text text-anchor="start" x="170.87" y="-169.5" font-family="Helvetica,sans-Serif" font-size="10.00">+</text>
<text text-anchor="start" x="183.87" y="-169.5" font-family="Helvetica,sans-Serif" font-size="10.00">empty()</text>
<text text-anchor="start" x="170.87" y="-154.5" font-family="Helvetica,sans-Serif" font-size="10.00">+</text>
<text text-anchor="start" x="183.87" y="-154.5" font-family="Helvetica,sans-Serif" font-size="10.00">operator Size_&lt; _Tp2 &gt;()</text>
<text text-anchor="start" x="170.87" y="-139.5" font-family="Helvetica,sans-Serif" font-size="10.00">+</text>
<text text-anchor="start" x="183.87" y="-139.5" font-family="Helvetica,sans-Serif" font-size="10.00">operator=()</text>
<text text-anchor="start" x="170.87" y="-124.5" font-family="Helvetica,sans-Serif" font-size="10.00">+</text>
<text text-anchor="start" x="183.87" y="-124.5" font-family="Helvetica,sans-Serif" font-size="10.00">operator=()</text>
<polygon fill="#666666" stroke="#666666" points="166.87,-299.5 166.87,-299.5 311.87,-299.5 311.87,-299.5 166.87,-299.5"/>
<polygon fill="#666666" stroke="#666666" points="166.87,-284.5 166.87,-284.5 311.87,-284.5 311.87,-284.5 166.87,-284.5"/>
<polygon fill="none" stroke="#666666" points="166.37,-118 166.37,-317 311.37,-317 311.37,-118 166.37,-118"/>
</a>
</g>
</g>
<!-- Node2&#45;&gt;Node1 -->
<g id="edge1_Node000001_Node000002" class="edge">
<title>Node2&#45;&gt;Node1</title>
<g id="a_edge1_Node000001_Node000002"><a xlink:title=" ">
<path fill="none" stroke="#63b8ff" d="M200.79,-117.95C199.26,-100.16 201.62,-82.39 210.87,-67 212.96,-63.52 215.46,-60.31 218.25,-57.36"/>
<polygon fill="none" stroke="#63b8ff" points="218.42,-57.2 220.27,-50.23 227.41,-49.25 225.57,-56.23 218.42,-57.2"/>
</a>
</g>
<text text-anchor="middle" x="278.87" y="-81" font-family="Helvetica,sans-Serif" font-size="10.00" fill="grey"> +densityNeighborhoodSize</text>
</g>
<!-- Node3 -->
<g id="Node000003" class="node">
<title>Node3</title>
<g id="a_Node000003"><a xlink:title=" ">
<polygon fill="white" stroke="transparent" points="93.87,-499 61.87,-499 61.87,-450 93.87,-450 93.87,-499"/>
<text text-anchor="start" x="66.87" y="-486.5" font-family="Helvetica,sans-Serif" font-size="10.00">float</text>
<text text-anchor="start" x="75.87" y="-471.5" font-family="Helvetica,sans-Serif" font-size="10.00"> </text>
<text text-anchor="start" x="75.87" y="-456.5" font-family="Helvetica,sans-Serif" font-size="10.00"> </text>
<polygon fill="#666666" stroke="#666666" points="61.87,-481.5 61.87,-481.5 93.87,-481.5 93.87,-481.5 61.87,-481.5"/>
<polygon fill="#666666" stroke="#666666" points="61.87,-466.5 61.87,-466.5 93.87,-466.5 93.87,-466.5 61.87,-466.5"/>
<polygon fill="none" stroke="#666666" points="61.87,-450 61.87,-499 93.87,-499 93.87,-450 61.87,-450"/>
</a>
</g>
</g>
<!-- Node3&#45;&gt;Node1 -->
<g id="edge5_Node000001_Node000003" class="edge">
<title>Node3&#45;&gt;Node1</title>
<g id="a_edge5_Node000001_Node000003"><a xlink:title=" ">
<path fill="none" stroke="#63b8ff" d="M64.62,-449.67C32.5,-388.36 -41.67,-222.63 31.87,-118 68.08,-66.48 135.89,-43.52 192.76,-33.35"/>
<polygon fill="none" stroke="#63b8ff" points="192.88,-33.33 198.14,-28.41 204.71,-31.37 199.45,-36.3 192.88,-33.33"/>
</a>
</g>
<text text-anchor="middle" x="94.37" y="-270" font-family="Helvetica,sans-Serif" font-size="10.00" fill="grey"> +convexHullFactor</text>
<text text-anchor="middle" x="94.37" y="-259" font-family="Helvetica,sans-Serif" font-size="10.00" fill="grey">+edgeGain</text>
<text text-anchor="middle" x="94.37" y="-248" font-family="Helvetica,sans-Serif" font-size="10.00" fill="grey">+edgePenalty</text>
<text text-anchor="middle" x="94.37" y="-237" font-family="Helvetica,sans-Serif" font-size="10.00" fill="grey">+existingVertexGain</text>
<text text-anchor="middle" x="94.37" y="-226" font-family="Helvetica,sans-Serif" font-size="10.00" fill="grey">+maxRectifiedDistance</text>
<text text-anchor="middle" x="94.37" y="-215" font-family="Helvetica,sans-Serif" font-size="10.00" fill="grey">+minDensity</text>
<text text-anchor="middle" x="94.37" y="-204" font-family="Helvetica,sans-Serif" font-size="10.00" fill="grey">+minGraphConfidence</text>
<text text-anchor="middle" x="94.37" y="-193" font-family="Helvetica,sans-Serif" font-size="10.00" fill="grey">+minRNGEdgeSwitchDist</text>
<text text-anchor="middle" x="94.37" y="-182" font-family="Helvetica,sans-Serif" font-size="10.00" fill="grey">+squareSize</text>
<text text-anchor="middle" x="94.37" y="-171" font-family="Helvetica,sans-Serif" font-size="10.00" fill="grey">+vertexGain</text>
<text text-anchor="middle" x="94.37" y="-160" font-family="Helvetica,sans-Serif" font-size="10.00" fill="grey">...</text>
</g>
<!-- Node3&#45;&gt;Node2 -->
<g id="edge2_Node000002_Node000003" class="edge">
<title>Node3&#45;&gt;Node2</title>
<g id="a_edge2_Node000002_Node000003"><a xlink:title=" ">
<path fill="none" stroke="#63b8ff" d="M92.73,-449.97C110.46,-421.88 141.34,-372.98 170.15,-327.33"/>
<polygon fill="none" stroke="#63b8ff" points="170.24,-327.19 170.07,-319.98 176.65,-317.04 176.83,-324.25 170.24,-327.19"/>
</a>
</g>
<text text-anchor="middle" x="185.37" y="-349" font-family="Helvetica,sans-Serif" font-size="10.00" fill="grey"> +height</text>
<text text-anchor="middle" x="185.37" y="-338" font-family="Helvetica,sans-Serif" font-size="10.00" fill="grey">+width</text>
</g>
<!-- Node4 -->
<g id="Node000004" class="node">
<title>Node4</title>
<g id="a_Node000004"><a xlink:href="../../d6/d50/classcv_1_1Size__.html" target="_top" xlink:title="Template class for specifying the size of an image or rectangle.">
<polygon fill="white" stroke="transparent" points="311.37,-574 166.37,-574 166.37,-375 311.37,-375 311.37,-574"/>
<text text-anchor="start" x="198.37" y="-561.5" font-family="Helvetica,sans-Serif" font-size="10.00">cv::Size_&lt; _Tp &gt;</text>
<text text-anchor="start" x="237.37" y="-546.5" font-family="Helvetica,sans-Serif" font-size="10.00"> </text>
<text text-anchor="start" x="170.87" y="-531.5" font-family="Helvetica,sans-Serif" font-size="10.00">+</text>
<text text-anchor="start" x="183.87" y="-531.5" font-family="Helvetica,sans-Serif" font-size="10.00">Size_()</text>
<text text-anchor="start" x="170.87" y="-516.5" font-family="Helvetica,sans-Serif" font-size="10.00">+</text>
<text text-anchor="start" x="183.87" y="-516.5" font-family="Helvetica,sans-Serif" font-size="10.00">Size_()</text>
<text text-anchor="start" x="170.87" y="-501.5" font-family="Helvetica,sans-Serif" font-size="10.00">+</text>
<text text-anchor="start" x="183.87" y="-501.5" font-family="Helvetica,sans-Serif" font-size="10.00">Size_()</text>
<text text-anchor="start" x="170.87" y="-486.5" font-family="Helvetica,sans-Serif" font-size="10.00">+</text>
<text text-anchor="start" x="183.87" y="-486.5" font-family="Helvetica,sans-Serif" font-size="10.00">Size_()</text>
<text text-anchor="start" x="170.87" y="-471.5" font-family="Helvetica,sans-Serif" font-size="10.00">+</text>
<text text-anchor="start" x="183.87" y="-471.5" font-family="Helvetica,sans-Serif" font-size="10.00">Size_()</text>
<text text-anchor="start" x="170.87" y="-456.5" font-family="Helvetica,sans-Serif" font-size="10.00">+</text>
<text text-anchor="start" x="183.87" y="-456.5" font-family="Helvetica,sans-Serif" font-size="10.00">area()</text>
<text text-anchor="start" x="170.87" y="-441.5" font-family="Helvetica,sans-Serif" font-size="10.00">+</text>
<text text-anchor="start" x="183.87" y="-441.5" font-family="Helvetica,sans-Serif" font-size="10.00">aspectRatio()</text>
<text text-anchor="start" x="170.87" y="-426.5" font-family="Helvetica,sans-Serif" font-size="10.00">+</text>
<text text-anchor="start" x="183.87" y="-426.5" font-family="Helvetica,sans-Serif" font-size="10.00">empty()</text>
<text text-anchor="start" x="170.87" y="-411.5" font-family="Helvetica,sans-Serif" font-size="10.00">+</text>
<text text-anchor="start" x="183.87" y="-411.5" font-family="Helvetica,sans-Serif" font-size="10.00">operator Size_&lt; _Tp2 &gt;()</text>
<text text-anchor="start" x="170.87" y="-396.5" font-family="Helvetica,sans-Serif" font-size="10.00">+</text>
<text text-anchor="start" x="183.87" y="-396.5" font-family="Helvetica,sans-Serif" font-size="10.00">operator=()</text>
<text text-anchor="start" x="170.87" y="-381.5" font-family="Helvetica,sans-Serif" font-size="10.00">+</text>
<text text-anchor="start" x="183.87" y="-381.5" font-family="Helvetica,sans-Serif" font-size="10.00">operator=()</text>
<polygon fill="#666666" stroke="#666666" points="166.87,-556.5 166.87,-556.5 311.87,-556.5 311.87,-556.5 166.87,-556.5"/>
<polygon fill="#666666" stroke="#666666" points="166.87,-541.5 166.87,-541.5 311.87,-541.5 311.87,-541.5 166.87,-541.5"/>
<polygon fill="none" stroke="#666666" points="166.37,-375 166.37,-574 311.37,-574 311.37,-375 166.37,-375"/>
</a>
</g>
</g>
<!-- Node4&#45;&gt;Node2 -->
<g id="edge3_Node000002_Node000004" class="edge">
<title>Node4&#45;&gt;Node2</title>
<g id="a_edge3_Node000002_Node000004"><a xlink:title=" ">
<path fill="none" stroke="orange" d="M238.87,-364.63C238.87,-348.9 238.87,-332.77 238.87,-317.25"/>
<polygon fill="orange" stroke="orange" points="235.37,-364.91 238.87,-374.91 242.37,-364.91 235.37,-364.91"/>
</a>
</g>
<text text-anchor="middle" x="262.87" y="-343.5" font-family="Helvetica,sans-Serif" font-size="10.00" fill="grey"> &lt; float &gt;</text>
</g>
<!-- Node5 -->
<g id="Node000005" class="node">
<title>Node5</title>
<g id="a_Node000005"><a xlink:href="../../d1/dd7/class__Tp.html" target="_top" xlink:title=" ">
<polygon fill="white" stroke="transparent" points="252.87,-681 224.87,-681 224.87,-632 252.87,-632 252.87,-681"/>
<text text-anchor="start" x="229.87" y="-668.5" font-family="Helvetica,sans-Serif" font-size="10.00">_Tp</text>
<text text-anchor="start" x="236.87" y="-653.5" font-family="Helvetica,sans-Serif" font-size="10.00"> </text>
<text text-anchor="start" x="236.87" y="-638.5" font-family="Helvetica,sans-Serif" font-size="10.00"> </text>
<polygon fill="#666666" stroke="#666666" points="224.87,-663.5 224.87,-663.5 252.87,-663.5 252.87,-663.5 224.87,-663.5"/>
<polygon fill="#666666" stroke="#666666" points="224.87,-648.5 224.87,-648.5 252.87,-648.5 252.87,-648.5 224.87,-648.5"/>
<polygon fill="none" stroke="#666666" points="224.87,-632 224.87,-681 252.87,-681 252.87,-632 224.87,-632"/>
</a>
</g>
</g>
<!-- Node5&#45;&gt;Node4 -->
<g id="edge4_Node000004_Node000005" class="edge">
<title>Node5&#45;&gt;Node4</title>
<g id="a_edge4_Node000004_Node000005"><a xlink:title=" ">
<path fill="none" stroke="#63b8ff" d="M238.87,-631.97C238.87,-619.58 238.87,-603.4 238.87,-586.14"/>
<polygon fill="none" stroke="#63b8ff" points="238.87,-586.06 234.87,-580.06 238.87,-574.06 242.87,-580.06 238.87,-586.06"/>
</a>
</g>
<text text-anchor="middle" x="260.37" y="-606" font-family="Helvetica,sans-Serif" font-size="10.00" fill="grey"> +height</text>
<text text-anchor="middle" x="260.37" y="-595" font-family="Helvetica,sans-Serif" font-size="10.00" fill="grey">+width</text>
</g>
<!-- Node6 -->
<g id="Node000006" class="node">
<title>Node6</title>
<g id="a_Node000006"><a xlink:title=" ">
<polygon fill="white" stroke="transparent" points="380.37,-242 357.37,-242 357.37,-193 380.37,-193 380.37,-242"/>
<text text-anchor="start" x="362.87" y="-229.5" font-family="Helvetica,sans-Serif" font-size="10.00">int</text>
<text text-anchor="start" x="367.37" y="-214.5" font-family="Helvetica,sans-Serif" font-size="10.00"> </text>
<text text-anchor="start" x="367.37" y="-199.5" font-family="Helvetica,sans-Serif" font-size="10.00"> </text>
<polygon fill="#666666" stroke="#666666" points="357.87,-224.5 357.87,-224.5 380.87,-224.5 380.87,-224.5 357.87,-224.5"/>
<polygon fill="#666666" stroke="#666666" points="357.87,-209.5 357.87,-209.5 380.87,-209.5 380.87,-209.5 357.87,-209.5"/>
<polygon fill="none" stroke="#666666" points="357.37,-193 357.37,-242 380.37,-242 380.37,-193 357.37,-193"/>
</a>
</g>
</g>
<!-- Node6&#45;&gt;Node1 -->
<g id="edge6_Node000001_Node000006" class="edge">
<title>Node6&#45;&gt;Node1</title>
<g id="a_edge6_Node000001_Node000006"><a xlink:title=" ">
<path fill="none" stroke="#63b8ff" d="M370.84,-192.84C372.28,-161.66 370.78,-106.19 346.87,-67 344.8,-63.62 342.35,-60.43 339.64,-57.45"/>
<polygon fill="none" stroke="#63b8ff" points="339.54,-57.36 332.44,-56.13 330.84,-49.1 337.95,-50.33 339.54,-57.36"/>
</a>
</g>
<text text-anchor="middle" x="430.87" y="-92" font-family="Helvetica,sans-Serif" font-size="10.00" fill="grey"> +keypointScale</text>
<text text-anchor="middle" x="430.87" y="-81" font-family="Helvetica,sans-Serif" font-size="10.00" fill="grey">+kmeansAttempts</text>
<text text-anchor="middle" x="430.87" y="-70" font-family="Helvetica,sans-Serif" font-size="10.00" fill="grey">+minDistanceToAddKeypoint</text>
</g>
<!-- Node7 -->
<g id="Node000007" class="node">
<title>Node7</title>
<g id="a_Node000007"><a xlink:title=" ">
<polygon fill="white" stroke="transparent" points="560.37,-242 507.37,-242 507.37,-193 560.37,-193 560.37,-242"/>
<text text-anchor="start" x="512.87" y="-229.5" font-family="Helvetica,sans-Serif" font-size="10.00">GridType</text>
<text text-anchor="start" x="532.37" y="-214.5" font-family="Helvetica,sans-Serif" font-size="10.00"> </text>
<text text-anchor="start" x="532.37" y="-199.5" font-family="Helvetica,sans-Serif" font-size="10.00"> </text>
<polygon fill="#666666" stroke="#666666" points="507.87,-224.5 507.87,-224.5 560.87,-224.5 560.87,-224.5 507.87,-224.5"/>
<polygon fill="#666666" stroke="#666666" points="507.87,-209.5 507.87,-209.5 560.87,-209.5 560.87,-209.5 507.87,-209.5"/>
<polygon fill="none" stroke="#666666" points="507.37,-193 507.37,-242 560.37,-242 560.37,-193 507.37,-193"/>
</a>
</g>
</g>
<!-- Node7&#45;&gt;Node1 -->
<g id="edge7_Node000001_Node000007" class="edge">
<title>Node7&#45;&gt;Node1</title>
<g id="a_edge7_Node000001_Node000007"><a xlink:title=" ">
<path fill="none" stroke="#63b8ff" d="M536.87,-192.87C539.62,-159.9 539.13,-100.39 505.87,-67 488.64,-49.71 434.92,-39.35 385.24,-33.31"/>
<polygon fill="none" stroke="#63b8ff" points="384.98,-33.28 378.56,-36.57 373.06,-31.9 379.48,-28.62 384.98,-33.28"/>
</a>
</g>
<text text-anchor="middle" x="551.37" y="-81" font-family="Helvetica,sans-Serif" font-size="10.00" fill="grey"> +gridType</text>
</g>
</g>
</svg>
