<?xml version="1.0" encoding="UTF-8" standalone="no"?>
<!DOCTYPE svg PUBLIC "-//W3C//DTD SVG 1.1//EN"
 "http://www.w3.org/Graphics/SVG/1.1/DTD/svg11.dtd">
<!-- Generated by graphviz version 2.43.0 (0)
 -->
<!-- Title: opencv2/video/background_segm.hpp Pages: 1 -->
<svg width="941pt" height="214pt"
 viewBox="0.00 0.00 940.50 214.00" xmlns="http://www.w3.org/2000/svg" xmlns:xlink="http://www.w3.org/1999/xlink">
<g id="graph0" class="graph" transform="scale(1 1) rotate(0) translate(4 210)">
<title>opencv2/video/background_segm.hpp</title>
<!-- Node1 -->
<g id="Node000001" class="node">
<title>Node1</title>
<g id="a_Node000001"><a xlink:title=" ">
<polygon fill="#999999" stroke="#666666" points="304,-206 156,-206 156,-176 304,-176 304,-206"/>
<text text-anchor="start" x="164" y="-194" font-family="Helvetica,sans-Serif" font-size="10.00">opencv2/video/background</text>
<text text-anchor="middle" x="230" y="-183" font-family="Helvetica,sans-Serif" font-size="10.00">_segm.hpp</text>
</a>
</g>
</g>
<!-- Node2 -->
<g id="Node000002" class="node">
<title>Node2</title>
<g id="a_Node000002"><a xlink:href="../../dc/d3d/cudabgsegm_8hpp.html" target="_top" xlink:title=" ">
<polygon fill="white" stroke="#666666" points="144,-140 0,-140 0,-121 144,-121 144,-140"/>
<text text-anchor="middle" x="72" y="-128" font-family="Helvetica,sans-Serif" font-size="10.00">opencv2/cudabgsegm.hpp</text>
</a>
</g>
</g>
<!-- Node1&#45;&gt;Node2 -->
<g id="edge1_Node000001_Node000002" class="edge">
<title>Node1&#45;&gt;Node2</title>
<g id="a_edge1_Node000001_Node000002"><a xlink:title=" ">
<path fill="none" stroke="#63b8ff" d="M182.66,-172.47C153.82,-161.79 118.23,-148.62 95.33,-140.14"/>
<polygon fill="#63b8ff" stroke="#63b8ff" points="181.56,-175.8 192.16,-175.99 183.99,-169.23 181.56,-175.8"/>
</a>
</g>
</g>
<!-- Node3 -->
<g id="Node000003" class="node">
<title>Node3</title>
<g id="a_Node000003"><a xlink:href="../../da/d10/cudalegacy_8hpp.html" target="_top" xlink:title=" ">
<polygon fill="white" stroke="#666666" points="298,-140 162,-140 162,-121 298,-121 298,-140"/>
<text text-anchor="middle" x="230" y="-128" font-family="Helvetica,sans-Serif" font-size="10.00">opencv2/cudalegacy.hpp</text>
</a>
</g>
</g>
<!-- Node1&#45;&gt;Node3 -->
<g id="edge2_Node000001_Node000003" class="edge">
<title>Node1&#45;&gt;Node3</title>
<g id="a_edge2_Node000001_Node000003"><a xlink:title=" ">
<path fill="none" stroke="#63b8ff" d="M230,-165.75C230,-156.72 230,-147.03 230,-140.27"/>
<polygon fill="#63b8ff" stroke="#63b8ff" points="226.5,-165.84 230,-175.84 233.5,-165.84 226.5,-165.84"/>
</a>
</g>
</g>
<!-- Node5 -->
<g id="Node000005" class="node">
<title>Node5</title>
<g id="a_Node000005"><a xlink:href="../../d0/d1c/video_2include_2opencv2_2video_8hpp.html" target="_top" xlink:title=" ">
<polygon fill="white" stroke="#666666" points="521.5,-140 412.5,-140 412.5,-121 521.5,-121 521.5,-140"/>
<text text-anchor="middle" x="467" y="-128" font-family="Helvetica,sans-Serif" font-size="10.00">opencv2/video.hpp</text>
</a>
</g>
</g>
<!-- Node1&#45;&gt;Node5 -->
<g id="edge4_Node000001_Node000005" class="edge">
<title>Node1&#45;&gt;Node5</title>
<g id="a_edge4_Node000001_Node000005"><a xlink:title=" ">
<path fill="none" stroke="#63b8ff" d="M296.56,-173.57C340.7,-162.67 396.83,-148.82 432.35,-140.05"/>
<polygon fill="#63b8ff" stroke="#63b8ff" points="295.64,-170.19 286.77,-175.99 297.31,-176.99 295.64,-170.19"/>
</a>
</g>
</g>
<!-- Node4 -->
<g id="Node000004" class="node">
<title>Node4</title>
<g id="a_Node000004"><a xlink:href="../../de/d3c/contrib_2modules_2cudalegacy_2include_2opencv2_2cudalegacy_2private_8hpp.html" target="_top" xlink:title=" ">
<polygon fill="white" stroke="#666666" points="246,-85 130,-85 130,-55 246,-55 246,-85"/>
<text text-anchor="start" x="138" y="-73" font-family="Helvetica,sans-Serif" font-size="10.00">opencv2/cudalegacy</text>
<text text-anchor="middle" x="188" y="-62" font-family="Helvetica,sans-Serif" font-size="10.00">/private.hpp</text>
</a>
</g>
</g>
<!-- Node3&#45;&gt;Node4 -->
<g id="edge3_Node000003_Node000004" class="edge">
<title>Node3&#45;&gt;Node4</title>
<g id="a_edge3_Node000003_Node000004"><a xlink:title=" ">
<path fill="none" stroke="#63b8ff" d="M217.87,-112.61C211.62,-103.89 204.07,-93.39 198.13,-85.11"/>
<polygon fill="#63b8ff" stroke="#63b8ff" points="215.13,-114.79 223.8,-120.87 220.81,-110.7 215.13,-114.79"/>
</a>
</g>
</g>
<!-- Node6 -->
<g id="Node000006" class="node">
<title>Node6</title>
<g id="a_Node000006"><a xlink:href="../../d2/dce/bgsegm_8hpp.html" target="_top" xlink:title=" ">
<polygon fill="white" stroke="#666666" points="385.5,-79.5 264.5,-79.5 264.5,-60.5 385.5,-60.5 385.5,-79.5"/>
<text text-anchor="middle" x="325" y="-67.5" font-family="Helvetica,sans-Serif" font-size="10.00">opencv2/bgsegm.hpp</text>
</a>
</g>
</g>
<!-- Node5&#45;&gt;Node6 -->
<g id="edge5_Node000005_Node000006" class="edge">
<title>Node5&#45;&gt;Node6</title>
<g id="a_edge5_Node000005_Node000006"><a xlink:title=" ">
<path fill="none" stroke="#63b8ff" d="M436.86,-117.08C409.43,-105.78 369.66,-89.4 345.67,-79.52"/>
<polygon fill="#63b8ff" stroke="#63b8ff" points="435.77,-120.42 446.35,-120.99 438.44,-113.95 435.77,-120.42"/>
</a>
</g>
</g>
<!-- Node7 -->
<g id="Node000007" class="node">
<title>Node7</title>
<g id="a_Node000007"><a xlink:href="../../de/d67/optflow_8hpp.html" target="_top" xlink:title=" ">
<polygon fill="white" stroke="#666666" points="579.5,-19 462.5,-19 462.5,0 579.5,0 579.5,-19"/>
<text text-anchor="middle" x="521" y="-7" font-family="Helvetica,sans-Serif" font-size="10.00">opencv2/optflow.hpp</text>
</a>
</g>
</g>
<!-- Node5&#45;&gt;Node7 -->
<g id="edge6_Node000005_Node000007" class="edge">
<title>Node5&#45;&gt;Node7</title>
<g id="a_edge6_Node000005_Node000007"><a xlink:title=" ">
<path fill="none" stroke="#63b8ff" d="M450.42,-113.2C436.73,-97.71 421.31,-74.01 433,-55 444.3,-36.62 465.79,-25.56 484.71,-19.06"/>
<polygon fill="#63b8ff" stroke="#63b8ff" points="448.25,-116.01 457.66,-120.89 453.35,-111.21 448.25,-116.01"/>
</a>
</g>
</g>
<!-- Node8 -->
<g id="Node000008" class="node">
<title>Node8</title>
<g id="a_Node000008"><a xlink:href="../../dc/dee/pcaflow_8hpp.html" target="_top" xlink:title="Implementation of the PCAFlow algorithm from the following paper: http://files.is....">
<polygon fill="white" stroke="#666666" points="600,-79.5 442,-79.5 442,-60.5 600,-60.5 600,-79.5"/>
<text text-anchor="middle" x="521" y="-67.5" font-family="Helvetica,sans-Serif" font-size="10.00">opencv2/optflow/pcaflow.hpp</text>
</a>
</g>
</g>
<!-- Node5&#45;&gt;Node8 -->
<g id="edge7_Node000005_Node000008" class="edge">
<title>Node5&#45;&gt;Node8</title>
<g id="a_edge7_Node000005_Node000008"><a xlink:title=" ">
<path fill="none" stroke="#63b8ff" d="M481.98,-113.27C492.02,-102.39 504.85,-88.49 513,-79.67"/>
<polygon fill="#63b8ff" stroke="#63b8ff" points="479.18,-111.15 474.97,-120.87 484.32,-115.89 479.18,-111.15"/>
</a>
</g>
</g>
<!-- Node9 -->
<g id="Node000009" class="node">
<title>Node9</title>
<g id="a_Node000009"><a xlink:href="../../da/da2/rlofflow_8hpp.html" target="_top" xlink:title=" ">
<polygon fill="white" stroke="#666666" points="775.5,-79.5 618.5,-79.5 618.5,-60.5 775.5,-60.5 775.5,-79.5"/>
<text text-anchor="middle" x="697" y="-67.5" font-family="Helvetica,sans-Serif" font-size="10.00">opencv2/optflow/rlofflow.hpp</text>
</a>
</g>
</g>
<!-- Node5&#45;&gt;Node9 -->
<g id="edge9_Node000005_Node000009" class="edge">
<title>Node5&#45;&gt;Node9</title>
<g id="a_edge9_Node000005_Node000009"><a xlink:title=" ">
<path fill="none" stroke="#63b8ff" d="M510.38,-118.47C554.84,-107.16 623.04,-89.81 663.52,-79.52"/>
<polygon fill="#63b8ff" stroke="#63b8ff" points="509.27,-115.14 500.44,-120.99 511,-121.92 509.27,-115.14"/>
</a>
</g>
</g>
<!-- Node10 -->
<g id="Node000010" class="node">
<title>Node10</title>
<g id="a_Node000010"><a xlink:href="../../d9/d44/video_2include_2opencv2_2video_2video_8hpp.html" target="_top" xlink:title=" ">
<polygon fill="white" stroke="#666666" points="932.5,-79.5 793.5,-79.5 793.5,-60.5 932.5,-60.5 932.5,-79.5"/>
<text text-anchor="middle" x="863" y="-67.5" font-family="Helvetica,sans-Serif" font-size="10.00">opencv2/video/video.hpp</text>
</a>
</g>
</g>
<!-- Node5&#45;&gt;Node10 -->
<g id="edge11_Node000005_Node000010" class="edge">
<title>Node5&#45;&gt;Node10</title>
<g id="a_edge11_Node000005_Node000010"><a xlink:title=" ">
<path fill="none" stroke="#63b8ff" d="M531.68,-121.19C596.01,-112.75 697.48,-98.97 785,-85 795.46,-83.33 806.69,-81.4 817.27,-79.51"/>
<polygon fill="#63b8ff" stroke="#63b8ff" points="531.14,-117.73 521.68,-122.5 532.05,-124.67 531.14,-117.73"/>
</a>
</g>
</g>
<!-- Node8&#45;&gt;Node7 -->
<g id="edge8_Node000008_Node000007" class="edge">
<title>Node8&#45;&gt;Node7</title>
<g id="a_edge8_Node000008_Node000007"><a xlink:title=" ">
<path fill="none" stroke="#63b8ff" d="M521,-50.16C521,-39.74 521,-27.3 521,-19.17"/>
<polygon fill="#63b8ff" stroke="#63b8ff" points="517.5,-50.37 521,-60.37 524.5,-50.37 517.5,-50.37"/>
</a>
</g>
</g>
<!-- Node9&#45;&gt;Node7 -->
<g id="edge10_Node000009_Node000007" class="edge">
<title>Node9&#45;&gt;Node7</title>
<g id="a_edge10_Node000009_Node000007"><a xlink:title=" ">
<path fill="none" stroke="#63b8ff" d="M661.85,-57.32C627.81,-46 577.01,-29.12 546.62,-19.02"/>
<polygon fill="#63b8ff" stroke="#63b8ff" points="660.81,-60.66 671.41,-60.49 663.02,-54.02 660.81,-60.66"/>
</a>
</g>
</g>
</g>
</svg>
