<?xml version="1.0" encoding="UTF-8" standalone="no"?>
<!DOCTYPE svg PUBLIC "-//W3C//DTD SVG 1.1//EN"
 "http://www.w3.org/Graphics/SVG/1.1/DTD/svg11.dtd">
<!-- Generated by graphviz version 2.43.0 (0)
 -->
<!-- Title: opencv2/gapi Pages: 1 -->
<svg width="872pt" height="259pt"
 viewBox="0.00 0.00 872.00 259.00" xmlns="http://www.w3.org/2000/svg" xmlns:xlink="http://www.w3.org/1999/xlink">
<g id="graph0" class="graph" transform="scale(1 1) rotate(0) translate(4 255)">
<title>opencv2/gapi</title>
<g id="clust1" class="cluster">
<title>clusterdir_890cc6dbd9724a64f6d3e6e018dd3e21</title>
<g id="a_clust1"><a xlink:href="dir_890cc6dbd9724a64f6d3e6e018dd3e21.html" target="_top" xlink:title="opencv2">
<polygon fill="#edf0f7" stroke="#404040" stroke-dasharray="5,2" points="8,-8 8,-243 608,-243 608,-8 8,-8"/>
<text text-anchor="middle" x="308" y="-231" font-family="Helvetica,sans-Serif" font-size="10.00">opencv2</text>
</a>
</g>
</g>
<g id="clust2" class="cluster">
<title>clusterdir_536697cc74adefb6a4e49829b335876b</title>
<g id="a_clust2"><a xlink:href="dir_536697cc74adefb6a4e49829b335876b.html" target="_top">
<polygon fill="#edf0f7" stroke="#404040" stroke-width="2" points="16,-16 16,-216 600,-216 600,-16 16,-16"/>
</a>
</g>
</g>
<!-- dir_536697cc74adefb6a4e49829b335876b -->
<g id="node1" class="node">
<title>dir_536697cc74adefb6a4e49829b335876b</title>
<text text-anchor="middle" x="405" y="-196" font-family="Helvetica,sans-Serif" font-size="10.00">gapi</text>
</g>
<!-- dir_77b4af01d0e593cb66ccff943206ddcc -->
<g id="node8" class="node">
<title>dir_77b4af01d0e593cb66ccff943206ddcc</title>
<g id="a_node8"><a xlink:href="dir_77b4af01d0e593cb66ccff943206ddcc.html" target="_top" xlink:title="own">
<polygon fill="#a2b4d6" stroke="#404040" points="345.5,-98 308.5,-98 308.5,-79 345.5,-79 345.5,-98"/>
<text text-anchor="middle" x="327" y="-86" font-family="Helvetica,sans-Serif" font-size="10.00">own</text>
</a>
</g>
</g>
<!-- dir_536697cc74adefb6a4e49829b335876b&#45;&gt;dir_77b4af01d0e593cb66ccff943206ddcc -->
<g id="edge3" class="edge">
<title>dir_536697cc74adefb6a4e49829b335876b&#45;&gt;dir_77b4af01d0e593cb66ccff943206ddcc</title>
<g id="a_edge3"><a xlink:href="dir_000123_000326.html" target="_top">
<path fill="none" stroke="#63b8ff" d="M405.74,-188.93C406.43,-175.96 406.02,-151.06 395,-134 385.54,-119.37 369.38,-108.49 355.19,-101.16"/>
<polygon fill="#63b8ff" stroke="#63b8ff" points="356.32,-97.82 345.79,-96.65 353.29,-104.13 356.32,-97.82"/>
</a>
</g>
<g id="a_edge3&#45;headlabel"><a xlink:href="dir_000123_000326.html" target="_top" xlink:title="32">
<text text-anchor="middle" x="360.79" y="-94.32" font-family="Helvetica,sans-Serif" font-size="10.00" fill="#63b8ff">32</text>
</a>
</g>
</g>
<!-- dir_91f86cd07dde88d409f131773720d870 -->
<g id="node11" class="node">
<title>dir_91f86cd07dde88d409f131773720d870</title>
<g id="a_node11"><a xlink:href="dir_91f86cd07dde88d409f131773720d870.html" target="_top" xlink:title="render">
<polygon fill="#a2b4d6" stroke="#404040" points="168,-153 120,-153 120,-134 168,-134 168,-153"/>
<text text-anchor="middle" x="144" y="-141" font-family="Helvetica,sans-Serif" font-size="10.00">render</text>
</a>
</g>
</g>
<!-- dir_536697cc74adefb6a4e49829b335876b&#45;&gt;dir_91f86cd07dde88d409f131773720d870 -->
<g id="edge5" class="edge">
<title>dir_536697cc74adefb6a4e49829b335876b&#45;&gt;dir_91f86cd07dde88d409f131773720d870</title>
<g id="a_edge5"><a xlink:href="dir_000123_000426.html" target="_top">
<path fill="none" stroke="#63b8ff" d="M385.89,-193.36C379.28,-191.95 371.82,-190.38 365,-189 284.7,-172.78 261.7,-171.68 178.06,-153.12"/>
<polygon fill="#63b8ff" stroke="#63b8ff" points="178.63,-149.66 168.11,-150.9 177.1,-156.5 178.63,-149.66"/>
</a>
</g>
<g id="a_edge5&#45;headlabel"><a xlink:href="dir_000123_000426.html" target="_top" xlink:title="2">
<text text-anchor="middle" x="182.76" y="-145.18" font-family="Helvetica,sans-Serif" font-size="10.00" fill="#63b8ff">2</text>
</a>
</g>
</g>
<!-- dir_a7c6b3a37dbb131a4ce46e72cd4ec12a -->
<g id="node12" class="node">
<title>dir_a7c6b3a37dbb131a4ce46e72cd4ec12a</title>
<g id="a_node12"><a xlink:href="dir_a7c6b3a37dbb131a4ce46e72cd4ec12a.html" target="_top" xlink:title="s11n">
<polygon fill="#a2b4d6" stroke="#404040" points="386,-153 346,-153 346,-134 386,-134 386,-153"/>
<text text-anchor="middle" x="366" y="-141" font-family="Helvetica,sans-Serif" font-size="10.00">s11n</text>
</a>
</g>
</g>
<!-- dir_536697cc74adefb6a4e49829b335876b&#45;&gt;dir_a7c6b3a37dbb131a4ce46e72cd4ec12a -->
<g id="edge6" class="edge">
<title>dir_536697cc74adefb6a4e49829b335876b&#45;&gt;dir_a7c6b3a37dbb131a4ce46e72cd4ec12a</title>
<g id="a_edge6"><a xlink:href="dir_000123_000430.html" target="_top">
<path fill="none" stroke="#63b8ff" d="M398.56,-188.75C393.11,-181.34 385.14,-170.5 378.44,-161.41"/>
<polygon fill="#63b8ff" stroke="#63b8ff" points="381.07,-159.07 372.32,-153.09 375.43,-163.22 381.07,-159.07"/>
</a>
</g>
<g id="a_edge6&#45;headlabel"><a xlink:href="dir_000123_000430.html" target="_top" xlink:title="2">
<text text-anchor="middle" x="385.48" y="-157.78" font-family="Helvetica,sans-Serif" font-size="10.00" fill="#63b8ff">2</text>
</a>
</g>
</g>
<!-- dir_0df6f59f747bded2299b76680461c9df -->
<g id="node13" class="node">
<title>dir_0df6f59f747bded2299b76680461c9df</title>
<g id="a_node13"><a xlink:href="dir_0df6f59f747bded2299b76680461c9df.html" target="_top" xlink:title="streaming">
<polygon fill="#a2b4d6" stroke="#404040" points="542,-153 476,-153 476,-134 542,-134 542,-153"/>
<text text-anchor="middle" x="509" y="-141" font-family="Helvetica,sans-Serif" font-size="10.00">streaming</text>
</a>
</g>
</g>
<!-- dir_536697cc74adefb6a4e49829b335876b&#45;&gt;dir_0df6f59f747bded2299b76680461c9df -->
<g id="edge2" class="edge">
<title>dir_536697cc74adefb6a4e49829b335876b&#45;&gt;dir_0df6f59f747bded2299b76680461c9df</title>
<g id="a_edge2"><a xlink:href="dir_000123_000448.html" target="_top">
<path fill="none" stroke="#63b8ff" d="M421.71,-188.98C438.21,-180.57 463.7,-167.59 482.88,-157.81"/>
<polygon fill="#63b8ff" stroke="#63b8ff" points="484.67,-160.83 491.99,-153.17 481.49,-154.59 484.67,-160.83"/>
</a>
</g>
<g id="a_edge2&#45;headlabel"><a xlink:href="dir_000123_000448.html" target="_top" xlink:title="5">
<text text-anchor="middle" x="482.75" y="-162.49" font-family="Helvetica,sans-Serif" font-size="10.00" fill="#63b8ff">5</text>
</a>
</g>
</g>
<!-- dir_fe7f2abeee7478b65c454e045f003ee1 -->
<g id="node14" class="node">
<title>dir_fe7f2abeee7478b65c454e045f003ee1</title>
<g id="a_node14"><a xlink:href="dir_fe7f2abeee7478b65c454e045f003ee1.html" target="_top" xlink:title="util">
<polygon fill="#a2b4d6" stroke="#404040" points="297,-43 265,-43 265,-24 297,-24 297,-43"/>
<text text-anchor="middle" x="281" y="-31" font-family="Helvetica,sans-Serif" font-size="10.00">util</text>
</a>
</g>
</g>
<!-- dir_536697cc74adefb6a4e49829b335876b&#45;&gt;dir_fe7f2abeee7478b65c454e045f003ee1 -->
<g id="edge7" class="edge">
<title>dir_536697cc74adefb6a4e49829b335876b&#45;&gt;dir_fe7f2abeee7478b65c454e045f003ee1</title>
<g id="a_edge7"><a xlink:href="dir_000123_000490.html" target="_top">
<path fill="none" stroke="#63b8ff" d="M385.94,-193.07C379.34,-191.64 371.87,-190.13 365,-189 296.56,-177.78 101.12,-204.79 55,-153 -6.52,-83.93 182.63,-48.7 254.49,-38.06"/>
<polygon fill="#63b8ff" stroke="#63b8ff" points="255.18,-41.49 264.58,-36.61 254.19,-34.57 255.18,-41.49"/>
</a>
</g>
<g id="a_edge7&#45;headlabel"><a xlink:href="dir_000123_000490.html" target="_top" xlink:title="42">
<text text-anchor="middle" x="252.03" y="-42.31" font-family="Helvetica,sans-Serif" font-size="10.00" fill="#63b8ff">42</text>
</a>
</g>
</g>
<!-- dir_09383d60383568eadd55fb8da7ff392b -->
<g id="node15" class="node">
<title>dir_09383d60383568eadd55fb8da7ff392b</title>
<g id="a_node15"><a xlink:href="dir_09383d60383568eadd55fb8da7ff392b.html" target="_top" xlink:title="opencv2">
<polygon fill="#edf0f7" stroke="red" points="702,-43 644,-43 644,-24 702,-24 702,-43"/>
<text text-anchor="middle" x="673" y="-31" font-family="Helvetica,sans-Serif" font-size="10.00">opencv2</text>
</a>
</g>
</g>
<!-- dir_536697cc74adefb6a4e49829b335876b&#45;&gt;dir_09383d60383568eadd55fb8da7ff392b -->
<g id="edge1" class="edge">
<title>dir_536697cc74adefb6a4e49829b335876b&#45;&gt;dir_09383d60383568eadd55fb8da7ff392b</title>
<g id="a_edge1"><a xlink:href="dir_000123_000249.html" target="_top">
<path fill="none" stroke="#63b8ff" d="M424.33,-196.5C494.39,-192.69 732,-177.98 754,-153 775.74,-128.32 770.75,-107.31 754,-79 744.8,-63.45 728.02,-52.97 712.1,-46.1"/>
<polygon fill="#63b8ff" stroke="#63b8ff" points="712.97,-42.68 702.38,-42.29 710.41,-49.2 712.97,-42.68"/>
</a>
</g>
<g id="a_edge1&#45;headlabel"><a xlink:href="dir_000123_000249.html" target="_top" xlink:title="15">
<text text-anchor="middle" x="717.36" y="-38.86" font-family="Helvetica,sans-Serif" font-size="10.00" fill="#63b8ff">15</text>
</a>
</g>
</g>
<!-- dir_7a9ce587a6713d21aa5d5f0d7b3f50e2 -->
<g id="node16" class="node">
<title>dir_7a9ce587a6713d21aa5d5f0d7b3f50e2</title>
<g id="a_node16"><a xlink:href="dir_7a9ce587a6713d21aa5d5f0d7b3f50e2.html" target="_top" xlink:title="opencv2">
<polygon fill="#edf0f7" stroke="red" points="864,-153 806,-153 806,-134 864,-134 864,-153"/>
<text text-anchor="middle" x="835" y="-141" font-family="Helvetica,sans-Serif" font-size="10.00">opencv2</text>
</a>
</g>
</g>
<!-- dir_536697cc74adefb6a4e49829b335876b&#45;&gt;dir_7a9ce587a6713d21aa5d5f0d7b3f50e2 -->
<g id="edge4" class="edge">
<title>dir_536697cc74adefb6a4e49829b335876b&#45;&gt;dir_7a9ce587a6713d21aa5d5f0d7b3f50e2</title>
<g id="a_edge4"><a xlink:href="dir_000123_000256.html" target="_top">
<path fill="none" stroke="#63b8ff" d="M424.4,-195.83C481.15,-190.82 651.68,-174.9 792,-153 793.27,-152.8 794.56,-152.59 795.86,-152.38"/>
<polygon fill="#63b8ff" stroke="#63b8ff" points="796.68,-155.78 805.91,-150.58 795.45,-148.89 796.68,-155.78"/>
</a>
</g>
<g id="a_edge4&#45;headlabel"><a xlink:href="dir_000123_000256.html" target="_top" xlink:title="2">
<text text-anchor="middle" x="793.64" y="-156.71" font-family="Helvetica,sans-Serif" font-size="10.00" fill="#63b8ff">2</text>
</a>
</g>
</g>
<!-- dir_df230db2f048b1ba9c1345e0a6cc9e1d -->
<g id="node2" class="node">
<title>dir_df230db2f048b1ba9c1345e0a6cc9e1d</title>
<g id="a_node2"><a xlink:href="dir_df230db2f048b1ba9c1345e0a6cc9e1d.html" target="_top" xlink:title="cpu">
<polygon fill="#a2b4d6" stroke="#404040" points="458,-153 424,-153 424,-134 458,-134 458,-153"/>
<text text-anchor="middle" x="441" y="-141" font-family="Helvetica,sans-Serif" font-size="10.00">cpu</text>
</a>
</g>
</g>
<!-- dir_df230db2f048b1ba9c1345e0a6cc9e1d&#45;&gt;dir_77b4af01d0e593cb66ccff943206ddcc -->
<g id="edge9" class="edge">
<title>dir_df230db2f048b1ba9c1345e0a6cc9e1d&#45;&gt;dir_77b4af01d0e593cb66ccff943206ddcc</title>
<g id="a_edge9"><a xlink:href="dir_000045_000326.html" target="_top">
<path fill="none" stroke="#63b8ff" d="M423.69,-134.45C405.43,-125.96 376.39,-112.46 354.89,-102.47"/>
<polygon fill="#63b8ff" stroke="#63b8ff" points="356.16,-99.2 345.62,-98.15 353.21,-105.54 356.16,-99.2"/>
</a>
</g>
<g id="a_edge9&#45;headlabel"><a xlink:href="dir_000045_000326.html" target="_top" xlink:title="1">
<text text-anchor="middle" x="360.62" y="-95.64" font-family="Helvetica,sans-Serif" font-size="10.00" fill="#63b8ff">1</text>
</a>
</g>
</g>
<!-- dir_df230db2f048b1ba9c1345e0a6cc9e1d&#45;&gt;dir_fe7f2abeee7478b65c454e045f003ee1 -->
<g id="edge10" class="edge">
<title>dir_df230db2f048b1ba9c1345e0a6cc9e1d&#45;&gt;dir_fe7f2abeee7478b65c454e045f003ee1</title>
<g id="a_edge10"><a xlink:href="dir_000045_000490.html" target="_top">
<path fill="none" stroke="#63b8ff" d="M429.95,-133.98C413.63,-121.5 381.99,-97.7 354,-79 337.8,-68.18 319.02,-56.76 304.57,-48.19"/>
<polygon fill="#63b8ff" stroke="#63b8ff" points="306.16,-45.07 295.77,-43.01 302.61,-51.1 306.16,-45.07"/>
</a>
</g>
<g id="a_edge10&#45;headlabel"><a xlink:href="dir_000045_000490.html" target="_top" xlink:title="2">
<text text-anchor="middle" x="310.7" y="-41.94" font-family="Helvetica,sans-Serif" font-size="10.00" fill="#63b8ff">2</text>
</a>
</g>
</g>
<!-- dir_df230db2f048b1ba9c1345e0a6cc9e1d&#45;&gt;dir_09383d60383568eadd55fb8da7ff392b -->
<g id="edge8" class="edge">
<title>dir_df230db2f048b1ba9c1345e0a6cc9e1d&#45;&gt;dir_09383d60383568eadd55fb8da7ff392b</title>
<g id="a_edge8"><a xlink:href="dir_000045_000249.html" target="_top">
<path fill="none" stroke="#63b8ff" d="M458.05,-135.77C479.12,-127.35 516.01,-112.29 547,-98 582.5,-81.63 622.71,-60.99 647.96,-47.76"/>
<polygon fill="#63b8ff" stroke="#63b8ff" points="649.64,-50.83 656.87,-43.08 646.39,-44.64 649.64,-50.83"/>
</a>
</g>
<g id="a_edge8&#45;headlabel"><a xlink:href="dir_000045_000249.html" target="_top" xlink:title="3">
<text text-anchor="middle" x="647.78" y="-52.52" font-family="Helvetica,sans-Serif" font-size="10.00" fill="#63b8ff">3</text>
</a>
</g>
</g>
<!-- dir_adb3d92d787b9c88df4ba1a5340d276e -->
<g id="node3" class="node">
<title>dir_adb3d92d787b9c88df4ba1a5340d276e</title>
<g id="a_node3"><a xlink:href="dir_adb3d92d787b9c88df4ba1a5340d276e.html" target="_top" xlink:title="fluid">
<polygon fill="#a2b4d6" stroke="#404040" points="102,-153 64,-153 64,-134 102,-134 102,-153"/>
<text text-anchor="middle" x="83" y="-141" font-family="Helvetica,sans-Serif" font-size="10.00">fluid</text>
</a>
</g>
</g>
<!-- dir_adb3d92d787b9c88df4ba1a5340d276e&#45;&gt;dir_77b4af01d0e593cb66ccff943206ddcc -->
<g id="edge11" class="edge">
<title>dir_adb3d92d787b9c88df4ba1a5340d276e&#45;&gt;dir_77b4af01d0e593cb66ccff943206ddcc</title>
<g id="a_edge11"><a xlink:href="dir_000119_000326.html" target="_top">
<path fill="none" stroke="#63b8ff" d="M102.21,-136.41C105.15,-135.56 108.14,-134.73 111,-134 177.56,-117.08 256.9,-102.02 298.43,-94.52"/>
<polygon fill="#63b8ff" stroke="#63b8ff" points="299.15,-97.95 308.38,-92.74 297.92,-91.06 299.15,-97.95"/>
</a>
</g>
<g id="a_edge11&#45;headlabel"><a xlink:href="dir_000119_000326.html" target="_top" xlink:title="2">
<text text-anchor="middle" x="296.11" y="-98.88" font-family="Helvetica,sans-Serif" font-size="10.00" fill="#63b8ff">2</text>
</a>
</g>
</g>
<!-- dir_adb3d92d787b9c88df4ba1a5340d276e&#45;&gt;dir_fe7f2abeee7478b65c454e045f003ee1 -->
<g id="edge12" class="edge">
<title>dir_adb3d92d787b9c88df4ba1a5340d276e&#45;&gt;dir_fe7f2abeee7478b65c454e045f003ee1</title>
<g id="a_edge12"><a xlink:href="dir_000119_000490.html" target="_top">
<path fill="none" stroke="#63b8ff" d="M98.87,-133.84C133.35,-115.04 215.31,-70.33 256.49,-47.87"/>
<polygon fill="#63b8ff" stroke="#63b8ff" points="258.23,-50.91 265.33,-43.05 254.88,-44.76 258.23,-50.91"/>
</a>
</g>
<g id="a_edge12&#45;headlabel"><a xlink:href="dir_000119_000490.html" target="_top" xlink:title="1">
<text text-anchor="middle" x="256.43" y="-52.62" font-family="Helvetica,sans-Serif" font-size="10.00" fill="#63b8ff">1</text>
</a>
</g>
</g>
<!-- dir_57ae3565b7f15dd6306729c1c3752b4a -->
<g id="node4" class="node">
<title>dir_57ae3565b7f15dd6306729c1c3752b4a</title>
<g id="a_node4"><a xlink:href="dir_57ae3565b7f15dd6306729c1c3752b4a.html" target="_top" xlink:title="gpu">
<polygon fill="#a2b4d6" stroke="#404040" points="591.5,-208 556.5,-208 556.5,-189 591.5,-189 591.5,-208"/>
<text text-anchor="middle" x="574" y="-196" font-family="Helvetica,sans-Serif" font-size="10.00">gpu</text>
</a>
</g>
</g>
<!-- dir_5cca466d676abe86053fc2720ef966c7 -->
<g id="node7" class="node">
<title>dir_5cca466d676abe86053fc2720ef966c7</title>
<g id="a_node7"><a xlink:href="dir_5cca466d676abe86053fc2720ef966c7.html" target="_top" xlink:title="ocl">
<polygon fill="#a2b4d6" stroke="#404040" points="591.5,-153 560.5,-153 560.5,-134 591.5,-134 591.5,-153"/>
<text text-anchor="middle" x="576" y="-141" font-family="Helvetica,sans-Serif" font-size="10.00">ocl</text>
</a>
</g>
</g>
<!-- dir_57ae3565b7f15dd6306729c1c3752b4a&#45;&gt;dir_5cca466d676abe86053fc2720ef966c7 -->
<g id="edge13" class="edge">
<title>dir_57ae3565b7f15dd6306729c1c3752b4a&#45;&gt;dir_5cca466d676abe86053fc2720ef966c7</title>
<g id="a_edge13"><a xlink:href="dir_000130_000245.html" target="_top">
<path fill="none" stroke="#63b8ff" d="M574.33,-188.75C574.59,-181.8 574.97,-171.85 575.3,-163.13"/>
<polygon fill="#63b8ff" stroke="#63b8ff" points="578.8,-163.21 575.68,-153.09 571.8,-162.95 578.8,-163.21"/>
</a>
</g>
<g id="a_edge13&#45;headlabel"><a xlink:href="dir_000130_000245.html" target="_top" xlink:title="3">
<text text-anchor="middle" x="581.5" y="-164.41" font-family="Helvetica,sans-Serif" font-size="10.00" fill="#63b8ff">3</text>
</a>
</g>
</g>
<!-- dir_97deea694ac11cc240f69105f2f9c2f3 -->
<g id="node5" class="node">
<title>dir_97deea694ac11cc240f69105f2f9c2f3</title>
<g id="a_node5"><a xlink:href="dir_97deea694ac11cc240f69105f2f9c2f3.html" target="_top" xlink:title="infer">
<polygon fill="#a2b4d6" stroke="#404040" points="356.5,-208 317.5,-208 317.5,-189 356.5,-189 356.5,-208"/>
<text text-anchor="middle" x="337" y="-196" font-family="Helvetica,sans-Serif" font-size="10.00">infer</text>
</a>
</g>
</g>
<!-- dir_97deea694ac11cc240f69105f2f9c2f3&#45;&gt;dir_77b4af01d0e593cb66ccff943206ddcc -->
<g id="edge16" class="edge">
<title>dir_97deea694ac11cc240f69105f2f9c2f3&#45;&gt;dir_77b4af01d0e593cb66ccff943206ddcc</title>
<g id="a_edge16"><a xlink:href="dir_000161_000326.html" target="_top">
<path fill="none" stroke="#63b8ff" d="M336.18,-188.66C334.56,-171.17 330.92,-131.8 328.74,-108.27"/>
<polygon fill="#63b8ff" stroke="#63b8ff" points="332.21,-107.79 327.8,-98.16 325.24,-108.44 332.21,-107.79"/>
</a>
</g>
<g id="a_edge16&#45;headlabel"><a xlink:href="dir_000161_000326.html" target="_top" xlink:title="4">
<text text-anchor="middle" x="335.37" y="-108.61" font-family="Helvetica,sans-Serif" font-size="10.00" fill="#63b8ff">4</text>
</a>
</g>
</g>
<!-- dir_97deea694ac11cc240f69105f2f9c2f3&#45;&gt;dir_0df6f59f747bded2299b76680461c9df -->
<g id="edge15" class="edge">
<title>dir_97deea694ac11cc240f69105f2f9c2f3&#45;&gt;dir_0df6f59f747bded2299b76680461c9df</title>
<g id="a_edge15"><a xlink:href="dir_000161_000448.html" target="_top">
<path fill="none" stroke="#63b8ff" d="M356.73,-191.42C384.6,-182.83 436.02,-166.99 471.34,-156.1"/>
<polygon fill="#63b8ff" stroke="#63b8ff" points="472.76,-159.33 481.29,-153.04 470.7,-152.64 472.76,-159.33"/>
</a>
</g>
<g id="a_edge15&#45;headlabel"><a xlink:href="dir_000161_000448.html" target="_top" xlink:title="1">
<text text-anchor="middle" x="470.17" y="-160.6" font-family="Helvetica,sans-Serif" font-size="10.00" fill="#63b8ff">1</text>
</a>
</g>
</g>
<!-- dir_97deea694ac11cc240f69105f2f9c2f3&#45;&gt;dir_fe7f2abeee7478b65c454e045f003ee1 -->
<g id="edge17" class="edge">
<title>dir_97deea694ac11cc240f69105f2f9c2f3&#45;&gt;dir_fe7f2abeee7478b65c454e045f003ee1</title>
<g id="a_edge17"><a xlink:href="dir_000161_000490.html" target="_top">
<path fill="none" stroke="#63b8ff" d="M317.32,-197.72C256.93,-197.93 76.15,-194.97 40,-153 18.54,-128.08 18.96,-104.28 40,-79 67.11,-46.42 197.97,-37.6 254.69,-35.29"/>
<polygon fill="#63b8ff" stroke="#63b8ff" points="255.13,-38.78 264.99,-34.91 254.87,-31.78 255.13,-38.78"/>
</a>
</g>
<g id="a_edge17&#45;headlabel"><a xlink:href="dir_000161_000490.html" target="_top" xlink:title="6">
<text text-anchor="middle" x="251.64" y="-39.25" font-family="Helvetica,sans-Serif" font-size="10.00" fill="#63b8ff">6</text>
</a>
</g>
</g>
<!-- dir_97deea694ac11cc240f69105f2f9c2f3&#45;&gt;dir_09383d60383568eadd55fb8da7ff392b -->
<g id="edge14" class="edge">
<title>dir_97deea694ac11cc240f69105f2f9c2f3&#45;&gt;dir_09383d60383568eadd55fb8da7ff392b</title>
<g id="a_edge14"><a xlink:href="dir_000161_000249.html" target="_top">
<path fill="none" stroke="#63b8ff" d="M356.9,-193.07C363.3,-191.7 370.44,-190.23 377,-189 475.69,-170.56 505.14,-185.87 600,-153 647.56,-136.52 673.47,-141.38 699,-98 707.92,-82.84 697.9,-64.04 687.82,-50.85"/>
<polygon fill="#63b8ff" stroke="#63b8ff" points="690.46,-48.55 681.39,-43.08 685.07,-53.01 690.46,-48.55"/>
</a>
</g>
<g id="a_edge14&#45;headlabel"><a xlink:href="dir_000161_000249.html" target="_top" xlink:title="2">
<text text-anchor="middle" x="694.94" y="-47.01" font-family="Helvetica,sans-Serif" font-size="10.00" fill="#63b8ff">2</text>
</a>
</g>
</g>
<!-- dir_fb41bee08009b69ad28fdcb53caffbfa -->
<g id="node6" class="node">
<title>dir_fb41bee08009b69ad28fdcb53caffbfa</title>
<g id="a_node6"><a xlink:href="dir_fb41bee08009b69ad28fdcb53caffbfa.html" target="_top" xlink:title="oak">
<polygon fill="#a2b4d6" stroke="#404040" points="538.5,-98 503.5,-98 503.5,-79 538.5,-79 538.5,-98"/>
<text text-anchor="middle" x="521" y="-86" font-family="Helvetica,sans-Serif" font-size="10.00">oak</text>
</a>
</g>
</g>
<!-- dir_fb41bee08009b69ad28fdcb53caffbfa&#45;&gt;dir_fe7f2abeee7478b65c454e045f003ee1 -->
<g id="edge19" class="edge">
<title>dir_fb41bee08009b69ad28fdcb53caffbfa&#45;&gt;dir_fe7f2abeee7478b65c454e045f003ee1</title>
<g id="a_edge19"><a xlink:href="dir_000241_000490.html" target="_top">
<path fill="none" stroke="#63b8ff" d="M503.35,-83.6C461.5,-74.36 356.06,-51.08 306.94,-40.23"/>
<polygon fill="#63b8ff" stroke="#63b8ff" points="307.6,-36.79 297.08,-38.05 306.09,-43.63 307.6,-36.79"/>
</a>
</g>
<g id="a_edge19&#45;headlabel"><a xlink:href="dir_000241_000490.html" target="_top" xlink:title="1">
<text text-anchor="middle" x="311.72" y="-32.29" font-family="Helvetica,sans-Serif" font-size="10.00" fill="#63b8ff">1</text>
</a>
</g>
</g>
<!-- dir_fb41bee08009b69ad28fdcb53caffbfa&#45;&gt;dir_09383d60383568eadd55fb8da7ff392b -->
<g id="edge18" class="edge">
<title>dir_fb41bee08009b69ad28fdcb53caffbfa&#45;&gt;dir_09383d60383568eadd55fb8da7ff392b</title>
<g id="a_edge18"><a xlink:href="dir_000241_000249.html" target="_top">
<path fill="none" stroke="#63b8ff" d="M538.73,-81.32C563.25,-72.77 608,-57.16 639.06,-46.33"/>
<polygon fill="#63b8ff" stroke="#63b8ff" points="640.33,-49.6 648.62,-43 638.03,-42.99 640.33,-49.6"/>
</a>
</g>
<g id="a_edge18&#45;headlabel"><a xlink:href="dir_000241_000249.html" target="_top" xlink:title="1">
<text text-anchor="middle" x="637.87" y="-50.96" font-family="Helvetica,sans-Serif" font-size="10.00" fill="#63b8ff">1</text>
</a>
</g>
</g>
<!-- dir_5cca466d676abe86053fc2720ef966c7&#45;&gt;dir_09383d60383568eadd55fb8da7ff392b -->
<g id="edge20" class="edge">
<title>dir_5cca466d676abe86053fc2720ef966c7&#45;&gt;dir_09383d60383568eadd55fb8da7ff392b</title>
<g id="a_edge20"><a xlink:href="dir_000245_000249.html" target="_top">
<path fill="none" stroke="#63b8ff" d="M591.76,-141.23C616.17,-138.31 662.46,-128.79 683,-98 691.98,-84.54 687.58,-65.95 682.07,-52.36"/>
<polygon fill="#63b8ff" stroke="#63b8ff" points="685.19,-50.76 677.85,-43.11 678.82,-53.67 685.19,-50.76"/>
</a>
</g>
<g id="a_edge20&#45;headlabel"><a xlink:href="dir_000245_000249.html" target="_top" xlink:title="3">
<text text-anchor="middle" x="689.26" y="-50.35" font-family="Helvetica,sans-Serif" font-size="10.00" fill="#63b8ff">3</text>
</a>
</g>
</g>
<!-- dir_77b4af01d0e593cb66ccff943206ddcc&#45;&gt;dir_fe7f2abeee7478b65c454e045f003ee1 -->
<g id="edge22" class="edge">
<title>dir_77b4af01d0e593cb66ccff943206ddcc&#45;&gt;dir_fe7f2abeee7478b65c454e045f003ee1</title>
<g id="a_edge22"><a xlink:href="dir_000326_000490.html" target="_top">
<path fill="none" stroke="#63b8ff" d="M319.4,-78.75C312.84,-71.18 303.18,-60.05 295.19,-50.84"/>
<polygon fill="#63b8ff" stroke="#63b8ff" points="297.65,-48.35 288.45,-43.09 292.37,-52.94 297.65,-48.35"/>
</a>
</g>
<g id="a_edge22&#45;headlabel"><a xlink:href="dir_000326_000490.html" target="_top" xlink:title="3">
<text text-anchor="middle" x="302.15" y="-46.7" font-family="Helvetica,sans-Serif" font-size="10.00" fill="#63b8ff">3</text>
</a>
</g>
</g>
<!-- dir_77b4af01d0e593cb66ccff943206ddcc&#45;&gt;dir_09383d60383568eadd55fb8da7ff392b -->
<g id="edge21" class="edge">
<title>dir_77b4af01d0e593cb66ccff943206ddcc&#45;&gt;dir_09383d60383568eadd55fb8da7ff392b</title>
<g id="a_edge21"><a xlink:href="dir_000326_000249.html" target="_top">
<path fill="none" stroke="#63b8ff" d="M345.6,-84.65C399.96,-76.32 559.41,-51.9 633.86,-40.5"/>
<polygon fill="#63b8ff" stroke="#63b8ff" points="634.43,-43.95 643.78,-38.98 633.37,-37.03 634.43,-43.95"/>
</a>
</g>
<g id="a_edge21&#45;headlabel"><a xlink:href="dir_000326_000249.html" target="_top" xlink:title="1">
<text text-anchor="middle" x="631.31" y="-44.8" font-family="Helvetica,sans-Serif" font-size="10.00" fill="#63b8ff">1</text>
</a>
</g>
</g>
<!-- dir_d358666451455ca74c70e5d7062d6fc8 -->
<g id="node9" class="node">
<title>dir_d358666451455ca74c70e5d7062d6fc8</title>
<g id="a_node9"><a xlink:href="dir_d358666451455ca74c70e5d7062d6fc8.html" target="_top" xlink:title="plaidml">
<polygon fill="#a2b4d6" stroke="#404040" points="307.5,-153 254.5,-153 254.5,-134 307.5,-134 307.5,-153"/>
<text text-anchor="middle" x="281" y="-141" font-family="Helvetica,sans-Serif" font-size="10.00">plaidml</text>
</a>
</g>
</g>
<!-- dir_d358666451455ca74c70e5d7062d6fc8&#45;&gt;dir_77b4af01d0e593cb66ccff943206ddcc -->
<g id="edge23" class="edge">
<title>dir_d358666451455ca74c70e5d7062d6fc8&#45;&gt;dir_77b4af01d0e593cb66ccff943206ddcc</title>
<g id="a_edge23"><a xlink:href="dir_000331_000326.html" target="_top">
<path fill="none" stroke="#63b8ff" d="M288.6,-133.75C295.16,-126.18 304.82,-115.05 312.81,-105.84"/>
<polygon fill="#63b8ff" stroke="#63b8ff" points="315.63,-107.94 319.55,-98.09 310.35,-103.35 315.63,-107.94"/>
</a>
</g>
<g id="a_edge23&#45;headlabel"><a xlink:href="dir_000331_000326.html" target="_top" xlink:title="1">
<text text-anchor="middle" x="315.42" y="-110.01" font-family="Helvetica,sans-Serif" font-size="10.00" fill="#63b8ff">1</text>
</a>
</g>
</g>
<!-- dir_34ae1e576d22ce8869c05b53a11078e0 -->
<g id="node10" class="node">
<title>dir_34ae1e576d22ce8869c05b53a11078e0</title>
<g id="a_node10"><a xlink:href="dir_34ae1e576d22ce8869c05b53a11078e0.html" target="_top" xlink:title="python">
<polygon fill="#a2b4d6" stroke="#404040" points="236,-153 186,-153 186,-134 236,-134 236,-153"/>
<text text-anchor="middle" x="211" y="-141" font-family="Helvetica,sans-Serif" font-size="10.00">python</text>
</a>
</g>
</g>
<!-- dir_34ae1e576d22ce8869c05b53a11078e0&#45;&gt;dir_77b4af01d0e593cb66ccff943206ddcc -->
<g id="edge24" class="edge">
<title>dir_34ae1e576d22ce8869c05b53a11078e0&#45;&gt;dir_77b4af01d0e593cb66ccff943206ddcc</title>
<g id="a_edge24"><a xlink:href="dir_000417_000326.html" target="_top">
<path fill="none" stroke="#63b8ff" d="M229.64,-133.98C248.41,-125.41 277.6,-112.07 299.12,-102.24"/>
<polygon fill="#63b8ff" stroke="#63b8ff" points="300.77,-105.33 308.41,-97.99 297.86,-98.97 300.77,-105.33"/>
</a>
</g>
<g id="a_edge24&#45;headlabel"><a xlink:href="dir_000417_000326.html" target="_top" xlink:title="1">
<text text-anchor="middle" x="298.68" y="-106.91" font-family="Helvetica,sans-Serif" font-size="10.00" fill="#63b8ff">1</text>
</a>
</g>
</g>
<!-- dir_91f86cd07dde88d409f131773720d870&#45;&gt;dir_77b4af01d0e593cb66ccff943206ddcc -->
<g id="edge25" class="edge">
<title>dir_91f86cd07dde88d409f131773720d870&#45;&gt;dir_77b4af01d0e593cb66ccff943206ddcc</title>
<g id="a_edge25"><a xlink:href="dir_000426_000326.html" target="_top">
<path fill="none" stroke="#63b8ff" d="M168.3,-135.46C202.02,-125.7 262.86,-108.08 298.62,-97.72"/>
<polygon fill="#63b8ff" stroke="#63b8ff" points="299.79,-101.02 308.42,-94.88 297.85,-94.3 299.79,-101.02"/>
</a>
</g>
<g id="a_edge25&#45;headlabel"><a xlink:href="dir_000426_000326.html" target="_top" xlink:title="1">
<text text-anchor="middle" x="297.13" y="-102.25" font-family="Helvetica,sans-Serif" font-size="10.00" fill="#63b8ff">1</text>
</a>
</g>
</g>
<!-- dir_91f86cd07dde88d409f131773720d870&#45;&gt;dir_fe7f2abeee7478b65c454e045f003ee1 -->
<g id="edge26" class="edge">
<title>dir_91f86cd07dde88d409f131773720d870&#45;&gt;dir_fe7f2abeee7478b65c454e045f003ee1</title>
<g id="a_edge26"><a xlink:href="dir_000426_000490.html" target="_top">
<path fill="none" stroke="#63b8ff" d="M155.21,-133.66C178.61,-115.22 232.87,-72.45 261.88,-49.57"/>
<polygon fill="#63b8ff" stroke="#63b8ff" points="264.33,-52.1 270.02,-43.16 260,-46.6 264.33,-52.1"/>
</a>
</g>
<g id="a_edge26&#45;headlabel"><a xlink:href="dir_000426_000490.html" target="_top" xlink:title="1">
<text text-anchor="middle" x="263.27" y="-54.05" font-family="Helvetica,sans-Serif" font-size="10.00" fill="#63b8ff">1</text>
</a>
</g>
</g>
<!-- dir_a7c6b3a37dbb131a4ce46e72cd4ec12a&#45;&gt;dir_77b4af01d0e593cb66ccff943206ddcc -->
<g id="edge27" class="edge">
<title>dir_a7c6b3a37dbb131a4ce46e72cd4ec12a&#45;&gt;dir_77b4af01d0e593cb66ccff943206ddcc</title>
<g id="a_edge27"><a xlink:href="dir_000430_000326.html" target="_top">
<path fill="none" stroke="#63b8ff" d="M359.56,-133.75C354.11,-126.34 346.14,-115.5 339.44,-106.41"/>
<polygon fill="#63b8ff" stroke="#63b8ff" points="342.07,-104.07 333.32,-98.09 336.43,-108.22 342.07,-104.07"/>
</a>
</g>
<g id="a_edge27&#45;headlabel"><a xlink:href="dir_000430_000326.html" target="_top" xlink:title="2">
<text text-anchor="middle" x="346.48" y="-102.78" font-family="Helvetica,sans-Serif" font-size="10.00" fill="#63b8ff">2</text>
</a>
</g>
</g>
<!-- dir_0df6f59f747bded2299b76680461c9df&#45;&gt;dir_77b4af01d0e593cb66ccff943206ddcc -->
<g id="edge29" class="edge">
<title>dir_0df6f59f747bded2299b76680461c9df&#45;&gt;dir_77b4af01d0e593cb66ccff943206ddcc</title>
<g id="a_edge29"><a xlink:href="dir_000448_000326.html" target="_top">
<path fill="none" stroke="#63b8ff" d="M479.76,-133.98C445.52,-124.01 389.19,-107.61 355.35,-97.75"/>
<polygon fill="#63b8ff" stroke="#63b8ff" points="356.19,-94.36 345.61,-94.92 354.23,-101.08 356.19,-94.36"/>
</a>
</g>
<g id="a_edge29&#45;headlabel"><a xlink:href="dir_000448_000326.html" target="_top" xlink:title="4">
<text text-anchor="middle" x="360.44" y="-90.13" font-family="Helvetica,sans-Serif" font-size="10.00" fill="#63b8ff">4</text>
</a>
</g>
</g>
<!-- dir_0df6f59f747bded2299b76680461c9df&#45;&gt;dir_fe7f2abeee7478b65c454e045f003ee1 -->
<g id="edge30" class="edge">
<title>dir_0df6f59f747bded2299b76680461c9df&#45;&gt;dir_fe7f2abeee7478b65c454e045f003ee1</title>
<g id="a_edge30"><a xlink:href="dir_000448_000490.html" target="_top">
<path fill="none" stroke="#63b8ff" d="M490.73,-133.84C450.18,-114.64 352.62,-68.42 306.27,-46.47"/>
<polygon fill="#63b8ff" stroke="#63b8ff" points="307.73,-43.29 297.19,-42.17 304.73,-49.61 307.73,-43.29"/>
</a>
</g>
<g id="a_edge30&#45;headlabel"><a xlink:href="dir_000448_000490.html" target="_top" xlink:title="2">
<text text-anchor="middle" x="312.19" y="-39.76" font-family="Helvetica,sans-Serif" font-size="10.00" fill="#63b8ff">2</text>
</a>
</g>
</g>
<!-- dir_4a91d1ed996825079c5c83ae39b4e165 -->
<g id="node17" class="node">
<title>dir_4a91d1ed996825079c5c83ae39b4e165</title>
<g id="a_node17"><a xlink:href="dir_4a91d1ed996825079c5c83ae39b4e165.html" target="_top" xlink:title="opencv2">
<polygon fill="#edf0f7" stroke="red" points="674,-98 616,-98 616,-79 674,-79 674,-98"/>
<text text-anchor="middle" x="645" y="-86" font-family="Helvetica,sans-Serif" font-size="10.00">opencv2</text>
</a>
</g>
</g>
<!-- dir_0df6f59f747bded2299b76680461c9df&#45;&gt;dir_4a91d1ed996825079c5c83ae39b4e165 -->
<g id="edge28" class="edge">
<title>dir_0df6f59f747bded2299b76680461c9df&#45;&gt;dir_4a91d1ed996825079c5c83ae39b4e165</title>
<g id="a_edge28"><a xlink:href="dir_000448_000262.html" target="_top">
<path fill="none" stroke="#63b8ff" d="M530.85,-133.98C553.12,-125.3 587.9,-111.75 613.22,-101.88"/>
<polygon fill="#63b8ff" stroke="#63b8ff" points="614.71,-105.06 622.75,-98.17 612.16,-98.54 614.71,-105.06"/>
</a>
</g>
<g id="a_edge28&#45;headlabel"><a xlink:href="dir_000448_000262.html" target="_top" xlink:title="1">
<text text-anchor="middle" x="612.39" y="-106.51" font-family="Helvetica,sans-Serif" font-size="10.00" fill="#63b8ff">1</text>
</a>
</g>
</g>
</g>
</svg>
