<?xml version="1.0" encoding="UTF-8" standalone="no"?>
<!DOCTYPE svg PUBLIC "-//W3C//DTD SVG 1.1//EN"
 "http://www.w3.org/Graphics/SVG/1.1/DTD/svg11.dtd">
<!-- Generated by graphviz version 2.43.0 (0)
 -->
<!-- Title: tuple_element&lt; N, cv::cudev::ZipPtr&lt; tuple&lt; Types... &gt; &gt; &gt; Pages: 1 -->
<svg width="139pt" height="175pt"
 viewBox="0.00 0.00 139.00 175.00" xmlns="http://www.w3.org/2000/svg" xmlns:xlink="http://www.w3.org/1999/xlink">
<g id="graph0" class="graph" transform="scale(1 1) rotate(0) translate(4 171)">
<title>tuple_element&lt; N, cv::cudev::ZipPtr&lt; tuple&lt; Types... &gt; &gt; &gt;</title>
<!-- Node1 -->
<g id="Node000001" class="node">
<title>Node1</title>
<g id="a_Node000001"><a xlink:title=" ">
<polygon fill="#999999" stroke="transparent" points="124,-71 7,-71 7,0 124,0 124,-71"/>
<text text-anchor="start" x="12.5" y="-58.5" font-family="Helvetica,sans-Serif" font-size="10.00">tuple_element&lt; N, cv</text>
<text text-anchor="start" x="12.5" y="-47.5" font-family="Helvetica,sans-Serif" font-size="10.00">::cudev::ZipPtr&lt; tuple</text>
<text text-anchor="start" x="25" y="-36.5" font-family="Helvetica,sans-Serif" font-size="10.00">&lt; Types... &gt; &gt; &gt;</text>
<text text-anchor="start" x="64" y="-21.5" font-family="Helvetica,sans-Serif" font-size="10.00"> </text>
<text text-anchor="start" x="64" y="-6.5" font-family="Helvetica,sans-Serif" font-size="10.00"> </text>
<polygon fill="#666666" stroke="#666666" points="7.5,-31.5 7.5,-31.5 124.5,-31.5 124.5,-31.5 7.5,-31.5"/>
<polygon fill="#666666" stroke="#666666" points="7.5,-16.5 7.5,-16.5 124.5,-16.5 124.5,-16.5 7.5,-16.5"/>
<polygon fill="none" stroke="#666666" points="7,0 7,-71 124,-71 124,0 7,0"/>
</a>
</g>
</g>
<!-- Node2 -->
<g id="Node000002" class="node">
<title>Node2</title>
<g id="a_Node000002"><a xlink:title=" ">
<polygon fill="white" stroke="transparent" points="131,-167 0,-167 0,-107 131,-107 131,-167"/>
<text text-anchor="start" x="5.5" y="-155" font-family="Helvetica,sans-Serif" font-size="10.00">tuple_element&lt; N, tuple</text>
<text text-anchor="start" x="30.5" y="-144" font-family="Helvetica,sans-Serif" font-size="10.00">&lt; Types... &gt; &gt;</text>
<text text-anchor="start" x="64" y="-129" font-family="Helvetica,sans-Serif" font-size="10.00"> </text>
<text text-anchor="start" x="64" y="-114" font-family="Helvetica,sans-Serif" font-size="10.00"> </text>
<polygon fill="#666666" stroke="#666666" points="0.5,-139 0.5,-139 131.5,-139 131.5,-139 0.5,-139"/>
<polygon fill="#666666" stroke="#666666" points="0.5,-124 0.5,-124 131.5,-124 131.5,-124 0.5,-124"/>
<polygon fill="none" stroke="#666666" points="0,-107 0,-167 131,-167 131,-107 0,-107"/>
</a>
</g>
</g>
<!-- Node2&#45;&gt;Node1 -->
<g id="edge1_Node000001_Node000002" class="edge">
<title>Node2&#45;&gt;Node1</title>
<g id="a_edge1_Node000001_Node000002"><a xlink:title=" ">
<path fill="none" stroke="#63b8ff" d="M65.5,-96.84C65.5,-88.32 65.5,-79.36 65.5,-71.04"/>
<polygon fill="none" stroke="#63b8ff" points="62,-96.95 65.5,-106.95 69,-96.95 62,-96.95"/>
</a>
</g>
</g>
</g>
</svg>
