<?xml version="1.0" encoding="UTF-8" standalone="no"?>
<!DOCTYPE svg PUBLIC "-//W3C//DTD SVG 1.1//EN"
 "http://www.w3.org/Graphics/SVG/1.1/DTD/svg11.dtd">
<!-- Generated by graphviz version 2.43.0 (0)
 -->
<!-- Title: cv::gapi::core::G_TYPED_KERNEL_M Pages: 1 -->
<svg width="332pt" height="64pt"
 viewBox="0.00 0.00 332.00 64.00" xmlns="http://www.w3.org/2000/svg" xmlns:xlink="http://www.w3.org/1999/xlink">
<g id="graph0" class="graph" transform="scale(1 1) rotate(0) translate(4 60)">
<title>cv::gapi::core::G_TYPED_KERNEL_M</title>
<!-- Node1 -->
<g id="Node000001" class="node">
<title>Node1</title>
<g id="a_Node000001"><a xlink:title=" ">
<polygon fill="#999999" stroke="#666666" points="131,-42.5 0,-42.5 0,-12.5 131,-12.5 131,-42.5"/>
<text text-anchor="start" x="8" y="-30.5" font-family="Helvetica,sans-Serif" font-size="10.00">cv::gapi::core::G_TYPED</text>
<text text-anchor="middle" x="65.5" y="-19.5" font-family="Helvetica,sans-Serif" font-size="10.00">_KERNEL_M</text>
</a>
</g>
</g>
<!-- Node2 -->
<g id="Node000002" class="node">
<title>Node2</title>
<g id="a_Node000002"><a xlink:href="../../d0/d82/structcv_1_1GMatDesc.html#a964bd20bd0f7be0b171a13e256e637ab" target="_top" xlink:title=" ">
<polygon fill="white" stroke="#666666" points="315.5,-56 175.5,-56 175.5,-37 315.5,-37 315.5,-56"/>
<text text-anchor="middle" x="245.5" y="-44" font-family="Helvetica,sans-Serif" font-size="10.00">cv::GMatDesc::withDepth</text>
</a>
</g>
</g>
<!-- Node1&#45;&gt;Node2 -->
<g id="edge1_Node000001_Node000002" class="edge">
<title>Node1&#45;&gt;Node2</title>
<g id="a_edge1_Node000001_Node000002"><a xlink:title=" ">
<path fill="none" stroke="#63b8ff" d="M131.01,-34.39C142.17,-35.58 153.89,-36.83 165.38,-38.05"/>
<polygon fill="#63b8ff" stroke="#63b8ff" points="165.09,-41.54 175.4,-39.12 165.83,-34.58 165.09,-41.54"/>
</a>
</g>
</g>
<!-- Node3 -->
<g id="Node000003" class="node">
<title>Node3</title>
<g id="a_Node000003"><a xlink:href="../../d0/d82/structcv_1_1GMatDesc.html#ae2f65f0e4a1e95f25bf22d1438d3eedf" target="_top" xlink:title=" ">
<polygon fill="white" stroke="#666666" points="324,-19 167,-19 167,0 324,0 324,-19"/>
<text text-anchor="middle" x="245.5" y="-7" font-family="Helvetica,sans-Serif" font-size="10.00">cv::GMatDesc::withSizeDelta</text>
</a>
</g>
</g>
<!-- Node1&#45;&gt;Node3 -->
<g id="edge2_Node000001_Node000003" class="edge">
<title>Node1&#45;&gt;Node3</title>
<g id="a_edge2_Node000001_Node000003"><a xlink:title=" ">
<path fill="none" stroke="#63b8ff" d="M131.01,-20.98C139.38,-20.13 148.06,-19.25 156.72,-18.38"/>
<polygon fill="#63b8ff" stroke="#63b8ff" points="157.27,-21.84 166.87,-17.35 156.57,-14.87 157.27,-21.84"/>
</a>
</g>
</g>
</g>
</svg>
