<?xml version="1.0" encoding="UTF-8" standalone="no"?>
<!DOCTYPE svg PUBLIC "-//W3C//DTD SVG 1.1//EN"
 "http://www.w3.org/Graphics/SVG/1.1/DTD/svg11.dtd">
<!-- Generated by graphviz version 2.43.0 (0)
 -->
<!-- Title: cv::cudev::PyrUpBody::assignTo Pages: 1 -->
<svg width="666pt" height="204pt"
 viewBox="0.00 0.00 666.00 204.00" xmlns="http://www.w3.org/2000/svg" xmlns:xlink="http://www.w3.org/1999/xlink">
<g id="graph0" class="graph" transform="scale(1 1) rotate(0) translate(4 200)">
<title>cv::cudev::PyrUpBody::assignTo</title>
<!-- Node1 -->
<g id="Node000001" class="node">
<title>Node1</title>
<g id="a_Node000001"><a xlink:title=" ">
<polygon fill="#999999" stroke="#666666" points="122,-116 0,-116 0,-86 122,-86 122,-116"/>
<text text-anchor="start" x="8" y="-104" font-family="Helvetica,sans-Serif" font-size="10.00">cv::cudev::PyrUpBody</text>
<text text-anchor="middle" x="61" y="-93" font-family="Helvetica,sans-Serif" font-size="10.00">::assignTo</text>
</a>
</g>
</g>
<!-- Node2 -->
<g id="Node000002" class="node">
<title>Node2</title>
<g id="a_Node000002"><a xlink:href="../../df/dfc/group__cudev.html#ga3228f29cf4a56c4610a9f4111c53e779" target="_top" xlink:title=" ">
<polygon fill="white" stroke="#666666" points="274,-110.5 158,-110.5 158,-91.5 274,-91.5 274,-110.5"/>
<text text-anchor="middle" x="216" y="-98.5" font-family="Helvetica,sans-Serif" font-size="10.00">cv::cudev::gridPyrUp</text>
</a>
</g>
</g>
<!-- Node1&#45;&gt;Node2 -->
<g id="edge1_Node000001_Node000002" class="edge">
<title>Node1&#45;&gt;Node2</title>
<g id="a_edge1_Node000001_Node000002"><a xlink:title=" ">
<path fill="none" stroke="#63b8ff" d="M122.03,-101C130.36,-101 138.97,-101 147.43,-101"/>
<polygon fill="#63b8ff" stroke="#63b8ff" points="147.64,-104.5 157.64,-101 147.64,-97.5 147.64,-104.5"/>
</a>
</g>
</g>
<!-- Node3 -->
<g id="Node000003" class="node">
<title>Node3</title>
<g id="a_Node000003"><a xlink:href="../../d3/d1c/classcv_1_1cudev_1_1GpuMat__.html#a9d88407df08c49f1de5d2d062099c1fc" target="_top" xlink:title="allocates new GpuMat data unless the GpuMat already has specified size and type">
<polygon fill="white" stroke="#666666" points="436,-196 325,-196 325,-166 436,-166 436,-196"/>
<text text-anchor="start" x="333" y="-184" font-family="Helvetica,sans-Serif" font-size="10.00">cv::cudev::GpuMat_</text>
<text text-anchor="middle" x="380.5" y="-173" font-family="Helvetica,sans-Serif" font-size="10.00">::create</text>
</a>
</g>
</g>
<!-- Node2&#45;&gt;Node3 -->
<g id="edge2_Node000002_Node000003" class="edge">
<title>Node2&#45;&gt;Node3</title>
<g id="a_edge2_Node000002_Node000003"><a xlink:title=" ">
<path fill="none" stroke="#63b8ff" d="M230.98,-110.7C248.75,-122.71 280.63,-143.27 310,-157 313.84,-158.79 317.85,-160.53 321.92,-162.18"/>
<polygon fill="#63b8ff" stroke="#63b8ff" points="320.91,-165.54 331.49,-165.9 323.44,-159.02 320.91,-165.54"/>
</a>
</g>
</g>
<!-- Node4 -->
<g id="Node000004" class="node">
<title>Node4</title>
<g id="a_Node000004"><a xlink:href="../../df/dfc/group__cudev.html#gad6dab113b0778bcf03f9d0ebfe78ad10" target="_top" xlink:title=" ">
<polygon fill="white" stroke="#666666" points="432.5,-147.5 328.5,-147.5 328.5,-128.5 432.5,-128.5 432.5,-147.5"/>
<text text-anchor="middle" x="380.5" y="-135.5" font-family="Helvetica,sans-Serif" font-size="10.00">cv::cudev::getCols</text>
</a>
</g>
</g>
<!-- Node2&#45;&gt;Node4 -->
<g id="edge3_Node000002_Node000004" class="edge">
<title>Node2&#45;&gt;Node4</title>
<g id="a_edge3_Node000002_Node000004"><a xlink:title=" ">
<path fill="none" stroke="#63b8ff" d="M258.85,-110.53C279.81,-115.3 305.38,-121.12 327.58,-126.18"/>
<polygon fill="#63b8ff" stroke="#63b8ff" points="326.98,-129.63 337.51,-128.44 328.54,-122.81 326.98,-129.63"/>
</a>
</g>
</g>
<!-- Node6 -->
<g id="Node000006" class="node">
<title>Node6</title>
<g id="a_Node000006"><a xlink:href="../../df/dfc/group__cudev.html#gad690da4acd9ac0de7ab244ee1c5394b4" target="_top" xlink:title=" ">
<polygon fill="white" stroke="#666666" points="435.5,-110.5 325.5,-110.5 325.5,-91.5 435.5,-91.5 435.5,-110.5"/>
<text text-anchor="middle" x="380.5" y="-98.5" font-family="Helvetica,sans-Serif" font-size="10.00">cv::cudev::getRows</text>
</a>
</g>
</g>
<!-- Node2&#45;&gt;Node6 -->
<g id="edge5_Node000002_Node000006" class="edge">
<title>Node2&#45;&gt;Node6</title>
<g id="a_edge5_Node000002_Node000006"><a xlink:title=" ">
<path fill="none" stroke="#63b8ff" d="M274.29,-101C287.54,-101 301.73,-101 315.26,-101"/>
<polygon fill="#63b8ff" stroke="#63b8ff" points="315.45,-104.5 325.45,-101 315.45,-97.5 315.45,-104.5"/>
</a>
</g>
</g>
<!-- Node8 -->
<g id="Node000008" class="node">
<title>Node8</title>
<g id="a_Node000008"><a xlink:href="../../d6/df1/structcv_1_1cuda_1_1StreamAccessor.html#a5830d99635f08b462a429771bfad71a9" target="_top" xlink:title=" ">
<polygon fill="white" stroke="#666666" points="451,-73 310,-73 310,-43 451,-43 451,-73"/>
<text text-anchor="start" x="318" y="-61" font-family="Helvetica,sans-Serif" font-size="10.00">cv::cuda::StreamAccessor</text>
<text text-anchor="middle" x="380.5" y="-50" font-family="Helvetica,sans-Serif" font-size="10.00">::getStream</text>
</a>
</g>
</g>
<!-- Node2&#45;&gt;Node8 -->
<g id="edge7_Node000002_Node000008" class="edge">
<title>Node2&#45;&gt;Node8</title>
<g id="a_edge7_Node000002_Node000008"><a xlink:title=" ">
<path fill="none" stroke="#63b8ff" d="M253.06,-91.46C270.66,-86.8 292.41,-81.05 312.87,-75.63"/>
<polygon fill="#63b8ff" stroke="#63b8ff" points="314.02,-78.95 322.79,-73.01 312.23,-72.18 314.02,-78.95"/>
</a>
</g>
</g>
<!-- Node9 -->
<g id="Node000009" class="node">
<title>Node9</title>
<g id="a_Node000009"><a xlink:href="../../df/dfc/group__cudev.html#gaa3dcb9b45488dc7770dd40609724b531" target="_top" xlink:title=" ">
<polygon fill="white" stroke="#666666" points="436,-24.5 325,-24.5 325,-5.5 436,-5.5 436,-24.5"/>
<text text-anchor="middle" x="380.5" y="-12.5" font-family="Helvetica,sans-Serif" font-size="10.00">cv::cudev::shrinkPtr</text>
</a>
</g>
</g>
<!-- Node2&#45;&gt;Node9 -->
<g id="edge8_Node000002_Node000009" class="edge">
<title>Node2&#45;&gt;Node9</title>
<g id="a_edge8_Node000002_Node000009"><a xlink:title=" ">
<path fill="none" stroke="#63b8ff" d="M227.63,-91.35C244.1,-76.89 277.32,-49.61 310,-34 314.94,-31.64 320.22,-29.53 325.58,-27.66"/>
<polygon fill="#63b8ff" stroke="#63b8ff" points="326.82,-30.94 335.26,-24.54 324.67,-24.28 326.82,-30.94"/>
</a>
</g>
</g>
<!-- Node5 -->
<g id="Node000005" class="node">
<title>Node5</title>
<g id="a_Node000005"><a xlink:href="../../db/d3c/structcv_1_1cudev_1_1PtrTraitsBase.html#a8d71e329800db50f164dd41cc6699f2a" target="_top" xlink:title=" ">
<polygon fill="white" stroke="#666666" points="654.5,-158 490.5,-158 490.5,-128 654.5,-128 654.5,-158"/>
<text text-anchor="start" x="498.5" y="-146" font-family="Helvetica,sans-Serif" font-size="10.00">cv::cudev::PtrTraitsBase</text>
<text text-anchor="middle" x="572.5" y="-135" font-family="Helvetica,sans-Serif" font-size="10.00">&lt; Ptr2DSz, Ptr2DSz &gt;::getCols</text>
</a>
</g>
</g>
<!-- Node4&#45;&gt;Node5 -->
<g id="edge4_Node000004_Node000005" class="edge">
<title>Node4&#45;&gt;Node5</title>
<g id="a_edge4_Node000004_Node000005"><a xlink:title=" ">
<path fill="none" stroke="#63b8ff" d="M432.67,-139.35C447.32,-139.73 463.76,-140.16 480.05,-140.59"/>
<polygon fill="#63b8ff" stroke="#63b8ff" points="480.08,-144.1 490.17,-140.86 480.26,-137.1 480.08,-144.1"/>
</a>
</g>
</g>
<!-- Node7 -->
<g id="Node000007" class="node">
<title>Node7</title>
<g id="a_Node000007"><a xlink:href="../../db/d3c/structcv_1_1cudev_1_1PtrTraitsBase.html#abaa5f1be07d953c5035bdbf9c9d8231f" target="_top" xlink:title=" ">
<polygon fill="white" stroke="#666666" points="657.5,-110 487.5,-110 487.5,-80 657.5,-80 657.5,-110"/>
<text text-anchor="start" x="495.5" y="-98" font-family="Helvetica,sans-Serif" font-size="10.00">cv::cudev::PtrTraitsBase</text>
<text text-anchor="middle" x="572.5" y="-87" font-family="Helvetica,sans-Serif" font-size="10.00">&lt; Ptr2DSz, Ptr2DSz &gt;::getRows</text>
</a>
</g>
</g>
<!-- Node6&#45;&gt;Node7 -->
<g id="edge6_Node000006_Node000007" class="edge">
<title>Node6&#45;&gt;Node7</title>
<g id="a_edge6_Node000006_Node000007"><a xlink:title=" ">
<path fill="none" stroke="#63b8ff" d="M435.69,-99.29C448.67,-98.88 462.9,-98.43 477.11,-97.98"/>
<polygon fill="#63b8ff" stroke="#63b8ff" points="477.55,-101.47 487.43,-97.65 477.33,-94.47 477.55,-101.47"/>
</a>
</g>
</g>
<!-- Node10 -->
<g id="Node000010" class="node">
<title>Node10</title>
<g id="a_Node000010"><a xlink:href="../../db/d3c/structcv_1_1cudev_1_1PtrTraitsBase.html#a17d5c5dba728eeaa99bbc55f697245d4" target="_top" xlink:title=" ">
<polygon fill="white" stroke="#666666" points="658,-30 487,-30 487,0 658,0 658,-30"/>
<text text-anchor="start" x="495" y="-18" font-family="Helvetica,sans-Serif" font-size="10.00">cv::cudev::PtrTraitsBase</text>
<text text-anchor="middle" x="572.5" y="-7" font-family="Helvetica,sans-Serif" font-size="10.00">&lt; Ptr2DSz, Ptr2DSz &gt;::shrinkPtr</text>
</a>
</g>
</g>
<!-- Node9&#45;&gt;Node10 -->
<g id="edge9_Node000009_Node000010" class="edge">
<title>Node9&#45;&gt;Node10</title>
<g id="a_edge9_Node000009_Node000010"><a xlink:title=" ">
<path fill="none" stroke="#63b8ff" d="M436.2,-15C448.9,-15 462.79,-15 476.67,-15"/>
<polygon fill="#63b8ff" stroke="#63b8ff" points="476.75,-18.5 486.75,-15 476.75,-11.5 476.75,-18.5"/>
</a>
</g>
</g>
</g>
</svg>
