<?xml version="1.0" encoding="UTF-8" standalone="no"?>
<!DOCTYPE svg PUBLIC "-//W3C//DTD SVG 1.1//EN"
 "http://www.w3.org/Graphics/SVG/1.1/DTD/svg11.dtd">
<!-- Generated by graphviz version 2.43.0 (0)
 -->
<!-- Title: cv::cann::OperatorRunner::addInput Pages: 1 -->
<svg width="333pt" height="124pt"
 viewBox="0.00 0.00 333.00 124.00" xmlns="http://www.w3.org/2000/svg" xmlns:xlink="http://www.w3.org/1999/xlink">
<g id="graph0" class="graph" transform="scale(1 1) rotate(0) translate(4 120)">
<title>cv::cann::OperatorRunner::addInput</title>
<!-- Node1 -->
<g id="Node000001" class="node">
<title>Node1</title>
<g id="a_Node000001"><a xlink:title=" ">
<polygon fill="#999999" stroke="#666666" points="140,-73 0,-73 0,-43 140,-43 140,-73"/>
<text text-anchor="start" x="8" y="-61" font-family="Helvetica,sans-Serif" font-size="10.00">cv::cann::OperatorRunner</text>
<text text-anchor="middle" x="70" y="-50" font-family="Helvetica,sans-Serif" font-size="10.00">::addInput</text>
</a>
</g>
</g>
<!-- Node2 -->
<g id="Node000002" class="node">
<title>Node2</title>
<g id="a_Node000002"><a xlink:href="../../d3/d85/classcv_1_1cann_1_1AscendMat.html#afccc73d5f17e9033df0302c3babe3a30" target="_top" xlink:title="Create default allocator for AscendMat. This allocator alloc memory from device for specific size.">
<polygon fill="white" stroke="#666666" points="308.5,-116 192.5,-116 192.5,-86 308.5,-86 308.5,-116"/>
<text text-anchor="start" x="200.5" y="-104" font-family="Helvetica,sans-Serif" font-size="10.00">cv::cann::AscendMat</text>
<text text-anchor="middle" x="250.5" y="-93" font-family="Helvetica,sans-Serif" font-size="10.00">::defaultAllocator</text>
</a>
</g>
</g>
<!-- Node1&#45;&gt;Node2 -->
<g id="edge1_Node000001_Node000002" class="edge">
<title>Node1&#45;&gt;Node2</title>
<g id="a_edge1_Node000001_Node000002"><a xlink:title=" ">
<path fill="none" stroke="#63b8ff" d="M133.43,-73.04C149.33,-76.87 166.49,-81 182.6,-84.88"/>
<polygon fill="#63b8ff" stroke="#63b8ff" points="181.94,-88.32 192.48,-87.26 183.58,-81.52 181.94,-88.32"/>
</a>
</g>
</g>
<!-- Node3 -->
<g id="Node000003" class="node">
<title>Node3</title>
<g id="a_Node000003"><a xlink:href="../../d2/dcf/namespacecv_1_1cann.html#aee240e051fa3b79a8ad84e3a33207553" target="_top" xlink:title="Malloc and upload raw data to devices.">
<polygon fill="white" stroke="#666666" points="325,-67.5 176,-67.5 176,-48.5 325,-48.5 325,-67.5"/>
<text text-anchor="middle" x="250.5" y="-55.5" font-family="Helvetica,sans-Serif" font-size="10.00">cv::cann::mallocAndUpload</text>
</a>
</g>
</g>
<!-- Node1&#45;&gt;Node3 -->
<g id="edge2_Node000001_Node000003" class="edge">
<title>Node1&#45;&gt;Node3</title>
<g id="a_edge2_Node000001_Node000003"><a xlink:title=" ">
<path fill="none" stroke="#63b8ff" d="M140.01,-58C148.47,-58 157.19,-58 165.84,-58"/>
<polygon fill="#63b8ff" stroke="#63b8ff" points="165.94,-61.5 175.94,-58 165.94,-54.5 165.94,-61.5"/>
</a>
</g>
</g>
<!-- Node4 -->
<g id="Node000004" class="node">
<title>Node4</title>
<g id="a_Node000004"><a xlink:href="../../d7/dcc/classcv_1_1cann_1_1AscendStream.html#ae5414fcc15fae3750a144b0ef4f2ca1d" target="_top" xlink:title="return default AscendStream object for default Acl stream.">
<polygon fill="white" stroke="#666666" points="317,-30 184,-30 184,0 317,0 317,-30"/>
<text text-anchor="start" x="192" y="-18" font-family="Helvetica,sans-Serif" font-size="10.00">cv::cann::AscendStream</text>
<text text-anchor="middle" x="250.5" y="-7" font-family="Helvetica,sans-Serif" font-size="10.00">::Null</text>
</a>
</g>
</g>
<!-- Node1&#45;&gt;Node4 -->
<g id="edge3_Node000001_Node000004" class="edge">
<title>Node1&#45;&gt;Node4</title>
<g id="a_edge3_Node000001_Node000004"><a xlink:title=" ">
<path fill="none" stroke="#63b8ff" d="M133.43,-42.96C147.56,-39.56 162.68,-35.91 177.18,-32.42"/>
<polygon fill="#63b8ff" stroke="#63b8ff" points="178.2,-35.78 187.1,-30.03 176.56,-28.97 178.2,-35.78"/>
</a>
</g>
</g>
</g>
</svg>
