<?xml version="1.0" encoding="UTF-8" standalone="no"?>
<!DOCTYPE svg PUBLIC "-//W3C//DTD SVG 1.1//EN"
 "http://www.w3.org/Graphics/SVG/1.1/DTD/svg11.dtd">
<!-- Generated by graphviz version 2.43.0 (0)
 -->
<!-- Title: opencv2/core/cuda/vec_traits.hpp Pages: 1 -->
<svg width="487pt" height="170pt"
 viewBox="0.00 0.00 487.00 170.00" xmlns="http://www.w3.org/2000/svg" xmlns:xlink="http://www.w3.org/1999/xlink">
<g id="graph0" class="graph" transform="scale(1 1) rotate(0) translate(4 166)">
<title>opencv2/core/cuda/vec_traits.hpp</title>
<!-- Node1 -->
<g id="Node000001" class="node">
<title>Node1</title>
<g id="a_Node000001"><a xlink:title=" ">
<polygon fill="#999999" stroke="#666666" points="273.5,-162 145.5,-162 145.5,-132 273.5,-132 273.5,-162"/>
<text text-anchor="start" x="153.5" y="-150" font-family="Helvetica,sans-Serif" font-size="10.00">opencv2/core/cuda/vec</text>
<text text-anchor="middle" x="209.5" y="-139" font-family="Helvetica,sans-Serif" font-size="10.00">_traits.hpp</text>
</a>
</g>
</g>
<!-- Node2 -->
<g id="Node000002" class="node">
<title>Node2</title>
<g id="a_Node000002"><a xlink:href="../../d5/dd1/border__interpolate_8hpp.html" target="_top" xlink:title=" ">
<polygon fill="white" stroke="#666666" points="143,-30 0,-30 0,0 143,0 143,-30"/>
<text text-anchor="start" x="8" y="-18" font-family="Helvetica,sans-Serif" font-size="10.00">opencv2/core/cuda/border</text>
<text text-anchor="middle" x="71.5" y="-7" font-family="Helvetica,sans-Serif" font-size="10.00">_interpolate.hpp</text>
</a>
</g>
</g>
<!-- Node1&#45;&gt;Node2 -->
<g id="edge1_Node000001_Node000002" class="edge">
<title>Node1&#45;&gt;Node2</title>
<g id="a_edge1_Node000001_Node000002"><a xlink:title=" ">
<path fill="none" stroke="#63b8ff" d="M137.24,-128.16C119.82,-120.77 102.73,-110.42 90.5,-96 74.62,-77.27 71.5,-47.59 71.17,-30.14"/>
<polygon fill="#63b8ff" stroke="#63b8ff" points="136.34,-131.57 146.93,-131.97 138.9,-125.05 136.34,-131.57"/>
</a>
</g>
</g>
<!-- Node3 -->
<g id="Node000003" class="node">
<title>Node3</title>
<g id="a_Node000003"><a xlink:href="../../d3/d10/filters_8hpp.html" target="_top" xlink:title=" ">
<polygon fill="white" stroke="#666666" points="321.5,-24.5 161.5,-24.5 161.5,-5.5 321.5,-5.5 321.5,-24.5"/>
<text text-anchor="middle" x="241.5" y="-12.5" font-family="Helvetica,sans-Serif" font-size="10.00">opencv2/core/cuda/filters.hpp</text>
</a>
</g>
</g>
<!-- Node1&#45;&gt;Node3 -->
<g id="edge2_Node000001_Node000003" class="edge">
<title>Node1&#45;&gt;Node3</title>
<g id="a_edge2_Node000001_Node000003"><a xlink:title=" ">
<path fill="none" stroke="#63b8ff" d="M224.5,-123.2C229.18,-114.96 233.82,-105.37 236.5,-96 243.7,-70.85 243.02,-39.49 242.15,-24.61"/>
<polygon fill="#63b8ff" stroke="#63b8ff" points="221.46,-121.47 219.3,-131.84 227.46,-125.08 221.46,-121.47"/>
</a>
</g>
</g>
<!-- Node4 -->
<g id="Node000004" class="node">
<title>Node4</title>
<g id="a_Node000004"><a xlink:href="../../d7/dfd/modules_2core_2include_2opencv2_2core_2cuda_2functional_8hpp.html" target="_top" xlink:title=" ">
<polygon fill="white" stroke="#666666" points="479,-90.5 298,-90.5 298,-71.5 479,-71.5 479,-90.5"/>
<text text-anchor="middle" x="388.5" y="-78.5" font-family="Helvetica,sans-Serif" font-size="10.00">opencv2/core/cuda/functional.hpp</text>
</a>
</g>
</g>
<!-- Node1&#45;&gt;Node4 -->
<g id="edge3_Node000001_Node000004" class="edge">
<title>Node1&#45;&gt;Node4</title>
<g id="a_edge3_Node000001_Node000004"><a xlink:title=" ">
<path fill="none" stroke="#63b8ff" d="M258.23,-128.58C292.78,-116.23 337.63,-100.19 364.68,-90.52"/>
<polygon fill="#63b8ff" stroke="#63b8ff" points="257.02,-125.29 248.78,-131.95 259.38,-131.88 257.02,-125.29"/>
</a>
</g>
</g>
<!-- Node6 -->
<g id="Node000006" class="node">
<title>Node6</title>
<g id="a_Node000006"><a xlink:href="../../d4/da9/modules_2core_2include_2opencv2_2core_2cuda_2vec__math_8hpp.html" target="_top" xlink:title=" ">
<polygon fill="white" stroke="#666666" points="227.5,-96 99.5,-96 99.5,-66 227.5,-66 227.5,-96"/>
<text text-anchor="start" x="107.5" y="-84" font-family="Helvetica,sans-Serif" font-size="10.00">opencv2/core/cuda/vec</text>
<text text-anchor="middle" x="163.5" y="-73" font-family="Helvetica,sans-Serif" font-size="10.00">_math.hpp</text>
</a>
</g>
</g>
<!-- Node1&#45;&gt;Node6 -->
<g id="edge5_Node000001_Node000006" class="edge">
<title>Node1&#45;&gt;Node6</title>
<g id="a_edge5_Node000001_Node000006"><a xlink:title=" ">
<path fill="none" stroke="#63b8ff" d="M193.35,-123.53C186.81,-114.43 179.45,-104.19 173.68,-96.16"/>
<polygon fill="#63b8ff" stroke="#63b8ff" points="190.61,-125.72 199.29,-131.8 196.3,-121.63 190.61,-125.72"/>
</a>
</g>
</g>
<!-- Node5 -->
<g id="Node000005" class="node">
<title>Node5</title>
<g id="a_Node000005"><a xlink:href="../../d7/d23/modules_2core_2include_2opencv2_2core_2cuda_2vec__distance_8hpp.html" target="_top" xlink:title=" ">
<polygon fill="white" stroke="#666666" points="467.5,-30 339.5,-30 339.5,0 467.5,0 467.5,-30"/>
<text text-anchor="start" x="347.5" y="-18" font-family="Helvetica,sans-Serif" font-size="10.00">opencv2/core/cuda/vec</text>
<text text-anchor="middle" x="403.5" y="-7" font-family="Helvetica,sans-Serif" font-size="10.00">_distance.hpp</text>
</a>
</g>
</g>
<!-- Node4&#45;&gt;Node5 -->
<g id="edge4_Node000004_Node000005" class="edge">
<title>Node4&#45;&gt;Node5</title>
<g id="a_edge4_Node000004_Node000005"><a xlink:title=" ">
<path fill="none" stroke="#63b8ff" d="M392.87,-61.35C395.19,-51.47 397.99,-39.51 400.13,-30.36"/>
<polygon fill="#63b8ff" stroke="#63b8ff" points="389.4,-60.83 390.52,-71.37 396.21,-62.43 389.4,-60.83"/>
</a>
</g>
</g>
<!-- Node6&#45;&gt;Node2 -->
<g id="edge6_Node000006_Node000002" class="edge">
<title>Node6&#45;&gt;Node2</title>
<g id="a_edge6_Node000006_Node000002"><a xlink:title=" ">
<path fill="none" stroke="#63b8ff" d="M134.79,-60.03C120.87,-50.34 104.47,-38.94 91.86,-30.16"/>
<polygon fill="#63b8ff" stroke="#63b8ff" points="132.87,-62.96 143.08,-65.8 136.87,-57.21 132.87,-62.96"/>
</a>
</g>
</g>
<!-- Node6&#45;&gt;Node3 -->
<g id="edge7_Node000006_Node000003" class="edge">
<title>Node6&#45;&gt;Node3</title>
<g id="a_edge7_Node000006_Node000003"><a xlink:title=" ">
<path fill="none" stroke="#63b8ff" d="M188.78,-59.26C202.97,-47.61 219.94,-33.69 230.72,-24.84"/>
<polygon fill="#63b8ff" stroke="#63b8ff" points="186.32,-56.75 180.81,-65.8 190.76,-62.16 186.32,-56.75"/>
</a>
</g>
</g>
</g>
</svg>
