<?xml version="1.0" encoding="UTF-8" standalone="no"?>
<!DOCTYPE svg PUBLIC "-//W3C//DTD SVG 1.1//EN"
 "http://www.w3.org/Graphics/SVG/1.1/DTD/svg11.dtd">
<!-- Generated by graphviz version 2.43.0 (0)
 -->
<!-- Title: cv::TermCriteria Pages: 1 -->
<svg width="137pt" height="194pt"
 viewBox="0.00 0.00 136.50 194.00" xmlns="http://www.w3.org/2000/svg" xmlns:xlink="http://www.w3.org/1999/xlink">
<g id="graph0" class="graph" transform="scale(1 1) rotate(0) translate(4 190)">
<title>cv::TermCriteria</title>
<!-- Node1 -->
<g id="Node000001" class="node">
<title>Node1</title>
<g id="a_Node000001"><a xlink:title="The class defining termination criteria for iterative algorithms.">
<polygon fill="#999999" stroke="transparent" points="98,-79 9,-79 9,0 98,0 98,-79"/>
<text text-anchor="start" x="15.5" y="-66.5" font-family="Helvetica,sans-Serif" font-size="10.00">cv::TermCriteria</text>
<text text-anchor="start" x="52" y="-51.5" font-family="Helvetica,sans-Serif" font-size="10.00"> </text>
<text text-anchor="start" x="13.5" y="-36.5" font-family="Helvetica,sans-Serif" font-size="10.00">+</text>
<text text-anchor="start" x="26.5" y="-36.5" font-family="Helvetica,sans-Serif" font-size="10.00">TermCriteria()</text>
<text text-anchor="start" x="13.5" y="-21.5" font-family="Helvetica,sans-Serif" font-size="10.00">+</text>
<text text-anchor="start" x="26.5" y="-21.5" font-family="Helvetica,sans-Serif" font-size="10.00">TermCriteria()</text>
<text text-anchor="start" x="13.5" y="-6.5" font-family="Helvetica,sans-Serif" font-size="10.00">+</text>
<text text-anchor="start" x="26.5" y="-6.5" font-family="Helvetica,sans-Serif" font-size="10.00">isValid()</text>
<polygon fill="#666666" stroke="#666666" points="9.5,-61.5 9.5,-61.5 98.5,-61.5 98.5,-61.5 9.5,-61.5"/>
<polygon fill="#666666" stroke="#666666" points="9.5,-46.5 9.5,-46.5 98.5,-46.5 98.5,-46.5 9.5,-46.5"/>
<polygon fill="none" stroke="#666666" points="9,0 9,-79 98,-79 98,0 9,0"/>
</a>
</g>
</g>
<!-- Node2 -->
<g id="Node000002" class="node">
<title>Node2</title>
<g id="a_Node000002"><a xlink:title=" ">
<polygon fill="white" stroke="transparent" points="23,-186 0,-186 0,-137 23,-137 23,-186"/>
<text text-anchor="start" x="5.5" y="-173.5" font-family="Helvetica,sans-Serif" font-size="10.00">int</text>
<text text-anchor="start" x="10" y="-158.5" font-family="Helvetica,sans-Serif" font-size="10.00"> </text>
<text text-anchor="start" x="10" y="-143.5" font-family="Helvetica,sans-Serif" font-size="10.00"> </text>
<polygon fill="#666666" stroke="#666666" points="0.5,-168.5 0.5,-168.5 23.5,-168.5 23.5,-168.5 0.5,-168.5"/>
<polygon fill="#666666" stroke="#666666" points="0.5,-153.5 0.5,-153.5 23.5,-153.5 23.5,-153.5 0.5,-153.5"/>
<polygon fill="none" stroke="#666666" points="0,-137 0,-186 23,-186 23,-137 0,-137"/>
</a>
</g>
</g>
<!-- Node2&#45;&gt;Node1 -->
<g id="edge1_Node000001_Node000002" class="edge">
<title>Node2&#45;&gt;Node1</title>
<g id="a_edge1_Node000001_Node000002"><a xlink:title=" ">
<path fill="none" stroke="#63b8ff" d="M8.52,-136.71C7.83,-124.53 8.28,-109.66 12.5,-97 13.29,-94.62 14.23,-92.25 15.27,-89.92"/>
<polygon fill="none" stroke="#63b8ff" points="15.3,-89.87 14.55,-82.7 20.88,-79.24 21.63,-86.41 15.3,-89.87"/>
</a>
</g>
<text text-anchor="middle" x="43.5" y="-111" font-family="Helvetica,sans-Serif" font-size="10.00" fill="grey"> +maxCount</text>
<text text-anchor="middle" x="43.5" y="-100" font-family="Helvetica,sans-Serif" font-size="10.00" fill="grey">+type</text>
</g>
<!-- Node3 -->
<g id="Node000003" class="node">
<title>Node3</title>
<g id="a_Node000003"><a xlink:title=" ">
<polygon fill="white" stroke="transparent" points="118.5,-186 74.5,-186 74.5,-137 118.5,-137 118.5,-186"/>
<text text-anchor="start" x="79.5" y="-173.5" font-family="Helvetica,sans-Serif" font-size="10.00">double</text>
<text text-anchor="start" x="94.5" y="-158.5" font-family="Helvetica,sans-Serif" font-size="10.00"> </text>
<text text-anchor="start" x="94.5" y="-143.5" font-family="Helvetica,sans-Serif" font-size="10.00"> </text>
<polygon fill="#666666" stroke="#666666" points="74.5,-168.5 74.5,-168.5 118.5,-168.5 118.5,-168.5 74.5,-168.5"/>
<polygon fill="#666666" stroke="#666666" points="74.5,-153.5 74.5,-153.5 118.5,-153.5 118.5,-153.5 74.5,-153.5"/>
<polygon fill="none" stroke="#666666" points="74.5,-137 74.5,-186 118.5,-186 118.5,-137 74.5,-137"/>
</a>
</g>
</g>
<!-- Node3&#45;&gt;Node1 -->
<g id="edge2_Node000001_Node000003" class="edge">
<title>Node3&#45;&gt;Node1</title>
<g id="a_edge2_Node000001_Node000003"><a xlink:title=" ">
<path fill="none" stroke="#63b8ff" d="M88.48,-136.93C84.36,-124.95 79.23,-110.18 74.5,-97 73.72,-94.82 72.91,-92.6 72.1,-90.35"/>
<polygon fill="none" stroke="#63b8ff" points="72.09,-90.32 66.27,-86.07 67.96,-79.06 73.78,-83.32 72.09,-90.32"/>
</a>
</g>
<text text-anchor="middle" x="105" y="-105.5" font-family="Helvetica,sans-Serif" font-size="10.00" fill="grey"> +epsilon</text>
</g>
</g>
</svg>
