<?xml version="1.0" encoding="UTF-8" standalone="no"?>
<!DOCTYPE svg PUBLIC "-//W3C//DTD SVG 1.1//EN"
 "http://www.w3.org/Graphics/SVG/1.1/DTD/svg11.dtd">
<!-- Generated by graphviz version 2.43.0 (0)
 -->
<!-- Title: NCVMatrixReuse::NCVMatrixReuse Pages: 1 -->
<svg width="325pt" height="212pt"
 viewBox="0.00 0.00 325.00 212.00" xmlns="http://www.w3.org/2000/svg" xmlns:xlink="http://www.w3.org/1999/xlink">
<g id="graph0" class="graph" transform="scale(1 1) rotate(0) translate(4 208)">
<title>NCVMatrixReuse::NCVMatrixReuse</title>
<!-- Node1 -->
<g id="Node000001" class="node">
<title>Node1</title>
<g id="a_Node000001"><a xlink:title=" ">
<polygon fill="#999999" stroke="#666666" points="158,-116.5 0,-116.5 0,-86.5 158,-86.5 158,-116.5"/>
<text text-anchor="start" x="8" y="-104.5" font-family="Helvetica,sans-Serif" font-size="10.00">NCVMatrixReuse::NCVMatrix</text>
<text text-anchor="middle" x="79" y="-93.5" font-family="Helvetica,sans-Serif" font-size="10.00">Reuse</text>
</a>
</g>
</g>
<!-- Node2 -->
<g id="Node000002" class="node">
<title>Node2</title>
<g id="a_Node000002"><a xlink:href="../../de/d26/classNCVMatrix.html#a43bf1b0073ea715c49cb13091595bda8" target="_top" xlink:title=" ">
<polygon fill="white" stroke="#666666" points="298,-204 213,-204 213,-185 298,-185 298,-204"/>
<text text-anchor="middle" x="255.5" y="-192" font-family="Helvetica,sans-Serif" font-size="10.00">NCVMatrix::at</text>
</a>
</g>
</g>
<!-- Node1&#45;&gt;Node2 -->
<g id="edge1_Node000001_Node000002" class="edge">
<title>Node1&#45;&gt;Node2</title>
<g id="a_edge1_Node000001_Node000002"><a xlink:title=" ">
<path fill="none" stroke="#63b8ff" d="M99.14,-116.64C121,-133.3 158.34,-159.91 194,-176.5 198.02,-178.37 202.28,-180.1 206.61,-181.69"/>
<polygon fill="#63b8ff" stroke="#63b8ff" points="205.52,-185.01 216.11,-184.93 207.78,-178.39 205.52,-185.01"/>
</a>
</g>
</g>
<!-- Node3 -->
<g id="Node000003" class="node">
<title>Node3</title>
<g id="a_Node000003"><a xlink:href="../../de/d26/classNCVMatrix.html#a5b9526bed58f7dd32807de1fa4bffacd" target="_top" xlink:title=" ">
<polygon fill="white" stroke="#666666" points="305,-167 206,-167 206,-148 305,-148 305,-167"/>
<text text-anchor="middle" x="255.5" y="-155" font-family="Helvetica,sans-Serif" font-size="10.00">NCVMatrix::clear</text>
</a>
</g>
</g>
<!-- Node1&#45;&gt;Node3 -->
<g id="edge2_Node000001_Node000003" class="edge">
<title>Node1&#45;&gt;Node3</title>
<g id="a_edge2_Node000001_Node000003"><a xlink:title=" ">
<path fill="none" stroke="#63b8ff" d="M124.01,-116.54C145.13,-123.66 170.82,-132.19 194,-139.5 199.76,-141.32 205.84,-143.18 211.84,-145"/>
<polygon fill="#63b8ff" stroke="#63b8ff" points="211.2,-148.46 221.79,-147.98 213.21,-141.75 211.2,-148.46"/>
</a>
</g>
</g>
<!-- Node4 -->
<g id="Node000004" class="node">
<title>Node4</title>
<g id="a_Node000004"><a xlink:href="../../de/d26/classNCVMatrix.html#af2d89f97e2f3e829e43aa510cfc6814d" target="_top" xlink:title=" ">
<polygon fill="white" stroke="#666666" points="308.5,-130 202.5,-130 202.5,-111 308.5,-111 308.5,-130"/>
<text text-anchor="middle" x="255.5" y="-118" font-family="Helvetica,sans-Serif" font-size="10.00">NCVMatrix::height</text>
</a>
</g>
</g>
<!-- Node1&#45;&gt;Node4 -->
<g id="edge3_Node000001_Node000004" class="edge">
<title>Node1&#45;&gt;Node4</title>
<g id="a_edge3_Node000001_Node000004"><a xlink:title=" ">
<path fill="none" stroke="#63b8ff" d="M158.06,-110C169.53,-111.25 181.2,-112.52 192.29,-113.73"/>
<polygon fill="#63b8ff" stroke="#63b8ff" points="191.97,-117.21 202.29,-114.81 192.72,-110.25 191.97,-117.21"/>
</a>
</g>
</g>
<!-- Node5 -->
<g id="Node000005" class="node">
<title>Node5</title>
<g id="a_Node000005"><a xlink:href="../../de/d26/classNCVMatrix.html#a11fb3dc94bd7225421630e4491e226bb" target="_top" xlink:title=" ">
<polygon fill="white" stroke="#666666" points="317,-93 194,-93 194,-74 317,-74 317,-93"/>
<text text-anchor="middle" x="255.5" y="-81" font-family="Helvetica,sans-Serif" font-size="10.00">NCVMatrix::memType</text>
</a>
</g>
</g>
<!-- Node1&#45;&gt;Node5 -->
<g id="edge4_Node000001_Node000005" class="edge">
<title>Node1&#45;&gt;Node5</title>
<g id="a_edge4_Node000001_Node000005"><a xlink:title=" ">
<path fill="none" stroke="#63b8ff" d="M158.06,-93.45C166.58,-92.57 175.21,-91.68 183.64,-90.81"/>
<polygon fill="#63b8ff" stroke="#63b8ff" points="184.19,-94.27 193.78,-89.76 183.48,-87.31 184.19,-94.27"/>
</a>
</g>
</g>
<!-- Node6 -->
<g id="Node000006" class="node">
<title>Node6</title>
<g id="a_Node000006"><a xlink:href="../../de/d26/classNCVMatrix.html#afe2cc277372b013c0a58a40e42ae8a88" target="_top" xlink:title=" ">
<polygon fill="white" stroke="#666666" points="305,-56 206,-56 206,-37 305,-37 305,-56"/>
<text text-anchor="middle" x="255.5" y="-44" font-family="Helvetica,sans-Serif" font-size="10.00">NCVMatrix::pitch</text>
</a>
</g>
</g>
<!-- Node1&#45;&gt;Node6 -->
<g id="edge5_Node000001_Node000006" class="edge">
<title>Node1&#45;&gt;Node6</title>
<g id="a_edge5_Node000001_Node000006"><a xlink:title=" ">
<path fill="none" stroke="#63b8ff" d="M127.7,-86.42C148.11,-79.97 172.22,-72.36 194,-65.5 200.56,-63.43 207.52,-61.24 214.3,-59.11"/>
<polygon fill="#63b8ff" stroke="#63b8ff" points="215.54,-62.39 224.03,-56.06 213.44,-55.72 215.54,-62.39"/>
</a>
</g>
</g>
<!-- Node7 -->
<g id="Node000007" class="node">
<title>Node7</title>
<g id="a_Node000007"><a xlink:href="../../de/d26/classNCVMatrix.html#aa33005ef28dc7a5ef1e8294d086864e6" target="_top" xlink:title=" ">
<polygon fill="white" stroke="#666666" points="306.5,-19 204.5,-19 204.5,0 306.5,0 306.5,-19"/>
<text text-anchor="middle" x="255.5" y="-7" font-family="Helvetica,sans-Serif" font-size="10.00">NCVMatrix::width</text>
</a>
</g>
</g>
<!-- Node1&#45;&gt;Node7 -->
<g id="edge6_Node000001_Node000007" class="edge">
<title>Node1&#45;&gt;Node7</title>
<g id="a_edge6_Node000001_Node000007"><a xlink:title=" ">
<path fill="none" stroke="#63b8ff" d="M100.06,-86.31C122.11,-70.18 159.08,-44.81 194,-28.5 198.74,-26.29 203.81,-24.24 208.91,-22.37"/>
<polygon fill="#63b8ff" stroke="#63b8ff" points="210.39,-25.57 218.71,-19.01 208.12,-18.95 210.39,-25.57"/>
</a>
</g>
</g>
</g>
</svg>
