<?xml version="1.0" encoding="UTF-8" standalone="no"?>
<!DOCTYPE svg PUBLIC "-//W3C//DTD SVG 1.1//EN"
 "http://www.w3.org/Graphics/SVG/1.1/DTD/svg11.dtd">
<!-- Generated by graphviz version 2.43.0 (0)
 -->
<!-- Title: cv::cuda::CLAHE Pages: 1 -->
<svg width="118pt" height="497pt"
 viewBox="0.00 0.00 118.00 497.00" xmlns="http://www.w3.org/2000/svg" xmlns:xlink="http://www.w3.org/1999/xlink">
<g id="graph0" class="graph" transform="scale(1 1) rotate(0) translate(4 493)">
<title>cv::cuda::CLAHE</title>
<!-- Node1 -->
<g id="Node000001" class="node">
<title>Node1</title>
<g id="a_Node000001"><a xlink:title="Base class for Contrast Limited Adaptive Histogram Equalization. :">
<polygon fill="#999999" stroke="transparent" points="99.5,-49 10.5,-49 10.5,0 99.5,0 99.5,-49"/>
<text text-anchor="start" x="16" y="-36.5" font-family="Helvetica,sans-Serif" font-size="10.00">cv::cuda::CLAHE</text>
<text text-anchor="start" x="53.5" y="-21.5" font-family="Helvetica,sans-Serif" font-size="10.00"> </text>
<text text-anchor="start" x="23" y="-6.5" font-family="Helvetica,sans-Serif" font-size="10.00">+</text>
<text text-anchor="start" x="44" y="-6.5" font-family="Helvetica,sans-Serif" font-size="10.00">apply()</text>
<polygon fill="#666666" stroke="#666666" points="11,-31.5 11,-31.5 100,-31.5 100,-31.5 11,-31.5"/>
<polygon fill="#666666" stroke="#666666" points="11,-16.5 11,-16.5 100,-16.5 100,-16.5 11,-16.5"/>
<polygon fill="none" stroke="#666666" points="10.5,0 10.5,-49 99.5,-49 99.5,0 10.5,0"/>
</a>
</g>
</g>
<!-- Node2 -->
<g id="Node000002" class="node">
<title>Node2</title>
<g id="a_Node000002"><a xlink:href="../../d6/db6/classcv_1_1CLAHE.html" target="_top" xlink:title="Base class for Contrast Limited Adaptive Histogram Equalization.">
<polygon fill="white" stroke="transparent" points="109.5,-209 0.5,-209 0.5,-85 109.5,-85 109.5,-209"/>
<text text-anchor="start" x="30.5" y="-197" font-family="Helvetica,sans-Serif" font-size="10.00">cv::CLAHE</text>
<text text-anchor="start" x="53.5" y="-182" font-family="Helvetica,sans-Serif" font-size="10.00"> </text>
<text text-anchor="start" x="5" y="-167" font-family="Helvetica,sans-Serif" font-size="10.00">+</text>
<text text-anchor="start" x="18" y="-167" font-family="Helvetica,sans-Serif" font-size="10.00">apply()</text>
<text text-anchor="start" x="5" y="-152" font-family="Helvetica,sans-Serif" font-size="10.00">+</text>
<text text-anchor="start" x="18" y="-152" font-family="Helvetica,sans-Serif" font-size="10.00">collectGarbage()</text>
<text text-anchor="start" x="5" y="-137" font-family="Helvetica,sans-Serif" font-size="10.00">+</text>
<text text-anchor="start" x="18" y="-137" font-family="Helvetica,sans-Serif" font-size="10.00">getClipLimit()</text>
<text text-anchor="start" x="5" y="-122" font-family="Helvetica,sans-Serif" font-size="10.00">+</text>
<text text-anchor="start" x="18" y="-122" font-family="Helvetica,sans-Serif" font-size="10.00">getTilesGridSize()</text>
<text text-anchor="start" x="5" y="-107" font-family="Helvetica,sans-Serif" font-size="10.00">+</text>
<text text-anchor="start" x="18" y="-107" font-family="Helvetica,sans-Serif" font-size="10.00">setClipLimit()</text>
<text text-anchor="start" x="5" y="-92" font-family="Helvetica,sans-Serif" font-size="10.00">+</text>
<text text-anchor="start" x="18" y="-92" font-family="Helvetica,sans-Serif" font-size="10.00">setTilesGridSize()</text>
<polygon fill="#666666" stroke="#666666" points="1,-192 1,-192 110,-192 110,-192 1,-192"/>
<polygon fill="#666666" stroke="#666666" points="1,-177 1,-177 110,-177 110,-177 1,-177"/>
<polygon fill="none" stroke="#666666" points="0.5,-85 0.5,-209 109.5,-209 109.5,-85 0.5,-85"/>
</a>
</g>
</g>
<!-- Node2&#45;&gt;Node1 -->
<g id="edge1_Node000001_Node000002" class="edge">
<title>Node2&#45;&gt;Node1</title>
<g id="a_edge1_Node000001_Node000002"><a xlink:title=" ">
<path fill="none" stroke="#63b8ff" d="M55,-74.65C55,-65.48 55,-56.67 55,-49.1"/>
<polygon fill="none" stroke="#63b8ff" points="51.5,-74.69 55,-84.69 58.5,-74.69 51.5,-74.69"/>
</a>
</g>
</g>
<!-- Node3 -->
<g id="Node000003" class="node">
<title>Node3</title>
<g id="a_Node000003"><a xlink:href="../../d3/d46/classcv_1_1Algorithm.html" target="_top" xlink:title="This is a base class for all more or less complex algorithms in OpenCV.">
<polygon fill="white" stroke="transparent" points="110,-489 0,-489 0,-245 110,-245 110,-489"/>
<text text-anchor="start" x="22.5" y="-477" font-family="Helvetica,sans-Serif" font-size="10.00">cv::Algorithm</text>
<text text-anchor="start" x="53" y="-462" font-family="Helvetica,sans-Serif" font-size="10.00"> </text>
<text text-anchor="start" x="4" y="-447" font-family="Helvetica,sans-Serif" font-size="10.00">+</text>
<text text-anchor="start" x="17" y="-447" font-family="Helvetica,sans-Serif" font-size="10.00">Algorithm()</text>
<text text-anchor="start" x="4" y="-432" font-family="Helvetica,sans-Serif" font-size="10.00">+</text>
<text text-anchor="start" x="17" y="-432" font-family="Helvetica,sans-Serif" font-size="10.00">~Algorithm()</text>
<text text-anchor="start" x="4" y="-417" font-family="Helvetica,sans-Serif" font-size="10.00">+</text>
<text text-anchor="start" x="17" y="-417" font-family="Helvetica,sans-Serif" font-size="10.00">clear()</text>
<text text-anchor="start" x="4" y="-402" font-family="Helvetica,sans-Serif" font-size="10.00">+</text>
<text text-anchor="start" x="17" y="-402" font-family="Helvetica,sans-Serif" font-size="10.00">empty()</text>
<text text-anchor="start" x="4" y="-387" font-family="Helvetica,sans-Serif" font-size="10.00">+</text>
<text text-anchor="start" x="17" y="-387" font-family="Helvetica,sans-Serif" font-size="10.00">getDefaultName()</text>
<text text-anchor="start" x="4" y="-372" font-family="Helvetica,sans-Serif" font-size="10.00">+</text>
<text text-anchor="start" x="17" y="-372" font-family="Helvetica,sans-Serif" font-size="10.00">read()</text>
<text text-anchor="start" x="4" y="-357" font-family="Helvetica,sans-Serif" font-size="10.00">+</text>
<text text-anchor="start" x="17" y="-357" font-family="Helvetica,sans-Serif" font-size="10.00">save()</text>
<text text-anchor="start" x="4" y="-342" font-family="Helvetica,sans-Serif" font-size="10.00">+</text>
<text text-anchor="start" x="17" y="-342" font-family="Helvetica,sans-Serif" font-size="10.00">write()</text>
<text text-anchor="start" x="4" y="-327" font-family="Helvetica,sans-Serif" font-size="10.00">+</text>
<text text-anchor="start" x="17" y="-327" font-family="Helvetica,sans-Serif" font-size="10.00">write()</text>
<text text-anchor="start" x="4" y="-312" font-family="Helvetica,sans-Serif" font-size="10.00">+</text>
<text text-anchor="start" x="17" y="-312" font-family="Helvetica,sans-Serif" font-size="10.00">write()</text>
<text text-anchor="start" x="4" y="-297" font-family="Helvetica,sans-Serif" font-size="10.00">+</text>
<text text-anchor="start" x="17" y="-297" font-family="Helvetica,sans-Serif" font-size="10.00">load()</text>
<text text-anchor="start" x="4" y="-282" font-family="Helvetica,sans-Serif" font-size="10.00">+</text>
<text text-anchor="start" x="17" y="-282" font-family="Helvetica,sans-Serif" font-size="10.00">loadFromString()</text>
<text text-anchor="start" x="4" y="-267" font-family="Helvetica,sans-Serif" font-size="10.00">+</text>
<text text-anchor="start" x="17" y="-267" font-family="Helvetica,sans-Serif" font-size="10.00">read()</text>
<text text-anchor="start" x="4" y="-252" font-family="Helvetica,sans-Serif" font-size="10.00">#</text>
<text text-anchor="start" x="17" y="-252" font-family="Helvetica,sans-Serif" font-size="10.00">writeFormat()</text>
<polygon fill="#666666" stroke="#666666" points="0,-472 0,-472 110,-472 110,-472 0,-472"/>
<polygon fill="#666666" stroke="#666666" points="0,-457 0,-457 110,-457 110,-457 0,-457"/>
<polygon fill="none" stroke="#666666" points="0,-245 0,-489 110,-489 110,-245 0,-245"/>
</a>
</g>
</g>
<!-- Node3&#45;&gt;Node2 -->
<g id="edge2_Node000002_Node000003" class="edge">
<title>Node3&#45;&gt;Node2</title>
<g id="a_edge2_Node000002_Node000003"><a xlink:title=" ">
<path fill="none" stroke="#63b8ff" d="M55,-234.82C55,-225.96 55,-217.32 55,-209.12"/>
<polygon fill="none" stroke="#63b8ff" points="51.5,-234.89 55,-244.89 58.5,-234.89 51.5,-234.89"/>
</a>
</g>
</g>
</g>
</svg>
