<?xml version="1.0" encoding="UTF-8" standalone="no"?>
<!DOCTYPE svg PUBLIC "-//W3C//DTD SVG 1.1//EN"
 "http://www.w3.org/Graphics/SVG/1.1/DTD/svg11.dtd">
<!-- Generated by graphviz version 2.43.0 (0)
 -->
<!-- Title: NppStInterpolationState Pages: 1 -->
<svg width="257pt" height="378pt"
 viewBox="0.00 0.00 256.50 378.00" xmlns="http://www.w3.org/2000/svg" xmlns:xlink="http://www.w3.org/1999/xlink">
<g id="graph0" class="graph" transform="scale(1 1) rotate(0) translate(4 374)">
<title>NppStInterpolationState</title>
<!-- Node1 -->
<g id="Node000001" class="node">
<title>Node1</title>
<g id="a_Node000001"><a xlink:title=" ">
<polygon fill="#999999" stroke="transparent" points="177.5,-49 49.5,-49 49.5,0 177.5,0 177.5,-49"/>
<text text-anchor="start" x="54.5" y="-36.5" font-family="Helvetica,sans-Serif" font-size="10.00">NppStInterpolationState</text>
<text text-anchor="start" x="111.5" y="-21.5" font-family="Helvetica,sans-Serif" font-size="10.00"> </text>
<text text-anchor="start" x="111.5" y="-6.5" font-family="Helvetica,sans-Serif" font-size="10.00"> </text>
<polygon fill="#666666" stroke="#666666" points="49.5,-31.5 49.5,-31.5 177.5,-31.5 177.5,-31.5 49.5,-31.5"/>
<polygon fill="#666666" stroke="#666666" points="49.5,-16.5 49.5,-16.5 177.5,-16.5 177.5,-16.5 49.5,-16.5"/>
<polygon fill="none" stroke="#666666" points="49.5,0 49.5,-49 177.5,-49 177.5,0 49.5,0"/>
</a>
</g>
</g>
<!-- Node2 -->
<g id="Node000002" class="node">
<title>Node2</title>
<g id="a_Node000002"><a xlink:href="../../d8/dde/structNcvSize32u.html" target="_top" xlink:title=" ">
<polygon fill="white" stroke="transparent" points="157,-263 70,-263 70,-184 157,-184 157,-263"/>
<text text-anchor="start" x="85" y="-250.5" font-family="Helvetica,sans-Serif" font-size="10.00">NcvSize32u</text>
<text text-anchor="start" x="112" y="-235.5" font-family="Helvetica,sans-Serif" font-size="10.00"> </text>
<text text-anchor="start" x="74.5" y="-220.5" font-family="Helvetica,sans-Serif" font-size="10.00">+</text>
<text text-anchor="start" x="87.5" y="-220.5" font-family="Helvetica,sans-Serif" font-size="10.00">NcvSize32u()</text>
<text text-anchor="start" x="74.5" y="-205.5" font-family="Helvetica,sans-Serif" font-size="10.00">+</text>
<text text-anchor="start" x="87.5" y="-205.5" font-family="Helvetica,sans-Serif" font-size="10.00">NcvSize32u()</text>
<text text-anchor="start" x="74.5" y="-190.5" font-family="Helvetica,sans-Serif" font-size="10.00">+</text>
<text text-anchor="start" x="87.5" y="-190.5" font-family="Helvetica,sans-Serif" font-size="10.00">operator==()</text>
<polygon fill="#666666" stroke="#666666" points="70.5,-245.5 70.5,-245.5 157.5,-245.5 157.5,-245.5 70.5,-245.5"/>
<polygon fill="#666666" stroke="#666666" points="70.5,-230.5 70.5,-230.5 157.5,-230.5 157.5,-230.5 70.5,-230.5"/>
<polygon fill="none" stroke="#666666" points="70,-184 70,-263 157,-263 157,-184 70,-184"/>
</a>
</g>
</g>
<!-- Node2&#45;&gt;Node1 -->
<g id="edge1_Node000001_Node000002" class="edge">
<title>Node2&#45;&gt;Node1</title>
<g id="a_edge1_Node000001_Node000002"><a xlink:title=" ">
<path fill="none" stroke="#63b8ff" d="M113.5,-183.58C113.5,-148.08 113.5,-96.05 113.5,-61.5"/>
<polygon fill="none" stroke="#63b8ff" points="113.5,-61.18 109.5,-55.18 113.5,-49.18 117.5,-55.18 113.5,-61.18"/>
</a>
</g>
<text text-anchor="middle" x="129" y="-114" font-family="Helvetica,sans-Serif" font-size="10.00" fill="grey"> +size</text>
</g>
<!-- Node3 -->
<g id="Node000003" class="node">
<title>Node3</title>
<g id="a_Node000003"><a xlink:title=" ">
<polygon fill="white" stroke="transparent" points="55,-370 0,-370 0,-321 55,-321 55,-370"/>
<text text-anchor="start" x="5.5" y="-357.5" font-family="Helvetica,sans-Serif" font-size="10.00">unsigned</text>
<text text-anchor="start" x="26" y="-342.5" font-family="Helvetica,sans-Serif" font-size="10.00"> </text>
<text text-anchor="start" x="26" y="-327.5" font-family="Helvetica,sans-Serif" font-size="10.00"> </text>
<polygon fill="#666666" stroke="#666666" points="0.5,-352.5 0.5,-352.5 55.5,-352.5 55.5,-352.5 0.5,-352.5"/>
<polygon fill="#666666" stroke="#666666" points="0.5,-337.5 0.5,-337.5 55.5,-337.5 55.5,-337.5 0.5,-337.5"/>
<polygon fill="none" stroke="#666666" points="0,-321 0,-370 55,-370 55,-321 0,-321"/>
</a>
</g>
</g>
<!-- Node3&#45;&gt;Node1 -->
<g id="edge3_Node000001_Node000003" class="edge">
<title>Node3&#45;&gt;Node1</title>
<g id="a_edge3_Node000001_Node000003"><a xlink:title=" ">
<path fill="none" stroke="#63b8ff" d="M22.05,-320.88C15.72,-289.14 7.67,-231.24 20.5,-184 33.31,-136.84 64.09,-89.37 86.75,-58.84"/>
<polygon fill="none" stroke="#63b8ff" points="86.83,-58.73 87.27,-51.53 94.08,-49.16 93.65,-56.36 86.83,-58.73"/>
</a>
</g>
<text text-anchor="middle" x="40.5" y="-221" font-family="Helvetica,sans-Serif" font-size="10.00" fill="grey"> +nStep</text>
</g>
<!-- Node3&#45;&gt;Node2 -->
<g id="edge2_Node000002_Node000003" class="edge">
<title>Node3&#45;&gt;Node2</title>
<g id="a_edge2_Node000002_Node000003"><a xlink:title=" ">
<path fill="none" stroke="#63b8ff" d="M44.49,-320.79C54.22,-307.22 66.79,-289.67 78.54,-273.28"/>
<polygon fill="none" stroke="#63b8ff" points="78.72,-273.03 78.97,-265.82 85.71,-263.27 85.47,-270.48 78.72,-273.03"/>
</a>
</g>
<text text-anchor="middle" x="92" y="-295" font-family="Helvetica,sans-Serif" font-size="10.00" fill="grey"> +height</text>
<text text-anchor="middle" x="92" y="-284" font-family="Helvetica,sans-Serif" font-size="10.00" fill="grey">+width</text>
</g>
<!-- Node4 -->
<g id="Node000004" class="node">
<title>Node4</title>
<g id="a_Node000004"><a xlink:title=" ">
<polygon fill="white" stroke="transparent" points="207.5,-248 175.5,-248 175.5,-199 207.5,-199 207.5,-248"/>
<text text-anchor="start" x="180.5" y="-235.5" font-family="Helvetica,sans-Serif" font-size="10.00">float</text>
<text text-anchor="start" x="189.5" y="-220.5" font-family="Helvetica,sans-Serif" font-size="10.00"> </text>
<text text-anchor="start" x="189.5" y="-205.5" font-family="Helvetica,sans-Serif" font-size="10.00"> </text>
<polygon fill="#666666" stroke="#666666" points="175.5,-230.5 175.5,-230.5 207.5,-230.5 207.5,-230.5 175.5,-230.5"/>
<polygon fill="#666666" stroke="#666666" points="175.5,-215.5 175.5,-215.5 207.5,-215.5 207.5,-215.5 175.5,-215.5"/>
<polygon fill="none" stroke="#666666" points="175.5,-199 175.5,-248 207.5,-248 207.5,-199 175.5,-199"/>
</a>
</g>
</g>
<!-- Node4&#45;&gt;Node1 -->
<g id="edge4_Node000001_Node000004" class="edge">
<title>Node4&#45;&gt;Node1</title>
<g id="a_edge4_Node000001_Node000004"><a xlink:title=" ">
<path fill="none" stroke="#63b8ff" d="M188.22,-198.94C183.13,-167.43 171.43,-110.48 148.5,-67 147.08,-64.3 145.45,-61.62 143.7,-59"/>
<polygon fill="none" stroke="#63b8ff" points="143.63,-58.89 136.84,-56.45 136.48,-49.25 143.27,-51.69 143.63,-58.89"/>
</a>
</g>
<text text-anchor="middle" x="215" y="-158" font-family="Helvetica,sans-Serif" font-size="10.00" fill="grey"> +pBU</text>
<text text-anchor="middle" x="215" y="-147" font-family="Helvetica,sans-Serif" font-size="10.00" fill="grey">+pBV</text>
<text text-anchor="middle" x="215" y="-136" font-family="Helvetica,sans-Serif" font-size="10.00" fill="grey">+pFU</text>
<text text-anchor="middle" x="215" y="-125" font-family="Helvetica,sans-Serif" font-size="10.00" fill="grey">+pFV</text>
<text text-anchor="middle" x="215" y="-114" font-family="Helvetica,sans-Serif" font-size="10.00" fill="grey">+pNewFrame</text>
<text text-anchor="middle" x="215" y="-103" font-family="Helvetica,sans-Serif" font-size="10.00" fill="grey">+pSrcFrame0</text>
<text text-anchor="middle" x="215" y="-92" font-family="Helvetica,sans-Serif" font-size="10.00" fill="grey">+pSrcFrame1</text>
<text text-anchor="middle" x="215" y="-81" font-family="Helvetica,sans-Serif" font-size="10.00" fill="grey">+pos</text>
<text text-anchor="middle" x="215" y="-70" font-family="Helvetica,sans-Serif" font-size="10.00" fill="grey">+ppBuffers</text>
</g>
</g>
</svg>
