<?xml version="1.0" encoding="UTF-8" standalone="no"?>
<!DOCTYPE svg PUBLIC "-//W3C//DTD SVG 1.1//EN"
 "http://www.w3.org/Graphics/SVG/1.1/DTD/svg11.dtd">
<!-- Generated by graphviz version 2.43.0 (0)
 -->
<!-- Title: cv::UMatData Pages: 1 -->
<svg width="713pt" height="708pt"
 viewBox="0.00 0.00 712.50 708.00" xmlns="http://www.w3.org/2000/svg" xmlns:xlink="http://www.w3.org/1999/xlink">
<g id="graph0" class="graph" transform="scale(1 1) rotate(0) translate(4 704)">
<title>cv::UMatData</title>
<!-- Node1 -->
<g id="Node000001" class="node">
<title>Node1</title>
<g id="a_Node000001"><a xlink:title=" ">
<polygon fill="#999999" stroke="transparent" points="432,-229 275,-229 275,0 432,0 432,-229"/>
<text text-anchor="start" x="320.5" y="-216.5" font-family="Helvetica,sans-Serif" font-size="10.00">cv::UMatData</text>
<text text-anchor="start" x="352" y="-201.5" font-family="Helvetica,sans-Serif" font-size="10.00"> </text>
<text text-anchor="start" x="279.5" y="-186.5" font-family="Helvetica,sans-Serif" font-size="10.00">+</text>
<text text-anchor="start" x="292.5" y="-186.5" font-family="Helvetica,sans-Serif" font-size="10.00">UMatData()</text>
<text text-anchor="start" x="279.5" y="-171.5" font-family="Helvetica,sans-Serif" font-size="10.00">+</text>
<text text-anchor="start" x="292.5" y="-171.5" font-family="Helvetica,sans-Serif" font-size="10.00">~UMatData()</text>
<text text-anchor="start" x="279.5" y="-156.5" font-family="Helvetica,sans-Serif" font-size="10.00">+</text>
<text text-anchor="start" x="292.5" y="-156.5" font-family="Helvetica,sans-Serif" font-size="10.00">copyOnMap()</text>
<text text-anchor="start" x="279.5" y="-141.5" font-family="Helvetica,sans-Serif" font-size="10.00">+</text>
<text text-anchor="start" x="292.5" y="-141.5" font-family="Helvetica,sans-Serif" font-size="10.00">deviceCopyObsolete()</text>
<text text-anchor="start" x="279.5" y="-126.5" font-family="Helvetica,sans-Serif" font-size="10.00">+</text>
<text text-anchor="start" x="292.5" y="-126.5" font-family="Helvetica,sans-Serif" font-size="10.00">deviceMemMapped()</text>
<text text-anchor="start" x="279.5" y="-111.5" font-family="Helvetica,sans-Serif" font-size="10.00">+</text>
<text text-anchor="start" x="292.5" y="-111.5" font-family="Helvetica,sans-Serif" font-size="10.00">hostCopyObsolete()</text>
<text text-anchor="start" x="279.5" y="-96.5" font-family="Helvetica,sans-Serif" font-size="10.00">+</text>
<text text-anchor="start" x="292.5" y="-96.5" font-family="Helvetica,sans-Serif" font-size="10.00">lock()</text>
<text text-anchor="start" x="279.5" y="-81.5" font-family="Helvetica,sans-Serif" font-size="10.00">+</text>
<text text-anchor="start" x="292.5" y="-81.5" font-family="Helvetica,sans-Serif" font-size="10.00">markDeviceCopyObsolete()</text>
<text text-anchor="start" x="279.5" y="-66.5" font-family="Helvetica,sans-Serif" font-size="10.00">+</text>
<text text-anchor="start" x="292.5" y="-66.5" font-family="Helvetica,sans-Serif" font-size="10.00">markDeviceMemMapped()</text>
<text text-anchor="start" x="279.5" y="-51.5" font-family="Helvetica,sans-Serif" font-size="10.00">+</text>
<text text-anchor="start" x="292.5" y="-51.5" font-family="Helvetica,sans-Serif" font-size="10.00">markHostCopyObsolete()</text>
<text text-anchor="start" x="279.5" y="-36.5" font-family="Helvetica,sans-Serif" font-size="10.00">+</text>
<text text-anchor="start" x="292.5" y="-36.5" font-family="Helvetica,sans-Serif" font-size="10.00">tempCopiedUMat()</text>
<text text-anchor="start" x="279.5" y="-21.5" font-family="Helvetica,sans-Serif" font-size="10.00">+</text>
<text text-anchor="start" x="292.5" y="-21.5" font-family="Helvetica,sans-Serif" font-size="10.00">tempUMat()</text>
<text text-anchor="start" x="279.5" y="-6.5" font-family="Helvetica,sans-Serif" font-size="10.00">+</text>
<text text-anchor="start" x="292.5" y="-6.5" font-family="Helvetica,sans-Serif" font-size="10.00">unlock()</text>
<polygon fill="#666666" stroke="#666666" points="275.5,-211.5 275.5,-211.5 432.5,-211.5 432.5,-211.5 275.5,-211.5"/>
<polygon fill="#666666" stroke="#666666" points="275.5,-196.5 275.5,-196.5 432.5,-196.5 432.5,-196.5 275.5,-196.5"/>
<polygon fill="none" stroke="#666666" points="275,0 275,-229 432,-229 432,0 275,0"/>
</a>
</g>
</g>
<!-- Node1&#45;&gt;Node1 -->
<g id="edge7_Node000001_Node000001" class="edge">
<title>Node1&#45;&gt;Node1</title>
<g id="a_edge7_Node000001_Node000001"><a xlink:title=" ">
<path fill="none" stroke="#63b8ff" d="M432.26,-140.12C442.91,-135.82 450,-127.28 450,-114.5 450,-106.51 447.23,-100.18 442.55,-95.51"/>
<polygon fill="none" stroke="#63b8ff" points="442.35,-95.37 435.14,-95.49 432.26,-88.88 439.47,-88.76 442.35,-95.37"/>
</a>
</g>
<text text-anchor="middle" x="499" y="-112" font-family="Helvetica,sans-Serif" font-size="10.00" fill="grey"> +originalUMatData</text>
</g>
<!-- Node2 -->
<g id="Node000002" class="node">
<title>Node2</title>
<g id="a_Node000002"><a xlink:href="../../df/d4c/classcv_1_1MatAllocator.html" target="_top" xlink:title="Custom array allocator.">
<polygon fill="white" stroke="transparent" points="143,-508 0,-508 0,-309 143,-309 143,-508"/>
<text text-anchor="start" x="32.5" y="-495.5" font-family="Helvetica,sans-Serif" font-size="10.00">cv::MatAllocator</text>
<text text-anchor="start" x="70" y="-480.5" font-family="Helvetica,sans-Serif" font-size="10.00"> </text>
<text text-anchor="start" x="4.5" y="-465.5" font-family="Helvetica,sans-Serif" font-size="10.00">+</text>
<text text-anchor="start" x="17.5" y="-465.5" font-family="Helvetica,sans-Serif" font-size="10.00">MatAllocator()</text>
<text text-anchor="start" x="4.5" y="-450.5" font-family="Helvetica,sans-Serif" font-size="10.00">+</text>
<text text-anchor="start" x="17.5" y="-450.5" font-family="Helvetica,sans-Serif" font-size="10.00">~MatAllocator()</text>
<text text-anchor="start" x="4.5" y="-435.5" font-family="Helvetica,sans-Serif" font-size="10.00">+</text>
<text text-anchor="start" x="17.5" y="-435.5" font-family="Helvetica,sans-Serif" font-size="10.00">allocate()</text>
<text text-anchor="start" x="4.5" y="-420.5" font-family="Helvetica,sans-Serif" font-size="10.00">+</text>
<text text-anchor="start" x="17.5" y="-420.5" font-family="Helvetica,sans-Serif" font-size="10.00">allocate()</text>
<text text-anchor="start" x="4.5" y="-405.5" font-family="Helvetica,sans-Serif" font-size="10.00">+</text>
<text text-anchor="start" x="17.5" y="-405.5" font-family="Helvetica,sans-Serif" font-size="10.00">copy()</text>
<text text-anchor="start" x="4.5" y="-390.5" font-family="Helvetica,sans-Serif" font-size="10.00">+</text>
<text text-anchor="start" x="17.5" y="-390.5" font-family="Helvetica,sans-Serif" font-size="10.00">deallocate()</text>
<text text-anchor="start" x="4.5" y="-375.5" font-family="Helvetica,sans-Serif" font-size="10.00">+</text>
<text text-anchor="start" x="17.5" y="-375.5" font-family="Helvetica,sans-Serif" font-size="10.00">download()</text>
<text text-anchor="start" x="4.5" y="-360.5" font-family="Helvetica,sans-Serif" font-size="10.00">+</text>
<text text-anchor="start" x="17.5" y="-360.5" font-family="Helvetica,sans-Serif" font-size="10.00">getBufferPoolController()</text>
<text text-anchor="start" x="4.5" y="-345.5" font-family="Helvetica,sans-Serif" font-size="10.00">+</text>
<text text-anchor="start" x="17.5" y="-345.5" font-family="Helvetica,sans-Serif" font-size="10.00">map()</text>
<text text-anchor="start" x="4.5" y="-330.5" font-family="Helvetica,sans-Serif" font-size="10.00">+</text>
<text text-anchor="start" x="17.5" y="-330.5" font-family="Helvetica,sans-Serif" font-size="10.00">unmap()</text>
<text text-anchor="start" x="4.5" y="-315.5" font-family="Helvetica,sans-Serif" font-size="10.00">+</text>
<text text-anchor="start" x="17.5" y="-315.5" font-family="Helvetica,sans-Serif" font-size="10.00">upload()</text>
<polygon fill="#666666" stroke="#666666" points="0.5,-490.5 0.5,-490.5 143.5,-490.5 143.5,-490.5 0.5,-490.5"/>
<polygon fill="#666666" stroke="#666666" points="0.5,-475.5 0.5,-475.5 143.5,-475.5 143.5,-475.5 0.5,-475.5"/>
<polygon fill="none" stroke="#666666" points="0,-309 0,-508 143,-508 143,-309 0,-309"/>
</a>
</g>
</g>
<!-- Node2&#45;&gt;Node1 -->
<g id="edge1_Node000001_Node000002" class="edge">
<title>Node2&#45;&gt;Node1</title>
<g id="a_edge1_Node000001_Node000002"><a xlink:title=" ">
<path fill="none" stroke="#63b8ff" d="M76.37,-308.8C81.15,-286.88 89.2,-264.88 102.5,-247 141.76,-194.21 208.51,-160.69 263.3,-140.71"/>
<polygon fill="none" stroke="#63b8ff" points="263.48,-140.65 267.81,-134.88 274.8,-136.65 270.47,-142.42 263.48,-140.65"/>
</a>
</g>
<text text-anchor="middle" x="139.5" y="-272" font-family="Helvetica,sans-Serif" font-size="10.00" fill="grey"> +currAllocator</text>
<text text-anchor="middle" x="139.5" y="-261" font-family="Helvetica,sans-Serif" font-size="10.00" fill="grey">+prevAllocator</text>
</g>
<!-- Node3 -->
<g id="Node000003" class="node">
<title>Node3</title>
<g id="a_Node000003"><a xlink:title=" ">
<polygon fill="white" stroke="transparent" points="184,-433 161,-433 161,-384 184,-384 184,-433"/>
<text text-anchor="start" x="166.5" y="-420.5" font-family="Helvetica,sans-Serif" font-size="10.00">int</text>
<text text-anchor="start" x="171" y="-405.5" font-family="Helvetica,sans-Serif" font-size="10.00"> </text>
<text text-anchor="start" x="171" y="-390.5" font-family="Helvetica,sans-Serif" font-size="10.00"> </text>
<polygon fill="#666666" stroke="#666666" points="161.5,-415.5 161.5,-415.5 184.5,-415.5 184.5,-415.5 161.5,-415.5"/>
<polygon fill="#666666" stroke="#666666" points="161.5,-400.5 161.5,-400.5 184.5,-400.5 184.5,-400.5 161.5,-400.5"/>
<polygon fill="none" stroke="#666666" points="161,-384 161,-433 184,-433 184,-384 161,-384"/>
</a>
</g>
</g>
<!-- Node3&#45;&gt;Node1 -->
<g id="edge2_Node000001_Node000003" class="edge">
<title>Node3&#45;&gt;Node1</title>
<g id="a_edge2_Node000001_Node000003"><a xlink:title=" ">
<path fill="none" stroke="#63b8ff" d="M170.99,-383.79C169.96,-350.91 172.04,-290.62 196.5,-247 213.07,-217.45 239.06,-191.67 265.16,-170.96"/>
<polygon fill="none" stroke="#63b8ff" points="265.26,-170.89 267.57,-164.05 274.76,-163.56 272.45,-170.39 265.26,-170.89"/>
</a>
</g>
<text text-anchor="middle" x="239.5" y="-283" font-family="Helvetica,sans-Serif" font-size="10.00" fill="grey"> +allocatorFlags_</text>
<text text-anchor="middle" x="239.5" y="-272" font-family="Helvetica,sans-Serif" font-size="10.00" fill="grey">+mapcount</text>
<text text-anchor="middle" x="239.5" y="-261" font-family="Helvetica,sans-Serif" font-size="10.00" fill="grey">+refcount</text>
<text text-anchor="middle" x="239.5" y="-250" font-family="Helvetica,sans-Serif" font-size="10.00" fill="grey">+urefcount</text>
</g>
<!-- Node4 -->
<g id="Node000004" class="node">
<title>Node4</title>
<g id="a_Node000004"><a xlink:title=" ">
<polygon fill="white" stroke="transparent" points="304.5,-433 258.5,-433 258.5,-384 304.5,-384 304.5,-433"/>
<text text-anchor="start" x="263.5" y="-420.5" font-family="Helvetica,sans-Serif" font-size="10.00">uchar *</text>
<text text-anchor="start" x="279.5" y="-405.5" font-family="Helvetica,sans-Serif" font-size="10.00"> </text>
<text text-anchor="start" x="279.5" y="-390.5" font-family="Helvetica,sans-Serif" font-size="10.00"> </text>
<polygon fill="#666666" stroke="#666666" points="258.5,-415.5 258.5,-415.5 304.5,-415.5 304.5,-415.5 258.5,-415.5"/>
<polygon fill="#666666" stroke="#666666" points="258.5,-400.5 258.5,-400.5 304.5,-400.5 304.5,-400.5 258.5,-400.5"/>
<polygon fill="none" stroke="#666666" points="258.5,-384 258.5,-433 304.5,-433 304.5,-384 258.5,-384"/>
</a>
</g>
</g>
<!-- Node4&#45;&gt;Node1 -->
<g id="edge3_Node000001_Node000004" class="edge">
<title>Node4&#45;&gt;Node1</title>
<g id="a_edge3_Node000001_Node000004"><a xlink:title=" ">
<path fill="none" stroke="#63b8ff" d="M280.93,-383.97C280.72,-352.32 282.3,-294.52 294.5,-247 295.05,-244.87 295.63,-242.72 296.24,-240.57"/>
<polygon fill="none" stroke="#63b8ff" points="296.25,-240.53 294.18,-233.62 299.76,-229.05 301.83,-235.96 296.25,-240.53"/>
</a>
</g>
<text text-anchor="middle" x="319" y="-272" font-family="Helvetica,sans-Serif" font-size="10.00" fill="grey"> +data</text>
<text text-anchor="middle" x="319" y="-261" font-family="Helvetica,sans-Serif" font-size="10.00" fill="grey">+origdata</text>
</g>
<!-- Node5 -->
<g id="Node000005" class="node">
<title>Node5</title>
<g id="a_Node000005"><a xlink:title=" ">
<polygon fill="white" stroke="transparent" points="362,-433 323,-433 323,-384 362,-384 362,-433"/>
<text text-anchor="start" x="328.5" y="-420.5" font-family="Helvetica,sans-Serif" font-size="10.00">size_t</text>
<text text-anchor="start" x="341" y="-405.5" font-family="Helvetica,sans-Serif" font-size="10.00"> </text>
<text text-anchor="start" x="341" y="-390.5" font-family="Helvetica,sans-Serif" font-size="10.00"> </text>
<polygon fill="#666666" stroke="#666666" points="323.5,-415.5 323.5,-415.5 362.5,-415.5 362.5,-415.5 323.5,-415.5"/>
<polygon fill="#666666" stroke="#666666" points="323.5,-400.5 323.5,-400.5 362.5,-400.5 362.5,-400.5 323.5,-400.5"/>
<polygon fill="none" stroke="#666666" points="323,-384 323,-433 362,-433 362,-384 323,-384"/>
</a>
</g>
</g>
<!-- Node5&#45;&gt;Node1 -->
<g id="edge4_Node000001_Node000005" class="edge">
<title>Node5&#45;&gt;Node1</title>
<g id="a_edge4_Node000001_Node000005"><a xlink:title=" ">
<path fill="none" stroke="#63b8ff" d="M343.4,-383.6C344.58,-352.26 346.74,-294.94 348.76,-241.33"/>
<polygon fill="none" stroke="#63b8ff" points="348.76,-241.23 344.99,-235.08 349.22,-229.24 352.99,-235.38 348.76,-241.23"/>
</a>
</g>
<text text-anchor="middle" x="364" y="-266.5" font-family="Helvetica,sans-Serif" font-size="10.00" fill="grey"> +size</text>
</g>
<!-- Node6 -->
<g id="Node000006" class="node">
<title>Node6</title>
<g id="a_Node000006"><a xlink:title=" ">
<polygon fill="white" stroke="transparent" points="452.5,-433 380.5,-433 380.5,-384 452.5,-384 452.5,-433"/>
<text text-anchor="start" x="385.5" y="-420.5" font-family="Helvetica,sans-Serif" font-size="10.00">MemoryFlag</text>
<text text-anchor="start" x="414.5" y="-405.5" font-family="Helvetica,sans-Serif" font-size="10.00"> </text>
<text text-anchor="start" x="414.5" y="-390.5" font-family="Helvetica,sans-Serif" font-size="10.00"> </text>
<polygon fill="#666666" stroke="#666666" points="380.5,-415.5 380.5,-415.5 452.5,-415.5 452.5,-415.5 380.5,-415.5"/>
<polygon fill="#666666" stroke="#666666" points="380.5,-400.5 380.5,-400.5 452.5,-400.5 452.5,-400.5 380.5,-400.5"/>
<polygon fill="none" stroke="#666666" points="380.5,-384 380.5,-433 452.5,-433 452.5,-384 380.5,-384"/>
</a>
</g>
</g>
<!-- Node6&#45;&gt;Node1 -->
<g id="edge5_Node000001_Node000006" class="edge">
<title>Node6&#45;&gt;Node1</title>
<g id="a_edge5_Node000001_Node000006"><a xlink:title=" ">
<path fill="none" stroke="#63b8ff" d="M411.79,-383.81C405.53,-352.46 394.02,-295.51 383.5,-247 383.07,-244.99 382.62,-242.97 382.18,-240.94"/>
<polygon fill="none" stroke="#63b8ff" points="382.17,-240.87 376.97,-235.87 379.59,-229.15 384.78,-234.15 382.17,-240.87"/>
</a>
</g>
<text text-anchor="middle" x="410" y="-266.5" font-family="Helvetica,sans-Serif" font-size="10.00" fill="grey"> +flags</text>
</g>
<!-- Node7 -->
<g id="Node000007" class="node">
<title>Node7</title>
<g id="a_Node000007"><a xlink:title=" ">
<polygon fill="white" stroke="transparent" points="510.5,-433 470.5,-433 470.5,-384 510.5,-384 510.5,-433"/>
<text text-anchor="start" x="475.5" y="-420.5" font-family="Helvetica,sans-Serif" font-size="10.00">void *</text>
<text text-anchor="start" x="488.5" y="-405.5" font-family="Helvetica,sans-Serif" font-size="10.00"> </text>
<text text-anchor="start" x="488.5" y="-390.5" font-family="Helvetica,sans-Serif" font-size="10.00"> </text>
<polygon fill="#666666" stroke="#666666" points="470.5,-415.5 470.5,-415.5 510.5,-415.5 510.5,-415.5 470.5,-415.5"/>
<polygon fill="#666666" stroke="#666666" points="470.5,-400.5 470.5,-400.5 510.5,-400.5 510.5,-400.5 470.5,-400.5"/>
<polygon fill="none" stroke="#666666" points="470.5,-384 470.5,-433 510.5,-433 510.5,-384 470.5,-384"/>
</a>
</g>
</g>
<!-- Node7&#45;&gt;Node1 -->
<g id="edge6_Node000001_Node000007" class="edge">
<title>Node7&#45;&gt;Node1</title>
<g id="a_edge6_Node000001_Node000007"><a xlink:title=" ">
<path fill="none" stroke="#63b8ff" d="M484.66,-383.65C479.43,-363.47 471.13,-333.94 461.5,-309 452.59,-285.92 441.34,-262.22 429.48,-239.67"/>
<polygon fill="none" stroke="#63b8ff" points="429.47,-239.64 423.11,-236.23 423.82,-229.06 430.17,-232.46 429.47,-239.64"/>
</a>
</g>
<text text-anchor="middle" x="478.5" y="-272" font-family="Helvetica,sans-Serif" font-size="10.00" fill="grey"> +handle</text>
<text text-anchor="middle" x="478.5" y="-261" font-family="Helvetica,sans-Serif" font-size="10.00" fill="grey">+userdata</text>
</g>
<!-- Node8 -->
<g id="Node000008" class="node">
<title>Node8</title>
<g id="a_Node000008"><a xlink:title=" ">
<polygon fill="white" stroke="transparent" points="656,-433 529,-433 529,-384 656,-384 656,-433"/>
<text text-anchor="start" x="534.5" y="-420.5" font-family="Helvetica,sans-Serif" font-size="10.00">std::shared_ptr&lt; void &gt;</text>
<text text-anchor="start" x="591" y="-405.5" font-family="Helvetica,sans-Serif" font-size="10.00"> </text>
<text text-anchor="start" x="591" y="-390.5" font-family="Helvetica,sans-Serif" font-size="10.00"> </text>
<polygon fill="#666666" stroke="#666666" points="529.5,-415.5 529.5,-415.5 656.5,-415.5 656.5,-415.5 529.5,-415.5"/>
<polygon fill="#666666" stroke="#666666" points="529.5,-400.5 529.5,-400.5 656.5,-400.5 656.5,-400.5 529.5,-400.5"/>
<polygon fill="none" stroke="#666666" points="529,-384 529,-433 656,-433 656,-384 529,-384"/>
</a>
</g>
</g>
<!-- Node8&#45;&gt;Node1 -->
<g id="edge8_Node000001_Node000008" class="edge">
<title>Node8&#45;&gt;Node1</title>
<g id="a_edge8_Node000001_Node000008"><a xlink:title=" ">
<path fill="none" stroke="#63b8ff" d="M583.49,-383.78C570.27,-350.89 543.37,-290.59 508.5,-247 489.23,-222.92 465.06,-199.95 441.57,-180.14"/>
<polygon fill="none" stroke="#63b8ff" points="441.5,-180.09 434.33,-179.34 432.26,-172.43 439.43,-173.18 441.5,-180.09"/>
</a>
</g>
<text text-anchor="middle" x="584" y="-266.5" font-family="Helvetica,sans-Serif" font-size="10.00" fill="grey"> +allocatorContext</text>
</g>
<!-- Node9 -->
<g id="Node000009" class="node">
<title>Node9</title>
<g id="a_Node000009"><a xlink:title=" ">
<polygon fill="white" stroke="transparent" points="574.5,-604 542.5,-604 542.5,-555 574.5,-555 574.5,-604"/>
<text text-anchor="start" x="547.5" y="-591.5" font-family="Helvetica,sans-Serif" font-size="10.00">void</text>
<text text-anchor="start" x="556.5" y="-576.5" font-family="Helvetica,sans-Serif" font-size="10.00"> </text>
<text text-anchor="start" x="556.5" y="-561.5" font-family="Helvetica,sans-Serif" font-size="10.00"> </text>
<polygon fill="#666666" stroke="#666666" points="542.5,-586.5 542.5,-586.5 574.5,-586.5 574.5,-586.5 542.5,-586.5"/>
<polygon fill="#666666" stroke="#666666" points="542.5,-571.5 542.5,-571.5 574.5,-571.5 574.5,-571.5 542.5,-571.5"/>
<polygon fill="none" stroke="#666666" points="542.5,-555 542.5,-604 574.5,-604 574.5,-555 542.5,-555"/>
</a>
</g>
</g>
<!-- Node9&#45;&gt;Node8 -->
<g id="edge9_Node000008_Node000009" class="edge">
<title>Node9&#45;&gt;Node8</title>
<g id="a_edge9_Node000008_Node000009"><a xlink:title=" ">
<path fill="none" stroke="#63b8ff" d="M563.3,-554.64C569.05,-526.08 578.72,-477.99 585.35,-445.05"/>
<polygon fill="none" stroke="#63b8ff" points="585.36,-445 582.62,-438.33 587.73,-433.23 590.46,-439.9 585.36,-445"/>
</a>
</g>
<text text-anchor="middle" x="582" y="-529" font-family="Helvetica,sans-Serif" font-size="10.00" fill="grey"> +ptr</text>
</g>
<!-- Node10 -->
<g id="Node000010" class="node">
<title>Node10</title>
<g id="a_Node000010"><a xlink:title=" ">
<polygon fill="white" stroke="transparent" points="704.5,-604 592.5,-604 592.5,-555 704.5,-555 704.5,-604"/>
<text text-anchor="start" x="597.5" y="-591.5" font-family="Helvetica,sans-Serif" font-size="10.00">std::shared_ptr&lt; T &gt;</text>
<text text-anchor="start" x="646.5" y="-576.5" font-family="Helvetica,sans-Serif" font-size="10.00"> </text>
<text text-anchor="start" x="604" y="-561.5" font-family="Helvetica,sans-Serif" font-size="10.00">+</text>
<text text-anchor="start" x="624.5" y="-561.5" font-family="Helvetica,sans-Serif" font-size="10.00">operator&#45;&gt;()</text>
<polygon fill="#666666" stroke="#666666" points="592.5,-586.5 592.5,-586.5 704.5,-586.5 704.5,-586.5 592.5,-586.5"/>
<polygon fill="#666666" stroke="#666666" points="592.5,-571.5 592.5,-571.5 704.5,-571.5 704.5,-571.5 592.5,-571.5"/>
<polygon fill="none" stroke="#666666" points="592.5,-555 592.5,-604 704.5,-604 704.5,-555 592.5,-555"/>
</a>
</g>
</g>
<!-- Node10&#45;&gt;Node8 -->
<g id="edge10_Node000008_Node000010" class="edge">
<title>Node10&#45;&gt;Node8</title>
<g id="a_edge10_Node000008_Node000010"><a xlink:title=" ">
<path fill="none" stroke="orange" d="M637.39,-544.97C626.45,-511.96 610.02,-462.37 600.36,-433.23"/>
<polygon fill="orange" stroke="orange" points="634.13,-546.25 640.6,-554.64 640.77,-544.05 634.13,-546.25"/>
</a>
</g>
<text text-anchor="middle" x="656" y="-529" font-family="Helvetica,sans-Serif" font-size="10.00" fill="grey"> &lt; void &gt;</text>
</g>
<!-- Node11 -->
<g id="Node000011" class="node">
<title>Node11</title>
<g id="a_Node000011"><a xlink:title=" ">
<polygon fill="white" stroke="transparent" points="657,-700 640,-700 640,-651 657,-651 657,-700"/>
<text text-anchor="start" x="645.5" y="-687.5" font-family="Helvetica,sans-Serif" font-size="10.00">T</text>
<text text-anchor="start" x="647" y="-672.5" font-family="Helvetica,sans-Serif" font-size="10.00"> </text>
<text text-anchor="start" x="647" y="-657.5" font-family="Helvetica,sans-Serif" font-size="10.00"> </text>
<polygon fill="#666666" stroke="#666666" points="640.5,-682.5 640.5,-682.5 657.5,-682.5 657.5,-682.5 640.5,-682.5"/>
<polygon fill="#666666" stroke="#666666" points="640.5,-667.5 640.5,-667.5 657.5,-667.5 657.5,-667.5 640.5,-667.5"/>
<polygon fill="none" stroke="#666666" points="640,-651 640,-700 657,-700 657,-651 640,-651"/>
</a>
</g>
</g>
<!-- Node11&#45;&gt;Node10 -->
<g id="edge11_Node000010_Node000011" class="edge">
<title>Node11&#45;&gt;Node10</title>
<g id="a_edge11_Node000010_Node000011"><a xlink:title=" ">
<path fill="none" stroke="#63b8ff" d="M648.5,-650.78C648.5,-640.32 648.5,-627.79 648.5,-616.23"/>
<polygon fill="none" stroke="#63b8ff" points="648.5,-616.21 644.5,-610.21 648.5,-604.21 652.5,-610.21 648.5,-616.21"/>
</a>
</g>
<text text-anchor="middle" x="661" y="-625" font-family="Helvetica,sans-Serif" font-size="10.00" fill="grey"> +ptr</text>
</g>
</g>
</svg>
