<?xml version="1.0" encoding="UTF-8" standalone="no"?>
<!DOCTYPE svg PUBLIC "-//W3C//DTD SVG 1.1//EN"
 "http://www.w3.org/Graphics/SVG/1.1/DTD/svg11.dtd">
<!-- Generated by graphviz version 2.43.0 (0)
 -->
<!-- Title: cv::exp Pages: 1 -->
<svg width="146pt" height="45pt"
 viewBox="0.00 0.00 146.00 45.00" xmlns="http://www.w3.org/2000/svg" xmlns:xlink="http://www.w3.org/1999/xlink">
<g id="graph0" class="graph" transform="scale(1 1) rotate(0) translate(4 41)">
<title>cv::exp</title>
<!-- Node1 -->
<g id="Node000001" class="node">
<title>Node1</title>
<g id="a_Node000001"><a xlink:title=" ">
<polygon fill="#999999" stroke="#666666" points="51,-19 0,-19 0,0 51,0 51,-19"/>
<text text-anchor="middle" x="25.5" y="-7" font-family="Helvetica,sans-Serif" font-size="10.00">cv::exp</text>
</a>
</g>
</g>
<!-- Node2 -->
<g id="Node000002" class="node">
<title>Node2</title>
<g id="a_Node000002"><a xlink:href="../../d2/de8/group__core__array.html#ga3e10108e2162c338f1b848af619f39e5" target="_top" xlink:title="Calculates the exponent of every array element.">
<polygon fill="white" stroke="#666666" points="138,-19 87,-19 87,0 138,0 138,-19"/>
<text text-anchor="middle" x="112.5" y="-7" font-family="Helvetica,sans-Serif" font-size="10.00">cv::exp</text>
</a>
</g>
</g>
<!-- Node1&#45;&gt;Node2 -->
<g id="edge1_Node000001_Node000002" class="edge">
<title>Node1&#45;&gt;Node2</title>
<g id="a_edge1_Node000001_Node000002"><a xlink:title=" ">
<path fill="none" stroke="#63b8ff" d="M51.09,-9.5C59.1,-9.5 68.16,-9.5 76.78,-9.5"/>
<polygon fill="#63b8ff" stroke="#63b8ff" points="76.97,-13 86.97,-9.5 76.97,-6 76.97,-13"/>
</a>
</g>
</g>
<!-- Node2&#45;&gt;Node2 -->
<g id="edge2_Node000002_Node000002" class="edge">
<title>Node2&#45;&gt;Node2</title>
<g id="a_edge2_Node000002_Node000002"><a xlink:title=" ">
<path fill="none" stroke="#63b8ff" d="M99.24,-19.08C92.8,-27.73 97.21,-37 112.5,-37 121.81,-37 127.09,-33.56 128.34,-28.91"/>
<polygon fill="#63b8ff" stroke="#63b8ff" points="131.68,-27.87 125.76,-19.08 124.91,-29.64 131.68,-27.87"/>
</a>
</g>
</g>
</g>
</svg>
