<?xml version="1.0" encoding="UTF-8" standalone="no"?>
<!DOCTYPE svg PUBLIC "-//W3C//DTD SVG 1.1//EN"
 "http://www.w3.org/Graphics/SVG/1.1/DTD/svg11.dtd">
<!-- Generated by graphviz version 2.43.0 (0)
 -->
<!-- Title: cv::swap Pages: 1 -->
<svg width="162pt" height="45pt"
 viewBox="0.00 0.00 162.00 45.00" xmlns="http://www.w3.org/2000/svg" xmlns:xlink="http://www.w3.org/1999/xlink">
<g id="graph0" class="graph" transform="scale(1 1) rotate(0) translate(4 41)">
<title>cv::swap</title>
<!-- Node1 -->
<g id="Node000001" class="node">
<title>Node1</title>
<g id="a_Node000001"><a xlink:title=" ">
<polygon fill="#999999" stroke="#666666" points="59,-19 0,-19 0,0 59,0 59,-19"/>
<text text-anchor="middle" x="29.5" y="-7" font-family="Helvetica,sans-Serif" font-size="10.00">cv::swap</text>
</a>
</g>
</g>
<!-- Node2 -->
<g id="Node000002" class="node">
<title>Node2</title>
<g id="a_Node000002"><a xlink:href="../../d0/de1/group__core.html#gafbc8f513f40dc1b7c2d48ea6a5a81776" target="_top" xlink:title="Swaps two matrices.">
<polygon fill="white" stroke="#666666" points="154,-19 95,-19 95,0 154,0 154,-19"/>
<text text-anchor="middle" x="124.5" y="-7" font-family="Helvetica,sans-Serif" font-size="10.00">cv::swap</text>
</a>
</g>
</g>
<!-- Node1&#45;&gt;Node2 -->
<g id="edge1_Node000001_Node000002" class="edge">
<title>Node1&#45;&gt;Node2</title>
<g id="a_edge1_Node000001_Node000002"><a xlink:title=" ">
<path fill="none" stroke="#63b8ff" d="M59.16,-9.5C67.21,-9.5 76.09,-9.5 84.62,-9.5"/>
<polygon fill="#63b8ff" stroke="#63b8ff" points="84.77,-13 94.77,-9.5 84.77,-6 84.77,-13"/>
</a>
</g>
</g>
<!-- Node2&#45;&gt;Node2 -->
<g id="edge2_Node000002_Node000002" class="edge">
<title>Node2&#45;&gt;Node2</title>
<g id="a_edge2_Node000002_Node000002"><a xlink:title=" ">
<path fill="none" stroke="#63b8ff" d="M110.01,-19.08C102.96,-27.73 107.79,-37 124.5,-37 134.68,-37 140.45,-33.56 141.81,-28.91"/>
<polygon fill="#63b8ff" stroke="#63b8ff" points="145.11,-27.73 138.99,-19.08 138.38,-29.66 145.11,-27.73"/>
</a>
</g>
</g>
</g>
</svg>
