<?xml version="1.0" encoding="UTF-8" standalone="no"?>
<!DOCTYPE svg PUBLIC "-//W3C//DTD SVG 1.1//EN"
 "http://www.w3.org/Graphics/SVG/1.1/DTD/svg11.dtd">
<!-- Generated by graphviz version 2.43.0 (0)
 -->
<!-- Title: cv::utils::logging::LogTagAuto Pages: 1 -->
<svg width="114pt" height="261pt"
 viewBox="0.00 0.00 114.00 261.00" xmlns="http://www.w3.org/2000/svg" xmlns:xlink="http://www.w3.org/1999/xlink">
<g id="graph0" class="graph" transform="scale(1 1) rotate(0) translate(4 257)">
<title>cv::utils::logging::LogTagAuto</title>
<!-- Node1 -->
<g id="Node000001" class="node">
<title>Node1</title>
<g id="a_Node000001"><a xlink:title=" ">
<polygon fill="#999999" stroke="transparent" points="92,-60 2,-60 2,0 92,0 92,-60"/>
<text text-anchor="start" x="7" y="-48" font-family="Helvetica,sans-Serif" font-size="10.00">cv::utils::logging</text>
<text text-anchor="start" x="15.5" y="-37" font-family="Helvetica,sans-Serif" font-size="10.00">::LogTagAuto</text>
<text text-anchor="start" x="45" y="-22" font-family="Helvetica,sans-Serif" font-size="10.00"> </text>
<text text-anchor="start" x="7" y="-7" font-family="Helvetica,sans-Serif" font-size="10.00">+</text>
<text text-anchor="start" x="21" y="-7" font-family="Helvetica,sans-Serif" font-size="10.00">LogTagAuto()</text>
<polygon fill="#666666" stroke="#666666" points="2,-32 2,-32 92,-32 92,-32 2,-32"/>
<polygon fill="#666666" stroke="#666666" points="2,-17 2,-17 92,-17 92,-17 2,-17"/>
<polygon fill="none" stroke="#666666" points="2,0 2,-60 92,-60 92,0 2,0"/>
</a>
</g>
</g>
<!-- Node2 -->
<g id="Node000002" class="node">
<title>Node2</title>
<g id="a_Node000002"><a xlink:href="../../d3/d18/structcv_1_1utils_1_1logging_1_1LogTag.html" target="_top" xlink:title=" ">
<polygon fill="white" stroke="transparent" points="92,-157 2,-157 2,-97 92,-97 92,-157"/>
<text text-anchor="start" x="7" y="-145" font-family="Helvetica,sans-Serif" font-size="10.00">cv::utils::logging</text>
<text text-anchor="start" x="27" y="-134" font-family="Helvetica,sans-Serif" font-size="10.00">::LogTag</text>
<text text-anchor="start" x="45" y="-119" font-family="Helvetica,sans-Serif" font-size="10.00"> </text>
<text text-anchor="start" x="12.5" y="-104" font-family="Helvetica,sans-Serif" font-size="10.00">+</text>
<text text-anchor="start" x="32" y="-104" font-family="Helvetica,sans-Serif" font-size="10.00">LogTag()</text>
<polygon fill="#666666" stroke="#666666" points="2,-129 2,-129 92,-129 92,-129 2,-129"/>
<polygon fill="#666666" stroke="#666666" points="2,-114 2,-114 92,-114 92,-114 2,-114"/>
<polygon fill="none" stroke="#666666" points="2,-97 2,-157 92,-157 92,-97 2,-97"/>
</a>
</g>
</g>
<!-- Node2&#45;&gt;Node1 -->
<g id="edge1_Node000001_Node000002" class="edge">
<title>Node2&#45;&gt;Node1</title>
<g id="a_edge1_Node000001_Node000002"><a xlink:title=" ">
<path fill="none" stroke="#63b8ff" d="M47,-86.79C47,-77.88 47,-68.57 47,-60.17"/>
<polygon fill="none" stroke="#63b8ff" points="43.5,-86.98 47,-96.98 50.5,-86.98 43.5,-86.98"/>
</a>
</g>
</g>
<!-- Node3 -->
<g id="Node000003" class="node">
<title>Node3</title>
<g id="a_Node000003"><a xlink:title=" ">
<polygon fill="white" stroke="transparent" points="32,-253 0,-253 0,-204 32,-204 32,-253"/>
<text text-anchor="start" x="5" y="-240.5" font-family="Helvetica,sans-Serif" font-size="10.00">char</text>
<text text-anchor="start" x="14" y="-225.5" font-family="Helvetica,sans-Serif" font-size="10.00"> </text>
<text text-anchor="start" x="14" y="-210.5" font-family="Helvetica,sans-Serif" font-size="10.00"> </text>
<polygon fill="#666666" stroke="#666666" points="0,-235.5 0,-235.5 32,-235.5 32,-235.5 0,-235.5"/>
<polygon fill="#666666" stroke="#666666" points="0,-220.5 0,-220.5 32,-220.5 32,-220.5 0,-220.5"/>
<polygon fill="none" stroke="#666666" points="0,-204 0,-253 32,-253 32,-204 0,-204"/>
</a>
</g>
</g>
<!-- Node3&#45;&gt;Node2 -->
<g id="edge2_Node000002_Node000003" class="edge">
<title>Node3&#45;&gt;Node2</title>
<g id="a_edge2_Node000002_Node000003"><a xlink:title=" ">
<path fill="none" stroke="#63b8ff" d="M13.74,-203.81C13.56,-194.64 14.23,-184.16 17,-175 17.72,-172.61 18.6,-170.23 19.6,-167.87"/>
<polygon fill="none" stroke="#63b8ff" points="19.61,-167.85 18.74,-160.69 25.01,-157.13 25.88,-164.29 19.61,-167.85"/>
</a>
</g>
<text text-anchor="middle" x="37" y="-178" font-family="Helvetica,sans-Serif" font-size="10.00" fill="grey"> +name</text>
</g>
<!-- Node4 -->
<g id="Node000004" class="node">
<title>Node4</title>
<g id="a_Node000004"><a xlink:title=" ">
<polygon fill="white" stroke="transparent" points="106,-253 52,-253 52,-204 106,-204 106,-253"/>
<text text-anchor="start" x="57" y="-240.5" font-family="Helvetica,sans-Serif" font-size="10.00">LogLevel</text>
<text text-anchor="start" x="77" y="-225.5" font-family="Helvetica,sans-Serif" font-size="10.00"> </text>
<text text-anchor="start" x="77" y="-210.5" font-family="Helvetica,sans-Serif" font-size="10.00"> </text>
<polygon fill="#666666" stroke="#666666" points="52,-235.5 52,-235.5 106,-235.5 106,-235.5 52,-235.5"/>
<polygon fill="#666666" stroke="#666666" points="52,-220.5 52,-220.5 106,-220.5 106,-220.5 52,-220.5"/>
<polygon fill="none" stroke="#666666" points="52,-204 52,-253 106,-253 106,-204 52,-204"/>
</a>
</g>
</g>
<!-- Node4&#45;&gt;Node2 -->
<g id="edge3_Node000002_Node000004" class="edge">
<title>Node4&#45;&gt;Node2</title>
<g id="a_edge3_Node000002_Node000004"><a xlink:title=" ">
<path fill="none" stroke="#63b8ff" d="M71.42,-203.92C68.03,-193.4 63.95,-180.71 60.1,-168.73"/>
<polygon fill="none" stroke="#63b8ff" points="60.03,-168.53 54.39,-164.04 56.36,-157.1 62,-161.59 60.03,-168.53"/>
</a>
</g>
<text text-anchor="middle" x="82" y="-178" font-family="Helvetica,sans-Serif" font-size="10.00" fill="grey"> +level</text>
</g>
</g>
</svg>
