<?xml version="1.0" encoding="UTF-8" standalone="no"?>
<!DOCTYPE svg PUBLIC "-//W3C//DTD SVG 1.1//EN"
 "http://www.w3.org/Graphics/SVG/1.1/DTD/svg11.dtd">
<!-- Generated by graphviz version 2.43.0 (0)
 -->
<!-- Title: cv::quality::QualityBase::getQualityMap Pages: 1 -->
<svg width="314pt" height="64pt"
 viewBox="0.00 0.00 314.00 64.00" xmlns="http://www.w3.org/2000/svg" xmlns:xlink="http://www.w3.org/1999/xlink">
<g id="graph0" class="graph" transform="scale(1 1) rotate(0) translate(4 60)">
<title>cv::quality::QualityBase::getQualityMap</title>
<!-- Node1 -->
<g id="Node000001" class="node">
<title>Node1</title>
<g id="a_Node000001"><a xlink:title="Returns output quality map that was generated during computation, if supported by the algorithm">
<polygon fill="#999999" stroke="#666666" points="131,-42.5 0,-42.5 0,-12.5 131,-12.5 131,-42.5"/>
<text text-anchor="start" x="8" y="-30.5" font-family="Helvetica,sans-Serif" font-size="10.00">cv::quality::QualityBase</text>
<text text-anchor="middle" x="65.5" y="-19.5" font-family="Helvetica,sans-Serif" font-size="10.00">::getQualityMap</text>
</a>
</g>
</g>
<!-- Node2 -->
<g id="Node000002" class="node">
<title>Node2</title>
<g id="a_Node000002"><a xlink:href="../../d2/d9e/classcv_1_1__OutputArray.html#a6aeb30bb97609c10c16b76952fb1715c" target="_top" xlink:title=" ">
<polygon fill="white" stroke="#666666" points="303.5,-56 169.5,-56 169.5,-37 303.5,-37 303.5,-56"/>
<text text-anchor="middle" x="236.5" y="-44" font-family="Helvetica,sans-Serif" font-size="10.00">cv::_OutputArray::assign</text>
</a>
</g>
</g>
<!-- Node1&#45;&gt;Node2 -->
<g id="edge1_Node000001_Node000002" class="edge">
<title>Node1&#45;&gt;Node2</title>
<g id="a_edge1_Node000001_Node000002"><a xlink:title=" ">
<path fill="none" stroke="#63b8ff" d="M131.36,-34.79C140.52,-35.82 150,-36.89 159.35,-37.94"/>
<polygon fill="#63b8ff" stroke="#63b8ff" points="159.09,-41.43 169.42,-39.07 159.87,-34.48 159.09,-41.43"/>
</a>
</g>
</g>
<!-- Node3 -->
<g id="Node000003" class="node">
<title>Node3</title>
<g id="a_Node000003"><a xlink:href="../../d2/d9e/classcv_1_1__OutputArray.html#a2ef2667f36017be9379d95fc5f421976" target="_top" xlink:title=" ">
<polygon fill="white" stroke="#666666" points="306,-19 167,-19 167,0 306,0 306,-19"/>
<text text-anchor="middle" x="236.5" y="-7" font-family="Helvetica,sans-Serif" font-size="10.00">cv::_OutputArray::needed</text>
</a>
</g>
</g>
<!-- Node1&#45;&gt;Node3 -->
<g id="edge2_Node000001_Node000003" class="edge">
<title>Node1&#45;&gt;Node3</title>
<g id="a_edge2_Node000001_Node000003"><a xlink:title=" ">
<path fill="none" stroke="#63b8ff" d="M131.36,-20.59C139.72,-19.7 148.35,-18.78 156.91,-17.87"/>
<polygon fill="#63b8ff" stroke="#63b8ff" points="157.32,-21.35 166.89,-16.81 156.58,-14.39 157.32,-21.35"/>
</a>
</g>
</g>
</g>
</svg>
