<?xml version="1.0" encoding="UTF-8" standalone="no"?>
<!DOCTYPE svg PUBLIC "-//W3C//DTD SVG 1.1//EN"
 "http://www.w3.org/Graphics/SVG/1.1/DTD/svg11.dtd">
<!-- Generated by graphviz version 2.43.0 (0)
 -->
<!-- Title: cv::detail::CylindricalProjector Pages: 1 -->
<svg width="164pt" height="309pt"
 viewBox="0.00 0.00 164.00 309.00" xmlns="http://www.w3.org/2000/svg" xmlns:xlink="http://www.w3.org/1999/xlink">
<g id="graph0" class="graph" transform="scale(1 1) rotate(0) translate(4 305)">
<title>cv::detail::CylindricalProjector</title>
<!-- Node1 -->
<g id="Node000001" class="node">
<title>Node1</title>
<g id="a_Node000001"><a xlink:title=" ">
<polygon fill="#999999" stroke="transparent" points="156,-64 0,-64 0,0 156,0 156,-64"/>
<text text-anchor="start" x="5" y="-52" font-family="Helvetica,sans-Serif" font-size="10.00">cv::detail::CylindricalProjector</text>
<text text-anchor="start" x="76" y="-37" font-family="Helvetica,sans-Serif" font-size="10.00"> </text>
<text text-anchor="start" x="18" y="-22" font-family="Helvetica,sans-Serif" font-size="10.00">+</text>
<text text-anchor="start" x="45" y="-22" font-family="Helvetica,sans-Serif" font-size="10.00">mapBackward()</text>
<text text-anchor="start" x="18" y="-7" font-family="Helvetica,sans-Serif" font-size="10.00">+</text>
<text text-anchor="start" x="45" y="-7" font-family="Helvetica,sans-Serif" font-size="10.00">mapForward()</text>
<polygon fill="#666666" stroke="#666666" points="0,-47 0,-47 156,-47 156,-47 0,-47"/>
<polygon fill="#666666" stroke="#666666" points="0,-32 0,-32 156,-32 156,-32 0,-32"/>
<polygon fill="none" stroke="#666666" points="0,0 0,-64 156,-64 156,0 0,0"/>
</a>
</g>
</g>
<!-- Node2 -->
<g id="Node000002" class="node">
<title>Node2</title>
<g id="a_Node000002"><a xlink:href="../../dc/d2c/structcv_1_1detail_1_1ProjectorBase.html" target="_top" xlink:title="Base class for warping logic implementation.">
<polygon fill="white" stroke="transparent" points="142,-150 14,-150 14,-101 142,-101 142,-150"/>
<text text-anchor="start" x="19" y="-137.5" font-family="Helvetica,sans-Serif" font-size="10.00">cv::detail::ProjectorBase</text>
<text text-anchor="start" x="76" y="-122.5" font-family="Helvetica,sans-Serif" font-size="10.00"> </text>
<text text-anchor="start" x="20.5" y="-107.5" font-family="Helvetica,sans-Serif" font-size="10.00">+</text>
<text text-anchor="start" x="36" y="-107.5" font-family="Helvetica,sans-Serif" font-size="10.00">setCameraParams()</text>
<polygon fill="#666666" stroke="#666666" points="14,-132.5 14,-132.5 142,-132.5 142,-132.5 14,-132.5"/>
<polygon fill="#666666" stroke="#666666" points="14,-117.5 14,-117.5 142,-117.5 142,-117.5 14,-117.5"/>
<polygon fill="none" stroke="#666666" points="14,-101 14,-150 142,-150 142,-101 14,-101"/>
</a>
</g>
</g>
<!-- Node2&#45;&gt;Node1 -->
<g id="edge1_Node000001_Node000002" class="edge">
<title>Node2&#45;&gt;Node1</title>
<g id="a_edge1_Node000001_Node000002"><a xlink:title=" ">
<path fill="none" stroke="#63b8ff" d="M78,-90.71C78,-81.99 78,-72.65 78,-64.08"/>
<polygon fill="none" stroke="#63b8ff" points="74.5,-90.94 78,-100.94 81.5,-90.94 74.5,-90.94"/>
</a>
</g>
</g>
<!-- Node3 -->
<g id="Node000003" class="node">
<title>Node3</title>
<g id="a_Node000003"><a xlink:title=" ">
<polygon fill="white" stroke="transparent" points="94,-301 62,-301 62,-252 94,-252 94,-301"/>
<text text-anchor="start" x="67" y="-288.5" font-family="Helvetica,sans-Serif" font-size="10.00">float</text>
<text text-anchor="start" x="76" y="-273.5" font-family="Helvetica,sans-Serif" font-size="10.00"> </text>
<text text-anchor="start" x="76" y="-258.5" font-family="Helvetica,sans-Serif" font-size="10.00"> </text>
<polygon fill="#666666" stroke="#666666" points="62,-283.5 62,-283.5 94,-283.5 94,-283.5 62,-283.5"/>
<polygon fill="#666666" stroke="#666666" points="62,-268.5 62,-268.5 94,-268.5 94,-268.5 62,-268.5"/>
<polygon fill="none" stroke="#666666" points="62,-252 62,-301 94,-301 94,-252 62,-252"/>
</a>
</g>
</g>
<!-- Node3&#45;&gt;Node2 -->
<g id="edge2_Node000002_Node000003" class="edge">
<title>Node3&#45;&gt;Node2</title>
<g id="a_edge2_Node000002_Node000003"><a xlink:title=" ">
<path fill="none" stroke="#63b8ff" d="M78,-251.89C78,-227.95 78,-190.57 78,-162.85"/>
<polygon fill="none" stroke="#63b8ff" points="78,-162.49 74,-156.49 78,-150.49 82,-156.49 78,-162.49"/>
</a>
</g>
<text text-anchor="middle" x="97.5" y="-226" font-family="Helvetica,sans-Serif" font-size="10.00" fill="grey"> +k</text>
<text text-anchor="middle" x="97.5" y="-215" font-family="Helvetica,sans-Serif" font-size="10.00" fill="grey">+k_rinv</text>
<text text-anchor="middle" x="97.5" y="-204" font-family="Helvetica,sans-Serif" font-size="10.00" fill="grey">+r_kinv</text>
<text text-anchor="middle" x="97.5" y="-193" font-family="Helvetica,sans-Serif" font-size="10.00" fill="grey">+rinv</text>
<text text-anchor="middle" x="97.5" y="-182" font-family="Helvetica,sans-Serif" font-size="10.00" fill="grey">+scale</text>
<text text-anchor="middle" x="97.5" y="-171" font-family="Helvetica,sans-Serif" font-size="10.00" fill="grey">+t</text>
</g>
</g>
</svg>
