<?xml version="1.0" encoding="UTF-8" standalone="no"?>
<!DOCTYPE svg PUBLIC "-//W3C//DTD SVG 1.1//EN"
 "http://www.w3.org/Graphics/SVG/1.1/DTD/svg11.dtd">
<!-- Generated by graphviz version 2.43.0 (0)
 -->
<!-- Title: cv::Moments Pages: 1 -->
<svg width="83pt" height="683pt"
 viewBox="0.00 0.00 83.00 683.00" xmlns="http://www.w3.org/2000/svg" xmlns:xlink="http://www.w3.org/1999/xlink">
<g id="graph0" class="graph" transform="scale(1 1) rotate(0) translate(4 679)">
<title>cv::Moments</title>
<!-- Node1 -->
<g id="Node000001" class="node">
<title>Node1</title>
<g id="a_Node000001"><a xlink:title="struct returned by cv::moments">
<polygon fill="#999999" stroke="transparent" points="75,-469 0,-469 0,0 75,0 75,-469"/>
<text text-anchor="start" x="6.5" y="-456.5" font-family="Helvetica,sans-Serif" font-size="10.00">cv::Moments</text>
<text text-anchor="start" x="4.5" y="-441.5" font-family="Helvetica,sans-Serif" font-size="10.00">+</text>
<text text-anchor="start" x="17.5" y="-441.5" font-family="Helvetica,sans-Serif" font-size="10.00">mu20</text>
<text text-anchor="start" x="4.5" y="-426.5" font-family="Helvetica,sans-Serif" font-size="10.00">+</text>
<text text-anchor="start" x="17.5" y="-426.5" font-family="Helvetica,sans-Serif" font-size="10.00">mu11</text>
<text text-anchor="start" x="4.5" y="-411.5" font-family="Helvetica,sans-Serif" font-size="10.00">+</text>
<text text-anchor="start" x="17.5" y="-411.5" font-family="Helvetica,sans-Serif" font-size="10.00">mu02</text>
<text text-anchor="start" x="4.5" y="-396.5" font-family="Helvetica,sans-Serif" font-size="10.00">+</text>
<text text-anchor="start" x="17.5" y="-396.5" font-family="Helvetica,sans-Serif" font-size="10.00">mu30</text>
<text text-anchor="start" x="4.5" y="-381.5" font-family="Helvetica,sans-Serif" font-size="10.00">+</text>
<text text-anchor="start" x="17.5" y="-381.5" font-family="Helvetica,sans-Serif" font-size="10.00">mu21</text>
<text text-anchor="start" x="4.5" y="-366.5" font-family="Helvetica,sans-Serif" font-size="10.00">+</text>
<text text-anchor="start" x="17.5" y="-366.5" font-family="Helvetica,sans-Serif" font-size="10.00">mu12</text>
<text text-anchor="start" x="4.5" y="-351.5" font-family="Helvetica,sans-Serif" font-size="10.00">+</text>
<text text-anchor="start" x="17.5" y="-351.5" font-family="Helvetica,sans-Serif" font-size="10.00">mu03</text>
<text text-anchor="start" x="4.5" y="-336.5" font-family="Helvetica,sans-Serif" font-size="10.00">+</text>
<text text-anchor="start" x="17.5" y="-336.5" font-family="Helvetica,sans-Serif" font-size="10.00">nu20</text>
<text text-anchor="start" x="4.5" y="-321.5" font-family="Helvetica,sans-Serif" font-size="10.00">+</text>
<text text-anchor="start" x="17.5" y="-321.5" font-family="Helvetica,sans-Serif" font-size="10.00">nu11</text>
<text text-anchor="start" x="4.5" y="-306.5" font-family="Helvetica,sans-Serif" font-size="10.00">+</text>
<text text-anchor="start" x="17.5" y="-306.5" font-family="Helvetica,sans-Serif" font-size="10.00">nu02</text>
<text text-anchor="start" x="4.5" y="-291.5" font-family="Helvetica,sans-Serif" font-size="10.00">+</text>
<text text-anchor="start" x="17.5" y="-291.5" font-family="Helvetica,sans-Serif" font-size="10.00">nu30</text>
<text text-anchor="start" x="4.5" y="-276.5" font-family="Helvetica,sans-Serif" font-size="10.00">+</text>
<text text-anchor="start" x="17.5" y="-276.5" font-family="Helvetica,sans-Serif" font-size="10.00">nu21</text>
<text text-anchor="start" x="4.5" y="-261.5" font-family="Helvetica,sans-Serif" font-size="10.00">+</text>
<text text-anchor="start" x="17.5" y="-261.5" font-family="Helvetica,sans-Serif" font-size="10.00">nu12</text>
<text text-anchor="start" x="4.5" y="-246.5" font-family="Helvetica,sans-Serif" font-size="10.00">+</text>
<text text-anchor="start" x="17.5" y="-246.5" font-family="Helvetica,sans-Serif" font-size="10.00">nu03</text>
<text text-anchor="start" x="4.5" y="-231.5" font-family="Helvetica,sans-Serif" font-size="10.00">+</text>
<text text-anchor="start" x="17.5" y="-231.5" font-family="Helvetica,sans-Serif" font-size="10.00">Moments()</text>
<text text-anchor="start" x="4.5" y="-216.5" font-family="Helvetica,sans-Serif" font-size="10.00">+</text>
<text text-anchor="start" x="17.5" y="-216.5" font-family="Helvetica,sans-Serif" font-size="10.00">Moments()</text>
<text text-anchor="start" x="6" y="-201.5" font-family="Helvetica,sans-Serif" font-size="10.00">*</text>
<text text-anchor="start" x="17.5" y="-201.5" font-family="Helvetica,sans-Serif" font-size="10.00">mu20</text>
<text text-anchor="start" x="6" y="-186.5" font-family="Helvetica,sans-Serif" font-size="10.00">*</text>
<text text-anchor="start" x="17.5" y="-186.5" font-family="Helvetica,sans-Serif" font-size="10.00">mu11</text>
<text text-anchor="start" x="6" y="-171.5" font-family="Helvetica,sans-Serif" font-size="10.00">*</text>
<text text-anchor="start" x="17.5" y="-171.5" font-family="Helvetica,sans-Serif" font-size="10.00">mu02</text>
<text text-anchor="start" x="6" y="-156.5" font-family="Helvetica,sans-Serif" font-size="10.00">*</text>
<text text-anchor="start" x="17.5" y="-156.5" font-family="Helvetica,sans-Serif" font-size="10.00">mu30</text>
<text text-anchor="start" x="6" y="-141.5" font-family="Helvetica,sans-Serif" font-size="10.00">*</text>
<text text-anchor="start" x="17.5" y="-141.5" font-family="Helvetica,sans-Serif" font-size="10.00">mu21</text>
<text text-anchor="start" x="6" y="-126.5" font-family="Helvetica,sans-Serif" font-size="10.00">*</text>
<text text-anchor="start" x="17.5" y="-126.5" font-family="Helvetica,sans-Serif" font-size="10.00">mu12</text>
<text text-anchor="start" x="6" y="-111.5" font-family="Helvetica,sans-Serif" font-size="10.00">*</text>
<text text-anchor="start" x="17.5" y="-111.5" font-family="Helvetica,sans-Serif" font-size="10.00">mu03</text>
<text text-anchor="start" x="6" y="-96.5" font-family="Helvetica,sans-Serif" font-size="10.00">*</text>
<text text-anchor="start" x="17.5" y="-96.5" font-family="Helvetica,sans-Serif" font-size="10.00">nu20</text>
<text text-anchor="start" x="6" y="-81.5" font-family="Helvetica,sans-Serif" font-size="10.00">*</text>
<text text-anchor="start" x="17.5" y="-81.5" font-family="Helvetica,sans-Serif" font-size="10.00">nu11</text>
<text text-anchor="start" x="6" y="-66.5" font-family="Helvetica,sans-Serif" font-size="10.00">*</text>
<text text-anchor="start" x="17.5" y="-66.5" font-family="Helvetica,sans-Serif" font-size="10.00">nu02</text>
<text text-anchor="start" x="6" y="-51.5" font-family="Helvetica,sans-Serif" font-size="10.00">*</text>
<text text-anchor="start" x="17.5" y="-51.5" font-family="Helvetica,sans-Serif" font-size="10.00">nu30</text>
<text text-anchor="start" x="6" y="-36.5" font-family="Helvetica,sans-Serif" font-size="10.00">*</text>
<text text-anchor="start" x="17.5" y="-36.5" font-family="Helvetica,sans-Serif" font-size="10.00">nu21</text>
<text text-anchor="start" x="6" y="-21.5" font-family="Helvetica,sans-Serif" font-size="10.00">*</text>
<text text-anchor="start" x="17.5" y="-21.5" font-family="Helvetica,sans-Serif" font-size="10.00">nu12</text>
<text text-anchor="start" x="6" y="-6.5" font-family="Helvetica,sans-Serif" font-size="10.00">*</text>
<text text-anchor="start" x="17.5" y="-6.5" font-family="Helvetica,sans-Serif" font-size="10.00">nu03</text>
<polygon fill="#666666" stroke="#666666" points="0.5,-451.5 0.5,-451.5 75.5,-451.5 75.5,-451.5 0.5,-451.5"/>
<polygon fill="#666666" stroke="#666666" points="0.5,-241.5 0.5,-241.5 15.5,-241.5 15.5,-241.5 0.5,-241.5"/>
<polygon fill="#666666" stroke="#666666" points="15.5,-241.5 15.5,-241.5 75.5,-241.5 75.5,-241.5 15.5,-241.5"/>
<polygon fill="none" stroke="#666666" points="0,0 0,-469 75,-469 75,0 0,0"/>
</a>
</g>
</g>
<!-- Node2 -->
<g id="Node000002" class="node">
<title>Node2</title>
<g id="a_Node000002"><a xlink:title=" ">
<polygon fill="white" stroke="transparent" points="59.5,-675 15.5,-675 15.5,-626 59.5,-626 59.5,-675"/>
<text text-anchor="start" x="20.5" y="-662.5" font-family="Helvetica,sans-Serif" font-size="10.00">double</text>
<text text-anchor="start" x="35.5" y="-647.5" font-family="Helvetica,sans-Serif" font-size="10.00"> </text>
<text text-anchor="start" x="35.5" y="-632.5" font-family="Helvetica,sans-Serif" font-size="10.00"> </text>
<polygon fill="#666666" stroke="#666666" points="15.5,-657.5 15.5,-657.5 59.5,-657.5 59.5,-657.5 15.5,-657.5"/>
<polygon fill="#666666" stroke="#666666" points="15.5,-642.5 15.5,-642.5 59.5,-642.5 59.5,-642.5 15.5,-642.5"/>
<polygon fill="none" stroke="#666666" points="15.5,-626 15.5,-675 59.5,-675 59.5,-626 15.5,-626"/>
</a>
</g>
</g>
<!-- Node2&#45;&gt;Node1 -->
<g id="edge1_Node000001_Node000002" class="edge">
<title>Node2&#45;&gt;Node1</title>
<g id="a_edge1_Node000001_Node000002"><a xlink:title=" ">
<path fill="none" stroke="#63b8ff" d="M37.5,-625.75C37.5,-595.74 37.5,-540.76 37.5,-481.36"/>
<polygon fill="none" stroke="#63b8ff" points="37.5,-481.03 33.5,-475.03 37.5,-469.03 41.5,-475.03 37.5,-481.03"/>
</a>
</g>
<text text-anchor="middle" x="54.5" y="-600" font-family="Helvetica,sans-Serif" font-size="10.00" fill="grey"> +m00</text>
<text text-anchor="middle" x="54.5" y="-589" font-family="Helvetica,sans-Serif" font-size="10.00" fill="grey">+m01</text>
<text text-anchor="middle" x="54.5" y="-578" font-family="Helvetica,sans-Serif" font-size="10.00" fill="grey">+m02</text>
<text text-anchor="middle" x="54.5" y="-567" font-family="Helvetica,sans-Serif" font-size="10.00" fill="grey">+m03</text>
<text text-anchor="middle" x="54.5" y="-556" font-family="Helvetica,sans-Serif" font-size="10.00" fill="grey">+m10</text>
<text text-anchor="middle" x="54.5" y="-545" font-family="Helvetica,sans-Serif" font-size="10.00" fill="grey">+m11</text>
<text text-anchor="middle" x="54.5" y="-534" font-family="Helvetica,sans-Serif" font-size="10.00" fill="grey">+m12</text>
<text text-anchor="middle" x="54.5" y="-523" font-family="Helvetica,sans-Serif" font-size="10.00" fill="grey">+m20</text>
<text text-anchor="middle" x="54.5" y="-512" font-family="Helvetica,sans-Serif" font-size="10.00" fill="grey">+m21</text>
<text text-anchor="middle" x="54.5" y="-501" font-family="Helvetica,sans-Serif" font-size="10.00" fill="grey">+m30</text>
<text text-anchor="middle" x="54.5" y="-490" font-family="Helvetica,sans-Serif" font-size="10.00" fill="grey">...</text>
</g>
</g>
</svg>
