<?xml version="1.0" encoding="UTF-8" standalone="no"?>
<!DOCTYPE svg PUBLIC "-//W3C//DTD SVG 1.1//EN"
 "http://www.w3.org/Graphics/SVG/1.1/DTD/svg11.dtd">
<!-- Generated by graphviz version 2.43.0 (0)
 -->
<!-- Title: cv::detail::tracking::kalman_filters::UnscentedKalmanFilterParams Pages: 1 -->
<svg width="939pt" height="1363pt"
 viewBox="0.00 0.00 938.87 1363.00" xmlns="http://www.w3.org/2000/svg" xmlns:xlink="http://www.w3.org/1999/xlink">
<g id="graph0" class="graph" transform="scale(1 1) rotate(0) translate(4 1359)">
<title>cv::detail::tracking::kalman_filters::UnscentedKalmanFilterParams</title>
<!-- Node1 -->
<g id="Node000001" class="node">
<title>Node1</title>
<g id="a_Node000001"><a xlink:title="Unscented Kalman filter parameters. The class for initialization parameters of Unscented Kalman filte...">
<polygon fill="#999999" stroke="transparent" points="417.37,-101 238.37,-101 238.37,0 417.37,0 417.37,-101"/>
<text text-anchor="start" x="261.87" y="-88.5" font-family="Helvetica,sans-Serif" font-size="10.00">cv::detail::tracking</text>
<text text-anchor="start" x="261.87" y="-77.5" font-family="Helvetica,sans-Serif" font-size="10.00">::kalman_filters::Unscented</text>
<text text-anchor="start" x="278.87" y="-66.5" font-family="Helvetica,sans-Serif" font-size="10.00">KalmanFilterParams</text>
<text text-anchor="start" x="326.37" y="-51.5" font-family="Helvetica,sans-Serif" font-size="10.00"> </text>
<text text-anchor="start" x="242.87" y="-36.5" font-family="Helvetica,sans-Serif" font-size="10.00">+</text>
<text text-anchor="start" x="255.87" y="-36.5" font-family="Helvetica,sans-Serif" font-size="10.00">UnscentedKalmanFilterParams()</text>
<text text-anchor="start" x="242.87" y="-21.5" font-family="Helvetica,sans-Serif" font-size="10.00">+</text>
<text text-anchor="start" x="255.87" y="-21.5" font-family="Helvetica,sans-Serif" font-size="10.00">UnscentedKalmanFilterParams()</text>
<text text-anchor="start" x="242.87" y="-6.5" font-family="Helvetica,sans-Serif" font-size="10.00">+</text>
<text text-anchor="start" x="255.87" y="-6.5" font-family="Helvetica,sans-Serif" font-size="10.00">init()</text>
<polygon fill="#666666" stroke="#666666" points="238.87,-61.5 238.87,-61.5 417.87,-61.5 417.87,-61.5 238.87,-61.5"/>
<polygon fill="#666666" stroke="#666666" points="238.87,-46.5 238.87,-46.5 417.87,-46.5 417.87,-46.5 238.87,-46.5"/>
<polygon fill="none" stroke="#666666" points="238.37,0 238.37,-101 417.37,-101 417.37,0 238.37,0"/>
</a>
</g>
</g>
<!-- Node2 -->
<g id="Node000002" class="node">
<title>Node2</title>
<g id="a_Node000002"><a xlink:title=" ">
<polygon fill="white" stroke="transparent" points="136.37,-1088 113.37,-1088 113.37,-1039 136.37,-1039 136.37,-1088"/>
<text text-anchor="start" x="118.87" y="-1075.5" font-family="Helvetica,sans-Serif" font-size="10.00">int</text>
<text text-anchor="start" x="123.37" y="-1060.5" font-family="Helvetica,sans-Serif" font-size="10.00"> </text>
<text text-anchor="start" x="123.37" y="-1045.5" font-family="Helvetica,sans-Serif" font-size="10.00"> </text>
<polygon fill="#666666" stroke="#666666" points="113.87,-1070.5 113.87,-1070.5 136.87,-1070.5 136.87,-1070.5 113.87,-1070.5"/>
<polygon fill="#666666" stroke="#666666" points="113.87,-1055.5 113.87,-1055.5 136.87,-1055.5 136.87,-1055.5 113.87,-1055.5"/>
<polygon fill="none" stroke="#666666" points="113.37,-1039 113.37,-1088 136.37,-1088 136.37,-1039 113.37,-1039"/>
</a>
</g>
</g>
<!-- Node2&#45;&gt;Node1 -->
<g id="edge1_Node000001_Node000002" class="edge">
<title>Node2&#45;&gt;Node1</title>
<g id="a_edge1_Node000001_Node000002"><a xlink:title=" ">
<path fill="none" stroke="#63b8ff" d="M113.11,-1048.93C89.45,-1020.63 36.76,-952.25 17.87,-884 -9.27,-785.91 -1.32,-754.95 17.87,-655 60.64,-432.27 110.17,-386.14 206.87,-181 220.28,-152.57 220.48,-142.91 240.87,-119 243.56,-115.85 246.42,-112.75 249.39,-109.71"/>
<polygon fill="none" stroke="#63b8ff" points="249.43,-109.68 250.96,-102.63 258.06,-101.34 256.52,-108.39 249.43,-109.68"/>
</a>
</g>
<text text-anchor="middle" x="58.37" y="-629" font-family="Helvetica,sans-Serif" font-size="10.00" fill="grey"> +CP</text>
<text text-anchor="middle" x="58.37" y="-618" font-family="Helvetica,sans-Serif" font-size="10.00" fill="grey">+DP</text>
<text text-anchor="middle" x="58.37" y="-607" font-family="Helvetica,sans-Serif" font-size="10.00" fill="grey">+MP</text>
<text text-anchor="middle" x="58.37" y="-596" font-family="Helvetica,sans-Serif" font-size="10.00" fill="grey">+dataType</text>
</g>
<!-- Node3 -->
<g id="Node000003" class="node">
<title>Node3</title>
<g id="a_Node000003"><a xlink:href="../../d3/d63/classcv_1_1Mat.html" target="_top" xlink:title="n&#45;dimensional dense array class">
<polygon fill="white" stroke="transparent" points="339.87,-575 215.87,-575 215.87,-181 339.87,-181 339.87,-575"/>
<text text-anchor="start" x="259.87" y="-563" font-family="Helvetica,sans-Serif" font-size="10.00">cv::Mat</text>
<text text-anchor="start" x="275.87" y="-548" font-family="Helvetica,sans-Serif" font-size="10.00"> </text>
<text text-anchor="start" x="219.87" y="-533" font-family="Helvetica,sans-Serif" font-size="10.00">+</text>
<text text-anchor="start" x="232.87" y="-533" font-family="Helvetica,sans-Serif" font-size="10.00">Mat()</text>
<text text-anchor="start" x="219.87" y="-518" font-family="Helvetica,sans-Serif" font-size="10.00">+</text>
<text text-anchor="start" x="232.87" y="-518" font-family="Helvetica,sans-Serif" font-size="10.00">Mat()</text>
<text text-anchor="start" x="219.87" y="-503" font-family="Helvetica,sans-Serif" font-size="10.00">+</text>
<text text-anchor="start" x="232.87" y="-503" font-family="Helvetica,sans-Serif" font-size="10.00">Mat()</text>
<text text-anchor="start" x="219.87" y="-488" font-family="Helvetica,sans-Serif" font-size="10.00">+</text>
<text text-anchor="start" x="232.87" y="-488" font-family="Helvetica,sans-Serif" font-size="10.00">Mat()</text>
<text text-anchor="start" x="219.87" y="-473" font-family="Helvetica,sans-Serif" font-size="10.00">+</text>
<text text-anchor="start" x="232.87" y="-473" font-family="Helvetica,sans-Serif" font-size="10.00">Mat()</text>
<text text-anchor="start" x="219.87" y="-458" font-family="Helvetica,sans-Serif" font-size="10.00">+</text>
<text text-anchor="start" x="232.87" y="-458" font-family="Helvetica,sans-Serif" font-size="10.00">Mat()</text>
<text text-anchor="start" x="219.87" y="-443" font-family="Helvetica,sans-Serif" font-size="10.00">+</text>
<text text-anchor="start" x="232.87" y="-443" font-family="Helvetica,sans-Serif" font-size="10.00">Mat()</text>
<text text-anchor="start" x="219.87" y="-428" font-family="Helvetica,sans-Serif" font-size="10.00">+</text>
<text text-anchor="start" x="232.87" y="-428" font-family="Helvetica,sans-Serif" font-size="10.00">Mat()</text>
<text text-anchor="start" x="219.87" y="-413" font-family="Helvetica,sans-Serif" font-size="10.00">+</text>
<text text-anchor="start" x="232.87" y="-413" font-family="Helvetica,sans-Serif" font-size="10.00">Mat()</text>
<text text-anchor="start" x="219.87" y="-398" font-family="Helvetica,sans-Serif" font-size="10.00">+</text>
<text text-anchor="start" x="232.87" y="-398" font-family="Helvetica,sans-Serif" font-size="10.00">Mat()</text>
<text text-anchor="start" x="232.87" y="-383" font-family="Helvetica,sans-Serif" font-size="10.00">and 129 more...</text>
<text text-anchor="start" x="219.87" y="-368" font-family="Helvetica,sans-Serif" font-size="10.00">+</text>
<text text-anchor="start" x="232.87" y="-368" font-family="Helvetica,sans-Serif" font-size="10.00">diag()</text>
<text text-anchor="start" x="219.87" y="-353" font-family="Helvetica,sans-Serif" font-size="10.00">+</text>
<text text-anchor="start" x="232.87" y="-353" font-family="Helvetica,sans-Serif" font-size="10.00">eye()</text>
<text text-anchor="start" x="219.87" y="-338" font-family="Helvetica,sans-Serif" font-size="10.00">+</text>
<text text-anchor="start" x="232.87" y="-338" font-family="Helvetica,sans-Serif" font-size="10.00">eye()</text>
<text text-anchor="start" x="219.87" y="-323" font-family="Helvetica,sans-Serif" font-size="10.00">+</text>
<text text-anchor="start" x="232.87" y="-323" font-family="Helvetica,sans-Serif" font-size="10.00">getDefaultAllocator()</text>
<text text-anchor="start" x="219.87" y="-308" font-family="Helvetica,sans-Serif" font-size="10.00">+</text>
<text text-anchor="start" x="232.87" y="-308" font-family="Helvetica,sans-Serif" font-size="10.00">getStdAllocator()</text>
<text text-anchor="start" x="219.87" y="-293" font-family="Helvetica,sans-Serif" font-size="10.00">+</text>
<text text-anchor="start" x="232.87" y="-293" font-family="Helvetica,sans-Serif" font-size="10.00">ones()</text>
<text text-anchor="start" x="219.87" y="-278" font-family="Helvetica,sans-Serif" font-size="10.00">+</text>
<text text-anchor="start" x="232.87" y="-278" font-family="Helvetica,sans-Serif" font-size="10.00">ones()</text>
<text text-anchor="start" x="219.87" y="-263" font-family="Helvetica,sans-Serif" font-size="10.00">+</text>
<text text-anchor="start" x="232.87" y="-263" font-family="Helvetica,sans-Serif" font-size="10.00">ones()</text>
<text text-anchor="start" x="219.87" y="-248" font-family="Helvetica,sans-Serif" font-size="10.00">+</text>
<text text-anchor="start" x="232.87" y="-248" font-family="Helvetica,sans-Serif" font-size="10.00">setDefaultAllocator()</text>
<text text-anchor="start" x="219.87" y="-233" font-family="Helvetica,sans-Serif" font-size="10.00">+</text>
<text text-anchor="start" x="232.87" y="-233" font-family="Helvetica,sans-Serif" font-size="10.00">zeros()</text>
<text text-anchor="start" x="219.87" y="-218" font-family="Helvetica,sans-Serif" font-size="10.00">+</text>
<text text-anchor="start" x="232.87" y="-218" font-family="Helvetica,sans-Serif" font-size="10.00">zeros()</text>
<text text-anchor="start" x="219.87" y="-203" font-family="Helvetica,sans-Serif" font-size="10.00">+</text>
<text text-anchor="start" x="232.87" y="-203" font-family="Helvetica,sans-Serif" font-size="10.00">zeros()</text>
<text text-anchor="start" x="219.87" y="-188" font-family="Helvetica,sans-Serif" font-size="10.00">#</text>
<text text-anchor="start" x="232.87" y="-188" font-family="Helvetica,sans-Serif" font-size="10.00">forEach_impl()</text>
<polygon fill="#666666" stroke="#666666" points="215.87,-558 215.87,-558 339.87,-558 339.87,-558 215.87,-558"/>
<polygon fill="#666666" stroke="#666666" points="215.87,-543 215.87,-543 339.87,-543 339.87,-543 215.87,-543"/>
<polygon fill="none" stroke="#666666" points="215.87,-181 215.87,-575 339.87,-575 339.87,-181 215.87,-181"/>
</a>
</g>
</g>
<!-- Node2&#45;&gt;Node3 -->
<g id="edge3_Node000003_Node000002" class="edge">
<title>Node2&#45;&gt;Node3</title>
<g id="a_edge3_Node000003_Node000002"><a xlink:title=" ">
<path fill="none" stroke="#63b8ff" d="M134.35,-1038.83C147.59,-1006.77 173.25,-948.25 201.87,-902 207.21,-893.38 212.01,-893.37 215.87,-884 237.77,-830.97 253.41,-701.73 263.5,-587.27"/>
<polygon fill="none" stroke="#63b8ff" points="263.52,-587.13 260.05,-580.81 264.56,-575.18 268.02,-581.5 263.52,-587.13"/>
</a>
</g>
<text text-anchor="middle" x="273.37" y="-783.5" font-family="Helvetica,sans-Serif" font-size="10.00" fill="grey"> +cols</text>
<text text-anchor="middle" x="273.37" y="-772.5" font-family="Helvetica,sans-Serif" font-size="10.00" fill="grey">+dims</text>
<text text-anchor="middle" x="273.37" y="-761.5" font-family="Helvetica,sans-Serif" font-size="10.00" fill="grey">+flags</text>
<text text-anchor="middle" x="273.37" y="-750.5" font-family="Helvetica,sans-Serif" font-size="10.00" fill="grey">+rows</text>
</g>
<!-- Node7 -->
<g id="Node000007" class="node">
<title>Node7</title>
<g id="a_Node000007"><a xlink:href="../../db/d58/structcv_1_1UMatData.html" target="_top" xlink:title=" ">
<polygon fill="white" stroke="transparent" points="538.37,-884 381.37,-884 381.37,-655 538.37,-655 538.37,-884"/>
<text text-anchor="start" x="426.87" y="-871.5" font-family="Helvetica,sans-Serif" font-size="10.00">cv::UMatData</text>
<text text-anchor="start" x="458.37" y="-856.5" font-family="Helvetica,sans-Serif" font-size="10.00"> </text>
<text text-anchor="start" x="385.87" y="-841.5" font-family="Helvetica,sans-Serif" font-size="10.00">+</text>
<text text-anchor="start" x="398.87" y="-841.5" font-family="Helvetica,sans-Serif" font-size="10.00">UMatData()</text>
<text text-anchor="start" x="385.87" y="-826.5" font-family="Helvetica,sans-Serif" font-size="10.00">+</text>
<text text-anchor="start" x="398.87" y="-826.5" font-family="Helvetica,sans-Serif" font-size="10.00">~UMatData()</text>
<text text-anchor="start" x="385.87" y="-811.5" font-family="Helvetica,sans-Serif" font-size="10.00">+</text>
<text text-anchor="start" x="398.87" y="-811.5" font-family="Helvetica,sans-Serif" font-size="10.00">copyOnMap()</text>
<text text-anchor="start" x="385.87" y="-796.5" font-family="Helvetica,sans-Serif" font-size="10.00">+</text>
<text text-anchor="start" x="398.87" y="-796.5" font-family="Helvetica,sans-Serif" font-size="10.00">deviceCopyObsolete()</text>
<text text-anchor="start" x="385.87" y="-781.5" font-family="Helvetica,sans-Serif" font-size="10.00">+</text>
<text text-anchor="start" x="398.87" y="-781.5" font-family="Helvetica,sans-Serif" font-size="10.00">deviceMemMapped()</text>
<text text-anchor="start" x="385.87" y="-766.5" font-family="Helvetica,sans-Serif" font-size="10.00">+</text>
<text text-anchor="start" x="398.87" y="-766.5" font-family="Helvetica,sans-Serif" font-size="10.00">hostCopyObsolete()</text>
<text text-anchor="start" x="385.87" y="-751.5" font-family="Helvetica,sans-Serif" font-size="10.00">+</text>
<text text-anchor="start" x="398.87" y="-751.5" font-family="Helvetica,sans-Serif" font-size="10.00">lock()</text>
<text text-anchor="start" x="385.87" y="-736.5" font-family="Helvetica,sans-Serif" font-size="10.00">+</text>
<text text-anchor="start" x="398.87" y="-736.5" font-family="Helvetica,sans-Serif" font-size="10.00">markDeviceCopyObsolete()</text>
<text text-anchor="start" x="385.87" y="-721.5" font-family="Helvetica,sans-Serif" font-size="10.00">+</text>
<text text-anchor="start" x="398.87" y="-721.5" font-family="Helvetica,sans-Serif" font-size="10.00">markDeviceMemMapped()</text>
<text text-anchor="start" x="385.87" y="-706.5" font-family="Helvetica,sans-Serif" font-size="10.00">+</text>
<text text-anchor="start" x="398.87" y="-706.5" font-family="Helvetica,sans-Serif" font-size="10.00">markHostCopyObsolete()</text>
<text text-anchor="start" x="385.87" y="-691.5" font-family="Helvetica,sans-Serif" font-size="10.00">+</text>
<text text-anchor="start" x="398.87" y="-691.5" font-family="Helvetica,sans-Serif" font-size="10.00">tempCopiedUMat()</text>
<text text-anchor="start" x="385.87" y="-676.5" font-family="Helvetica,sans-Serif" font-size="10.00">+</text>
<text text-anchor="start" x="398.87" y="-676.5" font-family="Helvetica,sans-Serif" font-size="10.00">tempUMat()</text>
<text text-anchor="start" x="385.87" y="-661.5" font-family="Helvetica,sans-Serif" font-size="10.00">+</text>
<text text-anchor="start" x="398.87" y="-661.5" font-family="Helvetica,sans-Serif" font-size="10.00">unlock()</text>
<polygon fill="#666666" stroke="#666666" points="381.87,-866.5 381.87,-866.5 538.87,-866.5 538.87,-866.5 381.87,-866.5"/>
<polygon fill="#666666" stroke="#666666" points="381.87,-851.5 381.87,-851.5 538.87,-851.5 538.87,-851.5 381.87,-851.5"/>
<polygon fill="none" stroke="#666666" points="381.37,-655 381.37,-884 538.37,-884 538.37,-655 381.37,-655"/>
</a>
</g>
</g>
<!-- Node2&#45;&gt;Node7 -->
<g id="edge9_Node000007_Node000002" class="edge">
<title>Node2&#45;&gt;Node7</title>
<g id="a_edge9_Node000007_Node000002"><a xlink:title=" ">
<path fill="none" stroke="#63b8ff" d="M136.44,-1040.47C156.23,-1005.12 200.13,-936.23 257.87,-902 294.09,-880.54 313.9,-904.12 350.87,-884 357.97,-880.14 364.88,-875.66 371.55,-870.75"/>
<polygon fill="none" stroke="#63b8ff" points="371.68,-870.64 373.96,-863.8 381.15,-863.27 378.87,-870.11 371.68,-870.64"/>
</a>
</g>
<text text-anchor="middle" x="300.87" y="-938" font-family="Helvetica,sans-Serif" font-size="10.00" fill="grey"> +allocatorFlags_</text>
<text text-anchor="middle" x="300.87" y="-927" font-family="Helvetica,sans-Serif" font-size="10.00" fill="grey">+mapcount</text>
<text text-anchor="middle" x="300.87" y="-916" font-family="Helvetica,sans-Serif" font-size="10.00" fill="grey">+refcount</text>
<text text-anchor="middle" x="300.87" y="-905" font-family="Helvetica,sans-Serif" font-size="10.00" fill="grey">+urefcount</text>
</g>
<!-- Node15 -->
<g id="Node000015" class="node">
<title>Node15</title>
<g id="a_Node000015"><a xlink:href="../../df/d63/structcv_1_1MatSize.html" target="_top" xlink:title=" ">
<polygon fill="white" stroke="transparent" points="114.37,-839 27.37,-839 27.37,-700 114.37,-700 114.37,-839"/>
<text text-anchor="start" x="43.37" y="-826.5" font-family="Helvetica,sans-Serif" font-size="10.00">cv::MatSize</text>
<text text-anchor="start" x="69.37" y="-811.5" font-family="Helvetica,sans-Serif" font-size="10.00"> </text>
<text text-anchor="start" x="31.87" y="-796.5" font-family="Helvetica,sans-Serif" font-size="10.00">+</text>
<text text-anchor="start" x="44.87" y="-796.5" font-family="Helvetica,sans-Serif" font-size="10.00">MatSize()</text>
<text text-anchor="start" x="31.87" y="-781.5" font-family="Helvetica,sans-Serif" font-size="10.00">+</text>
<text text-anchor="start" x="44.87" y="-781.5" font-family="Helvetica,sans-Serif" font-size="10.00">dims()</text>
<text text-anchor="start" x="31.87" y="-766.5" font-family="Helvetica,sans-Serif" font-size="10.00">+</text>
<text text-anchor="start" x="44.87" y="-766.5" font-family="Helvetica,sans-Serif" font-size="10.00">operator!=()</text>
<text text-anchor="start" x="31.87" y="-751.5" font-family="Helvetica,sans-Serif" font-size="10.00">+</text>
<text text-anchor="start" x="44.87" y="-751.5" font-family="Helvetica,sans-Serif" font-size="10.00">operator()()</text>
<text text-anchor="start" x="31.87" y="-736.5" font-family="Helvetica,sans-Serif" font-size="10.00">+</text>
<text text-anchor="start" x="44.87" y="-736.5" font-family="Helvetica,sans-Serif" font-size="10.00">operator==()</text>
<text text-anchor="start" x="31.87" y="-721.5" font-family="Helvetica,sans-Serif" font-size="10.00">+</text>
<text text-anchor="start" x="44.87" y="-721.5" font-family="Helvetica,sans-Serif" font-size="10.00">operator[]()</text>
<text text-anchor="start" x="31.87" y="-706.5" font-family="Helvetica,sans-Serif" font-size="10.00">+</text>
<text text-anchor="start" x="44.87" y="-706.5" font-family="Helvetica,sans-Serif" font-size="10.00">operator[]()</text>
<polygon fill="#666666" stroke="#666666" points="27.87,-821.5 27.87,-821.5 114.87,-821.5 114.87,-821.5 27.87,-821.5"/>
<polygon fill="#666666" stroke="#666666" points="27.87,-806.5 27.87,-806.5 114.87,-806.5 114.87,-806.5 27.87,-806.5"/>
<polygon fill="none" stroke="#666666" points="27.37,-700 27.37,-839 114.37,-839 114.37,-700 27.37,-700"/>
</a>
</g>
</g>
<!-- Node2&#45;&gt;Node15 -->
<g id="edge20_Node000015_Node000002" class="edge">
<title>Node2&#45;&gt;Node15</title>
<g id="a_edge20_Node000015_Node000002"><a xlink:title=" ">
<path fill="none" stroke="#63b8ff" d="M120.46,-1038.6C112.97,-998.1 97.45,-914.23 85.76,-851.01"/>
<polygon fill="none" stroke="#63b8ff" points="85.74,-850.86 80.71,-845.69 83.55,-839.06 88.58,-844.23 85.74,-850.86"/>
</a>
</g>
<text text-anchor="middle" x="111.87" y="-921.5" font-family="Helvetica,sans-Serif" font-size="10.00" fill="grey"> +p</text>
</g>
<!-- Node3&#45;&gt;Node1 -->
<g id="edge2_Node000001_Node000003" class="edge">
<title>Node3&#45;&gt;Node1</title>
<g id="a_edge2_Node000001_Node000003"><a xlink:title=" ">
<path fill="none" stroke="#63b8ff" d="M241.03,-180.66C242.9,-159.35 247.48,-138.39 255.87,-119 257.02,-116.35 258.33,-113.75 259.78,-111.21"/>
<polygon fill="none" stroke="#63b8ff" points="259.82,-111.16 259.78,-103.95 266.42,-101.14 266.46,-108.35 259.82,-111.16"/>
</a>
</g>
<text text-anchor="middle" x="317.87" y="-155" font-family="Helvetica,sans-Serif" font-size="10.00" fill="grey"> +errorCovInit</text>
<text text-anchor="middle" x="317.87" y="-144" font-family="Helvetica,sans-Serif" font-size="10.00" fill="grey">+measurementNoiseCov</text>
<text text-anchor="middle" x="317.87" y="-133" font-family="Helvetica,sans-Serif" font-size="10.00" fill="grey">+processNoiseCov</text>
<text text-anchor="middle" x="317.87" y="-122" font-family="Helvetica,sans-Serif" font-size="10.00" fill="grey">+stateInit</text>
</g>
<!-- Node4 -->
<g id="Node000004" class="node">
<title>Node4</title>
<g id="a_Node000004"><a xlink:title=" ">
<polygon fill="white" stroke="transparent" points="341.87,-1088 295.87,-1088 295.87,-1039 341.87,-1039 341.87,-1088"/>
<text text-anchor="start" x="300.87" y="-1075.5" font-family="Helvetica,sans-Serif" font-size="10.00">uchar *</text>
<text text-anchor="start" x="316.87" y="-1060.5" font-family="Helvetica,sans-Serif" font-size="10.00"> </text>
<text text-anchor="start" x="316.87" y="-1045.5" font-family="Helvetica,sans-Serif" font-size="10.00"> </text>
<polygon fill="#666666" stroke="#666666" points="295.87,-1070.5 295.87,-1070.5 341.87,-1070.5 341.87,-1070.5 295.87,-1070.5"/>
<polygon fill="#666666" stroke="#666666" points="295.87,-1055.5 295.87,-1055.5 341.87,-1055.5 341.87,-1055.5 295.87,-1055.5"/>
<polygon fill="none" stroke="#666666" points="295.87,-1039 295.87,-1088 341.87,-1088 341.87,-1039 295.87,-1039"/>
</a>
</g>
</g>
<!-- Node4&#45;&gt;Node3 -->
<g id="edge4_Node000003_Node000004" class="edge">
<title>Node4&#45;&gt;Node3</title>
<g id="a_edge4_Node000003_Node000004"><a xlink:title=" ">
<path fill="none" stroke="#63b8ff" d="M317.46,-1038.97C313.23,-968.44 300.33,-753.38 290.4,-587.73"/>
<polygon fill="none" stroke="#63b8ff" points="290.37,-587.37 286.02,-581.62 289.66,-575.39 294.01,-581.14 290.37,-587.37"/>
</a>
</g>
<text text-anchor="middle" x="323.87" y="-767" font-family="Helvetica,sans-Serif" font-size="10.00" fill="grey"> +data</text>
</g>
<!-- Node4&#45;&gt;Node7 -->
<g id="edge10_Node000007_Node000004" class="edge">
<title>Node4&#45;&gt;Node7</title>
<g id="a_edge10_Node000007_Node000004"><a xlink:title=" ">
<path fill="none" stroke="#63b8ff" d="M323.23,-1038.74C329.69,-1006.58 343.52,-947.95 365.87,-902 368.71,-896.16 371.81,-890.31 375.08,-884.49"/>
<polygon fill="none" stroke="#63b8ff" points="375.12,-884.42 374.69,-877.22 381.17,-874.05 381.6,-881.25 375.12,-884.42"/>
</a>
</g>
<text text-anchor="middle" x="390.37" y="-927" font-family="Helvetica,sans-Serif" font-size="10.00" fill="grey"> +data</text>
<text text-anchor="middle" x="390.37" y="-916" font-family="Helvetica,sans-Serif" font-size="10.00" fill="grey">+origdata</text>
</g>
<!-- Node5 -->
<g id="Node000005" class="node">
<title>Node5</title>
<g id="a_Node000005"><a xlink:title=" ">
<polygon fill="white" stroke="transparent" points="207.37,-794 132.37,-794 132.37,-745 207.37,-745 207.37,-794"/>
<text text-anchor="start" x="137.87" y="-781.5" font-family="Helvetica,sans-Serif" font-size="10.00">const uchar *</text>
<text text-anchor="start" x="168.37" y="-766.5" font-family="Helvetica,sans-Serif" font-size="10.00"> </text>
<text text-anchor="start" x="168.37" y="-751.5" font-family="Helvetica,sans-Serif" font-size="10.00"> </text>
<polygon fill="#666666" stroke="#666666" points="132.87,-776.5 132.87,-776.5 207.87,-776.5 207.87,-776.5 132.87,-776.5"/>
<polygon fill="#666666" stroke="#666666" points="132.87,-761.5 132.87,-761.5 207.87,-761.5 207.87,-761.5 132.87,-761.5"/>
<polygon fill="none" stroke="#666666" points="132.37,-745 132.37,-794 207.37,-794 207.37,-745 132.37,-745"/>
</a>
</g>
</g>
<!-- Node5&#45;&gt;Node3 -->
<g id="edge5_Node000003_Node000005" class="edge">
<title>Node5&#45;&gt;Node3</title>
<g id="a_edge5_Node000003_Node000005"><a xlink:title=" ">
<path fill="none" stroke="#63b8ff" d="M167.87,-744.81C165.63,-710.69 163.88,-646.01 176.87,-593 184.55,-561.69 197.01,-529.46 210.6,-499.83"/>
<polygon fill="none" stroke="#63b8ff" points="210.77,-499.47 209.69,-492.34 215.86,-488.6 216.94,-495.73 210.77,-499.47"/>
</a>
</g>
<text text-anchor="middle" x="203.37" y="-623.5" font-family="Helvetica,sans-Serif" font-size="10.00" fill="grey"> +dataend</text>
<text text-anchor="middle" x="203.37" y="-612.5" font-family="Helvetica,sans-Serif" font-size="10.00" fill="grey">+datalimit</text>
<text text-anchor="middle" x="203.37" y="-601.5" font-family="Helvetica,sans-Serif" font-size="10.00" fill="grey">+datastart</text>
</g>
<!-- Node6 -->
<g id="Node000006" class="node">
<title>Node6</title>
<g id="a_Node000006"><a xlink:href="../../df/d4c/classcv_1_1MatAllocator.html" target="_top" xlink:title="Custom array allocator.">
<polygon fill="white" stroke="transparent" points="814.37,-1163 671.37,-1163 671.37,-964 814.37,-964 814.37,-1163"/>
<text text-anchor="start" x="703.87" y="-1150.5" font-family="Helvetica,sans-Serif" font-size="10.00">cv::MatAllocator</text>
<text text-anchor="start" x="741.37" y="-1135.5" font-family="Helvetica,sans-Serif" font-size="10.00"> </text>
<text text-anchor="start" x="675.87" y="-1120.5" font-family="Helvetica,sans-Serif" font-size="10.00">+</text>
<text text-anchor="start" x="688.87" y="-1120.5" font-family="Helvetica,sans-Serif" font-size="10.00">MatAllocator()</text>
<text text-anchor="start" x="675.87" y="-1105.5" font-family="Helvetica,sans-Serif" font-size="10.00">+</text>
<text text-anchor="start" x="688.87" y="-1105.5" font-family="Helvetica,sans-Serif" font-size="10.00">~MatAllocator()</text>
<text text-anchor="start" x="675.87" y="-1090.5" font-family="Helvetica,sans-Serif" font-size="10.00">+</text>
<text text-anchor="start" x="688.87" y="-1090.5" font-family="Helvetica,sans-Serif" font-size="10.00">allocate()</text>
<text text-anchor="start" x="675.87" y="-1075.5" font-family="Helvetica,sans-Serif" font-size="10.00">+</text>
<text text-anchor="start" x="688.87" y="-1075.5" font-family="Helvetica,sans-Serif" font-size="10.00">allocate()</text>
<text text-anchor="start" x="675.87" y="-1060.5" font-family="Helvetica,sans-Serif" font-size="10.00">+</text>
<text text-anchor="start" x="688.87" y="-1060.5" font-family="Helvetica,sans-Serif" font-size="10.00">copy()</text>
<text text-anchor="start" x="675.87" y="-1045.5" font-family="Helvetica,sans-Serif" font-size="10.00">+</text>
<text text-anchor="start" x="688.87" y="-1045.5" font-family="Helvetica,sans-Serif" font-size="10.00">deallocate()</text>
<text text-anchor="start" x="675.87" y="-1030.5" font-family="Helvetica,sans-Serif" font-size="10.00">+</text>
<text text-anchor="start" x="688.87" y="-1030.5" font-family="Helvetica,sans-Serif" font-size="10.00">download()</text>
<text text-anchor="start" x="675.87" y="-1015.5" font-family="Helvetica,sans-Serif" font-size="10.00">+</text>
<text text-anchor="start" x="688.87" y="-1015.5" font-family="Helvetica,sans-Serif" font-size="10.00">getBufferPoolController()</text>
<text text-anchor="start" x="675.87" y="-1000.5" font-family="Helvetica,sans-Serif" font-size="10.00">+</text>
<text text-anchor="start" x="688.87" y="-1000.5" font-family="Helvetica,sans-Serif" font-size="10.00">map()</text>
<text text-anchor="start" x="675.87" y="-985.5" font-family="Helvetica,sans-Serif" font-size="10.00">+</text>
<text text-anchor="start" x="688.87" y="-985.5" font-family="Helvetica,sans-Serif" font-size="10.00">unmap()</text>
<text text-anchor="start" x="675.87" y="-970.5" font-family="Helvetica,sans-Serif" font-size="10.00">+</text>
<text text-anchor="start" x="688.87" y="-970.5" font-family="Helvetica,sans-Serif" font-size="10.00">upload()</text>
<polygon fill="#666666" stroke="#666666" points="671.87,-1145.5 671.87,-1145.5 814.87,-1145.5 814.87,-1145.5 671.87,-1145.5"/>
<polygon fill="#666666" stroke="#666666" points="671.87,-1130.5 671.87,-1130.5 814.87,-1130.5 814.87,-1130.5 671.87,-1130.5"/>
<polygon fill="none" stroke="#666666" points="671.37,-964 671.37,-1163 814.37,-1163 814.37,-964 671.37,-964"/>
</a>
</g>
</g>
<!-- Node6&#45;&gt;Node3 -->
<g id="edge6_Node000003_Node000006" class="edge">
<title>Node6&#45;&gt;Node3</title>
<g id="a_edge6_Node000003_Node000006"><a xlink:title=" ">
<path fill="none" stroke="#63b8ff" d="M753.09,-963.76C756.81,-870.64 745.95,-733.91 663.87,-655 639.55,-631.61 396.75,-596.67 370.87,-575 362.39,-567.9 354.63,-559.84 347.54,-551.15"/>
<polygon fill="none" stroke="#63b8ff" points="347.42,-550.99 340.59,-548.68 340.1,-541.48 346.93,-543.8 347.42,-550.99"/>
</a>
</g>
<text text-anchor="middle" x="779.37" y="-767" font-family="Helvetica,sans-Serif" font-size="10.00" fill="grey"> +allocator</text>
</g>
<!-- Node6&#45;&gt;Node7 -->
<g id="edge8_Node000007_Node000006" class="edge">
<title>Node6&#45;&gt;Node7</title>
<g id="a_edge8_Node000007_Node000006"><a xlink:title=" ">
<path fill="none" stroke="#63b8ff" d="M679.22,-963.72C658.91,-932.49 640.86,-905.16 637.87,-902 611.68,-874.27 579.03,-848.27 548.88,-826.83"/>
<polygon fill="none" stroke="#63b8ff" points="548.59,-826.63 541.38,-826.46 538.76,-819.74 545.97,-819.91 548.59,-826.63"/>
</a>
</g>
<text text-anchor="middle" x="702.87" y="-927" font-family="Helvetica,sans-Serif" font-size="10.00" fill="grey"> +currAllocator</text>
<text text-anchor="middle" x="702.87" y="-916" font-family="Helvetica,sans-Serif" font-size="10.00" fill="grey">+prevAllocator</text>
</g>
<!-- Node7&#45;&gt;Node3 -->
<g id="edge7_Node000003_Node000007" class="edge">
<title>Node7&#45;&gt;Node3</title>
<g id="a_edge7_Node000003_Node000007"><a xlink:title=" ">
<path fill="none" stroke="#63b8ff" d="M406.74,-654.79C387.45,-613.5 365.39,-566.28 345.04,-522.73"/>
<polygon fill="none" stroke="#63b8ff" points="344.98,-522.61 338.82,-518.87 339.9,-511.74 346.06,-515.49 344.98,-522.61"/>
</a>
</g>
<text text-anchor="middle" x="403.87" y="-612.5" font-family="Helvetica,sans-Serif" font-size="10.00" fill="grey"> +u</text>
</g>
<!-- Node7&#45;&gt;Node7 -->
<g id="edge14_Node000007_Node000007" class="edge">
<title>Node7&#45;&gt;Node7</title>
<g id="a_edge14_Node000007_Node000007"><a xlink:title=" ">
<path fill="none" stroke="#63b8ff" d="M538.63,-795.12C549.28,-790.82 556.37,-782.28 556.37,-769.5 556.37,-761.51 553.6,-755.18 548.93,-750.51"/>
<polygon fill="none" stroke="#63b8ff" points="548.72,-750.37 541.51,-750.49 538.63,-743.88 545.84,-743.76 548.72,-750.37"/>
</a>
</g>
<text text-anchor="middle" x="605.37" y="-767" font-family="Helvetica,sans-Serif" font-size="10.00" fill="grey"> +originalUMatData</text>
</g>
<!-- Node8 -->
<g id="Node000008" class="node">
<title>Node8</title>
<g id="a_Node000008"><a xlink:title=" ">
<polygon fill="white" stroke="transparent" points="885.37,-1088 846.37,-1088 846.37,-1039 885.37,-1039 885.37,-1088"/>
<text text-anchor="start" x="851.87" y="-1075.5" font-family="Helvetica,sans-Serif" font-size="10.00">size_t</text>
<text text-anchor="start" x="864.37" y="-1060.5" font-family="Helvetica,sans-Serif" font-size="10.00"> </text>
<text text-anchor="start" x="864.37" y="-1045.5" font-family="Helvetica,sans-Serif" font-size="10.00"> </text>
<polygon fill="#666666" stroke="#666666" points="846.87,-1070.5 846.87,-1070.5 885.87,-1070.5 885.87,-1070.5 846.87,-1070.5"/>
<polygon fill="#666666" stroke="#666666" points="846.87,-1055.5 846.87,-1055.5 885.87,-1055.5 885.87,-1055.5 846.87,-1055.5"/>
<polygon fill="none" stroke="#666666" points="846.37,-1039 846.37,-1088 885.37,-1088 885.37,-1039 846.37,-1039"/>
</a>
</g>
</g>
<!-- Node8&#45;&gt;Node7 -->
<g id="edge11_Node000007_Node000008" class="edge">
<title>Node8&#45;&gt;Node7</title>
<g id="a_edge11_Node000007_Node000008"><a xlink:title=" ">
<path fill="none" stroke="#63b8ff" d="M859.52,-1038.84C853.01,-1017.71 841.37,-986.66 823.87,-964 796.39,-928.39 782.31,-925.38 743.87,-902 681.75,-864.21 606.97,-830 549.74,-805.94"/>
<polygon fill="none" stroke="#63b8ff" points="549.61,-805.89 542.53,-807.27 538.53,-801.27 545.61,-799.89 549.61,-805.89"/>
</a>
</g>
<text text-anchor="middle" x="822.37" y="-921.5" font-family="Helvetica,sans-Serif" font-size="10.00" fill="grey"> +size</text>
</g>
<!-- Node16 -->
<g id="Node000016" class="node">
<title>Node16</title>
<g id="a_Node000016"><a xlink:href="../../d4/d26/structcv_1_1MatStep.html" target="_top" xlink:title=" ">
<polygon fill="white" stroke="transparent" points="930.87,-839 828.87,-839 828.87,-700 930.87,-700 930.87,-839"/>
<text text-anchor="start" x="850.87" y="-826.5" font-family="Helvetica,sans-Serif" font-size="10.00">cv::MatStep</text>
<text text-anchor="start" x="877.87" y="-811.5" font-family="Helvetica,sans-Serif" font-size="10.00"> </text>
<text text-anchor="start" x="832.87" y="-796.5" font-family="Helvetica,sans-Serif" font-size="10.00">+</text>
<text text-anchor="start" x="845.87" y="-796.5" font-family="Helvetica,sans-Serif" font-size="10.00">MatStep()</text>
<text text-anchor="start" x="832.87" y="-781.5" font-family="Helvetica,sans-Serif" font-size="10.00">+</text>
<text text-anchor="start" x="845.87" y="-781.5" font-family="Helvetica,sans-Serif" font-size="10.00">MatStep()</text>
<text text-anchor="start" x="832.87" y="-766.5" font-family="Helvetica,sans-Serif" font-size="10.00">+</text>
<text text-anchor="start" x="845.87" y="-766.5" font-family="Helvetica,sans-Serif" font-size="10.00">operator size_t()</text>
<text text-anchor="start" x="832.87" y="-751.5" font-family="Helvetica,sans-Serif" font-size="10.00">+</text>
<text text-anchor="start" x="845.87" y="-751.5" font-family="Helvetica,sans-Serif" font-size="10.00">operator=()</text>
<text text-anchor="start" x="832.87" y="-736.5" font-family="Helvetica,sans-Serif" font-size="10.00">+</text>
<text text-anchor="start" x="845.87" y="-736.5" font-family="Helvetica,sans-Serif" font-size="10.00">operator[]()</text>
<text text-anchor="start" x="832.87" y="-721.5" font-family="Helvetica,sans-Serif" font-size="10.00">+</text>
<text text-anchor="start" x="845.87" y="-721.5" font-family="Helvetica,sans-Serif" font-size="10.00">operator[]()</text>
<text text-anchor="start" x="832.87" y="-706.5" font-family="Helvetica,sans-Serif" font-size="10.00">#</text>
<text text-anchor="start" x="845.87" y="-706.5" font-family="Helvetica,sans-Serif" font-size="10.00">operator=()</text>
<polygon fill="#666666" stroke="#666666" points="828.87,-821.5 828.87,-821.5 930.87,-821.5 930.87,-821.5 828.87,-821.5"/>
<polygon fill="#666666" stroke="#666666" points="828.87,-806.5 828.87,-806.5 930.87,-806.5 930.87,-806.5 828.87,-806.5"/>
<polygon fill="none" stroke="#666666" points="828.87,-700 828.87,-839 930.87,-839 930.87,-700 828.87,-700"/>
</a>
</g>
</g>
<!-- Node8&#45;&gt;Node16 -->
<g id="edge22_Node000016_Node000008" class="edge">
<title>Node8&#45;&gt;Node16</title>
<g id="a_edge22_Node000016_Node000008"><a xlink:title=" ">
<path fill="none" stroke="#63b8ff" d="M867.02,-1038.6C868.96,-998.19 872.97,-914.57 876,-851.4"/>
<polygon fill="none" stroke="#63b8ff" points="876.01,-851.05 872.3,-844.86 876.59,-839.06 880.3,-845.25 876.01,-851.05"/>
</a>
</g>
<text text-anchor="middle" x="886.87" y="-927" font-family="Helvetica,sans-Serif" font-size="10.00" fill="grey"> +buf</text>
<text text-anchor="middle" x="886.87" y="-916" font-family="Helvetica,sans-Serif" font-size="10.00" fill="grey">+p</text>
</g>
<!-- Node9 -->
<g id="Node000009" class="node">
<title>Node9</title>
<g id="a_Node000009"><a xlink:title=" ">
<polygon fill="white" stroke="transparent" points="437.87,-1088 365.87,-1088 365.87,-1039 437.87,-1039 437.87,-1088"/>
<text text-anchor="start" x="370.87" y="-1075.5" font-family="Helvetica,sans-Serif" font-size="10.00">MemoryFlag</text>
<text text-anchor="start" x="399.87" y="-1060.5" font-family="Helvetica,sans-Serif" font-size="10.00"> </text>
<text text-anchor="start" x="399.87" y="-1045.5" font-family="Helvetica,sans-Serif" font-size="10.00"> </text>
<polygon fill="#666666" stroke="#666666" points="365.87,-1070.5 365.87,-1070.5 437.87,-1070.5 437.87,-1070.5 365.87,-1070.5"/>
<polygon fill="#666666" stroke="#666666" points="365.87,-1055.5 365.87,-1055.5 437.87,-1055.5 437.87,-1055.5 365.87,-1055.5"/>
<polygon fill="none" stroke="#666666" points="365.87,-1039 365.87,-1088 437.87,-1088 437.87,-1039 365.87,-1039"/>
</a>
</g>
</g>
<!-- Node9&#45;&gt;Node7 -->
<g id="edge12_Node000007_Node000009" class="edge">
<title>Node9&#45;&gt;Node7</title>
<g id="a_edge12_Node000007_Node000009"><a xlink:title=" ">
<path fill="none" stroke="#63b8ff" d="M405.13,-1038.74C409.57,-1007.31 418.11,-950.28 427.87,-902 428.28,-899.98 428.7,-897.95 429.13,-895.9"/>
<polygon fill="none" stroke="#63b8ff" points="429.15,-895.8 426.49,-889.1 431.65,-884.06 434.31,-890.77 429.15,-895.8"/>
</a>
</g>
<text text-anchor="middle" x="445.37" y="-921.5" font-family="Helvetica,sans-Serif" font-size="10.00" fill="grey"> +flags</text>
</g>
<!-- Node10 -->
<g id="Node000010" class="node">
<title>Node10</title>
<g id="a_Node000010"><a xlink:title=" ">
<polygon fill="white" stroke="transparent" points="495.87,-1088 455.87,-1088 455.87,-1039 495.87,-1039 495.87,-1088"/>
<text text-anchor="start" x="460.87" y="-1075.5" font-family="Helvetica,sans-Serif" font-size="10.00">void *</text>
<text text-anchor="start" x="473.87" y="-1060.5" font-family="Helvetica,sans-Serif" font-size="10.00"> </text>
<text text-anchor="start" x="473.87" y="-1045.5" font-family="Helvetica,sans-Serif" font-size="10.00"> </text>
<polygon fill="#666666" stroke="#666666" points="455.87,-1070.5 455.87,-1070.5 495.87,-1070.5 495.87,-1070.5 455.87,-1070.5"/>
<polygon fill="#666666" stroke="#666666" points="455.87,-1055.5 455.87,-1055.5 495.87,-1055.5 495.87,-1055.5 455.87,-1055.5"/>
<polygon fill="none" stroke="#666666" points="455.87,-1039 455.87,-1088 495.87,-1088 495.87,-1039 455.87,-1039"/>
</a>
</g>
</g>
<!-- Node10&#45;&gt;Node7 -->
<g id="edge13_Node000007_Node000010" class="edge">
<title>Node10&#45;&gt;Node7</title>
<g id="a_edge13_Node000007_Node000010"><a xlink:title=" ">
<path fill="none" stroke="#63b8ff" d="M474.57,-1038.6C472.85,-1007.26 469.71,-949.94 466.77,-896.33"/>
<polygon fill="none" stroke="#63b8ff" points="466.76,-896.22 462.44,-890.45 466.11,-884.24 470.43,-890.01 466.76,-896.22"/>
</a>
</g>
<text text-anchor="middle" x="494.87" y="-927" font-family="Helvetica,sans-Serif" font-size="10.00" fill="grey"> +handle</text>
<text text-anchor="middle" x="494.87" y="-916" font-family="Helvetica,sans-Serif" font-size="10.00" fill="grey">+userdata</text>
</g>
<!-- Node11 -->
<g id="Node000011" class="node">
<title>Node11</title>
<g id="a_Node000011"><a xlink:title=" ">
<polygon fill="white" stroke="transparent" points="641.37,-1088 514.37,-1088 514.37,-1039 641.37,-1039 641.37,-1088"/>
<text text-anchor="start" x="519.87" y="-1075.5" font-family="Helvetica,sans-Serif" font-size="10.00">std::shared_ptr&lt; void &gt;</text>
<text text-anchor="start" x="576.37" y="-1060.5" font-family="Helvetica,sans-Serif" font-size="10.00"> </text>
<text text-anchor="start" x="576.37" y="-1045.5" font-family="Helvetica,sans-Serif" font-size="10.00"> </text>
<polygon fill="#666666" stroke="#666666" points="514.87,-1070.5 514.87,-1070.5 641.87,-1070.5 641.87,-1070.5 514.87,-1070.5"/>
<polygon fill="#666666" stroke="#666666" points="514.87,-1055.5 514.87,-1055.5 641.87,-1055.5 641.87,-1055.5 514.87,-1055.5"/>
<polygon fill="none" stroke="#666666" points="514.37,-1039 514.37,-1088 641.37,-1088 641.37,-1039 514.37,-1039"/>
</a>
</g>
</g>
<!-- Node11&#45;&gt;Node7 -->
<g id="edge15_Node000007_Node000011" class="edge">
<title>Node11&#45;&gt;Node7</title>
<g id="a_edge15_Node000007_Node000011"><a xlink:title=" ">
<path fill="none" stroke="#63b8ff" d="M571.16,-1038.73C561.97,-1007.07 544.35,-949.52 524.87,-902 523.97,-899.79 523.04,-897.57 522.1,-895.33"/>
<polygon fill="none" stroke="#63b8ff" points="522,-895.11 515.95,-891.19 517.24,-884.09 523.29,-888.01 522,-895.11"/>
</a>
</g>
<text text-anchor="middle" x="587.37" y="-921.5" font-family="Helvetica,sans-Serif" font-size="10.00" fill="grey"> +allocatorContext</text>
</g>
<!-- Node12 -->
<g id="Node000012" class="node">
<title>Node12</title>
<g id="a_Node000012"><a xlink:title=" ">
<polygon fill="white" stroke="transparent" points="558.87,-1259 526.87,-1259 526.87,-1210 558.87,-1210 558.87,-1259"/>
<text text-anchor="start" x="531.87" y="-1246.5" font-family="Helvetica,sans-Serif" font-size="10.00">void</text>
<text text-anchor="start" x="540.87" y="-1231.5" font-family="Helvetica,sans-Serif" font-size="10.00"> </text>
<text text-anchor="start" x="540.87" y="-1216.5" font-family="Helvetica,sans-Serif" font-size="10.00"> </text>
<polygon fill="#666666" stroke="#666666" points="526.87,-1241.5 526.87,-1241.5 558.87,-1241.5 558.87,-1241.5 526.87,-1241.5"/>
<polygon fill="#666666" stroke="#666666" points="526.87,-1226.5 526.87,-1226.5 558.87,-1226.5 558.87,-1226.5 526.87,-1226.5"/>
<polygon fill="none" stroke="#666666" points="526.87,-1210 526.87,-1259 558.87,-1259 558.87,-1210 526.87,-1210"/>
</a>
</g>
</g>
<!-- Node12&#45;&gt;Node11 -->
<g id="edge16_Node000011_Node000012" class="edge">
<title>Node12&#45;&gt;Node11</title>
<g id="a_edge16_Node000011_Node000012"><a xlink:title=" ">
<path fill="none" stroke="#63b8ff" d="M547.82,-1209.64C553.73,-1181.08 563.69,-1132.99 570.51,-1100.05"/>
<polygon fill="none" stroke="#63b8ff" points="570.53,-1099.98 567.83,-1093.3 572.96,-1088.23 575.66,-1094.92 570.53,-1099.98"/>
</a>
</g>
<text text-anchor="middle" x="565.37" y="-1184" font-family="Helvetica,sans-Serif" font-size="10.00" fill="grey"> +ptr</text>
</g>
<!-- Node13 -->
<g id="Node000013" class="node">
<title>Node13</title>
<g id="a_Node000013"><a xlink:title=" ">
<polygon fill="white" stroke="transparent" points="688.87,-1259 576.87,-1259 576.87,-1210 688.87,-1210 688.87,-1259"/>
<text text-anchor="start" x="581.87" y="-1246.5" font-family="Helvetica,sans-Serif" font-size="10.00">std::shared_ptr&lt; T &gt;</text>
<text text-anchor="start" x="630.87" y="-1231.5" font-family="Helvetica,sans-Serif" font-size="10.00"> </text>
<text text-anchor="start" x="588.37" y="-1216.5" font-family="Helvetica,sans-Serif" font-size="10.00">+</text>
<text text-anchor="start" x="608.87" y="-1216.5" font-family="Helvetica,sans-Serif" font-size="10.00">operator&#45;&gt;()</text>
<polygon fill="#666666" stroke="#666666" points="576.87,-1241.5 576.87,-1241.5 688.87,-1241.5 688.87,-1241.5 576.87,-1241.5"/>
<polygon fill="#666666" stroke="#666666" points="576.87,-1226.5 576.87,-1226.5 688.87,-1226.5 688.87,-1226.5 576.87,-1226.5"/>
<polygon fill="none" stroke="#666666" points="576.87,-1210 576.87,-1259 688.87,-1259 688.87,-1210 576.87,-1210"/>
</a>
</g>
</g>
<!-- Node13&#45;&gt;Node11 -->
<g id="edge17_Node000011_Node000013" class="edge">
<title>Node13&#45;&gt;Node11</title>
<g id="a_edge17_Node000011_Node000013"><a xlink:title=" ">
<path fill="none" stroke="orange" d="M621.96,-1199.97C611.22,-1166.96 595.08,-1117.37 585.6,-1088.23"/>
<polygon fill="orange" stroke="orange" points="618.69,-1201.22 625.11,-1209.64 625.34,-1199.05 618.69,-1201.22"/>
</a>
</g>
<text text-anchor="middle" x="641.37" y="-1184" font-family="Helvetica,sans-Serif" font-size="10.00" fill="grey"> &lt; void &gt;</text>
</g>
<!-- Node14 -->
<g id="Node000014" class="node">
<title>Node14</title>
<g id="a_Node000014"><a xlink:title=" ">
<polygon fill="white" stroke="transparent" points="641.37,-1355 624.37,-1355 624.37,-1306 641.37,-1306 641.37,-1355"/>
<text text-anchor="start" x="629.87" y="-1342.5" font-family="Helvetica,sans-Serif" font-size="10.00">T</text>
<text text-anchor="start" x="631.37" y="-1327.5" font-family="Helvetica,sans-Serif" font-size="10.00"> </text>
<text text-anchor="start" x="631.37" y="-1312.5" font-family="Helvetica,sans-Serif" font-size="10.00"> </text>
<polygon fill="#666666" stroke="#666666" points="624.87,-1337.5 624.87,-1337.5 641.87,-1337.5 641.87,-1337.5 624.87,-1337.5"/>
<polygon fill="#666666" stroke="#666666" points="624.87,-1322.5 624.87,-1322.5 641.87,-1322.5 641.87,-1322.5 624.87,-1322.5"/>
<polygon fill="none" stroke="#666666" points="624.37,-1306 624.37,-1355 641.37,-1355 641.37,-1306 624.37,-1306"/>
</a>
</g>
</g>
<!-- Node14&#45;&gt;Node13 -->
<g id="edge18_Node000013_Node000014" class="edge">
<title>Node14&#45;&gt;Node13</title>
<g id="a_edge18_Node000013_Node000014"><a xlink:title=" ">
<path fill="none" stroke="#63b8ff" d="M632.87,-1305.78C632.87,-1295.32 632.87,-1282.79 632.87,-1271.23"/>
<polygon fill="none" stroke="#63b8ff" points="632.87,-1271.21 628.87,-1265.21 632.87,-1259.21 636.87,-1265.21 632.87,-1271.21"/>
</a>
</g>
<text text-anchor="middle" x="645.37" y="-1280" font-family="Helvetica,sans-Serif" font-size="10.00" fill="grey"> +ptr</text>
</g>
<!-- Node15&#45;&gt;Node3 -->
<g id="edge19_Node000003_Node000015" class="edge">
<title>Node15&#45;&gt;Node3</title>
<g id="a_edge19_Node000003_Node000015"><a xlink:title=" ">
<path fill="none" stroke="#63b8ff" d="M91.67,-699.82C102.74,-666.75 117.64,-626.99 134.87,-593 155.89,-551.56 183.42,-508.49 208.71,-471.93"/>
<polygon fill="none" stroke="#63b8ff" points="208.92,-471.65 209.07,-464.44 215.78,-461.8 215.63,-469.01 208.92,-471.65"/>
</a>
</g>
<text text-anchor="middle" x="150.37" y="-612.5" font-family="Helvetica,sans-Serif" font-size="10.00" fill="grey"> +size</text>
</g>
<!-- Node16&#45;&gt;Node3 -->
<g id="edge21_Node000003_Node000016" class="edge">
<title>Node16&#45;&gt;Node3</title>
<g id="a_edge21_Node000003_Node000016"><a xlink:title=" ">
<path fill="none" stroke="#63b8ff" d="M856.47,-699.81C839.18,-660.77 811.35,-615.34 769.87,-593 691.73,-550.91 444.8,-624.12 370.87,-575 362.71,-569.58 355.25,-563.23 348.43,-556.21"/>
<polygon fill="none" stroke="#63b8ff" points="348.15,-555.9 341.16,-554.11 340.12,-546.97 347.11,-548.76 348.15,-555.9"/>
</a>
</g>
<text text-anchor="middle" x="835.37" y="-612.5" font-family="Helvetica,sans-Serif" font-size="10.00" fill="grey"> +step</text>
</g>
<!-- Node17 -->
<g id="Node000017" class="node">
<title>Node17</title>
<g id="a_Node000017"><a xlink:title=" ">
<polygon fill="white" stroke="transparent" points="423.87,-402.5 379.87,-402.5 379.87,-353.5 423.87,-353.5 423.87,-402.5"/>
<text text-anchor="start" x="384.87" y="-390" font-family="Helvetica,sans-Serif" font-size="10.00">double</text>
<text text-anchor="start" x="399.87" y="-375" font-family="Helvetica,sans-Serif" font-size="10.00"> </text>
<text text-anchor="start" x="399.87" y="-360" font-family="Helvetica,sans-Serif" font-size="10.00"> </text>
<polygon fill="#666666" stroke="#666666" points="379.87,-385 379.87,-385 423.87,-385 423.87,-385 379.87,-385"/>
<polygon fill="#666666" stroke="#666666" points="379.87,-370 379.87,-370 423.87,-370 423.87,-370 379.87,-370"/>
<polygon fill="none" stroke="#666666" points="379.87,-353.5 379.87,-402.5 423.87,-402.5 423.87,-353.5 379.87,-353.5"/>
</a>
</g>
</g>
<!-- Node17&#45;&gt;Node1 -->
<g id="edge23_Node000001_Node000017" class="edge">
<title>Node17&#45;&gt;Node1</title>
<g id="a_edge23_Node000001_Node000017"><a xlink:title=" ">
<path fill="none" stroke="#63b8ff" d="M404.19,-353.23C407.81,-306.54 411.47,-200.29 379.87,-119 378.95,-116.63 377.92,-114.27 376.8,-111.94"/>
<polygon fill="none" stroke="#63b8ff" points="376.7,-111.75 370.31,-108.41 370.94,-101.22 377.33,-104.57 376.7,-111.75"/>
</a>
</g>
<text text-anchor="middle" x="411.37" y="-149.5" font-family="Helvetica,sans-Serif" font-size="10.00" fill="grey"> +alpha</text>
<text text-anchor="middle" x="411.37" y="-138.5" font-family="Helvetica,sans-Serif" font-size="10.00" fill="grey">+beta</text>
<text text-anchor="middle" x="411.37" y="-127.5" font-family="Helvetica,sans-Serif" font-size="10.00" fill="grey">+k</text>
</g>
<!-- Node18 -->
<g id="Node000018" class="node">
<title>Node18</title>
<g id="a_Node000018"><a xlink:title=" ">
<polygon fill="white" stroke="transparent" points="629.37,-408 442.37,-408 442.37,-348 629.37,-348 629.37,-408"/>
<text text-anchor="start" x="447.87" y="-396" font-family="Helvetica,sans-Serif" font-size="10.00">Ptr&lt; cv::detail::tracking</text>
<text text-anchor="start" x="447.87" y="-385" font-family="Helvetica,sans-Serif" font-size="10.00">::kalman_filters::UkfSystemModel &gt;</text>
<text text-anchor="start" x="534.37" y="-370" font-family="Helvetica,sans-Serif" font-size="10.00"> </text>
<text text-anchor="start" x="534.37" y="-355" font-family="Helvetica,sans-Serif" font-size="10.00"> </text>
<polygon fill="#666666" stroke="#666666" points="442.87,-380 442.87,-380 629.87,-380 629.87,-380 442.87,-380"/>
<polygon fill="#666666" stroke="#666666" points="442.87,-365 442.87,-365 629.87,-365 629.87,-365 442.87,-365"/>
<polygon fill="none" stroke="#666666" points="442.37,-348 442.37,-408 629.37,-408 629.37,-348 442.37,-348"/>
</a>
</g>
</g>
<!-- Node18&#45;&gt;Node1 -->
<g id="edge24_Node000001_Node000018" class="edge">
<title>Node18&#45;&gt;Node1</title>
<g id="a_edge24_Node000001_Node000018"><a xlink:title=" ">
<path fill="none" stroke="#63b8ff" d="M530.64,-347.64C520.24,-296.31 492.78,-189.08 434.87,-119 432.17,-115.73 429.26,-112.56 426.2,-109.51"/>
<polygon fill="none" stroke="#63b8ff" points="426.01,-109.34 418.89,-108.21 417.19,-101.2 424.32,-102.33 426.01,-109.34"/>
</a>
</g>
<text text-anchor="middle" x="485.37" y="-138.5" font-family="Helvetica,sans-Serif" font-size="10.00" fill="grey"> +model</text>
</g>
</g>
</svg>
