<?xml version="1.0" encoding="UTF-8" standalone="no"?>
<!DOCTYPE svg PUBLIC "-//W3C//DTD SVG 1.1//EN"
 "http://www.w3.org/Graphics/SVG/1.1/DTD/svg11.dtd">
<!-- Generated by graphviz version 2.43.0 (0)
 -->
<!-- Title: opencv2/core/cuda/reduce.hpp Pages: 1 -->
<svg width="322pt" height="137pt"
 viewBox="0.00 0.00 321.50 137.00" xmlns="http://www.w3.org/2000/svg" xmlns:xlink="http://www.w3.org/1999/xlink">
<g id="graph0" class="graph" transform="scale(1 1) rotate(0) translate(4 133)">
<title>opencv2/core/cuda/reduce.hpp</title>
<!-- Node1 -->
<g id="Node000001" class="node">
<title>Node1</title>
<g id="a_Node000001"><a xlink:title=" ">
<polygon fill="#999999" stroke="#666666" points="204.5,-129 39.5,-129 39.5,-110 204.5,-110 204.5,-129"/>
<text text-anchor="middle" x="122" y="-117" font-family="Helvetica,sans-Serif" font-size="10.00">opencv2/core/cuda/reduce.hpp</text>
</a>
</g>
</g>
<!-- Node2 -->
<g id="Node000002" class="node">
<title>Node2</title>
<g id="a_Node000002"><a xlink:title=" ">
<polygon fill="#e0e0e0" stroke="#999999" points="82,-19 0,-19 0,0 82,0 82,-19"/>
<text text-anchor="middle" x="41" y="-7" font-family="Helvetica,sans-Serif" font-size="10.00">thrust/tuple.h</text>
</a>
</g>
</g>
<!-- Node1&#45;&gt;Node2 -->
<g id="edge1_Node000001_Node000002" class="edge">
<title>Node1&#45;&gt;Node2</title>
<g id="a_edge1_Node000001_Node000002"><a xlink:title=" ">
<path fill="none" stroke="#63b8ff" d="M90.58,-109.97C72.66,-103.32 51.7,-92.09 41,-74 33.02,-60.51 33.9,-42.42 36.27,-28.99"/>
<polygon fill="#63b8ff" stroke="#63b8ff" points="39.73,-29.54 38.44,-19.02 32.89,-28.05 39.73,-29.54"/>
</a>
</g>
</g>
<!-- Node3 -->
<g id="Node000003" class="node">
<title>Node3</title>
<g id="a_Node000003"><a xlink:href="../../da/dca/modules_2core_2include_2opencv2_2core_2cuda_2detail_2reduce_8hpp.html" target="_top" xlink:title=" ">
<polygon fill="white" stroke="#666666" points="313.5,-74 212.5,-74 212.5,-55 313.5,-55 313.5,-74"/>
<text text-anchor="middle" x="263" y="-62" font-family="Helvetica,sans-Serif" font-size="10.00">detail/reduce.hpp</text>
</a>
</g>
</g>
<!-- Node1&#45;&gt;Node3 -->
<g id="edge2_Node000001_Node000003" class="edge">
<title>Node1&#45;&gt;Node3</title>
<g id="a_edge2_Node000001_Node000003"><a xlink:title=" ">
<path fill="none" stroke="#63b8ff" d="M144.65,-109.98C167.85,-101.27 204.12,-87.63 230.4,-77.75"/>
<polygon fill="#63b8ff" stroke="#63b8ff" points="231.8,-80.97 239.93,-74.17 229.34,-74.41 231.8,-80.97"/>
</a>
</g>
</g>
<!-- Node6 -->
<g id="Node000006" class="node">
<title>Node6</title>
<g id="a_Node000006"><a xlink:href="../../d3/dbd/reduce__key__val_8hpp.html" target="_top" xlink:title=" ">
<polygon fill="white" stroke="#666666" points="194,-74 50,-74 50,-55 194,-55 194,-74"/>
<text text-anchor="middle" x="122" y="-62" font-family="Helvetica,sans-Serif" font-size="10.00">detail/reduce_key_val.hpp</text>
</a>
</g>
</g>
<!-- Node1&#45;&gt;Node6 -->
<g id="edge6_Node000001_Node000006" class="edge">
<title>Node1&#45;&gt;Node6</title>
<g id="a_edge6_Node000001_Node000006"><a xlink:title=" ">
<path fill="none" stroke="#63b8ff" d="M122,-109.75C122,-102.8 122,-92.85 122,-84.13"/>
<polygon fill="#63b8ff" stroke="#63b8ff" points="125.5,-84.09 122,-74.09 118.5,-84.09 125.5,-84.09"/>
</a>
</g>
</g>
<!-- Node3&#45;&gt;Node2 -->
<g id="edge3_Node000003_Node000002" class="edge">
<title>Node3&#45;&gt;Node2</title>
<g id="a_edge3_Node000003_Node000002"><a xlink:title=" ">
<path fill="none" stroke="#63b8ff" d="M227.33,-54.98C189.17,-45.87 128.53,-31.4 86.85,-21.45"/>
<polygon fill="#63b8ff" stroke="#63b8ff" points="87.49,-18 76.95,-19.08 85.86,-24.81 87.49,-18"/>
</a>
</g>
</g>
<!-- Node4 -->
<g id="Node000004" class="node">
<title>Node4</title>
<g id="a_Node000004"><a xlink:href="../../de/d29/modules_2core_2include_2opencv2_2core_2cuda_2warp_8hpp.html" target="_top" xlink:title=" ">
<polygon fill="white" stroke="#666666" points="298.5,-19 227.5,-19 227.5,0 298.5,0 298.5,-19"/>
<text text-anchor="middle" x="263" y="-7" font-family="Helvetica,sans-Serif" font-size="10.00">../warp.hpp</text>
</a>
</g>
</g>
<!-- Node3&#45;&gt;Node4 -->
<g id="edge4_Node000003_Node000004" class="edge">
<title>Node3&#45;&gt;Node4</title>
<g id="a_edge4_Node000003_Node000004"><a xlink:title=" ">
<path fill="none" stroke="#63b8ff" d="M263,-54.75C263,-47.8 263,-37.85 263,-29.13"/>
<polygon fill="#63b8ff" stroke="#63b8ff" points="266.5,-29.09 263,-19.09 259.5,-29.09 266.5,-29.09"/>
</a>
</g>
</g>
<!-- Node5 -->
<g id="Node000005" class="node">
<title>Node5</title>
<g id="a_Node000005"><a xlink:href="../../d9/daf/warp__shuffle_8hpp.html" target="_top" xlink:title=" ">
<polygon fill="white" stroke="#666666" points="209.5,-19 100.5,-19 100.5,0 209.5,0 209.5,-19"/>
<text text-anchor="middle" x="155" y="-7" font-family="Helvetica,sans-Serif" font-size="10.00">../warp_shuffle.hpp</text>
</a>
</g>
</g>
<!-- Node3&#45;&gt;Node5 -->
<g id="edge5_Node000003_Node000005" class="edge">
<title>Node3&#45;&gt;Node5</title>
<g id="a_edge5_Node000003_Node000005"><a xlink:title=" ">
<path fill="none" stroke="#63b8ff" d="M245.65,-54.98C228.43,-46.54 201.8,-33.47 181.85,-23.68"/>
<polygon fill="#63b8ff" stroke="#63b8ff" points="183.19,-20.43 172.67,-19.17 180.1,-26.72 183.19,-20.43"/>
</a>
</g>
</g>
<!-- Node6&#45;&gt;Node2 -->
<g id="edge7_Node000006_Node000002" class="edge">
<title>Node6&#45;&gt;Node2</title>
<g id="a_edge7_Node000006_Node000002"><a xlink:title=" ">
<path fill="none" stroke="#63b8ff" d="M108.99,-54.98C96.54,-46.84 77.54,-34.41 62.79,-24.76"/>
<polygon fill="#63b8ff" stroke="#63b8ff" points="64.54,-21.72 54.25,-19.17 60.7,-27.57 64.54,-21.72"/>
</a>
</g>
</g>
<!-- Node6&#45;&gt;Node4 -->
<g id="edge8_Node000006_Node000004" class="edge">
<title>Node6&#45;&gt;Node4</title>
<g id="a_edge8_Node000006_Node000004"><a xlink:title=" ">
<path fill="none" stroke="#63b8ff" d="M144.65,-54.98C167.85,-46.27 204.12,-32.63 230.4,-22.75"/>
<polygon fill="#63b8ff" stroke="#63b8ff" points="231.8,-25.97 239.93,-19.17 229.34,-19.41 231.8,-25.97"/>
</a>
</g>
</g>
<!-- Node6&#45;&gt;Node5 -->
<g id="edge9_Node000006_Node000005" class="edge">
<title>Node6&#45;&gt;Node5</title>
<g id="a_edge9_Node000006_Node000005"><a xlink:title=" ">
<path fill="none" stroke="#63b8ff" d="M127.45,-54.75C132.01,-47.42 138.67,-36.73 144.29,-27.7"/>
<polygon fill="#63b8ff" stroke="#63b8ff" points="147.34,-29.43 149.65,-19.09 141.4,-25.73 147.34,-29.43"/>
</a>
</g>
</g>
</g>
</svg>
