<?xml version="1.0" encoding="UTF-8" standalone="no"?>
<!DOCTYPE svg PUBLIC "-//W3C//DTD SVG 1.1//EN"
 "http://www.w3.org/Graphics/SVG/1.1/DTD/svg11.dtd">
<!-- Generated by graphviz version 2.43.0 (0)
 -->
<!-- Title: cv::TrackerCSRT Pages: 1 -->
<svg width="106pt" height="232pt"
 viewBox="0.00 0.00 106.00 232.00" xmlns="http://www.w3.org/2000/svg" xmlns:xlink="http://www.w3.org/1999/xlink">
<g id="graph0" class="graph" transform="scale(1 1) rotate(0) translate(4 228)">
<title>cv::TrackerCSRT</title>
<!-- Node1 -->
<g id="Node000001" class="node">
<title>Node1</title>
<g id="a_Node000001"><a xlink:title="the CSRT tracker">
<polygon fill="#999999" stroke="transparent" points="98,-94 0,-94 0,0 98,0 98,-94"/>
<text text-anchor="start" x="11" y="-82" font-family="Helvetica,sans-Serif" font-size="10.00">cv::TrackerCSRT</text>
<text text-anchor="start" x="47" y="-67" font-family="Helvetica,sans-Serif" font-size="10.00"> </text>
<text text-anchor="start" x="4" y="-52" font-family="Helvetica,sans-Serif" font-size="10.00">+</text>
<text text-anchor="start" x="17" y="-52" font-family="Helvetica,sans-Serif" font-size="10.00">~TrackerCSRT()</text>
<text text-anchor="start" x="4" y="-37" font-family="Helvetica,sans-Serif" font-size="10.00">+</text>
<text text-anchor="start" x="17" y="-37" font-family="Helvetica,sans-Serif" font-size="10.00">setInitialMask()</text>
<text text-anchor="start" x="4" y="-22" font-family="Helvetica,sans-Serif" font-size="10.00">+</text>
<text text-anchor="start" x="17" y="-22" font-family="Helvetica,sans-Serif" font-size="10.00">create()</text>
<text text-anchor="start" x="4" y="-7" font-family="Helvetica,sans-Serif" font-size="10.00">#</text>
<text text-anchor="start" x="17" y="-7" font-family="Helvetica,sans-Serif" font-size="10.00">TrackerCSRT()</text>
<polygon fill="#666666" stroke="#666666" points="0,-77 0,-77 98,-77 98,-77 0,-77"/>
<polygon fill="#666666" stroke="#666666" points="0,-62 0,-62 98,-62 98,-62 0,-62"/>
<polygon fill="none" stroke="#666666" points="0,0 0,-94 98,-94 98,0 0,0"/>
</a>
</g>
</g>
<!-- Node2 -->
<g id="Node000002" class="node">
<title>Node2</title>
<g id="a_Node000002"><a xlink:href="../../d0/d0a/classcv_1_1Tracker.html" target="_top" xlink:title="Base abstract class for the long&#45;term tracker.">
<polygon fill="white" stroke="transparent" points="85,-224 13,-224 13,-130 85,-130 85,-224"/>
<text text-anchor="start" x="23" y="-212" font-family="Helvetica,sans-Serif" font-size="10.00">cv::Tracker</text>
<text text-anchor="start" x="47" y="-197" font-family="Helvetica,sans-Serif" font-size="10.00"> </text>
<text text-anchor="start" x="17" y="-182" font-family="Helvetica,sans-Serif" font-size="10.00">+</text>
<text text-anchor="start" x="30" y="-182" font-family="Helvetica,sans-Serif" font-size="10.00">~Tracker()</text>
<text text-anchor="start" x="17" y="-167" font-family="Helvetica,sans-Serif" font-size="10.00">+</text>
<text text-anchor="start" x="30" y="-167" font-family="Helvetica,sans-Serif" font-size="10.00">init()</text>
<text text-anchor="start" x="17" y="-152" font-family="Helvetica,sans-Serif" font-size="10.00">+</text>
<text text-anchor="start" x="30" y="-152" font-family="Helvetica,sans-Serif" font-size="10.00">update()</text>
<text text-anchor="start" x="17" y="-137" font-family="Helvetica,sans-Serif" font-size="10.00">#</text>
<text text-anchor="start" x="30" y="-137" font-family="Helvetica,sans-Serif" font-size="10.00">Tracker()</text>
<polygon fill="#666666" stroke="#666666" points="13,-207 13,-207 85,-207 85,-207 13,-207"/>
<polygon fill="#666666" stroke="#666666" points="13,-192 13,-192 85,-192 85,-192 13,-192"/>
<polygon fill="none" stroke="#666666" points="13,-130 13,-224 85,-224 85,-130 13,-130"/>
</a>
</g>
</g>
<!-- Node2&#45;&gt;Node1 -->
<g id="edge1_Node000001_Node000002" class="edge">
<title>Node2&#45;&gt;Node1</title>
<g id="a_edge1_Node000001_Node000002"><a xlink:title=" ">
<path fill="none" stroke="#63b8ff" d="M49,-119.56C49,-111.06 49,-102.39 49,-94.14"/>
<polygon fill="none" stroke="#63b8ff" points="45.5,-119.79 49,-129.79 52.5,-119.79 45.5,-119.79"/>
</a>
</g>
</g>
</g>
</svg>
