<?xml version="1.0" encoding="UTF-8" standalone="no"?>
<!DOCTYPE svg PUBLIC "-//W3C//DTD SVG 1.1//EN"
 "http://www.w3.org/Graphics/SVG/1.1/DTD/svg11.dtd">
<!-- Generated by graphviz version 2.43.0 (0)
 -->
<!-- Title: cv::detail::OCVCallHelper&lt; Impl, std::tuple&lt; Ins... &gt;, std::tuple&lt; Outs... &gt; &gt;::call_impl Pages: 1 -->
<svg width="469pt" height="60pt"
 viewBox="0.00 0.00 469.00 60.00" xmlns="http://www.w3.org/2000/svg" xmlns:xlink="http://www.w3.org/1999/xlink">
<g id="graph0" class="graph" transform="scale(1 1) rotate(0) translate(4 56)">
<title>cv::detail::OCVCallHelper&lt; Impl, std::tuple&lt; Ins... &gt;, std::tuple&lt; Outs... &gt; &gt;::call_impl</title>
<!-- Node1 -->
<g id="Node000001" class="node">
<title>Node1</title>
<g id="a_Node000001"><a xlink:title=" ">
<polygon fill="#999999" stroke="#666666" points="139,-52 0,-52 0,0 139,0 139,-52"/>
<text text-anchor="start" x="8" y="-40" font-family="Helvetica,sans-Serif" font-size="10.00">cv::detail::OCVCallHelper</text>
<text text-anchor="start" x="8" y="-29" font-family="Helvetica,sans-Serif" font-size="10.00">&lt; Impl, std::tuple&lt; Ins...</text>
<text text-anchor="start" x="8" y="-18" font-family="Helvetica,sans-Serif" font-size="10.00"> &gt;, std::tuple&lt; Outs... &gt;</text>
<text text-anchor="middle" x="69.5" y="-7" font-family="Helvetica,sans-Serif" font-size="10.00"> &gt;::call_impl</text>
</a>
</g>
</g>
<!-- Node2 -->
<g id="Node000002" class="node">
<title>Node2</title>
<g id="a_Node000002"><a xlink:href="../../db/d2c/structcv_1_1detail_1_1get__in.html#af737fb6b61f7d230428788080d80e653" target="_top" xlink:title=" ">
<polygon fill="white" stroke="#666666" points="294,-35.5 175,-35.5 175,-16.5 294,-16.5 294,-35.5"/>
<text text-anchor="middle" x="234.5" y="-23.5" font-family="Helvetica,sans-Serif" font-size="10.00">cv::detail::get_in::get</text>
</a>
</g>
</g>
<!-- Node1&#45;&gt;Node2 -->
<g id="edge1_Node000001_Node000002" class="edge">
<title>Node1&#45;&gt;Node2</title>
<g id="a_edge1_Node000001_Node000002"><a xlink:title=" ">
<path fill="none" stroke="#63b8ff" d="M139.15,-26C147.63,-26 156.29,-26 164.77,-26"/>
<polygon fill="#63b8ff" stroke="#63b8ff" points="164.99,-29.5 174.99,-26 164.99,-22.5 164.99,-29.5"/>
</a>
</g>
</g>
<!-- Node3 -->
<g id="Node000003" class="node">
<title>Node3</title>
<g id="a_Node000003"><a xlink:href="../../d4/dc1/classcv_1_1GCPUContext.html#abf4d855889f20d043029087344449e26" target="_top" xlink:title=" ">
<polygon fill="white" stroke="#666666" points="461,-35.5 330,-35.5 330,-16.5 461,-16.5 461,-35.5"/>
<text text-anchor="middle" x="395.5" y="-23.5" font-family="Helvetica,sans-Serif" font-size="10.00">cv::GCPUContext::inArg</text>
</a>
</g>
</g>
<!-- Node2&#45;&gt;Node3 -->
<g id="edge2_Node000002_Node000003" class="edge">
<title>Node2&#45;&gt;Node3</title>
<g id="a_edge2_Node000002_Node000003"><a xlink:title=" ">
<path fill="none" stroke="#63b8ff" d="M294.25,-26C302.58,-26 311.24,-26 319.82,-26"/>
<polygon fill="#63b8ff" stroke="#63b8ff" points="319.83,-29.5 329.83,-26 319.83,-22.5 319.83,-29.5"/>
</a>
</g>
</g>
</g>
</svg>
