<?xml version="1.0" encoding="UTF-8" standalone="no"?>
<!DOCTYPE svg PUBLIC "-//W3C//DTD SVG 1.1//EN"
 "http://www.w3.org/Graphics/SVG/1.1/DTD/svg11.dtd">
<!-- Generated by graphviz version 2.43.0 (0)
 -->
<!-- Title: cv::datasets::cameraPos Pages: 1 -->
<svg width="208pt" height="356pt"
 viewBox="0.00 0.00 208.00 356.00" xmlns="http://www.w3.org/2000/svg" xmlns:xlink="http://www.w3.org/1999/xlink">
<g id="graph0" class="graph" transform="scale(1 1) rotate(0) translate(4 352)">
<title>cv::datasets::cameraPos</title>
<!-- Node1 -->
<g id="Node000001" class="node">
<title>Node1</title>
<g id="a_Node000001"><a xlink:title=" ">
<polygon fill="#999999" stroke="transparent" points="159.5,-49 30.5,-49 30.5,0 159.5,0 159.5,-49"/>
<text text-anchor="start" x="36" y="-36.5" font-family="Helvetica,sans-Serif" font-size="10.00">cv::datasets::cameraPos</text>
<text text-anchor="start" x="93.5" y="-21.5" font-family="Helvetica,sans-Serif" font-size="10.00"> </text>
<text text-anchor="start" x="93.5" y="-6.5" font-family="Helvetica,sans-Serif" font-size="10.00"> </text>
<polygon fill="#666666" stroke="#666666" points="31,-31.5 31,-31.5 160,-31.5 160,-31.5 31,-31.5"/>
<polygon fill="#666666" stroke="#666666" points="31,-16.5 31,-16.5 160,-16.5 160,-16.5 31,-16.5"/>
<polygon fill="none" stroke="#666666" points="30.5,0 30.5,-49 159.5,-49 159.5,0 30.5,0"/>
</a>
</g>
</g>
<!-- Node2 -->
<g id="Node000002" class="node">
<title>Node2</title>
<g id="a_Node000002"><a xlink:title=" ">
<polygon fill="white" stroke="transparent" points="162,-145 28,-145 28,-96 162,-96 162,-145"/>
<text text-anchor="start" x="33" y="-132.5" font-family="Helvetica,sans-Serif" font-size="10.00">std::vector&lt; std::string &gt;</text>
<text text-anchor="start" x="93" y="-117.5" font-family="Helvetica,sans-Serif" font-size="10.00"> </text>
<text text-anchor="start" x="93" y="-102.5" font-family="Helvetica,sans-Serif" font-size="10.00"> </text>
<polygon fill="#666666" stroke="#666666" points="28,-127.5 28,-127.5 162,-127.5 162,-127.5 28,-127.5"/>
<polygon fill="#666666" stroke="#666666" points="28,-112.5 28,-112.5 162,-112.5 162,-112.5 28,-112.5"/>
<polygon fill="none" stroke="#666666" points="28,-96 28,-145 162,-145 162,-96 28,-96"/>
</a>
</g>
</g>
<!-- Node2&#45;&gt;Node1 -->
<g id="edge1_Node000001_Node000002" class="edge">
<title>Node2&#45;&gt;Node1</title>
<g id="a_edge1_Node000001_Node000002"><a xlink:title=" ">
<path fill="none" stroke="#63b8ff" d="M95,-95.78C95,-85.32 95,-72.79 95,-61.23"/>
<polygon fill="none" stroke="#63b8ff" points="95,-61.21 91,-55.21 95,-49.21 99,-55.21 95,-61.21"/>
</a>
</g>
<text text-anchor="middle" x="119" y="-70" font-family="Helvetica,sans-Serif" font-size="10.00" fill="grey"> +images</text>
</g>
<!-- Node3 -->
<g id="Node000003" class="node">
<title>Node3</title>
<g id="a_Node000003"><a xlink:title=" ">
<polygon fill="white" stroke="transparent" points="78.5,-241 19.5,-241 19.5,-192 78.5,-192 78.5,-241"/>
<text text-anchor="start" x="25" y="-228.5" font-family="Helvetica,sans-Serif" font-size="10.00">std::string</text>
<text text-anchor="start" x="47.5" y="-213.5" font-family="Helvetica,sans-Serif" font-size="10.00"> </text>
<text text-anchor="start" x="47.5" y="-198.5" font-family="Helvetica,sans-Serif" font-size="10.00"> </text>
<polygon fill="#666666" stroke="#666666" points="20,-223.5 20,-223.5 79,-223.5 79,-223.5 20,-223.5"/>
<polygon fill="#666666" stroke="#666666" points="20,-208.5 20,-208.5 79,-208.5 79,-208.5 20,-208.5"/>
<polygon fill="none" stroke="#666666" points="19.5,-192 19.5,-241 78.5,-241 78.5,-192 19.5,-192"/>
</a>
</g>
</g>
<!-- Node3&#45;&gt;Node2 -->
<g id="edge2_Node000002_Node000003" class="edge">
<title>Node3&#45;&gt;Node2</title>
<g id="a_edge2_Node000002_Node000003"><a xlink:title=" ">
<path fill="none" stroke="#63b8ff" d="M50.82,-191.93C52.21,-182.57 54.67,-171.93 59,-163 60.26,-160.39 61.73,-157.82 63.35,-155.31"/>
<polygon fill="none" stroke="#63b8ff" points="63.5,-155.1 63.81,-147.9 70.58,-145.42 70.27,-152.63 63.5,-155.1"/>
</a>
</g>
<text text-anchor="middle" x="88" y="-166" font-family="Helvetica,sans-Serif" font-size="10.00" fill="grey"> +elements</text>
</g>
<!-- Node4 -->
<g id="Node000004" class="node">
<title>Node4</title>
<g id="a_Node000004"><a xlink:title=" ">
<polygon fill="white" stroke="transparent" points="98,-348 0,-348 0,-288 98,-288 98,-348"/>
<text text-anchor="start" x="5" y="-336" font-family="Helvetica,sans-Serif" font-size="10.00">std::basic_string&lt;</text>
<text text-anchor="start" x="30.5" y="-325" font-family="Helvetica,sans-Serif" font-size="10.00"> Char &gt;</text>
<text text-anchor="start" x="47" y="-310" font-family="Helvetica,sans-Serif" font-size="10.00"> </text>
<text text-anchor="start" x="47" y="-295" font-family="Helvetica,sans-Serif" font-size="10.00"> </text>
<polygon fill="#666666" stroke="#666666" points="0,-320 0,-320 98,-320 98,-320 0,-320"/>
<polygon fill="#666666" stroke="#666666" points="0,-305 0,-305 98,-305 98,-305 0,-305"/>
<polygon fill="none" stroke="#666666" points="0,-288 0,-348 98,-348 98,-288 0,-288"/>
</a>
</g>
</g>
<!-- Node4&#45;&gt;Node3 -->
<g id="edge3_Node000003_Node000004" class="edge">
<title>Node4&#45;&gt;Node3</title>
<g id="a_edge3_Node000003_Node000004"><a xlink:title=" ">
<path fill="none" stroke="#63b8ff" d="M49,-277.8C49,-265.38 49,-252.03 49,-241.06"/>
<polygon fill="none" stroke="#63b8ff" points="45.5,-277.95 49,-287.95 52.5,-277.95 45.5,-277.95"/>
</a>
</g>
</g>
<!-- Node5 -->
<g id="Node000005" class="node">
<title>Node5</title>
<g id="a_Node000005"><a xlink:title=" ">
<polygon fill="white" stroke="transparent" points="187.5,-241 96.5,-241 96.5,-192 187.5,-192 187.5,-241"/>
<text text-anchor="start" x="102" y="-228.5" font-family="Helvetica,sans-Serif" font-size="10.00">std::vector&lt; T &gt;</text>
<text text-anchor="start" x="140.5" y="-213.5" font-family="Helvetica,sans-Serif" font-size="10.00"> </text>
<text text-anchor="start" x="140.5" y="-198.5" font-family="Helvetica,sans-Serif" font-size="10.00"> </text>
<polygon fill="#666666" stroke="#666666" points="97,-223.5 97,-223.5 188,-223.5 188,-223.5 97,-223.5"/>
<polygon fill="#666666" stroke="#666666" points="97,-208.5 97,-208.5 188,-208.5 188,-208.5 97,-208.5"/>
<polygon fill="none" stroke="#666666" points="96.5,-192 96.5,-241 187.5,-241 187.5,-192 96.5,-192"/>
</a>
</g>
</g>
<!-- Node5&#45;&gt;Node2 -->
<g id="edge4_Node000002_Node000005" class="edge">
<title>Node5&#45;&gt;Node2</title>
<g id="a_edge4_Node000002_Node000005"><a xlink:title=" ">
<path fill="none" stroke="orange" d="M126.6,-182.59C123.47,-176.08 120.17,-169.3 117,-163 114.07,-157.17 110.82,-150.93 107.74,-145.11"/>
<polygon fill="orange" stroke="orange" points="123.56,-184.35 131.01,-191.87 129.88,-181.34 123.56,-184.35"/>
</a>
</g>
<text text-anchor="middle" x="159.5" y="-166" font-family="Helvetica,sans-Serif" font-size="10.00" fill="grey"> &lt; std::string &gt;</text>
</g>
<!-- Node6 -->
<g id="Node000006" class="node">
<title>Node6</title>
<g id="a_Node000006"><a xlink:title=" ">
<polygon fill="white" stroke="transparent" points="150.5,-342.5 133.5,-342.5 133.5,-293.5 150.5,-293.5 150.5,-342.5"/>
<text text-anchor="start" x="139" y="-330" font-family="Helvetica,sans-Serif" font-size="10.00">T</text>
<text text-anchor="start" x="140.5" y="-315" font-family="Helvetica,sans-Serif" font-size="10.00"> </text>
<text text-anchor="start" x="140.5" y="-300" font-family="Helvetica,sans-Serif" font-size="10.00"> </text>
<polygon fill="#666666" stroke="#666666" points="134,-325 134,-325 151,-325 151,-325 134,-325"/>
<polygon fill="#666666" stroke="#666666" points="134,-310 134,-310 151,-310 151,-310 134,-310"/>
<polygon fill="none" stroke="#666666" points="133.5,-293.5 133.5,-342.5 150.5,-342.5 150.5,-293.5 133.5,-293.5"/>
</a>
</g>
</g>
<!-- Node6&#45;&gt;Node5 -->
<g id="edge5_Node000005_Node000006" class="edge">
<title>Node6&#45;&gt;Node5</title>
<g id="a_edge5_Node000005_Node000006"><a xlink:title=" ">
<path fill="none" stroke="#63b8ff" d="M142,-293.42C142,-281.49 142,-266.75 142,-253.44"/>
<polygon fill="none" stroke="#63b8ff" points="142,-253.26 138,-247.26 142,-241.26 146,-247.26 142,-253.26"/>
</a>
</g>
<text text-anchor="middle" x="171" y="-262" font-family="Helvetica,sans-Serif" font-size="10.00" fill="grey"> +elements</text>
</g>
</g>
</svg>
