<?xml version="1.0" encoding="UTF-8" standalone="no"?>
<!DOCTYPE svg PUBLIC "-//W3C//DTD SVG 1.1//EN"
 "http://www.w3.org/Graphics/SVG/1.1/DTD/svg11.dtd">
<!-- Generated by graphviz version 2.43.0 (0)
 -->
<!-- Title: calib3d/src/hal_replacement.hpp Pages: 1 -->
<svg width="276pt" height="137pt"
 viewBox="0.00 0.00 275.50 137.00" xmlns="http://www.w3.org/2000/svg" xmlns:xlink="http://www.w3.org/1999/xlink">
<g id="graph0" class="graph" transform="scale(1 1) rotate(0) translate(4 133)">
<title>calib3d/src/hal_replacement.hpp</title>
<!-- Node1 -->
<g id="Node000001" class="node">
<title>Node1</title>
<g id="a_Node000001"><a xlink:title=" ">
<polygon fill="#999999" stroke="#666666" points="236,-129 61,-129 61,-110 236,-110 236,-129"/>
<text text-anchor="middle" x="148.5" y="-117" font-family="Helvetica,sans-Serif" font-size="10.00">calib3d/src/hal_replacement.hpp</text>
</a>
</g>
</g>
<!-- Node2 -->
<g id="Node000002" class="node">
<title>Node2</title>
<g id="a_Node000002"><a xlink:href="../../d2/d10/core_2include_2opencv2_2core_2hal_2interface_8h.html" target="_top" xlink:title=" ">
<polygon fill="white" stroke="#666666" points="155,-74 0,-74 0,-55 155,-55 155,-74"/>
<text text-anchor="middle" x="77.5" y="-62" font-family="Helvetica,sans-Serif" font-size="10.00">opencv2/core/hal/interface.h</text>
</a>
</g>
</g>
<!-- Node1&#45;&gt;Node2 -->
<g id="edge1_Node000001_Node000002" class="edge">
<title>Node1&#45;&gt;Node2</title>
<g id="a_edge1_Node000001_Node000002"><a xlink:title=" ">
<path fill="none" stroke="#63b8ff" d="M137.09,-109.98C126.39,-102 110.16,-89.88 97.34,-80.31"/>
<polygon fill="#63b8ff" stroke="#63b8ff" points="99.22,-77.35 89.11,-74.17 95.03,-82.96 99.22,-77.35"/>
</a>
</g>
</g>
<!-- Node5 -->
<g id="Node000005" class="node">
<title>Node5</title>
<g id="a_Node000005"><a xlink:title=" ">
<polygon fill="#e0e0e0" stroke="#999999" points="267.5,-74 173.5,-74 173.5,-55 267.5,-55 267.5,-74"/>
<text text-anchor="middle" x="220.5" y="-62" font-family="Helvetica,sans-Serif" font-size="10.00">custom_hal.hpp</text>
</a>
</g>
</g>
<!-- Node1&#45;&gt;Node5 -->
<g id="edge4_Node000001_Node000005" class="edge">
<title>Node1&#45;&gt;Node5</title>
<g id="a_edge4_Node000001_Node000005"><a xlink:title=" ">
<path fill="none" stroke="#63b8ff" d="M160.07,-109.98C170.92,-102 187.38,-89.88 200.38,-80.31"/>
<polygon fill="#63b8ff" stroke="#63b8ff" points="202.74,-82.92 208.72,-74.17 198.59,-77.28 202.74,-82.92"/>
</a>
</g>
</g>
<!-- Node3 -->
<g id="Node000003" class="node">
<title>Node3</title>
<g id="a_Node000003"><a xlink:title=" ">
<polygon fill="#e0e0e0" stroke="#999999" points="69,-19 16,-19 16,0 69,0 69,-19"/>
<text text-anchor="middle" x="42.5" y="-7" font-family="Helvetica,sans-Serif" font-size="10.00">cstddef</text>
</a>
</g>
</g>
<!-- Node2&#45;&gt;Node3 -->
<g id="edge2_Node000002_Node000003" class="edge">
<title>Node2&#45;&gt;Node3</title>
<g id="a_edge2_Node000002_Node000003"><a xlink:title=" ">
<path fill="none" stroke="#63b8ff" d="M71.72,-54.75C66.88,-47.42 59.82,-36.73 53.86,-27.7"/>
<polygon fill="#63b8ff" stroke="#63b8ff" points="56.6,-25.5 48.17,-19.09 50.76,-29.36 56.6,-25.5"/>
</a>
</g>
</g>
<!-- Node4 -->
<g id="Node000004" class="node">
<title>Node4</title>
<g id="a_Node000004"><a xlink:title=" ">
<polygon fill="#e0e0e0" stroke="#999999" points="140,-19 87,-19 87,0 140,0 140,-19"/>
<text text-anchor="middle" x="113.5" y="-7" font-family="Helvetica,sans-Serif" font-size="10.00">stdint.h</text>
</a>
</g>
</g>
<!-- Node2&#45;&gt;Node4 -->
<g id="edge3_Node000002_Node000004" class="edge">
<title>Node2&#45;&gt;Node4</title>
<g id="a_edge3_Node000002_Node000004"><a xlink:title=" ">
<path fill="none" stroke="#63b8ff" d="M83.44,-54.75C88.48,-47.34 95.84,-36.5 102.01,-27.41"/>
<polygon fill="#63b8ff" stroke="#63b8ff" points="104.94,-29.33 107.67,-19.09 99.15,-25.39 104.94,-29.33"/>
</a>
</g>
</g>
</g>
</svg>
