<?xml version="1.0" encoding="UTF-8" standalone="no"?>
<!DOCTYPE svg PUBLIC "-//W3C//DTD SVG 1.1//EN"
 "http://www.w3.org/Graphics/SVG/1.1/DTD/svg11.dtd">
<!-- Generated by graphviz version 2.43.0 (0)
 -->
<!-- Title: cv::dnn::TextDetectionModel_EAST Pages: 1 -->
<svg width="187pt" height="658pt"
 viewBox="0.00 0.00 187.00 658.00" xmlns="http://www.w3.org/2000/svg" xmlns:xlink="http://www.w3.org/1999/xlink">
<g id="graph0" class="graph" transform="scale(1 1) rotate(0) translate(4 654)">
<title>cv::dnn::TextDetectionModel_EAST</title>
<!-- Node1 -->
<g id="Node000001" class="node">
<title>Node1</title>
<g id="a_Node000001"><a xlink:title="This class represents high&#45;level API for text detection DL networks compatible with EAST model.">
<polygon fill="#999999" stroke="transparent" points="179,-172 0,-172 0,0 179,0 179,-172"/>
<text text-anchor="start" x="5.5" y="-160" font-family="Helvetica,sans-Serif" font-size="10.00">cv::dnn::TextDetectionModel_EAST</text>
<text text-anchor="start" x="88" y="-145" font-family="Helvetica,sans-Serif" font-size="10.00"> </text>
<text text-anchor="start" x="12.5" y="-130" font-family="Helvetica,sans-Serif" font-size="10.00">+</text>
<text text-anchor="start" x="33.5" y="-130" font-family="Helvetica,sans-Serif" font-size="10.00">TextDetectionModel</text>
<text text-anchor="start" x="33.5" y="-119" font-family="Helvetica,sans-Serif" font-size="10.00">_EAST()</text>
<text text-anchor="start" x="12.5" y="-104" font-family="Helvetica,sans-Serif" font-size="10.00">+</text>
<text text-anchor="start" x="33.5" y="-104" font-family="Helvetica,sans-Serif" font-size="10.00">TextDetectionModel</text>
<text text-anchor="start" x="33.5" y="-93" font-family="Helvetica,sans-Serif" font-size="10.00">_EAST()</text>
<text text-anchor="start" x="12.5" y="-78" font-family="Helvetica,sans-Serif" font-size="10.00">+</text>
<text text-anchor="start" x="33.5" y="-78" font-family="Helvetica,sans-Serif" font-size="10.00">TextDetectionModel</text>
<text text-anchor="start" x="33.5" y="-67" font-family="Helvetica,sans-Serif" font-size="10.00">_EAST()</text>
<text text-anchor="start" x="12.5" y="-52" font-family="Helvetica,sans-Serif" font-size="10.00">+</text>
<text text-anchor="start" x="33.5" y="-52" font-family="Helvetica,sans-Serif" font-size="10.00">getConfidenceThreshold()</text>
<text text-anchor="start" x="12.5" y="-37" font-family="Helvetica,sans-Serif" font-size="10.00">+</text>
<text text-anchor="start" x="33.5" y="-37" font-family="Helvetica,sans-Serif" font-size="10.00">getNMSThreshold()</text>
<text text-anchor="start" x="12.5" y="-22" font-family="Helvetica,sans-Serif" font-size="10.00">+</text>
<text text-anchor="start" x="33.5" y="-22" font-family="Helvetica,sans-Serif" font-size="10.00">setConfidenceThreshold()</text>
<text text-anchor="start" x="12.5" y="-7" font-family="Helvetica,sans-Serif" font-size="10.00">+</text>
<text text-anchor="start" x="33.5" y="-7" font-family="Helvetica,sans-Serif" font-size="10.00">setNMSThreshold()</text>
<polygon fill="#666666" stroke="#666666" points="0.5,-155 0.5,-155 179.5,-155 179.5,-155 0.5,-155"/>
<polygon fill="#666666" stroke="#666666" points="0.5,-140 0.5,-140 179.5,-140 179.5,-140 0.5,-140"/>
<polygon fill="none" stroke="#666666" points="0,0 0,-172 179,-172 179,0 0,0"/>
</a>
</g>
</g>
<!-- Node2 -->
<g id="Node000002" class="node">
<title>Node2</title>
<g id="a_Node000002"><a xlink:href="../../d4/de1/classcv_1_1dnn_1_1TextDetectionModel.html" target="_top" xlink:title="Base class for text detection networks.">
<polygon fill="white" stroke="transparent" points="164,-318 15,-318 15,-209 164,-209 164,-318"/>
<text text-anchor="start" x="20.5" y="-305.5" font-family="Helvetica,sans-Serif" font-size="10.00">cv::dnn::TextDetectionModel</text>
<text text-anchor="start" x="88" y="-290.5" font-family="Helvetica,sans-Serif" font-size="10.00"> </text>
<text text-anchor="start" x="23" y="-275.5" font-family="Helvetica,sans-Serif" font-size="10.00">+</text>
<text text-anchor="start" x="39.5" y="-275.5" font-family="Helvetica,sans-Serif" font-size="10.00">detect()</text>
<text text-anchor="start" x="23" y="-260.5" font-family="Helvetica,sans-Serif" font-size="10.00">+</text>
<text text-anchor="start" x="39.5" y="-260.5" font-family="Helvetica,sans-Serif" font-size="10.00">detect()</text>
<text text-anchor="start" x="23" y="-245.5" font-family="Helvetica,sans-Serif" font-size="10.00">+</text>
<text text-anchor="start" x="39.5" y="-245.5" font-family="Helvetica,sans-Serif" font-size="10.00">detectTextRectangles()</text>
<text text-anchor="start" x="23" y="-230.5" font-family="Helvetica,sans-Serif" font-size="10.00">+</text>
<text text-anchor="start" x="39.5" y="-230.5" font-family="Helvetica,sans-Serif" font-size="10.00">detectTextRectangles()</text>
<text text-anchor="start" x="23" y="-215.5" font-family="Helvetica,sans-Serif" font-size="10.00">#</text>
<text text-anchor="start" x="39.5" y="-215.5" font-family="Helvetica,sans-Serif" font-size="10.00">TextDetectionModel()</text>
<polygon fill="#666666" stroke="#666666" points="15.5,-300.5 15.5,-300.5 164.5,-300.5 164.5,-300.5 15.5,-300.5"/>
<polygon fill="#666666" stroke="#666666" points="15.5,-285.5 15.5,-285.5 164.5,-285.5 164.5,-285.5 15.5,-285.5"/>
<polygon fill="none" stroke="#666666" points="15,-209 15,-318 164,-318 164,-209 15,-209"/>
</a>
</g>
</g>
<!-- Node2&#45;&gt;Node1 -->
<g id="edge1_Node000001_Node000002" class="edge">
<title>Node2&#45;&gt;Node1</title>
<g id="a_edge1_Node000001_Node000002"><a xlink:title=" ">
<path fill="none" stroke="#63b8ff" d="M89.5,-198.63C89.5,-190.06 89.5,-181.16 89.5,-172.3"/>
<polygon fill="none" stroke="#63b8ff" points="86,-198.89 89.5,-208.89 93,-198.89 86,-198.89"/>
</a>
</g>
</g>
<!-- Node3 -->
<g id="Node000003" class="node">
<title>Node3</title>
<g id="a_Node000003"><a xlink:href="../../d3/df0/classcv_1_1dnn_1_1Model.html" target="_top" xlink:title="This class is presented high&#45;level API for neural networks.">
<polygon fill="white" stroke="transparent" points="144,-554 35,-554 35,-355 144,-355 144,-554"/>
<text text-anchor="start" x="54.5" y="-541.5" font-family="Helvetica,sans-Serif" font-size="10.00">cv::dnn::Model</text>
<text text-anchor="start" x="88" y="-526.5" font-family="Helvetica,sans-Serif" font-size="10.00"> </text>
<text text-anchor="start" x="39.5" y="-511.5" font-family="Helvetica,sans-Serif" font-size="10.00">+</text>
<text text-anchor="start" x="52.5" y="-511.5" font-family="Helvetica,sans-Serif" font-size="10.00">Model()</text>
<text text-anchor="start" x="39.5" y="-496.5" font-family="Helvetica,sans-Serif" font-size="10.00">+</text>
<text text-anchor="start" x="52.5" y="-496.5" font-family="Helvetica,sans-Serif" font-size="10.00">Model()</text>
<text text-anchor="start" x="39.5" y="-481.5" font-family="Helvetica,sans-Serif" font-size="10.00">+</text>
<text text-anchor="start" x="52.5" y="-481.5" font-family="Helvetica,sans-Serif" font-size="10.00">Model()</text>
<text text-anchor="start" x="39.5" y="-466.5" font-family="Helvetica,sans-Serif" font-size="10.00">+</text>
<text text-anchor="start" x="52.5" y="-466.5" font-family="Helvetica,sans-Serif" font-size="10.00">Model()</text>
<text text-anchor="start" x="39.5" y="-451.5" font-family="Helvetica,sans-Serif" font-size="10.00">+</text>
<text text-anchor="start" x="52.5" y="-451.5" font-family="Helvetica,sans-Serif" font-size="10.00">Model()</text>
<text text-anchor="start" x="39.5" y="-436.5" font-family="Helvetica,sans-Serif" font-size="10.00">+</text>
<text text-anchor="start" x="52.5" y="-436.5" font-family="Helvetica,sans-Serif" font-size="10.00">enableWinograd()</text>
<text text-anchor="start" x="39.5" y="-421.5" font-family="Helvetica,sans-Serif" font-size="10.00">+</text>
<text text-anchor="start" x="52.5" y="-421.5" font-family="Helvetica,sans-Serif" font-size="10.00">getImpl()</text>
<text text-anchor="start" x="39.5" y="-406.5" font-family="Helvetica,sans-Serif" font-size="10.00">+</text>
<text text-anchor="start" x="52.5" y="-406.5" font-family="Helvetica,sans-Serif" font-size="10.00">getImplRef()</text>
<text text-anchor="start" x="39.5" y="-391.5" font-family="Helvetica,sans-Serif" font-size="10.00">+</text>
<text text-anchor="start" x="52.5" y="-391.5" font-family="Helvetica,sans-Serif" font-size="10.00">getNetwork_()</text>
<text text-anchor="start" x="39.5" y="-376.5" font-family="Helvetica,sans-Serif" font-size="10.00">+</text>
<text text-anchor="start" x="52.5" y="-376.5" font-family="Helvetica,sans-Serif" font-size="10.00">getNetwork_()</text>
<text text-anchor="start" x="52.5" y="-361.5" font-family="Helvetica,sans-Serif" font-size="10.00">and 14 more...</text>
<polygon fill="#666666" stroke="#666666" points="35.5,-536.5 35.5,-536.5 144.5,-536.5 144.5,-536.5 35.5,-536.5"/>
<polygon fill="#666666" stroke="#666666" points="35.5,-521.5 35.5,-521.5 144.5,-521.5 144.5,-521.5 35.5,-521.5"/>
<polygon fill="none" stroke="#666666" points="35,-355 35,-554 144,-554 144,-355 35,-355"/>
</a>
</g>
</g>
<!-- Node3&#45;&gt;Node2 -->
<g id="edge2_Node000002_Node000003" class="edge">
<title>Node3&#45;&gt;Node2</title>
<g id="a_edge2_Node000002_Node000003"><a xlink:title=" ">
<path fill="none" stroke="#63b8ff" d="M89.5,-344.61C89.5,-335.59 89.5,-326.75 89.5,-318.43"/>
<polygon fill="none" stroke="#63b8ff" points="86,-344.85 89.5,-354.85 93,-344.85 86,-344.85"/>
</a>
</g>
</g>
<!-- Node4 -->
<g id="Node000004" class="node">
<title>Node4</title>
<g id="a_Node000004"><a xlink:title=" ">
<polygon fill="white" stroke="transparent" points="123.5,-650 55.5,-650 55.5,-601 123.5,-601 123.5,-650"/>
<text text-anchor="start" x="60.5" y="-637.5" font-family="Helvetica,sans-Serif" font-size="10.00">Ptr&lt; Impl &gt;</text>
<text text-anchor="start" x="87.5" y="-622.5" font-family="Helvetica,sans-Serif" font-size="10.00"> </text>
<text text-anchor="start" x="87.5" y="-607.5" font-family="Helvetica,sans-Serif" font-size="10.00"> </text>
<polygon fill="#666666" stroke="#666666" points="55.5,-632.5 55.5,-632.5 123.5,-632.5 123.5,-632.5 55.5,-632.5"/>
<polygon fill="#666666" stroke="#666666" points="55.5,-617.5 55.5,-617.5 123.5,-617.5 123.5,-617.5 55.5,-617.5"/>
<polygon fill="none" stroke="#666666" points="55.5,-601 55.5,-650 123.5,-650 123.5,-601 55.5,-601"/>
</a>
</g>
</g>
<!-- Node4&#45;&gt;Node3 -->
<g id="edge3_Node000003_Node000004" class="edge">
<title>Node4&#45;&gt;Node3</title>
<g id="a_edge3_Node000003_Node000004"><a xlink:title=" ">
<path fill="none" stroke="#63b8ff" d="M89.5,-600.64C89.5,-591.06 89.5,-579.28 89.5,-566.6"/>
<polygon fill="none" stroke="#63b8ff" points="89.5,-566.22 85.5,-560.22 89.5,-554.22 93.5,-560.22 89.5,-566.22"/>
</a>
</g>
<text text-anchor="middle" x="106.5" y="-575" font-family="Helvetica,sans-Serif" font-size="10.00" fill="grey"> #impl</text>
</g>
</g>
</svg>
