<?xml version="1.0" encoding="UTF-8" standalone="no"?>
<!DOCTYPE svg PUBLIC "-//W3C//DTD SVG 1.1//EN"
 "http://www.w3.org/Graphics/SVG/1.1/DTD/svg11.dtd">
<!-- Generated by graphviz version 2.43.0 (0)
 -->
<!-- Title: cv::detail::Blender Pages: 1 -->
<svg width="929pt" height="1334pt"
 viewBox="0.00 0.00 928.90 1334.00" xmlns="http://www.w3.org/2000/svg" xmlns:xlink="http://www.w3.org/1999/xlink">
<g id="graph0" class="graph" transform="scale(1 1) rotate(0) translate(4 1330)">
<title>cv::detail::Blender</title>
<!-- Node1 -->
<g id="Node000001" class="node">
<title>Node1</title>
<g id="a_Node000001"><a xlink:title="Base class for all blenders.">
<polygon fill="#999999" stroke="transparent" points="465.9,-124 367.9,-124 367.9,0 465.9,0 465.9,-124"/>
<text text-anchor="start" x="372.9" y="-112" font-family="Helvetica,sans-Serif" font-size="10.00">cv::detail::Blender</text>
<text text-anchor="start" x="414.9" y="-97" font-family="Helvetica,sans-Serif" font-size="10.00"> </text>
<text text-anchor="start" x="372.4" y="-82" font-family="Helvetica,sans-Serif" font-size="10.00">+</text>
<text text-anchor="start" x="385.9" y="-82" font-family="Helvetica,sans-Serif" font-size="10.00">~Blender()</text>
<text text-anchor="start" x="372.4" y="-67" font-family="Helvetica,sans-Serif" font-size="10.00">+</text>
<text text-anchor="start" x="385.9" y="-67" font-family="Helvetica,sans-Serif" font-size="10.00">blend()</text>
<text text-anchor="start" x="372.4" y="-52" font-family="Helvetica,sans-Serif" font-size="10.00">+</text>
<text text-anchor="start" x="385.9" y="-52" font-family="Helvetica,sans-Serif" font-size="10.00">feed()</text>
<text text-anchor="start" x="372.4" y="-37" font-family="Helvetica,sans-Serif" font-size="10.00">+</text>
<text text-anchor="start" x="385.9" y="-37" font-family="Helvetica,sans-Serif" font-size="10.00">prepare()</text>
<text text-anchor="start" x="372.4" y="-22" font-family="Helvetica,sans-Serif" font-size="10.00">+</text>
<text text-anchor="start" x="385.9" y="-22" font-family="Helvetica,sans-Serif" font-size="10.00">prepare()</text>
<text text-anchor="start" x="372.4" y="-7" font-family="Helvetica,sans-Serif" font-size="10.00">+</text>
<text text-anchor="start" x="385.9" y="-7" font-family="Helvetica,sans-Serif" font-size="10.00">createDefault()</text>
<polygon fill="#666666" stroke="#666666" points="367.9,-107 367.9,-107 465.9,-107 465.9,-107 367.9,-107"/>
<polygon fill="#666666" stroke="#666666" points="367.9,-92 367.9,-92 465.9,-92 465.9,-92 367.9,-92"/>
<polygon fill="none" stroke="#666666" points="367.9,0 367.9,-124 465.9,-124 465.9,0 367.9,0"/>
</a>
</g>
</g>
<!-- Node2 -->
<g id="Node000002" class="node">
<title>Node2</title>
<g id="a_Node000002"><a xlink:href="../../d7/d45/classcv_1_1UMat.html" target="_top" xlink:title=" ">
<polygon fill="white" stroke="transparent" points="397.9,-546 293.9,-546 293.9,-182 397.9,-182 397.9,-546"/>
<text text-anchor="start" x="324.4" y="-534" font-family="Helvetica,sans-Serif" font-size="10.00">cv::UMat</text>
<text text-anchor="start" x="343.9" y="-519" font-family="Helvetica,sans-Serif" font-size="10.00"> </text>
<text text-anchor="start" x="297.9" y="-504" font-family="Helvetica,sans-Serif" font-size="10.00">+</text>
<text text-anchor="start" x="310.9" y="-504" font-family="Helvetica,sans-Serif" font-size="10.00">UMat()</text>
<text text-anchor="start" x="297.9" y="-489" font-family="Helvetica,sans-Serif" font-size="10.00">+</text>
<text text-anchor="start" x="310.9" y="-489" font-family="Helvetica,sans-Serif" font-size="10.00">UMat()</text>
<text text-anchor="start" x="297.9" y="-474" font-family="Helvetica,sans-Serif" font-size="10.00">+</text>
<text text-anchor="start" x="310.9" y="-474" font-family="Helvetica,sans-Serif" font-size="10.00">UMat()</text>
<text text-anchor="start" x="297.9" y="-459" font-family="Helvetica,sans-Serif" font-size="10.00">+</text>
<text text-anchor="start" x="310.9" y="-459" font-family="Helvetica,sans-Serif" font-size="10.00">UMat()</text>
<text text-anchor="start" x="297.9" y="-444" font-family="Helvetica,sans-Serif" font-size="10.00">+</text>
<text text-anchor="start" x="310.9" y="-444" font-family="Helvetica,sans-Serif" font-size="10.00">UMat()</text>
<text text-anchor="start" x="297.9" y="-429" font-family="Helvetica,sans-Serif" font-size="10.00">+</text>
<text text-anchor="start" x="310.9" y="-429" font-family="Helvetica,sans-Serif" font-size="10.00">UMat()</text>
<text text-anchor="start" x="297.9" y="-414" font-family="Helvetica,sans-Serif" font-size="10.00">+</text>
<text text-anchor="start" x="310.9" y="-414" font-family="Helvetica,sans-Serif" font-size="10.00">UMat()</text>
<text text-anchor="start" x="297.9" y="-399" font-family="Helvetica,sans-Serif" font-size="10.00">+</text>
<text text-anchor="start" x="310.9" y="-399" font-family="Helvetica,sans-Serif" font-size="10.00">UMat()</text>
<text text-anchor="start" x="297.9" y="-384" font-family="Helvetica,sans-Serif" font-size="10.00">+</text>
<text text-anchor="start" x="310.9" y="-384" font-family="Helvetica,sans-Serif" font-size="10.00">UMat()</text>
<text text-anchor="start" x="297.9" y="-369" font-family="Helvetica,sans-Serif" font-size="10.00">+</text>
<text text-anchor="start" x="310.9" y="-369" font-family="Helvetica,sans-Serif" font-size="10.00">UMat()</text>
<text text-anchor="start" x="310.9" y="-354" font-family="Helvetica,sans-Serif" font-size="10.00">and 56 more...</text>
<text text-anchor="start" x="297.9" y="-339" font-family="Helvetica,sans-Serif" font-size="10.00">+</text>
<text text-anchor="start" x="310.9" y="-339" font-family="Helvetica,sans-Serif" font-size="10.00">diag()</text>
<text text-anchor="start" x="297.9" y="-324" font-family="Helvetica,sans-Serif" font-size="10.00">+</text>
<text text-anchor="start" x="310.9" y="-324" font-family="Helvetica,sans-Serif" font-size="10.00">diag()</text>
<text text-anchor="start" x="297.9" y="-309" font-family="Helvetica,sans-Serif" font-size="10.00">+</text>
<text text-anchor="start" x="310.9" y="-309" font-family="Helvetica,sans-Serif" font-size="10.00">eye()</text>
<text text-anchor="start" x="297.9" y="-294" font-family="Helvetica,sans-Serif" font-size="10.00">+</text>
<text text-anchor="start" x="310.9" y="-294" font-family="Helvetica,sans-Serif" font-size="10.00">eye()</text>
<text text-anchor="start" x="297.9" y="-279" font-family="Helvetica,sans-Serif" font-size="10.00">+</text>
<text text-anchor="start" x="310.9" y="-279" font-family="Helvetica,sans-Serif" font-size="10.00">eye()</text>
<text text-anchor="start" x="297.9" y="-264" font-family="Helvetica,sans-Serif" font-size="10.00">+</text>
<text text-anchor="start" x="310.9" y="-264" font-family="Helvetica,sans-Serif" font-size="10.00">eye()</text>
<text text-anchor="start" x="297.9" y="-249" font-family="Helvetica,sans-Serif" font-size="10.00">+</text>
<text text-anchor="start" x="310.9" y="-249" font-family="Helvetica,sans-Serif" font-size="10.00">getStdAllocator()</text>
<text text-anchor="start" x="297.9" y="-234" font-family="Helvetica,sans-Serif" font-size="10.00">+</text>
<text text-anchor="start" x="310.9" y="-234" font-family="Helvetica,sans-Serif" font-size="10.00">ones()</text>
<text text-anchor="start" x="297.9" y="-219" font-family="Helvetica,sans-Serif" font-size="10.00">+</text>
<text text-anchor="start" x="310.9" y="-219" font-family="Helvetica,sans-Serif" font-size="10.00">ones()</text>
<text text-anchor="start" x="297.9" y="-204" font-family="Helvetica,sans-Serif" font-size="10.00">+</text>
<text text-anchor="start" x="310.9" y="-204" font-family="Helvetica,sans-Serif" font-size="10.00">ones()</text>
<text text-anchor="start" x="310.9" y="-189" font-family="Helvetica,sans-Serif" font-size="10.00">and 9 more...</text>
<polygon fill="#666666" stroke="#666666" points="293.9,-529 293.9,-529 397.9,-529 397.9,-529 293.9,-529"/>
<polygon fill="#666666" stroke="#666666" points="293.9,-514 293.9,-514 397.9,-514 397.9,-514 293.9,-514"/>
<polygon fill="none" stroke="#666666" points="293.9,-182 293.9,-546 397.9,-546 397.9,-182 293.9,-182"/>
</a>
</g>
</g>
<!-- Node2&#45;&gt;Node1 -->
<g id="edge1_Node000001_Node000002" class="edge">
<title>Node2&#45;&gt;Node1</title>
<g id="a_edge1_Node000001_Node000002"><a xlink:title=" ">
<path fill="none" stroke="#63b8ff" d="M388.74,-182C392.56,-165.85 396.26,-150.21 399.66,-135.86"/>
<polygon fill="none" stroke="#63b8ff" points="399.67,-135.81 397.16,-129.05 402.43,-124.13 404.94,-130.89 399.67,-135.81"/>
</a>
</g>
<text text-anchor="middle" x="428.4" y="-156" font-family="Helvetica,sans-Serif" font-size="10.00" fill="grey"> #dst_</text>
<text text-anchor="middle" x="428.4" y="-145" font-family="Helvetica,sans-Serif" font-size="10.00" fill="grey">#dst_mask_</text>
</g>
<!-- Node3 -->
<g id="Node000003" class="node">
<title>Node3</title>
<g id="a_Node000003"><a xlink:title=" ">
<polygon fill="white" stroke="transparent" points="119.4,-1059 96.4,-1059 96.4,-1010 119.4,-1010 119.4,-1059"/>
<text text-anchor="start" x="101.9" y="-1046.5" font-family="Helvetica,sans-Serif" font-size="10.00">int</text>
<text text-anchor="start" x="106.4" y="-1031.5" font-family="Helvetica,sans-Serif" font-size="10.00"> </text>
<text text-anchor="start" x="106.4" y="-1016.5" font-family="Helvetica,sans-Serif" font-size="10.00"> </text>
<polygon fill="#666666" stroke="#666666" points="96.9,-1041.5 96.9,-1041.5 119.9,-1041.5 119.9,-1041.5 96.9,-1041.5"/>
<polygon fill="#666666" stroke="#666666" points="96.9,-1026.5 96.9,-1026.5 119.9,-1026.5 119.9,-1026.5 96.9,-1026.5"/>
<polygon fill="none" stroke="#666666" points="96.4,-1010 96.4,-1059 119.4,-1059 119.4,-1010 96.4,-1010"/>
</a>
</g>
</g>
<!-- Node3&#45;&gt;Node2 -->
<g id="edge2_Node000002_Node000003" class="edge">
<title>Node3&#45;&gt;Node2</title>
<g id="a_edge2_Node000002_Node000003"><a xlink:title=" ">
<path fill="none" stroke="#63b8ff" d="M96.32,-1015.46C60.08,-956.56 -44.89,-765.57 21.9,-626 75.76,-513.44 204.47,-433.94 282.49,-394.14"/>
<polygon fill="none" stroke="#63b8ff" points="282.89,-393.94 286.46,-387.67 293.61,-388.56 290.05,-394.82 282.89,-393.94"/>
</a>
</g>
<text text-anchor="middle" x="38.4" y="-754.5" font-family="Helvetica,sans-Serif" font-size="10.00" fill="grey"> +cols</text>
<text text-anchor="middle" x="38.4" y="-743.5" font-family="Helvetica,sans-Serif" font-size="10.00" fill="grey">+dims</text>
<text text-anchor="middle" x="38.4" y="-732.5" font-family="Helvetica,sans-Serif" font-size="10.00" fill="grey">+flags</text>
<text text-anchor="middle" x="38.4" y="-721.5" font-family="Helvetica,sans-Serif" font-size="10.00" fill="grey">+rows</text>
</g>
<!-- Node6 -->
<g id="Node000006" class="node">
<title>Node6</title>
<g id="a_Node000006"><a xlink:href="../../db/d58/structcv_1_1UMatData.html" target="_top" xlink:title=" ">
<polygon fill="white" stroke="transparent" points="530.4,-855 373.4,-855 373.4,-626 530.4,-626 530.4,-855"/>
<text text-anchor="start" x="418.9" y="-842.5" font-family="Helvetica,sans-Serif" font-size="10.00">cv::UMatData</text>
<text text-anchor="start" x="450.4" y="-827.5" font-family="Helvetica,sans-Serif" font-size="10.00"> </text>
<text text-anchor="start" x="377.9" y="-812.5" font-family="Helvetica,sans-Serif" font-size="10.00">+</text>
<text text-anchor="start" x="390.9" y="-812.5" font-family="Helvetica,sans-Serif" font-size="10.00">UMatData()</text>
<text text-anchor="start" x="377.9" y="-797.5" font-family="Helvetica,sans-Serif" font-size="10.00">+</text>
<text text-anchor="start" x="390.9" y="-797.5" font-family="Helvetica,sans-Serif" font-size="10.00">~UMatData()</text>
<text text-anchor="start" x="377.9" y="-782.5" font-family="Helvetica,sans-Serif" font-size="10.00">+</text>
<text text-anchor="start" x="390.9" y="-782.5" font-family="Helvetica,sans-Serif" font-size="10.00">copyOnMap()</text>
<text text-anchor="start" x="377.9" y="-767.5" font-family="Helvetica,sans-Serif" font-size="10.00">+</text>
<text text-anchor="start" x="390.9" y="-767.5" font-family="Helvetica,sans-Serif" font-size="10.00">deviceCopyObsolete()</text>
<text text-anchor="start" x="377.9" y="-752.5" font-family="Helvetica,sans-Serif" font-size="10.00">+</text>
<text text-anchor="start" x="390.9" y="-752.5" font-family="Helvetica,sans-Serif" font-size="10.00">deviceMemMapped()</text>
<text text-anchor="start" x="377.9" y="-737.5" font-family="Helvetica,sans-Serif" font-size="10.00">+</text>
<text text-anchor="start" x="390.9" y="-737.5" font-family="Helvetica,sans-Serif" font-size="10.00">hostCopyObsolete()</text>
<text text-anchor="start" x="377.9" y="-722.5" font-family="Helvetica,sans-Serif" font-size="10.00">+</text>
<text text-anchor="start" x="390.9" y="-722.5" font-family="Helvetica,sans-Serif" font-size="10.00">lock()</text>
<text text-anchor="start" x="377.9" y="-707.5" font-family="Helvetica,sans-Serif" font-size="10.00">+</text>
<text text-anchor="start" x="390.9" y="-707.5" font-family="Helvetica,sans-Serif" font-size="10.00">markDeviceCopyObsolete()</text>
<text text-anchor="start" x="377.9" y="-692.5" font-family="Helvetica,sans-Serif" font-size="10.00">+</text>
<text text-anchor="start" x="390.9" y="-692.5" font-family="Helvetica,sans-Serif" font-size="10.00">markDeviceMemMapped()</text>
<text text-anchor="start" x="377.9" y="-677.5" font-family="Helvetica,sans-Serif" font-size="10.00">+</text>
<text text-anchor="start" x="390.9" y="-677.5" font-family="Helvetica,sans-Serif" font-size="10.00">markHostCopyObsolete()</text>
<text text-anchor="start" x="377.9" y="-662.5" font-family="Helvetica,sans-Serif" font-size="10.00">+</text>
<text text-anchor="start" x="390.9" y="-662.5" font-family="Helvetica,sans-Serif" font-size="10.00">tempCopiedUMat()</text>
<text text-anchor="start" x="377.9" y="-647.5" font-family="Helvetica,sans-Serif" font-size="10.00">+</text>
<text text-anchor="start" x="390.9" y="-647.5" font-family="Helvetica,sans-Serif" font-size="10.00">tempUMat()</text>
<text text-anchor="start" x="377.9" y="-632.5" font-family="Helvetica,sans-Serif" font-size="10.00">+</text>
<text text-anchor="start" x="390.9" y="-632.5" font-family="Helvetica,sans-Serif" font-size="10.00">unlock()</text>
<polygon fill="#666666" stroke="#666666" points="373.9,-837.5 373.9,-837.5 530.9,-837.5 530.9,-837.5 373.9,-837.5"/>
<polygon fill="#666666" stroke="#666666" points="373.9,-822.5 373.9,-822.5 530.9,-822.5 530.9,-822.5 373.9,-822.5"/>
<polygon fill="none" stroke="#666666" points="373.4,-626 373.4,-855 530.4,-855 530.4,-626 373.4,-626"/>
</a>
</g>
</g>
<!-- Node3&#45;&gt;Node6 -->
<g id="edge7_Node000006_Node000003" class="edge">
<title>Node3&#45;&gt;Node6</title>
<g id="a_edge7_Node000006_Node000003"><a xlink:title=" ">
<path fill="none" stroke="#63b8ff" d="M113.12,-1009.98C122.48,-973.85 145.82,-905.46 193.9,-873 255.04,-831.73 294.04,-890.14 358.9,-855 360.29,-854.25 361.66,-853.47 363.02,-852.66"/>
<polygon fill="none" stroke="#63b8ff" points="363.18,-852.55 365.98,-845.91 373.19,-845.94 370.39,-852.58 363.18,-852.55"/>
</a>
</g>
<text text-anchor="middle" x="236.9" y="-909" font-family="Helvetica,sans-Serif" font-size="10.00" fill="grey"> +allocatorFlags_</text>
<text text-anchor="middle" x="236.9" y="-898" font-family="Helvetica,sans-Serif" font-size="10.00" fill="grey">+mapcount</text>
<text text-anchor="middle" x="236.9" y="-887" font-family="Helvetica,sans-Serif" font-size="10.00" fill="grey">+refcount</text>
<text text-anchor="middle" x="236.9" y="-876" font-family="Helvetica,sans-Serif" font-size="10.00" fill="grey">+urefcount</text>
</g>
<!-- Node15 -->
<g id="Node000015" class="node">
<title>Node15</title>
<g id="a_Node000015"><a xlink:href="../../df/d63/structcv_1_1MatSize.html" target="_top" xlink:title=" ">
<polygon fill="white" stroke="transparent" points="151.4,-810 64.4,-810 64.4,-671 151.4,-671 151.4,-810"/>
<text text-anchor="start" x="80.4" y="-797.5" font-family="Helvetica,sans-Serif" font-size="10.00">cv::MatSize</text>
<text text-anchor="start" x="106.4" y="-782.5" font-family="Helvetica,sans-Serif" font-size="10.00"> </text>
<text text-anchor="start" x="68.9" y="-767.5" font-family="Helvetica,sans-Serif" font-size="10.00">+</text>
<text text-anchor="start" x="81.9" y="-767.5" font-family="Helvetica,sans-Serif" font-size="10.00">MatSize()</text>
<text text-anchor="start" x="68.9" y="-752.5" font-family="Helvetica,sans-Serif" font-size="10.00">+</text>
<text text-anchor="start" x="81.9" y="-752.5" font-family="Helvetica,sans-Serif" font-size="10.00">dims()</text>
<text text-anchor="start" x="68.9" y="-737.5" font-family="Helvetica,sans-Serif" font-size="10.00">+</text>
<text text-anchor="start" x="81.9" y="-737.5" font-family="Helvetica,sans-Serif" font-size="10.00">operator!=()</text>
<text text-anchor="start" x="68.9" y="-722.5" font-family="Helvetica,sans-Serif" font-size="10.00">+</text>
<text text-anchor="start" x="81.9" y="-722.5" font-family="Helvetica,sans-Serif" font-size="10.00">operator()()</text>
<text text-anchor="start" x="68.9" y="-707.5" font-family="Helvetica,sans-Serif" font-size="10.00">+</text>
<text text-anchor="start" x="81.9" y="-707.5" font-family="Helvetica,sans-Serif" font-size="10.00">operator==()</text>
<text text-anchor="start" x="68.9" y="-692.5" font-family="Helvetica,sans-Serif" font-size="10.00">+</text>
<text text-anchor="start" x="81.9" y="-692.5" font-family="Helvetica,sans-Serif" font-size="10.00">operator[]()</text>
<text text-anchor="start" x="68.9" y="-677.5" font-family="Helvetica,sans-Serif" font-size="10.00">+</text>
<text text-anchor="start" x="81.9" y="-677.5" font-family="Helvetica,sans-Serif" font-size="10.00">operator[]()</text>
<polygon fill="#666666" stroke="#666666" points="64.9,-792.5 64.9,-792.5 151.9,-792.5 151.9,-792.5 64.9,-792.5"/>
<polygon fill="#666666" stroke="#666666" points="64.9,-777.5 64.9,-777.5 151.9,-777.5 151.9,-777.5 64.9,-777.5"/>
<polygon fill="none" stroke="#666666" points="64.4,-671 64.4,-810 151.4,-810 151.4,-671 64.4,-671"/>
</a>
</g>
</g>
<!-- Node3&#45;&gt;Node15 -->
<g id="edge19_Node000015_Node000003" class="edge">
<title>Node3&#45;&gt;Node15</title>
<g id="a_edge19_Node000015_Node000003"><a xlink:title=" ">
<path fill="none" stroke="#63b8ff" d="M107.9,-1009.6C107.9,-969.19 107.9,-885.57 107.9,-822.4"/>
<polygon fill="none" stroke="#63b8ff" points="107.9,-822.06 103.9,-816.06 107.9,-810.06 111.9,-816.06 107.9,-822.06"/>
</a>
</g>
<text text-anchor="middle" x="116.9" y="-892.5" font-family="Helvetica,sans-Serif" font-size="10.00" fill="grey"> +p</text>
</g>
<!-- Node4 -->
<g id="Node000004" class="node">
<title>Node4</title>
<g id="a_Node000004"><a xlink:href="../../df/d4c/classcv_1_1MatAllocator.html" target="_top" xlink:title="Custom array allocator.">
<polygon fill="white" stroke="transparent" points="327.4,-1134 184.4,-1134 184.4,-935 327.4,-935 327.4,-1134"/>
<text text-anchor="start" x="216.9" y="-1121.5" font-family="Helvetica,sans-Serif" font-size="10.00">cv::MatAllocator</text>
<text text-anchor="start" x="254.4" y="-1106.5" font-family="Helvetica,sans-Serif" font-size="10.00"> </text>
<text text-anchor="start" x="188.9" y="-1091.5" font-family="Helvetica,sans-Serif" font-size="10.00">+</text>
<text text-anchor="start" x="201.9" y="-1091.5" font-family="Helvetica,sans-Serif" font-size="10.00">MatAllocator()</text>
<text text-anchor="start" x="188.9" y="-1076.5" font-family="Helvetica,sans-Serif" font-size="10.00">+</text>
<text text-anchor="start" x="201.9" y="-1076.5" font-family="Helvetica,sans-Serif" font-size="10.00">~MatAllocator()</text>
<text text-anchor="start" x="188.9" y="-1061.5" font-family="Helvetica,sans-Serif" font-size="10.00">+</text>
<text text-anchor="start" x="201.9" y="-1061.5" font-family="Helvetica,sans-Serif" font-size="10.00">allocate()</text>
<text text-anchor="start" x="188.9" y="-1046.5" font-family="Helvetica,sans-Serif" font-size="10.00">+</text>
<text text-anchor="start" x="201.9" y="-1046.5" font-family="Helvetica,sans-Serif" font-size="10.00">allocate()</text>
<text text-anchor="start" x="188.9" y="-1031.5" font-family="Helvetica,sans-Serif" font-size="10.00">+</text>
<text text-anchor="start" x="201.9" y="-1031.5" font-family="Helvetica,sans-Serif" font-size="10.00">copy()</text>
<text text-anchor="start" x="188.9" y="-1016.5" font-family="Helvetica,sans-Serif" font-size="10.00">+</text>
<text text-anchor="start" x="201.9" y="-1016.5" font-family="Helvetica,sans-Serif" font-size="10.00">deallocate()</text>
<text text-anchor="start" x="188.9" y="-1001.5" font-family="Helvetica,sans-Serif" font-size="10.00">+</text>
<text text-anchor="start" x="201.9" y="-1001.5" font-family="Helvetica,sans-Serif" font-size="10.00">download()</text>
<text text-anchor="start" x="188.9" y="-986.5" font-family="Helvetica,sans-Serif" font-size="10.00">+</text>
<text text-anchor="start" x="201.9" y="-986.5" font-family="Helvetica,sans-Serif" font-size="10.00">getBufferPoolController()</text>
<text text-anchor="start" x="188.9" y="-971.5" font-family="Helvetica,sans-Serif" font-size="10.00">+</text>
<text text-anchor="start" x="201.9" y="-971.5" font-family="Helvetica,sans-Serif" font-size="10.00">map()</text>
<text text-anchor="start" x="188.9" y="-956.5" font-family="Helvetica,sans-Serif" font-size="10.00">+</text>
<text text-anchor="start" x="201.9" y="-956.5" font-family="Helvetica,sans-Serif" font-size="10.00">unmap()</text>
<text text-anchor="start" x="188.9" y="-941.5" font-family="Helvetica,sans-Serif" font-size="10.00">+</text>
<text text-anchor="start" x="201.9" y="-941.5" font-family="Helvetica,sans-Serif" font-size="10.00">upload()</text>
<polygon fill="#666666" stroke="#666666" points="184.9,-1116.5 184.9,-1116.5 327.9,-1116.5 327.9,-1116.5 184.9,-1116.5"/>
<polygon fill="#666666" stroke="#666666" points="184.9,-1101.5 184.9,-1101.5 327.9,-1101.5 327.9,-1101.5 184.9,-1101.5"/>
<polygon fill="none" stroke="#666666" points="184.4,-935 184.4,-1134 327.4,-1134 327.4,-935 184.4,-935"/>
</a>
</g>
</g>
<!-- Node4&#45;&gt;Node2 -->
<g id="edge3_Node000002_Node000004" class="edge">
<title>Node4&#45;&gt;Node2</title>
<g id="a_edge3_Node000002_Node000004"><a xlink:title=" ">
<path fill="none" stroke="#63b8ff" d="M268.43,-934.65C278.98,-852.1 294.58,-731.33 308.9,-626 311.89,-603.99 315.08,-580.94 318.28,-558.04"/>
<polygon fill="none" stroke="#63b8ff" points="318.29,-557.97 315.16,-551.47 319.95,-546.09 323.08,-552.58 318.29,-557.97"/>
</a>
</g>
<text text-anchor="middle" x="336.4" y="-738" font-family="Helvetica,sans-Serif" font-size="10.00" fill="grey"> +allocator</text>
</g>
<!-- Node4&#45;&gt;Node6 -->
<g id="edge6_Node000006_Node000004" class="edge">
<title>Node4&#45;&gt;Node6</title>
<g id="a_edge6_Node000006_Node000004"><a xlink:title=" ">
<path fill="none" stroke="#63b8ff" d="M275.44,-934.67C283.68,-912.25 295.36,-890.05 311.9,-873 327.48,-856.95 340.76,-868.09 358.9,-855 360.57,-853.8 362.22,-852.55 363.87,-851.28"/>
<polygon fill="none" stroke="#63b8ff" points="363.87,-851.28 365.95,-844.37 373.12,-843.64 371.04,-850.54 363.87,-851.28"/>
</a>
</g>
<text text-anchor="middle" x="348.9" y="-898" font-family="Helvetica,sans-Serif" font-size="10.00" fill="grey"> +currAllocator</text>
<text text-anchor="middle" x="348.9" y="-887" font-family="Helvetica,sans-Serif" font-size="10.00" fill="grey">+prevAllocator</text>
</g>
<!-- Node5 -->
<g id="Node000005" class="node">
<title>Node5</title>
<g id="a_Node000005"><a xlink:title=" ">
<polygon fill="white" stroke="transparent" points="263.9,-765 169.9,-765 169.9,-716 263.9,-716 263.9,-765"/>
<text text-anchor="start" x="174.9" y="-752.5" font-family="Helvetica,sans-Serif" font-size="10.00">UMatUsageFlags</text>
<text text-anchor="start" x="214.9" y="-737.5" font-family="Helvetica,sans-Serif" font-size="10.00"> </text>
<text text-anchor="start" x="214.9" y="-722.5" font-family="Helvetica,sans-Serif" font-size="10.00"> </text>
<polygon fill="#666666" stroke="#666666" points="169.9,-747.5 169.9,-747.5 263.9,-747.5 263.9,-747.5 169.9,-747.5"/>
<polygon fill="#666666" stroke="#666666" points="169.9,-732.5 169.9,-732.5 263.9,-732.5 263.9,-732.5 169.9,-732.5"/>
<polygon fill="none" stroke="#666666" points="169.9,-716 169.9,-765 263.9,-765 263.9,-716 169.9,-716"/>
</a>
</g>
</g>
<!-- Node5&#45;&gt;Node2 -->
<g id="edge4_Node000002_Node000005" class="edge">
<title>Node5&#45;&gt;Node2</title>
<g id="a_edge4_Node000002_Node000005"><a xlink:title=" ">
<path fill="none" stroke="#63b8ff" d="M213.14,-715.89C208.58,-681.61 203.27,-616.42 218.9,-564 232.6,-518.05 260.3,-472.53 286.35,-436.65"/>
<polygon fill="none" stroke="#63b8ff" points="286.5,-436.44 286.86,-429.24 293.64,-426.79 293.29,-434 286.5,-436.44"/>
</a>
</g>
<text text-anchor="middle" x="252.4" y="-583.5" font-family="Helvetica,sans-Serif" font-size="10.00" fill="grey"> +usageFlags</text>
</g>
<!-- Node6&#45;&gt;Node2 -->
<g id="edge5_Node000002_Node000006" class="edge">
<title>Node6&#45;&gt;Node2</title>
<g id="a_edge5_Node000002_Node000006"><a xlink:title=" ">
<path fill="none" stroke="#63b8ff" d="M419.74,-625.87C413.64,-604.32 407.1,-581.23 400.53,-558.03"/>
<polygon fill="none" stroke="#63b8ff" points="400.47,-557.81 394.99,-553.12 397.2,-546.26 402.69,-550.94 400.47,-557.81"/>
</a>
</g>
<text text-anchor="middle" x="423.9" y="-583.5" font-family="Helvetica,sans-Serif" font-size="10.00" fill="grey"> +u</text>
</g>
<!-- Node6&#45;&gt;Node6 -->
<g id="edge12_Node000006_Node000006" class="edge">
<title>Node6&#45;&gt;Node6</title>
<g id="a_edge12_Node000006_Node000006"><a xlink:title=" ">
<path fill="none" stroke="#63b8ff" d="M530.66,-766.12C541.31,-761.82 548.4,-753.28 548.4,-740.5 548.4,-732.51 545.63,-726.18 540.95,-721.51"/>
<polygon fill="none" stroke="#63b8ff" points="540.75,-721.37 533.54,-721.49 530.66,-714.88 537.87,-714.76 540.75,-721.37"/>
</a>
</g>
<text text-anchor="middle" x="597.4" y="-738" font-family="Helvetica,sans-Serif" font-size="10.00" fill="grey"> +originalUMatData</text>
</g>
<!-- Node7 -->
<g id="Node000007" class="node">
<title>Node7</title>
<g id="a_Node000007"><a xlink:title=" ">
<polygon fill="white" stroke="transparent" points="397.9,-1059 351.9,-1059 351.9,-1010 397.9,-1010 397.9,-1059"/>
<text text-anchor="start" x="356.9" y="-1046.5" font-family="Helvetica,sans-Serif" font-size="10.00">uchar *</text>
<text text-anchor="start" x="372.9" y="-1031.5" font-family="Helvetica,sans-Serif" font-size="10.00"> </text>
<text text-anchor="start" x="372.9" y="-1016.5" font-family="Helvetica,sans-Serif" font-size="10.00"> </text>
<polygon fill="#666666" stroke="#666666" points="351.9,-1041.5 351.9,-1041.5 397.9,-1041.5 397.9,-1041.5 351.9,-1041.5"/>
<polygon fill="#666666" stroke="#666666" points="351.9,-1026.5 351.9,-1026.5 397.9,-1026.5 397.9,-1026.5 351.9,-1026.5"/>
<polygon fill="none" stroke="#666666" points="351.9,-1010 351.9,-1059 397.9,-1059 397.9,-1010 351.9,-1010"/>
</a>
</g>
</g>
<!-- Node7&#45;&gt;Node6 -->
<g id="edge8_Node000006_Node000007" class="edge">
<title>Node7&#45;&gt;Node6</title>
<g id="a_edge8_Node000006_Node000007"><a xlink:title=" ">
<path fill="none" stroke="#63b8ff" d="M376.7,-1009.75C379.49,-978.11 385.95,-920.57 398.9,-873 399.44,-871 400.01,-868.99 400.6,-866.97"/>
<polygon fill="none" stroke="#63b8ff" points="400.64,-866.82 398.57,-859.91 404.15,-855.34 406.22,-862.25 400.64,-866.82"/>
</a>
</g>
<text text-anchor="middle" x="423.4" y="-898" font-family="Helvetica,sans-Serif" font-size="10.00" fill="grey"> +data</text>
<text text-anchor="middle" x="423.4" y="-887" font-family="Helvetica,sans-Serif" font-size="10.00" fill="grey">+origdata</text>
</g>
<!-- Node8 -->
<g id="Node000008" class="node">
<title>Node8</title>
<g id="a_Node000008"><a xlink:title=" ">
<polygon fill="white" stroke="transparent" points="766.4,-1059 727.4,-1059 727.4,-1010 766.4,-1010 766.4,-1059"/>
<text text-anchor="start" x="732.9" y="-1046.5" font-family="Helvetica,sans-Serif" font-size="10.00">size_t</text>
<text text-anchor="start" x="745.4" y="-1031.5" font-family="Helvetica,sans-Serif" font-size="10.00"> </text>
<text text-anchor="start" x="745.4" y="-1016.5" font-family="Helvetica,sans-Serif" font-size="10.00"> </text>
<polygon fill="#666666" stroke="#666666" points="727.9,-1041.5 727.9,-1041.5 766.9,-1041.5 766.9,-1041.5 727.9,-1041.5"/>
<polygon fill="#666666" stroke="#666666" points="727.9,-1026.5 727.9,-1026.5 766.9,-1026.5 766.9,-1026.5 727.9,-1026.5"/>
<polygon fill="none" stroke="#666666" points="727.4,-1010 727.4,-1059 766.4,-1059 766.4,-1010 727.4,-1010"/>
</a>
</g>
</g>
<!-- Node8&#45;&gt;Node2 -->
<g id="edge17_Node000002_Node000008" class="edge">
<title>Node8&#45;&gt;Node2</title>
<g id="a_edge17_Node000002_Node000008"><a xlink:title=" ">
<path fill="none" stroke="#63b8ff" d="M747.58,-1009.88C747.87,-978.14 746.25,-920.24 732.9,-873 730.47,-864.39 727.2,-863.31 723.9,-855 684.65,-756.21 713.25,-714.85 654.9,-626 590.47,-527.88 478.42,-446.61 408.42,-402.02"/>
<polygon fill="none" stroke="#63b8ff" points="408.14,-401.85 400.93,-402.03 397.99,-395.45 405.2,-395.26 408.14,-401.85"/>
</a>
</g>
<text text-anchor="middle" x="743.9" y="-738" font-family="Helvetica,sans-Serif" font-size="10.00" fill="grey"> +offset</text>
</g>
<!-- Node8&#45;&gt;Node6 -->
<g id="edge9_Node000006_Node000008" class="edge">
<title>Node8&#45;&gt;Node6</title>
<g id="a_edge9_Node000006_Node000008"><a xlink:title=" ">
<path fill="none" stroke="#63b8ff" d="M738.45,-1009.75C724.16,-970.51 694.91,-894.32 675.9,-873 639.23,-831.88 586.54,-800.06 541.48,-778.02"/>
<polygon fill="none" stroke="#63b8ff" points="541.33,-777.95 534.19,-778.97 530.5,-772.77 537.64,-771.75 541.33,-777.95"/>
</a>
</g>
<text text-anchor="middle" x="716.4" y="-892.5" font-family="Helvetica,sans-Serif" font-size="10.00" fill="grey"> +size</text>
</g>
<!-- Node16 -->
<g id="Node000016" class="node">
<title>Node16</title>
<g id="a_Node000016"><a xlink:href="../../d4/d26/structcv_1_1MatStep.html" target="_top" xlink:title=" ">
<polygon fill="white" stroke="transparent" points="874.9,-810 772.9,-810 772.9,-671 874.9,-671 874.9,-810"/>
<text text-anchor="start" x="794.9" y="-797.5" font-family="Helvetica,sans-Serif" font-size="10.00">cv::MatStep</text>
<text text-anchor="start" x="821.9" y="-782.5" font-family="Helvetica,sans-Serif" font-size="10.00"> </text>
<text text-anchor="start" x="776.9" y="-767.5" font-family="Helvetica,sans-Serif" font-size="10.00">+</text>
<text text-anchor="start" x="789.9" y="-767.5" font-family="Helvetica,sans-Serif" font-size="10.00">MatStep()</text>
<text text-anchor="start" x="776.9" y="-752.5" font-family="Helvetica,sans-Serif" font-size="10.00">+</text>
<text text-anchor="start" x="789.9" y="-752.5" font-family="Helvetica,sans-Serif" font-size="10.00">MatStep()</text>
<text text-anchor="start" x="776.9" y="-737.5" font-family="Helvetica,sans-Serif" font-size="10.00">+</text>
<text text-anchor="start" x="789.9" y="-737.5" font-family="Helvetica,sans-Serif" font-size="10.00">operator size_t()</text>
<text text-anchor="start" x="776.9" y="-722.5" font-family="Helvetica,sans-Serif" font-size="10.00">+</text>
<text text-anchor="start" x="789.9" y="-722.5" font-family="Helvetica,sans-Serif" font-size="10.00">operator=()</text>
<text text-anchor="start" x="776.9" y="-707.5" font-family="Helvetica,sans-Serif" font-size="10.00">+</text>
<text text-anchor="start" x="789.9" y="-707.5" font-family="Helvetica,sans-Serif" font-size="10.00">operator[]()</text>
<text text-anchor="start" x="776.9" y="-692.5" font-family="Helvetica,sans-Serif" font-size="10.00">+</text>
<text text-anchor="start" x="789.9" y="-692.5" font-family="Helvetica,sans-Serif" font-size="10.00">operator[]()</text>
<text text-anchor="start" x="776.9" y="-677.5" font-family="Helvetica,sans-Serif" font-size="10.00">#</text>
<text text-anchor="start" x="789.9" y="-677.5" font-family="Helvetica,sans-Serif" font-size="10.00">operator=()</text>
<polygon fill="#666666" stroke="#666666" points="772.9,-792.5 772.9,-792.5 874.9,-792.5 874.9,-792.5 772.9,-792.5"/>
<polygon fill="#666666" stroke="#666666" points="772.9,-777.5 772.9,-777.5 874.9,-777.5 874.9,-777.5 772.9,-777.5"/>
<polygon fill="none" stroke="#666666" points="772.9,-671 772.9,-810 874.9,-810 874.9,-671 772.9,-671"/>
</a>
</g>
</g>
<!-- Node8&#45;&gt;Node16 -->
<g id="edge21_Node000016_Node000008" class="edge">
<title>Node8&#45;&gt;Node16</title>
<g id="a_edge21_Node000016_Node000008"><a xlink:title=" ">
<path fill="none" stroke="#63b8ff" d="M753.2,-1009.6C763.88,-969.1 786,-885.23 802.67,-822.01"/>
<polygon fill="none" stroke="#63b8ff" points="802.76,-821.66 800.42,-814.84 805.82,-810.06 808.16,-816.88 802.76,-821.66"/>
</a>
</g>
<text text-anchor="middle" x="800.9" y="-898" font-family="Helvetica,sans-Serif" font-size="10.00" fill="grey"> +buf</text>
<text text-anchor="middle" x="800.9" y="-887" font-family="Helvetica,sans-Serif" font-size="10.00" fill="grey">+p</text>
</g>
<!-- Node9 -->
<g id="Node000009" class="node">
<title>Node9</title>
<g id="a_Node000009"><a xlink:title=" ">
<polygon fill="white" stroke="transparent" points="487.9,-1059 415.9,-1059 415.9,-1010 487.9,-1010 487.9,-1059"/>
<text text-anchor="start" x="420.9" y="-1046.5" font-family="Helvetica,sans-Serif" font-size="10.00">MemoryFlag</text>
<text text-anchor="start" x="449.9" y="-1031.5" font-family="Helvetica,sans-Serif" font-size="10.00"> </text>
<text text-anchor="start" x="449.9" y="-1016.5" font-family="Helvetica,sans-Serif" font-size="10.00"> </text>
<polygon fill="#666666" stroke="#666666" points="415.9,-1041.5 415.9,-1041.5 487.9,-1041.5 487.9,-1041.5 415.9,-1041.5"/>
<polygon fill="#666666" stroke="#666666" points="415.9,-1026.5 415.9,-1026.5 487.9,-1026.5 487.9,-1026.5 415.9,-1026.5"/>
<polygon fill="none" stroke="#666666" points="415.9,-1010 415.9,-1059 487.9,-1059 487.9,-1010 415.9,-1010"/>
</a>
</g>
</g>
<!-- Node9&#45;&gt;Node6 -->
<g id="edge10_Node000006_Node000009" class="edge">
<title>Node9&#45;&gt;Node6</title>
<g id="a_edge10_Node000006_Node000009"><a xlink:title=" ">
<path fill="none" stroke="#63b8ff" d="M451.9,-1009.6C451.9,-978.26 451.9,-920.94 451.9,-867.33"/>
<polygon fill="none" stroke="#63b8ff" points="451.9,-867.24 447.9,-861.24 451.9,-855.24 455.9,-861.24 451.9,-867.24"/>
</a>
</g>
<text text-anchor="middle" x="469.4" y="-892.5" font-family="Helvetica,sans-Serif" font-size="10.00" fill="grey"> +flags</text>
</g>
<!-- Node10 -->
<g id="Node000010" class="node">
<title>Node10</title>
<g id="a_Node000010"><a xlink:title=" ">
<polygon fill="white" stroke="transparent" points="545.9,-1059 505.9,-1059 505.9,-1010 545.9,-1010 545.9,-1059"/>
<text text-anchor="start" x="510.9" y="-1046.5" font-family="Helvetica,sans-Serif" font-size="10.00">void *</text>
<text text-anchor="start" x="523.9" y="-1031.5" font-family="Helvetica,sans-Serif" font-size="10.00"> </text>
<text text-anchor="start" x="523.9" y="-1016.5" font-family="Helvetica,sans-Serif" font-size="10.00"> </text>
<polygon fill="#666666" stroke="#666666" points="505.9,-1041.5 505.9,-1041.5 545.9,-1041.5 545.9,-1041.5 505.9,-1041.5"/>
<polygon fill="#666666" stroke="#666666" points="505.9,-1026.5 505.9,-1026.5 545.9,-1026.5 545.9,-1026.5 505.9,-1026.5"/>
<polygon fill="none" stroke="#666666" points="505.9,-1010 505.9,-1059 545.9,-1059 545.9,-1010 505.9,-1010"/>
</a>
</g>
</g>
<!-- Node10&#45;&gt;Node6 -->
<g id="edge11_Node000006_Node000010" class="edge">
<title>Node10&#45;&gt;Node6</title>
<g id="a_edge11_Node000006_Node000010"><a xlink:title=" ">
<path fill="none" stroke="#63b8ff" d="M520.55,-1009.78C513.42,-978.4 500.25,-921.42 487.9,-873 487.39,-870.99 486.87,-868.96 486.34,-866.92"/>
<polygon fill="none" stroke="#63b8ff" points="486.29,-866.73 480.91,-861.94 483.27,-855.12 488.65,-859.92 486.29,-866.73"/>
</a>
</g>
<text text-anchor="middle" x="524.9" y="-898" font-family="Helvetica,sans-Serif" font-size="10.00" fill="grey"> +handle</text>
<text text-anchor="middle" x="524.9" y="-887" font-family="Helvetica,sans-Serif" font-size="10.00" fill="grey">+userdata</text>
</g>
<!-- Node11 -->
<g id="Node000011" class="node">
<title>Node11</title>
<g id="a_Node000011"><a xlink:title=" ">
<polygon fill="white" stroke="transparent" points="691.4,-1059 564.4,-1059 564.4,-1010 691.4,-1010 691.4,-1059"/>
<text text-anchor="start" x="569.9" y="-1046.5" font-family="Helvetica,sans-Serif" font-size="10.00">std::shared_ptr&lt; void &gt;</text>
<text text-anchor="start" x="626.4" y="-1031.5" font-family="Helvetica,sans-Serif" font-size="10.00"> </text>
<text text-anchor="start" x="626.4" y="-1016.5" font-family="Helvetica,sans-Serif" font-size="10.00"> </text>
<polygon fill="#666666" stroke="#666666" points="564.9,-1041.5 564.9,-1041.5 691.9,-1041.5 691.9,-1041.5 564.9,-1041.5"/>
<polygon fill="#666666" stroke="#666666" points="564.9,-1026.5 564.9,-1026.5 691.9,-1026.5 691.9,-1026.5 564.9,-1026.5"/>
<polygon fill="none" stroke="#666666" points="564.4,-1010 564.4,-1059 691.4,-1059 691.4,-1010 564.4,-1010"/>
</a>
</g>
</g>
<!-- Node11&#45;&gt;Node6 -->
<g id="edge13_Node000006_Node000011" class="edge">
<title>Node11&#45;&gt;Node6</title>
<g id="a_edge13_Node000006_Node000011"><a xlink:title=" ">
<path fill="none" stroke="#63b8ff" d="M619.16,-1009.77C606.88,-977.64 582.86,-919.05 554.9,-873 549.54,-864.17 543.68,-855.26 537.56,-846.45"/>
<polygon fill="none" stroke="#63b8ff" points="537.5,-846.36 530.76,-843.77 530.56,-836.57 537.29,-839.15 537.5,-846.36"/>
</a>
</g>
<text text-anchor="middle" x="625.4" y="-892.5" font-family="Helvetica,sans-Serif" font-size="10.00" fill="grey"> +allocatorContext</text>
</g>
<!-- Node12 -->
<g id="Node000012" class="node">
<title>Node12</title>
<g id="a_Node000012"><a xlink:title=" ">
<polygon fill="white" stroke="transparent" points="608.9,-1230 576.9,-1230 576.9,-1181 608.9,-1181 608.9,-1230"/>
<text text-anchor="start" x="581.9" y="-1217.5" font-family="Helvetica,sans-Serif" font-size="10.00">void</text>
<text text-anchor="start" x="590.9" y="-1202.5" font-family="Helvetica,sans-Serif" font-size="10.00"> </text>
<text text-anchor="start" x="590.9" y="-1187.5" font-family="Helvetica,sans-Serif" font-size="10.00"> </text>
<polygon fill="#666666" stroke="#666666" points="576.9,-1212.5 576.9,-1212.5 608.9,-1212.5 608.9,-1212.5 576.9,-1212.5"/>
<polygon fill="#666666" stroke="#666666" points="576.9,-1197.5 576.9,-1197.5 608.9,-1197.5 608.9,-1197.5 576.9,-1197.5"/>
<polygon fill="none" stroke="#666666" points="576.9,-1181 576.9,-1230 608.9,-1230 608.9,-1181 576.9,-1181"/>
</a>
</g>
</g>
<!-- Node12&#45;&gt;Node11 -->
<g id="edge14_Node000011_Node000012" class="edge">
<title>Node12&#45;&gt;Node11</title>
<g id="a_edge14_Node000011_Node000012"><a xlink:title=" ">
<path fill="none" stroke="#63b8ff" d="M597.84,-1180.64C603.76,-1152.08 613.72,-1103.99 620.54,-1071.05"/>
<polygon fill="none" stroke="#63b8ff" points="620.55,-1070.98 617.85,-1064.3 622.98,-1059.23 625.68,-1065.92 620.55,-1070.98"/>
</a>
</g>
<text text-anchor="middle" x="616.4" y="-1155" font-family="Helvetica,sans-Serif" font-size="10.00" fill="grey"> +ptr</text>
</g>
<!-- Node13 -->
<g id="Node000013" class="node">
<title>Node13</title>
<g id="a_Node000013"><a xlink:title=" ">
<polygon fill="white" stroke="transparent" points="738.9,-1230 626.9,-1230 626.9,-1181 738.9,-1181 738.9,-1230"/>
<text text-anchor="start" x="631.9" y="-1217.5" font-family="Helvetica,sans-Serif" font-size="10.00">std::shared_ptr&lt; T &gt;</text>
<text text-anchor="start" x="680.9" y="-1202.5" font-family="Helvetica,sans-Serif" font-size="10.00"> </text>
<text text-anchor="start" x="638.4" y="-1187.5" font-family="Helvetica,sans-Serif" font-size="10.00">+</text>
<text text-anchor="start" x="658.9" y="-1187.5" font-family="Helvetica,sans-Serif" font-size="10.00">operator&#45;&gt;()</text>
<polygon fill="#666666" stroke="#666666" points="626.9,-1212.5 626.9,-1212.5 738.9,-1212.5 738.9,-1212.5 626.9,-1212.5"/>
<polygon fill="#666666" stroke="#666666" points="626.9,-1197.5 626.9,-1197.5 738.9,-1197.5 738.9,-1197.5 626.9,-1197.5"/>
<polygon fill="none" stroke="#666666" points="626.9,-1181 626.9,-1230 738.9,-1230 738.9,-1181 626.9,-1181"/>
</a>
</g>
</g>
<!-- Node13&#45;&gt;Node11 -->
<g id="edge15_Node000011_Node000013" class="edge">
<title>Node13&#45;&gt;Node11</title>
<g id="a_edge15_Node000011_Node000013"><a xlink:title=" ">
<path fill="none" stroke="orange" d="M671.99,-1170.97C661.24,-1137.96 645.11,-1088.37 635.62,-1059.23"/>
<polygon fill="orange" stroke="orange" points="668.71,-1172.22 675.14,-1180.64 675.37,-1170.05 668.71,-1172.22"/>
</a>
</g>
<text text-anchor="middle" x="692.4" y="-1155" font-family="Helvetica,sans-Serif" font-size="10.00" fill="grey"> &lt; void &gt;</text>
</g>
<!-- Node14 -->
<g id="Node000014" class="node">
<title>Node14</title>
<g id="a_Node000014"><a xlink:title=" ">
<polygon fill="white" stroke="transparent" points="691.4,-1326 674.4,-1326 674.4,-1277 691.4,-1277 691.4,-1326"/>
<text text-anchor="start" x="679.9" y="-1313.5" font-family="Helvetica,sans-Serif" font-size="10.00">T</text>
<text text-anchor="start" x="681.4" y="-1298.5" font-family="Helvetica,sans-Serif" font-size="10.00"> </text>
<text text-anchor="start" x="681.4" y="-1283.5" font-family="Helvetica,sans-Serif" font-size="10.00"> </text>
<polygon fill="#666666" stroke="#666666" points="674.9,-1308.5 674.9,-1308.5 691.9,-1308.5 691.9,-1308.5 674.9,-1308.5"/>
<polygon fill="#666666" stroke="#666666" points="674.9,-1293.5 674.9,-1293.5 691.9,-1293.5 691.9,-1293.5 674.9,-1293.5"/>
<polygon fill="none" stroke="#666666" points="674.4,-1277 674.4,-1326 691.4,-1326 691.4,-1277 674.4,-1277"/>
</a>
</g>
</g>
<!-- Node14&#45;&gt;Node13 -->
<g id="edge16_Node000013_Node000014" class="edge">
<title>Node14&#45;&gt;Node13</title>
<g id="a_edge16_Node000013_Node000014"><a xlink:title=" ">
<path fill="none" stroke="#63b8ff" d="M682.9,-1276.78C682.9,-1266.32 682.9,-1253.79 682.9,-1242.23"/>
<polygon fill="none" stroke="#63b8ff" points="682.9,-1242.21 678.9,-1236.21 682.9,-1230.21 686.9,-1236.21 682.9,-1242.21"/>
</a>
</g>
<text text-anchor="middle" x="695.4" y="-1251" font-family="Helvetica,sans-Serif" font-size="10.00" fill="grey"> +ptr</text>
</g>
<!-- Node15&#45;&gt;Node2 -->
<g id="edge18_Node000002_Node000015" class="edge">
<title>Node15&#45;&gt;Node2</title>
<g id="a_edge18_Node000002_Node000015"><a xlink:title=" ">
<path fill="none" stroke="#63b8ff" d="M128.5,-670.77C140,-637.32 156.05,-597.24 175.9,-564 206.31,-513.07 249.91,-462.34 285.34,-424.85"/>
<polygon fill="none" stroke="#63b8ff" points="285.41,-424.78 286.65,-417.67 293.69,-416.09 292.44,-423.2 285.41,-424.78"/>
</a>
</g>
<text text-anchor="middle" x="191.4" y="-583.5" font-family="Helvetica,sans-Serif" font-size="10.00" fill="grey"> +size</text>
</g>
<!-- Node16&#45;&gt;Node2 -->
<g id="edge20_Node000002_Node000016" class="edge">
<title>Node16&#45;&gt;Node2</title>
<g id="a_edge20_Node000002_Node000016"><a xlink:title=" ">
<path fill="none" stroke="#63b8ff" d="M803.54,-670.98C788.84,-633.51 765.09,-589.63 728.9,-564 687.4,-534.6 663.24,-564.59 615.9,-546 538.02,-515.41 459.78,-459.54 407.72,-417.93"/>
<polygon fill="none" stroke="#63b8ff" points="407.65,-417.87 400.47,-417.22 398.31,-410.34 405.49,-410.99 407.65,-417.87"/>
</a>
</g>
<text text-anchor="middle" x="785.4" y="-583.5" font-family="Helvetica,sans-Serif" font-size="10.00" fill="grey"> +step</text>
</g>
<!-- Node17 -->
<g id="Node000017" class="node">
<title>Node17</title>
<g id="a_Node000017"><a xlink:href="../../d2/d44/classcv_1_1Rect__.html" target="_top" xlink:title="Template class for 2D rectangles.">
<polygon fill="white" stroke="transparent" points="770.9,-493.5 624.9,-493.5 624.9,-234.5 770.9,-234.5 770.9,-493.5"/>
<text text-anchor="start" x="655.9" y="-481" font-family="Helvetica,sans-Serif" font-size="10.00">cv::Rect_&lt; _Tp &gt;</text>
<text text-anchor="start" x="695.9" y="-466" font-family="Helvetica,sans-Serif" font-size="10.00"> </text>
<text text-anchor="start" x="628.9" y="-451" font-family="Helvetica,sans-Serif" font-size="10.00">+</text>
<text text-anchor="start" x="641.9" y="-451" font-family="Helvetica,sans-Serif" font-size="10.00">Rect_()</text>
<text text-anchor="start" x="628.9" y="-436" font-family="Helvetica,sans-Serif" font-size="10.00">+</text>
<text text-anchor="start" x="641.9" y="-436" font-family="Helvetica,sans-Serif" font-size="10.00">Rect_()</text>
<text text-anchor="start" x="628.9" y="-421" font-family="Helvetica,sans-Serif" font-size="10.00">+</text>
<text text-anchor="start" x="641.9" y="-421" font-family="Helvetica,sans-Serif" font-size="10.00">Rect_()</text>
<text text-anchor="start" x="628.9" y="-406" font-family="Helvetica,sans-Serif" font-size="10.00">+</text>
<text text-anchor="start" x="641.9" y="-406" font-family="Helvetica,sans-Serif" font-size="10.00">Rect_()</text>
<text text-anchor="start" x="628.9" y="-391" font-family="Helvetica,sans-Serif" font-size="10.00">+</text>
<text text-anchor="start" x="641.9" y="-391" font-family="Helvetica,sans-Serif" font-size="10.00">Rect_()</text>
<text text-anchor="start" x="628.9" y="-376" font-family="Helvetica,sans-Serif" font-size="10.00">+</text>
<text text-anchor="start" x="641.9" y="-376" font-family="Helvetica,sans-Serif" font-size="10.00">Rect_()</text>
<text text-anchor="start" x="628.9" y="-361" font-family="Helvetica,sans-Serif" font-size="10.00">+</text>
<text text-anchor="start" x="641.9" y="-361" font-family="Helvetica,sans-Serif" font-size="10.00">area()</text>
<text text-anchor="start" x="628.9" y="-346" font-family="Helvetica,sans-Serif" font-size="10.00">+</text>
<text text-anchor="start" x="641.9" y="-346" font-family="Helvetica,sans-Serif" font-size="10.00">br()</text>
<text text-anchor="start" x="628.9" y="-331" font-family="Helvetica,sans-Serif" font-size="10.00">+</text>
<text text-anchor="start" x="641.9" y="-331" font-family="Helvetica,sans-Serif" font-size="10.00">contains()</text>
<text text-anchor="start" x="628.9" y="-316" font-family="Helvetica,sans-Serif" font-size="10.00">+</text>
<text text-anchor="start" x="641.9" y="-316" font-family="Helvetica,sans-Serif" font-size="10.00">empty()</text>
<text text-anchor="start" x="628.9" y="-301" font-family="Helvetica,sans-Serif" font-size="10.00">+</text>
<text text-anchor="start" x="641.9" y="-301" font-family="Helvetica,sans-Serif" font-size="10.00">operator Rect_&lt; _Tp2 &gt;()</text>
<text text-anchor="start" x="628.9" y="-286" font-family="Helvetica,sans-Serif" font-size="10.00">+</text>
<text text-anchor="start" x="641.9" y="-286" font-family="Helvetica,sans-Serif" font-size="10.00">operator=()</text>
<text text-anchor="start" x="628.9" y="-271" font-family="Helvetica,sans-Serif" font-size="10.00">+</text>
<text text-anchor="start" x="641.9" y="-271" font-family="Helvetica,sans-Serif" font-size="10.00">operator=()</text>
<text text-anchor="start" x="628.9" y="-256" font-family="Helvetica,sans-Serif" font-size="10.00">+</text>
<text text-anchor="start" x="641.9" y="-256" font-family="Helvetica,sans-Serif" font-size="10.00">size()</text>
<text text-anchor="start" x="628.9" y="-241" font-family="Helvetica,sans-Serif" font-size="10.00">+</text>
<text text-anchor="start" x="641.9" y="-241" font-family="Helvetica,sans-Serif" font-size="10.00">tl()</text>
<polygon fill="#666666" stroke="#666666" points="624.9,-476 624.9,-476 770.9,-476 770.9,-476 624.9,-476"/>
<polygon fill="#666666" stroke="#666666" points="624.9,-461 624.9,-461 770.9,-461 770.9,-461 624.9,-461"/>
<polygon fill="none" stroke="#666666" points="624.9,-234.5 624.9,-493.5 770.9,-493.5 770.9,-234.5 624.9,-234.5"/>
</a>
</g>
</g>
<!-- Node17&#45;&gt;Node1 -->
<g id="edge22_Node000001_Node000017" class="edge">
<title>Node17&#45;&gt;Node1</title>
<g id="a_edge22_Node000001_Node000017"><a xlink:title=" ">
<path fill="none" stroke="#63b8ff" d="M624.8,-284.96C578,-234.99 518.12,-171.07 474.65,-124.66"/>
<polygon fill="none" stroke="#63b8ff" points="474.39,-124.38 467.37,-122.74 466.19,-115.62 473.21,-117.27 474.39,-124.38"/>
</a>
</g>
<text text-anchor="middle" x="532.9" y="-150.5" font-family="Helvetica,sans-Serif" font-size="10.00" fill="grey"> #dst_roi_</text>
</g>
<!-- Node18 -->
<g id="Node000018" class="node">
<title>Node18</title>
<g id="a_Node000018"><a xlink:href="../../d1/dd7/class__Tp.html" target="_top" xlink:title=" ">
<polygon fill="white" stroke="transparent" points="920.9,-765 892.9,-765 892.9,-716 920.9,-716 920.9,-765"/>
<text text-anchor="start" x="897.9" y="-752.5" font-family="Helvetica,sans-Serif" font-size="10.00">_Tp</text>
<text text-anchor="start" x="904.9" y="-737.5" font-family="Helvetica,sans-Serif" font-size="10.00"> </text>
<text text-anchor="start" x="904.9" y="-722.5" font-family="Helvetica,sans-Serif" font-size="10.00"> </text>
<polygon fill="#666666" stroke="#666666" points="892.9,-747.5 892.9,-747.5 920.9,-747.5 920.9,-747.5 892.9,-747.5"/>
<polygon fill="#666666" stroke="#666666" points="892.9,-732.5 892.9,-732.5 920.9,-732.5 920.9,-732.5 892.9,-732.5"/>
<polygon fill="none" stroke="#666666" points="892.9,-716 892.9,-765 920.9,-765 920.9,-716 892.9,-716"/>
</a>
</g>
</g>
<!-- Node18&#45;&gt;Node17 -->
<g id="edge23_Node000017_Node000018" class="edge">
<title>Node18&#45;&gt;Node17</title>
<g id="a_edge23_Node000017_Node000018"><a xlink:title=" ">
<path fill="none" stroke="#63b8ff" d="M904.98,-715.59C902.42,-692.01 896.63,-655.32 883.9,-626 857.68,-565.6 815.95,-505.26 778.66,-457.84"/>
<polygon fill="none" stroke="#63b8ff" points="778.48,-457.62 771.62,-455.41 771.02,-448.23 777.88,-450.44 778.48,-457.62"/>
</a>
</g>
<text text-anchor="middle" x="894.4" y="-600" font-family="Helvetica,sans-Serif" font-size="10.00" fill="grey"> +height</text>
<text text-anchor="middle" x="894.4" y="-589" font-family="Helvetica,sans-Serif" font-size="10.00" fill="grey">+width</text>
<text text-anchor="middle" x="894.4" y="-578" font-family="Helvetica,sans-Serif" font-size="10.00" fill="grey">+x</text>
<text text-anchor="middle" x="894.4" y="-567" font-family="Helvetica,sans-Serif" font-size="10.00" fill="grey">+y</text>
</g>
</g>
</svg>
