<?xml version="1.0" encoding="UTF-8" standalone="no"?>
<!DOCTYPE svg PUBLIC "-//W3C//DTD SVG 1.1//EN"
 "http://www.w3.org/Graphics/SVG/1.1/DTD/svg11.dtd">
<!-- Generated by graphviz version 2.43.0 (0)
 -->
<!-- Title: cv::face::FacemarkLBF::Params Pages: 1 -->
<svg width="901pt" height="651pt"
 viewBox="0.00 0.00 901.00 651.00" xmlns="http://www.w3.org/2000/svg" xmlns:xlink="http://www.w3.org/1999/xlink">
<g id="graph0" class="graph" transform="scale(1 1) rotate(0) translate(4 647)">
<title>cv::face::FacemarkLBF::Params</title>
<!-- Node1 -->
<g id="Node000001" class="node">
<title>Node1</title>
<g id="a_Node000001"><a xlink:title=" ">
<polygon fill="#999999" stroke="transparent" points="466.5,-90 347.5,-90 347.5,0 466.5,0 466.5,-90"/>
<text text-anchor="start" x="353" y="-78" font-family="Helvetica,sans-Serif" font-size="10.00">cv::face::FacemarkLBF</text>
<text text-anchor="start" x="386" y="-67" font-family="Helvetica,sans-Serif" font-size="10.00">::Params</text>
<text text-anchor="start" x="405.5" y="-52" font-family="Helvetica,sans-Serif" font-size="10.00"> </text>
<text text-anchor="start" x="365.5" y="-37" font-family="Helvetica,sans-Serif" font-size="10.00">+</text>
<text text-anchor="start" x="392" y="-37" font-family="Helvetica,sans-Serif" font-size="10.00">Params()</text>
<text text-anchor="start" x="365.5" y="-22" font-family="Helvetica,sans-Serif" font-size="10.00">+</text>
<text text-anchor="start" x="392" y="-22" font-family="Helvetica,sans-Serif" font-size="10.00">read()</text>
<text text-anchor="start" x="365.5" y="-7" font-family="Helvetica,sans-Serif" font-size="10.00">+</text>
<text text-anchor="start" x="392" y="-7" font-family="Helvetica,sans-Serif" font-size="10.00">write()</text>
<polygon fill="#666666" stroke="#666666" points="348,-62 348,-62 467,-62 467,-62 348,-62"/>
<polygon fill="#666666" stroke="#666666" points="348,-47 348,-47 467,-47 467,-47 348,-47"/>
<polygon fill="none" stroke="#666666" points="347.5,0 347.5,-90 466.5,-90 466.5,0 347.5,0"/>
</a>
</g>
</g>
<!-- Node2 -->
<g id="Node000002" class="node">
<title>Node2</title>
<g id="a_Node000002"><a xlink:title=" ">
<polygon fill="white" stroke="transparent" points="209,-541.5 165,-541.5 165,-492.5 209,-492.5 209,-541.5"/>
<text text-anchor="start" x="170" y="-529" font-family="Helvetica,sans-Serif" font-size="10.00">double</text>
<text text-anchor="start" x="185" y="-514" font-family="Helvetica,sans-Serif" font-size="10.00"> </text>
<text text-anchor="start" x="185" y="-499" font-family="Helvetica,sans-Serif" font-size="10.00"> </text>
<polygon fill="#666666" stroke="#666666" points="165,-524 165,-524 209,-524 209,-524 165,-524"/>
<polygon fill="#666666" stroke="#666666" points="165,-509 165,-509 209,-509 209,-509 165,-509"/>
<polygon fill="none" stroke="#666666" points="165,-492.5 165,-541.5 209,-541.5 209,-492.5 165,-492.5"/>
</a>
</g>
</g>
<!-- Node2&#45;&gt;Node1 -->
<g id="edge1_Node000001_Node000002" class="edge">
<title>Node2&#45;&gt;Node1</title>
<g id="a_edge1_Node000001_Node000002"><a xlink:title=" ">
<path fill="none" stroke="#63b8ff" d="M176.3,-492.43C149.79,-430.16 88.26,-258.46 161,-148 199.22,-89.96 277.36,-64.91 335.37,-54.12"/>
<polygon fill="none" stroke="#63b8ff" points="335.6,-54.08 340.83,-49.12 347.42,-52.03 342.2,-57 335.6,-54.08"/>
</a>
</g>
<text text-anchor="middle" x="207.5" y="-280.5" font-family="Helvetica,sans-Serif" font-size="10.00" fill="grey"> +bagging_overlap</text>
<text text-anchor="middle" x="207.5" y="-269.5" font-family="Helvetica,sans-Serif" font-size="10.00" fill="grey">+shape_offset</text>
</g>
<!-- Node11 -->
<g id="Node000011" class="node">
<title>Node11</title>
<g id="a_Node000011"><a xlink:title=" ">
<polygon fill="white" stroke="transparent" points="613,-302 495,-302 495,-253 613,-253 613,-302"/>
<text text-anchor="start" x="500" y="-289.5" font-family="Helvetica,sans-Serif" font-size="10.00">std::vector&lt; double &gt;</text>
<text text-anchor="start" x="552" y="-274.5" font-family="Helvetica,sans-Serif" font-size="10.00"> </text>
<text text-anchor="start" x="552" y="-259.5" font-family="Helvetica,sans-Serif" font-size="10.00"> </text>
<polygon fill="#666666" stroke="#666666" points="495,-284.5 495,-284.5 613,-284.5 613,-284.5 495,-284.5"/>
<polygon fill="#666666" stroke="#666666" points="495,-269.5 495,-269.5 613,-269.5 613,-269.5 495,-269.5"/>
<polygon fill="none" stroke="#666666" points="495,-253 495,-302 613,-302 613,-253 495,-253"/>
</a>
</g>
</g>
<!-- Node2&#45;&gt;Node11 -->
<g id="edge12_Node000011_Node000002" class="edge">
<title>Node2&#45;&gt;Node11</title>
<g id="a_edge12_Node000011_Node000002"><a xlink:title=" ">
<path fill="none" stroke="#63b8ff" d="M209.04,-503.35C244.38,-483.62 316.43,-445.63 382,-425 426.33,-411.05 447.33,-434.21 485,-407 516.21,-384.46 534.69,-343.36 544.55,-313.7"/>
<polygon fill="none" stroke="#63b8ff" points="544.57,-313.63 542.54,-306.71 548.14,-302.18 550.18,-309.09 544.57,-313.63"/>
</a>
</g>
<text text-anchor="middle" x="411" y="-444.5" font-family="Helvetica,sans-Serif" font-size="10.00" fill="grey"> +elements</text>
</g>
<!-- Node3 -->
<g id="Node000003" class="node">
<title>Node3</title>
<g id="a_Node000003"><a xlink:title=" ">
<polygon fill="white" stroke="transparent" points="78.5,-302 19.5,-302 19.5,-253 78.5,-253 78.5,-302"/>
<text text-anchor="start" x="25" y="-289.5" font-family="Helvetica,sans-Serif" font-size="10.00">std::string</text>
<text text-anchor="start" x="47.5" y="-274.5" font-family="Helvetica,sans-Serif" font-size="10.00"> </text>
<text text-anchor="start" x="47.5" y="-259.5" font-family="Helvetica,sans-Serif" font-size="10.00"> </text>
<polygon fill="#666666" stroke="#666666" points="20,-284.5 20,-284.5 79,-284.5 79,-284.5 20,-284.5"/>
<polygon fill="#666666" stroke="#666666" points="20,-269.5 20,-269.5 79,-269.5 79,-269.5 20,-269.5"/>
<polygon fill="none" stroke="#666666" points="19.5,-253 19.5,-302 78.5,-302 78.5,-253 19.5,-253"/>
</a>
</g>
</g>
<!-- Node3&#45;&gt;Node1 -->
<g id="edge2_Node000001_Node000003" class="edge">
<title>Node3&#45;&gt;Node1</title>
<g id="a_edge2_Node000001_Node000003"><a xlink:title=" ">
<path fill="none" stroke="#63b8ff" d="M40.67,-252.88C29.69,-217.03 15.51,-148.75 50,-108 85.83,-65.67 241.68,-52.24 335.21,-47.98"/>
<polygon fill="none" stroke="#63b8ff" points="335.42,-47.97 341.25,-43.72 347.41,-47.46 341.59,-51.71 335.42,-47.97"/>
</a>
</g>
<text text-anchor="middle" x="94" y="-122" font-family="Helvetica,sans-Serif" font-size="10.00" fill="grey"> +cascade_face</text>
<text text-anchor="middle" x="94" y="-111" font-family="Helvetica,sans-Serif" font-size="10.00" fill="grey">+model_filename</text>
</g>
<!-- Node4 -->
<g id="Node000004" class="node">
<title>Node4</title>
<g id="a_Node000004"><a xlink:title=" ">
<polygon fill="white" stroke="transparent" points="98,-547 0,-547 0,-487 98,-487 98,-547"/>
<text text-anchor="start" x="5" y="-535" font-family="Helvetica,sans-Serif" font-size="10.00">std::basic_string&lt;</text>
<text text-anchor="start" x="30.5" y="-524" font-family="Helvetica,sans-Serif" font-size="10.00"> Char &gt;</text>
<text text-anchor="start" x="47" y="-509" font-family="Helvetica,sans-Serif" font-size="10.00"> </text>
<text text-anchor="start" x="47" y="-494" font-family="Helvetica,sans-Serif" font-size="10.00"> </text>
<polygon fill="#666666" stroke="#666666" points="0,-519 0,-519 98,-519 98,-519 0,-519"/>
<polygon fill="#666666" stroke="#666666" points="0,-504 0,-504 98,-504 98,-504 0,-504"/>
<polygon fill="none" stroke="#666666" points="0,-487 0,-547 98,-547 98,-487 0,-487"/>
</a>
</g>
</g>
<!-- Node4&#45;&gt;Node3 -->
<g id="edge3_Node000003_Node000004" class="edge">
<title>Node4&#45;&gt;Node3</title>
<g id="a_edge3_Node000003_Node000004"><a xlink:title=" ">
<path fill="none" stroke="#63b8ff" d="M49,-476.82C49,-427.12 49,-342.98 49,-302.14"/>
<polygon fill="none" stroke="#63b8ff" points="45.5,-476.88 49,-486.88 52.5,-476.88 45.5,-476.88"/>
</a>
</g>
</g>
<!-- Node5 -->
<g id="Node000005" class="node">
<title>Node5</title>
<g id="a_Node000005"><a xlink:title=" ">
<polygon fill="white" stroke="transparent" points="295,-302 263,-302 263,-253 295,-253 295,-302"/>
<text text-anchor="start" x="268" y="-289.5" font-family="Helvetica,sans-Serif" font-size="10.00">bool</text>
<text text-anchor="start" x="277" y="-274.5" font-family="Helvetica,sans-Serif" font-size="10.00"> </text>
<text text-anchor="start" x="277" y="-259.5" font-family="Helvetica,sans-Serif" font-size="10.00"> </text>
<polygon fill="#666666" stroke="#666666" points="263,-284.5 263,-284.5 295,-284.5 295,-284.5 263,-284.5"/>
<polygon fill="#666666" stroke="#666666" points="263,-269.5 263,-269.5 295,-269.5 295,-269.5 263,-269.5"/>
<polygon fill="none" stroke="#666666" points="263,-253 263,-302 295,-302 295,-253 263,-253"/>
</a>
</g>
</g>
<!-- Node5&#45;&gt;Node1 -->
<g id="edge4_Node000001_Node000005" class="edge">
<title>Node5&#45;&gt;Node1</title>
<g id="a_edge4_Node000001_Node000005"><a xlink:title=" ">
<path fill="none" stroke="#63b8ff" d="M273.15,-252.68C263.73,-211.98 247.73,-131.2 263,-108 279.37,-83.13 308.03,-68.2 335.5,-59.25"/>
<polygon fill="none" stroke="#63b8ff" points="335.67,-59.2 340.27,-53.65 347.16,-55.76 342.56,-61.31 335.67,-59.2"/>
</a>
</g>
<text text-anchor="middle" x="298.5" y="-122" font-family="Helvetica,sans-Serif" font-size="10.00" fill="grey"> +save_model</text>
<text text-anchor="middle" x="298.5" y="-111" font-family="Helvetica,sans-Serif" font-size="10.00" fill="grey">+verbose</text>
</g>
<!-- Node6 -->
<g id="Node000006" class="node">
<title>Node6</title>
<g id="a_Node000006"><a xlink:title=" ">
<polygon fill="white" stroke="transparent" points="413.5,-541.5 390.5,-541.5 390.5,-492.5 413.5,-492.5 413.5,-541.5"/>
<text text-anchor="start" x="396" y="-529" font-family="Helvetica,sans-Serif" font-size="10.00">int</text>
<text text-anchor="start" x="400.5" y="-514" font-family="Helvetica,sans-Serif" font-size="10.00"> </text>
<text text-anchor="start" x="400.5" y="-499" font-family="Helvetica,sans-Serif" font-size="10.00"> </text>
<polygon fill="#666666" stroke="#666666" points="391,-524 391,-524 414,-524 414,-524 391,-524"/>
<polygon fill="#666666" stroke="#666666" points="391,-509 391,-509 414,-509 414,-509 391,-509"/>
<polygon fill="none" stroke="#666666" points="390.5,-492.5 390.5,-541.5 413.5,-541.5 413.5,-492.5 390.5,-492.5"/>
</a>
</g>
</g>
<!-- Node6&#45;&gt;Node1 -->
<g id="edge5_Node000001_Node000006" class="edge">
<title>Node6&#45;&gt;Node1</title>
<g id="a_edge5_Node000001_Node000006"><a xlink:title=" ">
<path fill="none" stroke="#63b8ff" d="M390.49,-501.57C375.43,-481.67 349.8,-444.04 340,-407 310.56,-295.72 307.02,-258.29 340,-148 344.96,-131.42 353.57,-115.04 363.01,-100.41"/>
<polygon fill="none" stroke="#63b8ff" points="363.26,-100.04 363.3,-92.83 369.98,-90.1 369.93,-97.31 363.26,-100.04"/>
</a>
</g>
<text text-anchor="middle" x="376" y="-297" font-family="Helvetica,sans-Serif" font-size="10.00" fill="grey"> +initShape_n</text>
<text text-anchor="middle" x="376" y="-286" font-family="Helvetica,sans-Serif" font-size="10.00" fill="grey">+n_landmarks</text>
<text text-anchor="middle" x="376" y="-275" font-family="Helvetica,sans-Serif" font-size="10.00" fill="grey">+stages_n</text>
<text text-anchor="middle" x="376" y="-264" font-family="Helvetica,sans-Serif" font-size="10.00" fill="grey">+tree_depth</text>
<text text-anchor="middle" x="376" y="-253" font-family="Helvetica,sans-Serif" font-size="10.00" fill="grey">+tree_n</text>
</g>
<!-- Node8 -->
<g id="Node000008" class="node">
<title>Node8</title>
<g id="a_Node000008"><a xlink:title=" ">
<polygon fill="white" stroke="transparent" points="729,-302 631,-302 631,-253 729,-253 729,-302"/>
<text text-anchor="start" x="636" y="-289.5" font-family="Helvetica,sans-Serif" font-size="10.00">std::vector&lt; int &gt;</text>
<text text-anchor="start" x="678" y="-274.5" font-family="Helvetica,sans-Serif" font-size="10.00"> </text>
<text text-anchor="start" x="678" y="-259.5" font-family="Helvetica,sans-Serif" font-size="10.00"> </text>
<polygon fill="#666666" stroke="#666666" points="631,-284.5 631,-284.5 729,-284.5 729,-284.5 631,-284.5"/>
<polygon fill="#666666" stroke="#666666" points="631,-269.5 631,-269.5 729,-269.5 729,-269.5 631,-269.5"/>
<polygon fill="none" stroke="#666666" points="631,-253 631,-302 729,-302 729,-253 631,-253"/>
</a>
</g>
</g>
<!-- Node6&#45;&gt;Node8 -->
<g id="edge8_Node000008_Node000006" class="edge">
<title>Node6&#45;&gt;Node8</title>
<g id="a_edge8_Node000008_Node000006"><a xlink:title=" ">
<path fill="none" stroke="#63b8ff" d="M413.55,-501.16C430.65,-480.36 464.81,-443.06 503,-425 551.36,-402.13 579.37,-439.31 622,-407 651.53,-384.62 666.42,-343.78 673.65,-314.13"/>
<polygon fill="none" stroke="#63b8ff" points="673.7,-313.91 671.1,-307.19 676.31,-302.2 678.91,-308.92 673.7,-313.91"/>
</a>
</g>
<text text-anchor="middle" x="532" y="-444.5" font-family="Helvetica,sans-Serif" font-size="10.00" fill="grey"> +elements</text>
</g>
<!-- Node7 -->
<g id="Node000007" class="node">
<title>Node7</title>
<g id="a_Node000007"><a xlink:title=" ">
<polygon fill="white" stroke="transparent" points="476.5,-302 421.5,-302 421.5,-253 476.5,-253 476.5,-302"/>
<text text-anchor="start" x="427" y="-289.5" font-family="Helvetica,sans-Serif" font-size="10.00">unsigned</text>
<text text-anchor="start" x="447.5" y="-274.5" font-family="Helvetica,sans-Serif" font-size="10.00"> </text>
<text text-anchor="start" x="447.5" y="-259.5" font-family="Helvetica,sans-Serif" font-size="10.00"> </text>
<polygon fill="#666666" stroke="#666666" points="422,-284.5 422,-284.5 477,-284.5 477,-284.5 422,-284.5"/>
<polygon fill="#666666" stroke="#666666" points="422,-269.5 422,-269.5 477,-269.5 477,-269.5 422,-269.5"/>
<polygon fill="none" stroke="#666666" points="421.5,-253 421.5,-302 476.5,-302 476.5,-253 421.5,-253"/>
</a>
</g>
</g>
<!-- Node7&#45;&gt;Node1 -->
<g id="edge6_Node000001_Node000007" class="edge">
<title>Node7&#45;&gt;Node1</title>
<g id="a_edge6_Node000001_Node000007"><a xlink:title=" ">
<path fill="none" stroke="#63b8ff" d="M444.66,-252.7C438.23,-217.39 425.97,-150.11 417.19,-101.9"/>
<polygon fill="none" stroke="#63b8ff" points="417.18,-101.89 412.17,-96.7 415.03,-90.08 420.04,-95.27 417.18,-101.89"/>
</a>
</g>
<text text-anchor="middle" x="439.5" y="-116.5" font-family="Helvetica,sans-Serif" font-size="10.00" fill="grey"> +seed</text>
</g>
<!-- Node8&#45;&gt;Node1 -->
<g id="edge7_Node000001_Node000008" class="edge">
<title>Node8&#45;&gt;Node1</title>
<g id="a_edge7_Node000001_Node000008"><a xlink:title=" ">
<path fill="none" stroke="#63b8ff" d="M674.63,-252.79C667.16,-224.62 651.14,-177.7 622,-148 582.52,-107.77 524.05,-81.44 478.05,-65.64"/>
<polygon fill="none" stroke="#63b8ff" points="478.03,-65.63 471.08,-67.53 466.64,-61.84 473.6,-59.94 478.03,-65.63"/>
</a>
</g>
<text text-anchor="middle" x="624" y="-122" font-family="Helvetica,sans-Serif" font-size="10.00" fill="grey"> +feats_m</text>
<text text-anchor="middle" x="624" y="-111" font-family="Helvetica,sans-Serif" font-size="10.00" fill="grey">+pupils</text>
</g>
<!-- Node9 -->
<g id="Node000009" class="node">
<title>Node9</title>
<g id="a_Node000009"><a xlink:title=" ">
<polygon fill="white" stroke="transparent" points="656.5,-541.5 565.5,-541.5 565.5,-492.5 656.5,-492.5 656.5,-541.5"/>
<text text-anchor="start" x="571" y="-529" font-family="Helvetica,sans-Serif" font-size="10.00">std::vector&lt; T &gt;</text>
<text text-anchor="start" x="609.5" y="-514" font-family="Helvetica,sans-Serif" font-size="10.00"> </text>
<text text-anchor="start" x="609.5" y="-499" font-family="Helvetica,sans-Serif" font-size="10.00"> </text>
<polygon fill="#666666" stroke="#666666" points="566,-524 566,-524 657,-524 657,-524 566,-524"/>
<polygon fill="#666666" stroke="#666666" points="566,-509 566,-509 657,-509 657,-509 566,-509"/>
<polygon fill="none" stroke="#666666" points="565.5,-492.5 565.5,-541.5 656.5,-541.5 656.5,-492.5 565.5,-492.5"/>
</a>
</g>
</g>
<!-- Node9&#45;&gt;Node8 -->
<g id="edge9_Node000008_Node000009" class="edge">
<title>Node9&#45;&gt;Node8</title>
<g id="a_edge9_Node000008_Node000009"><a xlink:title=" ">
<path fill="none" stroke="orange" d="M629.94,-482.98C632.17,-478.37 634.27,-473.63 636,-469 657.7,-410.98 670.82,-338.87 676.57,-302.24"/>
<polygon fill="orange" stroke="orange" points="626.67,-481.67 625.23,-492.17 632.9,-484.87 626.67,-481.67"/>
</a>
</g>
<text text-anchor="middle" x="669.5" y="-444.5" font-family="Helvetica,sans-Serif" font-size="10.00" fill="grey"> &lt; int &gt;</text>
</g>
<!-- Node9&#45;&gt;Node11 -->
<g id="edge13_Node000011_Node000009" class="edge">
<title>Node9&#45;&gt;Node11</title>
<g id="a_edge13_Node000011_Node000009"><a xlink:title=" ">
<path fill="none" stroke="orange" d="M584.34,-483.43C581.49,-478.79 578.92,-473.91 577,-469 554.77,-412.23 552.57,-339.28 553.12,-302.29"/>
<polygon fill="orange" stroke="orange" points="581.63,-485.67 590.11,-492.02 587.44,-481.76 581.63,-485.67"/>
</a>
</g>
<text text-anchor="middle" x="606.5" y="-444.5" font-family="Helvetica,sans-Serif" font-size="10.00" fill="grey"> &lt; double &gt;</text>
</g>
<!-- Node10 -->
<g id="Node000010" class="node">
<title>Node10</title>
<g id="a_Node000010"><a xlink:title=" ">
<polygon fill="white" stroke="transparent" points="619.5,-643 602.5,-643 602.5,-594 619.5,-594 619.5,-643"/>
<text text-anchor="start" x="608" y="-630.5" font-family="Helvetica,sans-Serif" font-size="10.00">T</text>
<text text-anchor="start" x="609.5" y="-615.5" font-family="Helvetica,sans-Serif" font-size="10.00"> </text>
<text text-anchor="start" x="609.5" y="-600.5" font-family="Helvetica,sans-Serif" font-size="10.00"> </text>
<polygon fill="#666666" stroke="#666666" points="603,-625.5 603,-625.5 620,-625.5 620,-625.5 603,-625.5"/>
<polygon fill="#666666" stroke="#666666" points="603,-610.5 603,-610.5 620,-610.5 620,-610.5 603,-610.5"/>
<polygon fill="none" stroke="#666666" points="602.5,-594 602.5,-643 619.5,-643 619.5,-594 602.5,-594"/>
</a>
</g>
</g>
<!-- Node10&#45;&gt;Node9 -->
<g id="edge10_Node000009_Node000010" class="edge">
<title>Node10&#45;&gt;Node9</title>
<g id="a_edge10_Node000009_Node000010"><a xlink:title=" ">
<path fill="none" stroke="#63b8ff" d="M611,-593.92C611,-581.99 611,-567.25 611,-553.94"/>
<polygon fill="none" stroke="#63b8ff" points="611,-553.76 607,-547.76 611,-541.76 615,-547.76 611,-553.76"/>
</a>
</g>
<text text-anchor="middle" x="640" y="-568" font-family="Helvetica,sans-Serif" font-size="10.00" fill="grey"> +elements</text>
</g>
<!-- Node11&#45;&gt;Node1 -->
<g id="edge11_Node000001_Node000011" class="edge">
<title>Node11&#45;&gt;Node1</title>
<g id="a_edge11_Node000001_Node000011"><a xlink:title=" ">
<path fill="none" stroke="#63b8ff" d="M543.23,-252.79C527.45,-219.13 496.07,-156.25 461,-108 458.99,-105.24 456.89,-102.45 454.73,-99.67"/>
<polygon fill="none" stroke="#63b8ff" points="454.7,-99.63 447.82,-97.45 447.19,-90.27 454.06,-92.45 454.7,-99.63"/>
</a>
</g>
<text text-anchor="middle" x="504.5" y="-116.5" font-family="Helvetica,sans-Serif" font-size="10.00" fill="grey"> +radius_m</text>
</g>
<!-- Node12 -->
<g id="Node000012" class="node">
<title>Node12</title>
<g id="a_Node000012"><a xlink:href="../../d2/d44/classcv_1_1Rect__.html" target="_top" xlink:title="Template class for 2D rectangles.">
<polygon fill="white" stroke="transparent" points="893,-407 747,-407 747,-148 893,-148 893,-407"/>
<text text-anchor="start" x="778" y="-394.5" font-family="Helvetica,sans-Serif" font-size="10.00">cv::Rect_&lt; _Tp &gt;</text>
<text text-anchor="start" x="818" y="-379.5" font-family="Helvetica,sans-Serif" font-size="10.00"> </text>
<text text-anchor="start" x="751" y="-364.5" font-family="Helvetica,sans-Serif" font-size="10.00">+</text>
<text text-anchor="start" x="764" y="-364.5" font-family="Helvetica,sans-Serif" font-size="10.00">Rect_()</text>
<text text-anchor="start" x="751" y="-349.5" font-family="Helvetica,sans-Serif" font-size="10.00">+</text>
<text text-anchor="start" x="764" y="-349.5" font-family="Helvetica,sans-Serif" font-size="10.00">Rect_()</text>
<text text-anchor="start" x="751" y="-334.5" font-family="Helvetica,sans-Serif" font-size="10.00">+</text>
<text text-anchor="start" x="764" y="-334.5" font-family="Helvetica,sans-Serif" font-size="10.00">Rect_()</text>
<text text-anchor="start" x="751" y="-319.5" font-family="Helvetica,sans-Serif" font-size="10.00">+</text>
<text text-anchor="start" x="764" y="-319.5" font-family="Helvetica,sans-Serif" font-size="10.00">Rect_()</text>
<text text-anchor="start" x="751" y="-304.5" font-family="Helvetica,sans-Serif" font-size="10.00">+</text>
<text text-anchor="start" x="764" y="-304.5" font-family="Helvetica,sans-Serif" font-size="10.00">Rect_()</text>
<text text-anchor="start" x="751" y="-289.5" font-family="Helvetica,sans-Serif" font-size="10.00">+</text>
<text text-anchor="start" x="764" y="-289.5" font-family="Helvetica,sans-Serif" font-size="10.00">Rect_()</text>
<text text-anchor="start" x="751" y="-274.5" font-family="Helvetica,sans-Serif" font-size="10.00">+</text>
<text text-anchor="start" x="764" y="-274.5" font-family="Helvetica,sans-Serif" font-size="10.00">area()</text>
<text text-anchor="start" x="751" y="-259.5" font-family="Helvetica,sans-Serif" font-size="10.00">+</text>
<text text-anchor="start" x="764" y="-259.5" font-family="Helvetica,sans-Serif" font-size="10.00">br()</text>
<text text-anchor="start" x="751" y="-244.5" font-family="Helvetica,sans-Serif" font-size="10.00">+</text>
<text text-anchor="start" x="764" y="-244.5" font-family="Helvetica,sans-Serif" font-size="10.00">contains()</text>
<text text-anchor="start" x="751" y="-229.5" font-family="Helvetica,sans-Serif" font-size="10.00">+</text>
<text text-anchor="start" x="764" y="-229.5" font-family="Helvetica,sans-Serif" font-size="10.00">empty()</text>
<text text-anchor="start" x="751" y="-214.5" font-family="Helvetica,sans-Serif" font-size="10.00">+</text>
<text text-anchor="start" x="764" y="-214.5" font-family="Helvetica,sans-Serif" font-size="10.00">operator Rect_&lt; _Tp2 &gt;()</text>
<text text-anchor="start" x="751" y="-199.5" font-family="Helvetica,sans-Serif" font-size="10.00">+</text>
<text text-anchor="start" x="764" y="-199.5" font-family="Helvetica,sans-Serif" font-size="10.00">operator=()</text>
<text text-anchor="start" x="751" y="-184.5" font-family="Helvetica,sans-Serif" font-size="10.00">+</text>
<text text-anchor="start" x="764" y="-184.5" font-family="Helvetica,sans-Serif" font-size="10.00">operator=()</text>
<text text-anchor="start" x="751" y="-169.5" font-family="Helvetica,sans-Serif" font-size="10.00">+</text>
<text text-anchor="start" x="764" y="-169.5" font-family="Helvetica,sans-Serif" font-size="10.00">size()</text>
<text text-anchor="start" x="751" y="-154.5" font-family="Helvetica,sans-Serif" font-size="10.00">+</text>
<text text-anchor="start" x="764" y="-154.5" font-family="Helvetica,sans-Serif" font-size="10.00">tl()</text>
<polygon fill="#666666" stroke="#666666" points="747,-389.5 747,-389.5 893,-389.5 893,-389.5 747,-389.5"/>
<polygon fill="#666666" stroke="#666666" points="747,-374.5 747,-374.5 893,-374.5 893,-374.5 747,-374.5"/>
<polygon fill="none" stroke="#666666" points="747,-148 747,-407 893,-407 893,-148 747,-148"/>
</a>
</g>
</g>
<!-- Node12&#45;&gt;Node1 -->
<g id="edge14_Node000001_Node000012" class="edge">
<title>Node12&#45;&gt;Node1</title>
<g id="a_edge14_Node000001_Node000012"><a xlink:title=" ">
<path fill="none" stroke="#63b8ff" d="M746.72,-156.26C743.88,-153.39 740.97,-150.63 738,-148 665.15,-83.64 552.33,-59.89 479.06,-51.13"/>
<polygon fill="none" stroke="#63b8ff" points="478.68,-51.08 472.27,-54.39 466.75,-49.75 473.16,-46.44 478.68,-51.08"/>
</a>
</g>
<text text-anchor="middle" x="739" y="-116.5" font-family="Helvetica,sans-Serif" font-size="10.00" fill="grey"> +detectROI</text>
</g>
<!-- Node13 -->
<g id="Node000013" class="node">
<title>Node13</title>
<g id="a_Node000013"><a xlink:href="../../d1/dd7/class__Tp.html" target="_top" xlink:title=" ">
<polygon fill="white" stroke="transparent" points="834,-541.5 806,-541.5 806,-492.5 834,-492.5 834,-541.5"/>
<text text-anchor="start" x="811" y="-529" font-family="Helvetica,sans-Serif" font-size="10.00">_Tp</text>
<text text-anchor="start" x="818" y="-514" font-family="Helvetica,sans-Serif" font-size="10.00"> </text>
<text text-anchor="start" x="818" y="-499" font-family="Helvetica,sans-Serif" font-size="10.00"> </text>
<polygon fill="#666666" stroke="#666666" points="806,-524 806,-524 834,-524 834,-524 806,-524"/>
<polygon fill="#666666" stroke="#666666" points="806,-509 806,-509 834,-509 834,-509 806,-509"/>
<polygon fill="none" stroke="#666666" points="806,-492.5 806,-541.5 834,-541.5 834,-492.5 806,-492.5"/>
</a>
</g>
</g>
<!-- Node13&#45;&gt;Node12 -->
<g id="edge15_Node000012_Node000013" class="edge">
<title>Node13&#45;&gt;Node12</title>
<g id="a_edge15_Node000012_Node000013"><a xlink:title=" ">
<path fill="none" stroke="#63b8ff" d="M820,-492.36C820,-474.29 820,-447.74 820,-419.45"/>
<polygon fill="none" stroke="#63b8ff" points="820,-419.24 816,-413.24 820,-407.24 824,-413.24 820,-419.24"/>
</a>
</g>
<text text-anchor="middle" x="841.5" y="-461" font-family="Helvetica,sans-Serif" font-size="10.00" fill="grey"> +height</text>
<text text-anchor="middle" x="841.5" y="-450" font-family="Helvetica,sans-Serif" font-size="10.00" fill="grey">+width</text>
<text text-anchor="middle" x="841.5" y="-439" font-family="Helvetica,sans-Serif" font-size="10.00" fill="grey">+x</text>
<text text-anchor="middle" x="841.5" y="-428" font-family="Helvetica,sans-Serif" font-size="10.00" fill="grey">+y</text>
</g>
</g>
</svg>
