<?xml version="1.0" encoding="UTF-8" standalone="no"?>
<!DOCTYPE svg PUBLIC "-//W3C//DTD SVG 1.1//EN"
 "http://www.w3.org/Graphics/SVG/1.1/DTD/svg11.dtd">
<!-- Generated by graphviz version 2.43.0 (0)
 -->
<!-- Title: opencv2/gapi/streaming/onevpl/accel_types.hpp Pages: 1 -->
<svg width="420pt" height="181pt"
 viewBox="0.00 0.00 419.50 181.00" xmlns="http://www.w3.org/2000/svg" xmlns:xlink="http://www.w3.org/1999/xlink">
<g id="graph0" class="graph" transform="scale(1 1) rotate(0) translate(4 177)">
<title>opencv2/gapi/streaming/onevpl/accel_types.hpp</title>
<!-- Node1 -->
<g id="Node000001" class="node">
<title>Node1</title>
<g id="a_Node000001"><a xlink:title=" ">
<polygon fill="#999999" stroke="#666666" points="189.5,-173 55.5,-173 55.5,-143 189.5,-143 189.5,-173"/>
<text text-anchor="start" x="63.5" y="-161" font-family="Helvetica,sans-Serif" font-size="10.00">opencv2/gapi/streaming</text>
<text text-anchor="middle" x="122.5" y="-150" font-family="Helvetica,sans-Serif" font-size="10.00">/onevpl/accel_types.hpp</text>
</a>
</g>
</g>
<!-- Node2 -->
<g id="Node000002" class="node">
<title>Node2</title>
<g id="a_Node000002"><a xlink:href="../../df/d70/ie_8hpp.html" target="_top" xlink:title=" ">
<polygon fill="white" stroke="#666666" points="107,-101.5 0,-101.5 0,-71.5 107,-71.5 107,-101.5"/>
<text text-anchor="start" x="8" y="-89.5" font-family="Helvetica,sans-Serif" font-size="10.00">opencv2/gapi/infer</text>
<text text-anchor="middle" x="53.5" y="-78.5" font-family="Helvetica,sans-Serif" font-size="10.00">/ie.hpp</text>
</a>
</g>
</g>
<!-- Node1&#45;&gt;Node2 -->
<g id="edge1_Node000001_Node000002" class="edge">
<title>Node1&#45;&gt;Node2</title>
<g id="a_edge1_Node000001_Node000002"><a xlink:title=" ">
<path fill="none" stroke="#63b8ff" d="M101.32,-135.67C90.31,-124.58 77.16,-111.34 67.44,-101.54"/>
<polygon fill="#63b8ff" stroke="#63b8ff" points="99.01,-138.3 108.54,-142.94 103.98,-133.37 99.01,-138.3"/>
</a>
</g>
</g>
<!-- Node4 -->
<g id="Node000004" class="node">
<title>Node4</title>
<g id="a_Node000004"><a xlink:href="../../d1/de2/device__selector__interface_8hpp.html" target="_top" xlink:title=" ">
<polygon fill="white" stroke="#666666" points="259.5,-107 125.5,-107 125.5,-66 259.5,-66 259.5,-107"/>
<text text-anchor="start" x="133.5" y="-95" font-family="Helvetica,sans-Serif" font-size="10.00">opencv2/gapi/streaming</text>
<text text-anchor="start" x="133.5" y="-84" font-family="Helvetica,sans-Serif" font-size="10.00">/onevpl/device_selector</text>
<text text-anchor="middle" x="192.5" y="-73" font-family="Helvetica,sans-Serif" font-size="10.00">_interface.hpp</text>
</a>
</g>
</g>
<!-- Node1&#45;&gt;Node4 -->
<g id="edge3_Node000001_Node000004" class="edge">
<title>Node1&#45;&gt;Node4</title>
<g id="a_edge3_Node000001_Node000004"><a xlink:title=" ">
<path fill="none" stroke="#63b8ff" d="M143.97,-135.69C153.15,-126.57 163.8,-115.99 172.79,-107.07"/>
<polygon fill="#63b8ff" stroke="#63b8ff" points="141.3,-133.41 136.67,-142.94 146.23,-138.37 141.3,-133.41"/>
</a>
</g>
</g>
<!-- Node3 -->
<g id="Node000003" class="node">
<title>Node3</title>
<g id="a_Node000003"><a xlink:href="../../d5/d51/bindings__ie_8hpp.html" target="_top" xlink:title=" ">
<polygon fill="white" stroke="#666666" points="107,-30 0,-30 0,0 107,0 107,-30"/>
<text text-anchor="start" x="8" y="-18" font-family="Helvetica,sans-Serif" font-size="10.00">opencv2/gapi/infer</text>
<text text-anchor="middle" x="53.5" y="-7" font-family="Helvetica,sans-Serif" font-size="10.00">/bindings_ie.hpp</text>
</a>
</g>
</g>
<!-- Node2&#45;&gt;Node3 -->
<g id="edge2_Node000002_Node000003" class="edge">
<title>Node2&#45;&gt;Node3</title>
<g id="a_edge2_Node000002_Node000003"><a xlink:title=" ">
<path fill="none" stroke="#63b8ff" d="M53.5,-61.25C53.5,-50.81 53.5,-38.99 53.5,-30.04"/>
<polygon fill="#63b8ff" stroke="#63b8ff" points="50,-61.44 53.5,-71.44 57,-61.44 50,-61.44"/>
</a>
</g>
</g>
<!-- Node5 -->
<g id="Node000005" class="node">
<title>Node5</title>
<g id="a_Node000005"><a xlink:href="../../d0/dc2/default_8hpp.html" target="_top" xlink:title=" ">
<polygon fill="white" stroke="#666666" points="259.5,-30 125.5,-30 125.5,0 259.5,0 259.5,-30"/>
<text text-anchor="start" x="133.5" y="-18" font-family="Helvetica,sans-Serif" font-size="10.00">opencv2/gapi/streaming</text>
<text text-anchor="middle" x="192.5" y="-7" font-family="Helvetica,sans-Serif" font-size="10.00">/onevpl/default.hpp</text>
</a>
</g>
</g>
<!-- Node4&#45;&gt;Node5 -->
<g id="edge4_Node000004_Node000005" class="edge">
<title>Node4&#45;&gt;Node5</title>
<g id="a_edge4_Node000004_Node000005"><a xlink:title=" ">
<path fill="none" stroke="#63b8ff" d="M192.5,-55.66C192.5,-46.76 192.5,-37.42 192.5,-30.04"/>
<polygon fill="#63b8ff" stroke="#63b8ff" points="189,-55.77 192.5,-65.77 196,-55.77 189,-55.77"/>
</a>
</g>
</g>
<!-- Node6 -->
<g id="Node000006" class="node">
<title>Node6</title>
<g id="a_Node000006"><a xlink:href="../../de/d43/onevpl_2source_8hpp.html" target="_top" xlink:title=" ">
<polygon fill="white" stroke="#666666" points="411.5,-30 277.5,-30 277.5,0 411.5,0 411.5,-30"/>
<text text-anchor="start" x="285.5" y="-18" font-family="Helvetica,sans-Serif" font-size="10.00">opencv2/gapi/streaming</text>
<text text-anchor="middle" x="344.5" y="-7" font-family="Helvetica,sans-Serif" font-size="10.00">/onevpl/source.hpp</text>
</a>
</g>
</g>
<!-- Node4&#45;&gt;Node6 -->
<g id="edge5_Node000004_Node000006" class="edge">
<title>Node4&#45;&gt;Node6</title>
<g id="a_edge5_Node000004_Node000006"><a xlink:title=" ">
<path fill="none" stroke="#63b8ff" d="M244.54,-61.71C267.54,-51.19 293.8,-39.18 313.63,-30.11"/>
<polygon fill="#63b8ff" stroke="#63b8ff" points="242.88,-58.61 235.24,-65.96 245.79,-64.98 242.88,-58.61"/>
</a>
</g>
</g>
</g>
</svg>
