<?xml version="1.0" encoding="UTF-8" standalone="no"?>
<!DOCTYPE svg PUBLIC "-//W3C//DTD SVG 1.1//EN"
 "http://www.w3.org/Graphics/SVG/1.1/DTD/svg11.dtd">
<!-- Generated by graphviz version 2.43.0 (0)
 -->
<!-- Title: cv::detail::tracking::contrib_feature::CvHaarFeatureParams Pages: 1 -->
<svg width="273pt" height="759pt"
 viewBox="0.00 0.00 273.00 759.00" xmlns="http://www.w3.org/2000/svg" xmlns:xlink="http://www.w3.org/1999/xlink">
<g id="graph0" class="graph" transform="scale(1 1) rotate(0) translate(4 755)">
<title>cv::detail::tracking::contrib_feature::CvHaarFeatureParams</title>
<!-- Node1 -->
<g id="Node000001" class="node">
<title>Node1</title>
<g id="a_Node000001"><a xlink:title=" ">
<polygon fill="#999999" stroke="transparent" points="262,-161 92,-161 92,0 262,0 262,-161"/>
<text text-anchor="start" x="97" y="-148.5" font-family="Helvetica,sans-Serif" font-size="10.00">cv::detail::tracking</text>
<text text-anchor="start" x="97" y="-137.5" font-family="Helvetica,sans-Serif" font-size="10.00">::contrib_feature::CvHaarFeature</text>
<text text-anchor="start" x="158.5" y="-126.5" font-family="Helvetica,sans-Serif" font-size="10.00">Params</text>
<text text-anchor="start" x="175" y="-111.5" font-family="Helvetica,sans-Serif" font-size="10.00"> </text>
<text text-anchor="start" x="104" y="-96.5" font-family="Helvetica,sans-Serif" font-size="10.00">+</text>
<text text-anchor="start" x="125" y="-96.5" font-family="Helvetica,sans-Serif" font-size="10.00">CvHaarFeatureParams()</text>
<text text-anchor="start" x="104" y="-81.5" font-family="Helvetica,sans-Serif" font-size="10.00">+</text>
<text text-anchor="start" x="125" y="-81.5" font-family="Helvetica,sans-Serif" font-size="10.00">init()</text>
<text text-anchor="start" x="104" y="-66.5" font-family="Helvetica,sans-Serif" font-size="10.00">+</text>
<text text-anchor="start" x="125" y="-66.5" font-family="Helvetica,sans-Serif" font-size="10.00">printAttrs()</text>
<text text-anchor="start" x="104" y="-51.5" font-family="Helvetica,sans-Serif" font-size="10.00">+</text>
<text text-anchor="start" x="125" y="-51.5" font-family="Helvetica,sans-Serif" font-size="10.00">printDefaults()</text>
<text text-anchor="start" x="104" y="-36.5" font-family="Helvetica,sans-Serif" font-size="10.00">+</text>
<text text-anchor="start" x="125" y="-36.5" font-family="Helvetica,sans-Serif" font-size="10.00">read()</text>
<text text-anchor="start" x="104" y="-21.5" font-family="Helvetica,sans-Serif" font-size="10.00">+</text>
<text text-anchor="start" x="125" y="-21.5" font-family="Helvetica,sans-Serif" font-size="10.00">scanAttr()</text>
<text text-anchor="start" x="104" y="-6.5" font-family="Helvetica,sans-Serif" font-size="10.00">+</text>
<text text-anchor="start" x="125" y="-6.5" font-family="Helvetica,sans-Serif" font-size="10.00">write()</text>
<polygon fill="#666666" stroke="#666666" points="92,-121.5 92,-121.5 262,-121.5 262,-121.5 92,-121.5"/>
<polygon fill="#666666" stroke="#666666" points="92,-106.5 92,-106.5 262,-106.5 262,-106.5 92,-106.5"/>
<polygon fill="none" stroke="#666666" points="92,0 92,-161 262,-161 262,0 92,0"/>
</a>
</g>
</g>
<!-- Node2 -->
<g id="Node000002" class="node">
<title>Node2</title>
<g id="a_Node000002"><a xlink:href="../../d4/da7/classcv_1_1detail_1_1tracking_1_1contrib__feature_1_1CvFeatureParams.html" target="_top" xlink:title=" ">
<polygon fill="white" stroke="transparent" points="197,-339 51,-339 51,-208 197,-208 197,-339"/>
<text text-anchor="start" x="56" y="-326.5" font-family="Helvetica,sans-Serif" font-size="10.00">cv::detail::tracking</text>
<text text-anchor="start" x="56" y="-315.5" font-family="Helvetica,sans-Serif" font-size="10.00">::contrib_feature::CvFeature</text>
<text text-anchor="start" x="105.5" y="-304.5" font-family="Helvetica,sans-Serif" font-size="10.00">Params</text>
<text text-anchor="start" x="122" y="-289.5" font-family="Helvetica,sans-Serif" font-size="10.00"> </text>
<text text-anchor="start" x="62.5" y="-274.5" font-family="Helvetica,sans-Serif" font-size="10.00">+</text>
<text text-anchor="start" x="83" y="-274.5" font-family="Helvetica,sans-Serif" font-size="10.00">CvFeatureParams()</text>
<text text-anchor="start" x="62.5" y="-259.5" font-family="Helvetica,sans-Serif" font-size="10.00">+</text>
<text text-anchor="start" x="83" y="-259.5" font-family="Helvetica,sans-Serif" font-size="10.00">init()</text>
<text text-anchor="start" x="62.5" y="-244.5" font-family="Helvetica,sans-Serif" font-size="10.00">+</text>
<text text-anchor="start" x="83" y="-244.5" font-family="Helvetica,sans-Serif" font-size="10.00">read()</text>
<text text-anchor="start" x="62.5" y="-229.5" font-family="Helvetica,sans-Serif" font-size="10.00">+</text>
<text text-anchor="start" x="83" y="-229.5" font-family="Helvetica,sans-Serif" font-size="10.00">write()</text>
<text text-anchor="start" x="62.5" y="-214.5" font-family="Helvetica,sans-Serif" font-size="10.00">+</text>
<text text-anchor="start" x="83" y="-214.5" font-family="Helvetica,sans-Serif" font-size="10.00">create()</text>
<polygon fill="#666666" stroke="#666666" points="51,-299.5 51,-299.5 197,-299.5 197,-299.5 51,-299.5"/>
<polygon fill="#666666" stroke="#666666" points="51,-284.5 51,-284.5 197,-284.5 197,-284.5 51,-284.5"/>
<polygon fill="none" stroke="#666666" points="51,-208 51,-339 197,-339 197,-208 51,-208"/>
</a>
</g>
</g>
<!-- Node2&#45;&gt;Node1 -->
<g id="edge1_Node000001_Node000002" class="edge">
<title>Node2&#45;&gt;Node1</title>
<g id="a_edge1_Node000001_Node000002"><a xlink:title=" ">
<path fill="none" stroke="#63b8ff" d="M144.62,-198.18C148.01,-185.99 151.52,-173.32 154.94,-161.01"/>
<polygon fill="none" stroke="#63b8ff" points="141.24,-197.26 141.94,-207.84 147.99,-199.14 141.24,-197.26"/>
</a>
</g>
</g>
<!-- Node3 -->
<g id="Node000003" class="node">
<title>Node3</title>
<g id="a_Node000003"><a xlink:href="../../de/d2a/classcv_1_1detail_1_1tracking_1_1contrib__feature_1_1CvParams.html" target="_top" xlink:title=" ">
<polygon fill="white" stroke="transparent" points="146,-558 0,-558 0,-408 146,-408 146,-558"/>
<text text-anchor="start" x="5" y="-546" font-family="Helvetica,sans-Serif" font-size="10.00">cv::detail::tracking</text>
<text text-anchor="start" x="5" y="-535" font-family="Helvetica,sans-Serif" font-size="10.00">::contrib_feature::CvParams</text>
<text text-anchor="start" x="71" y="-520" font-family="Helvetica,sans-Serif" font-size="10.00"> </text>
<text text-anchor="start" x="17" y="-505" font-family="Helvetica,sans-Serif" font-size="10.00">+</text>
<text text-anchor="start" x="43" y="-505" font-family="Helvetica,sans-Serif" font-size="10.00">CvParams()</text>
<text text-anchor="start" x="17" y="-490" font-family="Helvetica,sans-Serif" font-size="10.00">+</text>
<text text-anchor="start" x="43" y="-490" font-family="Helvetica,sans-Serif" font-size="10.00">~CvParams()</text>
<text text-anchor="start" x="17" y="-475" font-family="Helvetica,sans-Serif" font-size="10.00">+</text>
<text text-anchor="start" x="43" y="-475" font-family="Helvetica,sans-Serif" font-size="10.00">printAttrs()</text>
<text text-anchor="start" x="17" y="-460" font-family="Helvetica,sans-Serif" font-size="10.00">+</text>
<text text-anchor="start" x="43" y="-460" font-family="Helvetica,sans-Serif" font-size="10.00">printDefaults()</text>
<text text-anchor="start" x="17" y="-445" font-family="Helvetica,sans-Serif" font-size="10.00">+</text>
<text text-anchor="start" x="43" y="-445" font-family="Helvetica,sans-Serif" font-size="10.00">read()</text>
<text text-anchor="start" x="17" y="-430" font-family="Helvetica,sans-Serif" font-size="10.00">+</text>
<text text-anchor="start" x="43" y="-430" font-family="Helvetica,sans-Serif" font-size="10.00">scanAttr()</text>
<text text-anchor="start" x="17" y="-415" font-family="Helvetica,sans-Serif" font-size="10.00">+</text>
<text text-anchor="start" x="43" y="-415" font-family="Helvetica,sans-Serif" font-size="10.00">write()</text>
<polygon fill="#666666" stroke="#666666" points="0,-530 0,-530 146,-530 146,-530 0,-530"/>
<polygon fill="#666666" stroke="#666666" points="0,-515 0,-515 146,-515 146,-515 0,-515"/>
<polygon fill="none" stroke="#666666" points="0,-408 0,-558 146,-558 146,-408 0,-408"/>
</a>
</g>
</g>
<!-- Node3&#45;&gt;Node2 -->
<g id="edge2_Node000002_Node000003" class="edge">
<title>Node3&#45;&gt;Node2</title>
<g id="a_edge2_Node000002_Node000003"><a xlink:title=" ">
<path fill="none" stroke="#63b8ff" d="M93.62,-398.11C98.44,-378.48 103.51,-357.86 108.1,-339.21"/>
<polygon fill="none" stroke="#63b8ff" points="90.18,-397.42 91.2,-407.97 96.98,-399.09 90.18,-397.42"/>
</a>
</g>
</g>
<!-- Node4 -->
<g id="Node000004" class="node">
<title>Node4</title>
<g id="a_Node000004"><a xlink:title=" ">
<polygon fill="white" stroke="transparent" points="102.5,-654 43.5,-654 43.5,-605 102.5,-605 102.5,-654"/>
<text text-anchor="start" x="49" y="-641.5" font-family="Helvetica,sans-Serif" font-size="10.00">std::string</text>
<text text-anchor="start" x="71.5" y="-626.5" font-family="Helvetica,sans-Serif" font-size="10.00"> </text>
<text text-anchor="start" x="71.5" y="-611.5" font-family="Helvetica,sans-Serif" font-size="10.00"> </text>
<polygon fill="#666666" stroke="#666666" points="44,-636.5 44,-636.5 103,-636.5 103,-636.5 44,-636.5"/>
<polygon fill="#666666" stroke="#666666" points="44,-621.5 44,-621.5 103,-621.5 103,-621.5 44,-621.5"/>
<polygon fill="none" stroke="#666666" points="43.5,-605 43.5,-654 102.5,-654 102.5,-605 43.5,-605"/>
</a>
</g>
</g>
<!-- Node4&#45;&gt;Node3 -->
<g id="edge3_Node000003_Node000004" class="edge">
<title>Node4&#45;&gt;Node3</title>
<g id="a_edge3_Node000003_Node000004"><a xlink:title=" ">
<path fill="none" stroke="#63b8ff" d="M73,-604.96C73,-595.14 73,-583.08 73,-570.41"/>
<polygon fill="none" stroke="#63b8ff" points="73,-570.13 69,-564.13 73,-558.13 77,-564.13 73,-570.13"/>
</a>
</g>
<text text-anchor="middle" x="93" y="-579" font-family="Helvetica,sans-Serif" font-size="10.00" fill="grey"> +name</text>
</g>
<!-- Node5 -->
<g id="Node000005" class="node">
<title>Node5</title>
<g id="a_Node000005"><a xlink:title=" ">
<polygon fill="white" stroke="transparent" points="122,-751 24,-751 24,-691 122,-691 122,-751"/>
<text text-anchor="start" x="29" y="-739" font-family="Helvetica,sans-Serif" font-size="10.00">std::basic_string&lt;</text>
<text text-anchor="start" x="54.5" y="-728" font-family="Helvetica,sans-Serif" font-size="10.00"> Char &gt;</text>
<text text-anchor="start" x="71" y="-713" font-family="Helvetica,sans-Serif" font-size="10.00"> </text>
<text text-anchor="start" x="71" y="-698" font-family="Helvetica,sans-Serif" font-size="10.00"> </text>
<polygon fill="#666666" stroke="#666666" points="24,-723 24,-723 122,-723 122,-723 24,-723"/>
<polygon fill="#666666" stroke="#666666" points="24,-708 24,-708 122,-708 122,-708 24,-708"/>
<polygon fill="none" stroke="#666666" points="24,-691 24,-751 122,-751 122,-691 24,-691"/>
</a>
</g>
</g>
<!-- Node5&#45;&gt;Node4 -->
<g id="edge4_Node000004_Node000005" class="edge">
<title>Node5&#45;&gt;Node4</title>
<g id="a_edge4_Node000004_Node000005"><a xlink:title=" ">
<path fill="none" stroke="#63b8ff" d="M73,-680.41C73,-671.47 73,-662.25 73,-654.21"/>
<polygon fill="none" stroke="#63b8ff" points="69.5,-680.69 73,-690.69 76.5,-680.69 69.5,-680.69"/>
</a>
</g>
</g>
<!-- Node6 -->
<g id="Node000006" class="node">
<title>Node6</title>
<g id="a_Node000006"><a xlink:title=" ">
<polygon fill="white" stroke="transparent" points="187.5,-507.5 164.5,-507.5 164.5,-458.5 187.5,-458.5 187.5,-507.5"/>
<text text-anchor="start" x="170" y="-495" font-family="Helvetica,sans-Serif" font-size="10.00">int</text>
<text text-anchor="start" x="174.5" y="-480" font-family="Helvetica,sans-Serif" font-size="10.00"> </text>
<text text-anchor="start" x="174.5" y="-465" font-family="Helvetica,sans-Serif" font-size="10.00"> </text>
<polygon fill="#666666" stroke="#666666" points="165,-490 165,-490 188,-490 188,-490 165,-490"/>
<polygon fill="#666666" stroke="#666666" points="165,-475 165,-475 188,-475 188,-475 165,-475"/>
<polygon fill="none" stroke="#666666" points="164.5,-458.5 164.5,-507.5 187.5,-507.5 187.5,-458.5 164.5,-458.5"/>
</a>
</g>
</g>
<!-- Node6&#45;&gt;Node2 -->
<g id="edge5_Node000002_Node000006" class="edge">
<title>Node6&#45;&gt;Node2</title>
<g id="a_edge5_Node000002_Node000006"><a xlink:title=" ">
<path fill="none" stroke="#63b8ff" d="M170.03,-458.2C163.51,-432.17 152.72,-389.1 143.22,-351.2"/>
<polygon fill="none" stroke="#63b8ff" points="143.11,-350.75 137.77,-345.9 140.19,-339.11 145.53,-343.96 143.11,-350.75"/>
</a>
</g>
<text text-anchor="middle" x="190" y="-382" font-family="Helvetica,sans-Serif" font-size="10.00" fill="grey"> +featSize</text>
<text text-anchor="middle" x="190" y="-371" font-family="Helvetica,sans-Serif" font-size="10.00" fill="grey">+maxCatCount</text>
<text text-anchor="middle" x="190" y="-360" font-family="Helvetica,sans-Serif" font-size="10.00" fill="grey">+numFeatures</text>
</g>
<!-- Node7 -->
<g id="Node000007" class="node">
<title>Node7</title>
<g id="a_Node000007"><a xlink:title=" ">
<polygon fill="white" stroke="transparent" points="247,-298 215,-298 215,-249 247,-249 247,-298"/>
<text text-anchor="start" x="220" y="-285.5" font-family="Helvetica,sans-Serif" font-size="10.00">bool</text>
<text text-anchor="start" x="229" y="-270.5" font-family="Helvetica,sans-Serif" font-size="10.00"> </text>
<text text-anchor="start" x="229" y="-255.5" font-family="Helvetica,sans-Serif" font-size="10.00"> </text>
<polygon fill="#666666" stroke="#666666" points="215,-280.5 215,-280.5 247,-280.5 247,-280.5 215,-280.5"/>
<polygon fill="#666666" stroke="#666666" points="215,-265.5 215,-265.5 247,-265.5 247,-265.5 215,-265.5"/>
<polygon fill="none" stroke="#666666" points="215,-249 215,-298 247,-298 247,-249 215,-249"/>
</a>
</g>
</g>
<!-- Node7&#45;&gt;Node1 -->
<g id="edge6_Node000001_Node000007" class="edge">
<title>Node7&#45;&gt;Node1</title>
<g id="a_edge6_Node000001_Node000007"><a xlink:title=" ">
<path fill="none" stroke="#63b8ff" d="M224.27,-248.7C218.8,-229.36 210.72,-200.78 202.78,-172.7"/>
<polygon fill="none" stroke="#63b8ff" points="202.78,-172.7 197.3,-168.01 199.52,-161.15 205,-165.83 202.78,-172.7"/>
</a>
</g>
<text text-anchor="middle" x="236" y="-182" font-family="Helvetica,sans-Serif" font-size="10.00" fill="grey"> +isIntegral</text>
</g>
</g>
</svg>
