<?xml version="1.0" encoding="UTF-8" standalone="no"?>
<!DOCTYPE svg PUBLIC "-//W3C//DTD SVG 1.1//EN"
 "http://www.w3.org/Graphics/SVG/1.1/DTD/svg11.dtd">
<!-- Generated by graphviz version 2.43.0 (0)
 -->
<!-- Title: cv::datasets::IR_robotObj Pages: 1 -->
<svg width="341pt" height="559pt"
 viewBox="0.00 0.00 340.50 559.00" xmlns="http://www.w3.org/2000/svg" xmlns:xlink="http://www.w3.org/1999/xlink">
<g id="graph0" class="graph" transform="scale(1 1) rotate(0) translate(4 555)">
<title>cv::datasets::IR_robotObj</title>
<!-- Node1 -->
<g id="Node000001" class="node">
<title>Node1</title>
<g id="a_Node000001"><a xlink:title=" ">
<polygon fill="#999999" stroke="transparent" points="257.5,-49 125.5,-49 125.5,0 257.5,0 257.5,-49"/>
<text text-anchor="start" x="130.5" y="-36.5" font-family="Helvetica,sans-Serif" font-size="10.00">cv::datasets::IR_robotObj</text>
<text text-anchor="start" x="189.5" y="-21.5" font-family="Helvetica,sans-Serif" font-size="10.00"> </text>
<text text-anchor="start" x="189.5" y="-6.5" font-family="Helvetica,sans-Serif" font-size="10.00"> </text>
<polygon fill="#666666" stroke="#666666" points="125.5,-31.5 125.5,-31.5 257.5,-31.5 257.5,-31.5 125.5,-31.5"/>
<polygon fill="#666666" stroke="#666666" points="125.5,-16.5 125.5,-16.5 257.5,-16.5 257.5,-16.5 125.5,-16.5"/>
<polygon fill="none" stroke="#666666" points="125.5,0 125.5,-49 257.5,-49 257.5,0 125.5,0"/>
</a>
</g>
</g>
<!-- Node2 -->
<g id="Node000002" class="node">
<title>Node2</title>
<g id="a_Node000002"><a xlink:href="../../de/d47/structcv_1_1datasets_1_1Object.html" target="_top" xlink:title=" ">
<polygon fill="white" stroke="transparent" points="107,-150.5 0,-150.5 0,-101.5 107,-101.5 107,-150.5"/>
<text text-anchor="start" x="5.5" y="-138" font-family="Helvetica,sans-Serif" font-size="10.00">cv::datasets::Object</text>
<text text-anchor="start" x="52" y="-123" font-family="Helvetica,sans-Serif" font-size="10.00"> </text>
<text text-anchor="start" x="52" y="-108" font-family="Helvetica,sans-Serif" font-size="10.00"> </text>
<polygon fill="#666666" stroke="#666666" points="0.5,-133 0.5,-133 107.5,-133 107.5,-133 0.5,-133"/>
<polygon fill="#666666" stroke="#666666" points="0.5,-118 0.5,-118 107.5,-118 107.5,-118 0.5,-118"/>
<polygon fill="none" stroke="#666666" points="0,-101.5 0,-150.5 107,-150.5 107,-101.5 0,-101.5"/>
</a>
</g>
</g>
<!-- Node2&#45;&gt;Node1 -->
<g id="edge1_Node000001_Node000002" class="edge">
<title>Node2&#45;&gt;Node1</title>
<g id="a_edge1_Node000001_Node000002"><a xlink:title=" ">
<path fill="none" stroke="#63b8ff" d="M94.41,-95.5C114.88,-80.75 139.31,-63.13 158.55,-49.26"/>
<polygon fill="none" stroke="#63b8ff" points="92.27,-92.73 86.2,-101.42 96.36,-98.41 92.27,-92.73"/>
</a>
</g>
</g>
<!-- Node3 -->
<g id="Node000003" class="node">
<title>Node3</title>
<g id="a_Node000003"><a xlink:title=" ">
<polygon fill="white" stroke="transparent" points="280,-444 221,-444 221,-395 280,-395 280,-444"/>
<text text-anchor="start" x="226.5" y="-431.5" font-family="Helvetica,sans-Serif" font-size="10.00">std::string</text>
<text text-anchor="start" x="249" y="-416.5" font-family="Helvetica,sans-Serif" font-size="10.00"> </text>
<text text-anchor="start" x="249" y="-401.5" font-family="Helvetica,sans-Serif" font-size="10.00"> </text>
<polygon fill="#666666" stroke="#666666" points="221.5,-426.5 221.5,-426.5 280.5,-426.5 280.5,-426.5 221.5,-426.5"/>
<polygon fill="#666666" stroke="#666666" points="221.5,-411.5 221.5,-411.5 280.5,-411.5 280.5,-411.5 221.5,-411.5"/>
<polygon fill="none" stroke="#666666" points="221,-395 221,-444 280,-444 280,-395 221,-395"/>
</a>
</g>
</g>
<!-- Node3&#45;&gt;Node1 -->
<g id="edge2_Node000001_Node000003" class="edge">
<title>Node3&#45;&gt;Node1</title>
<g id="a_edge2_Node000001_Node000003"><a xlink:title=" ">
<path fill="none" stroke="#63b8ff" d="M268.5,-394.72C272.18,-389.11 275.76,-383.01 278.5,-377 288.5,-355.02 292.5,-348.65 292.5,-324.5 292.5,-324.5 292.5,-324.5 292.5,-125 292.5,-96.03 271.15,-72.67 248.09,-55.88"/>
<polygon fill="none" stroke="#63b8ff" points="248.06,-55.86 240.85,-55.78 238.16,-49.09 245.37,-49.18 248.06,-55.86"/>
</a>
</g>
<text text-anchor="middle" x="312.5" y="-225" font-family="Helvetica,sans-Serif" font-size="10.00" fill="grey"> +name</text>
</g>
<!-- Node7 -->
<g id="Node000007" class="node">
<title>Node7</title>
<g id="a_Node000007"><a xlink:title=" ">
<polygon fill="white" stroke="transparent" points="264.5,-348 130.5,-348 130.5,-299 264.5,-299 264.5,-348"/>
<text text-anchor="start" x="135.5" y="-335.5" font-family="Helvetica,sans-Serif" font-size="10.00">std::vector&lt; std::string &gt;</text>
<text text-anchor="start" x="195.5" y="-320.5" font-family="Helvetica,sans-Serif" font-size="10.00"> </text>
<text text-anchor="start" x="195.5" y="-305.5" font-family="Helvetica,sans-Serif" font-size="10.00"> </text>
<polygon fill="#666666" stroke="#666666" points="130.5,-330.5 130.5,-330.5 264.5,-330.5 264.5,-330.5 130.5,-330.5"/>
<polygon fill="#666666" stroke="#666666" points="130.5,-315.5 130.5,-315.5 264.5,-315.5 264.5,-315.5 130.5,-315.5"/>
<polygon fill="none" stroke="#666666" points="130.5,-299 130.5,-348 264.5,-348 264.5,-299 130.5,-299"/>
</a>
</g>
</g>
<!-- Node3&#45;&gt;Node7 -->
<g id="edge7_Node000007_Node000003" class="edge">
<title>Node3&#45;&gt;Node7</title>
<g id="a_edge7_Node000007_Node000003"><a xlink:title=" ">
<path fill="none" stroke="#63b8ff" d="M232.15,-394.94C228.07,-389.22 223.94,-383.02 220.5,-377 217.31,-371.42 214.26,-365.31 211.5,-359.3"/>
<polygon fill="none" stroke="#63b8ff" points="211.37,-359.01 205.29,-355.12 206.54,-348.02 212.62,-351.91 211.37,-359.01"/>
</a>
</g>
<text text-anchor="middle" x="249.5" y="-369" font-family="Helvetica,sans-Serif" font-size="10.00" fill="grey"> +elements</text>
</g>
<!-- Node4 -->
<g id="Node000004" class="node">
<title>Node4</title>
<g id="a_Node000004"><a xlink:title=" ">
<polygon fill="white" stroke="transparent" points="299.5,-551 201.5,-551 201.5,-491 299.5,-491 299.5,-551"/>
<text text-anchor="start" x="206.5" y="-539" font-family="Helvetica,sans-Serif" font-size="10.00">std::basic_string&lt;</text>
<text text-anchor="start" x="232" y="-528" font-family="Helvetica,sans-Serif" font-size="10.00"> Char &gt;</text>
<text text-anchor="start" x="248.5" y="-513" font-family="Helvetica,sans-Serif" font-size="10.00"> </text>
<text text-anchor="start" x="248.5" y="-498" font-family="Helvetica,sans-Serif" font-size="10.00"> </text>
<polygon fill="#666666" stroke="#666666" points="201.5,-523 201.5,-523 299.5,-523 299.5,-523 201.5,-523"/>
<polygon fill="#666666" stroke="#666666" points="201.5,-508 201.5,-508 299.5,-508 299.5,-508 201.5,-508"/>
<polygon fill="none" stroke="#666666" points="201.5,-491 201.5,-551 299.5,-551 299.5,-491 201.5,-491"/>
</a>
</g>
</g>
<!-- Node4&#45;&gt;Node3 -->
<g id="edge3_Node000003_Node000004" class="edge">
<title>Node4&#45;&gt;Node3</title>
<g id="a_edge3_Node000003_Node000004"><a xlink:title=" ">
<path fill="none" stroke="#63b8ff" d="M250.5,-480.8C250.5,-468.38 250.5,-455.03 250.5,-444.06"/>
<polygon fill="none" stroke="#63b8ff" points="247,-480.95 250.5,-490.95 254,-480.95 247,-480.95"/>
</a>
</g>
</g>
<!-- Node5 -->
<g id="Node000005" class="node">
<title>Node5</title>
<g id="a_Node000005"><a xlink:title=" ">
<polygon fill="white" stroke="transparent" points="257.5,-156 125.5,-156 125.5,-96 257.5,-96 257.5,-156"/>
<text text-anchor="start" x="130.5" y="-144" font-family="Helvetica,sans-Serif" font-size="10.00">std::vector&lt; cv::datasets</text>
<text text-anchor="start" x="155.5" y="-133" font-family="Helvetica,sans-Serif" font-size="10.00">::cameraPos &gt;</text>
<text text-anchor="start" x="189.5" y="-118" font-family="Helvetica,sans-Serif" font-size="10.00"> </text>
<text text-anchor="start" x="189.5" y="-103" font-family="Helvetica,sans-Serif" font-size="10.00"> </text>
<polygon fill="#666666" stroke="#666666" points="125.5,-128 125.5,-128 257.5,-128 257.5,-128 125.5,-128"/>
<polygon fill="#666666" stroke="#666666" points="125.5,-113 125.5,-113 257.5,-113 257.5,-113 125.5,-113"/>
<polygon fill="none" stroke="#666666" points="125.5,-96 125.5,-156 257.5,-156 257.5,-96 125.5,-96"/>
</a>
</g>
</g>
<!-- Node5&#45;&gt;Node1 -->
<g id="edge4_Node000001_Node000005" class="edge">
<title>Node5&#45;&gt;Node1</title>
<g id="a_edge4_Node000001_Node000005"><a xlink:title=" ">
<path fill="none" stroke="#63b8ff" d="M191.5,-95.95C191.5,-85.12 191.5,-72.69 191.5,-61.31"/>
<polygon fill="none" stroke="#63b8ff" points="191.5,-61.06 187.5,-55.06 191.5,-49.06 195.5,-55.06 191.5,-61.06"/>
</a>
</g>
<text text-anchor="middle" x="206" y="-70" font-family="Helvetica,sans-Serif" font-size="10.00" fill="grey"> +pos</text>
</g>
<!-- Node6 -->
<g id="Node000006" class="node">
<title>Node6</title>
<g id="a_Node000006"><a xlink:href="../../d1/d64/structcv_1_1datasets_1_1cameraPos.html" target="_top" xlink:title=" ">
<polygon fill="white" stroke="transparent" points="256,-252 127,-252 127,-203 256,-203 256,-252"/>
<text text-anchor="start" x="132.5" y="-239.5" font-family="Helvetica,sans-Serif" font-size="10.00">cv::datasets::cameraPos</text>
<text text-anchor="start" x="190" y="-224.5" font-family="Helvetica,sans-Serif" font-size="10.00"> </text>
<text text-anchor="start" x="190" y="-209.5" font-family="Helvetica,sans-Serif" font-size="10.00"> </text>
<polygon fill="#666666" stroke="#666666" points="127.5,-234.5 127.5,-234.5 256.5,-234.5 256.5,-234.5 127.5,-234.5"/>
<polygon fill="#666666" stroke="#666666" points="127.5,-219.5 127.5,-219.5 256.5,-219.5 256.5,-219.5 127.5,-219.5"/>
<polygon fill="none" stroke="#666666" points="127,-203 127,-252 256,-252 256,-203 127,-203"/>
</a>
</g>
</g>
<!-- Node6&#45;&gt;Node5 -->
<g id="edge5_Node000005_Node000006" class="edge">
<title>Node6&#45;&gt;Node5</title>
<g id="a_edge5_Node000005_Node000006"><a xlink:title=" ">
<path fill="none" stroke="#63b8ff" d="M191.5,-202.92C191.5,-192.51 191.5,-179.97 191.5,-168.1"/>
<polygon fill="none" stroke="#63b8ff" points="191.5,-168.1 187.5,-162.1 191.5,-156.1 195.5,-162.1 191.5,-168.1"/>
</a>
</g>
<text text-anchor="middle" x="220.5" y="-177" font-family="Helvetica,sans-Serif" font-size="10.00" fill="grey"> +elements</text>
</g>
<!-- Node7&#45;&gt;Node6 -->
<g id="edge6_Node000006_Node000007" class="edge">
<title>Node7&#45;&gt;Node6</title>
<g id="a_edge6_Node000006_Node000007"><a xlink:title=" ">
<path fill="none" stroke="#63b8ff" d="M195.99,-298.78C195.32,-288.32 194.52,-275.79 193.78,-264.23"/>
<polygon fill="none" stroke="#63b8ff" points="193.78,-264.19 189.4,-258.46 193.01,-252.21 197.39,-257.95 193.78,-264.19"/>
</a>
</g>
<text text-anchor="middle" x="219.5" y="-273" font-family="Helvetica,sans-Serif" font-size="10.00" fill="grey"> +images</text>
</g>
<!-- Node8 -->
<g id="Node000008" class="node">
<title>Node8</title>
<g id="a_Node000008"><a xlink:title=" ">
<polygon fill="white" stroke="transparent" points="127,-444 36,-444 36,-395 127,-395 127,-444"/>
<text text-anchor="start" x="41.5" y="-431.5" font-family="Helvetica,sans-Serif" font-size="10.00">std::vector&lt; T &gt;</text>
<text text-anchor="start" x="80" y="-416.5" font-family="Helvetica,sans-Serif" font-size="10.00"> </text>
<text text-anchor="start" x="80" y="-401.5" font-family="Helvetica,sans-Serif" font-size="10.00"> </text>
<polygon fill="#666666" stroke="#666666" points="36.5,-426.5 36.5,-426.5 127.5,-426.5 127.5,-426.5 36.5,-426.5"/>
<polygon fill="#666666" stroke="#666666" points="36.5,-411.5 36.5,-411.5 127.5,-411.5 127.5,-411.5 36.5,-411.5"/>
<polygon fill="none" stroke="#666666" points="36,-395 36,-444 127,-444 127,-395 36,-395"/>
</a>
</g>
</g>
<!-- Node8&#45;&gt;Node5 -->
<g id="edge10_Node000005_Node000008" class="edge">
<title>Node8&#45;&gt;Node5</title>
<g id="a_edge10_Node000005_Node000008"><a xlink:title=" ">
<path fill="none" stroke="orange" d="M62.07,-385.88C46.41,-355.15 29.43,-308.23 45.5,-270 65.85,-221.59 111.46,-181.36 146.33,-156.03"/>
<polygon fill="orange" stroke="orange" points="59.07,-387.69 66.85,-394.87 65.25,-384.4 59.07,-387.69"/>
</a>
</g>
<text text-anchor="middle" x="118" y="-273" font-family="Helvetica,sans-Serif" font-size="10.00" fill="grey"> &lt; cv::datasets::cameraPos &gt;</text>
</g>
<!-- Node8&#45;&gt;Node7 -->
<g id="edge8_Node000007_Node000008" class="edge">
<title>Node8&#45;&gt;Node7</title>
<g id="a_edge8_Node000007_Node000008"><a xlink:title=" ">
<path fill="none" stroke="orange" d="M112.03,-387.66C119.78,-380.3 128.26,-372.66 136.5,-366 144.07,-359.88 152.52,-353.74 160.67,-348.12"/>
<polygon fill="orange" stroke="orange" points="109.31,-385.41 104.54,-394.87 114.17,-390.45 109.31,-385.41"/>
</a>
</g>
<text text-anchor="middle" x="174" y="-369" font-family="Helvetica,sans-Serif" font-size="10.00" fill="grey"> &lt; std::string &gt;</text>
</g>
<!-- Node9 -->
<g id="Node000009" class="node">
<title>Node9</title>
<g id="a_Node000009"><a xlink:title=" ">
<polygon fill="white" stroke="transparent" points="90,-545.5 73,-545.5 73,-496.5 90,-496.5 90,-545.5"/>
<text text-anchor="start" x="78.5" y="-533" font-family="Helvetica,sans-Serif" font-size="10.00">T</text>
<text text-anchor="start" x="80" y="-518" font-family="Helvetica,sans-Serif" font-size="10.00"> </text>
<text text-anchor="start" x="80" y="-503" font-family="Helvetica,sans-Serif" font-size="10.00"> </text>
<polygon fill="#666666" stroke="#666666" points="73.5,-528 73.5,-528 90.5,-528 90.5,-528 73.5,-528"/>
<polygon fill="#666666" stroke="#666666" points="73.5,-513 73.5,-513 90.5,-513 90.5,-513 73.5,-513"/>
<polygon fill="none" stroke="#666666" points="73,-496.5 73,-545.5 90,-545.5 90,-496.5 73,-496.5"/>
</a>
</g>
</g>
<!-- Node9&#45;&gt;Node8 -->
<g id="edge9_Node000008_Node000009" class="edge">
<title>Node9&#45;&gt;Node8</title>
<g id="a_edge9_Node000008_Node000009"><a xlink:title=" ">
<path fill="none" stroke="#63b8ff" d="M81.5,-496.42C81.5,-484.49 81.5,-469.75 81.5,-456.44"/>
<polygon fill="none" stroke="#63b8ff" points="81.5,-456.26 77.5,-450.26 81.5,-444.26 85.5,-450.26 81.5,-456.26"/>
</a>
</g>
<text text-anchor="middle" x="110.5" y="-465" font-family="Helvetica,sans-Serif" font-size="10.00" fill="grey"> +elements</text>
</g>
</g>
</svg>
