<?xml version="1.0" encoding="UTF-8" standalone="no"?>
<!DOCTYPE svg PUBLIC "-//W3C//DTD SVG 1.1//EN"
 "http://www.w3.org/Graphics/SVG/1.1/DTD/svg11.dtd">
<!-- Generated by graphviz version 2.43.0 (0)
 -->
<!-- Title: cvv::finalShow Pages: 1 -->
<svg width="415pt" height="64pt"
 viewBox="0.00 0.00 415.00 64.00" xmlns="http://www.w3.org/2000/svg" xmlns:xlink="http://www.w3.org/1999/xlink">
<g id="graph0" class="graph" transform="scale(1 1) rotate(0) translate(4 60)">
<title>cvv::finalShow</title>
<!-- Node1 -->
<g id="Node000001" class="node">
<title>Node1</title>
<g id="a_Node000001"><a xlink:title="Passes the control to the debug&#45;window for a last time.">
<polygon fill="#999999" stroke="#666666" points="86,-37 0,-37 0,-18 86,-18 86,-37"/>
<text text-anchor="middle" x="43" y="-25" font-family="Helvetica,sans-Serif" font-size="10.00">cvv::finalShow</text>
</a>
</g>
</g>
<!-- Node2 -->
<g id="Node000002" class="node">
<title>Node2</title>
<g id="a_Node000002"><a xlink:href="../../df/dff/group__cvv.html#ga1669e90a1a521eebc7c61a694bba2927" target="_top" xlink:title="Returns whether debug&#45;mode is active for this TU and thread.">
<polygon fill="white" stroke="#666666" points="227,-56 131,-56 131,-37 227,-37 227,-56"/>
<text text-anchor="middle" x="179" y="-44" font-family="Helvetica,sans-Serif" font-size="10.00">cvv::debugMode</text>
</a>
</g>
</g>
<!-- Node1&#45;&gt;Node2 -->
<g id="edge1_Node000001_Node000002" class="edge">
<title>Node1&#45;&gt;Node2</title>
<g id="a_edge1_Node000001_Node000002"><a xlink:title=" ">
<path fill="none" stroke="#63b8ff" d="M86.03,-33.46C97.07,-35.03 109.17,-36.74 120.86,-38.4"/>
<polygon fill="#63b8ff" stroke="#63b8ff" points="120.6,-41.9 130.99,-39.83 121.58,-34.96 120.6,-41.9"/>
</a>
</g>
</g>
<!-- Node4 -->
<g id="Node000004" class="node">
<title>Node4</title>
<g id="a_Node000004"><a xlink:href="../../d7/d84/namespacecvv_1_1impl.html#ac62877fc660116487c0731c7527a1347" target="_top" xlink:title=" ">
<polygon fill="white" stroke="#666666" points="236,-19 122,-19 122,0 236,0 236,-19"/>
<text text-anchor="middle" x="179" y="-7" font-family="Helvetica,sans-Serif" font-size="10.00">cvv::impl::finalShow</text>
</a>
</g>
</g>
<!-- Node1&#45;&gt;Node4 -->
<g id="edge3_Node000001_Node000004" class="edge">
<title>Node1&#45;&gt;Node4</title>
<g id="a_edge3_Node000001_Node000004"><a xlink:title=" ">
<path fill="none" stroke="#63b8ff" d="M86.03,-21.85C94.28,-20.75 103.13,-19.56 111.95,-18.37"/>
<polygon fill="#63b8ff" stroke="#63b8ff" points="112.42,-21.84 121.87,-17.04 111.49,-14.9 112.42,-21.84"/>
</a>
</g>
</g>
<!-- Node3 -->
<g id="Node000003" class="node">
<title>Node3</title>
<g id="a_Node000003"><a xlink:href="../../d7/d84/namespacecvv_1_1impl.html#a6319370d8d71cc8574da5ac09d27cfb7" target="_top" xlink:title=" ">
<polygon fill="white" stroke="#666666" points="407,-56 272,-56 272,-37 407,-37 407,-56"/>
<text text-anchor="middle" x="339.5" y="-44" font-family="Helvetica,sans-Serif" font-size="10.00">cvv::impl::getDebugFlag</text>
</a>
</g>
</g>
<!-- Node2&#45;&gt;Node3 -->
<g id="edge2_Node000002_Node000003" class="edge">
<title>Node2&#45;&gt;Node3</title>
<g id="a_edge2_Node000002_Node000003"><a xlink:title=" ">
<path fill="none" stroke="#63b8ff" d="M227.13,-46.5C238,-46.5 249.83,-46.5 261.6,-46.5"/>
<polygon fill="#63b8ff" stroke="#63b8ff" points="261.9,-50 271.9,-46.5 261.9,-43 261.9,-50"/>
</a>
</g>
</g>
</g>
</svg>
