<?xml version="1.0" encoding="UTF-8" standalone="no"?>
<!DOCTYPE svg PUBLIC "-//W3C//DTD SVG 1.1//EN"
 "http://www.w3.org/Graphics/SVG/1.1/DTD/svg11.dtd">
<!-- Generated by graphviz version 2.43.0 (0)
 -->
<!-- Title: cv::cudev::ScharrXPtrSz&lt; SrcPtr &gt; Pages: 1 -->
<svg width="191pt" height="282pt"
 viewBox="0.00 0.00 190.50 282.00" xmlns="http://www.w3.org/2000/svg" xmlns:xlink="http://www.w3.org/1999/xlink">
<g id="graph0" class="graph" transform="scale(1 1) rotate(0) translate(4 278)">
<title>cv::cudev::ScharrXPtrSz&lt; SrcPtr &gt;</title>
<!-- Node1 -->
<g id="Node000001" class="node">
<title>Node1</title>
<g id="a_Node000001"><a xlink:title=" ">
<polygon fill="#999999" stroke="transparent" points="182.5,-60 58.5,-60 58.5,0 182.5,0 182.5,-60"/>
<text text-anchor="start" x="63.5" y="-48" font-family="Helvetica,sans-Serif" font-size="10.00">cv::cudev::ScharrXPtrSz</text>
<text text-anchor="start" x="94.5" y="-37" font-family="Helvetica,sans-Serif" font-size="10.00">&lt; SrcPtr &gt;</text>
<text text-anchor="start" x="118.5" y="-22" font-family="Helvetica,sans-Serif" font-size="10.00"> </text>
<text text-anchor="start" x="75.5" y="-7" font-family="Helvetica,sans-Serif" font-size="10.00">+</text>
<text text-anchor="start" x="101.5" y="-7" font-family="Helvetica,sans-Serif" font-size="10.00">assignTo()</text>
<polygon fill="#666666" stroke="#666666" points="58.5,-32 58.5,-32 182.5,-32 182.5,-32 58.5,-32"/>
<polygon fill="#666666" stroke="#666666" points="58.5,-17 58.5,-17 182.5,-17 182.5,-17 58.5,-17"/>
<polygon fill="none" stroke="#666666" points="58.5,0 58.5,-60 182.5,-60 182.5,0 58.5,0"/>
</a>
</g>
</g>
<!-- Node2 -->
<g id="Node000002" class="node">
<title>Node2</title>
<g id="a_Node000002"><a xlink:href="../../d7/d71/structcv_1_1cudev_1_1ScharrXPtr.html" target="_top" xlink:title=" ">
<polygon fill="white" stroke="transparent" points="113,-178 0,-178 0,-118 113,-118 113,-178"/>
<text text-anchor="start" x="5.5" y="-166" font-family="Helvetica,sans-Serif" font-size="10.00">cv::cudev::ScharrXPtr</text>
<text text-anchor="start" x="31" y="-155" font-family="Helvetica,sans-Serif" font-size="10.00">&lt; SrcPtr &gt;</text>
<text text-anchor="start" x="55" y="-140" font-family="Helvetica,sans-Serif" font-size="10.00"> </text>
<text text-anchor="start" x="13" y="-125" font-family="Helvetica,sans-Serif" font-size="10.00">+</text>
<text text-anchor="start" x="34.5" y="-125" font-family="Helvetica,sans-Serif" font-size="10.00">operator()()</text>
<polygon fill="#666666" stroke="#666666" points="0.5,-150 0.5,-150 113.5,-150 113.5,-150 0.5,-150"/>
<polygon fill="#666666" stroke="#666666" points="0.5,-135 0.5,-135 113.5,-135 113.5,-135 0.5,-135"/>
<polygon fill="none" stroke="#666666" points="0,-118 0,-178 113,-178 113,-118 0,-118"/>
</a>
</g>
</g>
<!-- Node2&#45;&gt;Node1 -->
<g id="edge1_Node000001_Node000002" class="edge">
<title>Node2&#45;&gt;Node1</title>
<g id="a_edge1_Node000001_Node000002"><a xlink:title=" ">
<path fill="none" stroke="#63b8ff" d="M77.61,-108.73C86.32,-92.95 96.25,-74.96 104.36,-60.26"/>
<polygon fill="none" stroke="#63b8ff" points="74.42,-107.28 72.65,-117.73 80.55,-110.66 74.42,-107.28"/>
</a>
</g>
</g>
<!-- Node3 -->
<g id="Node000003" class="node">
<title>Node3</title>
<g id="a_Node000003"><a xlink:title=" ">
<polygon fill="white" stroke="transparent" points="76,-274 37,-274 37,-225 76,-225 76,-274"/>
<text text-anchor="start" x="42.5" y="-261.5" font-family="Helvetica,sans-Serif" font-size="10.00">SrcPtr</text>
<text text-anchor="start" x="55" y="-246.5" font-family="Helvetica,sans-Serif" font-size="10.00"> </text>
<text text-anchor="start" x="55" y="-231.5" font-family="Helvetica,sans-Serif" font-size="10.00"> </text>
<polygon fill="#666666" stroke="#666666" points="37.5,-256.5 37.5,-256.5 76.5,-256.5 76.5,-256.5 37.5,-256.5"/>
<polygon fill="#666666" stroke="#666666" points="37.5,-241.5 37.5,-241.5 76.5,-241.5 76.5,-241.5 37.5,-241.5"/>
<polygon fill="none" stroke="#666666" points="37,-225 37,-274 76,-274 76,-225 37,-225"/>
</a>
</g>
</g>
<!-- Node3&#45;&gt;Node2 -->
<g id="edge2_Node000002_Node000003" class="edge">
<title>Node3&#45;&gt;Node2</title>
<g id="a_edge2_Node000002_Node000003"><a xlink:title=" ">
<path fill="none" stroke="#63b8ff" d="M56.5,-224.92C56.5,-214.51 56.5,-201.97 56.5,-190.1"/>
<polygon fill="none" stroke="#63b8ff" points="56.5,-190.1 52.5,-184.1 56.5,-178.1 60.5,-184.1 56.5,-190.1"/>
</a>
</g>
<text text-anchor="middle" x="69.5" y="-199" font-family="Helvetica,sans-Serif" font-size="10.00" fill="grey"> +src</text>
</g>
<!-- Node4 -->
<g id="Node000004" class="node">
<title>Node4</title>
<g id="a_Node000004"><a xlink:title=" ">
<polygon fill="white" stroke="transparent" points="154,-172.5 131,-172.5 131,-123.5 154,-123.5 154,-172.5"/>
<text text-anchor="start" x="136.5" y="-160" font-family="Helvetica,sans-Serif" font-size="10.00">int</text>
<text text-anchor="start" x="141" y="-145" font-family="Helvetica,sans-Serif" font-size="10.00"> </text>
<text text-anchor="start" x="141" y="-130" font-family="Helvetica,sans-Serif" font-size="10.00"> </text>
<polygon fill="#666666" stroke="#666666" points="131.5,-155 131.5,-155 154.5,-155 154.5,-155 131.5,-155"/>
<polygon fill="#666666" stroke="#666666" points="131.5,-140 131.5,-140 154.5,-140 154.5,-140 131.5,-140"/>
<polygon fill="none" stroke="#666666" points="131,-123.5 131,-172.5 154,-172.5 154,-123.5 131,-123.5"/>
</a>
</g>
</g>
<!-- Node4&#45;&gt;Node1 -->
<g id="edge3_Node000001_Node000004" class="edge">
<title>Node4&#45;&gt;Node1</title>
<g id="a_edge3_Node000001_Node000004"><a xlink:title=" ">
<path fill="none" stroke="#63b8ff" d="M137.99,-123.25C135.2,-108.52 131.54,-89.22 128.29,-72.07"/>
<polygon fill="none" stroke="#63b8ff" points="128.25,-71.86 123.2,-66.71 126.01,-60.07 131.06,-65.22 128.25,-71.86"/>
</a>
</g>
<text text-anchor="middle" x="148.5" y="-92" font-family="Helvetica,sans-Serif" font-size="10.00" fill="grey"> +cols</text>
<text text-anchor="middle" x="148.5" y="-81" font-family="Helvetica,sans-Serif" font-size="10.00" fill="grey">+rows</text>
</g>
</g>
</svg>
