<?xml version="1.0" encoding="UTF-8" standalone="no"?>
<!DOCTYPE svg PUBLIC "-//W3C//DTD SVG 1.1//EN"
 "http://www.w3.org/Graphics/SVG/1.1/DTD/svg11.dtd">
<!-- Generated by graphviz version 2.43.0 (0)
 -->
<!-- Title: cv::cudev::less_equal&lt; T &gt; Pages: 1 -->
<svg width="209pt" height="294pt"
 viewBox="0.00 0.00 208.50 294.00" xmlns="http://www.w3.org/2000/svg" xmlns:xlink="http://www.w3.org/1999/xlink">
<g id="graph0" class="graph" transform="scale(1 1) rotate(0) translate(4 290)">
<title>cv::cudev::less_equal&lt; T &gt;</title>
<!-- Node1 -->
<g id="Node000001" class="node">
<title>Node1</title>
<g id="a_Node000001"><a xlink:title=" ">
<polygon fill="#999999" stroke="transparent" points="147.5,-49 5.5,-49 5.5,0 147.5,0 147.5,-49"/>
<text text-anchor="start" x="10.5" y="-36.5" font-family="Helvetica,sans-Serif" font-size="10.00">cv::cudev::less_equal&lt; T &gt;</text>
<text text-anchor="start" x="74.5" y="-21.5" font-family="Helvetica,sans-Serif" font-size="10.00"> </text>
<text text-anchor="start" x="25.5" y="-6.5" font-family="Helvetica,sans-Serif" font-size="10.00">+</text>
<text text-anchor="start" x="54.5" y="-6.5" font-family="Helvetica,sans-Serif" font-size="10.00">operator()()</text>
<polygon fill="#666666" stroke="#666666" points="5.5,-31.5 5.5,-31.5 147.5,-31.5 147.5,-31.5 5.5,-31.5"/>
<polygon fill="#666666" stroke="#666666" points="5.5,-16.5 5.5,-16.5 147.5,-16.5 147.5,-16.5 5.5,-16.5"/>
<polygon fill="none" stroke="#666666" points="5.5,0 5.5,-49 147.5,-49 147.5,0 5.5,0"/>
</a>
</g>
</g>
<!-- Node2 -->
<g id="Node000002" class="node">
<title>Node2</title>
<g id="a_Node000002"><a xlink:title=" ">
<polygon fill="white" stroke="transparent" points="153,-157 0,-157 0,-86 153,-86 153,-157"/>
<text text-anchor="start" x="5.5" y="-144.5" font-family="Helvetica,sans-Serif" font-size="10.00">cv::cudev::binary_function</text>
<text text-anchor="start" x="5.5" y="-133.5" font-family="Helvetica,sans-Serif" font-size="10.00">&lt; T, T, MakeVec&lt; uchar,</text>
<text text-anchor="start" x="5.5" y="-122.5" font-family="Helvetica,sans-Serif" font-size="10.00"> VecTraits&lt; T &gt;::cn &gt;::type &gt;</text>
<text text-anchor="start" x="75" y="-107.5" font-family="Helvetica,sans-Serif" font-size="10.00"> </text>
<text text-anchor="start" x="75" y="-92.5" font-family="Helvetica,sans-Serif" font-size="10.00"> </text>
<polygon fill="#666666" stroke="#666666" points="0.5,-117.5 0.5,-117.5 153.5,-117.5 153.5,-117.5 0.5,-117.5"/>
<polygon fill="#666666" stroke="#666666" points="0.5,-102.5 0.5,-102.5 153.5,-102.5 153.5,-102.5 0.5,-102.5"/>
<polygon fill="none" stroke="#666666" points="0,-86 0,-157 153,-157 153,-86 0,-86"/>
</a>
</g>
</g>
<!-- Node2&#45;&gt;Node1 -->
<g id="edge1_Node000001_Node000002" class="edge">
<title>Node2&#45;&gt;Node1</title>
<g id="a_edge1_Node000001_Node000002"><a xlink:title=" ">
<path fill="none" stroke="#63b8ff" d="M76.5,-75.72C76.5,-66.56 76.5,-57.26 76.5,-49.2"/>
<polygon fill="none" stroke="#63b8ff" points="73,-75.93 76.5,-85.93 80,-75.93 73,-75.93"/>
</a>
</g>
</g>
<!-- Node3 -->
<g id="Node000003" class="node">
<title>Node3</title>
<g id="a_Node000003"><a xlink:href="../../d6/ddf/structcv_1_1cudev_1_1binary__function.html" target="_top" xlink:title=" ">
<polygon fill="white" stroke="transparent" points="145,-286 8,-286 8,-226 145,-226 145,-286"/>
<text text-anchor="start" x="13.5" y="-274" font-family="Helvetica,sans-Serif" font-size="10.00">cv::cudev::binary_function</text>
<text text-anchor="start" x="13.5" y="-263" font-family="Helvetica,sans-Serif" font-size="10.00">&lt; _Arg1, _Arg2, _Result &gt;</text>
<text text-anchor="start" x="75" y="-248" font-family="Helvetica,sans-Serif" font-size="10.00"> </text>
<text text-anchor="start" x="75" y="-233" font-family="Helvetica,sans-Serif" font-size="10.00"> </text>
<polygon fill="#666666" stroke="#666666" points="8.5,-258 8.5,-258 145.5,-258 145.5,-258 8.5,-258"/>
<polygon fill="#666666" stroke="#666666" points="8.5,-243 8.5,-243 145.5,-243 145.5,-243 8.5,-243"/>
<polygon fill="none" stroke="#666666" points="8,-226 8,-286 145,-286 145,-226 8,-226"/>
</a>
</g>
</g>
<!-- Node3&#45;&gt;Node2 -->
<g id="edge2_Node000002_Node000003" class="edge">
<title>Node3&#45;&gt;Node2</title>
<g id="a_edge2_Node000002_Node000003"><a xlink:title=" ">
<path fill="none" stroke="orange" d="M76.5,-215.71C76.5,-197.12 76.5,-175.11 76.5,-157.15"/>
<polygon fill="orange" stroke="orange" points="73,-215.92 76.5,-225.92 80,-215.92 73,-215.92"/>
</a>
</g>
<text text-anchor="start" x="76.5" y="-200" font-family="Helvetica,sans-Serif" font-size="10.00" fill="grey"> &lt; T, T, MakeVec&lt; uchar,</text>
<text text-anchor="start" x="76.5" y="-189" font-family="Helvetica,sans-Serif" font-size="10.00" fill="grey"> VecTraits&lt; T &gt;::cn &gt;</text>
<text text-anchor="middle" x="138.5" y="-178" font-family="Helvetica,sans-Serif" font-size="10.00" fill="grey">::type &gt;</text>
</g>
</g>
</svg>
