<?xml version="1.0" encoding="UTF-8" standalone="no"?>
<!DOCTYPE svg PUBLIC "-//W3C//DTD SVG 1.1//EN"
 "http://www.w3.org/Graphics/SVG/1.1/DTD/svg11.dtd">
<!-- Generated by graphviz version 2.43.0 (0)
 -->
<!-- Title: cv::dnn_objdetect::object Pages: 1 -->
<svg width="311pt" height="294pt"
 viewBox="0.00 0.00 310.50 294.00" xmlns="http://www.w3.org/2000/svg" xmlns:xlink="http://www.w3.org/1999/xlink">
<g id="graph0" class="graph" transform="scale(1 1) rotate(0) translate(4 290)">
<title>cv::dnn_objdetect::object</title>
<!-- Node1 -->
<g id="Node000001" class="node">
<title>Node1</title>
<g id="a_Node000001"><a xlink:title="Structure to hold the details pertaining to a single bounding box.">
<polygon fill="#999999" stroke="transparent" points="165.5,-60 63.5,-60 63.5,0 165.5,0 165.5,-60"/>
<text text-anchor="start" x="68.5" y="-48" font-family="Helvetica,sans-Serif" font-size="10.00">cv::dnn_objdetect::</text>
<text text-anchor="start" x="99" y="-37" font-family="Helvetica,sans-Serif" font-size="10.00">object</text>
<text text-anchor="start" x="112.5" y="-22" font-family="Helvetica,sans-Serif" font-size="10.00"> </text>
<text text-anchor="start" x="112.5" y="-7" font-family="Helvetica,sans-Serif" font-size="10.00"> </text>
<polygon fill="#666666" stroke="#666666" points="63.5,-32 63.5,-32 165.5,-32 165.5,-32 63.5,-32"/>
<polygon fill="#666666" stroke="#666666" points="63.5,-17 63.5,-17 165.5,-17 165.5,-17 63.5,-17"/>
<polygon fill="none" stroke="#666666" points="63.5,0 63.5,-60 165.5,-60 165.5,0 63.5,0"/>
</a>
</g>
</g>
<!-- Node2 -->
<g id="Node000002" class="node">
<title>Node2</title>
<g id="a_Node000002"><a xlink:title=" ">
<polygon fill="white" stroke="transparent" points="23,-189 0,-189 0,-140 23,-140 23,-189"/>
<text text-anchor="start" x="5.5" y="-176.5" font-family="Helvetica,sans-Serif" font-size="10.00">int</text>
<text text-anchor="start" x="10" y="-161.5" font-family="Helvetica,sans-Serif" font-size="10.00"> </text>
<text text-anchor="start" x="10" y="-146.5" font-family="Helvetica,sans-Serif" font-size="10.00"> </text>
<polygon fill="#666666" stroke="#666666" points="0.5,-171.5 0.5,-171.5 23.5,-171.5 23.5,-171.5 0.5,-171.5"/>
<polygon fill="#666666" stroke="#666666" points="0.5,-156.5 0.5,-156.5 23.5,-156.5 23.5,-156.5 0.5,-156.5"/>
<polygon fill="none" stroke="#666666" points="0,-140 0,-189 23,-189 23,-140 0,-140"/>
</a>
</g>
</g>
<!-- Node2&#45;&gt;Node1 -->
<g id="edge1_Node000001_Node000002" class="edge">
<title>Node2&#45;&gt;Node1</title>
<g id="a_edge1_Node000001_Node000002"><a xlink:title=" ">
<path fill="none" stroke="#63b8ff" d="M9.59,-139.97C9.29,-121.49 11.67,-95.96 24.5,-78 31.65,-67.99 41.58,-59.95 52.25,-53.55"/>
<polygon fill="none" stroke="#63b8ff" points="52.54,-53.39 55.91,-47.01 63.09,-47.67 59.72,-54.05 52.54,-53.39"/>
</a>
</g>
<text text-anchor="middle" x="44.5" y="-114" font-family="Helvetica,sans-Serif" font-size="10.00" fill="grey"> +xmax</text>
<text text-anchor="middle" x="44.5" y="-103" font-family="Helvetica,sans-Serif" font-size="10.00" fill="grey">+xmin</text>
<text text-anchor="middle" x="44.5" y="-92" font-family="Helvetica,sans-Serif" font-size="10.00" fill="grey">+ymax</text>
<text text-anchor="middle" x="44.5" y="-81" font-family="Helvetica,sans-Serif" font-size="10.00" fill="grey">+ymin</text>
</g>
<!-- Node3 -->
<g id="Node000003" class="node">
<title>Node3</title>
<g id="a_Node000003"><a xlink:title=" ">
<polygon fill="white" stroke="transparent" points="94,-189 55,-189 55,-140 94,-140 94,-189"/>
<text text-anchor="start" x="60.5" y="-176.5" font-family="Helvetica,sans-Serif" font-size="10.00">size_t</text>
<text text-anchor="start" x="73" y="-161.5" font-family="Helvetica,sans-Serif" font-size="10.00"> </text>
<text text-anchor="start" x="73" y="-146.5" font-family="Helvetica,sans-Serif" font-size="10.00"> </text>
<polygon fill="#666666" stroke="#666666" points="55.5,-171.5 55.5,-171.5 94.5,-171.5 94.5,-171.5 55.5,-171.5"/>
<polygon fill="#666666" stroke="#666666" points="55.5,-156.5 55.5,-156.5 94.5,-156.5 94.5,-156.5 55.5,-156.5"/>
<polygon fill="none" stroke="#666666" points="55,-140 55,-189 94,-189 94,-140 55,-140"/>
</a>
</g>
</g>
<!-- Node3&#45;&gt;Node1 -->
<g id="edge2_Node000001_Node000003" class="edge">
<title>Node3&#45;&gt;Node1</title>
<g id="a_edge2_Node000001_Node000003"><a xlink:title=" ">
<path fill="none" stroke="#63b8ff" d="M70.63,-139.88C68.72,-122.27 68.18,-97.93 75.5,-78 76.44,-75.45 77.57,-72.95 78.87,-70.49"/>
<polygon fill="none" stroke="#63b8ff" points="78.97,-70.33 78.77,-63.12 85.35,-60.17 85.55,-67.38 78.97,-70.33"/>
</a>
</g>
<text text-anchor="middle" x="104" y="-97.5" font-family="Helvetica,sans-Serif" font-size="10.00" fill="grey"> +class_idx</text>
</g>
<!-- Node4 -->
<g id="Node000004" class="node">
<title>Node4</title>
<g id="a_Node000004"><a xlink:title=" ">
<polygon fill="white" stroke="transparent" points="184,-189 125,-189 125,-140 184,-140 184,-189"/>
<text text-anchor="start" x="130.5" y="-176.5" font-family="Helvetica,sans-Serif" font-size="10.00">std::string</text>
<text text-anchor="start" x="153" y="-161.5" font-family="Helvetica,sans-Serif" font-size="10.00"> </text>
<text text-anchor="start" x="153" y="-146.5" font-family="Helvetica,sans-Serif" font-size="10.00"> </text>
<polygon fill="#666666" stroke="#666666" points="125.5,-171.5 125.5,-171.5 184.5,-171.5 184.5,-171.5 125.5,-171.5"/>
<polygon fill="#666666" stroke="#666666" points="125.5,-156.5 125.5,-156.5 184.5,-156.5 184.5,-156.5 125.5,-156.5"/>
<polygon fill="none" stroke="#666666" points="125,-140 125,-189 184,-189 184,-140 125,-140"/>
</a>
</g>
</g>
<!-- Node4&#45;&gt;Node1 -->
<g id="edge3_Node000001_Node000004" class="edge">
<title>Node4&#45;&gt;Node1</title>
<g id="a_edge3_Node000001_Node000004"><a xlink:title=" ">
<path fill="none" stroke="#63b8ff" d="M149.15,-139.7C145.07,-122.44 139.07,-98.59 132.5,-78 131.83,-75.91 131.12,-73.77 130.38,-71.62"/>
<polygon fill="none" stroke="#63b8ff" points="130.32,-71.44 124.52,-67.15 126.25,-60.15 132.05,-64.44 130.32,-71.44"/>
</a>
</g>
<text text-anchor="middle" x="178" y="-97.5" font-family="Helvetica,sans-Serif" font-size="10.00" fill="grey"> +label_name</text>
</g>
<!-- Node5 -->
<g id="Node000005" class="node">
<title>Node5</title>
<g id="a_Node000005"><a xlink:title=" ">
<polygon fill="white" stroke="transparent" points="203.5,-286 105.5,-286 105.5,-226 203.5,-226 203.5,-286"/>
<text text-anchor="start" x="110.5" y="-274" font-family="Helvetica,sans-Serif" font-size="10.00">std::basic_string&lt;</text>
<text text-anchor="start" x="136" y="-263" font-family="Helvetica,sans-Serif" font-size="10.00"> Char &gt;</text>
<text text-anchor="start" x="152.5" y="-248" font-family="Helvetica,sans-Serif" font-size="10.00"> </text>
<text text-anchor="start" x="152.5" y="-233" font-family="Helvetica,sans-Serif" font-size="10.00"> </text>
<polygon fill="#666666" stroke="#666666" points="105.5,-258 105.5,-258 203.5,-258 203.5,-258 105.5,-258"/>
<polygon fill="#666666" stroke="#666666" points="105.5,-243 105.5,-243 203.5,-243 203.5,-243 105.5,-243"/>
<polygon fill="none" stroke="#666666" points="105.5,-226 105.5,-286 203.5,-286 203.5,-226 105.5,-226"/>
</a>
</g>
</g>
<!-- Node5&#45;&gt;Node4 -->
<g id="edge4_Node000004_Node000005" class="edge">
<title>Node5&#45;&gt;Node4</title>
<g id="a_edge4_Node000004_Node000005"><a xlink:title=" ">
<path fill="none" stroke="#63b8ff" d="M154.5,-215.41C154.5,-206.47 154.5,-197.25 154.5,-189.21"/>
<polygon fill="none" stroke="#63b8ff" points="151,-215.69 154.5,-225.69 158,-215.69 151,-215.69"/>
</a>
</g>
</g>
<!-- Node6 -->
<g id="Node000006" class="node">
<title>Node6</title>
<g id="a_Node000006"><a xlink:title=" ">
<polygon fill="white" stroke="transparent" points="268.5,-189 224.5,-189 224.5,-140 268.5,-140 268.5,-189"/>
<text text-anchor="start" x="229.5" y="-176.5" font-family="Helvetica,sans-Serif" font-size="10.00">double</text>
<text text-anchor="start" x="244.5" y="-161.5" font-family="Helvetica,sans-Serif" font-size="10.00"> </text>
<text text-anchor="start" x="244.5" y="-146.5" font-family="Helvetica,sans-Serif" font-size="10.00"> </text>
<polygon fill="#666666" stroke="#666666" points="224.5,-171.5 224.5,-171.5 268.5,-171.5 268.5,-171.5 224.5,-171.5"/>
<polygon fill="#666666" stroke="#666666" points="224.5,-156.5 224.5,-156.5 268.5,-156.5 268.5,-156.5 224.5,-156.5"/>
<polygon fill="none" stroke="#666666" points="224.5,-140 224.5,-189 268.5,-189 268.5,-140 224.5,-140"/>
</a>
</g>
</g>
<!-- Node6&#45;&gt;Node1 -->
<g id="edge5_Node000001_Node000006" class="edge">
<title>Node6&#45;&gt;Node1</title>
<g id="a_edge5_Node000001_Node000006"><a xlink:title=" ">
<path fill="none" stroke="#63b8ff" d="M243.35,-139.88C239.75,-121.11 232.17,-95.22 216.5,-78 205.68,-66.11 191.24,-57 176.64,-50.11"/>
<polygon fill="none" stroke="#63b8ff" points="176.51,-50.06 169.41,-51.33 165.51,-45.27 172.6,-44 176.51,-50.06"/>
</a>
</g>
<text text-anchor="middle" x="270.5" y="-97.5" font-family="Helvetica,sans-Serif" font-size="10.00" fill="grey"> +class_prob</text>
</g>
</g>
</svg>
