<?xml version="1.0" encoding="UTF-8" standalone="no"?>
<!DOCTYPE svg PUBLIC "-//W3C//DTD SVG 1.1//EN"
 "http://www.w3.org/Graphics/SVG/1.1/DTD/svg11.dtd">
<!-- Generated by graphviz version 2.43.0 (0)
 -->
<!-- Title: cv::viz::WText3D Pages: 1 -->
<svg width="113pt" height="497pt"
 viewBox="0.00 0.00 113.00 497.00" xmlns="http://www.w3.org/2000/svg" xmlns:xlink="http://www.w3.org/1999/xlink">
<g id="graph0" class="graph" transform="scale(1 1) rotate(0) translate(4 493)">
<title>cv::viz::WText3D</title>
<!-- Node1 -->
<g id="Node000001" class="node">
<title>Node1</title>
<g id="a_Node000001"><a xlink:title="This 3D Widget represents 3D text. The text always faces the camera.">
<polygon fill="#999999" stroke="transparent" points="98,-79 7,-79 7,0 98,0 98,-79"/>
<text text-anchor="start" x="12.5" y="-66.5" font-family="Helvetica,sans-Serif" font-size="10.00">cv::viz::WText3D</text>
<text text-anchor="start" x="51" y="-51.5" font-family="Helvetica,sans-Serif" font-size="10.00"> </text>
<text text-anchor="start" x="16" y="-36.5" font-family="Helvetica,sans-Serif" font-size="10.00">+</text>
<text text-anchor="start" x="33.5" y="-36.5" font-family="Helvetica,sans-Serif" font-size="10.00">WText3D()</text>
<text text-anchor="start" x="16" y="-21.5" font-family="Helvetica,sans-Serif" font-size="10.00">+</text>
<text text-anchor="start" x="33.5" y="-21.5" font-family="Helvetica,sans-Serif" font-size="10.00">getText()</text>
<text text-anchor="start" x="16" y="-6.5" font-family="Helvetica,sans-Serif" font-size="10.00">+</text>
<text text-anchor="start" x="33.5" y="-6.5" font-family="Helvetica,sans-Serif" font-size="10.00">setText()</text>
<polygon fill="#666666" stroke="#666666" points="7.5,-61.5 7.5,-61.5 98.5,-61.5 98.5,-61.5 7.5,-61.5"/>
<polygon fill="#666666" stroke="#666666" points="7.5,-46.5 7.5,-46.5 98.5,-46.5 98.5,-46.5 7.5,-46.5"/>
<polygon fill="none" stroke="#666666" points="7,0 7,-79 98,-79 98,0 7,0"/>
</a>
</g>
</g>
<!-- Node2 -->
<g id="Node000002" class="node">
<title>Node2</title>
<g id="a_Node000002"><a xlink:href="../../d9/d26/classcv_1_1viz_1_1Widget3D.html" target="_top" xlink:title="Base class of all 3D widgets.">
<polygon fill="white" stroke="transparent" points="105,-239 0,-239 0,-115 105,-115 105,-239"/>
<text text-anchor="start" x="10.5" y="-227" font-family="Helvetica,sans-Serif" font-size="10.00">cv::viz::Widget3D</text>
<text text-anchor="start" x="51" y="-212" font-family="Helvetica,sans-Serif" font-size="10.00"> </text>
<text text-anchor="start" x="4.5" y="-197" font-family="Helvetica,sans-Serif" font-size="10.00">+</text>
<text text-anchor="start" x="17.5" y="-197" font-family="Helvetica,sans-Serif" font-size="10.00">Widget3D()</text>
<text text-anchor="start" x="4.5" y="-182" font-family="Helvetica,sans-Serif" font-size="10.00">+</text>
<text text-anchor="start" x="17.5" y="-182" font-family="Helvetica,sans-Serif" font-size="10.00">applyTransform()</text>
<text text-anchor="start" x="4.5" y="-167" font-family="Helvetica,sans-Serif" font-size="10.00">+</text>
<text text-anchor="start" x="17.5" y="-167" font-family="Helvetica,sans-Serif" font-size="10.00">getPose()</text>
<text text-anchor="start" x="4.5" y="-152" font-family="Helvetica,sans-Serif" font-size="10.00">+</text>
<text text-anchor="start" x="17.5" y="-152" font-family="Helvetica,sans-Serif" font-size="10.00">setColor()</text>
<text text-anchor="start" x="4.5" y="-137" font-family="Helvetica,sans-Serif" font-size="10.00">+</text>
<text text-anchor="start" x="17.5" y="-137" font-family="Helvetica,sans-Serif" font-size="10.00">setPose()</text>
<text text-anchor="start" x="4.5" y="-122" font-family="Helvetica,sans-Serif" font-size="10.00">+</text>
<text text-anchor="start" x="17.5" y="-122" font-family="Helvetica,sans-Serif" font-size="10.00">updatePose()</text>
<polygon fill="#666666" stroke="#666666" points="0.5,-222 0.5,-222 105.5,-222 105.5,-222 0.5,-222"/>
<polygon fill="#666666" stroke="#666666" points="0.5,-207 0.5,-207 105.5,-207 105.5,-207 0.5,-207"/>
<polygon fill="none" stroke="#666666" points="0,-115 0,-239 105,-239 105,-115 0,-115"/>
</a>
</g>
</g>
<!-- Node2&#45;&gt;Node1 -->
<g id="edge1_Node000001_Node000002" class="edge">
<title>Node2&#45;&gt;Node1</title>
<g id="a_edge1_Node000001_Node000002"><a xlink:title=" ">
<path fill="none" stroke="#63b8ff" d="M52.5,-104.93C52.5,-96.02 52.5,-87.19 52.5,-79.05"/>
<polygon fill="none" stroke="#63b8ff" points="49,-104.99 52.5,-114.99 56,-104.99 49,-104.99"/>
</a>
</g>
</g>
<!-- Node3 -->
<g id="Node000003" class="node">
<title>Node3</title>
<g id="a_Node000003"><a xlink:href="../../d7/dcd/classcv_1_1viz_1_1Widget.html" target="_top" xlink:title="Base class of all widgets. Widget is implicitly shared.">
<polygon fill="white" stroke="transparent" points="98.5,-489 6.5,-489 6.5,-275 98.5,-275 98.5,-489"/>
<text text-anchor="start" x="16.5" y="-477" font-family="Helvetica,sans-Serif" font-size="10.00">cv::viz::Widget</text>
<text text-anchor="start" x="50.5" y="-462" font-family="Helvetica,sans-Serif" font-size="10.00"> </text>
<text text-anchor="start" x="10.5" y="-447" font-family="Helvetica,sans-Serif" font-size="10.00">+</text>
<text text-anchor="start" x="23.5" y="-447" font-family="Helvetica,sans-Serif" font-size="10.00">Widget()</text>
<text text-anchor="start" x="10.5" y="-432" font-family="Helvetica,sans-Serif" font-size="10.00">+</text>
<text text-anchor="start" x="23.5" y="-432" font-family="Helvetica,sans-Serif" font-size="10.00">Widget()</text>
<text text-anchor="start" x="10.5" y="-417" font-family="Helvetica,sans-Serif" font-size="10.00">+</text>
<text text-anchor="start" x="23.5" y="-417" font-family="Helvetica,sans-Serif" font-size="10.00">~Widget()</text>
<text text-anchor="start" x="10.5" y="-402" font-family="Helvetica,sans-Serif" font-size="10.00">+</text>
<text text-anchor="start" x="23.5" y="-402" font-family="Helvetica,sans-Serif" font-size="10.00">cast()</text>
<text text-anchor="start" x="10.5" y="-387" font-family="Helvetica,sans-Serif" font-size="10.00">+</text>
<text text-anchor="start" x="23.5" y="-387" font-family="Helvetica,sans-Serif" font-size="10.00">cast()</text>
<text text-anchor="start" x="10.5" y="-372" font-family="Helvetica,sans-Serif" font-size="10.00">+</text>
<text text-anchor="start" x="23.5" y="-372" font-family="Helvetica,sans-Serif" font-size="10.00">cast()</text>
<text text-anchor="start" x="10.5" y="-357" font-family="Helvetica,sans-Serif" font-size="10.00">+</text>
<text text-anchor="start" x="23.5" y="-357" font-family="Helvetica,sans-Serif" font-size="10.00">cast()</text>
<text text-anchor="start" x="10.5" y="-342" font-family="Helvetica,sans-Serif" font-size="10.00">+</text>
<text text-anchor="start" x="23.5" y="-342" font-family="Helvetica,sans-Serif" font-size="10.00">cast()</text>
<text text-anchor="start" x="10.5" y="-327" font-family="Helvetica,sans-Serif" font-size="10.00">+</text>
<text text-anchor="start" x="23.5" y="-327" font-family="Helvetica,sans-Serif" font-size="10.00">cast()</text>
<text text-anchor="start" x="10.5" y="-312" font-family="Helvetica,sans-Serif" font-size="10.00">+</text>
<text text-anchor="start" x="23.5" y="-312" font-family="Helvetica,sans-Serif" font-size="10.00">cast()</text>
<text text-anchor="start" x="23.5" y="-297" font-family="Helvetica,sans-Serif" font-size="10.00">and 24 more...</text>
<text text-anchor="start" x="10.5" y="-282" font-family="Helvetica,sans-Serif" font-size="10.00">+</text>
<text text-anchor="start" x="23.5" y="-282" font-family="Helvetica,sans-Serif" font-size="10.00">fromPlyFile()</text>
<polygon fill="#666666" stroke="#666666" points="6.5,-472 6.5,-472 98.5,-472 98.5,-472 6.5,-472"/>
<polygon fill="#666666" stroke="#666666" points="6.5,-457 6.5,-457 98.5,-457 98.5,-457 6.5,-457"/>
<polygon fill="none" stroke="#666666" points="6.5,-275 6.5,-489 98.5,-489 98.5,-275 6.5,-275"/>
</a>
</g>
</g>
<!-- Node3&#45;&gt;Node2 -->
<g id="edge2_Node000002_Node000003" class="edge">
<title>Node3&#45;&gt;Node2</title>
<g id="a_edge2_Node000002_Node000003"><a xlink:title=" ">
<path fill="none" stroke="#63b8ff" d="M52.5,-264.5C52.5,-255.82 52.5,-247.29 52.5,-239.17"/>
<polygon fill="none" stroke="#63b8ff" points="49,-264.74 52.5,-274.74 56,-264.74 49,-264.74"/>
</a>
</g>
</g>
</g>
</svg>
