<?xml version="1.0" encoding="UTF-8" standalone="no"?>
<!DOCTYPE svg PUBLIC "-//W3C//DTD SVG 1.1//EN"
 "http://www.w3.org/Graphics/SVG/1.1/DTD/svg11.dtd">
<!-- Generated by graphviz version 2.43.0 (0)
 -->
<!-- Title: cv::videostab::FromFileMotionReader Pages: 1 -->
<svg width="181pt" height="254pt"
 viewBox="0.00 0.00 181.00 254.00" xmlns="http://www.w3.org/2000/svg" xmlns:xlink="http://www.w3.org/1999/xlink">
<g id="graph0" class="graph" transform="scale(1 1) rotate(0) translate(4 250)">
<title>cv::videostab::FromFileMotionReader</title>
<!-- Node1 -->
<g id="Node000001" class="node">
<title>Node1</title>
<g id="a_Node000001"><a xlink:title=" ">
<polygon fill="#999999" stroke="transparent" points="165,-75 8,-75 8,0 165,0 165,-75"/>
<text text-anchor="start" x="13.5" y="-62.5" font-family="Helvetica,sans-Serif" font-size="10.00">cv::videostab::FromFileMotion</text>
<text text-anchor="start" x="69.5" y="-51.5" font-family="Helvetica,sans-Serif" font-size="10.00">Reader</text>
<text text-anchor="start" x="85" y="-36.5" font-family="Helvetica,sans-Serif" font-size="10.00"> </text>
<text text-anchor="start" x="17" y="-21.5" font-family="Helvetica,sans-Serif" font-size="10.00">+</text>
<text text-anchor="start" x="34.5" y="-21.5" font-family="Helvetica,sans-Serif" font-size="10.00">FromFileMotionReader()</text>
<text text-anchor="start" x="17" y="-6.5" font-family="Helvetica,sans-Serif" font-size="10.00">+</text>
<text text-anchor="start" x="34.5" y="-6.5" font-family="Helvetica,sans-Serif" font-size="10.00">estimate()</text>
<polygon fill="#666666" stroke="#666666" points="8.5,-46.5 8.5,-46.5 165.5,-46.5 165.5,-46.5 8.5,-46.5"/>
<polygon fill="#666666" stroke="#666666" points="8.5,-31.5 8.5,-31.5 165.5,-31.5 165.5,-31.5 8.5,-31.5"/>
<polygon fill="none" stroke="#666666" points="8,0 8,-75 165,-75 165,0 8,0"/>
</a>
</g>
</g>
<!-- Node2 -->
<g id="Node000002" class="node">
<title>Node2</title>
<g id="a_Node000002"><a xlink:href="../../d4/dd1/classcv_1_1videostab_1_1ImageMotionEstimatorBase.html" target="_top" xlink:title="Base class for global 2D motion estimation methods which take frames as input.">
<polygon fill="white" stroke="transparent" points="173,-246 0,-246 0,-111 173,-111 173,-246"/>
<text text-anchor="start" x="19" y="-233.5" font-family="Helvetica,sans-Serif" font-size="10.00">cv::videostab::ImageMotion</text>
<text text-anchor="start" x="51" y="-222.5" font-family="Helvetica,sans-Serif" font-size="10.00">EstimatorBase</text>
<text text-anchor="start" x="85" y="-207.5" font-family="Helvetica,sans-Serif" font-size="10.00"> </text>
<text text-anchor="start" x="4.5" y="-192.5" font-family="Helvetica,sans-Serif" font-size="10.00">+</text>
<text text-anchor="start" x="17.5" y="-192.5" font-family="Helvetica,sans-Serif" font-size="10.00">~ImageMotionEstimatorBase()</text>
<text text-anchor="start" x="4.5" y="-177.5" font-family="Helvetica,sans-Serif" font-size="10.00">+</text>
<text text-anchor="start" x="17.5" y="-177.5" font-family="Helvetica,sans-Serif" font-size="10.00">estimate()</text>
<text text-anchor="start" x="4.5" y="-162.5" font-family="Helvetica,sans-Serif" font-size="10.00">+</text>
<text text-anchor="start" x="17.5" y="-162.5" font-family="Helvetica,sans-Serif" font-size="10.00">motionModel()</text>
<text text-anchor="start" x="4.5" y="-147.5" font-family="Helvetica,sans-Serif" font-size="10.00">+</text>
<text text-anchor="start" x="17.5" y="-147.5" font-family="Helvetica,sans-Serif" font-size="10.00">setFrameMask()</text>
<text text-anchor="start" x="4.5" y="-132.5" font-family="Helvetica,sans-Serif" font-size="10.00">+</text>
<text text-anchor="start" x="17.5" y="-132.5" font-family="Helvetica,sans-Serif" font-size="10.00">setMotionModel()</text>
<text text-anchor="start" x="4.5" y="-117.5" font-family="Helvetica,sans-Serif" font-size="10.00">#</text>
<text text-anchor="start" x="17.5" y="-117.5" font-family="Helvetica,sans-Serif" font-size="10.00">ImageMotionEstimatorBase()</text>
<polygon fill="#666666" stroke="#666666" points="0.5,-217.5 0.5,-217.5 173.5,-217.5 173.5,-217.5 0.5,-217.5"/>
<polygon fill="#666666" stroke="#666666" points="0.5,-202.5 0.5,-202.5 173.5,-202.5 173.5,-202.5 0.5,-202.5"/>
<polygon fill="none" stroke="#666666" points="0,-111 0,-246 173,-246 173,-111 0,-111"/>
</a>
</g>
</g>
<!-- Node2&#45;&gt;Node1 -->
<g id="edge1_Node000001_Node000002" class="edge">
<title>Node2&#45;&gt;Node1</title>
<g id="a_edge1_Node000001_Node000002"><a xlink:title=" ">
<path fill="none" stroke="#63b8ff" d="M86.5,-100.8C86.5,-91.92 86.5,-83.21 86.5,-75.24"/>
<polygon fill="none" stroke="#63b8ff" points="83,-100.85 86.5,-110.85 90,-100.85 83,-100.85"/>
</a>
</g>
</g>
</g>
</svg>
