<?xml version="1.0" encoding="UTF-8" standalone="no"?>
<!DOCTYPE svg PUBLIC "-//W3C//DTD SVG 1.1//EN"
 "http://www.w3.org/Graphics/SVG/1.1/DTD/svg11.dtd">
<!-- Generated by graphviz version 2.43.0 (0)
 -->
<!-- Title: cv::cudev::LutPtr&lt; SrcPtr, TablePtr &gt; Pages: 1 -->
<svg width="116pt" height="164pt"
 viewBox="0.00 0.00 115.50 164.00" xmlns="http://www.w3.org/2000/svg" xmlns:xlink="http://www.w3.org/1999/xlink">
<g id="graph0" class="graph" transform="scale(1 1) rotate(0) translate(4 160)">
<title>cv::cudev::LutPtr&lt; SrcPtr, TablePtr &gt;</title>
<!-- Node1 -->
<g id="Node000001" class="node">
<title>Node1</title>
<g id="a_Node000001"><a xlink:title=" ">
<polygon fill="#999999" stroke="transparent" points="99.5,-60 1.5,-60 1.5,0 99.5,0 99.5,-60"/>
<text text-anchor="start" x="6.5" y="-48" font-family="Helvetica,sans-Serif" font-size="10.00">cv::cudev::LutPtr&lt;</text>
<text text-anchor="start" x="6.5" y="-37" font-family="Helvetica,sans-Serif" font-size="10.00"> SrcPtr, TablePtr &gt;</text>
<text text-anchor="start" x="48.5" y="-22" font-family="Helvetica,sans-Serif" font-size="10.00"> </text>
<text text-anchor="start" x="10.5" y="-7" font-family="Helvetica,sans-Serif" font-size="10.00">+</text>
<text text-anchor="start" x="28.5" y="-7" font-family="Helvetica,sans-Serif" font-size="10.00">operator()()</text>
<polygon fill="#666666" stroke="#666666" points="1.5,-32 1.5,-32 99.5,-32 99.5,-32 1.5,-32"/>
<polygon fill="#666666" stroke="#666666" points="1.5,-17 1.5,-17 99.5,-17 99.5,-17 1.5,-17"/>
<polygon fill="none" stroke="#666666" points="1.5,0 1.5,-60 99.5,-60 99.5,0 1.5,0"/>
</a>
</g>
</g>
<!-- Node2 -->
<g id="Node000002" class="node">
<title>Node2</title>
<g id="a_Node000002"><a xlink:title=" ">
<polygon fill="white" stroke="transparent" points="39,-156 0,-156 0,-107 39,-107 39,-156"/>
<text text-anchor="start" x="5.5" y="-143.5" font-family="Helvetica,sans-Serif" font-size="10.00">SrcPtr</text>
<text text-anchor="start" x="18" y="-128.5" font-family="Helvetica,sans-Serif" font-size="10.00"> </text>
<text text-anchor="start" x="18" y="-113.5" font-family="Helvetica,sans-Serif" font-size="10.00"> </text>
<polygon fill="#666666" stroke="#666666" points="0.5,-138.5 0.5,-138.5 39.5,-138.5 39.5,-138.5 0.5,-138.5"/>
<polygon fill="#666666" stroke="#666666" points="0.5,-123.5 0.5,-123.5 39.5,-123.5 39.5,-123.5 0.5,-123.5"/>
<polygon fill="none" stroke="#666666" points="0,-107 0,-156 39,-156 39,-107 0,-107"/>
</a>
</g>
</g>
<!-- Node2&#45;&gt;Node1 -->
<g id="edge1_Node000001_Node000002" class="edge">
<title>Node2&#45;&gt;Node1</title>
<g id="a_edge1_Node000001_Node000002"><a xlink:title=" ">
<path fill="none" stroke="#63b8ff" d="M25.97,-106.9C28.53,-97.84 31.56,-87.41 34.5,-78 35.16,-75.9 35.84,-73.75 36.54,-71.59"/>
<polygon fill="none" stroke="#63b8ff" points="36.6,-71.4 34.69,-64.45 40.37,-60.01 42.29,-66.96 36.6,-71.4"/>
</a>
</g>
<text text-anchor="middle" x="47.5" y="-81" font-family="Helvetica,sans-Serif" font-size="10.00" fill="grey"> +src</text>
</g>
<!-- Node3 -->
<g id="Node000003" class="node">
<title>Node3</title>
<g id="a_Node000003"><a xlink:title=" ">
<polygon fill="white" stroke="transparent" points="107.5,-156 57.5,-156 57.5,-107 107.5,-107 107.5,-156"/>
<text text-anchor="start" x="62.5" y="-143.5" font-family="Helvetica,sans-Serif" font-size="10.00">TablePtr</text>
<text text-anchor="start" x="80.5" y="-128.5" font-family="Helvetica,sans-Serif" font-size="10.00"> </text>
<text text-anchor="start" x="80.5" y="-113.5" font-family="Helvetica,sans-Serif" font-size="10.00"> </text>
<polygon fill="#666666" stroke="#666666" points="57.5,-138.5 57.5,-138.5 107.5,-138.5 107.5,-138.5 57.5,-138.5"/>
<polygon fill="#666666" stroke="#666666" points="57.5,-123.5 57.5,-123.5 107.5,-123.5 107.5,-123.5 57.5,-123.5"/>
<polygon fill="none" stroke="#666666" points="57.5,-107 57.5,-156 107.5,-156 107.5,-107 57.5,-107"/>
</a>
</g>
</g>
<!-- Node3&#45;&gt;Node1 -->
<g id="edge2_Node000001_Node000003" class="edge">
<title>Node3&#45;&gt;Node1</title>
<g id="a_edge2_Node000001_Node000003"><a xlink:title=" ">
<path fill="none" stroke="#63b8ff" d="M74.92,-106.92C71.53,-96.4 67.45,-83.71 63.6,-71.73"/>
<polygon fill="none" stroke="#63b8ff" points="63.53,-71.53 57.89,-67.04 59.86,-60.1 65.5,-64.59 63.53,-71.53"/>
</a>
</g>
<text text-anchor="middle" x="80" y="-81" font-family="Helvetica,sans-Serif" font-size="10.00" fill="grey"> +tbl</text>
</g>
</g>
</svg>
