<?xml version="1.0" encoding="UTF-8" standalone="no"?>
<!DOCTYPE svg PUBLIC "-//W3C//DTD SVG 1.1//EN"
 "http://www.w3.org/Graphics/SVG/1.1/DTD/svg11.dtd">
<!-- Generated by graphviz version 2.43.0 (0)
 -->
<!-- Title: cv::bioinspired::RetinaParameters::OPLandIplParvoParameters Pages: 1 -->
<svg width="320pt" height="241pt"
 viewBox="0.00 0.00 320.00 241.00" xmlns="http://www.w3.org/2000/svg" xmlns:xlink="http://www.w3.org/1999/xlink">
<g id="graph0" class="graph" transform="scale(1 1) rotate(0) translate(4 237)">
<title>cv::bioinspired::RetinaParameters::OPLandIplParvoParameters</title>
<!-- Node1 -->
<g id="Node000001" class="node">
<title>Node1</title>
<g id="a_Node000001"><a xlink:title="Outer Plexiform Layer (OPL) and Inner Plexiform Layer Parvocellular (IplParvo) parameters.">
<polygon fill="#999999" stroke="transparent" points="174,-60 0,-60 0,0 174,0 174,-60"/>
<text text-anchor="start" x="5" y="-48" font-family="Helvetica,sans-Serif" font-size="10.00">cv::bioinspired::RetinaParameters</text>
<text text-anchor="start" x="18" y="-37" font-family="Helvetica,sans-Serif" font-size="10.00">::OPLandIplParvoParameters</text>
<text text-anchor="start" x="85" y="-22" font-family="Helvetica,sans-Serif" font-size="10.00"> </text>
<text text-anchor="start" x="7.5" y="-7" font-family="Helvetica,sans-Serif" font-size="10.00">+</text>
<text text-anchor="start" x="24" y="-7" font-family="Helvetica,sans-Serif" font-size="10.00">OPLandIplParvoParameters()</text>
<polygon fill="#666666" stroke="#666666" points="0,-32 0,-32 174,-32 174,-32 0,-32"/>
<polygon fill="#666666" stroke="#666666" points="0,-17 0,-17 174,-17 174,-17 0,-17"/>
<polygon fill="none" stroke="#666666" points="0,0 0,-60 174,-60 174,0 0,0"/>
</a>
</g>
</g>
<!-- Node2 -->
<g id="Node000002" class="node">
<title>Node2</title>
<g id="a_Node000002"><a xlink:title=" ">
<polygon fill="white" stroke="transparent" points="46,-233 14,-233 14,-184 46,-184 46,-233"/>
<text text-anchor="start" x="19" y="-220.5" font-family="Helvetica,sans-Serif" font-size="10.00">bool</text>
<text text-anchor="start" x="28" y="-205.5" font-family="Helvetica,sans-Serif" font-size="10.00"> </text>
<text text-anchor="start" x="28" y="-190.5" font-family="Helvetica,sans-Serif" font-size="10.00"> </text>
<polygon fill="#666666" stroke="#666666" points="14,-215.5 14,-215.5 46,-215.5 46,-215.5 14,-215.5"/>
<polygon fill="#666666" stroke="#666666" points="14,-200.5 14,-200.5 46,-200.5 46,-200.5 14,-200.5"/>
<polygon fill="none" stroke="#666666" points="14,-184 14,-233 46,-233 46,-184 14,-184"/>
</a>
</g>
</g>
<!-- Node2&#45;&gt;Node1 -->
<g id="edge1_Node000001_Node000002" class="edge">
<title>Node2&#45;&gt;Node1</title>
<g id="a_edge1_Node000001_Node000002"><a xlink:title=" ">
<path fill="none" stroke="#63b8ff" d="M24.48,-183.74C19.45,-156.73 15,-111.97 31,-78 32.4,-75.03 34.08,-72.19 35.98,-69.47"/>
<polygon fill="none" stroke="#63b8ff" points="36.02,-69.42 36.77,-62.25 43.68,-60.18 42.93,-67.35 36.02,-69.42"/>
</a>
</g>
<text text-anchor="middle" x="76.5" y="-125" font-family="Helvetica,sans-Serif" font-size="10.00" fill="grey"> +colorMode</text>
<text text-anchor="middle" x="76.5" y="-114" font-family="Helvetica,sans-Serif" font-size="10.00" fill="grey">+normaliseOutput</text>
</g>
<!-- Node3 -->
<g id="Node000003" class="node">
<title>Node3</title>
<g id="a_Node000003"><a xlink:title=" ">
<polygon fill="white" stroke="transparent" points="160,-233 128,-233 128,-184 160,-184 160,-233"/>
<text text-anchor="start" x="133" y="-220.5" font-family="Helvetica,sans-Serif" font-size="10.00">float</text>
<text text-anchor="start" x="142" y="-205.5" font-family="Helvetica,sans-Serif" font-size="10.00"> </text>
<text text-anchor="start" x="142" y="-190.5" font-family="Helvetica,sans-Serif" font-size="10.00"> </text>
<polygon fill="#666666" stroke="#666666" points="128,-215.5 128,-215.5 160,-215.5 160,-215.5 128,-215.5"/>
<polygon fill="#666666" stroke="#666666" points="128,-200.5 128,-200.5 160,-200.5 160,-200.5 128,-200.5"/>
<polygon fill="none" stroke="#666666" points="128,-184 128,-233 160,-233 160,-184 128,-184"/>
</a>
</g>
</g>
<!-- Node3&#45;&gt;Node1 -->
<g id="edge2_Node000001_Node000003" class="edge">
<title>Node3&#45;&gt;Node1</title>
<g id="a_edge2_Node000001_Node000003"><a xlink:title=" ">
<path fill="none" stroke="#63b8ff" d="M143.27,-183.64C141.72,-156.92 136.89,-112.81 122,-78 120.89,-75.4 119.6,-72.8 118.19,-70.25"/>
<polygon fill="none" stroke="#63b8ff" points="118.18,-70.23 111.62,-67.24 111.86,-60.04 118.42,-63.03 118.18,-70.23"/>
</a>
</g>
<text text-anchor="middle" x="226.5" y="-158" font-family="Helvetica,sans-Serif" font-size="10.00" fill="grey"> +ganglionCellsSensitivity</text>
<text text-anchor="middle" x="226.5" y="-147" font-family="Helvetica,sans-Serif" font-size="10.00" fill="grey">+hcellsSpatialConstant</text>
<text text-anchor="middle" x="226.5" y="-136" font-family="Helvetica,sans-Serif" font-size="10.00" fill="grey">+hcellsTemporalConstant</text>
<text text-anchor="middle" x="226.5" y="-125" font-family="Helvetica,sans-Serif" font-size="10.00" fill="grey">+horizontalCellsGain</text>
<text text-anchor="start" x="141" y="-114" font-family="Helvetica,sans-Serif" font-size="10.00" fill="grey">+photoreceptorsLocalAdaptation</text>
<text text-anchor="middle" x="226.5" y="-103" font-family="Helvetica,sans-Serif" font-size="10.00" fill="grey">Sensitivity</text>
<text text-anchor="middle" x="226.5" y="-92" font-family="Helvetica,sans-Serif" font-size="10.00" fill="grey">+photoreceptorsSpatialConstant</text>
<text text-anchor="middle" x="226.5" y="-81" font-family="Helvetica,sans-Serif" font-size="10.00" fill="grey">+photoreceptorsTemporalConstant</text>
</g>
</g>
</svg>
