<?xml version="1.0" encoding="UTF-8" standalone="no"?>
<!DOCTYPE svg PUBLIC "-//W3C//DTD SVG 1.1//EN"
 "http://www.w3.org/Graphics/SVG/1.1/DTD/svg11.dtd">
<!-- Generated by graphviz version 2.43.0 (0)
 -->
<!-- Title: cv::face::CParams Pages: 1 -->
<svg width="573pt" height="507pt"
 viewBox="0.00 0.00 572.50 507.00" xmlns="http://www.w3.org/2000/svg" xmlns:xlink="http://www.w3.org/1999/xlink">
<g id="graph0" class="graph" transform="scale(1 1) rotate(0) translate(4 503)">
<title>cv::face::CParams</title>
<!-- Node1 -->
<g id="Node000001" class="node">
<title>Node1</title>
<g id="a_Node000001"><a xlink:title=" ">
<polygon fill="#999999" stroke="transparent" points="262.5,-49 165.5,-49 165.5,0 262.5,0 262.5,-49"/>
<text text-anchor="start" x="171" y="-36.5" font-family="Helvetica,sans-Serif" font-size="10.00">cv::face::CParams</text>
<text text-anchor="start" x="212.5" y="-21.5" font-family="Helvetica,sans-Serif" font-size="10.00"> </text>
<text text-anchor="start" x="176" y="-6.5" font-family="Helvetica,sans-Serif" font-size="10.00">+</text>
<text text-anchor="start" x="195" y="-6.5" font-family="Helvetica,sans-Serif" font-size="10.00">CParams()</text>
<polygon fill="#666666" stroke="#666666" points="166,-31.5 166,-31.5 263,-31.5 263,-31.5 166,-31.5"/>
<polygon fill="#666666" stroke="#666666" points="166,-16.5 166,-16.5 263,-16.5 263,-16.5 166,-16.5"/>
<polygon fill="none" stroke="#666666" points="165.5,0 165.5,-49 262.5,-49 262.5,0 165.5,0"/>
</a>
</g>
</g>
<!-- Node2 -->
<g id="Node000002" class="node">
<title>Node2</title>
<g id="a_Node000002"><a xlink:title=" ">
<polygon fill="white" stroke="transparent" points="78.5,-268.5 19.5,-268.5 19.5,-219.5 78.5,-219.5 78.5,-268.5"/>
<text text-anchor="start" x="25" y="-256" font-family="Helvetica,sans-Serif" font-size="10.00">std::string</text>
<text text-anchor="start" x="47.5" y="-241" font-family="Helvetica,sans-Serif" font-size="10.00"> </text>
<text text-anchor="start" x="47.5" y="-226" font-family="Helvetica,sans-Serif" font-size="10.00"> </text>
<polygon fill="#666666" stroke="#666666" points="20,-251 20,-251 79,-251 79,-251 20,-251"/>
<polygon fill="#666666" stroke="#666666" points="20,-236 20,-236 79,-236 79,-236 20,-236"/>
<polygon fill="none" stroke="#666666" points="19.5,-219.5 19.5,-268.5 78.5,-268.5 78.5,-219.5 19.5,-219.5"/>
</a>
</g>
</g>
<!-- Node2&#45;&gt;Node1 -->
<g id="edge1_Node000001_Node000002" class="edge">
<title>Node2&#45;&gt;Node1</title>
<g id="a_edge1_Node000001_Node000002"><a xlink:title=" ">
<path fill="none" stroke="#63b8ff" d="M45.52,-219.25C41.49,-182.06 39.58,-109.9 77,-67 95.98,-45.24 125.96,-34.68 153.04,-29.64"/>
<polygon fill="none" stroke="#63b8ff" points="153.38,-29.59 158.67,-24.69 165.23,-27.69 159.93,-32.59 153.38,-29.59"/>
</a>
</g>
<text text-anchor="middle" x="103" y="-75.5" font-family="Helvetica,sans-Serif" font-size="10.00" fill="grey"> +cascade</text>
</g>
<!-- Node3 -->
<g id="Node000003" class="node">
<title>Node3</title>
<g id="a_Node000003"><a xlink:title=" ">
<polygon fill="white" stroke="transparent" points="98,-499 0,-499 0,-439 98,-439 98,-499"/>
<text text-anchor="start" x="5" y="-487" font-family="Helvetica,sans-Serif" font-size="10.00">std::basic_string&lt;</text>
<text text-anchor="start" x="30.5" y="-476" font-family="Helvetica,sans-Serif" font-size="10.00"> Char &gt;</text>
<text text-anchor="start" x="47" y="-461" font-family="Helvetica,sans-Serif" font-size="10.00"> </text>
<text text-anchor="start" x="47" y="-446" font-family="Helvetica,sans-Serif" font-size="10.00"> </text>
<polygon fill="#666666" stroke="#666666" points="0,-471 0,-471 98,-471 98,-471 0,-471"/>
<polygon fill="#666666" stroke="#666666" points="0,-456 0,-456 98,-456 98,-456 0,-456"/>
<polygon fill="none" stroke="#666666" points="0,-439 0,-499 98,-499 98,-439 0,-439"/>
</a>
</g>
</g>
<!-- Node3&#45;&gt;Node2 -->
<g id="edge2_Node000002_Node000003" class="edge">
<title>Node3&#45;&gt;Node2</title>
<g id="a_edge2_Node000002_Node000003"><a xlink:title=" ">
<path fill="none" stroke="#63b8ff" d="M49,-428.58C49,-382.25 49,-306.86 49,-268.71"/>
<polygon fill="none" stroke="#63b8ff" points="45.5,-428.85 49,-438.85 52.5,-428.85 45.5,-428.85"/>
</a>
</g>
</g>
<!-- Node4 -->
<g id="Node000004" class="node">
<title>Node4</title>
<g id="a_Node000004"><a xlink:title=" ">
<polygon fill="white" stroke="transparent" points="146,-268.5 102,-268.5 102,-219.5 146,-219.5 146,-268.5"/>
<text text-anchor="start" x="107" y="-256" font-family="Helvetica,sans-Serif" font-size="10.00">double</text>
<text text-anchor="start" x="122" y="-241" font-family="Helvetica,sans-Serif" font-size="10.00"> </text>
<text text-anchor="start" x="122" y="-226" font-family="Helvetica,sans-Serif" font-size="10.00"> </text>
<polygon fill="#666666" stroke="#666666" points="102,-251 102,-251 146,-251 146,-251 102,-251"/>
<polygon fill="#666666" stroke="#666666" points="102,-236 102,-236 146,-236 146,-236 102,-236"/>
<polygon fill="none" stroke="#666666" points="102,-219.5 102,-268.5 146,-268.5 146,-219.5 102,-219.5"/>
</a>
</g>
</g>
<!-- Node4&#45;&gt;Node1 -->
<g id="edge3_Node000001_Node000004" class="edge">
<title>Node4&#45;&gt;Node1</title>
<g id="a_edge3_Node000001_Node000004"><a xlink:title=" ">
<path fill="none" stroke="#63b8ff" d="M120.26,-219.45C115.84,-183.48 112.51,-114.08 143,-67 146.41,-61.74 150.73,-57.07 155.56,-52.93"/>
<polygon fill="none" stroke="#63b8ff" points="155.73,-52.8 158.15,-46.01 165.35,-45.63 162.93,-52.42 155.73,-52.8"/>
</a>
</g>
<text text-anchor="middle" x="176.5" y="-75.5" font-family="Helvetica,sans-Serif" font-size="10.00" fill="grey"> +scaleFactor</text>
</g>
<!-- Node5 -->
<g id="Node000005" class="node">
<title>Node5</title>
<g id="a_Node000005"><a xlink:title=" ">
<polygon fill="white" stroke="transparent" points="225.5,-268.5 202.5,-268.5 202.5,-219.5 225.5,-219.5 225.5,-268.5"/>
<text text-anchor="start" x="208" y="-256" font-family="Helvetica,sans-Serif" font-size="10.00">int</text>
<text text-anchor="start" x="212.5" y="-241" font-family="Helvetica,sans-Serif" font-size="10.00"> </text>
<text text-anchor="start" x="212.5" y="-226" font-family="Helvetica,sans-Serif" font-size="10.00"> </text>
<polygon fill="#666666" stroke="#666666" points="203,-251 203,-251 226,-251 226,-251 203,-251"/>
<polygon fill="#666666" stroke="#666666" points="203,-236 203,-236 226,-236 226,-236 203,-236"/>
<polygon fill="none" stroke="#666666" points="202.5,-219.5 202.5,-268.5 225.5,-268.5 225.5,-219.5 202.5,-219.5"/>
</a>
</g>
</g>
<!-- Node5&#45;&gt;Node1 -->
<g id="edge4_Node000001_Node000005" class="edge">
<title>Node5&#45;&gt;Node1</title>
<g id="a_edge4_Node000001_Node000005"><a xlink:title=" ">
<path fill="none" stroke="#63b8ff" d="M214,-219.31C214,-181.15 214,-105.84 214,-61.16"/>
<polygon fill="none" stroke="#63b8ff" points="214,-61.16 210,-55.16 214,-49.16 218,-55.16 214,-61.16"/>
</a>
</g>
<text text-anchor="middle" x="254" y="-75.5" font-family="Helvetica,sans-Serif" font-size="10.00" fill="grey"> +minNeighbors</text>
</g>
<!-- Node6 -->
<g id="Node000006" class="node">
<title>Node6</title>
<g id="a_Node000006"><a xlink:href="../../d6/d50/classcv_1_1Size__.html" target="_top" xlink:title="Template class for specifying the size of an image or rectangle.">
<polygon fill="white" stroke="transparent" points="388.5,-343.5 243.5,-343.5 243.5,-144.5 388.5,-144.5 388.5,-343.5"/>
<text text-anchor="start" x="275.5" y="-331" font-family="Helvetica,sans-Serif" font-size="10.00">cv::Size_&lt; _Tp &gt;</text>
<text text-anchor="start" x="314.5" y="-316" font-family="Helvetica,sans-Serif" font-size="10.00"> </text>
<text text-anchor="start" x="248" y="-301" font-family="Helvetica,sans-Serif" font-size="10.00">+</text>
<text text-anchor="start" x="261" y="-301" font-family="Helvetica,sans-Serif" font-size="10.00">Size_()</text>
<text text-anchor="start" x="248" y="-286" font-family="Helvetica,sans-Serif" font-size="10.00">+</text>
<text text-anchor="start" x="261" y="-286" font-family="Helvetica,sans-Serif" font-size="10.00">Size_()</text>
<text text-anchor="start" x="248" y="-271" font-family="Helvetica,sans-Serif" font-size="10.00">+</text>
<text text-anchor="start" x="261" y="-271" font-family="Helvetica,sans-Serif" font-size="10.00">Size_()</text>
<text text-anchor="start" x="248" y="-256" font-family="Helvetica,sans-Serif" font-size="10.00">+</text>
<text text-anchor="start" x="261" y="-256" font-family="Helvetica,sans-Serif" font-size="10.00">Size_()</text>
<text text-anchor="start" x="248" y="-241" font-family="Helvetica,sans-Serif" font-size="10.00">+</text>
<text text-anchor="start" x="261" y="-241" font-family="Helvetica,sans-Serif" font-size="10.00">Size_()</text>
<text text-anchor="start" x="248" y="-226" font-family="Helvetica,sans-Serif" font-size="10.00">+</text>
<text text-anchor="start" x="261" y="-226" font-family="Helvetica,sans-Serif" font-size="10.00">area()</text>
<text text-anchor="start" x="248" y="-211" font-family="Helvetica,sans-Serif" font-size="10.00">+</text>
<text text-anchor="start" x="261" y="-211" font-family="Helvetica,sans-Serif" font-size="10.00">aspectRatio()</text>
<text text-anchor="start" x="248" y="-196" font-family="Helvetica,sans-Serif" font-size="10.00">+</text>
<text text-anchor="start" x="261" y="-196" font-family="Helvetica,sans-Serif" font-size="10.00">empty()</text>
<text text-anchor="start" x="248" y="-181" font-family="Helvetica,sans-Serif" font-size="10.00">+</text>
<text text-anchor="start" x="261" y="-181" font-family="Helvetica,sans-Serif" font-size="10.00">operator Size_&lt; _Tp2 &gt;()</text>
<text text-anchor="start" x="248" y="-166" font-family="Helvetica,sans-Serif" font-size="10.00">+</text>
<text text-anchor="start" x="261" y="-166" font-family="Helvetica,sans-Serif" font-size="10.00">operator=()</text>
<text text-anchor="start" x="248" y="-151" font-family="Helvetica,sans-Serif" font-size="10.00">+</text>
<text text-anchor="start" x="261" y="-151" font-family="Helvetica,sans-Serif" font-size="10.00">operator=()</text>
<polygon fill="#666666" stroke="#666666" points="244,-326 244,-326 389,-326 389,-326 244,-326"/>
<polygon fill="#666666" stroke="#666666" points="244,-311 244,-311 389,-311 389,-311 244,-311"/>
<polygon fill="none" stroke="#666666" points="243.5,-144.5 243.5,-343.5 388.5,-343.5 388.5,-144.5 243.5,-144.5"/>
</a>
</g>
</g>
<!-- Node6&#45;&gt;Node1 -->
<g id="edge5_Node000001_Node000006" class="edge">
<title>Node6&#45;&gt;Node1</title>
<g id="a_edge5_Node000001_Node000006"><a xlink:title=" ">
<path fill="none" stroke="#63b8ff" d="M320.77,-144.27C317.87,-117.28 310.56,-89.35 295,-67 289.35,-58.89 281.63,-52.26 273.18,-46.88"/>
<polygon fill="none" stroke="#63b8ff" points="273.06,-46.81 265.87,-47.35 262.6,-40.92 269.79,-40.38 273.06,-46.81"/>
</a>
</g>
<text text-anchor="middle" x="334" y="-81" font-family="Helvetica,sans-Serif" font-size="10.00" fill="grey"> +maxSize</text>
<text text-anchor="middle" x="334" y="-70" font-family="Helvetica,sans-Serif" font-size="10.00" fill="grey">+minSize</text>
</g>
<!-- Node7 -->
<g id="Node000007" class="node">
<title>Node7</title>
<g id="a_Node000007"><a xlink:href="../../d1/dd7/class__Tp.html" target="_top" xlink:title=" ">
<polygon fill="white" stroke="transparent" points="330,-493.5 302,-493.5 302,-444.5 330,-444.5 330,-493.5"/>
<text text-anchor="start" x="307" y="-481" font-family="Helvetica,sans-Serif" font-size="10.00">_Tp</text>
<text text-anchor="start" x="314" y="-466" font-family="Helvetica,sans-Serif" font-size="10.00"> </text>
<text text-anchor="start" x="314" y="-451" font-family="Helvetica,sans-Serif" font-size="10.00"> </text>
<polygon fill="#666666" stroke="#666666" points="302,-476 302,-476 330,-476 330,-476 302,-476"/>
<polygon fill="#666666" stroke="#666666" points="302,-461 302,-461 330,-461 330,-461 302,-461"/>
<polygon fill="none" stroke="#666666" points="302,-444.5 302,-493.5 330,-493.5 330,-444.5 302,-444.5"/>
</a>
</g>
</g>
<!-- Node7&#45;&gt;Node6 -->
<g id="edge6_Node000006_Node000007" class="edge">
<title>Node7&#45;&gt;Node6</title>
<g id="a_edge6_Node000006_Node000007"><a xlink:title=" ">
<path fill="none" stroke="#63b8ff" d="M316,-444.14C316,-422.57 316,-389.19 316,-355.88"/>
<polygon fill="none" stroke="#63b8ff" points="316,-355.64 312,-349.64 316,-343.64 320,-349.64 316,-355.64"/>
</a>
</g>
<text text-anchor="middle" x="337.5" y="-413" font-family="Helvetica,sans-Serif" font-size="10.00" fill="grey"> +height</text>
<text text-anchor="middle" x="337.5" y="-402" font-family="Helvetica,sans-Serif" font-size="10.00" fill="grey">+width</text>
</g>
<!-- Node8 -->
<g id="Node000008" class="node">
<title>Node8</title>
<g id="a_Node000008"><a xlink:href="../../d1/de5/classcv_1_1CascadeClassifier.html" target="_top" xlink:title="Cascade classifier class for object detection.">
<polygon fill="white" stroke="transparent" points="549,-381 407,-381 407,-107 549,-107 549,-381"/>
<text text-anchor="start" x="426.5" y="-369" font-family="Helvetica,sans-Serif" font-size="10.00">cv::CascadeClassifier</text>
<text text-anchor="start" x="476" y="-354" font-family="Helvetica,sans-Serif" font-size="10.00"> </text>
<text text-anchor="start" x="411" y="-339" font-family="Helvetica,sans-Serif" font-size="10.00">+</text>
<text text-anchor="start" x="424" y="-339" font-family="Helvetica,sans-Serif" font-size="10.00">CascadeClassifier()</text>
<text text-anchor="start" x="411" y="-324" font-family="Helvetica,sans-Serif" font-size="10.00">+</text>
<text text-anchor="start" x="424" y="-324" font-family="Helvetica,sans-Serif" font-size="10.00">CascadeClassifier()</text>
<text text-anchor="start" x="411" y="-309" font-family="Helvetica,sans-Serif" font-size="10.00">+</text>
<text text-anchor="start" x="424" y="-309" font-family="Helvetica,sans-Serif" font-size="10.00">~CascadeClassifier()</text>
<text text-anchor="start" x="411" y="-294" font-family="Helvetica,sans-Serif" font-size="10.00">+</text>
<text text-anchor="start" x="424" y="-294" font-family="Helvetica,sans-Serif" font-size="10.00">detectMultiScale()</text>
<text text-anchor="start" x="411" y="-279" font-family="Helvetica,sans-Serif" font-size="10.00">+</text>
<text text-anchor="start" x="424" y="-279" font-family="Helvetica,sans-Serif" font-size="10.00">detectMultiScale()</text>
<text text-anchor="start" x="411" y="-264" font-family="Helvetica,sans-Serif" font-size="10.00">+</text>
<text text-anchor="start" x="424" y="-264" font-family="Helvetica,sans-Serif" font-size="10.00">detectMultiScale()</text>
<text text-anchor="start" x="411" y="-249" font-family="Helvetica,sans-Serif" font-size="10.00">+</text>
<text text-anchor="start" x="424" y="-249" font-family="Helvetica,sans-Serif" font-size="10.00">empty()</text>
<text text-anchor="start" x="411" y="-234" font-family="Helvetica,sans-Serif" font-size="10.00">+</text>
<text text-anchor="start" x="424" y="-234" font-family="Helvetica,sans-Serif" font-size="10.00">getFeatureType()</text>
<text text-anchor="start" x="411" y="-219" font-family="Helvetica,sans-Serif" font-size="10.00">+</text>
<text text-anchor="start" x="424" y="-219" font-family="Helvetica,sans-Serif" font-size="10.00">getMaskGenerator()</text>
<text text-anchor="start" x="411" y="-204" font-family="Helvetica,sans-Serif" font-size="10.00">+</text>
<text text-anchor="start" x="424" y="-204" font-family="Helvetica,sans-Serif" font-size="10.00">getOldCascade()</text>
<text text-anchor="start" x="411" y="-189" font-family="Helvetica,sans-Serif" font-size="10.00">+</text>
<text text-anchor="start" x="424" y="-189" font-family="Helvetica,sans-Serif" font-size="10.00">getOriginalWindowSize()</text>
<text text-anchor="start" x="411" y="-174" font-family="Helvetica,sans-Serif" font-size="10.00">+</text>
<text text-anchor="start" x="424" y="-174" font-family="Helvetica,sans-Serif" font-size="10.00">isOldFormatCascade()</text>
<text text-anchor="start" x="411" y="-159" font-family="Helvetica,sans-Serif" font-size="10.00">+</text>
<text text-anchor="start" x="424" y="-159" font-family="Helvetica,sans-Serif" font-size="10.00">load()</text>
<text text-anchor="start" x="411" y="-144" font-family="Helvetica,sans-Serif" font-size="10.00">+</text>
<text text-anchor="start" x="424" y="-144" font-family="Helvetica,sans-Serif" font-size="10.00">read()</text>
<text text-anchor="start" x="411" y="-129" font-family="Helvetica,sans-Serif" font-size="10.00">+</text>
<text text-anchor="start" x="424" y="-129" font-family="Helvetica,sans-Serif" font-size="10.00">setMaskGenerator()</text>
<text text-anchor="start" x="411" y="-114" font-family="Helvetica,sans-Serif" font-size="10.00">+</text>
<text text-anchor="start" x="424" y="-114" font-family="Helvetica,sans-Serif" font-size="10.00">convert()</text>
<polygon fill="#666666" stroke="#666666" points="407,-364 407,-364 549,-364 549,-364 407,-364"/>
<polygon fill="#666666" stroke="#666666" points="407,-349 407,-349 549,-349 549,-349 407,-349"/>
<polygon fill="none" stroke="#666666" points="407,-107 407,-381 549,-381 549,-107 407,-107"/>
</a>
</g>
</g>
<!-- Node8&#45;&gt;Node1 -->
<g id="edge7_Node000001_Node000008" class="edge">
<title>Node8&#45;&gt;Node1</title>
<g id="a_edge7_Node000001_Node000008"><a xlink:title=" ">
<path fill="none" stroke="#63b8ff" d="M408.2,-106.9C395.61,-91.58 381.23,-77.68 365,-67 338.17,-49.34 303.96,-39.14 274.88,-33.28"/>
<polygon fill="none" stroke="#63b8ff" points="274.56,-33.22 267.93,-36.06 262.77,-31.02 269.4,-28.19 274.56,-33.22"/>
</a>
</g>
<text text-anchor="middle" x="431" y="-75.5" font-family="Helvetica,sans-Serif" font-size="10.00" fill="grey"> +face_cascade</text>
</g>
<!-- Node9 -->
<g id="Node000009" class="node">
<title>Node9</title>
<g id="a_Node000009"><a xlink:title=" ">
<polygon fill="white" stroke="transparent" points="564.5,-493.5 391.5,-493.5 391.5,-444.5 564.5,-444.5 564.5,-493.5"/>
<text text-anchor="start" x="397" y="-481" font-family="Helvetica,sans-Serif" font-size="10.00">Ptr&lt; cv::BaseCascadeClassifier &gt;</text>
<text text-anchor="start" x="476.5" y="-466" font-family="Helvetica,sans-Serif" font-size="10.00"> </text>
<text text-anchor="start" x="476.5" y="-451" font-family="Helvetica,sans-Serif" font-size="10.00"> </text>
<polygon fill="#666666" stroke="#666666" points="392,-476 392,-476 565,-476 565,-476 392,-476"/>
<polygon fill="#666666" stroke="#666666" points="392,-461 392,-461 565,-461 565,-461 392,-461"/>
<polygon fill="none" stroke="#666666" points="391.5,-444.5 391.5,-493.5 564.5,-493.5 564.5,-444.5 391.5,-444.5"/>
</a>
</g>
</g>
<!-- Node9&#45;&gt;Node8 -->
<g id="edge8_Node000008_Node000009" class="edge">
<title>Node9&#45;&gt;Node8</title>
<g id="a_edge8_Node000008_Node000009"><a xlink:title=" ">
<path fill="none" stroke="#63b8ff" d="M478,-444.14C478,-430.77 478,-412.86 478,-393.24"/>
<polygon fill="none" stroke="#63b8ff" points="478,-393.17 474,-387.17 478,-381.17 482,-387.17 478,-393.17"/>
</a>
</g>
<text text-anchor="middle" x="489" y="-407.5" font-family="Helvetica,sans-Serif" font-size="10.00" fill="grey"> +cc</text>
</g>
</g>
</svg>
