<?xml version="1.0" encoding="UTF-8" standalone="no"?>
<!DOCTYPE svg PUBLIC "-//W3C//DTD SVG 1.1//EN"
 "http://www.w3.org/Graphics/SVG/1.1/DTD/svg11.dtd">
<!-- Generated by graphviz version 2.43.0 (0)
 -->
<!-- Title: cv::operator&lt;&lt; Pages: 1 -->
<svg width="275pt" height="64pt"
 viewBox="0.00 0.00 275.00 64.00" xmlns="http://www.w3.org/2000/svg" xmlns:xlink="http://www.w3.org/1999/xlink">
<g id="graph0" class="graph" transform="scale(1 1) rotate(0) translate(4 60)">
<title>cv::operator&lt;&lt;</title>
<!-- Node1 -->
<g id="Node000001" class="node">
<title>Node1</title>
<g id="a_Node000001"><a xlink:title="Writes data to a file storage.">
<polygon fill="#999999" stroke="#666666" points="91,-37 0,-37 0,-18 91,-18 91,-37"/>
<text text-anchor="middle" x="45.5" y="-25" font-family="Helvetica,sans-Serif" font-size="10.00">cv::operator&lt;&lt;</text>
</a>
</g>
</g>
<!-- Node2 -->
<g id="Node000002" class="node">
<title>Node2</title>
<g id="a_Node000002"><a xlink:href="../../da/d56/classcv_1_1FileStorage.html#aa952c31f4e632595cd5ac107913f4fd1" target="_top" xlink:title="Checks whether the file is opened.">
<polygon fill="white" stroke="#666666" points="267,-56 127,-56 127,-37 267,-37 267,-56"/>
<text text-anchor="middle" x="197" y="-44" font-family="Helvetica,sans-Serif" font-size="10.00">cv::FileStorage::isOpened</text>
</a>
</g>
</g>
<!-- Node1&#45;&gt;Node2 -->
<g id="edge1_Node000001_Node000002" class="edge">
<title>Node1&#45;&gt;Node2</title>
<g id="a_edge1_Node000001_Node000002"><a xlink:title=" ">
<path fill="none" stroke="#63b8ff" d="M91.35,-33.2C99.39,-34.22 107.98,-35.31 116.65,-36.42"/>
<polygon fill="#63b8ff" stroke="#63b8ff" points="116.48,-39.92 126.84,-37.71 117.36,-32.98 116.48,-39.92"/>
</a>
</g>
</g>
<!-- Node3 -->
<g id="Node000003" class="node">
<title>Node3</title>
<g id="a_Node000003"><a xlink:href="../../d2/d75/namespacecv.html#aafb41e5e0479356788e3936075fbad2c" target="_top" xlink:title=" ">
<polygon fill="white" stroke="#666666" points="226,-19 168,-19 168,0 226,0 226,-19"/>
<text text-anchor="middle" x="197" y="-7" font-family="Helvetica,sans-Serif" font-size="10.00">cv::write</text>
</a>
</g>
</g>
<!-- Node1&#45;&gt;Node3 -->
<g id="edge2_Node000001_Node000003" class="edge">
<title>Node1&#45;&gt;Node3</title>
<g id="a_edge2_Node000001_Node000003"><a xlink:title=" ">
<path fill="none" stroke="#63b8ff" d="M91.35,-22.1C112.45,-19.56 137.34,-16.56 157.56,-14.13"/>
<polygon fill="#63b8ff" stroke="#63b8ff" points="158.15,-17.58 167.66,-12.91 157.31,-10.63 158.15,-17.58"/>
</a>
</g>
</g>
</g>
</svg>
