<?xml version="1.0" encoding="UTF-8" standalone="no"?>
<!DOCTYPE svg PUBLIC "-//W3C//DTD SVG 1.1//EN"
 "http://www.w3.org/Graphics/SVG/1.1/DTD/svg11.dtd">
<!-- Generated by graphviz version 2.43.0 (0)
 -->
<!-- Title: cv::read Pages: 1 -->
<svg width="188pt" height="64pt"
 viewBox="0.00 0.00 188.00 64.00" xmlns="http://www.w3.org/2000/svg" xmlns:xlink="http://www.w3.org/1999/xlink">
<g id="graph0" class="graph" transform="scale(1 1) rotate(0) translate(4 60)">
<title>cv::read</title>
<!-- Node1 -->
<g id="Node000001" class="node">
<title>Node1</title>
<g id="a_Node000001"><a xlink:title=" ">
<polygon fill="#999999" stroke="#666666" points="55,-37 0,-37 0,-18 55,-18 55,-37"/>
<text text-anchor="middle" x="27.5" y="-25" font-family="Helvetica,sans-Serif" font-size="10.00">cv::read</text>
</a>
</g>
</g>
<!-- Node2 -->
<g id="Node000002" class="node">
<title>Node2</title>
<g id="a_Node000002"><a xlink:href="../../d3/d63/classcv_1_1Mat.html#abbec3525a852e77998aba034813fded4" target="_top" xlink:title="Returns true if the array has no elements.">
<polygon fill="white" stroke="#666666" points="180,-56 91,-56 91,-37 180,-37 180,-56"/>
<text text-anchor="middle" x="135.5" y="-44" font-family="Helvetica,sans-Serif" font-size="10.00">cv::Mat::empty</text>
</a>
</g>
</g>
<!-- Node1&#45;&gt;Node2 -->
<g id="edge1_Node000001_Node000002" class="edge">
<title>Node1&#45;&gt;Node2</title>
<g id="a_edge1_Node000001_Node000002"><a xlink:title=" ">
<path fill="none" stroke="#63b8ff" d="M55.25,-32.29C63.09,-33.7 71.96,-35.29 80.85,-36.88"/>
<polygon fill="#63b8ff" stroke="#63b8ff" points="80.39,-40.36 90.85,-38.68 81.62,-33.47 80.39,-40.36"/>
</a>
</g>
</g>
<!-- Node3 -->
<g id="Node000003" class="node">
<title>Node3</title>
<g id="a_Node000003"><a xlink:href="../../d2/d75/namespacecv.html#ae0e331a4e4c5f52a314726adad22abbb" target="_top" xlink:title=" ">
<polygon fill="white" stroke="#666666" points="163,-19 108,-19 108,0 163,0 163,-19"/>
<text text-anchor="middle" x="135.5" y="-7" font-family="Helvetica,sans-Serif" font-size="10.00">cv::read</text>
</a>
</g>
</g>
<!-- Node1&#45;&gt;Node3 -->
<g id="edge2_Node000001_Node000003" class="edge">
<title>Node1&#45;&gt;Node3</title>
<g id="a_edge2_Node000001_Node000003"><a xlink:title=" ">
<path fill="none" stroke="#63b8ff" d="M55.25,-22.96C68.05,-20.78 83.59,-18.14 97.51,-15.78"/>
<polygon fill="#63b8ff" stroke="#63b8ff" points="98.49,-19.17 107.76,-14.04 97.32,-12.26 98.49,-19.17"/>
</a>
</g>
</g>
</g>
</svg>
