<?xml version="1.0" encoding="UTF-8" standalone="no"?>
<!DOCTYPE svg PUBLIC "-//W3C//DTD SVG 1.1//EN"
 "http://www.w3.org/Graphics/SVG/1.1/DTD/svg11.dtd">
<!-- Generated by graphviz version 2.43.0 (0)
 -->
<!-- Title: cv::optflow::DenseRLOFOpticalFlow Pages: 1 -->
<svg width="190pt" height="602pt"
 viewBox="0.00 0.00 190.00 602.00" xmlns="http://www.w3.org/2000/svg" xmlns:xlink="http://www.w3.org/1999/xlink">
<g id="graph0" class="graph" transform="scale(1 1) rotate(0) translate(4 598)">
<title>cv::optflow::DenseRLOFOpticalFlow</title>
<!-- Node1 -->
<g id="Node000001" class="node">
<title>Node1</title>
<g id="a_Node000001"><a xlink:title="Fast dense optical flow computation based on robust local optical flow (RLOF) algorithms and sparse&#45;t...">
<polygon fill="#999999" stroke="transparent" points="182,-214 0,-214 0,0 182,0 182,-214"/>
<text text-anchor="start" x="5" y="-202" font-family="Helvetica,sans-Serif" font-size="10.00">cv::optflow::DenseRLOFOpticalFlow</text>
<text text-anchor="start" x="89" y="-187" font-family="Helvetica,sans-Serif" font-size="10.00"> </text>
<text text-anchor="start" x="16.5" y="-172" font-family="Helvetica,sans-Serif" font-size="10.00">+</text>
<text text-anchor="start" x="42" y="-172" font-family="Helvetica,sans-Serif" font-size="10.00">getEPICK()</text>
<text text-anchor="start" x="16.5" y="-157" font-family="Helvetica,sans-Serif" font-size="10.00">+</text>
<text text-anchor="start" x="42" y="-157" font-family="Helvetica,sans-Serif" font-size="10.00">getEPICLambda()</text>
<text text-anchor="start" x="16.5" y="-142" font-family="Helvetica,sans-Serif" font-size="10.00">+</text>
<text text-anchor="start" x="42" y="-142" font-family="Helvetica,sans-Serif" font-size="10.00">getEPICSigma()</text>
<text text-anchor="start" x="16.5" y="-127" font-family="Helvetica,sans-Serif" font-size="10.00">+</text>
<text text-anchor="start" x="42" y="-127" font-family="Helvetica,sans-Serif" font-size="10.00">getFgsLambda()</text>
<text text-anchor="start" x="16.5" y="-112" font-family="Helvetica,sans-Serif" font-size="10.00">+</text>
<text text-anchor="start" x="42" y="-112" font-family="Helvetica,sans-Serif" font-size="10.00">getFgsSigma()</text>
<text text-anchor="start" x="16.5" y="-97" font-family="Helvetica,sans-Serif" font-size="10.00">+</text>
<text text-anchor="start" x="42" y="-97" font-family="Helvetica,sans-Serif" font-size="10.00">getForwardBackward()</text>
<text text-anchor="start" x="16.5" y="-82" font-family="Helvetica,sans-Serif" font-size="10.00">+</text>
<text text-anchor="start" x="42" y="-82" font-family="Helvetica,sans-Serif" font-size="10.00">getGridStep()</text>
<text text-anchor="start" x="16.5" y="-67" font-family="Helvetica,sans-Serif" font-size="10.00">+</text>
<text text-anchor="start" x="42" y="-67" font-family="Helvetica,sans-Serif" font-size="10.00">getInterpolation()</text>
<text text-anchor="start" x="16.5" y="-52" font-family="Helvetica,sans-Serif" font-size="10.00">+</text>
<text text-anchor="start" x="42" y="-52" font-family="Helvetica,sans-Serif" font-size="10.00">getRICSLICType()</text>
<text text-anchor="start" x="16.5" y="-37" font-family="Helvetica,sans-Serif" font-size="10.00">+</text>
<text text-anchor="start" x="42" y="-37" font-family="Helvetica,sans-Serif" font-size="10.00">getRICSPSize()</text>
<text text-anchor="start" x="42" y="-22" font-family="Helvetica,sans-Serif" font-size="10.00">and 16 more...</text>
<text text-anchor="start" x="16.5" y="-7" font-family="Helvetica,sans-Serif" font-size="10.00">+</text>
<text text-anchor="start" x="42" y="-7" font-family="Helvetica,sans-Serif" font-size="10.00">create()</text>
<polygon fill="#666666" stroke="#666666" points="0,-197 0,-197 182,-197 182,-197 0,-197"/>
<polygon fill="#666666" stroke="#666666" points="0,-182 0,-182 182,-182 182,-182 0,-182"/>
<polygon fill="none" stroke="#666666" points="0,0 0,-214 182,-214 182,0 0,0"/>
</a>
</g>
</g>
<!-- Node2 -->
<g id="Node000002" class="node">
<title>Node2</title>
<g id="a_Node000002"><a xlink:href="../../df/dde/classcv_1_1DenseOpticalFlow.html" target="_top" xlink:title=" ">
<polygon fill="white" stroke="transparent" points="149,-314 33,-314 33,-250 149,-250 149,-314"/>
<text text-anchor="start" x="38" y="-302" font-family="Helvetica,sans-Serif" font-size="10.00">cv::DenseOpticalFlow</text>
<text text-anchor="start" x="89" y="-287" font-family="Helvetica,sans-Serif" font-size="10.00"> </text>
<text text-anchor="start" x="40" y="-272" font-family="Helvetica,sans-Serif" font-size="10.00">+</text>
<text text-anchor="start" x="56" y="-272" font-family="Helvetica,sans-Serif" font-size="10.00">calc()</text>
<text text-anchor="start" x="40" y="-257" font-family="Helvetica,sans-Serif" font-size="10.00">+</text>
<text text-anchor="start" x="56" y="-257" font-family="Helvetica,sans-Serif" font-size="10.00">collectGarbage()</text>
<polygon fill="#666666" stroke="#666666" points="33,-297 33,-297 149,-297 149,-297 33,-297"/>
<polygon fill="#666666" stroke="#666666" points="33,-282 33,-282 149,-282 149,-282 33,-282"/>
<polygon fill="none" stroke="#666666" points="33,-250 33,-314 149,-314 149,-250 33,-250"/>
</a>
</g>
</g>
<!-- Node2&#45;&gt;Node1 -->
<g id="edge1_Node000001_Node000002" class="edge">
<title>Node2&#45;&gt;Node1</title>
<g id="a_edge1_Node000001_Node000002"><a xlink:title=" ">
<path fill="none" stroke="#63b8ff" d="M91,-239.4C91,-231.54 91,-222.98 91,-214.14"/>
<polygon fill="none" stroke="#63b8ff" points="87.5,-239.67 91,-249.67 94.5,-239.67 87.5,-239.67"/>
</a>
</g>
</g>
<!-- Node3 -->
<g id="Node000003" class="node">
<title>Node3</title>
<g id="a_Node000003"><a xlink:href="../../d3/d46/classcv_1_1Algorithm.html" target="_top" xlink:title="This is a base class for all more or less complex algorithms in OpenCV.">
<polygon fill="white" stroke="transparent" points="146,-594 36,-594 36,-350 146,-350 146,-594"/>
<text text-anchor="start" x="58.5" y="-582" font-family="Helvetica,sans-Serif" font-size="10.00">cv::Algorithm</text>
<text text-anchor="start" x="89" y="-567" font-family="Helvetica,sans-Serif" font-size="10.00"> </text>
<text text-anchor="start" x="40" y="-552" font-family="Helvetica,sans-Serif" font-size="10.00">+</text>
<text text-anchor="start" x="53" y="-552" font-family="Helvetica,sans-Serif" font-size="10.00">Algorithm()</text>
<text text-anchor="start" x="40" y="-537" font-family="Helvetica,sans-Serif" font-size="10.00">+</text>
<text text-anchor="start" x="53" y="-537" font-family="Helvetica,sans-Serif" font-size="10.00">~Algorithm()</text>
<text text-anchor="start" x="40" y="-522" font-family="Helvetica,sans-Serif" font-size="10.00">+</text>
<text text-anchor="start" x="53" y="-522" font-family="Helvetica,sans-Serif" font-size="10.00">clear()</text>
<text text-anchor="start" x="40" y="-507" font-family="Helvetica,sans-Serif" font-size="10.00">+</text>
<text text-anchor="start" x="53" y="-507" font-family="Helvetica,sans-Serif" font-size="10.00">empty()</text>
<text text-anchor="start" x="40" y="-492" font-family="Helvetica,sans-Serif" font-size="10.00">+</text>
<text text-anchor="start" x="53" y="-492" font-family="Helvetica,sans-Serif" font-size="10.00">getDefaultName()</text>
<text text-anchor="start" x="40" y="-477" font-family="Helvetica,sans-Serif" font-size="10.00">+</text>
<text text-anchor="start" x="53" y="-477" font-family="Helvetica,sans-Serif" font-size="10.00">read()</text>
<text text-anchor="start" x="40" y="-462" font-family="Helvetica,sans-Serif" font-size="10.00">+</text>
<text text-anchor="start" x="53" y="-462" font-family="Helvetica,sans-Serif" font-size="10.00">save()</text>
<text text-anchor="start" x="40" y="-447" font-family="Helvetica,sans-Serif" font-size="10.00">+</text>
<text text-anchor="start" x="53" y="-447" font-family="Helvetica,sans-Serif" font-size="10.00">write()</text>
<text text-anchor="start" x="40" y="-432" font-family="Helvetica,sans-Serif" font-size="10.00">+</text>
<text text-anchor="start" x="53" y="-432" font-family="Helvetica,sans-Serif" font-size="10.00">write()</text>
<text text-anchor="start" x="40" y="-417" font-family="Helvetica,sans-Serif" font-size="10.00">+</text>
<text text-anchor="start" x="53" y="-417" font-family="Helvetica,sans-Serif" font-size="10.00">write()</text>
<text text-anchor="start" x="40" y="-402" font-family="Helvetica,sans-Serif" font-size="10.00">+</text>
<text text-anchor="start" x="53" y="-402" font-family="Helvetica,sans-Serif" font-size="10.00">load()</text>
<text text-anchor="start" x="40" y="-387" font-family="Helvetica,sans-Serif" font-size="10.00">+</text>
<text text-anchor="start" x="53" y="-387" font-family="Helvetica,sans-Serif" font-size="10.00">loadFromString()</text>
<text text-anchor="start" x="40" y="-372" font-family="Helvetica,sans-Serif" font-size="10.00">+</text>
<text text-anchor="start" x="53" y="-372" font-family="Helvetica,sans-Serif" font-size="10.00">read()</text>
<text text-anchor="start" x="40" y="-357" font-family="Helvetica,sans-Serif" font-size="10.00">#</text>
<text text-anchor="start" x="53" y="-357" font-family="Helvetica,sans-Serif" font-size="10.00">writeFormat()</text>
<polygon fill="#666666" stroke="#666666" points="36,-577 36,-577 146,-577 146,-577 36,-577"/>
<polygon fill="#666666" stroke="#666666" points="36,-562 36,-562 146,-562 146,-562 36,-562"/>
<polygon fill="none" stroke="#666666" points="36,-350 36,-594 146,-594 146,-350 36,-350"/>
</a>
</g>
</g>
<!-- Node3&#45;&gt;Node2 -->
<g id="edge2_Node000002_Node000003" class="edge">
<title>Node3&#45;&gt;Node2</title>
<g id="a_edge2_Node000002_Node000003"><a xlink:title=" ">
<path fill="none" stroke="#63b8ff" d="M91,-339.58C91,-330.33 91,-321.67 91,-314.03"/>
<polygon fill="none" stroke="#63b8ff" points="87.5,-339.81 91,-349.81 94.5,-339.81 87.5,-339.81"/>
</a>
</g>
</g>
</g>
</svg>
