<?xml version="1.0" encoding="UTF-8" standalone="no"?>
<!DOCTYPE svg PUBLIC "-//W3C//DTD SVG 1.1//EN"
 "http://www.w3.org/Graphics/SVG/1.1/DTD/svg11.dtd">
<!-- Generated by graphviz version 2.43.0 (0)
 -->
<!-- Title: cv::barcode::BarcodeDetector Pages: 1 -->
<svg width="174pt" height="539pt"
 viewBox="0.00 0.00 174.00 539.00" xmlns="http://www.w3.org/2000/svg" xmlns:xlink="http://www.w3.org/1999/xlink">
<g id="graph0" class="graph" transform="scale(1 1) rotate(0) translate(4 535)">
<title>cv::barcode::BarcodeDetector</title>
<!-- Node1 -->
<g id="Node000001" class="node">
<title>Node1</title>
<g id="a_Node000001"><a xlink:title=" ">
<polygon fill="#999999" stroke="transparent" points="166,-199 0,-199 0,0 166,0 166,-199"/>
<text text-anchor="start" x="11" y="-186.5" font-family="Helvetica,sans-Serif" font-size="10.00">cv::barcode::BarcodeDetector</text>
<text text-anchor="start" x="81" y="-171.5" font-family="Helvetica,sans-Serif" font-size="10.00"> </text>
<text text-anchor="start" x="4" y="-156.5" font-family="Helvetica,sans-Serif" font-size="10.00">+</text>
<text text-anchor="start" x="17" y="-156.5" font-family="Helvetica,sans-Serif" font-size="10.00">BarcodeDetector()</text>
<text text-anchor="start" x="4" y="-141.5" font-family="Helvetica,sans-Serif" font-size="10.00">+</text>
<text text-anchor="start" x="17" y="-141.5" font-family="Helvetica,sans-Serif" font-size="10.00">BarcodeDetector()</text>
<text text-anchor="start" x="4" y="-126.5" font-family="Helvetica,sans-Serif" font-size="10.00">+</text>
<text text-anchor="start" x="17" y="-126.5" font-family="Helvetica,sans-Serif" font-size="10.00">~BarcodeDetector()</text>
<text text-anchor="start" x="4" y="-111.5" font-family="Helvetica,sans-Serif" font-size="10.00">+</text>
<text text-anchor="start" x="17" y="-111.5" font-family="Helvetica,sans-Serif" font-size="10.00">decodeWithType()</text>
<text text-anchor="start" x="4" y="-96.5" font-family="Helvetica,sans-Serif" font-size="10.00">+</text>
<text text-anchor="start" x="17" y="-96.5" font-family="Helvetica,sans-Serif" font-size="10.00">detectAndDecodeWithType()</text>
<text text-anchor="start" x="4" y="-81.5" font-family="Helvetica,sans-Serif" font-size="10.00">+</text>
<text text-anchor="start" x="17" y="-81.5" font-family="Helvetica,sans-Serif" font-size="10.00">getDetectorScales()</text>
<text text-anchor="start" x="4" y="-66.5" font-family="Helvetica,sans-Serif" font-size="10.00">+</text>
<text text-anchor="start" x="17" y="-66.5" font-family="Helvetica,sans-Serif" font-size="10.00">getDownsamplingThreshold()</text>
<text text-anchor="start" x="4" y="-51.5" font-family="Helvetica,sans-Serif" font-size="10.00">+</text>
<text text-anchor="start" x="17" y="-51.5" font-family="Helvetica,sans-Serif" font-size="10.00">getGradientThreshold()</text>
<text text-anchor="start" x="4" y="-36.5" font-family="Helvetica,sans-Serif" font-size="10.00">+</text>
<text text-anchor="start" x="17" y="-36.5" font-family="Helvetica,sans-Serif" font-size="10.00">setDetectorScales()</text>
<text text-anchor="start" x="4" y="-21.5" font-family="Helvetica,sans-Serif" font-size="10.00">+</text>
<text text-anchor="start" x="17" y="-21.5" font-family="Helvetica,sans-Serif" font-size="10.00">setDownsamplingThreshold()</text>
<text text-anchor="start" x="4" y="-6.5" font-family="Helvetica,sans-Serif" font-size="10.00">+</text>
<text text-anchor="start" x="17" y="-6.5" font-family="Helvetica,sans-Serif" font-size="10.00">setGradientThreshold()</text>
<polygon fill="#666666" stroke="#666666" points="0,-181.5 0,-181.5 166,-181.5 166,-181.5 0,-181.5"/>
<polygon fill="#666666" stroke="#666666" points="0,-166.5 0,-166.5 166,-166.5 166,-166.5 0,-166.5"/>
<polygon fill="none" stroke="#666666" points="0,0 0,-199 166,-199 166,0 0,0"/>
</a>
</g>
</g>
<!-- Node2 -->
<g id="Node000002" class="node">
<title>Node2</title>
<g id="a_Node000002"><a xlink:href="../../d7/d90/classcv_1_1GraphicalCodeDetector.html" target="_top" xlink:title=" ">
<polygon fill="white" stroke="transparent" points="154,-435 12,-435 12,-236 154,-236 154,-435"/>
<text text-anchor="start" x="18" y="-422.5" font-family="Helvetica,sans-Serif" font-size="10.00">cv::GraphicalCodeDetector</text>
<text text-anchor="start" x="81" y="-407.5" font-family="Helvetica,sans-Serif" font-size="10.00"> </text>
<text text-anchor="start" x="16" y="-392.5" font-family="Helvetica,sans-Serif" font-size="10.00">+</text>
<text text-anchor="start" x="29" y="-392.5" font-family="Helvetica,sans-Serif" font-size="10.00">GraphicalCodeDetector()</text>
<text text-anchor="start" x="16" y="-377.5" font-family="Helvetica,sans-Serif" font-size="10.00">+</text>
<text text-anchor="start" x="29" y="-377.5" font-family="Helvetica,sans-Serif" font-size="10.00">GraphicalCodeDetector()</text>
<text text-anchor="start" x="16" y="-362.5" font-family="Helvetica,sans-Serif" font-size="10.00">+</text>
<text text-anchor="start" x="29" y="-362.5" font-family="Helvetica,sans-Serif" font-size="10.00">GraphicalCodeDetector()</text>
<text text-anchor="start" x="16" y="-347.5" font-family="Helvetica,sans-Serif" font-size="10.00">+</text>
<text text-anchor="start" x="29" y="-347.5" font-family="Helvetica,sans-Serif" font-size="10.00">decode()</text>
<text text-anchor="start" x="16" y="-332.5" font-family="Helvetica,sans-Serif" font-size="10.00">+</text>
<text text-anchor="start" x="29" y="-332.5" font-family="Helvetica,sans-Serif" font-size="10.00">decodeMulti()</text>
<text text-anchor="start" x="16" y="-317.5" font-family="Helvetica,sans-Serif" font-size="10.00">+</text>
<text text-anchor="start" x="29" y="-317.5" font-family="Helvetica,sans-Serif" font-size="10.00">detect()</text>
<text text-anchor="start" x="16" y="-302.5" font-family="Helvetica,sans-Serif" font-size="10.00">+</text>
<text text-anchor="start" x="29" y="-302.5" font-family="Helvetica,sans-Serif" font-size="10.00">detectAndDecode()</text>
<text text-anchor="start" x="16" y="-287.5" font-family="Helvetica,sans-Serif" font-size="10.00">+</text>
<text text-anchor="start" x="29" y="-287.5" font-family="Helvetica,sans-Serif" font-size="10.00">detectAndDecodeMulti()</text>
<text text-anchor="start" x="16" y="-272.5" font-family="Helvetica,sans-Serif" font-size="10.00">+</text>
<text text-anchor="start" x="29" y="-272.5" font-family="Helvetica,sans-Serif" font-size="10.00">detectMulti()</text>
<text text-anchor="start" x="16" y="-257.5" font-family="Helvetica,sans-Serif" font-size="10.00">+</text>
<text text-anchor="start" x="29" y="-257.5" font-family="Helvetica,sans-Serif" font-size="10.00">operator=()</text>
<text text-anchor="start" x="16" y="-242.5" font-family="Helvetica,sans-Serif" font-size="10.00">+</text>
<text text-anchor="start" x="29" y="-242.5" font-family="Helvetica,sans-Serif" font-size="10.00">operator=()</text>
<polygon fill="#666666" stroke="#666666" points="12,-417.5 12,-417.5 154,-417.5 154,-417.5 12,-417.5"/>
<polygon fill="#666666" stroke="#666666" points="12,-402.5 12,-402.5 154,-402.5 154,-402.5 12,-402.5"/>
<polygon fill="none" stroke="#666666" points="12,-236 12,-435 154,-435 154,-236 12,-236"/>
</a>
</g>
</g>
<!-- Node2&#45;&gt;Node1 -->
<g id="edge1_Node000001_Node000002" class="edge">
<title>Node2&#45;&gt;Node1</title>
<g id="a_edge1_Node000001_Node000002"><a xlink:title=" ">
<path fill="none" stroke="#63b8ff" d="M83,-225.67C83,-216.88 83,-208.03 83,-199.32"/>
<polygon fill="none" stroke="#63b8ff" points="79.5,-225.94 83,-235.94 86.5,-225.94 79.5,-225.94"/>
</a>
</g>
</g>
<!-- Node3 -->
<g id="Node000003" class="node">
<title>Node3</title>
<g id="a_Node000003"><a xlink:title=" ">
<polygon fill="white" stroke="transparent" points="117,-531 49,-531 49,-482 117,-482 117,-531"/>
<text text-anchor="start" x="54" y="-518.5" font-family="Helvetica,sans-Serif" font-size="10.00">Ptr&lt; Impl &gt;</text>
<text text-anchor="start" x="81" y="-503.5" font-family="Helvetica,sans-Serif" font-size="10.00"> </text>
<text text-anchor="start" x="81" y="-488.5" font-family="Helvetica,sans-Serif" font-size="10.00"> </text>
<polygon fill="#666666" stroke="#666666" points="49,-513.5 49,-513.5 117,-513.5 117,-513.5 49,-513.5"/>
<polygon fill="#666666" stroke="#666666" points="49,-498.5 49,-498.5 117,-498.5 117,-498.5 49,-498.5"/>
<polygon fill="none" stroke="#666666" points="49,-482 49,-531 117,-531 117,-482 49,-482"/>
</a>
</g>
</g>
<!-- Node3&#45;&gt;Node2 -->
<g id="edge2_Node000002_Node000003" class="edge">
<title>Node3&#45;&gt;Node2</title>
<g id="a_edge2_Node000002_Node000003"><a xlink:title=" ">
<path fill="none" stroke="#63b8ff" d="M83,-481.64C83,-472.06 83,-460.28 83,-447.6"/>
<polygon fill="none" stroke="#63b8ff" points="83,-447.22 79,-441.22 83,-435.22 87,-441.22 83,-447.22"/>
</a>
</g>
<text text-anchor="middle" x="92" y="-456" font-family="Helvetica,sans-Serif" font-size="10.00" fill="grey"> #p</text>
</g>
</g>
</svg>
