<?xml version="1.0" encoding="UTF-8" standalone="no"?>
<!DOCTYPE svg PUBLIC "-//W3C//DTD SVG 1.1//EN"
 "http://www.w3.org/Graphics/SVG/1.1/DTD/svg11.dtd">
<!-- Generated by graphviz version 2.43.0 (0)
 -->
<!-- Title: cv::dpm::DPMDetector::ObjectDetection Pages: 1 -->
<svg width="277pt" height="518pt"
 viewBox="0.00 0.00 277.00 518.00" xmlns="http://www.w3.org/2000/svg" xmlns:xlink="http://www.w3.org/1999/xlink">
<g id="graph0" class="graph" transform="scale(1 1) rotate(0) translate(4 514)">
<title>cv::dpm::DPMDetector::ObjectDetection</title>
<!-- Node1 -->
<g id="Node000001" class="node">
<title>Node1</title>
<g id="a_Node000001"><a xlink:title=" ">
<polygon fill="#999999" stroke="transparent" points="239.5,-75 120.5,-75 120.5,0 239.5,0 239.5,-75"/>
<text text-anchor="start" x="126" y="-62.5" font-family="Helvetica,sans-Serif" font-size="10.00">cv::dpm::DPMDetector</text>
<text text-anchor="start" x="138" y="-51.5" font-family="Helvetica,sans-Serif" font-size="10.00">::ObjectDetection</text>
<text text-anchor="start" x="178.5" y="-36.5" font-family="Helvetica,sans-Serif" font-size="10.00"> </text>
<text text-anchor="start" x="127.5" y="-21.5" font-family="Helvetica,sans-Serif" font-size="10.00">+</text>
<text text-anchor="start" x="143" y="-21.5" font-family="Helvetica,sans-Serif" font-size="10.00">ObjectDetection()</text>
<text text-anchor="start" x="127.5" y="-6.5" font-family="Helvetica,sans-Serif" font-size="10.00">+</text>
<text text-anchor="start" x="143" y="-6.5" font-family="Helvetica,sans-Serif" font-size="10.00">ObjectDetection()</text>
<polygon fill="#666666" stroke="#666666" points="121,-46.5 121,-46.5 240,-46.5 240,-46.5 121,-46.5"/>
<polygon fill="#666666" stroke="#666666" points="121,-31.5 121,-31.5 240,-31.5 240,-31.5 121,-31.5"/>
<polygon fill="none" stroke="#666666" points="120.5,0 120.5,-75 239.5,-75 239.5,0 120.5,0"/>
</a>
</g>
</g>
<!-- Node2 -->
<g id="Node000002" class="node">
<title>Node2</title>
<g id="a_Node000002"><a xlink:href="../../d2/d44/classcv_1_1Rect__.html" target="_top" xlink:title="Template class for 2D rectangles.">
<polygon fill="white" stroke="transparent" points="146,-381 0,-381 0,-122 146,-122 146,-381"/>
<text text-anchor="start" x="31" y="-368.5" font-family="Helvetica,sans-Serif" font-size="10.00">cv::Rect_&lt; _Tp &gt;</text>
<text text-anchor="start" x="71" y="-353.5" font-family="Helvetica,sans-Serif" font-size="10.00"> </text>
<text text-anchor="start" x="4" y="-338.5" font-family="Helvetica,sans-Serif" font-size="10.00">+</text>
<text text-anchor="start" x="17" y="-338.5" font-family="Helvetica,sans-Serif" font-size="10.00">Rect_()</text>
<text text-anchor="start" x="4" y="-323.5" font-family="Helvetica,sans-Serif" font-size="10.00">+</text>
<text text-anchor="start" x="17" y="-323.5" font-family="Helvetica,sans-Serif" font-size="10.00">Rect_()</text>
<text text-anchor="start" x="4" y="-308.5" font-family="Helvetica,sans-Serif" font-size="10.00">+</text>
<text text-anchor="start" x="17" y="-308.5" font-family="Helvetica,sans-Serif" font-size="10.00">Rect_()</text>
<text text-anchor="start" x="4" y="-293.5" font-family="Helvetica,sans-Serif" font-size="10.00">+</text>
<text text-anchor="start" x="17" y="-293.5" font-family="Helvetica,sans-Serif" font-size="10.00">Rect_()</text>
<text text-anchor="start" x="4" y="-278.5" font-family="Helvetica,sans-Serif" font-size="10.00">+</text>
<text text-anchor="start" x="17" y="-278.5" font-family="Helvetica,sans-Serif" font-size="10.00">Rect_()</text>
<text text-anchor="start" x="4" y="-263.5" font-family="Helvetica,sans-Serif" font-size="10.00">+</text>
<text text-anchor="start" x="17" y="-263.5" font-family="Helvetica,sans-Serif" font-size="10.00">Rect_()</text>
<text text-anchor="start" x="4" y="-248.5" font-family="Helvetica,sans-Serif" font-size="10.00">+</text>
<text text-anchor="start" x="17" y="-248.5" font-family="Helvetica,sans-Serif" font-size="10.00">area()</text>
<text text-anchor="start" x="4" y="-233.5" font-family="Helvetica,sans-Serif" font-size="10.00">+</text>
<text text-anchor="start" x="17" y="-233.5" font-family="Helvetica,sans-Serif" font-size="10.00">br()</text>
<text text-anchor="start" x="4" y="-218.5" font-family="Helvetica,sans-Serif" font-size="10.00">+</text>
<text text-anchor="start" x="17" y="-218.5" font-family="Helvetica,sans-Serif" font-size="10.00">contains()</text>
<text text-anchor="start" x="4" y="-203.5" font-family="Helvetica,sans-Serif" font-size="10.00">+</text>
<text text-anchor="start" x="17" y="-203.5" font-family="Helvetica,sans-Serif" font-size="10.00">empty()</text>
<text text-anchor="start" x="4" y="-188.5" font-family="Helvetica,sans-Serif" font-size="10.00">+</text>
<text text-anchor="start" x="17" y="-188.5" font-family="Helvetica,sans-Serif" font-size="10.00">operator Rect_&lt; _Tp2 &gt;()</text>
<text text-anchor="start" x="4" y="-173.5" font-family="Helvetica,sans-Serif" font-size="10.00">+</text>
<text text-anchor="start" x="17" y="-173.5" font-family="Helvetica,sans-Serif" font-size="10.00">operator=()</text>
<text text-anchor="start" x="4" y="-158.5" font-family="Helvetica,sans-Serif" font-size="10.00">+</text>
<text text-anchor="start" x="17" y="-158.5" font-family="Helvetica,sans-Serif" font-size="10.00">operator=()</text>
<text text-anchor="start" x="4" y="-143.5" font-family="Helvetica,sans-Serif" font-size="10.00">+</text>
<text text-anchor="start" x="17" y="-143.5" font-family="Helvetica,sans-Serif" font-size="10.00">size()</text>
<text text-anchor="start" x="4" y="-128.5" font-family="Helvetica,sans-Serif" font-size="10.00">+</text>
<text text-anchor="start" x="17" y="-128.5" font-family="Helvetica,sans-Serif" font-size="10.00">tl()</text>
<polygon fill="#666666" stroke="#666666" points="0,-363.5 0,-363.5 146,-363.5 146,-363.5 0,-363.5"/>
<polygon fill="#666666" stroke="#666666" points="0,-348.5 0,-348.5 146,-348.5 146,-348.5 0,-348.5"/>
<polygon fill="none" stroke="#666666" points="0,-122 0,-381 146,-381 146,-122 0,-122"/>
</a>
</g>
</g>
<!-- Node2&#45;&gt;Node1 -->
<g id="edge1_Node000001_Node000002" class="edge">
<title>Node2&#45;&gt;Node1</title>
<g id="a_edge1_Node000001_Node000002"><a xlink:title=" ">
<path fill="none" stroke="#63b8ff" d="M130.05,-121.68C134.95,-111.89 139.96,-102.24 145,-93 146.36,-90.5 147.8,-87.96 149.28,-85.42"/>
<polygon fill="none" stroke="#63b8ff" points="149.36,-85.29 149.03,-78.08 155.55,-75.01 155.88,-82.21 149.36,-85.29"/>
</a>
</g>
<text text-anchor="middle" x="160.5" y="-96" font-family="Helvetica,sans-Serif" font-size="10.00" fill="grey"> +rect</text>
</g>
<!-- Node3 -->
<g id="Node000003" class="node">
<title>Node3</title>
<g id="a_Node000003"><a xlink:href="../../d1/dd7/class__Tp.html" target="_top" xlink:title=" ">
<polygon fill="white" stroke="transparent" points="87,-510 59,-510 59,-461 87,-461 87,-510"/>
<text text-anchor="start" x="64" y="-497.5" font-family="Helvetica,sans-Serif" font-size="10.00">_Tp</text>
<text text-anchor="start" x="71" y="-482.5" font-family="Helvetica,sans-Serif" font-size="10.00"> </text>
<text text-anchor="start" x="71" y="-467.5" font-family="Helvetica,sans-Serif" font-size="10.00"> </text>
<polygon fill="#666666" stroke="#666666" points="59,-492.5 59,-492.5 87,-492.5 87,-492.5 59,-492.5"/>
<polygon fill="#666666" stroke="#666666" points="59,-477.5 59,-477.5 87,-477.5 87,-477.5 59,-477.5"/>
<polygon fill="none" stroke="#666666" points="59,-461 59,-510 87,-510 87,-461 59,-461"/>
</a>
</g>
</g>
<!-- Node3&#45;&gt;Node2 -->
<g id="edge2_Node000002_Node000003" class="edge">
<title>Node3&#45;&gt;Node2</title>
<g id="a_edge2_Node000002_Node000003"><a xlink:title=" ">
<path fill="none" stroke="#63b8ff" d="M73,-460.98C73,-444 73,-419.51 73,-393.25"/>
<polygon fill="none" stroke="#63b8ff" points="73,-393.08 69,-387.08 73,-381.08 77,-387.08 73,-393.08"/>
</a>
</g>
<text text-anchor="middle" x="94.5" y="-435" font-family="Helvetica,sans-Serif" font-size="10.00" fill="grey"> +height</text>
<text text-anchor="middle" x="94.5" y="-424" font-family="Helvetica,sans-Serif" font-size="10.00" fill="grey">+width</text>
<text text-anchor="middle" x="94.5" y="-413" font-family="Helvetica,sans-Serif" font-size="10.00" fill="grey">+x</text>
<text text-anchor="middle" x="94.5" y="-402" font-family="Helvetica,sans-Serif" font-size="10.00" fill="grey">+y</text>
</g>
<!-- Node4 -->
<g id="Node000004" class="node">
<title>Node4</title>
<g id="a_Node000004"><a xlink:title=" ">
<polygon fill="white" stroke="transparent" points="196,-276 164,-276 164,-227 196,-227 196,-276"/>
<text text-anchor="start" x="169" y="-263.5" font-family="Helvetica,sans-Serif" font-size="10.00">float</text>
<text text-anchor="start" x="178" y="-248.5" font-family="Helvetica,sans-Serif" font-size="10.00"> </text>
<text text-anchor="start" x="178" y="-233.5" font-family="Helvetica,sans-Serif" font-size="10.00"> </text>
<polygon fill="#666666" stroke="#666666" points="164,-258.5 164,-258.5 196,-258.5 196,-258.5 164,-258.5"/>
<polygon fill="#666666" stroke="#666666" points="164,-243.5 164,-243.5 196,-243.5 196,-243.5 164,-243.5"/>
<polygon fill="none" stroke="#666666" points="164,-227 164,-276 196,-276 196,-227 164,-227"/>
</a>
</g>
</g>
<!-- Node4&#45;&gt;Node1 -->
<g id="edge3_Node000001_Node000004" class="edge">
<title>Node4&#45;&gt;Node1</title>
<g id="a_edge3_Node000001_Node000004"><a xlink:title=" ">
<path fill="none" stroke="#63b8ff" d="M180,-226.59C180,-192.91 180,-130.74 180,-87.12"/>
<polygon fill="none" stroke="#63b8ff" points="180,-87.07 176,-81.07 180,-75.07 184,-81.07 180,-87.07"/>
</a>
</g>
<text text-anchor="middle" x="199" y="-96" font-family="Helvetica,sans-Serif" font-size="10.00" fill="grey"> +score</text>
</g>
<!-- Node5 -->
<g id="Node000005" class="node">
<title>Node5</title>
<g id="a_Node000005"><a xlink:title=" ">
<polygon fill="white" stroke="transparent" points="252.5,-276 229.5,-276 229.5,-227 252.5,-227 252.5,-276"/>
<text text-anchor="start" x="235" y="-263.5" font-family="Helvetica,sans-Serif" font-size="10.00">int</text>
<text text-anchor="start" x="239.5" y="-248.5" font-family="Helvetica,sans-Serif" font-size="10.00"> </text>
<text text-anchor="start" x="239.5" y="-233.5" font-family="Helvetica,sans-Serif" font-size="10.00"> </text>
<polygon fill="#666666" stroke="#666666" points="230,-258.5 230,-258.5 253,-258.5 253,-258.5 230,-258.5"/>
<polygon fill="#666666" stroke="#666666" points="230,-243.5 230,-243.5 253,-243.5 253,-243.5 230,-243.5"/>
<polygon fill="none" stroke="#666666" points="229.5,-227 229.5,-276 252.5,-276 252.5,-227 229.5,-227"/>
</a>
</g>
</g>
<!-- Node5&#45;&gt;Node1 -->
<g id="edge4_Node000001_Node000005" class="edge">
<title>Node5&#45;&gt;Node1</title>
<g id="a_edge4_Node000001_Node000005"><a xlink:title=" ">
<path fill="none" stroke="#63b8ff" d="M241.17,-226.92C240.64,-195.32 236.97,-138 219,-93 218.06,-90.64 216.99,-88.28 215.83,-85.94"/>
<polygon fill="none" stroke="#63b8ff" points="215.68,-85.69 209.25,-82.43 209.79,-75.24 216.22,-78.5 215.68,-85.69"/>
</a>
</g>
<text text-anchor="middle" x="245.5" y="-96" font-family="Helvetica,sans-Serif" font-size="10.00" fill="grey"> +classID</text>
</g>
</g>
</svg>
