<?xml version="1.0" encoding="UTF-8" standalone="no"?>
<!DOCTYPE svg PUBLIC "-//W3C//DTD SVG 1.1//EN"
 "http://www.w3.org/Graphics/SVG/1.1/DTD/svg11.dtd">
<!-- Generated by graphviz version 2.43.0 (0)
 -->
<!-- Title: opencv2/core/persistence.hpp Pages: 1 -->
<svg width="1694pt" height="522pt"
 viewBox="0.00 0.00 1693.50 522.00" xmlns="http://www.w3.org/2000/svg" xmlns:xlink="http://www.w3.org/1999/xlink">
<g id="graph0" class="graph" transform="scale(1 1) rotate(0) translate(4 518)">
<title>opencv2/core/persistence.hpp</title>
<!-- Node1 -->
<g id="Node000001" class="node">
<title>Node1</title>
<g id="a_Node000001"><a xlink:title=" ">
<polygon fill="#999999" stroke="#666666" points="292,-514 130,-514 130,-495 292,-495 292,-514"/>
<text text-anchor="middle" x="211" y="-502" font-family="Helvetica,sans-Serif" font-size="10.00">opencv2/core/persistence.hpp</text>
</a>
</g>
</g>
<!-- Node2 -->
<g id="Node000002" class="node">
<title>Node2</title>
<g id="a_Node000002"><a xlink:href="../../db/dfc/modules_2core_2include_2opencv2_2core_2types_8hpp.html" target="_top" xlink:title=" ">
<polygon fill="white" stroke="#666666" points="177.5,-404 44.5,-404 44.5,-385 177.5,-385 177.5,-404"/>
<text text-anchor="middle" x="111" y="-392" font-family="Helvetica,sans-Serif" font-size="10.00">opencv2/core/types.hpp</text>
</a>
</g>
</g>
<!-- Node1&#45;&gt;Node2 -->
<g id="edge1_Node000001_Node000002" class="edge">
<title>Node1&#45;&gt;Node2</title>
<g id="a_edge1_Node000001_Node000002"><a xlink:title=" ">
<path fill="none" stroke="#63b8ff" d="M202.82,-494.66C186.03,-476.54 147.49,-434.91 126.07,-411.77"/>
<polygon fill="#63b8ff" stroke="#63b8ff" points="128.38,-409.12 119.02,-404.16 123.24,-413.87 128.38,-409.12"/>
</a>
</g>
</g>
<!-- Node37 -->
<g id="Node000037" class="node">
<title>Node37</title>
<g id="a_Node000037"><a xlink:href="../../d3/d82/core_2include_2opencv2_2core_2mat_8hpp.html" target="_top" xlink:title=" ">
<polygon fill="white" stroke="#666666" points="374.5,-459 249.5,-459 249.5,-440 374.5,-440 374.5,-459"/>
<text text-anchor="middle" x="312" y="-447" font-family="Helvetica,sans-Serif" font-size="10.00">opencv2/core/mat.hpp</text>
</a>
</g>
</g>
<!-- Node1&#45;&gt;Node37 -->
<g id="edge54_Node000001_Node000037" class="edge">
<title>Node1&#45;&gt;Node37</title>
<g id="a_edge54_Node000001_Node000037"><a xlink:title=" ">
<path fill="none" stroke="#63b8ff" d="M227.23,-494.98C243.18,-486.61 267.78,-473.7 286.38,-463.95"/>
<polygon fill="#63b8ff" stroke="#63b8ff" points="288.25,-466.92 295.48,-459.17 285,-460.72 288.25,-466.92"/>
</a>
</g>
</g>
<!-- Node3 -->
<g id="Node000003" class="node">
<title>Node3</title>
<g id="a_Node000003"><a xlink:title=" ">
<polygon fill="#e0e0e0" stroke="#999999" points="545,-239 495,-239 495,-220 545,-220 545,-239"/>
<text text-anchor="middle" x="520" y="-227" font-family="Helvetica,sans-Serif" font-size="10.00">climits</text>
</a>
</g>
</g>
<!-- Node2&#45;&gt;Node3 -->
<g id="edge2_Node000002_Node000003" class="edge">
<title>Node2&#45;&gt;Node3</title>
<g id="a_edge2_Node000002_Node000003"><a xlink:title=" ">
<path fill="none" stroke="#63b8ff" d="M154.18,-384.97C189.44,-377.38 240.25,-365.01 283,-349 364.53,-318.46 455.04,-268.31 496.7,-244.24"/>
<polygon fill="#63b8ff" stroke="#63b8ff" points="498.63,-247.16 505.51,-239.11 495.11,-241.11 498.63,-247.16"/>
</a>
</g>
</g>
<!-- Node4 -->
<g id="Node000004" class="node">
<title>Node4</title>
<g id="a_Node000004"><a xlink:title=" ">
<polygon fill="#e0e0e0" stroke="#999999" points="90,-349 46,-349 46,-330 90,-330 90,-349"/>
<text text-anchor="middle" x="68" y="-337" font-family="Helvetica,sans-Serif" font-size="10.00">cfloat</text>
</a>
</g>
</g>
<!-- Node2&#45;&gt;Node4 -->
<g id="edge3_Node000002_Node000004" class="edge">
<title>Node2&#45;&gt;Node4</title>
<g id="a_edge3_Node000002_Node000004"><a xlink:title=" ">
<path fill="none" stroke="#63b8ff" d="M103.9,-384.75C97.83,-377.26 88.91,-366.28 81.49,-357.13"/>
<polygon fill="#63b8ff" stroke="#63b8ff" points="83.99,-354.65 74.97,-349.09 78.55,-359.06 83.99,-354.65"/>
</a>
</g>
</g>
<!-- Node5 -->
<g id="Node000005" class="node">
<title>Node5</title>
<g id="a_Node000005"><a xlink:title=" ">
<polygon fill="#e0e0e0" stroke="#999999" points="155.5,-349 108.5,-349 108.5,-330 155.5,-330 155.5,-349"/>
<text text-anchor="middle" x="132" y="-337" font-family="Helvetica,sans-Serif" font-size="10.00">vector</text>
</a>
</g>
</g>
<!-- Node2&#45;&gt;Node5 -->
<g id="edge4_Node000002_Node000005" class="edge">
<title>Node2&#45;&gt;Node5</title>
<g id="a_edge4_Node000002_Node000005"><a xlink:title=" ">
<path fill="none" stroke="#63b8ff" d="M114.47,-384.75C117.28,-377.65 121.34,-367.4 124.85,-358.56"/>
<polygon fill="#63b8ff" stroke="#63b8ff" points="128.17,-359.68 128.6,-349.09 121.66,-357.1 128.17,-359.68"/>
</a>
</g>
</g>
<!-- Node6 -->
<g id="Node000006" class="node">
<title>Node6</title>
<g id="a_Node000006"><a xlink:title=" ">
<polygon fill="#e0e0e0" stroke="#999999" points="328,-74 284,-74 284,-55 328,-55 328,-74"/>
<text text-anchor="middle" x="306" y="-62" font-family="Helvetica,sans-Serif" font-size="10.00">limits</text>
</a>
</g>
</g>
<!-- Node2&#45;&gt;Node6 -->
<g id="edge5_Node000002_Node000006" class="edge">
<title>Node2&#45;&gt;Node6</title>
<g id="a_edge5_Node000002_Node000006"><a xlink:title=" ">
<path fill="none" stroke="#63b8ff" d="M90.64,-384.91C58.6,-369.86 0,-335.51 0,-285.5 0,-285.5 0,-285.5 0,-228.5 0,-105.48 195.05,-74.99 273.7,-67.7"/>
<polygon fill="#63b8ff" stroke="#63b8ff" points="274.33,-71.16 283.99,-66.82 273.73,-64.19 274.33,-71.16"/>
</a>
</g>
</g>
<!-- Node7 -->
<g id="Node000007" class="node">
<title>Node7</title>
<g id="a_Node000007"><a xlink:href="../../dc/dcc/cvdef_8h.html" target="_top" xlink:title=" ">
<polygon fill="white" stroke="#666666" points="807,-129 687,-129 687,-110 807,-110 807,-129"/>
<text text-anchor="middle" x="747" y="-117" font-family="Helvetica,sans-Serif" font-size="10.00">opencv2/core/cvdef.h</text>
</a>
</g>
</g>
<!-- Node2&#45;&gt;Node7 -->
<g id="edge6_Node000002_Node000007" class="edge">
<title>Node2&#45;&gt;Node7</title>
<g id="a_edge6_Node000002_Node000007"><a xlink:title=" ">
<path fill="none" stroke="#63b8ff" d="M137.11,-384.97C174.8,-370.82 240,-338.66 240,-285.5 240,-285.5 240,-285.5 240,-228.5 240,-199.04 236.2,-183.65 259,-165 290.62,-139.14 549.44,-127.04 676.77,-122.6"/>
<polygon fill="#63b8ff" stroke="#63b8ff" points="676.95,-126.1 686.82,-122.26 676.71,-119.1 676.95,-126.1"/>
</a>
</g>
</g>
<!-- Node14 -->
<g id="Node000014" class="node">
<title>Node14</title>
<g id="a_Node000014"><a xlink:href="../../dd/dc7/cvstd_8hpp.html" target="_top" xlink:title=" ">
<polygon fill="white" stroke="#666666" points="476,-239 344,-239 344,-220 476,-220 476,-239"/>
<text text-anchor="middle" x="410" y="-227" font-family="Helvetica,sans-Serif" font-size="10.00">opencv2/core/cvstd.hpp</text>
</a>
</g>
</g>
<!-- Node2&#45;&gt;Node14 -->
<g id="edge14_Node000002_Node000014" class="edge">
<title>Node2&#45;&gt;Node14</title>
<g id="a_edge14_Node000002_Node000014"><a xlink:title=" ">
<path fill="none" stroke="#63b8ff" d="M151.29,-384.94C180.77,-377.75 221.18,-365.91 254,-349 309.9,-320.21 366.42,-271.2 393.51,-246.19"/>
<polygon fill="#63b8ff" stroke="#63b8ff" points="396.02,-248.63 400.94,-239.25 391.24,-243.52 396.02,-248.63"/>
</a>
</g>
</g>
<!-- Node25 -->
<g id="Node000025" class="node">
<title>Node25</title>
<g id="a_Node000025"><a xlink:href="../../dc/d09/matx_8hpp.html" target="_top" xlink:title=" ">
<polygon fill="white" stroke="#666666" points="948.5,-349 817.5,-349 817.5,-330 948.5,-330 948.5,-349"/>
<text text-anchor="middle" x="883" y="-337" font-family="Helvetica,sans-Serif" font-size="10.00">opencv2/core/matx.hpp</text>
</a>
</g>
</g>
<!-- Node2&#45;&gt;Node25 -->
<g id="edge29_Node000002_Node000025" class="edge">
<title>Node2&#45;&gt;Node25</title>
<g id="a_edge29_Node000002_Node000025"><a xlink:title=" ">
<path fill="none" stroke="#63b8ff" d="M177.6,-388.46C193.16,-387.3 209.66,-386.09 225,-385 435.79,-370.01 684.64,-353.51 807.12,-345.46"/>
<polygon fill="#63b8ff" stroke="#63b8ff" points="807.4,-348.95 817.15,-344.8 806.94,-341.97 807.4,-348.95"/>
</a>
</g>
</g>
<!-- Node7&#45;&gt;Node6 -->
<g id="edge8_Node000007_Node000006" class="edge">
<title>Node7&#45;&gt;Node6</title>
<g id="a_edge8_Node000007_Node000006"><a xlink:title=" ">
<path fill="none" stroke="#63b8ff" d="M686.61,-111.24C591.95,-99.87 411.89,-78.23 338.43,-69.4"/>
<polygon fill="#63b8ff" stroke="#63b8ff" points="338.73,-65.91 328.38,-68.19 337.89,-72.86 338.73,-65.91"/>
</a>
</g>
</g>
<!-- Node8 -->
<g id="Node000008" class="node">
<title>Node8</title>
<g id="a_Node000008"><a xlink:href="../../da/dd7/core_2include_2opencv2_2core_2version_8hpp.html" target="_top" xlink:title=" ">
<polygon fill="white" stroke="#666666" points="818,-74 676,-74 676,-55 818,-55 818,-74"/>
<text text-anchor="middle" x="747" y="-62" font-family="Helvetica,sans-Serif" font-size="10.00">opencv2/core/version.hpp</text>
</a>
</g>
</g>
<!-- Node7&#45;&gt;Node8 -->
<g id="edge7_Node000007_Node000008" class="edge">
<title>Node7&#45;&gt;Node8</title>
<g id="a_edge7_Node000007_Node000008"><a xlink:title=" ">
<path fill="none" stroke="#63b8ff" d="M747,-109.75C747,-102.8 747,-92.85 747,-84.13"/>
<polygon fill="#63b8ff" stroke="#63b8ff" points="750.5,-84.09 747,-74.09 743.5,-84.09 750.5,-84.09"/>
</a>
</g>
</g>
<!-- Node9 -->
<g id="Node000009" class="node">
<title>Node9</title>
<g id="a_Node000009"><a xlink:href="../../d2/d10/core_2include_2opencv2_2core_2hal_2interface_8h.html" target="_top" xlink:title=" ">
<polygon fill="white" stroke="#666666" points="991.5,-74 836.5,-74 836.5,-55 991.5,-55 991.5,-74"/>
<text text-anchor="middle" x="914" y="-62" font-family="Helvetica,sans-Serif" font-size="10.00">opencv2/core/hal/interface.h</text>
</a>
</g>
</g>
<!-- Node7&#45;&gt;Node9 -->
<g id="edge9_Node000007_Node000009" class="edge">
<title>Node7&#45;&gt;Node9</title>
<g id="a_edge9_Node000007_Node000009"><a xlink:title=" ">
<path fill="none" stroke="#63b8ff" d="M773.83,-109.98C801.87,-101.09 846.05,-87.07 877.3,-77.15"/>
<polygon fill="#63b8ff" stroke="#63b8ff" points="878.49,-80.44 886.96,-74.08 876.37,-73.77 878.49,-80.44"/>
</a>
</g>
</g>
<!-- Node12 -->
<g id="Node000012" class="node">
<title>Node12</title>
<g id="a_Node000012"><a xlink:href="../../d1/dac/cv__cpu__dispatch_8h.html" target="_top" xlink:title=" ">
<polygon fill="white" stroke="#666666" points="590,-74 484,-74 484,-55 590,-55 590,-74"/>
<text text-anchor="middle" x="537" y="-62" font-family="Helvetica,sans-Serif" font-size="10.00">cv_cpu_dispatch.h</text>
</a>
</g>
</g>
<!-- Node7&#45;&gt;Node12 -->
<g id="edge12_Node000007_Node000012" class="edge">
<title>Node7&#45;&gt;Node12</title>
<g id="a_edge12_Node000007_Node000012"><a xlink:title=" ">
<path fill="none" stroke="#63b8ff" d="M713.26,-109.98C677.32,-100.91 620.28,-86.52 580.87,-76.57"/>
<polygon fill="#63b8ff" stroke="#63b8ff" points="581.56,-73.14 571,-74.08 579.84,-79.92 581.56,-73.14"/>
</a>
</g>
</g>
<!-- Node13 -->
<g id="Node000013" class="node">
<title>Node13</title>
<g id="a_Node000013"><a xlink:title=" ">
<polygon fill="#e0e0e0" stroke="#999999" points="658,-74 608,-74 608,-55 658,-55 658,-74"/>
<text text-anchor="middle" x="633" y="-62" font-family="Helvetica,sans-Serif" font-size="10.00">cstdint</text>
</a>
</g>
</g>
<!-- Node7&#45;&gt;Node13 -->
<g id="edge13_Node000007_Node000013" class="edge">
<title>Node7&#45;&gt;Node13</title>
<g id="a_edge13_Node000007_Node000013"><a xlink:title=" ">
<path fill="none" stroke="#63b8ff" d="M728.68,-109.98C710.34,-101.46 681.89,-88.23 660.77,-78.41"/>
<polygon fill="#63b8ff" stroke="#63b8ff" points="662.19,-75.21 651.65,-74.17 659.24,-81.56 662.19,-75.21"/>
</a>
</g>
</g>
<!-- Node10 -->
<g id="Node000010" class="node">
<title>Node10</title>
<g id="a_Node000010"><a xlink:title=" ">
<polygon fill="#e0e0e0" stroke="#999999" points="506.5,-19 453.5,-19 453.5,0 506.5,0 506.5,-19"/>
<text text-anchor="middle" x="480" y="-7" font-family="Helvetica,sans-Serif" font-size="10.00">cstddef</text>
</a>
</g>
</g>
<!-- Node9&#45;&gt;Node10 -->
<g id="edge10_Node000009_Node000010" class="edge">
<title>Node9&#45;&gt;Node10</title>
<g id="a_edge10_Node000009_Node000010"><a xlink:title=" ">
<path fill="none" stroke="#63b8ff" d="M844.27,-54.98C751.09,-43.61 589.32,-23.85 516.9,-15.01"/>
<polygon fill="#63b8ff" stroke="#63b8ff" points="517.23,-11.52 506.88,-13.78 516.38,-18.47 517.23,-11.52"/>
</a>
</g>
</g>
<!-- Node11 -->
<g id="Node000011" class="node">
<title>Node11</title>
<g id="a_Node000011"><a xlink:title=" ">
<polygon fill="#e0e0e0" stroke="#999999" points="940.5,-19 887.5,-19 887.5,0 940.5,0 940.5,-19"/>
<text text-anchor="middle" x="914" y="-7" font-family="Helvetica,sans-Serif" font-size="10.00">stdint.h</text>
</a>
</g>
</g>
<!-- Node9&#45;&gt;Node11 -->
<g id="edge11_Node000009_Node000011" class="edge">
<title>Node9&#45;&gt;Node11</title>
<g id="a_edge11_Node000009_Node000011"><a xlink:title=" ">
<path fill="none" stroke="#63b8ff" d="M914,-54.75C914,-47.8 914,-37.85 914,-29.13"/>
<polygon fill="#63b8ff" stroke="#63b8ff" points="917.5,-29.09 914,-19.09 910.5,-29.09 917.5,-29.09"/>
</a>
</g>
</g>
<!-- Node14&#45;&gt;Node7 -->
<g id="edge15_Node000014_Node000007" class="edge">
<title>Node14&#45;&gt;Node7</title>
<g id="a_edge15_Node000014_Node000007"><a xlink:title=" ">
<path fill="none" stroke="#63b8ff" d="M445.81,-219.93C477.19,-211.98 523.77,-199.13 563,-184 580.99,-177.06 584.06,-172.07 602,-165 635.64,-151.74 674.91,-139.9 704.09,-131.77"/>
<polygon fill="#63b8ff" stroke="#63b8ff" points="705.25,-135.09 713.96,-129.06 703.39,-128.34 705.25,-135.09"/>
</a>
</g>
</g>
<!-- Node14&#45;&gt;Node10 -->
<g id="edge16_Node000014_Node000010" class="edge">
<title>Node14&#45;&gt;Node10</title>
<g id="a_edge16_Node000014_Node000010"><a xlink:title=" ">
<path fill="none" stroke="#63b8ff" d="M343.8,-228.9C261.09,-227.82 126.56,-220.33 95,-184 89.46,-177.62 93.6,-173.33 95,-165 99.28,-139.49 95.68,-128.26 114,-110 160.91,-63.25 360.06,-28.54 443.25,-15.81"/>
<polygon fill="#63b8ff" stroke="#63b8ff" points="443.9,-19.25 453.27,-14.3 442.86,-12.33 443.9,-19.25"/>
</a>
</g>
</g>
<!-- Node15 -->
<g id="Node000015" class="node">
<title>Node15</title>
<g id="a_Node000015"><a xlink:title=" ">
<polygon fill="#e0e0e0" stroke="#999999" points="487,-184 437,-184 437,-165 487,-165 487,-184"/>
<text text-anchor="middle" x="462" y="-172" font-family="Helvetica,sans-Serif" font-size="10.00">cstring</text>
</a>
</g>
</g>
<!-- Node14&#45;&gt;Node15 -->
<g id="edge17_Node000014_Node000015" class="edge">
<title>Node14&#45;&gt;Node15</title>
<g id="a_edge17_Node000014_Node000015"><a xlink:title=" ">
<path fill="none" stroke="#63b8ff" d="M418.59,-219.75C426.16,-212.03 437.38,-200.6 446.51,-191.28"/>
<polygon fill="#63b8ff" stroke="#63b8ff" points="449.07,-193.68 453.57,-184.09 444.07,-188.78 449.07,-193.68"/>
</a>
</g>
</g>
<!-- Node16 -->
<g id="Node000016" class="node">
<title>Node16</title>
<g id="a_Node000016"><a xlink:title=" ">
<polygon fill="#e0e0e0" stroke="#999999" points="554.5,-184 505.5,-184 505.5,-165 554.5,-165 554.5,-184"/>
<text text-anchor="middle" x="530" y="-172" font-family="Helvetica,sans-Serif" font-size="10.00">cctype</text>
</a>
</g>
</g>
<!-- Node14&#45;&gt;Node16 -->
<g id="edge18_Node000014_Node000016" class="edge">
<title>Node14&#45;&gt;Node16</title>
<g id="a_edge18_Node000014_Node000016"><a xlink:title=" ">
<path fill="none" stroke="#63b8ff" d="M429.28,-219.98C448.67,-211.42 478.81,-198.11 501.07,-188.28"/>
<polygon fill="#63b8ff" stroke="#63b8ff" points="502.64,-191.41 510.37,-184.17 499.81,-185.01 502.64,-191.41"/>
</a>
</g>
</g>
<!-- Node17 -->
<g id="Node000017" class="node">
<title>Node17</title>
<g id="a_Node000017"><a xlink:title=" ">
<polygon fill="#e0e0e0" stroke="#999999" points="381,-129 337,-129 337,-110 381,-110 381,-129"/>
<text text-anchor="middle" x="359" y="-117" font-family="Helvetica,sans-Serif" font-size="10.00">string</text>
</a>
</g>
</g>
<!-- Node14&#45;&gt;Node17 -->
<g id="edge19_Node000014_Node000017" class="edge">
<title>Node14&#45;&gt;Node17</title>
<g id="a_edge19_Node000014_Node000017"><a xlink:title=" ">
<path fill="none" stroke="#63b8ff" d="M407.98,-219.99C404.85,-207.53 398.21,-183.76 389,-165 384.29,-155.4 377.77,-145.46 372.01,-137.42"/>
<polygon fill="#63b8ff" stroke="#63b8ff" points="374.74,-135.21 365.97,-129.26 369.11,-139.38 374.74,-135.21"/>
</a>
</g>
</g>
<!-- Node18 -->
<g id="Node000018" class="node">
<title>Node18</title>
<g id="a_Node000018"><a xlink:title=" ">
<polygon fill="#e0e0e0" stroke="#999999" points="779,-184 715,-184 715,-165 779,-165 779,-184"/>
<text text-anchor="middle" x="747" y="-172" font-family="Helvetica,sans-Serif" font-size="10.00">algorithm</text>
</a>
</g>
</g>
<!-- Node14&#45;&gt;Node18 -->
<g id="edge20_Node000014_Node000018" class="edge">
<title>Node14&#45;&gt;Node18</title>
<g id="a_edge20_Node000014_Node000018"><a xlink:title=" ">
<path fill="none" stroke="#63b8ff" d="M464.14,-219.98C531.16,-209.45 643.86,-191.72 704.81,-182.14"/>
<polygon fill="#63b8ff" stroke="#63b8ff" points="705.51,-185.57 714.85,-180.56 704.42,-178.65 705.51,-185.57"/>
</a>
</g>
</g>
<!-- Node19 -->
<g id="Node000019" class="node">
<title>Node19</title>
<g id="a_Node000019"><a xlink:title=" ">
<polygon fill="#e0e0e0" stroke="#999999" points="313.5,-184 268.5,-184 268.5,-165 313.5,-165 313.5,-184"/>
<text text-anchor="middle" x="291" y="-172" font-family="Helvetica,sans-Serif" font-size="10.00">utility</text>
</a>
</g>
</g>
<!-- Node14&#45;&gt;Node19 -->
<g id="edge21_Node000014_Node000019" class="edge">
<title>Node14&#45;&gt;Node19</title>
<g id="a_edge21_Node000014_Node000019"><a xlink:title=" ">
<path fill="none" stroke="#63b8ff" d="M390.88,-219.98C371.65,-211.42 341.77,-198.11 319.69,-188.28"/>
<polygon fill="#63b8ff" stroke="#63b8ff" points="321.03,-185.04 310.47,-184.17 318.18,-191.44 321.03,-185.04"/>
</a>
</g>
</g>
<!-- Node20 -->
<g id="Node000020" class="node">
<title>Node20</title>
<g id="a_Node000020"><a xlink:title=" ">
<polygon fill="#e0e0e0" stroke="#999999" points="380.5,-184 331.5,-184 331.5,-165 380.5,-165 380.5,-184"/>
<text text-anchor="middle" x="356" y="-172" font-family="Helvetica,sans-Serif" font-size="10.00">cstdlib</text>
</a>
</g>
</g>
<!-- Node14&#45;&gt;Node20 -->
<g id="edge22_Node000014_Node000020" class="edge">
<title>Node14&#45;&gt;Node20</title>
<g id="a_edge22_Node000014_Node000020"><a xlink:title=" ">
<path fill="none" stroke="#63b8ff" d="M401.08,-219.75C393.22,-212.03 381.57,-200.6 372.08,-191.28"/>
<polygon fill="#63b8ff" stroke="#63b8ff" points="374.34,-188.6 364.75,-184.09 369.44,-193.59 374.34,-188.6"/>
</a>
</g>
</g>
<!-- Node21 -->
<g id="Node000021" class="node">
<title>Node21</title>
<g id="a_Node000021"><a xlink:title=" ">
<polygon fill="#e0e0e0" stroke="#999999" points="658.5,-184 611.5,-184 611.5,-165 658.5,-165 658.5,-184"/>
<text text-anchor="middle" x="635" y="-172" font-family="Helvetica,sans-Serif" font-size="10.00">cmath</text>
</a>
</g>
</g>
<!-- Node14&#45;&gt;Node21 -->
<g id="edge23_Node000014_Node000021" class="edge">
<title>Node14&#45;&gt;Node21</title>
<g id="a_edge23_Node000014_Node000021"><a xlink:title=" ">
<path fill="none" stroke="#63b8ff" d="M446.15,-219.98C488.98,-209.9 559.76,-193.22 601.43,-183.41"/>
<polygon fill="#63b8ff" stroke="#63b8ff" points="602.43,-186.77 611.36,-181.07 600.83,-179.95 602.43,-186.77"/>
</a>
</g>
</g>
<!-- Node22 -->
<g id="Node000022" class="node">
<title>Node22</title>
<g id="a_Node000022"><a xlink:href="../../d7/d47/cvstd__wrapper_8hpp.html" target="_top" xlink:title=" ">
<polygon fill="white" stroke="#666666" points="212,-184 104,-184 104,-165 212,-165 212,-184"/>
<text text-anchor="middle" x="158" y="-172" font-family="Helvetica,sans-Serif" font-size="10.00">cvstd_wrapper.hpp</text>
</a>
</g>
</g>
<!-- Node14&#45;&gt;Node22 -->
<g id="edge24_Node000014_Node000022" class="edge">
<title>Node14&#45;&gt;Node22</title>
<g id="a_edge24_Node000014_Node000022"><a xlink:title=" ">
<path fill="none" stroke="#63b8ff" d="M369.51,-219.98C325.83,-210.8 256.19,-196.15 208.85,-186.19"/>
<polygon fill="#63b8ff" stroke="#63b8ff" points="209.31,-182.72 198.81,-184.08 207.87,-189.57 209.31,-182.72"/>
</a>
</g>
</g>
<!-- Node22&#45;&gt;Node7 -->
<g id="edge25_Node000022_Node000007" class="edge">
<title>Node22&#45;&gt;Node7</title>
<g id="a_edge25_Node000022_Node000007"><a xlink:title=" ">
<path fill="none" stroke="#63b8ff" d="M212.17,-166.53C216.84,-165.99 221.5,-165.47 226,-165 387.04,-148.06 576.61,-133.12 676.76,-125.62"/>
<polygon fill="#63b8ff" stroke="#63b8ff" points="677.05,-129.11 686.76,-124.88 676.53,-122.13 677.05,-129.11"/>
</a>
</g>
</g>
<!-- Node22&#45;&gt;Node17 -->
<g id="edge26_Node000022_Node000017" class="edge">
<title>Node22&#45;&gt;Node17</title>
<g id="a_edge26_Node000022_Node000017"><a xlink:title=" ">
<path fill="none" stroke="#63b8ff" d="M190.29,-164.98C227.83,-155.09 289.39,-138.86 326.85,-128.98"/>
<polygon fill="#63b8ff" stroke="#63b8ff" points="327.97,-132.3 336.74,-126.37 326.18,-125.53 327.97,-132.3"/>
</a>
</g>
</g>
<!-- Node23 -->
<g id="Node000023" class="node">
<title>Node23</title>
<g id="a_Node000023"><a xlink:title=" ">
<polygon fill="#e0e0e0" stroke="#999999" points="269,-129 211,-129 211,-110 269,-110 269,-129"/>
<text text-anchor="middle" x="240" y="-117" font-family="Helvetica,sans-Serif" font-size="10.00">memory</text>
</a>
</g>
</g>
<!-- Node22&#45;&gt;Node23 -->
<g id="edge27_Node000022_Node000023" class="edge">
<title>Node22&#45;&gt;Node23</title>
<g id="a_edge27_Node000022_Node000023"><a xlink:title=" ">
<path fill="none" stroke="#63b8ff" d="M171.17,-164.98C183.77,-156.84 203,-144.41 217.94,-134.76"/>
<polygon fill="#63b8ff" stroke="#63b8ff" points="220.09,-137.54 226.59,-129.17 216.29,-131.66 220.09,-137.54"/>
</a>
</g>
</g>
<!-- Node24 -->
<g id="Node000024" class="node">
<title>Node24</title>
<g id="a_Node000024"><a xlink:title=" ">
<polygon fill="#e0e0e0" stroke="#999999" points="192.5,-129 123.5,-129 123.5,-110 192.5,-110 192.5,-129"/>
<text text-anchor="middle" x="158" y="-117" font-family="Helvetica,sans-Serif" font-size="10.00">type_traits</text>
</a>
</g>
</g>
<!-- Node22&#45;&gt;Node24 -->
<g id="edge28_Node000022_Node000024" class="edge">
<title>Node22&#45;&gt;Node24</title>
<g id="a_edge28_Node000022_Node000024"><a xlink:title=" ">
<path fill="none" stroke="#63b8ff" d="M158,-164.75C158,-157.8 158,-147.85 158,-139.13"/>
<polygon fill="#63b8ff" stroke="#63b8ff" points="161.5,-139.09 158,-129.09 154.5,-139.09 161.5,-139.09"/>
</a>
</g>
</g>
<!-- Node25&#45;&gt;Node7 -->
<g id="edge30_Node000025_Node000007" class="edge">
<title>Node25&#45;&gt;Node7</title>
<g id="a_edge30_Node000025_Node000007"><a xlink:title=" ">
<path fill="none" stroke="#63b8ff" d="M948.55,-337.2C1042.56,-334.28 1220.71,-324.79 1369,-294 1448.49,-277.5 1558.7,-297.95 1536,-220 1527.9,-192.18 1525.98,-179.69 1501,-165 1442.99,-130.89 993.16,-122.87 817.22,-121.03"/>
<polygon fill="#63b8ff" stroke="#63b8ff" points="817.07,-117.53 807.03,-120.93 817,-124.53 817.07,-117.53"/>
</a>
</g>
</g>
<!-- Node26 -->
<g id="Node000026" class="node">
<title>Node26</title>
<g id="a_Node000026"><a xlink:href="../../df/dc3/core_2include_2opencv2_2core_2base_8hpp.html" target="_top" xlink:title=" ">
<polygon fill="white" stroke="#666666" points="1025.5,-294 896.5,-294 896.5,-275 1025.5,-275 1025.5,-294"/>
<text text-anchor="middle" x="961" y="-282" font-family="Helvetica,sans-Serif" font-size="10.00">opencv2/core/base.hpp</text>
</a>
</g>
</g>
<!-- Node25&#45;&gt;Node26 -->
<g id="edge31_Node000025_Node000026" class="edge">
<title>Node25&#45;&gt;Node26</title>
<g id="a_edge31_Node000025_Node000026"><a xlink:title=" ">
<path fill="none" stroke="#63b8ff" d="M895.53,-329.98C907.4,-321.92 925.46,-309.65 939.61,-300.03"/>
<polygon fill="#63b8ff" stroke="#63b8ff" points="941.94,-302.69 948.24,-294.17 938,-296.9 941.94,-302.69"/>
</a>
</g>
</g>
<!-- Node32 -->
<g id="Node000032" class="node">
<title>Node32</title>
<g id="a_Node000032"><a xlink:href="../../d9/deb/modules_2core_2include_2opencv2_2core_2traits_8hpp.html" target="_top" xlink:title=" ">
<polygon fill="white" stroke="#666666" points="1360.5,-294 1229.5,-294 1229.5,-275 1360.5,-275 1360.5,-294"/>
<text text-anchor="middle" x="1295" y="-282" font-family="Helvetica,sans-Serif" font-size="10.00">opencv2/core/traits.hpp</text>
</a>
</g>
</g>
<!-- Node25&#45;&gt;Node32 -->
<g id="edge44_Node000025_Node000032" class="edge">
<title>Node25&#45;&gt;Node32</title>
<g id="a_edge44_Node000025_Node000032"><a xlink:title=" ">
<path fill="none" stroke="#63b8ff" d="M948.74,-330.04C1022.44,-320.56 1141.77,-305.21 1219.31,-295.24"/>
<polygon fill="#63b8ff" stroke="#63b8ff" points="1220.02,-298.67 1229.5,-293.93 1219.13,-291.73 1220.02,-298.67"/>
</a>
</g>
</g>
<!-- Node33 -->
<g id="Node000033" class="node">
<title>Node33</title>
<g id="a_Node000033"><a xlink:href="../../db/dbb/core_2include_2opencv2_2core_2saturate_8hpp.html" target="_top" xlink:title=" ">
<polygon fill="white" stroke="#666666" points="714,-294 568,-294 568,-275 714,-275 714,-294"/>
<text text-anchor="middle" x="641" y="-282" font-family="Helvetica,sans-Serif" font-size="10.00">opencv2/core/saturate.hpp</text>
</a>
</g>
</g>
<!-- Node25&#45;&gt;Node33 -->
<g id="edge46_Node000025_Node000033" class="edge">
<title>Node25&#45;&gt;Node33</title>
<g id="a_edge46_Node000025_Node000033"><a xlink:title=" ">
<path fill="none" stroke="#63b8ff" d="M844.12,-329.98C802.26,-320.82 735.57,-306.21 690.12,-296.26"/>
<polygon fill="#63b8ff" stroke="#63b8ff" points="690.7,-292.8 680.19,-294.08 689.21,-299.64 690.7,-292.8"/>
</a>
</g>
</g>
<!-- Node35 -->
<g id="Node000035" class="node">
<title>Node35</title>
<g id="a_Node000035"><a xlink:title=" ">
<polygon fill="#e0e0e0" stroke="#999999" points="1685.5,-294 1602.5,-294 1602.5,-275 1685.5,-275 1685.5,-294"/>
<text text-anchor="middle" x="1644" y="-282" font-family="Helvetica,sans-Serif" font-size="10.00">initializer_list</text>
</a>
</g>
</g>
<!-- Node25&#45;&gt;Node35 -->
<g id="edge52_Node000025_Node000035" class="edge">
<title>Node25&#45;&gt;Node35</title>
<g id="a_edge52_Node000025_Node000035"><a xlink:title=" ">
<path fill="none" stroke="#63b8ff" d="M948.77,-336.27C1073.65,-331.62 1353.57,-319.14 1588,-294 1589.47,-293.84 1590.95,-293.67 1592.45,-293.5"/>
<polygon fill="#63b8ff" stroke="#63b8ff" points="1592.99,-296.96 1602.46,-292.22 1592.1,-290.01 1592.99,-296.96"/>
</a>
</g>
</g>
<!-- Node36 -->
<g id="Node000036" class="node">
<title>Node36</title>
<g id="a_Node000036"><a xlink:title=" ">
<polygon fill="#e0e0e0" stroke="#999999" points="878,-294 732,-294 732,-275 878,-275 878,-294"/>
<text text-anchor="middle" x="805" y="-282" font-family="Helvetica,sans-Serif" font-size="10.00">opencv2/core/matx.inl.hpp</text>
</a>
</g>
</g>
<!-- Node25&#45;&gt;Node36 -->
<g id="edge53_Node000025_Node000036" class="edge">
<title>Node25&#45;&gt;Node36</title>
<g id="a_edge53_Node000025_Node000036"><a xlink:title=" ">
<path fill="none" stroke="#63b8ff" d="M870.47,-329.98C858.6,-321.92 840.54,-309.65 826.39,-300.03"/>
<polygon fill="#63b8ff" stroke="#63b8ff" points="828,-296.9 817.76,-294.17 824.06,-302.69 828,-296.9"/>
</a>
</g>
</g>
<!-- Node26&#45;&gt;Node3 -->
<g id="edge33_Node000026_Node000003" class="edge">
<title>Node26&#45;&gt;Node3</title>
<g id="a_edge33_Node000026_Node000003"><a xlink:title=" ">
<path fill="none" stroke="#63b8ff" d="M896.43,-276.06C893.24,-275.7 890.08,-275.34 887,-275 742.23,-258.86 702.26,-264.84 555.02,-238.95"/>
<polygon fill="#63b8ff" stroke="#63b8ff" points="555.63,-235.51 545.17,-237.2 554.4,-242.4 555.63,-235.51"/>
</a>
</g>
</g>
<!-- Node26&#45;&gt;Node7 -->
<g id="edge35_Node000026_Node000007" class="edge">
<title>Node26&#45;&gt;Node7</title>
<g id="a_edge35_Node000026_Node000007"><a xlink:title=" ">
<path fill="none" stroke="#63b8ff" d="M915.88,-274.94C891.68,-268.45 862.68,-257.4 842,-239 814.38,-214.42 827.57,-193.49 804,-165 794.4,-153.4 781.29,-142.9 770.06,-135.02"/>
<polygon fill="#63b8ff" stroke="#63b8ff" points="771.8,-131.97 761.56,-129.29 767.89,-137.78 771.8,-131.97"/>
</a>
</g>
</g>
<!-- Node26&#45;&gt;Node14 -->
<g id="edge36_Node000026_Node000014" class="edge">
<title>Node26&#45;&gt;Node14</title>
<g id="a_edge36_Node000026_Node000014"><a xlink:title=" ">
<path fill="none" stroke="#63b8ff" d="M896.44,-275.99C893.25,-275.65 890.09,-275.32 887,-275 712.21,-257.12 665.7,-256.95 486.35,-239.01"/>
<polygon fill="#63b8ff" stroke="#63b8ff" points="486.61,-235.52 476.31,-238 485.91,-242.48 486.61,-235.52"/>
</a>
</g>
</g>
<!-- Node26&#45;&gt;Node18 -->
<g id="edge34_Node000026_Node000018" class="edge">
<title>Node26&#45;&gt;Node18</title>
<g id="a_edge34_Node000026_Node000018"><a xlink:title=" ">
<path fill="none" stroke="#63b8ff" d="M908.34,-275C877.76,-268.43 839.4,-257.27 809,-239 788.88,-226.91 770.74,-206.71 759.36,-192.35"/>
<polygon fill="#63b8ff" stroke="#63b8ff" points="762.04,-190.09 753.19,-184.28 756.48,-194.35 762.04,-190.09"/>
</a>
</g>
</g>
<!-- Node27 -->
<g id="Node000027" class="node">
<title>Node27</title>
<g id="a_Node000027"><a xlink:title=" ">
<polygon fill="#e0e0e0" stroke="#999999" points="1189,-239 1025,-239 1025,-220 1189,-220 1189,-239"/>
<text text-anchor="middle" x="1107" y="-227" font-family="Helvetica,sans-Serif" font-size="10.00">opencv2/opencv_modules.hpp</text>
</a>
</g>
</g>
<!-- Node26&#45;&gt;Node27 -->
<g id="edge32_Node000026_Node000027" class="edge">
<title>Node26&#45;&gt;Node27</title>
<g id="a_edge32_Node000026_Node000027"><a xlink:title=" ">
<path fill="none" stroke="#63b8ff" d="M984.46,-274.98C1008.58,-266.23 1046.37,-252.51 1073.6,-242.62"/>
<polygon fill="#63b8ff" stroke="#63b8ff" points="1074.91,-245.87 1083.12,-239.17 1072.52,-239.29 1074.91,-245.87"/>
</a>
</g>
</g>
<!-- Node28 -->
<g id="Node000028" class="node">
<title>Node28</title>
<g id="a_Node000028"><a xlink:href="../../db/d38/neon__utils_8hpp.html" target="_top" xlink:title=" ">
<polygon fill="white" stroke="#666666" points="1007,-239 851,-239 851,-220 1007,-220 1007,-239"/>
<text text-anchor="middle" x="929" y="-227" font-family="Helvetica,sans-Serif" font-size="10.00">opencv2/core/neon_utils.hpp</text>
</a>
</g>
</g>
<!-- Node26&#45;&gt;Node28 -->
<g id="edge37_Node000026_Node000028" class="edge">
<title>Node26&#45;&gt;Node28</title>
<g id="a_edge37_Node000026_Node000028"><a xlink:title=" ">
<path fill="none" stroke="#63b8ff" d="M955.72,-274.75C951.29,-267.42 944.84,-256.73 939.38,-247.7"/>
<polygon fill="#63b8ff" stroke="#63b8ff" points="942.35,-245.84 934.19,-239.09 936.36,-249.46 942.35,-245.84"/>
</a>
</g>
</g>
<!-- Node29 -->
<g id="Node000029" class="node">
<title>Node29</title>
<g id="a_Node000029"><a xlink:href="../../db/d68/vsx__utils_8hpp.html" target="_top" xlink:title=" ">
<polygon fill="white" stroke="#666666" points="1508.5,-239 1359.5,-239 1359.5,-220 1508.5,-220 1508.5,-239"/>
<text text-anchor="middle" x="1434" y="-227" font-family="Helvetica,sans-Serif" font-size="10.00">opencv2/core/vsx_utils.hpp</text>
</a>
</g>
</g>
<!-- Node26&#45;&gt;Node29 -->
<g id="edge39_Node000026_Node000029" class="edge">
<title>Node26&#45;&gt;Node29</title>
<g id="a_edge39_Node000026_Node000029"><a xlink:title=" ">
<path fill="none" stroke="#63b8ff" d="M1025.78,-276.24C1109.67,-266.84 1256.11,-250.43 1348.9,-240.04"/>
<polygon fill="#63b8ff" stroke="#63b8ff" points="1349.55,-243.48 1359.1,-238.89 1348.77,-236.53 1349.55,-243.48"/>
</a>
</g>
</g>
<!-- Node31 -->
<g id="Node000031" class="node">
<title>Node31</title>
<g id="a_Node000031"><a xlink:href="../../d1/d26/check_8hpp.html" target="_top" xlink:title=" ">
<polygon fill="white" stroke="#666666" points="1341,-239 1207,-239 1207,-220 1341,-220 1341,-239"/>
<text text-anchor="middle" x="1274" y="-227" font-family="Helvetica,sans-Serif" font-size="10.00">opencv2/core/check.hpp</text>
</a>
</g>
</g>
<!-- Node26&#45;&gt;Node31 -->
<g id="edge42_Node000026_Node000031" class="edge">
<title>Node26&#45;&gt;Node31</title>
<g id="a_edge42_Node000026_Node000031"><a xlink:title=" ">
<path fill="none" stroke="#63b8ff" d="M1006.17,-274.98C1059.25,-265.65 1147.57,-250.67 1208.22,-240.71"/>
<polygon fill="#63b8ff" stroke="#63b8ff" points="1209.15,-244.11 1218.46,-239.04 1208.02,-237.2 1209.15,-244.11"/>
</a>
</g>
</g>
<!-- Node28&#45;&gt;Node7 -->
<g id="edge38_Node000028_Node000007" class="edge">
<title>Node28&#45;&gt;Node7</title>
<g id="a_edge38_Node000028_Node000007"><a xlink:title=" ">
<path fill="none" stroke="#63b8ff" d="M921.19,-219.61C909.03,-206.23 884.34,-180.8 859,-165 836.52,-150.99 808.88,-139.95 786.68,-132.37"/>
<polygon fill="#63b8ff" stroke="#63b8ff" points="787.5,-128.96 776.91,-129.14 785.3,-135.6 787.5,-128.96"/>
</a>
</g>
</g>
<!-- Node29&#45;&gt;Node7 -->
<g id="edge40_Node000029_Node000007" class="edge">
<title>Node29&#45;&gt;Node7</title>
<g id="a_edge40_Node000029_Node000007"><a xlink:title=" ">
<path fill="none" stroke="#63b8ff" d="M1379.81,-219.98C1254.59,-200.3 945.65,-151.73 811.22,-130.6"/>
<polygon fill="#63b8ff" stroke="#63b8ff" points="811.49,-127.1 801.07,-129 810.41,-134.01 811.49,-127.1"/>
</a>
</g>
</g>
<!-- Node30 -->
<g id="Node000030" class="node">
<title>Node30</title>
<g id="a_Node000030"><a xlink:title=" ">
<polygon fill="#e0e0e0" stroke="#999999" points="1462,-184 1406,-184 1406,-165 1462,-165 1462,-184"/>
<text text-anchor="middle" x="1434" y="-172" font-family="Helvetica,sans-Serif" font-size="10.00">assert.h</text>
</a>
</g>
</g>
<!-- Node29&#45;&gt;Node30 -->
<g id="edge41_Node000029_Node000030" class="edge">
<title>Node29&#45;&gt;Node30</title>
<g id="a_edge41_Node000029_Node000030"><a xlink:title=" ">
<path fill="none" stroke="#63b8ff" d="M1434,-219.75C1434,-212.8 1434,-202.85 1434,-194.13"/>
<polygon fill="#63b8ff" stroke="#63b8ff" points="1437.5,-194.09 1434,-184.09 1430.5,-194.09 1437.5,-194.09"/>
</a>
</g>
</g>
<!-- Node31&#45;&gt;Node26 -->
<g id="edge43_Node000031_Node000026" class="edge">
<title>Node31&#45;&gt;Node26</title>
<g id="a_edge43_Node000031_Node000026"><a xlink:title=" ">
<path fill="none" stroke="#63b8ff" d="M1228.45,-239.08C1175.28,-248.43 1087.13,-263.38 1026.62,-273.31"/>
<polygon fill="#63b8ff" stroke="#63b8ff" points="1025.71,-269.91 1016.4,-274.98 1026.84,-276.82 1025.71,-269.91"/>
</a>
</g>
</g>
<!-- Node32&#45;&gt;Node7 -->
<g id="edge45_Node000032_Node000007" class="edge">
<title>Node32&#45;&gt;Node7</title>
<g id="a_edge45_Node000032_Node000007"><a xlink:title=" ">
<path fill="none" stroke="#63b8ff" d="M1360.72,-279.41C1419.18,-274.23 1498.38,-262.92 1518,-239 1544.47,-206.73 1503.62,-181.27 1471,-165 1413.5,-136.33 987.57,-125.09 817.16,-121.71"/>
<polygon fill="#63b8ff" stroke="#63b8ff" points="817.11,-118.21 807.05,-121.51 816.98,-125.21 817.11,-118.21"/>
</a>
</g>
</g>
<!-- Node33&#45;&gt;Node3 -->
<g id="edge48_Node000033_Node000003" class="edge">
<title>Node33&#45;&gt;Node3</title>
<g id="a_edge48_Node000033_Node000003"><a xlink:title=" ">
<path fill="none" stroke="#63b8ff" d="M621.56,-274.98C602.01,-266.42 571.62,-253.11 549.18,-243.28"/>
<polygon fill="#63b8ff" stroke="#63b8ff" points="550.36,-239.98 539.79,-239.17 547.55,-246.39 550.36,-239.98"/>
</a>
</g>
</g>
<!-- Node33&#45;&gt;Node7 -->
<g id="edge47_Node000033_Node000007" class="edge">
<title>Node33&#45;&gt;Node7</title>
<g id="a_edge47_Node000033_Node000007"><a xlink:title=" ">
<path fill="none" stroke="#63b8ff" d="M668.64,-274.94C704.74,-262 765.96,-233.56 788,-184 795.85,-166.36 781.13,-148.02 767.2,-135.62"/>
<polygon fill="#63b8ff" stroke="#63b8ff" points="769.19,-132.72 759.26,-129.05 764.73,-138.12 769.19,-132.72"/>
</a>
</g>
</g>
<!-- Node34 -->
<g id="Node000034" class="node">
<title>Node34</title>
<g id="a_Node000034"><a xlink:href="../../d0/d2b/fast__math_8hpp.html" target="_top" xlink:title=" ">
<polygon fill="white" stroke="#666666" points="718.5,-239 563.5,-239 563.5,-220 718.5,-220 718.5,-239"/>
<text text-anchor="middle" x="641" y="-227" font-family="Helvetica,sans-Serif" font-size="10.00">opencv2/core/fast_math.hpp</text>
</a>
</g>
</g>
<!-- Node33&#45;&gt;Node34 -->
<g id="edge49_Node000033_Node000034" class="edge">
<title>Node33&#45;&gt;Node34</title>
<g id="a_edge49_Node000033_Node000034"><a xlink:title=" ">
<path fill="none" stroke="#63b8ff" d="M641,-274.75C641,-267.8 641,-257.85 641,-249.13"/>
<polygon fill="#63b8ff" stroke="#63b8ff" points="644.5,-249.09 641,-239.09 637.5,-249.09 644.5,-249.09"/>
</a>
</g>
</g>
<!-- Node34&#45;&gt;Node7 -->
<g id="edge50_Node000034_Node000007" class="edge">
<title>Node34&#45;&gt;Node7</title>
<g id="a_edge50_Node000034_Node000007"><a xlink:title=" ">
<path fill="none" stroke="#63b8ff" d="M649.67,-219.66C667.54,-201.46 708.68,-159.55 731.33,-136.47"/>
<polygon fill="#63b8ff" stroke="#63b8ff" points="734,-138.75 738.5,-129.16 729,-133.84 734,-138.75"/>
</a>
</g>
</g>
<!-- Node34&#45;&gt;Node21 -->
<g id="edge51_Node000034_Node000021" class="edge">
<title>Node34&#45;&gt;Node21</title>
<g id="a_edge51_Node000034_Node000021"><a xlink:title=" ">
<path fill="none" stroke="#63b8ff" d="M640.01,-219.75C639.22,-212.8 638.1,-202.85 637.11,-194.13"/>
<polygon fill="#63b8ff" stroke="#63b8ff" points="640.58,-193.63 635.97,-184.09 633.62,-194.42 640.58,-193.63"/>
</a>
</g>
</g>
<!-- Node37&#45;&gt;Node2 -->
<g id="edge56_Node000037_Node000002" class="edge">
<title>Node37&#45;&gt;Node2</title>
<g id="a_edge56_Node000037_Node000002"><a xlink:title=" ">
<path fill="none" stroke="#63b8ff" d="M279.71,-439.98C245.38,-430.93 190.94,-416.58 153.23,-406.64"/>
<polygon fill="#63b8ff" stroke="#63b8ff" points="154.11,-403.25 143.55,-404.08 152.32,-410.02 154.11,-403.25"/>
</a>
</g>
</g>
<!-- Node37&#45;&gt;Node24 -->
<g id="edge59_Node000037_Node000024" class="edge">
<title>Node37&#45;&gt;Node24</title>
<g id="a_edge59_Node000037_Node000024"><a xlink:title=" ">
<path fill="none" stroke="#63b8ff" d="M286.44,-439.86C267.74,-432.56 242.67,-420.62 225,-404 183.64,-365.09 109.97,-238.78 95,-184 92.77,-175.85 91.12,-172.5 95,-165 102.04,-151.41 115.34,-141.09 127.92,-133.82"/>
<polygon fill="#63b8ff" stroke="#63b8ff" points="129.67,-136.86 136.85,-129.07 126.38,-130.68 129.67,-136.86"/>
</a>
</g>
</g>
<!-- Node37&#45;&gt;Node25 -->
<g id="edge55_Node000037_Node000025" class="edge">
<title>Node37&#45;&gt;Node25</title>
<g id="a_edge55_Node000037_Node000025"><a xlink:title=" ">
<path fill="none" stroke="#63b8ff" d="M374.78,-441.01C436.63,-433.24 533.7,-419.99 617,-404 696.99,-388.65 789.24,-365.35 841.38,-351.66"/>
<polygon fill="#63b8ff" stroke="#63b8ff" points="842.49,-354.99 851.26,-349.05 840.7,-348.22 842.49,-354.99"/>
</a>
</g>
</g>
<!-- Node38 -->
<g id="Node000038" class="node">
<title>Node38</title>
<g id="a_Node000038"><a xlink:href="../../df/d28/bufferpool_8hpp.html" target="_top" xlink:title=" ">
<polygon fill="white" stroke="#666666" points="389.5,-404 234.5,-404 234.5,-385 389.5,-385 389.5,-404"/>
<text text-anchor="middle" x="312" y="-392" font-family="Helvetica,sans-Serif" font-size="10.00">opencv2/core/bufferpool.hpp</text>
</a>
</g>
</g>
<!-- Node37&#45;&gt;Node38 -->
<g id="edge57_Node000037_Node000038" class="edge">
<title>Node37&#45;&gt;Node38</title>
<g id="a_edge57_Node000037_Node000038"><a xlink:title=" ">
<path fill="none" stroke="#63b8ff" d="M312,-439.75C312,-432.8 312,-422.85 312,-414.13"/>
<polygon fill="#63b8ff" stroke="#63b8ff" points="315.5,-414.09 312,-404.09 308.5,-414.09 315.5,-414.09"/>
</a>
</g>
</g>
<!-- Node39 -->
<g id="Node000039" class="node">
<title>Node39</title>
<g id="a_Node000039"><a xlink:title=" ">
<polygon fill="#e0e0e0" stroke="#999999" points="450,-404 408,-404 408,-385 450,-385 450,-404"/>
<text text-anchor="middle" x="429" y="-392" font-family="Helvetica,sans-Serif" font-size="10.00">array</text>
</a>
</g>
</g>
<!-- Node37&#45;&gt;Node39 -->
<g id="edge58_Node000037_Node000039" class="edge">
<title>Node37&#45;&gt;Node39</title>
<g id="a_edge58_Node000037_Node000039"><a xlink:title=" ">
<path fill="none" stroke="#63b8ff" d="M330.8,-439.98C349.62,-431.46 378.82,-418.23 400.5,-408.41"/>
<polygon fill="#63b8ff" stroke="#63b8ff" points="402.2,-411.48 409.86,-404.17 399.31,-405.11 402.2,-411.48"/>
</a>
</g>
</g>
<!-- Node40 -->
<g id="Node000040" class="node">
<title>Node40</title>
<g id="a_Node000040"><a xlink:title=" ">
<polygon fill="#e0e0e0" stroke="#999999" points="608,-404 468,-404 468,-385 608,-385 608,-404"/>
<text text-anchor="middle" x="538" y="-392" font-family="Helvetica,sans-Serif" font-size="10.00">opencv2/core/mat.inl.hpp</text>
</a>
</g>
</g>
<!-- Node37&#45;&gt;Node40 -->
<g id="edge60_Node000037_Node000040" class="edge">
<title>Node37&#45;&gt;Node40</title>
<g id="a_edge60_Node000037_Node000040"><a xlink:title=" ">
<path fill="none" stroke="#63b8ff" d="M348.31,-439.98C387.24,-430.86 449.16,-416.33 491.6,-406.38"/>
<polygon fill="#63b8ff" stroke="#63b8ff" points="492.47,-409.77 501.4,-404.08 490.87,-402.96 492.47,-409.77"/>
</a>
</g>
</g>
</g>
</svg>
