<?xml version="1.0" encoding="UTF-8" standalone="no"?>
<!DOCTYPE svg PUBLIC "-//W3C//DTD SVG 1.1//EN"
 "http://www.w3.org/Graphics/SVG/1.1/DTD/svg11.dtd">
<!-- Generated by graphviz version 2.43.0 (0)
 -->
<!-- Title: cv::detail::SphericalPortraitWarper Pages: 1 -->
<svg width="416pt" height="924pt"
 viewBox="0.00 0.00 415.50 924.00" xmlns="http://www.w3.org/2000/svg" xmlns:xlink="http://www.w3.org/1999/xlink">
<g id="graph0" class="graph" transform="scale(1 1) rotate(0) translate(4 920)">
<title>cv::detail::SphericalPortraitWarper</title>
<!-- Node1 -->
<g id="Node000001" class="node">
<title>Node1</title>
<g id="a_Node000001"><a xlink:title=" ">
<polygon fill="#999999" stroke="transparent" points="235,-75 90,-75 90,0 235,0 235,-75"/>
<text text-anchor="start" x="97" y="-62.5" font-family="Helvetica,sans-Serif" font-size="10.00">cv::detail::SphericalPortrait</text>
<text text-anchor="start" x="145.5" y="-51.5" font-family="Helvetica,sans-Serif" font-size="10.00">Warper</text>
<text text-anchor="start" x="161" y="-36.5" font-family="Helvetica,sans-Serif" font-size="10.00"> </text>
<text text-anchor="start" x="94.5" y="-21.5" font-family="Helvetica,sans-Serif" font-size="10.00">+</text>
<text text-anchor="start" x="107.5" y="-21.5" font-family="Helvetica,sans-Serif" font-size="10.00">SphericalPortraitWarper()</text>
<text text-anchor="start" x="94.5" y="-6.5" font-family="Helvetica,sans-Serif" font-size="10.00">#</text>
<text text-anchor="start" x="107.5" y="-6.5" font-family="Helvetica,sans-Serif" font-size="10.00">detectResultRoi()</text>
<polygon fill="#666666" stroke="#666666" points="90.5,-46.5 90.5,-46.5 235.5,-46.5 235.5,-46.5 90.5,-46.5"/>
<polygon fill="#666666" stroke="#666666" points="90.5,-31.5 90.5,-31.5 235.5,-31.5 235.5,-31.5 90.5,-31.5"/>
<polygon fill="none" stroke="#666666" points="90,0 90,-75 235,-75 235,0 90,0"/>
</a>
</g>
</g>
<!-- Node2 -->
<g id="Node000002" class="node">
<title>Node2</title>
<g id="a_Node000002"><a xlink:href="../../d6/d65/classcv_1_1detail_1_1RotationWarperBase.html" target="_top" xlink:title=" ">
<polygon fill="white" stroke="transparent" points="253.5,-307 71.5,-307 71.5,-112 253.5,-112 253.5,-307"/>
<text text-anchor="start" x="76.5" y="-294.5" font-family="Helvetica,sans-Serif" font-size="10.00">cv::detail::RotationWarper</text>
<text text-anchor="start" x="76.5" y="-283.5" font-family="Helvetica,sans-Serif" font-size="10.00">Base&lt; SphericalPortraitProjector &gt;</text>
<text text-anchor="start" x="160.5" y="-268.5" font-family="Helvetica,sans-Serif" font-size="10.00"> </text>
<text text-anchor="start" x="83" y="-253.5" font-family="Helvetica,sans-Serif" font-size="10.00">+</text>
<text text-anchor="start" x="103.5" y="-253.5" font-family="Helvetica,sans-Serif" font-size="10.00">buildMaps()</text>
<text text-anchor="start" x="83" y="-238.5" font-family="Helvetica,sans-Serif" font-size="10.00">+</text>
<text text-anchor="start" x="103.5" y="-238.5" font-family="Helvetica,sans-Serif" font-size="10.00">getScale()</text>
<text text-anchor="start" x="83" y="-223.5" font-family="Helvetica,sans-Serif" font-size="10.00">+</text>
<text text-anchor="start" x="103.5" y="-223.5" font-family="Helvetica,sans-Serif" font-size="10.00">setScale()</text>
<text text-anchor="start" x="83" y="-208.5" font-family="Helvetica,sans-Serif" font-size="10.00">+</text>
<text text-anchor="start" x="103.5" y="-208.5" font-family="Helvetica,sans-Serif" font-size="10.00">warp()</text>
<text text-anchor="start" x="83" y="-193.5" font-family="Helvetica,sans-Serif" font-size="10.00">+</text>
<text text-anchor="start" x="103.5" y="-193.5" font-family="Helvetica,sans-Serif" font-size="10.00">warpBackward()</text>
<text text-anchor="start" x="83" y="-178.5" font-family="Helvetica,sans-Serif" font-size="10.00">+</text>
<text text-anchor="start" x="103.5" y="-178.5" font-family="Helvetica,sans-Serif" font-size="10.00">warpPoint()</text>
<text text-anchor="start" x="83" y="-163.5" font-family="Helvetica,sans-Serif" font-size="10.00">+</text>
<text text-anchor="start" x="103.5" y="-163.5" font-family="Helvetica,sans-Serif" font-size="10.00">warpPointBackward()</text>
<text text-anchor="start" x="83" y="-148.5" font-family="Helvetica,sans-Serif" font-size="10.00">+</text>
<text text-anchor="start" x="103.5" y="-148.5" font-family="Helvetica,sans-Serif" font-size="10.00">warpRoi()</text>
<text text-anchor="start" x="83" y="-133.5" font-family="Helvetica,sans-Serif" font-size="10.00">#</text>
<text text-anchor="start" x="103.5" y="-133.5" font-family="Helvetica,sans-Serif" font-size="10.00">detectResultRoi()</text>
<text text-anchor="start" x="83" y="-118.5" font-family="Helvetica,sans-Serif" font-size="10.00">#</text>
<text text-anchor="start" x="103.5" y="-118.5" font-family="Helvetica,sans-Serif" font-size="10.00">detectResultRoiByBorder()</text>
<polygon fill="#666666" stroke="#666666" points="71.5,-278.5 71.5,-278.5 253.5,-278.5 253.5,-278.5 71.5,-278.5"/>
<polygon fill="#666666" stroke="#666666" points="71.5,-263.5 71.5,-263.5 253.5,-263.5 253.5,-263.5 71.5,-263.5"/>
<polygon fill="none" stroke="#666666" points="71.5,-112 71.5,-307 253.5,-307 253.5,-112 71.5,-112"/>
</a>
</g>
</g>
<!-- Node2&#45;&gt;Node1 -->
<g id="edge1_Node000001_Node000002" class="edge">
<title>Node2&#45;&gt;Node1</title>
<g id="a_edge1_Node000001_Node000002"><a xlink:title=" ">
<path fill="none" stroke="#63b8ff" d="M162.5,-101.35C162.5,-92.03 162.5,-83.1 162.5,-75.03"/>
<polygon fill="none" stroke="#63b8ff" points="159,-101.58 162.5,-111.58 166,-101.58 159,-101.58"/>
</a>
</g>
</g>
<!-- Node3 -->
<g id="Node000003" class="node">
<title>Node3</title>
<g id="a_Node000003"><a xlink:href="../../da/db8/classcv_1_1detail_1_1RotationWarper.html" target="_top" xlink:title="Rotation&#45;only model image warper interface.">
<polygon fill="white" stroke="transparent" points="137,-765 0,-765 0,-596 137,-596 137,-765"/>
<text text-anchor="start" x="5.5" y="-752.5" font-family="Helvetica,sans-Serif" font-size="10.00">cv::detail::RotationWarper</text>
<text text-anchor="start" x="67" y="-737.5" font-family="Helvetica,sans-Serif" font-size="10.00"> </text>
<text text-anchor="start" x="7" y="-722.5" font-family="Helvetica,sans-Serif" font-size="10.00">+</text>
<text text-anchor="start" x="22.5" y="-722.5" font-family="Helvetica,sans-Serif" font-size="10.00">~RotationWarper()</text>
<text text-anchor="start" x="7" y="-707.5" font-family="Helvetica,sans-Serif" font-size="10.00">+</text>
<text text-anchor="start" x="22.5" y="-707.5" font-family="Helvetica,sans-Serif" font-size="10.00">buildMaps()</text>
<text text-anchor="start" x="7" y="-692.5" font-family="Helvetica,sans-Serif" font-size="10.00">+</text>
<text text-anchor="start" x="22.5" y="-692.5" font-family="Helvetica,sans-Serif" font-size="10.00">getScale()</text>
<text text-anchor="start" x="7" y="-677.5" font-family="Helvetica,sans-Serif" font-size="10.00">+</text>
<text text-anchor="start" x="22.5" y="-677.5" font-family="Helvetica,sans-Serif" font-size="10.00">setScale()</text>
<text text-anchor="start" x="7" y="-662.5" font-family="Helvetica,sans-Serif" font-size="10.00">+</text>
<text text-anchor="start" x="22.5" y="-662.5" font-family="Helvetica,sans-Serif" font-size="10.00">warp()</text>
<text text-anchor="start" x="7" y="-647.5" font-family="Helvetica,sans-Serif" font-size="10.00">+</text>
<text text-anchor="start" x="22.5" y="-647.5" font-family="Helvetica,sans-Serif" font-size="10.00">warpBackward()</text>
<text text-anchor="start" x="7" y="-632.5" font-family="Helvetica,sans-Serif" font-size="10.00">+</text>
<text text-anchor="start" x="22.5" y="-632.5" font-family="Helvetica,sans-Serif" font-size="10.00">warpPoint()</text>
<text text-anchor="start" x="7" y="-617.5" font-family="Helvetica,sans-Serif" font-size="10.00">+</text>
<text text-anchor="start" x="22.5" y="-617.5" font-family="Helvetica,sans-Serif" font-size="10.00">warpPointBackward()</text>
<text text-anchor="start" x="7" y="-602.5" font-family="Helvetica,sans-Serif" font-size="10.00">+</text>
<text text-anchor="start" x="22.5" y="-602.5" font-family="Helvetica,sans-Serif" font-size="10.00">warpRoi()</text>
<polygon fill="#666666" stroke="#666666" points="0.5,-747.5 0.5,-747.5 137.5,-747.5 137.5,-747.5 0.5,-747.5"/>
<polygon fill="#666666" stroke="#666666" points="0.5,-732.5 0.5,-732.5 137.5,-732.5 137.5,-732.5 0.5,-732.5"/>
<polygon fill="none" stroke="#666666" points="0,-596 0,-765 137,-765 137,-596 0,-596"/>
</a>
</g>
</g>
<!-- Node3&#45;&gt;Node2 -->
<g id="edge2_Node000002_Node000003" class="edge">
<title>Node3&#45;&gt;Node2</title>
<g id="a_edge2_Node000002_Node000003"><a xlink:title=" ">
<path fill="none" stroke="#63b8ff" d="M61.2,-585.51C58.79,-519.5 61.05,-429.81 82.5,-354 86.97,-338.22 93.46,-322.29 100.85,-307.07"/>
<polygon fill="none" stroke="#63b8ff" points="57.72,-586.04 61.62,-595.89 64.71,-585.76 57.72,-586.04"/>
</a>
</g>
</g>
<!-- Node7 -->
<g id="Node000007" class="node">
<title>Node7</title>
<g id="a_Node000007"><a xlink:href="../../d6/d65/classcv_1_1detail_1_1RotationWarperBase.html" target="_top" xlink:title="Base class for rotation&#45;based warper using a detail::ProjectorBase_ derived class.">
<polygon fill="white" stroke="transparent" points="243,-549 92,-549 92,-354 243,-354 243,-549"/>
<text text-anchor="start" x="104.5" y="-536.5" font-family="Helvetica,sans-Serif" font-size="10.00">cv::detail::RotationWarper</text>
<text text-anchor="start" x="141.5" y="-525.5" font-family="Helvetica,sans-Serif" font-size="10.00">Base&lt; P &gt;</text>
<text text-anchor="start" x="166" y="-510.5" font-family="Helvetica,sans-Serif" font-size="10.00"> </text>
<text text-anchor="start" x="96.5" y="-495.5" font-family="Helvetica,sans-Serif" font-size="10.00">+</text>
<text text-anchor="start" x="109.5" y="-495.5" font-family="Helvetica,sans-Serif" font-size="10.00">buildMaps()</text>
<text text-anchor="start" x="96.5" y="-480.5" font-family="Helvetica,sans-Serif" font-size="10.00">+</text>
<text text-anchor="start" x="109.5" y="-480.5" font-family="Helvetica,sans-Serif" font-size="10.00">getScale()</text>
<text text-anchor="start" x="96.5" y="-465.5" font-family="Helvetica,sans-Serif" font-size="10.00">+</text>
<text text-anchor="start" x="109.5" y="-465.5" font-family="Helvetica,sans-Serif" font-size="10.00">setScale()</text>
<text text-anchor="start" x="96.5" y="-450.5" font-family="Helvetica,sans-Serif" font-size="10.00">+</text>
<text text-anchor="start" x="109.5" y="-450.5" font-family="Helvetica,sans-Serif" font-size="10.00">warp()</text>
<text text-anchor="start" x="96.5" y="-435.5" font-family="Helvetica,sans-Serif" font-size="10.00">+</text>
<text text-anchor="start" x="109.5" y="-435.5" font-family="Helvetica,sans-Serif" font-size="10.00">warpBackward()</text>
<text text-anchor="start" x="96.5" y="-420.5" font-family="Helvetica,sans-Serif" font-size="10.00">+</text>
<text text-anchor="start" x="109.5" y="-420.5" font-family="Helvetica,sans-Serif" font-size="10.00">warpPoint()</text>
<text text-anchor="start" x="96.5" y="-405.5" font-family="Helvetica,sans-Serif" font-size="10.00">+</text>
<text text-anchor="start" x="109.5" y="-405.5" font-family="Helvetica,sans-Serif" font-size="10.00">warpPointBackward()</text>
<text text-anchor="start" x="96.5" y="-390.5" font-family="Helvetica,sans-Serif" font-size="10.00">+</text>
<text text-anchor="start" x="109.5" y="-390.5" font-family="Helvetica,sans-Serif" font-size="10.00">warpRoi()</text>
<text text-anchor="start" x="96.5" y="-375.5" font-family="Helvetica,sans-Serif" font-size="10.00">#</text>
<text text-anchor="start" x="109.5" y="-375.5" font-family="Helvetica,sans-Serif" font-size="10.00">detectResultRoi()</text>
<text text-anchor="start" x="96.5" y="-360.5" font-family="Helvetica,sans-Serif" font-size="10.00">#</text>
<text text-anchor="start" x="109.5" y="-360.5" font-family="Helvetica,sans-Serif" font-size="10.00">detectResultRoiByBorder()</text>
<polygon fill="#666666" stroke="#666666" points="92.5,-520.5 92.5,-520.5 243.5,-520.5 243.5,-520.5 92.5,-520.5"/>
<polygon fill="#666666" stroke="#666666" points="92.5,-505.5 92.5,-505.5 243.5,-505.5 243.5,-505.5 92.5,-505.5"/>
<polygon fill="none" stroke="#666666" points="92,-354 92,-549 243,-549 243,-354 92,-354"/>
</a>
</g>
</g>
<!-- Node3&#45;&gt;Node7 -->
<g id="edge7_Node000007_Node000003" class="edge">
<title>Node3&#45;&gt;Node7</title>
<g id="a_edge7_Node000007_Node000003"><a xlink:title=" ">
<path fill="none" stroke="#63b8ff" d="M109.01,-586.61C114.37,-574.31 119.88,-561.68 125.28,-549.32"/>
<polygon fill="none" stroke="#63b8ff" points="105.73,-585.38 104.94,-595.94 112.15,-588.17 105.73,-585.38"/>
</a>
</g>
</g>
<!-- Node4 -->
<g id="Node000004" class="node">
<title>Node4</title>
<g id="a_Node000004"><a xlink:href="../../d3/d0d/structcv_1_1detail_1_1SphericalPortraitProjector.html" target="_top" xlink:title=" ">
<polygon fill="white" stroke="transparent" points="407.5,-489 265.5,-489 265.5,-414 407.5,-414 407.5,-489"/>
<text text-anchor="start" x="270.5" y="-476.5" font-family="Helvetica,sans-Serif" font-size="10.00">cv::detail::SphericalPortrait</text>
<text text-anchor="start" x="314.5" y="-465.5" font-family="Helvetica,sans-Serif" font-size="10.00">Projector</text>
<text text-anchor="start" x="334.5" y="-450.5" font-family="Helvetica,sans-Serif" font-size="10.00"> </text>
<text text-anchor="start" x="280" y="-435.5" font-family="Helvetica,sans-Serif" font-size="10.00">+</text>
<text text-anchor="start" x="303.5" y="-435.5" font-family="Helvetica,sans-Serif" font-size="10.00">mapBackward()</text>
<text text-anchor="start" x="280" y="-420.5" font-family="Helvetica,sans-Serif" font-size="10.00">+</text>
<text text-anchor="start" x="303.5" y="-420.5" font-family="Helvetica,sans-Serif" font-size="10.00">mapForward()</text>
<polygon fill="#666666" stroke="#666666" points="265.5,-460.5 265.5,-460.5 407.5,-460.5 407.5,-460.5 265.5,-460.5"/>
<polygon fill="#666666" stroke="#666666" points="265.5,-445.5 265.5,-445.5 407.5,-445.5 407.5,-445.5 265.5,-445.5"/>
<polygon fill="none" stroke="#666666" points="265.5,-414 265.5,-489 407.5,-489 407.5,-414 265.5,-414"/>
</a>
</g>
</g>
<!-- Node4&#45;&gt;Node2 -->
<g id="edge3_Node000002_Node000004" class="edge">
<title>Node4&#45;&gt;Node2</title>
<g id="a_edge3_Node000002_Node000004"><a xlink:title=" ">
<path fill="none" stroke="#63b8ff" d="M337.05,-413.94C335.88,-387.47 330.9,-351.79 314.5,-325 301.53,-303.81 283.06,-285.19 263.45,-269.46"/>
<polygon fill="none" stroke="#63b8ff" points="263.25,-269.3 256.05,-268.8 253.75,-261.97 260.94,-262.47 263.25,-269.3"/>
</a>
</g>
<text text-anchor="middle" x="349" y="-328" font-family="Helvetica,sans-Serif" font-size="10.00" fill="grey"> #projector_</text>
</g>
<!-- Node5 -->
<g id="Node000005" class="node">
<title>Node5</title>
<g id="a_Node000005"><a xlink:href="../../dc/d2c/structcv_1_1detail_1_1ProjectorBase.html" target="_top" xlink:title="Base class for warping logic implementation.">
<polygon fill="white" stroke="transparent" points="400.5,-705 272.5,-705 272.5,-656 400.5,-656 400.5,-705"/>
<text text-anchor="start" x="277.5" y="-692.5" font-family="Helvetica,sans-Serif" font-size="10.00">cv::detail::ProjectorBase</text>
<text text-anchor="start" x="334.5" y="-677.5" font-family="Helvetica,sans-Serif" font-size="10.00"> </text>
<text text-anchor="start" x="279" y="-662.5" font-family="Helvetica,sans-Serif" font-size="10.00">+</text>
<text text-anchor="start" x="294.5" y="-662.5" font-family="Helvetica,sans-Serif" font-size="10.00">setCameraParams()</text>
<polygon fill="#666666" stroke="#666666" points="272.5,-687.5 272.5,-687.5 400.5,-687.5 400.5,-687.5 272.5,-687.5"/>
<polygon fill="#666666" stroke="#666666" points="272.5,-672.5 272.5,-672.5 400.5,-672.5 400.5,-672.5 272.5,-672.5"/>
<polygon fill="none" stroke="#666666" points="272.5,-656 272.5,-705 400.5,-705 400.5,-656 272.5,-656"/>
</a>
</g>
</g>
<!-- Node5&#45;&gt;Node4 -->
<g id="edge4_Node000004_Node000005" class="edge">
<title>Node5&#45;&gt;Node4</title>
<g id="a_edge4_Node000004_Node000005"><a xlink:title=" ">
<path fill="none" stroke="#63b8ff" d="M336.5,-645.62C336.5,-603.62 336.5,-532.29 336.5,-489.08"/>
<polygon fill="none" stroke="#63b8ff" points="333,-645.64 336.5,-655.64 340,-645.64 333,-645.64"/>
</a>
</g>
</g>
<!-- Node6 -->
<g id="Node000006" class="node">
<title>Node6</title>
<g id="a_Node000006"><a xlink:title=" ">
<polygon fill="white" stroke="transparent" points="352.5,-916 320.5,-916 320.5,-867 352.5,-867 352.5,-916"/>
<text text-anchor="start" x="325.5" y="-903.5" font-family="Helvetica,sans-Serif" font-size="10.00">float</text>
<text text-anchor="start" x="334.5" y="-888.5" font-family="Helvetica,sans-Serif" font-size="10.00"> </text>
<text text-anchor="start" x="334.5" y="-873.5" font-family="Helvetica,sans-Serif" font-size="10.00"> </text>
<polygon fill="#666666" stroke="#666666" points="320.5,-898.5 320.5,-898.5 352.5,-898.5 352.5,-898.5 320.5,-898.5"/>
<polygon fill="#666666" stroke="#666666" points="320.5,-883.5 320.5,-883.5 352.5,-883.5 352.5,-883.5 320.5,-883.5"/>
<polygon fill="none" stroke="#666666" points="320.5,-867 320.5,-916 352.5,-916 352.5,-867 320.5,-867"/>
</a>
</g>
</g>
<!-- Node6&#45;&gt;Node5 -->
<g id="edge5_Node000005_Node000006" class="edge">
<title>Node6&#45;&gt;Node5</title>
<g id="a_edge5_Node000005_Node000006"><a xlink:title=" ">
<path fill="none" stroke="#63b8ff" d="M336.5,-866.93C336.5,-830.48 336.5,-760.16 336.5,-717.37"/>
<polygon fill="none" stroke="#63b8ff" points="336.5,-717.3 332.5,-711.3 336.5,-705.3 340.5,-711.3 336.5,-717.3"/>
</a>
</g>
<text text-anchor="middle" x="356" y="-841" font-family="Helvetica,sans-Serif" font-size="10.00" fill="grey"> +k</text>
<text text-anchor="middle" x="356" y="-830" font-family="Helvetica,sans-Serif" font-size="10.00" fill="grey">+k_rinv</text>
<text text-anchor="middle" x="356" y="-819" font-family="Helvetica,sans-Serif" font-size="10.00" fill="grey">+r_kinv</text>
<text text-anchor="middle" x="356" y="-808" font-family="Helvetica,sans-Serif" font-size="10.00" fill="grey">+rinv</text>
<text text-anchor="middle" x="356" y="-797" font-family="Helvetica,sans-Serif" font-size="10.00" fill="grey">+scale</text>
<text text-anchor="middle" x="356" y="-786" font-family="Helvetica,sans-Serif" font-size="10.00" fill="grey">+t</text>
</g>
<!-- Node7&#45;&gt;Node2 -->
<g id="edge6_Node000002_Node000007" class="edge">
<title>Node7&#45;&gt;Node2</title>
<g id="a_edge6_Node000002_Node000007"><a xlink:title=" ">
<path fill="none" stroke="orange" d="M163.68,-343.79C163.61,-341.17 163.56,-338.57 163.5,-336 163.3,-326.63 163.14,-316.87 163.01,-307.11"/>
<polygon fill="orange" stroke="orange" points="160.18,-344.08 163.94,-353.99 167.18,-343.9 160.18,-344.08"/>
</a>
</g>
<text text-anchor="middle" x="239" y="-328" font-family="Helvetica,sans-Serif" font-size="10.00" fill="grey"> &lt; SphericalPortraitProjector &gt;</text>
</g>
<!-- Node8 -->
<g id="Node000008" class="node">
<title>Node8</title>
<g id="a_Node000008"><a xlink:title=" ">
<polygon fill="white" stroke="transparent" points="176,-705 159,-705 159,-656 176,-656 176,-705"/>
<text text-anchor="start" x="164.5" y="-692.5" font-family="Helvetica,sans-Serif" font-size="10.00">P</text>
<text text-anchor="start" x="166" y="-677.5" font-family="Helvetica,sans-Serif" font-size="10.00"> </text>
<text text-anchor="start" x="166" y="-662.5" font-family="Helvetica,sans-Serif" font-size="10.00"> </text>
<polygon fill="#666666" stroke="#666666" points="159.5,-687.5 159.5,-687.5 176.5,-687.5 176.5,-687.5 159.5,-687.5"/>
<polygon fill="#666666" stroke="#666666" points="159.5,-672.5 159.5,-672.5 176.5,-672.5 176.5,-672.5 159.5,-672.5"/>
<polygon fill="none" stroke="#666666" points="159,-656 159,-705 176,-705 176,-656 159,-656"/>
</a>
</g>
</g>
<!-- Node8&#45;&gt;Node7 -->
<g id="edge8_Node000007_Node000008" class="edge">
<title>Node8&#45;&gt;Node7</title>
<g id="a_edge8_Node000007_Node000008"><a xlink:title=" ">
<path fill="none" stroke="#63b8ff" d="M167.5,-655.64C167.5,-632.78 167.5,-596.61 167.5,-561.08"/>
<polygon fill="none" stroke="#63b8ff" points="167.5,-561.07 163.5,-555.07 167.5,-549.07 171.5,-555.07 167.5,-561.07"/>
</a>
</g>
<text text-anchor="middle" x="198" y="-570" font-family="Helvetica,sans-Serif" font-size="10.00" fill="grey"> #projector_</text>
</g>
</g>
</svg>
