<?xml version="1.0" encoding="UTF-8" standalone="no"?>
<!DOCTYPE svg PUBLIC "-//W3C//DTD SVG 1.1//EN"
 "http://www.w3.org/Graphics/SVG/1.1/DTD/svg11.dtd">
<!-- Generated by graphviz version 2.43.0 (0)
 -->
<!-- Title: cv::TLSDataAccumulator::cleanup Pages: 1 -->
<svg width="494pt" height="134pt"
 viewBox="0.00 0.00 494.00 134.00" xmlns="http://www.w3.org/2000/svg" xmlns:xlink="http://www.w3.org/1999/xlink">
<g id="graph0" class="graph" transform="scale(1 1) rotate(0) translate(4 130)">
<title>cv::TLSDataAccumulator::cleanup</title>
<!-- Node1 -->
<g id="Node000001" class="node">
<title>Node1</title>
<g id="a_Node000001"><a xlink:title="Release associated thread data.">
<polygon fill="#999999" stroke="#666666" points="135,-78 0,-78 0,-48 135,-48 135,-78"/>
<text text-anchor="start" x="8" y="-66" font-family="Helvetica,sans-Serif" font-size="10.00">cv::TLSDataAccumulator</text>
<text text-anchor="middle" x="67.5" y="-55" font-family="Helvetica,sans-Serif" font-size="10.00">::cleanup</text>
</a>
</g>
</g>
<!-- Node2 -->
<g id="Node000002" class="node">
<title>Node2</title>
<g id="a_Node000002"><a xlink:href="../../dc/d6e/classcv_1_1TLSDataAccumulator.html#a8a87f686dd972d52b815759379e87c6f" target="_top" xlink:title=" ">
<polygon fill="white" stroke="#666666" points="311,-126 175,-126 175,-96 311,-96 311,-126"/>
<text text-anchor="start" x="183" y="-114" font-family="Helvetica,sans-Serif" font-size="10.00">cv::TLSDataAccumulator</text>
<text text-anchor="middle" x="243" y="-103" font-family="Helvetica,sans-Serif" font-size="10.00">::_cleanupDetachedData</text>
</a>
</g>
</g>
<!-- Node1&#45;&gt;Node2 -->
<g id="edge1_Node000001_Node000002" class="edge">
<title>Node1&#45;&gt;Node2</title>
<g id="a_edge1_Node000001_Node000002"><a xlink:title=" ">
<path fill="none" stroke="#63b8ff" d="M122.92,-78.06C140.36,-82.88 159.84,-88.27 177.9,-93.27"/>
<polygon fill="#63b8ff" stroke="#63b8ff" points="177.2,-96.7 187.77,-96 179.07,-89.96 177.2,-96.7"/>
</a>
</g>
</g>
<!-- Node4 -->
<g id="Node000004" class="node">
<title>Node4</title>
<g id="a_Node000004"><a xlink:href="../../dc/d6e/classcv_1_1TLSDataAccumulator.html#af58261968217fca51f73106487653d66" target="_top" xlink:title=" ">
<polygon fill="white" stroke="#666666" points="315,-78 171,-78 171,-48 315,-48 315,-78"/>
<text text-anchor="start" x="179" y="-66" font-family="Helvetica,sans-Serif" font-size="10.00">cv::TLSDataAccumulator</text>
<text text-anchor="middle" x="243" y="-55" font-family="Helvetica,sans-Serif" font-size="10.00">::_cleanupTerminatedData</text>
</a>
</g>
</g>
<!-- Node1&#45;&gt;Node4 -->
<g id="edge3_Node000001_Node000004" class="edge">
<title>Node1&#45;&gt;Node4</title>
<g id="a_edge3_Node000001_Node000004"><a xlink:title=" ">
<path fill="none" stroke="#63b8ff" d="M135.08,-63C143.53,-63 152.25,-63 160.89,-63"/>
<polygon fill="#63b8ff" stroke="#63b8ff" points="160.99,-66.5 170.99,-63 160.99,-59.5 160.99,-66.5"/>
</a>
</g>
</g>
<!-- Node5 -->
<g id="Node000005" class="node">
<title>Node5</title>
<g id="a_Node000005"><a xlink:href="../../df/d21/classcv_1_1TLSDataContainer.html#a60db91833dbbbcb7d3406b819de3b272" target="_top" xlink:title="Release created TLS data container objects. It is similar to release() call, but it keeps TLS contain...">
<polygon fill="white" stroke="#666666" points="303.5,-30 182.5,-30 182.5,0 303.5,0 303.5,-30"/>
<text text-anchor="start" x="190.5" y="-18" font-family="Helvetica,sans-Serif" font-size="10.00">cv::TLSDataContainer</text>
<text text-anchor="middle" x="243" y="-7" font-family="Helvetica,sans-Serif" font-size="10.00">::cleanup</text>
</a>
</g>
</g>
<!-- Node1&#45;&gt;Node5 -->
<g id="edge5_Node000001_Node000005" class="edge">
<title>Node1&#45;&gt;Node5</title>
<g id="a_edge5_Node000001_Node000005"><a xlink:title=" ">
<path fill="none" stroke="#63b8ff" d="M122.92,-47.94C140.36,-43.12 159.84,-37.73 177.9,-32.73"/>
<polygon fill="#63b8ff" stroke="#63b8ff" points="179.07,-36.04 187.77,-30 177.2,-29.3 179.07,-36.04"/>
</a>
</g>
</g>
<!-- Node3 -->
<g id="Node000003" class="node">
<title>Node3</title>
<g id="a_Node000003"><a xlink:href="../../dc/d6e/classcv_1_1TLSDataAccumulator.html#accf3a284d5358bcd39aab9df897fa206" target="_top" xlink:title="Wrapper to release data by template.">
<polygon fill="white" stroke="#666666" points="486,-102 351,-102 351,-72 486,-72 486,-102"/>
<text text-anchor="start" x="359" y="-90" font-family="Helvetica,sans-Serif" font-size="10.00">cv::TLSDataAccumulator</text>
<text text-anchor="middle" x="418.5" y="-79" font-family="Helvetica,sans-Serif" font-size="10.00">::deleteDataInstance</text>
</a>
</g>
</g>
<!-- Node2&#45;&gt;Node3 -->
<g id="edge2_Node000002_Node000003" class="edge">
<title>Node2&#45;&gt;Node3</title>
<g id="a_edge2_Node000002_Node000003"><a xlink:title=" ">
<path fill="none" stroke="#63b8ff" d="M311.08,-101.72C320.78,-100.38 330.82,-98.99 340.69,-97.63"/>
<polygon fill="#63b8ff" stroke="#63b8ff" points="341.46,-101.05 350.88,-96.21 340.5,-94.12 341.46,-101.05"/>
</a>
</g>
</g>
<!-- Node4&#45;&gt;Node3 -->
<g id="edge4_Node000004_Node000003" class="edge">
<title>Node4&#45;&gt;Node3</title>
<g id="a_edge4_Node000004_Node000003"><a xlink:title=" ">
<path fill="none" stroke="#63b8ff" d="M315.07,-72.83C323.54,-74 332.23,-75.2 340.78,-76.39"/>
<polygon fill="#63b8ff" stroke="#63b8ff" points="340.35,-79.86 350.73,-77.76 341.31,-72.93 340.35,-79.86"/>
</a>
</g>
</g>
</g>
</svg>
