<?xml version="1.0" encoding="UTF-8" standalone="no"?>
<!DOCTYPE svg PUBLIC "-//W3C//DTD SVG 1.1//EN"
 "http://www.w3.org/Graphics/SVG/1.1/DTD/svg11.dtd">
<!-- Generated by graphviz version 2.43.0 (0)
 -->
<!-- Title: cv::saliency::StaticSaliency Pages: 1 -->
<svg width="215pt" height="576pt"
 viewBox="0.00 0.00 215.00 576.00" xmlns="http://www.w3.org/2000/svg" xmlns:xlink="http://www.w3.org/1999/xlink">
<g id="graph0" class="graph" transform="scale(1 1) rotate(0) translate(4 572)">
<title>cv::saliency::StaticSaliency</title>
<!-- Node1 -->
<g id="Node000001" class="node">
<title>Node1</title>
<g id="a_Node000001"><a xlink:title=" ">
<polygon fill="#999999" stroke="transparent" points="142,-64 0,-64 0,0 142,0 142,-64"/>
<text text-anchor="start" x="5" y="-52" font-family="Helvetica,sans-Serif" font-size="10.00">cv::saliency::StaticSaliency</text>
<text text-anchor="start" x="69" y="-37" font-family="Helvetica,sans-Serif" font-size="10.00"> </text>
<text text-anchor="start" x="5.5" y="-22" font-family="Helvetica,sans-Serif" font-size="10.00">+</text>
<text text-anchor="start" x="20" y="-22" font-family="Helvetica,sans-Serif" font-size="10.00">computeBinaryMap()</text>
<text text-anchor="start" x="5.5" y="-7" font-family="Helvetica,sans-Serif" font-size="10.00">#</text>
<text text-anchor="start" x="20" y="-7" font-family="Helvetica,sans-Serif" font-size="10.00">computeSaliencyImpl()</text>
<polygon fill="#666666" stroke="#666666" points="0,-47 0,-47 142,-47 142,-47 0,-47"/>
<polygon fill="#666666" stroke="#666666" points="0,-32 0,-32 142,-32 142,-32 0,-32"/>
<polygon fill="none" stroke="#666666" points="0,0 0,-64 142,-64 142,0 0,0"/>
</a>
</g>
</g>
<!-- Node2 -->
<g id="Node000002" class="node">
<title>Node2</title>
<g id="a_Node000002"><a xlink:href="../../d9/dcd/classcv_1_1saliency_1_1Saliency.html" target="_top" xlink:title=" ">
<polygon fill="white" stroke="transparent" points="138.5,-180 3.5,-180 3.5,-101 138.5,-101 138.5,-180"/>
<text text-anchor="start" x="19.5" y="-167.5" font-family="Helvetica,sans-Serif" font-size="10.00">cv::saliency::Saliency</text>
<text text-anchor="start" x="69.5" y="-152.5" font-family="Helvetica,sans-Serif" font-size="10.00"> </text>
<text text-anchor="start" x="8" y="-137.5" font-family="Helvetica,sans-Serif" font-size="10.00">+</text>
<text text-anchor="start" x="21" y="-137.5" font-family="Helvetica,sans-Serif" font-size="10.00">~Saliency()</text>
<text text-anchor="start" x="8" y="-122.5" font-family="Helvetica,sans-Serif" font-size="10.00">+</text>
<text text-anchor="start" x="21" y="-122.5" font-family="Helvetica,sans-Serif" font-size="10.00">computeSaliency()</text>
<text text-anchor="start" x="8" y="-107.5" font-family="Helvetica,sans-Serif" font-size="10.00">#</text>
<text text-anchor="start" x="21" y="-107.5" font-family="Helvetica,sans-Serif" font-size="10.00">computeSaliencyImpl()</text>
<polygon fill="#666666" stroke="#666666" points="4,-162.5 4,-162.5 139,-162.5 139,-162.5 4,-162.5"/>
<polygon fill="#666666" stroke="#666666" points="4,-147.5 4,-147.5 139,-147.5 139,-147.5 4,-147.5"/>
<polygon fill="none" stroke="#666666" points="3.5,-101 3.5,-180 138.5,-180 138.5,-101 3.5,-101"/>
</a>
</g>
</g>
<!-- Node2&#45;&gt;Node1 -->
<g id="edge1_Node000001_Node000002" class="edge">
<title>Node2&#45;&gt;Node1</title>
<g id="a_edge1_Node000001_Node000002"><a xlink:title=" ">
<path fill="none" stroke="#63b8ff" d="M71,-90.71C71,-81.71 71,-72.53 71,-64.22"/>
<polygon fill="none" stroke="#63b8ff" points="67.5,-90.75 71,-100.75 74.5,-90.75 67.5,-90.75"/>
</a>
</g>
</g>
<!-- Node3 -->
<g id="Node000003" class="node">
<title>Node3</title>
<g id="a_Node000003"><a xlink:href="../../d3/d46/classcv_1_1Algorithm.html" target="_top" xlink:title="This is a base class for all more or less complex algorithms in OpenCV.">
<polygon fill="white" stroke="transparent" points="110,-471 0,-471 0,-227 110,-227 110,-471"/>
<text text-anchor="start" x="22.5" y="-459" font-family="Helvetica,sans-Serif" font-size="10.00">cv::Algorithm</text>
<text text-anchor="start" x="53" y="-444" font-family="Helvetica,sans-Serif" font-size="10.00"> </text>
<text text-anchor="start" x="4" y="-429" font-family="Helvetica,sans-Serif" font-size="10.00">+</text>
<text text-anchor="start" x="17" y="-429" font-family="Helvetica,sans-Serif" font-size="10.00">Algorithm()</text>
<text text-anchor="start" x="4" y="-414" font-family="Helvetica,sans-Serif" font-size="10.00">+</text>
<text text-anchor="start" x="17" y="-414" font-family="Helvetica,sans-Serif" font-size="10.00">~Algorithm()</text>
<text text-anchor="start" x="4" y="-399" font-family="Helvetica,sans-Serif" font-size="10.00">+</text>
<text text-anchor="start" x="17" y="-399" font-family="Helvetica,sans-Serif" font-size="10.00">clear()</text>
<text text-anchor="start" x="4" y="-384" font-family="Helvetica,sans-Serif" font-size="10.00">+</text>
<text text-anchor="start" x="17" y="-384" font-family="Helvetica,sans-Serif" font-size="10.00">empty()</text>
<text text-anchor="start" x="4" y="-369" font-family="Helvetica,sans-Serif" font-size="10.00">+</text>
<text text-anchor="start" x="17" y="-369" font-family="Helvetica,sans-Serif" font-size="10.00">getDefaultName()</text>
<text text-anchor="start" x="4" y="-354" font-family="Helvetica,sans-Serif" font-size="10.00">+</text>
<text text-anchor="start" x="17" y="-354" font-family="Helvetica,sans-Serif" font-size="10.00">read()</text>
<text text-anchor="start" x="4" y="-339" font-family="Helvetica,sans-Serif" font-size="10.00">+</text>
<text text-anchor="start" x="17" y="-339" font-family="Helvetica,sans-Serif" font-size="10.00">save()</text>
<text text-anchor="start" x="4" y="-324" font-family="Helvetica,sans-Serif" font-size="10.00">+</text>
<text text-anchor="start" x="17" y="-324" font-family="Helvetica,sans-Serif" font-size="10.00">write()</text>
<text text-anchor="start" x="4" y="-309" font-family="Helvetica,sans-Serif" font-size="10.00">+</text>
<text text-anchor="start" x="17" y="-309" font-family="Helvetica,sans-Serif" font-size="10.00">write()</text>
<text text-anchor="start" x="4" y="-294" font-family="Helvetica,sans-Serif" font-size="10.00">+</text>
<text text-anchor="start" x="17" y="-294" font-family="Helvetica,sans-Serif" font-size="10.00">write()</text>
<text text-anchor="start" x="4" y="-279" font-family="Helvetica,sans-Serif" font-size="10.00">+</text>
<text text-anchor="start" x="17" y="-279" font-family="Helvetica,sans-Serif" font-size="10.00">load()</text>
<text text-anchor="start" x="4" y="-264" font-family="Helvetica,sans-Serif" font-size="10.00">+</text>
<text text-anchor="start" x="17" y="-264" font-family="Helvetica,sans-Serif" font-size="10.00">loadFromString()</text>
<text text-anchor="start" x="4" y="-249" font-family="Helvetica,sans-Serif" font-size="10.00">+</text>
<text text-anchor="start" x="17" y="-249" font-family="Helvetica,sans-Serif" font-size="10.00">read()</text>
<text text-anchor="start" x="4" y="-234" font-family="Helvetica,sans-Serif" font-size="10.00">#</text>
<text text-anchor="start" x="17" y="-234" font-family="Helvetica,sans-Serif" font-size="10.00">writeFormat()</text>
<polygon fill="#666666" stroke="#666666" points="0,-454 0,-454 110,-454 110,-454 0,-454"/>
<polygon fill="#666666" stroke="#666666" points="0,-439 0,-439 110,-439 110,-439 0,-439"/>
<polygon fill="none" stroke="#666666" points="0,-227 0,-471 110,-471 110,-227 0,-227"/>
</a>
</g>
</g>
<!-- Node3&#45;&gt;Node2 -->
<g id="edge2_Node000002_Node000003" class="edge">
<title>Node3&#45;&gt;Node2</title>
<g id="a_edge2_Node000002_Node000003"><a xlink:title=" ">
<path fill="none" stroke="#63b8ff" d="M65.17,-216.78C66.19,-203.59 67.16,-191.05 68.01,-180.13"/>
<polygon fill="none" stroke="#63b8ff" points="61.66,-216.74 64.38,-226.98 68.64,-217.28 61.66,-216.74"/>
</a>
</g>
</g>
<!-- Node4 -->
<g id="Node000004" class="node">
<title>Node4</title>
<g id="a_Node000004"><a xlink:title=" ">
<polygon fill="white" stroke="transparent" points="187.5,-373.5 128.5,-373.5 128.5,-324.5 187.5,-324.5 187.5,-373.5"/>
<text text-anchor="start" x="134" y="-361" font-family="Helvetica,sans-Serif" font-size="10.00">std::string</text>
<text text-anchor="start" x="156.5" y="-346" font-family="Helvetica,sans-Serif" font-size="10.00"> </text>
<text text-anchor="start" x="156.5" y="-331" font-family="Helvetica,sans-Serif" font-size="10.00"> </text>
<polygon fill="#666666" stroke="#666666" points="129,-356 129,-356 188,-356 188,-356 129,-356"/>
<polygon fill="#666666" stroke="#666666" points="129,-341 129,-341 188,-341 188,-341 129,-341"/>
<polygon fill="none" stroke="#666666" points="128.5,-324.5 128.5,-373.5 187.5,-373.5 187.5,-324.5 128.5,-324.5"/>
</a>
</g>
</g>
<!-- Node4&#45;&gt;Node2 -->
<g id="edge3_Node000002_Node000004" class="edge">
<title>Node4&#45;&gt;Node2</title>
<g id="a_edge3_Node000002_Node000004"><a xlink:title=" ">
<path fill="none" stroke="#63b8ff" d="M151.87,-324.29C145.12,-299.52 133.31,-259.77 119,-227 113.79,-215.06 107.4,-202.62 101.01,-191.04"/>
<polygon fill="none" stroke="#63b8ff" points="100.81,-190.7 94.38,-187.44 94.91,-180.25 101.35,-183.51 100.81,-190.7"/>
</a>
</g>
<text text-anchor="middle" x="142" y="-201" font-family="Helvetica,sans-Serif" font-size="10.00" fill="grey"> #className</text>
</g>
<!-- Node5 -->
<g id="Node000005" class="node">
<title>Node5</title>
<g id="a_Node000005"><a xlink:title=" ">
<polygon fill="white" stroke="transparent" points="207,-568 109,-568 109,-508 207,-508 207,-568"/>
<text text-anchor="start" x="114" y="-556" font-family="Helvetica,sans-Serif" font-size="10.00">std::basic_string&lt;</text>
<text text-anchor="start" x="139.5" y="-545" font-family="Helvetica,sans-Serif" font-size="10.00"> Char &gt;</text>
<text text-anchor="start" x="156" y="-530" font-family="Helvetica,sans-Serif" font-size="10.00"> </text>
<text text-anchor="start" x="156" y="-515" font-family="Helvetica,sans-Serif" font-size="10.00"> </text>
<polygon fill="#666666" stroke="#666666" points="109,-540 109,-540 207,-540 207,-540 109,-540"/>
<polygon fill="#666666" stroke="#666666" points="109,-525 109,-525 207,-525 207,-525 109,-525"/>
<polygon fill="none" stroke="#666666" points="109,-508 109,-568 207,-568 207,-508 109,-508"/>
</a>
</g>
</g>
<!-- Node5&#45;&gt;Node4 -->
<g id="edge4_Node000004_Node000005" class="edge">
<title>Node5&#45;&gt;Node4</title>
<g id="a_edge4_Node000004_Node000005"><a xlink:title=" ">
<path fill="none" stroke="#63b8ff" d="M158,-497.71C158,-460.19 158,-404.89 158,-373.68"/>
<polygon fill="none" stroke="#63b8ff" points="154.5,-497.78 158,-507.78 161.5,-497.78 154.5,-497.78"/>
</a>
</g>
</g>
</g>
</svg>
