<?xml version="1.0" encoding="UTF-8" standalone="no"?>
<!DOCTYPE svg PUBLIC "-//W3C//DTD SVG 1.1//EN"
 "http://www.w3.org/Graphics/SVG/1.1/DTD/svg11.dtd">
<!-- Generated by graphviz version 2.43.0 (0)
 -->
<!-- Title: cv::SimilarRects Pages: 1 -->
<svg width="99pt" height="168pt"
 viewBox="0.00 0.00 99.00 168.00" xmlns="http://www.w3.org/2000/svg" xmlns:xlink="http://www.w3.org/1999/xlink">
<g id="graph0" class="graph" transform="scale(1 1) rotate(0) translate(4 164)">
<title>cv::SimilarRects</title>
<!-- Node1 -->
<g id="Node000001" class="node">
<title>Node1</title>
<g id="a_Node000001"><a xlink:title="This class is used for grouping object candidates detected by Cascade Classifier, HOG etc.">
<polygon fill="#999999" stroke="transparent" points="91,-64 0,-64 0,0 91,0 91,-64"/>
<text text-anchor="start" x="6.5" y="-52" font-family="Helvetica,sans-Serif" font-size="10.00">cv::SimilarRects</text>
<text text-anchor="start" x="44" y="-37" font-family="Helvetica,sans-Serif" font-size="10.00"> </text>
<text text-anchor="start" x="4.5" y="-22" font-family="Helvetica,sans-Serif" font-size="10.00">+</text>
<text text-anchor="start" x="17.5" y="-22" font-family="Helvetica,sans-Serif" font-size="10.00">SimilarRects()</text>
<text text-anchor="start" x="4.5" y="-7" font-family="Helvetica,sans-Serif" font-size="10.00">+</text>
<text text-anchor="start" x="17.5" y="-7" font-family="Helvetica,sans-Serif" font-size="10.00">operator()()</text>
<polygon fill="#666666" stroke="#666666" points="0.5,-47 0.5,-47 91.5,-47 91.5,-47 0.5,-47"/>
<polygon fill="#666666" stroke="#666666" points="0.5,-32 0.5,-32 91.5,-32 91.5,-32 0.5,-32"/>
<polygon fill="none" stroke="#666666" points="0,0 0,-64 91,-64 91,0 0,0"/>
</a>
</g>
</g>
<!-- Node2 -->
<g id="Node000002" class="node">
<title>Node2</title>
<g id="a_Node000002"><a xlink:title=" ">
<polygon fill="white" stroke="transparent" points="67.5,-160 23.5,-160 23.5,-111 67.5,-111 67.5,-160"/>
<text text-anchor="start" x="28.5" y="-147.5" font-family="Helvetica,sans-Serif" font-size="10.00">double</text>
<text text-anchor="start" x="43.5" y="-132.5" font-family="Helvetica,sans-Serif" font-size="10.00"> </text>
<text text-anchor="start" x="43.5" y="-117.5" font-family="Helvetica,sans-Serif" font-size="10.00"> </text>
<polygon fill="#666666" stroke="#666666" points="23.5,-142.5 23.5,-142.5 67.5,-142.5 67.5,-142.5 23.5,-142.5"/>
<polygon fill="#666666" stroke="#666666" points="23.5,-127.5 23.5,-127.5 67.5,-127.5 67.5,-127.5 23.5,-127.5"/>
<polygon fill="none" stroke="#666666" points="23.5,-111 23.5,-160 67.5,-160 67.5,-111 23.5,-111"/>
</a>
</g>
</g>
<!-- Node2&#45;&gt;Node1 -->
<g id="edge1_Node000001_Node000002" class="edge">
<title>Node2&#45;&gt;Node1</title>
<g id="a_edge1_Node000001_Node000002"><a xlink:title=" ">
<path fill="none" stroke="#63b8ff" d="M45.5,-110.96C45.5,-100.61 45.5,-88.13 45.5,-76.21"/>
<polygon fill="none" stroke="#63b8ff" points="45.5,-76.11 41.5,-70.11 45.5,-64.11 49.5,-70.11 45.5,-76.11"/>
</a>
</g>
<text text-anchor="middle" x="60" y="-85" font-family="Helvetica,sans-Serif" font-size="10.00" fill="grey"> +eps</text>
</g>
</g>
</svg>
