<?xml version="1.0" encoding="UTF-8" standalone="no"?>
<!DOCTYPE svg PUBLIC "-//W3C//DTD SVG 1.1//EN"
 "http://www.w3.org/Graphics/SVG/1.1/DTD/svg11.dtd">
<!-- Generated by graphviz version 2.43.0 (0)
 -->
<!-- Title: cv::detail::tracked_cv_mat Pages: 1 -->
<svg width="989pt" height="1308pt"
 viewBox="0.00 0.00 988.50 1308.00" xmlns="http://www.w3.org/2000/svg" xmlns:xlink="http://www.w3.org/1999/xlink">
<g id="graph0" class="graph" transform="scale(1 1) rotate(0) translate(4 1304)">
<title>cv::detail::tracked_cv_mat</title>
<!-- Node1 -->
<g id="Node000001" class="node">
<title>Node1</title>
<g id="a_Node000001"><a xlink:title=" ">
<polygon fill="#999999" stroke="transparent" points="766,-90 647,-90 647,0 766,0 766,-90"/>
<text text-anchor="start" x="663.5" y="-78" font-family="Helvetica,sans-Serif" font-size="10.00">cv::detail::tracked</text>
<text text-anchor="start" x="686" y="-67" font-family="Helvetica,sans-Serif" font-size="10.00">_cv_mat</text>
<text text-anchor="start" x="705" y="-52" font-family="Helvetica,sans-Serif" font-size="10.00"> </text>
<text text-anchor="start" x="651.5" y="-37" font-family="Helvetica,sans-Serif" font-size="10.00">+</text>
<text text-anchor="start" x="664.5" y="-37" font-family="Helvetica,sans-Serif" font-size="10.00">tracked_cv_mat()</text>
<text text-anchor="start" x="651.5" y="-22" font-family="Helvetica,sans-Serif" font-size="10.00">+</text>
<text text-anchor="start" x="664.5" y="-22" font-family="Helvetica,sans-Serif" font-size="10.00">operator cv::Mat &amp;()</text>
<text text-anchor="start" x="651.5" y="-7" font-family="Helvetica,sans-Serif" font-size="10.00">+</text>
<text text-anchor="start" x="664.5" y="-7" font-family="Helvetica,sans-Serif" font-size="10.00">validate()</text>
<polygon fill="#666666" stroke="#666666" points="647.5,-62 647.5,-62 766.5,-62 766.5,-62 647.5,-62"/>
<polygon fill="#666666" stroke="#666666" points="647.5,-47 647.5,-47 766.5,-47 766.5,-47 647.5,-47"/>
<polygon fill="none" stroke="#666666" points="647,0 647,-90 766,-90 766,0 647,0"/>
</a>
</g>
</g>
<!-- Node2 -->
<g id="Node000002" class="node">
<title>Node2</title>
<g id="a_Node000002"><a xlink:href="../../d3/d63/classcv_1_1Mat.html" target="_top" xlink:title="n&#45;dimensional dense array class">
<polygon fill="white" stroke="transparent" points="416.5,-531 292.5,-531 292.5,-137 416.5,-137 416.5,-531"/>
<text text-anchor="start" x="336.5" y="-519" font-family="Helvetica,sans-Serif" font-size="10.00">cv::Mat</text>
<text text-anchor="start" x="352.5" y="-504" font-family="Helvetica,sans-Serif" font-size="10.00"> </text>
<text text-anchor="start" x="296.5" y="-489" font-family="Helvetica,sans-Serif" font-size="10.00">+</text>
<text text-anchor="start" x="309.5" y="-489" font-family="Helvetica,sans-Serif" font-size="10.00">Mat()</text>
<text text-anchor="start" x="296.5" y="-474" font-family="Helvetica,sans-Serif" font-size="10.00">+</text>
<text text-anchor="start" x="309.5" y="-474" font-family="Helvetica,sans-Serif" font-size="10.00">Mat()</text>
<text text-anchor="start" x="296.5" y="-459" font-family="Helvetica,sans-Serif" font-size="10.00">+</text>
<text text-anchor="start" x="309.5" y="-459" font-family="Helvetica,sans-Serif" font-size="10.00">Mat()</text>
<text text-anchor="start" x="296.5" y="-444" font-family="Helvetica,sans-Serif" font-size="10.00">+</text>
<text text-anchor="start" x="309.5" y="-444" font-family="Helvetica,sans-Serif" font-size="10.00">Mat()</text>
<text text-anchor="start" x="296.5" y="-429" font-family="Helvetica,sans-Serif" font-size="10.00">+</text>
<text text-anchor="start" x="309.5" y="-429" font-family="Helvetica,sans-Serif" font-size="10.00">Mat()</text>
<text text-anchor="start" x="296.5" y="-414" font-family="Helvetica,sans-Serif" font-size="10.00">+</text>
<text text-anchor="start" x="309.5" y="-414" font-family="Helvetica,sans-Serif" font-size="10.00">Mat()</text>
<text text-anchor="start" x="296.5" y="-399" font-family="Helvetica,sans-Serif" font-size="10.00">+</text>
<text text-anchor="start" x="309.5" y="-399" font-family="Helvetica,sans-Serif" font-size="10.00">Mat()</text>
<text text-anchor="start" x="296.5" y="-384" font-family="Helvetica,sans-Serif" font-size="10.00">+</text>
<text text-anchor="start" x="309.5" y="-384" font-family="Helvetica,sans-Serif" font-size="10.00">Mat()</text>
<text text-anchor="start" x="296.5" y="-369" font-family="Helvetica,sans-Serif" font-size="10.00">+</text>
<text text-anchor="start" x="309.5" y="-369" font-family="Helvetica,sans-Serif" font-size="10.00">Mat()</text>
<text text-anchor="start" x="296.5" y="-354" font-family="Helvetica,sans-Serif" font-size="10.00">+</text>
<text text-anchor="start" x="309.5" y="-354" font-family="Helvetica,sans-Serif" font-size="10.00">Mat()</text>
<text text-anchor="start" x="309.5" y="-339" font-family="Helvetica,sans-Serif" font-size="10.00">and 129 more...</text>
<text text-anchor="start" x="296.5" y="-324" font-family="Helvetica,sans-Serif" font-size="10.00">+</text>
<text text-anchor="start" x="309.5" y="-324" font-family="Helvetica,sans-Serif" font-size="10.00">diag()</text>
<text text-anchor="start" x="296.5" y="-309" font-family="Helvetica,sans-Serif" font-size="10.00">+</text>
<text text-anchor="start" x="309.5" y="-309" font-family="Helvetica,sans-Serif" font-size="10.00">eye()</text>
<text text-anchor="start" x="296.5" y="-294" font-family="Helvetica,sans-Serif" font-size="10.00">+</text>
<text text-anchor="start" x="309.5" y="-294" font-family="Helvetica,sans-Serif" font-size="10.00">eye()</text>
<text text-anchor="start" x="296.5" y="-279" font-family="Helvetica,sans-Serif" font-size="10.00">+</text>
<text text-anchor="start" x="309.5" y="-279" font-family="Helvetica,sans-Serif" font-size="10.00">getDefaultAllocator()</text>
<text text-anchor="start" x="296.5" y="-264" font-family="Helvetica,sans-Serif" font-size="10.00">+</text>
<text text-anchor="start" x="309.5" y="-264" font-family="Helvetica,sans-Serif" font-size="10.00">getStdAllocator()</text>
<text text-anchor="start" x="296.5" y="-249" font-family="Helvetica,sans-Serif" font-size="10.00">+</text>
<text text-anchor="start" x="309.5" y="-249" font-family="Helvetica,sans-Serif" font-size="10.00">ones()</text>
<text text-anchor="start" x="296.5" y="-234" font-family="Helvetica,sans-Serif" font-size="10.00">+</text>
<text text-anchor="start" x="309.5" y="-234" font-family="Helvetica,sans-Serif" font-size="10.00">ones()</text>
<text text-anchor="start" x="296.5" y="-219" font-family="Helvetica,sans-Serif" font-size="10.00">+</text>
<text text-anchor="start" x="309.5" y="-219" font-family="Helvetica,sans-Serif" font-size="10.00">ones()</text>
<text text-anchor="start" x="296.5" y="-204" font-family="Helvetica,sans-Serif" font-size="10.00">+</text>
<text text-anchor="start" x="309.5" y="-204" font-family="Helvetica,sans-Serif" font-size="10.00">setDefaultAllocator()</text>
<text text-anchor="start" x="296.5" y="-189" font-family="Helvetica,sans-Serif" font-size="10.00">+</text>
<text text-anchor="start" x="309.5" y="-189" font-family="Helvetica,sans-Serif" font-size="10.00">zeros()</text>
<text text-anchor="start" x="296.5" y="-174" font-family="Helvetica,sans-Serif" font-size="10.00">+</text>
<text text-anchor="start" x="309.5" y="-174" font-family="Helvetica,sans-Serif" font-size="10.00">zeros()</text>
<text text-anchor="start" x="296.5" y="-159" font-family="Helvetica,sans-Serif" font-size="10.00">+</text>
<text text-anchor="start" x="309.5" y="-159" font-family="Helvetica,sans-Serif" font-size="10.00">zeros()</text>
<text text-anchor="start" x="296.5" y="-144" font-family="Helvetica,sans-Serif" font-size="10.00">#</text>
<text text-anchor="start" x="309.5" y="-144" font-family="Helvetica,sans-Serif" font-size="10.00">forEach_impl()</text>
<polygon fill="#666666" stroke="#666666" points="292.5,-514 292.5,-514 416.5,-514 416.5,-514 292.5,-514"/>
<polygon fill="#666666" stroke="#666666" points="292.5,-499 292.5,-499 416.5,-499 416.5,-499 292.5,-499"/>
<polygon fill="none" stroke="#666666" points="292.5,-137 292.5,-531 416.5,-531 416.5,-137 292.5,-137"/>
</a>
</g>
</g>
<!-- Node2&#45;&gt;Node1 -->
<g id="edge1_Node000001_Node000002" class="edge">
<title>Node2&#45;&gt;Node1</title>
<g id="a_edge1_Node000001_Node000002"><a xlink:title=" ">
<path fill="none" stroke="#63b8ff" d="M416.62,-282.35C480.26,-230.46 578.72,-150.19 642.89,-97.86"/>
<polygon fill="none" stroke="#63b8ff" points="643.19,-97.62 645.32,-90.72 652.5,-90.03 650.37,-96.92 643.19,-97.62"/>
</a>
</g>
<text text-anchor="middle" x="628.5" y="-111" font-family="Helvetica,sans-Serif" font-size="10.00" fill="grey"> +r</text>
</g>
<!-- Node3 -->
<g id="Node000003" class="node">
<title>Node3</title>
<g id="a_Node000003"><a xlink:title=" ">
<polygon fill="white" stroke="transparent" points="195,-1033 172,-1033 172,-984 195,-984 195,-1033"/>
<text text-anchor="start" x="177.5" y="-1020.5" font-family="Helvetica,sans-Serif" font-size="10.00">int</text>
<text text-anchor="start" x="182" y="-1005.5" font-family="Helvetica,sans-Serif" font-size="10.00"> </text>
<text text-anchor="start" x="182" y="-990.5" font-family="Helvetica,sans-Serif" font-size="10.00"> </text>
<polygon fill="#666666" stroke="#666666" points="172.5,-1015.5 172.5,-1015.5 195.5,-1015.5 195.5,-1015.5 172.5,-1015.5"/>
<polygon fill="#666666" stroke="#666666" points="172.5,-1000.5 172.5,-1000.5 195.5,-1000.5 195.5,-1000.5 172.5,-1000.5"/>
<polygon fill="none" stroke="#666666" points="172,-984 172,-1033 195,-1033 195,-984 172,-984"/>
</a>
</g>
</g>
<!-- Node3&#45;&gt;Node2 -->
<g id="edge2_Node000002_Node000003" class="edge">
<title>Node3&#45;&gt;Node2</title>
<g id="a_edge2_Node000002_Node000003"><a xlink:title=" ">
<path fill="none" stroke="#63b8ff" d="M187.92,-983.74C193.87,-952.33 205.04,-895.3 216.5,-847 240.35,-746.5 269.81,-635.74 295.37,-543.02"/>
<polygon fill="none" stroke="#63b8ff" points="295.43,-542.8 293.17,-535.95 298.63,-531.23 300.88,-538.08 295.43,-542.8"/>
</a>
</g>
<text text-anchor="middle" x="295" y="-728.5" font-family="Helvetica,sans-Serif" font-size="10.00" fill="grey"> +cols</text>
<text text-anchor="middle" x="295" y="-717.5" font-family="Helvetica,sans-Serif" font-size="10.00" fill="grey">+dims</text>
<text text-anchor="middle" x="295" y="-706.5" font-family="Helvetica,sans-Serif" font-size="10.00" fill="grey">+flags</text>
<text text-anchor="middle" x="295" y="-695.5" font-family="Helvetica,sans-Serif" font-size="10.00" fill="grey">+rows</text>
</g>
<!-- Node7 -->
<g id="Node000007" class="node">
<title>Node7</title>
<g id="a_Node000007"><a xlink:href="../../db/d58/structcv_1_1UMatData.html" target="_top" xlink:title=" ">
<polygon fill="white" stroke="transparent" points="553,-829 396,-829 396,-600 553,-600 553,-829"/>
<text text-anchor="start" x="441.5" y="-816.5" font-family="Helvetica,sans-Serif" font-size="10.00">cv::UMatData</text>
<text text-anchor="start" x="473" y="-801.5" font-family="Helvetica,sans-Serif" font-size="10.00"> </text>
<text text-anchor="start" x="400.5" y="-786.5" font-family="Helvetica,sans-Serif" font-size="10.00">+</text>
<text text-anchor="start" x="413.5" y="-786.5" font-family="Helvetica,sans-Serif" font-size="10.00">UMatData()</text>
<text text-anchor="start" x="400.5" y="-771.5" font-family="Helvetica,sans-Serif" font-size="10.00">+</text>
<text text-anchor="start" x="413.5" y="-771.5" font-family="Helvetica,sans-Serif" font-size="10.00">~UMatData()</text>
<text text-anchor="start" x="400.5" y="-756.5" font-family="Helvetica,sans-Serif" font-size="10.00">+</text>
<text text-anchor="start" x="413.5" y="-756.5" font-family="Helvetica,sans-Serif" font-size="10.00">copyOnMap()</text>
<text text-anchor="start" x="400.5" y="-741.5" font-family="Helvetica,sans-Serif" font-size="10.00">+</text>
<text text-anchor="start" x="413.5" y="-741.5" font-family="Helvetica,sans-Serif" font-size="10.00">deviceCopyObsolete()</text>
<text text-anchor="start" x="400.5" y="-726.5" font-family="Helvetica,sans-Serif" font-size="10.00">+</text>
<text text-anchor="start" x="413.5" y="-726.5" font-family="Helvetica,sans-Serif" font-size="10.00">deviceMemMapped()</text>
<text text-anchor="start" x="400.5" y="-711.5" font-family="Helvetica,sans-Serif" font-size="10.00">+</text>
<text text-anchor="start" x="413.5" y="-711.5" font-family="Helvetica,sans-Serif" font-size="10.00">hostCopyObsolete()</text>
<text text-anchor="start" x="400.5" y="-696.5" font-family="Helvetica,sans-Serif" font-size="10.00">+</text>
<text text-anchor="start" x="413.5" y="-696.5" font-family="Helvetica,sans-Serif" font-size="10.00">lock()</text>
<text text-anchor="start" x="400.5" y="-681.5" font-family="Helvetica,sans-Serif" font-size="10.00">+</text>
<text text-anchor="start" x="413.5" y="-681.5" font-family="Helvetica,sans-Serif" font-size="10.00">markDeviceCopyObsolete()</text>
<text text-anchor="start" x="400.5" y="-666.5" font-family="Helvetica,sans-Serif" font-size="10.00">+</text>
<text text-anchor="start" x="413.5" y="-666.5" font-family="Helvetica,sans-Serif" font-size="10.00">markDeviceMemMapped()</text>
<text text-anchor="start" x="400.5" y="-651.5" font-family="Helvetica,sans-Serif" font-size="10.00">+</text>
<text text-anchor="start" x="413.5" y="-651.5" font-family="Helvetica,sans-Serif" font-size="10.00">markHostCopyObsolete()</text>
<text text-anchor="start" x="400.5" y="-636.5" font-family="Helvetica,sans-Serif" font-size="10.00">+</text>
<text text-anchor="start" x="413.5" y="-636.5" font-family="Helvetica,sans-Serif" font-size="10.00">tempCopiedUMat()</text>
<text text-anchor="start" x="400.5" y="-621.5" font-family="Helvetica,sans-Serif" font-size="10.00">+</text>
<text text-anchor="start" x="413.5" y="-621.5" font-family="Helvetica,sans-Serif" font-size="10.00">tempUMat()</text>
<text text-anchor="start" x="400.5" y="-606.5" font-family="Helvetica,sans-Serif" font-size="10.00">+</text>
<text text-anchor="start" x="413.5" y="-606.5" font-family="Helvetica,sans-Serif" font-size="10.00">unlock()</text>
<polygon fill="#666666" stroke="#666666" points="396.5,-811.5 396.5,-811.5 553.5,-811.5 553.5,-811.5 396.5,-811.5"/>
<polygon fill="#666666" stroke="#666666" points="396.5,-796.5 396.5,-796.5 553.5,-796.5 553.5,-796.5 396.5,-796.5"/>
<polygon fill="none" stroke="#666666" points="396,-600 396,-829 553,-829 553,-600 396,-600"/>
</a>
</g>
</g>
<!-- Node3&#45;&gt;Node7 -->
<g id="edge8_Node000007_Node000003" class="edge">
<title>Node3&#45;&gt;Node7</title>
<g id="a_edge8_Node000007_Node000003"><a xlink:title=" ">
<path fill="none" stroke="#63b8ff" d="M187.23,-983.73C194.19,-947.89 212.73,-880.64 257.5,-847 300.26,-814.86 329.67,-854.85 376.5,-829 379.76,-827.2 382.96,-825.25 386.09,-823.17"/>
<polygon fill="none" stroke="#63b8ff" points="386.16,-823.12 388.69,-816.37 395.89,-816.11 393.36,-822.86 386.16,-823.12"/>
</a>
</g>
<text text-anchor="middle" x="300.5" y="-883" font-family="Helvetica,sans-Serif" font-size="10.00" fill="grey"> +allocatorFlags_</text>
<text text-anchor="middle" x="300.5" y="-872" font-family="Helvetica,sans-Serif" font-size="10.00" fill="grey">+mapcount</text>
<text text-anchor="middle" x="300.5" y="-861" font-family="Helvetica,sans-Serif" font-size="10.00" fill="grey">+refcount</text>
<text text-anchor="middle" x="300.5" y="-850" font-family="Helvetica,sans-Serif" font-size="10.00" fill="grey">+urefcount</text>
</g>
<!-- Node15 -->
<g id="Node000015" class="node">
<title>Node15</title>
<g id="a_Node000015"><a xlink:href="../../df/d63/structcv_1_1MatSize.html" target="_top" xlink:title=" ">
<polygon fill="white" stroke="transparent" points="87,-784 0,-784 0,-645 87,-645 87,-784"/>
<text text-anchor="start" x="16" y="-771.5" font-family="Helvetica,sans-Serif" font-size="10.00">cv::MatSize</text>
<text text-anchor="start" x="42" y="-756.5" font-family="Helvetica,sans-Serif" font-size="10.00"> </text>
<text text-anchor="start" x="4.5" y="-741.5" font-family="Helvetica,sans-Serif" font-size="10.00">+</text>
<text text-anchor="start" x="17.5" y="-741.5" font-family="Helvetica,sans-Serif" font-size="10.00">MatSize()</text>
<text text-anchor="start" x="4.5" y="-726.5" font-family="Helvetica,sans-Serif" font-size="10.00">+</text>
<text text-anchor="start" x="17.5" y="-726.5" font-family="Helvetica,sans-Serif" font-size="10.00">dims()</text>
<text text-anchor="start" x="4.5" y="-711.5" font-family="Helvetica,sans-Serif" font-size="10.00">+</text>
<text text-anchor="start" x="17.5" y="-711.5" font-family="Helvetica,sans-Serif" font-size="10.00">operator!=()</text>
<text text-anchor="start" x="4.5" y="-696.5" font-family="Helvetica,sans-Serif" font-size="10.00">+</text>
<text text-anchor="start" x="17.5" y="-696.5" font-family="Helvetica,sans-Serif" font-size="10.00">operator()()</text>
<text text-anchor="start" x="4.5" y="-681.5" font-family="Helvetica,sans-Serif" font-size="10.00">+</text>
<text text-anchor="start" x="17.5" y="-681.5" font-family="Helvetica,sans-Serif" font-size="10.00">operator==()</text>
<text text-anchor="start" x="4.5" y="-666.5" font-family="Helvetica,sans-Serif" font-size="10.00">+</text>
<text text-anchor="start" x="17.5" y="-666.5" font-family="Helvetica,sans-Serif" font-size="10.00">operator[]()</text>
<text text-anchor="start" x="4.5" y="-651.5" font-family="Helvetica,sans-Serif" font-size="10.00">+</text>
<text text-anchor="start" x="17.5" y="-651.5" font-family="Helvetica,sans-Serif" font-size="10.00">operator[]()</text>
<polygon fill="#666666" stroke="#666666" points="0.5,-766.5 0.5,-766.5 87.5,-766.5 87.5,-766.5 0.5,-766.5"/>
<polygon fill="#666666" stroke="#666666" points="0.5,-751.5 0.5,-751.5 87.5,-751.5 87.5,-751.5 0.5,-751.5"/>
<polygon fill="none" stroke="#666666" points="0,-645 0,-784 87,-784 87,-645 0,-645"/>
</a>
</g>
</g>
<!-- Node3&#45;&gt;Node15 -->
<g id="edge19_Node000015_Node000003" class="edge">
<title>Node3&#45;&gt;Node15</title>
<g id="a_edge19_Node000015_Node000003"><a xlink:title=" ">
<path fill="none" stroke="#63b8ff" d="M171.98,-984.17C155.2,-950.14 123.15,-884.85 96.5,-829 91.25,-817.99 85.75,-806.36 80.38,-794.91"/>
<polygon fill="none" stroke="#63b8ff" points="80.36,-794.87 74.19,-791.14 75.27,-784.01 81.43,-787.74 80.36,-794.87"/>
</a>
</g>
<text text-anchor="middle" x="133.5" y="-866.5" font-family="Helvetica,sans-Serif" font-size="10.00" fill="grey"> +p</text>
</g>
<!-- Node4 -->
<g id="Node000004" class="node">
<title>Node4</title>
<g id="a_Node000004"><a xlink:title=" ">
<polygon fill="white" stroke="transparent" points="888.5,-1033 842.5,-1033 842.5,-984 888.5,-984 888.5,-1033"/>
<text text-anchor="start" x="847.5" y="-1020.5" font-family="Helvetica,sans-Serif" font-size="10.00">uchar *</text>
<text text-anchor="start" x="863.5" y="-1005.5" font-family="Helvetica,sans-Serif" font-size="10.00"> </text>
<text text-anchor="start" x="863.5" y="-990.5" font-family="Helvetica,sans-Serif" font-size="10.00"> </text>
<polygon fill="#666666" stroke="#666666" points="842.5,-1015.5 842.5,-1015.5 888.5,-1015.5 888.5,-1015.5 842.5,-1015.5"/>
<polygon fill="#666666" stroke="#666666" points="842.5,-1000.5 842.5,-1000.5 888.5,-1000.5 888.5,-1000.5 842.5,-1000.5"/>
<polygon fill="none" stroke="#666666" points="842.5,-984 842.5,-1033 888.5,-1033 888.5,-984 842.5,-984"/>
</a>
</g>
</g>
<!-- Node4&#45;&gt;Node1 -->
<g id="edge22_Node000001_Node000004" class="edge">
<title>Node4&#45;&gt;Node1</title>
<g id="a_edge22_Node000001_Node000004"><a xlink:title=" ">
<path fill="none" stroke="#63b8ff" d="M873.27,-983.88C883.95,-950.03 902.63,-885.56 909.5,-829 921.77,-727.96 927.28,-700.21 909.5,-600 875.72,-409.6 781.37,-198.76 734.15,-101.15"/>
<polygon fill="none" stroke="#63b8ff" points="734.03,-100.89 727.8,-97.25 728.77,-90.1 735,-93.75 734.03,-100.89"/>
</a>
</g>
<text text-anchor="middle" x="942.5" y="-563" font-family="Helvetica,sans-Serif" font-size="10.00" fill="grey"> +original_data</text>
</g>
<!-- Node4&#45;&gt;Node2 -->
<g id="edge3_Node000002_Node000004" class="edge">
<title>Node4&#45;&gt;Node2</title>
<g id="a_edge3_Node000002_Node000004"><a xlink:title=" ">
<path fill="none" stroke="#63b8ff" d="M868.63,-983.7C876.16,-916.5 888.74,-722.26 802.5,-600 709.81,-468.59 529.51,-391.82 428.18,-357.23"/>
<polygon fill="none" stroke="#63b8ff" points="427.91,-357.14 420.95,-359.02 416.53,-353.32 423.49,-351.44 427.91,-357.14"/>
</a>
</g>
<text text-anchor="middle" x="888.5" y="-712" font-family="Helvetica,sans-Serif" font-size="10.00" fill="grey"> +data</text>
</g>
<!-- Node4&#45;&gt;Node7 -->
<g id="edge9_Node000007_Node000004" class="edge">
<title>Node4&#45;&gt;Node7</title>
<g id="a_edge9_Node000007_Node000004"><a xlink:title=" ">
<path fill="none" stroke="#63b8ff" d="M852.85,-983.78C830.02,-941.34 783.13,-856 770.5,-847 737.99,-823.84 719.99,-842.71 682.5,-829 641.89,-814.15 599.55,-792.35 563.76,-771.82"/>
<polygon fill="none" stroke="#63b8ff" points="563.74,-771.81 556.55,-772.26 553.36,-765.79 560.56,-765.34 563.74,-771.81"/>
</a>
</g>
<text text-anchor="middle" x="822" y="-872" font-family="Helvetica,sans-Serif" font-size="10.00" fill="grey"> +data</text>
<text text-anchor="middle" x="822" y="-861" font-family="Helvetica,sans-Serif" font-size="10.00" fill="grey">+origdata</text>
</g>
<!-- Node5 -->
<g id="Node000005" class="node">
<title>Node5</title>
<g id="a_Node000005"><a xlink:title=" ">
<polygon fill="white" stroke="transparent" points="180,-739 105,-739 105,-690 180,-690 180,-739"/>
<text text-anchor="start" x="110.5" y="-726.5" font-family="Helvetica,sans-Serif" font-size="10.00">const uchar *</text>
<text text-anchor="start" x="141" y="-711.5" font-family="Helvetica,sans-Serif" font-size="10.00"> </text>
<text text-anchor="start" x="141" y="-696.5" font-family="Helvetica,sans-Serif" font-size="10.00"> </text>
<polygon fill="#666666" stroke="#666666" points="105.5,-721.5 105.5,-721.5 180.5,-721.5 180.5,-721.5 105.5,-721.5"/>
<polygon fill="#666666" stroke="#666666" points="105.5,-706.5 105.5,-706.5 180.5,-706.5 180.5,-706.5 105.5,-706.5"/>
<polygon fill="none" stroke="#666666" points="105,-690 105,-739 180,-739 180,-690 105,-690"/>
</a>
</g>
</g>
<!-- Node5&#45;&gt;Node2 -->
<g id="edge4_Node000002_Node000005" class="edge">
<title>Node5&#45;&gt;Node2</title>
<g id="a_edge4_Node000002_Node000005"><a xlink:title=" ">
<path fill="none" stroke="#63b8ff" d="M138.45,-689.75C133.92,-656.7 129.59,-595.67 149.5,-549 177.55,-483.26 235.53,-425.84 282.69,-387.08"/>
<polygon fill="none" stroke="#63b8ff" points="282.94,-386.88 285.09,-380 292.27,-379.34 290.12,-386.22 282.94,-386.88"/>
</a>
</g>
<text text-anchor="middle" x="176" y="-574" font-family="Helvetica,sans-Serif" font-size="10.00" fill="grey"> +dataend</text>
<text text-anchor="middle" x="176" y="-563" font-family="Helvetica,sans-Serif" font-size="10.00" fill="grey">+datalimit</text>
<text text-anchor="middle" x="176" y="-552" font-family="Helvetica,sans-Serif" font-size="10.00" fill="grey">+datastart</text>
</g>
<!-- Node6 -->
<g id="Node000006" class="node">
<title>Node6</title>
<g id="a_Node000006"><a xlink:href="../../df/d4c/classcv_1_1MatAllocator.html" target="_top" xlink:title="Custom array allocator.">
<polygon fill="white" stroke="transparent" points="389,-1108 246,-1108 246,-909 389,-909 389,-1108"/>
<text text-anchor="start" x="278.5" y="-1095.5" font-family="Helvetica,sans-Serif" font-size="10.00">cv::MatAllocator</text>
<text text-anchor="start" x="316" y="-1080.5" font-family="Helvetica,sans-Serif" font-size="10.00"> </text>
<text text-anchor="start" x="250.5" y="-1065.5" font-family="Helvetica,sans-Serif" font-size="10.00">+</text>
<text text-anchor="start" x="263.5" y="-1065.5" font-family="Helvetica,sans-Serif" font-size="10.00">MatAllocator()</text>
<text text-anchor="start" x="250.5" y="-1050.5" font-family="Helvetica,sans-Serif" font-size="10.00">+</text>
<text text-anchor="start" x="263.5" y="-1050.5" font-family="Helvetica,sans-Serif" font-size="10.00">~MatAllocator()</text>
<text text-anchor="start" x="250.5" y="-1035.5" font-family="Helvetica,sans-Serif" font-size="10.00">+</text>
<text text-anchor="start" x="263.5" y="-1035.5" font-family="Helvetica,sans-Serif" font-size="10.00">allocate()</text>
<text text-anchor="start" x="250.5" y="-1020.5" font-family="Helvetica,sans-Serif" font-size="10.00">+</text>
<text text-anchor="start" x="263.5" y="-1020.5" font-family="Helvetica,sans-Serif" font-size="10.00">allocate()</text>
<text text-anchor="start" x="250.5" y="-1005.5" font-family="Helvetica,sans-Serif" font-size="10.00">+</text>
<text text-anchor="start" x="263.5" y="-1005.5" font-family="Helvetica,sans-Serif" font-size="10.00">copy()</text>
<text text-anchor="start" x="250.5" y="-990.5" font-family="Helvetica,sans-Serif" font-size="10.00">+</text>
<text text-anchor="start" x="263.5" y="-990.5" font-family="Helvetica,sans-Serif" font-size="10.00">deallocate()</text>
<text text-anchor="start" x="250.5" y="-975.5" font-family="Helvetica,sans-Serif" font-size="10.00">+</text>
<text text-anchor="start" x="263.5" y="-975.5" font-family="Helvetica,sans-Serif" font-size="10.00">download()</text>
<text text-anchor="start" x="250.5" y="-960.5" font-family="Helvetica,sans-Serif" font-size="10.00">+</text>
<text text-anchor="start" x="263.5" y="-960.5" font-family="Helvetica,sans-Serif" font-size="10.00">getBufferPoolController()</text>
<text text-anchor="start" x="250.5" y="-945.5" font-family="Helvetica,sans-Serif" font-size="10.00">+</text>
<text text-anchor="start" x="263.5" y="-945.5" font-family="Helvetica,sans-Serif" font-size="10.00">map()</text>
<text text-anchor="start" x="250.5" y="-930.5" font-family="Helvetica,sans-Serif" font-size="10.00">+</text>
<text text-anchor="start" x="263.5" y="-930.5" font-family="Helvetica,sans-Serif" font-size="10.00">unmap()</text>
<text text-anchor="start" x="250.5" y="-915.5" font-family="Helvetica,sans-Serif" font-size="10.00">+</text>
<text text-anchor="start" x="263.5" y="-915.5" font-family="Helvetica,sans-Serif" font-size="10.00">upload()</text>
<polygon fill="#666666" stroke="#666666" points="246.5,-1090.5 246.5,-1090.5 389.5,-1090.5 389.5,-1090.5 246.5,-1090.5"/>
<polygon fill="#666666" stroke="#666666" points="246.5,-1075.5 246.5,-1075.5 389.5,-1075.5 389.5,-1075.5 246.5,-1075.5"/>
<polygon fill="none" stroke="#666666" points="246,-909 246,-1108 389,-1108 389,-909 246,-909"/>
</a>
</g>
</g>
<!-- Node6&#45;&gt;Node2 -->
<g id="edge5_Node000002_Node000006" class="edge">
<title>Node6&#45;&gt;Node2</title>
<g id="a_edge5_Node000002_Node000006"><a xlink:title=" ">
<path fill="none" stroke="#63b8ff" d="M319.87,-908.63C322.15,-826.06 326.19,-705.3 332.5,-600 333.61,-581.49 334.91,-562.27 336.32,-543.01"/>
<polygon fill="none" stroke="#63b8ff" points="336.32,-542.99 332.77,-536.71 337.21,-531.02 340.75,-537.3 336.32,-542.99"/>
</a>
</g>
<text text-anchor="middle" x="360" y="-712" font-family="Helvetica,sans-Serif" font-size="10.00" fill="grey"> +allocator</text>
</g>
<!-- Node6&#45;&gt;Node7 -->
<g id="edge7_Node000007_Node000006" class="edge">
<title>Node6&#45;&gt;Node7</title>
<g id="a_edge7_Node000007_Node000006"><a xlink:title=" ">
<path fill="none" stroke="#63b8ff" d="M341.01,-908.72C347.81,-887.72 356.25,-866.13 366.5,-847 372.92,-835.02 380.52,-823.09 388.68,-811.59"/>
<polygon fill="none" stroke="#63b8ff" points="388.89,-811.3 389.2,-804.09 395.97,-801.61 395.66,-808.81 388.89,-811.3"/>
</a>
</g>
<text text-anchor="middle" x="403.5" y="-872" font-family="Helvetica,sans-Serif" font-size="10.00" fill="grey"> +currAllocator</text>
<text text-anchor="middle" x="403.5" y="-861" font-family="Helvetica,sans-Serif" font-size="10.00" fill="grey">+prevAllocator</text>
</g>
<!-- Node7&#45;&gt;Node2 -->
<g id="edge6_Node000002_Node000007" class="edge">
<title>Node7&#45;&gt;Node2</title>
<g id="a_edge6_Node000002_Node000007"><a xlink:title=" ">
<path fill="none" stroke="#63b8ff" d="M438.5,-599.94C432.67,-581.55 426.48,-562.03 420.2,-542.24"/>
<polygon fill="none" stroke="#63b8ff" points="420.13,-542 414.5,-537.49 416.5,-530.56 422.13,-535.07 420.13,-542"/>
</a>
</g>
<text text-anchor="middle" x="440.5" y="-563" font-family="Helvetica,sans-Serif" font-size="10.00" fill="grey"> +u</text>
</g>
<!-- Node7&#45;&gt;Node7 -->
<g id="edge13_Node000007_Node000007" class="edge">
<title>Node7&#45;&gt;Node7</title>
<g id="a_edge13_Node000007_Node000007"><a xlink:title=" ">
<path fill="none" stroke="#63b8ff" d="M553.26,-739.12C563.91,-734.99 571,-726.79 571,-714.5 571,-706.82 568.23,-700.74 563.55,-696.25"/>
<polygon fill="none" stroke="#63b8ff" points="563.46,-696.19 556.26,-696.44 553.26,-689.88 560.46,-689.63 563.46,-696.19"/>
</a>
</g>
<text text-anchor="middle" x="620" y="-712" font-family="Helvetica,sans-Serif" font-size="10.00" fill="grey"> +originalUMatData</text>
</g>
<!-- Node8 -->
<g id="Node000008" class="node">
<title>Node8</title>
<g id="a_Node000008"><a xlink:title=" ">
<polygon fill="white" stroke="transparent" points="755,-1033 716,-1033 716,-984 755,-984 755,-1033"/>
<text text-anchor="start" x="721.5" y="-1020.5" font-family="Helvetica,sans-Serif" font-size="10.00">size_t</text>
<text text-anchor="start" x="734" y="-1005.5" font-family="Helvetica,sans-Serif" font-size="10.00"> </text>
<text text-anchor="start" x="734" y="-990.5" font-family="Helvetica,sans-Serif" font-size="10.00"> </text>
<polygon fill="#666666" stroke="#666666" points="716.5,-1015.5 716.5,-1015.5 755.5,-1015.5 755.5,-1015.5 716.5,-1015.5"/>
<polygon fill="#666666" stroke="#666666" points="716.5,-1000.5 716.5,-1000.5 755.5,-1000.5 755.5,-1000.5 716.5,-1000.5"/>
<polygon fill="none" stroke="#666666" points="716,-984 716,-1033 755,-1033 755,-984 716,-984"/>
</a>
</g>
</g>
<!-- Node8&#45;&gt;Node7 -->
<g id="edge10_Node000007_Node000008" class="edge">
<title>Node8&#45;&gt;Node7</title>
<g id="a_edge10_Node000007_Node000008"><a xlink:title=" ">
<path fill="none" stroke="#63b8ff" d="M730.79,-984C723.12,-950.57 705.3,-888.73 671.5,-847 642.52,-811.22 601.2,-781.58 563.88,-759.56"/>
<polygon fill="none" stroke="#63b8ff" points="563.87,-759.55 556.67,-760.02 553.48,-753.55 560.67,-753.09 563.87,-759.55"/>
</a>
</g>
<text text-anchor="middle" x="714" y="-866.5" font-family="Helvetica,sans-Serif" font-size="10.00" fill="grey"> +size</text>
</g>
<!-- Node16 -->
<g id="Node000016" class="node">
<title>Node16</title>
<g id="a_Node000016"><a xlink:href="../../d4/d26/structcv_1_1MatStep.html" target="_top" xlink:title=" ">
<polygon fill="white" stroke="transparent" points="793.5,-784 691.5,-784 691.5,-645 793.5,-645 793.5,-784"/>
<text text-anchor="start" x="713.5" y="-771.5" font-family="Helvetica,sans-Serif" font-size="10.00">cv::MatStep</text>
<text text-anchor="start" x="740.5" y="-756.5" font-family="Helvetica,sans-Serif" font-size="10.00"> </text>
<text text-anchor="start" x="695.5" y="-741.5" font-family="Helvetica,sans-Serif" font-size="10.00">+</text>
<text text-anchor="start" x="708.5" y="-741.5" font-family="Helvetica,sans-Serif" font-size="10.00">MatStep()</text>
<text text-anchor="start" x="695.5" y="-726.5" font-family="Helvetica,sans-Serif" font-size="10.00">+</text>
<text text-anchor="start" x="708.5" y="-726.5" font-family="Helvetica,sans-Serif" font-size="10.00">MatStep()</text>
<text text-anchor="start" x="695.5" y="-711.5" font-family="Helvetica,sans-Serif" font-size="10.00">+</text>
<text text-anchor="start" x="708.5" y="-711.5" font-family="Helvetica,sans-Serif" font-size="10.00">operator size_t()</text>
<text text-anchor="start" x="695.5" y="-696.5" font-family="Helvetica,sans-Serif" font-size="10.00">+</text>
<text text-anchor="start" x="708.5" y="-696.5" font-family="Helvetica,sans-Serif" font-size="10.00">operator=()</text>
<text text-anchor="start" x="695.5" y="-681.5" font-family="Helvetica,sans-Serif" font-size="10.00">+</text>
<text text-anchor="start" x="708.5" y="-681.5" font-family="Helvetica,sans-Serif" font-size="10.00">operator[]()</text>
<text text-anchor="start" x="695.5" y="-666.5" font-family="Helvetica,sans-Serif" font-size="10.00">+</text>
<text text-anchor="start" x="708.5" y="-666.5" font-family="Helvetica,sans-Serif" font-size="10.00">operator[]()</text>
<text text-anchor="start" x="695.5" y="-651.5" font-family="Helvetica,sans-Serif" font-size="10.00">#</text>
<text text-anchor="start" x="708.5" y="-651.5" font-family="Helvetica,sans-Serif" font-size="10.00">operator=()</text>
<polygon fill="#666666" stroke="#666666" points="691.5,-766.5 691.5,-766.5 793.5,-766.5 793.5,-766.5 691.5,-766.5"/>
<polygon fill="#666666" stroke="#666666" points="691.5,-751.5 691.5,-751.5 793.5,-751.5 793.5,-751.5 691.5,-751.5"/>
<polygon fill="none" stroke="#666666" points="691.5,-645 691.5,-784 793.5,-784 793.5,-645 691.5,-645"/>
</a>
</g>
</g>
<!-- Node8&#45;&gt;Node16 -->
<g id="edge21_Node000016_Node000008" class="edge">
<title>Node8&#45;&gt;Node16</title>
<g id="a_edge21_Node000016_Node000008"><a xlink:title=" ">
<path fill="none" stroke="#63b8ff" d="M736.07,-983.6C737.04,-943.19 739.05,-859.57 740.56,-796.4"/>
<polygon fill="none" stroke="#63b8ff" points="740.57,-796.06 736.71,-789.96 740.86,-784.06 744.71,-790.15 740.57,-796.06"/>
</a>
</g>
<text text-anchor="middle" x="752.5" y="-872" font-family="Helvetica,sans-Serif" font-size="10.00" fill="grey"> +buf</text>
<text text-anchor="middle" x="752.5" y="-861" font-family="Helvetica,sans-Serif" font-size="10.00" fill="grey">+p</text>
</g>
<!-- Node9 -->
<g id="Node000009" class="node">
<title>Node9</title>
<g id="a_Node000009"><a xlink:title=" ">
<polygon fill="white" stroke="transparent" points="479.5,-1033 407.5,-1033 407.5,-984 479.5,-984 479.5,-1033"/>
<text text-anchor="start" x="412.5" y="-1020.5" font-family="Helvetica,sans-Serif" font-size="10.00">MemoryFlag</text>
<text text-anchor="start" x="441.5" y="-1005.5" font-family="Helvetica,sans-Serif" font-size="10.00"> </text>
<text text-anchor="start" x="441.5" y="-990.5" font-family="Helvetica,sans-Serif" font-size="10.00"> </text>
<polygon fill="#666666" stroke="#666666" points="407.5,-1015.5 407.5,-1015.5 479.5,-1015.5 479.5,-1015.5 407.5,-1015.5"/>
<polygon fill="#666666" stroke="#666666" points="407.5,-1000.5 407.5,-1000.5 479.5,-1000.5 479.5,-1000.5 407.5,-1000.5"/>
<polygon fill="none" stroke="#666666" points="407.5,-984 407.5,-1033 479.5,-1033 479.5,-984 407.5,-984"/>
</a>
</g>
</g>
<!-- Node9&#45;&gt;Node7 -->
<g id="edge11_Node000007_Node000009" class="edge">
<title>Node9&#45;&gt;Node7</title>
<g id="a_edge11_Node000007_Node000009"><a xlink:title=" ">
<path fill="none" stroke="#63b8ff" d="M443.03,-983.75C442.68,-952.35 443.01,-895.34 448.5,-847 448.72,-845.07 448.95,-843.12 449.2,-841.16"/>
<polygon fill="none" stroke="#63b8ff" points="449.23,-840.9 446.08,-834.41 450.85,-829.01 454.01,-835.49 449.23,-840.9"/>
</a>
</g>
<text text-anchor="middle" x="466" y="-866.5" font-family="Helvetica,sans-Serif" font-size="10.00" fill="grey"> +flags</text>
</g>
<!-- Node10 -->
<g id="Node000010" class="node">
<title>Node10</title>
<g id="a_Node000010"><a xlink:title=" ">
<polygon fill="white" stroke="transparent" points="537.5,-1033 497.5,-1033 497.5,-984 537.5,-984 537.5,-1033"/>
<text text-anchor="start" x="502.5" y="-1020.5" font-family="Helvetica,sans-Serif" font-size="10.00">void *</text>
<text text-anchor="start" x="515.5" y="-1005.5" font-family="Helvetica,sans-Serif" font-size="10.00"> </text>
<text text-anchor="start" x="515.5" y="-990.5" font-family="Helvetica,sans-Serif" font-size="10.00"> </text>
<polygon fill="#666666" stroke="#666666" points="497.5,-1015.5 497.5,-1015.5 537.5,-1015.5 537.5,-1015.5 497.5,-1015.5"/>
<polygon fill="#666666" stroke="#666666" points="497.5,-1000.5 497.5,-1000.5 537.5,-1000.5 537.5,-1000.5 497.5,-1000.5"/>
<polygon fill="none" stroke="#666666" points="497.5,-984 497.5,-1033 537.5,-1033 537.5,-984 497.5,-984"/>
</a>
</g>
</g>
<!-- Node10&#45;&gt;Node7 -->
<g id="edge12_Node000007_Node000010" class="edge">
<title>Node10&#45;&gt;Node7</title>
<g id="a_edge12_Node000007_Node000010"><a xlink:title=" ">
<path fill="none" stroke="#63b8ff" d="M513.98,-983.6C509.37,-952.26 500.92,-894.94 493.03,-841.33"/>
<polygon fill="none" stroke="#63b8ff" points="493,-841.11 488.17,-835.75 491.25,-829.24 496.08,-834.59 493,-841.11"/>
</a>
</g>
<text text-anchor="middle" x="525.5" y="-872" font-family="Helvetica,sans-Serif" font-size="10.00" fill="grey"> +handle</text>
<text text-anchor="middle" x="525.5" y="-861" font-family="Helvetica,sans-Serif" font-size="10.00" fill="grey">+userdata</text>
</g>
<!-- Node11 -->
<g id="Node000011" class="node">
<title>Node11</title>
<g id="a_Node000011"><a xlink:title=" ">
<polygon fill="white" stroke="transparent" points="683,-1033 556,-1033 556,-984 683,-984 683,-1033"/>
<text text-anchor="start" x="561.5" y="-1020.5" font-family="Helvetica,sans-Serif" font-size="10.00">std::shared_ptr&lt; void &gt;</text>
<text text-anchor="start" x="618" y="-1005.5" font-family="Helvetica,sans-Serif" font-size="10.00"> </text>
<text text-anchor="start" x="618" y="-990.5" font-family="Helvetica,sans-Serif" font-size="10.00"> </text>
<polygon fill="#666666" stroke="#666666" points="556.5,-1015.5 556.5,-1015.5 683.5,-1015.5 683.5,-1015.5 556.5,-1015.5"/>
<polygon fill="#666666" stroke="#666666" points="556.5,-1000.5 556.5,-1000.5 683.5,-1000.5 683.5,-1000.5 556.5,-1000.5"/>
<polygon fill="none" stroke="#666666" points="556,-984 556,-1033 683,-1033 683,-984 556,-984"/>
</a>
</g>
</g>
<!-- Node11&#45;&gt;Node7 -->
<g id="edge14_Node000007_Node000011" class="edge">
<title>Node11&#45;&gt;Node7</title>
<g id="a_edge14_Node000007_Node000011"><a xlink:title=" ">
<path fill="none" stroke="#63b8ff" d="M611.51,-983.82C600.45,-952.01 579.14,-894.04 555.5,-847 554.3,-844.62 553.07,-842.22 551.82,-839.81"/>
<polygon fill="none" stroke="#63b8ff" points="551.82,-839.81 545.47,-836.39 546.18,-829.22 552.53,-832.63 551.82,-839.81"/>
</a>
</g>
<text text-anchor="middle" x="621" y="-866.5" font-family="Helvetica,sans-Serif" font-size="10.00" fill="grey"> +allocatorContext</text>
</g>
<!-- Node12 -->
<g id="Node000012" class="node">
<title>Node12</title>
<g id="a_Node000012"><a xlink:title=" ">
<polygon fill="white" stroke="transparent" points="600.5,-1204 568.5,-1204 568.5,-1155 600.5,-1155 600.5,-1204"/>
<text text-anchor="start" x="573.5" y="-1191.5" font-family="Helvetica,sans-Serif" font-size="10.00">void</text>
<text text-anchor="start" x="582.5" y="-1176.5" font-family="Helvetica,sans-Serif" font-size="10.00"> </text>
<text text-anchor="start" x="582.5" y="-1161.5" font-family="Helvetica,sans-Serif" font-size="10.00"> </text>
<polygon fill="#666666" stroke="#666666" points="568.5,-1186.5 568.5,-1186.5 600.5,-1186.5 600.5,-1186.5 568.5,-1186.5"/>
<polygon fill="#666666" stroke="#666666" points="568.5,-1171.5 568.5,-1171.5 600.5,-1171.5 600.5,-1171.5 568.5,-1171.5"/>
<polygon fill="none" stroke="#666666" points="568.5,-1155 568.5,-1204 600.5,-1204 600.5,-1155 568.5,-1155"/>
</a>
</g>
</g>
<!-- Node12&#45;&gt;Node11 -->
<g id="edge15_Node000011_Node000012" class="edge">
<title>Node12&#45;&gt;Node11</title>
<g id="a_edge15_Node000011_Node000012"><a xlink:title=" ">
<path fill="none" stroke="#63b8ff" d="M589.44,-1154.64C595.36,-1126.08 605.32,-1077.99 612.14,-1045.05"/>
<polygon fill="none" stroke="#63b8ff" points="612.15,-1044.98 609.45,-1038.3 614.58,-1033.23 617.28,-1039.92 612.15,-1044.98"/>
</a>
</g>
<text text-anchor="middle" x="607" y="-1129" font-family="Helvetica,sans-Serif" font-size="10.00" fill="grey"> +ptr</text>
</g>
<!-- Node13 -->
<g id="Node000013" class="node">
<title>Node13</title>
<g id="a_Node000013"><a xlink:title=" ">
<polygon fill="white" stroke="transparent" points="730.5,-1204 618.5,-1204 618.5,-1155 730.5,-1155 730.5,-1204"/>
<text text-anchor="start" x="623.5" y="-1191.5" font-family="Helvetica,sans-Serif" font-size="10.00">std::shared_ptr&lt; T &gt;</text>
<text text-anchor="start" x="672.5" y="-1176.5" font-family="Helvetica,sans-Serif" font-size="10.00"> </text>
<text text-anchor="start" x="630" y="-1161.5" font-family="Helvetica,sans-Serif" font-size="10.00">+</text>
<text text-anchor="start" x="650.5" y="-1161.5" font-family="Helvetica,sans-Serif" font-size="10.00">operator&#45;&gt;()</text>
<polygon fill="#666666" stroke="#666666" points="618.5,-1186.5 618.5,-1186.5 730.5,-1186.5 730.5,-1186.5 618.5,-1186.5"/>
<polygon fill="#666666" stroke="#666666" points="618.5,-1171.5 618.5,-1171.5 730.5,-1171.5 730.5,-1171.5 618.5,-1171.5"/>
<polygon fill="none" stroke="#666666" points="618.5,-1155 618.5,-1204 730.5,-1204 730.5,-1155 618.5,-1155"/>
</a>
</g>
</g>
<!-- Node13&#45;&gt;Node11 -->
<g id="edge16_Node000011_Node000013" class="edge">
<title>Node13&#45;&gt;Node11</title>
<g id="a_edge16_Node000011_Node000013"><a xlink:title=" ">
<path fill="none" stroke="orange" d="M663.59,-1144.97C652.84,-1111.96 636.71,-1062.37 627.22,-1033.23"/>
<polygon fill="orange" stroke="orange" points="660.31,-1146.22 666.74,-1154.64 666.97,-1144.05 660.31,-1146.22"/>
</a>
</g>
<text text-anchor="middle" x="683" y="-1129" font-family="Helvetica,sans-Serif" font-size="10.00" fill="grey"> &lt; void &gt;</text>
</g>
<!-- Node14 -->
<g id="Node000014" class="node">
<title>Node14</title>
<g id="a_Node000014"><a xlink:title=" ">
<polygon fill="white" stroke="transparent" points="683,-1300 666,-1300 666,-1251 683,-1251 683,-1300"/>
<text text-anchor="start" x="671.5" y="-1287.5" font-family="Helvetica,sans-Serif" font-size="10.00">T</text>
<text text-anchor="start" x="673" y="-1272.5" font-family="Helvetica,sans-Serif" font-size="10.00"> </text>
<text text-anchor="start" x="673" y="-1257.5" font-family="Helvetica,sans-Serif" font-size="10.00"> </text>
<polygon fill="#666666" stroke="#666666" points="666.5,-1282.5 666.5,-1282.5 683.5,-1282.5 683.5,-1282.5 666.5,-1282.5"/>
<polygon fill="#666666" stroke="#666666" points="666.5,-1267.5 666.5,-1267.5 683.5,-1267.5 683.5,-1267.5 666.5,-1267.5"/>
<polygon fill="none" stroke="#666666" points="666,-1251 666,-1300 683,-1300 683,-1251 666,-1251"/>
</a>
</g>
</g>
<!-- Node14&#45;&gt;Node13 -->
<g id="edge17_Node000013_Node000014" class="edge">
<title>Node14&#45;&gt;Node13</title>
<g id="a_edge17_Node000013_Node000014"><a xlink:title=" ">
<path fill="none" stroke="#63b8ff" d="M674.5,-1250.78C674.5,-1240.32 674.5,-1227.79 674.5,-1216.23"/>
<polygon fill="none" stroke="#63b8ff" points="674.5,-1216.21 670.5,-1210.21 674.5,-1204.21 678.5,-1210.21 674.5,-1216.21"/>
</a>
</g>
<text text-anchor="middle" x="687" y="-1225" font-family="Helvetica,sans-Serif" font-size="10.00" fill="grey"> +ptr</text>
</g>
<!-- Node15&#45;&gt;Node2 -->
<g id="edge18_Node000002_Node000015" class="edge">
<title>Node15&#45;&gt;Node2</title>
<g id="a_edge18_Node000002_Node000015"><a xlink:title=" ">
<path fill="none" stroke="#63b8ff" d="M60.4,-644.91C70.12,-613.85 84.46,-577.73 104.5,-549 152.26,-480.51 226.98,-420.47 282.3,-381.56"/>
<polygon fill="none" stroke="#63b8ff" points="282.54,-381.39 285.18,-374.68 292.39,-374.54 289.75,-381.25 282.54,-381.39"/>
</a>
</g>
<text text-anchor="middle" x="120" y="-563" font-family="Helvetica,sans-Serif" font-size="10.00" fill="grey"> +size</text>
</g>
<!-- Node16&#45;&gt;Node2 -->
<g id="edge20_Node000002_Node000016" class="edge">
<title>Node16&#45;&gt;Node2</title>
<g id="a_edge20_Node000002_Node000016"><a xlink:title=" ">
<path fill="none" stroke="#63b8ff" d="M709.18,-644.77C700.24,-629.31 689.86,-613.5 678.5,-600 604.16,-511.62 497.24,-430.83 426.85,-382.28"/>
<polygon fill="none" stroke="#63b8ff" points="426.64,-382.14 419.43,-382.05 416.74,-375.36 423.95,-375.45 426.64,-382.14"/>
</a>
</g>
<text text-anchor="middle" x="672" y="-563" font-family="Helvetica,sans-Serif" font-size="10.00" fill="grey"> +step</text>
</g>
</g>
</svg>
