<?xml version="1.0" encoding="UTF-8" standalone="no"?>
<!DOCTYPE svg PUBLIC "-//W3C//DTD SVG 1.1//EN"
 "http://www.w3.org/Graphics/SVG/1.1/DTD/svg11.dtd">
<!-- Generated by graphviz version 2.43.0 (0)
 -->
<!-- Title: cv::detail::PlaidMLCallHelper&lt; Impl, std::tuple&lt; Ins... &gt;, std::tuple&lt; Outs... &gt; &gt; Pages: 1 -->
<svg width="158pt" height="94pt"
 viewBox="0.00 0.00 158.00 94.00" xmlns="http://www.w3.org/2000/svg" xmlns:xlink="http://www.w3.org/1999/xlink">
<g id="graph0" class="graph" transform="scale(1 1) rotate(0) translate(4 90)">
<title>cv::detail::PlaidMLCallHelper&lt; Impl, std::tuple&lt; Ins... &gt;, std::tuple&lt; Outs... &gt; &gt;</title>
<!-- Node1 -->
<g id="Node000001" class="node">
<title>Node1</title>
<g id="a_Node000001"><a xlink:title=" ">
<polygon fill="#999999" stroke="transparent" points="150,-86 0,-86 0,0 150,0 150,-86"/>
<text text-anchor="start" x="5" y="-74" font-family="Helvetica,sans-Serif" font-size="10.00">cv::detail::PlaidMLCallHelper</text>
<text text-anchor="start" x="5" y="-63" font-family="Helvetica,sans-Serif" font-size="10.00">&lt; Impl, std::tuple&lt; Ins...</text>
<text text-anchor="start" x="10.5" y="-52" font-family="Helvetica,sans-Serif" font-size="10.00"> &gt;, std::tuple&lt; Outs... &gt; &gt;</text>
<text text-anchor="start" x="73" y="-37" font-family="Helvetica,sans-Serif" font-size="10.00"> </text>
<text text-anchor="start" x="23" y="-22" font-family="Helvetica,sans-Serif" font-size="10.00">+</text>
<text text-anchor="start" x="55" y="-22" font-family="Helvetica,sans-Serif" font-size="10.00">call()</text>
<text text-anchor="start" x="23" y="-7" font-family="Helvetica,sans-Serif" font-size="10.00">+</text>
<text text-anchor="start" x="55" y="-7" font-family="Helvetica,sans-Serif" font-size="10.00">call_impl()</text>
<polygon fill="#666666" stroke="#666666" points="0,-47 0,-47 150,-47 150,-47 0,-47"/>
<polygon fill="#666666" stroke="#666666" points="0,-32 0,-32 150,-32 150,-32 0,-32"/>
<polygon fill="none" stroke="#666666" points="0,0 0,-86 150,-86 150,0 0,0"/>
</a>
</g>
</g>
</g>
</svg>
