<?xml version="1.0" encoding="UTF-8" standalone="no"?>
<!DOCTYPE svg PUBLIC "-//W3C//DTD SVG 1.1//EN"
 "http://www.w3.org/Graphics/SVG/1.1/DTD/svg11.dtd">
<!-- Generated by graphviz version 2.43.0 (0)
 -->
<!-- Title: cv::UMat::eye Pages: 1 -->
<svg width="212pt" height="45pt"
 viewBox="0.00 0.00 212.00 45.00" xmlns="http://www.w3.org/2000/svg" xmlns:xlink="http://www.w3.org/1999/xlink">
<g id="graph0" class="graph" transform="scale(1 1) rotate(0) translate(4 41)">
<title>cv::UMat::eye</title>
<!-- Node1 -->
<g id="Node000001" class="node">
<title>Node1</title>
<g id="a_Node000001"><a xlink:title=" ">
<polygon fill="#999999" stroke="#666666" points="83,-19 0,-19 0,0 83,0 83,-19"/>
<text text-anchor="middle" x="41.5" y="-7" font-family="Helvetica,sans-Serif" font-size="10.00">cv::UMat::eye</text>
</a>
</g>
</g>
<!-- Node1&#45;&gt;Node1 -->
<g id="edge1_Node000001_Node000001" class="edge">
<title>Node1&#45;&gt;Node1</title>
<g id="a_edge1_Node000001_Node000001"><a xlink:title=" ">
<path fill="none" stroke="#63b8ff" d="M23,-19.08C14.01,-27.73 20.17,-37 41.5,-37 54.83,-37 62.24,-33.38 63.72,-28.55"/>
<polygon fill="#63b8ff" stroke="#63b8ff" points="66.91,-27.11 60,-19.08 60.4,-29.67 66.91,-27.11"/>
</a>
</g>
</g>
<!-- Node2 -->
<g id="Node000002" class="node">
<title>Node2</title>
<g id="a_Node000002"><a xlink:href="../../df/dfc/classcv_1_1Mat__.html#a7d00371725868ec63c3adc6ddc987876" target="_top" xlink:title=" ">
<polygon fill="white" stroke="#666666" points="204,-19 119,-19 119,0 204,0 204,-19"/>
<text text-anchor="middle" x="161.5" y="-7" font-family="Helvetica,sans-Serif" font-size="10.00">cv::Mat_::type</text>
</a>
</g>
</g>
<!-- Node1&#45;&gt;Node2 -->
<g id="edge2_Node000001_Node000002" class="edge">
<title>Node1&#45;&gt;Node2</title>
<g id="a_edge2_Node000001_Node000002"><a xlink:title=" ">
<path fill="none" stroke="#63b8ff" d="M83.11,-9.5C91.26,-9.5 99.93,-9.5 108.41,-9.5"/>
<polygon fill="#63b8ff" stroke="#63b8ff" points="108.61,-13 118.61,-9.5 108.61,-6 108.61,-13"/>
</a>
</g>
</g>
</g>
</svg>
