<?xml version="1.0" encoding="UTF-8" standalone="no"?>
<!DOCTYPE svg PUBLIC "-//W3C//DTD SVG 1.1//EN"
 "http://www.w3.org/Graphics/SVG/1.1/DTD/svg11.dtd">
<!-- Generated by graphviz version 2.43.0 (0)
 -->
<!-- Title: cv::UMat::zeros Pages: 1 -->
<svg width="221pt" height="45pt"
 viewBox="0.00 0.00 221.00 45.00" xmlns="http://www.w3.org/2000/svg" xmlns:xlink="http://www.w3.org/1999/xlink">
<g id="graph0" class="graph" transform="scale(1 1) rotate(0) translate(4 41)">
<title>cv::UMat::zeros</title>
<!-- Node1 -->
<g id="Node000001" class="node">
<title>Node1</title>
<g id="a_Node000001"><a xlink:title=" ">
<polygon fill="#999999" stroke="#666666" points="92,-19 0,-19 0,0 92,0 92,-19"/>
<text text-anchor="middle" x="46" y="-7" font-family="Helvetica,sans-Serif" font-size="10.00">cv::UMat::zeros</text>
</a>
</g>
</g>
<!-- Node1&#45;&gt;Node1 -->
<g id="edge2_Node000001_Node000001" class="edge">
<title>Node1&#45;&gt;Node1</title>
<g id="a_edge2_Node000001_Node000001"><a xlink:title=" ">
<path fill="none" stroke="#63b8ff" d="M26.89,-19.08C17.59,-27.73 23.96,-37 46,-37 59.77,-37 67.43,-33.38 68.96,-28.55"/>
<polygon fill="#63b8ff" stroke="#63b8ff" points="72.12,-27.03 65.11,-19.08 65.64,-29.66 72.12,-27.03"/>
</a>
</g>
</g>
<!-- Node2 -->
<g id="Node000002" class="node">
<title>Node2</title>
<g id="a_Node000002"><a xlink:href="../../df/dfc/classcv_1_1Mat__.html#a7d00371725868ec63c3adc6ddc987876" target="_top" xlink:title=" ">
<polygon fill="white" stroke="#666666" points="213,-19 128,-19 128,0 213,0 213,-19"/>
<text text-anchor="middle" x="170.5" y="-7" font-family="Helvetica,sans-Serif" font-size="10.00">cv::Mat_::type</text>
</a>
</g>
</g>
<!-- Node1&#45;&gt;Node2 -->
<g id="edge1_Node000001_Node000002" class="edge">
<title>Node1&#45;&gt;Node2</title>
<g id="a_edge1_Node000001_Node000002"><a xlink:title=" ">
<path fill="none" stroke="#63b8ff" d="M92.27,-9.5C100.5,-9.5 109.16,-9.5 117.57,-9.5"/>
<polygon fill="#63b8ff" stroke="#63b8ff" points="117.67,-13 127.67,-9.5 117.66,-6 117.67,-13"/>
</a>
</g>
</g>
</g>
</svg>
