<?xml version="1.0" encoding="UTF-8" standalone="no"?>
<!DOCTYPE svg PUBLIC "-//W3C//DTD SVG 1.1//EN"
 "http://www.w3.org/Graphics/SVG/1.1/DTD/svg11.dtd">
<!-- Generated by graphviz version 2.43.0 (0)
 -->
<!-- Title: cv::ximgproc::segmentation::SelectiveSearchSegmentationStrategyMultiple Pages: 1 -->
<svg width="212pt" height="500pt"
 viewBox="0.00 0.00 212.00 500.00" xmlns="http://www.w3.org/2000/svg" xmlns:xlink="http://www.w3.org/1999/xlink">
<g id="graph0" class="graph" transform="scale(1 1) rotate(0) translate(4 496)">
<title>cv::ximgproc::segmentation::SelectiveSearchSegmentationStrategyMultiple</title>
<!-- Node1 -->
<g id="Node000001" class="node">
<title>Node1</title>
<g id="a_Node000001"><a xlink:title="Regroup multiple strategies for the selective search segmentation algorithm.">
<polygon fill="#999999" stroke="transparent" points="204,-86 0,-86 0,0 204,0 204,-86"/>
<text text-anchor="start" x="5" y="-74" font-family="Helvetica,sans-Serif" font-size="10.00">cv::ximgproc::segmentation</text>
<text text-anchor="start" x="5" y="-63" font-family="Helvetica,sans-Serif" font-size="10.00">::SelectiveSearchSegmentationStrategy</text>
<text text-anchor="start" x="82" y="-52" font-family="Helvetica,sans-Serif" font-size="10.00">Multiple</text>
<text text-anchor="start" x="100" y="-37" font-family="Helvetica,sans-Serif" font-size="10.00"> </text>
<text text-anchor="start" x="29" y="-22" font-family="Helvetica,sans-Serif" font-size="10.00">+</text>
<text text-anchor="start" x="67" y="-22" font-family="Helvetica,sans-Serif" font-size="10.00">addStrategy()</text>
<text text-anchor="start" x="29" y="-7" font-family="Helvetica,sans-Serif" font-size="10.00">+</text>
<text text-anchor="start" x="67" y="-7" font-family="Helvetica,sans-Serif" font-size="10.00">clearStrategies()</text>
<polygon fill="#666666" stroke="#666666" points="0,-47 0,-47 204,-47 204,-47 0,-47"/>
<polygon fill="#666666" stroke="#666666" points="0,-32 0,-32 204,-32 204,-32 0,-32"/>
<polygon fill="none" stroke="#666666" points="0,0 0,-86 204,-86 204,0 0,0"/>
</a>
</g>
</g>
<!-- Node2 -->
<g id="Node000002" class="node">
<title>Node2</title>
<g id="a_Node000002"><a xlink:href="../../dc/d7a/classcv_1_1ximgproc_1_1segmentation_1_1SelectiveSearchSegmentationStrategy.html" target="_top" xlink:title="Strategie for the selective search segmentation algorithm The class implements a generic stragery for...">
<polygon fill="white" stroke="transparent" points="204,-212 0,-212 0,-122 204,-122 204,-212"/>
<text text-anchor="start" x="5" y="-200" font-family="Helvetica,sans-Serif" font-size="10.00">cv::ximgproc::segmentation</text>
<text text-anchor="start" x="5" y="-189" font-family="Helvetica,sans-Serif" font-size="10.00">::SelectiveSearchSegmentationStrategy</text>
<text text-anchor="start" x="100" y="-174" font-family="Helvetica,sans-Serif" font-size="10.00"> </text>
<text text-anchor="start" x="36" y="-159" font-family="Helvetica,sans-Serif" font-size="10.00">+</text>
<text text-anchor="start" x="81" y="-159" font-family="Helvetica,sans-Serif" font-size="10.00">get()</text>
<text text-anchor="start" x="36" y="-144" font-family="Helvetica,sans-Serif" font-size="10.00">+</text>
<text text-anchor="start" x="81" y="-144" font-family="Helvetica,sans-Serif" font-size="10.00">merge()</text>
<text text-anchor="start" x="36" y="-129" font-family="Helvetica,sans-Serif" font-size="10.00">+</text>
<text text-anchor="start" x="81" y="-129" font-family="Helvetica,sans-Serif" font-size="10.00">setImage()</text>
<polygon fill="#666666" stroke="#666666" points="0,-184 0,-184 204,-184 204,-184 0,-184"/>
<polygon fill="#666666" stroke="#666666" points="0,-169 0,-169 204,-169 204,-169 0,-169"/>
<polygon fill="none" stroke="#666666" points="0,-122 0,-212 204,-212 204,-122 0,-122"/>
</a>
</g>
</g>
<!-- Node2&#45;&gt;Node1 -->
<g id="edge1_Node000001_Node000002" class="edge">
<title>Node2&#45;&gt;Node1</title>
<g id="a_edge1_Node000001_Node000002"><a xlink:title=" ">
<path fill="none" stroke="#63b8ff" d="M102,-111.72C102,-103.21 102,-94.53 102,-86.35"/>
<polygon fill="none" stroke="#63b8ff" points="98.5,-111.96 102,-121.96 105.5,-111.96 98.5,-111.96"/>
</a>
</g>
</g>
<!-- Node3 -->
<g id="Node000003" class="node">
<title>Node3</title>
<g id="a_Node000003"><a xlink:href="../../d3/d46/classcv_1_1Algorithm.html" target="_top" xlink:title="This is a base class for all more or less complex algorithms in OpenCV.">
<polygon fill="white" stroke="transparent" points="157,-492 47,-492 47,-248 157,-248 157,-492"/>
<text text-anchor="start" x="69.5" y="-480" font-family="Helvetica,sans-Serif" font-size="10.00">cv::Algorithm</text>
<text text-anchor="start" x="100" y="-465" font-family="Helvetica,sans-Serif" font-size="10.00"> </text>
<text text-anchor="start" x="51" y="-450" font-family="Helvetica,sans-Serif" font-size="10.00">+</text>
<text text-anchor="start" x="64" y="-450" font-family="Helvetica,sans-Serif" font-size="10.00">Algorithm()</text>
<text text-anchor="start" x="51" y="-435" font-family="Helvetica,sans-Serif" font-size="10.00">+</text>
<text text-anchor="start" x="64" y="-435" font-family="Helvetica,sans-Serif" font-size="10.00">~Algorithm()</text>
<text text-anchor="start" x="51" y="-420" font-family="Helvetica,sans-Serif" font-size="10.00">+</text>
<text text-anchor="start" x="64" y="-420" font-family="Helvetica,sans-Serif" font-size="10.00">clear()</text>
<text text-anchor="start" x="51" y="-405" font-family="Helvetica,sans-Serif" font-size="10.00">+</text>
<text text-anchor="start" x="64" y="-405" font-family="Helvetica,sans-Serif" font-size="10.00">empty()</text>
<text text-anchor="start" x="51" y="-390" font-family="Helvetica,sans-Serif" font-size="10.00">+</text>
<text text-anchor="start" x="64" y="-390" font-family="Helvetica,sans-Serif" font-size="10.00">getDefaultName()</text>
<text text-anchor="start" x="51" y="-375" font-family="Helvetica,sans-Serif" font-size="10.00">+</text>
<text text-anchor="start" x="64" y="-375" font-family="Helvetica,sans-Serif" font-size="10.00">read()</text>
<text text-anchor="start" x="51" y="-360" font-family="Helvetica,sans-Serif" font-size="10.00">+</text>
<text text-anchor="start" x="64" y="-360" font-family="Helvetica,sans-Serif" font-size="10.00">save()</text>
<text text-anchor="start" x="51" y="-345" font-family="Helvetica,sans-Serif" font-size="10.00">+</text>
<text text-anchor="start" x="64" y="-345" font-family="Helvetica,sans-Serif" font-size="10.00">write()</text>
<text text-anchor="start" x="51" y="-330" font-family="Helvetica,sans-Serif" font-size="10.00">+</text>
<text text-anchor="start" x="64" y="-330" font-family="Helvetica,sans-Serif" font-size="10.00">write()</text>
<text text-anchor="start" x="51" y="-315" font-family="Helvetica,sans-Serif" font-size="10.00">+</text>
<text text-anchor="start" x="64" y="-315" font-family="Helvetica,sans-Serif" font-size="10.00">write()</text>
<text text-anchor="start" x="51" y="-300" font-family="Helvetica,sans-Serif" font-size="10.00">+</text>
<text text-anchor="start" x="64" y="-300" font-family="Helvetica,sans-Serif" font-size="10.00">load()</text>
<text text-anchor="start" x="51" y="-285" font-family="Helvetica,sans-Serif" font-size="10.00">+</text>
<text text-anchor="start" x="64" y="-285" font-family="Helvetica,sans-Serif" font-size="10.00">loadFromString()</text>
<text text-anchor="start" x="51" y="-270" font-family="Helvetica,sans-Serif" font-size="10.00">+</text>
<text text-anchor="start" x="64" y="-270" font-family="Helvetica,sans-Serif" font-size="10.00">read()</text>
<text text-anchor="start" x="51" y="-255" font-family="Helvetica,sans-Serif" font-size="10.00">#</text>
<text text-anchor="start" x="64" y="-255" font-family="Helvetica,sans-Serif" font-size="10.00">writeFormat()</text>
<polygon fill="#666666" stroke="#666666" points="47,-475 47,-475 157,-475 157,-475 47,-475"/>
<polygon fill="#666666" stroke="#666666" points="47,-460 47,-460 157,-460 157,-460 47,-460"/>
<polygon fill="none" stroke="#666666" points="47,-248 47,-492 157,-492 157,-248 47,-248"/>
</a>
</g>
</g>
<!-- Node3&#45;&gt;Node2 -->
<g id="edge2_Node000002_Node000003" class="edge">
<title>Node3&#45;&gt;Node2</title>
<g id="a_edge2_Node000002_Node000003"><a xlink:title=" ">
<path fill="none" stroke="#63b8ff" d="M102,-237.51C102,-228.58 102,-220.01 102,-212.13"/>
<polygon fill="none" stroke="#63b8ff" points="98.5,-237.73 102,-247.73 105.5,-237.73 98.5,-237.73"/>
</a>
</g>
</g>
</g>
</svg>
