<?xml version="1.0" encoding="UTF-8" standalone="no"?>
<!DOCTYPE svg PUBLIC "-//W3C//DTD SVG 1.1//EN"
 "http://www.w3.org/Graphics/SVG/1.1/DTD/svg11.dtd">
<!-- Generated by graphviz version 2.43.0 (0)
 -->
<!-- Title: cv::bioinspired::RetinaParameters Pages: 1 -->
<svg width="624pt" height="337pt"
 viewBox="0.00 0.00 624.02 337.00" xmlns="http://www.w3.org/2000/svg" xmlns:xlink="http://www.w3.org/1999/xlink">
<g id="graph0" class="graph" transform="scale(1 1) rotate(0) translate(4 333)">
<title>cv::bioinspired::RetinaParameters</title>
<!-- Node1 -->
<g id="Node000001" class="node">
<title>Node1</title>
<g id="a_Node000001"><a xlink:title="retina model parameters structure">
<polygon fill="#999999" stroke="transparent" points="311.02,-49 137.02,-49 137.02,0 311.02,0 311.02,-49"/>
<text text-anchor="start" x="142.02" y="-36.5" font-family="Helvetica,sans-Serif" font-size="10.00">cv::bioinspired::RetinaParameters</text>
<text text-anchor="start" x="222.02" y="-21.5" font-family="Helvetica,sans-Serif" font-size="10.00"> </text>
<text text-anchor="start" x="222.02" y="-6.5" font-family="Helvetica,sans-Serif" font-size="10.00"> </text>
<polygon fill="#666666" stroke="#666666" points="137.02,-31.5 137.02,-31.5 311.02,-31.5 311.02,-31.5 137.02,-31.5"/>
<polygon fill="#666666" stroke="#666666" points="137.02,-16.5 137.02,-16.5 311.02,-16.5 311.02,-16.5 137.02,-16.5"/>
<polygon fill="none" stroke="#666666" points="137.02,0 137.02,-49 311.02,-49 311.02,0 137.02,0"/>
</a>
</g>
</g>
<!-- Node2 -->
<g id="Node000002" class="node">
<title>Node2</title>
<g id="a_Node000002"><a xlink:href="../../d0/dc1/structcv_1_1bioinspired_1_1RetinaParameters_1_1OPLandIplParvoParameters.html" target="_top" xlink:title="Outer Plexiform Layer (OPL) and Inner Plexiform Layer Parvocellular (IplParvo) parameters.">
<polygon fill="white" stroke="transparent" points="216.02,-156 42.02,-156 42.02,-96 216.02,-96 216.02,-156"/>
<text text-anchor="start" x="47.02" y="-144" font-family="Helvetica,sans-Serif" font-size="10.00">cv::bioinspired::RetinaParameters</text>
<text text-anchor="start" x="60.02" y="-133" font-family="Helvetica,sans-Serif" font-size="10.00">::OPLandIplParvoParameters</text>
<text text-anchor="start" x="127.02" y="-118" font-family="Helvetica,sans-Serif" font-size="10.00"> </text>
<text text-anchor="start" x="49.52" y="-103" font-family="Helvetica,sans-Serif" font-size="10.00">+</text>
<text text-anchor="start" x="66.02" y="-103" font-family="Helvetica,sans-Serif" font-size="10.00">OPLandIplParvoParameters()</text>
<polygon fill="#666666" stroke="#666666" points="42.02,-128 42.02,-128 216.02,-128 216.02,-128 42.02,-128"/>
<polygon fill="#666666" stroke="#666666" points="42.02,-113 42.02,-113 216.02,-113 216.02,-113 42.02,-113"/>
<polygon fill="none" stroke="#666666" points="42.02,-96 42.02,-156 216.02,-156 216.02,-96 42.02,-96"/>
</a>
</g>
</g>
<!-- Node2&#45;&gt;Node1 -->
<g id="edge1_Node000001_Node000002" class="edge">
<title>Node2&#45;&gt;Node1</title>
<g id="a_edge1_Node000001_Node000002"><a xlink:title=" ">
<path fill="none" stroke="#63b8ff" d="M156.75,-95.95C168.1,-84.07 181.27,-70.27 192.94,-58.04"/>
<polygon fill="none" stroke="#63b8ff" points="193.23,-57.74 194.48,-50.64 201.52,-49.06 200.27,-56.16 193.23,-57.74"/>
</a>
</g>
<text text-anchor="middle" x="226.02" y="-70" font-family="Helvetica,sans-Serif" font-size="10.00" fill="grey"> +OPLandIplParvo</text>
</g>
<!-- Node3 -->
<g id="Node000003" class="node">
<title>Node3</title>
<g id="a_Node000003"><a xlink:title=" ">
<polygon fill="white" stroke="transparent" points="87.02,-329 55.02,-329 55.02,-280 87.02,-280 87.02,-329"/>
<text text-anchor="start" x="60.02" y="-316.5" font-family="Helvetica,sans-Serif" font-size="10.00">bool</text>
<text text-anchor="start" x="69.02" y="-301.5" font-family="Helvetica,sans-Serif" font-size="10.00"> </text>
<text text-anchor="start" x="69.02" y="-286.5" font-family="Helvetica,sans-Serif" font-size="10.00"> </text>
<polygon fill="#666666" stroke="#666666" points="55.02,-311.5 55.02,-311.5 87.02,-311.5 87.02,-311.5 55.02,-311.5"/>
<polygon fill="#666666" stroke="#666666" points="55.02,-296.5 55.02,-296.5 87.02,-296.5 87.02,-296.5 55.02,-296.5"/>
<polygon fill="none" stroke="#666666" points="55.02,-280 55.02,-329 87.02,-329 87.02,-280 55.02,-280"/>
</a>
</g>
</g>
<!-- Node3&#45;&gt;Node2 -->
<g id="edge2_Node000002_Node000003" class="edge">
<title>Node3&#45;&gt;Node2</title>
<g id="a_edge2_Node000002_Node000003"><a xlink:title=" ">
<path fill="none" stroke="#63b8ff" d="M54.89,-296.65C41.48,-289.98 23.29,-278.43 15.02,-262 -2.58,-227.07 -6.74,-206.5 15.02,-174 19.58,-167.19 25.32,-161.36 31.8,-156.38"/>
<polygon fill="none" stroke="#63b8ff" points="31.81,-156.37 34.55,-149.7 41.76,-149.67 39.02,-156.34 31.81,-156.37"/>
</a>
</g>
<text text-anchor="middle" x="60.52" y="-221" font-family="Helvetica,sans-Serif" font-size="10.00" fill="grey"> +colorMode</text>
<text text-anchor="middle" x="60.52" y="-210" font-family="Helvetica,sans-Serif" font-size="10.00" fill="grey">+normaliseOutput</text>
</g>
<!-- Node5 -->
<g id="Node000005" class="node">
<title>Node5</title>
<g id="a_Node000005"><a xlink:href="../../d9/d93/structcv_1_1bioinspired_1_1RetinaParameters_1_1IplMagnoParameters.html" target="_top" xlink:title="Inner Plexiform Layer Magnocellular channel (IplMagno)">
<polygon fill="white" stroke="transparent" points="408.02,-156 234.02,-156 234.02,-96 408.02,-96 408.02,-156"/>
<text text-anchor="start" x="239.02" y="-144" font-family="Helvetica,sans-Serif" font-size="10.00">cv::bioinspired::RetinaParameters</text>
<text text-anchor="start" x="267.52" y="-133" font-family="Helvetica,sans-Serif" font-size="10.00">::IplMagnoParameters</text>
<text text-anchor="start" x="319.02" y="-118" font-family="Helvetica,sans-Serif" font-size="10.00"> </text>
<text text-anchor="start" x="249.02" y="-103" font-family="Helvetica,sans-Serif" font-size="10.00">+</text>
<text text-anchor="start" x="273.02" y="-103" font-family="Helvetica,sans-Serif" font-size="10.00">IplMagnoParameters()</text>
<polygon fill="#666666" stroke="#666666" points="234.02,-128 234.02,-128 408.02,-128 408.02,-128 234.02,-128"/>
<polygon fill="#666666" stroke="#666666" points="234.02,-113 234.02,-113 408.02,-113 408.02,-113 234.02,-113"/>
<polygon fill="none" stroke="#666666" points="234.02,-96 234.02,-156 408.02,-156 408.02,-96 234.02,-96"/>
</a>
</g>
</g>
<!-- Node3&#45;&gt;Node5 -->
<g id="edge5_Node000005_Node000003" class="edge">
<title>Node3&#45;&gt;Node5</title>
<g id="a_edge5_Node000005_Node000003"><a xlink:title=" ">
<path fill="none" stroke="#63b8ff" d="M87.36,-287.87C94.08,-280.6 101.36,-271.47 106.02,-262 123.66,-226.09 96.24,-201.8 125.02,-174 154.96,-145.08 177.36,-163.15 222.13,-156.13"/>
<polygon fill="none" stroke="#63b8ff" points="222.25,-156.11 227.35,-151.01 234.01,-153.76 228.91,-158.85 222.25,-156.11"/>
</a>
</g>
<text text-anchor="middle" x="172.02" y="-215.5" font-family="Helvetica,sans-Serif" font-size="10.00" fill="grey"> +normaliseOutput</text>
</g>
<!-- Node4 -->
<g id="Node000004" class="node">
<title>Node4</title>
<g id="a_Node000004"><a xlink:title=" ">
<polygon fill="white" stroke="transparent" points="358.02,-329 326.02,-329 326.02,-280 358.02,-280 358.02,-329"/>
<text text-anchor="start" x="331.02" y="-316.5" font-family="Helvetica,sans-Serif" font-size="10.00">float</text>
<text text-anchor="start" x="340.02" y="-301.5" font-family="Helvetica,sans-Serif" font-size="10.00"> </text>
<text text-anchor="start" x="340.02" y="-286.5" font-family="Helvetica,sans-Serif" font-size="10.00"> </text>
<polygon fill="#666666" stroke="#666666" points="326.02,-311.5 326.02,-311.5 358.02,-311.5 358.02,-311.5 326.02,-311.5"/>
<polygon fill="#666666" stroke="#666666" points="326.02,-296.5 326.02,-296.5 358.02,-296.5 358.02,-296.5 326.02,-296.5"/>
<polygon fill="none" stroke="#666666" points="326.02,-280 326.02,-329 358.02,-329 358.02,-280 326.02,-280"/>
</a>
</g>
</g>
<!-- Node4&#45;&gt;Node2 -->
<g id="edge3_Node000002_Node000004" class="edge">
<title>Node4&#45;&gt;Node2</title>
<g id="a_edge3_Node000002_Node000004"><a xlink:title=" ">
<path fill="none" stroke="#63b8ff" d="M325.79,-301.45C303.42,-297.72 263.44,-287.7 242.02,-262 216.39,-231.27 247.54,-205.61 223.02,-174 220.22,-170.4 217.08,-167.06 213.68,-163.95"/>
<polygon fill="none" stroke="#63b8ff" points="213.51,-163.81 206.33,-163.16 204.16,-156.28 211.34,-156.93 213.51,-163.81"/>
</a>
</g>
<text text-anchor="middle" x="327.52" y="-254" font-family="Helvetica,sans-Serif" font-size="10.00" fill="grey"> +ganglionCellsSensitivity</text>
<text text-anchor="middle" x="327.52" y="-243" font-family="Helvetica,sans-Serif" font-size="10.00" fill="grey">+hcellsSpatialConstant</text>
<text text-anchor="middle" x="327.52" y="-232" font-family="Helvetica,sans-Serif" font-size="10.00" fill="grey">+hcellsTemporalConstant</text>
<text text-anchor="middle" x="327.52" y="-221" font-family="Helvetica,sans-Serif" font-size="10.00" fill="grey">+horizontalCellsGain</text>
<text text-anchor="start" x="242.02" y="-210" font-family="Helvetica,sans-Serif" font-size="10.00" fill="grey">+photoreceptorsLocalAdaptation</text>
<text text-anchor="middle" x="327.52" y="-199" font-family="Helvetica,sans-Serif" font-size="10.00" fill="grey">Sensitivity</text>
<text text-anchor="middle" x="327.52" y="-188" font-family="Helvetica,sans-Serif" font-size="10.00" fill="grey">+photoreceptorsSpatialConstant</text>
<text text-anchor="middle" x="327.52" y="-177" font-family="Helvetica,sans-Serif" font-size="10.00" fill="grey">+photoreceptorsTemporalConstant</text>
</g>
<!-- Node4&#45;&gt;Node5 -->
<g id="edge6_Node000005_Node000004" class="edge">
<title>Node4&#45;&gt;Node5</title>
<g id="a_edge6_Node000005_Node000004"><a xlink:title=" ">
<path fill="none" stroke="#63b8ff" d="M358.33,-299.7C376.32,-294.55 404.39,-283.41 417.02,-262 436.88,-228.31 437.72,-207.18 417.02,-174 414.85,-170.54 412.36,-167.32 409.59,-164.34"/>
<polygon fill="none" stroke="#63b8ff" points="409.43,-164.18 402.3,-163.06 400.59,-156.06 407.72,-157.18 409.43,-164.18"/>
</a>
</g>
<text text-anchor="middle" x="524.02" y="-248.5" font-family="Helvetica,sans-Serif" font-size="10.00" fill="grey"> +V0CompressionParameter</text>
<text text-anchor="middle" x="524.02" y="-237.5" font-family="Helvetica,sans-Serif" font-size="10.00" fill="grey">+amacrinCellsTemporalCutFrequency</text>
<text text-anchor="middle" x="524.02" y="-226.5" font-family="Helvetica,sans-Serif" font-size="10.00" fill="grey">+localAdaptintegration_k</text>
<text text-anchor="middle" x="524.02" y="-215.5" font-family="Helvetica,sans-Serif" font-size="10.00" fill="grey">+localAdaptintegration_tau</text>
<text text-anchor="middle" x="524.02" y="-204.5" font-family="Helvetica,sans-Serif" font-size="10.00" fill="grey">+parasolCells_beta</text>
<text text-anchor="middle" x="524.02" y="-193.5" font-family="Helvetica,sans-Serif" font-size="10.00" fill="grey">+parasolCells_k</text>
<text text-anchor="middle" x="524.02" y="-182.5" font-family="Helvetica,sans-Serif" font-size="10.00" fill="grey">+parasolCells_tau</text>
</g>
<!-- Node5&#45;&gt;Node1 -->
<g id="edge4_Node000001_Node000005" class="edge">
<title>Node5&#45;&gt;Node1</title>
<g id="a_edge4_Node000001_Node000005"><a xlink:title=" ">
<path fill="none" stroke="#63b8ff" d="M299.14,-95.72C291.56,-86.22 282.76,-75.85 274.02,-67 270.72,-63.67 267.18,-60.32 263.55,-57.05"/>
<polygon fill="none" stroke="#63b8ff" points="263.53,-57.03 256.37,-56.11 254.47,-49.15 261.63,-50.08 263.53,-57.03"/>
</a>
</g>
<text text-anchor="middle" x="311.52" y="-70" font-family="Helvetica,sans-Serif" font-size="10.00" fill="grey"> +IplMagno</text>
</g>
</g>
</svg>
