<?xml version="1.0" encoding="UTF-8" standalone="no"?>
<!DOCTYPE svg PUBLIC "-//W3C//DTD SVG 1.1//EN"
 "http://www.w3.org/Graphics/SVG/1.1/DTD/svg11.dtd">
<!-- Generated by graphviz version 2.43.0 (0)
 -->
<!-- Title: cv::detail::get_out&lt; cv::GArray&lt; cv::GArray&lt; U &gt; &gt; &gt; Pages: 1 -->
<svg width="173pt" height="294pt"
 viewBox="0.00 0.00 172.50 294.00" xmlns="http://www.w3.org/2000/svg" xmlns:xlink="http://www.w3.org/1999/xlink">
<g id="graph0" class="graph" transform="scale(1 1) rotate(0) translate(4 290)">
<title>cv::detail::get_out&lt; cv::GArray&lt; cv::GArray&lt; U &gt; &gt; &gt;</title>
<!-- Node1 -->
<g id="Node000001" class="node">
<title>Node1</title>
<g id="a_Node000001"><a xlink:title=" ">
<polygon fill="#999999" stroke="transparent" points="134.5,-71 0.5,-71 0.5,0 134.5,0 134.5,-71"/>
<text text-anchor="start" x="5.5" y="-58.5" font-family="Helvetica,sans-Serif" font-size="10.00">cv::detail::get_out</text>
<text text-anchor="start" x="5.5" y="-47.5" font-family="Helvetica,sans-Serif" font-size="10.00">&lt; cv::GArray&lt; cv::GArray</text>
<text text-anchor="start" x="41" y="-36.5" font-family="Helvetica,sans-Serif" font-size="10.00">&lt; U &gt; &gt; &gt;</text>
<text text-anchor="start" x="65.5" y="-21.5" font-family="Helvetica,sans-Serif" font-size="10.00"> </text>
<text text-anchor="start" x="65.5" y="-6.5" font-family="Helvetica,sans-Serif" font-size="10.00"> </text>
<polygon fill="#666666" stroke="#666666" points="0.5,-31.5 0.5,-31.5 134.5,-31.5 134.5,-31.5 0.5,-31.5"/>
<polygon fill="#666666" stroke="#666666" points="0.5,-16.5 0.5,-16.5 134.5,-16.5 134.5,-16.5 0.5,-16.5"/>
<polygon fill="none" stroke="#666666" points="0.5,0 0.5,-71 134.5,-71 134.5,0 0.5,0"/>
</a>
</g>
</g>
<!-- Node2 -->
<g id="Node000002" class="node">
<title>Node2</title>
<g id="a_Node000002"><a xlink:href="../../d0/d6a/structcv_1_1detail_1_1get__out.html" target="_top" xlink:title=" ">
<polygon fill="white" stroke="transparent" points="135,-179 0,-179 0,-108 135,-108 135,-179"/>
<text text-anchor="start" x="5.5" y="-166.5" font-family="Helvetica,sans-Serif" font-size="10.00">cv::detail::get_out</text>
<text text-anchor="start" x="5.5" y="-155.5" font-family="Helvetica,sans-Serif" font-size="10.00">&lt; cv::GArray&lt; std::vector</text>
<text text-anchor="start" x="41.5" y="-144.5" font-family="Helvetica,sans-Serif" font-size="10.00">&lt; U &gt; &gt; &gt;</text>
<text text-anchor="start" x="66" y="-129.5" font-family="Helvetica,sans-Serif" font-size="10.00"> </text>
<text text-anchor="start" x="66" y="-114.5" font-family="Helvetica,sans-Serif" font-size="10.00"> </text>
<polygon fill="#666666" stroke="#666666" points="0.5,-139.5 0.5,-139.5 135.5,-139.5 135.5,-139.5 0.5,-139.5"/>
<polygon fill="#666666" stroke="#666666" points="0.5,-124.5 0.5,-124.5 135.5,-124.5 135.5,-124.5 0.5,-124.5"/>
<polygon fill="none" stroke="#666666" points="0,-108 0,-179 135,-179 135,-108 0,-108"/>
</a>
</g>
</g>
<!-- Node2&#45;&gt;Node1 -->
<g id="edge1_Node000001_Node000002" class="edge">
<title>Node2&#45;&gt;Node1</title>
<g id="a_edge1_Node000001_Node000002"><a xlink:title=" ">
<path fill="none" stroke="#63b8ff" d="M67.5,-97.65C67.5,-88.83 67.5,-79.71 67.5,-71.29"/>
<polygon fill="none" stroke="#63b8ff" points="64,-97.79 67.5,-107.79 71,-97.79 64,-97.79"/>
</a>
</g>
</g>
<!-- Node3 -->
<g id="Node000003" class="node">
<title>Node3</title>
<g id="a_Node000003"><a xlink:href="../../d0/d6a/structcv_1_1detail_1_1get__out.html" target="_top" xlink:title=" ">
<polygon fill="white" stroke="transparent" points="130.5,-286 4.5,-286 4.5,-237 130.5,-237 130.5,-286"/>
<text text-anchor="start" x="9.5" y="-273.5" font-family="Helvetica,sans-Serif" font-size="10.00">cv::detail::get_out&lt; T &gt;</text>
<text text-anchor="start" x="65.5" y="-258.5" font-family="Helvetica,sans-Serif" font-size="10.00"> </text>
<text text-anchor="start" x="65.5" y="-243.5" font-family="Helvetica,sans-Serif" font-size="10.00"> </text>
<polygon fill="#666666" stroke="#666666" points="4.5,-268.5 4.5,-268.5 130.5,-268.5 130.5,-268.5 4.5,-268.5"/>
<polygon fill="#666666" stroke="#666666" points="4.5,-253.5 4.5,-253.5 130.5,-253.5 130.5,-253.5 4.5,-253.5"/>
<polygon fill="none" stroke="#666666" points="4.5,-237 4.5,-286 130.5,-286 130.5,-237 4.5,-237"/>
</a>
</g>
</g>
<!-- Node3&#45;&gt;Node2 -->
<g id="edge2_Node000002_Node000003" class="edge">
<title>Node3&#45;&gt;Node2</title>
<g id="a_edge2_Node000002_Node000003"><a xlink:title=" ">
<path fill="none" stroke="orange" d="M67.5,-226.44C67.5,-211.58 67.5,-194.17 67.5,-179.23"/>
<polygon fill="orange" stroke="orange" points="64,-226.75 67.5,-236.75 71,-226.75 64,-226.75"/>
</a>
</g>
<text text-anchor="start" x="67.5" y="-211" font-family="Helvetica,sans-Serif" font-size="10.00" fill="grey"> &lt; cv::GArray&lt; std::</text>
<text text-anchor="middle" x="116" y="-200" font-family="Helvetica,sans-Serif" font-size="10.00" fill="grey">vector&lt; U &gt; &gt; &gt;</text>
</g>
</g>
</svg>
