<?xml version="1.0" encoding="UTF-8" standalone="no"?>
<!DOCTYPE svg PUBLIC "-//W3C//DTD SVG 1.1//EN"
 "http://www.w3.org/Graphics/SVG/1.1/DTD/svg11.dtd">
<!-- Generated by graphviz version 2.43.0 (0)
 -->
<!-- Title: cv::kinfu::Volume Pages: 1 -->
<svg width="280pt" height="1284pt"
 viewBox="0.00 0.00 280.00 1284.00" xmlns="http://www.w3.org/2000/svg" xmlns:xlink="http://www.w3.org/1999/xlink">
<g id="graph0" class="graph" transform="scale(1 1) rotate(0) translate(4 1280)">
<title>cv::kinfu::Volume</title>
<!-- Node1 -->
<g id="Node000001" class="node">
<title>Node1</title>
<g id="a_Node000001"><a xlink:title=" ">
<polygon fill="#999999" stroke="transparent" points="156,-184 0,-184 0,0 156,0 156,-184"/>
<text text-anchor="start" x="35.5" y="-172" font-family="Helvetica,sans-Serif" font-size="10.00">cv::kinfu::Volume</text>
<text text-anchor="start" x="76" y="-157" font-family="Helvetica,sans-Serif" font-size="10.00"> </text>
<text text-anchor="start" x="4" y="-142" font-family="Helvetica,sans-Serif" font-size="10.00">+</text>
<text text-anchor="start" x="17" y="-142" font-family="Helvetica,sans-Serif" font-size="10.00">Volume()</text>
<text text-anchor="start" x="4" y="-127" font-family="Helvetica,sans-Serif" font-size="10.00">+</text>
<text text-anchor="start" x="17" y="-127" font-family="Helvetica,sans-Serif" font-size="10.00">~Volume()</text>
<text text-anchor="start" x="4" y="-112" font-family="Helvetica,sans-Serif" font-size="10.00">+</text>
<text text-anchor="start" x="17" y="-112" font-family="Helvetica,sans-Serif" font-size="10.00">fetchNormals()</text>
<text text-anchor="start" x="4" y="-97" font-family="Helvetica,sans-Serif" font-size="10.00">+</text>
<text text-anchor="start" x="17" y="-97" font-family="Helvetica,sans-Serif" font-size="10.00">fetchPointsNormals()</text>
<text text-anchor="start" x="4" y="-82" font-family="Helvetica,sans-Serif" font-size="10.00">+</text>
<text text-anchor="start" x="17" y="-82" font-family="Helvetica,sans-Serif" font-size="10.00">fetchPointsNormalsColors()</text>
<text text-anchor="start" x="4" y="-67" font-family="Helvetica,sans-Serif" font-size="10.00">+</text>
<text text-anchor="start" x="17" y="-67" font-family="Helvetica,sans-Serif" font-size="10.00">integrate()</text>
<text text-anchor="start" x="4" y="-52" font-family="Helvetica,sans-Serif" font-size="10.00">+</text>
<text text-anchor="start" x="17" y="-52" font-family="Helvetica,sans-Serif" font-size="10.00">integrate()</text>
<text text-anchor="start" x="4" y="-37" font-family="Helvetica,sans-Serif" font-size="10.00">+</text>
<text text-anchor="start" x="17" y="-37" font-family="Helvetica,sans-Serif" font-size="10.00">raycast()</text>
<text text-anchor="start" x="4" y="-22" font-family="Helvetica,sans-Serif" font-size="10.00">+</text>
<text text-anchor="start" x="17" y="-22" font-family="Helvetica,sans-Serif" font-size="10.00">raycast()</text>
<text text-anchor="start" x="4" y="-7" font-family="Helvetica,sans-Serif" font-size="10.00">+</text>
<text text-anchor="start" x="17" y="-7" font-family="Helvetica,sans-Serif" font-size="10.00">reset()</text>
<polygon fill="#666666" stroke="#666666" points="0,-167 0,-167 156,-167 156,-167 0,-167"/>
<polygon fill="#666666" stroke="#666666" points="0,-152 0,-152 156,-152 156,-152 0,-152"/>
<polygon fill="none" stroke="#666666" points="0,0 0,-184 156,-184 156,0 0,0"/>
</a>
</g>
</g>
<!-- Node2 -->
<g id="Node000002" class="node">
<title>Node2</title>
<g id="a_Node000002"><a xlink:title=" ">
<polygon fill="white" stroke="transparent" points="33,-384.5 1,-384.5 1,-335.5 33,-335.5 33,-384.5"/>
<text text-anchor="start" x="6" y="-372" font-family="Helvetica,sans-Serif" font-size="10.00">float</text>
<text text-anchor="start" x="15" y="-357" font-family="Helvetica,sans-Serif" font-size="10.00"> </text>
<text text-anchor="start" x="15" y="-342" font-family="Helvetica,sans-Serif" font-size="10.00"> </text>
<polygon fill="#666666" stroke="#666666" points="1,-367 1,-367 33,-367 33,-367 1,-367"/>
<polygon fill="#666666" stroke="#666666" points="1,-352 1,-352 33,-352 33,-352 1,-352"/>
<polygon fill="none" stroke="#666666" points="1,-335.5 1,-384.5 33,-384.5 33,-335.5 1,-335.5"/>
</a>
</g>
</g>
<!-- Node2&#45;&gt;Node1 -->
<g id="edge1_Node000001_Node000002" class="edge">
<title>Node2&#45;&gt;Node1</title>
<g id="a_edge1_Node000001_Node000002"><a xlink:title=" ">
<path fill="none" stroke="#63b8ff" d="M13.59,-335.39C9.9,-304.25 6.01,-248.03 18,-202 18.56,-199.86 19.17,-197.71 19.82,-195.57"/>
<polygon fill="none" stroke="#63b8ff" points="19.85,-195.49 18.01,-188.51 23.74,-184.13 25.58,-191.11 19.85,-195.49"/>
</a>
</g>
<text text-anchor="middle" x="67.5" y="-227" font-family="Helvetica,sans-Serif" font-size="10.00" fill="grey"> +raycastStepFactor</text>
<text text-anchor="middle" x="67.5" y="-216" font-family="Helvetica,sans-Serif" font-size="10.00" fill="grey">+voxelSize</text>
<text text-anchor="middle" x="67.5" y="-205" font-family="Helvetica,sans-Serif" font-size="10.00" fill="grey">+voxelSizeInv</text>
</g>
<!-- Node3 -->
<g id="Node000003" class="node">
<title>Node3</title>
<g id="a_Node000003"><a xlink:href="../../dd/d99/classcv_1_1Affine3.html" target="_top" xlink:title="Affine transform.">
<polygon fill="white" stroke="transparent" points="185,-467 93,-467 93,-253 185,-253 185,-467"/>
<text text-anchor="start" x="99" y="-455" font-family="Helvetica,sans-Serif" font-size="10.00">cv::Affine3&lt; T &gt;</text>
<text text-anchor="start" x="137" y="-440" font-family="Helvetica,sans-Serif" font-size="10.00"> </text>
<text text-anchor="start" x="97" y="-425" font-family="Helvetica,sans-Serif" font-size="10.00">+</text>
<text text-anchor="start" x="110" y="-425" font-family="Helvetica,sans-Serif" font-size="10.00">Affine3()</text>
<text text-anchor="start" x="97" y="-410" font-family="Helvetica,sans-Serif" font-size="10.00">+</text>
<text text-anchor="start" x="110" y="-410" font-family="Helvetica,sans-Serif" font-size="10.00">Affine3()</text>
<text text-anchor="start" x="97" y="-395" font-family="Helvetica,sans-Serif" font-size="10.00">+</text>
<text text-anchor="start" x="110" y="-395" font-family="Helvetica,sans-Serif" font-size="10.00">Affine3()</text>
<text text-anchor="start" x="97" y="-380" font-family="Helvetica,sans-Serif" font-size="10.00">+</text>
<text text-anchor="start" x="110" y="-380" font-family="Helvetica,sans-Serif" font-size="10.00">Affine3()</text>
<text text-anchor="start" x="97" y="-365" font-family="Helvetica,sans-Serif" font-size="10.00">+</text>
<text text-anchor="start" x="110" y="-365" font-family="Helvetica,sans-Serif" font-size="10.00">Affine3()</text>
<text text-anchor="start" x="97" y="-350" font-family="Helvetica,sans-Serif" font-size="10.00">+</text>
<text text-anchor="start" x="110" y="-350" font-family="Helvetica,sans-Serif" font-size="10.00">Affine3()</text>
<text text-anchor="start" x="97" y="-335" font-family="Helvetica,sans-Serif" font-size="10.00">+</text>
<text text-anchor="start" x="110" y="-335" font-family="Helvetica,sans-Serif" font-size="10.00">cast()</text>
<text text-anchor="start" x="97" y="-320" font-family="Helvetica,sans-Serif" font-size="10.00">+</text>
<text text-anchor="start" x="110" y="-320" font-family="Helvetica,sans-Serif" font-size="10.00">concatenate()</text>
<text text-anchor="start" x="97" y="-305" font-family="Helvetica,sans-Serif" font-size="10.00">+</text>
<text text-anchor="start" x="110" y="-305" font-family="Helvetica,sans-Serif" font-size="10.00">inv()</text>
<text text-anchor="start" x="97" y="-290" font-family="Helvetica,sans-Serif" font-size="10.00">+</text>
<text text-anchor="start" x="110" y="-290" font-family="Helvetica,sans-Serif" font-size="10.00">linear()</text>
<text text-anchor="start" x="110" y="-275" font-family="Helvetica,sans-Serif" font-size="10.00">and 12 more...</text>
<text text-anchor="start" x="97" y="-260" font-family="Helvetica,sans-Serif" font-size="10.00">+</text>
<text text-anchor="start" x="110" y="-260" font-family="Helvetica,sans-Serif" font-size="10.00">Identity()</text>
<polygon fill="#666666" stroke="#666666" points="93,-450 93,-450 185,-450 185,-450 93,-450"/>
<polygon fill="#666666" stroke="#666666" points="93,-435 93,-435 185,-435 185,-435 93,-435"/>
<polygon fill="none" stroke="#666666" points="93,-253 93,-467 185,-467 185,-253 93,-253"/>
</a>
</g>
</g>
<!-- Node3&#45;&gt;Node1 -->
<g id="edge2_Node000001_Node000003" class="edge">
<title>Node3&#45;&gt;Node1</title>
<g id="a_edge2_Node000001_Node000003"><a xlink:title=" ">
<path fill="none" stroke="#63b8ff" d="M127.14,-252.87C124.36,-235.75 121.01,-218.3 117,-202 116.5,-199.99 115.99,-197.96 115.45,-195.92"/>
<polygon fill="none" stroke="#63b8ff" points="115.39,-195.73 109.92,-191.03 112.15,-184.17 117.62,-188.87 115.39,-195.73"/>
</a>
</g>
<text text-anchor="middle" x="140.5" y="-216" font-family="Helvetica,sans-Serif" font-size="10.00" fill="grey"> +pose</text>
</g>
<!-- Node4 -->
<g id="Node000004" class="node">
<title>Node4</title>
<g id="a_Node000004"><a xlink:href="../../de/de1/classcv_1_1Matx.html" target="_top" xlink:title=" ">
<polygon fill="white" stroke="transparent" points="196.5,-829 81.5,-829 81.5,-514 196.5,-514 196.5,-829"/>
<text text-anchor="start" x="87" y="-816.5" font-family="Helvetica,sans-Serif" font-size="10.00">cv::Matx&lt; float_type,</text>
<text text-anchor="start" x="123" y="-805.5" font-family="Helvetica,sans-Serif" font-size="10.00"> 4, 4 &gt;</text>
<text text-anchor="start" x="137.5" y="-790.5" font-family="Helvetica,sans-Serif" font-size="10.00"> </text>
<text text-anchor="start" x="91.5" y="-775.5" font-family="Helvetica,sans-Serif" font-size="10.00">+</text>
<text text-anchor="start" x="110" y="-775.5" font-family="Helvetica,sans-Serif" font-size="10.00">Matx()</text>
<text text-anchor="start" x="91.5" y="-760.5" font-family="Helvetica,sans-Serif" font-size="10.00">+</text>
<text text-anchor="start" x="110" y="-760.5" font-family="Helvetica,sans-Serif" font-size="10.00">Matx()</text>
<text text-anchor="start" x="91.5" y="-745.5" font-family="Helvetica,sans-Serif" font-size="10.00">+</text>
<text text-anchor="start" x="110" y="-745.5" font-family="Helvetica,sans-Serif" font-size="10.00">Matx()</text>
<text text-anchor="start" x="91.5" y="-730.5" font-family="Helvetica,sans-Serif" font-size="10.00">+</text>
<text text-anchor="start" x="110" y="-730.5" font-family="Helvetica,sans-Serif" font-size="10.00">Matx()</text>
<text text-anchor="start" x="91.5" y="-715.5" font-family="Helvetica,sans-Serif" font-size="10.00">+</text>
<text text-anchor="start" x="110" y="-715.5" font-family="Helvetica,sans-Serif" font-size="10.00">Matx()</text>
<text text-anchor="start" x="91.5" y="-700.5" font-family="Helvetica,sans-Serif" font-size="10.00">+</text>
<text text-anchor="start" x="110" y="-700.5" font-family="Helvetica,sans-Serif" font-size="10.00">Matx()</text>
<text text-anchor="start" x="91.5" y="-685.5" font-family="Helvetica,sans-Serif" font-size="10.00">+</text>
<text text-anchor="start" x="110" y="-685.5" font-family="Helvetica,sans-Serif" font-size="10.00">Matx()</text>
<text text-anchor="start" x="91.5" y="-670.5" font-family="Helvetica,sans-Serif" font-size="10.00">+</text>
<text text-anchor="start" x="110" y="-670.5" font-family="Helvetica,sans-Serif" font-size="10.00">Matx()</text>
<text text-anchor="start" x="91.5" y="-655.5" font-family="Helvetica,sans-Serif" font-size="10.00">+</text>
<text text-anchor="start" x="110" y="-655.5" font-family="Helvetica,sans-Serif" font-size="10.00">Matx()</text>
<text text-anchor="start" x="91.5" y="-640.5" font-family="Helvetica,sans-Serif" font-size="10.00">+</text>
<text text-anchor="start" x="110" y="-640.5" font-family="Helvetica,sans-Serif" font-size="10.00">Matx()</text>
<text text-anchor="start" x="110" y="-625.5" font-family="Helvetica,sans-Serif" font-size="10.00">and 31 more...</text>
<text text-anchor="start" x="91.5" y="-610.5" font-family="Helvetica,sans-Serif" font-size="10.00">+</text>
<text text-anchor="start" x="110" y="-610.5" font-family="Helvetica,sans-Serif" font-size="10.00">all()</text>
<text text-anchor="start" x="91.5" y="-595.5" font-family="Helvetica,sans-Serif" font-size="10.00">+</text>
<text text-anchor="start" x="110" y="-595.5" font-family="Helvetica,sans-Serif" font-size="10.00">diag()</text>
<text text-anchor="start" x="91.5" y="-580.5" font-family="Helvetica,sans-Serif" font-size="10.00">+</text>
<text text-anchor="start" x="110" y="-580.5" font-family="Helvetica,sans-Serif" font-size="10.00">eye()</text>
<text text-anchor="start" x="91.5" y="-565.5" font-family="Helvetica,sans-Serif" font-size="10.00">+</text>
<text text-anchor="start" x="110" y="-565.5" font-family="Helvetica,sans-Serif" font-size="10.00">ones()</text>
<text text-anchor="start" x="91.5" y="-550.5" font-family="Helvetica,sans-Serif" font-size="10.00">+</text>
<text text-anchor="start" x="110" y="-550.5" font-family="Helvetica,sans-Serif" font-size="10.00">randn()</text>
<text text-anchor="start" x="91.5" y="-535.5" font-family="Helvetica,sans-Serif" font-size="10.00">+</text>
<text text-anchor="start" x="110" y="-535.5" font-family="Helvetica,sans-Serif" font-size="10.00">randu()</text>
<text text-anchor="start" x="91.5" y="-520.5" font-family="Helvetica,sans-Serif" font-size="10.00">+</text>
<text text-anchor="start" x="110" y="-520.5" font-family="Helvetica,sans-Serif" font-size="10.00">zeros()</text>
<polygon fill="#666666" stroke="#666666" points="82,-800.5 82,-800.5 197,-800.5 197,-800.5 82,-800.5"/>
<polygon fill="#666666" stroke="#666666" points="82,-785.5 82,-785.5 197,-785.5 197,-785.5 82,-785.5"/>
<polygon fill="none" stroke="#666666" points="81.5,-514 81.5,-829 196.5,-829 196.5,-514 81.5,-514"/>
</a>
</g>
</g>
<!-- Node4&#45;&gt;Node3 -->
<g id="edge3_Node000003_Node000004" class="edge">
<title>Node4&#45;&gt;Node3</title>
<g id="a_edge3_Node000003_Node000004"><a xlink:title=" ">
<path fill="none" stroke="#63b8ff" d="M139,-513.94C139,-502.27 139,-490.61 139,-479.23"/>
<polygon fill="none" stroke="#63b8ff" points="139,-479 135,-473 139,-467 143,-473 139,-479"/>
</a>
</g>
<text text-anchor="middle" x="161" y="-488" font-family="Helvetica,sans-Serif" font-size="10.00" fill="grey"> +matrix</text>
</g>
<!-- Node5 -->
<g id="Node000005" class="node">
<title>Node5</title>
<g id="a_Node000005"><a xlink:href="../../d2/dc7/classfloat__type.html" target="_top" xlink:title=" ">
<polygon fill="white" stroke="transparent" points="129.5,-1052.5 70.5,-1052.5 70.5,-1003.5 129.5,-1003.5 129.5,-1052.5"/>
<text text-anchor="start" x="76" y="-1040" font-family="Helvetica,sans-Serif" font-size="10.00">float_type</text>
<text text-anchor="start" x="98.5" y="-1025" font-family="Helvetica,sans-Serif" font-size="10.00"> </text>
<text text-anchor="start" x="98.5" y="-1010" font-family="Helvetica,sans-Serif" font-size="10.00"> </text>
<polygon fill="#666666" stroke="#666666" points="71,-1035 71,-1035 130,-1035 130,-1035 71,-1035"/>
<polygon fill="#666666" stroke="#666666" points="71,-1020 71,-1020 130,-1020 130,-1020 71,-1020"/>
<polygon fill="none" stroke="#666666" points="70.5,-1003.5 70.5,-1052.5 129.5,-1052.5 129.5,-1003.5 70.5,-1003.5"/>
</a>
</g>
</g>
<!-- Node5&#45;&gt;Node4 -->
<g id="edge4_Node000004_Node000005" class="edge">
<title>Node5&#45;&gt;Node4</title>
<g id="a_edge4_Node000004_Node000005"><a xlink:title=" ">
<path fill="none" stroke="#63b8ff" d="M102.59,-1003.47C106.29,-969.83 113.42,-905.06 120.39,-841.66"/>
<polygon fill="none" stroke="#63b8ff" points="120.42,-841.36 117.1,-834.96 121.74,-829.43 125.06,-835.83 120.42,-841.36"/>
</a>
</g>
<text text-anchor="middle" x="132.5" y="-850" font-family="Helvetica,sans-Serif" font-size="10.00" fill="grey"> +val</text>
</g>
<!-- Node6 -->
<g id="Node000006" class="node">
<title>Node6</title>
<g id="a_Node000006"><a xlink:href="../../de/de1/classcv_1_1Matx.html" target="_top" xlink:title="Template class for small matrices whose type and size are known at compilation time.">
<polygon fill="white" stroke="transparent" points="266.5,-1180 147.5,-1180 147.5,-876 266.5,-876 266.5,-1180"/>
<text text-anchor="start" x="153" y="-1168" font-family="Helvetica,sans-Serif" font-size="10.00">cv::Matx&lt; _Tp, m, n &gt;</text>
<text text-anchor="start" x="205.5" y="-1153" font-family="Helvetica,sans-Serif" font-size="10.00"> </text>
<text text-anchor="start" x="158.5" y="-1138" font-family="Helvetica,sans-Serif" font-size="10.00">+</text>
<text text-anchor="start" x="178" y="-1138" font-family="Helvetica,sans-Serif" font-size="10.00">Matx()</text>
<text text-anchor="start" x="158.5" y="-1123" font-family="Helvetica,sans-Serif" font-size="10.00">+</text>
<text text-anchor="start" x="178" y="-1123" font-family="Helvetica,sans-Serif" font-size="10.00">Matx()</text>
<text text-anchor="start" x="158.5" y="-1108" font-family="Helvetica,sans-Serif" font-size="10.00">+</text>
<text text-anchor="start" x="178" y="-1108" font-family="Helvetica,sans-Serif" font-size="10.00">Matx()</text>
<text text-anchor="start" x="158.5" y="-1093" font-family="Helvetica,sans-Serif" font-size="10.00">+</text>
<text text-anchor="start" x="178" y="-1093" font-family="Helvetica,sans-Serif" font-size="10.00">Matx()</text>
<text text-anchor="start" x="158.5" y="-1078" font-family="Helvetica,sans-Serif" font-size="10.00">+</text>
<text text-anchor="start" x="178" y="-1078" font-family="Helvetica,sans-Serif" font-size="10.00">Matx()</text>
<text text-anchor="start" x="158.5" y="-1063" font-family="Helvetica,sans-Serif" font-size="10.00">+</text>
<text text-anchor="start" x="178" y="-1063" font-family="Helvetica,sans-Serif" font-size="10.00">Matx()</text>
<text text-anchor="start" x="158.5" y="-1048" font-family="Helvetica,sans-Serif" font-size="10.00">+</text>
<text text-anchor="start" x="178" y="-1048" font-family="Helvetica,sans-Serif" font-size="10.00">Matx()</text>
<text text-anchor="start" x="158.5" y="-1033" font-family="Helvetica,sans-Serif" font-size="10.00">+</text>
<text text-anchor="start" x="178" y="-1033" font-family="Helvetica,sans-Serif" font-size="10.00">Matx()</text>
<text text-anchor="start" x="158.5" y="-1018" font-family="Helvetica,sans-Serif" font-size="10.00">+</text>
<text text-anchor="start" x="178" y="-1018" font-family="Helvetica,sans-Serif" font-size="10.00">Matx()</text>
<text text-anchor="start" x="158.5" y="-1003" font-family="Helvetica,sans-Serif" font-size="10.00">+</text>
<text text-anchor="start" x="178" y="-1003" font-family="Helvetica,sans-Serif" font-size="10.00">Matx()</text>
<text text-anchor="start" x="178" y="-988" font-family="Helvetica,sans-Serif" font-size="10.00">and 31 more...</text>
<text text-anchor="start" x="158.5" y="-973" font-family="Helvetica,sans-Serif" font-size="10.00">+</text>
<text text-anchor="start" x="178" y="-973" font-family="Helvetica,sans-Serif" font-size="10.00">all()</text>
<text text-anchor="start" x="158.5" y="-958" font-family="Helvetica,sans-Serif" font-size="10.00">+</text>
<text text-anchor="start" x="178" y="-958" font-family="Helvetica,sans-Serif" font-size="10.00">diag()</text>
<text text-anchor="start" x="158.5" y="-943" font-family="Helvetica,sans-Serif" font-size="10.00">+</text>
<text text-anchor="start" x="178" y="-943" font-family="Helvetica,sans-Serif" font-size="10.00">eye()</text>
<text text-anchor="start" x="158.5" y="-928" font-family="Helvetica,sans-Serif" font-size="10.00">+</text>
<text text-anchor="start" x="178" y="-928" font-family="Helvetica,sans-Serif" font-size="10.00">ones()</text>
<text text-anchor="start" x="158.5" y="-913" font-family="Helvetica,sans-Serif" font-size="10.00">+</text>
<text text-anchor="start" x="178" y="-913" font-family="Helvetica,sans-Serif" font-size="10.00">randn()</text>
<text text-anchor="start" x="158.5" y="-898" font-family="Helvetica,sans-Serif" font-size="10.00">+</text>
<text text-anchor="start" x="178" y="-898" font-family="Helvetica,sans-Serif" font-size="10.00">randu()</text>
<text text-anchor="start" x="158.5" y="-883" font-family="Helvetica,sans-Serif" font-size="10.00">+</text>
<text text-anchor="start" x="178" y="-883" font-family="Helvetica,sans-Serif" font-size="10.00">zeros()</text>
<polygon fill="#666666" stroke="#666666" points="148,-1163 148,-1163 267,-1163 267,-1163 148,-1163"/>
<polygon fill="#666666" stroke="#666666" points="148,-1148 148,-1148 267,-1148 267,-1148 148,-1148"/>
<polygon fill="none" stroke="#666666" points="147.5,-876 147.5,-1180 266.5,-1180 266.5,-876 147.5,-876"/>
</a>
</g>
</g>
<!-- Node6&#45;&gt;Node4 -->
<g id="edge5_Node000004_Node000006" class="edge">
<title>Node6&#45;&gt;Node4</title>
<g id="a_edge5_Node000004_Node000006"><a xlink:title=" ">
<path fill="none" stroke="orange" d="M176.06,-865.72C173.74,-853.58 171.39,-841.34 169.06,-829.23"/>
<polygon fill="orange" stroke="orange" points="172.69,-866.73 178.01,-875.89 179.57,-865.41 172.69,-866.73"/>
</a>
</g>
<text text-anchor="middle" x="222.5" y="-850" font-family="Helvetica,sans-Serif" font-size="10.00" fill="grey"> &lt; float_type, 4, 4 &gt;</text>
</g>
<!-- Node7 -->
<g id="Node000007" class="node">
<title>Node7</title>
<g id="a_Node000007"><a xlink:href="../../d1/dd7/class__Tp.html" target="_top" xlink:title=" ">
<polygon fill="white" stroke="transparent" points="221,-1276 193,-1276 193,-1227 221,-1227 221,-1276"/>
<text text-anchor="start" x="198" y="-1263.5" font-family="Helvetica,sans-Serif" font-size="10.00">_Tp</text>
<text text-anchor="start" x="205" y="-1248.5" font-family="Helvetica,sans-Serif" font-size="10.00"> </text>
<text text-anchor="start" x="205" y="-1233.5" font-family="Helvetica,sans-Serif" font-size="10.00"> </text>
<polygon fill="#666666" stroke="#666666" points="193,-1258.5 193,-1258.5 221,-1258.5 221,-1258.5 193,-1258.5"/>
<polygon fill="#666666" stroke="#666666" points="193,-1243.5 193,-1243.5 221,-1243.5 221,-1243.5 193,-1243.5"/>
<polygon fill="none" stroke="#666666" points="193,-1227 193,-1276 221,-1276 221,-1227 193,-1227"/>
</a>
</g>
</g>
<!-- Node7&#45;&gt;Node6 -->
<g id="edge6_Node000006_Node000007" class="edge">
<title>Node7&#45;&gt;Node6</title>
<g id="a_edge6_Node000006_Node000007"><a xlink:title=" ">
<path fill="none" stroke="#63b8ff" d="M207,-1226.8C207,-1217.31 207,-1205.53 207,-1192.46"/>
<polygon fill="none" stroke="#63b8ff" points="207,-1192.14 203,-1186.14 207,-1180.14 211,-1186.14 207,-1192.14"/>
</a>
</g>
<text text-anchor="middle" x="220.5" y="-1201" font-family="Helvetica,sans-Serif" font-size="10.00" fill="grey"> +val</text>
</g>
</g>
</svg>
