<?xml version="1.0" encoding="UTF-8" standalone="no"?>
<!DOCTYPE svg PUBLIC "-//W3C//DTD SVG 1.1//EN"
 "http://www.w3.org/Graphics/SVG/1.1/DTD/svg11.dtd">
<!-- Generated by graphviz version 2.43.0 (0)
 -->
<!-- Title: cv::cudev::AffineMapPtrSz Pages: 1 -->
<svg width="208pt" height="260pt"
 viewBox="0.00 0.00 207.50 260.00" xmlns="http://www.w3.org/2000/svg" xmlns:xlink="http://www.w3.org/1999/xlink">
<g id="graph0" class="graph" transform="scale(1 1) rotate(0) translate(4 256)">
<title>cv::cudev::AffineMapPtrSz</title>
<!-- Node1 -->
<g id="Node000001" class="node">
<title>Node1</title>
<g id="a_Node000001"><a xlink:title=" ">
<polygon fill="#999999" stroke="transparent" points="199.5,-49 63.5,-49 63.5,0 199.5,0 199.5,-49"/>
<text text-anchor="start" x="68.5" y="-36.5" font-family="Helvetica,sans-Serif" font-size="10.00">cv::cudev::AffineMapPtrSz</text>
<text text-anchor="start" x="129.5" y="-21.5" font-family="Helvetica,sans-Serif" font-size="10.00"> </text>
<text text-anchor="start" x="129.5" y="-6.5" font-family="Helvetica,sans-Serif" font-size="10.00"> </text>
<polygon fill="#666666" stroke="#666666" points="63.5,-31.5 63.5,-31.5 199.5,-31.5 199.5,-31.5 63.5,-31.5"/>
<polygon fill="#666666" stroke="#666666" points="63.5,-16.5 63.5,-16.5 199.5,-16.5 199.5,-16.5 63.5,-16.5"/>
<polygon fill="none" stroke="#666666" points="63.5,0 63.5,-49 199.5,-49 199.5,0 63.5,0"/>
</a>
</g>
</g>
<!-- Node2 -->
<g id="Node000002" class="node">
<title>Node2</title>
<g id="a_Node000002"><a xlink:href="../../d0/d2a/structcv_1_1cudev_1_1AffineMapPtr.html" target="_top" xlink:title=" ">
<polygon fill="white" stroke="transparent" points="125,-156 0,-156 0,-107 125,-107 125,-156"/>
<text text-anchor="start" x="5.5" y="-143.5" font-family="Helvetica,sans-Serif" font-size="10.00">cv::cudev::AffineMapPtr</text>
<text text-anchor="start" x="61" y="-128.5" font-family="Helvetica,sans-Serif" font-size="10.00"> </text>
<text text-anchor="start" x="16" y="-113.5" font-family="Helvetica,sans-Serif" font-size="10.00">+</text>
<text text-anchor="start" x="40.5" y="-113.5" font-family="Helvetica,sans-Serif" font-size="10.00">operator()()</text>
<polygon fill="#666666" stroke="#666666" points="0.5,-138.5 0.5,-138.5 125.5,-138.5 125.5,-138.5 0.5,-138.5"/>
<polygon fill="#666666" stroke="#666666" points="0.5,-123.5 0.5,-123.5 125.5,-123.5 125.5,-123.5 0.5,-123.5"/>
<polygon fill="none" stroke="#666666" points="0,-107 0,-156 125,-156 125,-107 0,-107"/>
</a>
</g>
</g>
<!-- Node2&#45;&gt;Node1 -->
<g id="edge1_Node000001_Node000002" class="edge">
<title>Node2&#45;&gt;Node1</title>
<g id="a_edge1_Node000001_Node000002"><a xlink:title=" ">
<path fill="none" stroke="#63b8ff" d="M83.53,-98.49C93.93,-82.67 106.27,-63.89 115.83,-49.35"/>
<polygon fill="none" stroke="#63b8ff" points="80.55,-96.66 77.98,-106.94 86.4,-100.5 80.55,-96.66"/>
</a>
</g>
</g>
<!-- Node3 -->
<g id="Node000003" class="node">
<title>Node3</title>
<g id="a_Node000003"><a xlink:title=" ">
<polygon fill="white" stroke="transparent" points="78.5,-252 46.5,-252 46.5,-203 78.5,-203 78.5,-252"/>
<text text-anchor="start" x="51.5" y="-239.5" font-family="Helvetica,sans-Serif" font-size="10.00">float</text>
<text text-anchor="start" x="60.5" y="-224.5" font-family="Helvetica,sans-Serif" font-size="10.00"> </text>
<text text-anchor="start" x="60.5" y="-209.5" font-family="Helvetica,sans-Serif" font-size="10.00"> </text>
<polygon fill="#666666" stroke="#666666" points="46.5,-234.5 46.5,-234.5 78.5,-234.5 78.5,-234.5 46.5,-234.5"/>
<polygon fill="#666666" stroke="#666666" points="46.5,-219.5 46.5,-219.5 78.5,-219.5 78.5,-219.5 46.5,-219.5"/>
<polygon fill="none" stroke="#666666" points="46.5,-203 46.5,-252 78.5,-252 78.5,-203 46.5,-203"/>
</a>
</g>
</g>
<!-- Node3&#45;&gt;Node2 -->
<g id="edge2_Node000002_Node000003" class="edge">
<title>Node3&#45;&gt;Node2</title>
<g id="a_edge2_Node000002_Node000003"><a xlink:title=" ">
<path fill="none" stroke="#63b8ff" d="M62.5,-202.78C62.5,-192.32 62.5,-179.79 62.5,-168.23"/>
<polygon fill="none" stroke="#63b8ff" points="62.5,-168.21 58.5,-162.21 62.5,-156.21 66.5,-162.21 62.5,-168.21"/>
</a>
</g>
<text text-anchor="middle" x="90" y="-177" font-family="Helvetica,sans-Serif" font-size="10.00" fill="grey"> +warpMat</text>
</g>
<!-- Node4 -->
<g id="Node000004" class="node">
<title>Node4</title>
<g id="a_Node000004"><a xlink:title=" ">
<polygon fill="white" stroke="transparent" points="166,-156 143,-156 143,-107 166,-107 166,-156"/>
<text text-anchor="start" x="148.5" y="-143.5" font-family="Helvetica,sans-Serif" font-size="10.00">int</text>
<text text-anchor="start" x="153" y="-128.5" font-family="Helvetica,sans-Serif" font-size="10.00"> </text>
<text text-anchor="start" x="153" y="-113.5" font-family="Helvetica,sans-Serif" font-size="10.00"> </text>
<polygon fill="#666666" stroke="#666666" points="143.5,-138.5 143.5,-138.5 166.5,-138.5 166.5,-138.5 143.5,-138.5"/>
<polygon fill="#666666" stroke="#666666" points="143.5,-123.5 143.5,-123.5 166.5,-123.5 166.5,-123.5 143.5,-123.5"/>
<polygon fill="none" stroke="#666666" points="143,-107 143,-156 166,-156 166,-107 143,-107"/>
</a>
</g>
</g>
<!-- Node4&#45;&gt;Node1 -->
<g id="edge3_Node000001_Node000004" class="edge">
<title>Node4&#45;&gt;Node1</title>
<g id="a_edge3_Node000001_Node000004"><a xlink:title=" ">
<path fill="none" stroke="#63b8ff" d="M149.34,-106.94C146.4,-93.52 142.66,-76.44 139.36,-61.39"/>
<polygon fill="none" stroke="#63b8ff" points="139.29,-61.07 134.1,-56.07 136.72,-49.35 141.92,-54.35 139.29,-61.07"/>
</a>
</g>
<text text-anchor="middle" x="160.5" y="-81" font-family="Helvetica,sans-Serif" font-size="10.00" fill="grey"> +cols</text>
<text text-anchor="middle" x="160.5" y="-70" font-family="Helvetica,sans-Serif" font-size="10.00" fill="grey">+rows</text>
</g>
</g>
</svg>
