<?xml version="1.0" encoding="UTF-8" standalone="no"?>
<!DOCTYPE svg PUBLIC "-//W3C//DTD SVG 1.1//EN"
 "http://www.w3.org/Graphics/SVG/1.1/DTD/svg11.dtd">
<!-- Generated by graphviz version 2.43.0 (0)
 -->
<!-- Title: cv::KeyPoint Pages: 1 -->
<svg width="302pt" height="880pt"
 viewBox="0.00 0.00 301.53 880.00" xmlns="http://www.w3.org/2000/svg" xmlns:xlink="http://www.w3.org/1999/xlink">
<g id="graph0" class="graph" transform="scale(1 1) rotate(0) translate(4 876)">
<title>cv::KeyPoint</title>
<!-- Node1 -->
<g id="Node000001" class="node">
<title>Node1</title>
<g id="a_Node000001"><a xlink:title="Data structure for salient point detectors.">
<polygon fill="#999999" stroke="transparent" points="204.53,-139 132.53,-139 132.53,0 204.53,0 204.53,-139"/>
<text text-anchor="start" x="138.53" y="-126.5" font-family="Helvetica,sans-Serif" font-size="10.00">cv::KeyPoint</text>
<text text-anchor="start" x="166.53" y="-111.5" font-family="Helvetica,sans-Serif" font-size="10.00"> </text>
<text text-anchor="start" x="136.53" y="-96.5" font-family="Helvetica,sans-Serif" font-size="10.00">+</text>
<text text-anchor="start" x="149.53" y="-96.5" font-family="Helvetica,sans-Serif" font-size="10.00">KeyPoint()</text>
<text text-anchor="start" x="136.53" y="-81.5" font-family="Helvetica,sans-Serif" font-size="10.00">+</text>
<text text-anchor="start" x="149.53" y="-81.5" font-family="Helvetica,sans-Serif" font-size="10.00">KeyPoint()</text>
<text text-anchor="start" x="136.53" y="-66.5" font-family="Helvetica,sans-Serif" font-size="10.00">+</text>
<text text-anchor="start" x="149.53" y="-66.5" font-family="Helvetica,sans-Serif" font-size="10.00">KeyPoint()</text>
<text text-anchor="start" x="136.53" y="-51.5" font-family="Helvetica,sans-Serif" font-size="10.00">+</text>
<text text-anchor="start" x="149.53" y="-51.5" font-family="Helvetica,sans-Serif" font-size="10.00">hash()</text>
<text text-anchor="start" x="136.53" y="-36.5" font-family="Helvetica,sans-Serif" font-size="10.00">+</text>
<text text-anchor="start" x="149.53" y="-36.5" font-family="Helvetica,sans-Serif" font-size="10.00">convert()</text>
<text text-anchor="start" x="136.53" y="-21.5" font-family="Helvetica,sans-Serif" font-size="10.00">+</text>
<text text-anchor="start" x="149.53" y="-21.5" font-family="Helvetica,sans-Serif" font-size="10.00">convert()</text>
<text text-anchor="start" x="136.53" y="-6.5" font-family="Helvetica,sans-Serif" font-size="10.00">+</text>
<text text-anchor="start" x="149.53" y="-6.5" font-family="Helvetica,sans-Serif" font-size="10.00">overlap()</text>
<polygon fill="#666666" stroke="#666666" points="132.53,-121.5 132.53,-121.5 204.53,-121.5 204.53,-121.5 132.53,-121.5"/>
<polygon fill="#666666" stroke="#666666" points="132.53,-106.5 132.53,-106.5 204.53,-106.5 204.53,-106.5 132.53,-106.5"/>
<polygon fill="none" stroke="#666666" points="132.53,0 132.53,-139 204.53,-139 204.53,0 132.53,0"/>
</a>
</g>
</g>
<!-- Node2 -->
<g id="Node000002" class="node">
<title>Node2</title>
<g id="a_Node000002"><a xlink:href="../../db/d4e/classcv_1_1Point__.html" target="_top" xlink:title=" ">
<polygon fill="white" stroke="transparent" points="243.03,-452 94.03,-452 94.03,-197 243.03,-197 243.03,-452"/>
<text text-anchor="start" x="123.53" y="-439.5" font-family="Helvetica,sans-Serif" font-size="10.00">cv::Point_&lt; float &gt;</text>
<text text-anchor="start" x="167.03" y="-424.5" font-family="Helvetica,sans-Serif" font-size="10.00"> </text>
<text text-anchor="start" x="98.53" y="-409.5" font-family="Helvetica,sans-Serif" font-size="10.00">+</text>
<text text-anchor="start" x="111.53" y="-409.5" font-family="Helvetica,sans-Serif" font-size="10.00">Point_()</text>
<text text-anchor="start" x="98.53" y="-394.5" font-family="Helvetica,sans-Serif" font-size="10.00">+</text>
<text text-anchor="start" x="111.53" y="-394.5" font-family="Helvetica,sans-Serif" font-size="10.00">Point_()</text>
<text text-anchor="start" x="98.53" y="-379.5" font-family="Helvetica,sans-Serif" font-size="10.00">+</text>
<text text-anchor="start" x="111.53" y="-379.5" font-family="Helvetica,sans-Serif" font-size="10.00">Point_()</text>
<text text-anchor="start" x="98.53" y="-364.5" font-family="Helvetica,sans-Serif" font-size="10.00">+</text>
<text text-anchor="start" x="111.53" y="-364.5" font-family="Helvetica,sans-Serif" font-size="10.00">Point_()</text>
<text text-anchor="start" x="98.53" y="-349.5" font-family="Helvetica,sans-Serif" font-size="10.00">+</text>
<text text-anchor="start" x="111.53" y="-349.5" font-family="Helvetica,sans-Serif" font-size="10.00">Point_()</text>
<text text-anchor="start" x="98.53" y="-334.5" font-family="Helvetica,sans-Serif" font-size="10.00">+</text>
<text text-anchor="start" x="111.53" y="-334.5" font-family="Helvetica,sans-Serif" font-size="10.00">Point_()</text>
<text text-anchor="start" x="98.53" y="-319.5" font-family="Helvetica,sans-Serif" font-size="10.00">+</text>
<text text-anchor="start" x="111.53" y="-319.5" font-family="Helvetica,sans-Serif" font-size="10.00">cross()</text>
<text text-anchor="start" x="98.53" y="-304.5" font-family="Helvetica,sans-Serif" font-size="10.00">+</text>
<text text-anchor="start" x="111.53" y="-304.5" font-family="Helvetica,sans-Serif" font-size="10.00">ddot()</text>
<text text-anchor="start" x="98.53" y="-289.5" font-family="Helvetica,sans-Serif" font-size="10.00">+</text>
<text text-anchor="start" x="111.53" y="-289.5" font-family="Helvetica,sans-Serif" font-size="10.00">dot()</text>
<text text-anchor="start" x="98.53" y="-274.5" font-family="Helvetica,sans-Serif" font-size="10.00">+</text>
<text text-anchor="start" x="111.53" y="-274.5" font-family="Helvetica,sans-Serif" font-size="10.00">inside()</text>
<text text-anchor="start" x="98.53" y="-259.5" font-family="Helvetica,sans-Serif" font-size="10.00">+</text>
<text text-anchor="start" x="111.53" y="-259.5" font-family="Helvetica,sans-Serif" font-size="10.00">operator Point_&lt; _Tp2 &gt;()</text>
<text text-anchor="start" x="98.53" y="-244.5" font-family="Helvetica,sans-Serif" font-size="10.00">+</text>
<text text-anchor="start" x="111.53" y="-244.5" font-family="Helvetica,sans-Serif" font-size="10.00">operator Vec&lt; float,</text>
<text text-anchor="start" x="111.53" y="-233.5" font-family="Helvetica,sans-Serif" font-size="10.00"> 2 &gt;()</text>
<text text-anchor="start" x="98.53" y="-218.5" font-family="Helvetica,sans-Serif" font-size="10.00">+</text>
<text text-anchor="start" x="111.53" y="-218.5" font-family="Helvetica,sans-Serif" font-size="10.00">operator=()</text>
<text text-anchor="start" x="98.53" y="-203.5" font-family="Helvetica,sans-Serif" font-size="10.00">+</text>
<text text-anchor="start" x="111.53" y="-203.5" font-family="Helvetica,sans-Serif" font-size="10.00">operator=()</text>
<polygon fill="#666666" stroke="#666666" points="94.53,-434.5 94.53,-434.5 243.53,-434.5 243.53,-434.5 94.53,-434.5"/>
<polygon fill="#666666" stroke="#666666" points="94.53,-419.5 94.53,-419.5 243.53,-419.5 243.53,-419.5 94.53,-419.5"/>
<polygon fill="none" stroke="#666666" points="94.03,-197 94.03,-452 243.03,-452 243.03,-197 94.03,-197"/>
</a>
</g>
</g>
<!-- Node2&#45;&gt;Node1 -->
<g id="edge1_Node000001_Node000002" class="edge">
<title>Node2&#45;&gt;Node1</title>
<g id="a_edge1_Node000001_Node000002"><a xlink:title=" ">
<path fill="none" stroke="#63b8ff" d="M168.53,-196.63C168.53,-181.28 168.53,-165.93 168.53,-151.5"/>
<polygon fill="none" stroke="#63b8ff" points="168.53,-151.07 164.53,-145.07 168.53,-139.07 172.53,-145.07 168.53,-151.07"/>
</a>
</g>
<text text-anchor="middle" x="179.53" y="-165.5" font-family="Helvetica,sans-Serif" font-size="10.00" fill="grey"> +pt</text>
</g>
<!-- Node3 -->
<g id="Node000003" class="node">
<title>Node3</title>
<g id="a_Node000003"><a xlink:title=" ">
<polygon fill="white" stroke="transparent" points="57.53,-662 25.53,-662 25.53,-613 57.53,-613 57.53,-662"/>
<text text-anchor="start" x="30.53" y="-649.5" font-family="Helvetica,sans-Serif" font-size="10.00">float</text>
<text text-anchor="start" x="39.53" y="-634.5" font-family="Helvetica,sans-Serif" font-size="10.00"> </text>
<text text-anchor="start" x="39.53" y="-619.5" font-family="Helvetica,sans-Serif" font-size="10.00"> </text>
<polygon fill="#666666" stroke="#666666" points="25.53,-644.5 25.53,-644.5 57.53,-644.5 57.53,-644.5 25.53,-644.5"/>
<polygon fill="#666666" stroke="#666666" points="25.53,-629.5 25.53,-629.5 57.53,-629.5 57.53,-629.5 25.53,-629.5"/>
<polygon fill="none" stroke="#666666" points="25.53,-613 25.53,-662 57.53,-662 57.53,-613 25.53,-613"/>
</a>
</g>
</g>
<!-- Node3&#45;&gt;Node1 -->
<g id="edge5_Node000001_Node000003" class="edge">
<title>Node3&#45;&gt;Node1</title>
<g id="a_edge5_Node000001_Node000003"><a xlink:title=" ">
<path fill="none" stroke="#63b8ff" d="M34.43,-612.78C15.36,-544.59 -31.32,-343.58 32.53,-197 50.77,-155.12 90.47,-120.85 122.3,-98.6"/>
<polygon fill="none" stroke="#63b8ff" points="122.39,-98.54 125.11,-91.86 132.32,-91.8 129.6,-98.48 122.39,-98.54"/>
</a>
</g>
<text text-anchor="middle" x="59.03" y="-333" font-family="Helvetica,sans-Serif" font-size="10.00" fill="grey"> +angle</text>
<text text-anchor="middle" x="59.03" y="-322" font-family="Helvetica,sans-Serif" font-size="10.00" fill="grey">+response</text>
<text text-anchor="middle" x="59.03" y="-311" font-family="Helvetica,sans-Serif" font-size="10.00" fill="grey">+size</text>
</g>
<!-- Node3&#45;&gt;Node2 -->
<g id="edge2_Node000002_Node000003" class="edge">
<title>Node3&#45;&gt;Node2</title>
<g id="a_edge2_Node000002_Node000003"><a xlink:title=" ">
<path fill="none" stroke="#63b8ff" d="M49.03,-612.96C57.34,-587.38 71.43,-545.43 85.53,-510 91.57,-494.83 98.15,-479.1 104.87,-463.49"/>
<polygon fill="none" stroke="#63b8ff" points="105.01,-463.17 103.73,-456.07 109.79,-452.16 111.07,-459.26 105.01,-463.17"/>
</a>
</g>
<text text-anchor="middle" x="109.53" y="-484" font-family="Helvetica,sans-Serif" font-size="10.00" fill="grey"> +x</text>
<text text-anchor="middle" x="109.53" y="-473" font-family="Helvetica,sans-Serif" font-size="10.00" fill="grey">+y</text>
</g>
<!-- Node4 -->
<g id="Node000004" class="node">
<title>Node4</title>
<g id="a_Node000004"><a xlink:href="../../db/d4e/classcv_1_1Point__.html" target="_top" xlink:title="Template class for 2D points specified by its coordinates x and y.">
<polygon fill="white" stroke="transparent" points="243.03,-765 94.03,-765 94.03,-510 243.03,-510 243.03,-765"/>
<text text-anchor="start" x="125.53" y="-752.5" font-family="Helvetica,sans-Serif" font-size="10.00">cv::Point_&lt; _Tp &gt;</text>
<text text-anchor="start" x="167.03" y="-737.5" font-family="Helvetica,sans-Serif" font-size="10.00"> </text>
<text text-anchor="start" x="98.53" y="-722.5" font-family="Helvetica,sans-Serif" font-size="10.00">+</text>
<text text-anchor="start" x="111.53" y="-722.5" font-family="Helvetica,sans-Serif" font-size="10.00">Point_()</text>
<text text-anchor="start" x="98.53" y="-707.5" font-family="Helvetica,sans-Serif" font-size="10.00">+</text>
<text text-anchor="start" x="111.53" y="-707.5" font-family="Helvetica,sans-Serif" font-size="10.00">Point_()</text>
<text text-anchor="start" x="98.53" y="-692.5" font-family="Helvetica,sans-Serif" font-size="10.00">+</text>
<text text-anchor="start" x="111.53" y="-692.5" font-family="Helvetica,sans-Serif" font-size="10.00">Point_()</text>
<text text-anchor="start" x="98.53" y="-677.5" font-family="Helvetica,sans-Serif" font-size="10.00">+</text>
<text text-anchor="start" x="111.53" y="-677.5" font-family="Helvetica,sans-Serif" font-size="10.00">Point_()</text>
<text text-anchor="start" x="98.53" y="-662.5" font-family="Helvetica,sans-Serif" font-size="10.00">+</text>
<text text-anchor="start" x="111.53" y="-662.5" font-family="Helvetica,sans-Serif" font-size="10.00">Point_()</text>
<text text-anchor="start" x="98.53" y="-647.5" font-family="Helvetica,sans-Serif" font-size="10.00">+</text>
<text text-anchor="start" x="111.53" y="-647.5" font-family="Helvetica,sans-Serif" font-size="10.00">Point_()</text>
<text text-anchor="start" x="98.53" y="-632.5" font-family="Helvetica,sans-Serif" font-size="10.00">+</text>
<text text-anchor="start" x="111.53" y="-632.5" font-family="Helvetica,sans-Serif" font-size="10.00">cross()</text>
<text text-anchor="start" x="98.53" y="-617.5" font-family="Helvetica,sans-Serif" font-size="10.00">+</text>
<text text-anchor="start" x="111.53" y="-617.5" font-family="Helvetica,sans-Serif" font-size="10.00">ddot()</text>
<text text-anchor="start" x="98.53" y="-602.5" font-family="Helvetica,sans-Serif" font-size="10.00">+</text>
<text text-anchor="start" x="111.53" y="-602.5" font-family="Helvetica,sans-Serif" font-size="10.00">dot()</text>
<text text-anchor="start" x="98.53" y="-587.5" font-family="Helvetica,sans-Serif" font-size="10.00">+</text>
<text text-anchor="start" x="111.53" y="-587.5" font-family="Helvetica,sans-Serif" font-size="10.00">inside()</text>
<text text-anchor="start" x="98.53" y="-572.5" font-family="Helvetica,sans-Serif" font-size="10.00">+</text>
<text text-anchor="start" x="111.53" y="-572.5" font-family="Helvetica,sans-Serif" font-size="10.00">operator Point_&lt; _Tp2 &gt;()</text>
<text text-anchor="start" x="98.53" y="-557.5" font-family="Helvetica,sans-Serif" font-size="10.00">+</text>
<text text-anchor="start" x="111.53" y="-557.5" font-family="Helvetica,sans-Serif" font-size="10.00">operator Vec&lt; _Tp,</text>
<text text-anchor="start" x="111.53" y="-546.5" font-family="Helvetica,sans-Serif" font-size="10.00"> 2 &gt;()</text>
<text text-anchor="start" x="98.53" y="-531.5" font-family="Helvetica,sans-Serif" font-size="10.00">+</text>
<text text-anchor="start" x="111.53" y="-531.5" font-family="Helvetica,sans-Serif" font-size="10.00">operator=()</text>
<text text-anchor="start" x="98.53" y="-516.5" font-family="Helvetica,sans-Serif" font-size="10.00">+</text>
<text text-anchor="start" x="111.53" y="-516.5" font-family="Helvetica,sans-Serif" font-size="10.00">operator=()</text>
<polygon fill="#666666" stroke="#666666" points="94.53,-747.5 94.53,-747.5 243.53,-747.5 243.53,-747.5 94.53,-747.5"/>
<polygon fill="#666666" stroke="#666666" points="94.53,-732.5 94.53,-732.5 243.53,-732.5 243.53,-732.5 94.53,-732.5"/>
<polygon fill="none" stroke="#666666" points="94.03,-510 94.03,-765 243.03,-765 243.03,-510 94.03,-510"/>
</a>
</g>
</g>
<!-- Node4&#45;&gt;Node2 -->
<g id="edge3_Node000002_Node000004" class="edge">
<title>Node4&#45;&gt;Node2</title>
<g id="a_edge3_Node000002_Node000004"><a xlink:title=" ">
<path fill="none" stroke="orange" d="M168.53,-499.27C168.53,-483.56 168.53,-467.6 168.53,-452.04"/>
<polygon fill="orange" stroke="orange" points="165.03,-499.56 168.53,-509.56 172.03,-499.56 165.03,-499.56"/>
</a>
</g>
<text text-anchor="middle" x="192.53" y="-478.5" font-family="Helvetica,sans-Serif" font-size="10.00" fill="grey"> &lt; float &gt;</text>
</g>
<!-- Node5 -->
<g id="Node000005" class="node">
<title>Node5</title>
<g id="a_Node000005"><a xlink:href="../../d1/dd7/class__Tp.html" target="_top" xlink:title=" ">
<polygon fill="white" stroke="transparent" points="182.53,-872 154.53,-872 154.53,-823 182.53,-823 182.53,-872"/>
<text text-anchor="start" x="159.53" y="-859.5" font-family="Helvetica,sans-Serif" font-size="10.00">_Tp</text>
<text text-anchor="start" x="166.53" y="-844.5" font-family="Helvetica,sans-Serif" font-size="10.00"> </text>
<text text-anchor="start" x="166.53" y="-829.5" font-family="Helvetica,sans-Serif" font-size="10.00"> </text>
<polygon fill="#666666" stroke="#666666" points="154.53,-854.5 154.53,-854.5 182.53,-854.5 182.53,-854.5 154.53,-854.5"/>
<polygon fill="#666666" stroke="#666666" points="154.53,-839.5 154.53,-839.5 182.53,-839.5 182.53,-839.5 154.53,-839.5"/>
<polygon fill="none" stroke="#666666" points="154.53,-823 154.53,-872 182.53,-872 182.53,-823 154.53,-823"/>
</a>
</g>
</g>
<!-- Node5&#45;&gt;Node4 -->
<g id="edge4_Node000004_Node000005" class="edge">
<title>Node5&#45;&gt;Node4</title>
<g id="a_edge4_Node000004_Node000005"><a xlink:title=" ">
<path fill="none" stroke="#63b8ff" d="M168.53,-822.64C168.53,-810.5 168.53,-794.67 168.53,-777.38"/>
<polygon fill="none" stroke="#63b8ff" points="168.53,-777.21 164.53,-771.21 168.53,-765.21 172.53,-771.21 168.53,-777.21"/>
</a>
</g>
<text text-anchor="middle" x="177.53" y="-797" font-family="Helvetica,sans-Serif" font-size="10.00" fill="grey"> +x</text>
<text text-anchor="middle" x="177.53" y="-786" font-family="Helvetica,sans-Serif" font-size="10.00" fill="grey">+y</text>
</g>
<!-- Node6 -->
<g id="Node000006" class="node">
<title>Node6</title>
<g id="a_Node000006"><a xlink:title=" ">
<polygon fill="white" stroke="transparent" points="284.03,-349 261.03,-349 261.03,-300 284.03,-300 284.03,-349"/>
<text text-anchor="start" x="266.53" y="-336.5" font-family="Helvetica,sans-Serif" font-size="10.00">int</text>
<text text-anchor="start" x="271.03" y="-321.5" font-family="Helvetica,sans-Serif" font-size="10.00"> </text>
<text text-anchor="start" x="271.03" y="-306.5" font-family="Helvetica,sans-Serif" font-size="10.00"> </text>
<polygon fill="#666666" stroke="#666666" points="261.53,-331.5 261.53,-331.5 284.53,-331.5 284.53,-331.5 261.53,-331.5"/>
<polygon fill="#666666" stroke="#666666" points="261.53,-316.5 261.53,-316.5 284.53,-316.5 284.53,-316.5 261.53,-316.5"/>
<polygon fill="none" stroke="#666666" points="261.03,-300 261.03,-349 284.03,-349 284.03,-300 261.03,-300"/>
</a>
</g>
</g>
<!-- Node6&#45;&gt;Node1 -->
<g id="edge6_Node000001_Node000006" class="edge">
<title>Node6&#45;&gt;Node1</title>
<g id="a_edge6_Node000001_Node000006"><a xlink:title=" ">
<path fill="none" stroke="#63b8ff" d="M271.53,-299.88C269.76,-273.87 264.9,-231.21 251.53,-197 241.71,-171.87 226.4,-146.53 211.6,-125.21"/>
<polygon fill="none" stroke="#63b8ff" points="211.58,-125.18 204.84,-122.6 204.63,-115.4 211.36,-117.97 211.58,-125.18"/>
</a>
</g>
<text text-anchor="middle" x="268.03" y="-171" font-family="Helvetica,sans-Serif" font-size="10.00" fill="grey"> +class_id</text>
<text text-anchor="middle" x="268.03" y="-160" font-family="Helvetica,sans-Serif" font-size="10.00" fill="grey">+octave</text>
</g>
</g>
</svg>
