<?xml version="1.0" encoding="UTF-8" standalone="no"?>
<!DOCTYPE svg PUBLIC "-//W3C//DTD SVG 1.1//EN"
 "http://www.w3.org/Graphics/SVG/1.1/DTD/svg11.dtd">
<!-- Generated by graphviz version 2.43.0 (0)
 -->
<!-- Title: cv::detail::GOpaqueTraits&lt; cv::Point2f &gt; Pages: 1 -->
<svg width="140pt" height="175pt"
 viewBox="0.00 0.00 140.00 175.00" xmlns="http://www.w3.org/2000/svg" xmlns:xlink="http://www.w3.org/1999/xlink">
<g id="graph0" class="graph" transform="scale(1 1) rotate(0) translate(4 171)">
<title>cv::detail::GOpaqueTraits&lt; cv::Point2f &gt;</title>
<!-- Node1 -->
<g id="Node000001" class="node">
<title>Node1</title>
<g id="a_Node000001"><a xlink:title=" ">
<polygon fill="#999999" stroke="transparent" points="132,-60 0,-60 0,0 132,0 132,-60"/>
<text text-anchor="start" x="5" y="-48" font-family="Helvetica,sans-Serif" font-size="10.00">cv::detail::GOpaqueTraits</text>
<text text-anchor="start" x="29" y="-37" font-family="Helvetica,sans-Serif" font-size="10.00">&lt; cv::Point2f &gt;</text>
<text text-anchor="start" x="64" y="-22" font-family="Helvetica,sans-Serif" font-size="10.00"> </text>
<text text-anchor="start" x="64" y="-7" font-family="Helvetica,sans-Serif" font-size="10.00"> </text>
<polygon fill="#666666" stroke="#666666" points="0,-32 0,-32 132,-32 132,-32 0,-32"/>
<polygon fill="#666666" stroke="#666666" points="0,-17 0,-17 132,-17 132,-17 0,-17"/>
<polygon fill="none" stroke="#666666" points="0,0 0,-60 132,-60 132,0 0,0"/>
</a>
</g>
</g>
<!-- Node2 -->
<g id="Node000002" class="node">
<title>Node2</title>
<g id="a_Node000002"><a xlink:title=" ">
<polygon fill="white" stroke="transparent" points="125,-167 7,-167 7,-107 125,-107 125,-167"/>
<text text-anchor="start" x="12" y="-155" font-family="Helvetica,sans-Serif" font-size="10.00">static constexpr const</text>
<text text-anchor="start" x="34.5" y="-144" font-family="Helvetica,sans-Serif" font-size="10.00"> OpaqueKind</text>
<text text-anchor="start" x="64" y="-129" font-family="Helvetica,sans-Serif" font-size="10.00"> </text>
<text text-anchor="start" x="64" y="-114" font-family="Helvetica,sans-Serif" font-size="10.00"> </text>
<polygon fill="#666666" stroke="#666666" points="7,-139 7,-139 125,-139 125,-139 7,-139"/>
<polygon fill="#666666" stroke="#666666" points="7,-124 7,-124 125,-124 125,-124 7,-124"/>
<polygon fill="none" stroke="#666666" points="7,-107 7,-167 125,-167 125,-107 7,-107"/>
</a>
</g>
</g>
<!-- Node2&#45;&gt;Node1 -->
<g id="edge1_Node000001_Node000002" class="edge">
<title>Node2&#45;&gt;Node1</title>
<g id="a_edge1_Node000001_Node000002"><a xlink:title=" ">
<path fill="none" stroke="#63b8ff" d="M66,-106.75C66,-96.06 66,-83.75 66,-72.2"/>
<polygon fill="none" stroke="#63b8ff" points="66,-72.09 62,-66.09 66,-60.09 70,-66.09 66,-72.09"/>
</a>
</g>
<text text-anchor="middle" x="82.5" y="-81" font-family="Helvetica,sans-Serif" font-size="10.00" fill="grey"> +kind</text>
</g>
</g>
</svg>
