<?xml version="1.0" encoding="UTF-8" standalone="no"?>
<!DOCTYPE svg PUBLIC "-//W3C//DTD SVG 1.1//EN"
 "http://www.w3.org/Graphics/SVG/1.1/DTD/svg11.dtd">
<!-- Generated by graphviz version 2.43.0 (0)
 -->
<!-- Title: cv::cuda::FarnebackOpticalFlow Pages: 1 -->
<svg width="172pt" height="587pt"
 viewBox="0.00 0.00 172.00 587.00" xmlns="http://www.w3.org/2000/svg" xmlns:xlink="http://www.w3.org/1999/xlink">
<g id="graph0" class="graph" transform="scale(1 1) rotate(0) translate(4 583)">
<title>cv::cuda::FarnebackOpticalFlow</title>
<!-- Node1 -->
<g id="Node000001" class="node">
<title>Node1</title>
<g id="a_Node000001"><a xlink:title="Class computing a dense optical flow using the Gunnar Farneback&#39;s algorithm.">
<polygon fill="#999999" stroke="transparent" points="164,-214 0,-214 0,0 164,0 164,-214"/>
<text text-anchor="start" x="5" y="-202" font-family="Helvetica,sans-Serif" font-size="10.00">cv::cuda::FarnebackOpticalFlow</text>
<text text-anchor="start" x="80" y="-187" font-family="Helvetica,sans-Serif" font-size="10.00"> </text>
<text text-anchor="start" x="17.5" y="-172" font-family="Helvetica,sans-Serif" font-size="10.00">+</text>
<text text-anchor="start" x="44" y="-172" font-family="Helvetica,sans-Serif" font-size="10.00">getFastPyramids()</text>
<text text-anchor="start" x="17.5" y="-157" font-family="Helvetica,sans-Serif" font-size="10.00">+</text>
<text text-anchor="start" x="44" y="-157" font-family="Helvetica,sans-Serif" font-size="10.00">getFlags()</text>
<text text-anchor="start" x="17.5" y="-142" font-family="Helvetica,sans-Serif" font-size="10.00">+</text>
<text text-anchor="start" x="44" y="-142" font-family="Helvetica,sans-Serif" font-size="10.00">getNumIters()</text>
<text text-anchor="start" x="17.5" y="-127" font-family="Helvetica,sans-Serif" font-size="10.00">+</text>
<text text-anchor="start" x="44" y="-127" font-family="Helvetica,sans-Serif" font-size="10.00">getNumLevels()</text>
<text text-anchor="start" x="17.5" y="-112" font-family="Helvetica,sans-Serif" font-size="10.00">+</text>
<text text-anchor="start" x="44" y="-112" font-family="Helvetica,sans-Serif" font-size="10.00">getPolyN()</text>
<text text-anchor="start" x="17.5" y="-97" font-family="Helvetica,sans-Serif" font-size="10.00">+</text>
<text text-anchor="start" x="44" y="-97" font-family="Helvetica,sans-Serif" font-size="10.00">getPolySigma()</text>
<text text-anchor="start" x="17.5" y="-82" font-family="Helvetica,sans-Serif" font-size="10.00">+</text>
<text text-anchor="start" x="44" y="-82" font-family="Helvetica,sans-Serif" font-size="10.00">getPyrScale()</text>
<text text-anchor="start" x="17.5" y="-67" font-family="Helvetica,sans-Serif" font-size="10.00">+</text>
<text text-anchor="start" x="44" y="-67" font-family="Helvetica,sans-Serif" font-size="10.00">getWinSize()</text>
<text text-anchor="start" x="17.5" y="-52" font-family="Helvetica,sans-Serif" font-size="10.00">+</text>
<text text-anchor="start" x="44" y="-52" font-family="Helvetica,sans-Serif" font-size="10.00">setFastPyramids()</text>
<text text-anchor="start" x="17.5" y="-37" font-family="Helvetica,sans-Serif" font-size="10.00">+</text>
<text text-anchor="start" x="44" y="-37" font-family="Helvetica,sans-Serif" font-size="10.00">setFlags()</text>
<text text-anchor="start" x="44" y="-22" font-family="Helvetica,sans-Serif" font-size="10.00">and 6 more...</text>
<text text-anchor="start" x="17.5" y="-7" font-family="Helvetica,sans-Serif" font-size="10.00">+</text>
<text text-anchor="start" x="44" y="-7" font-family="Helvetica,sans-Serif" font-size="10.00">create()</text>
<polygon fill="#666666" stroke="#666666" points="0,-197 0,-197 164,-197 164,-197 0,-197"/>
<polygon fill="#666666" stroke="#666666" points="0,-182 0,-182 164,-182 164,-182 0,-182"/>
<polygon fill="none" stroke="#666666" points="0,0 0,-214 164,-214 164,0 0,0"/>
</a>
</g>
</g>
<!-- Node2 -->
<g id="Node000002" class="node">
<title>Node2</title>
<g id="a_Node000002"><a xlink:href="../../d6/d4a/classcv_1_1cuda_1_1DenseOpticalFlow.html" target="_top" xlink:title="Base interface for dense optical flow algorithms.">
<polygon fill="white" stroke="transparent" points="154.5,-299 9.5,-299 9.5,-250 154.5,-250 154.5,-299"/>
<text text-anchor="start" x="15" y="-286.5" font-family="Helvetica,sans-Serif" font-size="10.00">cv::cuda::DenseOpticalFlow</text>
<text text-anchor="start" x="80.5" y="-271.5" font-family="Helvetica,sans-Serif" font-size="10.00"> </text>
<text text-anchor="start" x="38" y="-256.5" font-family="Helvetica,sans-Serif" font-size="10.00">+</text>
<text text-anchor="start" x="75" y="-256.5" font-family="Helvetica,sans-Serif" font-size="10.00">calc()</text>
<polygon fill="#666666" stroke="#666666" points="10,-281.5 10,-281.5 155,-281.5 155,-281.5 10,-281.5"/>
<polygon fill="#666666" stroke="#666666" points="10,-266.5 10,-266.5 155,-266.5 155,-266.5 10,-266.5"/>
<polygon fill="none" stroke="#666666" points="9.5,-250 9.5,-299 154.5,-299 154.5,-250 9.5,-250"/>
</a>
</g>
</g>
<!-- Node2&#45;&gt;Node1 -->
<g id="edge1_Node000001_Node000002" class="edge">
<title>Node2&#45;&gt;Node1</title>
<g id="a_edge1_Node000001_Node000002"><a xlink:title=" ">
<path fill="none" stroke="#63b8ff" d="M82,-239.75C82,-231.93 82,-223.21 82,-214.07"/>
<polygon fill="none" stroke="#63b8ff" points="78.5,-239.79 82,-249.79 85.5,-239.79 78.5,-239.79"/>
</a>
</g>
</g>
<!-- Node3 -->
<g id="Node000003" class="node">
<title>Node3</title>
<g id="a_Node000003"><a xlink:href="../../d3/d46/classcv_1_1Algorithm.html" target="_top" xlink:title="This is a base class for all more or less complex algorithms in OpenCV.">
<polygon fill="white" stroke="transparent" points="137,-579 27,-579 27,-335 137,-335 137,-579"/>
<text text-anchor="start" x="49.5" y="-567" font-family="Helvetica,sans-Serif" font-size="10.00">cv::Algorithm</text>
<text text-anchor="start" x="80" y="-552" font-family="Helvetica,sans-Serif" font-size="10.00"> </text>
<text text-anchor="start" x="31" y="-537" font-family="Helvetica,sans-Serif" font-size="10.00">+</text>
<text text-anchor="start" x="44" y="-537" font-family="Helvetica,sans-Serif" font-size="10.00">Algorithm()</text>
<text text-anchor="start" x="31" y="-522" font-family="Helvetica,sans-Serif" font-size="10.00">+</text>
<text text-anchor="start" x="44" y="-522" font-family="Helvetica,sans-Serif" font-size="10.00">~Algorithm()</text>
<text text-anchor="start" x="31" y="-507" font-family="Helvetica,sans-Serif" font-size="10.00">+</text>
<text text-anchor="start" x="44" y="-507" font-family="Helvetica,sans-Serif" font-size="10.00">clear()</text>
<text text-anchor="start" x="31" y="-492" font-family="Helvetica,sans-Serif" font-size="10.00">+</text>
<text text-anchor="start" x="44" y="-492" font-family="Helvetica,sans-Serif" font-size="10.00">empty()</text>
<text text-anchor="start" x="31" y="-477" font-family="Helvetica,sans-Serif" font-size="10.00">+</text>
<text text-anchor="start" x="44" y="-477" font-family="Helvetica,sans-Serif" font-size="10.00">getDefaultName()</text>
<text text-anchor="start" x="31" y="-462" font-family="Helvetica,sans-Serif" font-size="10.00">+</text>
<text text-anchor="start" x="44" y="-462" font-family="Helvetica,sans-Serif" font-size="10.00">read()</text>
<text text-anchor="start" x="31" y="-447" font-family="Helvetica,sans-Serif" font-size="10.00">+</text>
<text text-anchor="start" x="44" y="-447" font-family="Helvetica,sans-Serif" font-size="10.00">save()</text>
<text text-anchor="start" x="31" y="-432" font-family="Helvetica,sans-Serif" font-size="10.00">+</text>
<text text-anchor="start" x="44" y="-432" font-family="Helvetica,sans-Serif" font-size="10.00">write()</text>
<text text-anchor="start" x="31" y="-417" font-family="Helvetica,sans-Serif" font-size="10.00">+</text>
<text text-anchor="start" x="44" y="-417" font-family="Helvetica,sans-Serif" font-size="10.00">write()</text>
<text text-anchor="start" x="31" y="-402" font-family="Helvetica,sans-Serif" font-size="10.00">+</text>
<text text-anchor="start" x="44" y="-402" font-family="Helvetica,sans-Serif" font-size="10.00">write()</text>
<text text-anchor="start" x="31" y="-387" font-family="Helvetica,sans-Serif" font-size="10.00">+</text>
<text text-anchor="start" x="44" y="-387" font-family="Helvetica,sans-Serif" font-size="10.00">load()</text>
<text text-anchor="start" x="31" y="-372" font-family="Helvetica,sans-Serif" font-size="10.00">+</text>
<text text-anchor="start" x="44" y="-372" font-family="Helvetica,sans-Serif" font-size="10.00">loadFromString()</text>
<text text-anchor="start" x="31" y="-357" font-family="Helvetica,sans-Serif" font-size="10.00">+</text>
<text text-anchor="start" x="44" y="-357" font-family="Helvetica,sans-Serif" font-size="10.00">read()</text>
<text text-anchor="start" x="31" y="-342" font-family="Helvetica,sans-Serif" font-size="10.00">#</text>
<text text-anchor="start" x="44" y="-342" font-family="Helvetica,sans-Serif" font-size="10.00">writeFormat()</text>
<polygon fill="#666666" stroke="#666666" points="27,-562 27,-562 137,-562 137,-562 27,-562"/>
<polygon fill="#666666" stroke="#666666" points="27,-547 27,-547 137,-547 137,-547 27,-547"/>
<polygon fill="none" stroke="#666666" points="27,-335 27,-579 137,-579 137,-335 27,-335"/>
</a>
</g>
</g>
<!-- Node3&#45;&gt;Node2 -->
<g id="edge2_Node000002_Node000003" class="edge">
<title>Node3&#45;&gt;Node2</title>
<g id="a_edge2_Node000002_Node000003"><a xlink:title=" ">
<path fill="none" stroke="#63b8ff" d="M82,-324.69C82,-315.18 82,-306.45 82,-299.06"/>
<polygon fill="none" stroke="#63b8ff" points="78.5,-324.85 82,-334.85 85.5,-324.85 78.5,-324.85"/>
</a>
</g>
</g>
</g>
</svg>
