<?xml version="1.0" encoding="UTF-8" standalone="no"?>
<!DOCTYPE svg PUBLIC "-//W3C//DTD SVG 1.1//EN"
 "http://www.w3.org/Graphics/SVG/1.1/DTD/svg11.dtd">
<!-- Generated by graphviz version 2.43.0 (0)
 -->
<!-- Title: cv::bgsegm::BackgroundSubtractorCNT Pages: 1 -->
<svg width="208pt" height="572pt"
 viewBox="0.00 0.00 208.00 572.00" xmlns="http://www.w3.org/2000/svg" xmlns:xlink="http://www.w3.org/1999/xlink">
<g id="graph0" class="graph" transform="scale(1 1) rotate(0) translate(4 568)">
<title>cv::bgsegm::BackgroundSubtractorCNT</title>
<!-- Node1 -->
<g id="Node000001" class="node">
<title>Node1</title>
<g id="a_Node000001"><a xlink:title="Background subtraction based on counting.">
<polygon fill="#999999" stroke="transparent" points="200,-184 0,-184 0,0 200,0 200,-184"/>
<text text-anchor="start" x="5" y="-172" font-family="Helvetica,sans-Serif" font-size="10.00">cv::bgsegm::BackgroundSubtractorCNT</text>
<text text-anchor="start" x="98" y="-157" font-family="Helvetica,sans-Serif" font-size="10.00"> </text>
<text text-anchor="start" x="20.5" y="-142" font-family="Helvetica,sans-Serif" font-size="10.00">+</text>
<text text-anchor="start" x="50" y="-142" font-family="Helvetica,sans-Serif" font-size="10.00">apply()</text>
<text text-anchor="start" x="20.5" y="-127" font-family="Helvetica,sans-Serif" font-size="10.00">+</text>
<text text-anchor="start" x="50" y="-127" font-family="Helvetica,sans-Serif" font-size="10.00">getBackgroundImage()</text>
<text text-anchor="start" x="20.5" y="-112" font-family="Helvetica,sans-Serif" font-size="10.00">+</text>
<text text-anchor="start" x="50" y="-112" font-family="Helvetica,sans-Serif" font-size="10.00">getIsParallel()</text>
<text text-anchor="start" x="20.5" y="-97" font-family="Helvetica,sans-Serif" font-size="10.00">+</text>
<text text-anchor="start" x="50" y="-97" font-family="Helvetica,sans-Serif" font-size="10.00">getMaxPixelStability()</text>
<text text-anchor="start" x="20.5" y="-82" font-family="Helvetica,sans-Serif" font-size="10.00">+</text>
<text text-anchor="start" x="50" y="-82" font-family="Helvetica,sans-Serif" font-size="10.00">getMinPixelStability()</text>
<text text-anchor="start" x="20.5" y="-67" font-family="Helvetica,sans-Serif" font-size="10.00">+</text>
<text text-anchor="start" x="50" y="-67" font-family="Helvetica,sans-Serif" font-size="10.00">getUseHistory()</text>
<text text-anchor="start" x="20.5" y="-52" font-family="Helvetica,sans-Serif" font-size="10.00">+</text>
<text text-anchor="start" x="50" y="-52" font-family="Helvetica,sans-Serif" font-size="10.00">setIsParallel()</text>
<text text-anchor="start" x="20.5" y="-37" font-family="Helvetica,sans-Serif" font-size="10.00">+</text>
<text text-anchor="start" x="50" y="-37" font-family="Helvetica,sans-Serif" font-size="10.00">setMaxPixelStability()</text>
<text text-anchor="start" x="20.5" y="-22" font-family="Helvetica,sans-Serif" font-size="10.00">+</text>
<text text-anchor="start" x="50" y="-22" font-family="Helvetica,sans-Serif" font-size="10.00">setMinPixelStability()</text>
<text text-anchor="start" x="20.5" y="-7" font-family="Helvetica,sans-Serif" font-size="10.00">+</text>
<text text-anchor="start" x="50" y="-7" font-family="Helvetica,sans-Serif" font-size="10.00">setUseHistory()</text>
<polygon fill="#666666" stroke="#666666" points="0,-167 0,-167 200,-167 200,-167 0,-167"/>
<polygon fill="#666666" stroke="#666666" points="0,-152 0,-152 200,-152 200,-152 0,-152"/>
<polygon fill="none" stroke="#666666" points="0,0 0,-184 200,-184 200,0 0,0"/>
</a>
</g>
</g>
<!-- Node2 -->
<g id="Node000002" class="node">
<title>Node2</title>
<g id="a_Node000002"><a xlink:href="../../d7/df6/classcv_1_1BackgroundSubtractor.html" target="_top" xlink:title="Base class for background/foreground segmentation. :">
<polygon fill="white" stroke="transparent" points="167.5,-284 32.5,-284 32.5,-220 167.5,-220 167.5,-284"/>
<text text-anchor="start" x="38" y="-272" font-family="Helvetica,sans-Serif" font-size="10.00">cv::BackgroundSubtractor</text>
<text text-anchor="start" x="98.5" y="-257" font-family="Helvetica,sans-Serif" font-size="10.00"> </text>
<text text-anchor="start" x="37.5" y="-242" font-family="Helvetica,sans-Serif" font-size="10.00">+</text>
<text text-anchor="start" x="51" y="-242" font-family="Helvetica,sans-Serif" font-size="10.00">apply()</text>
<text text-anchor="start" x="37.5" y="-227" font-family="Helvetica,sans-Serif" font-size="10.00">+</text>
<text text-anchor="start" x="51" y="-227" font-family="Helvetica,sans-Serif" font-size="10.00">getBackgroundImage()</text>
<polygon fill="#666666" stroke="#666666" points="33,-267 33,-267 168,-267 168,-267 33,-267"/>
<polygon fill="#666666" stroke="#666666" points="33,-252 33,-252 168,-252 168,-252 33,-252"/>
<polygon fill="none" stroke="#666666" points="32.5,-220 32.5,-284 167.5,-284 167.5,-220 32.5,-220"/>
</a>
</g>
</g>
<!-- Node2&#45;&gt;Node1 -->
<g id="edge1_Node000001_Node000002" class="edge">
<title>Node2&#45;&gt;Node1</title>
<g id="a_edge1_Node000001_Node000002"><a xlink:title=" ">
<path fill="none" stroke="#63b8ff" d="M100,-209.7C100,-201.71 100,-193.04 100,-184.16"/>
<polygon fill="none" stroke="#63b8ff" points="96.5,-209.78 100,-219.78 103.5,-209.78 96.5,-209.78"/>
</a>
</g>
</g>
<!-- Node3 -->
<g id="Node000003" class="node">
<title>Node3</title>
<g id="a_Node000003"><a xlink:href="../../d3/d46/classcv_1_1Algorithm.html" target="_top" xlink:title="This is a base class for all more or less complex algorithms in OpenCV.">
<polygon fill="white" stroke="transparent" points="155,-564 45,-564 45,-320 155,-320 155,-564"/>
<text text-anchor="start" x="67.5" y="-552" font-family="Helvetica,sans-Serif" font-size="10.00">cv::Algorithm</text>
<text text-anchor="start" x="98" y="-537" font-family="Helvetica,sans-Serif" font-size="10.00"> </text>
<text text-anchor="start" x="49" y="-522" font-family="Helvetica,sans-Serif" font-size="10.00">+</text>
<text text-anchor="start" x="62" y="-522" font-family="Helvetica,sans-Serif" font-size="10.00">Algorithm()</text>
<text text-anchor="start" x="49" y="-507" font-family="Helvetica,sans-Serif" font-size="10.00">+</text>
<text text-anchor="start" x="62" y="-507" font-family="Helvetica,sans-Serif" font-size="10.00">~Algorithm()</text>
<text text-anchor="start" x="49" y="-492" font-family="Helvetica,sans-Serif" font-size="10.00">+</text>
<text text-anchor="start" x="62" y="-492" font-family="Helvetica,sans-Serif" font-size="10.00">clear()</text>
<text text-anchor="start" x="49" y="-477" font-family="Helvetica,sans-Serif" font-size="10.00">+</text>
<text text-anchor="start" x="62" y="-477" font-family="Helvetica,sans-Serif" font-size="10.00">empty()</text>
<text text-anchor="start" x="49" y="-462" font-family="Helvetica,sans-Serif" font-size="10.00">+</text>
<text text-anchor="start" x="62" y="-462" font-family="Helvetica,sans-Serif" font-size="10.00">getDefaultName()</text>
<text text-anchor="start" x="49" y="-447" font-family="Helvetica,sans-Serif" font-size="10.00">+</text>
<text text-anchor="start" x="62" y="-447" font-family="Helvetica,sans-Serif" font-size="10.00">read()</text>
<text text-anchor="start" x="49" y="-432" font-family="Helvetica,sans-Serif" font-size="10.00">+</text>
<text text-anchor="start" x="62" y="-432" font-family="Helvetica,sans-Serif" font-size="10.00">save()</text>
<text text-anchor="start" x="49" y="-417" font-family="Helvetica,sans-Serif" font-size="10.00">+</text>
<text text-anchor="start" x="62" y="-417" font-family="Helvetica,sans-Serif" font-size="10.00">write()</text>
<text text-anchor="start" x="49" y="-402" font-family="Helvetica,sans-Serif" font-size="10.00">+</text>
<text text-anchor="start" x="62" y="-402" font-family="Helvetica,sans-Serif" font-size="10.00">write()</text>
<text text-anchor="start" x="49" y="-387" font-family="Helvetica,sans-Serif" font-size="10.00">+</text>
<text text-anchor="start" x="62" y="-387" font-family="Helvetica,sans-Serif" font-size="10.00">write()</text>
<text text-anchor="start" x="49" y="-372" font-family="Helvetica,sans-Serif" font-size="10.00">+</text>
<text text-anchor="start" x="62" y="-372" font-family="Helvetica,sans-Serif" font-size="10.00">load()</text>
<text text-anchor="start" x="49" y="-357" font-family="Helvetica,sans-Serif" font-size="10.00">+</text>
<text text-anchor="start" x="62" y="-357" font-family="Helvetica,sans-Serif" font-size="10.00">loadFromString()</text>
<text text-anchor="start" x="49" y="-342" font-family="Helvetica,sans-Serif" font-size="10.00">+</text>
<text text-anchor="start" x="62" y="-342" font-family="Helvetica,sans-Serif" font-size="10.00">read()</text>
<text text-anchor="start" x="49" y="-327" font-family="Helvetica,sans-Serif" font-size="10.00">#</text>
<text text-anchor="start" x="62" y="-327" font-family="Helvetica,sans-Serif" font-size="10.00">writeFormat()</text>
<polygon fill="#666666" stroke="#666666" points="45,-547 45,-547 155,-547 155,-547 45,-547"/>
<polygon fill="#666666" stroke="#666666" points="45,-532 45,-532 155,-532 155,-532 45,-532"/>
<polygon fill="none" stroke="#666666" points="45,-320 45,-564 155,-564 155,-320 45,-320"/>
</a>
</g>
</g>
<!-- Node3&#45;&gt;Node2 -->
<g id="edge2_Node000002_Node000003" class="edge">
<title>Node3&#45;&gt;Node2</title>
<g id="a_edge2_Node000002_Node000003"><a xlink:title=" ">
<path fill="none" stroke="#63b8ff" d="M100,-309.58C100,-300.33 100,-291.67 100,-284.03"/>
<polygon fill="none" stroke="#63b8ff" points="96.5,-309.81 100,-319.81 103.5,-309.81 96.5,-309.81"/>
</a>
</g>
</g>
</g>
</svg>
