<?xml version="1.0" encoding="UTF-8" standalone="no"?>
<!DOCTYPE svg PUBLIC "-//W3C//DTD SVG 1.1//EN"
 "http://www.w3.org/Graphics/SVG/1.1/DTD/svg11.dtd">
<!-- Generated by graphviz version 2.43.0 (0)
 -->
<!-- Title: opencv2/saliency/saliencyBaseClasses.hpp Pages: 1 -->
<svg width="204pt" height="159pt"
 viewBox="0.00 0.00 204.00 159.00" xmlns="http://www.w3.org/2000/svg" xmlns:xlink="http://www.w3.org/1999/xlink">
<g id="graph0" class="graph" transform="scale(1 1) rotate(0) translate(4 155)">
<title>opencv2/saliency/saliencyBaseClasses.hpp</title>
<!-- Node1 -->
<g id="Node000001" class="node">
<title>Node1</title>
<g id="a_Node000001"><a xlink:title=" ">
<polygon fill="#999999" stroke="#666666" points="145,-151 0,-151 0,-121 145,-121 145,-151"/>
<text text-anchor="start" x="8" y="-139" font-family="Helvetica,sans-Serif" font-size="10.00">opencv2/saliency/saliency</text>
<text text-anchor="middle" x="72.5" y="-128" font-family="Helvetica,sans-Serif" font-size="10.00">BaseClasses.hpp</text>
</a>
</g>
</g>
<!-- Node2 -->
<g id="Node000002" class="node">
<title>Node2</title>
<g id="a_Node000002"><a xlink:href="../../dd/da4/saliency_8hpp.html" target="_top" xlink:title=" ">
<polygon fill="white" stroke="#666666" points="133,-19 12,-19 12,0 133,0 133,-19"/>
<text text-anchor="middle" x="72.5" y="-7" font-family="Helvetica,sans-Serif" font-size="10.00">opencv2/saliency.hpp</text>
</a>
</g>
</g>
<!-- Node1&#45;&gt;Node2 -->
<g id="edge1_Node000001_Node000002" class="edge">
<title>Node1&#45;&gt;Node2</title>
<g id="a_edge1_Node000001_Node000002"><a xlink:title=" ">
<path fill="none" stroke="#63b8ff" d="M54.85,-112.47C49.47,-104.29 44.25,-94.67 41.5,-85 37.85,-72.18 37.51,-67.72 41.5,-55 45.9,-40.99 56.45,-27.53 64.02,-19.15"/>
<polygon fill="#63b8ff" stroke="#63b8ff" points="52.03,-114.55 60.64,-120.72 57.76,-110.53 52.03,-114.55"/>
</a>
</g>
</g>
<!-- Node3 -->
<g id="Node000003" class="node">
<title>Node3</title>
<g id="a_Node000003"><a xlink:href="../../d0/de5/saliencySpecializedClasses_8hpp.html" target="_top" xlink:title=" ">
<polygon fill="white" stroke="#666666" points="196,-85 51,-85 51,-55 196,-55 196,-85"/>
<text text-anchor="start" x="59" y="-73" font-family="Helvetica,sans-Serif" font-size="10.00">opencv2/saliency/saliency</text>
<text text-anchor="middle" x="123.5" y="-62" font-family="Helvetica,sans-Serif" font-size="10.00">SpecializedClasses.hpp</text>
</a>
</g>
</g>
<!-- Node1&#45;&gt;Node3 -->
<g id="edge2_Node000001_Node000003" class="edge">
<title>Node1&#45;&gt;Node3</title>
<g id="a_edge2_Node000001_Node000003"><a xlink:title=" ">
<path fill="none" stroke="#63b8ff" d="M90.18,-112.81C97.49,-103.64 105.75,-93.28 112.21,-85.16"/>
<polygon fill="#63b8ff" stroke="#63b8ff" points="87.31,-110.79 83.82,-120.8 92.79,-115.16 87.31,-110.79"/>
</a>
</g>
</g>
<!-- Node3&#45;&gt;Node2 -->
<g id="edge3_Node000003_Node000002" class="edge">
<title>Node3&#45;&gt;Node2</title>
<g id="a_edge3_Node000003_Node000002"><a xlink:title=" ">
<path fill="none" stroke="#63b8ff" d="M104.4,-47.09C95.97,-37.42 86.55,-26.61 80.14,-19.27"/>
<polygon fill="#63b8ff" stroke="#63b8ff" points="101.94,-49.6 111.15,-54.84 107.22,-45 101.94,-49.6"/>
</a>
</g>
</g>
</g>
</svg>
