<?xml version="1.0" encoding="UTF-8" standalone="no"?>
<!DOCTYPE svg PUBLIC "-//W3C//DTD SVG 1.1//EN"
 "http://www.w3.org/Graphics/SVG/1.1/DTD/svg11.dtd">
<!-- Generated by graphviz version 2.43.0 (0)
 -->
<!-- Title: cv::gapi::wip::GCaptureSource::descr_of Pages: 1 -->
<svg width="295pt" height="64pt"
 viewBox="0.00 0.00 295.00 64.00" xmlns="http://www.w3.org/2000/svg" xmlns:xlink="http://www.w3.org/1999/xlink">
<g id="graph0" class="graph" transform="scale(1 1) rotate(0) translate(4 60)">
<title>cv::gapi::wip::GCaptureSource::descr_of</title>
<!-- Node1 -->
<g id="Node000001" class="node">
<title>Node1</title>
<g id="a_Node000001"><a xlink:title=" ">
<polygon fill="#999999" stroke="#666666" points="162,-42.5 0,-42.5 0,-12.5 162,-12.5 162,-42.5"/>
<text text-anchor="start" x="8" y="-30.5" font-family="Helvetica,sans-Serif" font-size="10.00">cv::gapi::wip::GCaptureSource</text>
<text text-anchor="middle" x="81" y="-19.5" font-family="Helvetica,sans-Serif" font-size="10.00">::descr_of</text>
</a>
</g>
</g>
<!-- Node2 -->
<g id="Node000002" class="node">
<title>Node2</title>
<g id="a_Node000002"><a xlink:href="../../d3/d0c/group__gapi__meta__args.html#ga0d1b4f7d1dbc43b5ac9ddd6454348f0c" target="_top" xlink:title=" ">
<polygon fill="white" stroke="#666666" points="279.5,-56 205.5,-56 205.5,-37 279.5,-37 279.5,-56"/>
<text text-anchor="middle" x="242.5" y="-44" font-family="Helvetica,sans-Serif" font-size="10.00">cv::descr_of</text>
</a>
</g>
</g>
<!-- Node1&#45;&gt;Node2 -->
<g id="edge1_Node000001_Node000002" class="edge">
<title>Node1&#45;&gt;Node2</title>
<g id="a_edge1_Node000001_Node000002"><a xlink:title=" ">
<path fill="none" stroke="#63b8ff" d="M162.22,-37.06C173.5,-38.4 184.78,-39.74 195.14,-40.98"/>
<polygon fill="#63b8ff" stroke="#63b8ff" points="194.81,-44.46 205.16,-42.17 195.64,-37.51 194.81,-44.46"/>
</a>
</g>
</g>
<!-- Node3 -->
<g id="Node000003" class="node">
<title>Node3</title>
<g id="a_Node000003"><a xlink:href="../../d3/d63/classcv_1_1Mat.html#abbec3525a852e77998aba034813fded4" target="_top" xlink:title="Returns true if the array has no elements.">
<polygon fill="white" stroke="#666666" points="287,-19 198,-19 198,0 287,0 287,-19"/>
<text text-anchor="middle" x="242.5" y="-7" font-family="Helvetica,sans-Serif" font-size="10.00">cv::Mat::empty</text>
</a>
</g>
</g>
<!-- Node1&#45;&gt;Node3 -->
<g id="edge2_Node000001_Node000003" class="edge">
<title>Node1&#45;&gt;Node3</title>
<g id="a_edge2_Node000001_Node000003"><a xlink:title=" ">
<path fill="none" stroke="#63b8ff" d="M162.22,-18.45C170.84,-17.47 179.45,-16.5 187.65,-15.58"/>
<polygon fill="#63b8ff" stroke="#63b8ff" points="188.24,-19.03 197.79,-14.43 187.46,-12.08 188.24,-19.03"/>
</a>
</g>
</g>
</g>
</svg>
