<?xml version="1.0" encoding="UTF-8" standalone="no"?>
<!DOCTYPE svg PUBLIC "-//W3C//DTD SVG 1.1//EN"
 "http://www.w3.org/Graphics/SVG/1.1/DTD/svg11.dtd">
<!-- Generated by graphviz version 2.43.0 (0)
 -->
<!-- Title: cv::gapi::wip::GCaptureSource::pull Pages: 1 -->
<svg width="357pt" height="138pt"
 viewBox="0.00 0.00 357.00 138.00" xmlns="http://www.w3.org/2000/svg" xmlns:xlink="http://www.w3.org/1999/xlink">
<g id="graph0" class="graph" transform="scale(1 1) rotate(0) translate(4 134)">
<title>cv::gapi::wip::GCaptureSource::pull</title>
<!-- Node1 -->
<g id="Node000001" class="node">
<title>Node1</title>
<g id="a_Node000001"><a xlink:title=" ">
<polygon fill="#999999" stroke="#666666" points="162,-79.5 0,-79.5 0,-49.5 162,-49.5 162,-79.5"/>
<text text-anchor="start" x="8" y="-67.5" font-family="Helvetica,sans-Serif" font-size="10.00">cv::gapi::wip::GCaptureSource</text>
<text text-anchor="middle" x="81" y="-56.5" font-family="Helvetica,sans-Serif" font-size="10.00">::pull</text>
</a>
</g>
</g>
<!-- Node2 -->
<g id="Node000002" class="node">
<title>Node2</title>
<g id="a_Node000002"><a xlink:href="../../d3/d63/classcv_1_1Mat.html#a03d2a2570d06dcae378f788725789aa4" target="_top" xlink:title="Creates a full copy of the array and the underlying data.">
<polygon fill="white" stroke="#666666" points="315.5,-130 231.5,-130 231.5,-111 315.5,-111 315.5,-130"/>
<text text-anchor="middle" x="273.5" y="-118" font-family="Helvetica,sans-Serif" font-size="10.00">cv::Mat::clone</text>
</a>
</g>
</g>
<!-- Node1&#45;&gt;Node2 -->
<g id="edge1_Node000001_Node000002" class="edge">
<title>Node1&#45;&gt;Node2</title>
<g id="a_edge1_Node000001_Node000002"><a xlink:title=" ">
<path fill="none" stroke="#63b8ff" d="M125.26,-79.58C146.97,-86.91 173.74,-95.61 198,-102.5 205.56,-104.65 213.6,-106.76 221.49,-108.75"/>
<polygon fill="#63b8ff" stroke="#63b8ff" points="220.81,-112.18 231.36,-111.18 222.49,-105.39 220.81,-112.18"/>
</a>
</g>
</g>
<!-- Node3 -->
<g id="Node000003" class="node">
<title>Node3</title>
<g id="a_Node000003"><a xlink:href="../../d3/d63/classcv_1_1Mat.html#abbec3525a852e77998aba034813fded4" target="_top" xlink:title="Returns true if the array has no elements.">
<polygon fill="white" stroke="#666666" points="318,-93 229,-93 229,-74 318,-74 318,-93"/>
<text text-anchor="middle" x="273.5" y="-81" font-family="Helvetica,sans-Serif" font-size="10.00">cv::Mat::empty</text>
</a>
</g>
</g>
<!-- Node1&#45;&gt;Node3 -->
<g id="edge2_Node000001_Node000003" class="edge">
<title>Node1&#45;&gt;Node3</title>
<g id="a_edge2_Node000001_Node000003"><a xlink:title=" ">
<path fill="none" stroke="#63b8ff" d="M162.24,-72.5C181.36,-74.41 201.32,-76.4 218.91,-78.15"/>
<polygon fill="#63b8ff" stroke="#63b8ff" points="218.67,-81.65 228.97,-79.16 219.37,-74.68 218.67,-81.65"/>
</a>
</g>
</g>
<!-- Node4 -->
<g id="Node000004" class="node">
<title>Node4</title>
<g id="a_Node000004"><a xlink:href="../../d8/dfe/classcv_1_1VideoCapture.html#a9d2ca36789e7fcfe7a7be3b328038585" target="_top" xlink:title="Returns true if video capturing has been initialized already.">
<polygon fill="white" stroke="#666666" points="349,-56 198,-56 198,-37 349,-37 349,-56"/>
<text text-anchor="middle" x="273.5" y="-44" font-family="Helvetica,sans-Serif" font-size="10.00">cv::VideoCapture::isOpened</text>
</a>
</g>
</g>
<!-- Node1&#45;&gt;Node4 -->
<g id="edge3_Node000001_Node000004" class="edge">
<title>Node1&#45;&gt;Node4</title>
<g id="a_edge3_Node000001_Node000004"><a xlink:title=" ">
<path fill="none" stroke="#63b8ff" d="M162.24,-56.92C170.62,-56.13 179.17,-55.32 187.6,-54.52"/>
<polygon fill="#63b8ff" stroke="#63b8ff" points="188.19,-57.98 197.82,-53.56 187.54,-51.01 188.19,-57.98"/>
</a>
</g>
</g>
<!-- Node5 -->
<g id="Node000005" class="node">
<title>Node5</title>
<g id="a_Node000005"><a xlink:href="../../d8/dfe/classcv_1_1VideoCapture.html#a473055e77dd7faa4d26d686226b292c1" target="_top" xlink:title="Grabs, decodes and returns the next video frame.">
<polygon fill="white" stroke="#666666" points="337,-19 210,-19 210,0 337,0 337,-19"/>
<text text-anchor="middle" x="273.5" y="-7" font-family="Helvetica,sans-Serif" font-size="10.00">cv::VideoCapture::read</text>
</a>
</g>
</g>
<!-- Node1&#45;&gt;Node5 -->
<g id="edge4_Node000001_Node000005" class="edge">
<title>Node1&#45;&gt;Node5</title>
<g id="a_edge4_Node000001_Node000005"><a xlink:title=" ">
<path fill="none" stroke="#63b8ff" d="M128.68,-49.41C149.78,-42.75 175.07,-34.98 198,-28.5 206.22,-26.18 214.98,-23.83 223.5,-21.62"/>
<polygon fill="#63b8ff" stroke="#63b8ff" points="224.53,-24.96 233.35,-19.08 222.79,-18.18 224.53,-24.96"/>
</a>
</g>
</g>
</g>
</svg>
