<?xml version="1.0" encoding="UTF-8" standalone="no"?>
<!DOCTYPE svg PUBLIC "-//W3C//DTD SVG 1.1//EN"
 "http://www.w3.org/Graphics/SVG/1.1/DTD/svg11.dtd">
<!-- Generated by graphviz version 2.43.0 (0)
 -->
<!-- Title: cv::gapi::wip::GCaptureSource::prep Pages: 1 -->
<svg width="333pt" height="138pt"
 viewBox="0.00 0.00 333.00 138.00" xmlns="http://www.w3.org/2000/svg" xmlns:xlink="http://www.w3.org/1999/xlink">
<g id="graph0" class="graph" transform="scale(1 1) rotate(0) translate(4 134)">
<title>cv::gapi::wip::GCaptureSource::prep</title>
<!-- Node1 -->
<g id="Node000001" class="node">
<title>Node1</title>
<g id="a_Node000001"><a xlink:title=" ">
<polygon fill="#999999" stroke="#666666" points="162,-79.5 0,-79.5 0,-49.5 162,-49.5 162,-79.5"/>
<text text-anchor="start" x="8" y="-67.5" font-family="Helvetica,sans-Serif" font-size="10.00">cv::gapi::wip::GCaptureSource</text>
<text text-anchor="middle" x="81" y="-56.5" font-family="Helvetica,sans-Serif" font-size="10.00">::prep</text>
</a>
</g>
</g>
<!-- Node2 -->
<g id="Node000002" class="node">
<title>Node2</title>
<g id="a_Node000002"><a xlink:href="../../d3/d63/classcv_1_1Mat.html#a03d2a2570d06dcae378f788725789aa4" target="_top" xlink:title="Creates a full copy of the array and the underlying data.">
<polygon fill="white" stroke="#666666" points="303.5,-130 219.5,-130 219.5,-111 303.5,-111 303.5,-130"/>
<text text-anchor="middle" x="261.5" y="-118" font-family="Helvetica,sans-Serif" font-size="10.00">cv::Mat::clone</text>
</a>
</g>
</g>
<!-- Node1&#45;&gt;Node2 -->
<g id="edge1_Node000001_Node000002" class="edge">
<title>Node1&#45;&gt;Node2</title>
<g id="a_edge1_Node000001_Node000002"><a xlink:title=" ">
<path fill="none" stroke="#63b8ff" d="M126.77,-79.59C148.26,-86.72 174.4,-95.24 198,-102.5 204.02,-104.35 210.38,-106.25 216.66,-108.09"/>
<polygon fill="#63b8ff" stroke="#63b8ff" points="215.8,-111.48 226.37,-110.91 217.75,-104.76 215.8,-111.48"/>
</a>
</g>
</g>
<!-- Node3 -->
<g id="Node000003" class="node">
<title>Node3</title>
<g id="a_Node000003"><a xlink:href="../../d3/d63/classcv_1_1Mat.html#abbec3525a852e77998aba034813fded4" target="_top" xlink:title="Returns true if the array has no elements.">
<polygon fill="white" stroke="#666666" points="306,-93 217,-93 217,-74 306,-74 306,-93"/>
<text text-anchor="middle" x="261.5" y="-81" font-family="Helvetica,sans-Serif" font-size="10.00">cv::Mat::empty</text>
</a>
</g>
</g>
<!-- Node1&#45;&gt;Node3 -->
<g id="edge2_Node000001_Node000003" class="edge">
<title>Node1&#45;&gt;Node3</title>
<g id="a_edge2_Node000001_Node000003"><a xlink:title=" ">
<path fill="none" stroke="#63b8ff" d="M162.11,-73.03C177.03,-74.62 192.29,-76.24 206.21,-77.72"/>
<polygon fill="#63b8ff" stroke="#63b8ff" points="206.25,-81.24 216.56,-78.82 206.99,-74.28 206.25,-81.24"/>
</a>
</g>
</g>
<!-- Node4 -->
<g id="Node000004" class="node">
<title>Node4</title>
<g id="a_Node000004"><a xlink:href="../../d8/dfe/classcv_1_1VideoCapture.html#a473055e77dd7faa4d26d686226b292c1" target="_top" xlink:title="Grabs, decodes and returns the next video frame.">
<polygon fill="white" stroke="#666666" points="325,-56 198,-56 198,-37 325,-37 325,-56"/>
<text text-anchor="middle" x="261.5" y="-44" font-family="Helvetica,sans-Serif" font-size="10.00">cv::VideoCapture::read</text>
</a>
</g>
</g>
<!-- Node1&#45;&gt;Node4 -->
<g id="edge3_Node000001_Node000004" class="edge">
<title>Node1&#45;&gt;Node4</title>
<g id="a_edge3_Node000001_Node000004"><a xlink:title=" ">
<path fill="none" stroke="#63b8ff" d="M162.11,-56.42C170.61,-55.56 179.22,-54.7 187.63,-53.85"/>
<polygon fill="#63b8ff" stroke="#63b8ff" points="188.17,-57.31 197.77,-52.83 187.47,-50.35 188.17,-57.31"/>
</a>
</g>
</g>
<!-- Node5 -->
<g id="Node000005" class="node">
<title>Node5</title>
<g id="a_Node000005"><a xlink:href="../../d8/dfe/classcv_1_1VideoCapture.html#a8c6d8c2d37505b5ca61ffd4bb54e9a7c" target="_top" xlink:title="Sets a property in the VideoCapture.">
<polygon fill="white" stroke="#666666" points="321.5,-19 201.5,-19 201.5,0 321.5,0 321.5,-19"/>
<text text-anchor="middle" x="261.5" y="-7" font-family="Helvetica,sans-Serif" font-size="10.00">cv::VideoCapture::set</text>
</a>
</g>
</g>
<!-- Node1&#45;&gt;Node5 -->
<g id="edge4_Node000001_Node000005" class="edge">
<title>Node1&#45;&gt;Node5</title>
<g id="a_edge4_Node000001_Node000005"><a xlink:title=" ">
<path fill="none" stroke="#63b8ff" d="M130.24,-49.46C151.07,-42.98 175.73,-35.34 198,-28.5 204.77,-26.42 211.96,-24.22 218.96,-22.09"/>
<polygon fill="#63b8ff" stroke="#63b8ff" points="220.47,-25.29 229.01,-19.03 218.43,-18.59 220.47,-25.29"/>
</a>
</g>
</g>
</g>
</svg>
