<?xml version="1.0" encoding="UTF-8" standalone="no"?>
<!DOCTYPE svg PUBLIC "-//W3C//DTD SVG 1.1//EN"
 "http://www.w3.org/Graphics/SVG/1.1/DTD/svg11.dtd">
<!-- Generated by graphviz version 2.43.0 (0)
 -->
<!-- Title: cv::videostab::LogToStdout Pages: 1 -->
<svg width="148pt" height="157pt"
 viewBox="0.00 0.00 148.00 157.00" xmlns="http://www.w3.org/2000/svg" xmlns:xlink="http://www.w3.org/1999/xlink">
<g id="graph0" class="graph" transform="scale(1 1) rotate(0) translate(4 153)">
<title>cv::videostab::LogToStdout</title>
<!-- Node1 -->
<g id="Node000001" class="node">
<title>Node1</title>
<g id="a_Node000001"><a xlink:title=" ">
<polygon fill="#999999" stroke="transparent" points="140,-49 0,-49 0,0 140,0 140,-49"/>
<text text-anchor="start" x="5" y="-36.5" font-family="Helvetica,sans-Serif" font-size="10.00">cv::videostab::LogToStdout</text>
<text text-anchor="start" x="68" y="-21.5" font-family="Helvetica,sans-Serif" font-size="10.00"> </text>
<text text-anchor="start" x="26" y="-6.5" font-family="Helvetica,sans-Serif" font-size="10.00">+</text>
<text text-anchor="start" x="61" y="-6.5" font-family="Helvetica,sans-Serif" font-size="10.00">print()</text>
<polygon fill="#666666" stroke="#666666" points="0,-31.5 0,-31.5 140,-31.5 140,-31.5 0,-31.5"/>
<polygon fill="#666666" stroke="#666666" points="0,-16.5 0,-16.5 140,-16.5 140,-16.5 0,-16.5"/>
<polygon fill="none" stroke="#666666" points="0,0 0,-49 140,-49 140,0 0,0"/>
</a>
</g>
</g>
<!-- Node2 -->
<g id="Node000002" class="node">
<title>Node2</title>
<g id="a_Node000002"><a xlink:href="../../d8/d95/classcv_1_1videostab_1_1ILog.html" target="_top" xlink:title=" ">
<polygon fill="white" stroke="transparent" points="120.5,-149 19.5,-149 19.5,-85 120.5,-85 120.5,-149"/>
<text text-anchor="start" x="25" y="-137" font-family="Helvetica,sans-Serif" font-size="10.00">cv::videostab::ILog</text>
<text text-anchor="start" x="68.5" y="-122" font-family="Helvetica,sans-Serif" font-size="10.00"> </text>
<text text-anchor="start" x="34.5" y="-107" font-family="Helvetica,sans-Serif" font-size="10.00">+</text>
<text text-anchor="start" x="58" y="-107" font-family="Helvetica,sans-Serif" font-size="10.00">~ILog()</text>
<text text-anchor="start" x="34.5" y="-92" font-family="Helvetica,sans-Serif" font-size="10.00">+</text>
<text text-anchor="start" x="58" y="-92" font-family="Helvetica,sans-Serif" font-size="10.00">print()</text>
<polygon fill="#666666" stroke="#666666" points="20,-132 20,-132 121,-132 121,-132 20,-132"/>
<polygon fill="#666666" stroke="#666666" points="20,-117 20,-117 121,-117 121,-117 20,-117"/>
<polygon fill="none" stroke="#666666" points="19.5,-85 19.5,-149 120.5,-149 120.5,-85 19.5,-85"/>
</a>
</g>
</g>
<!-- Node2&#45;&gt;Node1 -->
<g id="edge1_Node000001_Node000002" class="edge">
<title>Node2&#45;&gt;Node1</title>
<g id="a_edge1_Node000001_Node000002"><a xlink:title=" ">
<path fill="none" stroke="#63b8ff" d="M70,-74.77C70,-66.03 70,-57.09 70,-49.27"/>
<polygon fill="none" stroke="#63b8ff" points="66.5,-74.85 70,-84.86 73.5,-74.86 66.5,-74.85"/>
</a>
</g>
</g>
</g>
</svg>
