<?xml version="1.0" encoding="UTF-8" standalone="no"?>
<!DOCTYPE svg PUBLIC "-//W3C//DTD SVG 1.1//EN"
 "http://www.w3.org/Graphics/SVG/1.1/DTD/svg11.dtd">
<!-- Generated by graphviz version 2.43.0 (0)
 -->
<!-- Title: cv::datasets::pose Pages: 1 -->
<svg width="106pt" height="153pt"
 viewBox="0.00 0.00 106.00 153.00" xmlns="http://www.w3.org/2000/svg" xmlns:xlink="http://www.w3.org/1999/xlink">
<g id="graph0" class="graph" transform="scale(1 1) rotate(0) translate(4 149)">
<title>cv::datasets::pose</title>
<!-- Node1 -->
<g id="Node000001" class="node">
<title>Node1</title>
<g id="a_Node000001"><a xlink:title=" ">
<polygon fill="#999999" stroke="transparent" points="98,-49 0,-49 0,0 98,0 98,-49"/>
<text text-anchor="start" x="5" y="-36.5" font-family="Helvetica,sans-Serif" font-size="10.00">cv::datasets::pose</text>
<text text-anchor="start" x="47" y="-21.5" font-family="Helvetica,sans-Serif" font-size="10.00"> </text>
<text text-anchor="start" x="47" y="-6.5" font-family="Helvetica,sans-Serif" font-size="10.00"> </text>
<polygon fill="#666666" stroke="#666666" points="0,-31.5 0,-31.5 98,-31.5 98,-31.5 0,-31.5"/>
<polygon fill="#666666" stroke="#666666" points="0,-16.5 0,-16.5 98,-16.5 98,-16.5 0,-16.5"/>
<polygon fill="none" stroke="#666666" points="0,0 0,-49 98,-49 98,0 0,0"/>
</a>
</g>
</g>
<!-- Node2 -->
<g id="Node000002" class="node">
<title>Node2</title>
<g id="a_Node000002"><a xlink:title=" ">
<polygon fill="white" stroke="transparent" points="71,-145 27,-145 27,-96 71,-96 71,-145"/>
<text text-anchor="start" x="32" y="-132.5" font-family="Helvetica,sans-Serif" font-size="10.00">double</text>
<text text-anchor="start" x="47" y="-117.5" font-family="Helvetica,sans-Serif" font-size="10.00"> </text>
<text text-anchor="start" x="47" y="-102.5" font-family="Helvetica,sans-Serif" font-size="10.00"> </text>
<polygon fill="#666666" stroke="#666666" points="27,-127.5 27,-127.5 71,-127.5 71,-127.5 27,-127.5"/>
<polygon fill="#666666" stroke="#666666" points="27,-112.5 27,-112.5 71,-112.5 71,-112.5 27,-112.5"/>
<polygon fill="none" stroke="#666666" points="27,-96 27,-145 71,-145 71,-96 27,-96"/>
</a>
</g>
</g>
<!-- Node2&#45;&gt;Node1 -->
<g id="edge1_Node000001_Node000002" class="edge">
<title>Node2&#45;&gt;Node1</title>
<g id="a_edge1_Node000001_Node000002"><a xlink:title=" ">
<path fill="none" stroke="#63b8ff" d="M49,-95.78C49,-85.32 49,-72.79 49,-61.23"/>
<polygon fill="none" stroke="#63b8ff" points="49,-61.21 45,-55.21 49,-49.21 53,-55.21 49,-61.21"/>
</a>
</g>
<text text-anchor="middle" x="67.5" y="-70" font-family="Helvetica,sans-Serif" font-size="10.00" fill="grey"> +elem</text>
</g>
</g>
</svg>
