<?xml version="1.0" encoding="UTF-8" standalone="no"?>
<!DOCTYPE svg PUBLIC "-//W3C//DTD SVG 1.1//EN"
 "http://www.w3.org/Graphics/SVG/1.1/DTD/svg11.dtd">
<!-- Generated by graphviz version 2.43.0 (0)
 -->
<!-- Title: CvPhotoCamera Pages: 1 -->
<svg width="1608pt" height="473pt"
 viewBox="0.00 0.00 1608.00 473.00" xmlns="http://www.w3.org/2000/svg" xmlns:xlink="http://www.w3.org/1999/xlink">
<g id="graph0" class="graph" transform="scale(1 1) rotate(0) translate(4 469)">
<title>CvPhotoCamera</title>
<!-- Node1 -->
<g id="Node000001" class="node">
<title>Node1</title>
<g id="a_Node000001"><a xlink:title=" ">
<polygon fill="#999999" stroke="transparent" points="915.5,-49 826.5,-49 826.5,0 915.5,0 915.5,-49"/>
<text text-anchor="start" x="832" y="-36.5" font-family="Helvetica,sans-Serif" font-size="10.00">CvPhotoCamera</text>
<text text-anchor="start" x="869.5" y="-21.5" font-family="Helvetica,sans-Serif" font-size="10.00"> </text>
<text text-anchor="start" x="832.5" y="-6.5" font-family="Helvetica,sans-Serif" font-size="10.00">+</text>
<text text-anchor="start" x="847" y="-6.5" font-family="Helvetica,sans-Serif" font-size="10.00">CV_UNUSED</text>
<polygon fill="#666666" stroke="#666666" points="827,-31.5 827,-31.5 916,-31.5 916,-31.5 827,-31.5"/>
<polygon fill="#666666" stroke="#666666" points="827,-16.5 827,-16.5 916,-16.5 916,-16.5 827,-16.5"/>
<polygon fill="none" stroke="#666666" points="826.5,0 826.5,-49 915.5,-49 915.5,0 826.5,0"/>
</a>
</g>
</g>
<!-- Node2 -->
<g id="Node000002" class="node">
<title>Node2</title>
<g id="a_Node000002"><a xlink:href="../../d0/de8/interfaceCvAbstractCamera.html" target="_top" xlink:title=" ">
<polygon fill="white" stroke="transparent" points="776.5,-325 659.5,-325 659.5,-96 776.5,-96 776.5,-325"/>
<text text-anchor="start" x="672.5" y="-312.5" font-family="Helvetica,sans-Serif" font-size="10.00">CvAbstractCamera</text>
<text text-anchor="start" x="716.5" y="-297.5" font-family="Helvetica,sans-Serif" font-size="10.00"> </text>
<text text-anchor="start" x="664" y="-282.5" font-family="Helvetica,sans-Serif" font-size="10.00">+</text>
<text text-anchor="start" x="677" y="-282.5" font-family="Helvetica,sans-Serif" font-size="10.00">CV_UNUSED</text>
<text text-anchor="start" x="664" y="-267.5" font-family="Helvetica,sans-Serif" font-size="10.00">+</text>
<text text-anchor="start" x="677" y="-267.5" font-family="Helvetica,sans-Serif" font-size="10.00">CV_UNUSED</text>
<text text-anchor="start" x="664" y="-252.5" font-family="Helvetica,sans-Serif" font-size="10.00">+</text>
<text text-anchor="start" x="677" y="-252.5" font-family="Helvetica,sans-Serif" font-size="10.00">CV_UNUSED</text>
<text text-anchor="start" x="664" y="-237.5" font-family="Helvetica,sans-Serif" font-size="10.00">+</text>
<text text-anchor="start" x="677" y="-237.5" font-family="Helvetica,sans-Serif" font-size="10.00">CV_UNUSED</text>
<text text-anchor="start" x="664" y="-222.5" font-family="Helvetica,sans-Serif" font-size="10.00">+</text>
<text text-anchor="start" x="677" y="-222.5" font-family="Helvetica,sans-Serif" font-size="10.00">CV_UNUSED</text>
<text text-anchor="start" x="664" y="-207.5" font-family="Helvetica,sans-Serif" font-size="10.00">+</text>
<text text-anchor="start" x="677" y="-207.5" font-family="Helvetica,sans-Serif" font-size="10.00">CV_UNUSED</text>
<text text-anchor="start" x="664" y="-192.5" font-family="Helvetica,sans-Serif" font-size="10.00">+</text>
<text text-anchor="start" x="677" y="-192.5" font-family="Helvetica,sans-Serif" font-size="10.00">CV_UNUSED</text>
<text text-anchor="start" x="664" y="-177.5" font-family="Helvetica,sans-Serif" font-size="10.00">+</text>
<text text-anchor="start" x="677" y="-177.5" font-family="Helvetica,sans-Serif" font-size="10.00">CV_UNUSED</text>
<text text-anchor="start" x="664" y="-162.5" font-family="Helvetica,sans-Serif" font-size="10.00">+</text>
<text text-anchor="start" x="677" y="-162.5" font-family="Helvetica,sans-Serif" font-size="10.00">CV_UNUSED</text>
<text text-anchor="start" x="664" y="-147.5" font-family="Helvetica,sans-Serif" font-size="10.00">+</text>
<text text-anchor="start" x="677" y="-147.5" font-family="Helvetica,sans-Serif" font-size="10.00">CV_UNUSED</text>
<text text-anchor="start" x="664" y="-132.5" font-family="Helvetica,sans-Serif" font-size="10.00">+</text>
<text text-anchor="start" x="677" y="-132.5" font-family="Helvetica,sans-Serif" font-size="10.00">CV_UNUSED</text>
<text text-anchor="start" x="664" y="-117.5" font-family="Helvetica,sans-Serif" font-size="10.00">+</text>
<text text-anchor="start" x="677" y="-117.5" font-family="Helvetica,sans-Serif" font-size="10.00">CV_UNUSED</text>
<text text-anchor="start" x="664" y="-102.5" font-family="Helvetica,sans-Serif" font-size="10.00">+</text>
<text text-anchor="start" x="677" y="-102.5" font-family="Helvetica,sans-Serif" font-size="10.00">initWithParentView:</text>
<polygon fill="#666666" stroke="#666666" points="660,-307.5 660,-307.5 777,-307.5 777,-307.5 660,-307.5"/>
<polygon fill="#666666" stroke="#666666" points="660,-292.5 660,-292.5 777,-292.5 777,-292.5 660,-292.5"/>
<polygon fill="none" stroke="#666666" points="659.5,-96 659.5,-325 776.5,-325 776.5,-96 659.5,-96"/>
</a>
</g>
</g>
<!-- Node2&#45;&gt;Node1 -->
<g id="edge1_Node000001_Node000002" class="edge">
<title>Node2&#45;&gt;Node1</title>
<g id="a_edge1_Node000001_Node000002"><a xlink:title=" ">
<path fill="none" stroke="#63b8ff" d="M783,-99.56C784,-98.36 785,-97.17 786,-96 800.98,-78.54 820.59,-61.96 837.2,-49.27"/>
<polygon fill="none" stroke="#63b8ff" points="780.02,-97.69 776.55,-107.7 785.5,-102.04 780.02,-97.69"/>
</a>
</g>
</g>
<!-- Node3 -->
<g id="Node000003" class="node">
<title>Node3</title>
<g id="a_Node000003"><a xlink:href="../../d4/d19/classNSObject.html" target="_top" xlink:title=" ">
<polygon fill="white" stroke="transparent" points="56,-465 0,-465 0,-416 56,-416 56,-465"/>
<text text-anchor="start" x="5" y="-452.5" font-family="Helvetica,sans-Serif" font-size="10.00">NSObject</text>
<text text-anchor="start" x="26" y="-437.5" font-family="Helvetica,sans-Serif" font-size="10.00"> </text>
<text text-anchor="start" x="26" y="-422.5" font-family="Helvetica,sans-Serif" font-size="10.00"> </text>
<polygon fill="#666666" stroke="#666666" points="0,-447.5 0,-447.5 56,-447.5 56,-447.5 0,-447.5"/>
<polygon fill="#666666" stroke="#666666" points="0,-432.5 0,-432.5 56,-432.5 56,-432.5 0,-432.5"/>
<polygon fill="none" stroke="#666666" points="0,-416 0,-465 56,-465 56,-416 0,-416"/>
</a>
</g>
</g>
<!-- Node3&#45;&gt;Node2 -->
<g id="edge2_Node000002_Node000003" class="edge">
<title>Node3&#45;&gt;Node2</title>
<g id="a_edge2_Node000002_Node000003"><a xlink:title=" ">
<path fill="none" stroke="#63b8ff" d="M51.06,-407.88C68.45,-386.34 94.18,-358.95 123,-343 301.19,-244.41 547.83,-219.73 659.23,-213.56"/>
<polygon fill="none" stroke="#63b8ff" points="48.25,-405.79 44.82,-415.81 53.75,-410.12 48.25,-405.79"/>
</a>
</g>
</g>
<!-- Node4 -->
<g id="Node000004" class="node">
<title>Node4</title>
<g id="a_Node000004"><a xlink:title=" ">
<polygon fill="white" stroke="transparent" points="184,-465 74,-465 74,-416 184,-416 184,-465"/>
<text text-anchor="start" x="79" y="-452.5" font-family="Helvetica,sans-Serif" font-size="10.00">UIDeviceOrientation</text>
<text text-anchor="start" x="127" y="-437.5" font-family="Helvetica,sans-Serif" font-size="10.00"> </text>
<text text-anchor="start" x="127" y="-422.5" font-family="Helvetica,sans-Serif" font-size="10.00"> </text>
<polygon fill="#666666" stroke="#666666" points="74,-447.5 74,-447.5 184,-447.5 184,-447.5 74,-447.5"/>
<polygon fill="#666666" stroke="#666666" points="74,-432.5 74,-432.5 184,-432.5 184,-432.5 74,-432.5"/>
<polygon fill="none" stroke="#666666" points="74,-416 74,-465 184,-465 184,-416 74,-416"/>
</a>
</g>
</g>
<!-- Node4&#45;&gt;Node2 -->
<g id="edge3_Node000002_Node000004" class="edge">
<title>Node4&#45;&gt;Node2</title>
<g id="a_edge3_Node000002_Node000004"><a xlink:title=" ">
<path fill="none" stroke="#63b8ff" d="M126.11,-415.66C124.88,-393.91 126.85,-362.3 145,-343 213.13,-270.56 509.55,-232.21 647.24,-218.02"/>
<polygon fill="none" stroke="#63b8ff" points="647.32,-218.01 652.89,-213.43 659.26,-216.8 653.69,-221.39 647.32,-218.01"/>
</a>
</g>
<text text-anchor="middle" x="212.5" y="-368" font-family="Helvetica,sans-Serif" font-size="10.00" fill="grey"> #currentDeviceOrientation</text>
</g>
<!-- Node5 -->
<g id="Node000005" class="node">
<title>Node5</title>
<g id="a_Node000005"><a xlink:title=" ">
<polygon fill="white" stroke="transparent" points="306,-465 268,-465 268,-416 306,-416 306,-465"/>
<text text-anchor="start" x="273" y="-452.5" font-family="Helvetica,sans-Serif" font-size="10.00">BOOL</text>
<text text-anchor="start" x="285" y="-437.5" font-family="Helvetica,sans-Serif" font-size="10.00"> </text>
<text text-anchor="start" x="285" y="-422.5" font-family="Helvetica,sans-Serif" font-size="10.00"> </text>
<polygon fill="#666666" stroke="#666666" points="268,-447.5 268,-447.5 306,-447.5 306,-447.5 268,-447.5"/>
<polygon fill="#666666" stroke="#666666" points="268,-432.5 268,-432.5 306,-432.5 306,-432.5 268,-432.5"/>
<polygon fill="none" stroke="#666666" points="268,-416 268,-465 306,-465 306,-416 268,-416"/>
</a>
</g>
</g>
<!-- Node5&#45;&gt;Node2 -->
<g id="edge4_Node000002_Node000005" class="edge">
<title>Node5&#45;&gt;Node2</title>
<g id="a_edge4_Node000002_Node000005"><a xlink:title=" ">
<path fill="none" stroke="#63b8ff" d="M283.59,-415.65C281.92,-394.19 283.12,-363.04 300,-343 386.5,-240.29 552.44,-216.7 647.15,-211.95"/>
<polygon fill="none" stroke="#63b8ff" points="647.19,-211.95 653.01,-207.7 659.18,-211.43 653.36,-215.69 647.19,-211.95"/>
</a>
</g>
<text text-anchor="middle" x="372" y="-390" font-family="Helvetica,sans-Serif" font-size="10.00" fill="grey"> #cameraAvailable</text>
<text text-anchor="middle" x="372" y="-379" font-family="Helvetica,sans-Serif" font-size="10.00" fill="grey">+captureSessionLoaded</text>
<text text-anchor="middle" x="372" y="-368" font-family="Helvetica,sans-Serif" font-size="10.00" fill="grey">+running</text>
<text text-anchor="start" x="300" y="-357" font-family="Helvetica,sans-Serif" font-size="10.00" fill="grey">+useAVCaptureVideoPreview</text>
<text text-anchor="middle" x="372" y="-346" font-family="Helvetica,sans-Serif" font-size="10.00" fill="grey">Layer</text>
</g>
<!-- Node6 -->
<g id="Node000006" class="node">
<title>Node6</title>
<g id="a_Node000006"><a xlink:title=" ">
<polygon fill="white" stroke="transparent" points="494.5,-465 387.5,-465 387.5,-416 494.5,-416 494.5,-465"/>
<text text-anchor="start" x="393" y="-452.5" font-family="Helvetica,sans-Serif" font-size="10.00">AVCaptureSession *</text>
<text text-anchor="start" x="439.5" y="-437.5" font-family="Helvetica,sans-Serif" font-size="10.00"> </text>
<text text-anchor="start" x="439.5" y="-422.5" font-family="Helvetica,sans-Serif" font-size="10.00"> </text>
<polygon fill="#666666" stroke="#666666" points="388,-447.5 388,-447.5 495,-447.5 495,-447.5 388,-447.5"/>
<polygon fill="#666666" stroke="#666666" points="388,-432.5 388,-432.5 495,-432.5 495,-432.5 388,-432.5"/>
<polygon fill="none" stroke="#666666" points="387.5,-416 387.5,-465 494.5,-465 494.5,-416 387.5,-416"/>
</a>
</g>
</g>
<!-- Node6&#45;&gt;Node2 -->
<g id="edge5_Node000002_Node000006" class="edge">
<title>Node6&#45;&gt;Node2</title>
<g id="a_edge5_Node000002_Node000006"><a xlink:title=" ">
<path fill="none" stroke="#63b8ff" d="M443.86,-415.66C447.48,-394.5 455.51,-363.8 473,-343 518.83,-288.5 593.19,-253.15 647.98,-232.97"/>
<polygon fill="none" stroke="#63b8ff" points="648.06,-232.94 652.36,-227.15 659.36,-228.89 655.06,-234.68 648.06,-232.94"/>
</a>
</g>
<text text-anchor="middle" x="516" y="-368" font-family="Helvetica,sans-Serif" font-size="10.00" fill="grey"> +captureSession</text>
</g>
<!-- Node7 -->
<g id="Node000007" class="node">
<title>Node7</title>
<g id="a_Node000007"><a xlink:title=" ">
<polygon fill="white" stroke="transparent" points="637.5,-465 512.5,-465 512.5,-416 637.5,-416 637.5,-465"/>
<text text-anchor="start" x="518" y="-452.5" font-family="Helvetica,sans-Serif" font-size="10.00">AVCaptureConnection *</text>
<text text-anchor="start" x="573.5" y="-437.5" font-family="Helvetica,sans-Serif" font-size="10.00"> </text>
<text text-anchor="start" x="573.5" y="-422.5" font-family="Helvetica,sans-Serif" font-size="10.00"> </text>
<polygon fill="#666666" stroke="#666666" points="513,-447.5 513,-447.5 638,-447.5 638,-447.5 513,-447.5"/>
<polygon fill="#666666" stroke="#666666" points="513,-432.5 513,-432.5 638,-432.5 638,-432.5 513,-432.5"/>
<polygon fill="none" stroke="#666666" points="512.5,-416 512.5,-465 637.5,-465 637.5,-416 512.5,-416"/>
</a>
</g>
</g>
<!-- Node7&#45;&gt;Node2 -->
<g id="edge6_Node000002_Node000007" class="edge">
<title>Node7&#45;&gt;Node2</title>
<g id="a_edge6_Node000002_Node000007"><a xlink:title=" ">
<path fill="none" stroke="#63b8ff" d="M567.54,-415.77C562.54,-395.53 558.58,-366.1 569,-343 585.77,-305.83 618.82,-274.94 649.55,-252.47"/>
<polygon fill="none" stroke="#63b8ff" points="649.63,-252.41 652.21,-245.68 659.41,-245.47 656.83,-252.21 649.63,-252.41"/>
</a>
</g>
<text text-anchor="middle" x="635" y="-368" font-family="Helvetica,sans-Serif" font-size="10.00" fill="grey"> +videoCaptureConnection</text>
</g>
<!-- Node8 -->
<g id="Node000008" class="node">
<title>Node8</title>
<g id="a_Node000008"><a xlink:title=" ">
<polygon fill="white" stroke="transparent" points="712.5,-465 689.5,-465 689.5,-416 712.5,-416 712.5,-465"/>
<text text-anchor="start" x="695" y="-452.5" font-family="Helvetica,sans-Serif" font-size="10.00">int</text>
<text text-anchor="start" x="699.5" y="-437.5" font-family="Helvetica,sans-Serif" font-size="10.00"> </text>
<text text-anchor="start" x="699.5" y="-422.5" font-family="Helvetica,sans-Serif" font-size="10.00"> </text>
<polygon fill="#666666" stroke="#666666" points="690,-447.5 690,-447.5 713,-447.5 713,-447.5 690,-447.5"/>
<polygon fill="#666666" stroke="#666666" points="690,-432.5 690,-432.5 713,-432.5 713,-432.5 690,-432.5"/>
<polygon fill="none" stroke="#666666" points="689.5,-416 689.5,-465 712.5,-465 712.5,-416 689.5,-416"/>
</a>
</g>
</g>
<!-- Node8&#45;&gt;Node2 -->
<g id="edge7_Node000002_Node000008" class="edge">
<title>Node8&#45;&gt;Node2</title>
<g id="a_edge7_Node000002_Node000008"><a xlink:title=" ">
<path fill="none" stroke="#63b8ff" d="M702.76,-415.96C704.2,-396.57 706.37,-367.45 708.63,-337.21"/>
<polygon fill="none" stroke="#63b8ff" points="708.64,-337.1 705.09,-330.82 709.53,-325.13 713.07,-331.41 708.64,-337.1"/>
</a>
</g>
<text text-anchor="middle" x="744" y="-379" font-family="Helvetica,sans-Serif" font-size="10.00" fill="grey"> +defaultFPS</text>
<text text-anchor="middle" x="744" y="-368" font-family="Helvetica,sans-Serif" font-size="10.00" fill="grey">+imageHeight</text>
<text text-anchor="middle" x="744" y="-357" font-family="Helvetica,sans-Serif" font-size="10.00" fill="grey">+imageWidth</text>
</g>
<!-- Node9 -->
<g id="Node000009" class="node">
<title>Node9</title>
<g id="a_Node000009"><a xlink:title=" ">
<polygon fill="white" stroke="transparent" points="895,-465 731,-465 731,-416 895,-416 895,-465"/>
<text text-anchor="start" x="736" y="-452.5" font-family="Helvetica,sans-Serif" font-size="10.00">AVCaptureVideoPreviewLayer *</text>
<text text-anchor="start" x="811" y="-437.5" font-family="Helvetica,sans-Serif" font-size="10.00"> </text>
<text text-anchor="start" x="811" y="-422.5" font-family="Helvetica,sans-Serif" font-size="10.00"> </text>
<polygon fill="#666666" stroke="#666666" points="731,-447.5 731,-447.5 895,-447.5 895,-447.5 731,-447.5"/>
<polygon fill="#666666" stroke="#666666" points="731,-432.5 731,-432.5 895,-432.5 895,-432.5 731,-432.5"/>
<polygon fill="none" stroke="#666666" points="731,-416 731,-465 895,-465 895,-416 731,-416"/>
</a>
</g>
</g>
<!-- Node9&#45;&gt;Node2 -->
<g id="edge8_Node000002_Node000009" class="edge">
<title>Node9&#45;&gt;Node2</title>
<g id="a_edge8_Node000002_Node000009"><a xlink:title=" ">
<path fill="none" stroke="#63b8ff" d="M807.08,-415.71C801.88,-395.94 793.63,-367.22 784,-343 783.13,-340.82 782.24,-338.63 781.33,-336.42"/>
<polygon fill="none" stroke="#63b8ff" points="781.32,-336.4 775.29,-332.44 776.63,-325.35 782.66,-329.31 781.32,-336.4"/>
</a>
</g>
<text text-anchor="middle" x="874" y="-368" font-family="Helvetica,sans-Serif" font-size="10.00" fill="grey"> +captureVideoPreviewLayer</text>
</g>
<!-- Node10 -->
<g id="Node000010" class="node">
<title>Node10</title>
<g id="a_Node000010"><a xlink:title=" ">
<polygon fill="white" stroke="transparent" points="1047,-465 913,-465 913,-416 1047,-416 1047,-465"/>
<text text-anchor="start" x="918" y="-452.5" font-family="Helvetica,sans-Serif" font-size="10.00">AVCaptureDevicePosition</text>
<text text-anchor="start" x="978" y="-437.5" font-family="Helvetica,sans-Serif" font-size="10.00"> </text>
<text text-anchor="start" x="978" y="-422.5" font-family="Helvetica,sans-Serif" font-size="10.00"> </text>
<polygon fill="#666666" stroke="#666666" points="913,-447.5 913,-447.5 1047,-447.5 1047,-447.5 913,-447.5"/>
<polygon fill="#666666" stroke="#666666" points="913,-432.5 913,-432.5 1047,-432.5 1047,-432.5 913,-432.5"/>
<polygon fill="none" stroke="#666666" points="913,-416 913,-465 1047,-465 1047,-416 913,-416"/>
</a>
</g>
</g>
<!-- Node10&#45;&gt;Node2 -->
<g id="edge9_Node000002_Node000010" class="edge">
<title>Node10&#45;&gt;Node2</title>
<g id="a_edge9_Node000002_Node000010"><a xlink:title=" ">
<path fill="none" stroke="#63b8ff" d="M979.32,-415.64C977.29,-393.23 970.53,-360.59 949,-343 895.42,-299.23 851.96,-357.8 787.14,-324.26"/>
<polygon fill="none" stroke="#63b8ff" points="786.9,-324.12 779.7,-324.53 776.55,-318.05 783.75,-317.63 786.9,-324.12"/>
</a>
</g>
<text text-anchor="middle" x="1061" y="-368" font-family="Helvetica,sans-Serif" font-size="10.00" fill="grey"> +defaultAVCaptureDevicePosition</text>
</g>
<!-- Node11 -->
<g id="Node000011" class="node">
<title>Node11</title>
<g id="a_Node000011"><a xlink:title=" ">
<polygon fill="white" stroke="transparent" points="1243,-465 1099,-465 1099,-416 1243,-416 1243,-465"/>
<text text-anchor="start" x="1104" y="-452.5" font-family="Helvetica,sans-Serif" font-size="10.00">AVCaptureVideoOrientation</text>
<text text-anchor="start" x="1169" y="-437.5" font-family="Helvetica,sans-Serif" font-size="10.00"> </text>
<text text-anchor="start" x="1169" y="-422.5" font-family="Helvetica,sans-Serif" font-size="10.00"> </text>
<polygon fill="#666666" stroke="#666666" points="1099,-447.5 1099,-447.5 1243,-447.5 1243,-447.5 1099,-447.5"/>
<polygon fill="#666666" stroke="#666666" points="1099,-432.5 1099,-432.5 1243,-432.5 1243,-432.5 1099,-432.5"/>
<polygon fill="none" stroke="#666666" points="1099,-416 1099,-465 1243,-465 1243,-416 1099,-416"/>
</a>
</g>
</g>
<!-- Node11&#45;&gt;Node2 -->
<g id="edge10_Node000002_Node000011" class="edge">
<title>Node11&#45;&gt;Node2</title>
<g id="a_edge10_Node000002_Node000011"><a xlink:title=" ">
<path fill="none" stroke="#63b8ff" d="M1168.86,-415.96C1166,-390.48 1159.99,-352.22 1149,-343 1120.06,-318.72 857.86,-342.3 788.18,-323.13"/>
<polygon fill="none" stroke="#63b8ff" points="787.8,-322.98 780.74,-324.47 776.65,-318.53 783.71,-317.04 787.8,-322.98"/>
</a>
</g>
<text text-anchor="middle" x="1256" y="-368" font-family="Helvetica,sans-Serif" font-size="10.00" fill="grey"> +defaultAVCaptureVideoOrientation</text>
</g>
<!-- Node12 -->
<g id="Node000012" class="node">
<title>Node12</title>
<g id="a_Node000012"><a xlink:title=" ">
<polygon fill="white" stroke="transparent" points="1417.5,-465 1330.5,-465 1330.5,-416 1417.5,-416 1417.5,-465"/>
<text text-anchor="start" x="1336" y="-452.5" font-family="Helvetica,sans-Serif" font-size="10.00">NSString *const</text>
<text text-anchor="start" x="1372.5" y="-437.5" font-family="Helvetica,sans-Serif" font-size="10.00"> </text>
<text text-anchor="start" x="1372.5" y="-422.5" font-family="Helvetica,sans-Serif" font-size="10.00"> </text>
<polygon fill="#666666" stroke="#666666" points="1331,-447.5 1331,-447.5 1418,-447.5 1418,-447.5 1331,-447.5"/>
<polygon fill="#666666" stroke="#666666" points="1331,-432.5 1331,-432.5 1418,-432.5 1418,-432.5 1331,-432.5"/>
<polygon fill="none" stroke="#666666" points="1330.5,-416 1330.5,-465 1417.5,-465 1417.5,-416 1330.5,-416"/>
</a>
</g>
</g>
<!-- Node12&#45;&gt;Node2 -->
<g id="edge11_Node000002_Node000012" class="edge">
<title>Node12&#45;&gt;Node2</title>
<g id="a_edge11_Node000002_Node000012"><a xlink:title=" ">
<path fill="none" stroke="#63b8ff" d="M1375.47,-415.86C1375.44,-393.3 1371.35,-360.25 1350,-343 1303.47,-305.41 881.52,-352.09 787.78,-323.3"/>
<polygon fill="none" stroke="#63b8ff" points="787.67,-323.25 780.59,-324.62 776.61,-318.6 783.69,-317.24 787.67,-323.25"/>
</a>
</g>
<text text-anchor="start" x="1374" y="-373.5" font-family="Helvetica,sans-Serif" font-size="10.00" fill="grey"> +defaultAVCaptureSession</text>
<text text-anchor="middle" x="1441.5" y="-362.5" font-family="Helvetica,sans-Serif" font-size="10.00" fill="grey">Preset</text>
</g>
<!-- Node13 -->
<g id="Node000013" class="node">
<title>Node13</title>
<g id="a_Node000013"><a xlink:title=" ">
<polygon fill="white" stroke="transparent" points="1558.5,-465 1505.5,-465 1505.5,-416 1558.5,-416 1558.5,-465"/>
<text text-anchor="start" x="1511" y="-452.5" font-family="Helvetica,sans-Serif" font-size="10.00">UIView *</text>
<text text-anchor="start" x="1530.5" y="-437.5" font-family="Helvetica,sans-Serif" font-size="10.00"> </text>
<text text-anchor="start" x="1530.5" y="-422.5" font-family="Helvetica,sans-Serif" font-size="10.00"> </text>
<polygon fill="#666666" stroke="#666666" points="1506,-447.5 1506,-447.5 1559,-447.5 1559,-447.5 1506,-447.5"/>
<polygon fill="#666666" stroke="#666666" points="1506,-432.5 1506,-432.5 1559,-432.5 1559,-432.5 1506,-432.5"/>
<polygon fill="none" stroke="#666666" points="1505.5,-416 1505.5,-465 1558.5,-465 1558.5,-416 1505.5,-416"/>
</a>
</g>
</g>
<!-- Node13&#45;&gt;Node2 -->
<g id="edge12_Node000002_Node000013" class="edge">
<title>Node13&#45;&gt;Node2</title>
<g id="a_edge12_Node000002_Node000013"><a xlink:title=" ">
<path fill="none" stroke="#63b8ff" d="M1534.03,-415.89C1534.51,-393.34 1531.15,-360.3 1510,-343 1480.47,-318.84 887.2,-342.54 788.21,-322.35"/>
<polygon fill="none" stroke="#63b8ff" points="788.02,-322.29 781.09,-324.27 776.59,-318.63 783.52,-316.65 788.02,-322.29"/>
</a>
</g>
<text text-anchor="middle" x="1566.5" y="-368" font-family="Helvetica,sans-Serif" font-size="10.00" fill="grey"> +parentView</text>
</g>
<!-- Node14 -->
<g id="Node000014" class="node">
<title>Node14</title>
<g id="a_Node000014"><a xlink:title=" ">
<polygon fill="white" stroke="transparent" points="947,-235 795,-235 795,-186 947,-186 947,-235"/>
<text text-anchor="start" x="800" y="-222.5" font-family="Helvetica,sans-Serif" font-size="10.00">AVCaptureStillImageOutput *</text>
<text text-anchor="start" x="869" y="-207.5" font-family="Helvetica,sans-Serif" font-size="10.00"> </text>
<text text-anchor="start" x="869" y="-192.5" font-family="Helvetica,sans-Serif" font-size="10.00"> </text>
<polygon fill="#666666" stroke="#666666" points="795,-217.5 795,-217.5 947,-217.5 947,-217.5 795,-217.5"/>
<polygon fill="#666666" stroke="#666666" points="795,-202.5 795,-202.5 947,-202.5 947,-202.5 795,-202.5"/>
<polygon fill="none" stroke="#666666" points="795,-186 795,-235 947,-235 947,-186 795,-186"/>
</a>
</g>
</g>
<!-- Node14&#45;&gt;Node1 -->
<g id="edge13_Node000001_Node000014" class="edge">
<title>Node14&#45;&gt;Node1</title>
<g id="a_edge13_Node000001_Node000014"><a xlink:title=" ">
<path fill="none" stroke="#63b8ff" d="M871,-185.82C871,-154.22 871,-97.97 871,-61.21"/>
<polygon fill="none" stroke="#63b8ff" points="871,-61.09 867,-55.09 871,-49.09 875,-55.09 871,-61.09"/>
</a>
</g>
<text text-anchor="middle" x="918" y="-70" font-family="Helvetica,sans-Serif" font-size="10.00" fill="grey"> #stillImageOutput</text>
</g>
<!-- Node15 -->
<g id="Node000015" class="node">
<title>Node15</title>
<g id="a_Node000015"><a xlink:title=" ">
<polygon fill="white" stroke="transparent" points="1130.5,-235 965.5,-235 965.5,-186 1130.5,-186 1130.5,-235"/>
<text text-anchor="start" x="971" y="-222.5" font-family="Helvetica,sans-Serif" font-size="10.00">id&lt; CvPhotoCameraDelegate &gt;</text>
<text text-anchor="start" x="1046.5" y="-207.5" font-family="Helvetica,sans-Serif" font-size="10.00"> </text>
<text text-anchor="start" x="1046.5" y="-192.5" font-family="Helvetica,sans-Serif" font-size="10.00"> </text>
<polygon fill="#666666" stroke="#666666" points="966,-217.5 966,-217.5 1131,-217.5 1131,-217.5 966,-217.5"/>
<polygon fill="#666666" stroke="#666666" points="966,-202.5 966,-202.5 1131,-202.5 1131,-202.5 966,-202.5"/>
<polygon fill="none" stroke="#666666" points="965.5,-186 965.5,-235 1130.5,-235 1130.5,-186 965.5,-186"/>
</a>
</g>
</g>
<!-- Node15&#45;&gt;Node1 -->
<g id="edge14_Node000001_Node000015" class="edge">
<title>Node15&#45;&gt;Node1</title>
<g id="a_edge14_Node000001_Node000015"><a xlink:title=" ">
<path fill="none" stroke="#63b8ff" d="M1040.43,-185.94C1029.34,-154.85 1005.91,-100.2 969,-67 956.96,-56.17 941.67,-47.89 926.78,-41.68"/>
<polygon fill="none" stroke="#63b8ff" points="926.72,-41.66 919.68,-43.23 915.52,-37.33 922.56,-35.77 926.72,-41.66"/>
</a>
</g>
<text text-anchor="middle" x="1005.5" y="-70" font-family="Helvetica,sans-Serif" font-size="10.00" fill="grey"> +delegate</text>
</g>
</g>
</svg>
