<?xml version="1.0" encoding="UTF-8" standalone="no"?>
<!DOCTYPE svg PUBLIC "-//W3C//DTD SVG 1.1//EN"
 "http://www.w3.org/Graphics/SVG/1.1/DTD/svg11.dtd">
<!-- Generated by graphviz version 2.43.0 (0)
 -->
<!-- Title: cv::TLSDataAccumulator&lt; T &gt; Pages: 1 -->
<svg width="166pt" height="587pt"
 viewBox="0.00 0.00 166.00 587.00" xmlns="http://www.w3.org/2000/svg" xmlns:xlink="http://www.w3.org/1999/xlink">
<g id="graph0" class="graph" transform="scale(1 1) rotate(0) translate(4 583)">
<title>cv::TLSDataAccumulator&lt; T &gt;</title>
<!-- Node1 -->
<g id="Node000001" class="node">
<title>Node1</title>
<g id="a_Node000001"><a xlink:title="TLS data accumulator with gathering methods.">
<polygon fill="#999999" stroke="transparent" points="158,-199 0,-199 0,0 158,0 158,-199"/>
<text text-anchor="start" x="5" y="-186.5" font-family="Helvetica,sans-Serif" font-size="10.00">cv::TLSDataAccumulator&lt; T &gt;</text>
<text text-anchor="start" x="77" y="-171.5" font-family="Helvetica,sans-Serif" font-size="10.00"> </text>
<text text-anchor="start" x="5.5" y="-156.5" font-family="Helvetica,sans-Serif" font-size="10.00">+</text>
<text text-anchor="start" x="20" y="-156.5" font-family="Helvetica,sans-Serif" font-size="10.00">TLSDataAccumulator()</text>
<text text-anchor="start" x="5.5" y="-141.5" font-family="Helvetica,sans-Serif" font-size="10.00">+</text>
<text text-anchor="start" x="20" y="-141.5" font-family="Helvetica,sans-Serif" font-size="10.00">~TLSDataAccumulator()</text>
<text text-anchor="start" x="5.5" y="-126.5" font-family="Helvetica,sans-Serif" font-size="10.00">+</text>
<text text-anchor="start" x="20" y="-126.5" font-family="Helvetica,sans-Serif" font-size="10.00">cleanup()</text>
<text text-anchor="start" x="5.5" y="-111.5" font-family="Helvetica,sans-Serif" font-size="10.00">+</text>
<text text-anchor="start" x="20" y="-111.5" font-family="Helvetica,sans-Serif" font-size="10.00">cleanupDetachedData()</text>
<text text-anchor="start" x="5.5" y="-96.5" font-family="Helvetica,sans-Serif" font-size="10.00">+</text>
<text text-anchor="start" x="20" y="-96.5" font-family="Helvetica,sans-Serif" font-size="10.00">detachData()</text>
<text text-anchor="start" x="5.5" y="-81.5" font-family="Helvetica,sans-Serif" font-size="10.00">+</text>
<text text-anchor="start" x="20" y="-81.5" font-family="Helvetica,sans-Serif" font-size="10.00">gather()</text>
<text text-anchor="start" x="5.5" y="-66.5" font-family="Helvetica,sans-Serif" font-size="10.00">+</text>
<text text-anchor="start" x="20" y="-66.5" font-family="Helvetica,sans-Serif" font-size="10.00">release()</text>
<text text-anchor="start" x="5.5" y="-51.5" font-family="Helvetica,sans-Serif" font-size="10.00">#</text>
<text text-anchor="start" x="20" y="-51.5" font-family="Helvetica,sans-Serif" font-size="10.00">_cleanupDetachedData()</text>
<text text-anchor="start" x="5.5" y="-36.5" font-family="Helvetica,sans-Serif" font-size="10.00">#</text>
<text text-anchor="start" x="20" y="-36.5" font-family="Helvetica,sans-Serif" font-size="10.00">_cleanupTerminatedData()</text>
<text text-anchor="start" x="5.5" y="-21.5" font-family="Helvetica,sans-Serif" font-size="10.00">#</text>
<text text-anchor="start" x="20" y="-21.5" font-family="Helvetica,sans-Serif" font-size="10.00">createDataInstance()</text>
<text text-anchor="start" x="5.5" y="-6.5" font-family="Helvetica,sans-Serif" font-size="10.00">#</text>
<text text-anchor="start" x="20" y="-6.5" font-family="Helvetica,sans-Serif" font-size="10.00">deleteDataInstance()</text>
<polygon fill="#666666" stroke="#666666" points="0,-181.5 0,-181.5 158,-181.5 158,-181.5 0,-181.5"/>
<polygon fill="#666666" stroke="#666666" points="0,-166.5 0,-166.5 158,-166.5 158,-166.5 0,-166.5"/>
<polygon fill="none" stroke="#666666" points="0,0 0,-199 158,-199 158,0 0,0"/>
</a>
</g>
</g>
<!-- Node2 -->
<g id="Node000002" class="node">
<title>Node2</title>
<g id="a_Node000002"><a xlink:href="../../d9/db0/classcv_1_1TLSData.html" target="_top" xlink:title="Simple TLS data class.">
<polygon fill="white" stroke="transparent" points="141,-374 17,-374 17,-235 141,-235 141,-374"/>
<text text-anchor="start" x="36" y="-361.5" font-family="Helvetica,sans-Serif" font-size="10.00">cv::TLSData&lt; T &gt;</text>
<text text-anchor="start" x="77" y="-346.5" font-family="Helvetica,sans-Serif" font-size="10.00"> </text>
<text text-anchor="start" x="21" y="-331.5" font-family="Helvetica,sans-Serif" font-size="10.00">+</text>
<text text-anchor="start" x="34" y="-331.5" font-family="Helvetica,sans-Serif" font-size="10.00">TLSData()</text>
<text text-anchor="start" x="21" y="-316.5" font-family="Helvetica,sans-Serif" font-size="10.00">+</text>
<text text-anchor="start" x="34" y="-316.5" font-family="Helvetica,sans-Serif" font-size="10.00">~TLSData()</text>
<text text-anchor="start" x="21" y="-301.5" font-family="Helvetica,sans-Serif" font-size="10.00">+</text>
<text text-anchor="start" x="34" y="-301.5" font-family="Helvetica,sans-Serif" font-size="10.00">cleanup()</text>
<text text-anchor="start" x="21" y="-286.5" font-family="Helvetica,sans-Serif" font-size="10.00">+</text>
<text text-anchor="start" x="34" y="-286.5" font-family="Helvetica,sans-Serif" font-size="10.00">get()</text>
<text text-anchor="start" x="21" y="-271.5" font-family="Helvetica,sans-Serif" font-size="10.00">+</text>
<text text-anchor="start" x="34" y="-271.5" font-family="Helvetica,sans-Serif" font-size="10.00">getRef()</text>
<text text-anchor="start" x="21" y="-256.5" font-family="Helvetica,sans-Serif" font-size="10.00">#</text>
<text text-anchor="start" x="34" y="-256.5" font-family="Helvetica,sans-Serif" font-size="10.00">createDataInstance()</text>
<text text-anchor="start" x="21" y="-241.5" font-family="Helvetica,sans-Serif" font-size="10.00">#</text>
<text text-anchor="start" x="34" y="-241.5" font-family="Helvetica,sans-Serif" font-size="10.00">deleteDataInstance()</text>
<polygon fill="#666666" stroke="#666666" points="17,-356.5 17,-356.5 141,-356.5 141,-356.5 17,-356.5"/>
<polygon fill="#666666" stroke="#666666" points="17,-341.5 17,-341.5 141,-341.5 141,-341.5 17,-341.5"/>
<polygon fill="none" stroke="#666666" points="17,-235 17,-374 141,-374 141,-235 17,-235"/>
</a>
</g>
</g>
<!-- Node2&#45;&gt;Node1 -->
<g id="edge1_Node000001_Node000002" class="edge">
<title>Node2&#45;&gt;Node1</title>
<g id="a_edge1_Node000001_Node000002"><a xlink:title=" ">
<path fill="none" stroke="#63b8ff" d="M79,-224.66C79,-216.26 79,-207.65 79,-199.06"/>
<polygon fill="none" stroke="#63b8ff" points="75.5,-224.77 79,-234.77 82.5,-224.77 75.5,-224.77"/>
</a>
</g>
</g>
<!-- Node3 -->
<g id="Node000003" class="node">
<title>Node3</title>
<g id="a_Node000003"><a xlink:href="../../df/d21/classcv_1_1TLSDataContainer.html" target="_top" xlink:title=" ">
<polygon fill="white" stroke="transparent" points="141.5,-579 16.5,-579 16.5,-410 141.5,-410 141.5,-579"/>
<text text-anchor="start" x="27" y="-566.5" font-family="Helvetica,sans-Serif" font-size="10.00">cv::TLSDataContainer</text>
<text text-anchor="start" x="77.5" y="-551.5" font-family="Helvetica,sans-Serif" font-size="10.00"> </text>
<text text-anchor="start" x="21" y="-536.5" font-family="Helvetica,sans-Serif" font-size="10.00">+</text>
<text text-anchor="start" x="34" y="-536.5" font-family="Helvetica,sans-Serif" font-size="10.00">cleanup()</text>
<text text-anchor="start" x="21" y="-521.5" font-family="Helvetica,sans-Serif" font-size="10.00">#</text>
<text text-anchor="start" x="34" y="-521.5" font-family="Helvetica,sans-Serif" font-size="10.00">TLSDataContainer()</text>
<text text-anchor="start" x="21" y="-506.5" font-family="Helvetica,sans-Serif" font-size="10.00">#</text>
<text text-anchor="start" x="34" y="-506.5" font-family="Helvetica,sans-Serif" font-size="10.00">~TLSDataContainer()</text>
<text text-anchor="start" x="21" y="-491.5" font-family="Helvetica,sans-Serif" font-size="10.00">#</text>
<text text-anchor="start" x="34" y="-491.5" font-family="Helvetica,sans-Serif" font-size="10.00">createDataInstance()</text>
<text text-anchor="start" x="21" y="-476.5" font-family="Helvetica,sans-Serif" font-size="10.00">#</text>
<text text-anchor="start" x="34" y="-476.5" font-family="Helvetica,sans-Serif" font-size="10.00">deleteDataInstance()</text>
<text text-anchor="start" x="21" y="-461.5" font-family="Helvetica,sans-Serif" font-size="10.00">#</text>
<text text-anchor="start" x="34" y="-461.5" font-family="Helvetica,sans-Serif" font-size="10.00">detachData()</text>
<text text-anchor="start" x="21" y="-446.5" font-family="Helvetica,sans-Serif" font-size="10.00">#</text>
<text text-anchor="start" x="34" y="-446.5" font-family="Helvetica,sans-Serif" font-size="10.00">gatherData()</text>
<text text-anchor="start" x="21" y="-431.5" font-family="Helvetica,sans-Serif" font-size="10.00">#</text>
<text text-anchor="start" x="34" y="-431.5" font-family="Helvetica,sans-Serif" font-size="10.00">getData()</text>
<text text-anchor="start" x="21" y="-416.5" font-family="Helvetica,sans-Serif" font-size="10.00">#</text>
<text text-anchor="start" x="34" y="-416.5" font-family="Helvetica,sans-Serif" font-size="10.00">release()</text>
<polygon fill="#666666" stroke="#666666" points="17,-561.5 17,-561.5 142,-561.5 142,-561.5 17,-561.5"/>
<polygon fill="#666666" stroke="#666666" points="17,-546.5 17,-546.5 142,-546.5 142,-546.5 17,-546.5"/>
<polygon fill="none" stroke="#666666" points="16.5,-410 16.5,-579 141.5,-579 141.5,-410 16.5,-410"/>
</a>
</g>
</g>
<!-- Node3&#45;&gt;Node2 -->
<g id="edge2_Node000002_Node000003" class="edge">
<title>Node3&#45;&gt;Node2</title>
<g id="a_edge2_Node000002_Node000003"><a xlink:title=" ">
<path fill="none" stroke="darkgreen" d="M79,-399.81C79,-391.17 79,-382.52 79,-374.16"/>
<polygon fill="none" stroke="darkgreen" points="75.5,-399.95 79,-409.95 82.5,-399.95 75.5,-399.95"/>
</a>
</g>
</g>
</g>
</svg>
