<?xml version="1.0" encoding="UTF-8" standalone="no"?>
<!DOCTYPE svg PUBLIC "-//W3C//DTD SVG 1.1//EN"
 "http://www.w3.org/Graphics/SVG/1.1/DTD/svg11.dtd">
<!-- Generated by graphviz version 2.43.0 (0)
 -->
<!-- Title: NCVMatrix&lt; T &gt; Pages: 1 -->
<svg width="219pt" height="355pt"
 viewBox="0.00 0.00 219.00 355.00" xmlns="http://www.w3.org/2000/svg" xmlns:xlink="http://www.w3.org/1999/xlink">
<g id="graph0" class="graph" transform="scale(1 1) rotate(0) translate(4 351)">
<title>NCVMatrix&lt; T &gt;</title>
<!-- Node1 -->
<g id="Node000001" class="node">
<title>Node1</title>
<g id="a_Node000001"><a xlink:title=" ">
<polygon fill="#999999" stroke="transparent" points="116.5,-229 24.5,-229 24.5,0 116.5,0 116.5,-229"/>
<text text-anchor="start" x="29.5" y="-216.5" font-family="Helvetica,sans-Serif" font-size="10.00">NCVMatrix&lt; T &gt;</text>
<text text-anchor="start" x="68.5" y="-201.5" font-family="Helvetica,sans-Serif" font-size="10.00"> </text>
<text text-anchor="start" x="29" y="-186.5" font-family="Helvetica,sans-Serif" font-size="10.00">+</text>
<text text-anchor="start" x="42.5" y="-186.5" font-family="Helvetica,sans-Serif" font-size="10.00">NCVMatrix()</text>
<text text-anchor="start" x="29" y="-171.5" font-family="Helvetica,sans-Serif" font-size="10.00">+</text>
<text text-anchor="start" x="42.5" y="-171.5" font-family="Helvetica,sans-Serif" font-size="10.00">~NCVMatrix()</text>
<text text-anchor="start" x="29" y="-156.5" font-family="Helvetica,sans-Serif" font-size="10.00">+</text>
<text text-anchor="start" x="42.5" y="-156.5" font-family="Helvetica,sans-Serif" font-size="10.00">at()</text>
<text text-anchor="start" x="29" y="-141.5" font-family="Helvetica,sans-Serif" font-size="10.00">+</text>
<text text-anchor="start" x="42.5" y="-141.5" font-family="Helvetica,sans-Serif" font-size="10.00">clear()</text>
<text text-anchor="start" x="29" y="-126.5" font-family="Helvetica,sans-Serif" font-size="10.00">+</text>
<text text-anchor="start" x="42.5" y="-126.5" font-family="Helvetica,sans-Serif" font-size="10.00">copy2D()</text>
<text text-anchor="start" x="29" y="-111.5" font-family="Helvetica,sans-Serif" font-size="10.00">+</text>
<text text-anchor="start" x="42.5" y="-111.5" font-family="Helvetica,sans-Serif" font-size="10.00">copySolid()</text>
<text text-anchor="start" x="29" y="-96.5" font-family="Helvetica,sans-Serif" font-size="10.00">+</text>
<text text-anchor="start" x="42.5" y="-96.5" font-family="Helvetica,sans-Serif" font-size="10.00">height()</text>
<text text-anchor="start" x="29" y="-81.5" font-family="Helvetica,sans-Serif" font-size="10.00">+</text>
<text text-anchor="start" x="42.5" y="-81.5" font-family="Helvetica,sans-Serif" font-size="10.00">memType()</text>
<text text-anchor="start" x="29" y="-66.5" font-family="Helvetica,sans-Serif" font-size="10.00">+</text>
<text text-anchor="start" x="42.5" y="-66.5" font-family="Helvetica,sans-Serif" font-size="10.00">pitch()</text>
<text text-anchor="start" x="29" y="-51.5" font-family="Helvetica,sans-Serif" font-size="10.00">+</text>
<text text-anchor="start" x="42.5" y="-51.5" font-family="Helvetica,sans-Serif" font-size="10.00">ptr()</text>
<text text-anchor="start" x="29" y="-36.5" font-family="Helvetica,sans-Serif" font-size="10.00">+</text>
<text text-anchor="start" x="42.5" y="-36.5" font-family="Helvetica,sans-Serif" font-size="10.00">size()</text>
<text text-anchor="start" x="29" y="-21.5" font-family="Helvetica,sans-Serif" font-size="10.00">+</text>
<text text-anchor="start" x="42.5" y="-21.5" font-family="Helvetica,sans-Serif" font-size="10.00">stride()</text>
<text text-anchor="start" x="29" y="-6.5" font-family="Helvetica,sans-Serif" font-size="10.00">+</text>
<text text-anchor="start" x="42.5" y="-6.5" font-family="Helvetica,sans-Serif" font-size="10.00">width()</text>
<polygon fill="#666666" stroke="#666666" points="24.5,-211.5 24.5,-211.5 116.5,-211.5 116.5,-211.5 24.5,-211.5"/>
<polygon fill="#666666" stroke="#666666" points="24.5,-196.5 24.5,-196.5 116.5,-196.5 116.5,-196.5 24.5,-196.5"/>
<polygon fill="none" stroke="#666666" points="24.5,0 24.5,-229 116.5,-229 116.5,0 24.5,0"/>
</a>
</g>
</g>
<!-- Node2 -->
<g id="Node000002" class="node">
<title>Node2</title>
<g id="a_Node000002"><a xlink:title=" ">
<polygon fill="white" stroke="transparent" points="25,-347 0,-347 0,-298 25,-298 25,-347"/>
<text text-anchor="start" x="5.5" y="-334.5" font-family="Helvetica,sans-Serif" font-size="10.00">T *</text>
<text text-anchor="start" x="11" y="-319.5" font-family="Helvetica,sans-Serif" font-size="10.00"> </text>
<text text-anchor="start" x="11" y="-304.5" font-family="Helvetica,sans-Serif" font-size="10.00"> </text>
<polygon fill="#666666" stroke="#666666" points="0.5,-329.5 0.5,-329.5 25.5,-329.5 25.5,-329.5 0.5,-329.5"/>
<polygon fill="#666666" stroke="#666666" points="0.5,-314.5 0.5,-314.5 25.5,-314.5 25.5,-314.5 0.5,-314.5"/>
<polygon fill="none" stroke="#666666" points="0,-298 0,-347 25,-347 25,-298 0,-298"/>
</a>
</g>
</g>
<!-- Node2&#45;&gt;Node1 -->
<g id="edge1_Node000001_Node000002" class="edge">
<title>Node2&#45;&gt;Node1</title>
<g id="a_edge1_Node000001_Node000002"><a xlink:title=" ">
<path fill="none" stroke="#63b8ff" d="M19.15,-297.87C23.32,-283.09 29.03,-262.77 35.15,-241.05"/>
<polygon fill="none" stroke="#63b8ff" points="35.23,-240.78 33,-233.92 38.48,-229.23 40.7,-236.09 35.23,-240.78"/>
</a>
</g>
<text text-anchor="middle" x="49" y="-261" font-family="Helvetica,sans-Serif" font-size="10.00" fill="grey"> #_ptr</text>
</g>
<!-- Node3 -->
<g id="Node000003" class="node">
<title>Node3</title>
<g id="a_Node000003"><a xlink:title=" ">
<polygon fill="white" stroke="transparent" points="98,-347 43,-347 43,-298 98,-298 98,-347"/>
<text text-anchor="start" x="48.5" y="-334.5" font-family="Helvetica,sans-Serif" font-size="10.00">unsigned</text>
<text text-anchor="start" x="69" y="-319.5" font-family="Helvetica,sans-Serif" font-size="10.00"> </text>
<text text-anchor="start" x="69" y="-304.5" font-family="Helvetica,sans-Serif" font-size="10.00"> </text>
<polygon fill="#666666" stroke="#666666" points="43.5,-329.5 43.5,-329.5 98.5,-329.5 98.5,-329.5 43.5,-329.5"/>
<polygon fill="#666666" stroke="#666666" points="43.5,-314.5 43.5,-314.5 98.5,-314.5 98.5,-314.5 43.5,-314.5"/>
<polygon fill="none" stroke="#666666" points="43,-298 43,-347 98,-347 98,-298 43,-298"/>
</a>
</g>
</g>
<!-- Node3&#45;&gt;Node1 -->
<g id="edge2_Node000001_Node000003" class="edge">
<title>Node3&#45;&gt;Node1</title>
<g id="a_edge2_Node000001_Node000003"><a xlink:title=" ">
<path fill="none" stroke="#63b8ff" d="M70.5,-297.87C70.5,-283.16 70.5,-262.96 70.5,-241.35"/>
<polygon fill="none" stroke="#63b8ff" points="70.5,-241.23 66.5,-235.23 70.5,-229.23 74.5,-235.23 70.5,-241.23"/>
</a>
</g>
<text text-anchor="middle" x="94.5" y="-272" font-family="Helvetica,sans-Serif" font-size="10.00" fill="grey"> #_height</text>
<text text-anchor="middle" x="94.5" y="-261" font-family="Helvetica,sans-Serif" font-size="10.00" fill="grey">#_pitch</text>
<text text-anchor="middle" x="94.5" y="-250" font-family="Helvetica,sans-Serif" font-size="10.00" fill="grey">#_width</text>
</g>
<!-- Node4 -->
<g id="Node000004" class="node">
<title>Node4</title>
<g id="a_Node000004"><a xlink:title=" ">
<polygon fill="white" stroke="transparent" points="211,-347 116,-347 116,-298 211,-298 211,-347"/>
<text text-anchor="start" x="121.5" y="-334.5" font-family="Helvetica,sans-Serif" font-size="10.00">NCVMemoryType</text>
<text text-anchor="start" x="162" y="-319.5" font-family="Helvetica,sans-Serif" font-size="10.00"> </text>
<text text-anchor="start" x="162" y="-304.5" font-family="Helvetica,sans-Serif" font-size="10.00"> </text>
<polygon fill="#666666" stroke="#666666" points="116.5,-329.5 116.5,-329.5 211.5,-329.5 211.5,-329.5 116.5,-329.5"/>
<polygon fill="#666666" stroke="#666666" points="116.5,-314.5 116.5,-314.5 211.5,-314.5 211.5,-314.5 116.5,-314.5"/>
<polygon fill="none" stroke="#666666" points="116,-298 116,-347 211,-347 211,-298 116,-298"/>
</a>
</g>
</g>
<!-- Node4&#45;&gt;Node1 -->
<g id="edge3_Node000001_Node000004" class="edge">
<title>Node4&#45;&gt;Node1</title>
<g id="a_edge3_Node000001_Node000004"><a xlink:title=" ">
<path fill="none" stroke="#63b8ff" d="M152.83,-297.87C144.94,-280.39 133.56,-255.18 121.76,-229.05"/>
<polygon fill="none" stroke="#63b8ff" points="121.63,-228.75 115.51,-224.93 116.69,-217.82 122.81,-221.64 121.63,-228.75"/>
</a>
</g>
<text text-anchor="middle" x="174.5" y="-261" font-family="Helvetica,sans-Serif" font-size="10.00" fill="grey"> #_memtype</text>
</g>
</g>
</svg>
