<?xml version="1.0" encoding="UTF-8" standalone="no"?>
<!DOCTYPE svg PUBLIC "-//W3C//DTD SVG 1.1//EN"
 "http://www.w3.org/Graphics/SVG/1.1/DTD/svg11.dtd">
<!-- Generated by graphviz version 2.43.0 (0)
 -->
<!-- Title: cv::GTypeInfo Pages: 1 -->
<svg width="391pt" height="790pt"
 viewBox="0.00 0.00 391.00 790.00" xmlns="http://www.w3.org/2000/svg" xmlns:xlink="http://www.w3.org/1999/xlink">
<g id="graph0" class="graph" transform="scale(1 1) rotate(0) translate(4 786)">
<title>cv::GTypeInfo</title>
<!-- Node1 -->
<g id="Node000001" class="node">
<title>Node1</title>
<g id="a_Node000001"><a xlink:title=" ">
<polygon fill="#999999" stroke="transparent" points="139,-49 63,-49 63,0 139,0 139,-49"/>
<text text-anchor="start" x="68" y="-36.5" font-family="Helvetica,sans-Serif" font-size="10.00">cv::GTypeInfo</text>
<text text-anchor="start" x="99" y="-21.5" font-family="Helvetica,sans-Serif" font-size="10.00"> </text>
<text text-anchor="start" x="99" y="-6.5" font-family="Helvetica,sans-Serif" font-size="10.00"> </text>
<polygon fill="#666666" stroke="#666666" points="63,-31.5 63,-31.5 139,-31.5 139,-31.5 63,-31.5"/>
<polygon fill="#666666" stroke="#666666" points="63,-16.5 63,-16.5 139,-16.5 139,-16.5 63,-16.5"/>
<polygon fill="none" stroke="#666666" points="63,0 63,-49 139,-49 139,0 63,0"/>
</a>
</g>
</g>
<!-- Node2 -->
<g id="Node000002" class="node">
<title>Node2</title>
<g id="a_Node000002"><a xlink:title=" ">
<polygon fill="white" stroke="transparent" points="48,-259 0,-259 0,-210 48,-210 48,-259"/>
<text text-anchor="start" x="5" y="-246.5" font-family="Helvetica,sans-Serif" font-size="10.00">GShape</text>
<text text-anchor="start" x="22" y="-231.5" font-family="Helvetica,sans-Serif" font-size="10.00"> </text>
<text text-anchor="start" x="22" y="-216.5" font-family="Helvetica,sans-Serif" font-size="10.00"> </text>
<polygon fill="#666666" stroke="#666666" points="0,-241.5 0,-241.5 48,-241.5 48,-241.5 0,-241.5"/>
<polygon fill="#666666" stroke="#666666" points="0,-226.5 0,-226.5 48,-226.5 48,-226.5 0,-226.5"/>
<polygon fill="none" stroke="#666666" points="0,-210 0,-259 48,-259 48,-210 0,-210"/>
</a>
</g>
</g>
<!-- Node2&#45;&gt;Node1 -->
<g id="edge1_Node000001_Node000002" class="edge">
<title>Node2&#45;&gt;Node1</title>
<g id="a_edge1_Node000001_Node000002"><a xlink:title=" ">
<path fill="none" stroke="#63b8ff" d="M23.99,-209.87C24.94,-176.1 30.38,-113.04 56,-67 57.7,-63.95 59.7,-61.01 61.9,-58.18"/>
<polygon fill="none" stroke="#63b8ff" points="62.01,-58.06 63.01,-50.92 69.98,-49.09 68.98,-56.24 62.01,-58.06"/>
</a>
</g>
<text text-anchor="middle" x="76.5" y="-70" font-family="Helvetica,sans-Serif" font-size="10.00" fill="grey"> +shape</text>
</g>
<!-- Node3 -->
<g id="Node000003" class="node">
<title>Node3</title>
<g id="a_Node000003"><a xlink:title=" ">
<polygon fill="white" stroke="transparent" points="136,-259 66,-259 66,-210 136,-210 136,-259"/>
<text text-anchor="start" x="71" y="-246.5" font-family="Helvetica,sans-Serif" font-size="10.00">OpaqueKind</text>
<text text-anchor="start" x="99" y="-231.5" font-family="Helvetica,sans-Serif" font-size="10.00"> </text>
<text text-anchor="start" x="99" y="-216.5" font-family="Helvetica,sans-Serif" font-size="10.00"> </text>
<polygon fill="#666666" stroke="#666666" points="66,-241.5 66,-241.5 136,-241.5 136,-241.5 66,-241.5"/>
<polygon fill="#666666" stroke="#666666" points="66,-226.5 66,-226.5 136,-226.5 136,-226.5 66,-226.5"/>
<polygon fill="none" stroke="#666666" points="66,-210 66,-259 136,-259 136,-210 66,-210"/>
</a>
</g>
</g>
<!-- Node3&#45;&gt;Node1 -->
<g id="edge2_Node000001_Node000003" class="edge">
<title>Node3&#45;&gt;Node1</title>
<g id="a_edge2_Node000001_Node000003"><a xlink:title=" ">
<path fill="none" stroke="#63b8ff" d="M101,-209.64C101,-173.28 101,-103.76 101,-61.32"/>
<polygon fill="none" stroke="#63b8ff" points="101,-61.08 97,-55.08 101,-49.08 105,-55.08 101,-61.08"/>
</a>
</g>
<text text-anchor="middle" x="117.5" y="-70" font-family="Helvetica,sans-Serif" font-size="10.00" fill="grey"> +kind</text>
</g>
<!-- Node4 -->
<g id="Node000004" class="node">
<title>Node4</title>
<g id="a_Node000004"><a xlink:href="../../dc/d3e/classcv_1_1util_1_1variant.html" target="_top" xlink:title=" ">
<polygon fill="white" stroke="transparent" points="276,-373 154,-373 154,-96 276,-96 276,-373"/>
<text text-anchor="start" x="159" y="-360.5" font-family="Helvetica,sans-Serif" font-size="10.00">cv::util::variant&lt;</text>
<text text-anchor="start" x="159" y="-349.5" font-family="Helvetica,sans-Serif" font-size="10.00"> util::monostate, detail</text>
<text text-anchor="start" x="159" y="-338.5" font-family="Helvetica,sans-Serif" font-size="10.00">::ConstructVec, detail</text>
<text text-anchor="start" x="164" y="-327.5" font-family="Helvetica,sans-Serif" font-size="10.00">::ConstructOpaque &gt;</text>
<text text-anchor="start" x="213" y="-312.5" font-family="Helvetica,sans-Serif" font-size="10.00"> </text>
<text text-anchor="start" x="168.5" y="-297.5" font-family="Helvetica,sans-Serif" font-size="10.00">+</text>
<text text-anchor="start" x="192" y="-297.5" font-family="Helvetica,sans-Serif" font-size="10.00">variant()</text>
<text text-anchor="start" x="168.5" y="-282.5" font-family="Helvetica,sans-Serif" font-size="10.00">+</text>
<text text-anchor="start" x="192" y="-282.5" font-family="Helvetica,sans-Serif" font-size="10.00">variant()</text>
<text text-anchor="start" x="168.5" y="-267.5" font-family="Helvetica,sans-Serif" font-size="10.00">+</text>
<text text-anchor="start" x="192" y="-267.5" font-family="Helvetica,sans-Serif" font-size="10.00">variant()</text>
<text text-anchor="start" x="168.5" y="-252.5" font-family="Helvetica,sans-Serif" font-size="10.00">+</text>
<text text-anchor="start" x="192" y="-252.5" font-family="Helvetica,sans-Serif" font-size="10.00">variant()</text>
<text text-anchor="start" x="168.5" y="-237.5" font-family="Helvetica,sans-Serif" font-size="10.00">+</text>
<text text-anchor="start" x="192" y="-237.5" font-family="Helvetica,sans-Serif" font-size="10.00">~variant()</text>
<text text-anchor="start" x="168.5" y="-222.5" font-family="Helvetica,sans-Serif" font-size="10.00">+</text>
<text text-anchor="start" x="192" y="-222.5" font-family="Helvetica,sans-Serif" font-size="10.00">index()</text>
<text text-anchor="start" x="168.5" y="-207.5" font-family="Helvetica,sans-Serif" font-size="10.00">+</text>
<text text-anchor="start" x="192" y="-207.5" font-family="Helvetica,sans-Serif" font-size="10.00">operator=()</text>
<text text-anchor="start" x="168.5" y="-192.5" font-family="Helvetica,sans-Serif" font-size="10.00">+</text>
<text text-anchor="start" x="192" y="-192.5" font-family="Helvetica,sans-Serif" font-size="10.00">operator=()</text>
<text text-anchor="start" x="168.5" y="-177.5" font-family="Helvetica,sans-Serif" font-size="10.00">+</text>
<text text-anchor="start" x="192" y="-177.5" font-family="Helvetica,sans-Serif" font-size="10.00">operator=()</text>
<text text-anchor="start" x="168.5" y="-162.5" font-family="Helvetica,sans-Serif" font-size="10.00">+</text>
<text text-anchor="start" x="192" y="-162.5" font-family="Helvetica,sans-Serif" font-size="10.00">operator=()</text>
<text text-anchor="start" x="168.5" y="-147.5" font-family="Helvetica,sans-Serif" font-size="10.00">+</text>
<text text-anchor="start" x="192" y="-147.5" font-family="Helvetica,sans-Serif" font-size="10.00">operator=()</text>
<text text-anchor="start" x="168.5" y="-132.5" font-family="Helvetica,sans-Serif" font-size="10.00">+</text>
<text text-anchor="start" x="192" y="-132.5" font-family="Helvetica,sans-Serif" font-size="10.00">operator=()</text>
<text text-anchor="start" x="168.5" y="-117.5" font-family="Helvetica,sans-Serif" font-size="10.00">+</text>
<text text-anchor="start" x="192" y="-117.5" font-family="Helvetica,sans-Serif" font-size="10.00">swap()</text>
<text text-anchor="start" x="168.5" y="-102.5" font-family="Helvetica,sans-Serif" font-size="10.00">+</text>
<text text-anchor="start" x="192" y="-102.5" font-family="Helvetica,sans-Serif" font-size="10.00">index_of()</text>
<polygon fill="#666666" stroke="#666666" points="154,-322.5 154,-322.5 276,-322.5 276,-322.5 154,-322.5"/>
<polygon fill="#666666" stroke="#666666" points="154,-307.5 154,-307.5 276,-307.5 276,-307.5 154,-307.5"/>
<polygon fill="none" stroke="#666666" points="154,-96 154,-373 276,-373 276,-96 154,-96"/>
</a>
</g>
</g>
<!-- Node4&#45;&gt;Node1 -->
<g id="edge3_Node000001_Node000004" class="edge">
<title>Node4&#45;&gt;Node1</title>
<g id="a_edge3_Node000001_Node000004"><a xlink:title=" ">
<path fill="none" stroke="#63b8ff" d="M155.36,-95.89C149.83,-85.92 144.03,-76.19 138,-67 136.11,-64.12 134.04,-61.25 131.86,-58.42"/>
<polygon fill="none" stroke="#63b8ff" points="131.81,-58.37 124.91,-56.28 124.18,-49.1 131.09,-51.19 131.81,-58.37"/>
</a>
</g>
<text text-anchor="middle" x="158.5" y="-70" font-family="Helvetica,sans-Serif" font-size="10.00" fill="grey"> +ctor</text>
</g>
<!-- Node5 -->
<g id="Node000005" class="node">
<title>Node5</title>
<g id="a_Node000005"><a xlink:title=" ">
<polygon fill="white" stroke="transparent" points="189,-782 143,-782 143,-733 189,-733 189,-782"/>
<text text-anchor="start" x="148" y="-769.5" font-family="Helvetica,sans-Serif" font-size="10.00">type[1]</text>
<text text-anchor="start" x="164" y="-754.5" font-family="Helvetica,sans-Serif" font-size="10.00"> </text>
<text text-anchor="start" x="164" y="-739.5" font-family="Helvetica,sans-Serif" font-size="10.00"> </text>
<polygon fill="#666666" stroke="#666666" points="143,-764.5 143,-764.5 189,-764.5 189,-764.5 143,-764.5"/>
<polygon fill="#666666" stroke="#666666" points="143,-749.5 143,-749.5 189,-749.5 189,-749.5 143,-749.5"/>
<polygon fill="none" stroke="#666666" points="143,-733 143,-782 189,-782 189,-733 143,-733"/>
</a>
</g>
</g>
<!-- Node5&#45;&gt;Node4 -->
<g id="edge4_Node000004_Node000005" class="edge">
<title>Node5&#45;&gt;Node4</title>
<g id="a_edge4_Node000004_Node000005"><a xlink:title=" ">
<path fill="none" stroke="#63b8ff" d="M163.05,-732.72C161.5,-719.07 159.77,-701.6 159,-686 153.64,-577.69 144.68,-549.5 159,-442 161.49,-423.32 165.19,-403.94 169.52,-384.87"/>
<polygon fill="none" stroke="#63b8ff" points="169.56,-384.72 167.03,-377.97 172.3,-373.04 174.82,-379.79 169.56,-384.72"/>
</a>
</g>
<text text-anchor="middle" x="185.5" y="-561.5" font-family="Helvetica,sans-Serif" font-size="10.00" fill="grey"> #memory</text>
</g>
<!-- Node6 -->
<g id="Node000006" class="node">
<title>Node6</title>
<g id="a_Node000006"><a xlink:href="../../dc/d3e/classcv_1_1util_1_1variant.html" target="_top" xlink:title=" ">
<polygon fill="white" stroke="transparent" points="337,-686 221,-686 221,-442 337,-442 337,-686"/>
<text text-anchor="start" x="226" y="-674" font-family="Helvetica,sans-Serif" font-size="10.00">cv::util::variant&lt; Ts &gt;</text>
<text text-anchor="start" x="277" y="-659" font-family="Helvetica,sans-Serif" font-size="10.00"> </text>
<text text-anchor="start" x="234" y="-644" font-family="Helvetica,sans-Serif" font-size="10.00">+</text>
<text text-anchor="start" x="256" y="-644" font-family="Helvetica,sans-Serif" font-size="10.00">variant()</text>
<text text-anchor="start" x="234" y="-629" font-family="Helvetica,sans-Serif" font-size="10.00">+</text>
<text text-anchor="start" x="256" y="-629" font-family="Helvetica,sans-Serif" font-size="10.00">variant()</text>
<text text-anchor="start" x="234" y="-614" font-family="Helvetica,sans-Serif" font-size="10.00">+</text>
<text text-anchor="start" x="256" y="-614" font-family="Helvetica,sans-Serif" font-size="10.00">variant()</text>
<text text-anchor="start" x="234" y="-599" font-family="Helvetica,sans-Serif" font-size="10.00">+</text>
<text text-anchor="start" x="256" y="-599" font-family="Helvetica,sans-Serif" font-size="10.00">variant()</text>
<text text-anchor="start" x="234" y="-584" font-family="Helvetica,sans-Serif" font-size="10.00">+</text>
<text text-anchor="start" x="256" y="-584" font-family="Helvetica,sans-Serif" font-size="10.00">~variant()</text>
<text text-anchor="start" x="234" y="-569" font-family="Helvetica,sans-Serif" font-size="10.00">+</text>
<text text-anchor="start" x="256" y="-569" font-family="Helvetica,sans-Serif" font-size="10.00">index()</text>
<text text-anchor="start" x="234" y="-554" font-family="Helvetica,sans-Serif" font-size="10.00">+</text>
<text text-anchor="start" x="256" y="-554" font-family="Helvetica,sans-Serif" font-size="10.00">operator=()</text>
<text text-anchor="start" x="234" y="-539" font-family="Helvetica,sans-Serif" font-size="10.00">+</text>
<text text-anchor="start" x="256" y="-539" font-family="Helvetica,sans-Serif" font-size="10.00">operator=()</text>
<text text-anchor="start" x="234" y="-524" font-family="Helvetica,sans-Serif" font-size="10.00">+</text>
<text text-anchor="start" x="256" y="-524" font-family="Helvetica,sans-Serif" font-size="10.00">operator=()</text>
<text text-anchor="start" x="234" y="-509" font-family="Helvetica,sans-Serif" font-size="10.00">+</text>
<text text-anchor="start" x="256" y="-509" font-family="Helvetica,sans-Serif" font-size="10.00">operator=()</text>
<text text-anchor="start" x="234" y="-494" font-family="Helvetica,sans-Serif" font-size="10.00">+</text>
<text text-anchor="start" x="256" y="-494" font-family="Helvetica,sans-Serif" font-size="10.00">operator=()</text>
<text text-anchor="start" x="234" y="-479" font-family="Helvetica,sans-Serif" font-size="10.00">+</text>
<text text-anchor="start" x="256" y="-479" font-family="Helvetica,sans-Serif" font-size="10.00">operator=()</text>
<text text-anchor="start" x="234" y="-464" font-family="Helvetica,sans-Serif" font-size="10.00">+</text>
<text text-anchor="start" x="256" y="-464" font-family="Helvetica,sans-Serif" font-size="10.00">swap()</text>
<text text-anchor="start" x="234" y="-449" font-family="Helvetica,sans-Serif" font-size="10.00">+</text>
<text text-anchor="start" x="256" y="-449" font-family="Helvetica,sans-Serif" font-size="10.00">index_of()</text>
<polygon fill="#666666" stroke="#666666" points="221,-669 221,-669 337,-669 337,-669 221,-669"/>
<polygon fill="#666666" stroke="#666666" points="221,-654 221,-654 337,-654 337,-654 221,-654"/>
<polygon fill="none" stroke="#666666" points="221,-442 221,-686 337,-686 337,-442 221,-442"/>
</a>
</g>
</g>
<!-- Node5&#45;&gt;Node6 -->
<g id="edge6_Node000006_Node000005" class="edge">
<title>Node5&#45;&gt;Node6</title>
<g id="a_edge6_Node000006_Node000005"><a xlink:title=" ">
<path fill="none" stroke="#63b8ff" d="M180.08,-732.63C189.12,-717.31 201.58,-696.21 214.6,-674.13"/>
<polygon fill="none" stroke="#63b8ff" points="214.73,-673.93 214.33,-666.73 220.82,-663.59 221.22,-670.79 214.73,-673.93"/>
</a>
</g>
<text text-anchor="middle" x="222.5" y="-707" font-family="Helvetica,sans-Serif" font-size="10.00" fill="grey"> #memory</text>
</g>
<!-- Node6&#45;&gt;Node4 -->
<g id="edge5_Node000004_Node000006" class="edge">
<title>Node6&#45;&gt;Node4</title>
<g id="a_edge5_Node000004_Node000006"><a xlink:title=" ">
<path fill="none" stroke="orange" d="M253.39,-431.93C249.61,-412.59 245.7,-392.62 241.9,-373.15"/>
<polygon fill="orange" stroke="orange" points="250,-432.84 255.35,-441.98 256.87,-431.5 250,-432.84"/>
</a>
</g>
<text text-anchor="start" x="250" y="-416" font-family="Helvetica,sans-Serif" font-size="10.00" fill="grey"> &lt; util::monostate,</text>
<text text-anchor="start" x="250" y="-405" font-family="Helvetica,sans-Serif" font-size="10.00" fill="grey"> detail::ConstructVec,</text>
<text text-anchor="middle" x="316.5" y="-394" font-family="Helvetica,sans-Serif" font-size="10.00" fill="grey"> detail::ConstructOpaque &gt;</text>
</g>
</g>
</svg>
