<?xml version="1.0" encoding="UTF-8" standalone="no"?>
<!DOCTYPE svg PUBLIC "-//W3C//DTD SVG 1.1//EN"
 "http://www.w3.org/Graphics/SVG/1.1/DTD/svg11.dtd">
<!-- Generated by graphviz version 2.43.0 (0)
 -->
<!-- Title: cv::ximgproc::RICInterpolator Pages: 1 -->
<svg width="160pt" height="583pt"
 viewBox="0.00 0.00 160.00 583.00" xmlns="http://www.w3.org/2000/svg" xmlns:xlink="http://www.w3.org/1999/xlink">
<g id="graph0" class="graph" transform="scale(1 1) rotate(0) translate(4 579)">
<title>cv::ximgproc::RICInterpolator</title>
<!-- Node1 -->
<g id="Node000001" class="node">
<title>Node1</title>
<g id="a_Node000001"><a xlink:title="Sparse match interpolation algorithm based on modified piecewise locally&#45;weighted affine estimator ca...">
<polygon fill="#999999" stroke="transparent" points="152,-199 0,-199 0,0 152,0 152,-199"/>
<text text-anchor="start" x="5" y="-186.5" font-family="Helvetica,sans-Serif" font-size="10.00">cv::ximgproc::RICInterpolator</text>
<text text-anchor="start" x="74" y="-171.5" font-family="Helvetica,sans-Serif" font-size="10.00"> </text>
<text text-anchor="start" x="10" y="-156.5" font-family="Helvetica,sans-Serif" font-size="10.00">+</text>
<text text-anchor="start" x="29" y="-156.5" font-family="Helvetica,sans-Serif" font-size="10.00">getAlpha()</text>
<text text-anchor="start" x="10" y="-141.5" font-family="Helvetica,sans-Serif" font-size="10.00">+</text>
<text text-anchor="start" x="29" y="-141.5" font-family="Helvetica,sans-Serif" font-size="10.00">getFGSLambda()</text>
<text text-anchor="start" x="10" y="-126.5" font-family="Helvetica,sans-Serif" font-size="10.00">+</text>
<text text-anchor="start" x="29" y="-126.5" font-family="Helvetica,sans-Serif" font-size="10.00">getFGSSigma()</text>
<text text-anchor="start" x="10" y="-111.5" font-family="Helvetica,sans-Serif" font-size="10.00">+</text>
<text text-anchor="start" x="29" y="-111.5" font-family="Helvetica,sans-Serif" font-size="10.00">getK()</text>
<text text-anchor="start" x="10" y="-96.5" font-family="Helvetica,sans-Serif" font-size="10.00">+</text>
<text text-anchor="start" x="29" y="-96.5" font-family="Helvetica,sans-Serif" font-size="10.00">getMaxFlow()</text>
<text text-anchor="start" x="10" y="-81.5" font-family="Helvetica,sans-Serif" font-size="10.00">+</text>
<text text-anchor="start" x="29" y="-81.5" font-family="Helvetica,sans-Serif" font-size="10.00">getModelIter()</text>
<text text-anchor="start" x="10" y="-66.5" font-family="Helvetica,sans-Serif" font-size="10.00">+</text>
<text text-anchor="start" x="29" y="-66.5" font-family="Helvetica,sans-Serif" font-size="10.00">getRefineModels()</text>
<text text-anchor="start" x="10" y="-51.5" font-family="Helvetica,sans-Serif" font-size="10.00">+</text>
<text text-anchor="start" x="29" y="-51.5" font-family="Helvetica,sans-Serif" font-size="10.00">getSuperpixelMode()</text>
<text text-anchor="start" x="10" y="-36.5" font-family="Helvetica,sans-Serif" font-size="10.00">+</text>
<text text-anchor="start" x="29" y="-36.5" font-family="Helvetica,sans-Serif" font-size="10.00">getSuperpixelNNCnt()</text>
<text text-anchor="start" x="10" y="-21.5" font-family="Helvetica,sans-Serif" font-size="10.00">+</text>
<text text-anchor="start" x="29" y="-21.5" font-family="Helvetica,sans-Serif" font-size="10.00">getSuperpixelRuler()</text>
<text text-anchor="start" x="29" y="-6.5" font-family="Helvetica,sans-Serif" font-size="10.00">and 17 more...</text>
<polygon fill="#666666" stroke="#666666" points="0,-181.5 0,-181.5 152,-181.5 152,-181.5 0,-181.5"/>
<polygon fill="#666666" stroke="#666666" points="0,-166.5 0,-166.5 152,-166.5 152,-166.5 0,-166.5"/>
<polygon fill="none" stroke="#666666" points="0,0 0,-199 152,-199 152,0 0,0"/>
</a>
</g>
</g>
<!-- Node2 -->
<g id="Node000002" class="node">
<title>Node2</title>
<g id="a_Node000002"><a xlink:href="../../d4/da8/classcv_1_1ximgproc_1_1SparseMatchInterpolator.html" target="_top" xlink:title="Main interface for all filters, that take sparse matches as an input and produce a dense per&#45;pixel ma...">
<polygon fill="white" stroke="transparent" points="147,-295 5,-295 5,-235 147,-235 147,-295"/>
<text text-anchor="start" x="10" y="-283" font-family="Helvetica,sans-Serif" font-size="10.00">cv::ximgproc::SparseMatch</text>
<text text-anchor="start" x="47" y="-272" font-family="Helvetica,sans-Serif" font-size="10.00">Interpolator</text>
<text text-anchor="start" x="74" y="-257" font-family="Helvetica,sans-Serif" font-size="10.00"> </text>
<text text-anchor="start" x="24" y="-242" font-family="Helvetica,sans-Serif" font-size="10.00">+</text>
<text text-anchor="start" x="52" y="-242" font-family="Helvetica,sans-Serif" font-size="10.00">interpolate()</text>
<polygon fill="#666666" stroke="#666666" points="5,-267 5,-267 147,-267 147,-267 5,-267"/>
<polygon fill="#666666" stroke="#666666" points="5,-252 5,-252 147,-252 147,-252 5,-252"/>
<polygon fill="none" stroke="#666666" points="5,-235 5,-295 147,-295 147,-235 5,-235"/>
</a>
</g>
</g>
<!-- Node2&#45;&gt;Node1 -->
<g id="edge1_Node000001_Node000002" class="edge">
<title>Node2&#45;&gt;Node1</title>
<g id="a_edge1_Node000001_Node000002"><a xlink:title=" ">
<path fill="none" stroke="#63b8ff" d="M76,-224.51C76,-216.62 76,-208.01 76,-199.13"/>
<polygon fill="none" stroke="#63b8ff" points="72.5,-224.77 76,-234.77 79.5,-224.77 72.5,-224.77"/>
</a>
</g>
</g>
<!-- Node3 -->
<g id="Node000003" class="node">
<title>Node3</title>
<g id="a_Node000003"><a xlink:href="../../d3/d46/classcv_1_1Algorithm.html" target="_top" xlink:title="This is a base class for all more or less complex algorithms in OpenCV.">
<polygon fill="white" stroke="transparent" points="131,-575 21,-575 21,-331 131,-331 131,-575"/>
<text text-anchor="start" x="43.5" y="-563" font-family="Helvetica,sans-Serif" font-size="10.00">cv::Algorithm</text>
<text text-anchor="start" x="74" y="-548" font-family="Helvetica,sans-Serif" font-size="10.00"> </text>
<text text-anchor="start" x="25" y="-533" font-family="Helvetica,sans-Serif" font-size="10.00">+</text>
<text text-anchor="start" x="38" y="-533" font-family="Helvetica,sans-Serif" font-size="10.00">Algorithm()</text>
<text text-anchor="start" x="25" y="-518" font-family="Helvetica,sans-Serif" font-size="10.00">+</text>
<text text-anchor="start" x="38" y="-518" font-family="Helvetica,sans-Serif" font-size="10.00">~Algorithm()</text>
<text text-anchor="start" x="25" y="-503" font-family="Helvetica,sans-Serif" font-size="10.00">+</text>
<text text-anchor="start" x="38" y="-503" font-family="Helvetica,sans-Serif" font-size="10.00">clear()</text>
<text text-anchor="start" x="25" y="-488" font-family="Helvetica,sans-Serif" font-size="10.00">+</text>
<text text-anchor="start" x="38" y="-488" font-family="Helvetica,sans-Serif" font-size="10.00">empty()</text>
<text text-anchor="start" x="25" y="-473" font-family="Helvetica,sans-Serif" font-size="10.00">+</text>
<text text-anchor="start" x="38" y="-473" font-family="Helvetica,sans-Serif" font-size="10.00">getDefaultName()</text>
<text text-anchor="start" x="25" y="-458" font-family="Helvetica,sans-Serif" font-size="10.00">+</text>
<text text-anchor="start" x="38" y="-458" font-family="Helvetica,sans-Serif" font-size="10.00">read()</text>
<text text-anchor="start" x="25" y="-443" font-family="Helvetica,sans-Serif" font-size="10.00">+</text>
<text text-anchor="start" x="38" y="-443" font-family="Helvetica,sans-Serif" font-size="10.00">save()</text>
<text text-anchor="start" x="25" y="-428" font-family="Helvetica,sans-Serif" font-size="10.00">+</text>
<text text-anchor="start" x="38" y="-428" font-family="Helvetica,sans-Serif" font-size="10.00">write()</text>
<text text-anchor="start" x="25" y="-413" font-family="Helvetica,sans-Serif" font-size="10.00">+</text>
<text text-anchor="start" x="38" y="-413" font-family="Helvetica,sans-Serif" font-size="10.00">write()</text>
<text text-anchor="start" x="25" y="-398" font-family="Helvetica,sans-Serif" font-size="10.00">+</text>
<text text-anchor="start" x="38" y="-398" font-family="Helvetica,sans-Serif" font-size="10.00">write()</text>
<text text-anchor="start" x="25" y="-383" font-family="Helvetica,sans-Serif" font-size="10.00">+</text>
<text text-anchor="start" x="38" y="-383" font-family="Helvetica,sans-Serif" font-size="10.00">load()</text>
<text text-anchor="start" x="25" y="-368" font-family="Helvetica,sans-Serif" font-size="10.00">+</text>
<text text-anchor="start" x="38" y="-368" font-family="Helvetica,sans-Serif" font-size="10.00">loadFromString()</text>
<text text-anchor="start" x="25" y="-353" font-family="Helvetica,sans-Serif" font-size="10.00">+</text>
<text text-anchor="start" x="38" y="-353" font-family="Helvetica,sans-Serif" font-size="10.00">read()</text>
<text text-anchor="start" x="25" y="-338" font-family="Helvetica,sans-Serif" font-size="10.00">#</text>
<text text-anchor="start" x="38" y="-338" font-family="Helvetica,sans-Serif" font-size="10.00">writeFormat()</text>
<polygon fill="#666666" stroke="#666666" points="21,-558 21,-558 131,-558 131,-558 21,-558"/>
<polygon fill="#666666" stroke="#666666" points="21,-543 21,-543 131,-543 131,-543 21,-543"/>
<polygon fill="none" stroke="#666666" points="21,-331 21,-575 131,-575 131,-331 21,-331"/>
</a>
</g>
</g>
<!-- Node3&#45;&gt;Node2 -->
<g id="edge2_Node000002_Node000003" class="edge">
<title>Node3&#45;&gt;Node2</title>
<g id="a_edge2_Node000002_Node000003"><a xlink:title=" ">
<path fill="none" stroke="#63b8ff" d="M76,-320.52C76,-311.26 76,-302.61 76,-295.06"/>
<polygon fill="none" stroke="#63b8ff" points="72.5,-320.79 76,-330.79 79.5,-320.79 72.5,-320.79"/>
</a>
</g>
</g>
</g>
</svg>
