<?xml version="1.0" encoding="UTF-8" standalone="no"?>
<!DOCTYPE svg PUBLIC "-//W3C//DTD SVG 1.1//EN"
 "http://www.w3.org/Graphics/SVG/1.1/DTD/svg11.dtd">
<!-- Generated by graphviz version 2.43.0 (0)
 -->
<!-- Title: cv::cudev::GlobPtrSz&lt; T &gt; Pages: 1 -->
<svg width="186pt" height="305pt"
 viewBox="0.00 0.00 185.50 305.00" xmlns="http://www.w3.org/2000/svg" xmlns:xlink="http://www.w3.org/1999/xlink">
<g id="graph0" class="graph" transform="scale(1 1) rotate(0) translate(4 301)">
<title>cv::cudev::GlobPtrSz&lt; T &gt;</title>
<!-- Node1 -->
<g id="Node000001" class="node">
<title>Node1</title>
<g id="a_Node000001"><a xlink:title="Lightweight class encapsulating pitched memory on a GPU and passed to nvcc&#45;compiled code (CUDA kernel...">
<polygon fill="#999999" stroke="transparent" points="177.5,-49 40.5,-49 40.5,0 177.5,0 177.5,-49"/>
<text text-anchor="start" x="46" y="-36.5" font-family="Helvetica,sans-Serif" font-size="10.00">cv::cudev::GlobPtrSz&lt; T &gt;</text>
<text text-anchor="start" x="107.5" y="-21.5" font-family="Helvetica,sans-Serif" font-size="10.00"> </text>
<text text-anchor="start" x="107.5" y="-6.5" font-family="Helvetica,sans-Serif" font-size="10.00"> </text>
<polygon fill="#666666" stroke="#666666" points="41,-31.5 41,-31.5 178,-31.5 178,-31.5 41,-31.5"/>
<polygon fill="#666666" stroke="#666666" points="41,-16.5 41,-16.5 178,-16.5 178,-16.5 41,-16.5"/>
<polygon fill="none" stroke="#666666" points="40.5,0 40.5,-49 177.5,-49 177.5,0 40.5,0"/>
</a>
</g>
</g>
<!-- Node2 -->
<g id="Node000002" class="node">
<title>Node2</title>
<g id="a_Node000002"><a xlink:href="../../d9/d77/structcv_1_1cudev_1_1GlobPtr.html" target="_top" xlink:title="Structure similar to cv::cudev::GlobPtrSz but containing only a pointer and row step.">
<polygon fill="white" stroke="transparent" points="126,-201 0,-201 0,-107 126,-107 126,-201"/>
<text text-anchor="start" x="5" y="-189" font-family="Helvetica,sans-Serif" font-size="10.00">cv::cudev::GlobPtr&lt; T &gt;</text>
<text text-anchor="start" x="61" y="-174" font-family="Helvetica,sans-Serif" font-size="10.00"> </text>
<text text-anchor="start" x="16" y="-159" font-family="Helvetica,sans-Serif" font-size="10.00">+</text>
<text text-anchor="start" x="41" y="-159" font-family="Helvetica,sans-Serif" font-size="10.00">operator()()</text>
<text text-anchor="start" x="16" y="-144" font-family="Helvetica,sans-Serif" font-size="10.00">+</text>
<text text-anchor="start" x="41" y="-144" font-family="Helvetica,sans-Serif" font-size="10.00">operator()()</text>
<text text-anchor="start" x="16" y="-129" font-family="Helvetica,sans-Serif" font-size="10.00">+</text>
<text text-anchor="start" x="41" y="-129" font-family="Helvetica,sans-Serif" font-size="10.00">row()</text>
<text text-anchor="start" x="16" y="-114" font-family="Helvetica,sans-Serif" font-size="10.00">+</text>
<text text-anchor="start" x="41" y="-114" font-family="Helvetica,sans-Serif" font-size="10.00">row()</text>
<polygon fill="#666666" stroke="#666666" points="0,-184 0,-184 126,-184 126,-184 0,-184"/>
<polygon fill="#666666" stroke="#666666" points="0,-169 0,-169 126,-169 126,-169 0,-169"/>
<polygon fill="none" stroke="#666666" points="0,-107 0,-201 126,-201 126,-107 0,-107"/>
</a>
</g>
</g>
<!-- Node2&#45;&gt;Node1 -->
<g id="edge1_Node000001_Node000002" class="edge">
<title>Node2&#45;&gt;Node1</title>
<g id="a_edge1_Node000001_Node000002"><a xlink:title=" ">
<path fill="none" stroke="#63b8ff" d="M83.13,-97.19C89.2,-80.38 95.54,-62.81 100.42,-49.28"/>
<polygon fill="none" stroke="#63b8ff" points="79.71,-96.38 79.61,-106.97 86.29,-98.75 79.71,-96.38"/>
</a>
</g>
</g>
<!-- Node3 -->
<g id="Node000003" class="node">
<title>Node3</title>
<g id="a_Node000003"><a xlink:title=" ">
<polygon fill="white" stroke="transparent" points="47.5,-297 22.5,-297 22.5,-248 47.5,-248 47.5,-297"/>
<text text-anchor="start" x="28" y="-284.5" font-family="Helvetica,sans-Serif" font-size="10.00">T *</text>
<text text-anchor="start" x="33.5" y="-269.5" font-family="Helvetica,sans-Serif" font-size="10.00"> </text>
<text text-anchor="start" x="33.5" y="-254.5" font-family="Helvetica,sans-Serif" font-size="10.00"> </text>
<polygon fill="#666666" stroke="#666666" points="23,-279.5 23,-279.5 48,-279.5 48,-279.5 23,-279.5"/>
<polygon fill="#666666" stroke="#666666" points="23,-264.5 23,-264.5 48,-264.5 48,-264.5 23,-264.5"/>
<polygon fill="none" stroke="#666666" points="22.5,-248 22.5,-297 47.5,-297 47.5,-248 22.5,-248"/>
</a>
</g>
</g>
<!-- Node3&#45;&gt;Node2 -->
<g id="edge2_Node000002_Node000003" class="edge">
<title>Node3&#45;&gt;Node2</title>
<g id="a_edge2_Node000002_Node000003"><a xlink:title=" ">
<path fill="none" stroke="#63b8ff" d="M33.56,-247.76C33.5,-238.68 34.03,-228.27 36,-219 36.43,-216.97 36.92,-214.93 37.47,-212.88"/>
<polygon fill="none" stroke="#63b8ff" points="37.55,-212.63 35.52,-205.71 41.12,-201.17 43.15,-208.09 37.55,-212.63"/>
</a>
</g>
<text text-anchor="middle" x="53" y="-222" font-family="Helvetica,sans-Serif" font-size="10.00" fill="grey"> +data</text>
</g>
<!-- Node4 -->
<g id="Node000004" class="node">
<title>Node4</title>
<g id="a_Node000004"><a xlink:title=" ">
<polygon fill="white" stroke="transparent" points="111.5,-297 72.5,-297 72.5,-248 111.5,-248 111.5,-297"/>
<text text-anchor="start" x="78" y="-284.5" font-family="Helvetica,sans-Serif" font-size="10.00">size_t</text>
<text text-anchor="start" x="90.5" y="-269.5" font-family="Helvetica,sans-Serif" font-size="10.00"> </text>
<text text-anchor="start" x="90.5" y="-254.5" font-family="Helvetica,sans-Serif" font-size="10.00"> </text>
<polygon fill="#666666" stroke="#666666" points="73,-279.5 73,-279.5 112,-279.5 112,-279.5 73,-279.5"/>
<polygon fill="#666666" stroke="#666666" points="73,-264.5 73,-264.5 112,-264.5 112,-264.5 73,-264.5"/>
<polygon fill="none" stroke="#666666" points="72.5,-248 72.5,-297 111.5,-297 111.5,-248 72.5,-248"/>
</a>
</g>
</g>
<!-- Node4&#45;&gt;Node2 -->
<g id="edge3_Node000002_Node000004" class="edge">
<title>Node4&#45;&gt;Node2</title>
<g id="a_edge3_Node000002_Node000004"><a xlink:title=" ">
<path fill="none" stroke="#63b8ff" d="M86.13,-247.92C83.6,-237.75 80.51,-225.35 77.43,-212.97"/>
<polygon fill="none" stroke="#63b8ff" points="77.39,-212.82 72.06,-207.96 74.49,-201.17 79.83,-206.03 77.39,-212.82"/>
</a>
</g>
<text text-anchor="middle" x="97.5" y="-222" font-family="Helvetica,sans-Serif" font-size="10.00" fill="grey"> +step</text>
</g>
<!-- Node5 -->
<g id="Node000005" class="node">
<title>Node5</title>
<g id="a_Node000005"><a xlink:title=" ">
<polygon fill="white" stroke="transparent" points="167.5,-178.5 144.5,-178.5 144.5,-129.5 167.5,-129.5 167.5,-178.5"/>
<text text-anchor="start" x="150" y="-166" font-family="Helvetica,sans-Serif" font-size="10.00">int</text>
<text text-anchor="start" x="154.5" y="-151" font-family="Helvetica,sans-Serif" font-size="10.00"> </text>
<text text-anchor="start" x="154.5" y="-136" font-family="Helvetica,sans-Serif" font-size="10.00"> </text>
<polygon fill="#666666" stroke="#666666" points="145,-161 145,-161 168,-161 168,-161 145,-161"/>
<polygon fill="#666666" stroke="#666666" points="145,-146 145,-146 168,-146 168,-146 145,-146"/>
<polygon fill="none" stroke="#666666" points="144.5,-129.5 144.5,-178.5 167.5,-178.5 167.5,-129.5 144.5,-129.5"/>
</a>
</g>
</g>
<!-- Node5&#45;&gt;Node1 -->
<g id="edge4_Node000001_Node000005" class="edge">
<title>Node5&#45;&gt;Node1</title>
<g id="a_edge4_Node000001_Node000005"><a xlink:title=" ">
<path fill="none" stroke="#63b8ff" d="M147.27,-129.32C140.15,-109.99 129.98,-82.41 121.91,-60.53"/>
<polygon fill="none" stroke="#63b8ff" points="121.83,-60.32 116.01,-56.07 117.68,-49.06 123.51,-53.3 121.83,-60.32"/>
</a>
</g>
<text text-anchor="middle" x="147" y="-81" font-family="Helvetica,sans-Serif" font-size="10.00" fill="grey"> +cols</text>
<text text-anchor="middle" x="147" y="-70" font-family="Helvetica,sans-Serif" font-size="10.00" fill="grey">+rows</text>
</g>
</g>
</svg>
