<?xml version="1.0" encoding="UTF-8" standalone="no"?>
<!DOCTYPE svg PUBLIC "-//W3C//DTD SVG 1.1//EN"
 "http://www.w3.org/Graphics/SVG/1.1/DTD/svg11.dtd">
<!-- Generated by graphviz version 2.43.0 (0)
 -->
<!-- Title: cv::Algorithm::load Pages: 1 -->
<svg width="292pt" height="113pt"
 viewBox="0.00 0.00 292.00 113.00" xmlns="http://www.w3.org/2000/svg" xmlns:xlink="http://www.w3.org/1999/xlink">
<g id="graph0" class="graph" transform="scale(1 1) rotate(0) translate(4 109)">
<title>cv::Algorithm::load</title>
<!-- Node1 -->
<g id="Node000001" class="node">
<title>Node1</title>
<g id="a_Node000001"><a xlink:title="Loads algorithm from the file.">
<polygon fill="#999999" stroke="#666666" points="108,-62 0,-62 0,-43 108,-43 108,-62"/>
<text text-anchor="middle" x="54" y="-50" font-family="Helvetica,sans-Serif" font-size="10.00">cv::Algorithm::load</text>
</a>
</g>
</g>
<!-- Node2 -->
<g id="Node000002" class="node">
<title>Node2</title>
<g id="a_Node000002"><a xlink:href="../../de/dd9/classcv_1_1FileNode.html#a82d59aab4765da6140c238c54aadfa92" target="_top" xlink:title="returns true if the node is empty">
<polygon fill="white" stroke="#666666" points="270.5,-105 157.5,-105 157.5,-86 270.5,-86 270.5,-105"/>
<text text-anchor="middle" x="214" y="-93" font-family="Helvetica,sans-Serif" font-size="10.00">cv::FileNode::empty</text>
</a>
</g>
</g>
<!-- Node1&#45;&gt;Node2 -->
<g id="edge1_Node000001_Node000002" class="edge">
<title>Node1&#45;&gt;Node2</title>
<g id="a_edge1_Node000001_Node000002"><a xlink:title=" ">
<path fill="none" stroke="#63b8ff" d="M90.07,-62.04C113.08,-68.31 143.38,-76.55 168.15,-83.29"/>
<polygon fill="#63b8ff" stroke="#63b8ff" points="167.46,-86.73 178.03,-85.98 169.3,-79.98 167.46,-86.73"/>
</a>
</g>
</g>
<!-- Node3 -->
<g id="Node000003" class="node">
<title>Node3</title>
<g id="a_Node000003"><a xlink:href="../../da/d56/classcv_1_1FileStorage.html#a7153604af73ca7de43b977eedd1bbe09" target="_top" xlink:title="Returns the first element of the top&#45;level mapping.">
<polygon fill="white" stroke="#666666" points="279.5,-67.5 148.5,-67.5 148.5,-37.5 279.5,-37.5 279.5,-67.5"/>
<text text-anchor="start" x="156.5" y="-55.5" font-family="Helvetica,sans-Serif" font-size="10.00">cv::FileStorage::getFirst</text>
<text text-anchor="middle" x="214" y="-44.5" font-family="Helvetica,sans-Serif" font-size="10.00">TopLevelNode</text>
</a>
</g>
</g>
<!-- Node1&#45;&gt;Node3 -->
<g id="edge2_Node000001_Node000003" class="edge">
<title>Node1&#45;&gt;Node3</title>
<g id="a_edge2_Node000001_Node000003"><a xlink:title=" ">
<path fill="none" stroke="#63b8ff" d="M108.05,-52.5C117.73,-52.5 128,-52.5 138.18,-52.5"/>
<polygon fill="#63b8ff" stroke="#63b8ff" points="138.29,-56 148.29,-52.5 138.29,-49 138.29,-56"/>
</a>
</g>
</g>
<!-- Node4 -->
<g id="Node000004" class="node">
<title>Node4</title>
<g id="a_Node000004"><a xlink:href="../../da/d56/classcv_1_1FileStorage.html#aa952c31f4e632595cd5ac107913f4fd1" target="_top" xlink:title="Checks whether the file is opened.">
<polygon fill="white" stroke="#666666" points="284,-19 144,-19 144,0 284,0 284,-19"/>
<text text-anchor="middle" x="214" y="-7" font-family="Helvetica,sans-Serif" font-size="10.00">cv::FileStorage::isOpened</text>
</a>
</g>
</g>
<!-- Node1&#45;&gt;Node4 -->
<g id="edge3_Node000001_Node000004" class="edge">
<title>Node1&#45;&gt;Node4</title>
<g id="a_edge3_Node000001_Node000004"><a xlink:title=" ">
<path fill="none" stroke="#63b8ff" d="M90.07,-42.96C113.08,-36.69 143.38,-28.45 168.15,-21.71"/>
<polygon fill="#63b8ff" stroke="#63b8ff" points="169.3,-25.02 178.03,-19.02 167.46,-18.27 169.3,-25.02"/>
</a>
</g>
</g>
</g>
</svg>
