<?xml version="1.0" encoding="UTF-8" standalone="no"?>
<!DOCTYPE svg PUBLIC "-//W3C//DTD SVG 1.1//EN"
 "http://www.w3.org/Graphics/SVG/1.1/DTD/svg11.dtd">
<!-- Generated by graphviz version 2.43.0 (0)
 -->
<!-- Title: cv::gapi::imgproc::G_TYPED_KERNEL Pages: 1 -->
<svg width="283pt" height="64pt"
 viewBox="0.00 0.00 283.00 64.00" xmlns="http://www.w3.org/2000/svg" xmlns:xlink="http://www.w3.org/1999/xlink">
<g id="graph0" class="graph" transform="scale(1 1) rotate(0) translate(4 60)">
<title>cv::gapi::imgproc::G_TYPED_KERNEL</title>
<!-- Node1 -->
<g id="Node000001" class="node">
<title>Node1</title>
<g id="a_Node000001"><a xlink:title=" ">
<polygon fill="#999999" stroke="#666666" points="106,-42.5 0,-42.5 0,-12.5 106,-12.5 106,-42.5"/>
<text text-anchor="start" x="8" y="-30.5" font-family="Helvetica,sans-Serif" font-size="10.00">cv::gapi::imgproc::</text>
<text text-anchor="middle" x="53" y="-19.5" font-family="Helvetica,sans-Serif" font-size="10.00">G_TYPED_KERNEL</text>
</a>
</g>
</g>
<!-- Node2 -->
<g id="Node000002" class="node">
<title>Node2</title>
<g id="a_Node000002"><a xlink:href="../../d0/d82/structcv_1_1GMatDesc.html#aa4b922bb47e8eb25ff1c04bd3492e8fd" target="_top" xlink:title=" ">
<polygon fill="white" stroke="#666666" points="274,-56 143,-56 143,-37 274,-37 274,-56"/>
<text text-anchor="middle" x="208.5" y="-44" font-family="Helvetica,sans-Serif" font-size="10.00">cv::GMatDesc::withSize</text>
</a>
</g>
</g>
<!-- Node1&#45;&gt;Node2 -->
<g id="edge1_Node000001_Node000002" class="edge">
<title>Node1&#45;&gt;Node2</title>
<g id="a_edge1_Node000001_Node000002"><a xlink:title=" ">
<path fill="none" stroke="#63b8ff" d="M106.4,-33.99C114.92,-35.04 123.88,-36.15 132.81,-37.25"/>
<polygon fill="#63b8ff" stroke="#63b8ff" points="132.49,-40.74 142.85,-38.5 133.35,-33.8 132.49,-40.74"/>
</a>
</g>
</g>
<!-- Node3 -->
<g id="Node000003" class="node">
<title>Node3</title>
<g id="a_Node000003"><a xlink:href="../../d0/d82/structcv_1_1GMatDesc.html#a757aa00ebfaab7bc18a089bacef9bd28" target="_top" xlink:title=" ">
<polygon fill="white" stroke="#666666" points="275,-19 142,-19 142,0 275,0 275,-19"/>
<text text-anchor="middle" x="208.5" y="-7" font-family="Helvetica,sans-Serif" font-size="10.00">cv::GMatDesc::withType</text>
</a>
</g>
</g>
<!-- Node1&#45;&gt;Node3 -->
<g id="edge2_Node000001_Node000003" class="edge">
<title>Node1&#45;&gt;Node3</title>
<g id="a_edge2_Node000001_Node000003"><a xlink:title=" ">
<path fill="none" stroke="#63b8ff" d="M106.4,-21.36C114.57,-20.4 123.16,-19.39 131.74,-18.38"/>
<polygon fill="#63b8ff" stroke="#63b8ff" points="132.24,-21.85 141.77,-17.21 131.43,-14.9 132.24,-21.85"/>
</a>
</g>
</g>
</g>
</svg>
