<?xml version="1.0" encoding="UTF-8" standalone="no"?>
<!DOCTYPE svg PUBLIC "-//W3C//DTD SVG 1.1//EN"
 "http://www.w3.org/Graphics/SVG/1.1/DTD/svg11.dtd">
<!-- Generated by graphviz version 2.43.0 (0)
 -->
<!-- Title: cv::cudev::IntegerAreaInterPtrSz&lt; SrcPtr &gt; Pages: 1 -->
<svg width="202pt" height="272pt"
 viewBox="0.00 0.00 202.00 272.00" xmlns="http://www.w3.org/2000/svg" xmlns:xlink="http://www.w3.org/1999/xlink">
<g id="graph0" class="graph" transform="scale(1 1) rotate(0) translate(4 268)">
<title>cv::cudev::IntegerAreaInterPtrSz&lt; SrcPtr &gt;</title>
<!-- Node1 -->
<g id="Node000001" class="node">
<title>Node1</title>
<g id="a_Node000001"><a xlink:title=" ">
<polygon fill="#999999" stroke="transparent" points="194,-60 53,-60 53,0 194,0 194,-60"/>
<text text-anchor="start" x="58.5" y="-48" font-family="Helvetica,sans-Serif" font-size="10.00">cv::cudev::IntegerAreaInter</text>
<text text-anchor="start" x="86" y="-37" font-family="Helvetica,sans-Serif" font-size="10.00">PtrSz&lt; SrcPtr &gt;</text>
<text text-anchor="start" x="122" y="-22" font-family="Helvetica,sans-Serif" font-size="10.00"> </text>
<text text-anchor="start" x="122" y="-7" font-family="Helvetica,sans-Serif" font-size="10.00"> </text>
<polygon fill="#666666" stroke="#666666" points="53.5,-32 53.5,-32 194.5,-32 194.5,-32 53.5,-32"/>
<polygon fill="#666666" stroke="#666666" points="53.5,-17 53.5,-17 194.5,-17 194.5,-17 53.5,-17"/>
<polygon fill="none" stroke="#666666" points="53,0 53,-60 194,-60 194,0 53,0"/>
</a>
</g>
</g>
<!-- Node2 -->
<g id="Node000002" class="node">
<title>Node2</title>
<g id="a_Node000002"><a xlink:href="../../d3/de3/structcv_1_1cudev_1_1IntegerAreaInterPtr.html" target="_top" xlink:title=" ">
<polygon fill="white" stroke="transparent" points="141,-157 0,-157 0,-97 141,-97 141,-157"/>
<text text-anchor="start" x="5.5" y="-145" font-family="Helvetica,sans-Serif" font-size="10.00">cv::cudev::IntegerAreaInter</text>
<text text-anchor="start" x="38.5" y="-134" font-family="Helvetica,sans-Serif" font-size="10.00">Ptr&lt; SrcPtr &gt;</text>
<text text-anchor="start" x="69" y="-119" font-family="Helvetica,sans-Serif" font-size="10.00"> </text>
<text text-anchor="start" x="20" y="-104" font-family="Helvetica,sans-Serif" font-size="10.00">+</text>
<text text-anchor="start" x="48.5" y="-104" font-family="Helvetica,sans-Serif" font-size="10.00">operator()()</text>
<polygon fill="#666666" stroke="#666666" points="0.5,-129 0.5,-129 141.5,-129 141.5,-129 0.5,-129"/>
<polygon fill="#666666" stroke="#666666" points="0.5,-114 0.5,-114 141.5,-114 141.5,-114 0.5,-114"/>
<polygon fill="none" stroke="#666666" points="0,-97 0,-157 141,-157 141,-97 0,-97"/>
</a>
</g>
</g>
<!-- Node2&#45;&gt;Node1 -->
<g id="edge1_Node000001_Node000002" class="edge">
<title>Node2&#45;&gt;Node1</title>
<g id="a_edge1_Node000001_Node000002"><a xlink:title=" ">
<path fill="none" stroke="#63b8ff" d="M91.57,-88.24C96.78,-78.9 102.28,-69.03 107.23,-60.17"/>
<polygon fill="none" stroke="#63b8ff" points="88.51,-86.54 86.69,-96.98 94.62,-89.95 88.51,-86.54"/>
</a>
</g>
</g>
<!-- Node3 -->
<g id="Node000003" class="node">
<title>Node3</title>
<g id="a_Node000003"><a xlink:title=" ">
<polygon fill="white" stroke="transparent" points="63,-264 24,-264 24,-215 63,-215 63,-264"/>
<text text-anchor="start" x="29.5" y="-251.5" font-family="Helvetica,sans-Serif" font-size="10.00">SrcPtr</text>
<text text-anchor="start" x="42" y="-236.5" font-family="Helvetica,sans-Serif" font-size="10.00"> </text>
<text text-anchor="start" x="42" y="-221.5" font-family="Helvetica,sans-Serif" font-size="10.00"> </text>
<polygon fill="#666666" stroke="#666666" points="24.5,-246.5 24.5,-246.5 63.5,-246.5 63.5,-246.5 24.5,-246.5"/>
<polygon fill="#666666" stroke="#666666" points="24.5,-231.5 24.5,-231.5 63.5,-231.5 63.5,-231.5 24.5,-231.5"/>
<polygon fill="none" stroke="#666666" points="24,-215 24,-264 63,-264 63,-215 24,-215"/>
</a>
</g>
</g>
<!-- Node3&#45;&gt;Node2 -->
<g id="edge2_Node000002_Node000003" class="edge">
<title>Node3&#45;&gt;Node2</title>
<g id="a_edge2_Node000002_Node000003"><a xlink:title=" ">
<path fill="none" stroke="#63b8ff" d="M41.17,-214.9C40.65,-202.78 41.06,-187.89 44.5,-175 45.1,-172.74 45.84,-170.46 46.67,-168.21"/>
<polygon fill="none" stroke="#63b8ff" points="46.71,-168.14 45.46,-161.03 51.54,-157.16 52.78,-164.26 46.71,-168.14"/>
</a>
</g>
<text text-anchor="middle" x="57.5" y="-183.5" font-family="Helvetica,sans-Serif" font-size="10.00" fill="grey"> +src</text>
</g>
<!-- Node4 -->
<g id="Node000004" class="node">
<title>Node4</title>
<g id="a_Node000004"><a xlink:title=" ">
<polygon fill="white" stroke="transparent" points="146,-264 123,-264 123,-215 146,-215 146,-264"/>
<text text-anchor="start" x="128.5" y="-251.5" font-family="Helvetica,sans-Serif" font-size="10.00">int</text>
<text text-anchor="start" x="133" y="-236.5" font-family="Helvetica,sans-Serif" font-size="10.00"> </text>
<text text-anchor="start" x="133" y="-221.5" font-family="Helvetica,sans-Serif" font-size="10.00"> </text>
<polygon fill="#666666" stroke="#666666" points="123.5,-246.5 123.5,-246.5 146.5,-246.5 146.5,-246.5 123.5,-246.5"/>
<polygon fill="#666666" stroke="#666666" points="123.5,-231.5 123.5,-231.5 146.5,-231.5 146.5,-231.5 123.5,-231.5"/>
<polygon fill="none" stroke="#666666" points="123,-215 123,-264 146,-264 146,-215 123,-215"/>
</a>
</g>
</g>
<!-- Node4&#45;&gt;Node1 -->
<g id="edge4_Node000001_Node000004" class="edge">
<title>Node4&#45;&gt;Node1</title>
<g id="a_edge4_Node000001_Node000004"><a xlink:title=" ">
<path fill="none" stroke="#63b8ff" d="M146.17,-226.16C152.64,-218.43 160.07,-207.9 163.5,-197 166.44,-187.67 164.31,-184.74 163.5,-175 160.6,-139.97 160.1,-130.81 150.5,-97 148.11,-88.58 144.98,-79.78 141.7,-71.45"/>
<polygon fill="none" stroke="#63b8ff" points="141.59,-71.17 135.61,-67.14 137.03,-60.07 143.01,-64.1 141.59,-71.17"/>
</a>
</g>
<text text-anchor="middle" x="177.5" y="-130" font-family="Helvetica,sans-Serif" font-size="10.00" fill="grey"> +cols</text>
<text text-anchor="middle" x="177.5" y="-119" font-family="Helvetica,sans-Serif" font-size="10.00" fill="grey">+rows</text>
</g>
<!-- Node4&#45;&gt;Node2 -->
<g id="edge3_Node000002_Node000004" class="edge">
<title>Node4&#45;&gt;Node2</title>
<g id="a_edge3_Node000002_Node000004"><a xlink:title=" ">
<path fill="none" stroke="#63b8ff" d="M122.95,-229.39C113.82,-221.65 101.34,-209.77 93.5,-197 88.19,-188.35 83.95,-178.34 80.63,-168.67"/>
<polygon fill="none" stroke="#63b8ff" points="80.61,-168.61 75,-164.07 77.02,-157.15 82.63,-161.68 80.61,-168.61"/>
</a>
</g>
<text text-anchor="middle" x="128.5" y="-189" font-family="Helvetica,sans-Serif" font-size="10.00" fill="grey"> +area_height</text>
<text text-anchor="middle" x="128.5" y="-178" font-family="Helvetica,sans-Serif" font-size="10.00" fill="grey">+area_width</text>
</g>
</g>
</svg>
