<?xml version="1.0" encoding="UTF-8" standalone="no"?>
<!DOCTYPE svg PUBLIC "-//W3C//DTD SVG 1.1//EN"
 "http://www.w3.org/Graphics/SVG/1.1/DTD/svg11.dtd">
<!-- Generated by graphviz version 2.43.0 (0)
 -->
<!-- Title: cv::datasets::IR_affineObj Pages: 1 -->
<svg width="423pt" height="855pt"
 viewBox="0.00 0.00 423.00 855.00" xmlns="http://www.w3.org/2000/svg" xmlns:xlink="http://www.w3.org/1999/xlink">
<g id="graph0" class="graph" transform="scale(1 1) rotate(0) translate(4 851)">
<title>cv::datasets::IR_affineObj</title>
<!-- Node1 -->
<g id="Node000001" class="node">
<title>Node1</title>
<g id="a_Node000001"><a xlink:title=" ">
<polygon fill="#999999" stroke="transparent" points="221.5,-49 87.5,-49 87.5,0 221.5,0 221.5,-49"/>
<text text-anchor="start" x="92.5" y="-36.5" font-family="Helvetica,sans-Serif" font-size="10.00">cv::datasets::IR_affineObj</text>
<text text-anchor="start" x="152.5" y="-21.5" font-family="Helvetica,sans-Serif" font-size="10.00"> </text>
<text text-anchor="start" x="152.5" y="-6.5" font-family="Helvetica,sans-Serif" font-size="10.00"> </text>
<polygon fill="#666666" stroke="#666666" points="87.5,-31.5 87.5,-31.5 221.5,-31.5 221.5,-31.5 87.5,-31.5"/>
<polygon fill="#666666" stroke="#666666" points="87.5,-16.5 87.5,-16.5 221.5,-16.5 221.5,-16.5 87.5,-16.5"/>
<polygon fill="none" stroke="#666666" points="87.5,0 87.5,-49 221.5,-49 221.5,0 87.5,0"/>
</a>
</g>
</g>
<!-- Node2 -->
<g id="Node000002" class="node">
<title>Node2</title>
<g id="a_Node000002"><a xlink:href="../../de/d47/structcv_1_1datasets_1_1Object.html" target="_top" xlink:title=" ">
<polygon fill="white" stroke="transparent" points="107,-272.5 0,-272.5 0,-223.5 107,-223.5 107,-272.5"/>
<text text-anchor="start" x="5.5" y="-260" font-family="Helvetica,sans-Serif" font-size="10.00">cv::datasets::Object</text>
<text text-anchor="start" x="52" y="-245" font-family="Helvetica,sans-Serif" font-size="10.00"> </text>
<text text-anchor="start" x="52" y="-230" font-family="Helvetica,sans-Serif" font-size="10.00"> </text>
<polygon fill="#666666" stroke="#666666" points="0.5,-255 0.5,-255 107.5,-255 107.5,-255 0.5,-255"/>
<polygon fill="#666666" stroke="#666666" points="0.5,-240 0.5,-240 107.5,-240 107.5,-240 0.5,-240"/>
<polygon fill="none" stroke="#666666" points="0,-223.5 0,-272.5 107,-272.5 107,-223.5 0,-223.5"/>
</a>
</g>
</g>
<!-- Node2&#45;&gt;Node1 -->
<g id="edge1_Node000001_Node000002" class="edge">
<title>Node2&#45;&gt;Node1</title>
<g id="a_edge1_Node000001_Node000002"><a xlink:title=" ">
<path fill="none" stroke="#63b8ff" d="M65.81,-213.92C77.62,-183 96.41,-135.77 115.5,-96 123.13,-80.11 132.69,-62.78 140.44,-49.28"/>
<polygon fill="none" stroke="#63b8ff" points="62.51,-212.76 62.23,-223.35 69.05,-215.24 62.51,-212.76"/>
</a>
</g>
</g>
<!-- Node3 -->
<g id="Node000003" class="node">
<title>Node3</title>
<g id="a_Node000003"><a xlink:title=" ">
<polygon fill="white" stroke="transparent" points="184,-272.5 125,-272.5 125,-223.5 184,-223.5 184,-272.5"/>
<text text-anchor="start" x="130.5" y="-260" font-family="Helvetica,sans-Serif" font-size="10.00">std::string</text>
<text text-anchor="start" x="153" y="-245" font-family="Helvetica,sans-Serif" font-size="10.00"> </text>
<text text-anchor="start" x="153" y="-230" font-family="Helvetica,sans-Serif" font-size="10.00"> </text>
<polygon fill="#666666" stroke="#666666" points="125.5,-255 125.5,-255 184.5,-255 184.5,-255 125.5,-255"/>
<polygon fill="#666666" stroke="#666666" points="125.5,-240 125.5,-240 184.5,-240 184.5,-240 125.5,-240"/>
<polygon fill="none" stroke="#666666" points="125,-223.5 125,-272.5 184,-272.5 184,-223.5 125,-223.5"/>
</a>
</g>
</g>
<!-- Node3&#45;&gt;Node1 -->
<g id="edge2_Node000001_Node000003" class="edge">
<title>Node3&#45;&gt;Node1</title>
<g id="a_edge2_Node000001_Node000003"><a xlink:title=" ">
<path fill="none" stroke="#63b8ff" d="M154.5,-223.3C154.5,-184.41 154.5,-106.85 154.5,-61.26"/>
<polygon fill="none" stroke="#63b8ff" points="154.5,-61.03 150.5,-55.03 154.5,-49.03 158.5,-55.03 154.5,-61.03"/>
</a>
</g>
<text text-anchor="middle" x="190.5" y="-70" font-family="Helvetica,sans-Serif" font-size="10.00" fill="grey"> +imageName</text>
</g>
<!-- Node4 -->
<g id="Node000004" class="node">
<title>Node4</title>
<g id="a_Node000004"><a xlink:title=" ">
<polygon fill="white" stroke="transparent" points="203.5,-629 105.5,-629 105.5,-569 203.5,-569 203.5,-629"/>
<text text-anchor="start" x="110.5" y="-617" font-family="Helvetica,sans-Serif" font-size="10.00">std::basic_string&lt;</text>
<text text-anchor="start" x="136" y="-606" font-family="Helvetica,sans-Serif" font-size="10.00"> Char &gt;</text>
<text text-anchor="start" x="152.5" y="-591" font-family="Helvetica,sans-Serif" font-size="10.00"> </text>
<text text-anchor="start" x="152.5" y="-576" font-family="Helvetica,sans-Serif" font-size="10.00"> </text>
<polygon fill="#666666" stroke="#666666" points="105.5,-601 105.5,-601 203.5,-601 203.5,-601 105.5,-601"/>
<polygon fill="#666666" stroke="#666666" points="105.5,-586 105.5,-586 203.5,-586 203.5,-586 105.5,-586"/>
<polygon fill="none" stroke="#666666" points="105.5,-569 105.5,-629 203.5,-629 203.5,-569 105.5,-569"/>
</a>
</g>
</g>
<!-- Node4&#45;&gt;Node3 -->
<g id="edge3_Node000003_Node000004" class="edge">
<title>Node4&#45;&gt;Node3</title>
<g id="a_edge3_Node000003_Node000004"><a xlink:title=" ">
<path fill="none" stroke="#63b8ff" d="M154.5,-558.7C154.5,-485.79 154.5,-331.66 154.5,-272.66"/>
<polygon fill="none" stroke="#63b8ff" points="151,-558.84 154.5,-568.84 158,-558.84 151,-558.84"/>
</a>
</g>
</g>
<!-- Node5 -->
<g id="Node000005" class="node">
<title>Node5</title>
<g id="a_Node000005"><a xlink:href="../../de/de1/classcv_1_1Matx.html" target="_top" xlink:title=" ">
<polygon fill="white" stroke="transparent" points="333,-400 202,-400 202,-96 333,-96 333,-400"/>
<text text-anchor="start" x="207.5" y="-388" font-family="Helvetica,sans-Serif" font-size="10.00">cv::Matx&lt; double, 3, 3 &gt;</text>
<text text-anchor="start" x="266" y="-373" font-family="Helvetica,sans-Serif" font-size="10.00"> </text>
<text text-anchor="start" x="216" y="-358" font-family="Helvetica,sans-Serif" font-size="10.00">+</text>
<text text-anchor="start" x="238.5" y="-358" font-family="Helvetica,sans-Serif" font-size="10.00">Matx()</text>
<text text-anchor="start" x="216" y="-343" font-family="Helvetica,sans-Serif" font-size="10.00">+</text>
<text text-anchor="start" x="238.5" y="-343" font-family="Helvetica,sans-Serif" font-size="10.00">Matx()</text>
<text text-anchor="start" x="216" y="-328" font-family="Helvetica,sans-Serif" font-size="10.00">+</text>
<text text-anchor="start" x="238.5" y="-328" font-family="Helvetica,sans-Serif" font-size="10.00">Matx()</text>
<text text-anchor="start" x="216" y="-313" font-family="Helvetica,sans-Serif" font-size="10.00">+</text>
<text text-anchor="start" x="238.5" y="-313" font-family="Helvetica,sans-Serif" font-size="10.00">Matx()</text>
<text text-anchor="start" x="216" y="-298" font-family="Helvetica,sans-Serif" font-size="10.00">+</text>
<text text-anchor="start" x="238.5" y="-298" font-family="Helvetica,sans-Serif" font-size="10.00">Matx()</text>
<text text-anchor="start" x="216" y="-283" font-family="Helvetica,sans-Serif" font-size="10.00">+</text>
<text text-anchor="start" x="238.5" y="-283" font-family="Helvetica,sans-Serif" font-size="10.00">Matx()</text>
<text text-anchor="start" x="216" y="-268" font-family="Helvetica,sans-Serif" font-size="10.00">+</text>
<text text-anchor="start" x="238.5" y="-268" font-family="Helvetica,sans-Serif" font-size="10.00">Matx()</text>
<text text-anchor="start" x="216" y="-253" font-family="Helvetica,sans-Serif" font-size="10.00">+</text>
<text text-anchor="start" x="238.5" y="-253" font-family="Helvetica,sans-Serif" font-size="10.00">Matx()</text>
<text text-anchor="start" x="216" y="-238" font-family="Helvetica,sans-Serif" font-size="10.00">+</text>
<text text-anchor="start" x="238.5" y="-238" font-family="Helvetica,sans-Serif" font-size="10.00">Matx()</text>
<text text-anchor="start" x="216" y="-223" font-family="Helvetica,sans-Serif" font-size="10.00">+</text>
<text text-anchor="start" x="238.5" y="-223" font-family="Helvetica,sans-Serif" font-size="10.00">Matx()</text>
<text text-anchor="start" x="238.5" y="-208" font-family="Helvetica,sans-Serif" font-size="10.00">and 31 more...</text>
<text text-anchor="start" x="216" y="-193" font-family="Helvetica,sans-Serif" font-size="10.00">+</text>
<text text-anchor="start" x="238.5" y="-193" font-family="Helvetica,sans-Serif" font-size="10.00">all()</text>
<text text-anchor="start" x="216" y="-178" font-family="Helvetica,sans-Serif" font-size="10.00">+</text>
<text text-anchor="start" x="238.5" y="-178" font-family="Helvetica,sans-Serif" font-size="10.00">diag()</text>
<text text-anchor="start" x="216" y="-163" font-family="Helvetica,sans-Serif" font-size="10.00">+</text>
<text text-anchor="start" x="238.5" y="-163" font-family="Helvetica,sans-Serif" font-size="10.00">eye()</text>
<text text-anchor="start" x="216" y="-148" font-family="Helvetica,sans-Serif" font-size="10.00">+</text>
<text text-anchor="start" x="238.5" y="-148" font-family="Helvetica,sans-Serif" font-size="10.00">ones()</text>
<text text-anchor="start" x="216" y="-133" font-family="Helvetica,sans-Serif" font-size="10.00">+</text>
<text text-anchor="start" x="238.5" y="-133" font-family="Helvetica,sans-Serif" font-size="10.00">randn()</text>
<text text-anchor="start" x="216" y="-118" font-family="Helvetica,sans-Serif" font-size="10.00">+</text>
<text text-anchor="start" x="238.5" y="-118" font-family="Helvetica,sans-Serif" font-size="10.00">randu()</text>
<text text-anchor="start" x="216" y="-103" font-family="Helvetica,sans-Serif" font-size="10.00">+</text>
<text text-anchor="start" x="238.5" y="-103" font-family="Helvetica,sans-Serif" font-size="10.00">zeros()</text>
<polygon fill="#666666" stroke="#666666" points="202.5,-383 202.5,-383 333.5,-383 333.5,-383 202.5,-383"/>
<polygon fill="#666666" stroke="#666666" points="202.5,-368 202.5,-368 333.5,-368 333.5,-368 202.5,-368"/>
<polygon fill="none" stroke="#666666" points="202,-96 202,-400 333,-400 333,-96 202,-96"/>
</a>
</g>
</g>
<!-- Node5&#45;&gt;Node1 -->
<g id="edge4_Node000001_Node000005" class="edge">
<title>Node5&#45;&gt;Node1</title>
<g id="a_edge4_Node000001_Node000005"><a xlink:title=" ">
<path fill="none" stroke="#63b8ff" d="M247.04,-95.8C242.5,-85.58 237.05,-75.85 230.5,-67 227.79,-63.34 224.66,-59.97 221.25,-56.86"/>
<polygon fill="none" stroke="#63b8ff" points="221.05,-56.7 213.86,-56.12 211.64,-49.26 218.82,-49.84 221.05,-56.7"/>
</a>
</g>
<text text-anchor="middle" x="252" y="-70" font-family="Helvetica,sans-Serif" font-size="10.00" fill="grey"> +mat</text>
</g>
<!-- Node6 -->
<g id="Node000006" class="node">
<title>Node6</title>
<g id="a_Node000006"><a xlink:title=" ">
<polygon fill="white" stroke="transparent" points="277.5,-623.5 233.5,-623.5 233.5,-574.5 277.5,-574.5 277.5,-623.5"/>
<text text-anchor="start" x="238.5" y="-611" font-family="Helvetica,sans-Serif" font-size="10.00">double</text>
<text text-anchor="start" x="253.5" y="-596" font-family="Helvetica,sans-Serif" font-size="10.00"> </text>
<text text-anchor="start" x="253.5" y="-581" font-family="Helvetica,sans-Serif" font-size="10.00"> </text>
<polygon fill="#666666" stroke="#666666" points="233.5,-606 233.5,-606 277.5,-606 277.5,-606 233.5,-606"/>
<polygon fill="#666666" stroke="#666666" points="233.5,-591 233.5,-591 277.5,-591 277.5,-591 233.5,-591"/>
<polygon fill="none" stroke="#666666" points="233.5,-574.5 233.5,-623.5 277.5,-623.5 277.5,-574.5 233.5,-574.5"/>
</a>
</g>
</g>
<!-- Node6&#45;&gt;Node5 -->
<g id="edge5_Node000005_Node000006" class="edge">
<title>Node6&#45;&gt;Node5</title>
<g id="a_edge5_Node000005_Node000006"><a xlink:title=" ">
<path fill="none" stroke="#63b8ff" d="M256.32,-574.29C257.48,-540.49 259.71,-475.55 261.88,-412.53"/>
<polygon fill="none" stroke="#63b8ff" points="261.88,-412.37 258.09,-406.24 262.29,-400.38 266.09,-406.51 261.88,-412.37"/>
</a>
</g>
<text text-anchor="middle" x="275" y="-421" font-family="Helvetica,sans-Serif" font-size="10.00" fill="grey"> +val</text>
</g>
<!-- Node7 -->
<g id="Node000007" class="node">
<title>Node7</title>
<g id="a_Node000007"><a xlink:href="../../de/de1/classcv_1_1Matx.html" target="_top" xlink:title="Template class for small matrices whose type and size are known at compilation time.">
<polygon fill="white" stroke="transparent" points="415,-751 296,-751 296,-447 415,-447 415,-751"/>
<text text-anchor="start" x="301.5" y="-739" font-family="Helvetica,sans-Serif" font-size="10.00">cv::Matx&lt; _Tp, m, n &gt;</text>
<text text-anchor="start" x="354" y="-724" font-family="Helvetica,sans-Serif" font-size="10.00"> </text>
<text text-anchor="start" x="307" y="-709" font-family="Helvetica,sans-Serif" font-size="10.00">+</text>
<text text-anchor="start" x="326.5" y="-709" font-family="Helvetica,sans-Serif" font-size="10.00">Matx()</text>
<text text-anchor="start" x="307" y="-694" font-family="Helvetica,sans-Serif" font-size="10.00">+</text>
<text text-anchor="start" x="326.5" y="-694" font-family="Helvetica,sans-Serif" font-size="10.00">Matx()</text>
<text text-anchor="start" x="307" y="-679" font-family="Helvetica,sans-Serif" font-size="10.00">+</text>
<text text-anchor="start" x="326.5" y="-679" font-family="Helvetica,sans-Serif" font-size="10.00">Matx()</text>
<text text-anchor="start" x="307" y="-664" font-family="Helvetica,sans-Serif" font-size="10.00">+</text>
<text text-anchor="start" x="326.5" y="-664" font-family="Helvetica,sans-Serif" font-size="10.00">Matx()</text>
<text text-anchor="start" x="307" y="-649" font-family="Helvetica,sans-Serif" font-size="10.00">+</text>
<text text-anchor="start" x="326.5" y="-649" font-family="Helvetica,sans-Serif" font-size="10.00">Matx()</text>
<text text-anchor="start" x="307" y="-634" font-family="Helvetica,sans-Serif" font-size="10.00">+</text>
<text text-anchor="start" x="326.5" y="-634" font-family="Helvetica,sans-Serif" font-size="10.00">Matx()</text>
<text text-anchor="start" x="307" y="-619" font-family="Helvetica,sans-Serif" font-size="10.00">+</text>
<text text-anchor="start" x="326.5" y="-619" font-family="Helvetica,sans-Serif" font-size="10.00">Matx()</text>
<text text-anchor="start" x="307" y="-604" font-family="Helvetica,sans-Serif" font-size="10.00">+</text>
<text text-anchor="start" x="326.5" y="-604" font-family="Helvetica,sans-Serif" font-size="10.00">Matx()</text>
<text text-anchor="start" x="307" y="-589" font-family="Helvetica,sans-Serif" font-size="10.00">+</text>
<text text-anchor="start" x="326.5" y="-589" font-family="Helvetica,sans-Serif" font-size="10.00">Matx()</text>
<text text-anchor="start" x="307" y="-574" font-family="Helvetica,sans-Serif" font-size="10.00">+</text>
<text text-anchor="start" x="326.5" y="-574" font-family="Helvetica,sans-Serif" font-size="10.00">Matx()</text>
<text text-anchor="start" x="326.5" y="-559" font-family="Helvetica,sans-Serif" font-size="10.00">and 31 more...</text>
<text text-anchor="start" x="307" y="-544" font-family="Helvetica,sans-Serif" font-size="10.00">+</text>
<text text-anchor="start" x="326.5" y="-544" font-family="Helvetica,sans-Serif" font-size="10.00">all()</text>
<text text-anchor="start" x="307" y="-529" font-family="Helvetica,sans-Serif" font-size="10.00">+</text>
<text text-anchor="start" x="326.5" y="-529" font-family="Helvetica,sans-Serif" font-size="10.00">diag()</text>
<text text-anchor="start" x="307" y="-514" font-family="Helvetica,sans-Serif" font-size="10.00">+</text>
<text text-anchor="start" x="326.5" y="-514" font-family="Helvetica,sans-Serif" font-size="10.00">eye()</text>
<text text-anchor="start" x="307" y="-499" font-family="Helvetica,sans-Serif" font-size="10.00">+</text>
<text text-anchor="start" x="326.5" y="-499" font-family="Helvetica,sans-Serif" font-size="10.00">ones()</text>
<text text-anchor="start" x="307" y="-484" font-family="Helvetica,sans-Serif" font-size="10.00">+</text>
<text text-anchor="start" x="326.5" y="-484" font-family="Helvetica,sans-Serif" font-size="10.00">randn()</text>
<text text-anchor="start" x="307" y="-469" font-family="Helvetica,sans-Serif" font-size="10.00">+</text>
<text text-anchor="start" x="326.5" y="-469" font-family="Helvetica,sans-Serif" font-size="10.00">randu()</text>
<text text-anchor="start" x="307" y="-454" font-family="Helvetica,sans-Serif" font-size="10.00">+</text>
<text text-anchor="start" x="326.5" y="-454" font-family="Helvetica,sans-Serif" font-size="10.00">zeros()</text>
<polygon fill="#666666" stroke="#666666" points="296.5,-734 296.5,-734 415.5,-734 415.5,-734 296.5,-734"/>
<polygon fill="#666666" stroke="#666666" points="296.5,-719 296.5,-719 415.5,-719 415.5,-719 296.5,-719"/>
<polygon fill="none" stroke="#666666" points="296,-447 296,-751 415,-751 415,-447 296,-447"/>
</a>
</g>
</g>
<!-- Node7&#45;&gt;Node5 -->
<g id="edge6_Node000005_Node000007" class="edge">
<title>Node7&#45;&gt;Node5</title>
<g id="a_edge6_Node000005_Node000007"><a xlink:title=" ">
<path fill="none" stroke="orange" d="M314.92,-437.07C311.81,-424.72 308.67,-412.28 305.57,-400"/>
<polygon fill="orange" stroke="orange" points="311.57,-438.11 317.41,-446.95 318.36,-436.4 311.57,-438.11"/>
</a>
</g>
<text text-anchor="middle" x="353" y="-421" font-family="Helvetica,sans-Serif" font-size="10.00" fill="grey"> &lt; double, 3, 3 &gt;</text>
</g>
<!-- Node8 -->
<g id="Node000008" class="node">
<title>Node8</title>
<g id="a_Node000008"><a xlink:href="../../d1/dd7/class__Tp.html" target="_top" xlink:title=" ">
<polygon fill="white" stroke="transparent" points="369.5,-847 341.5,-847 341.5,-798 369.5,-798 369.5,-847"/>
<text text-anchor="start" x="346.5" y="-834.5" font-family="Helvetica,sans-Serif" font-size="10.00">_Tp</text>
<text text-anchor="start" x="353.5" y="-819.5" font-family="Helvetica,sans-Serif" font-size="10.00"> </text>
<text text-anchor="start" x="353.5" y="-804.5" font-family="Helvetica,sans-Serif" font-size="10.00"> </text>
<polygon fill="#666666" stroke="#666666" points="341.5,-829.5 341.5,-829.5 369.5,-829.5 369.5,-829.5 341.5,-829.5"/>
<polygon fill="#666666" stroke="#666666" points="341.5,-814.5 341.5,-814.5 369.5,-814.5 369.5,-814.5 341.5,-814.5"/>
<polygon fill="none" stroke="#666666" points="341.5,-798 341.5,-847 369.5,-847 369.5,-798 341.5,-798"/>
</a>
</g>
</g>
<!-- Node8&#45;&gt;Node7 -->
<g id="edge7_Node000007_Node000008" class="edge">
<title>Node8&#45;&gt;Node7</title>
<g id="a_edge7_Node000007_Node000008"><a xlink:title=" ">
<path fill="none" stroke="#63b8ff" d="M355.5,-797.8C355.5,-788.31 355.5,-776.53 355.5,-763.46"/>
<polygon fill="none" stroke="#63b8ff" points="355.5,-763.14 351.5,-757.14 355.5,-751.14 359.5,-757.14 355.5,-763.14"/>
</a>
</g>
<text text-anchor="middle" x="369" y="-772" font-family="Helvetica,sans-Serif" font-size="10.00" fill="grey"> +val</text>
</g>
</g>
</svg>
