<?xml version="1.0" encoding="UTF-8" standalone="no"?>
<!DOCTYPE svg PUBLIC "-//W3C//DTD SVG 1.1//EN"
 "http://www.w3.org/Graphics/SVG/1.1/DTD/svg11.dtd">
<!-- Generated by graphviz version 2.43.0 (0)
 -->
<!-- Title: cv::line_descriptor::LSDParam Pages: 1 -->
<svg width="160pt" height="219pt"
 viewBox="0.00 0.00 160.00 219.00" xmlns="http://www.w3.org/2000/svg" xmlns:xlink="http://www.w3.org/1999/xlink">
<g id="graph0" class="graph" transform="scale(1 1) rotate(0) translate(4 215)">
<title>cv::line_descriptor::LSDParam</title>
<!-- Node1 -->
<g id="Node000001" class="node">
<title>Node1</title>
<g id="a_Node000001"><a xlink:title=" ">
<polygon fill="#999999" stroke="transparent" points="117.5,-60 18.5,-60 18.5,0 117.5,0 117.5,-60"/>
<text text-anchor="start" x="24" y="-48" font-family="Helvetica,sans-Serif" font-size="10.00">cv::line_descriptor</text>
<text text-anchor="start" x="40.5" y="-37" font-family="Helvetica,sans-Serif" font-size="10.00">::LSDParam</text>
<text text-anchor="start" x="66.5" y="-22" font-family="Helvetica,sans-Serif" font-size="10.00"> </text>
<text text-anchor="start" x="28" y="-7" font-family="Helvetica,sans-Serif" font-size="10.00">+</text>
<text text-anchor="start" x="46" y="-7" font-family="Helvetica,sans-Serif" font-size="10.00">LSDParam()</text>
<polygon fill="#666666" stroke="#666666" points="19,-32 19,-32 118,-32 118,-32 19,-32"/>
<polygon fill="#666666" stroke="#666666" points="19,-17 19,-17 118,-17 118,-17 19,-17"/>
<polygon fill="none" stroke="#666666" points="18.5,0 18.5,-60 117.5,-60 117.5,0 18.5,0"/>
</a>
</g>
</g>
<!-- Node2 -->
<g id="Node000002" class="node">
<title>Node2</title>
<g id="a_Node000002"><a xlink:title=" ">
<polygon fill="white" stroke="transparent" points="44,-211 0,-211 0,-162 44,-162 44,-211"/>
<text text-anchor="start" x="5" y="-198.5" font-family="Helvetica,sans-Serif" font-size="10.00">double</text>
<text text-anchor="start" x="20" y="-183.5" font-family="Helvetica,sans-Serif" font-size="10.00"> </text>
<text text-anchor="start" x="20" y="-168.5" font-family="Helvetica,sans-Serif" font-size="10.00"> </text>
<polygon fill="#666666" stroke="#666666" points="0,-193.5 0,-193.5 44,-193.5 44,-193.5 0,-193.5"/>
<polygon fill="#666666" stroke="#666666" points="0,-178.5 0,-178.5 44,-178.5 44,-178.5 0,-178.5"/>
<polygon fill="none" stroke="#666666" points="0,-162 0,-211 44,-211 44,-162 0,-162"/>
</a>
</g>
</g>
<!-- Node2&#45;&gt;Node1 -->
<g id="edge1_Node000001_Node000002" class="edge">
<title>Node2&#45;&gt;Node1</title>
<g id="a_edge1_Node000001_Node000002"><a xlink:title=" ">
<path fill="none" stroke="#63b8ff" d="M17.38,-161.88C14.08,-139.42 11.95,-105.14 23,-78 24.1,-75.31 25.43,-72.68 26.93,-70.13"/>
<polygon fill="none" stroke="#63b8ff" points="27.05,-69.96 27.24,-62.75 33.97,-60.16 33.78,-67.36 27.05,-69.96"/>
</a>
</g>
<text text-anchor="middle" x="58" y="-136" font-family="Helvetica,sans-Serif" font-size="10.00" fill="grey"> +ang_th</text>
<text text-anchor="middle" x="58" y="-125" font-family="Helvetica,sans-Serif" font-size="10.00" fill="grey">+density_th</text>
<text text-anchor="middle" x="58" y="-114" font-family="Helvetica,sans-Serif" font-size="10.00" fill="grey">+log_eps</text>
<text text-anchor="middle" x="58" y="-103" font-family="Helvetica,sans-Serif" font-size="10.00" fill="grey">+quant</text>
<text text-anchor="middle" x="58" y="-92" font-family="Helvetica,sans-Serif" font-size="10.00" fill="grey">+scale</text>
<text text-anchor="middle" x="58" y="-81" font-family="Helvetica,sans-Serif" font-size="10.00" fill="grey">+sigma_scale</text>
</g>
<!-- Node3 -->
<g id="Node000003" class="node">
<title>Node3</title>
<g id="a_Node000003"><a xlink:title=" ">
<polygon fill="white" stroke="transparent" points="126.5,-211 103.5,-211 103.5,-162 126.5,-162 126.5,-211"/>
<text text-anchor="start" x="109" y="-198.5" font-family="Helvetica,sans-Serif" font-size="10.00">int</text>
<text text-anchor="start" x="113.5" y="-183.5" font-family="Helvetica,sans-Serif" font-size="10.00"> </text>
<text text-anchor="start" x="113.5" y="-168.5" font-family="Helvetica,sans-Serif" font-size="10.00"> </text>
<polygon fill="#666666" stroke="#666666" points="104,-193.5 104,-193.5 127,-193.5 127,-193.5 104,-193.5"/>
<polygon fill="#666666" stroke="#666666" points="104,-178.5 104,-178.5 127,-178.5 127,-178.5 104,-178.5"/>
<polygon fill="none" stroke="#666666" points="103.5,-162 103.5,-211 126.5,-211 126.5,-162 103.5,-162"/>
</a>
</g>
</g>
<!-- Node3&#45;&gt;Node1 -->
<g id="edge2_Node000001_Node000003" class="edge">
<title>Node3&#45;&gt;Node1</title>
<g id="a_edge2_Node000001_Node000003"><a xlink:title=" ">
<path fill="none" stroke="#63b8ff" d="M112.16,-161.91C109.03,-139.77 103.06,-105.96 93,-78 92.2,-75.78 91.32,-73.54 90.36,-71.3"/>
<polygon fill="none" stroke="#63b8ff" points="90.28,-71.12 84.12,-67.37 85.2,-60.25 91.37,-63.99 90.28,-71.12"/>
</a>
</g>
<text text-anchor="middle" x="130.5" y="-108.5" font-family="Helvetica,sans-Serif" font-size="10.00" fill="grey"> +n_bins</text>
</g>
</g>
</svg>
