<?xml version="1.0" encoding="UTF-8" standalone="no"?>
<!DOCTYPE svg PUBLIC "-//W3C//DTD SVG 1.1//EN"
 "http://www.w3.org/Graphics/SVG/1.1/DTD/svg11.dtd">
<!-- Generated by graphviz version 2.43.0 (0)
 -->
<!-- Title: cv::CompressedRectilinearWarper Pages: 1 -->
<svg width="185pt" height="183pt"
 viewBox="0.00 0.00 185.00 183.00" xmlns="http://www.w3.org/2000/svg" xmlns:xlink="http://www.w3.org/1999/xlink">
<g id="graph0" class="graph" transform="scale(1 1) rotate(0) translate(4 179)">
<title>cv::CompressedRectilinearWarper</title>
<!-- Node1 -->
<g id="Node000001" class="node">
<title>Node1</title>
<g id="a_Node000001"><a xlink:title=" ">
<polygon fill="#999999" stroke="transparent" points="177,-75 0,-75 0,0 177,0 177,-75"/>
<text text-anchor="start" x="24" y="-62.5" font-family="Helvetica,sans-Serif" font-size="10.00">cv::CompressedRectilinear</text>
<text text-anchor="start" x="71.5" y="-51.5" font-family="Helvetica,sans-Serif" font-size="10.00">Warper</text>
<text text-anchor="start" x="87" y="-36.5" font-family="Helvetica,sans-Serif" font-size="10.00"> </text>
<text text-anchor="start" x="4.5" y="-21.5" font-family="Helvetica,sans-Serif" font-size="10.00">+</text>
<text text-anchor="start" x="17.5" y="-21.5" font-family="Helvetica,sans-Serif" font-size="10.00">CompressedRectilinearWarper()</text>
<text text-anchor="start" x="4.5" y="-6.5" font-family="Helvetica,sans-Serif" font-size="10.00">+</text>
<text text-anchor="start" x="17.5" y="-6.5" font-family="Helvetica,sans-Serif" font-size="10.00">create()</text>
<polygon fill="#666666" stroke="#666666" points="0.5,-46.5 0.5,-46.5 177.5,-46.5 177.5,-46.5 0.5,-46.5"/>
<polygon fill="#666666" stroke="#666666" points="0.5,-31.5 0.5,-31.5 177.5,-31.5 177.5,-31.5 0.5,-31.5"/>
<polygon fill="none" stroke="#666666" points="0,0 0,-75 177,-75 177,0 0,0"/>
</a>
</g>
</g>
<!-- Node2 -->
<g id="Node000002" class="node">
<title>Node2</title>
<g id="a_Node000002"><a xlink:href="../../d7/d1c/classcv_1_1WarperCreator.html" target="_top" xlink:title="Image warper factories base class.">
<polygon fill="white" stroke="transparent" points="142.5,-175 34.5,-175 34.5,-111 142.5,-111 142.5,-175"/>
<text text-anchor="start" x="44.5" y="-163" font-family="Helvetica,sans-Serif" font-size="10.00">cv::WarperCreator</text>
<text text-anchor="start" x="86.5" y="-148" font-family="Helvetica,sans-Serif" font-size="10.00"> </text>
<text text-anchor="start" x="38.5" y="-133" font-family="Helvetica,sans-Serif" font-size="10.00">+</text>
<text text-anchor="start" x="51.5" y="-133" font-family="Helvetica,sans-Serif" font-size="10.00">~WarperCreator()</text>
<text text-anchor="start" x="38.5" y="-118" font-family="Helvetica,sans-Serif" font-size="10.00">+</text>
<text text-anchor="start" x="51.5" y="-118" font-family="Helvetica,sans-Serif" font-size="10.00">create()</text>
<polygon fill="#666666" stroke="#666666" points="34.5,-158 34.5,-158 142.5,-158 142.5,-158 34.5,-158"/>
<polygon fill="#666666" stroke="#666666" points="34.5,-143 34.5,-143 142.5,-143 142.5,-143 34.5,-143"/>
<polygon fill="none" stroke="#666666" points="34.5,-111 34.5,-175 142.5,-175 142.5,-111 34.5,-111"/>
</a>
</g>
</g>
<!-- Node2&#45;&gt;Node1 -->
<g id="edge1_Node000001_Node000002" class="edge">
<title>Node2&#45;&gt;Node1</title>
<g id="a_edge1_Node000001_Node000002"><a xlink:title=" ">
<path fill="none" stroke="#63b8ff" d="M88.5,-100.92C88.5,-92.48 88.5,-83.65 88.5,-75.37"/>
<polygon fill="none" stroke="#63b8ff" points="85,-100.95 88.5,-110.95 92,-100.95 85,-100.95"/>
</a>
</g>
</g>
</g>
</svg>
