<?xml version="1.0" encoding="UTF-8" standalone="no"?>
<!DOCTYPE svg PUBLIC "-//W3C//DTD SVG 1.1//EN"
 "http://www.w3.org/Graphics/SVG/1.1/DTD/svg11.dtd">
<!-- Generated by graphviz version 2.43.0 (0)
 -->
<!-- Title: cv::gapi::streaming::meta Pages: 1 -->
<svg width="306pt" height="161pt"
 viewBox="0.00 0.00 306.00 161.00" xmlns="http://www.w3.org/2000/svg" xmlns:xlink="http://www.w3.org/1999/xlink">
<g id="graph0" class="graph" transform="scale(1 1) rotate(0) translate(4 157)">
<title>cv::gapi::streaming::meta</title>
<!-- Node1 -->
<g id="Node000001" class="node">
<title>Node1</title>
<g id="a_Node000001"><a xlink:title=" ">
<polygon fill="#999999" stroke="#666666" points="110,-91.5 0,-91.5 0,-61.5 110,-61.5 110,-91.5"/>
<text text-anchor="start" x="8" y="-79.5" font-family="Helvetica,sans-Serif" font-size="10.00">cv::gapi::streaming</text>
<text text-anchor="middle" x="55" y="-68.5" font-family="Helvetica,sans-Serif" font-size="10.00">::meta</text>
</a>
</g>
</g>
<!-- Node2 -->
<g id="Node000002" class="node">
<title>Node2</title>
<g id="a_Node000002"><a xlink:href="../../d3/d75/structcv_1_1detail_1_1GObtainCtor.html#a71a636eaf14fedf2604a591983fb0be6" target="_top" xlink:title=" ">
<polygon fill="white" stroke="#666666" points="296.5,-153 147.5,-153 147.5,-134 296.5,-134 296.5,-153"/>
<text text-anchor="middle" x="222" y="-141" font-family="Helvetica,sans-Serif" font-size="10.00">cv::detail::GObtainCtor::get</text>
</a>
</g>
</g>
<!-- Node1&#45;&gt;Node2 -->
<g id="edge1_Node000001_Node000002" class="edge">
<title>Node1&#45;&gt;Node2</title>
<g id="a_edge1_Node000001_Node000002"><a xlink:title=" ">
<path fill="none" stroke="#63b8ff" d="M80.45,-91.63C98.13,-102.04 122.88,-115.56 146,-124.5 152.4,-126.97 159.23,-129.22 166.06,-131.22"/>
<polygon fill="#63b8ff" stroke="#63b8ff" points="165.45,-134.69 176.03,-133.99 167.33,-127.94 165.45,-134.69"/>
</a>
</g>
</g>
<!-- Node3 -->
<g id="Node000003" class="node">
<title>Node3</title>
<g id="a_Node000003"><a xlink:href="../../d3/d40/structcv_1_1gapi_1_1streaming_1_1detail_1_1GMeta.html#a714704dbc4ecdbac09391059dde60af3" target="_top" xlink:title=" ">
<polygon fill="white" stroke="#666666" points="298,-115.5 146,-115.5 146,-85.5 298,-85.5 298,-115.5"/>
<text text-anchor="start" x="154" y="-103.5" font-family="Helvetica,sans-Serif" font-size="10.00">cv::gapi::streaming</text>
<text text-anchor="middle" x="222" y="-92.5" font-family="Helvetica,sans-Serif" font-size="10.00">::detail::GMeta::getOutMeta</text>
</a>
</g>
</g>
<!-- Node1&#45;&gt;Node3 -->
<g id="edge2_Node000001_Node000003" class="edge">
<title>Node1&#45;&gt;Node3</title>
<g id="a_edge2_Node000001_Node000003"><a xlink:title=" ">
<path fill="none" stroke="#63b8ff" d="M110.03,-84.36C118.36,-85.57 127.13,-86.85 135.94,-88.13"/>
<polygon fill="#63b8ff" stroke="#63b8ff" points="135.49,-91.6 145.89,-89.57 136.49,-84.67 135.49,-91.6"/>
</a>
</g>
</g>
<!-- Node4 -->
<g id="Node000004" class="node">
<title>Node4</title>
<g id="a_Node000004"><a xlink:href="../../d3/d40/structcv_1_1gapi_1_1streaming_1_1detail_1_1GMeta.html#a43b0bb55fd6acbbf4d97bb63aa6cdb9e" target="_top" xlink:title=" ">
<polygon fill="white" stroke="#666666" points="277,-67.5 167,-67.5 167,-37.5 277,-37.5 277,-67.5"/>
<text text-anchor="start" x="175" y="-55.5" font-family="Helvetica,sans-Serif" font-size="10.00">cv::gapi::streaming</text>
<text text-anchor="middle" x="222" y="-44.5" font-family="Helvetica,sans-Serif" font-size="10.00">::detail::GMeta::id</text>
</a>
</g>
</g>
<!-- Node1&#45;&gt;Node4 -->
<g id="edge3_Node000001_Node000004" class="edge">
<title>Node1&#45;&gt;Node4</title>
<g id="a_edge3_Node000001_Node000004"><a xlink:title=" ">
<path fill="none" stroke="#63b8ff" d="M110.03,-68.64C124.98,-66.47 141.36,-64.08 156.84,-61.83"/>
<polygon fill="#63b8ff" stroke="#63b8ff" points="157.46,-65.28 166.85,-60.38 156.45,-58.35 157.46,-65.28"/>
</a>
</g>
</g>
<!-- Node5 -->
<g id="Node000005" class="node">
<title>Node5</title>
<g id="a_Node000005"><a xlink:href="../../dc/d02/classcv_1_1GCall.html#a518455dd2c14becbac90092bf8e5b173" target="_top" xlink:title=" ">
<polygon fill="white" stroke="#666666" points="266,-19 178,-19 178,0 266,0 266,-19"/>
<text text-anchor="middle" x="222" y="-7" font-family="Helvetica,sans-Serif" font-size="10.00">cv::GCall::pass</text>
</a>
</g>
</g>
<!-- Node1&#45;&gt;Node5 -->
<g id="edge4_Node000001_Node000005" class="edge">
<title>Node1&#45;&gt;Node5</title>
<g id="a_edge4_Node000001_Node000005"><a xlink:title=" ">
<path fill="none" stroke="#63b8ff" d="M80.45,-61.37C98.13,-50.96 122.88,-37.44 146,-28.5 153.06,-25.77 160.64,-23.32 168.17,-21.17"/>
<polygon fill="#63b8ff" stroke="#63b8ff" points="169.27,-24.49 178,-18.5 167.43,-17.74 169.27,-24.49"/>
</a>
</g>
</g>
</g>
</svg>
