<?xml version="1.0" encoding="UTF-8" standalone="no"?>
<!DOCTYPE svg PUBLIC "-//W3C//DTD SVG 1.1//EN"
 "http://www.w3.org/Graphics/SVG/1.1/DTD/svg11.dtd">
<!-- Generated by graphviz version 2.43.0 (0)
 -->
<!-- Title: cv::cudev::ThreshToZeroFunc&lt; T &gt; Pages: 1 -->
<svg width="212pt" height="271pt"
 viewBox="0.00 0.00 211.50 271.00" xmlns="http://www.w3.org/2000/svg" xmlns:xlink="http://www.w3.org/1999/xlink">
<g id="graph0" class="graph" transform="scale(1 1) rotate(0) translate(4 267)">
<title>cv::cudev::ThreshToZeroFunc&lt; T &gt;</title>
<!-- Node1 -->
<g id="Node000001" class="node">
<title>Node1</title>
<g id="a_Node000001"><a xlink:title=" ">
<polygon fill="#999999" stroke="transparent" points="203.5,-49 24.5,-49 24.5,0 203.5,0 203.5,-49"/>
<text text-anchor="start" x="30" y="-36.5" font-family="Helvetica,sans-Serif" font-size="10.00">cv::cudev::ThreshToZeroFunc&lt; T &gt;</text>
<text text-anchor="start" x="112.5" y="-21.5" font-family="Helvetica,sans-Serif" font-size="10.00"> </text>
<text text-anchor="start" x="54" y="-6.5" font-family="Helvetica,sans-Serif" font-size="10.00">+</text>
<text text-anchor="start" x="92" y="-6.5" font-family="Helvetica,sans-Serif" font-size="10.00">operator()()</text>
<polygon fill="#666666" stroke="#666666" points="25,-31.5 25,-31.5 204,-31.5 204,-31.5 25,-31.5"/>
<polygon fill="#666666" stroke="#666666" points="25,-16.5 25,-16.5 204,-16.5 204,-16.5 25,-16.5"/>
<polygon fill="none" stroke="#666666" points="24.5,0 24.5,-49 203.5,-49 203.5,0 24.5,0"/>
</a>
</g>
</g>
<!-- Node2 -->
<g id="Node000002" class="node">
<title>Node2</title>
<g id="a_Node000002"><a xlink:title=" ">
<polygon fill="white" stroke="transparent" points="134,-156 0,-156 0,-96 134,-96 134,-156"/>
<text text-anchor="start" x="5" y="-144" font-family="Helvetica,sans-Serif" font-size="10.00">cv::cudev::unary_function</text>
<text text-anchor="start" x="46.5" y="-133" font-family="Helvetica,sans-Serif" font-size="10.00">&lt; T, T &gt;</text>
<text text-anchor="start" x="65" y="-118" font-family="Helvetica,sans-Serif" font-size="10.00"> </text>
<text text-anchor="start" x="65" y="-103" font-family="Helvetica,sans-Serif" font-size="10.00"> </text>
<polygon fill="#666666" stroke="#666666" points="0,-128 0,-128 134,-128 134,-128 0,-128"/>
<polygon fill="#666666" stroke="#666666" points="0,-113 0,-113 134,-113 134,-113 0,-113"/>
<polygon fill="none" stroke="#666666" points="0,-96 0,-156 134,-156 134,-96 0,-96"/>
</a>
</g>
</g>
<!-- Node2&#45;&gt;Node1 -->
<g id="edge1_Node000001_Node000002" class="edge">
<title>Node2&#45;&gt;Node1</title>
<g id="a_edge1_Node000001_Node000002"><a xlink:title=" ">
<path fill="none" stroke="#63b8ff" d="M85.16,-86.55C91.13,-73.91 97.58,-60.25 102.87,-49.06"/>
<polygon fill="none" stroke="#63b8ff" points="81.83,-85.42 80.72,-95.95 88.16,-88.41 81.83,-85.42"/>
</a>
</g>
</g>
<!-- Node3 -->
<g id="Node000003" class="node">
<title>Node3</title>
<g id="a_Node000003"><a xlink:href="../../df/d11/structcv_1_1cudev_1_1unary__function.html" target="_top" xlink:title=" ">
<polygon fill="white" stroke="transparent" points="134,-263 0,-263 0,-203 134,-203 134,-263"/>
<text text-anchor="start" x="5" y="-251" font-family="Helvetica,sans-Serif" font-size="10.00">cv::cudev::unary_function</text>
<text text-anchor="start" x="23.5" y="-240" font-family="Helvetica,sans-Serif" font-size="10.00">&lt; _Arg, _Result &gt;</text>
<text text-anchor="start" x="65" y="-225" font-family="Helvetica,sans-Serif" font-size="10.00"> </text>
<text text-anchor="start" x="65" y="-210" font-family="Helvetica,sans-Serif" font-size="10.00"> </text>
<polygon fill="#666666" stroke="#666666" points="0,-235 0,-235 134,-235 134,-235 0,-235"/>
<polygon fill="#666666" stroke="#666666" points="0,-220 0,-220 134,-220 134,-220 0,-220"/>
<polygon fill="none" stroke="#666666" points="0,-203 0,-263 134,-263 134,-203 0,-203"/>
</a>
</g>
</g>
<!-- Node3&#45;&gt;Node2 -->
<g id="edge2_Node000002_Node000003" class="edge">
<title>Node3&#45;&gt;Node2</title>
<g id="a_edge2_Node000002_Node000003"><a xlink:title=" ">
<path fill="none" stroke="orange" d="M67,-192.46C67,-180.39 67,-167.34 67,-156.09"/>
<polygon fill="orange" stroke="orange" points="63.5,-192.75 67,-202.75 70.5,-192.75 63.5,-192.75"/>
</a>
</g>
<text text-anchor="middle" x="89" y="-177" font-family="Helvetica,sans-Serif" font-size="10.00" fill="grey"> &lt; T, T &gt;</text>
</g>
<!-- Node4 -->
<g id="Node000004" class="node">
<title>Node4</title>
<g id="a_Node000004"><a xlink:title=" ">
<polygon fill="white" stroke="transparent" points="169.5,-150.5 152.5,-150.5 152.5,-101.5 169.5,-101.5 169.5,-150.5"/>
<text text-anchor="start" x="158" y="-138" font-family="Helvetica,sans-Serif" font-size="10.00">T</text>
<text text-anchor="start" x="159.5" y="-123" font-family="Helvetica,sans-Serif" font-size="10.00"> </text>
<text text-anchor="start" x="159.5" y="-108" font-family="Helvetica,sans-Serif" font-size="10.00"> </text>
<polygon fill="#666666" stroke="#666666" points="153,-133 153,-133 170,-133 170,-133 153,-133"/>
<polygon fill="#666666" stroke="#666666" points="153,-118 153,-118 170,-118 170,-118 153,-118"/>
<polygon fill="none" stroke="#666666" points="152.5,-101.5 152.5,-150.5 169.5,-150.5 169.5,-101.5 152.5,-101.5"/>
</a>
</g>
</g>
<!-- Node4&#45;&gt;Node1 -->
<g id="edge3_Node000001_Node000004" class="edge">
<title>Node4&#45;&gt;Node1</title>
<g id="a_edge3_Node000001_Node000004"><a xlink:title=" ">
<path fill="none" stroke="#63b8ff" d="M152.38,-106.75C146.24,-93.75 137.79,-75.87 130.39,-60.19"/>
<polygon fill="none" stroke="#63b8ff" points="130.35,-60.12 124.17,-56.4 125.23,-49.27 131.41,-52.99 130.35,-60.12"/>
</a>
</g>
<text text-anchor="middle" x="158.5" y="-70" font-family="Helvetica,sans-Serif" font-size="10.00" fill="grey"> +thresh</text>
</g>
</g>
</svg>
