<?xml version="1.0" encoding="UTF-8" standalone="no"?>
<!DOCTYPE svg PUBLIC "-//W3C//DTD SVG 1.1//EN"
 "http://www.w3.org/Graphics/SVG/1.1/DTD/svg11.dtd">
<!-- Generated by graphviz version 2.43.0 (0)
 -->
<!-- Title: cv::legacy::TrackerTLD Pages: 1 -->
<svg width="636pt" height="569pt"
 viewBox="0.00 0.00 635.50 569.00" xmlns="http://www.w3.org/2000/svg" xmlns:xlink="http://www.w3.org/1999/xlink">
<g id="graph0" class="graph" transform="scale(1 1) rotate(0) translate(4 565)">
<title>cv::legacy::TrackerTLD</title>
<!-- Node1 -->
<g id="Node000001" class="node">
<title>Node1</title>
<g id="a_Node000001"><a xlink:title="the TLD (Tracking, learning and detection) tracker">
<polygon fill="#999999" stroke="transparent" points="312,-79 194,-79 194,0 312,0 312,-79"/>
<text text-anchor="start" x="199" y="-66.5" font-family="Helvetica,sans-Serif" font-size="10.00">cv::legacy::TrackerTLD</text>
<text text-anchor="start" x="251" y="-51.5" font-family="Helvetica,sans-Serif" font-size="10.00"> </text>
<text text-anchor="start" x="204.5" y="-36.5" font-family="Helvetica,sans-Serif" font-size="10.00">+</text>
<text text-anchor="start" x="224" y="-36.5" font-family="Helvetica,sans-Serif" font-size="10.00">~TrackerTLD()</text>
<text text-anchor="start" x="204.5" y="-21.5" font-family="Helvetica,sans-Serif" font-size="10.00">+</text>
<text text-anchor="start" x="224" y="-21.5" font-family="Helvetica,sans-Serif" font-size="10.00">create()</text>
<text text-anchor="start" x="204.5" y="-6.5" font-family="Helvetica,sans-Serif" font-size="10.00">+</text>
<text text-anchor="start" x="224" y="-6.5" font-family="Helvetica,sans-Serif" font-size="10.00">create()</text>
<polygon fill="#666666" stroke="#666666" points="194,-61.5 194,-61.5 312,-61.5 312,-61.5 194,-61.5"/>
<polygon fill="#666666" stroke="#666666" points="194,-46.5 194,-46.5 312,-46.5 312,-46.5 194,-46.5"/>
<polygon fill="none" stroke="#666666" points="194,0 194,-79 312,-79 312,0 194,0"/>
</a>
</g>
</g>
<!-- Node2 -->
<g id="Node000002" class="node">
<title>Node2</title>
<g id="a_Node000002"><a xlink:href="../../db/dfe/classcv_1_1legacy_1_1Tracker.html" target="_top" xlink:title="Base abstract class for the long&#45;term tracker:">
<polygon fill="white" stroke="transparent" points="302.5,-270 203.5,-270 203.5,-116 302.5,-116 302.5,-270"/>
<text text-anchor="start" x="209" y="-258" font-family="Helvetica,sans-Serif" font-size="10.00">cv::legacy::Tracker</text>
<text text-anchor="start" x="251.5" y="-243" font-family="Helvetica,sans-Serif" font-size="10.00"> </text>
<text text-anchor="start" x="211.5" y="-228" font-family="Helvetica,sans-Serif" font-size="10.00">+</text>
<text text-anchor="start" x="228" y="-228" font-family="Helvetica,sans-Serif" font-size="10.00">Tracker()</text>
<text text-anchor="start" x="211.5" y="-213" font-family="Helvetica,sans-Serif" font-size="10.00">+</text>
<text text-anchor="start" x="228" y="-213" font-family="Helvetica,sans-Serif" font-size="10.00">~Tracker()</text>
<text text-anchor="start" x="211.5" y="-198" font-family="Helvetica,sans-Serif" font-size="10.00">+</text>
<text text-anchor="start" x="228" y="-198" font-family="Helvetica,sans-Serif" font-size="10.00">init()</text>
<text text-anchor="start" x="211.5" y="-183" font-family="Helvetica,sans-Serif" font-size="10.00">+</text>
<text text-anchor="start" x="228" y="-183" font-family="Helvetica,sans-Serif" font-size="10.00">read()</text>
<text text-anchor="start" x="211.5" y="-168" font-family="Helvetica,sans-Serif" font-size="10.00">+</text>
<text text-anchor="start" x="228" y="-168" font-family="Helvetica,sans-Serif" font-size="10.00">update()</text>
<text text-anchor="start" x="211.5" y="-153" font-family="Helvetica,sans-Serif" font-size="10.00">+</text>
<text text-anchor="start" x="228" y="-153" font-family="Helvetica,sans-Serif" font-size="10.00">write()</text>
<text text-anchor="start" x="211.5" y="-138" font-family="Helvetica,sans-Serif" font-size="10.00">#</text>
<text text-anchor="start" x="228" y="-138" font-family="Helvetica,sans-Serif" font-size="10.00">initImpl()</text>
<text text-anchor="start" x="211.5" y="-123" font-family="Helvetica,sans-Serif" font-size="10.00">#</text>
<text text-anchor="start" x="228" y="-123" font-family="Helvetica,sans-Serif" font-size="10.00">updateImpl()</text>
<polygon fill="#666666" stroke="#666666" points="204,-253 204,-253 303,-253 303,-253 204,-253"/>
<polygon fill="#666666" stroke="#666666" points="204,-238 204,-238 303,-238 303,-238 204,-238"/>
<polygon fill="none" stroke="#666666" points="203.5,-116 203.5,-270 302.5,-270 302.5,-116 203.5,-116"/>
</a>
</g>
</g>
<!-- Node2&#45;&gt;Node1 -->
<g id="edge1_Node000001_Node000002" class="edge">
<title>Node2&#45;&gt;Node1</title>
<g id="a_edge1_Node000001_Node000002"><a xlink:title=" ">
<path fill="none" stroke="#63b8ff" d="M253,-105.74C253,-96.51 253,-87.49 253,-79.25"/>
<polygon fill="none" stroke="#63b8ff" points="249.5,-105.81 253,-115.81 256.5,-105.81 249.5,-105.81"/>
</a>
</g>
</g>
<!-- Node3 -->
<g id="Node000003" class="node">
<title>Node3</title>
<g id="a_Node000003"><a xlink:href="../../d3/d46/classcv_1_1Algorithm.html" target="_top" xlink:title="This is a base class for all more or less complex algorithms in OpenCV.">
<polygon fill="white" stroke="transparent" points="110,-561 0,-561 0,-317 110,-317 110,-561"/>
<text text-anchor="start" x="22.5" y="-549" font-family="Helvetica,sans-Serif" font-size="10.00">cv::Algorithm</text>
<text text-anchor="start" x="53" y="-534" font-family="Helvetica,sans-Serif" font-size="10.00"> </text>
<text text-anchor="start" x="4" y="-519" font-family="Helvetica,sans-Serif" font-size="10.00">+</text>
<text text-anchor="start" x="17" y="-519" font-family="Helvetica,sans-Serif" font-size="10.00">Algorithm()</text>
<text text-anchor="start" x="4" y="-504" font-family="Helvetica,sans-Serif" font-size="10.00">+</text>
<text text-anchor="start" x="17" y="-504" font-family="Helvetica,sans-Serif" font-size="10.00">~Algorithm()</text>
<text text-anchor="start" x="4" y="-489" font-family="Helvetica,sans-Serif" font-size="10.00">+</text>
<text text-anchor="start" x="17" y="-489" font-family="Helvetica,sans-Serif" font-size="10.00">clear()</text>
<text text-anchor="start" x="4" y="-474" font-family="Helvetica,sans-Serif" font-size="10.00">+</text>
<text text-anchor="start" x="17" y="-474" font-family="Helvetica,sans-Serif" font-size="10.00">empty()</text>
<text text-anchor="start" x="4" y="-459" font-family="Helvetica,sans-Serif" font-size="10.00">+</text>
<text text-anchor="start" x="17" y="-459" font-family="Helvetica,sans-Serif" font-size="10.00">getDefaultName()</text>
<text text-anchor="start" x="4" y="-444" font-family="Helvetica,sans-Serif" font-size="10.00">+</text>
<text text-anchor="start" x="17" y="-444" font-family="Helvetica,sans-Serif" font-size="10.00">read()</text>
<text text-anchor="start" x="4" y="-429" font-family="Helvetica,sans-Serif" font-size="10.00">+</text>
<text text-anchor="start" x="17" y="-429" font-family="Helvetica,sans-Serif" font-size="10.00">save()</text>
<text text-anchor="start" x="4" y="-414" font-family="Helvetica,sans-Serif" font-size="10.00">+</text>
<text text-anchor="start" x="17" y="-414" font-family="Helvetica,sans-Serif" font-size="10.00">write()</text>
<text text-anchor="start" x="4" y="-399" font-family="Helvetica,sans-Serif" font-size="10.00">+</text>
<text text-anchor="start" x="17" y="-399" font-family="Helvetica,sans-Serif" font-size="10.00">write()</text>
<text text-anchor="start" x="4" y="-384" font-family="Helvetica,sans-Serif" font-size="10.00">+</text>
<text text-anchor="start" x="17" y="-384" font-family="Helvetica,sans-Serif" font-size="10.00">write()</text>
<text text-anchor="start" x="4" y="-369" font-family="Helvetica,sans-Serif" font-size="10.00">+</text>
<text text-anchor="start" x="17" y="-369" font-family="Helvetica,sans-Serif" font-size="10.00">load()</text>
<text text-anchor="start" x="4" y="-354" font-family="Helvetica,sans-Serif" font-size="10.00">+</text>
<text text-anchor="start" x="17" y="-354" font-family="Helvetica,sans-Serif" font-size="10.00">loadFromString()</text>
<text text-anchor="start" x="4" y="-339" font-family="Helvetica,sans-Serif" font-size="10.00">+</text>
<text text-anchor="start" x="17" y="-339" font-family="Helvetica,sans-Serif" font-size="10.00">read()</text>
<text text-anchor="start" x="4" y="-324" font-family="Helvetica,sans-Serif" font-size="10.00">#</text>
<text text-anchor="start" x="17" y="-324" font-family="Helvetica,sans-Serif" font-size="10.00">writeFormat()</text>
<polygon fill="#666666" stroke="#666666" points="0,-544 0,-544 110,-544 110,-544 0,-544"/>
<polygon fill="#666666" stroke="#666666" points="0,-529 0,-529 110,-529 110,-529 0,-529"/>
<polygon fill="none" stroke="#666666" points="0,-317 0,-561 110,-561 110,-317 0,-317"/>
</a>
</g>
</g>
<!-- Node3&#45;&gt;Node2 -->
<g id="edge2_Node000002_Node000003" class="edge">
<title>Node3&#45;&gt;Node2</title>
<g id="a_edge2_Node000002_Node000003"><a xlink:title=" ">
<path fill="none" stroke="#63b8ff" d="M115.88,-321.13C116.91,-319.74 117.95,-318.36 119,-317 143.31,-285.5 176.15,-255.21 203.24,-232.57"/>
<polygon fill="none" stroke="#63b8ff" points="113.02,-319.12 110.07,-329.3 118.72,-323.18 113.02,-319.12"/>
</a>
</g>
</g>
<!-- Node4 -->
<g id="Node000004" class="node">
<title>Node4</title>
<g id="a_Node000004"><a xlink:title=" ">
<polygon fill="white" stroke="transparent" points="160,-463.5 128,-463.5 128,-414.5 160,-414.5 160,-463.5"/>
<text text-anchor="start" x="133" y="-451" font-family="Helvetica,sans-Serif" font-size="10.00">bool</text>
<text text-anchor="start" x="142" y="-436" font-family="Helvetica,sans-Serif" font-size="10.00"> </text>
<text text-anchor="start" x="142" y="-421" font-family="Helvetica,sans-Serif" font-size="10.00"> </text>
<polygon fill="#666666" stroke="#666666" points="128,-446 128,-446 160,-446 160,-446 128,-446"/>
<polygon fill="#666666" stroke="#666666" points="128,-431 128,-431 160,-431 160,-431 128,-431"/>
<polygon fill="none" stroke="#666666" points="128,-414.5 128,-463.5 160,-463.5 160,-414.5 128,-414.5"/>
</a>
</g>
</g>
<!-- Node4&#45;&gt;Node2 -->
<g id="edge3_Node000002_Node000004" class="edge">
<title>Node4&#45;&gt;Node2</title>
<g id="a_edge3_Node000002_Node000004"><a xlink:title=" ">
<path fill="none" stroke="#63b8ff" d="M146.09,-414.44C148.94,-389.44 155.34,-349.18 169,-317 176.29,-299.82 186.15,-282.54 196.55,-266.6"/>
<polygon fill="none" stroke="#63b8ff" points="196.76,-266.29 196.78,-259.08 203.44,-256.33 203.42,-263.54 196.76,-266.29"/>
</a>
</g>
<text text-anchor="middle" x="200" y="-291" font-family="Helvetica,sans-Serif" font-size="10.00" fill="grey"> #isInit</text>
</g>
<!-- Node5 -->
<g id="Node000005" class="node">
<title>Node5</title>
<g id="a_Node000005"><a xlink:title=" ">
<polygon fill="white" stroke="transparent" points="328,-469 178,-469 178,-409 328,-409 328,-469"/>
<text text-anchor="start" x="183" y="-457" font-family="Helvetica,sans-Serif" font-size="10.00">Ptr&lt; cv::detail::tracking</text>
<text text-anchor="start" x="183" y="-446" font-family="Helvetica,sans-Serif" font-size="10.00">::TrackerContribFeatureSet &gt;</text>
<text text-anchor="start" x="251" y="-431" font-family="Helvetica,sans-Serif" font-size="10.00"> </text>
<text text-anchor="start" x="251" y="-416" font-family="Helvetica,sans-Serif" font-size="10.00"> </text>
<polygon fill="#666666" stroke="#666666" points="178,-441 178,-441 328,-441 328,-441 178,-441"/>
<polygon fill="#666666" stroke="#666666" points="178,-426 178,-426 328,-426 328,-426 178,-426"/>
<polygon fill="none" stroke="#666666" points="178,-409 178,-469 328,-469 328,-409 178,-409"/>
</a>
</g>
</g>
<!-- Node5&#45;&gt;Node2 -->
<g id="edge4_Node000002_Node000005" class="edge">
<title>Node5&#45;&gt;Node2</title>
<g id="a_edge4_Node000002_Node000005"><a xlink:title=" ">
<path fill="none" stroke="#63b8ff" d="M253,-408.57C253,-377.34 253,-326.47 253,-282.1"/>
<polygon fill="none" stroke="#63b8ff" points="253,-282.08 249,-276.08 253,-270.08 257,-276.08 253,-282.08"/>
</a>
</g>
<text text-anchor="middle" x="284.5" y="-291" font-family="Helvetica,sans-Serif" font-size="10.00" fill="grey"> #featureSet</text>
</g>
<!-- Node6 -->
<g id="Node000006" class="node">
<title>Node6</title>
<g id="a_Node000006"><a xlink:title=" ">
<polygon fill="white" stroke="transparent" points="484,-469 346,-469 346,-409 484,-409 484,-469"/>
<text text-anchor="start" x="351" y="-457" font-family="Helvetica,sans-Serif" font-size="10.00">Ptr&lt; cv::detail::tracking</text>
<text text-anchor="start" x="351" y="-446" font-family="Helvetica,sans-Serif" font-size="10.00">::TrackerContribSampler &gt;</text>
<text text-anchor="start" x="413" y="-431" font-family="Helvetica,sans-Serif" font-size="10.00"> </text>
<text text-anchor="start" x="413" y="-416" font-family="Helvetica,sans-Serif" font-size="10.00"> </text>
<polygon fill="#666666" stroke="#666666" points="346,-441 346,-441 484,-441 484,-441 346,-441"/>
<polygon fill="#666666" stroke="#666666" points="346,-426 346,-426 484,-426 484,-426 346,-426"/>
<polygon fill="none" stroke="#666666" points="346,-409 346,-469 484,-469 484,-409 346,-409"/>
</a>
</g>
</g>
<!-- Node6&#45;&gt;Node2 -->
<g id="edge5_Node000002_Node000006" class="edge">
<title>Node6&#45;&gt;Node2</title>
<g id="a_edge5_Node000002_Node000006"><a xlink:title=" ">
<path fill="none" stroke="#63b8ff" d="M397.25,-408.94C378.5,-378.5 347.86,-329.44 320,-288 316.63,-282.98 313.12,-277.84 309.55,-272.68"/>
<polygon fill="none" stroke="#63b8ff" points="309.5,-272.6 302.79,-269.96 302.65,-262.75 309.36,-265.39 309.5,-272.6"/>
</a>
</g>
<text text-anchor="middle" x="351" y="-291" font-family="Helvetica,sans-Serif" font-size="10.00" fill="grey"> #sampler</text>
</g>
<!-- Node7 -->
<g id="Node000007" class="node">
<title>Node7</title>
<g id="a_Node000007"><a xlink:title=" ">
<polygon fill="white" stroke="transparent" points="627.5,-469 502.5,-469 502.5,-409 627.5,-409 627.5,-469"/>
<text text-anchor="start" x="508" y="-457" font-family="Helvetica,sans-Serif" font-size="10.00">Ptr&lt; cv::detail::tracking</text>
<text text-anchor="start" x="524.5" y="-446" font-family="Helvetica,sans-Serif" font-size="10.00">::TrackerModel &gt;</text>
<text text-anchor="start" x="563.5" y="-431" font-family="Helvetica,sans-Serif" font-size="10.00"> </text>
<text text-anchor="start" x="563.5" y="-416" font-family="Helvetica,sans-Serif" font-size="10.00"> </text>
<polygon fill="#666666" stroke="#666666" points="503,-441 503,-441 628,-441 628,-441 503,-441"/>
<polygon fill="#666666" stroke="#666666" points="503,-426 503,-426 628,-426 628,-426 503,-426"/>
<polygon fill="none" stroke="#666666" points="502.5,-409 502.5,-469 627.5,-469 627.5,-409 502.5,-409"/>
</a>
</g>
</g>
<!-- Node7&#45;&gt;Node2 -->
<g id="edge6_Node000002_Node000007" class="edge">
<title>Node7&#45;&gt;Node2</title>
<g id="a_edge6_Node000002_Node000007"><a xlink:title=" ">
<path fill="none" stroke="#63b8ff" d="M553.35,-408.98C541.46,-382.32 520.8,-343.1 493,-317 441.27,-268.44 366.69,-234.27 314.43,-214.47"/>
<polygon fill="none" stroke="#63b8ff" points="314.23,-214.4 307.21,-216.06 302.98,-210.22 309.99,-208.56 314.23,-214.4"/>
</a>
</g>
<text text-anchor="middle" x="491.5" y="-291" font-family="Helvetica,sans-Serif" font-size="10.00" fill="grey"> #model</text>
</g>
</g>
</svg>
