<?xml version="1.0" encoding="UTF-8" standalone="no"?>
<!DOCTYPE svg PUBLIC "-//W3C//DTD SVG 1.1//EN"
 "http://www.w3.org/Graphics/SVG/1.1/DTD/svg11.dtd">
<!-- Generated by graphviz version 2.43.0 (0)
 -->
<!-- Title: cv::detail::DpSeamFinder Pages: 1 -->
<svg width="140pt" height="247pt"
 viewBox="0.00 0.00 140.00 247.00" xmlns="http://www.w3.org/2000/svg" xmlns:xlink="http://www.w3.org/1999/xlink">
<g id="graph0" class="graph" transform="scale(1 1) rotate(0) translate(4 243)">
<title>cv::detail::DpSeamFinder</title>
<!-- Node1 -->
<g id="Node000001" class="node">
<title>Node1</title>
<g id="a_Node000001"><a xlink:title=" ">
<polygon fill="#999999" stroke="transparent" points="132,-124 0,-124 0,0 132,0 132,-124"/>
<text text-anchor="start" x="5" y="-112" font-family="Helvetica,sans-Serif" font-size="10.00">cv::detail::DpSeamFinder</text>
<text text-anchor="start" x="64" y="-97" font-family="Helvetica,sans-Serif" font-size="10.00"> </text>
<text text-anchor="start" x="10" y="-82" font-family="Helvetica,sans-Serif" font-size="10.00">+</text>
<text text-anchor="start" x="29" y="-82" font-family="Helvetica,sans-Serif" font-size="10.00">DpSeamFinder()</text>
<text text-anchor="start" x="10" y="-67" font-family="Helvetica,sans-Serif" font-size="10.00">+</text>
<text text-anchor="start" x="29" y="-67" font-family="Helvetica,sans-Serif" font-size="10.00">DpSeamFinder()</text>
<text text-anchor="start" x="10" y="-52" font-family="Helvetica,sans-Serif" font-size="10.00">+</text>
<text text-anchor="start" x="29" y="-52" font-family="Helvetica,sans-Serif" font-size="10.00">costFunction()</text>
<text text-anchor="start" x="10" y="-37" font-family="Helvetica,sans-Serif" font-size="10.00">+</text>
<text text-anchor="start" x="29" y="-37" font-family="Helvetica,sans-Serif" font-size="10.00">find()</text>
<text text-anchor="start" x="10" y="-22" font-family="Helvetica,sans-Serif" font-size="10.00">+</text>
<text text-anchor="start" x="29" y="-22" font-family="Helvetica,sans-Serif" font-size="10.00">setCostFunction()</text>
<text text-anchor="start" x="10" y="-7" font-family="Helvetica,sans-Serif" font-size="10.00">+</text>
<text text-anchor="start" x="29" y="-7" font-family="Helvetica,sans-Serif" font-size="10.00">setCostFunction()</text>
<polygon fill="#666666" stroke="#666666" points="0,-107 0,-107 132,-107 132,-107 0,-107"/>
<polygon fill="#666666" stroke="#666666" points="0,-92 0,-92 132,-92 132,-92 0,-92"/>
<polygon fill="none" stroke="#666666" points="0,0 0,-124 132,-124 132,0 0,0"/>
</a>
</g>
</g>
<!-- Node2 -->
<g id="Node000002" class="node">
<title>Node2</title>
<g id="a_Node000002"><a xlink:href="../../d7/d09/classcv_1_1detail_1_1SeamFinder.html" target="_top" xlink:title="Base class for a seam estimator.">
<polygon fill="white" stroke="transparent" points="125.5,-239 6.5,-239 6.5,-160 125.5,-160 125.5,-239"/>
<text text-anchor="start" x="12" y="-226.5" font-family="Helvetica,sans-Serif" font-size="10.00">cv::detail::SeamFinder</text>
<text text-anchor="start" x="64.5" y="-211.5" font-family="Helvetica,sans-Serif" font-size="10.00"> </text>
<text text-anchor="start" x="16.5" y="-196.5" font-family="Helvetica,sans-Serif" font-size="10.00">+</text>
<text text-anchor="start" x="35" y="-196.5" font-family="Helvetica,sans-Serif" font-size="10.00">~SeamFinder()</text>
<text text-anchor="start" x="16.5" y="-181.5" font-family="Helvetica,sans-Serif" font-size="10.00">+</text>
<text text-anchor="start" x="35" y="-181.5" font-family="Helvetica,sans-Serif" font-size="10.00">find()</text>
<text text-anchor="start" x="16.5" y="-166.5" font-family="Helvetica,sans-Serif" font-size="10.00">+</text>
<text text-anchor="start" x="35" y="-166.5" font-family="Helvetica,sans-Serif" font-size="10.00">createDefault()</text>
<polygon fill="#666666" stroke="#666666" points="7,-221.5 7,-221.5 126,-221.5 126,-221.5 7,-221.5"/>
<polygon fill="#666666" stroke="#666666" points="7,-206.5 7,-206.5 126,-206.5 126,-206.5 7,-206.5"/>
<polygon fill="none" stroke="#666666" points="6.5,-160 6.5,-239 125.5,-239 125.5,-160 6.5,-160"/>
</a>
</g>
</g>
<!-- Node2&#45;&gt;Node1 -->
<g id="edge1_Node000001_Node000002" class="edge">
<title>Node2&#45;&gt;Node1</title>
<g id="a_edge1_Node000001_Node000002"><a xlink:title=" ">
<path fill="none" stroke="#63b8ff" d="M66,-149.48C66,-141.24 66,-132.59 66,-124.09"/>
<polygon fill="none" stroke="#63b8ff" points="62.5,-149.67 66,-159.67 69.5,-149.67 62.5,-149.67"/>
</a>
</g>
</g>
</g>
</svg>
