<?xml version="1.0" encoding="UTF-8" standalone="no"?>
<!DOCTYPE svg PUBLIC "-//W3C//DTD SVG 1.1//EN"
 "http://www.w3.org/Graphics/SVG/1.1/DTD/svg11.dtd">
<!-- Generated by graphviz version 2.43.0 (0)
 -->
<!-- Title: opencv2/dnn/version.hpp Pages: 1 -->
<svg width="1078pt" height="269pt"
 viewBox="0.00 0.00 1077.79 269.00" xmlns="http://www.w3.org/2000/svg" xmlns:xlink="http://www.w3.org/1999/xlink">
<g id="graph0" class="graph" transform="scale(1 1) rotate(0) translate(4 265)">
<title>opencv2/dnn/version.hpp</title>
<!-- Node1 -->
<g id="Node000001" class="node">
<title>Node1</title>
<g id="a_Node000001"><a xlink:title=" ">
<polygon fill="#999999" stroke="#666666" points="799.5,-261 660.5,-261 660.5,-242 799.5,-242 799.5,-261"/>
<text text-anchor="middle" x="730" y="-249" font-family="Helvetica,sans-Serif" font-size="10.00">opencv2/dnn/version.hpp</text>
</a>
</g>
</g>
<!-- Node2 -->
<g id="Node000002" class="node">
<title>Node2</title>
<g id="a_Node000002"><a xlink:href="../../db/ddc/dnn_2dnn_8hpp.html" target="_top" xlink:title=" ">
<polygon fill="white" stroke="#666666" points="790.5,-206 669.5,-206 669.5,-187 790.5,-187 790.5,-206"/>
<text text-anchor="middle" x="730" y="-194" font-family="Helvetica,sans-Serif" font-size="10.00">opencv2/dnn/dnn.hpp</text>
</a>
</g>
</g>
<!-- Node1&#45;&gt;Node2 -->
<g id="edge1_Node000001_Node000002" class="edge">
<title>Node1&#45;&gt;Node2</title>
<g id="a_edge1_Node000001_Node000002"><a xlink:title=" ">
<path fill="none" stroke="#63b8ff" d="M730,-231.66C730,-222.93 730,-212.99 730,-206.09"/>
<polygon fill="#63b8ff" stroke="#63b8ff" points="726.5,-231.75 730,-241.75 733.5,-231.75 726.5,-231.75"/>
</a>
</g>
</g>
<!-- Node3 -->
<g id="Node000003" class="node">
<title>Node3</title>
<g id="a_Node000003"><a xlink:href="../../d9/d8c/dnn_8hpp.html" target="_top" xlink:title=" ">
<polygon fill="white" stroke="#666666" points="411,-145.5 311,-145.5 311,-126.5 411,-126.5 411,-145.5"/>
<text text-anchor="middle" x="361" y="-133.5" font-family="Helvetica,sans-Serif" font-size="10.00">opencv2/dnn.hpp</text>
</a>
</g>
</g>
<!-- Node2&#45;&gt;Node3 -->
<g id="edge2_Node000002_Node000003" class="edge">
<title>Node2&#45;&gt;Node3</title>
<g id="a_edge2_Node000002_Node000003"><a xlink:title=" ">
<path fill="none" stroke="#63b8ff" d="M659.21,-187.19C596.18,-179.35 501.59,-166.5 420,-151 411.73,-149.43 402.86,-147.47 394.58,-145.52"/>
<polygon fill="#63b8ff" stroke="#63b8ff" points="659.08,-190.7 669.43,-188.45 659.94,-183.75 659.08,-190.7"/>
</a>
</g>
</g>
<!-- Node11 -->
<g id="Node000011" class="node">
<title>Node11</title>
<g id="a_Node000011"><a xlink:href="../../df/de6/dict_8hpp.html" target="_top" xlink:title=" ">
<polygon fill="white" stroke="#666666" points="550.5,-145.5 429.5,-145.5 429.5,-126.5 550.5,-126.5 550.5,-145.5"/>
<text text-anchor="middle" x="490" y="-133.5" font-family="Helvetica,sans-Serif" font-size="10.00">opencv2/dnn/dict.hpp</text>
</a>
</g>
</g>
<!-- Node2&#45;&gt;Node11 -->
<g id="edge11_Node000002_Node000011" class="edge">
<title>Node2&#45;&gt;Node11</title>
<g id="a_edge11_Node000002_Node000011"><a xlink:title=" ">
<path fill="none" stroke="#63b8ff" d="M680.23,-184.68C631.89,-173.38 560.24,-155.88 520.01,-145.52"/>
<polygon fill="#63b8ff" stroke="#63b8ff" points="679.64,-188.14 690.17,-186.99 681.23,-181.32 679.64,-188.14"/>
</a>
</g>
</g>
<!-- Node12 -->
<g id="Node000012" class="node">
<title>Node12</title>
<g id="a_Node000012"><a xlink:href="../../d1/ddb/shape__utils_8hpp.html" target="_top" xlink:title=" ">
<polygon fill="white" stroke="#666666" points="727,-145.5 569,-145.5 569,-126.5 727,-126.5 727,-145.5"/>
<text text-anchor="middle" x="648" y="-133.5" font-family="Helvetica,sans-Serif" font-size="10.00">opencv2/dnn/shape_utils.hpp</text>
</a>
</g>
</g>
<!-- Node2&#45;&gt;Node12 -->
<g id="edge13_Node000002_Node000012" class="edge">
<title>Node2&#45;&gt;Node12</title>
<g id="a_edge13_Node000002_Node000012"><a xlink:title=" ">
<path fill="none" stroke="#63b8ff" d="M709.46,-180.85C693.93,-169.77 673.13,-154.93 660.15,-145.67"/>
<polygon fill="#63b8ff" stroke="#63b8ff" points="707.73,-183.91 717.9,-186.87 711.79,-178.21 707.73,-183.91"/>
</a>
</g>
</g>
<!-- Node13 -->
<g id="Node000013" class="node">
<title>Node13</title>
<g id="a_Node000013"><a xlink:href="../../d6/d32/debug__utils_8hpp.html" target="_top" xlink:title=" ">
<polygon fill="white" stroke="#666666" points="881,-151 745,-151 745,-121 881,-121 881,-151"/>
<text text-anchor="start" x="753" y="-139" font-family="Helvetica,sans-Serif" font-size="10.00">opencv2/dnn/utils/debug</text>
<text text-anchor="middle" x="813" y="-128" font-family="Helvetica,sans-Serif" font-size="10.00">_utils.hpp</text>
</a>
</g>
</g>
<!-- Node2&#45;&gt;Node13 -->
<g id="edge14_Node000002_Node000013" class="edge">
<title>Node2&#45;&gt;Node13</title>
<g id="a_edge14_Node000002_Node000013"><a xlink:title=" ">
<path fill="none" stroke="#63b8ff" d="M750.53,-181.03C763.48,-171.9 780.12,-160.17 792.97,-151.11"/>
<polygon fill="#63b8ff" stroke="#63b8ff" points="748.4,-178.25 742.25,-186.87 752.44,-183.97 748.4,-178.25"/>
</a>
</g>
</g>
<!-- Node14 -->
<g id="Node000014" class="node">
<title>Node14</title>
<g id="a_Node000014"><a xlink:href="../../d8/dcd/inference__engine_8hpp.html" target="_top" xlink:title=" ">
<polygon fill="white" stroke="#666666" points="1051,-151 899,-151 899,-121 1051,-121 1051,-151"/>
<text text-anchor="start" x="907" y="-139" font-family="Helvetica,sans-Serif" font-size="10.00">opencv2/dnn/utils/inference</text>
<text text-anchor="middle" x="975" y="-128" font-family="Helvetica,sans-Serif" font-size="10.00">_engine.hpp</text>
</a>
</g>
</g>
<!-- Node2&#45;&gt;Node14 -->
<g id="edge15_Node000002_Node000014" class="edge">
<title>Node2&#45;&gt;Node14</title>
<g id="a_edge15_Node000002_Node000014"><a xlink:title=" ">
<path fill="none" stroke="#63b8ff" d="M770.4,-184.56C808.42,-175.1 865.85,-161.35 910.23,-151.06"/>
<polygon fill="#63b8ff" stroke="#63b8ff" points="769.55,-181.17 760.7,-186.99 771.25,-187.96 769.55,-181.17"/>
</a>
</g>
</g>
<!-- Node4 -->
<g id="Node000004" class="node">
<title>Node4</title>
<g id="a_Node000004"><a xlink:href="../../dd/d6b/all__layers_8hpp.html" target="_top" xlink:title=" ">
<polygon fill="white" stroke="#666666" points="520,-79.5 370,-79.5 370,-60.5 520,-60.5 520,-79.5"/>
<text text-anchor="middle" x="445" y="-67.5" font-family="Helvetica,sans-Serif" font-size="10.00">opencv2/dnn/all_layers.hpp</text>
</a>
</g>
</g>
<!-- Node3&#45;&gt;Node4 -->
<g id="edge3_Node000003_Node000004" class="edge">
<title>Node3&#45;&gt;Node4</title>
<g id="a_edge3_Node000003_Node000004"><a xlink:title=" ">
<path fill="none" stroke="#63b8ff" d="M380.7,-119.99C397.15,-107.46 420.01,-90.04 433.58,-79.7"/>
<polygon fill="#63b8ff" stroke="#63b8ff" points="378.16,-117.52 372.33,-126.37 382.4,-123.09 378.16,-117.52"/>
</a>
</g>
</g>
<!-- Node5 -->
<g id="Node000005" class="node">
<title>Node5</title>
<g id="a_Node000005"><a xlink:href="../../d4/db0/layer_8hpp.html" target="_top" xlink:title=" ">
<polygon fill="white" stroke="#666666" points="936.5,-79.5 809.5,-79.5 809.5,-60.5 936.5,-60.5 936.5,-79.5"/>
<text text-anchor="middle" x="873" y="-67.5" font-family="Helvetica,sans-Serif" font-size="10.00">opencv2/dnn/layer.hpp</text>
</a>
</g>
</g>
<!-- Node3&#45;&gt;Node5 -->
<g id="edge4_Node000003_Node000005" class="edge">
<title>Node3&#45;&gt;Node5</title>
<g id="a_edge4_Node000003_Node000005"><a xlink:title=" ">
<path fill="none" stroke="#63b8ff" d="M404.06,-124.14C409.41,-122.98 414.82,-121.9 420,-121 557.8,-97.14 721.26,-82.39 809.26,-75.55"/>
<polygon fill="#63b8ff" stroke="#63b8ff" points="402.91,-120.81 393.93,-126.43 404.46,-127.64 402.91,-120.81"/>
</a>
</g>
</g>
<!-- Node7 -->
<g id="Node000007" class="node">
<title>Node7</title>
<g id="a_Node000007"><a xlink:href="../../d0/d7e/layer__reg_8private_8hpp.html" target="_top" xlink:title=" ">
<polygon fill="white" stroke="#666666" points="186,-79.5 0,-79.5 0,-60.5 186,-60.5 186,-79.5"/>
<text text-anchor="middle" x="93" y="-67.5" font-family="Helvetica,sans-Serif" font-size="10.00">opencv2/dnn/layer_reg.private.hpp</text>
</a>
</g>
</g>
<!-- Node3&#45;&gt;Node7 -->
<g id="edge7_Node000003_Node000007" class="edge">
<title>Node3&#45;&gt;Node7</title>
<g id="a_edge7_Node000003_Node000007"><a xlink:title=" ">
<path fill="none" stroke="#63b8ff" d="M315.36,-124.1C262.57,-111.49 176.78,-91.01 128.65,-79.51"/>
<polygon fill="#63b8ff" stroke="#63b8ff" points="314.59,-127.52 325.13,-126.44 316.22,-120.71 314.59,-127.52"/>
</a>
</g>
</g>
<!-- Node8 -->
<g id="Node000008" class="node">
<title>Node8</title>
<g id="a_Node000008"><a xlink:href="../../d3/db0/dnn__superres_8hpp.html" target="_top" xlink:title=" ">
<polygon fill="white" stroke="#666666" points="351.5,-79.5 204.5,-79.5 204.5,-60.5 351.5,-60.5 351.5,-79.5"/>
<text text-anchor="middle" x="278" y="-67.5" font-family="Helvetica,sans-Serif" font-size="10.00">opencv2/dnn_superres.hpp</text>
</a>
</g>
</g>
<!-- Node3&#45;&gt;Node8 -->
<g id="edge8_Node000003_Node000008" class="edge">
<title>Node3&#45;&gt;Node8</title>
<g id="a_edge8_Node000003_Node000008"><a xlink:title=" ">
<path fill="none" stroke="#63b8ff" d="M341.53,-119.99C325.28,-107.46 302.69,-90.04 289.28,-79.7"/>
<polygon fill="#63b8ff" stroke="#63b8ff" points="339.75,-123.03 349.81,-126.37 344.02,-117.49 339.75,-123.03"/>
</a>
</g>
</g>
<!-- Node9 -->
<g id="Node000009" class="node">
<title>Node9</title>
<g id="a_Node000009"><a xlink:href="../../d1/d09/checker__detector_8hpp.html" target="_top" xlink:title=" ">
<polygon fill="white" stroke="#666666" points="660,-85 538,-85 538,-55 660,-55 660,-85"/>
<text text-anchor="start" x="546" y="-73" font-family="Helvetica,sans-Serif" font-size="10.00">opencv2/mcc/checker</text>
<text text-anchor="middle" x="599" y="-62" font-family="Helvetica,sans-Serif" font-size="10.00">_detector.hpp</text>
</a>
</g>
</g>
<!-- Node3&#45;&gt;Node9 -->
<g id="edge9_Node000003_Node000009" class="edge">
<title>Node3&#45;&gt;Node9</title>
<g id="a_edge9_Node000003_Node000009"><a xlink:title=" ">
<path fill="none" stroke="#63b8ff" d="M402.8,-123.76C442.81,-113 503.28,-96.74 546.51,-85.12"/>
<polygon fill="#63b8ff" stroke="#63b8ff" points="401.85,-120.39 393.1,-126.37 403.66,-127.15 401.85,-120.39"/>
</a>
</g>
</g>
<!-- Node5&#45;&gt;Node2 -->
<g id="edge5_Node000005_Node000002" class="edge">
<title>Node5&#45;&gt;Node2</title>
<g id="a_edge5_Node000005_Node000002"><a xlink:title=" ">
<path fill="none" stroke="#63b8ff" d="M946.92,-78.24C1014.07,-87.66 1097.36,-108.27 1060,-151 1025.71,-190.23 876.11,-196.28 790.57,-196.42"/>
<polygon fill="#63b8ff" stroke="#63b8ff" points="947.1,-74.73 936.72,-76.87 946.17,-81.67 947.1,-74.73"/>
</a>
</g>
</g>
<!-- Node6 -->
<g id="Node000006" class="node">
<title>Node6</title>
<g id="a_Node000006"><a xlink:href="../../df/d8c/layer_8details_8hpp.html" target="_top" xlink:title=" ">
<polygon fill="white" stroke="#666666" points="954.5,-19 791.5,-19 791.5,0 954.5,0 954.5,-19"/>
<text text-anchor="middle" x="873" y="-7" font-family="Helvetica,sans-Serif" font-size="10.00">opencv2/dnn/layer.details.hpp</text>
</a>
</g>
</g>
<!-- Node5&#45;&gt;Node6 -->
<g id="edge6_Node000005_Node000006" class="edge">
<title>Node5&#45;&gt;Node6</title>
<g id="a_edge6_Node000005_Node000006"><a xlink:title=" ">
<path fill="none" stroke="#63b8ff" d="M873,-50.16C873,-39.74 873,-27.3 873,-19.17"/>
<polygon fill="#63b8ff" stroke="#63b8ff" points="869.5,-50.37 873,-60.37 876.5,-50.37 869.5,-50.37"/>
</a>
</g>
</g>
<!-- Node10 -->
<g id="Node000010" class="node">
<title>Node10</title>
<g id="a_Node000010"><a xlink:href="../../df/d35/mcc_8hpp.html" target="_top" xlink:title=" ">
<polygon fill="white" stroke="#666666" points="650,-19 548,-19 548,0 650,0 650,-19"/>
<text text-anchor="middle" x="599" y="-7" font-family="Helvetica,sans-Serif" font-size="10.00">opencv2/mcc.hpp</text>
</a>
</g>
</g>
<!-- Node9&#45;&gt;Node10 -->
<g id="edge10_Node000009_Node000010" class="edge">
<title>Node9&#45;&gt;Node10</title>
<g id="a_edge10_Node000009_Node000010"><a xlink:title=" ">
<path fill="none" stroke="#63b8ff" d="M599,-44.75C599,-35.72 599,-26.03 599,-19.27"/>
<polygon fill="#63b8ff" stroke="#63b8ff" points="595.5,-44.84 599,-54.84 602.5,-44.84 595.5,-44.84"/>
</a>
</g>
</g>
<!-- Node11&#45;&gt;Node2 -->
<g id="edge12_Node000011_Node000002" class="edge">
<title>Node11&#45;&gt;Node2</title>
<g id="a_edge12_Node000011_Node000002"><a xlink:title=" ">
<path fill="none" stroke="#63b8ff" d="M539.82,-147.83C588.17,-159.14 659.82,-176.64 700.03,-186.99"/>
<polygon fill="#63b8ff" stroke="#63b8ff" points="540.4,-144.37 529.87,-145.52 538.82,-151.19 540.4,-144.37"/>
</a>
</g>
</g>
<!-- Node14&#45;&gt;Node2 -->
<g id="edge16_Node000014_Node000002" class="edge">
<title>Node14&#45;&gt;Node2</title>
<g id="a_edge16_Node000014_Node000002"><a xlink:title=" ">
<path fill="none" stroke="#63b8ff" d="M912.1,-153.48C867.53,-164.39 809.11,-178.24 770.55,-186.99"/>
<polygon fill="#63b8ff" stroke="#63b8ff" points="913.09,-156.85 921.96,-151.06 911.42,-150.05 913.09,-156.85"/>
</a>
</g>
</g>
</g>
</svg>
