<?xml version="1.0" encoding="UTF-8" standalone="no"?>
<!DOCTYPE svg PUBLIC "-//W3C//DTD SVG 1.1//EN"
 "http://www.w3.org/Graphics/SVG/1.1/DTD/svg11.dtd">
<!-- Generated by graphviz version 2.43.0 (0)
 -->
<!-- Title: cv::cudev::PtrTraits&lt; AffineMapPtrSz &gt; Pages: 1 -->
<svg width="220pt" height="343pt"
 viewBox="0.00 0.00 220.00 343.00" xmlns="http://www.w3.org/2000/svg" xmlns:xlink="http://www.w3.org/1999/xlink">
<g id="graph0" class="graph" transform="scale(1 1) rotate(0) translate(4 339)">
<title>cv::cudev::PtrTraits&lt; AffineMapPtrSz &gt;</title>
<!-- Node1 -->
<g id="Node000001" class="node">
<title>Node1</title>
<g id="a_Node000001"><a xlink:title=" ">
<polygon fill="#999999" stroke="transparent" points="141.5,-60 34.5,-60 34.5,0 141.5,0 141.5,-60"/>
<text text-anchor="start" x="40" y="-48" font-family="Helvetica,sans-Serif" font-size="10.00">cv::cudev::PtrTraits</text>
<text text-anchor="start" x="40" y="-37" font-family="Helvetica,sans-Serif" font-size="10.00">&lt; AffineMapPtrSz &gt;</text>
<text text-anchor="start" x="86.5" y="-22" font-family="Helvetica,sans-Serif" font-size="10.00"> </text>
<text text-anchor="start" x="86.5" y="-7" font-family="Helvetica,sans-Serif" font-size="10.00"> </text>
<polygon fill="#666666" stroke="#666666" points="35,-32 35,-32 142,-32 142,-32 35,-32"/>
<polygon fill="#666666" stroke="#666666" points="35,-17 35,-17 142,-17 142,-17 35,-17"/>
<polygon fill="none" stroke="#666666" points="34.5,0 34.5,-60 141.5,-60 141.5,0 34.5,0"/>
</a>
</g>
</g>
<!-- Node2 -->
<g id="Node000002" class="node">
<title>Node2</title>
<g id="a_Node000002"><a xlink:href="../../db/d3c/structcv_1_1cudev_1_1PtrTraitsBase.html" target="_top" xlink:title=" ">
<polygon fill="white" stroke="transparent" points="176,-187 0,-187 0,-97 176,-97 176,-187"/>
<text text-anchor="start" x="5" y="-175" font-family="Helvetica,sans-Serif" font-size="10.00">cv::cudev::PtrTraitsBase</text>
<text text-anchor="start" x="5" y="-164" font-family="Helvetica,sans-Serif" font-size="10.00">&lt; AffineMapPtrSz, AffineMapPtr &gt;</text>
<text text-anchor="start" x="86" y="-149" font-family="Helvetica,sans-Serif" font-size="10.00"> </text>
<text text-anchor="start" x="29.5" y="-134" font-family="Helvetica,sans-Serif" font-size="10.00">+</text>
<text text-anchor="start" x="68" y="-134" font-family="Helvetica,sans-Serif" font-size="10.00">getCols()</text>
<text text-anchor="start" x="29.5" y="-119" font-family="Helvetica,sans-Serif" font-size="10.00">+</text>
<text text-anchor="start" x="68" y="-119" font-family="Helvetica,sans-Serif" font-size="10.00">getRows()</text>
<text text-anchor="start" x="29.5" y="-104" font-family="Helvetica,sans-Serif" font-size="10.00">+</text>
<text text-anchor="start" x="68" y="-104" font-family="Helvetica,sans-Serif" font-size="10.00">shrinkPtr()</text>
<polygon fill="#666666" stroke="#666666" points="0,-159 0,-159 176,-159 176,-159 0,-159"/>
<polygon fill="#666666" stroke="#666666" points="0,-144 0,-144 176,-144 176,-144 0,-144"/>
<polygon fill="none" stroke="#666666" points="0,-97 0,-187 176,-187 176,-97 0,-97"/>
</a>
</g>
</g>
<!-- Node2&#45;&gt;Node1 -->
<g id="edge1_Node000001_Node000002" class="edge">
<title>Node2&#45;&gt;Node1</title>
<g id="a_edge1_Node000001_Node000002"><a xlink:title=" ">
<path fill="none" stroke="#63b8ff" d="M88,-86.68C88,-77.57 88,-68.44 88,-60.28"/>
<polygon fill="none" stroke="#63b8ff" points="84.5,-86.89 88,-96.89 91.5,-86.89 84.5,-86.89"/>
</a>
</g>
</g>
<!-- Node3 -->
<g id="Node000003" class="node">
<title>Node3</title>
<g id="a_Node000003"><a xlink:href="../../db/d3c/structcv_1_1cudev_1_1PtrTraitsBase.html" target="_top" xlink:title=" ">
<polygon fill="white" stroke="transparent" points="150.5,-335 25.5,-335 25.5,-245 150.5,-245 150.5,-335"/>
<text text-anchor="start" x="31" y="-323" font-family="Helvetica,sans-Serif" font-size="10.00">cv::cudev::PtrTraitsBase</text>
<text text-anchor="start" x="41.5" y="-312" font-family="Helvetica,sans-Serif" font-size="10.00">&lt; Ptr2DSz, Ptr2D &gt;</text>
<text text-anchor="start" x="86.5" y="-297" font-family="Helvetica,sans-Serif" font-size="10.00"> </text>
<text text-anchor="start" x="43" y="-282" font-family="Helvetica,sans-Serif" font-size="10.00">+</text>
<text text-anchor="start" x="69" y="-282" font-family="Helvetica,sans-Serif" font-size="10.00">getCols()</text>
<text text-anchor="start" x="43" y="-267" font-family="Helvetica,sans-Serif" font-size="10.00">+</text>
<text text-anchor="start" x="69" y="-267" font-family="Helvetica,sans-Serif" font-size="10.00">getRows()</text>
<text text-anchor="start" x="43" y="-252" font-family="Helvetica,sans-Serif" font-size="10.00">+</text>
<text text-anchor="start" x="69" y="-252" font-family="Helvetica,sans-Serif" font-size="10.00">shrinkPtr()</text>
<polygon fill="#666666" stroke="#666666" points="26,-307 26,-307 151,-307 151,-307 26,-307"/>
<polygon fill="#666666" stroke="#666666" points="26,-292 26,-292 151,-292 151,-292 26,-292"/>
<polygon fill="none" stroke="#666666" points="25.5,-245 25.5,-335 150.5,-335 150.5,-245 25.5,-245"/>
</a>
</g>
</g>
<!-- Node3&#45;&gt;Node2 -->
<g id="edge2_Node000002_Node000003" class="edge">
<title>Node3&#45;&gt;Node2</title>
<g id="a_edge2_Node000002_Node000003"><a xlink:title=" ">
<path fill="none" stroke="orange" d="M88,-234.69C88,-218.99 88,-202.05 88,-187.05"/>
<polygon fill="orange" stroke="orange" points="84.5,-234.8 88,-244.8 91.5,-234.8 84.5,-234.8"/>
</a>
</g>
<text text-anchor="start" x="88" y="-219" font-family="Helvetica,sans-Serif" font-size="10.00" fill="grey"> &lt; AffineMapPtrSz, Affine</text>
<text text-anchor="middle" x="150" y="-208" font-family="Helvetica,sans-Serif" font-size="10.00" fill="grey">MapPtr &gt;</text>
</g>
</g>
</svg>
