<?xml version="1.0" encoding="UTF-8" standalone="no"?>
<!DOCTYPE svg PUBLIC "-//W3C//DTD SVG 1.1//EN"
 "http://www.w3.org/Graphics/SVG/1.1/DTD/svg11.dtd">
<!-- Generated by graphviz version 2.43.0 (0)
 -->
<!-- Title: cv::saliency::StaticSaliencyFineGrained Pages: 1 -->
<svg width="227pt" height="733pt"
 viewBox="0.00 0.00 226.50 733.00" xmlns="http://www.w3.org/2000/svg" xmlns:xlink="http://www.w3.org/1999/xlink">
<g id="graph0" class="graph" transform="scale(1 1) rotate(0) translate(4 729)">
<title>cv::saliency::StaticSaliencyFineGrained</title>
<!-- Node1 -->
<g id="Node000001" class="node">
<title>Node1</title>
<g id="a_Node000001"><a xlink:title="the Fine Grained Saliency approach from">
<polygon fill="#999999" stroke="transparent" points="165,-120 0,-120 0,0 165,0 165,-120"/>
<text text-anchor="start" x="17" y="-108" font-family="Helvetica,sans-Serif" font-size="10.00">cv::saliency::StaticSaliency</text>
<text text-anchor="start" x="53.5" y="-97" font-family="Helvetica,sans-Serif" font-size="10.00">FineGrained</text>
<text text-anchor="start" x="81" y="-82" font-family="Helvetica,sans-Serif" font-size="10.00"> </text>
<text text-anchor="start" x="4.5" y="-67" font-family="Helvetica,sans-Serif" font-size="10.00">+</text>
<text text-anchor="start" x="17.5" y="-67" font-family="Helvetica,sans-Serif" font-size="10.00">StaticSaliencyFineGrained()</text>
<text text-anchor="start" x="4.5" y="-52" font-family="Helvetica,sans-Serif" font-size="10.00">+</text>
<text text-anchor="start" x="17.5" y="-52" font-family="Helvetica,sans-Serif" font-size="10.00">~StaticSaliencyFineGrained()</text>
<text text-anchor="start" x="4.5" y="-37" font-family="Helvetica,sans-Serif" font-size="10.00">+</text>
<text text-anchor="start" x="17.5" y="-37" font-family="Helvetica,sans-Serif" font-size="10.00">computeSaliency()</text>
<text text-anchor="start" x="4.5" y="-22" font-family="Helvetica,sans-Serif" font-size="10.00">+</text>
<text text-anchor="start" x="17.5" y="-22" font-family="Helvetica,sans-Serif" font-size="10.00">create()</text>
<text text-anchor="start" x="4.5" y="-7" font-family="Helvetica,sans-Serif" font-size="10.00">#</text>
<text text-anchor="start" x="17.5" y="-7" font-family="Helvetica,sans-Serif" font-size="10.00">computeSaliencyImpl()</text>
<polygon fill="#666666" stroke="#666666" points="0.5,-92 0.5,-92 165.5,-92 165.5,-92 0.5,-92"/>
<polygon fill="#666666" stroke="#666666" points="0.5,-77 0.5,-77 165.5,-77 165.5,-77 0.5,-77"/>
<polygon fill="none" stroke="#666666" points="0,0 0,-120 165,-120 165,0 0,0"/>
</a>
</g>
</g>
<!-- Node2 -->
<g id="Node000002" class="node">
<title>Node2</title>
<g id="a_Node000002"><a xlink:href="../../d5/d87/classcv_1_1saliency_1_1StaticSaliency.html" target="_top" xlink:title=" ">
<polygon fill="white" stroke="transparent" points="153.5,-221 11.5,-221 11.5,-157 153.5,-157 153.5,-221"/>
<text text-anchor="start" x="16.5" y="-209" font-family="Helvetica,sans-Serif" font-size="10.00">cv::saliency::StaticSaliency</text>
<text text-anchor="start" x="80.5" y="-194" font-family="Helvetica,sans-Serif" font-size="10.00"> </text>
<text text-anchor="start" x="17" y="-179" font-family="Helvetica,sans-Serif" font-size="10.00">+</text>
<text text-anchor="start" x="31.5" y="-179" font-family="Helvetica,sans-Serif" font-size="10.00">computeBinaryMap()</text>
<text text-anchor="start" x="17" y="-164" font-family="Helvetica,sans-Serif" font-size="10.00">#</text>
<text text-anchor="start" x="31.5" y="-164" font-family="Helvetica,sans-Serif" font-size="10.00">computeSaliencyImpl()</text>
<polygon fill="#666666" stroke="#666666" points="11.5,-204 11.5,-204 153.5,-204 153.5,-204 11.5,-204"/>
<polygon fill="#666666" stroke="#666666" points="11.5,-189 11.5,-189 153.5,-189 153.5,-189 11.5,-189"/>
<polygon fill="none" stroke="#666666" points="11.5,-157 11.5,-221 153.5,-221 153.5,-157 11.5,-157"/>
</a>
</g>
</g>
<!-- Node2&#45;&gt;Node1 -->
<g id="edge1_Node000001_Node000002" class="edge">
<title>Node2&#45;&gt;Node1</title>
<g id="a_edge1_Node000001_Node000002"><a xlink:title=" ">
<path fill="none" stroke="#63b8ff" d="M82.5,-146.84C82.5,-138.28 82.5,-129.1 82.5,-120.03"/>
<polygon fill="none" stroke="#63b8ff" points="79,-146.93 82.5,-156.93 86,-146.93 79,-146.93"/>
</a>
</g>
</g>
<!-- Node3 -->
<g id="Node000003" class="node">
<title>Node3</title>
<g id="a_Node000003"><a xlink:href="../../d9/dcd/classcv_1_1saliency_1_1Saliency.html" target="_top" xlink:title=" ">
<polygon fill="white" stroke="transparent" points="150,-337 15,-337 15,-258 150,-258 150,-337"/>
<text text-anchor="start" x="31" y="-324.5" font-family="Helvetica,sans-Serif" font-size="10.00">cv::saliency::Saliency</text>
<text text-anchor="start" x="81" y="-309.5" font-family="Helvetica,sans-Serif" font-size="10.00"> </text>
<text text-anchor="start" x="19.5" y="-294.5" font-family="Helvetica,sans-Serif" font-size="10.00">+</text>
<text text-anchor="start" x="32.5" y="-294.5" font-family="Helvetica,sans-Serif" font-size="10.00">~Saliency()</text>
<text text-anchor="start" x="19.5" y="-279.5" font-family="Helvetica,sans-Serif" font-size="10.00">+</text>
<text text-anchor="start" x="32.5" y="-279.5" font-family="Helvetica,sans-Serif" font-size="10.00">computeSaliency()</text>
<text text-anchor="start" x="19.5" y="-264.5" font-family="Helvetica,sans-Serif" font-size="10.00">#</text>
<text text-anchor="start" x="32.5" y="-264.5" font-family="Helvetica,sans-Serif" font-size="10.00">computeSaliencyImpl()</text>
<polygon fill="#666666" stroke="#666666" points="15.5,-319.5 15.5,-319.5 150.5,-319.5 150.5,-319.5 15.5,-319.5"/>
<polygon fill="#666666" stroke="#666666" points="15.5,-304.5 15.5,-304.5 150.5,-304.5 150.5,-304.5 15.5,-304.5"/>
<polygon fill="none" stroke="#666666" points="15,-258 15,-337 150,-337 150,-258 15,-258"/>
</a>
</g>
</g>
<!-- Node3&#45;&gt;Node2 -->
<g id="edge2_Node000002_Node000003" class="edge">
<title>Node3&#45;&gt;Node2</title>
<g id="a_edge2_Node000002_Node000003"><a xlink:title=" ">
<path fill="none" stroke="#63b8ff" d="M82.5,-247.71C82.5,-238.71 82.5,-229.53 82.5,-221.22"/>
<polygon fill="none" stroke="#63b8ff" points="79,-247.75 82.5,-257.75 86,-247.75 79,-247.75"/>
</a>
</g>
</g>
<!-- Node4 -->
<g id="Node000004" class="node">
<title>Node4</title>
<g id="a_Node000004"><a xlink:href="../../d3/d46/classcv_1_1Algorithm.html" target="_top" xlink:title="This is a base class for all more or less complex algorithms in OpenCV.">
<polygon fill="white" stroke="transparent" points="121.5,-628 11.5,-628 11.5,-384 121.5,-384 121.5,-628"/>
<text text-anchor="start" x="34" y="-616" font-family="Helvetica,sans-Serif" font-size="10.00">cv::Algorithm</text>
<text text-anchor="start" x="64.5" y="-601" font-family="Helvetica,sans-Serif" font-size="10.00"> </text>
<text text-anchor="start" x="15.5" y="-586" font-family="Helvetica,sans-Serif" font-size="10.00">+</text>
<text text-anchor="start" x="28.5" y="-586" font-family="Helvetica,sans-Serif" font-size="10.00">Algorithm()</text>
<text text-anchor="start" x="15.5" y="-571" font-family="Helvetica,sans-Serif" font-size="10.00">+</text>
<text text-anchor="start" x="28.5" y="-571" font-family="Helvetica,sans-Serif" font-size="10.00">~Algorithm()</text>
<text text-anchor="start" x="15.5" y="-556" font-family="Helvetica,sans-Serif" font-size="10.00">+</text>
<text text-anchor="start" x="28.5" y="-556" font-family="Helvetica,sans-Serif" font-size="10.00">clear()</text>
<text text-anchor="start" x="15.5" y="-541" font-family="Helvetica,sans-Serif" font-size="10.00">+</text>
<text text-anchor="start" x="28.5" y="-541" font-family="Helvetica,sans-Serif" font-size="10.00">empty()</text>
<text text-anchor="start" x="15.5" y="-526" font-family="Helvetica,sans-Serif" font-size="10.00">+</text>
<text text-anchor="start" x="28.5" y="-526" font-family="Helvetica,sans-Serif" font-size="10.00">getDefaultName()</text>
<text text-anchor="start" x="15.5" y="-511" font-family="Helvetica,sans-Serif" font-size="10.00">+</text>
<text text-anchor="start" x="28.5" y="-511" font-family="Helvetica,sans-Serif" font-size="10.00">read()</text>
<text text-anchor="start" x="15.5" y="-496" font-family="Helvetica,sans-Serif" font-size="10.00">+</text>
<text text-anchor="start" x="28.5" y="-496" font-family="Helvetica,sans-Serif" font-size="10.00">save()</text>
<text text-anchor="start" x="15.5" y="-481" font-family="Helvetica,sans-Serif" font-size="10.00">+</text>
<text text-anchor="start" x="28.5" y="-481" font-family="Helvetica,sans-Serif" font-size="10.00">write()</text>
<text text-anchor="start" x="15.5" y="-466" font-family="Helvetica,sans-Serif" font-size="10.00">+</text>
<text text-anchor="start" x="28.5" y="-466" font-family="Helvetica,sans-Serif" font-size="10.00">write()</text>
<text text-anchor="start" x="15.5" y="-451" font-family="Helvetica,sans-Serif" font-size="10.00">+</text>
<text text-anchor="start" x="28.5" y="-451" font-family="Helvetica,sans-Serif" font-size="10.00">write()</text>
<text text-anchor="start" x="15.5" y="-436" font-family="Helvetica,sans-Serif" font-size="10.00">+</text>
<text text-anchor="start" x="28.5" y="-436" font-family="Helvetica,sans-Serif" font-size="10.00">load()</text>
<text text-anchor="start" x="15.5" y="-421" font-family="Helvetica,sans-Serif" font-size="10.00">+</text>
<text text-anchor="start" x="28.5" y="-421" font-family="Helvetica,sans-Serif" font-size="10.00">loadFromString()</text>
<text text-anchor="start" x="15.5" y="-406" font-family="Helvetica,sans-Serif" font-size="10.00">+</text>
<text text-anchor="start" x="28.5" y="-406" font-family="Helvetica,sans-Serif" font-size="10.00">read()</text>
<text text-anchor="start" x="15.5" y="-391" font-family="Helvetica,sans-Serif" font-size="10.00">#</text>
<text text-anchor="start" x="28.5" y="-391" font-family="Helvetica,sans-Serif" font-size="10.00">writeFormat()</text>
<polygon fill="#666666" stroke="#666666" points="11.5,-611 11.5,-611 121.5,-611 121.5,-611 11.5,-611"/>
<polygon fill="#666666" stroke="#666666" points="11.5,-596 11.5,-596 121.5,-596 121.5,-596 11.5,-596"/>
<polygon fill="none" stroke="#666666" points="11.5,-384 11.5,-628 121.5,-628 121.5,-384 11.5,-384"/>
</a>
</g>
</g>
<!-- Node4&#45;&gt;Node3 -->
<g id="edge3_Node000003_Node000004" class="edge">
<title>Node4&#45;&gt;Node3</title>
<g id="a_edge3_Node000003_Node000004"><a xlink:title=" ">
<path fill="none" stroke="#63b8ff" d="M76.67,-373.78C77.69,-360.59 78.66,-348.05 79.51,-337.13"/>
<polygon fill="none" stroke="#63b8ff" points="73.16,-373.74 75.88,-383.98 80.14,-374.28 73.16,-373.74"/>
</a>
</g>
</g>
<!-- Node5 -->
<g id="Node000005" class="node">
<title>Node5</title>
<g id="a_Node000005"><a xlink:title=" ">
<polygon fill="white" stroke="transparent" points="199,-530.5 140,-530.5 140,-481.5 199,-481.5 199,-530.5"/>
<text text-anchor="start" x="145.5" y="-518" font-family="Helvetica,sans-Serif" font-size="10.00">std::string</text>
<text text-anchor="start" x="168" y="-503" font-family="Helvetica,sans-Serif" font-size="10.00"> </text>
<text text-anchor="start" x="168" y="-488" font-family="Helvetica,sans-Serif" font-size="10.00"> </text>
<polygon fill="#666666" stroke="#666666" points="140.5,-513 140.5,-513 199.5,-513 199.5,-513 140.5,-513"/>
<polygon fill="#666666" stroke="#666666" points="140.5,-498 140.5,-498 199.5,-498 199.5,-498 140.5,-498"/>
<polygon fill="none" stroke="#666666" points="140,-481.5 140,-530.5 199,-530.5 199,-481.5 140,-481.5"/>
</a>
</g>
</g>
<!-- Node5&#45;&gt;Node3 -->
<g id="edge4_Node000003_Node000005" class="edge">
<title>Node5&#45;&gt;Node3</title>
<g id="a_edge4_Node000003_Node000005"><a xlink:title=" ">
<path fill="none" stroke="#63b8ff" d="M163.37,-481.29C156.62,-456.52 144.81,-416.77 130.5,-384 125.29,-372.06 118.9,-359.62 112.51,-348.04"/>
<polygon fill="none" stroke="#63b8ff" points="112.31,-347.7 105.88,-344.44 106.41,-337.25 112.85,-340.51 112.31,-347.7"/>
</a>
</g>
<text text-anchor="middle" x="153.5" y="-358" font-family="Helvetica,sans-Serif" font-size="10.00" fill="grey"> #className</text>
</g>
<!-- Node6 -->
<g id="Node000006" class="node">
<title>Node6</title>
<g id="a_Node000006"><a xlink:title=" ">
<polygon fill="white" stroke="transparent" points="218.5,-725 120.5,-725 120.5,-665 218.5,-665 218.5,-725"/>
<text text-anchor="start" x="125.5" y="-713" font-family="Helvetica,sans-Serif" font-size="10.00">std::basic_string&lt;</text>
<text text-anchor="start" x="151" y="-702" font-family="Helvetica,sans-Serif" font-size="10.00"> Char &gt;</text>
<text text-anchor="start" x="167.5" y="-687" font-family="Helvetica,sans-Serif" font-size="10.00"> </text>
<text text-anchor="start" x="167.5" y="-672" font-family="Helvetica,sans-Serif" font-size="10.00"> </text>
<polygon fill="#666666" stroke="#666666" points="120.5,-697 120.5,-697 218.5,-697 218.5,-697 120.5,-697"/>
<polygon fill="#666666" stroke="#666666" points="120.5,-682 120.5,-682 218.5,-682 218.5,-682 120.5,-682"/>
<polygon fill="none" stroke="#666666" points="120.5,-665 120.5,-725 218.5,-725 218.5,-665 120.5,-665"/>
</a>
</g>
</g>
<!-- Node6&#45;&gt;Node5 -->
<g id="edge5_Node000005_Node000006" class="edge">
<title>Node6&#45;&gt;Node5</title>
<g id="a_edge5_Node000005_Node000006"><a xlink:title=" ">
<path fill="none" stroke="#63b8ff" d="M169.5,-654.71C169.5,-617.19 169.5,-561.89 169.5,-530.68"/>
<polygon fill="none" stroke="#63b8ff" points="166,-654.78 169.5,-664.78 173,-654.78 166,-654.78"/>
</a>
</g>
</g>
</g>
</svg>
