<?xml version="1.0" encoding="UTF-8" standalone="no"?>
<!DOCTYPE svg PUBLIC "-//W3C//DTD SVG 1.1//EN"
 "http://www.w3.org/Graphics/SVG/1.1/DTD/svg11.dtd">
<!-- Generated by graphviz version 2.43.0 (0)
 -->
<!-- Title: cv::GKernelTypeM&lt; K, std::function&lt; std::tuple&lt; R... &gt;(Args...)&gt; &gt; Pages: 1 -->
<svg width="244pt" height="316pt"
 viewBox="0.00 0.00 243.50 316.00" xmlns="http://www.w3.org/2000/svg" xmlns:xlink="http://www.w3.org/1999/xlink">
<g id="graph0" class="graph" transform="scale(1 1) rotate(0) translate(4 312)">
<title>cv::GKernelTypeM&lt; K, std::function&lt; std::tuple&lt; R... &gt;(Args...)&gt; &gt;</title>
<!-- Node1 -->
<g id="Node000001" class="node">
<title>Node1</title>
<g id="a_Node000001"><a xlink:title=" ">
<polygon fill="#999999" stroke="transparent" points="226.5,-71 89.5,-71 89.5,0 226.5,0 226.5,-71"/>
<text text-anchor="start" x="95" y="-58.5" font-family="Helvetica,sans-Serif" font-size="10.00">cv::GKernelTypeM&lt; K,</text>
<text text-anchor="start" x="95" y="-47.5" font-family="Helvetica,sans-Serif" font-size="10.00"> std::function&lt; std</text>
<text text-anchor="start" x="95" y="-36.5" font-family="Helvetica,sans-Serif" font-size="10.00">::tuple&lt; R... &gt;(Args...)&gt; &gt;</text>
<text text-anchor="start" x="156.5" y="-21.5" font-family="Helvetica,sans-Serif" font-size="10.00"> </text>
<text text-anchor="start" x="118" y="-6.5" font-family="Helvetica,sans-Serif" font-size="10.00">+</text>
<text text-anchor="start" x="155" y="-6.5" font-family="Helvetica,sans-Serif" font-size="10.00">on()</text>
<polygon fill="#666666" stroke="#666666" points="90,-31.5 90,-31.5 227,-31.5 227,-31.5 90,-31.5"/>
<polygon fill="#666666" stroke="#666666" points="90,-16.5 90,-16.5 227,-16.5 227,-16.5 90,-16.5"/>
<polygon fill="none" stroke="#666666" points="89.5,0 89.5,-71 226.5,-71 226.5,0 89.5,0"/>
</a>
</g>
</g>
<!-- Node2 -->
<g id="Node000002" class="node">
<title>Node2</title>
<g id="a_Node000002"><a xlink:href="../../d4/d06/structcv_1_1detail_1_1MetaHelper.html" target="_top" xlink:title=" ">
<polygon fill="white" stroke="transparent" points="126.5,-179 3.5,-179 3.5,-108 126.5,-108 126.5,-179"/>
<text text-anchor="start" x="9" y="-166.5" font-family="Helvetica,sans-Serif" font-size="10.00">cv::detail::MetaHelper</text>
<text text-anchor="start" x="9" y="-155.5" font-family="Helvetica,sans-Serif" font-size="10.00">&lt; K, std::tuple&lt; Args...</text>
<text text-anchor="start" x="9" y="-144.5" font-family="Helvetica,sans-Serif" font-size="10.00"> &gt;, std::tuple&lt; R... &gt; &gt;</text>
<text text-anchor="start" x="63.5" y="-129.5" font-family="Helvetica,sans-Serif" font-size="10.00"> </text>
<text text-anchor="start" x="63.5" y="-114.5" font-family="Helvetica,sans-Serif" font-size="10.00"> </text>
<polygon fill="#666666" stroke="#666666" points="4,-139.5 4,-139.5 127,-139.5 127,-139.5 4,-139.5"/>
<polygon fill="#666666" stroke="#666666" points="4,-124.5 4,-124.5 127,-124.5 127,-124.5 4,-124.5"/>
<polygon fill="none" stroke="#666666" points="3.5,-108 3.5,-179 126.5,-179 126.5,-108 3.5,-108"/>
</a>
</g>
</g>
<!-- Node2&#45;&gt;Node1 -->
<g id="edge1_Node000001_Node000002" class="edge">
<title>Node2&#45;&gt;Node1</title>
<g id="a_edge1_Node000001_Node000002"><a xlink:title=" ">
<path fill="none" stroke="#63b8ff" d="M102.09,-100.22C110.51,-90.62 119.37,-80.53 127.48,-71.29"/>
<polygon fill="none" stroke="#63b8ff" points="99.42,-97.97 95.45,-107.79 104.68,-102.58 99.42,-97.97"/>
</a>
</g>
</g>
<!-- Node3 -->
<g id="Node000003" class="node">
<title>Node3</title>
<g id="a_Node000003"><a xlink:href="../../d4/d06/structcv_1_1detail_1_1MetaHelper.html" target="_top" xlink:title=" ">
<polygon fill="white" stroke="transparent" points="130,-308 0,-308 0,-237 130,-237 130,-308"/>
<text text-anchor="start" x="5" y="-295.5" font-family="Helvetica,sans-Serif" font-size="10.00">cv::detail::MetaHelper</text>
<text text-anchor="start" x="5" y="-284.5" font-family="Helvetica,sans-Serif" font-size="10.00">&lt; typename, typename,</text>
<text text-anchor="start" x="33" y="-273.5" font-family="Helvetica,sans-Serif" font-size="10.00"> typename &gt;</text>
<text text-anchor="start" x="63" y="-258.5" font-family="Helvetica,sans-Serif" font-size="10.00"> </text>
<text text-anchor="start" x="63" y="-243.5" font-family="Helvetica,sans-Serif" font-size="10.00"> </text>
<polygon fill="#666666" stroke="#666666" points="0,-268.5 0,-268.5 130,-268.5 130,-268.5 0,-268.5"/>
<polygon fill="#666666" stroke="#666666" points="0,-253.5 0,-253.5 130,-253.5 130,-253.5 0,-253.5"/>
<polygon fill="none" stroke="#666666" points="0,-237 0,-308 130,-308 130,-237 0,-237"/>
</a>
</g>
</g>
<!-- Node3&#45;&gt;Node2 -->
<g id="edge2_Node000002_Node000003" class="edge">
<title>Node3&#45;&gt;Node2</title>
<g id="a_edge2_Node000002_Node000003"><a xlink:title=" ">
<path fill="none" stroke="orange" d="M65,-226.36C65,-210.84 65,-193.72 65,-179.16"/>
<polygon fill="orange" stroke="orange" points="61.5,-226.8 65,-236.8 68.5,-226.8 61.5,-226.8"/>
</a>
</g>
<text text-anchor="start" x="65" y="-211" font-family="Helvetica,sans-Serif" font-size="10.00" fill="grey"> &lt; K, std::tuple&lt; Args...</text>
<text text-anchor="middle" x="122.5" y="-200" font-family="Helvetica,sans-Serif" font-size="10.00" fill="grey"> &gt;, std::tuple&lt; R... &gt; &gt;</text>
</g>
<!-- Node4 -->
<g id="Node000004" class="node">
<title>Node4</title>
<g id="a_Node000004"><a xlink:href="../../db/d4e/structcv_1_1detail_1_1NoTag.html" target="_top" xlink:title=" ">
<polygon fill="white" stroke="transparent" points="235.5,-168 144.5,-168 144.5,-119 235.5,-119 235.5,-168"/>
<text text-anchor="start" x="150" y="-155.5" font-family="Helvetica,sans-Serif" font-size="10.00">cv::detail::NoTag</text>
<text text-anchor="start" x="188.5" y="-140.5" font-family="Helvetica,sans-Serif" font-size="10.00"> </text>
<text text-anchor="start" x="160.5" y="-125.5" font-family="Helvetica,sans-Serif" font-size="10.00">+</text>
<text text-anchor="start" x="185" y="-125.5" font-family="Helvetica,sans-Serif" font-size="10.00">tag()</text>
<polygon fill="#666666" stroke="#666666" points="145,-150.5 145,-150.5 236,-150.5 236,-150.5 145,-150.5"/>
<polygon fill="#666666" stroke="#666666" points="145,-135.5 145,-135.5 236,-135.5 236,-135.5 145,-135.5"/>
<polygon fill="none" stroke="#666666" points="144.5,-119 144.5,-168 235.5,-168 235.5,-119 144.5,-119"/>
</a>
</g>
</g>
<!-- Node4&#45;&gt;Node1 -->
<g id="edge3_Node000001_Node000004" class="edge">
<title>Node4&#45;&gt;Node1</title>
<g id="a_edge3_Node000001_Node000004"><a xlink:title=" ">
<path fill="none" stroke="#63b8ff" d="M179.96,-109.26C176.31,-97.16 172.18,-83.46 168.48,-71.23"/>
<polygon fill="none" stroke="#63b8ff" points="176.66,-110.41 182.9,-118.98 183.36,-108.39 176.66,-110.41"/>
</a>
</g>
</g>
</g>
</svg>
