<?xml version="1.0" encoding="UTF-8" standalone="no"?>
<!DOCTYPE svg PUBLIC "-//W3C//DTD SVG 1.1//EN"
 "http://www.w3.org/Graphics/SVG/1.1/DTD/svg11.dtd">
<!-- Generated by graphviz version 2.43.0 (0)
 -->
<!-- Title: cv::gapi::oak::EncoderConfig Pages: 1 -->
<svg width="583pt" height="219pt"
 viewBox="0.00 0.00 583.00 219.00" xmlns="http://www.w3.org/2000/svg" xmlns:xlink="http://www.w3.org/1999/xlink">
<g id="graph0" class="graph" transform="scale(1 1) rotate(0) translate(4 215)">
<title>cv::gapi::oak::EncoderConfig</title>
<!-- Node1 -->
<g id="Node000001" class="node">
<title>Node1</title>
<g id="a_Node000001"><a xlink:title=" ">
<polygon fill="#999999" stroke="transparent" points="372,-49 224,-49 224,0 372,0 372,-49"/>
<text text-anchor="start" x="229" y="-36.5" font-family="Helvetica,sans-Serif" font-size="10.00">cv::gapi::oak::EncoderConfig</text>
<text text-anchor="start" x="296" y="-21.5" font-family="Helvetica,sans-Serif" font-size="10.00"> </text>
<text text-anchor="start" x="296" y="-6.5" font-family="Helvetica,sans-Serif" font-size="10.00"> </text>
<polygon fill="#666666" stroke="#666666" points="224,-31.5 224,-31.5 372,-31.5 372,-31.5 224,-31.5"/>
<polygon fill="#666666" stroke="#666666" points="224,-16.5 224,-16.5 372,-16.5 372,-16.5 224,-16.5"/>
<polygon fill="none" stroke="#666666" points="224,0 224,-49 372,-49 372,0 224,0"/>
</a>
</g>
</g>
<!-- Node2 -->
<g id="Node000002" class="node">
<title>Node2</title>
<g id="a_Node000002"><a xlink:title=" ">
<polygon fill="white" stroke="transparent" points="44,-211 0,-211 0,-162 44,-162 44,-211"/>
<text text-anchor="start" x="5" y="-198.5" font-family="Helvetica,sans-Serif" font-size="10.00">int32_t</text>
<text text-anchor="start" x="20" y="-183.5" font-family="Helvetica,sans-Serif" font-size="10.00"> </text>
<text text-anchor="start" x="20" y="-168.5" font-family="Helvetica,sans-Serif" font-size="10.00"> </text>
<polygon fill="#666666" stroke="#666666" points="0,-193.5 0,-193.5 44,-193.5 44,-193.5 0,-193.5"/>
<polygon fill="#666666" stroke="#666666" points="0,-178.5 0,-178.5 44,-178.5 44,-178.5 0,-178.5"/>
<polygon fill="none" stroke="#666666" points="0,-162 0,-211 44,-211 44,-162 0,-162"/>
</a>
</g>
</g>
<!-- Node2&#45;&gt;Node1 -->
<g id="edge1_Node000001_Node000002" class="edge">
<title>Node2&#45;&gt;Node1</title>
<g id="a_edge1_Node000001_Node000002"><a xlink:title=" ">
<path fill="none" stroke="#63b8ff" d="M16.26,-161.64C11.4,-134.97 8.5,-92.23 32,-67 55.97,-41.27 143.66,-31.45 211.88,-27.73"/>
<polygon fill="none" stroke="#63b8ff" points="211.95,-27.72 217.74,-23.43 223.94,-27.12 218.15,-31.42 211.95,-27.72"/>
</a>
</g>
<text text-anchor="middle" x="85" y="-136" font-family="Helvetica,sans-Serif" font-size="10.00" fill="grey"> +bitrate</text>
<text text-anchor="middle" x="85" y="-125" font-family="Helvetica,sans-Serif" font-size="10.00" fill="grey">+height</text>
<text text-anchor="middle" x="85" y="-114" font-family="Helvetica,sans-Serif" font-size="10.00" fill="grey">+keyframeFrequency</text>
<text text-anchor="middle" x="85" y="-103" font-family="Helvetica,sans-Serif" font-size="10.00" fill="grey">+maxBitrate</text>
<text text-anchor="middle" x="85" y="-92" font-family="Helvetica,sans-Serif" font-size="10.00" fill="grey">+numBFrames</text>
<text text-anchor="middle" x="85" y="-81" font-family="Helvetica,sans-Serif" font-size="10.00" fill="grey">+quality</text>
<text text-anchor="middle" x="85" y="-70" font-family="Helvetica,sans-Serif" font-size="10.00" fill="grey">+width</text>
</g>
<!-- Node3 -->
<g id="Node000003" class="node">
<title>Node3</title>
<g id="a_Node000003"><a xlink:title=" ">
<polygon fill="white" stroke="transparent" points="176,-211 126,-211 126,-162 176,-162 176,-211"/>
<text text-anchor="start" x="131" y="-198.5" font-family="Helvetica,sans-Serif" font-size="10.00">uint32_t</text>
<text text-anchor="start" x="149" y="-183.5" font-family="Helvetica,sans-Serif" font-size="10.00"> </text>
<text text-anchor="start" x="149" y="-168.5" font-family="Helvetica,sans-Serif" font-size="10.00"> </text>
<polygon fill="#666666" stroke="#666666" points="126,-193.5 126,-193.5 176,-193.5 176,-193.5 126,-193.5"/>
<polygon fill="#666666" stroke="#666666" points="126,-178.5 126,-178.5 176,-178.5 176,-178.5 126,-178.5"/>
<polygon fill="none" stroke="#666666" points="126,-162 126,-211 176,-211 176,-162 126,-162"/>
</a>
</g>
</g>
<!-- Node3&#45;&gt;Node1 -->
<g id="edge2_Node000001_Node000003" class="edge">
<title>Node3&#45;&gt;Node1</title>
<g id="a_edge2_Node000001_Node000003"><a xlink:title=" ">
<path fill="none" stroke="#63b8ff" d="M145.35,-161.78C140.61,-135.63 137.64,-93.74 159,-67 172.27,-50.39 191.9,-40.22 212.25,-34.06"/>
<polygon fill="none" stroke="#63b8ff" points="212.34,-34.03 217.11,-28.62 223.93,-30.95 219.16,-36.35 212.34,-34.03"/>
</a>
</g>
<text text-anchor="middle" x="204.5" y="-103" font-family="Helvetica,sans-Serif" font-size="10.00" fill="grey"> +numFramesPool</text>
</g>
<!-- Node4 -->
<g id="Node000004" class="node">
<title>Node4</title>
<g id="a_Node000004"><a xlink:title=" ">
<polygon fill="white" stroke="transparent" points="285.5,-211 244.5,-211 244.5,-162 285.5,-162 285.5,-211"/>
<text text-anchor="start" x="250" y="-198.5" font-family="Helvetica,sans-Serif" font-size="10.00">Profile</text>
<text text-anchor="start" x="263.5" y="-183.5" font-family="Helvetica,sans-Serif" font-size="10.00"> </text>
<text text-anchor="start" x="263.5" y="-168.5" font-family="Helvetica,sans-Serif" font-size="10.00"> </text>
<polygon fill="#666666" stroke="#666666" points="245,-193.5 245,-193.5 286,-193.5 286,-193.5 245,-193.5"/>
<polygon fill="#666666" stroke="#666666" points="245,-178.5 245,-178.5 286,-178.5 286,-178.5 245,-178.5"/>
<polygon fill="none" stroke="#666666" points="244.5,-162 244.5,-211 285.5,-211 285.5,-162 244.5,-162"/>
</a>
</g>
</g>
<!-- Node4&#45;&gt;Node1 -->
<g id="edge3_Node000001_Node000004" class="edge">
<title>Node4&#45;&gt;Node1</title>
<g id="a_edge3_Node000001_Node000004"><a xlink:title=" ">
<path fill="none" stroke="#63b8ff" d="M259.37,-161.94C254.64,-137.39 250.34,-98.23 262,-67 263.01,-64.29 264.29,-61.63 265.76,-59.06"/>
<polygon fill="none" stroke="#63b8ff" points="265.86,-58.91 265.97,-51.7 272.66,-49.03 272.56,-56.24 265.86,-58.91"/>
</a>
</g>
<text text-anchor="middle" x="283.5" y="-103" font-family="Helvetica,sans-Serif" font-size="10.00" fill="grey"> +profile</text>
</g>
<!-- Node5 -->
<g id="Node000005" class="node">
<title>Node5</title>
<g id="a_Node000005"><a xlink:title=" ">
<polygon fill="white" stroke="transparent" points="345,-211 313,-211 313,-162 345,-162 345,-211"/>
<text text-anchor="start" x="318" y="-198.5" font-family="Helvetica,sans-Serif" font-size="10.00">bool</text>
<text text-anchor="start" x="327" y="-183.5" font-family="Helvetica,sans-Serif" font-size="10.00"> </text>
<text text-anchor="start" x="327" y="-168.5" font-family="Helvetica,sans-Serif" font-size="10.00"> </text>
<polygon fill="#666666" stroke="#666666" points="313,-193.5 313,-193.5 345,-193.5 345,-193.5 313,-193.5"/>
<polygon fill="#666666" stroke="#666666" points="313,-178.5 313,-178.5 345,-178.5 345,-178.5 313,-178.5"/>
<polygon fill="none" stroke="#666666" points="313,-162 313,-211 345,-211 345,-162 313,-162"/>
</a>
</g>
</g>
<!-- Node5&#45;&gt;Node1 -->
<g id="edge4_Node000001_Node000005" class="edge">
<title>Node5&#45;&gt;Node1</title>
<g id="a_edge4_Node000001_Node000005"><a xlink:title=" ">
<path fill="none" stroke="#63b8ff" d="M325.65,-161.77C322.11,-137.76 316.06,-99.63 309,-67 308.57,-65 308.1,-62.94 307.61,-60.88"/>
<polygon fill="none" stroke="#63b8ff" points="307.58,-60.75 302.24,-55.9 304.66,-49.11 310,-53.96 307.58,-60.75"/>
</a>
</g>
<text text-anchor="middle" x="347.5" y="-103" font-family="Helvetica,sans-Serif" font-size="10.00" fill="grey"> +lossless</text>
</g>
<!-- Node6 -->
<g id="Node000006" class="node">
<title>Node6</title>
<g id="a_Node000006"><a xlink:title=" ">
<polygon fill="white" stroke="transparent" points="458.5,-211 363.5,-211 363.5,-162 458.5,-162 458.5,-211"/>
<text text-anchor="start" x="369" y="-198.5" font-family="Helvetica,sans-Serif" font-size="10.00">RateControlMode</text>
<text text-anchor="start" x="409.5" y="-183.5" font-family="Helvetica,sans-Serif" font-size="10.00"> </text>
<text text-anchor="start" x="409.5" y="-168.5" font-family="Helvetica,sans-Serif" font-size="10.00"> </text>
<polygon fill="#666666" stroke="#666666" points="364,-193.5 364,-193.5 459,-193.5 459,-193.5 364,-193.5"/>
<polygon fill="#666666" stroke="#666666" points="364,-178.5 364,-178.5 459,-178.5 459,-178.5 364,-178.5"/>
<polygon fill="none" stroke="#666666" points="363.5,-162 363.5,-211 458.5,-211 458.5,-162 363.5,-162"/>
</a>
</g>
</g>
<!-- Node6&#45;&gt;Node1 -->
<g id="edge5_Node000001_Node000006" class="edge">
<title>Node6&#45;&gt;Node1</title>
<g id="a_edge5_Node000001_Node000006"><a xlink:title=" ">
<path fill="none" stroke="#63b8ff" d="M409.62,-161.61C406.97,-135.7 399.3,-94.39 377,-67 373.81,-63.08 370.15,-59.49 366.19,-56.2"/>
<polygon fill="none" stroke="#63b8ff" points="366.16,-56.18 358.96,-55.85 356.49,-49.07 363.7,-49.4 366.16,-56.18"/>
</a>
</g>
<text text-anchor="middle" x="444" y="-103" font-family="Helvetica,sans-Serif" font-size="10.00" fill="grey"> +rateCtrlMode</text>
</g>
<!-- Node7 -->
<g id="Node000007" class="node">
<title>Node7</title>
<g id="a_Node000007"><a xlink:title=" ">
<polygon fill="white" stroke="transparent" points="524,-211 492,-211 492,-162 524,-162 524,-211"/>
<text text-anchor="start" x="497" y="-198.5" font-family="Helvetica,sans-Serif" font-size="10.00">float</text>
<text text-anchor="start" x="506" y="-183.5" font-family="Helvetica,sans-Serif" font-size="10.00"> </text>
<text text-anchor="start" x="506" y="-168.5" font-family="Helvetica,sans-Serif" font-size="10.00"> </text>
<polygon fill="#666666" stroke="#666666" points="492,-193.5 492,-193.5 524,-193.5 524,-193.5 492,-193.5"/>
<polygon fill="#666666" stroke="#666666" points="492,-178.5 492,-178.5 524,-178.5 524,-178.5 492,-178.5"/>
<polygon fill="none" stroke="#666666" points="492,-162 492,-211 524,-211 524,-162 492,-162"/>
</a>
</g>
</g>
<!-- Node7&#45;&gt;Node1 -->
<g id="edge6_Node000001_Node000007" class="edge">
<title>Node7&#45;&gt;Node1</title>
<g id="a_edge6_Node000001_Node000007"><a xlink:title=" ">
<path fill="none" stroke="#63b8ff" d="M510.68,-161.6C512.25,-134.9 510.29,-92.12 486,-67 471.54,-52.04 426.67,-41.82 384.4,-35.26"/>
<polygon fill="none" stroke="#63b8ff" points="384.16,-35.22 377.63,-38.3 372.28,-33.47 378.81,-30.39 384.16,-35.22"/>
</a>
</g>
<text text-anchor="middle" x="543" y="-103" font-family="Helvetica,sans-Serif" font-size="10.00" fill="grey"> +frameRate</text>
</g>
</g>
</svg>
