<?xml version="1.0" encoding="UTF-8" standalone="no"?>
<!DOCTYPE svg PUBLIC "-//W3C//DTD SVG 1.1//EN"
 "http://www.w3.org/Graphics/SVG/1.1/DTD/svg11.dtd">
<!-- Generated by graphviz version 2.43.0 (0)
 -->
<!-- Title: cv::cuda::StereoBM Pages: 1 -->
<svg width="150pt" height="852pt"
 viewBox="0.00 0.00 150.00 852.00" xmlns="http://www.w3.org/2000/svg" xmlns:xlink="http://www.w3.org/1999/xlink">
<g id="graph0" class="graph" transform="scale(1 1) rotate(0) translate(4 848)">
<title>cv::cuda::StereoBM</title>
<!-- Node1 -->
<g id="Node000001" class="node">
<title>Node1</title>
<g id="a_Node000001"><a xlink:title="Class computing stereo correspondence (disparity map) using the block matching algorithm....">
<polygon fill="#999999" stroke="transparent" points="123,-49 19,-49 19,0 123,0 123,-49"/>
<text text-anchor="start" x="24" y="-36.5" font-family="Helvetica,sans-Serif" font-size="10.00">cv::cuda::StereoBM</text>
<text text-anchor="start" x="69" y="-21.5" font-family="Helvetica,sans-Serif" font-size="10.00"> </text>
<text text-anchor="start" x="31" y="-6.5" font-family="Helvetica,sans-Serif" font-size="10.00">+</text>
<text text-anchor="start" x="52" y="-6.5" font-family="Helvetica,sans-Serif" font-size="10.00">compute()</text>
<polygon fill="#666666" stroke="#666666" points="19,-31.5 19,-31.5 123,-31.5 123,-31.5 19,-31.5"/>
<polygon fill="#666666" stroke="#666666" points="19,-16.5 19,-16.5 123,-16.5 123,-16.5 19,-16.5"/>
<polygon fill="none" stroke="#666666" points="19,0 19,-49 123,-49 123,0 19,0"/>
</a>
</g>
</g>
<!-- Node2 -->
<g id="Node000002" class="node">
<title>Node2</title>
<g id="a_Node000002"><a xlink:href="../../d9/dba/classcv_1_1StereoBM.html" target="_top" xlink:title="Class for computing stereo correspondence using the block matching algorithm, introduced and contribu...">
<polygon fill="white" stroke="transparent" points="136,-299 6,-299 6,-85 136,-85 136,-299"/>
<text text-anchor="start" x="39" y="-287" font-family="Helvetica,sans-Serif" font-size="10.00">cv::StereoBM</text>
<text text-anchor="start" x="69" y="-272" font-family="Helvetica,sans-Serif" font-size="10.00"> </text>
<text text-anchor="start" x="10" y="-257" font-family="Helvetica,sans-Serif" font-size="10.00">+</text>
<text text-anchor="start" x="23" y="-257" font-family="Helvetica,sans-Serif" font-size="10.00">getPreFilterCap()</text>
<text text-anchor="start" x="10" y="-242" font-family="Helvetica,sans-Serif" font-size="10.00">+</text>
<text text-anchor="start" x="23" y="-242" font-family="Helvetica,sans-Serif" font-size="10.00">getPreFilterSize()</text>
<text text-anchor="start" x="10" y="-227" font-family="Helvetica,sans-Serif" font-size="10.00">+</text>
<text text-anchor="start" x="23" y="-227" font-family="Helvetica,sans-Serif" font-size="10.00">getPreFilterType()</text>
<text text-anchor="start" x="10" y="-212" font-family="Helvetica,sans-Serif" font-size="10.00">+</text>
<text text-anchor="start" x="23" y="-212" font-family="Helvetica,sans-Serif" font-size="10.00">getROI1()</text>
<text text-anchor="start" x="10" y="-197" font-family="Helvetica,sans-Serif" font-size="10.00">+</text>
<text text-anchor="start" x="23" y="-197" font-family="Helvetica,sans-Serif" font-size="10.00">getROI2()</text>
<text text-anchor="start" x="10" y="-182" font-family="Helvetica,sans-Serif" font-size="10.00">+</text>
<text text-anchor="start" x="23" y="-182" font-family="Helvetica,sans-Serif" font-size="10.00">getSmallerBlockSize()</text>
<text text-anchor="start" x="10" y="-167" font-family="Helvetica,sans-Serif" font-size="10.00">+</text>
<text text-anchor="start" x="23" y="-167" font-family="Helvetica,sans-Serif" font-size="10.00">getTextureThreshold()</text>
<text text-anchor="start" x="10" y="-152" font-family="Helvetica,sans-Serif" font-size="10.00">+</text>
<text text-anchor="start" x="23" y="-152" font-family="Helvetica,sans-Serif" font-size="10.00">getUniquenessRatio()</text>
<text text-anchor="start" x="10" y="-137" font-family="Helvetica,sans-Serif" font-size="10.00">+</text>
<text text-anchor="start" x="23" y="-137" font-family="Helvetica,sans-Serif" font-size="10.00">setPreFilterCap()</text>
<text text-anchor="start" x="10" y="-122" font-family="Helvetica,sans-Serif" font-size="10.00">+</text>
<text text-anchor="start" x="23" y="-122" font-family="Helvetica,sans-Serif" font-size="10.00">setPreFilterSize()</text>
<text text-anchor="start" x="23" y="-107" font-family="Helvetica,sans-Serif" font-size="10.00">and 6 more...</text>
<text text-anchor="start" x="10" y="-92" font-family="Helvetica,sans-Serif" font-size="10.00">+</text>
<text text-anchor="start" x="23" y="-92" font-family="Helvetica,sans-Serif" font-size="10.00">create()</text>
<polygon fill="#666666" stroke="#666666" points="6,-282 6,-282 136,-282 136,-282 6,-282"/>
<polygon fill="#666666" stroke="#666666" points="6,-267 6,-267 136,-267 136,-267 6,-267"/>
<polygon fill="none" stroke="#666666" points="6,-85 6,-299 136,-299 136,-85 6,-85"/>
</a>
</g>
</g>
<!-- Node2&#45;&gt;Node1 -->
<g id="edge1_Node000001_Node000002" class="edge">
<title>Node2&#45;&gt;Node1</title>
<g id="a_edge1_Node000001_Node000002"><a xlink:title=" ">
<path fill="none" stroke="#63b8ff" d="M71,-74.76C71,-65.35 71,-56.64 71,-49.25"/>
<polygon fill="none" stroke="#63b8ff" points="67.5,-74.78 71,-84.78 74.5,-74.78 67.5,-74.78"/>
</a>
</g>
</g>
<!-- Node3 -->
<g id="Node000003" class="node">
<title>Node3</title>
<g id="a_Node000003"><a xlink:href="../../d2/d6e/classcv_1_1StereoMatcher.html" target="_top" xlink:title="The base class for stereo correspondence algorithms.">
<polygon fill="white" stroke="transparent" points="142,-564 0,-564 0,-335 142,-335 142,-564"/>
<text text-anchor="start" x="27" y="-551.5" font-family="Helvetica,sans-Serif" font-size="10.00">cv::StereoMatcher</text>
<text text-anchor="start" x="69" y="-536.5" font-family="Helvetica,sans-Serif" font-size="10.00"> </text>
<text text-anchor="start" x="4" y="-521.5" font-family="Helvetica,sans-Serif" font-size="10.00">+</text>
<text text-anchor="start" x="17" y="-521.5" font-family="Helvetica,sans-Serif" font-size="10.00">compute()</text>
<text text-anchor="start" x="4" y="-506.5" font-family="Helvetica,sans-Serif" font-size="10.00">+</text>
<text text-anchor="start" x="17" y="-506.5" font-family="Helvetica,sans-Serif" font-size="10.00">getBlockSize()</text>
<text text-anchor="start" x="4" y="-491.5" font-family="Helvetica,sans-Serif" font-size="10.00">+</text>
<text text-anchor="start" x="17" y="-491.5" font-family="Helvetica,sans-Serif" font-size="10.00">getDisp12MaxDiff()</text>
<text text-anchor="start" x="4" y="-476.5" font-family="Helvetica,sans-Serif" font-size="10.00">+</text>
<text text-anchor="start" x="17" y="-476.5" font-family="Helvetica,sans-Serif" font-size="10.00">getMinDisparity()</text>
<text text-anchor="start" x="4" y="-461.5" font-family="Helvetica,sans-Serif" font-size="10.00">+</text>
<text text-anchor="start" x="17" y="-461.5" font-family="Helvetica,sans-Serif" font-size="10.00">getNumDisparities()</text>
<text text-anchor="start" x="4" y="-446.5" font-family="Helvetica,sans-Serif" font-size="10.00">+</text>
<text text-anchor="start" x="17" y="-446.5" font-family="Helvetica,sans-Serif" font-size="10.00">getSpeckleRange()</text>
<text text-anchor="start" x="4" y="-431.5" font-family="Helvetica,sans-Serif" font-size="10.00">+</text>
<text text-anchor="start" x="17" y="-431.5" font-family="Helvetica,sans-Serif" font-size="10.00">getSpeckleWindowSize()</text>
<text text-anchor="start" x="4" y="-416.5" font-family="Helvetica,sans-Serif" font-size="10.00">+</text>
<text text-anchor="start" x="17" y="-416.5" font-family="Helvetica,sans-Serif" font-size="10.00">setBlockSize()</text>
<text text-anchor="start" x="4" y="-401.5" font-family="Helvetica,sans-Serif" font-size="10.00">+</text>
<text text-anchor="start" x="17" y="-401.5" font-family="Helvetica,sans-Serif" font-size="10.00">setDisp12MaxDiff()</text>
<text text-anchor="start" x="4" y="-386.5" font-family="Helvetica,sans-Serif" font-size="10.00">+</text>
<text text-anchor="start" x="17" y="-386.5" font-family="Helvetica,sans-Serif" font-size="10.00">setMinDisparity()</text>
<text text-anchor="start" x="4" y="-371.5" font-family="Helvetica,sans-Serif" font-size="10.00">+</text>
<text text-anchor="start" x="17" y="-371.5" font-family="Helvetica,sans-Serif" font-size="10.00">setNumDisparities()</text>
<text text-anchor="start" x="4" y="-356.5" font-family="Helvetica,sans-Serif" font-size="10.00">+</text>
<text text-anchor="start" x="17" y="-356.5" font-family="Helvetica,sans-Serif" font-size="10.00">setSpeckleRange()</text>
<text text-anchor="start" x="4" y="-341.5" font-family="Helvetica,sans-Serif" font-size="10.00">+</text>
<text text-anchor="start" x="17" y="-341.5" font-family="Helvetica,sans-Serif" font-size="10.00">setSpeckleWindowSize()</text>
<polygon fill="#666666" stroke="#666666" points="0,-546.5 0,-546.5 142,-546.5 142,-546.5 0,-546.5"/>
<polygon fill="#666666" stroke="#666666" points="0,-531.5 0,-531.5 142,-531.5 142,-531.5 0,-531.5"/>
<polygon fill="none" stroke="#666666" points="0,-335 0,-564 142,-564 142,-335 0,-335"/>
</a>
</g>
</g>
<!-- Node3&#45;&gt;Node2 -->
<g id="edge2_Node000002_Node000003" class="edge">
<title>Node3&#45;&gt;Node2</title>
<g id="a_edge2_Node000002_Node000003"><a xlink:title=" ">
<path fill="none" stroke="#63b8ff" d="M71,-324.91C71,-316.34 71,-307.75 71,-299.28"/>
<polygon fill="none" stroke="#63b8ff" points="67.5,-324.95 71,-334.95 74.5,-324.95 67.5,-324.95"/>
</a>
</g>
</g>
<!-- Node4 -->
<g id="Node000004" class="node">
<title>Node4</title>
<g id="a_Node000004"><a xlink:href="../../d3/d46/classcv_1_1Algorithm.html" target="_top" xlink:title="This is a base class for all more or less complex algorithms in OpenCV.">
<polygon fill="white" stroke="transparent" points="126,-844 16,-844 16,-600 126,-600 126,-844"/>
<text text-anchor="start" x="38.5" y="-832" font-family="Helvetica,sans-Serif" font-size="10.00">cv::Algorithm</text>
<text text-anchor="start" x="69" y="-817" font-family="Helvetica,sans-Serif" font-size="10.00"> </text>
<text text-anchor="start" x="20" y="-802" font-family="Helvetica,sans-Serif" font-size="10.00">+</text>
<text text-anchor="start" x="33" y="-802" font-family="Helvetica,sans-Serif" font-size="10.00">Algorithm()</text>
<text text-anchor="start" x="20" y="-787" font-family="Helvetica,sans-Serif" font-size="10.00">+</text>
<text text-anchor="start" x="33" y="-787" font-family="Helvetica,sans-Serif" font-size="10.00">~Algorithm()</text>
<text text-anchor="start" x="20" y="-772" font-family="Helvetica,sans-Serif" font-size="10.00">+</text>
<text text-anchor="start" x="33" y="-772" font-family="Helvetica,sans-Serif" font-size="10.00">clear()</text>
<text text-anchor="start" x="20" y="-757" font-family="Helvetica,sans-Serif" font-size="10.00">+</text>
<text text-anchor="start" x="33" y="-757" font-family="Helvetica,sans-Serif" font-size="10.00">empty()</text>
<text text-anchor="start" x="20" y="-742" font-family="Helvetica,sans-Serif" font-size="10.00">+</text>
<text text-anchor="start" x="33" y="-742" font-family="Helvetica,sans-Serif" font-size="10.00">getDefaultName()</text>
<text text-anchor="start" x="20" y="-727" font-family="Helvetica,sans-Serif" font-size="10.00">+</text>
<text text-anchor="start" x="33" y="-727" font-family="Helvetica,sans-Serif" font-size="10.00">read()</text>
<text text-anchor="start" x="20" y="-712" font-family="Helvetica,sans-Serif" font-size="10.00">+</text>
<text text-anchor="start" x="33" y="-712" font-family="Helvetica,sans-Serif" font-size="10.00">save()</text>
<text text-anchor="start" x="20" y="-697" font-family="Helvetica,sans-Serif" font-size="10.00">+</text>
<text text-anchor="start" x="33" y="-697" font-family="Helvetica,sans-Serif" font-size="10.00">write()</text>
<text text-anchor="start" x="20" y="-682" font-family="Helvetica,sans-Serif" font-size="10.00">+</text>
<text text-anchor="start" x="33" y="-682" font-family="Helvetica,sans-Serif" font-size="10.00">write()</text>
<text text-anchor="start" x="20" y="-667" font-family="Helvetica,sans-Serif" font-size="10.00">+</text>
<text text-anchor="start" x="33" y="-667" font-family="Helvetica,sans-Serif" font-size="10.00">write()</text>
<text text-anchor="start" x="20" y="-652" font-family="Helvetica,sans-Serif" font-size="10.00">+</text>
<text text-anchor="start" x="33" y="-652" font-family="Helvetica,sans-Serif" font-size="10.00">load()</text>
<text text-anchor="start" x="20" y="-637" font-family="Helvetica,sans-Serif" font-size="10.00">+</text>
<text text-anchor="start" x="33" y="-637" font-family="Helvetica,sans-Serif" font-size="10.00">loadFromString()</text>
<text text-anchor="start" x="20" y="-622" font-family="Helvetica,sans-Serif" font-size="10.00">+</text>
<text text-anchor="start" x="33" y="-622" font-family="Helvetica,sans-Serif" font-size="10.00">read()</text>
<text text-anchor="start" x="20" y="-607" font-family="Helvetica,sans-Serif" font-size="10.00">#</text>
<text text-anchor="start" x="33" y="-607" font-family="Helvetica,sans-Serif" font-size="10.00">writeFormat()</text>
<polygon fill="#666666" stroke="#666666" points="16,-827 16,-827 126,-827 126,-827 16,-827"/>
<polygon fill="#666666" stroke="#666666" points="16,-812 16,-812 126,-812 126,-812 16,-812"/>
<polygon fill="none" stroke="#666666" points="16,-600 16,-844 126,-844 126,-600 16,-600"/>
</a>
</g>
</g>
<!-- Node4&#45;&gt;Node3 -->
<g id="edge3_Node000003_Node000004" class="edge">
<title>Node4&#45;&gt;Node3</title>
<g id="a_edge3_Node000003_Node000004"><a xlink:title=" ">
<path fill="none" stroke="#63b8ff" d="M71,-589.88C71,-581.24 71,-572.59 71,-564.05"/>
<polygon fill="none" stroke="#63b8ff" points="67.5,-589.99 71,-599.99 74.5,-589.99 67.5,-589.99"/>
</a>
</g>
</g>
</g>
</svg>
