<?xml version="1.0" encoding="UTF-8" standalone="no"?>
<!DOCTYPE svg PUBLIC "-//W3C//DTD SVG 1.1//EN"
 "http://www.w3.org/Graphics/SVG/1.1/DTD/svg11.dtd">
<!-- Generated by graphviz version 2.43.0 (0)
 -->
<!-- Title: cv::dnn::SegmentationModel Pages: 1 -->
<svg width="157pt" height="419pt"
 viewBox="0.00 0.00 157.00 419.00" xmlns="http://www.w3.org/2000/svg" xmlns:xlink="http://www.w3.org/1999/xlink">
<g id="graph0" class="graph" transform="scale(1 1) rotate(0) translate(4 415)">
<title>cv::dnn::SegmentationModel</title>
<!-- Node1 -->
<g id="Node000001" class="node">
<title>Node1</title>
<g id="a_Node000001"><a xlink:title="This class represents high&#45;level API for segmentation models.">
<polygon fill="#999999" stroke="transparent" points="149,-79 0,-79 0,0 149,0 149,-79"/>
<text text-anchor="start" x="5.5" y="-66.5" font-family="Helvetica,sans-Serif" font-size="10.00">cv::dnn::SegmentationModel</text>
<text text-anchor="start" x="73" y="-51.5" font-family="Helvetica,sans-Serif" font-size="10.00"> </text>
<text text-anchor="start" x="10" y="-36.5" font-family="Helvetica,sans-Serif" font-size="10.00">+</text>
<text text-anchor="start" x="28.5" y="-36.5" font-family="Helvetica,sans-Serif" font-size="10.00">SegmentationModel()</text>
<text text-anchor="start" x="10" y="-21.5" font-family="Helvetica,sans-Serif" font-size="10.00">+</text>
<text text-anchor="start" x="28.5" y="-21.5" font-family="Helvetica,sans-Serif" font-size="10.00">SegmentationModel()</text>
<text text-anchor="start" x="10" y="-6.5" font-family="Helvetica,sans-Serif" font-size="10.00">+</text>
<text text-anchor="start" x="28.5" y="-6.5" font-family="Helvetica,sans-Serif" font-size="10.00">segment()</text>
<polygon fill="#666666" stroke="#666666" points="0.5,-61.5 0.5,-61.5 149.5,-61.5 149.5,-61.5 0.5,-61.5"/>
<polygon fill="#666666" stroke="#666666" points="0.5,-46.5 0.5,-46.5 149.5,-46.5 149.5,-46.5 0.5,-46.5"/>
<polygon fill="none" stroke="#666666" points="0,0 0,-79 149,-79 149,0 0,0"/>
</a>
</g>
</g>
<!-- Node2 -->
<g id="Node000002" class="node">
<title>Node2</title>
<g id="a_Node000002"><a xlink:href="../../d3/df0/classcv_1_1dnn_1_1Model.html" target="_top" xlink:title="This class is presented high&#45;level API for neural networks.">
<polygon fill="white" stroke="transparent" points="129,-315 20,-315 20,-116 129,-116 129,-315"/>
<text text-anchor="start" x="39.5" y="-302.5" font-family="Helvetica,sans-Serif" font-size="10.00">cv::dnn::Model</text>
<text text-anchor="start" x="73" y="-287.5" font-family="Helvetica,sans-Serif" font-size="10.00"> </text>
<text text-anchor="start" x="24.5" y="-272.5" font-family="Helvetica,sans-Serif" font-size="10.00">+</text>
<text text-anchor="start" x="37.5" y="-272.5" font-family="Helvetica,sans-Serif" font-size="10.00">Model()</text>
<text text-anchor="start" x="24.5" y="-257.5" font-family="Helvetica,sans-Serif" font-size="10.00">+</text>
<text text-anchor="start" x="37.5" y="-257.5" font-family="Helvetica,sans-Serif" font-size="10.00">Model()</text>
<text text-anchor="start" x="24.5" y="-242.5" font-family="Helvetica,sans-Serif" font-size="10.00">+</text>
<text text-anchor="start" x="37.5" y="-242.5" font-family="Helvetica,sans-Serif" font-size="10.00">Model()</text>
<text text-anchor="start" x="24.5" y="-227.5" font-family="Helvetica,sans-Serif" font-size="10.00">+</text>
<text text-anchor="start" x="37.5" y="-227.5" font-family="Helvetica,sans-Serif" font-size="10.00">Model()</text>
<text text-anchor="start" x="24.5" y="-212.5" font-family="Helvetica,sans-Serif" font-size="10.00">+</text>
<text text-anchor="start" x="37.5" y="-212.5" font-family="Helvetica,sans-Serif" font-size="10.00">Model()</text>
<text text-anchor="start" x="24.5" y="-197.5" font-family="Helvetica,sans-Serif" font-size="10.00">+</text>
<text text-anchor="start" x="37.5" y="-197.5" font-family="Helvetica,sans-Serif" font-size="10.00">enableWinograd()</text>
<text text-anchor="start" x="24.5" y="-182.5" font-family="Helvetica,sans-Serif" font-size="10.00">+</text>
<text text-anchor="start" x="37.5" y="-182.5" font-family="Helvetica,sans-Serif" font-size="10.00">getImpl()</text>
<text text-anchor="start" x="24.5" y="-167.5" font-family="Helvetica,sans-Serif" font-size="10.00">+</text>
<text text-anchor="start" x="37.5" y="-167.5" font-family="Helvetica,sans-Serif" font-size="10.00">getImplRef()</text>
<text text-anchor="start" x="24.5" y="-152.5" font-family="Helvetica,sans-Serif" font-size="10.00">+</text>
<text text-anchor="start" x="37.5" y="-152.5" font-family="Helvetica,sans-Serif" font-size="10.00">getNetwork_()</text>
<text text-anchor="start" x="24.5" y="-137.5" font-family="Helvetica,sans-Serif" font-size="10.00">+</text>
<text text-anchor="start" x="37.5" y="-137.5" font-family="Helvetica,sans-Serif" font-size="10.00">getNetwork_()</text>
<text text-anchor="start" x="37.5" y="-122.5" font-family="Helvetica,sans-Serif" font-size="10.00">and 14 more...</text>
<polygon fill="#666666" stroke="#666666" points="20.5,-297.5 20.5,-297.5 129.5,-297.5 129.5,-297.5 20.5,-297.5"/>
<polygon fill="#666666" stroke="#666666" points="20.5,-282.5 20.5,-282.5 129.5,-282.5 129.5,-282.5 20.5,-282.5"/>
<polygon fill="none" stroke="#666666" points="20,-116 20,-315 129,-315 129,-116 20,-116"/>
</a>
</g>
</g>
<!-- Node2&#45;&gt;Node1 -->
<g id="edge1_Node000001_Node000002" class="edge">
<title>Node2&#45;&gt;Node1</title>
<g id="a_edge1_Node000001_Node000002"><a xlink:title=" ">
<path fill="none" stroke="#63b8ff" d="M74.5,-105.63C74.5,-96.37 74.5,-87.45 74.5,-79.35"/>
<polygon fill="none" stroke="#63b8ff" points="71,-105.81 74.5,-115.81 78,-105.81 71,-105.81"/>
</a>
</g>
</g>
<!-- Node3 -->
<g id="Node000003" class="node">
<title>Node3</title>
<g id="a_Node000003"><a xlink:title=" ">
<polygon fill="white" stroke="transparent" points="108.5,-411 40.5,-411 40.5,-362 108.5,-362 108.5,-411"/>
<text text-anchor="start" x="45.5" y="-398.5" font-family="Helvetica,sans-Serif" font-size="10.00">Ptr&lt; Impl &gt;</text>
<text text-anchor="start" x="72.5" y="-383.5" font-family="Helvetica,sans-Serif" font-size="10.00"> </text>
<text text-anchor="start" x="72.5" y="-368.5" font-family="Helvetica,sans-Serif" font-size="10.00"> </text>
<polygon fill="#666666" stroke="#666666" points="40.5,-393.5 40.5,-393.5 108.5,-393.5 108.5,-393.5 40.5,-393.5"/>
<polygon fill="#666666" stroke="#666666" points="40.5,-378.5 40.5,-378.5 108.5,-378.5 108.5,-378.5 40.5,-378.5"/>
<polygon fill="none" stroke="#666666" points="40.5,-362 40.5,-411 108.5,-411 108.5,-362 40.5,-362"/>
</a>
</g>
</g>
<!-- Node3&#45;&gt;Node2 -->
<g id="edge2_Node000002_Node000003" class="edge">
<title>Node3&#45;&gt;Node2</title>
<g id="a_edge2_Node000002_Node000003"><a xlink:title=" ">
<path fill="none" stroke="#63b8ff" d="M74.5,-361.64C74.5,-352.06 74.5,-340.28 74.5,-327.6"/>
<polygon fill="none" stroke="#63b8ff" points="74.5,-327.22 70.5,-321.22 74.5,-315.22 78.5,-321.22 74.5,-327.22"/>
</a>
</g>
<text text-anchor="middle" x="91.5" y="-336" font-family="Helvetica,sans-Serif" font-size="10.00" fill="grey"> #impl</text>
</g>
</g>
</svg>
