<?xml version="1.0" encoding="UTF-8" standalone="no"?>
<!DOCTYPE svg PUBLIC "-//W3C//DTD SVG 1.1//EN"
 "http://www.w3.org/Graphics/SVG/1.1/DTD/svg11.dtd">
<!-- Generated by graphviz version 2.43.0 (0)
 -->
<!-- Title: cv::cuda::GpuMat::copyTo Pages: 1 -->
<svg width="251pt" height="45pt"
 viewBox="0.00 0.00 251.00 45.00" xmlns="http://www.w3.org/2000/svg" xmlns:xlink="http://www.w3.org/1999/xlink">
<g id="graph0" class="graph" transform="scale(1 1) rotate(0) translate(4 41)">
<title>cv::cuda::GpuMat::copyTo</title>
<!-- Node1 -->
<g id="Node000001" class="node">
<title>Node1</title>
<g id="a_Node000001"><a xlink:title="bindings overload which copies the GpuMat content to device memory (Non&#45;Blocking call)">
<polygon fill="#999999" stroke="#666666" points="140,-19 0,-19 0,0 140,0 140,-19"/>
<text text-anchor="middle" x="70" y="-7" font-family="Helvetica,sans-Serif" font-size="10.00">cv::cuda::GpuMat::copyTo</text>
</a>
</g>
</g>
<!-- Node2 -->
<g id="Node000002" class="node">
<title>Node2</title>
<g id="a_Node000002"><a xlink:href="../../d2/de8/group__core__array.html#ga931a49489330f998452fc53e96e1719a" target="_top" xlink:title="This is an overloaded member function, provided for convenience (python) Copies the matrix to another...">
<polygon fill="white" stroke="#666666" points="243,-19 176,-19 176,0 243,0 243,-19"/>
<text text-anchor="middle" x="209.5" y="-7" font-family="Helvetica,sans-Serif" font-size="10.00">cv::copyTo</text>
</a>
</g>
</g>
<!-- Node1&#45;&gt;Node2 -->
<g id="edge1_Node000001_Node000002" class="edge">
<title>Node1&#45;&gt;Node2</title>
<g id="a_edge1_Node000001_Node000002"><a xlink:title=" ">
<path fill="none" stroke="#63b8ff" d="M140.15,-9.5C148.8,-9.5 157.44,-9.5 165.53,-9.5"/>
<polygon fill="#63b8ff" stroke="#63b8ff" points="165.79,-13 175.79,-9.5 165.79,-6 165.79,-13"/>
</a>
</g>
</g>
<!-- Node2&#45;&gt;Node2 -->
<g id="edge2_Node000002_Node000002" class="edge">
<title>Node2&#45;&gt;Node2</title>
<g id="a_edge2_Node000002_Node000002"><a xlink:title=" ">
<path fill="none" stroke="#63b8ff" d="M188.23,-19.08C177.88,-27.73 184.97,-37 209.5,-37 225.21,-37 233.77,-33.2 235.17,-28.19"/>
<polygon fill="#63b8ff" stroke="#63b8ff" points="238.27,-26.56 230.77,-19.08 231.97,-29.61 238.27,-26.56"/>
</a>
</g>
</g>
</g>
</svg>
