<?xml version="1.0" encoding="UTF-8" standalone="no"?>
<!DOCTYPE svg PUBLIC "-//W3C//DTD SVG 1.1//EN"
 "http://www.w3.org/Graphics/SVG/1.1/DTD/svg11.dtd">
<!-- Generated by graphviz version 2.43.0 (0)
 -->
<!-- Title: cv::cuda::StereoSGM Pages: 1 -->
<svg width="150pt" height="852pt"
 viewBox="0.00 0.00 150.00 852.00" xmlns="http://www.w3.org/2000/svg" xmlns:xlink="http://www.w3.org/1999/xlink">
<g id="graph0" class="graph" transform="scale(1 1) rotate(0) translate(4 848)">
<title>cv::cuda::StereoSGM</title>
<!-- Node1 -->
<g id="Node000001" class="node">
<title>Node1</title>
<g id="a_Node000001"><a xlink:title="The class implements the modified H. Hirschmuller algorithm . Limitation and difference are as follow...">
<polygon fill="#999999" stroke="transparent" points="126,-64 16,-64 16,0 126,0 126,-64"/>
<text text-anchor="start" x="21" y="-52" font-family="Helvetica,sans-Serif" font-size="10.00">cv::cuda::StereoSGM</text>
<text text-anchor="start" x="69" y="-37" font-family="Helvetica,sans-Serif" font-size="10.00"> </text>
<text text-anchor="start" x="29.5" y="-22" font-family="Helvetica,sans-Serif" font-size="10.00">+</text>
<text text-anchor="start" x="52" y="-22" font-family="Helvetica,sans-Serif" font-size="10.00">compute()</text>
<text text-anchor="start" x="29.5" y="-7" font-family="Helvetica,sans-Serif" font-size="10.00">+</text>
<text text-anchor="start" x="52" y="-7" font-family="Helvetica,sans-Serif" font-size="10.00">compute()</text>
<polygon fill="#666666" stroke="#666666" points="16,-47 16,-47 126,-47 126,-47 16,-47"/>
<polygon fill="#666666" stroke="#666666" points="16,-32 16,-32 126,-32 126,-32 16,-32"/>
<polygon fill="none" stroke="#666666" points="16,0 16,-64 126,-64 126,0 16,0"/>
</a>
</g>
</g>
<!-- Node2 -->
<g id="Node000002" class="node">
<title>Node2</title>
<g id="a_Node000002"><a xlink:href="../../d2/d85/classcv_1_1StereoSGBM.html" target="_top" xlink:title="The class implements the modified H. Hirschmuller algorithm &#160;that differs from the original one as fo...">
<polygon fill="white" stroke="transparent" points="134.5,-299 7.5,-299 7.5,-100 134.5,-100 134.5,-299"/>
<text text-anchor="start" x="32.5" y="-286.5" font-family="Helvetica,sans-Serif" font-size="10.00">cv::StereoSGBM</text>
<text text-anchor="start" x="69.5" y="-271.5" font-family="Helvetica,sans-Serif" font-size="10.00"> </text>
<text text-anchor="start" x="12" y="-256.5" font-family="Helvetica,sans-Serif" font-size="10.00">+</text>
<text text-anchor="start" x="25" y="-256.5" font-family="Helvetica,sans-Serif" font-size="10.00">getMode()</text>
<text text-anchor="start" x="12" y="-241.5" font-family="Helvetica,sans-Serif" font-size="10.00">+</text>
<text text-anchor="start" x="25" y="-241.5" font-family="Helvetica,sans-Serif" font-size="10.00">getP1()</text>
<text text-anchor="start" x="12" y="-226.5" font-family="Helvetica,sans-Serif" font-size="10.00">+</text>
<text text-anchor="start" x="25" y="-226.5" font-family="Helvetica,sans-Serif" font-size="10.00">getP2()</text>
<text text-anchor="start" x="12" y="-211.5" font-family="Helvetica,sans-Serif" font-size="10.00">+</text>
<text text-anchor="start" x="25" y="-211.5" font-family="Helvetica,sans-Serif" font-size="10.00">getPreFilterCap()</text>
<text text-anchor="start" x="12" y="-196.5" font-family="Helvetica,sans-Serif" font-size="10.00">+</text>
<text text-anchor="start" x="25" y="-196.5" font-family="Helvetica,sans-Serif" font-size="10.00">getUniquenessRatio()</text>
<text text-anchor="start" x="12" y="-181.5" font-family="Helvetica,sans-Serif" font-size="10.00">+</text>
<text text-anchor="start" x="25" y="-181.5" font-family="Helvetica,sans-Serif" font-size="10.00">setMode()</text>
<text text-anchor="start" x="12" y="-166.5" font-family="Helvetica,sans-Serif" font-size="10.00">+</text>
<text text-anchor="start" x="25" y="-166.5" font-family="Helvetica,sans-Serif" font-size="10.00">setP1()</text>
<text text-anchor="start" x="12" y="-151.5" font-family="Helvetica,sans-Serif" font-size="10.00">+</text>
<text text-anchor="start" x="25" y="-151.5" font-family="Helvetica,sans-Serif" font-size="10.00">setP2()</text>
<text text-anchor="start" x="12" y="-136.5" font-family="Helvetica,sans-Serif" font-size="10.00">+</text>
<text text-anchor="start" x="25" y="-136.5" font-family="Helvetica,sans-Serif" font-size="10.00">setPreFilterCap()</text>
<text text-anchor="start" x="12" y="-121.5" font-family="Helvetica,sans-Serif" font-size="10.00">+</text>
<text text-anchor="start" x="25" y="-121.5" font-family="Helvetica,sans-Serif" font-size="10.00">setUniquenessRatio()</text>
<text text-anchor="start" x="12" y="-106.5" font-family="Helvetica,sans-Serif" font-size="10.00">+</text>
<text text-anchor="start" x="25" y="-106.5" font-family="Helvetica,sans-Serif" font-size="10.00">create()</text>
<polygon fill="#666666" stroke="#666666" points="8,-281.5 8,-281.5 135,-281.5 135,-281.5 8,-281.5"/>
<polygon fill="#666666" stroke="#666666" points="8,-266.5 8,-266.5 135,-266.5 135,-266.5 8,-266.5"/>
<polygon fill="none" stroke="#666666" points="7.5,-100 7.5,-299 134.5,-299 134.5,-100 7.5,-100"/>
</a>
</g>
</g>
<!-- Node2&#45;&gt;Node1 -->
<g id="edge1_Node000001_Node000002" class="edge">
<title>Node2&#45;&gt;Node1</title>
<g id="a_edge1_Node000001_Node000002"><a xlink:title=" ">
<path fill="none" stroke="#63b8ff" d="M71,-89.72C71,-80.54 71,-71.83 71,-64.12"/>
<polygon fill="none" stroke="#63b8ff" points="67.5,-89.84 71,-99.84 74.5,-89.84 67.5,-89.84"/>
</a>
</g>
</g>
<!-- Node3 -->
<g id="Node000003" class="node">
<title>Node3</title>
<g id="a_Node000003"><a xlink:href="../../d2/d6e/classcv_1_1StereoMatcher.html" target="_top" xlink:title="The base class for stereo correspondence algorithms.">
<polygon fill="white" stroke="transparent" points="142,-564 0,-564 0,-335 142,-335 142,-564"/>
<text text-anchor="start" x="27" y="-551.5" font-family="Helvetica,sans-Serif" font-size="10.00">cv::StereoMatcher</text>
<text text-anchor="start" x="69" y="-536.5" font-family="Helvetica,sans-Serif" font-size="10.00"> </text>
<text text-anchor="start" x="4" y="-521.5" font-family="Helvetica,sans-Serif" font-size="10.00">+</text>
<text text-anchor="start" x="17" y="-521.5" font-family="Helvetica,sans-Serif" font-size="10.00">compute()</text>
<text text-anchor="start" x="4" y="-506.5" font-family="Helvetica,sans-Serif" font-size="10.00">+</text>
<text text-anchor="start" x="17" y="-506.5" font-family="Helvetica,sans-Serif" font-size="10.00">getBlockSize()</text>
<text text-anchor="start" x="4" y="-491.5" font-family="Helvetica,sans-Serif" font-size="10.00">+</text>
<text text-anchor="start" x="17" y="-491.5" font-family="Helvetica,sans-Serif" font-size="10.00">getDisp12MaxDiff()</text>
<text text-anchor="start" x="4" y="-476.5" font-family="Helvetica,sans-Serif" font-size="10.00">+</text>
<text text-anchor="start" x="17" y="-476.5" font-family="Helvetica,sans-Serif" font-size="10.00">getMinDisparity()</text>
<text text-anchor="start" x="4" y="-461.5" font-family="Helvetica,sans-Serif" font-size="10.00">+</text>
<text text-anchor="start" x="17" y="-461.5" font-family="Helvetica,sans-Serif" font-size="10.00">getNumDisparities()</text>
<text text-anchor="start" x="4" y="-446.5" font-family="Helvetica,sans-Serif" font-size="10.00">+</text>
<text text-anchor="start" x="17" y="-446.5" font-family="Helvetica,sans-Serif" font-size="10.00">getSpeckleRange()</text>
<text text-anchor="start" x="4" y="-431.5" font-family="Helvetica,sans-Serif" font-size="10.00">+</text>
<text text-anchor="start" x="17" y="-431.5" font-family="Helvetica,sans-Serif" font-size="10.00">getSpeckleWindowSize()</text>
<text text-anchor="start" x="4" y="-416.5" font-family="Helvetica,sans-Serif" font-size="10.00">+</text>
<text text-anchor="start" x="17" y="-416.5" font-family="Helvetica,sans-Serif" font-size="10.00">setBlockSize()</text>
<text text-anchor="start" x="4" y="-401.5" font-family="Helvetica,sans-Serif" font-size="10.00">+</text>
<text text-anchor="start" x="17" y="-401.5" font-family="Helvetica,sans-Serif" font-size="10.00">setDisp12MaxDiff()</text>
<text text-anchor="start" x="4" y="-386.5" font-family="Helvetica,sans-Serif" font-size="10.00">+</text>
<text text-anchor="start" x="17" y="-386.5" font-family="Helvetica,sans-Serif" font-size="10.00">setMinDisparity()</text>
<text text-anchor="start" x="4" y="-371.5" font-family="Helvetica,sans-Serif" font-size="10.00">+</text>
<text text-anchor="start" x="17" y="-371.5" font-family="Helvetica,sans-Serif" font-size="10.00">setNumDisparities()</text>
<text text-anchor="start" x="4" y="-356.5" font-family="Helvetica,sans-Serif" font-size="10.00">+</text>
<text text-anchor="start" x="17" y="-356.5" font-family="Helvetica,sans-Serif" font-size="10.00">setSpeckleRange()</text>
<text text-anchor="start" x="4" y="-341.5" font-family="Helvetica,sans-Serif" font-size="10.00">+</text>
<text text-anchor="start" x="17" y="-341.5" font-family="Helvetica,sans-Serif" font-size="10.00">setSpeckleWindowSize()</text>
<polygon fill="#666666" stroke="#666666" points="0,-546.5 0,-546.5 142,-546.5 142,-546.5 0,-546.5"/>
<polygon fill="#666666" stroke="#666666" points="0,-531.5 0,-531.5 142,-531.5 142,-531.5 0,-531.5"/>
<polygon fill="none" stroke="#666666" points="0,-335 0,-564 142,-564 142,-335 0,-335"/>
</a>
</g>
</g>
<!-- Node3&#45;&gt;Node2 -->
<g id="edge2_Node000002_Node000003" class="edge">
<title>Node3&#45;&gt;Node2</title>
<g id="a_edge2_Node000002_Node000003"><a xlink:title=" ">
<path fill="none" stroke="#63b8ff" d="M71,-324.65C71,-316.11 71,-307.58 71,-299.2"/>
<polygon fill="none" stroke="#63b8ff" points="67.5,-324.66 71,-334.66 74.5,-324.66 67.5,-324.66"/>
</a>
</g>
</g>
<!-- Node4 -->
<g id="Node000004" class="node">
<title>Node4</title>
<g id="a_Node000004"><a xlink:href="../../d3/d46/classcv_1_1Algorithm.html" target="_top" xlink:title="This is a base class for all more or less complex algorithms in OpenCV.">
<polygon fill="white" stroke="transparent" points="126,-844 16,-844 16,-600 126,-600 126,-844"/>
<text text-anchor="start" x="38.5" y="-832" font-family="Helvetica,sans-Serif" font-size="10.00">cv::Algorithm</text>
<text text-anchor="start" x="69" y="-817" font-family="Helvetica,sans-Serif" font-size="10.00"> </text>
<text text-anchor="start" x="20" y="-802" font-family="Helvetica,sans-Serif" font-size="10.00">+</text>
<text text-anchor="start" x="33" y="-802" font-family="Helvetica,sans-Serif" font-size="10.00">Algorithm()</text>
<text text-anchor="start" x="20" y="-787" font-family="Helvetica,sans-Serif" font-size="10.00">+</text>
<text text-anchor="start" x="33" y="-787" font-family="Helvetica,sans-Serif" font-size="10.00">~Algorithm()</text>
<text text-anchor="start" x="20" y="-772" font-family="Helvetica,sans-Serif" font-size="10.00">+</text>
<text text-anchor="start" x="33" y="-772" font-family="Helvetica,sans-Serif" font-size="10.00">clear()</text>
<text text-anchor="start" x="20" y="-757" font-family="Helvetica,sans-Serif" font-size="10.00">+</text>
<text text-anchor="start" x="33" y="-757" font-family="Helvetica,sans-Serif" font-size="10.00">empty()</text>
<text text-anchor="start" x="20" y="-742" font-family="Helvetica,sans-Serif" font-size="10.00">+</text>
<text text-anchor="start" x="33" y="-742" font-family="Helvetica,sans-Serif" font-size="10.00">getDefaultName()</text>
<text text-anchor="start" x="20" y="-727" font-family="Helvetica,sans-Serif" font-size="10.00">+</text>
<text text-anchor="start" x="33" y="-727" font-family="Helvetica,sans-Serif" font-size="10.00">read()</text>
<text text-anchor="start" x="20" y="-712" font-family="Helvetica,sans-Serif" font-size="10.00">+</text>
<text text-anchor="start" x="33" y="-712" font-family="Helvetica,sans-Serif" font-size="10.00">save()</text>
<text text-anchor="start" x="20" y="-697" font-family="Helvetica,sans-Serif" font-size="10.00">+</text>
<text text-anchor="start" x="33" y="-697" font-family="Helvetica,sans-Serif" font-size="10.00">write()</text>
<text text-anchor="start" x="20" y="-682" font-family="Helvetica,sans-Serif" font-size="10.00">+</text>
<text text-anchor="start" x="33" y="-682" font-family="Helvetica,sans-Serif" font-size="10.00">write()</text>
<text text-anchor="start" x="20" y="-667" font-family="Helvetica,sans-Serif" font-size="10.00">+</text>
<text text-anchor="start" x="33" y="-667" font-family="Helvetica,sans-Serif" font-size="10.00">write()</text>
<text text-anchor="start" x="20" y="-652" font-family="Helvetica,sans-Serif" font-size="10.00">+</text>
<text text-anchor="start" x="33" y="-652" font-family="Helvetica,sans-Serif" font-size="10.00">load()</text>
<text text-anchor="start" x="20" y="-637" font-family="Helvetica,sans-Serif" font-size="10.00">+</text>
<text text-anchor="start" x="33" y="-637" font-family="Helvetica,sans-Serif" font-size="10.00">loadFromString()</text>
<text text-anchor="start" x="20" y="-622" font-family="Helvetica,sans-Serif" font-size="10.00">+</text>
<text text-anchor="start" x="33" y="-622" font-family="Helvetica,sans-Serif" font-size="10.00">read()</text>
<text text-anchor="start" x="20" y="-607" font-family="Helvetica,sans-Serif" font-size="10.00">#</text>
<text text-anchor="start" x="33" y="-607" font-family="Helvetica,sans-Serif" font-size="10.00">writeFormat()</text>
<polygon fill="#666666" stroke="#666666" points="16,-827 16,-827 126,-827 126,-827 16,-827"/>
<polygon fill="#666666" stroke="#666666" points="16,-812 16,-812 126,-812 126,-812 16,-812"/>
<polygon fill="none" stroke="#666666" points="16,-600 16,-844 126,-844 126,-600 16,-600"/>
</a>
</g>
</g>
<!-- Node4&#45;&gt;Node3 -->
<g id="edge3_Node000003_Node000004" class="edge">
<title>Node4&#45;&gt;Node3</title>
<g id="a_edge3_Node000003_Node000004"><a xlink:title=" ">
<path fill="none" stroke="#63b8ff" d="M71,-589.88C71,-581.24 71,-572.59 71,-564.05"/>
<polygon fill="none" stroke="#63b8ff" points="67.5,-589.99 71,-599.99 74.5,-589.99 67.5,-589.99"/>
</a>
</g>
</g>
</g>
</svg>
