<?xml version="1.0" encoding="UTF-8" standalone="no"?>
<!DOCTYPE svg PUBLIC "-//W3C//DTD SVG 1.1//EN"
 "http://www.w3.org/Graphics/SVG/1.1/DTD/svg11.dtd">
<!-- Generated by graphviz version 2.43.0 (0)
 -->
<!-- Title: cv::details::FPDenormalsIgnoreHintScopeNOOP Pages: 1 -->
<svg width="183pt" height="131pt"
 viewBox="0.00 0.00 183.00 131.00" xmlns="http://www.w3.org/2000/svg" xmlns:xlink="http://www.w3.org/1999/xlink">
<g id="graph0" class="graph" transform="scale(1 1) rotate(0) translate(4 127)">
<title>cv::details::FPDenormalsIgnoreHintScopeNOOP</title>
<!-- Node1 -->
<g id="Node000001" class="node">
<title>Node1</title>
<g id="a_Node000001"><a xlink:title=" ">
<polygon fill="#999999" stroke="transparent" points="175,-123 0,-123 0,0 175,0 175,-123"/>
<text text-anchor="start" x="27.5" y="-110.5" font-family="Helvetica,sans-Serif" font-size="10.00">cv::details::FPDenormals</text>
<text text-anchor="start" x="33.5" y="-99.5" font-family="Helvetica,sans-Serif" font-size="10.00">IgnoreHintScopeNOOP</text>
<text text-anchor="start" x="86" y="-84.5" font-family="Helvetica,sans-Serif" font-size="10.00"> </text>
<text text-anchor="start" x="4.5" y="-69.5" font-family="Helvetica,sans-Serif" font-size="10.00">+</text>
<text text-anchor="start" x="17.5" y="-69.5" font-family="Helvetica,sans-Serif" font-size="10.00">FPDenormalsIgnoreHintScope</text>
<text text-anchor="start" x="17.5" y="-58.5" font-family="Helvetica,sans-Serif" font-size="10.00">NOOP()</text>
<text text-anchor="start" x="4.5" y="-43.5" font-family="Helvetica,sans-Serif" font-size="10.00">+</text>
<text text-anchor="start" x="17.5" y="-43.5" font-family="Helvetica,sans-Serif" font-size="10.00">FPDenormalsIgnoreHintScope</text>
<text text-anchor="start" x="17.5" y="-32.5" font-family="Helvetica,sans-Serif" font-size="10.00">NOOP()</text>
<text text-anchor="start" x="4.5" y="-17.5" font-family="Helvetica,sans-Serif" font-size="10.00">+</text>
<text text-anchor="start" x="17.5" y="-17.5" font-family="Helvetica,sans-Serif" font-size="10.00">~FPDenormalsIgnoreHintScope</text>
<text text-anchor="start" x="17.5" y="-6.5" font-family="Helvetica,sans-Serif" font-size="10.00">NOOP()</text>
<polygon fill="#666666" stroke="#666666" points="0.5,-94.5 0.5,-94.5 175.5,-94.5 175.5,-94.5 0.5,-94.5"/>
<polygon fill="#666666" stroke="#666666" points="0.5,-79.5 0.5,-79.5 175.5,-79.5 175.5,-79.5 0.5,-79.5"/>
<polygon fill="none" stroke="#666666" points="0,0 0,-123 175,-123 175,0 0,0"/>
</a>
</g>
</g>
</g>
</svg>
