<?xml version="1.0" encoding="UTF-8" standalone="no"?>
<!DOCTYPE svg PUBLIC "-//W3C//DTD SVG 1.1//EN"
 "http://www.w3.org/Graphics/SVG/1.1/DTD/svg11.dtd">
<!-- Generated by graphviz version 2.43.0 (0)
 -->
<!-- Title: cv::dnn::total Pages: 1 -->
<svg width="210pt" height="45pt"
 viewBox="0.00 0.00 210.00 45.00" xmlns="http://www.w3.org/2000/svg" xmlns:xlink="http://www.w3.org/1999/xlink">
<g id="graph0" class="graph" transform="scale(1 1) rotate(0) translate(4 41)">
<title>cv::dnn::total</title>
<!-- Node1 -->
<g id="Node000001" class="node">
<title>Node1</title>
<g id="a_Node000001"><a xlink:title=" ">
<polygon fill="#999999" stroke="#666666" points="80,-19 0,-19 0,0 80,0 80,-19"/>
<text text-anchor="middle" x="40" y="-7" font-family="Helvetica,sans-Serif" font-size="10.00">cv::dnn::total</text>
</a>
</g>
</g>
<!-- Node2 -->
<g id="Node000002" class="node">
<title>Node2</title>
<g id="a_Node000002"><a xlink:href="../../df/d57/namespacecv_1_1dnn.html#a270ae5dc357c85f7fec6d94470b52189" target="_top" xlink:title=" ">
<polygon fill="white" stroke="#666666" points="202,-19 116,-19 116,0 202,0 202,-19"/>
<text text-anchor="middle" x="159" y="-7" font-family="Helvetica,sans-Serif" font-size="10.00">cv::dnn::shape</text>
</a>
</g>
</g>
<!-- Node1&#45;&gt;Node2 -->
<g id="edge1_Node000001_Node000002" class="edge">
<title>Node1&#45;&gt;Node2</title>
<g id="a_edge1_Node000001_Node000002"><a xlink:title=" ">
<path fill="none" stroke="#63b8ff" d="M80.28,-9.5C88.4,-9.5 97.08,-9.5 105.58,-9.5"/>
<polygon fill="#63b8ff" stroke="#63b8ff" points="105.81,-13 115.81,-9.5 105.81,-6 105.81,-13"/>
</a>
</g>
</g>
<!-- Node2&#45;&gt;Node2 -->
<g id="edge2_Node000002_Node000002" class="edge">
<title>Node2&#45;&gt;Node2</title>
<g id="a_edge2_Node000002_Node000002"><a xlink:title=" ">
<path fill="none" stroke="#63b8ff" d="M140.81,-19.08C131.96,-27.73 138.03,-37 159,-37 172.11,-37 179.39,-33.38 180.85,-28.55"/>
<polygon fill="#63b8ff" stroke="#63b8ff" points="184.06,-27.15 177.19,-19.08 177.53,-29.67 184.06,-27.15"/>
</a>
</g>
</g>
</g>
</svg>
