<?xml version="1.0" encoding="UTF-8" standalone="no"?>
<!DOCTYPE svg PUBLIC "-//W3C//DTD SVG 1.1//EN"
 "http://www.w3.org/Graphics/SVG/1.1/DTD/svg11.dtd">
<!-- Generated by graphviz version 2.43.0 (0)
 -->
<!-- Title: cv::dnn::toString Pages: 1 -->
<svg width="225pt" height="45pt"
 viewBox="0.00 0.00 225.00 45.00" xmlns="http://www.w3.org/2000/svg" xmlns:xlink="http://www.w3.org/1999/xlink">
<g id="graph0" class="graph" transform="scale(1 1) rotate(0) translate(4 41)">
<title>cv::dnn::toString</title>
<!-- Node1 -->
<g id="Node000001" class="node">
<title>Node1</title>
<g id="a_Node000001"><a xlink:title=" ">
<polygon fill="#999999" stroke="#666666" points="95,-19 0,-19 0,0 95,0 95,-19"/>
<text text-anchor="middle" x="47.5" y="-7" font-family="Helvetica,sans-Serif" font-size="10.00">cv::dnn::toString</text>
</a>
</g>
</g>
<!-- Node2 -->
<g id="Node000002" class="node">
<title>Node2</title>
<g id="a_Node000002"><a xlink:href="../../df/d57/namespacecv_1_1dnn.html#a270ae5dc357c85f7fec6d94470b52189" target="_top" xlink:title=" ">
<polygon fill="white" stroke="#666666" points="217,-19 131,-19 131,0 217,0 217,-19"/>
<text text-anchor="middle" x="174" y="-7" font-family="Helvetica,sans-Serif" font-size="10.00">cv::dnn::shape</text>
</a>
</g>
</g>
<!-- Node1&#45;&gt;Node2 -->
<g id="edge1_Node000001_Node000002" class="edge">
<title>Node1&#45;&gt;Node2</title>
<g id="a_edge1_Node000001_Node000002"><a xlink:title=" ">
<path fill="none" stroke="#63b8ff" d="M95.21,-9.5C103.55,-9.5 112.29,-9.5 120.77,-9.5"/>
<polygon fill="#63b8ff" stroke="#63b8ff" points="120.95,-13 130.95,-9.5 120.95,-6 120.95,-13"/>
</a>
</g>
</g>
<!-- Node2&#45;&gt;Node2 -->
<g id="edge2_Node000002_Node000002" class="edge">
<title>Node2&#45;&gt;Node2</title>
<g id="a_edge2_Node000002_Node000002"><a xlink:title=" ">
<path fill="none" stroke="#63b8ff" d="M154.58,-19.08C145.13,-27.73 151.61,-37 174,-37 188,-37 195.77,-33.38 197.33,-28.55"/>
<polygon fill="#63b8ff" stroke="#63b8ff" points="200.47,-26.99 193.42,-19.08 194,-29.66 200.47,-26.99"/>
</a>
</g>
</g>
</g>
</svg>
