<?xml version="1.0" encoding="UTF-8" standalone="no"?>
<!DOCTYPE svg PUBLIC "-//W3C//DTD SVG 1.1//EN"
 "http://www.w3.org/Graphics/SVG/1.1/DTD/svg11.dtd">
<!-- Generated by graphviz version 2.43.0 (0)
 -->
<!-- Title: cv::dnn::operator&lt;&lt; Pages: 1 -->
<svg width="376pt" height="64pt"
 viewBox="0.00 0.00 376.00 64.00" xmlns="http://www.w3.org/2000/svg" xmlns:xlink="http://www.w3.org/1999/xlink">
<g id="graph0" class="graph" transform="scale(1 1) rotate(0) translate(4 60)">
<title>cv::dnn::operator&lt;&lt;</title>
<!-- Node1 -->
<g id="Node000001" class="node">
<title>Node1</title>
<g id="a_Node000001"><a xlink:title=" ">
<polygon fill="#999999" stroke="#666666" points="115,-38 0,-38 0,-19 115,-19 115,-38"/>
<text text-anchor="middle" x="57.5" y="-26" font-family="Helvetica,sans-Serif" font-size="10.00">cv::dnn::operator&lt;&lt;</text>
</a>
</g>
</g>
<!-- Node2 -->
<g id="Node000002" class="node">
<title>Node2</title>
<g id="a_Node000002"><a xlink:href="../../df/d57/namespacecv_1_1dnn.html#a270ae5dc357c85f7fec6d94470b52189" target="_top" xlink:title=" ">
<polygon fill="white" stroke="#666666" points="368,-38 282,-38 282,-19 368,-19 368,-38"/>
<text text-anchor="middle" x="325" y="-26" font-family="Helvetica,sans-Serif" font-size="10.00">cv::dnn::shape</text>
</a>
</g>
</g>
<!-- Node1&#45;&gt;Node2 -->
<g id="edge1_Node000001_Node000002" class="edge">
<title>Node1&#45;&gt;Node2</title>
<g id="a_edge1_Node000001_Node000002"><a xlink:title=" ">
<path fill="none" stroke="#63b8ff" d="M115.13,-28.5C161.47,-28.5 226.51,-28.5 271.65,-28.5"/>
<polygon fill="#63b8ff" stroke="#63b8ff" points="271.82,-32 281.82,-28.5 271.82,-25 271.82,-32"/>
</a>
</g>
</g>
<!-- Node3 -->
<g id="Node000003" class="node">
<title>Node3</title>
<g id="a_Node000003"><a xlink:href="../../df/d57/namespacecv_1_1dnn.html#ade3c6b09d1b942dba9bbeb34d64542fc" target="_top" xlink:title=" ">
<polygon fill="white" stroke="#666666" points="246,-19 151,-19 151,0 246,0 246,-19"/>
<text text-anchor="middle" x="198.5" y="-7" font-family="Helvetica,sans-Serif" font-size="10.00">cv::dnn::toString</text>
</a>
</g>
</g>
<!-- Node1&#45;&gt;Node3 -->
<g id="edge3_Node000001_Node000003" class="edge">
<title>Node1&#45;&gt;Node3</title>
<g id="a_edge3_Node000001_Node000003"><a xlink:title=" ">
<path fill="none" stroke="#63b8ff" d="M115.04,-20.77C123.48,-19.62 132.19,-18.43 140.64,-17.27"/>
<polygon fill="#63b8ff" stroke="#63b8ff" points="141.35,-20.71 150.78,-15.89 140.4,-13.77 141.35,-20.71"/>
</a>
</g>
</g>
<!-- Node2&#45;&gt;Node2 -->
<g id="edge2_Node000002_Node000002" class="edge">
<title>Node2&#45;&gt;Node2</title>
<g id="a_edge2_Node000002_Node000002"><a xlink:title=" ">
<path fill="none" stroke="#63b8ff" d="M305.58,-38.08C296.13,-46.73 302.61,-56 325,-56 339,-56 346.77,-52.38 348.33,-47.55"/>
<polygon fill="#63b8ff" stroke="#63b8ff" points="351.47,-45.99 344.42,-38.08 345,-48.66 351.47,-45.99"/>
</a>
</g>
</g>
<!-- Node3&#45;&gt;Node2 -->
<g id="edge4_Node000003_Node000002" class="edge">
<title>Node3&#45;&gt;Node2</title>
<g id="a_edge4_Node000003_Node000002"><a xlink:title=" ">
<path fill="none" stroke="#63b8ff" d="M246.21,-16.63C254.64,-17.92 263.48,-19.26 272.05,-20.57"/>
<polygon fill="#63b8ff" stroke="#63b8ff" points="271.53,-24.03 281.95,-22.08 272.59,-17.11 271.53,-24.03"/>
</a>
</g>
</g>
</g>
</svg>
