<?xml version="1.0" encoding="UTF-8" standalone="no"?>
<!DOCTYPE svg PUBLIC "-//W3C//DTD SVG 1.1//EN"
 "http://www.w3.org/Graphics/SVG/1.1/DTD/svg11.dtd">
<!-- Generated by graphviz version 2.43.0 (0)
 -->
<!-- Title: cv::saliency::MotionSaliencyBinWangApr2014 Pages: 1 -->
<svg width="242pt" height="808pt"
 viewBox="0.00 0.00 242.00 808.00" xmlns="http://www.w3.org/2000/svg" xmlns:xlink="http://www.w3.org/1999/xlink">
<g id="graph0" class="graph" transform="scale(1 1) rotate(0) translate(4 804)">
<title>cv::saliency::MotionSaliencyBinWangApr2014</title>
<!-- Node1 -->
<g id="Node000001" class="node">
<title>Node1</title>
<g id="a_Node000001"><a xlink:title="the Fast Self&#45;tuning Background Subtraction Algorithm from">
<polygon fill="#999999" stroke="transparent" points="196,-210 0,-210 0,0 196,0 196,-210"/>
<text text-anchor="start" x="29" y="-198" font-family="Helvetica,sans-Serif" font-size="10.00">cv::saliency::MotionSaliency</text>
<text text-anchor="start" x="56" y="-187" font-family="Helvetica,sans-Serif" font-size="10.00">BinWangApr2014</text>
<text text-anchor="start" x="96" y="-172" font-family="Helvetica,sans-Serif" font-size="10.00"> </text>
<text text-anchor="start" x="4" y="-157" font-family="Helvetica,sans-Serif" font-size="10.00">+</text>
<text text-anchor="start" x="17" y="-157" font-family="Helvetica,sans-Serif" font-size="10.00">MotionSaliencyBinWangApr2014()</text>
<text text-anchor="start" x="4" y="-142" font-family="Helvetica,sans-Serif" font-size="10.00">+</text>
<text text-anchor="start" x="17" y="-142" font-family="Helvetica,sans-Serif" font-size="10.00">~MotionSaliencyBinWangApr2014()</text>
<text text-anchor="start" x="4" y="-127" font-family="Helvetica,sans-Serif" font-size="10.00">+</text>
<text text-anchor="start" x="17" y="-127" font-family="Helvetica,sans-Serif" font-size="10.00">computeSaliency()</text>
<text text-anchor="start" x="4" y="-112" font-family="Helvetica,sans-Serif" font-size="10.00">+</text>
<text text-anchor="start" x="17" y="-112" font-family="Helvetica,sans-Serif" font-size="10.00">getImageHeight()</text>
<text text-anchor="start" x="4" y="-97" font-family="Helvetica,sans-Serif" font-size="10.00">+</text>
<text text-anchor="start" x="17" y="-97" font-family="Helvetica,sans-Serif" font-size="10.00">getImageWidth()</text>
<text text-anchor="start" x="4" y="-82" font-family="Helvetica,sans-Serif" font-size="10.00">+</text>
<text text-anchor="start" x="17" y="-82" font-family="Helvetica,sans-Serif" font-size="10.00">init()</text>
<text text-anchor="start" x="4" y="-67" font-family="Helvetica,sans-Serif" font-size="10.00">+</text>
<text text-anchor="start" x="17" y="-67" font-family="Helvetica,sans-Serif" font-size="10.00">setImageHeight()</text>
<text text-anchor="start" x="4" y="-52" font-family="Helvetica,sans-Serif" font-size="10.00">+</text>
<text text-anchor="start" x="17" y="-52" font-family="Helvetica,sans-Serif" font-size="10.00">setImagesize()</text>
<text text-anchor="start" x="4" y="-37" font-family="Helvetica,sans-Serif" font-size="10.00">+</text>
<text text-anchor="start" x="17" y="-37" font-family="Helvetica,sans-Serif" font-size="10.00">setImageWidth()</text>
<text text-anchor="start" x="4" y="-22" font-family="Helvetica,sans-Serif" font-size="10.00">+</text>
<text text-anchor="start" x="17" y="-22" font-family="Helvetica,sans-Serif" font-size="10.00">create()</text>
<text text-anchor="start" x="4" y="-7" font-family="Helvetica,sans-Serif" font-size="10.00">#</text>
<text text-anchor="start" x="17" y="-7" font-family="Helvetica,sans-Serif" font-size="10.00">computeSaliencyImpl()</text>
<polygon fill="#666666" stroke="#666666" points="0,-182 0,-182 196,-182 196,-182 0,-182"/>
<polygon fill="#666666" stroke="#666666" points="0,-167 0,-167 196,-167 196,-167 0,-167"/>
<polygon fill="none" stroke="#666666" points="0,0 0,-210 196,-210 196,0 0,0"/>
</a>
</g>
</g>
<!-- Node2 -->
<g id="Node000002" class="node">
<title>Node2</title>
<g id="a_Node000002"><a xlink:href="../../d2/df7/classcv_1_1saliency_1_1MotionSaliency.html" target="_top" xlink:title=" ">
<polygon fill="white" stroke="transparent" points="172,-296 24,-296 24,-247 172,-247 172,-296"/>
<text text-anchor="start" x="29" y="-283.5" font-family="Helvetica,sans-Serif" font-size="10.00">cv::saliency::MotionSaliency</text>
<text text-anchor="start" x="96" y="-268.5" font-family="Helvetica,sans-Serif" font-size="10.00"> </text>
<text text-anchor="start" x="31" y="-253.5" font-family="Helvetica,sans-Serif" font-size="10.00">#</text>
<text text-anchor="start" x="47" y="-253.5" font-family="Helvetica,sans-Serif" font-size="10.00">computeSaliencyImpl()</text>
<polygon fill="#666666" stroke="#666666" points="24,-278.5 24,-278.5 172,-278.5 172,-278.5 24,-278.5"/>
<polygon fill="#666666" stroke="#666666" points="24,-263.5 24,-263.5 172,-263.5 172,-263.5 24,-263.5"/>
<polygon fill="none" stroke="#666666" points="24,-247 24,-296 172,-296 172,-247 24,-247"/>
</a>
</g>
</g>
<!-- Node2&#45;&gt;Node1 -->
<g id="edge1_Node000001_Node000002" class="edge">
<title>Node2&#45;&gt;Node1</title>
<g id="a_edge1_Node000001_Node000002"><a xlink:title=" ">
<path fill="none" stroke="#63b8ff" d="M98,-236.85C98,-228.7 98,-219.57 98,-210.01"/>
<polygon fill="none" stroke="#63b8ff" points="94.5,-236.93 98,-246.93 101.5,-236.93 94.5,-236.93"/>
</a>
</g>
</g>
<!-- Node3 -->
<g id="Node000003" class="node">
<title>Node3</title>
<g id="a_Node000003"><a xlink:href="../../d9/dcd/classcv_1_1saliency_1_1Saliency.html" target="_top" xlink:title=" ">
<polygon fill="white" stroke="transparent" points="165.5,-412 30.5,-412 30.5,-333 165.5,-333 165.5,-412"/>
<text text-anchor="start" x="46.5" y="-399.5" font-family="Helvetica,sans-Serif" font-size="10.00">cv::saliency::Saliency</text>
<text text-anchor="start" x="96.5" y="-384.5" font-family="Helvetica,sans-Serif" font-size="10.00"> </text>
<text text-anchor="start" x="35" y="-369.5" font-family="Helvetica,sans-Serif" font-size="10.00">+</text>
<text text-anchor="start" x="48" y="-369.5" font-family="Helvetica,sans-Serif" font-size="10.00">~Saliency()</text>
<text text-anchor="start" x="35" y="-354.5" font-family="Helvetica,sans-Serif" font-size="10.00">+</text>
<text text-anchor="start" x="48" y="-354.5" font-family="Helvetica,sans-Serif" font-size="10.00">computeSaliency()</text>
<text text-anchor="start" x="35" y="-339.5" font-family="Helvetica,sans-Serif" font-size="10.00">#</text>
<text text-anchor="start" x="48" y="-339.5" font-family="Helvetica,sans-Serif" font-size="10.00">computeSaliencyImpl()</text>
<polygon fill="#666666" stroke="#666666" points="31,-394.5 31,-394.5 166,-394.5 166,-394.5 31,-394.5"/>
<polygon fill="#666666" stroke="#666666" points="31,-379.5 31,-379.5 166,-379.5 166,-379.5 31,-379.5"/>
<polygon fill="none" stroke="#666666" points="30.5,-333 30.5,-412 165.5,-412 165.5,-333 30.5,-333"/>
</a>
</g>
</g>
<!-- Node3&#45;&gt;Node2 -->
<g id="edge2_Node000002_Node000003" class="edge">
<title>Node3&#45;&gt;Node2</title>
<g id="a_edge2_Node000002_Node000003"><a xlink:title=" ">
<path fill="none" stroke="#63b8ff" d="M98,-322.94C98,-313.64 98,-304.3 98,-296.23"/>
<polygon fill="none" stroke="#63b8ff" points="94.5,-322.94 98,-332.94 101.5,-322.94 94.5,-322.94"/>
</a>
</g>
</g>
<!-- Node4 -->
<g id="Node000004" class="node">
<title>Node4</title>
<g id="a_Node000004"><a xlink:href="../../d3/d46/classcv_1_1Algorithm.html" target="_top" xlink:title="This is a base class for all more or less complex algorithms in OpenCV.">
<polygon fill="white" stroke="transparent" points="137,-703 27,-703 27,-459 137,-459 137,-703"/>
<text text-anchor="start" x="49.5" y="-691" font-family="Helvetica,sans-Serif" font-size="10.00">cv::Algorithm</text>
<text text-anchor="start" x="80" y="-676" font-family="Helvetica,sans-Serif" font-size="10.00"> </text>
<text text-anchor="start" x="31" y="-661" font-family="Helvetica,sans-Serif" font-size="10.00">+</text>
<text text-anchor="start" x="44" y="-661" font-family="Helvetica,sans-Serif" font-size="10.00">Algorithm()</text>
<text text-anchor="start" x="31" y="-646" font-family="Helvetica,sans-Serif" font-size="10.00">+</text>
<text text-anchor="start" x="44" y="-646" font-family="Helvetica,sans-Serif" font-size="10.00">~Algorithm()</text>
<text text-anchor="start" x="31" y="-631" font-family="Helvetica,sans-Serif" font-size="10.00">+</text>
<text text-anchor="start" x="44" y="-631" font-family="Helvetica,sans-Serif" font-size="10.00">clear()</text>
<text text-anchor="start" x="31" y="-616" font-family="Helvetica,sans-Serif" font-size="10.00">+</text>
<text text-anchor="start" x="44" y="-616" font-family="Helvetica,sans-Serif" font-size="10.00">empty()</text>
<text text-anchor="start" x="31" y="-601" font-family="Helvetica,sans-Serif" font-size="10.00">+</text>
<text text-anchor="start" x="44" y="-601" font-family="Helvetica,sans-Serif" font-size="10.00">getDefaultName()</text>
<text text-anchor="start" x="31" y="-586" font-family="Helvetica,sans-Serif" font-size="10.00">+</text>
<text text-anchor="start" x="44" y="-586" font-family="Helvetica,sans-Serif" font-size="10.00">read()</text>
<text text-anchor="start" x="31" y="-571" font-family="Helvetica,sans-Serif" font-size="10.00">+</text>
<text text-anchor="start" x="44" y="-571" font-family="Helvetica,sans-Serif" font-size="10.00">save()</text>
<text text-anchor="start" x="31" y="-556" font-family="Helvetica,sans-Serif" font-size="10.00">+</text>
<text text-anchor="start" x="44" y="-556" font-family="Helvetica,sans-Serif" font-size="10.00">write()</text>
<text text-anchor="start" x="31" y="-541" font-family="Helvetica,sans-Serif" font-size="10.00">+</text>
<text text-anchor="start" x="44" y="-541" font-family="Helvetica,sans-Serif" font-size="10.00">write()</text>
<text text-anchor="start" x="31" y="-526" font-family="Helvetica,sans-Serif" font-size="10.00">+</text>
<text text-anchor="start" x="44" y="-526" font-family="Helvetica,sans-Serif" font-size="10.00">write()</text>
<text text-anchor="start" x="31" y="-511" font-family="Helvetica,sans-Serif" font-size="10.00">+</text>
<text text-anchor="start" x="44" y="-511" font-family="Helvetica,sans-Serif" font-size="10.00">load()</text>
<text text-anchor="start" x="31" y="-496" font-family="Helvetica,sans-Serif" font-size="10.00">+</text>
<text text-anchor="start" x="44" y="-496" font-family="Helvetica,sans-Serif" font-size="10.00">loadFromString()</text>
<text text-anchor="start" x="31" y="-481" font-family="Helvetica,sans-Serif" font-size="10.00">+</text>
<text text-anchor="start" x="44" y="-481" font-family="Helvetica,sans-Serif" font-size="10.00">read()</text>
<text text-anchor="start" x="31" y="-466" font-family="Helvetica,sans-Serif" font-size="10.00">#</text>
<text text-anchor="start" x="44" y="-466" font-family="Helvetica,sans-Serif" font-size="10.00">writeFormat()</text>
<polygon fill="#666666" stroke="#666666" points="27,-686 27,-686 137,-686 137,-686 27,-686"/>
<polygon fill="#666666" stroke="#666666" points="27,-671 27,-671 137,-671 137,-671 27,-671"/>
<polygon fill="none" stroke="#666666" points="27,-459 27,-703 137,-703 137,-459 27,-459"/>
</a>
</g>
</g>
<!-- Node4&#45;&gt;Node3 -->
<g id="edge3_Node000003_Node000004" class="edge">
<title>Node4&#45;&gt;Node3</title>
<g id="a_edge3_Node000003_Node000004"><a xlink:title=" ">
<path fill="none" stroke="#63b8ff" d="M92.17,-448.78C93.19,-435.59 94.16,-423.05 95.01,-412.13"/>
<polygon fill="none" stroke="#63b8ff" points="88.66,-448.74 91.38,-458.98 95.64,-449.28 88.66,-448.74"/>
</a>
</g>
</g>
<!-- Node5 -->
<g id="Node000005" class="node">
<title>Node5</title>
<g id="a_Node000005"><a xlink:title=" ">
<polygon fill="white" stroke="transparent" points="214.5,-605.5 155.5,-605.5 155.5,-556.5 214.5,-556.5 214.5,-605.5"/>
<text text-anchor="start" x="161" y="-593" font-family="Helvetica,sans-Serif" font-size="10.00">std::string</text>
<text text-anchor="start" x="183.5" y="-578" font-family="Helvetica,sans-Serif" font-size="10.00"> </text>
<text text-anchor="start" x="183.5" y="-563" font-family="Helvetica,sans-Serif" font-size="10.00"> </text>
<polygon fill="#666666" stroke="#666666" points="156,-588 156,-588 215,-588 215,-588 156,-588"/>
<polygon fill="#666666" stroke="#666666" points="156,-573 156,-573 215,-573 215,-573 156,-573"/>
<polygon fill="none" stroke="#666666" points="155.5,-556.5 155.5,-605.5 214.5,-605.5 214.5,-556.5 155.5,-556.5"/>
</a>
</g>
</g>
<!-- Node5&#45;&gt;Node3 -->
<g id="edge4_Node000003_Node000005" class="edge">
<title>Node5&#45;&gt;Node3</title>
<g id="a_edge4_Node000003_Node000005"><a xlink:title=" ">
<path fill="none" stroke="#63b8ff" d="M178.87,-556.29C172.12,-531.52 160.31,-491.77 146,-459 140.79,-447.06 134.4,-434.62 128.01,-423.04"/>
<polygon fill="none" stroke="#63b8ff" points="127.81,-422.7 121.38,-419.44 121.91,-412.25 128.35,-415.51 127.81,-422.7"/>
</a>
</g>
<text text-anchor="middle" x="169" y="-433" font-family="Helvetica,sans-Serif" font-size="10.00" fill="grey"> #className</text>
</g>
<!-- Node6 -->
<g id="Node000006" class="node">
<title>Node6</title>
<g id="a_Node000006"><a xlink:title=" ">
<polygon fill="white" stroke="transparent" points="234,-800 136,-800 136,-740 234,-740 234,-800"/>
<text text-anchor="start" x="141" y="-788" font-family="Helvetica,sans-Serif" font-size="10.00">std::basic_string&lt;</text>
<text text-anchor="start" x="166.5" y="-777" font-family="Helvetica,sans-Serif" font-size="10.00"> Char &gt;</text>
<text text-anchor="start" x="183" y="-762" font-family="Helvetica,sans-Serif" font-size="10.00"> </text>
<text text-anchor="start" x="183" y="-747" font-family="Helvetica,sans-Serif" font-size="10.00"> </text>
<polygon fill="#666666" stroke="#666666" points="136,-772 136,-772 234,-772 234,-772 136,-772"/>
<polygon fill="#666666" stroke="#666666" points="136,-757 136,-757 234,-757 234,-757 136,-757"/>
<polygon fill="none" stroke="#666666" points="136,-740 136,-800 234,-800 234,-740 136,-740"/>
</a>
</g>
</g>
<!-- Node6&#45;&gt;Node5 -->
<g id="edge5_Node000005_Node000006" class="edge">
<title>Node6&#45;&gt;Node5</title>
<g id="a_edge5_Node000005_Node000006"><a xlink:title=" ">
<path fill="none" stroke="#63b8ff" d="M185,-729.71C185,-692.19 185,-636.89 185,-605.68"/>
<polygon fill="none" stroke="#63b8ff" points="181.5,-729.78 185,-739.78 188.5,-729.78 181.5,-729.78"/>
</a>
</g>
</g>
</g>
</svg>
