<?xml version="1.0" encoding="UTF-8" standalone="no"?>
<!DOCTYPE svg PUBLIC "-//W3C//DTD SVG 1.1//EN"
 "http://www.w3.org/Graphics/SVG/1.1/DTD/svg11.dtd">
<!-- Generated by graphviz version 2.43.0 (0)
 -->
<!-- Title: cv::detail::PaniniPortraitProjector Pages: 1 -->
<svg width="204pt" height="320pt"
 viewBox="0.00 0.00 204.00 320.00" xmlns="http://www.w3.org/2000/svg" xmlns:xlink="http://www.w3.org/1999/xlink">
<g id="graph0" class="graph" transform="scale(1 1) rotate(0) translate(4 316)">
<title>cv::detail::PaniniPortraitProjector</title>
<!-- Node1 -->
<g id="Node000001" class="node">
<title>Node1</title>
<g id="a_Node000001"><a xlink:title=" ">
<polygon fill="#999999" stroke="transparent" points="126,-75 0,-75 0,0 126,0 126,-75"/>
<text text-anchor="start" x="5" y="-62.5" font-family="Helvetica,sans-Serif" font-size="10.00">cv::detail::PaniniPortrait</text>
<text text-anchor="start" x="41" y="-51.5" font-family="Helvetica,sans-Serif" font-size="10.00">Projector</text>
<text text-anchor="start" x="61" y="-36.5" font-family="Helvetica,sans-Serif" font-size="10.00"> </text>
<text text-anchor="start" x="10.5" y="-21.5" font-family="Helvetica,sans-Serif" font-size="10.00">+</text>
<text text-anchor="start" x="30" y="-21.5" font-family="Helvetica,sans-Serif" font-size="10.00">mapBackward()</text>
<text text-anchor="start" x="10.5" y="-6.5" font-family="Helvetica,sans-Serif" font-size="10.00">+</text>
<text text-anchor="start" x="30" y="-6.5" font-family="Helvetica,sans-Serif" font-size="10.00">mapForward()</text>
<polygon fill="#666666" stroke="#666666" points="0,-46.5 0,-46.5 126,-46.5 126,-46.5 0,-46.5"/>
<polygon fill="#666666" stroke="#666666" points="0,-31.5 0,-31.5 126,-31.5 126,-31.5 0,-31.5"/>
<polygon fill="none" stroke="#666666" points="0,0 0,-75 126,-75 126,0 0,0"/>
</a>
</g>
</g>
<!-- Node2 -->
<g id="Node000002" class="node">
<title>Node2</title>
<g id="a_Node000002"><a xlink:href="../../dc/d2c/structcv_1_1detail_1_1ProjectorBase.html" target="_top" xlink:title="Base class for warping logic implementation.">
<polygon fill="white" stroke="transparent" points="196,-161 68,-161 68,-112 196,-112 196,-161"/>
<text text-anchor="start" x="73" y="-148.5" font-family="Helvetica,sans-Serif" font-size="10.00">cv::detail::ProjectorBase</text>
<text text-anchor="start" x="130" y="-133.5" font-family="Helvetica,sans-Serif" font-size="10.00"> </text>
<text text-anchor="start" x="74.5" y="-118.5" font-family="Helvetica,sans-Serif" font-size="10.00">+</text>
<text text-anchor="start" x="90" y="-118.5" font-family="Helvetica,sans-Serif" font-size="10.00">setCameraParams()</text>
<polygon fill="#666666" stroke="#666666" points="68,-143.5 68,-143.5 196,-143.5 196,-143.5 68,-143.5"/>
<polygon fill="#666666" stroke="#666666" points="68,-128.5 68,-128.5 196,-128.5 196,-128.5 68,-128.5"/>
<polygon fill="none" stroke="#666666" points="68,-112 68,-161 196,-161 196,-112 68,-112"/>
</a>
</g>
</g>
<!-- Node2&#45;&gt;Node1 -->
<g id="edge1_Node000001_Node000002" class="edge">
<title>Node2&#45;&gt;Node1</title>
<g id="a_edge1_Node000001_Node000002"><a xlink:title=" ">
<path fill="none" stroke="#63b8ff" d="M109.01,-103.18C102.59,-94.16 95.57,-84.29 89,-75.05"/>
<polygon fill="none" stroke="#63b8ff" points="106.3,-105.4 114.94,-111.52 112,-101.34 106.3,-105.4"/>
</a>
</g>
</g>
<!-- Node3 -->
<g id="Node000003" class="node">
<title>Node3</title>
<g id="a_Node000003"><a xlink:title=" ">
<polygon fill="white" stroke="transparent" points="64,-312 32,-312 32,-263 64,-263 64,-312"/>
<text text-anchor="start" x="37" y="-299.5" font-family="Helvetica,sans-Serif" font-size="10.00">float</text>
<text text-anchor="start" x="46" y="-284.5" font-family="Helvetica,sans-Serif" font-size="10.00"> </text>
<text text-anchor="start" x="46" y="-269.5" font-family="Helvetica,sans-Serif" font-size="10.00"> </text>
<polygon fill="#666666" stroke="#666666" points="32,-294.5 32,-294.5 64,-294.5 64,-294.5 32,-294.5"/>
<polygon fill="#666666" stroke="#666666" points="32,-279.5 32,-279.5 64,-279.5 64,-279.5 32,-279.5"/>
<polygon fill="none" stroke="#666666" points="32,-263 32,-312 64,-312 64,-263 32,-263"/>
</a>
</g>
</g>
<!-- Node3&#45;&gt;Node1 -->
<g id="edge3_Node000001_Node000003" class="edge">
<title>Node3&#45;&gt;Node1</title>
<g id="a_edge3_Node000001_Node000003"><a xlink:title=" ">
<path fill="none" stroke="#63b8ff" d="M44.31,-262.93C39.66,-229.26 33.16,-165.55 41,-112 42.22,-103.67 44.18,-94.97 46.44,-86.6"/>
<polygon fill="none" stroke="#63b8ff" points="46.45,-86.57 44.27,-79.69 49.78,-75.04 51.96,-81.92 46.45,-86.57"/>
</a>
</g>
<text text-anchor="middle" x="50" y="-139.5" font-family="Helvetica,sans-Serif" font-size="10.00" fill="grey"> +a</text>
<text text-anchor="middle" x="50" y="-128.5" font-family="Helvetica,sans-Serif" font-size="10.00" fill="grey">+b</text>
</g>
<!-- Node3&#45;&gt;Node2 -->
<g id="edge2_Node000002_Node000003" class="edge">
<title>Node3&#45;&gt;Node2</title>
<g id="a_edge2_Node000002_Node000003"><a xlink:title=" ">
<path fill="none" stroke="#63b8ff" d="M61.31,-262.89C75.11,-238.41 96.84,-199.87 112.56,-171.98"/>
<polygon fill="none" stroke="#63b8ff" points="112.58,-171.95 112.04,-164.75 118.47,-161.49 119.01,-168.68 112.58,-171.95"/>
</a>
</g>
<text text-anchor="middle" x="126.5" y="-237" font-family="Helvetica,sans-Serif" font-size="10.00" fill="grey"> +k</text>
<text text-anchor="middle" x="126.5" y="-226" font-family="Helvetica,sans-Serif" font-size="10.00" fill="grey">+k_rinv</text>
<text text-anchor="middle" x="126.5" y="-215" font-family="Helvetica,sans-Serif" font-size="10.00" fill="grey">+r_kinv</text>
<text text-anchor="middle" x="126.5" y="-204" font-family="Helvetica,sans-Serif" font-size="10.00" fill="grey">+rinv</text>
<text text-anchor="middle" x="126.5" y="-193" font-family="Helvetica,sans-Serif" font-size="10.00" fill="grey">+scale</text>
<text text-anchor="middle" x="126.5" y="-182" font-family="Helvetica,sans-Serif" font-size="10.00" fill="grey">+t</text>
</g>
</g>
</svg>
