<?xml version="1.0" encoding="UTF-8" standalone="no"?>
<!DOCTYPE svg PUBLIC "-//W3C//DTD SVG 1.1//EN"
 "http://www.w3.org/Graphics/SVG/1.1/DTD/svg11.dtd">
<!-- Generated by graphviz version 2.43.0 (0)
 -->
<!-- Title: cv::gapi::use_only Pages: 1 -->
<svg width="136pt" height="318pt"
 viewBox="0.00 0.00 136.00 318.00" xmlns="http://www.w3.org/2000/svg" xmlns:xlink="http://www.w3.org/1999/xlink">
<g id="graph0" class="graph" transform="scale(1 1) rotate(0) translate(4 314)">
<title>cv::gapi::use_only</title>
<!-- Node1 -->
<g id="Node000001" class="node">
<title>Node1</title>
<g id="a_Node000001"><a xlink:title="cv::gapi::use_only() is a special combinator which hints G&#45;API to use only kernels specified in cv::G...">
<polygon fill="#999999" stroke="transparent" points="113,-49 15,-49 15,0 113,0 113,-49"/>
<text text-anchor="start" x="20" y="-36.5" font-family="Helvetica,sans-Serif" font-size="10.00">cv::gapi::use_only</text>
<text text-anchor="start" x="62" y="-21.5" font-family="Helvetica,sans-Serif" font-size="10.00"> </text>
<text text-anchor="start" x="62" y="-6.5" font-family="Helvetica,sans-Serif" font-size="10.00"> </text>
<polygon fill="#666666" stroke="#666666" points="15,-31.5 15,-31.5 113,-31.5 113,-31.5 15,-31.5"/>
<polygon fill="#666666" stroke="#666666" points="15,-16.5 15,-16.5 113,-16.5 113,-16.5 15,-16.5"/>
<polygon fill="none" stroke="#666666" points="15,0 15,-49 113,-49 113,0 15,0"/>
</a>
</g>
</g>
<!-- Node2 -->
<g id="Node000002" class="node">
<title>Node2</title>
<g id="a_Node000002"><a xlink:href="../../d4/d3a/classcv_1_1GKernelPackage.html" target="_top" xlink:title="A container class for heterogeneous kernel implementation collections and graph transformations.">
<polygon fill="white" stroke="transparent" points="128,-310 0,-310 0,-96 128,-96 128,-310"/>
<text text-anchor="start" x="16.5" y="-298" font-family="Helvetica,sans-Serif" font-size="10.00">cv::GKernelPackage</text>
<text text-anchor="start" x="62" y="-283" font-family="Helvetica,sans-Serif" font-size="10.00"> </text>
<text text-anchor="start" x="4" y="-268" font-family="Helvetica,sans-Serif" font-size="10.00">+</text>
<text text-anchor="start" x="17" y="-268" font-family="Helvetica,sans-Serif" font-size="10.00">backends()</text>
<text text-anchor="start" x="4" y="-253" font-family="Helvetica,sans-Serif" font-size="10.00">+</text>
<text text-anchor="start" x="17" y="-253" font-family="Helvetica,sans-Serif" font-size="10.00">get_kernel_ids()</text>
<text text-anchor="start" x="4" y="-238" font-family="Helvetica,sans-Serif" font-size="10.00">+</text>
<text text-anchor="start" x="17" y="-238" font-family="Helvetica,sans-Serif" font-size="10.00">get_transformations()</text>
<text text-anchor="start" x="4" y="-223" font-family="Helvetica,sans-Serif" font-size="10.00">+</text>
<text text-anchor="start" x="17" y="-223" font-family="Helvetica,sans-Serif" font-size="10.00">include()</text>
<text text-anchor="start" x="4" y="-208" font-family="Helvetica,sans-Serif" font-size="10.00">+</text>
<text text-anchor="start" x="17" y="-208" font-family="Helvetica,sans-Serif" font-size="10.00">include()</text>
<text text-anchor="start" x="4" y="-193" font-family="Helvetica,sans-Serif" font-size="10.00">+</text>
<text text-anchor="start" x="17" y="-193" font-family="Helvetica,sans-Serif" font-size="10.00">include()</text>
<text text-anchor="start" x="4" y="-178" font-family="Helvetica,sans-Serif" font-size="10.00">+</text>
<text text-anchor="start" x="17" y="-178" font-family="Helvetica,sans-Serif" font-size="10.00">includes()</text>
<text text-anchor="start" x="4" y="-163" font-family="Helvetica,sans-Serif" font-size="10.00">+</text>
<text text-anchor="start" x="17" y="-163" font-family="Helvetica,sans-Serif" font-size="10.00">includesAPI()</text>
<text text-anchor="start" x="4" y="-148" font-family="Helvetica,sans-Serif" font-size="10.00">+</text>
<text text-anchor="start" x="17" y="-148" font-family="Helvetica,sans-Serif" font-size="10.00">lookup()</text>
<text text-anchor="start" x="4" y="-133" font-family="Helvetica,sans-Serif" font-size="10.00">+</text>
<text text-anchor="start" x="17" y="-133" font-family="Helvetica,sans-Serif" font-size="10.00">remove()</text>
<text text-anchor="start" x="4" y="-118" font-family="Helvetica,sans-Serif" font-size="10.00">+</text>
<text text-anchor="start" x="17" y="-118" font-family="Helvetica,sans-Serif" font-size="10.00">remove()</text>
<text text-anchor="start" x="4" y="-103" font-family="Helvetica,sans-Serif" font-size="10.00">+</text>
<text text-anchor="start" x="17" y="-103" font-family="Helvetica,sans-Serif" font-size="10.00">size()</text>
<polygon fill="#666666" stroke="#666666" points="0,-293 0,-293 128,-293 128,-293 0,-293"/>
<polygon fill="#666666" stroke="#666666" points="0,-278 0,-278 128,-278 128,-278 0,-278"/>
<polygon fill="none" stroke="#666666" points="0,-96 0,-310 128,-310 128,-96 0,-96"/>
</a>
</g>
</g>
<!-- Node2&#45;&gt;Node1 -->
<g id="edge1_Node000001_Node000002" class="edge">
<title>Node2&#45;&gt;Node1</title>
<g id="a_edge1_Node000001_Node000002"><a xlink:title=" ">
<path fill="none" stroke="#63b8ff" d="M64,-95.76C64,-83.44 64,-71.61 64,-61.29"/>
<polygon fill="none" stroke="#63b8ff" points="64,-61.09 60,-55.09 64,-49.09 68,-55.09 64,-61.09"/>
</a>
</g>
<text text-anchor="middle" x="79" y="-70" font-family="Helvetica,sans-Serif" font-size="10.00" fill="grey"> +pkg</text>
</g>
</g>
</svg>
