<?xml version="1.0" encoding="UTF-8" standalone="no"?>
<!DOCTYPE svg PUBLIC "-//W3C//DTD SVG 1.1//EN"
 "http://www.w3.org/Graphics/SVG/1.1/DTD/svg11.dtd">
<!-- Generated by graphviz version 2.43.0 (0)
 -->
<!-- Title: cv::gapi::s11n::detail::S11N&lt; T &gt; Pages: 1 -->
<svg width="119pt" height="179pt"
 viewBox="0.00 0.00 119.00 179.00" xmlns="http://www.w3.org/2000/svg" xmlns:xlink="http://www.w3.org/1999/xlink">
<g id="graph0" class="graph" transform="scale(1 1) rotate(0) translate(4 175)">
<title>cv::gapi::s11n::detail::S11N&lt; T &gt;</title>
<!-- Node1 -->
<g id="Node000001" class="node">
<title>Node1</title>
<g id="a_Node000001"><a xlink:title="This structure allows to implement serialization routines for custom types.">
<polygon fill="#999999" stroke="transparent" points="111,-75 0,-75 0,0 111,0 111,-75"/>
<text text-anchor="start" x="5.5" y="-62.5" font-family="Helvetica,sans-Serif" font-size="10.00">cv::gapi::s11n::detail</text>
<text text-anchor="start" x="25.5" y="-51.5" font-family="Helvetica,sans-Serif" font-size="10.00">::S11N&lt; T &gt;</text>
<text text-anchor="start" x="54" y="-36.5" font-family="Helvetica,sans-Serif" font-size="10.00"> </text>
<text text-anchor="start" x="11.5" y="-21.5" font-family="Helvetica,sans-Serif" font-size="10.00">+</text>
<text text-anchor="start" x="31.5" y="-21.5" font-family="Helvetica,sans-Serif" font-size="10.00">deserialize()</text>
<text text-anchor="start" x="11.5" y="-6.5" font-family="Helvetica,sans-Serif" font-size="10.00">+</text>
<text text-anchor="start" x="31.5" y="-6.5" font-family="Helvetica,sans-Serif" font-size="10.00">serialize()</text>
<polygon fill="#666666" stroke="#666666" points="0.5,-46.5 0.5,-46.5 111.5,-46.5 111.5,-46.5 0.5,-46.5"/>
<polygon fill="#666666" stroke="#666666" points="0.5,-31.5 0.5,-31.5 111.5,-31.5 111.5,-31.5 0.5,-31.5"/>
<polygon fill="none" stroke="#666666" points="0,0 0,-75 111,-75 111,0 0,0"/>
</a>
</g>
</g>
<!-- Node2 -->
<g id="Node000002" class="node">
<title>Node2</title>
<g id="a_Node000002"><a xlink:href="../../df/de8/structcv_1_1gapi_1_1s11n_1_1detail_1_1NotImplemented.html" target="_top" xlink:title=" ">
<polygon fill="white" stroke="transparent" points="111,-171 0,-171 0,-111 111,-111 111,-171"/>
<text text-anchor="start" x="5.5" y="-159" font-family="Helvetica,sans-Serif" font-size="10.00">cv::gapi::s11n::detail</text>
<text text-anchor="start" x="11.5" y="-148" font-family="Helvetica,sans-Serif" font-size="10.00">::NotImplemented</text>
<text text-anchor="start" x="54" y="-133" font-family="Helvetica,sans-Serif" font-size="10.00"> </text>
<text text-anchor="start" x="54" y="-118" font-family="Helvetica,sans-Serif" font-size="10.00"> </text>
<polygon fill="#666666" stroke="#666666" points="0.5,-143 0.5,-143 111.5,-143 111.5,-143 0.5,-143"/>
<polygon fill="#666666" stroke="#666666" points="0.5,-128 0.5,-128 111.5,-128 111.5,-128 0.5,-128"/>
<polygon fill="none" stroke="#666666" points="0,-111 0,-171 111,-171 111,-111 0,-111"/>
</a>
</g>
</g>
<!-- Node2&#45;&gt;Node1 -->
<g id="edge1_Node000001_Node000002" class="edge">
<title>Node2&#45;&gt;Node1</title>
<g id="a_edge1_Node000001_Node000002"><a xlink:title=" ">
<path fill="none" stroke="#63b8ff" d="M55.5,-100.9C55.5,-92.45 55.5,-83.55 55.5,-75.19"/>
<polygon fill="none" stroke="#63b8ff" points="52,-100.91 55.5,-110.91 59,-100.91 52,-100.91"/>
</a>
</g>
</g>
</g>
</svg>
