<?xml version="1.0" encoding="UTF-8" standalone="no"?>
<!DOCTYPE svg PUBLIC "-//W3C//DTD SVG 1.1//EN"
 "http://www.w3.org/Graphics/SVG/1.1/DTD/svg11.dtd">
<!-- Generated by graphviz version 2.43.0 (0)
 -->
<!-- Title: NCVMemStackAllocator Pages: 1 -->
<svg width="162pt" height="382pt"
 viewBox="0.00 0.00 162.00 382.00" xmlns="http://www.w3.org/2000/svg" xmlns:xlink="http://www.w3.org/1999/xlink">
<g id="graph0" class="graph" transform="scale(1 1) rotate(0) translate(4 378)">
<title>NCVMemStackAllocator</title>
<!-- Node1 -->
<g id="Node000001" class="node">
<title>Node1</title>
<g id="a_Node000001"><a xlink:title=" ">
<polygon fill="#999999" stroke="transparent" points="154,-184 0,-184 0,0 154,0 154,-184"/>
<text text-anchor="start" x="18.5" y="-172" font-family="Helvetica,sans-Serif" font-size="10.00">NCVMemStackAllocator</text>
<text text-anchor="start" x="75" y="-157" font-family="Helvetica,sans-Serif" font-size="10.00"> </text>
<text text-anchor="start" x="4" y="-142" font-family="Helvetica,sans-Serif" font-size="10.00">+</text>
<text text-anchor="start" x="17" y="-142" font-family="Helvetica,sans-Serif" font-size="10.00">NCVMemStackAllocator()</text>
<text text-anchor="start" x="4" y="-127" font-family="Helvetica,sans-Serif" font-size="10.00">+</text>
<text text-anchor="start" x="17" y="-127" font-family="Helvetica,sans-Serif" font-size="10.00">NCVMemStackAllocator()</text>
<text text-anchor="start" x="4" y="-112" font-family="Helvetica,sans-Serif" font-size="10.00">+</text>
<text text-anchor="start" x="17" y="-112" font-family="Helvetica,sans-Serif" font-size="10.00">~NCVMemStackAllocator()</text>
<text text-anchor="start" x="4" y="-97" font-family="Helvetica,sans-Serif" font-size="10.00">+</text>
<text text-anchor="start" x="17" y="-97" font-family="Helvetica,sans-Serif" font-size="10.00">alignment()</text>
<text text-anchor="start" x="4" y="-82" font-family="Helvetica,sans-Serif" font-size="10.00">+</text>
<text text-anchor="start" x="17" y="-82" font-family="Helvetica,sans-Serif" font-size="10.00">alloc()</text>
<text text-anchor="start" x="4" y="-67" font-family="Helvetica,sans-Serif" font-size="10.00">+</text>
<text text-anchor="start" x="17" y="-67" font-family="Helvetica,sans-Serif" font-size="10.00">dealloc()</text>
<text text-anchor="start" x="4" y="-52" font-family="Helvetica,sans-Serif" font-size="10.00">+</text>
<text text-anchor="start" x="17" y="-52" font-family="Helvetica,sans-Serif" font-size="10.00">isCounting()</text>
<text text-anchor="start" x="4" y="-37" font-family="Helvetica,sans-Serif" font-size="10.00">+</text>
<text text-anchor="start" x="17" y="-37" font-family="Helvetica,sans-Serif" font-size="10.00">isInitialized()</text>
<text text-anchor="start" x="4" y="-22" font-family="Helvetica,sans-Serif" font-size="10.00">+</text>
<text text-anchor="start" x="17" y="-22" font-family="Helvetica,sans-Serif" font-size="10.00">maxSize()</text>
<text text-anchor="start" x="4" y="-7" font-family="Helvetica,sans-Serif" font-size="10.00">+</text>
<text text-anchor="start" x="17" y="-7" font-family="Helvetica,sans-Serif" font-size="10.00">memType()</text>
<polygon fill="#666666" stroke="#666666" points="0,-167 0,-167 154,-167 154,-167 0,-167"/>
<polygon fill="#666666" stroke="#666666" points="0,-152 0,-152 154,-152 154,-152 0,-152"/>
<polygon fill="none" stroke="#666666" points="0,0 0,-184 154,-184 154,0 0,0"/>
</a>
</g>
</g>
<!-- Node2 -->
<g id="Node000002" class="node">
<title>Node2</title>
<g id="a_Node000002"><a xlink:href="../../da/df8/classINCVMemAllocator.html" target="_top" xlink:title=" ">
<polygon fill="white" stroke="transparent" points="142,-374 12,-374 12,-220 142,-220 142,-374"/>
<text text-anchor="start" x="30.5" y="-362" font-family="Helvetica,sans-Serif" font-size="10.00">INCVMemAllocator</text>
<text text-anchor="start" x="75" y="-347" font-family="Helvetica,sans-Serif" font-size="10.00"> </text>
<text text-anchor="start" x="16" y="-332" font-family="Helvetica,sans-Serif" font-size="10.00">+</text>
<text text-anchor="start" x="29" y="-332" font-family="Helvetica,sans-Serif" font-size="10.00">~INCVMemAllocator()</text>
<text text-anchor="start" x="16" y="-317" font-family="Helvetica,sans-Serif" font-size="10.00">+</text>
<text text-anchor="start" x="29" y="-317" font-family="Helvetica,sans-Serif" font-size="10.00">alignment()</text>
<text text-anchor="start" x="16" y="-302" font-family="Helvetica,sans-Serif" font-size="10.00">+</text>
<text text-anchor="start" x="29" y="-302" font-family="Helvetica,sans-Serif" font-size="10.00">alloc()</text>
<text text-anchor="start" x="16" y="-287" font-family="Helvetica,sans-Serif" font-size="10.00">+</text>
<text text-anchor="start" x="29" y="-287" font-family="Helvetica,sans-Serif" font-size="10.00">dealloc()</text>
<text text-anchor="start" x="16" y="-272" font-family="Helvetica,sans-Serif" font-size="10.00">+</text>
<text text-anchor="start" x="29" y="-272" font-family="Helvetica,sans-Serif" font-size="10.00">isCounting()</text>
<text text-anchor="start" x="16" y="-257" font-family="Helvetica,sans-Serif" font-size="10.00">+</text>
<text text-anchor="start" x="29" y="-257" font-family="Helvetica,sans-Serif" font-size="10.00">isInitialized()</text>
<text text-anchor="start" x="16" y="-242" font-family="Helvetica,sans-Serif" font-size="10.00">+</text>
<text text-anchor="start" x="29" y="-242" font-family="Helvetica,sans-Serif" font-size="10.00">maxSize()</text>
<text text-anchor="start" x="16" y="-227" font-family="Helvetica,sans-Serif" font-size="10.00">+</text>
<text text-anchor="start" x="29" y="-227" font-family="Helvetica,sans-Serif" font-size="10.00">memType()</text>
<polygon fill="#666666" stroke="#666666" points="12,-357 12,-357 142,-357 142,-357 12,-357"/>
<polygon fill="#666666" stroke="#666666" points="12,-342 12,-342 142,-342 142,-342 12,-342"/>
<polygon fill="none" stroke="#666666" points="12,-220 12,-374 142,-374 142,-220 12,-220"/>
</a>
</g>
</g>
<!-- Node2&#45;&gt;Node1 -->
<g id="edge1_Node000001_Node000002" class="edge">
<title>Node2&#45;&gt;Node1</title>
<g id="a_edge1_Node000001_Node000002"><a xlink:title=" ">
<path fill="none" stroke="#63b8ff" d="M77,-209.68C77,-201.29 77,-192.75 77,-184.32"/>
<polygon fill="none" stroke="#63b8ff" points="73.5,-209.83 77,-219.83 80.5,-209.83 73.5,-209.83"/>
</a>
</g>
</g>
</g>
</svg>
