<?xml version="1.0" encoding="UTF-8" standalone="no"?>
<!DOCTYPE svg PUBLIC "-//W3C//DTD SVG 1.1//EN"
 "http://www.w3.org/Graphics/SVG/1.1/DTD/svg11.dtd">
<!-- Generated by graphviz version 2.43.0 (0)
 -->
<!-- Title: cv::detail::ExtractArgsCallback Pages: 1 -->
<svg width="167pt" height="175pt"
 viewBox="0.00 0.00 167.00 175.00" xmlns="http://www.w3.org/2000/svg" xmlns:xlink="http://www.w3.org/1999/xlink">
<g id="graph0" class="graph" transform="scale(1 1) rotate(0) translate(4 171)">
<title>cv::detail::ExtractArgsCallback</title>
<!-- Node1 -->
<g id="Node000001" class="node">
<title>Node1</title>
<g id="a_Node000001"><a xlink:title=" ">
<polygon fill="#999999" stroke="transparent" points="159,-49 0,-49 0,0 159,0 159,-49"/>
<text text-anchor="start" x="5.5" y="-36.5" font-family="Helvetica,sans-Serif" font-size="10.00">cv::detail::ExtractArgsCallback</text>
<text text-anchor="start" x="78" y="-21.5" font-family="Helvetica,sans-Serif" font-size="10.00"> </text>
<text text-anchor="start" x="24.5" y="-6.5" font-family="Helvetica,sans-Serif" font-size="10.00">+</text>
<text text-anchor="start" x="57.5" y="-6.5" font-family="Helvetica,sans-Serif" font-size="10.00">operator()()</text>
<polygon fill="#666666" stroke="#666666" points="0.5,-31.5 0.5,-31.5 159.5,-31.5 159.5,-31.5 0.5,-31.5"/>
<polygon fill="#666666" stroke="#666666" points="0.5,-16.5 0.5,-16.5 159.5,-16.5 159.5,-16.5 0.5,-16.5"/>
<polygon fill="none" stroke="#666666" points="0,0 0,-49 159,-49 159,0 0,0"/>
</a>
</g>
</g>
<!-- Node2 -->
<g id="Node000002" class="node">
<title>Node2</title>
<g id="a_Node000002"><a xlink:title=" ">
<polygon fill="white" stroke="transparent" points="142.5,-167 16.5,-167 16.5,-96 142.5,-96 142.5,-167"/>
<text text-anchor="start" x="21.5" y="-154.5" font-family="Helvetica,sans-Serif" font-size="10.00">function&lt; cv::GRunArgs</text>
<text text-anchor="start" x="21.5" y="-143.5" font-family="Helvetica,sans-Serif" font-size="10.00">(const cv::GTypesInfo</text>
<text text-anchor="start" x="58.5" y="-132.5" font-family="Helvetica,sans-Serif" font-size="10.00"> &amp;info)&gt;</text>
<text text-anchor="start" x="77.5" y="-117.5" font-family="Helvetica,sans-Serif" font-size="10.00"> </text>
<text text-anchor="start" x="77.5" y="-102.5" font-family="Helvetica,sans-Serif" font-size="10.00"> </text>
<polygon fill="#666666" stroke="#666666" points="16.5,-127.5 16.5,-127.5 142.5,-127.5 142.5,-127.5 16.5,-127.5"/>
<polygon fill="#666666" stroke="#666666" points="16.5,-112.5 16.5,-112.5 142.5,-112.5 142.5,-112.5 16.5,-112.5"/>
<polygon fill="none" stroke="#666666" points="16.5,-96 16.5,-167 142.5,-167 142.5,-96 16.5,-96"/>
</a>
</g>
</g>
<!-- Node2&#45;&gt;Node1 -->
<g id="edge1_Node000001_Node000002" class="edge">
<title>Node2&#45;&gt;Node1</title>
<g id="a_edge1_Node000001_Node000002"><a xlink:title=" ">
<path fill="none" stroke="#63b8ff" d="M79.5,-95.83C79.5,-84.72 79.5,-72.4 79.5,-61.21"/>
<polygon fill="none" stroke="#63b8ff" points="79.5,-61.19 75.5,-55.2 79.5,-49.19 83.5,-55.19 79.5,-61.19"/>
</a>
</g>
<text text-anchor="middle" x="88" y="-70" font-family="Helvetica,sans-Serif" font-size="10.00" fill="grey"> +c</text>
</g>
</g>
</svg>
