<?xml version="1.0" encoding="UTF-8" standalone="no"?>
<!DOCTYPE svg PUBLIC "-//W3C//DTD SVG 1.1//EN"
 "http://www.w3.org/Graphics/SVG/1.1/DTD/svg11.dtd">
<!-- Generated by graphviz version 2.43.0 (0)
 -->
<!-- Title: cv::detail::tracking::TrackerFeatureFeature2d Pages: 1 -->
<svg width="214pt" height="489pt"
 viewBox="0.00 0.00 213.50 489.00" xmlns="http://www.w3.org/2000/svg" xmlns:xlink="http://www.w3.org/1999/xlink">
<g id="graph0" class="graph" transform="scale(1 1) rotate(0) translate(4 485)">
<title>cv::detail::tracking::TrackerFeatureFeature2d</title>
<!-- Node1 -->
<g id="Node000001" class="node">
<title>Node1</title>
<g id="a_Node000001"><a xlink:title="TrackerContribFeature based on Feature2D.">
<polygon fill="#999999" stroke="transparent" points="166,-105 9,-105 9,0 166,0 166,-105"/>
<text text-anchor="start" x="24.5" y="-92.5" font-family="Helvetica,sans-Serif" font-size="10.00">cv::detail::tracking</text>
<text text-anchor="start" x="24.5" y="-81.5" font-family="Helvetica,sans-Serif" font-size="10.00">::TrackerFeatureFeature2d</text>
<text text-anchor="start" x="86" y="-66.5" font-family="Helvetica,sans-Serif" font-size="10.00"> </text>
<text text-anchor="start" x="13.5" y="-51.5" font-family="Helvetica,sans-Serif" font-size="10.00">+</text>
<text text-anchor="start" x="26.5" y="-51.5" font-family="Helvetica,sans-Serif" font-size="10.00">TrackerFeatureFeature2d()</text>
<text text-anchor="start" x="13.5" y="-36.5" font-family="Helvetica,sans-Serif" font-size="10.00">+</text>
<text text-anchor="start" x="26.5" y="-36.5" font-family="Helvetica,sans-Serif" font-size="10.00">~TrackerFeatureFeature2d()</text>
<text text-anchor="start" x="13.5" y="-21.5" font-family="Helvetica,sans-Serif" font-size="10.00">+</text>
<text text-anchor="start" x="26.5" y="-21.5" font-family="Helvetica,sans-Serif" font-size="10.00">selection()</text>
<text text-anchor="start" x="13.5" y="-6.5" font-family="Helvetica,sans-Serif" font-size="10.00">#</text>
<text text-anchor="start" x="26.5" y="-6.5" font-family="Helvetica,sans-Serif" font-size="10.00">computeImpl()</text>
<polygon fill="#666666" stroke="#666666" points="9.5,-76.5 9.5,-76.5 166.5,-76.5 166.5,-76.5 9.5,-76.5"/>
<polygon fill="#666666" stroke="#666666" points="9.5,-61.5 9.5,-61.5 166.5,-61.5 166.5,-61.5 9.5,-61.5"/>
<polygon fill="none" stroke="#666666" points="9,0 9,-105 166,-105 166,0 9,0"/>
</a>
</g>
</g>
<!-- Node2 -->
<g id="Node000002" class="node">
<title>Node2</title>
<g id="a_Node000002"><a xlink:href="../../d5/d1b/classcv_1_1detail_1_1tracking_1_1TrackerContribFeature.html" target="_top" xlink:title="Abstract base class for TrackerContribFeature that represents the feature.">
<polygon fill="white" stroke="transparent" points="159.5,-247 15.5,-247 15.5,-142 159.5,-142 159.5,-247"/>
<text text-anchor="start" x="31" y="-234.5" font-family="Helvetica,sans-Serif" font-size="10.00">cv::detail::tracking</text>
<text text-anchor="start" x="31" y="-223.5" font-family="Helvetica,sans-Serif" font-size="10.00">::TrackerContribFeature</text>
<text text-anchor="start" x="85.5" y="-208.5" font-family="Helvetica,sans-Serif" font-size="10.00"> </text>
<text text-anchor="start" x="19.5" y="-193.5" font-family="Helvetica,sans-Serif" font-size="10.00">+</text>
<text text-anchor="start" x="32.5" y="-193.5" font-family="Helvetica,sans-Serif" font-size="10.00">~TrackerContribFeature()</text>
<text text-anchor="start" x="19.5" y="-178.5" font-family="Helvetica,sans-Serif" font-size="10.00">+</text>
<text text-anchor="start" x="32.5" y="-178.5" font-family="Helvetica,sans-Serif" font-size="10.00">getClassName()</text>
<text text-anchor="start" x="19.5" y="-163.5" font-family="Helvetica,sans-Serif" font-size="10.00">+</text>
<text text-anchor="start" x="32.5" y="-163.5" font-family="Helvetica,sans-Serif" font-size="10.00">selection()</text>
<text text-anchor="start" x="19.5" y="-148.5" font-family="Helvetica,sans-Serif" font-size="10.00">+</text>
<text text-anchor="start" x="32.5" y="-148.5" font-family="Helvetica,sans-Serif" font-size="10.00">create()</text>
<polygon fill="#666666" stroke="#666666" points="15.5,-218.5 15.5,-218.5 159.5,-218.5 159.5,-218.5 15.5,-218.5"/>
<polygon fill="#666666" stroke="#666666" points="15.5,-203.5 15.5,-203.5 159.5,-203.5 159.5,-203.5 15.5,-203.5"/>
<polygon fill="none" stroke="#666666" points="15.5,-142 15.5,-247 159.5,-247 159.5,-142 15.5,-142"/>
</a>
</g>
</g>
<!-- Node2&#45;&gt;Node1 -->
<g id="edge1_Node000001_Node000002" class="edge">
<title>Node2&#45;&gt;Node1</title>
<g id="a_edge1_Node000001_Node000002"><a xlink:title=" ">
<path fill="none" stroke="#63b8ff" d="M87.5,-131.5C87.5,-122.65 87.5,-113.64 87.5,-105.02"/>
<polygon fill="none" stroke="#63b8ff" points="84,-131.77 87.5,-141.77 91,-131.77 84,-131.77"/>
</a>
</g>
</g>
<!-- Node3 -->
<g id="Node000003" class="node">
<title>Node3</title>
<g id="a_Node000003"><a xlink:href="../../d9/d84/classcv_1_1detail_1_1tracking_1_1TrackerFeature.html" target="_top" xlink:title="Abstract base class for TrackerFeature that represents the feature.">
<polygon fill="white" stroke="transparent" points="109,-384 0,-384 0,-294 109,-294 109,-384"/>
<text text-anchor="start" x="9.5" y="-372" font-family="Helvetica,sans-Serif" font-size="10.00">cv::detail::tracking</text>
<text text-anchor="start" x="16" y="-361" font-family="Helvetica,sans-Serif" font-size="10.00">::TrackerFeature</text>
<text text-anchor="start" x="53" y="-346" font-family="Helvetica,sans-Serif" font-size="10.00"> </text>
<text text-anchor="start" x="4.5" y="-331" font-family="Helvetica,sans-Serif" font-size="10.00">+</text>
<text text-anchor="start" x="17.5" y="-331" font-family="Helvetica,sans-Serif" font-size="10.00">~TrackerFeature()</text>
<text text-anchor="start" x="4.5" y="-316" font-family="Helvetica,sans-Serif" font-size="10.00">+</text>
<text text-anchor="start" x="17.5" y="-316" font-family="Helvetica,sans-Serif" font-size="10.00">compute()</text>
<text text-anchor="start" x="4.5" y="-301" font-family="Helvetica,sans-Serif" font-size="10.00">#</text>
<text text-anchor="start" x="17.5" y="-301" font-family="Helvetica,sans-Serif" font-size="10.00">computeImpl()</text>
<polygon fill="#666666" stroke="#666666" points="0.5,-356 0.5,-356 109.5,-356 109.5,-356 0.5,-356"/>
<polygon fill="#666666" stroke="#666666" points="0.5,-341 0.5,-341 109.5,-341 109.5,-341 0.5,-341"/>
<polygon fill="none" stroke="#666666" points="0,-294 0,-384 109,-384 109,-294 0,-294"/>
</a>
</g>
</g>
<!-- Node3&#45;&gt;Node2 -->
<g id="edge2_Node000002_Node000003" class="edge">
<title>Node3&#45;&gt;Node2</title>
<g id="a_edge2_Node000002_Node000003"><a xlink:title=" ">
<path fill="none" stroke="#63b8ff" d="M67.06,-283.76C69.85,-271.7 72.8,-258.96 75.57,-247.01"/>
<polygon fill="none" stroke="#63b8ff" points="63.61,-283.16 64.76,-293.69 70.43,-284.74 63.61,-283.16"/>
</a>
</g>
</g>
<!-- Node4 -->
<g id="Node000004" class="node">
<title>Node4</title>
<g id="a_Node000004"><a xlink:title=" ">
<polygon fill="white" stroke="transparent" points="186,-363.5 127,-363.5 127,-314.5 186,-314.5 186,-363.5"/>
<text text-anchor="start" x="132.5" y="-351" font-family="Helvetica,sans-Serif" font-size="10.00">std::string</text>
<text text-anchor="start" x="155" y="-336" font-family="Helvetica,sans-Serif" font-size="10.00"> </text>
<text text-anchor="start" x="155" y="-321" font-family="Helvetica,sans-Serif" font-size="10.00"> </text>
<polygon fill="#666666" stroke="#666666" points="127.5,-346 127.5,-346 186.5,-346 186.5,-346 127.5,-346"/>
<polygon fill="#666666" stroke="#666666" points="127.5,-331 127.5,-331 186.5,-331 186.5,-331 127.5,-331"/>
<polygon fill="none" stroke="#666666" points="127,-314.5 127,-363.5 186,-363.5 186,-314.5 127,-314.5"/>
</a>
</g>
</g>
<!-- Node4&#45;&gt;Node2 -->
<g id="edge3_Node000002_Node000004" class="edge">
<title>Node4&#45;&gt;Node2</title>
<g id="a_edge3_Node000002_Node000004"><a xlink:title=" ">
<path fill="none" stroke="#63b8ff" d="M145.11,-314.47C137.65,-299.06 127.52,-278.14 117.83,-258.14"/>
<polygon fill="none" stroke="#63b8ff" points="117.75,-257.97 111.53,-254.31 112.52,-247.17 118.73,-250.83 117.75,-257.97"/>
</a>
</g>
<text text-anchor="middle" x="158.5" y="-268" font-family="Helvetica,sans-Serif" font-size="10.00" fill="grey"> #className</text>
</g>
<!-- Node5 -->
<g id="Node000005" class="node">
<title>Node5</title>
<g id="a_Node000005"><a xlink:title=" ">
<polygon fill="white" stroke="transparent" points="205.5,-481 107.5,-481 107.5,-421 205.5,-421 205.5,-481"/>
<text text-anchor="start" x="112.5" y="-469" font-family="Helvetica,sans-Serif" font-size="10.00">std::basic_string&lt;</text>
<text text-anchor="start" x="138" y="-458" font-family="Helvetica,sans-Serif" font-size="10.00"> Char &gt;</text>
<text text-anchor="start" x="154.5" y="-443" font-family="Helvetica,sans-Serif" font-size="10.00"> </text>
<text text-anchor="start" x="154.5" y="-428" font-family="Helvetica,sans-Serif" font-size="10.00"> </text>
<polygon fill="#666666" stroke="#666666" points="107.5,-453 107.5,-453 205.5,-453 205.5,-453 107.5,-453"/>
<polygon fill="#666666" stroke="#666666" points="107.5,-438 107.5,-438 205.5,-438 205.5,-438 107.5,-438"/>
<polygon fill="none" stroke="#666666" points="107.5,-421 107.5,-481 205.5,-481 205.5,-421 107.5,-421"/>
</a>
</g>
</g>
<!-- Node5&#45;&gt;Node4 -->
<g id="edge4_Node000004_Node000005" class="edge">
<title>Node5&#45;&gt;Node4</title>
<g id="a_edge4_Node000004_Node000005"><a xlink:title=" ">
<path fill="none" stroke="#63b8ff" d="M156.5,-410.36C156.5,-394.76 156.5,-377.36 156.5,-363.76"/>
<polygon fill="none" stroke="#63b8ff" points="153,-410.81 156.5,-420.81 160,-410.81 153,-410.81"/>
</a>
</g>
</g>
</g>
</svg>
