<?xml version="1.0" encoding="UTF-8" standalone="no"?>
<!DOCTYPE svg PUBLIC "-//W3C//DTD SVG 1.1//EN"
 "http://www.w3.org/Graphics/SVG/1.1/DTD/svg11.dtd">
<!-- Generated by graphviz version 2.43.0 (0)
 -->
<!-- Title: cv::ParamType&lt; uint64 &gt; Pages: 1 -->
<svg width="142pt" height="153pt"
 viewBox="0.00 0.00 142.00 153.00" xmlns="http://www.w3.org/2000/svg" xmlns:xlink="http://www.w3.org/1999/xlink">
<g id="graph0" class="graph" transform="scale(1 1) rotate(0) translate(4 149)">
<title>cv::ParamType&lt; uint64 &gt;</title>
<!-- Node1 -->
<g id="Node000001" class="node">
<title>Node1</title>
<g id="a_Node000001"><a xlink:title=" ">
<polygon fill="#999999" stroke="transparent" points="134,-49 0,-49 0,0 134,0 134,-49"/>
<text text-anchor="start" x="5" y="-36.5" font-family="Helvetica,sans-Serif" font-size="10.00">cv::ParamType&lt; uint64 &gt;</text>
<text text-anchor="start" x="65" y="-21.5" font-family="Helvetica,sans-Serif" font-size="10.00"> </text>
<text text-anchor="start" x="65" y="-6.5" font-family="Helvetica,sans-Serif" font-size="10.00"> </text>
<polygon fill="#666666" stroke="#666666" points="0,-31.5 0,-31.5 134,-31.5 134,-31.5 0,-31.5"/>
<polygon fill="#666666" stroke="#666666" points="0,-16.5 0,-16.5 134,-16.5 134,-16.5 0,-16.5"/>
<polygon fill="none" stroke="#666666" points="0,0 0,-49 134,-49 134,0 0,0"/>
</a>
</g>
</g>
<!-- Node2 -->
<g id="Node000002" class="node">
<title>Node2</title>
<g id="a_Node000002"><a xlink:title=" ">
<polygon fill="white" stroke="transparent" points="117.5,-145 16.5,-145 16.5,-96 117.5,-96 117.5,-145"/>
<text text-anchor="start" x="22" y="-132.5" font-family="Helvetica,sans-Serif" font-size="10.00">static const Param</text>
<text text-anchor="start" x="65.5" y="-117.5" font-family="Helvetica,sans-Serif" font-size="10.00"> </text>
<text text-anchor="start" x="65.5" y="-102.5" font-family="Helvetica,sans-Serif" font-size="10.00"> </text>
<polygon fill="#666666" stroke="#666666" points="17,-127.5 17,-127.5 118,-127.5 118,-127.5 17,-127.5"/>
<polygon fill="#666666" stroke="#666666" points="17,-112.5 17,-112.5 118,-112.5 118,-112.5 17,-112.5"/>
<polygon fill="none" stroke="#666666" points="16.5,-96 16.5,-145 117.5,-145 117.5,-96 16.5,-96"/>
</a>
</g>
</g>
<!-- Node2&#45;&gt;Node1 -->
<g id="edge1_Node000001_Node000002" class="edge">
<title>Node2&#45;&gt;Node1</title>
<g id="a_edge1_Node000001_Node000002"><a xlink:title=" ">
<path fill="none" stroke="#63b8ff" d="M67,-95.78C67,-85.32 67,-72.79 67,-61.23"/>
<polygon fill="none" stroke="#63b8ff" points="67,-61.21 63,-55.21 67,-49.21 71,-55.21 67,-61.21"/>
</a>
</g>
<text text-anchor="middle" x="84" y="-70" font-family="Helvetica,sans-Serif" font-size="10.00" fill="grey"> +type</text>
</g>
</g>
</svg>
