<?xml version="1.0" encoding="UTF-8" standalone="no"?>
<!DOCTYPE svg PUBLIC "-//W3C//DTD SVG 1.1//EN"
 "http://www.w3.org/Graphics/SVG/1.1/DTD/svg11.dtd">
<!-- Generated by graphviz version 2.43.0 (0)
 -->
<!-- Title: cv::detail::tracking::online_boosting::BaseClassifier Pages: 1 -->
<svg width="651pt" height="666pt"
 viewBox="0.00 0.00 651.00 666.00" xmlns="http://www.w3.org/2000/svg" xmlns:xlink="http://www.w3.org/1999/xlink">
<g id="graph0" class="graph" transform="scale(1 1) rotate(0) translate(4 662)">
<title>cv::detail::tracking::online_boosting::BaseClassifier</title>
<!-- Node1 -->
<g id="Node000001" class="node">
<title>Node1</title>
<g id="a_Node000001"><a xlink:title=" ">
<polygon fill="#999999" stroke="transparent" points="388.5,-270 191.5,-270 191.5,0 388.5,0 388.5,-270"/>
<text text-anchor="start" x="211" y="-258" font-family="Helvetica,sans-Serif" font-size="10.00">cv::detail::tracking</text>
<text text-anchor="start" x="211" y="-247" font-family="Helvetica,sans-Serif" font-size="10.00">::online_boosting::BaseClassifier</text>
<text text-anchor="start" x="288.5" y="-232" font-family="Helvetica,sans-Serif" font-size="10.00"> </text>
<text text-anchor="start" x="196" y="-217" font-family="Helvetica,sans-Serif" font-size="10.00">+</text>
<text text-anchor="start" x="209" y="-217" font-family="Helvetica,sans-Serif" font-size="10.00">BaseClassifier()</text>
<text text-anchor="start" x="196" y="-202" font-family="Helvetica,sans-Serif" font-size="10.00">+</text>
<text text-anchor="start" x="209" y="-202" font-family="Helvetica,sans-Serif" font-size="10.00">BaseClassifier()</text>
<text text-anchor="start" x="196" y="-187" font-family="Helvetica,sans-Serif" font-size="10.00">+</text>
<text text-anchor="start" x="209" y="-187" font-family="Helvetica,sans-Serif" font-size="10.00">~BaseClassifier()</text>
<text text-anchor="start" x="196" y="-172" font-family="Helvetica,sans-Serif" font-size="10.00">+</text>
<text text-anchor="start" x="209" y="-172" font-family="Helvetica,sans-Serif" font-size="10.00">computeReplaceWeakestClassifier()</text>
<text text-anchor="start" x="196" y="-157" font-family="Helvetica,sans-Serif" font-size="10.00">+</text>
<text text-anchor="start" x="209" y="-157" font-family="Helvetica,sans-Serif" font-size="10.00">eval()</text>
<text text-anchor="start" x="196" y="-142" font-family="Helvetica,sans-Serif" font-size="10.00">+</text>
<text text-anchor="start" x="209" y="-142" font-family="Helvetica,sans-Serif" font-size="10.00">getError()</text>
<text text-anchor="start" x="196" y="-127" font-family="Helvetica,sans-Serif" font-size="10.00">+</text>
<text text-anchor="start" x="209" y="-127" font-family="Helvetica,sans-Serif" font-size="10.00">getErrors()</text>
<text text-anchor="start" x="196" y="-112" font-family="Helvetica,sans-Serif" font-size="10.00">+</text>
<text text-anchor="start" x="209" y="-112" font-family="Helvetica,sans-Serif" font-size="10.00">getIdxOfNewWeakClassifier()</text>
<text text-anchor="start" x="196" y="-97" font-family="Helvetica,sans-Serif" font-size="10.00">+</text>
<text text-anchor="start" x="209" y="-97" font-family="Helvetica,sans-Serif" font-size="10.00">getReferenceWeakClassifier()</text>
<text text-anchor="start" x="196" y="-82" font-family="Helvetica,sans-Serif" font-size="10.00">+</text>
<text text-anchor="start" x="209" y="-82" font-family="Helvetica,sans-Serif" font-size="10.00">getSelectedClassifier()</text>
<text text-anchor="start" x="196" y="-67" font-family="Helvetica,sans-Serif" font-size="10.00">+</text>
<text text-anchor="start" x="209" y="-67" font-family="Helvetica,sans-Serif" font-size="10.00">replaceClassifierStatistic()</text>
<text text-anchor="start" x="196" y="-52" font-family="Helvetica,sans-Serif" font-size="10.00">+</text>
<text text-anchor="start" x="209" y="-52" font-family="Helvetica,sans-Serif" font-size="10.00">replaceWeakClassifier()</text>
<text text-anchor="start" x="196" y="-37" font-family="Helvetica,sans-Serif" font-size="10.00">+</text>
<text text-anchor="start" x="209" y="-37" font-family="Helvetica,sans-Serif" font-size="10.00">selectBestClassifier()</text>
<text text-anchor="start" x="196" y="-22" font-family="Helvetica,sans-Serif" font-size="10.00">+</text>
<text text-anchor="start" x="209" y="-22" font-family="Helvetica,sans-Serif" font-size="10.00">trainClassifier()</text>
<text text-anchor="start" x="196" y="-7" font-family="Helvetica,sans-Serif" font-size="10.00">#</text>
<text text-anchor="start" x="209" y="-7" font-family="Helvetica,sans-Serif" font-size="10.00">generateRandomClassifier()</text>
<polygon fill="#666666" stroke="#666666" points="192,-242 192,-242 389,-242 389,-242 192,-242"/>
<polygon fill="#666666" stroke="#666666" points="192,-227 192,-227 389,-227 389,-227 192,-227"/>
<polygon fill="none" stroke="#666666" points="191.5,0 191.5,-270 388.5,-270 388.5,0 191.5,0"/>
</a>
</g>
</g>
<!-- Node2 -->
<g id="Node000002" class="node">
<title>Node2</title>
<g id="a_Node000002"><a xlink:href="../../df/d49/classcv_1_1detail_1_1tracking_1_1online__boosting_1_1WeakClassifierHaarFeature.html" target="_top" xlink:title=" ">
<polygon fill="white" stroke="transparent" points="172,-466 0,-466 0,-350 172,-350 172,-466"/>
<text text-anchor="start" x="5" y="-454" font-family="Helvetica,sans-Serif" font-size="10.00">cv::detail::tracking</text>
<text text-anchor="start" x="5" y="-443" font-family="Helvetica,sans-Serif" font-size="10.00">::online_boosting::WeakClassifier</text>
<text text-anchor="start" x="55.5" y="-432" font-family="Helvetica,sans-Serif" font-size="10.00">HaarFeature</text>
<text text-anchor="start" x="84" y="-417" font-family="Helvetica,sans-Serif" font-size="10.00"> </text>
<text text-anchor="start" x="4.5" y="-402" font-family="Helvetica,sans-Serif" font-size="10.00">+</text>
<text text-anchor="start" x="18" y="-402" font-family="Helvetica,sans-Serif" font-size="10.00">WeakClassifierHaarFeature()</text>
<text text-anchor="start" x="4.5" y="-387" font-family="Helvetica,sans-Serif" font-size="10.00">+</text>
<text text-anchor="start" x="18" y="-387" font-family="Helvetica,sans-Serif" font-size="10.00">~WeakClassifierHaarFeature()</text>
<text text-anchor="start" x="4.5" y="-372" font-family="Helvetica,sans-Serif" font-size="10.00">+</text>
<text text-anchor="start" x="18" y="-372" font-family="Helvetica,sans-Serif" font-size="10.00">eval()</text>
<text text-anchor="start" x="4.5" y="-357" font-family="Helvetica,sans-Serif" font-size="10.00">+</text>
<text text-anchor="start" x="18" y="-357" font-family="Helvetica,sans-Serif" font-size="10.00">update()</text>
<polygon fill="#666666" stroke="#666666" points="0,-427 0,-427 172,-427 172,-427 0,-427"/>
<polygon fill="#666666" stroke="#666666" points="0,-412 0,-412 172,-412 172,-412 0,-412"/>
<polygon fill="none" stroke="#666666" points="0,-350 0,-466 172,-466 172,-350 0,-350"/>
</a>
</g>
</g>
<!-- Node2&#45;&gt;Node1 -->
<g id="edge1_Node000001_Node000002" class="edge">
<title>Node2&#45;&gt;Node1</title>
<g id="a_edge1_Node000001_Node000002"><a xlink:title=" ">
<path fill="none" stroke="#63b8ff" d="M92.6,-349.73C96.82,-329.17 103.71,-306.52 115,-288 132.35,-259.54 156.79,-233.58 181.92,-211.49"/>
<polygon fill="none" stroke="#63b8ff" points="182.09,-211.34 184.04,-204.4 191.19,-203.53 189.25,-210.47 182.09,-211.34"/>
</a>
</g>
<text text-anchor="middle" x="156.5" y="-307.5" font-family="Helvetica,sans-Serif" font-size="10.00" fill="grey"> #weakClassifier</text>
</g>
<!-- Node3 -->
<g id="Node000003" class="node">
<title>Node3</title>
<g id="a_Node000003"><a xlink:title=" ">
<polygon fill="white" stroke="transparent" points="222,-432.5 190,-432.5 190,-383.5 222,-383.5 222,-432.5"/>
<text text-anchor="start" x="195" y="-420" font-family="Helvetica,sans-Serif" font-size="10.00">bool</text>
<text text-anchor="start" x="204" y="-405" font-family="Helvetica,sans-Serif" font-size="10.00"> </text>
<text text-anchor="start" x="204" y="-390" font-family="Helvetica,sans-Serif" font-size="10.00"> </text>
<polygon fill="#666666" stroke="#666666" points="190,-415 190,-415 222,-415 222,-415 190,-415"/>
<polygon fill="#666666" stroke="#666666" points="190,-400 190,-400 222,-400 222,-400 190,-400"/>
<polygon fill="none" stroke="#666666" points="190,-383.5 190,-432.5 222,-432.5 222,-383.5 190,-383.5"/>
</a>
</g>
</g>
<!-- Node3&#45;&gt;Node1 -->
<g id="edge2_Node000001_Node000003" class="edge">
<title>Node3&#45;&gt;Node1</title>
<g id="a_edge2_Node000001_Node000003"><a xlink:title=" ">
<path fill="none" stroke="#63b8ff" d="M202.86,-383.3C200.4,-358.96 198.64,-320.2 207,-288 207.56,-285.86 208.15,-283.71 208.78,-281.56"/>
<polygon fill="none" stroke="#63b8ff" points="208.79,-281.52 206.81,-274.58 212.45,-270.09 214.43,-277.02 208.79,-281.52"/>
</a>
</g>
<text text-anchor="middle" x="279.5" y="-307.5" font-family="Helvetica,sans-Serif" font-size="10.00" fill="grey"> #m_referenceWeakClassifier</text>
</g>
<!-- Node4 -->
<g id="Node000004" class="node">
<title>Node4</title>
<g id="a_Node000004"><a xlink:title=" ">
<polygon fill="white" stroke="transparent" points="385.5,-432.5 362.5,-432.5 362.5,-383.5 385.5,-383.5 385.5,-432.5"/>
<text text-anchor="start" x="368" y="-420" font-family="Helvetica,sans-Serif" font-size="10.00">int</text>
<text text-anchor="start" x="372.5" y="-405" font-family="Helvetica,sans-Serif" font-size="10.00"> </text>
<text text-anchor="start" x="372.5" y="-390" font-family="Helvetica,sans-Serif" font-size="10.00"> </text>
<polygon fill="#666666" stroke="#666666" points="363,-415 363,-415 386,-415 386,-415 363,-415"/>
<polygon fill="#666666" stroke="#666666" points="363,-400 363,-400 386,-400 386,-400 363,-400"/>
<polygon fill="none" stroke="#666666" points="362.5,-383.5 362.5,-432.5 385.5,-432.5 385.5,-383.5 362.5,-383.5"/>
</a>
</g>
</g>
<!-- Node4&#45;&gt;Node1 -->
<g id="edge3_Node000001_Node000004" class="edge">
<title>Node4&#45;&gt;Node1</title>
<g id="a_edge3_Node000001_Node000004"><a xlink:title=" ">
<path fill="none" stroke="#63b8ff" d="M371.09,-383.41C367.76,-359.16 361.51,-320.46 352,-288 351.38,-285.89 350.74,-283.76 350.09,-281.63"/>
<polygon fill="none" stroke="#63b8ff" points="350.07,-281.59 344.44,-277.09 346.42,-270.16 352.06,-274.66 350.07,-281.59"/>
</a>
</g>
<text text-anchor="middle" x="436.5" y="-324" font-family="Helvetica,sans-Serif" font-size="10.00" fill="grey"> #m_idxOfNewWeakClassifier</text>
<text text-anchor="middle" x="436.5" y="-313" font-family="Helvetica,sans-Serif" font-size="10.00" fill="grey">#m_iterationInit</text>
<text text-anchor="middle" x="436.5" y="-302" font-family="Helvetica,sans-Serif" font-size="10.00" fill="grey">#m_numWeakClassifier</text>
<text text-anchor="middle" x="436.5" y="-291" font-family="Helvetica,sans-Serif" font-size="10.00" fill="grey">#m_selectedClassifier</text>
</g>
<!-- Node5 -->
<g id="Node000005" class="node">
<title>Node5</title>
<g id="a_Node000005"><a xlink:title=" ">
<polygon fill="white" stroke="transparent" points="597.5,-432.5 490.5,-432.5 490.5,-383.5 597.5,-383.5 597.5,-432.5"/>
<text text-anchor="start" x="496" y="-420" font-family="Helvetica,sans-Serif" font-size="10.00">std::vector&lt; float &gt;</text>
<text text-anchor="start" x="542.5" y="-405" font-family="Helvetica,sans-Serif" font-size="10.00"> </text>
<text text-anchor="start" x="542.5" y="-390" font-family="Helvetica,sans-Serif" font-size="10.00"> </text>
<polygon fill="#666666" stroke="#666666" points="491,-415 491,-415 598,-415 598,-415 491,-415"/>
<polygon fill="#666666" stroke="#666666" points="491,-400 491,-400 598,-400 598,-400 491,-400"/>
<polygon fill="none" stroke="#666666" points="490.5,-383.5 490.5,-432.5 597.5,-432.5 597.5,-383.5 490.5,-383.5"/>
</a>
</g>
</g>
<!-- Node5&#45;&gt;Node1 -->
<g id="edge4_Node000001_Node000005" class="edge">
<title>Node5&#45;&gt;Node1</title>
<g id="a_edge4_Node000001_Node000005"><a xlink:title=" ">
<path fill="none" stroke="#63b8ff" d="M542.97,-383.5C540.8,-357.91 534.16,-316.8 514,-288 484.93,-246.47 440.59,-212.96 399.01,-188.07"/>
<polygon fill="none" stroke="#63b8ff" points="398.87,-187.99 391.67,-188.41 388.51,-181.93 395.71,-181.51 398.87,-187.99"/>
</a>
</g>
<text text-anchor="middle" x="569" y="-313" font-family="Helvetica,sans-Serif" font-size="10.00" fill="grey"> #m_wCorrect</text>
<text text-anchor="middle" x="569" y="-302" font-family="Helvetica,sans-Serif" font-size="10.00" fill="grey">#m_wWrong</text>
</g>
<!-- Node6 -->
<g id="Node000006" class="node">
<title>Node6</title>
<g id="a_Node000006"><a xlink:title=" ">
<polygon fill="white" stroke="transparent" points="520,-562 488,-562 488,-513 520,-513 520,-562"/>
<text text-anchor="start" x="493" y="-549.5" font-family="Helvetica,sans-Serif" font-size="10.00">float</text>
<text text-anchor="start" x="502" y="-534.5" font-family="Helvetica,sans-Serif" font-size="10.00"> </text>
<text text-anchor="start" x="502" y="-519.5" font-family="Helvetica,sans-Serif" font-size="10.00"> </text>
<polygon fill="#666666" stroke="#666666" points="488,-544.5 488,-544.5 520,-544.5 520,-544.5 488,-544.5"/>
<polygon fill="#666666" stroke="#666666" points="488,-529.5 488,-529.5 520,-529.5 520,-529.5 488,-529.5"/>
<polygon fill="none" stroke="#666666" points="488,-513 488,-562 520,-562 520,-513 488,-513"/>
</a>
</g>
</g>
<!-- Node6&#45;&gt;Node5 -->
<g id="edge5_Node000005_Node000006" class="edge">
<title>Node6&#45;&gt;Node5</title>
<g id="a_edge5_Node000005_Node000006"><a xlink:title=" ">
<path fill="none" stroke="#63b8ff" d="M502.17,-512.93C502.05,-503.77 502.64,-493.28 505,-484 508.58,-469.95 515.2,-455.58 521.98,-443.23"/>
<polygon fill="none" stroke="#63b8ff" points="522.17,-442.9 521.71,-435.71 528.18,-432.51 528.64,-439.71 522.17,-442.9"/>
</a>
</g>
<text text-anchor="middle" x="534" y="-487" font-family="Helvetica,sans-Serif" font-size="10.00" fill="grey"> +elements</text>
</g>
<!-- Node7 -->
<g id="Node000007" class="node">
<title>Node7</title>
<g id="a_Node000007"><a xlink:title=" ">
<polygon fill="white" stroke="transparent" points="630.5,-562 539.5,-562 539.5,-513 630.5,-513 630.5,-562"/>
<text text-anchor="start" x="545" y="-549.5" font-family="Helvetica,sans-Serif" font-size="10.00">std::vector&lt; T &gt;</text>
<text text-anchor="start" x="583.5" y="-534.5" font-family="Helvetica,sans-Serif" font-size="10.00"> </text>
<text text-anchor="start" x="583.5" y="-519.5" font-family="Helvetica,sans-Serif" font-size="10.00"> </text>
<polygon fill="#666666" stroke="#666666" points="540,-544.5 540,-544.5 631,-544.5 631,-544.5 540,-544.5"/>
<polygon fill="#666666" stroke="#666666" points="540,-529.5 540,-529.5 631,-529.5 631,-529.5 540,-529.5"/>
<polygon fill="none" stroke="#666666" points="539.5,-513 539.5,-562 630.5,-562 630.5,-513 539.5,-513"/>
</a>
</g>
</g>
<!-- Node7&#45;&gt;Node5 -->
<g id="edge6_Node000005_Node000007" class="edge">
<title>Node7&#45;&gt;Node5</title>
<g id="a_edge6_Node000005_Node000007"><a xlink:title=" ">
<path fill="none" stroke="orange" d="M574.27,-503.13C567.14,-480.96 557.95,-452.38 551.57,-432.56"/>
<polygon fill="orange" stroke="orange" points="570.99,-504.37 577.38,-512.82 577.65,-502.23 570.99,-504.37"/>
</a>
</g>
<text text-anchor="middle" x="595" y="-487" font-family="Helvetica,sans-Serif" font-size="10.00" fill="grey"> &lt; float &gt;</text>
</g>
<!-- Node8 -->
<g id="Node000008" class="node">
<title>Node8</title>
<g id="a_Node000008"><a xlink:title=" ">
<polygon fill="white" stroke="transparent" points="593.5,-658 576.5,-658 576.5,-609 593.5,-609 593.5,-658"/>
<text text-anchor="start" x="582" y="-645.5" font-family="Helvetica,sans-Serif" font-size="10.00">T</text>
<text text-anchor="start" x="583.5" y="-630.5" font-family="Helvetica,sans-Serif" font-size="10.00"> </text>
<text text-anchor="start" x="583.5" y="-615.5" font-family="Helvetica,sans-Serif" font-size="10.00"> </text>
<polygon fill="#666666" stroke="#666666" points="577,-640.5 577,-640.5 594,-640.5 594,-640.5 577,-640.5"/>
<polygon fill="#666666" stroke="#666666" points="577,-625.5 577,-625.5 594,-625.5 594,-625.5 577,-625.5"/>
<polygon fill="none" stroke="#666666" points="576.5,-609 576.5,-658 593.5,-658 593.5,-609 576.5,-609"/>
</a>
</g>
</g>
<!-- Node8&#45;&gt;Node7 -->
<g id="edge7_Node000007_Node000008" class="edge">
<title>Node8&#45;&gt;Node7</title>
<g id="a_edge7_Node000007_Node000008"><a xlink:title=" ">
<path fill="none" stroke="#63b8ff" d="M585,-608.78C585,-598.32 585,-585.79 585,-574.23"/>
<polygon fill="none" stroke="#63b8ff" points="585,-574.21 581,-568.21 585,-562.21 589,-568.21 585,-574.21"/>
</a>
</g>
<text text-anchor="middle" x="614" y="-583" font-family="Helvetica,sans-Serif" font-size="10.00" fill="grey"> +elements</text>
</g>
</g>
</svg>
