<?xml version="1.0" encoding="UTF-8" standalone="no"?>
<!DOCTYPE svg PUBLIC "-//W3C//DTD SVG 1.1//EN"
 "http://www.w3.org/Graphics/SVG/1.1/DTD/svg11.dtd">
<!-- Generated by graphviz version 2.43.0 (0)
 -->
<!-- Title: cv::cudev::LaplacianPtrSz&lt; ksize, SrcPtr &gt; Pages: 1 -->
<svg width="181pt" height="186pt"
 viewBox="0.00 0.00 180.50 186.00" xmlns="http://www.w3.org/2000/svg" xmlns:xlink="http://www.w3.org/1999/xlink">
<g id="graph0" class="graph" transform="scale(1 1) rotate(0) translate(4 182)">
<title>cv::cudev::LaplacianPtrSz&lt; ksize, SrcPtr &gt;</title>
<!-- Node1 -->
<g id="Node000001" class="node">
<title>Node1</title>
<g id="a_Node000001"><a xlink:title=" ">
<polygon fill="#999999" stroke="transparent" points="172.5,-60 39.5,-60 39.5,0 172.5,0 172.5,-60"/>
<text text-anchor="start" x="45" y="-48" font-family="Helvetica,sans-Serif" font-size="10.00">cv::cudev::LaplacianPtrSz</text>
<text text-anchor="start" x="65" y="-37" font-family="Helvetica,sans-Serif" font-size="10.00">&lt; ksize, SrcPtr &gt;</text>
<text text-anchor="start" x="104.5" y="-22" font-family="Helvetica,sans-Serif" font-size="10.00"> </text>
<text text-anchor="start" x="59.5" y="-7" font-family="Helvetica,sans-Serif" font-size="10.00">+</text>
<text text-anchor="start" x="88" y="-7" font-family="Helvetica,sans-Serif" font-size="10.00">assignTo()</text>
<polygon fill="#666666" stroke="#666666" points="40,-32 40,-32 173,-32 173,-32 40,-32"/>
<polygon fill="#666666" stroke="#666666" points="40,-17 40,-17 173,-17 173,-17 40,-17"/>
<polygon fill="none" stroke="#666666" points="39.5,0 39.5,-60 172.5,-60 172.5,0 39.5,0"/>
</a>
</g>
</g>
<!-- Node2 -->
<g id="Node000002" class="node">
<title>Node2</title>
<g id="a_Node000002"><a xlink:href="../../da/d40/structcv_1_1cudev_1_1LaplacianPtr.html" target="_top" xlink:title=" ">
<polygon fill="white" stroke="transparent" points="122,-178 0,-178 0,-118 122,-118 122,-178"/>
<text text-anchor="start" x="5" y="-166" font-family="Helvetica,sans-Serif" font-size="10.00">cv::cudev::LaplacianPtr</text>
<text text-anchor="start" x="19.5" y="-155" font-family="Helvetica,sans-Serif" font-size="10.00">&lt; ksize, SrcPtr &gt;</text>
<text text-anchor="start" x="59" y="-140" font-family="Helvetica,sans-Serif" font-size="10.00"> </text>
<text text-anchor="start" x="59" y="-125" font-family="Helvetica,sans-Serif" font-size="10.00"> </text>
<polygon fill="#666666" stroke="#666666" points="0,-150 0,-150 122,-150 122,-150 0,-150"/>
<polygon fill="#666666" stroke="#666666" points="0,-135 0,-135 122,-135 122,-135 0,-135"/>
<polygon fill="none" stroke="#666666" points="0,-118 0,-178 122,-178 122,-118 0,-118"/>
</a>
</g>
</g>
<!-- Node2&#45;&gt;Node1 -->
<g id="edge1_Node000001_Node000002" class="edge">
<title>Node2&#45;&gt;Node1</title>
<g id="a_edge1_Node000001_Node000002"><a xlink:title=" ">
<path fill="none" stroke="#63b8ff" d="M76.02,-108.29C82.1,-92.62 89,-74.82 94.65,-60.26"/>
<polygon fill="none" stroke="#63b8ff" points="72.71,-107.14 72.36,-117.73 79.24,-109.67 72.71,-107.14"/>
</a>
</g>
</g>
<!-- Node3 -->
<g id="Node000003" class="node">
<title>Node3</title>
<g id="a_Node000003"><a xlink:title=" ">
<polygon fill="white" stroke="transparent" points="163.5,-172.5 140.5,-172.5 140.5,-123.5 163.5,-123.5 163.5,-172.5"/>
<text text-anchor="start" x="146" y="-160" font-family="Helvetica,sans-Serif" font-size="10.00">int</text>
<text text-anchor="start" x="150.5" y="-145" font-family="Helvetica,sans-Serif" font-size="10.00"> </text>
<text text-anchor="start" x="150.5" y="-130" font-family="Helvetica,sans-Serif" font-size="10.00"> </text>
<polygon fill="#666666" stroke="#666666" points="141,-155 141,-155 164,-155 164,-155 141,-155"/>
<polygon fill="#666666" stroke="#666666" points="141,-140 141,-140 164,-140 164,-140 141,-140"/>
<polygon fill="none" stroke="#666666" points="140.5,-123.5 140.5,-172.5 163.5,-172.5 163.5,-123.5 140.5,-123.5"/>
</a>
</g>
</g>
<!-- Node3&#45;&gt;Node1 -->
<g id="edge2_Node000001_Node000003" class="edge">
<title>Node3&#45;&gt;Node1</title>
<g id="a_edge2_Node000001_Node000003"><a xlink:title=" ">
<path fill="none" stroke="#63b8ff" d="M142.58,-123.25C136.69,-108.38 128.94,-88.84 122.09,-71.57"/>
<polygon fill="none" stroke="#63b8ff" points="121.95,-71.22 116.02,-67.12 117.53,-60.07 123.46,-64.17 121.95,-71.22"/>
</a>
</g>
<text text-anchor="middle" x="149" y="-92" font-family="Helvetica,sans-Serif" font-size="10.00" fill="grey"> +cols</text>
<text text-anchor="middle" x="149" y="-81" font-family="Helvetica,sans-Serif" font-size="10.00" fill="grey">+rows</text>
</g>
</g>
</svg>
