<?xml version="1.0" encoding="UTF-8" standalone="no"?>
<!DOCTYPE svg PUBLIC "-//W3C//DTD SVG 1.1//EN"
 "http://www.w3.org/Graphics/SVG/1.1/DTD/svg11.dtd">
<!-- Generated by graphviz version 2.43.0 (0)
 -->
<!-- Title: cv::VideoCapture Pages: 1 -->
<svg width="321pt" height="318pt"
 viewBox="0.00 0.00 321.00 318.00" xmlns="http://www.w3.org/2000/svg" xmlns:xlink="http://www.w3.org/1999/xlink">
<g id="graph0" class="graph" transform="scale(1 1) rotate(0) translate(4 314)">
<title>cv::VideoCapture</title>
<!-- Node1 -->
<g id="Node000001" class="node">
<title>Node1</title>
<g id="a_Node000001"><a xlink:title="Class for video capturing from video files, image sequences or cameras.">
<polygon fill="#999999" stroke="transparent" points="234,-214 114,-214 114,0 234,0 234,-214"/>
<text text-anchor="start" x="132.5" y="-202" font-family="Helvetica,sans-Serif" font-size="10.00">cv::VideoCapture</text>
<text text-anchor="start" x="172" y="-187" font-family="Helvetica,sans-Serif" font-size="10.00"> </text>
<text text-anchor="start" x="118" y="-172" font-family="Helvetica,sans-Serif" font-size="10.00">+</text>
<text text-anchor="start" x="131" y="-172" font-family="Helvetica,sans-Serif" font-size="10.00">VideoCapture()</text>
<text text-anchor="start" x="118" y="-157" font-family="Helvetica,sans-Serif" font-size="10.00">+</text>
<text text-anchor="start" x="131" y="-157" font-family="Helvetica,sans-Serif" font-size="10.00">VideoCapture()</text>
<text text-anchor="start" x="118" y="-142" font-family="Helvetica,sans-Serif" font-size="10.00">+</text>
<text text-anchor="start" x="131" y="-142" font-family="Helvetica,sans-Serif" font-size="10.00">VideoCapture()</text>
<text text-anchor="start" x="118" y="-127" font-family="Helvetica,sans-Serif" font-size="10.00">+</text>
<text text-anchor="start" x="131" y="-127" font-family="Helvetica,sans-Serif" font-size="10.00">VideoCapture()</text>
<text text-anchor="start" x="118" y="-112" font-family="Helvetica,sans-Serif" font-size="10.00">+</text>
<text text-anchor="start" x="131" y="-112" font-family="Helvetica,sans-Serif" font-size="10.00">VideoCapture()</text>
<text text-anchor="start" x="118" y="-97" font-family="Helvetica,sans-Serif" font-size="10.00">+</text>
<text text-anchor="start" x="131" y="-97" font-family="Helvetica,sans-Serif" font-size="10.00">~VideoCapture()</text>
<text text-anchor="start" x="118" y="-82" font-family="Helvetica,sans-Serif" font-size="10.00">+</text>
<text text-anchor="start" x="131" y="-82" font-family="Helvetica,sans-Serif" font-size="10.00">get()</text>
<text text-anchor="start" x="118" y="-67" font-family="Helvetica,sans-Serif" font-size="10.00">+</text>
<text text-anchor="start" x="131" y="-67" font-family="Helvetica,sans-Serif" font-size="10.00">getBackendName()</text>
<text text-anchor="start" x="118" y="-52" font-family="Helvetica,sans-Serif" font-size="10.00">+</text>
<text text-anchor="start" x="131" y="-52" font-family="Helvetica,sans-Serif" font-size="10.00">getExceptionMode()</text>
<text text-anchor="start" x="118" y="-37" font-family="Helvetica,sans-Serif" font-size="10.00">+</text>
<text text-anchor="start" x="131" y="-37" font-family="Helvetica,sans-Serif" font-size="10.00">grab()</text>
<text text-anchor="start" x="131" y="-22" font-family="Helvetica,sans-Serif" font-size="10.00">and 12 more...</text>
<text text-anchor="start" x="118" y="-7" font-family="Helvetica,sans-Serif" font-size="10.00">+</text>
<text text-anchor="start" x="131" y="-7" font-family="Helvetica,sans-Serif" font-size="10.00">waitAny()</text>
<polygon fill="#666666" stroke="#666666" points="114,-197 114,-197 234,-197 234,-197 114,-197"/>
<polygon fill="#666666" stroke="#666666" points="114,-182 114,-182 234,-182 234,-182 114,-182"/>
<polygon fill="none" stroke="#666666" points="114,0 114,-214 234,-214 234,0 114,0"/>
</a>
</g>
</g>
<!-- Node2 -->
<g id="Node000002" class="node">
<title>Node2</title>
<g id="a_Node000002"><a xlink:title=" ">
<polygon fill="white" stroke="transparent" points="98,-310 0,-310 0,-261 98,-261 98,-310"/>
<text text-anchor="start" x="5" y="-297.5" font-family="Helvetica,sans-Serif" font-size="10.00">Ptr&lt; CvCapture &gt;</text>
<text text-anchor="start" x="47" y="-282.5" font-family="Helvetica,sans-Serif" font-size="10.00"> </text>
<text text-anchor="start" x="47" y="-267.5" font-family="Helvetica,sans-Serif" font-size="10.00"> </text>
<polygon fill="#666666" stroke="#666666" points="0,-292.5 0,-292.5 98,-292.5 98,-292.5 0,-292.5"/>
<polygon fill="#666666" stroke="#666666" points="0,-277.5 0,-277.5 98,-277.5 98,-277.5 0,-277.5"/>
<polygon fill="none" stroke="#666666" points="0,-261 0,-310 98,-310 98,-261 0,-261"/>
</a>
</g>
</g>
<!-- Node2&#45;&gt;Node1 -->
<g id="edge1_Node000001_Node000002" class="edge">
<title>Node2&#45;&gt;Node1</title>
<g id="a_edge1_Node000001_Node000002"><a xlink:title=" ">
<path fill="none" stroke="#63b8ff" d="M65.86,-260.7C76.72,-245.36 91.63,-224.3 106.91,-202.73"/>
<polygon fill="none" stroke="#63b8ff" points="107.01,-202.59 107.21,-195.39 113.94,-192.8 113.74,-200.01 107.01,-202.59"/>
</a>
</g>
<text text-anchor="middle" x="100.5" y="-235" font-family="Helvetica,sans-Serif" font-size="10.00" fill="grey"> #cap</text>
</g>
<!-- Node3 -->
<g id="Node000003" class="node">
<title>Node3</title>
<g id="a_Node000003"><a xlink:title=" ">
<polygon fill="white" stroke="transparent" points="232,-310 116,-310 116,-261 232,-261 232,-310"/>
<text text-anchor="start" x="121" y="-297.5" font-family="Helvetica,sans-Serif" font-size="10.00">Ptr&lt; IVideoCapture &gt;</text>
<text text-anchor="start" x="172" y="-282.5" font-family="Helvetica,sans-Serif" font-size="10.00"> </text>
<text text-anchor="start" x="172" y="-267.5" font-family="Helvetica,sans-Serif" font-size="10.00"> </text>
<polygon fill="#666666" stroke="#666666" points="116,-292.5 116,-292.5 232,-292.5 232,-292.5 116,-292.5"/>
<polygon fill="#666666" stroke="#666666" points="116,-277.5 116,-277.5 232,-277.5 232,-277.5 116,-277.5"/>
<polygon fill="none" stroke="#666666" points="116,-261 116,-310 232,-310 232,-261 116,-261"/>
</a>
</g>
</g>
<!-- Node3&#45;&gt;Node1 -->
<g id="edge2_Node000001_Node000003" class="edge">
<title>Node3&#45;&gt;Node1</title>
<g id="a_edge2_Node000001_Node000003"><a xlink:title=" ">
<path fill="none" stroke="#63b8ff" d="M174,-260.7C174,-251.04 174,-239.13 174,-226.24"/>
<polygon fill="none" stroke="#63b8ff" points="174,-226.18 170,-220.18 174,-214.18 178,-220.18 174,-226.18"/>
</a>
</g>
<text text-anchor="middle" x="190" y="-235" font-family="Helvetica,sans-Serif" font-size="10.00" fill="grey"> #icap</text>
</g>
<!-- Node4 -->
<g id="Node000004" class="node">
<title>Node4</title>
<g id="a_Node000004"><a xlink:title=" ">
<polygon fill="white" stroke="transparent" points="282,-310 250,-310 250,-261 282,-261 282,-310"/>
<text text-anchor="start" x="255" y="-297.5" font-family="Helvetica,sans-Serif" font-size="10.00">bool</text>
<text text-anchor="start" x="264" y="-282.5" font-family="Helvetica,sans-Serif" font-size="10.00"> </text>
<text text-anchor="start" x="264" y="-267.5" font-family="Helvetica,sans-Serif" font-size="10.00"> </text>
<polygon fill="#666666" stroke="#666666" points="250,-292.5 250,-292.5 282,-292.5 282,-292.5 250,-292.5"/>
<polygon fill="#666666" stroke="#666666" points="250,-277.5 250,-277.5 282,-277.5 282,-277.5 250,-277.5"/>
<polygon fill="none" stroke="#666666" points="250,-261 250,-310 282,-310 282,-261 250,-261"/>
</a>
</g>
</g>
<!-- Node4&#45;&gt;Node1 -->
<g id="edge3_Node000001_Node000004" class="edge">
<title>Node4&#45;&gt;Node1</title>
<g id="a_edge3_Node000001_Node000004"><a xlink:title=" ">
<path fill="none" stroke="#63b8ff" d="M253.59,-260.7C248.41,-250.75 241.97,-238.4 235.02,-225.06"/>
<polygon fill="none" stroke="#63b8ff" points="234.89,-224.82 228.57,-221.35 229.34,-214.18 235.66,-217.65 234.89,-224.82"/>
</a>
</g>
<text text-anchor="middle" x="278" y="-235" font-family="Helvetica,sans-Serif" font-size="10.00" fill="grey"> #throwOnFail</text>
</g>
</g>
</svg>
