<?xml version="1.0" encoding="UTF-8" standalone="no"?>
<!DOCTYPE svg PUBLIC "-//W3C//DTD SVG 1.1//EN"
 "http://www.w3.org/Graphics/SVG/1.1/DTD/svg11.dtd">
<!-- Generated by graphviz version 2.43.0 (0)
 -->
<!-- Title: cv::detail::VectorRefT::mov Pages: 1 -->
<svg width="458pt" height="38pt"
 viewBox="0.00 0.00 458.00 38.00" xmlns="http://www.w3.org/2000/svg" xmlns:xlink="http://www.w3.org/1999/xlink">
<g id="graph0" class="graph" transform="scale(1 1) rotate(0) translate(4 34)">
<title>cv::detail::VectorRefT::mov</title>
<!-- Node1 -->
<g id="Node000001" class="node">
<title>Node1</title>
<g id="a_Node000001"><a xlink:title=" ">
<polygon fill="#999999" stroke="#666666" points="147,-24.5 0,-24.5 0,-5.5 147,-5.5 147,-24.5"/>
<text text-anchor="middle" x="73.5" y="-12.5" font-family="Helvetica,sans-Serif" font-size="10.00">cv::detail::VectorRefT::mov</text>
</a>
</g>
</g>
<!-- Node2 -->
<g id="Node000002" class="node">
<title>Node2</title>
<g id="a_Node000002"><a xlink:href="../../d2/dab/classcv_1_1detail_1_1VectorRefT.html#aa54c98d7f62c62f5eb81e59c09dbb33c" target="_top" xlink:title=" ">
<polygon fill="white" stroke="#666666" points="303,-30 183,-30 183,0 303,0 303,-30"/>
<text text-anchor="start" x="191" y="-18" font-family="Helvetica,sans-Serif" font-size="10.00">cv::detail::VectorRefT</text>
<text text-anchor="middle" x="243" y="-7" font-family="Helvetica,sans-Serif" font-size="10.00">::wref</text>
</a>
</g>
</g>
<!-- Node1&#45;&gt;Node2 -->
<g id="edge1_Node000001_Node000002" class="edge">
<title>Node1&#45;&gt;Node2</title>
<g id="a_edge1_Node000001_Node000002"><a xlink:title=" ">
<path fill="none" stroke="#63b8ff" d="M147.48,-15C155.88,-15 164.42,-15 172.77,-15"/>
<polygon fill="#63b8ff" stroke="#63b8ff" points="172.83,-18.5 182.83,-15 172.83,-11.5 172.83,-18.5"/>
</a>
</g>
</g>
<!-- Node3 -->
<g id="Node000003" class="node">
<title>Node3</title>
<g id="a_Node000003"><a xlink:href="../../d3/dce/namespacecv_1_1util.html#a40544b3ca23b3917f2a5de6b0273079d" target="_top" xlink:title=" ">
<polygon fill="white" stroke="#666666" points="450,-24.5 339,-24.5 339,-5.5 450,-5.5 450,-24.5"/>
<text text-anchor="middle" x="394.5" y="-12.5" font-family="Helvetica,sans-Serif" font-size="10.00">cv::util::throw_error</text>
</a>
</g>
</g>
<!-- Node2&#45;&gt;Node3 -->
<g id="edge2_Node000002_Node000003" class="edge">
<title>Node2&#45;&gt;Node3</title>
<g id="a_edge2_Node000002_Node000003"><a xlink:title=" ">
<path fill="none" stroke="#63b8ff" d="M303.09,-15C311.44,-15 320.07,-15 328.53,-15"/>
<polygon fill="#63b8ff" stroke="#63b8ff" points="328.73,-18.5 338.73,-15 328.73,-11.5 328.73,-18.5"/>
</a>
</g>
</g>
</g>
</svg>
