<?xml version="1.0" encoding="UTF-8" standalone="no"?>
<!DOCTYPE svg PUBLIC "-//W3C//DTD SVG 1.1//EN"
 "http://www.w3.org/Graphics/SVG/1.1/DTD/svg11.dtd">
<!-- Generated by graphviz version 2.43.0 (0)
 -->
<!-- Title: cv::datasets::PD_inriaObj Pages: 1 -->
<svg width="548pt" height="610pt"
 viewBox="0.00 0.00 547.50 610.00" xmlns="http://www.w3.org/2000/svg" xmlns:xlink="http://www.w3.org/1999/xlink">
<g id="graph0" class="graph" transform="scale(1 1) rotate(0) translate(4 606)">
<title>cv::datasets::PD_inriaObj</title>
<!-- Node1 -->
<g id="Node000001" class="node">
<title>Node1</title>
<g id="a_Node000001"><a xlink:title=" ">
<polygon fill="#999999" stroke="transparent" points="302.5,-49 170.5,-49 170.5,0 302.5,0 302.5,-49"/>
<text text-anchor="start" x="175.5" y="-36.5" font-family="Helvetica,sans-Serif" font-size="10.00">cv::datasets::PD_inriaObj</text>
<text text-anchor="start" x="234.5" y="-21.5" font-family="Helvetica,sans-Serif" font-size="10.00"> </text>
<text text-anchor="start" x="234.5" y="-6.5" font-family="Helvetica,sans-Serif" font-size="10.00"> </text>
<polygon fill="#666666" stroke="#666666" points="170.5,-31.5 170.5,-31.5 302.5,-31.5 302.5,-31.5 170.5,-31.5"/>
<polygon fill="#666666" stroke="#666666" points="170.5,-16.5 170.5,-16.5 302.5,-16.5 302.5,-16.5 170.5,-16.5"/>
<polygon fill="none" stroke="#666666" points="170.5,0 170.5,-49 302.5,-49 302.5,0 170.5,0"/>
</a>
</g>
</g>
<!-- Node2 -->
<g id="Node000002" class="node">
<title>Node2</title>
<g id="a_Node000002"><a xlink:href="../../de/d47/structcv_1_1datasets_1_1Object.html" target="_top" xlink:title=" ">
<polygon fill="white" stroke="transparent" points="107,-167 0,-167 0,-118 107,-118 107,-167"/>
<text text-anchor="start" x="5.5" y="-154.5" font-family="Helvetica,sans-Serif" font-size="10.00">cv::datasets::Object</text>
<text text-anchor="start" x="52" y="-139.5" font-family="Helvetica,sans-Serif" font-size="10.00"> </text>
<text text-anchor="start" x="52" y="-124.5" font-family="Helvetica,sans-Serif" font-size="10.00"> </text>
<polygon fill="#666666" stroke="#666666" points="0.5,-149.5 0.5,-149.5 107.5,-149.5 107.5,-149.5 0.5,-149.5"/>
<polygon fill="#666666" stroke="#666666" points="0.5,-134.5 0.5,-134.5 107.5,-134.5 107.5,-134.5 0.5,-134.5"/>
<polygon fill="none" stroke="#666666" points="0,-118 0,-167 107,-167 107,-118 0,-118"/>
</a>
</g>
</g>
<!-- Node2&#45;&gt;Node1 -->
<g id="edge1_Node000001_Node000002" class="edge">
<title>Node2&#45;&gt;Node1</title>
<g id="a_edge1_Node000001_Node000002"><a xlink:title=" ">
<path fill="none" stroke="#63b8ff" d="M92.77,-111.83C112.16,-97.65 136.13,-80.81 158.5,-67 168.42,-60.88 179.32,-54.73 189.75,-49.12"/>
<polygon fill="none" stroke="#63b8ff" points="90.47,-109.18 84.49,-117.93 94.62,-114.81 90.47,-109.18"/>
</a>
</g>
</g>
<!-- Node3 -->
<g id="Node000003" class="node">
<title>Node3</title>
<g id="a_Node000003"><a xlink:title=" ">
<polygon fill="white" stroke="transparent" points="184,-167 125,-167 125,-118 184,-118 184,-167"/>
<text text-anchor="start" x="130.5" y="-154.5" font-family="Helvetica,sans-Serif" font-size="10.00">std::string</text>
<text text-anchor="start" x="153" y="-139.5" font-family="Helvetica,sans-Serif" font-size="10.00"> </text>
<text text-anchor="start" x="153" y="-124.5" font-family="Helvetica,sans-Serif" font-size="10.00"> </text>
<polygon fill="#666666" stroke="#666666" points="125.5,-149.5 125.5,-149.5 184.5,-149.5 184.5,-149.5 125.5,-149.5"/>
<polygon fill="#666666" stroke="#666666" points="125.5,-134.5 125.5,-134.5 184.5,-134.5 184.5,-134.5 125.5,-134.5"/>
<polygon fill="none" stroke="#666666" points="125,-118 125,-167 184,-167 184,-118 125,-118"/>
</a>
</g>
</g>
<!-- Node3&#45;&gt;Node1 -->
<g id="edge2_Node000001_Node000003" class="edge">
<title>Node3&#45;&gt;Node1</title>
<g id="a_edge2_Node000001_Node000003"><a xlink:title=" ">
<path fill="none" stroke="#63b8ff" d="M157.72,-117.9C160.77,-102.28 166.6,-82 177.5,-67 180.01,-63.55 182.89,-60.29 186,-57.22"/>
<polygon fill="none" stroke="#63b8ff" points="186.25,-57.01 188.13,-50.04 195.27,-49.1 193.4,-56.06 186.25,-57.01"/>
</a>
</g>
<text text-anchor="middle" x="205" y="-81" font-family="Helvetica,sans-Serif" font-size="10.00" fill="grey"> +filename</text>
</g>
<!-- Node4 -->
<g id="Node000004" class="node">
<title>Node4</title>
<g id="a_Node000004"><a xlink:title=" ">
<polygon fill="white" stroke="transparent" points="203.5,-373.5 105.5,-373.5 105.5,-313.5 203.5,-313.5 203.5,-373.5"/>
<text text-anchor="start" x="110.5" y="-361.5" font-family="Helvetica,sans-Serif" font-size="10.00">std::basic_string&lt;</text>
<text text-anchor="start" x="136" y="-350.5" font-family="Helvetica,sans-Serif" font-size="10.00"> Char &gt;</text>
<text text-anchor="start" x="152.5" y="-335.5" font-family="Helvetica,sans-Serif" font-size="10.00"> </text>
<text text-anchor="start" x="152.5" y="-320.5" font-family="Helvetica,sans-Serif" font-size="10.00"> </text>
<polygon fill="#666666" stroke="#666666" points="105.5,-345.5 105.5,-345.5 203.5,-345.5 203.5,-345.5 105.5,-345.5"/>
<polygon fill="#666666" stroke="#666666" points="105.5,-330.5 105.5,-330.5 203.5,-330.5 203.5,-330.5 105.5,-330.5"/>
<polygon fill="none" stroke="#666666" points="105.5,-313.5 105.5,-373.5 203.5,-373.5 203.5,-313.5 105.5,-313.5"/>
</a>
</g>
</g>
<!-- Node4&#45;&gt;Node3 -->
<g id="edge3_Node000003_Node000004" class="edge">
<title>Node4&#45;&gt;Node3</title>
<g id="a_edge3_Node000003_Node000004"><a xlink:title=" ">
<path fill="none" stroke="#63b8ff" d="M154.5,-303.06C154.5,-262.47 154.5,-200.59 154.5,-167.06"/>
<polygon fill="none" stroke="#63b8ff" points="151,-303.14 154.5,-313.14 158,-303.14 151,-303.14"/>
</a>
</g>
</g>
<!-- Node5 -->
<g id="Node000005" class="node">
<title>Node5</title>
<g id="a_Node000005"><a xlink:title=" ">
<polygon fill="white" stroke="transparent" points="271,-167 202,-167 202,-118 271,-118 271,-167"/>
<text text-anchor="start" x="207.5" y="-154.5" font-family="Helvetica,sans-Serif" font-size="10.00">sampleType</text>
<text text-anchor="start" x="235" y="-139.5" font-family="Helvetica,sans-Serif" font-size="10.00"> </text>
<text text-anchor="start" x="235" y="-124.5" font-family="Helvetica,sans-Serif" font-size="10.00"> </text>
<polygon fill="#666666" stroke="#666666" points="202.5,-149.5 202.5,-149.5 271.5,-149.5 271.5,-149.5 202.5,-149.5"/>
<polygon fill="#666666" stroke="#666666" points="202.5,-134.5 202.5,-134.5 271.5,-134.5 271.5,-134.5 202.5,-134.5"/>
<polygon fill="none" stroke="#666666" points="202,-118 202,-167 271,-167 271,-118 202,-118"/>
</a>
</g>
</g>
<!-- Node5&#45;&gt;Node1 -->
<g id="edge4_Node000001_Node000005" class="edge">
<title>Node5&#45;&gt;Node1</title>
<g id="a_edge4_Node000001_Node000005"><a xlink:title=" ">
<path fill="none" stroke="#63b8ff" d="M236.5,-117.75C236.5,-101.48 236.5,-79.62 236.5,-61.26"/>
<polygon fill="none" stroke="#63b8ff" points="236.5,-61.22 232.5,-55.22 236.5,-49.22 240.5,-55.22 236.5,-61.22"/>
</a>
</g>
<text text-anchor="middle" x="256.5" y="-81" font-family="Helvetica,sans-Serif" font-size="10.00" fill="grey"> +sType</text>
</g>
<!-- Node6 -->
<g id="Node000006" class="node">
<title>Node6</title>
<g id="a_Node000006"><a xlink:title=" ">
<polygon fill="white" stroke="transparent" points="312,-167 289,-167 289,-118 312,-118 312,-167"/>
<text text-anchor="start" x="294.5" y="-154.5" font-family="Helvetica,sans-Serif" font-size="10.00">int</text>
<text text-anchor="start" x="299" y="-139.5" font-family="Helvetica,sans-Serif" font-size="10.00"> </text>
<text text-anchor="start" x="299" y="-124.5" font-family="Helvetica,sans-Serif" font-size="10.00"> </text>
<polygon fill="#666666" stroke="#666666" points="289.5,-149.5 289.5,-149.5 312.5,-149.5 312.5,-149.5 289.5,-149.5"/>
<polygon fill="#666666" stroke="#666666" points="289.5,-134.5 289.5,-134.5 312.5,-134.5 312.5,-134.5 289.5,-134.5"/>
<polygon fill="none" stroke="#666666" points="289,-118 289,-167 312,-167 312,-118 289,-118"/>
</a>
</g>
</g>
<!-- Node6&#45;&gt;Node1 -->
<g id="edge5_Node000001_Node000006" class="edge">
<title>Node6&#45;&gt;Node1</title>
<g id="a_edge5_Node000001_Node000006"><a xlink:title=" ">
<path fill="none" stroke="#63b8ff" d="M296.67,-117.77C293.46,-102.49 287.85,-82.62 278.5,-67 276.72,-64.03 274.69,-61.12 272.49,-58.31"/>
<polygon fill="none" stroke="#63b8ff" points="272.41,-58.23 265.45,-56.33 264.53,-49.18 271.49,-51.08 272.41,-58.23"/>
</a>
</g>
<text text-anchor="middle" x="312.5" y="-92" font-family="Helvetica,sans-Serif" font-size="10.00" fill="grey"> +depth</text>
<text text-anchor="middle" x="312.5" y="-81" font-family="Helvetica,sans-Serif" font-size="10.00" fill="grey">+height</text>
<text text-anchor="middle" x="312.5" y="-70" font-family="Helvetica,sans-Serif" font-size="10.00" fill="grey">+width</text>
</g>
<!-- Node7 -->
<g id="Node000007" class="node">
<title>Node7</title>
<g id="a_Node000007"><a xlink:title=" ">
<polygon fill="white" stroke="transparent" points="458.5,-167 330.5,-167 330.5,-118 458.5,-118 458.5,-167"/>
<text text-anchor="start" x="335.5" y="-154.5" font-family="Helvetica,sans-Serif" font-size="10.00">std::vector&lt; cv::Rect_ &gt;</text>
<text text-anchor="start" x="392.5" y="-139.5" font-family="Helvetica,sans-Serif" font-size="10.00"> </text>
<text text-anchor="start" x="392.5" y="-124.5" font-family="Helvetica,sans-Serif" font-size="10.00"> </text>
<polygon fill="#666666" stroke="#666666" points="330.5,-149.5 330.5,-149.5 458.5,-149.5 458.5,-149.5 330.5,-149.5"/>
<polygon fill="#666666" stroke="#666666" points="330.5,-134.5 330.5,-134.5 458.5,-134.5 458.5,-134.5 330.5,-134.5"/>
<polygon fill="none" stroke="#666666" points="330.5,-118 330.5,-167 458.5,-167 458.5,-118 330.5,-118"/>
</a>
</g>
</g>
<!-- Node7&#45;&gt;Node1 -->
<g id="edge6_Node000001_Node000007" class="edge">
<title>Node7&#45;&gt;Node1</title>
<g id="a_edge6_Node000001_Node000007"><a xlink:title=" ">
<path fill="none" stroke="#63b8ff" d="M380.58,-117.7C370.16,-101.59 354.62,-80.81 336.5,-67 329.43,-61.61 321.56,-56.8 313.43,-52.53"/>
<polygon fill="none" stroke="#63b8ff" points="313.41,-52.52 306.26,-53.47 302.64,-47.23 309.78,-46.29 313.41,-52.52"/>
</a>
</g>
<text text-anchor="middle" x="396.5" y="-81" font-family="Helvetica,sans-Serif" font-size="10.00" fill="grey"> +bndboxes</text>
</g>
<!-- Node8 -->
<g id="Node000008" class="node">
<title>Node8</title>
<g id="a_Node000008"><a xlink:href="../../d2/d44/classcv_1_1Rect__.html" target="_top" xlink:title="Template class for 2D rectangles.">
<polygon fill="white" stroke="transparent" points="417.5,-473 271.5,-473 271.5,-214 417.5,-214 417.5,-473"/>
<text text-anchor="start" x="302.5" y="-460.5" font-family="Helvetica,sans-Serif" font-size="10.00">cv::Rect_&lt; _Tp &gt;</text>
<text text-anchor="start" x="342.5" y="-445.5" font-family="Helvetica,sans-Serif" font-size="10.00"> </text>
<text text-anchor="start" x="275.5" y="-430.5" font-family="Helvetica,sans-Serif" font-size="10.00">+</text>
<text text-anchor="start" x="288.5" y="-430.5" font-family="Helvetica,sans-Serif" font-size="10.00">Rect_()</text>
<text text-anchor="start" x="275.5" y="-415.5" font-family="Helvetica,sans-Serif" font-size="10.00">+</text>
<text text-anchor="start" x="288.5" y="-415.5" font-family="Helvetica,sans-Serif" font-size="10.00">Rect_()</text>
<text text-anchor="start" x="275.5" y="-400.5" font-family="Helvetica,sans-Serif" font-size="10.00">+</text>
<text text-anchor="start" x="288.5" y="-400.5" font-family="Helvetica,sans-Serif" font-size="10.00">Rect_()</text>
<text text-anchor="start" x="275.5" y="-385.5" font-family="Helvetica,sans-Serif" font-size="10.00">+</text>
<text text-anchor="start" x="288.5" y="-385.5" font-family="Helvetica,sans-Serif" font-size="10.00">Rect_()</text>
<text text-anchor="start" x="275.5" y="-370.5" font-family="Helvetica,sans-Serif" font-size="10.00">+</text>
<text text-anchor="start" x="288.5" y="-370.5" font-family="Helvetica,sans-Serif" font-size="10.00">Rect_()</text>
<text text-anchor="start" x="275.5" y="-355.5" font-family="Helvetica,sans-Serif" font-size="10.00">+</text>
<text text-anchor="start" x="288.5" y="-355.5" font-family="Helvetica,sans-Serif" font-size="10.00">Rect_()</text>
<text text-anchor="start" x="275.5" y="-340.5" font-family="Helvetica,sans-Serif" font-size="10.00">+</text>
<text text-anchor="start" x="288.5" y="-340.5" font-family="Helvetica,sans-Serif" font-size="10.00">area()</text>
<text text-anchor="start" x="275.5" y="-325.5" font-family="Helvetica,sans-Serif" font-size="10.00">+</text>
<text text-anchor="start" x="288.5" y="-325.5" font-family="Helvetica,sans-Serif" font-size="10.00">br()</text>
<text text-anchor="start" x="275.5" y="-310.5" font-family="Helvetica,sans-Serif" font-size="10.00">+</text>
<text text-anchor="start" x="288.5" y="-310.5" font-family="Helvetica,sans-Serif" font-size="10.00">contains()</text>
<text text-anchor="start" x="275.5" y="-295.5" font-family="Helvetica,sans-Serif" font-size="10.00">+</text>
<text text-anchor="start" x="288.5" y="-295.5" font-family="Helvetica,sans-Serif" font-size="10.00">empty()</text>
<text text-anchor="start" x="275.5" y="-280.5" font-family="Helvetica,sans-Serif" font-size="10.00">+</text>
<text text-anchor="start" x="288.5" y="-280.5" font-family="Helvetica,sans-Serif" font-size="10.00">operator Rect_&lt; _Tp2 &gt;()</text>
<text text-anchor="start" x="275.5" y="-265.5" font-family="Helvetica,sans-Serif" font-size="10.00">+</text>
<text text-anchor="start" x="288.5" y="-265.5" font-family="Helvetica,sans-Serif" font-size="10.00">operator=()</text>
<text text-anchor="start" x="275.5" y="-250.5" font-family="Helvetica,sans-Serif" font-size="10.00">+</text>
<text text-anchor="start" x="288.5" y="-250.5" font-family="Helvetica,sans-Serif" font-size="10.00">operator=()</text>
<text text-anchor="start" x="275.5" y="-235.5" font-family="Helvetica,sans-Serif" font-size="10.00">+</text>
<text text-anchor="start" x="288.5" y="-235.5" font-family="Helvetica,sans-Serif" font-size="10.00">size()</text>
<text text-anchor="start" x="275.5" y="-220.5" font-family="Helvetica,sans-Serif" font-size="10.00">+</text>
<text text-anchor="start" x="288.5" y="-220.5" font-family="Helvetica,sans-Serif" font-size="10.00">tl()</text>
<polygon fill="#666666" stroke="#666666" points="271.5,-455.5 271.5,-455.5 417.5,-455.5 417.5,-455.5 271.5,-455.5"/>
<polygon fill="#666666" stroke="#666666" points="271.5,-440.5 271.5,-440.5 417.5,-440.5 417.5,-440.5 271.5,-440.5"/>
<polygon fill="none" stroke="#666666" points="271.5,-214 271.5,-473 417.5,-473 417.5,-214 271.5,-214"/>
</a>
</g>
</g>
<!-- Node8&#45;&gt;Node7 -->
<g id="edge7_Node000007_Node000008" class="edge">
<title>Node8&#45;&gt;Node7</title>
<g id="a_edge7_Node000007_Node000008"><a xlink:title=" ">
<path fill="none" stroke="#63b8ff" d="M350.21,-213.67C352.62,-203.78 355.67,-194.12 359.5,-185 360.61,-182.36 361.95,-179.76 363.45,-177.24"/>
<polygon fill="none" stroke="#63b8ff" points="363.49,-177.17 363.62,-169.96 370.32,-167.3 370.2,-174.51 363.49,-177.17"/>
</a>
</g>
<text text-anchor="middle" x="388.5" y="-188" font-family="Helvetica,sans-Serif" font-size="10.00" fill="grey"> +elements</text>
</g>
<!-- Node9 -->
<g id="Node000009" class="node">
<title>Node9</title>
<g id="a_Node000009"><a xlink:href="../../d1/dd7/class__Tp.html" target="_top" xlink:title=" ">
<polygon fill="white" stroke="transparent" points="358.5,-602 330.5,-602 330.5,-553 358.5,-553 358.5,-602"/>
<text text-anchor="start" x="335.5" y="-589.5" font-family="Helvetica,sans-Serif" font-size="10.00">_Tp</text>
<text text-anchor="start" x="342.5" y="-574.5" font-family="Helvetica,sans-Serif" font-size="10.00"> </text>
<text text-anchor="start" x="342.5" y="-559.5" font-family="Helvetica,sans-Serif" font-size="10.00"> </text>
<polygon fill="#666666" stroke="#666666" points="330.5,-584.5 330.5,-584.5 358.5,-584.5 358.5,-584.5 330.5,-584.5"/>
<polygon fill="#666666" stroke="#666666" points="330.5,-569.5 330.5,-569.5 358.5,-569.5 358.5,-569.5 330.5,-569.5"/>
<polygon fill="none" stroke="#666666" points="330.5,-553 330.5,-602 358.5,-602 358.5,-553 330.5,-553"/>
</a>
</g>
</g>
<!-- Node9&#45;&gt;Node8 -->
<g id="edge8_Node000008_Node000009" class="edge">
<title>Node9&#45;&gt;Node8</title>
<g id="a_edge8_Node000008_Node000009"><a xlink:title=" ">
<path fill="none" stroke="#63b8ff" d="M344.5,-552.98C344.5,-536 344.5,-511.51 344.5,-485.25"/>
<polygon fill="none" stroke="#63b8ff" points="344.5,-485.08 340.5,-479.08 344.5,-473.08 348.5,-479.08 344.5,-485.08"/>
</a>
</g>
<text text-anchor="middle" x="366" y="-527" font-family="Helvetica,sans-Serif" font-size="10.00" fill="grey"> +height</text>
<text text-anchor="middle" x="366" y="-516" font-family="Helvetica,sans-Serif" font-size="10.00" fill="grey">+width</text>
<text text-anchor="middle" x="366" y="-505" font-family="Helvetica,sans-Serif" font-size="10.00" fill="grey">+x</text>
<text text-anchor="middle" x="366" y="-494" font-family="Helvetica,sans-Serif" font-size="10.00" fill="grey">+y</text>
</g>
<!-- Node10 -->
<g id="Node000010" class="node">
<title>Node10</title>
<g id="a_Node000010"><a xlink:title=" ">
<polygon fill="white" stroke="transparent" points="527,-368 436,-368 436,-319 527,-319 527,-368"/>
<text text-anchor="start" x="441.5" y="-355.5" font-family="Helvetica,sans-Serif" font-size="10.00">std::vector&lt; T &gt;</text>
<text text-anchor="start" x="480" y="-340.5" font-family="Helvetica,sans-Serif" font-size="10.00"> </text>
<text text-anchor="start" x="480" y="-325.5" font-family="Helvetica,sans-Serif" font-size="10.00"> </text>
<polygon fill="#666666" stroke="#666666" points="436.5,-350.5 436.5,-350.5 527.5,-350.5 527.5,-350.5 436.5,-350.5"/>
<polygon fill="#666666" stroke="#666666" points="436.5,-335.5 436.5,-335.5 527.5,-335.5 527.5,-335.5 436.5,-335.5"/>
<polygon fill="none" stroke="#666666" points="436,-319 436,-368 527,-368 527,-319 436,-319"/>
</a>
</g>
</g>
<!-- Node10&#45;&gt;Node7 -->
<g id="edge9_Node000007_Node000010" class="edge">
<title>Node10&#45;&gt;Node7</title>
<g id="a_edge9_Node000007_Node000010"><a xlink:title=" ">
<path fill="none" stroke="orange" d="M469.42,-309.51C457.32,-277.3 437.63,-227.11 417.5,-185 414.73,-179.2 411.51,-173.09 408.38,-167.38"/>
<polygon fill="orange" stroke="orange" points="466.15,-310.76 472.93,-318.9 472.71,-308.31 466.15,-310.76"/>
</a>
</g>
<text text-anchor="middle" x="456.5" y="-188" font-family="Helvetica,sans-Serif" font-size="10.00" fill="grey"> &lt; cv::Rect_ &gt;</text>
</g>
<!-- Node11 -->
<g id="Node000011" class="node">
<title>Node11</title>
<g id="a_Node000011"><a xlink:title=" ">
<polygon fill="white" stroke="transparent" points="490,-602 473,-602 473,-553 490,-553 490,-602"/>
<text text-anchor="start" x="478.5" y="-589.5" font-family="Helvetica,sans-Serif" font-size="10.00">T</text>
<text text-anchor="start" x="480" y="-574.5" font-family="Helvetica,sans-Serif" font-size="10.00"> </text>
<text text-anchor="start" x="480" y="-559.5" font-family="Helvetica,sans-Serif" font-size="10.00"> </text>
<polygon fill="#666666" stroke="#666666" points="473.5,-584.5 473.5,-584.5 490.5,-584.5 490.5,-584.5 473.5,-584.5"/>
<polygon fill="#666666" stroke="#666666" points="473.5,-569.5 473.5,-569.5 490.5,-569.5 490.5,-569.5 473.5,-569.5"/>
<polygon fill="none" stroke="#666666" points="473,-553 473,-602 490,-602 490,-553 473,-553"/>
</a>
</g>
</g>
<!-- Node11&#45;&gt;Node10 -->
<g id="edge10_Node000010_Node000011" class="edge">
<title>Node11&#45;&gt;Node10</title>
<g id="a_edge10_Node000010_Node000011"><a xlink:title=" ">
<path fill="none" stroke="#63b8ff" d="M481.5,-552.98C481.5,-512.25 481.5,-428.35 481.5,-380.33"/>
<polygon fill="none" stroke="#63b8ff" points="481.5,-380.08 477.5,-374.08 481.5,-368.08 485.5,-374.08 481.5,-380.08"/>
</a>
</g>
<text text-anchor="middle" x="510.5" y="-510.5" font-family="Helvetica,sans-Serif" font-size="10.00" fill="grey"> +elements</text>
</g>
</g>
</svg>
