<?xml version="1.0" encoding="UTF-8" standalone="no"?>
<!DOCTYPE svg PUBLIC "-//W3C//DTD SVG 1.1//EN"
 "http://www.w3.org/Graphics/SVG/1.1/DTD/svg11.dtd">
<!-- Generated by graphviz version 2.43.0 (0)
 -->
<!-- Title: cv::gapi::own::Mat::copyTo Pages: 1 -->
<svg width="415pt" height="342pt"
 viewBox="0.00 0.00 415.00 342.00" xmlns="http://www.w3.org/2000/svg" xmlns:xlink="http://www.w3.org/1999/xlink">
<g id="graph0" class="graph" transform="scale(1 1) rotate(0) translate(4 338)">
<title>cv::gapi::own::Mat::copyTo</title>
<!-- Node1 -->
<g id="Node000001" class="node">
<title>Node1</title>
<g id="a_Node000001"><a xlink:title="Copies the matrix to another one.">
<polygon fill="#999999" stroke="#666666" points="105,-172 0,-172 0,-142 105,-142 105,-172"/>
<text text-anchor="start" x="8" y="-160" font-family="Helvetica,sans-Serif" font-size="10.00">cv::gapi::own::Mat</text>
<text text-anchor="middle" x="52.5" y="-149" font-family="Helvetica,sans-Serif" font-size="10.00">::copyTo</text>
</a>
</g>
</g>
<!-- Node2 -->
<g id="Node000002" class="node">
<title>Node2</title>
<g id="a_Node000002"><a xlink:href="../../d1/d24/classcv_1_1gapi_1_1own_1_1Mat.html#aa234313065f8e7c8b333266dbb668a76" target="_top" xlink:title=" ">
<polygon fill="white" stroke="#666666" points="256,-316 151,-316 151,-286 256,-286 256,-316"/>
<text text-anchor="start" x="159" y="-304" font-family="Helvetica,sans-Serif" font-size="10.00">cv::gapi::own::Mat</text>
<text text-anchor="middle" x="203.5" y="-293" font-family="Helvetica,sans-Serif" font-size="10.00">::create</text>
</a>
</g>
</g>
<!-- Node1&#45;&gt;Node2 -->
<g id="edge1_Node000001_Node000002" class="edge">
<title>Node1&#45;&gt;Node2</title>
<g id="a_edge1_Node000001_Node000002"><a xlink:title=" ">
<path fill="none" stroke="#63b8ff" d="M60.82,-172.04C73.72,-197.11 102.8,-247.58 141,-277 142.77,-278.36 144.63,-279.66 146.55,-280.89"/>
<polygon fill="#63b8ff" stroke="#63b8ff" points="144.88,-283.97 155.31,-285.86 148.34,-277.88 144.88,-283.97"/>
</a>
</g>
</g>
<!-- Node3 -->
<g id="Node000003" class="node">
<title>Node3</title>
<g id="a_Node000003"><a xlink:href="../../d0/d06/namespacecv_1_1gapi_1_1own_1_1detail.html#aafeec5427533d638f2f8437397363899" target="_top" xlink:title=" ">
<polygon fill="white" stroke="#666666" points="260.5,-268 146.5,-268 146.5,-238 260.5,-238 260.5,-268"/>
<text text-anchor="start" x="154.5" y="-256" font-family="Helvetica,sans-Serif" font-size="10.00">cv::gapi::own::detail</text>
<text text-anchor="middle" x="203.5" y="-245" font-family="Helvetica,sans-Serif" font-size="10.00">::default_step</text>
</a>
</g>
</g>
<!-- Node1&#45;&gt;Node3 -->
<g id="edge3_Node000001_Node000003" class="edge">
<title>Node1&#45;&gt;Node3</title>
<g id="a_edge3_Node000001_Node000003"><a xlink:title=" ">
<path fill="none" stroke="#63b8ff" d="M68.8,-172.18C85.43,-188.03 113.34,-212.78 141,-229 143.68,-230.57 146.49,-232.08 149.36,-233.52"/>
<polygon fill="#63b8ff" stroke="#63b8ff" points="148.14,-236.82 158.68,-237.89 151.11,-230.48 148.14,-236.82"/>
</a>
</g>
</g>
<!-- Node4 -->
<g id="Node000004" class="node">
<title>Node4</title>
<g id="a_Node000004"><a xlink:href="../../d1/d24/classcv_1_1gapi_1_1own_1_1Mat.html#ac17970b7962e231610288a8b0f035161" target="_top" xlink:title="Returns the depth of a matrix element.">
<polygon fill="white" stroke="#666666" points="256,-220 151,-220 151,-190 256,-190 256,-220"/>
<text text-anchor="start" x="159" y="-208" font-family="Helvetica,sans-Serif" font-size="10.00">cv::gapi::own::Mat</text>
<text text-anchor="middle" x="203.5" y="-197" font-family="Helvetica,sans-Serif" font-size="10.00">::depth</text>
</a>
</g>
</g>
<!-- Node1&#45;&gt;Node4 -->
<g id="edge4_Node000001_Node000004" class="edge">
<title>Node1&#45;&gt;Node4</title>
<g id="a_edge4_Node000001_Node000004"><a xlink:title=" ">
<path fill="none" stroke="#63b8ff" d="M100.24,-172.06C114.8,-176.75 131.01,-181.97 146.16,-186.85"/>
<polygon fill="#63b8ff" stroke="#63b8ff" points="145.34,-190.26 155.93,-190 147.49,-183.6 145.34,-190.26"/>
</a>
</g>
</g>
<!-- Node5 -->
<g id="Node000005" class="node">
<title>Node5</title>
<g id="a_Node000005"><a xlink:href="../../d1/d24/classcv_1_1gapi_1_1own_1_1Mat.html#a17a22f04a8935c8034f0c4b81b68bb44" target="_top" xlink:title="Returns the matrix element size in bytes.">
<polygon fill="white" stroke="#666666" points="256,-172 151,-172 151,-142 256,-142 256,-172"/>
<text text-anchor="start" x="159" y="-160" font-family="Helvetica,sans-Serif" font-size="10.00">cv::gapi::own::Mat</text>
<text text-anchor="middle" x="203.5" y="-149" font-family="Helvetica,sans-Serif" font-size="10.00">::elemSize</text>
</a>
</g>
</g>
<!-- Node1&#45;&gt;Node5 -->
<g id="edge5_Node000001_Node000005" class="edge">
<title>Node1&#45;&gt;Node5</title>
<g id="a_edge5_Node000001_Node000005"><a xlink:title=" ">
<path fill="none" stroke="#63b8ff" d="M105.19,-157C116.64,-157 128.87,-157 140.67,-157"/>
<polygon fill="#63b8ff" stroke="#63b8ff" points="140.9,-160.5 150.9,-157 140.9,-153.5 140.9,-160.5"/>
</a>
</g>
</g>
<!-- Node6 -->
<g id="Node000006" class="node">
<title>Node6</title>
<g id="a_Node000006"><a xlink:href="../../d1/d24/classcv_1_1gapi_1_1own_1_1Mat.html#abff622ef7ef3019c18800de316c08963" target="_top" xlink:title="Returns the type of a matrix element.">
<polygon fill="white" stroke="#666666" points="407,-150 302,-150 302,-120 407,-120 407,-150"/>
<text text-anchor="start" x="310" y="-138" font-family="Helvetica,sans-Serif" font-size="10.00">cv::gapi::own::Mat</text>
<text text-anchor="middle" x="354.5" y="-127" font-family="Helvetica,sans-Serif" font-size="10.00">::type</text>
</a>
</g>
</g>
<!-- Node1&#45;&gt;Node6 -->
<g id="edge10_Node000001_Node000006" class="edge">
<title>Node1&#45;&gt;Node6</title>
<g id="a_edge10_Node000001_Node000006"><a xlink:title=" ">
<path fill="none" stroke="#63b8ff" d="M99.34,-141.95C112.63,-138.26 127.26,-134.85 141,-133 191.33,-126.22 248.97,-127.31 291.51,-129.77"/>
<polygon fill="#63b8ff" stroke="#63b8ff" points="291.52,-133.27 301.72,-130.4 291.95,-126.29 291.52,-133.27"/>
</a>
</g>
</g>
<!-- Node7 -->
<g id="Node000007" class="node">
<title>Node7</title>
<g id="a_Node000007"><a xlink:href="../../d1/d24/classcv_1_1gapi_1_1own_1_1Mat.html#ab95b079bdf39a4b98d644ecc1abc19a2" target="_top" xlink:title="Returns a pointer to the specified matrix row.">
<polygon fill="white" stroke="#666666" points="266,-67.5 141,-67.5 141,-48.5 266,-48.5 266,-67.5"/>
<text text-anchor="middle" x="203.5" y="-55.5" font-family="Helvetica,sans-Serif" font-size="10.00">cv::gapi::own::Mat::ptr</text>
</a>
</g>
</g>
<!-- Node1&#45;&gt;Node7 -->
<g id="edge7_Node000001_Node000007" class="edge">
<title>Node1&#45;&gt;Node7</title>
<g id="a_edge7_Node000001_Node000007"><a xlink:title=" ">
<path fill="none" stroke="#63b8ff" d="M76.13,-141.96C104.04,-123.42 151.25,-92.05 179.38,-73.36"/>
<polygon fill="#63b8ff" stroke="#63b8ff" points="181.41,-76.22 187.8,-67.77 177.54,-70.39 181.41,-76.22"/>
</a>
</g>
</g>
<!-- Node8 -->
<g id="Node000008" class="node">
<title>Node8</title>
<g id="a_Node000008"><a xlink:href="../../d1/d24/classcv_1_1gapi_1_1own_1_1Mat.html#a93dbce66072b6125bf87634f230f9470" target="_top" xlink:title="Returns the total number of array elements.">
<polygon fill="white" stroke="#666666" points="256,-30 151,-30 151,0 256,0 256,-30"/>
<text text-anchor="start" x="159" y="-18" font-family="Helvetica,sans-Serif" font-size="10.00">cv::gapi::own::Mat</text>
<text text-anchor="middle" x="203.5" y="-7" font-family="Helvetica,sans-Serif" font-size="10.00">::total</text>
</a>
</g>
</g>
<!-- Node1&#45;&gt;Node8 -->
<g id="edge9_Node000001_Node000008" class="edge">
<title>Node1&#45;&gt;Node8</title>
<g id="a_edge9_Node000001_Node000008"><a xlink:title=" ">
<path fill="none" stroke="#63b8ff" d="M61.39,-141.61C74.7,-117.01 103.85,-68.67 141,-40 143.31,-38.22 145.76,-36.54 148.31,-34.97"/>
<polygon fill="#63b8ff" stroke="#63b8ff" points="150.2,-37.93 157.26,-30.03 146.81,-31.8 150.2,-37.93"/>
</a>
</g>
</g>
<!-- Node2&#45;&gt;Node2 -->
<g id="edge2_Node000002_Node000002" class="edge">
<title>Node2&#45;&gt;Node2</title>
<g id="a_edge2_Node000002_Node000002"><a xlink:title=" ">
<path fill="none" stroke="#63b8ff" d="M177.13,-316.28C171.27,-325.41 180.06,-334 203.5,-334 217.42,-334 226.17,-330.97 229.76,-326.6"/>
<polygon fill="#63b8ff" stroke="#63b8ff" points="233.26,-326.31 229.87,-316.28 226.26,-326.24 233.26,-326.31"/>
</a>
</g>
</g>
<!-- Node5&#45;&gt;Node6 -->
<g id="edge6_Node000005_Node000006" class="edge">
<title>Node5&#45;&gt;Node6</title>
<g id="a_edge6_Node000005_Node000006"><a xlink:title=" ">
<path fill="none" stroke="#63b8ff" d="M256.19,-149.37C267.64,-147.68 279.87,-145.87 291.67,-144.13"/>
<polygon fill="#63b8ff" stroke="#63b8ff" points="292.52,-147.54 301.9,-142.62 291.49,-140.62 292.52,-147.54"/>
</a>
</g>
</g>
<!-- Node7&#45;&gt;Node7 -->
<g id="edge8_Node000007_Node000007" class="edge">
<title>Node7&#45;&gt;Node7</title>
<g id="a_edge8_Node000007_Node000007"><a xlink:title=" ">
<path fill="none" stroke="#63b8ff" d="M180.38,-67.58C169.13,-76.23 176.84,-85.5 203.5,-85.5 221,-85.5 230.33,-81.51 231.5,-76.32"/>
<polygon fill="#63b8ff" stroke="#63b8ff" points="234.55,-74.61 226.62,-67.58 228.44,-78.02 234.55,-74.61"/>
</a>
</g>
</g>
</g>
</svg>
