<?xml version="1.0" encoding="UTF-8" standalone="no"?>
<!DOCTYPE svg PUBLIC "-//W3C//DTD SVG 1.1//EN"
 "http://www.w3.org/Graphics/SVG/1.1/DTD/svg11.dtd">
<!-- Generated by graphviz version 2.43.0 (0)
 -->
<!-- Title: cv::detail::ChannelsCompensator Pages: 1 -->
<svg width="179pt" height="509pt"
 viewBox="0.00 0.00 179.00 509.00" xmlns="http://www.w3.org/2000/svg" xmlns:xlink="http://www.w3.org/1999/xlink">
<g id="graph0" class="graph" transform="scale(1 1) rotate(0) translate(4 505)">
<title>cv::detail::ChannelsCompensator</title>
<!-- Node1 -->
<g id="Node000001" class="node">
<title>Node1</title>
<g id="a_Node000001"><a xlink:title="Exposure compensator which tries to remove exposure related artifacts by adjusting image intensities ...">
<polygon fill="#999999" stroke="transparent" points="171,-184 0,-184 0,0 171,0 171,-184"/>
<text text-anchor="start" x="5.5" y="-172" font-family="Helvetica,sans-Serif" font-size="10.00">cv::detail::ChannelsCompensator</text>
<text text-anchor="start" x="84" y="-157" font-family="Helvetica,sans-Serif" font-size="10.00"> </text>
<text text-anchor="start" x="12" y="-142" font-family="Helvetica,sans-Serif" font-size="10.00">+</text>
<text text-anchor="start" x="32.5" y="-142" font-family="Helvetica,sans-Serif" font-size="10.00">ChannelsCompensator()</text>
<text text-anchor="start" x="12" y="-127" font-family="Helvetica,sans-Serif" font-size="10.00">+</text>
<text text-anchor="start" x="32.5" y="-127" font-family="Helvetica,sans-Serif" font-size="10.00">apply()</text>
<text text-anchor="start" x="12" y="-112" font-family="Helvetica,sans-Serif" font-size="10.00">+</text>
<text text-anchor="start" x="32.5" y="-112" font-family="Helvetica,sans-Serif" font-size="10.00">feed()</text>
<text text-anchor="start" x="12" y="-97" font-family="Helvetica,sans-Serif" font-size="10.00">+</text>
<text text-anchor="start" x="32.5" y="-97" font-family="Helvetica,sans-Serif" font-size="10.00">gains()</text>
<text text-anchor="start" x="12" y="-82" font-family="Helvetica,sans-Serif" font-size="10.00">+</text>
<text text-anchor="start" x="32.5" y="-82" font-family="Helvetica,sans-Serif" font-size="10.00">getMatGains()</text>
<text text-anchor="start" x="12" y="-67" font-family="Helvetica,sans-Serif" font-size="10.00">+</text>
<text text-anchor="start" x="32.5" y="-67" font-family="Helvetica,sans-Serif" font-size="10.00">getNrFeeds()</text>
<text text-anchor="start" x="12" y="-52" font-family="Helvetica,sans-Serif" font-size="10.00">+</text>
<text text-anchor="start" x="32.5" y="-52" font-family="Helvetica,sans-Serif" font-size="10.00">getSimilarityThreshold()</text>
<text text-anchor="start" x="12" y="-37" font-family="Helvetica,sans-Serif" font-size="10.00">+</text>
<text text-anchor="start" x="32.5" y="-37" font-family="Helvetica,sans-Serif" font-size="10.00">setMatGains()</text>
<text text-anchor="start" x="12" y="-22" font-family="Helvetica,sans-Serif" font-size="10.00">+</text>
<text text-anchor="start" x="32.5" y="-22" font-family="Helvetica,sans-Serif" font-size="10.00">setNrFeeds()</text>
<text text-anchor="start" x="12" y="-7" font-family="Helvetica,sans-Serif" font-size="10.00">+</text>
<text text-anchor="start" x="32.5" y="-7" font-family="Helvetica,sans-Serif" font-size="10.00">setSimilarityThreshold()</text>
<polygon fill="#666666" stroke="#666666" points="0.5,-167 0.5,-167 171.5,-167 171.5,-167 0.5,-167"/>
<polygon fill="#666666" stroke="#666666" points="0.5,-152 0.5,-152 171.5,-152 171.5,-152 0.5,-152"/>
<polygon fill="none" stroke="#666666" points="0,0 0,-184 171,-184 171,0 0,0"/>
</a>
</g>
</g>
<!-- Node2 -->
<g id="Node000002" class="node">
<title>Node2</title>
<g id="a_Node000002"><a xlink:href="../../d2/d37/classcv_1_1detail_1_1ExposureCompensator.html" target="_top" xlink:title="Base class for all exposure compensators.">
<polygon fill="white" stroke="transparent" points="171,-405 0,-405 0,-221 171,-221 171,-405"/>
<text text-anchor="start" x="5.5" y="-393" font-family="Helvetica,sans-Serif" font-size="10.00">cv::detail::ExposureCompensator</text>
<text text-anchor="start" x="84" y="-378" font-family="Helvetica,sans-Serif" font-size="10.00"> </text>
<text text-anchor="start" x="10" y="-363" font-family="Helvetica,sans-Serif" font-size="10.00">+</text>
<text text-anchor="start" x="28.5" y="-363" font-family="Helvetica,sans-Serif" font-size="10.00">ExposureCompensator()</text>
<text text-anchor="start" x="10" y="-348" font-family="Helvetica,sans-Serif" font-size="10.00">+</text>
<text text-anchor="start" x="28.5" y="-348" font-family="Helvetica,sans-Serif" font-size="10.00">~ExposureCompensator()</text>
<text text-anchor="start" x="10" y="-333" font-family="Helvetica,sans-Serif" font-size="10.00">+</text>
<text text-anchor="start" x="28.5" y="-333" font-family="Helvetica,sans-Serif" font-size="10.00">apply()</text>
<text text-anchor="start" x="10" y="-318" font-family="Helvetica,sans-Serif" font-size="10.00">+</text>
<text text-anchor="start" x="28.5" y="-318" font-family="Helvetica,sans-Serif" font-size="10.00">feed()</text>
<text text-anchor="start" x="10" y="-303" font-family="Helvetica,sans-Serif" font-size="10.00">+</text>
<text text-anchor="start" x="28.5" y="-303" font-family="Helvetica,sans-Serif" font-size="10.00">feed()</text>
<text text-anchor="start" x="10" y="-288" font-family="Helvetica,sans-Serif" font-size="10.00">+</text>
<text text-anchor="start" x="28.5" y="-288" font-family="Helvetica,sans-Serif" font-size="10.00">getMatGains()</text>
<text text-anchor="start" x="10" y="-273" font-family="Helvetica,sans-Serif" font-size="10.00">+</text>
<text text-anchor="start" x="28.5" y="-273" font-family="Helvetica,sans-Serif" font-size="10.00">getUpdateGain()</text>
<text text-anchor="start" x="10" y="-258" font-family="Helvetica,sans-Serif" font-size="10.00">+</text>
<text text-anchor="start" x="28.5" y="-258" font-family="Helvetica,sans-Serif" font-size="10.00">setMatGains()</text>
<text text-anchor="start" x="10" y="-243" font-family="Helvetica,sans-Serif" font-size="10.00">+</text>
<text text-anchor="start" x="28.5" y="-243" font-family="Helvetica,sans-Serif" font-size="10.00">setUpdateGain()</text>
<text text-anchor="start" x="10" y="-228" font-family="Helvetica,sans-Serif" font-size="10.00">+</text>
<text text-anchor="start" x="28.5" y="-228" font-family="Helvetica,sans-Serif" font-size="10.00">createDefault()</text>
<polygon fill="#666666" stroke="#666666" points="0.5,-388 0.5,-388 171.5,-388 171.5,-388 0.5,-388"/>
<polygon fill="#666666" stroke="#666666" points="0.5,-373 0.5,-373 171.5,-373 171.5,-373 0.5,-373"/>
<polygon fill="none" stroke="#666666" points="0,-221 0,-405 171,-405 171,-221 0,-221"/>
</a>
</g>
</g>
<!-- Node2&#45;&gt;Node1 -->
<g id="edge1_Node000001_Node000002" class="edge">
<title>Node2&#45;&gt;Node1</title>
<g id="a_edge1_Node000001_Node000002"><a xlink:title=" ">
<path fill="none" stroke="#63b8ff" d="M85.5,-210.45C85.5,-201.67 85.5,-192.83 85.5,-184.14"/>
<polygon fill="none" stroke="#63b8ff" points="82,-210.71 85.5,-220.71 89,-210.71 82,-210.71"/>
</a>
</g>
</g>
<!-- Node3 -->
<g id="Node000003" class="node">
<title>Node3</title>
<g id="a_Node000003"><a xlink:title=" ">
<polygon fill="white" stroke="transparent" points="101.5,-501 69.5,-501 69.5,-452 101.5,-452 101.5,-501"/>
<text text-anchor="start" x="74.5" y="-488.5" font-family="Helvetica,sans-Serif" font-size="10.00">bool</text>
<text text-anchor="start" x="83.5" y="-473.5" font-family="Helvetica,sans-Serif" font-size="10.00"> </text>
<text text-anchor="start" x="83.5" y="-458.5" font-family="Helvetica,sans-Serif" font-size="10.00"> </text>
<polygon fill="#666666" stroke="#666666" points="69.5,-483.5 69.5,-483.5 101.5,-483.5 101.5,-483.5 69.5,-483.5"/>
<polygon fill="#666666" stroke="#666666" points="69.5,-468.5 69.5,-468.5 101.5,-468.5 101.5,-468.5 69.5,-468.5"/>
<polygon fill="none" stroke="#666666" points="69.5,-452 69.5,-501 101.5,-501 101.5,-452 69.5,-452"/>
</a>
</g>
</g>
<!-- Node3&#45;&gt;Node2 -->
<g id="edge2_Node000002_Node000003" class="edge">
<title>Node3&#45;&gt;Node2</title>
<g id="a_edge2_Node000002_Node000003"><a xlink:title=" ">
<path fill="none" stroke="#63b8ff" d="M85.5,-451.67C85.5,-442.03 85.5,-430.18 85.5,-417.53"/>
<polygon fill="none" stroke="#63b8ff" points="85.5,-417.19 81.5,-411.19 85.5,-405.19 89.5,-411.19 85.5,-417.19"/>
</a>
</g>
<text text-anchor="middle" x="119.5" y="-426" font-family="Helvetica,sans-Serif" font-size="10.00" fill="grey"> #updateGain</text>
</g>
</g>
</svg>
