<?xml version="1.0" encoding="UTF-8" standalone="no"?>
<!DOCTYPE svg PUBLIC "-//W3C//DTD SVG 1.1//EN"
 "http://www.w3.org/Graphics/SVG/1.1/DTD/svg11.dtd">
<!-- Generated by graphviz version 2.43.0 (0)
 -->
<!-- Title: cv::cudev::InRangeFunc&lt; T, cn &gt; Pages: 1 -->
<svg width="274pt" height="330pt"
 viewBox="0.00 0.00 273.50 330.00" xmlns="http://www.w3.org/2000/svg" xmlns:xlink="http://www.w3.org/1999/xlink">
<g id="graph0" class="graph" transform="scale(1 1) rotate(0) translate(4 326)">
<title>cv::cudev::InRangeFunc&lt; T, cn &gt;</title>
<!-- Node1 -->
<g id="Node000001" class="node">
<title>Node1</title>
<g id="a_Node000001"><a xlink:title="unary_function implementation of inRange">
<polygon fill="#999999" stroke="transparent" points="203,-75 79,-75 79,0 203,0 203,-75"/>
<text text-anchor="start" x="84" y="-62.5" font-family="Helvetica,sans-Serif" font-size="10.00">cv::cudev::InRangeFunc</text>
<text text-anchor="start" x="118" y="-51.5" font-family="Helvetica,sans-Serif" font-size="10.00">&lt; T, cn &gt;</text>
<text text-anchor="start" x="139" y="-36.5" font-family="Helvetica,sans-Serif" font-size="10.00"> </text>
<text text-anchor="start" x="91" y="-21.5" font-family="Helvetica,sans-Serif" font-size="10.00">+</text>
<text text-anchor="start" x="112" y="-21.5" font-family="Helvetica,sans-Serif" font-size="10.00">InRangeFunc()</text>
<text text-anchor="start" x="91" y="-6.5" font-family="Helvetica,sans-Serif" font-size="10.00">+</text>
<text text-anchor="start" x="112" y="-6.5" font-family="Helvetica,sans-Serif" font-size="10.00">operator()()</text>
<polygon fill="#666666" stroke="#666666" points="79,-46.5 79,-46.5 203,-46.5 203,-46.5 79,-46.5"/>
<polygon fill="#666666" stroke="#666666" points="79,-31.5 79,-31.5 203,-31.5 203,-31.5 79,-31.5"/>
<polygon fill="none" stroke="#666666" points="79,0 79,-75 203,-75 203,0 79,0"/>
</a>
</g>
</g>
<!-- Node2 -->
<g id="Node000002" class="node">
<title>Node2</title>
<g id="a_Node000002"><a xlink:title=" ">
<polygon fill="white" stroke="transparent" points="142,-204 0,-204 0,-133 142,-133 142,-204"/>
<text text-anchor="start" x="5" y="-191.5" font-family="Helvetica,sans-Serif" font-size="10.00">cv::cudev::unary_function</text>
<text text-anchor="start" x="5" y="-180.5" font-family="Helvetica,sans-Serif" font-size="10.00">&lt; MakeVec&lt; T, cn &gt;::type,</text>
<text text-anchor="start" x="50" y="-169.5" font-family="Helvetica,sans-Serif" font-size="10.00"> uchar &gt;</text>
<text text-anchor="start" x="69" y="-154.5" font-family="Helvetica,sans-Serif" font-size="10.00"> </text>
<text text-anchor="start" x="69" y="-139.5" font-family="Helvetica,sans-Serif" font-size="10.00"> </text>
<polygon fill="#666666" stroke="#666666" points="0,-164.5 0,-164.5 142,-164.5 142,-164.5 0,-164.5"/>
<polygon fill="#666666" stroke="#666666" points="0,-149.5 0,-149.5 142,-149.5 142,-149.5 0,-149.5"/>
<polygon fill="none" stroke="#666666" points="0,-133 0,-204 142,-204 142,-133 0,-133"/>
</a>
</g>
</g>
<!-- Node2&#45;&gt;Node1 -->
<g id="edge1_Node000001_Node000002" class="edge">
<title>Node2&#45;&gt;Node1</title>
<g id="a_edge1_Node000001_Node000002"><a xlink:title=" ">
<path fill="none" stroke="#63b8ff" d="M94.66,-123.91C103.2,-108.16 112.76,-90.55 120.96,-75.43"/>
<polygon fill="none" stroke="#63b8ff" points="91.45,-122.47 89.76,-132.93 97.6,-125.81 91.45,-122.47"/>
</a>
</g>
</g>
<!-- Node3 -->
<g id="Node000003" class="node">
<title>Node3</title>
<g id="a_Node000003"><a xlink:href="../../df/d11/structcv_1_1cudev_1_1unary__function.html" target="_top" xlink:title=" ">
<polygon fill="white" stroke="transparent" points="138,-322 4,-322 4,-262 138,-262 138,-322"/>
<text text-anchor="start" x="9" y="-310" font-family="Helvetica,sans-Serif" font-size="10.00">cv::cudev::unary_function</text>
<text text-anchor="start" x="27.5" y="-299" font-family="Helvetica,sans-Serif" font-size="10.00">&lt; _Arg, _Result &gt;</text>
<text text-anchor="start" x="69" y="-284" font-family="Helvetica,sans-Serif" font-size="10.00"> </text>
<text text-anchor="start" x="69" y="-269" font-family="Helvetica,sans-Serif" font-size="10.00"> </text>
<polygon fill="#666666" stroke="#666666" points="4,-294 4,-294 138,-294 138,-294 4,-294"/>
<polygon fill="#666666" stroke="#666666" points="4,-279 4,-279 138,-279 138,-279 4,-279"/>
<polygon fill="none" stroke="#666666" points="4,-262 4,-322 138,-322 138,-262 4,-262"/>
</a>
</g>
</g>
<!-- Node3&#45;&gt;Node2 -->
<g id="edge2_Node000002_Node000003" class="edge">
<title>Node3&#45;&gt;Node2</title>
<g id="a_edge2_Node000002_Node000003"><a xlink:title=" ">
<path fill="none" stroke="orange" d="M71,-251.74C71,-236.51 71,-219.21 71,-204.42"/>
<polygon fill="orange" stroke="orange" points="67.5,-251.9 71,-261.9 74.5,-251.9 67.5,-251.9"/>
</a>
</g>
<text text-anchor="start" x="71" y="-236" font-family="Helvetica,sans-Serif" font-size="10.00" fill="grey"> &lt; MakeVec&lt; T, cn &gt;</text>
<text text-anchor="middle" x="123" y="-225" font-family="Helvetica,sans-Serif" font-size="10.00" fill="grey">::type, uchar &gt;</text>
</g>
<!-- Node4 -->
<g id="Node000004" class="node">
<title>Node4</title>
<g id="a_Node000004"><a xlink:title=" ">
<polygon fill="white" stroke="transparent" points="265.5,-198.5 160.5,-198.5 160.5,-138.5 265.5,-138.5 265.5,-198.5"/>
<text text-anchor="start" x="166" y="-186.5" font-family="Helvetica,sans-Serif" font-size="10.00">cv::cudev::MakeVec</text>
<text text-anchor="start" x="190.5" y="-175.5" font-family="Helvetica,sans-Serif" font-size="10.00">&lt; T, cn &gt;</text>
<text text-anchor="start" x="211.5" y="-160.5" font-family="Helvetica,sans-Serif" font-size="10.00"> </text>
<text text-anchor="start" x="211.5" y="-145.5" font-family="Helvetica,sans-Serif" font-size="10.00"> </text>
<polygon fill="#666666" stroke="#666666" points="161,-170.5 161,-170.5 266,-170.5 266,-170.5 161,-170.5"/>
<polygon fill="#666666" stroke="#666666" points="161,-155.5 161,-155.5 266,-155.5 266,-155.5 161,-155.5"/>
<polygon fill="none" stroke="#666666" points="160.5,-138.5 160.5,-198.5 265.5,-198.5 265.5,-138.5 160.5,-138.5"/>
</a>
</g>
</g>
<!-- Node4&#45;&gt;Node1 -->
<g id="edge3_Node000001_Node000004" class="edge">
<title>Node4&#45;&gt;Node1</title>
<g id="a_edge3_Node000001_Node000004"><a xlink:title=" ">
<path fill="none" stroke="#63b8ff" d="M196.66,-138.23C188,-122.71 177.16,-103.28 167.34,-85.7"/>
<polygon fill="none" stroke="#63b8ff" points="167.24,-85.52 160.83,-82.23 161.39,-75.04 167.81,-78.33 167.24,-85.52"/>
</a>
</g>
<text text-anchor="middle" x="206.5" y="-107" font-family="Helvetica,sans-Serif" font-size="10.00" fill="grey"> +lowerb</text>
<text text-anchor="middle" x="206.5" y="-96" font-family="Helvetica,sans-Serif" font-size="10.00" fill="grey">+upperb</text>
</g>
<!-- Node5 -->
<g id="Node000005" class="node">
<title>Node5</title>
<g id="a_Node000005"><a xlink:href="../../d9/db1/structcv_1_1cudev_1_1MakeVec.html" target="_top" xlink:title=" ">
<polygon fill="white" stroke="transparent" points="265.5,-322 160.5,-322 160.5,-262 265.5,-262 265.5,-322"/>
<text text-anchor="start" x="166" y="-310" font-family="Helvetica,sans-Serif" font-size="10.00">cv::cudev::MakeVec</text>
<text text-anchor="start" x="189" y="-299" font-family="Helvetica,sans-Serif" font-size="10.00">&lt; T, CN &gt;</text>
<text text-anchor="start" x="211.5" y="-284" font-family="Helvetica,sans-Serif" font-size="10.00"> </text>
<text text-anchor="start" x="211.5" y="-269" font-family="Helvetica,sans-Serif" font-size="10.00"> </text>
<polygon fill="#666666" stroke="#666666" points="161,-294 161,-294 266,-294 266,-294 161,-294"/>
<polygon fill="#666666" stroke="#666666" points="161,-279 161,-279 266,-279 266,-279 161,-279"/>
<polygon fill="none" stroke="#666666" points="160.5,-262 160.5,-322 265.5,-322 265.5,-262 160.5,-262"/>
</a>
</g>
</g>
<!-- Node5&#45;&gt;Node4 -->
<g id="edge4_Node000004_Node000005" class="edge">
<title>Node5&#45;&gt;Node4</title>
<g id="a_edge4_Node000004_Node000005"><a xlink:title=" ">
<path fill="none" stroke="orange" d="M213,-251.6C213,-234.42 213,-214.63 213,-198.79"/>
<polygon fill="orange" stroke="orange" points="209.5,-251.9 213,-261.9 216.5,-251.9 209.5,-251.9"/>
</a>
</g>
<text text-anchor="middle" x="237.5" y="-230.5" font-family="Helvetica,sans-Serif" font-size="10.00" fill="grey"> &lt; T, cn &gt;</text>
</g>
</g>
</svg>
