<?xml version="1.0" encoding="UTF-8" standalone="no"?>
<!DOCTYPE svg PUBLIC "-//W3C//DTD SVG 1.1//EN"
 "http://www.w3.org/Graphics/SVG/1.1/DTD/svg11.dtd">
<!-- Generated by graphviz version 2.43.0 (0)
 -->
<!-- Title: cv::gapi::ov::Params::cfgMean Pages: 1 -->
<svg width="458pt" height="38pt"
 viewBox="0.00 0.00 458.00 38.00" xmlns="http://www.w3.org/2000/svg" xmlns:xlink="http://www.w3.org/1999/xlink">
<g id="graph0" class="graph" transform="scale(1 1) rotate(0) translate(4 34)">
<title>cv::gapi::ov::Params::cfgMean</title>
<!-- Node1 -->
<g id="Node000001" class="node">
<title>Node1</title>
<g id="a_Node000001"><a xlink:title="Specifies mean values for preprocessing.">
<polygon fill="#999999" stroke="#666666" points="113,-30 0,-30 0,0 113,0 113,-30"/>
<text text-anchor="start" x="8" y="-18" font-family="Helvetica,sans-Serif" font-size="10.00">cv::gapi::ov::Params</text>
<text text-anchor="middle" x="56.5" y="-7" font-family="Helvetica,sans-Serif" font-size="10.00">::cfgMean</text>
</a>
</g>
</g>
<!-- Node2 -->
<g id="Node000002" class="node">
<title>Node2</title>
<g id="a_Node000002"><a xlink:href="../../dd/dcf/namespacecv_1_1gapi_1_1ov_1_1detail.html#ac664c69c5bdea8330e2739b26bdf74f5" target="_top" xlink:title=" ">
<polygon fill="white" stroke="#666666" points="303,-30 149,-30 149,0 303,0 303,-30"/>
<text text-anchor="start" x="157" y="-18" font-family="Helvetica,sans-Serif" font-size="10.00">cv::gapi::ov::detail</text>
<text text-anchor="middle" x="226" y="-7" font-family="Helvetica,sans-Serif" font-size="10.00">::getModelToSetAttrOrThrow</text>
</a>
</g>
</g>
<!-- Node1&#45;&gt;Node2 -->
<g id="edge1_Node000001_Node000002" class="edge">
<title>Node1&#45;&gt;Node2</title>
<g id="a_edge1_Node000001_Node000002"><a xlink:title=" ">
<path fill="none" stroke="#63b8ff" d="M113.28,-15C121.48,-15 130.1,-15 138.75,-15"/>
<polygon fill="#63b8ff" stroke="#63b8ff" points="138.89,-18.5 148.89,-15 138.89,-11.5 138.89,-18.5"/>
</a>
</g>
</g>
<!-- Node3 -->
<g id="Node000003" class="node">
<title>Node3</title>
<g id="a_Node000003"><a xlink:href="../../d3/dce/namespacecv_1_1util.html#a40544b3ca23b3917f2a5de6b0273079d" target="_top" xlink:title=" ">
<polygon fill="white" stroke="#666666" points="450,-24.5 339,-24.5 339,-5.5 450,-5.5 450,-24.5"/>
<text text-anchor="middle" x="394.5" y="-12.5" font-family="Helvetica,sans-Serif" font-size="10.00">cv::util::throw_error</text>
</a>
</g>
</g>
<!-- Node2&#45;&gt;Node3 -->
<g id="edge2_Node000002_Node000003" class="edge">
<title>Node2&#45;&gt;Node3</title>
<g id="a_edge2_Node000002_Node000003"><a xlink:title=" ">
<path fill="none" stroke="#63b8ff" d="M303.43,-15C311.94,-15 320.54,-15 328.88,-15"/>
<polygon fill="#63b8ff" stroke="#63b8ff" points="328.9,-18.5 338.9,-15 328.9,-11.5 328.9,-18.5"/>
</a>
</g>
</g>
</g>
</svg>
