<?xml version="1.0" encoding="UTF-8" standalone="no"?>
<!DOCTYPE svg PUBLIC "-//W3C//DTD SVG 1.1//EN"
 "http://www.w3.org/Graphics/SVG/1.1/DTD/svg11.dtd">
<!-- Generated by graphviz version 2.43.0 (0)
 -->
<!-- Title: cv::cudev::PtrTraits&lt; NearestInterPtrSz&lt; SrcPtr &gt; &gt; Pages: 1 -->
<svg width="222pt" height="376pt"
 viewBox="0.00 0.00 222.00 376.00" xmlns="http://www.w3.org/2000/svg" xmlns:xlink="http://www.w3.org/1999/xlink">
<g id="graph0" class="graph" transform="scale(1 1) rotate(0) translate(4 372)">
<title>cv::cudev::PtrTraits&lt; NearestInterPtrSz&lt; SrcPtr &gt; &gt;</title>
<!-- Node1 -->
<g id="Node000001" class="node">
<title>Node1</title>
<g id="a_Node000001"><a xlink:title=" ">
<polygon fill="#999999" stroke="transparent" points="140,-71 24,-71 24,0 140,0 140,-71"/>
<text text-anchor="start" x="29" y="-58.5" font-family="Helvetica,sans-Serif" font-size="10.00">cv::cudev::PtrTraits</text>
<text text-anchor="start" x="29" y="-47.5" font-family="Helvetica,sans-Serif" font-size="10.00">&lt; NearestInterPtrSz&lt;</text>
<text text-anchor="start" x="54.5" y="-36.5" font-family="Helvetica,sans-Serif" font-size="10.00"> SrcPtr &gt; &gt;</text>
<text text-anchor="start" x="80" y="-21.5" font-family="Helvetica,sans-Serif" font-size="10.00"> </text>
<text text-anchor="start" x="80" y="-6.5" font-family="Helvetica,sans-Serif" font-size="10.00"> </text>
<polygon fill="#666666" stroke="#666666" points="24,-31.5 24,-31.5 140,-31.5 140,-31.5 24,-31.5"/>
<polygon fill="#666666" stroke="#666666" points="24,-16.5 24,-16.5 140,-16.5 140,-16.5 24,-16.5"/>
<polygon fill="none" stroke="#666666" points="24,0 24,-71 140,-71 140,0 24,0"/>
</a>
</g>
</g>
<!-- Node2 -->
<g id="Node000002" class="node">
<title>Node2</title>
<g id="a_Node000002"><a xlink:href="../../db/d3c/structcv_1_1cudev_1_1PtrTraitsBase.html" target="_top" xlink:title=" ">
<polygon fill="white" stroke="transparent" points="164,-209 0,-209 0,-108 164,-108 164,-209"/>
<text text-anchor="start" x="5" y="-196.5" font-family="Helvetica,sans-Serif" font-size="10.00">cv::cudev::PtrTraitsBase</text>
<text text-anchor="start" x="5" y="-185.5" font-family="Helvetica,sans-Serif" font-size="10.00">&lt; NearestInterPtrSz&lt; SrcPtr</text>
<text text-anchor="start" x="5" y="-174.5" font-family="Helvetica,sans-Serif" font-size="10.00"> &gt;, NearestInterPtr&lt; SrcPtr &gt; &gt;</text>
<text text-anchor="start" x="80" y="-159.5" font-family="Helvetica,sans-Serif" font-size="10.00"> </text>
<text text-anchor="start" x="26.5" y="-144.5" font-family="Helvetica,sans-Serif" font-size="10.00">+</text>
<text text-anchor="start" x="62" y="-144.5" font-family="Helvetica,sans-Serif" font-size="10.00">getCols()</text>
<text text-anchor="start" x="26.5" y="-129.5" font-family="Helvetica,sans-Serif" font-size="10.00">+</text>
<text text-anchor="start" x="62" y="-129.5" font-family="Helvetica,sans-Serif" font-size="10.00">getRows()</text>
<text text-anchor="start" x="26.5" y="-114.5" font-family="Helvetica,sans-Serif" font-size="10.00">+</text>
<text text-anchor="start" x="62" y="-114.5" font-family="Helvetica,sans-Serif" font-size="10.00">shrinkPtr()</text>
<polygon fill="#666666" stroke="#666666" points="0,-169.5 0,-169.5 164,-169.5 164,-169.5 0,-169.5"/>
<polygon fill="#666666" stroke="#666666" points="0,-154.5 0,-154.5 164,-154.5 164,-154.5 0,-154.5"/>
<polygon fill="none" stroke="#666666" points="0,-108 0,-209 164,-209 164,-108 0,-108"/>
</a>
</g>
</g>
<!-- Node2&#45;&gt;Node1 -->
<g id="edge1_Node000001_Node000002" class="edge">
<title>Node2&#45;&gt;Node1</title>
<g id="a_edge1_Node000001_Node000002"><a xlink:title=" ">
<path fill="none" stroke="#63b8ff" d="M82,-97.67C82,-88.52 82,-79.36 82,-71.01"/>
<polygon fill="none" stroke="#63b8ff" points="78.5,-97.94 82,-107.94 85.5,-97.94 78.5,-97.94"/>
</a>
</g>
</g>
<!-- Node3 -->
<g id="Node000003" class="node">
<title>Node3</title>
<g id="a_Node000003"><a xlink:href="../../db/d3c/structcv_1_1cudev_1_1PtrTraitsBase.html" target="_top" xlink:title=" ">
<polygon fill="white" stroke="transparent" points="144.5,-368 19.5,-368 19.5,-278 144.5,-278 144.5,-368"/>
<text text-anchor="start" x="25" y="-356" font-family="Helvetica,sans-Serif" font-size="10.00">cv::cudev::PtrTraitsBase</text>
<text text-anchor="start" x="35.5" y="-345" font-family="Helvetica,sans-Serif" font-size="10.00">&lt; Ptr2DSz, Ptr2D &gt;</text>
<text text-anchor="start" x="80.5" y="-330" font-family="Helvetica,sans-Serif" font-size="10.00"> </text>
<text text-anchor="start" x="37" y="-315" font-family="Helvetica,sans-Serif" font-size="10.00">+</text>
<text text-anchor="start" x="63" y="-315" font-family="Helvetica,sans-Serif" font-size="10.00">getCols()</text>
<text text-anchor="start" x="37" y="-300" font-family="Helvetica,sans-Serif" font-size="10.00">+</text>
<text text-anchor="start" x="63" y="-300" font-family="Helvetica,sans-Serif" font-size="10.00">getRows()</text>
<text text-anchor="start" x="37" y="-285" font-family="Helvetica,sans-Serif" font-size="10.00">+</text>
<text text-anchor="start" x="63" y="-285" font-family="Helvetica,sans-Serif" font-size="10.00">shrinkPtr()</text>
<polygon fill="#666666" stroke="#666666" points="20,-340 20,-340 145,-340 145,-340 20,-340"/>
<polygon fill="#666666" stroke="#666666" points="20,-325 20,-325 145,-325 145,-325 20,-325"/>
<polygon fill="none" stroke="#666666" points="19.5,-278 19.5,-368 144.5,-368 144.5,-278 19.5,-278"/>
</a>
</g>
</g>
<!-- Node3&#45;&gt;Node2 -->
<g id="edge2_Node000002_Node000003" class="edge">
<title>Node3&#45;&gt;Node2</title>
<g id="a_edge2_Node000002_Node000003"><a xlink:title=" ">
<path fill="none" stroke="orange" d="M82,-267.36C82,-248.48 82,-227.44 82,-209"/>
<polygon fill="orange" stroke="orange" points="78.5,-267.6 82,-277.6 85.5,-267.6 78.5,-267.6"/>
</a>
</g>
<text text-anchor="start" x="82" y="-252" font-family="Helvetica,sans-Serif" font-size="10.00" fill="grey"> &lt; NearestInterPtrSz</text>
<text text-anchor="start" x="82" y="-241" font-family="Helvetica,sans-Serif" font-size="10.00" fill="grey">&lt; SrcPtr &gt;, NearestInterPtr</text>
<text text-anchor="middle" x="148" y="-230" font-family="Helvetica,sans-Serif" font-size="10.00" fill="grey">&lt; SrcPtr &gt; &gt;</text>
</g>
</g>
</svg>
