<?xml version="1.0" encoding="UTF-8" standalone="no"?>
<!DOCTYPE svg PUBLIC "-//W3C//DTD SVG 1.1//EN"
 "http://www.w3.org/Graphics/SVG/1.1/DTD/svg11.dtd">
<!-- Generated by graphviz version 2.43.0 (0)
 -->
<!-- Title: cv::cudev::TransposeBody&lt; SrcPtr &gt; Pages: 1 -->
<svg width="143pt" height="164pt"
 viewBox="0.00 0.00 143.00 164.00" xmlns="http://www.w3.org/2000/svg" xmlns:xlink="http://www.w3.org/1999/xlink">
<g id="graph0" class="graph" transform="scale(1 1) rotate(0) translate(4 160)">
<title>cv::cudev::TransposeBody&lt; SrcPtr &gt;</title>
<!-- Node1 -->
<g id="Node000001" class="node">
<title>Node1</title>
<g id="a_Node000001"><a xlink:title=" ">
<polygon fill="#999999" stroke="transparent" points="135,-60 0,-60 0,0 135,0 135,-60"/>
<text text-anchor="start" x="5.5" y="-48" font-family="Helvetica,sans-Serif" font-size="10.00">cv::cudev::TransposeBody</text>
<text text-anchor="start" x="42" y="-37" font-family="Helvetica,sans-Serif" font-size="10.00">&lt; SrcPtr &gt;</text>
<text text-anchor="start" x="66" y="-22" font-family="Helvetica,sans-Serif" font-size="10.00"> </text>
<text text-anchor="start" x="20.5" y="-7" font-family="Helvetica,sans-Serif" font-size="10.00">+</text>
<text text-anchor="start" x="49.5" y="-7" font-family="Helvetica,sans-Serif" font-size="10.00">assignTo()</text>
<polygon fill="#666666" stroke="#666666" points="0.5,-32 0.5,-32 135.5,-32 135.5,-32 0.5,-32"/>
<polygon fill="#666666" stroke="#666666" points="0.5,-17 0.5,-17 135.5,-17 135.5,-17 0.5,-17"/>
<polygon fill="none" stroke="#666666" points="0,0 0,-60 135,-60 135,0 0,0"/>
</a>
</g>
</g>
<!-- Node2 -->
<g id="Node000002" class="node">
<title>Node2</title>
<g id="a_Node000002"><a xlink:title=" ">
<polygon fill="white" stroke="transparent" points="87,-156 48,-156 48,-107 87,-107 87,-156"/>
<text text-anchor="start" x="53.5" y="-143.5" font-family="Helvetica,sans-Serif" font-size="10.00">SrcPtr</text>
<text text-anchor="start" x="66" y="-128.5" font-family="Helvetica,sans-Serif" font-size="10.00"> </text>
<text text-anchor="start" x="66" y="-113.5" font-family="Helvetica,sans-Serif" font-size="10.00"> </text>
<polygon fill="#666666" stroke="#666666" points="48.5,-138.5 48.5,-138.5 87.5,-138.5 87.5,-138.5 48.5,-138.5"/>
<polygon fill="#666666" stroke="#666666" points="48.5,-123.5 48.5,-123.5 87.5,-123.5 87.5,-123.5 48.5,-123.5"/>
<polygon fill="none" stroke="#666666" points="48,-107 48,-156 87,-156 87,-107 48,-107"/>
</a>
</g>
</g>
<!-- Node2&#45;&gt;Node1 -->
<g id="edge1_Node000001_Node000002" class="edge">
<title>Node2&#45;&gt;Node1</title>
<g id="a_edge1_Node000001_Node000002"><a xlink:title=" ">
<path fill="none" stroke="#63b8ff" d="M67.5,-106.92C67.5,-96.51 67.5,-83.97 67.5,-72.1"/>
<polygon fill="none" stroke="#63b8ff" points="67.5,-72.1 63.5,-66.1 67.5,-60.1 71.5,-66.1 67.5,-72.1"/>
</a>
</g>
<text text-anchor="middle" x="80.5" y="-81" font-family="Helvetica,sans-Serif" font-size="10.00" fill="grey"> +src</text>
</g>
</g>
</svg>
