<?xml version="1.0" encoding="UTF-8" standalone="no"?>
<!DOCTYPE svg PUBLIC "-//W3C//DTD SVG 1.1//EN"
 "http://www.w3.org/Graphics/SVG/1.1/DTD/svg11.dtd">
<!-- Generated by graphviz version 2.43.0 (0)
 -->
<!-- Title: cv::detail::tracking::TrackerStateEstimatorSVM Pages: 1 -->
<svg width="174pt" height="493pt"
 viewBox="0.00 0.00 174.00 493.00" xmlns="http://www.w3.org/2000/svg" xmlns:xlink="http://www.w3.org/1999/xlink">
<g id="graph0" class="graph" transform="scale(1 1) rotate(0) translate(4 489)">
<title>cv::detail::tracking::TrackerStateEstimatorSVM</title>
<!-- Node1 -->
<g id="Node000001" class="node">
<title>Node1</title>
<g id="a_Node000001"><a xlink:title="TrackerStateEstimator based on SVM.">
<polygon fill="#999999" stroke="transparent" points="166,-105 0,-105 0,0 166,0 166,-105"/>
<text text-anchor="start" x="15" y="-92.5" font-family="Helvetica,sans-Serif" font-size="10.00">cv::detail::tracking</text>
<text text-anchor="start" x="15" y="-81.5" font-family="Helvetica,sans-Serif" font-size="10.00">::TrackerStateEstimatorSVM</text>
<text text-anchor="start" x="81" y="-66.5" font-family="Helvetica,sans-Serif" font-size="10.00"> </text>
<text text-anchor="start" x="4" y="-51.5" font-family="Helvetica,sans-Serif" font-size="10.00">+</text>
<text text-anchor="start" x="17" y="-51.5" font-family="Helvetica,sans-Serif" font-size="10.00">TrackerStateEstimatorSVM()</text>
<text text-anchor="start" x="4" y="-36.5" font-family="Helvetica,sans-Serif" font-size="10.00">+</text>
<text text-anchor="start" x="17" y="-36.5" font-family="Helvetica,sans-Serif" font-size="10.00">~TrackerStateEstimatorSVM()</text>
<text text-anchor="start" x="4" y="-21.5" font-family="Helvetica,sans-Serif" font-size="10.00">#</text>
<text text-anchor="start" x="17" y="-21.5" font-family="Helvetica,sans-Serif" font-size="10.00">estimateImpl()</text>
<text text-anchor="start" x="4" y="-6.5" font-family="Helvetica,sans-Serif" font-size="10.00">#</text>
<text text-anchor="start" x="17" y="-6.5" font-family="Helvetica,sans-Serif" font-size="10.00">updateImpl()</text>
<polygon fill="#666666" stroke="#666666" points="0,-76.5 0,-76.5 166,-76.5 166,-76.5 0,-76.5"/>
<polygon fill="#666666" stroke="#666666" points="0,-61.5 0,-61.5 166,-61.5 166,-61.5 0,-61.5"/>
<polygon fill="none" stroke="#666666" points="0,0 0,-105 166,-105 166,0 0,0"/>
</a>
</g>
</g>
<!-- Node2 -->
<g id="Node000002" class="node">
<title>Node2</title>
<g id="a_Node000002"><a xlink:href="../../d8/dd0/classcv_1_1detail_1_1tracking_1_1TrackerStateEstimator.html" target="_top" xlink:title="Abstract base class for TrackerStateEstimator that estimates the most likely target state.">
<polygon fill="white" stroke="transparent" points="155.5,-292 10.5,-292 10.5,-142 155.5,-142 155.5,-292"/>
<text text-anchor="start" x="26.5" y="-280" font-family="Helvetica,sans-Serif" font-size="10.00">cv::detail::tracking</text>
<text text-anchor="start" x="26.5" y="-269" font-family="Helvetica,sans-Serif" font-size="10.00">::TrackerStateEstimator</text>
<text text-anchor="start" x="81.5" y="-254" font-family="Helvetica,sans-Serif" font-size="10.00"> </text>
<text text-anchor="start" x="15" y="-239" font-family="Helvetica,sans-Serif" font-size="10.00">+</text>
<text text-anchor="start" x="28" y="-239" font-family="Helvetica,sans-Serif" font-size="10.00">~TrackerStateEstimator()</text>
<text text-anchor="start" x="15" y="-224" font-family="Helvetica,sans-Serif" font-size="10.00">+</text>
<text text-anchor="start" x="28" y="-224" font-family="Helvetica,sans-Serif" font-size="10.00">estimate()</text>
<text text-anchor="start" x="15" y="-209" font-family="Helvetica,sans-Serif" font-size="10.00">+</text>
<text text-anchor="start" x="28" y="-209" font-family="Helvetica,sans-Serif" font-size="10.00">getClassName()</text>
<text text-anchor="start" x="15" y="-194" font-family="Helvetica,sans-Serif" font-size="10.00">+</text>
<text text-anchor="start" x="28" y="-194" font-family="Helvetica,sans-Serif" font-size="10.00">update()</text>
<text text-anchor="start" x="15" y="-179" font-family="Helvetica,sans-Serif" font-size="10.00">+</text>
<text text-anchor="start" x="28" y="-179" font-family="Helvetica,sans-Serif" font-size="10.00">create()</text>
<text text-anchor="start" x="15" y="-164" font-family="Helvetica,sans-Serif" font-size="10.00">#</text>
<text text-anchor="start" x="28" y="-164" font-family="Helvetica,sans-Serif" font-size="10.00">estimateImpl()</text>
<text text-anchor="start" x="15" y="-149" font-family="Helvetica,sans-Serif" font-size="10.00">#</text>
<text text-anchor="start" x="28" y="-149" font-family="Helvetica,sans-Serif" font-size="10.00">updateImpl()</text>
<polygon fill="#666666" stroke="#666666" points="11,-264 11,-264 156,-264 156,-264 11,-264"/>
<polygon fill="#666666" stroke="#666666" points="11,-249 11,-249 156,-249 156,-249 11,-249"/>
<polygon fill="none" stroke="#666666" points="10.5,-142 10.5,-292 155.5,-292 155.5,-142 10.5,-142"/>
</a>
</g>
</g>
<!-- Node2&#45;&gt;Node1 -->
<g id="edge1_Node000001_Node000002" class="edge">
<title>Node2&#45;&gt;Node1</title>
<g id="a_edge1_Node000001_Node000002"><a xlink:title=" ">
<path fill="none" stroke="#63b8ff" d="M83,-131.69C83,-122.67 83,-113.69 83,-105.21"/>
<polygon fill="none" stroke="#63b8ff" points="79.5,-131.88 83,-141.88 86.5,-131.88 79.5,-131.88"/>
</a>
</g>
</g>
<!-- Node3 -->
<g id="Node000003" class="node">
<title>Node3</title>
<g id="a_Node000003"><a xlink:title=" ">
<polygon fill="white" stroke="transparent" points="112.5,-388 53.5,-388 53.5,-339 112.5,-339 112.5,-388"/>
<text text-anchor="start" x="59" y="-375.5" font-family="Helvetica,sans-Serif" font-size="10.00">std::string</text>
<text text-anchor="start" x="81.5" y="-360.5" font-family="Helvetica,sans-Serif" font-size="10.00"> </text>
<text text-anchor="start" x="81.5" y="-345.5" font-family="Helvetica,sans-Serif" font-size="10.00"> </text>
<polygon fill="#666666" stroke="#666666" points="54,-370.5 54,-370.5 113,-370.5 113,-370.5 54,-370.5"/>
<polygon fill="#666666" stroke="#666666" points="54,-355.5 54,-355.5 113,-355.5 113,-355.5 54,-355.5"/>
<polygon fill="none" stroke="#666666" points="53.5,-339 53.5,-388 112.5,-388 112.5,-339 53.5,-339"/>
</a>
</g>
</g>
<!-- Node3&#45;&gt;Node2 -->
<g id="edge2_Node000002_Node000003" class="edge">
<title>Node3&#45;&gt;Node2</title>
<g id="a_edge2_Node000002_Node000003"><a xlink:title=" ">
<path fill="none" stroke="#63b8ff" d="M83,-338.96C83,-329.14 83,-317.08 83,-304.41"/>
<polygon fill="none" stroke="#63b8ff" points="83,-304.13 79,-298.13 83,-292.13 87,-298.13 83,-304.13"/>
</a>
</g>
<text text-anchor="middle" x="116" y="-313" font-family="Helvetica,sans-Serif" font-size="10.00" fill="grey"> #className</text>
</g>
<!-- Node4 -->
<g id="Node000004" class="node">
<title>Node4</title>
<g id="a_Node000004"><a xlink:title=" ">
<polygon fill="white" stroke="transparent" points="132,-485 34,-485 34,-425 132,-425 132,-485"/>
<text text-anchor="start" x="39" y="-473" font-family="Helvetica,sans-Serif" font-size="10.00">std::basic_string&lt;</text>
<text text-anchor="start" x="64.5" y="-462" font-family="Helvetica,sans-Serif" font-size="10.00"> Char &gt;</text>
<text text-anchor="start" x="81" y="-447" font-family="Helvetica,sans-Serif" font-size="10.00"> </text>
<text text-anchor="start" x="81" y="-432" font-family="Helvetica,sans-Serif" font-size="10.00"> </text>
<polygon fill="#666666" stroke="#666666" points="34,-457 34,-457 132,-457 132,-457 34,-457"/>
<polygon fill="#666666" stroke="#666666" points="34,-442 34,-442 132,-442 132,-442 34,-442"/>
<polygon fill="none" stroke="#666666" points="34,-425 34,-485 132,-485 132,-425 34,-425"/>
</a>
</g>
</g>
<!-- Node4&#45;&gt;Node3 -->
<g id="edge3_Node000003_Node000004" class="edge">
<title>Node4&#45;&gt;Node3</title>
<g id="a_edge3_Node000003_Node000004"><a xlink:title=" ">
<path fill="none" stroke="#63b8ff" d="M83,-414.41C83,-405.47 83,-396.25 83,-388.21"/>
<polygon fill="none" stroke="#63b8ff" points="79.5,-414.69 83,-424.69 86.5,-414.69 79.5,-414.69"/>
</a>
</g>
</g>
</g>
</svg>
