<?xml version="1.0" encoding="UTF-8" standalone="no"?>
<!DOCTYPE svg PUBLIC "-//W3C//DTD SVG 1.1//EN"
 "http://www.w3.org/Graphics/SVG/1.1/DTD/svg11.dtd">
<!-- Generated by graphviz version 2.43.0 (0)
 -->
<!-- Title: cv::stereo::MatchQuasiDense Pages: 1 -->
<svg width="241pt" height="779pt"
 viewBox="0.00 0.00 241.00 779.00" xmlns="http://www.w3.org/2000/svg" xmlns:xlink="http://www.w3.org/1999/xlink">
<g id="graph0" class="graph" transform="scale(1 1) rotate(0) translate(4 775)">
<title>cv::stereo::MatchQuasiDense</title>
<!-- Node1 -->
<g id="Node000001" class="node">
<title>Node1</title>
<g id="a_Node000001"><a xlink:title=" ">
<polygon fill="#999999" stroke="transparent" points="204.5,-64 52.5,-64 52.5,0 204.5,0 204.5,-64"/>
<text text-anchor="start" x="57.5" y="-52" font-family="Helvetica,sans-Serif" font-size="10.00">cv::stereo::MatchQuasiDense</text>
<text text-anchor="start" x="126.5" y="-37" font-family="Helvetica,sans-Serif" font-size="10.00"> </text>
<text text-anchor="start" x="65" y="-22" font-family="Helvetica,sans-Serif" font-size="10.00">+</text>
<text text-anchor="start" x="86.5" y="-22" font-family="Helvetica,sans-Serif" font-size="10.00">MatchQuasiDense()</text>
<text text-anchor="start" x="65" y="-7" font-family="Helvetica,sans-Serif" font-size="10.00">+</text>
<text text-anchor="start" x="86.5" y="-7" font-family="Helvetica,sans-Serif" font-size="10.00">operator&lt;()</text>
<polygon fill="#666666" stroke="#666666" points="52.5,-47 52.5,-47 204.5,-47 204.5,-47 52.5,-47"/>
<polygon fill="#666666" stroke="#666666" points="52.5,-32 52.5,-32 204.5,-32 204.5,-32 52.5,-32"/>
<polygon fill="none" stroke="#666666" points="52.5,0 52.5,-64 204.5,-64 204.5,0 52.5,0"/>
</a>
</g>
</g>
<!-- Node2 -->
<g id="Node000002" class="node">
<title>Node2</title>
<g id="a_Node000002"><a xlink:href="../../db/d4e/classcv_1_1Point__.html" target="_top" xlink:title=" ">
<polygon fill="white" stroke="transparent" points="149,-351 0,-351 0,-122 149,-122 149,-351"/>
<text text-anchor="start" x="34" y="-338.5" font-family="Helvetica,sans-Serif" font-size="10.00">cv::Point_&lt; int &gt;</text>
<text text-anchor="start" x="73" y="-323.5" font-family="Helvetica,sans-Serif" font-size="10.00"> </text>
<text text-anchor="start" x="4.5" y="-308.5" font-family="Helvetica,sans-Serif" font-size="10.00">+</text>
<text text-anchor="start" x="17.5" y="-308.5" font-family="Helvetica,sans-Serif" font-size="10.00">Point_()</text>
<text text-anchor="start" x="4.5" y="-293.5" font-family="Helvetica,sans-Serif" font-size="10.00">+</text>
<text text-anchor="start" x="17.5" y="-293.5" font-family="Helvetica,sans-Serif" font-size="10.00">Point_()</text>
<text text-anchor="start" x="4.5" y="-278.5" font-family="Helvetica,sans-Serif" font-size="10.00">+</text>
<text text-anchor="start" x="17.5" y="-278.5" font-family="Helvetica,sans-Serif" font-size="10.00">Point_()</text>
<text text-anchor="start" x="4.5" y="-263.5" font-family="Helvetica,sans-Serif" font-size="10.00">+</text>
<text text-anchor="start" x="17.5" y="-263.5" font-family="Helvetica,sans-Serif" font-size="10.00">Point_()</text>
<text text-anchor="start" x="4.5" y="-248.5" font-family="Helvetica,sans-Serif" font-size="10.00">+</text>
<text text-anchor="start" x="17.5" y="-248.5" font-family="Helvetica,sans-Serif" font-size="10.00">Point_()</text>
<text text-anchor="start" x="4.5" y="-233.5" font-family="Helvetica,sans-Serif" font-size="10.00">+</text>
<text text-anchor="start" x="17.5" y="-233.5" font-family="Helvetica,sans-Serif" font-size="10.00">Point_()</text>
<text text-anchor="start" x="4.5" y="-218.5" font-family="Helvetica,sans-Serif" font-size="10.00">+</text>
<text text-anchor="start" x="17.5" y="-218.5" font-family="Helvetica,sans-Serif" font-size="10.00">cross()</text>
<text text-anchor="start" x="4.5" y="-203.5" font-family="Helvetica,sans-Serif" font-size="10.00">+</text>
<text text-anchor="start" x="17.5" y="-203.5" font-family="Helvetica,sans-Serif" font-size="10.00">ddot()</text>
<text text-anchor="start" x="4.5" y="-188.5" font-family="Helvetica,sans-Serif" font-size="10.00">+</text>
<text text-anchor="start" x="17.5" y="-188.5" font-family="Helvetica,sans-Serif" font-size="10.00">dot()</text>
<text text-anchor="start" x="4.5" y="-173.5" font-family="Helvetica,sans-Serif" font-size="10.00">+</text>
<text text-anchor="start" x="17.5" y="-173.5" font-family="Helvetica,sans-Serif" font-size="10.00">inside()</text>
<text text-anchor="start" x="4.5" y="-158.5" font-family="Helvetica,sans-Serif" font-size="10.00">+</text>
<text text-anchor="start" x="17.5" y="-158.5" font-family="Helvetica,sans-Serif" font-size="10.00">operator Point_&lt; _Tp2 &gt;()</text>
<text text-anchor="start" x="4.5" y="-143.5" font-family="Helvetica,sans-Serif" font-size="10.00">+</text>
<text text-anchor="start" x="17.5" y="-143.5" font-family="Helvetica,sans-Serif" font-size="10.00">operator=()</text>
<text text-anchor="start" x="4.5" y="-128.5" font-family="Helvetica,sans-Serif" font-size="10.00">+</text>
<text text-anchor="start" x="17.5" y="-128.5" font-family="Helvetica,sans-Serif" font-size="10.00">operator=()</text>
<polygon fill="#666666" stroke="#666666" points="0.5,-333.5 0.5,-333.5 149.5,-333.5 149.5,-333.5 0.5,-333.5"/>
<polygon fill="#666666" stroke="#666666" points="0.5,-318.5 0.5,-318.5 149.5,-318.5 149.5,-318.5 0.5,-318.5"/>
<polygon fill="none" stroke="#666666" points="0,-122 0,-351 149,-351 149,-122 0,-122"/>
</a>
</g>
</g>
<!-- Node2&#45;&gt;Node1 -->
<g id="edge1_Node000001_Node000002" class="edge">
<title>Node2&#45;&gt;Node1</title>
<g id="a_edge1_Node000001_Node000002"><a xlink:title=" ">
<path fill="none" stroke="#63b8ff" d="M104.81,-121.82C109.16,-105.53 113.39,-89.68 117.04,-75.98"/>
<polygon fill="none" stroke="#63b8ff" points="117.13,-75.65 114.81,-68.82 120.22,-64.06 122.54,-70.88 117.13,-75.65"/>
</a>
</g>
<text text-anchor="middle" x="126.5" y="-96" font-family="Helvetica,sans-Serif" font-size="10.00" fill="grey"> +p0</text>
<text text-anchor="middle" x="126.5" y="-85" font-family="Helvetica,sans-Serif" font-size="10.00" fill="grey">+p1</text>
</g>
<!-- Node3 -->
<g id="Node000003" class="node">
<title>Node3</title>
<g id="a_Node000003"><a xlink:title=" ">
<polygon fill="white" stroke="transparent" points="66,-561 43,-561 43,-512 66,-512 66,-561"/>
<text text-anchor="start" x="48.5" y="-548.5" font-family="Helvetica,sans-Serif" font-size="10.00">int</text>
<text text-anchor="start" x="53" y="-533.5" font-family="Helvetica,sans-Serif" font-size="10.00"> </text>
<text text-anchor="start" x="53" y="-518.5" font-family="Helvetica,sans-Serif" font-size="10.00"> </text>
<polygon fill="#666666" stroke="#666666" points="43.5,-543.5 43.5,-543.5 66.5,-543.5 66.5,-543.5 43.5,-543.5"/>
<polygon fill="#666666" stroke="#666666" points="43.5,-528.5 43.5,-528.5 66.5,-528.5 66.5,-528.5 43.5,-528.5"/>
<polygon fill="none" stroke="#666666" points="43,-512 43,-561 66,-561 66,-512 43,-512"/>
</a>
</g>
</g>
<!-- Node3&#45;&gt;Node2 -->
<g id="edge2_Node000002_Node000003" class="edge">
<title>Node3&#45;&gt;Node2</title>
<g id="a_edge2_Node000002_Node000003"><a xlink:title=" ">
<path fill="none" stroke="#63b8ff" d="M56.09,-511.87C58.26,-479.55 62.31,-419.18 66.06,-363.28"/>
<polygon fill="none" stroke="#63b8ff" points="66.07,-363.03 62.49,-356.78 66.88,-351.06 70.47,-357.32 66.07,-363.03"/>
</a>
</g>
<text text-anchor="middle" x="74.5" y="-383" font-family="Helvetica,sans-Serif" font-size="10.00" fill="grey"> +x</text>
<text text-anchor="middle" x="74.5" y="-372" font-family="Helvetica,sans-Serif" font-size="10.00" fill="grey">+y</text>
</g>
<!-- Node4 -->
<g id="Node000004" class="node">
<title>Node4</title>
<g id="a_Node000004"><a xlink:href="../../db/d4e/classcv_1_1Point__.html" target="_top" xlink:title="Template class for 2D points specified by its coordinates x and y.">
<polygon fill="white" stroke="transparent" points="233,-664 84,-664 84,-409 233,-409 233,-664"/>
<text text-anchor="start" x="115.5" y="-651.5" font-family="Helvetica,sans-Serif" font-size="10.00">cv::Point_&lt; _Tp &gt;</text>
<text text-anchor="start" x="157" y="-636.5" font-family="Helvetica,sans-Serif" font-size="10.00"> </text>
<text text-anchor="start" x="88.5" y="-621.5" font-family="Helvetica,sans-Serif" font-size="10.00">+</text>
<text text-anchor="start" x="101.5" y="-621.5" font-family="Helvetica,sans-Serif" font-size="10.00">Point_()</text>
<text text-anchor="start" x="88.5" y="-606.5" font-family="Helvetica,sans-Serif" font-size="10.00">+</text>
<text text-anchor="start" x="101.5" y="-606.5" font-family="Helvetica,sans-Serif" font-size="10.00">Point_()</text>
<text text-anchor="start" x="88.5" y="-591.5" font-family="Helvetica,sans-Serif" font-size="10.00">+</text>
<text text-anchor="start" x="101.5" y="-591.5" font-family="Helvetica,sans-Serif" font-size="10.00">Point_()</text>
<text text-anchor="start" x="88.5" y="-576.5" font-family="Helvetica,sans-Serif" font-size="10.00">+</text>
<text text-anchor="start" x="101.5" y="-576.5" font-family="Helvetica,sans-Serif" font-size="10.00">Point_()</text>
<text text-anchor="start" x="88.5" y="-561.5" font-family="Helvetica,sans-Serif" font-size="10.00">+</text>
<text text-anchor="start" x="101.5" y="-561.5" font-family="Helvetica,sans-Serif" font-size="10.00">Point_()</text>
<text text-anchor="start" x="88.5" y="-546.5" font-family="Helvetica,sans-Serif" font-size="10.00">+</text>
<text text-anchor="start" x="101.5" y="-546.5" font-family="Helvetica,sans-Serif" font-size="10.00">Point_()</text>
<text text-anchor="start" x="88.5" y="-531.5" font-family="Helvetica,sans-Serif" font-size="10.00">+</text>
<text text-anchor="start" x="101.5" y="-531.5" font-family="Helvetica,sans-Serif" font-size="10.00">cross()</text>
<text text-anchor="start" x="88.5" y="-516.5" font-family="Helvetica,sans-Serif" font-size="10.00">+</text>
<text text-anchor="start" x="101.5" y="-516.5" font-family="Helvetica,sans-Serif" font-size="10.00">ddot()</text>
<text text-anchor="start" x="88.5" y="-501.5" font-family="Helvetica,sans-Serif" font-size="10.00">+</text>
<text text-anchor="start" x="101.5" y="-501.5" font-family="Helvetica,sans-Serif" font-size="10.00">dot()</text>
<text text-anchor="start" x="88.5" y="-486.5" font-family="Helvetica,sans-Serif" font-size="10.00">+</text>
<text text-anchor="start" x="101.5" y="-486.5" font-family="Helvetica,sans-Serif" font-size="10.00">inside()</text>
<text text-anchor="start" x="88.5" y="-471.5" font-family="Helvetica,sans-Serif" font-size="10.00">+</text>
<text text-anchor="start" x="101.5" y="-471.5" font-family="Helvetica,sans-Serif" font-size="10.00">operator Point_&lt; _Tp2 &gt;()</text>
<text text-anchor="start" x="88.5" y="-456.5" font-family="Helvetica,sans-Serif" font-size="10.00">+</text>
<text text-anchor="start" x="101.5" y="-456.5" font-family="Helvetica,sans-Serif" font-size="10.00">operator Vec&lt; _Tp,</text>
<text text-anchor="start" x="101.5" y="-445.5" font-family="Helvetica,sans-Serif" font-size="10.00"> 2 &gt;()</text>
<text text-anchor="start" x="88.5" y="-430.5" font-family="Helvetica,sans-Serif" font-size="10.00">+</text>
<text text-anchor="start" x="101.5" y="-430.5" font-family="Helvetica,sans-Serif" font-size="10.00">operator=()</text>
<text text-anchor="start" x="88.5" y="-415.5" font-family="Helvetica,sans-Serif" font-size="10.00">+</text>
<text text-anchor="start" x="101.5" y="-415.5" font-family="Helvetica,sans-Serif" font-size="10.00">operator=()</text>
<polygon fill="#666666" stroke="#666666" points="84.5,-646.5 84.5,-646.5 233.5,-646.5 233.5,-646.5 84.5,-646.5"/>
<polygon fill="#666666" stroke="#666666" points="84.5,-631.5 84.5,-631.5 233.5,-631.5 233.5,-631.5 84.5,-631.5"/>
<polygon fill="none" stroke="#666666" points="84,-409 84,-664 233,-664 233,-409 84,-409"/>
</a>
</g>
</g>
<!-- Node4&#45;&gt;Node2 -->
<g id="edge3_Node000002_Node000004" class="edge">
<title>Node4&#45;&gt;Node2</title>
<g id="a_edge3_Node000002_Node000004"><a xlink:title=" ">
<path fill="none" stroke="orange" d="M119.98,-398.85C115.51,-383 110.99,-366.96 106.62,-351.46"/>
<polygon fill="orange" stroke="orange" points="116.67,-400.01 122.75,-408.69 123.41,-398.11 116.67,-400.01"/>
</a>
</g>
<text text-anchor="middle" x="136" y="-377.5" font-family="Helvetica,sans-Serif" font-size="10.00" fill="grey"> &lt; int &gt;</text>
</g>
<!-- Node5 -->
<g id="Node000005" class="node">
<title>Node5</title>
<g id="a_Node000005"><a xlink:href="../../d1/dd7/class__Tp.html" target="_top" xlink:title=" ">
<polygon fill="white" stroke="transparent" points="172.5,-771 144.5,-771 144.5,-722 172.5,-722 172.5,-771"/>
<text text-anchor="start" x="149.5" y="-758.5" font-family="Helvetica,sans-Serif" font-size="10.00">_Tp</text>
<text text-anchor="start" x="156.5" y="-743.5" font-family="Helvetica,sans-Serif" font-size="10.00"> </text>
<text text-anchor="start" x="156.5" y="-728.5" font-family="Helvetica,sans-Serif" font-size="10.00"> </text>
<polygon fill="#666666" stroke="#666666" points="144.5,-753.5 144.5,-753.5 172.5,-753.5 172.5,-753.5 144.5,-753.5"/>
<polygon fill="#666666" stroke="#666666" points="144.5,-738.5 144.5,-738.5 172.5,-738.5 172.5,-738.5 144.5,-738.5"/>
<polygon fill="none" stroke="#666666" points="144.5,-722 144.5,-771 172.5,-771 172.5,-722 144.5,-722"/>
</a>
</g>
</g>
<!-- Node5&#45;&gt;Node4 -->
<g id="edge4_Node000004_Node000005" class="edge">
<title>Node5&#45;&gt;Node4</title>
<g id="a_edge4_Node000004_Node000005"><a xlink:title=" ">
<path fill="none" stroke="#63b8ff" d="M158.5,-721.64C158.5,-709.5 158.5,-693.67 158.5,-676.38"/>
<polygon fill="none" stroke="#63b8ff" points="158.5,-676.21 154.5,-670.21 158.5,-664.21 162.5,-670.21 158.5,-676.21"/>
</a>
</g>
<text text-anchor="middle" x="167.5" y="-696" font-family="Helvetica,sans-Serif" font-size="10.00" fill="grey"> +x</text>
<text text-anchor="middle" x="167.5" y="-685" font-family="Helvetica,sans-Serif" font-size="10.00" fill="grey">+y</text>
</g>
<!-- Node6 -->
<g id="Node000006" class="node">
<title>Node6</title>
<g id="a_Node000006"><a xlink:title=" ">
<polygon fill="white" stroke="transparent" points="198.5,-261 166.5,-261 166.5,-212 198.5,-212 198.5,-261"/>
<text text-anchor="start" x="171.5" y="-248.5" font-family="Helvetica,sans-Serif" font-size="10.00">float</text>
<text text-anchor="start" x="180.5" y="-233.5" font-family="Helvetica,sans-Serif" font-size="10.00"> </text>
<text text-anchor="start" x="180.5" y="-218.5" font-family="Helvetica,sans-Serif" font-size="10.00"> </text>
<polygon fill="#666666" stroke="#666666" points="166.5,-243.5 166.5,-243.5 198.5,-243.5 198.5,-243.5 166.5,-243.5"/>
<polygon fill="#666666" stroke="#666666" points="166.5,-228.5 166.5,-228.5 198.5,-228.5 198.5,-228.5 166.5,-228.5"/>
<polygon fill="none" stroke="#666666" points="166.5,-212 166.5,-261 198.5,-261 198.5,-212 166.5,-212"/>
</a>
</g>
</g>
<!-- Node6&#45;&gt;Node1 -->
<g id="edge5_Node000001_Node000006" class="edge">
<title>Node6&#45;&gt;Node1</title>
<g id="a_edge5_Node000001_Node000006"><a xlink:title=" ">
<path fill="none" stroke="#63b8ff" d="M178,-211.86C173.44,-188.78 165.88,-152.76 157.5,-122 153.36,-106.81 148.2,-90.37 143.39,-75.8"/>
<polygon fill="none" stroke="#63b8ff" points="143.27,-75.45 137.57,-71.04 139.46,-64.08 145.16,-68.49 143.27,-75.45"/>
</a>
</g>
<text text-anchor="middle" x="167" y="-90.5" font-family="Helvetica,sans-Serif" font-size="10.00" fill="grey"> +corr</text>
</g>
</g>
</svg>
