<?xml version="1.0" encoding="UTF-8" standalone="no"?>
<!DOCTYPE svg PUBLIC "-//W3C//DTD SVG 1.1//EN"
 "http://www.w3.org/Graphics/SVG/1.1/DTD/svg11.dtd">
<!-- Generated by graphviz version 2.43.0 (0)
 -->
<!-- Title: opencv2/cudalegacy/NCV.hpp Pages: 1 -->
<svg width="620pt" height="225pt"
 viewBox="0.00 0.00 620.47 225.00" xmlns="http://www.w3.org/2000/svg" xmlns:xlink="http://www.w3.org/1999/xlink">
<g id="graph0" class="graph" transform="scale(1 1) rotate(0) translate(4 221)">
<title>opencv2/cudalegacy/NCV.hpp</title>
<!-- Node1 -->
<g id="Node000001" class="node">
<title>Node1</title>
<g id="a_Node000001"><a xlink:title=" ">
<polygon fill="#999999" stroke="#666666" points="320.47,-217 204.47,-217 204.47,-187 320.47,-187 320.47,-217"/>
<text text-anchor="start" x="212.47" y="-205" font-family="Helvetica,sans-Serif" font-size="10.00">opencv2/cudalegacy</text>
<text text-anchor="middle" x="262.47" y="-194" font-family="Helvetica,sans-Serif" font-size="10.00">/NCV.hpp</text>
</a>
</g>
</g>
<!-- Node2 -->
<g id="Node000002" class="node">
<title>Node2</title>
<g id="a_Node000002"><a xlink:href="../../da/d10/cudalegacy_8hpp.html" target="_top" xlink:title=" ">
<polygon fill="white" stroke="#666666" points="330.47,-85 194.47,-85 194.47,-66 330.47,-66 330.47,-85"/>
<text text-anchor="middle" x="262.47" y="-73" font-family="Helvetica,sans-Serif" font-size="10.00">opencv2/cudalegacy.hpp</text>
</a>
</g>
</g>
<!-- Node1&#45;&gt;Node2 -->
<g id="edge1_Node000001_Node000002" class="edge">
<title>Node1&#45;&gt;Node2</title>
<g id="a_edge1_Node000001_Node000002"><a xlink:title=" ">
<path fill="none" stroke="#63b8ff" d="M194.16,-200.68C103,-197.9 -41.2,-183.84 11.47,-121 34.4,-93.66 128.03,-83.1 194.19,-79.04"/>
<polygon fill="#63b8ff" stroke="#63b8ff" points="194.09,-204.18 204.18,-200.95 194.27,-197.18 194.09,-204.18"/>
</a>
</g>
</g>
<!-- Node4 -->
<g id="Node000004" class="node">
<title>Node4</title>
<g id="a_Node000004"><a xlink:href="../../d2/d84/NCVBroxOpticalFlow_8hpp.html" target="_top" xlink:title=" ">
<polygon fill="white" stroke="#666666" points="161.97,-151 20.97,-151 20.97,-121 161.97,-121 161.97,-151"/>
<text text-anchor="start" x="28.97" y="-139" font-family="Helvetica,sans-Serif" font-size="10.00">opencv2/cudalegacy</text>
<text text-anchor="middle" x="91.47" y="-128" font-family="Helvetica,sans-Serif" font-size="10.00">/NCVBroxOpticalFlow.hpp</text>
</a>
</g>
</g>
<!-- Node1&#45;&gt;Node4 -->
<g id="edge3_Node000001_Node000004" class="edge">
<title>Node1&#45;&gt;Node4</title>
<g id="a_edge3_Node000001_Node000004"><a xlink:title=" ">
<path fill="none" stroke="#63b8ff" d="M215.24,-183.32C188.02,-173.14 154.29,-160.51 128.91,-151.01"/>
<polygon fill="#63b8ff" stroke="#63b8ff" points="214.35,-186.73 224.95,-186.95 216.81,-180.17 214.35,-186.73"/>
</a>
</g>
</g>
<!-- Node5 -->
<g id="Node000005" class="node">
<title>Node5</title>
<g id="a_Node000005"><a xlink:href="../../d0/d3c/NCVHaarObjectDetection_8hpp.html" target="_top" xlink:title=" ">
<polygon fill="white" stroke="#666666" points="344.47,-151 180.47,-151 180.47,-121 344.47,-121 344.47,-151"/>
<text text-anchor="start" x="188.47" y="-139" font-family="Helvetica,sans-Serif" font-size="10.00">opencv2/cudalegacy</text>
<text text-anchor="middle" x="262.47" y="-128" font-family="Helvetica,sans-Serif" font-size="10.00">/NCVHaarObjectDetection.hpp</text>
</a>
</g>
</g>
<!-- Node1&#45;&gt;Node5 -->
<g id="edge5_Node000001_Node000005" class="edge">
<title>Node1&#45;&gt;Node5</title>
<g id="a_edge5_Node000001_Node000005"><a xlink:title=" ">
<path fill="none" stroke="#63b8ff" d="M262.47,-176.54C262.47,-167.96 262.47,-158.61 262.47,-151.16"/>
<polygon fill="#63b8ff" stroke="#63b8ff" points="258.97,-176.8 262.47,-186.8 265.97,-176.8 258.97,-176.8"/>
</a>
</g>
</g>
<!-- Node6 -->
<g id="Node000006" class="node">
<title>Node6</title>
<g id="a_Node000006"><a xlink:href="../../db/dfa/NCVPyramid_8hpp.html" target="_top" xlink:title=" ">
<polygon fill="white" stroke="#666666" points="478.47,-151 362.47,-151 362.47,-121 478.47,-121 478.47,-151"/>
<text text-anchor="start" x="370.47" y="-139" font-family="Helvetica,sans-Serif" font-size="10.00">opencv2/cudalegacy</text>
<text text-anchor="middle" x="420.47" y="-128" font-family="Helvetica,sans-Serif" font-size="10.00">/NCVPyramid.hpp</text>
</a>
</g>
</g>
<!-- Node1&#45;&gt;Node6 -->
<g id="edge7_Node000001_Node000006" class="edge">
<title>Node1&#45;&gt;Node6</title>
<g id="a_edge7_Node000001_Node000006"><a xlink:title=" ">
<path fill="none" stroke="#63b8ff" d="M306.45,-183.19C331.54,-173.02 362.54,-160.47 385.88,-151.01"/>
<polygon fill="#63b8ff" stroke="#63b8ff" points="305.1,-179.96 297.15,-186.95 307.73,-186.44 305.1,-179.96"/>
</a>
</g>
</g>
<!-- Node7 -->
<g id="Node000007" class="node">
<title>Node7</title>
<g id="a_Node000007"><a xlink:href="../../d5/d2c/NPP__staging_8hpp.html" target="_top" xlink:title=" ">
<polygon fill="white" stroke="#666666" points="612.47,-151 496.47,-151 496.47,-121 612.47,-121 612.47,-151"/>
<text text-anchor="start" x="504.47" y="-139" font-family="Helvetica,sans-Serif" font-size="10.00">opencv2/cudalegacy</text>
<text text-anchor="middle" x="554.47" y="-128" font-family="Helvetica,sans-Serif" font-size="10.00">/NPP_staging.hpp</text>
</a>
</g>
</g>
<!-- Node1&#45;&gt;Node7 -->
<g id="edge9_Node000001_Node000007" class="edge">
<title>Node1&#45;&gt;Node7</title>
<g id="a_edge9_Node000001_Node000007"><a xlink:title=" ">
<path fill="none" stroke="#63b8ff" d="M330.31,-186.13C380.52,-175.13 448.22,-160.29 496.04,-149.81"/>
<polygon fill="#63b8ff" stroke="#63b8ff" points="329.53,-182.72 320.51,-188.28 331.03,-189.56 329.53,-182.72"/>
</a>
</g>
</g>
<!-- Node3 -->
<g id="Node000003" class="node">
<title>Node3</title>
<g id="a_Node000003"><a xlink:href="../../de/d3c/contrib_2modules_2cudalegacy_2include_2opencv2_2cudalegacy_2private_8hpp.html" target="_top" xlink:title=" ">
<polygon fill="white" stroke="#666666" points="320.47,-30 204.47,-30 204.47,0 320.47,0 320.47,-30"/>
<text text-anchor="start" x="212.47" y="-18" font-family="Helvetica,sans-Serif" font-size="10.00">opencv2/cudalegacy</text>
<text text-anchor="middle" x="262.47" y="-7" font-family="Helvetica,sans-Serif" font-size="10.00">/private.hpp</text>
</a>
</g>
</g>
<!-- Node2&#45;&gt;Node3 -->
<g id="edge2_Node000002_Node000003" class="edge">
<title>Node2&#45;&gt;Node3</title>
<g id="a_edge2_Node000002_Node000003"><a xlink:title=" ">
<path fill="none" stroke="#63b8ff" d="M262.47,-55.65C262.47,-47.36 262.47,-37.78 262.47,-30.11"/>
<polygon fill="#63b8ff" stroke="#63b8ff" points="258.97,-55.87 262.47,-65.87 265.97,-55.87 258.97,-55.87"/>
</a>
</g>
</g>
<!-- Node4&#45;&gt;Node2 -->
<g id="edge4_Node000004_Node000002" class="edge">
<title>Node4&#45;&gt;Node2</title>
<g id="a_edge4_Node000004_Node000002"><a xlink:title=" ">
<path fill="none" stroke="#63b8ff" d="M141.89,-117.75C173.25,-107.02 212.22,-93.69 237.22,-85.14"/>
<polygon fill="#63b8ff" stroke="#63b8ff" points="140.76,-114.44 132.43,-120.99 143.03,-121.06 140.76,-114.44"/>
</a>
</g>
</g>
<!-- Node5&#45;&gt;Node2 -->
<g id="edge6_Node000005_Node000002" class="edge">
<title>Node5&#45;&gt;Node2</title>
<g id="a_edge6_Node000005_Node000002"><a xlink:title=" ">
<path fill="none" stroke="#63b8ff" d="M262.47,-110.75C262.47,-101.72 262.47,-92.03 262.47,-85.27"/>
<polygon fill="#63b8ff" stroke="#63b8ff" points="258.97,-110.84 262.47,-120.84 265.97,-110.84 258.97,-110.84"/>
</a>
</g>
</g>
<!-- Node6&#45;&gt;Node2 -->
<g id="edge8_Node000006_Node000002" class="edge">
<title>Node6&#45;&gt;Node2</title>
<g id="a_edge8_Node000006_Node000002"><a xlink:title=" ">
<path fill="none" stroke="#63b8ff" d="M373.13,-117.47C344.29,-106.79 308.71,-93.62 285.81,-85.14"/>
<polygon fill="#63b8ff" stroke="#63b8ff" points="372.04,-120.8 382.63,-120.99 374.47,-114.23 372.04,-120.8"/>
</a>
</g>
</g>
<!-- Node7&#45;&gt;Node2 -->
<g id="edge10_Node000007_Node000002" class="edge">
<title>Node7&#45;&gt;Node2</title>
<g id="a_edge10_Node000007_Node000002"><a xlink:title=" ">
<path fill="none" stroke="#63b8ff" d="M486.29,-120.77C417.89,-106.89 349.73,-93.5 306.48,-85.06"/>
<polygon fill="#63b8ff" stroke="#63b8ff" points="485.88,-124.26 496.38,-122.82 487.27,-117.4 485.88,-124.26"/>
</a>
</g>
</g>
</g>
</svg>
