<?xml version="1.0" encoding="UTF-8" standalone="no"?>
<!DOCTYPE svg PUBLIC "-//W3C//DTD SVG 1.1//EN"
 "http://www.w3.org/Graphics/SVG/1.1/DTD/svg11.dtd">
<!-- Generated by graphviz version 2.43.0 (0)
 -->
<!-- Title: imgproc/src/hal_replacement.hpp Pages: 1 -->
<svg width="413pt" height="148pt"
 viewBox="0.00 0.00 412.50 148.00" xmlns="http://www.w3.org/2000/svg" xmlns:xlink="http://www.w3.org/1999/xlink">
<g id="graph0" class="graph" transform="scale(1 1) rotate(0) translate(4 144)">
<title>imgproc/src/hal_replacement.hpp</title>
<!-- Node1 -->
<g id="Node000001" class="node">
<title>Node1</title>
<g id="a_Node000001"><a xlink:title=" ">
<polygon fill="#999999" stroke="#666666" points="322,-140 143,-140 143,-121 322,-121 322,-140"/>
<text text-anchor="middle" x="232.5" y="-128" font-family="Helvetica,sans-Serif" font-size="10.00">imgproc/src/hal_replacement.hpp</text>
</a>
</g>
</g>
<!-- Node2 -->
<g id="Node000002" class="node">
<title>Node2</title>
<g id="a_Node000002"><a xlink:href="../../d2/d10/core_2include_2opencv2_2core_2hal_2interface_8h.html" target="_top" xlink:title=" ">
<polygon fill="white" stroke="#666666" points="155,-79.5 0,-79.5 0,-60.5 155,-60.5 155,-79.5"/>
<text text-anchor="middle" x="77.5" y="-67.5" font-family="Helvetica,sans-Serif" font-size="10.00">opencv2/core/hal/interface.h</text>
</a>
</g>
</g>
<!-- Node1&#45;&gt;Node2 -->
<g id="edge1_Node000001_Node000002" class="edge">
<title>Node1&#45;&gt;Node2</title>
<g id="a_edge1_Node000001_Node000002"><a xlink:title=" ">
<path fill="none" stroke="#63b8ff" d="M209.96,-120.99C183.56,-111.03 139.62,-94.45 109.65,-83.13"/>
<polygon fill="#63b8ff" stroke="#63b8ff" points="110.66,-79.77 100.07,-79.52 108.19,-86.32 110.66,-79.77"/>
</a>
</g>
</g>
<!-- Node5 -->
<g id="Node000005" class="node">
<title>Node5</title>
<g id="a_Node000005"><a xlink:href="../../d5/d1e/imgproc_2include_2opencv2_2imgproc_2hal_2interface_8h.html" target="_top" xlink:title=" ">
<polygon fill="white" stroke="#666666" points="292,-85 173,-85 173,-55 292,-55 292,-85"/>
<text text-anchor="start" x="181" y="-73" font-family="Helvetica,sans-Serif" font-size="10.00">opencv2/imgproc/hal</text>
<text text-anchor="middle" x="232.5" y="-62" font-family="Helvetica,sans-Serif" font-size="10.00">/interface.h</text>
</a>
</g>
</g>
<!-- Node1&#45;&gt;Node5 -->
<g id="edge4_Node000001_Node000005" class="edge">
<title>Node1&#45;&gt;Node5</title>
<g id="a_edge4_Node000001_Node000005"><a xlink:title=" ">
<path fill="none" stroke="#63b8ff" d="M232.5,-120.87C232.5,-114.11 232.5,-104.35 232.5,-95.26"/>
<polygon fill="#63b8ff" stroke="#63b8ff" points="236,-95.11 232.5,-85.11 229,-95.11 236,-95.11"/>
</a>
</g>
</g>
<!-- Node6 -->
<g id="Node000006" class="node">
<title>Node6</title>
<g id="a_Node000006"><a xlink:title=" ">
<polygon fill="#e0e0e0" stroke="#999999" points="404.5,-79.5 310.5,-79.5 310.5,-60.5 404.5,-60.5 404.5,-79.5"/>
<text text-anchor="middle" x="357.5" y="-67.5" font-family="Helvetica,sans-Serif" font-size="10.00">custom_hal.hpp</text>
</a>
</g>
</g>
<!-- Node1&#45;&gt;Node6 -->
<g id="edge5_Node000001_Node000006" class="edge">
<title>Node1&#45;&gt;Node6</title>
<g id="a_edge5_Node000001_Node000006"><a xlink:title=" ">
<path fill="none" stroke="#63b8ff" d="M250.68,-120.99C271.51,-111.25 305.87,-95.16 329.98,-83.88"/>
<polygon fill="#63b8ff" stroke="#63b8ff" points="331.73,-86.93 339.3,-79.52 328.76,-80.59 331.73,-86.93"/>
</a>
</g>
</g>
<!-- Node3 -->
<g id="Node000003" class="node">
<title>Node3</title>
<g id="a_Node000003"><a xlink:title=" ">
<polygon fill="#e0e0e0" stroke="#999999" points="69,-19 16,-19 16,0 69,0 69,-19"/>
<text text-anchor="middle" x="42.5" y="-7" font-family="Helvetica,sans-Serif" font-size="10.00">cstddef</text>
</a>
</g>
</g>
<!-- Node2&#45;&gt;Node3 -->
<g id="edge2_Node000002_Node000003" class="edge">
<title>Node2&#45;&gt;Node3</title>
<g id="a_edge2_Node000002_Node000003"><a xlink:title=" ">
<path fill="none" stroke="#63b8ff" d="M72.34,-60.37C67.27,-51.9 59.4,-38.74 53.01,-28.07"/>
<polygon fill="#63b8ff" stroke="#63b8ff" points="55.82,-25.95 47.69,-19.17 49.82,-29.55 55.82,-25.95"/>
</a>
</g>
</g>
<!-- Node4 -->
<g id="Node000004" class="node">
<title>Node4</title>
<g id="a_Node000004"><a xlink:title=" ">
<polygon fill="#e0e0e0" stroke="#999999" points="140,-19 87,-19 87,0 140,0 140,-19"/>
<text text-anchor="middle" x="113.5" y="-7" font-family="Helvetica,sans-Serif" font-size="10.00">stdint.h</text>
</a>
</g>
</g>
<!-- Node2&#45;&gt;Node4 -->
<g id="edge3_Node000002_Node000004" class="edge">
<title>Node2&#45;&gt;Node4</title>
<g id="a_edge3_Node000002_Node000004"><a xlink:title=" ">
<path fill="none" stroke="#63b8ff" d="M82.81,-60.37C88.08,-51.81 96.29,-38.47 102.89,-27.74"/>
<polygon fill="#63b8ff" stroke="#63b8ff" points="105.91,-29.52 108.17,-19.17 99.94,-25.85 105.91,-29.52"/>
</a>
</g>
</g>
</g>
</svg>
