<?xml version="1.0" encoding="UTF-8" standalone="no"?>
<!DOCTYPE svg PUBLIC "-//W3C//DTD SVG 1.1//EN"
 "http://www.w3.org/Graphics/SVG/1.1/DTD/svg11.dtd">
<!-- Generated by graphviz version 2.43.0 (0)
 -->
<!-- Title: cv::cudev::PtrTraits&lt; ZipPtrSz&lt; PtrTuple &gt; &gt; Pages: 1 -->
<svg width="196pt" height="354pt"
 viewBox="0.00 0.00 195.50 354.00" xmlns="http://www.w3.org/2000/svg" xmlns:xlink="http://www.w3.org/1999/xlink">
<g id="graph0" class="graph" transform="scale(1 1) rotate(0) translate(4 350)">
<title>cv::cudev::PtrTraits&lt; ZipPtrSz&lt; PtrTuple &gt; &gt;</title>
<!-- Node1 -->
<g id="Node000001" class="node">
<title>Node1</title>
<g id="a_Node000001"><a xlink:title=" ">
<polygon fill="#999999" stroke="transparent" points="135,-60 0,-60 0,0 135,0 135,-60"/>
<text text-anchor="start" x="5.5" y="-48" font-family="Helvetica,sans-Serif" font-size="10.00">cv::cudev::PtrTraits</text>
<text text-anchor="start" x="5.5" y="-37" font-family="Helvetica,sans-Serif" font-size="10.00">&lt; ZipPtrSz&lt; PtrTuple &gt; &gt;</text>
<text text-anchor="start" x="66" y="-22" font-family="Helvetica,sans-Serif" font-size="10.00"> </text>
<text text-anchor="start" x="66" y="-7" font-family="Helvetica,sans-Serif" font-size="10.00"> </text>
<polygon fill="#666666" stroke="#666666" points="0.5,-32 0.5,-32 135.5,-32 135.5,-32 0.5,-32"/>
<polygon fill="#666666" stroke="#666666" points="0.5,-17 0.5,-17 135.5,-17 135.5,-17 0.5,-17"/>
<polygon fill="none" stroke="#666666" points="0,0 0,-60 135,-60 135,0 0,0"/>
</a>
</g>
</g>
<!-- Node2 -->
<g id="Node000002" class="node">
<title>Node2</title>
<g id="a_Node000002"><a xlink:href="../../db/d3c/structcv_1_1cudev_1_1PtrTraitsBase.html" target="_top" xlink:title=" ">
<polygon fill="white" stroke="transparent" points="131,-198 4,-198 4,-97 131,-97 131,-198"/>
<text text-anchor="start" x="9.5" y="-185.5" font-family="Helvetica,sans-Serif" font-size="10.00">cv::cudev::PtrTraitsBase</text>
<text text-anchor="start" x="9.5" y="-174.5" font-family="Helvetica,sans-Serif" font-size="10.00">&lt; ZipPtrSz&lt; PtrTuple &gt;,</text>
<text text-anchor="start" x="15" y="-163.5" font-family="Helvetica,sans-Serif" font-size="10.00"> ZipPtr&lt; PtrTuple &gt; &gt;</text>
<text text-anchor="start" x="66" y="-148.5" font-family="Helvetica,sans-Serif" font-size="10.00"> </text>
<text text-anchor="start" x="22" y="-133.5" font-family="Helvetica,sans-Serif" font-size="10.00">+</text>
<text text-anchor="start" x="48.5" y="-133.5" font-family="Helvetica,sans-Serif" font-size="10.00">getCols()</text>
<text text-anchor="start" x="22" y="-118.5" font-family="Helvetica,sans-Serif" font-size="10.00">+</text>
<text text-anchor="start" x="48.5" y="-118.5" font-family="Helvetica,sans-Serif" font-size="10.00">getRows()</text>
<text text-anchor="start" x="22" y="-103.5" font-family="Helvetica,sans-Serif" font-size="10.00">+</text>
<text text-anchor="start" x="48.5" y="-103.5" font-family="Helvetica,sans-Serif" font-size="10.00">shrinkPtr()</text>
<polygon fill="#666666" stroke="#666666" points="4.5,-158.5 4.5,-158.5 131.5,-158.5 131.5,-158.5 4.5,-158.5"/>
<polygon fill="#666666" stroke="#666666" points="4.5,-143.5 4.5,-143.5 131.5,-143.5 131.5,-143.5 4.5,-143.5"/>
<polygon fill="none" stroke="#666666" points="4,-97 4,-198 131,-198 131,-97 4,-97"/>
</a>
</g>
</g>
<!-- Node2&#45;&gt;Node1 -->
<g id="edge1_Node000001_Node000002" class="edge">
<title>Node2&#45;&gt;Node1</title>
<g id="a_edge1_Node000001_Node000002"><a xlink:title=" ">
<path fill="none" stroke="#63b8ff" d="M67.5,-86.84C67.5,-77.61 67.5,-68.44 67.5,-60.28"/>
<polygon fill="none" stroke="#63b8ff" points="64,-86.85 67.5,-96.85 71,-86.85 64,-86.85"/>
</a>
</g>
</g>
<!-- Node3 -->
<g id="Node000003" class="node">
<title>Node3</title>
<g id="a_Node000003"><a xlink:href="../../db/d3c/structcv_1_1cudev_1_1PtrTraitsBase.html" target="_top" xlink:title=" ">
<polygon fill="white" stroke="transparent" points="130,-346 5,-346 5,-256 130,-256 130,-346"/>
<text text-anchor="start" x="10.5" y="-334" font-family="Helvetica,sans-Serif" font-size="10.00">cv::cudev::PtrTraitsBase</text>
<text text-anchor="start" x="21" y="-323" font-family="Helvetica,sans-Serif" font-size="10.00">&lt; Ptr2DSz, Ptr2D &gt;</text>
<text text-anchor="start" x="66" y="-308" font-family="Helvetica,sans-Serif" font-size="10.00"> </text>
<text text-anchor="start" x="22.5" y="-293" font-family="Helvetica,sans-Serif" font-size="10.00">+</text>
<text text-anchor="start" x="48.5" y="-293" font-family="Helvetica,sans-Serif" font-size="10.00">getCols()</text>
<text text-anchor="start" x="22.5" y="-278" font-family="Helvetica,sans-Serif" font-size="10.00">+</text>
<text text-anchor="start" x="48.5" y="-278" font-family="Helvetica,sans-Serif" font-size="10.00">getRows()</text>
<text text-anchor="start" x="22.5" y="-263" font-family="Helvetica,sans-Serif" font-size="10.00">+</text>
<text text-anchor="start" x="48.5" y="-263" font-family="Helvetica,sans-Serif" font-size="10.00">shrinkPtr()</text>
<polygon fill="#666666" stroke="#666666" points="5.5,-318 5.5,-318 130.5,-318 130.5,-318 5.5,-318"/>
<polygon fill="#666666" stroke="#666666" points="5.5,-303 5.5,-303 130.5,-303 130.5,-303 5.5,-303"/>
<polygon fill="none" stroke="#666666" points="5,-256 5,-346 130,-346 130,-256 5,-256"/>
</a>
</g>
</g>
<!-- Node3&#45;&gt;Node2 -->
<g id="edge2_Node000002_Node000003" class="edge">
<title>Node3&#45;&gt;Node2</title>
<g id="a_edge2_Node000002_Node000003"><a xlink:title=" ">
<path fill="none" stroke="orange" d="M67.5,-245.33C67.5,-229.9 67.5,-213.21 67.5,-198.1"/>
<polygon fill="orange" stroke="orange" points="64,-245.77 67.5,-255.77 71,-245.77 64,-245.77"/>
</a>
</g>
<text text-anchor="start" x="67.5" y="-230" font-family="Helvetica,sans-Serif" font-size="10.00" fill="grey"> &lt; ZipPtrSz&lt; PtrTuple</text>
<text text-anchor="middle" x="127.5" y="-219" font-family="Helvetica,sans-Serif" font-size="10.00" fill="grey"> &gt;, ZipPtr&lt; PtrTuple &gt; &gt;</text>
</g>
</g>
</svg>
