<?xml version="1.0" encoding="UTF-8" standalone="no"?>
<!DOCTYPE svg PUBLIC "-//W3C//DTD SVG 1.1//EN"
 "http://www.w3.org/Graphics/SVG/1.1/DTD/svg11.dtd">
<!-- Generated by graphviz version 2.43.0 (0)
 -->
<!-- Title: cv::cudacodec::FormatInfo Pages: 1 -->
<svg width="868pt" height="602pt"
 viewBox="0.00 0.00 868.20 602.00" xmlns="http://www.w3.org/2000/svg" xmlns:xlink="http://www.w3.org/1999/xlink">
<g id="graph0" class="graph" transform="scale(1 1) rotate(0) translate(4 598)">
<title>cv::cudacodec::FormatInfo</title>
<!-- Node1 -->
<g id="Node000001" class="node">
<title>Node1</title>
<g id="a_Node000001"><a xlink:title="Struct providing information about video file format. :">
<polygon fill="#999999" stroke="transparent" points="487.2,-49 349.2,-49 349.2,0 487.2,0 487.2,-49"/>
<text text-anchor="start" x="354.2" y="-36.5" font-family="Helvetica,sans-Serif" font-size="10.00">cv::cudacodec::FormatInfo</text>
<text text-anchor="start" x="367.2" y="-21.5" font-family="Helvetica,sans-Serif" font-size="10.00">+</text>
<text text-anchor="start" x="394.2" y="-21.5" font-family="Helvetica,sans-Serif" font-size="10.00">width</text>
<text text-anchor="start" x="367.2" y="-6.5" font-family="Helvetica,sans-Serif" font-size="10.00">+</text>
<text text-anchor="start" x="394.2" y="-6.5" font-family="Helvetica,sans-Serif" font-size="10.00">FormatInfo()</text>
<polygon fill="#666666" stroke="#666666" points="349.2,-31.5 349.2,-31.5 487.2,-31.5 487.2,-31.5 349.2,-31.5"/>
<polygon fill="#666666" stroke="#666666" points="349.2,-16.5 349.2,-16.5 392.2,-16.5 392.2,-16.5 349.2,-16.5"/>
<polygon fill="#666666" stroke="#666666" points="392.2,-16.5 392.2,-16.5 487.2,-16.5 487.2,-16.5 392.2,-16.5"/>
<polygon fill="none" stroke="#666666" points="349.2,0 349.2,-49 487.2,-49 487.2,0 349.2,0"/>
</a>
</g>
</g>
<!-- Node2 -->
<g id="Node000002" class="node">
<title>Node2</title>
<g id="a_Node000002"><a xlink:title=" ">
<polygon fill="white" stroke="transparent" points="52.7,-360 11.7,-360 11.7,-311 52.7,-311 52.7,-360"/>
<text text-anchor="start" x="17.2" y="-347.5" font-family="Helvetica,sans-Serif" font-size="10.00">Codec</text>
<text text-anchor="start" x="30.7" y="-332.5" font-family="Helvetica,sans-Serif" font-size="10.00"> </text>
<text text-anchor="start" x="30.7" y="-317.5" font-family="Helvetica,sans-Serif" font-size="10.00"> </text>
<polygon fill="#666666" stroke="#666666" points="12.2,-342.5 12.2,-342.5 53.2,-342.5 53.2,-342.5 12.2,-342.5"/>
<polygon fill="#666666" stroke="#666666" points="12.2,-327.5 12.2,-327.5 53.2,-327.5 53.2,-327.5 12.2,-327.5"/>
<polygon fill="none" stroke="#666666" points="11.7,-311 11.7,-360 52.7,-360 52.7,-311 11.7,-311"/>
</a>
</g>
</g>
<!-- Node2&#45;&gt;Node1 -->
<g id="edge1_Node000001_Node000002" class="edge">
<title>Node2&#45;&gt;Node1</title>
<g id="a_edge1_Node000001_Node000002"><a xlink:title=" ">
<path fill="none" stroke="#63b8ff" d="M23.56,-310.77C6.41,-259.02 -25.16,-135.23 37.2,-67 57.01,-45.33 230.63,-33.81 336.54,-28.75"/>
<polygon fill="none" stroke="#63b8ff" points="336.8,-28.74 342.61,-24.46 348.79,-28.18 342.98,-32.45 336.8,-28.74"/>
</a>
</g>
<text text-anchor="middle" x="57.2" y="-125" font-family="Helvetica,sans-Serif" font-size="10.00" fill="grey"> +codec</text>
</g>
<!-- Node3 -->
<g id="Node000003" class="node">
<title>Node3</title>
<g id="a_Node000003"><a xlink:title=" ">
<polygon fill="white" stroke="transparent" points="153.7,-360 70.7,-360 70.7,-311 153.7,-311 153.7,-360"/>
<text text-anchor="start" x="76.2" y="-347.5" font-family="Helvetica,sans-Serif" font-size="10.00">ChromaFormat</text>
<text text-anchor="start" x="110.7" y="-332.5" font-family="Helvetica,sans-Serif" font-size="10.00"> </text>
<text text-anchor="start" x="110.7" y="-317.5" font-family="Helvetica,sans-Serif" font-size="10.00"> </text>
<polygon fill="#666666" stroke="#666666" points="71.2,-342.5 71.2,-342.5 154.2,-342.5 154.2,-342.5 71.2,-342.5"/>
<polygon fill="#666666" stroke="#666666" points="71.2,-327.5 71.2,-327.5 154.2,-327.5 154.2,-327.5 71.2,-327.5"/>
<polygon fill="none" stroke="#666666" points="70.7,-311 70.7,-360 153.7,-360 153.7,-311 70.7,-311"/>
</a>
</g>
</g>
<!-- Node3&#45;&gt;Node1 -->
<g id="edge2_Node000001_Node000003" class="edge">
<title>Node3&#45;&gt;Node1</title>
<g id="a_edge2_Node000001_Node000003"><a xlink:title=" ">
<path fill="none" stroke="#63b8ff" d="M103.7,-310.9C86.84,-259.42 55.82,-136.11 117.2,-67 145.46,-35.18 257.69,-26.98 336.8,-25.27"/>
<polygon fill="none" stroke="#63b8ff" points="337.2,-25.27 343.12,-21.16 349.19,-25.05 343.27,-29.16 337.2,-25.27"/>
</a>
</g>
<text text-anchor="middle" x="158.7" y="-125" font-family="Helvetica,sans-Serif" font-size="10.00" fill="grey"> +chromaFormat</text>
</g>
<!-- Node4 -->
<g id="Node000004" class="node">
<title>Node4</title>
<g id="a_Node000004"><a xlink:title=" ">
<polygon fill="white" stroke="transparent" points="219.7,-360 196.7,-360 196.7,-311 219.7,-311 219.7,-360"/>
<text text-anchor="start" x="202.2" y="-347.5" font-family="Helvetica,sans-Serif" font-size="10.00">int</text>
<text text-anchor="start" x="206.7" y="-332.5" font-family="Helvetica,sans-Serif" font-size="10.00"> </text>
<text text-anchor="start" x="206.7" y="-317.5" font-family="Helvetica,sans-Serif" font-size="10.00"> </text>
<polygon fill="#666666" stroke="#666666" points="197.2,-342.5 197.2,-342.5 220.2,-342.5 220.2,-342.5 197.2,-342.5"/>
<polygon fill="#666666" stroke="#666666" points="197.2,-327.5 197.2,-327.5 220.2,-327.5 220.2,-327.5 197.2,-327.5"/>
<polygon fill="none" stroke="#666666" points="196.7,-311 196.7,-360 219.7,-360 219.7,-311 196.7,-311"/>
</a>
</g>
</g>
<!-- Node4&#45;&gt;Node1 -->
<g id="edge3_Node000001_Node000004" class="edge">
<title>Node4&#45;&gt;Node1</title>
<g id="a_edge3_Node000001_Node000004"><a xlink:title=" ">
<path fill="none" stroke="#63b8ff" d="M207.17,-310.88C204.71,-248.95 199.75,-85.42 215.2,-67 230.97,-48.19 287.63,-37.64 337.1,-31.89"/>
<polygon fill="none" stroke="#63b8ff" points="337.23,-31.87 342.76,-27.24 349.16,-30.56 343.63,-35.19 337.23,-31.87"/>
</a>
</g>
<text text-anchor="middle" x="280.7" y="-180" font-family="Helvetica,sans-Serif" font-size="10.00" fill="grey"> +height</text>
<text text-anchor="middle" x="280.7" y="-169" font-family="Helvetica,sans-Serif" font-size="10.00" fill="grey">+nBitDepthChromaMinus8</text>
<text text-anchor="middle" x="280.7" y="-158" font-family="Helvetica,sans-Serif" font-size="10.00" fill="grey">+nBitDepthMinus8</text>
<text text-anchor="middle" x="280.7" y="-147" font-family="Helvetica,sans-Serif" font-size="10.00" fill="grey">+nCounterBitDepth</text>
<text text-anchor="middle" x="280.7" y="-136" font-family="Helvetica,sans-Serif" font-size="10.00" fill="grey">+nMaxHistogramBins</text>
<text text-anchor="middle" x="280.7" y="-125" font-family="Helvetica,sans-Serif" font-size="10.00" fill="grey">+ulHeight</text>
<text text-anchor="middle" x="280.7" y="-114" font-family="Helvetica,sans-Serif" font-size="10.00" fill="grey">+ulMaxHeight</text>
<text text-anchor="middle" x="280.7" y="-103" font-family="Helvetica,sans-Serif" font-size="10.00" fill="grey">+ulMaxWidth</text>
<text text-anchor="middle" x="280.7" y="-92" font-family="Helvetica,sans-Serif" font-size="10.00" fill="grey">+ulNumDecodeSurfaces</text>
<text text-anchor="middle" x="280.7" y="-81" font-family="Helvetica,sans-Serif" font-size="10.00" fill="grey">+ulWidth</text>
<text text-anchor="middle" x="280.7" y="-70" font-family="Helvetica,sans-Serif" font-size="10.00" fill="grey">...</text>
</g>
<!-- Node5 -->
<g id="Node000005" class="node">
<title>Node5</title>
<g id="a_Node000005"><a xlink:href="../../d2/d44/classcv_1_1Rect__.html" target="_top" xlink:title="Template class for 2D rectangles.">
<polygon fill="white" stroke="transparent" points="384.2,-465 238.2,-465 238.2,-206 384.2,-206 384.2,-465"/>
<text text-anchor="start" x="269.2" y="-452.5" font-family="Helvetica,sans-Serif" font-size="10.00">cv::Rect_&lt; _Tp &gt;</text>
<text text-anchor="start" x="309.2" y="-437.5" font-family="Helvetica,sans-Serif" font-size="10.00"> </text>
<text text-anchor="start" x="242.2" y="-422.5" font-family="Helvetica,sans-Serif" font-size="10.00">+</text>
<text text-anchor="start" x="255.2" y="-422.5" font-family="Helvetica,sans-Serif" font-size="10.00">Rect_()</text>
<text text-anchor="start" x="242.2" y="-407.5" font-family="Helvetica,sans-Serif" font-size="10.00">+</text>
<text text-anchor="start" x="255.2" y="-407.5" font-family="Helvetica,sans-Serif" font-size="10.00">Rect_()</text>
<text text-anchor="start" x="242.2" y="-392.5" font-family="Helvetica,sans-Serif" font-size="10.00">+</text>
<text text-anchor="start" x="255.2" y="-392.5" font-family="Helvetica,sans-Serif" font-size="10.00">Rect_()</text>
<text text-anchor="start" x="242.2" y="-377.5" font-family="Helvetica,sans-Serif" font-size="10.00">+</text>
<text text-anchor="start" x="255.2" y="-377.5" font-family="Helvetica,sans-Serif" font-size="10.00">Rect_()</text>
<text text-anchor="start" x="242.2" y="-362.5" font-family="Helvetica,sans-Serif" font-size="10.00">+</text>
<text text-anchor="start" x="255.2" y="-362.5" font-family="Helvetica,sans-Serif" font-size="10.00">Rect_()</text>
<text text-anchor="start" x="242.2" y="-347.5" font-family="Helvetica,sans-Serif" font-size="10.00">+</text>
<text text-anchor="start" x="255.2" y="-347.5" font-family="Helvetica,sans-Serif" font-size="10.00">Rect_()</text>
<text text-anchor="start" x="242.2" y="-332.5" font-family="Helvetica,sans-Serif" font-size="10.00">+</text>
<text text-anchor="start" x="255.2" y="-332.5" font-family="Helvetica,sans-Serif" font-size="10.00">area()</text>
<text text-anchor="start" x="242.2" y="-317.5" font-family="Helvetica,sans-Serif" font-size="10.00">+</text>
<text text-anchor="start" x="255.2" y="-317.5" font-family="Helvetica,sans-Serif" font-size="10.00">br()</text>
<text text-anchor="start" x="242.2" y="-302.5" font-family="Helvetica,sans-Serif" font-size="10.00">+</text>
<text text-anchor="start" x="255.2" y="-302.5" font-family="Helvetica,sans-Serif" font-size="10.00">contains()</text>
<text text-anchor="start" x="242.2" y="-287.5" font-family="Helvetica,sans-Serif" font-size="10.00">+</text>
<text text-anchor="start" x="255.2" y="-287.5" font-family="Helvetica,sans-Serif" font-size="10.00">empty()</text>
<text text-anchor="start" x="242.2" y="-272.5" font-family="Helvetica,sans-Serif" font-size="10.00">+</text>
<text text-anchor="start" x="255.2" y="-272.5" font-family="Helvetica,sans-Serif" font-size="10.00">operator Rect_&lt; _Tp2 &gt;()</text>
<text text-anchor="start" x="242.2" y="-257.5" font-family="Helvetica,sans-Serif" font-size="10.00">+</text>
<text text-anchor="start" x="255.2" y="-257.5" font-family="Helvetica,sans-Serif" font-size="10.00">operator=()</text>
<text text-anchor="start" x="242.2" y="-242.5" font-family="Helvetica,sans-Serif" font-size="10.00">+</text>
<text text-anchor="start" x="255.2" y="-242.5" font-family="Helvetica,sans-Serif" font-size="10.00">operator=()</text>
<text text-anchor="start" x="242.2" y="-227.5" font-family="Helvetica,sans-Serif" font-size="10.00">+</text>
<text text-anchor="start" x="255.2" y="-227.5" font-family="Helvetica,sans-Serif" font-size="10.00">size()</text>
<text text-anchor="start" x="242.2" y="-212.5" font-family="Helvetica,sans-Serif" font-size="10.00">+</text>
<text text-anchor="start" x="255.2" y="-212.5" font-family="Helvetica,sans-Serif" font-size="10.00">tl()</text>
<polygon fill="#666666" stroke="#666666" points="238.2,-447.5 238.2,-447.5 384.2,-447.5 384.2,-447.5 238.2,-447.5"/>
<polygon fill="#666666" stroke="#666666" points="238.2,-432.5 238.2,-432.5 384.2,-432.5 384.2,-432.5 238.2,-432.5"/>
<polygon fill="none" stroke="#666666" points="238.2,-206 238.2,-465 384.2,-465 384.2,-206 238.2,-206"/>
</a>
</g>
</g>
<!-- Node5&#45;&gt;Node1 -->
<g id="edge4_Node000001_Node000005" class="edge">
<title>Node5&#45;&gt;Node1</title>
<g id="a_edge4_Node000001_Node000005"><a xlink:title=" ">
<path fill="none" stroke="#63b8ff" d="M346.29,-205.66C347.67,-199.7 348.97,-193.79 350.2,-188 361.44,-134.74 342.53,-114.46 369.2,-67 371,-63.8 373.14,-60.73 375.52,-57.82"/>
<polygon fill="none" stroke="#63b8ff" points="375.52,-57.82 376.72,-50.71 383.74,-49.08 382.55,-56.19 375.52,-57.82"/>
</a>
</g>
<text text-anchor="middle" x="404.2" y="-136" font-family="Helvetica,sans-Serif" font-size="10.00" fill="grey"> +displayArea</text>
<text text-anchor="middle" x="404.2" y="-125" font-family="Helvetica,sans-Serif" font-size="10.00" fill="grey">+srcRoi</text>
<text text-anchor="middle" x="404.2" y="-114" font-family="Helvetica,sans-Serif" font-size="10.00" fill="grey">+targetRoi</text>
</g>
<!-- Node6 -->
<g id="Node000006" class="node">
<title>Node6</title>
<g id="a_Node000006"><a xlink:href="../../d1/dd7/class__Tp.html" target="_top" xlink:title=" ">
<polygon fill="white" stroke="transparent" points="407.2,-594 379.2,-594 379.2,-545 407.2,-545 407.2,-594"/>
<text text-anchor="start" x="384.2" y="-581.5" font-family="Helvetica,sans-Serif" font-size="10.00">_Tp</text>
<text text-anchor="start" x="391.2" y="-566.5" font-family="Helvetica,sans-Serif" font-size="10.00"> </text>
<text text-anchor="start" x="391.2" y="-551.5" font-family="Helvetica,sans-Serif" font-size="10.00"> </text>
<polygon fill="#666666" stroke="#666666" points="379.2,-576.5 379.2,-576.5 407.2,-576.5 407.2,-576.5 379.2,-576.5"/>
<polygon fill="#666666" stroke="#666666" points="379.2,-561.5 379.2,-561.5 407.2,-561.5 407.2,-561.5 379.2,-561.5"/>
<polygon fill="none" stroke="#666666" points="379.2,-545 379.2,-594 407.2,-594 407.2,-545 379.2,-545"/>
</a>
</g>
</g>
<!-- Node6&#45;&gt;Node5 -->
<g id="edge5_Node000005_Node000006" class="edge">
<title>Node6&#45;&gt;Node5</title>
<g id="a_edge5_Node000005_Node000006"><a xlink:title=" ">
<path fill="none" stroke="#63b8ff" d="M384.88,-544.98C378.83,-527.84 370.07,-503.07 360.69,-476.54"/>
<polygon fill="none" stroke="#63b8ff" points="360.64,-476.39 354.87,-472.07 356.64,-465.08 362.41,-469.4 360.64,-476.39"/>
</a>
</g>
<text text-anchor="middle" x="398.7" y="-519" font-family="Helvetica,sans-Serif" font-size="10.00" fill="grey"> +height</text>
<text text-anchor="middle" x="398.7" y="-508" font-family="Helvetica,sans-Serif" font-size="10.00" fill="grey">+width</text>
<text text-anchor="middle" x="398.7" y="-497" font-family="Helvetica,sans-Serif" font-size="10.00" fill="grey">+x</text>
<text text-anchor="middle" x="398.7" y="-486" font-family="Helvetica,sans-Serif" font-size="10.00" fill="grey">+y</text>
</g>
<!-- Node10 -->
<g id="Node000010" class="node">
<title>Node10</title>
<g id="a_Node000010"><a xlink:href="../../d6/d50/classcv_1_1Size__.html" target="_top" xlink:title="Template class for specifying the size of an image or rectangle.">
<polygon fill="white" stroke="transparent" points="547.7,-435 402.7,-435 402.7,-236 547.7,-236 547.7,-435"/>
<text text-anchor="start" x="434.7" y="-422.5" font-family="Helvetica,sans-Serif" font-size="10.00">cv::Size_&lt; _Tp &gt;</text>
<text text-anchor="start" x="473.7" y="-407.5" font-family="Helvetica,sans-Serif" font-size="10.00"> </text>
<text text-anchor="start" x="407.2" y="-392.5" font-family="Helvetica,sans-Serif" font-size="10.00">+</text>
<text text-anchor="start" x="420.2" y="-392.5" font-family="Helvetica,sans-Serif" font-size="10.00">Size_()</text>
<text text-anchor="start" x="407.2" y="-377.5" font-family="Helvetica,sans-Serif" font-size="10.00">+</text>
<text text-anchor="start" x="420.2" y="-377.5" font-family="Helvetica,sans-Serif" font-size="10.00">Size_()</text>
<text text-anchor="start" x="407.2" y="-362.5" font-family="Helvetica,sans-Serif" font-size="10.00">+</text>
<text text-anchor="start" x="420.2" y="-362.5" font-family="Helvetica,sans-Serif" font-size="10.00">Size_()</text>
<text text-anchor="start" x="407.2" y="-347.5" font-family="Helvetica,sans-Serif" font-size="10.00">+</text>
<text text-anchor="start" x="420.2" y="-347.5" font-family="Helvetica,sans-Serif" font-size="10.00">Size_()</text>
<text text-anchor="start" x="407.2" y="-332.5" font-family="Helvetica,sans-Serif" font-size="10.00">+</text>
<text text-anchor="start" x="420.2" y="-332.5" font-family="Helvetica,sans-Serif" font-size="10.00">Size_()</text>
<text text-anchor="start" x="407.2" y="-317.5" font-family="Helvetica,sans-Serif" font-size="10.00">+</text>
<text text-anchor="start" x="420.2" y="-317.5" font-family="Helvetica,sans-Serif" font-size="10.00">area()</text>
<text text-anchor="start" x="407.2" y="-302.5" font-family="Helvetica,sans-Serif" font-size="10.00">+</text>
<text text-anchor="start" x="420.2" y="-302.5" font-family="Helvetica,sans-Serif" font-size="10.00">aspectRatio()</text>
<text text-anchor="start" x="407.2" y="-287.5" font-family="Helvetica,sans-Serif" font-size="10.00">+</text>
<text text-anchor="start" x="420.2" y="-287.5" font-family="Helvetica,sans-Serif" font-size="10.00">empty()</text>
<text text-anchor="start" x="407.2" y="-272.5" font-family="Helvetica,sans-Serif" font-size="10.00">+</text>
<text text-anchor="start" x="420.2" y="-272.5" font-family="Helvetica,sans-Serif" font-size="10.00">operator Size_&lt; _Tp2 &gt;()</text>
<text text-anchor="start" x="407.2" y="-257.5" font-family="Helvetica,sans-Serif" font-size="10.00">+</text>
<text text-anchor="start" x="420.2" y="-257.5" font-family="Helvetica,sans-Serif" font-size="10.00">operator=()</text>
<text text-anchor="start" x="407.2" y="-242.5" font-family="Helvetica,sans-Serif" font-size="10.00">+</text>
<text text-anchor="start" x="420.2" y="-242.5" font-family="Helvetica,sans-Serif" font-size="10.00">operator=()</text>
<polygon fill="#666666" stroke="#666666" points="403.2,-417.5 403.2,-417.5 548.2,-417.5 548.2,-417.5 403.2,-417.5"/>
<polygon fill="#666666" stroke="#666666" points="403.2,-402.5 403.2,-402.5 548.2,-402.5 548.2,-402.5 403.2,-402.5"/>
<polygon fill="none" stroke="#666666" points="402.7,-236 402.7,-435 547.7,-435 547.7,-236 402.7,-236"/>
</a>
</g>
</g>
<!-- Node6&#45;&gt;Node10 -->
<g id="edge10_Node000010_Node000006" class="edge">
<title>Node6&#45;&gt;Node10</title>
<g id="a_edge10_Node000010_Node000006"><a xlink:title=" ">
<path fill="none" stroke="#63b8ff" d="M407.42,-552.48C413.32,-545.14 419.8,-536.06 424.2,-527 436.24,-502.18 445.75,-474.11 453.13,-447.3"/>
<polygon fill="none" stroke="#63b8ff" points="453.19,-447.09 450.87,-440.26 456.27,-435.49 458.6,-442.32 453.19,-447.09"/>
</a>
</g>
<text text-anchor="middle" x="461.7" y="-508" font-family="Helvetica,sans-Serif" font-size="10.00" fill="grey"> +height</text>
<text text-anchor="middle" x="461.7" y="-497" font-family="Helvetica,sans-Serif" font-size="10.00" fill="grey">+width</text>
</g>
<!-- Node7 -->
<g id="Node000007" class="node">
<title>Node7</title>
<g id="a_Node000007"><a xlink:title=" ">
<polygon fill="white" stroke="transparent" points="598.2,-360 566.2,-360 566.2,-311 598.2,-311 598.2,-360"/>
<text text-anchor="start" x="571.2" y="-347.5" font-family="Helvetica,sans-Serif" font-size="10.00">bool</text>
<text text-anchor="start" x="580.2" y="-332.5" font-family="Helvetica,sans-Serif" font-size="10.00"> </text>
<text text-anchor="start" x="580.2" y="-317.5" font-family="Helvetica,sans-Serif" font-size="10.00"> </text>
<polygon fill="#666666" stroke="#666666" points="566.2,-342.5 566.2,-342.5 598.2,-342.5 598.2,-342.5 566.2,-342.5"/>
<polygon fill="#666666" stroke="#666666" points="566.2,-327.5 566.2,-327.5 598.2,-327.5 598.2,-327.5 566.2,-327.5"/>
<polygon fill="none" stroke="#666666" points="566.2,-311 566.2,-360 598.2,-360 598.2,-311 566.2,-311"/>
</a>
</g>
</g>
<!-- Node7&#45;&gt;Node1 -->
<g id="edge6_Node000001_Node000007" class="edge">
<title>Node7&#45;&gt;Node1</title>
<g id="a_edge6_Node000001_Node000007"><a xlink:title=" ">
<path fill="none" stroke="#63b8ff" d="M581.3,-310.56C579.47,-283.81 573.93,-239.82 557.2,-206 552.45,-196.41 545.92,-197.6 541.2,-188 517.03,-138.88 552.73,-109.47 518.2,-67 512.51,-60 505.44,-54.17 497.71,-49.31"/>
<polygon fill="none" stroke="#63b8ff" points="497.71,-49.31 490.52,-49.89 487.22,-43.47 494.41,-42.9 497.71,-49.31"/>
</a>
</g>
<text text-anchor="middle" x="593.7" y="-136" font-family="Helvetica,sans-Serif" font-size="10.00" fill="grey"> +enableHistogram</text>
<text text-anchor="middle" x="593.7" y="-125" font-family="Helvetica,sans-Serif" font-size="10.00" fill="grey">+valid</text>
<text text-anchor="middle" x="593.7" y="-114" font-family="Helvetica,sans-Serif" font-size="10.00" fill="grey">+videoFullRangeFlag</text>
</g>
<!-- Node8 -->
<g id="Node000008" class="node">
<title>Node8</title>
<g id="a_Node000008"><a xlink:title=" ">
<polygon fill="white" stroke="transparent" points="690.2,-360 646.2,-360 646.2,-311 690.2,-311 690.2,-360"/>
<text text-anchor="start" x="651.2" y="-347.5" font-family="Helvetica,sans-Serif" font-size="10.00">double</text>
<text text-anchor="start" x="666.2" y="-332.5" font-family="Helvetica,sans-Serif" font-size="10.00"> </text>
<text text-anchor="start" x="666.2" y="-317.5" font-family="Helvetica,sans-Serif" font-size="10.00"> </text>
<polygon fill="#666666" stroke="#666666" points="646.2,-342.5 646.2,-342.5 690.2,-342.5 690.2,-342.5 646.2,-342.5"/>
<polygon fill="#666666" stroke="#666666" points="646.2,-327.5 646.2,-327.5 690.2,-327.5 690.2,-327.5 646.2,-327.5"/>
<polygon fill="none" stroke="#666666" points="646.2,-311 646.2,-360 690.2,-360 690.2,-311 646.2,-311"/>
</a>
</g>
</g>
<!-- Node8&#45;&gt;Node1 -->
<g id="edge7_Node000001_Node000008" class="edge">
<title>Node8&#45;&gt;Node1</title>
<g id="a_edge7_Node000001_Node000008"><a xlink:title=" ">
<path fill="none" stroke="#63b8ff" d="M674.67,-310.84C687.23,-259.23 708.48,-135.7 646.2,-67 626.71,-45.5 556.8,-35.05 499.48,-30.03"/>
<polygon fill="none" stroke="#63b8ff" points="499.42,-30.03 493.11,-33.52 487.46,-29.04 493.77,-25.55 499.42,-30.03"/>
</a>
</g>
<text text-anchor="middle" x="700.7" y="-125" font-family="Helvetica,sans-Serif" font-size="10.00" fill="grey"> +fps</text>
</g>
<!-- Node9 -->
<g id="Node000009" class="node">
<title>Node9</title>
<g id="a_Node000009"><a xlink:title=" ">
<polygon fill="white" stroke="transparent" points="802.2,-360 708.2,-360 708.2,-311 802.2,-311 802.2,-360"/>
<text text-anchor="start" x="713.2" y="-347.5" font-family="Helvetica,sans-Serif" font-size="10.00">DeinterlaceMode</text>
<text text-anchor="start" x="753.2" y="-332.5" font-family="Helvetica,sans-Serif" font-size="10.00"> </text>
<text text-anchor="start" x="753.2" y="-317.5" font-family="Helvetica,sans-Serif" font-size="10.00"> </text>
<polygon fill="#666666" stroke="#666666" points="708.2,-342.5 708.2,-342.5 802.2,-342.5 802.2,-342.5 708.2,-342.5"/>
<polygon fill="#666666" stroke="#666666" points="708.2,-327.5 708.2,-327.5 802.2,-327.5 802.2,-327.5 708.2,-327.5"/>
<polygon fill="none" stroke="#666666" points="708.2,-311 708.2,-360 802.2,-360 802.2,-311 708.2,-311"/>
</a>
</g>
</g>
<!-- Node9&#45;&gt;Node1 -->
<g id="edge8_Node000001_Node000009" class="edge">
<title>Node9&#45;&gt;Node1</title>
<g id="a_edge8_Node000001_Node000009"><a xlink:title=" ">
<path fill="none" stroke="#63b8ff" d="M760.25,-310.83C769.86,-258.65 784.33,-133.14 718.2,-67 688.33,-37.13 577.8,-28.41 499.61,-26.05"/>
<polygon fill="none" stroke="#63b8ff" points="499.35,-26.05 493.25,-29.89 487.36,-25.73 493.46,-21.89 499.35,-26.05"/>
</a>
</g>
<text text-anchor="middle" x="813.2" y="-125" font-family="Helvetica,sans-Serif" font-size="10.00" fill="grey"> +deinterlaceMode</text>
</g>
<!-- Node10&#45;&gt;Node1 -->
<g id="edge9_Node000001_Node000010" class="edge">
<title>Node10&#45;&gt;Node1</title>
<g id="a_edge9_Node000001_Node000010"><a xlink:title=" ">
<path fill="none" stroke="#63b8ff" d="M467.75,-235.85C462.15,-172.87 453.67,-97.52 443.2,-67 442.39,-64.64 441.43,-62.27 440.37,-59.92"/>
<polygon fill="none" stroke="#63b8ff" points="440.35,-59.88 434.03,-56.4 434.82,-49.23 441.13,-52.71 440.35,-59.88"/>
</a>
</g>
<text text-anchor="middle" x="488.2" y="-125" font-family="Helvetica,sans-Serif" font-size="10.00" fill="grey"> +targetSz</text>
</g>
</g>
</svg>
