<?xml version="1.0" encoding="UTF-8" standalone="no"?>
<!DOCTYPE svg PUBLIC "-//W3C//DTD SVG 1.1//EN"
 "http://www.w3.org/Graphics/SVG/1.1/DTD/svg11.dtd">
<!-- Generated by graphviz version 2.43.0 (0)
 -->
<!-- Title: cv::cuda::max Pages: 1 -->
<svg width="183pt" height="45pt"
 viewBox="0.00 0.00 183.00 45.00" xmlns="http://www.w3.org/2000/svg" xmlns:xlink="http://www.w3.org/1999/xlink">
<g id="graph0" class="graph" transform="scale(1 1) rotate(0) translate(4 41)">
<title>cv::cuda::max</title>
<!-- Node1 -->
<g id="Node000001" class="node">
<title>Node1</title>
<g id="a_Node000001"><a xlink:title="Computes the per&#45;element maximum of two matrices (or a matrix and a scalar).">
<polygon fill="#999999" stroke="#666666" points="84,-19 0,-19 0,0 84,0 84,-19"/>
<text text-anchor="middle" x="42" y="-7" font-family="Helvetica,sans-Serif" font-size="10.00">cv::cuda::max</text>
</a>
</g>
</g>
<!-- Node2 -->
<g id="Node000002" class="node">
<title>Node2</title>
<g id="a_Node000002"><a xlink:href="../../d2/de8/group__core__array.html#gacc40fa15eac0fb83f8ca70b7cc0b588d" target="_top" xlink:title="Calculates per&#45;element maximum of two arrays or an array and a scalar.">
<polygon fill="white" stroke="#666666" points="175,-19 120,-19 120,0 175,0 175,-19"/>
<text text-anchor="middle" x="147.5" y="-7" font-family="Helvetica,sans-Serif" font-size="10.00">cv::max</text>
</a>
</g>
</g>
<!-- Node1&#45;&gt;Node2 -->
<g id="edge1_Node000001_Node000002" class="edge">
<title>Node1&#45;&gt;Node2</title>
<g id="a_edge1_Node000001_Node000002"><a xlink:title=" ">
<path fill="none" stroke="#63b8ff" d="M84.2,-9.5C92.61,-9.5 101.4,-9.5 109.64,-9.5"/>
<polygon fill="#63b8ff" stroke="#63b8ff" points="109.71,-13 119.71,-9.5 109.71,-6 109.71,-13"/>
</a>
</g>
</g>
<!-- Node2&#45;&gt;Node2 -->
<g id="edge2_Node000002_Node000002" class="edge">
<title>Node2&#45;&gt;Node2</title>
<g id="a_edge2_Node000002_Node000002"><a xlink:title=" ">
<path fill="none" stroke="#63b8ff" d="M131.47,-19.08C123.67,-27.73 129.02,-37 147.5,-37 159.05,-37 165.47,-33.38 166.76,-28.55"/>
<polygon fill="#63b8ff" stroke="#63b8ff" points="170.07,-27.42 163.53,-19.08 163.44,-29.68 170.07,-27.42"/>
</a>
</g>
</g>
</g>
</svg>
