<?xml version="1.0" encoding="UTF-8" standalone="no"?>
<!DOCTYPE svg PUBLIC "-//W3C//DTD SVG 1.1//EN"
 "http://www.w3.org/Graphics/SVG/1.1/DTD/svg11.dtd">
<!-- Generated by graphviz version 2.43.0 (0)
 -->
<!-- Title: cv::cuda::pow Pages: 1 -->
<svg width="180pt" height="45pt"
 viewBox="0.00 0.00 180.00 45.00" xmlns="http://www.w3.org/2000/svg" xmlns:xlink="http://www.w3.org/1999/xlink">
<g id="graph0" class="graph" transform="scale(1 1) rotate(0) translate(4 41)">
<title>cv::cuda::pow</title>
<!-- Node1 -->
<g id="Node000001" class="node">
<title>Node1</title>
<g id="a_Node000001"><a xlink:title="Raises every matrix element to a power.">
<polygon fill="#999999" stroke="#666666" points="83,-19 0,-19 0,0 83,0 83,-19"/>
<text text-anchor="middle" x="41.5" y="-7" font-family="Helvetica,sans-Serif" font-size="10.00">cv::cuda::pow</text>
</a>
</g>
</g>
<!-- Node2 -->
<g id="Node000002" class="node">
<title>Node2</title>
<g id="a_Node000002"><a xlink:href="../../d2/de8/group__core__array.html#gaf0d056b5bd1dc92500d6f6cf6bac41ef" target="_top" xlink:title="Raises every array element to a power.">
<polygon fill="white" stroke="#666666" points="172,-19 119,-19 119,0 172,0 172,-19"/>
<text text-anchor="middle" x="145.5" y="-7" font-family="Helvetica,sans-Serif" font-size="10.00">cv::pow</text>
</a>
</g>
</g>
<!-- Node1&#45;&gt;Node2 -->
<g id="edge1_Node000001_Node000002" class="edge">
<title>Node1&#45;&gt;Node2</title>
<g id="a_edge1_Node000001_Node000002"><a xlink:title=" ">
<path fill="none" stroke="#63b8ff" d="M83.11,-9.5C91.62,-9.5 100.54,-9.5 108.86,-9.5"/>
<polygon fill="#63b8ff" stroke="#63b8ff" points="109,-13 119,-9.5 109,-6 109,-13"/>
</a>
</g>
</g>
<!-- Node2&#45;&gt;Node2 -->
<g id="edge2_Node000002_Node000002" class="edge">
<title>Node2&#45;&gt;Node2</title>
<g id="a_edge2_Node000002_Node000002"><a xlink:title=" ">
<path fill="none" stroke="#63b8ff" d="M129.47,-19.08C121.67,-27.73 127.02,-37 145.5,-37 157.05,-37 163.47,-33.38 164.76,-28.55"/>
<polygon fill="#63b8ff" stroke="#63b8ff" points="168.07,-27.42 161.53,-19.08 161.44,-29.68 168.07,-27.42"/>
</a>
</g>
</g>
</g>
</svg>
