<?xml version="1.0" encoding="UTF-8" standalone="no"?>
<!DOCTYPE svg PUBLIC "-//W3C//DTD SVG 1.1//EN"
 "http://www.w3.org/Graphics/SVG/1.1/DTD/svg11.dtd">
<!-- Generated by graphviz version 2.43.0 (0)
 -->
<!-- Title: cv::cuda::sqrt Pages: 1 -->
<svg width="177pt" height="45pt"
 viewBox="0.00 0.00 177.00 45.00" xmlns="http://www.w3.org/2000/svg" xmlns:xlink="http://www.w3.org/1999/xlink">
<g id="graph0" class="graph" transform="scale(1 1) rotate(0) translate(4 41)">
<title>cv::cuda::sqrt</title>
<!-- Node1 -->
<g id="Node000001" class="node">
<title>Node1</title>
<g id="a_Node000001"><a xlink:title="Computes a square root of each matrix element.">
<polygon fill="#999999" stroke="#666666" points="81,-19 0,-19 0,0 81,0 81,-19"/>
<text text-anchor="middle" x="40.5" y="-7" font-family="Helvetica,sans-Serif" font-size="10.00">cv::cuda::sqrt</text>
</a>
</g>
</g>
<!-- Node2 -->
<g id="Node000002" class="node">
<title>Node2</title>
<g id="a_Node000002"><a xlink:href="../../d2/de8/group__core__array.html#ga186222c3919657890f88df5a1f64a7d7" target="_top" xlink:title="Calculates a square root of array elements.">
<polygon fill="white" stroke="#666666" points="169,-19 117,-19 117,0 169,0 169,-19"/>
<text text-anchor="middle" x="143" y="-7" font-family="Helvetica,sans-Serif" font-size="10.00">cv::sqrt</text>
</a>
</g>
</g>
<!-- Node1&#45;&gt;Node2 -->
<g id="edge1_Node000001_Node000002" class="edge">
<title>Node1&#45;&gt;Node2</title>
<g id="a_edge1_Node000001_Node000002"><a xlink:title=" ">
<path fill="none" stroke="#63b8ff" d="M81.22,-9.5C89.63,-9.5 98.45,-9.5 106.69,-9.5"/>
<polygon fill="#63b8ff" stroke="#63b8ff" points="106.72,-13 116.72,-9.5 106.72,-6 106.72,-13"/>
</a>
</g>
</g>
<!-- Node2&#45;&gt;Node2 -->
<g id="edge2_Node000002_Node000002" class="edge">
<title>Node2&#45;&gt;Node2</title>
<g id="a_edge2_Node000002_Node000002"><a xlink:title=" ">
<path fill="none" stroke="#63b8ff" d="M127.28,-19.08C119.63,-27.73 124.87,-37 143,-37 154.05,-37 160.31,-33.56 161.78,-28.91"/>
<polygon fill="#63b8ff" stroke="#63b8ff" points="165.04,-27.59 158.72,-19.08 158.35,-29.67 165.04,-27.59"/>
</a>
</g>
</g>
</g>
</svg>
