<?xml version="1.0" encoding="UTF-8" standalone="no"?>
<!DOCTYPE svg PUBLIC "-//W3C//DTD SVG 1.1//EN"
 "http://www.w3.org/Graphics/SVG/1.1/DTD/svg11.dtd">
<!-- Generated by graphviz version 2.43.0 (0)
 -->
<!-- Title: cv::cudev::SobelYPtrSz&lt; SrcPtr &gt; Pages: 1 -->
<svg width="164pt" height="282pt"
 viewBox="0.00 0.00 163.50 282.00" xmlns="http://www.w3.org/2000/svg" xmlns:xlink="http://www.w3.org/1999/xlink">
<g id="graph0" class="graph" transform="scale(1 1) rotate(0) translate(4 278)">
<title>cv::cudev::SobelYPtrSz&lt; SrcPtr &gt;</title>
<!-- Node1 -->
<g id="Node000001" class="node">
<title>Node1</title>
<g id="a_Node000001"><a xlink:title=" ">
<polygon fill="#999999" stroke="transparent" points="155.5,-60 36.5,-60 36.5,0 155.5,0 155.5,-60"/>
<text text-anchor="start" x="42" y="-48" font-family="Helvetica,sans-Serif" font-size="10.00">cv::cudev::SobelYPtrSz</text>
<text text-anchor="start" x="70.5" y="-37" font-family="Helvetica,sans-Serif" font-size="10.00">&lt; SrcPtr &gt;</text>
<text text-anchor="start" x="94.5" y="-22" font-family="Helvetica,sans-Serif" font-size="10.00"> </text>
<text text-anchor="start" x="53" y="-7" font-family="Helvetica,sans-Serif" font-size="10.00">+</text>
<text text-anchor="start" x="78" y="-7" font-family="Helvetica,sans-Serif" font-size="10.00">assignTo()</text>
<polygon fill="#666666" stroke="#666666" points="37,-32 37,-32 156,-32 156,-32 37,-32"/>
<polygon fill="#666666" stroke="#666666" points="37,-17 37,-17 156,-17 156,-17 37,-17"/>
<polygon fill="none" stroke="#666666" points="36.5,0 36.5,-60 155.5,-60 155.5,0 36.5,0"/>
</a>
</g>
</g>
<!-- Node2 -->
<g id="Node000002" class="node">
<title>Node2</title>
<g id="a_Node000002"><a xlink:href="../../d0/da6/structcv_1_1cudev_1_1SobelYPtr.html" target="_top" xlink:title=" ">
<polygon fill="white" stroke="transparent" points="108,-178 0,-178 0,-118 108,-118 108,-178"/>
<text text-anchor="start" x="5" y="-166" font-family="Helvetica,sans-Serif" font-size="10.00">cv::cudev::SobelYPtr</text>
<text text-anchor="start" x="28" y="-155" font-family="Helvetica,sans-Serif" font-size="10.00">&lt; SrcPtr &gt;</text>
<text text-anchor="start" x="52" y="-140" font-family="Helvetica,sans-Serif" font-size="10.00"> </text>
<text text-anchor="start" x="11.5" y="-125" font-family="Helvetica,sans-Serif" font-size="10.00">+</text>
<text text-anchor="start" x="32" y="-125" font-family="Helvetica,sans-Serif" font-size="10.00">operator()()</text>
<polygon fill="#666666" stroke="#666666" points="0,-150 0,-150 108,-150 108,-150 0,-150"/>
<polygon fill="#666666" stroke="#666666" points="0,-135 0,-135 108,-135 108,-135 0,-135"/>
<polygon fill="none" stroke="#666666" points="0,-118 0,-178 108,-178 108,-118 0,-118"/>
</a>
</g>
</g>
<!-- Node2&#45;&gt;Node1 -->
<g id="edge1_Node000001_Node000002" class="edge">
<title>Node2&#45;&gt;Node1</title>
<g id="a_edge1_Node000001_Node000002"><a xlink:title=" ">
<path fill="none" stroke="#63b8ff" d="M68.02,-108.29C73.69,-92.62 80.13,-74.82 85.41,-60.26"/>
<polygon fill="none" stroke="#63b8ff" points="64.71,-107.13 64.6,-117.73 71.29,-109.52 64.71,-107.13"/>
</a>
</g>
</g>
<!-- Node3 -->
<g id="Node000003" class="node">
<title>Node3</title>
<g id="a_Node000003"><a xlink:title=" ">
<polygon fill="white" stroke="transparent" points="73.5,-274 34.5,-274 34.5,-225 73.5,-225 73.5,-274"/>
<text text-anchor="start" x="40" y="-261.5" font-family="Helvetica,sans-Serif" font-size="10.00">SrcPtr</text>
<text text-anchor="start" x="52.5" y="-246.5" font-family="Helvetica,sans-Serif" font-size="10.00"> </text>
<text text-anchor="start" x="52.5" y="-231.5" font-family="Helvetica,sans-Serif" font-size="10.00"> </text>
<polygon fill="#666666" stroke="#666666" points="35,-256.5 35,-256.5 74,-256.5 74,-256.5 35,-256.5"/>
<polygon fill="#666666" stroke="#666666" points="35,-241.5 35,-241.5 74,-241.5 74,-241.5 35,-241.5"/>
<polygon fill="none" stroke="#666666" points="34.5,-225 34.5,-274 73.5,-274 73.5,-225 34.5,-225"/>
</a>
</g>
</g>
<!-- Node3&#45;&gt;Node2 -->
<g id="edge2_Node000002_Node000003" class="edge">
<title>Node3&#45;&gt;Node2</title>
<g id="a_edge2_Node000002_Node000003"><a xlink:title=" ">
<path fill="none" stroke="#63b8ff" d="M54,-224.92C54,-214.51 54,-201.97 54,-190.1"/>
<polygon fill="none" stroke="#63b8ff" points="54,-190.1 50,-184.1 54,-178.1 58,-184.1 54,-190.1"/>
</a>
</g>
<text text-anchor="middle" x="67" y="-199" font-family="Helvetica,sans-Serif" font-size="10.00" fill="grey"> +src</text>
</g>
<!-- Node4 -->
<g id="Node000004" class="node">
<title>Node4</title>
<g id="a_Node000004"><a xlink:title=" ">
<polygon fill="white" stroke="transparent" points="149.5,-172.5 126.5,-172.5 126.5,-123.5 149.5,-123.5 149.5,-172.5"/>
<text text-anchor="start" x="132" y="-160" font-family="Helvetica,sans-Serif" font-size="10.00">int</text>
<text text-anchor="start" x="136.5" y="-145" font-family="Helvetica,sans-Serif" font-size="10.00"> </text>
<text text-anchor="start" x="136.5" y="-130" font-family="Helvetica,sans-Serif" font-size="10.00"> </text>
<polygon fill="#666666" stroke="#666666" points="127,-155 127,-155 150,-155 150,-155 127,-155"/>
<polygon fill="#666666" stroke="#666666" points="127,-140 127,-140 150,-140 150,-140 127,-140"/>
<polygon fill="none" stroke="#666666" points="126.5,-123.5 126.5,-172.5 149.5,-172.5 149.5,-123.5 126.5,-123.5"/>
</a>
</g>
</g>
<!-- Node4&#45;&gt;Node1 -->
<g id="edge3_Node000001_Node000004" class="edge">
<title>Node4&#45;&gt;Node1</title>
<g id="a_edge3_Node000001_Node000004"><a xlink:title=" ">
<path fill="none" stroke="#63b8ff" d="M129.4,-123.25C124.02,-108.38 116.94,-88.84 110.69,-71.57"/>
<polygon fill="none" stroke="#63b8ff" points="110.61,-71.35 104.81,-67.07 106.52,-60.07 112.33,-64.35 110.61,-71.35"/>
</a>
</g>
<text text-anchor="middle" x="136" y="-92" font-family="Helvetica,sans-Serif" font-size="10.00" fill="grey"> +cols</text>
<text text-anchor="middle" x="136" y="-81" font-family="Helvetica,sans-Serif" font-size="10.00" fill="grey">+rows</text>
</g>
</g>
</svg>
