<?xml version="1.0" encoding="UTF-8" standalone="no"?>
<!DOCTYPE svg PUBLIC "-//W3C//DTD SVG 1.1//EN"
 "http://www.w3.org/Graphics/SVG/1.1/DTD/svg11.dtd">
<!-- Generated by graphviz version 2.43.0 (0)
 -->
<!-- Title: cv::detail::GArrayU Pages: 1 -->
<svg width="420pt" height="491pt"
 viewBox="0.00 0.00 419.50 491.00" xmlns="http://www.w3.org/2000/svg" xmlns:xlink="http://www.w3.org/1999/xlink">
<g id="graph0" class="graph" transform="scale(1 1) rotate(0) translate(4 487)">
<title>cv::detail::GArrayU</title>
<!-- Node1 -->
<g id="Node000001" class="node">
<title>Node1</title>
<g id="a_Node000001"><a xlink:title=" ">
<polygon fill="#999999" stroke="transparent" points="201.5,-184 93.5,-184 93.5,0 201.5,0 201.5,-184"/>
<text text-anchor="start" x="101.5" y="-172" font-family="Helvetica,sans-Serif" font-size="10.00">cv::detail::GArrayU</text>
<text text-anchor="start" x="145.5" y="-157" font-family="Helvetica,sans-Serif" font-size="10.00"> </text>
<text text-anchor="start" x="97.5" y="-142" font-family="Helvetica,sans-Serif" font-size="10.00">+</text>
<text text-anchor="start" x="110.5" y="-142" font-family="Helvetica,sans-Serif" font-size="10.00">GArrayU()</text>
<text text-anchor="start" x="97.5" y="-127" font-family="Helvetica,sans-Serif" font-size="10.00">+</text>
<text text-anchor="start" x="110.5" y="-127" font-family="Helvetica,sans-Serif" font-size="10.00">holds()</text>
<text text-anchor="start" x="97.5" y="-112" font-family="Helvetica,sans-Serif" font-size="10.00">+</text>
<text text-anchor="start" x="110.5" y="-112" font-family="Helvetica,sans-Serif" font-size="10.00">priv()</text>
<text text-anchor="start" x="97.5" y="-97" font-family="Helvetica,sans-Serif" font-size="10.00">+</text>
<text text-anchor="start" x="110.5" y="-97" font-family="Helvetica,sans-Serif" font-size="10.00">priv()</text>
<text text-anchor="start" x="97.5" y="-82" font-family="Helvetica,sans-Serif" font-size="10.00">#</text>
<text text-anchor="start" x="110.5" y="-82" font-family="Helvetica,sans-Serif" font-size="10.00">GArrayU()</text>
<text text-anchor="start" x="97.5" y="-67" font-family="Helvetica,sans-Serif" font-size="10.00">#</text>
<text text-anchor="start" x="110.5" y="-67" font-family="Helvetica,sans-Serif" font-size="10.00">GArrayU()</text>
<text text-anchor="start" x="97.5" y="-52" font-family="Helvetica,sans-Serif" font-size="10.00">#</text>
<text text-anchor="start" x="110.5" y="-52" font-family="Helvetica,sans-Serif" font-size="10.00">setConstructFcn()</text>
<text text-anchor="start" x="97.5" y="-37" font-family="Helvetica,sans-Serif" font-size="10.00">#</text>
<text text-anchor="start" x="110.5" y="-37" font-family="Helvetica,sans-Serif" font-size="10.00">setKind()</text>
<text text-anchor="start" x="97.5" y="-22" font-family="Helvetica,sans-Serif" font-size="10.00">#</text>
<text text-anchor="start" x="110.5" y="-22" font-family="Helvetica,sans-Serif" font-size="10.00">specifyType()</text>
<text text-anchor="start" x="97.5" y="-7" font-family="Helvetica,sans-Serif" font-size="10.00">#</text>
<text text-anchor="start" x="110.5" y="-7" font-family="Helvetica,sans-Serif" font-size="10.00">storeKind()</text>
<polygon fill="#666666" stroke="#666666" points="93.5,-167 93.5,-167 201.5,-167 201.5,-167 93.5,-167"/>
<polygon fill="#666666" stroke="#666666" points="93.5,-152 93.5,-152 201.5,-152 201.5,-152 93.5,-152"/>
<polygon fill="none" stroke="#666666" points="93.5,0 93.5,-184 201.5,-184 201.5,0 93.5,0"/>
</a>
</g>
</g>
<!-- Node2 -->
<g id="Node000002" class="node">
<title>Node2</title>
<g id="a_Node000002"><a xlink:title=" ">
<polygon fill="white" stroke="transparent" points="143,-285.5 0,-285.5 0,-236.5 143,-236.5 143,-285.5"/>
<text text-anchor="start" x="5.5" y="-273" font-family="Helvetica,sans-Serif" font-size="10.00">std::shared_ptr&lt; GOrigin &gt;</text>
<text text-anchor="start" x="70" y="-258" font-family="Helvetica,sans-Serif" font-size="10.00"> </text>
<text text-anchor="start" x="19.5" y="-243" font-family="Helvetica,sans-Serif" font-size="10.00">+</text>
<text text-anchor="start" x="47.5" y="-243" font-family="Helvetica,sans-Serif" font-size="10.00">operator&#45;&gt;()</text>
<polygon fill="#666666" stroke="#666666" points="0.5,-268 0.5,-268 143.5,-268 143.5,-268 0.5,-268"/>
<polygon fill="#666666" stroke="#666666" points="0.5,-253 0.5,-253 143.5,-253 143.5,-253 0.5,-253"/>
<polygon fill="none" stroke="#666666" points="0,-236.5 0,-285.5 143,-285.5 143,-236.5 0,-236.5"/>
</a>
</g>
</g>
<!-- Node2&#45;&gt;Node1 -->
<g id="edge1_Node000001_Node000002" class="edge">
<title>Node2&#45;&gt;Node1</title>
<g id="a_edge1_Node000001_Node000002"><a xlink:title=" ">
<path fill="none" stroke="#63b8ff" d="M82.23,-236.43C87.36,-225.14 93.91,-210.77 100.85,-195.5"/>
<polygon fill="none" stroke="#63b8ff" points="101,-195.18 99.85,-188.06 105.97,-184.25 107.13,-191.37 101,-195.18"/>
</a>
</g>
<text text-anchor="middle" x="119.5" y="-205" font-family="Helvetica,sans-Serif" font-size="10.00" fill="grey"> #m_priv</text>
</g>
<!-- Node3 -->
<g id="Node000003" class="node">
<title>Node3</title>
<g id="a_Node000003"><a xlink:title=" ">
<polygon fill="white" stroke="transparent" points="71,-387 24,-387 24,-338 71,-338 71,-387"/>
<text text-anchor="start" x="29.5" y="-374.5" font-family="Helvetica,sans-Serif" font-size="10.00">GOrigin</text>
<text text-anchor="start" x="46" y="-359.5" font-family="Helvetica,sans-Serif" font-size="10.00"> </text>
<text text-anchor="start" x="46" y="-344.5" font-family="Helvetica,sans-Serif" font-size="10.00"> </text>
<polygon fill="#666666" stroke="#666666" points="24.5,-369.5 24.5,-369.5 71.5,-369.5 71.5,-369.5 24.5,-369.5"/>
<polygon fill="#666666" stroke="#666666" points="24.5,-354.5 24.5,-354.5 71.5,-354.5 71.5,-354.5 24.5,-354.5"/>
<polygon fill="none" stroke="#666666" points="24,-338 24,-387 71,-387 71,-338 24,-338"/>
</a>
</g>
</g>
<!-- Node3&#45;&gt;Node2 -->
<g id="edge2_Node000002_Node000003" class="edge">
<title>Node3&#45;&gt;Node2</title>
<g id="a_edge2_Node000002_Node000003"><a xlink:title=" ">
<path fill="none" stroke="#63b8ff" d="M45.79,-337.96C45.68,-328.81 46.25,-318.3 48.5,-309 49.49,-304.9 50.88,-300.75 52.48,-296.69"/>
<polygon fill="none" stroke="#63b8ff" points="52.53,-296.58 51.34,-289.47 57.45,-285.63 58.64,-292.75 52.53,-296.58"/>
</a>
</g>
<text text-anchor="middle" x="61" y="-312" font-family="Helvetica,sans-Serif" font-size="10.00" fill="grey"> +ptr</text>
</g>
<!-- Node4 -->
<g id="Node000004" class="node">
<title>Node4</title>
<g id="a_Node000004"><a xlink:title=" ">
<polygon fill="white" stroke="transparent" points="219.5,-387 107.5,-387 107.5,-338 219.5,-338 219.5,-387"/>
<text text-anchor="start" x="112.5" y="-374.5" font-family="Helvetica,sans-Serif" font-size="10.00">std::shared_ptr&lt; T &gt;</text>
<text text-anchor="start" x="161.5" y="-359.5" font-family="Helvetica,sans-Serif" font-size="10.00"> </text>
<text text-anchor="start" x="119" y="-344.5" font-family="Helvetica,sans-Serif" font-size="10.00">+</text>
<text text-anchor="start" x="139.5" y="-344.5" font-family="Helvetica,sans-Serif" font-size="10.00">operator&#45;&gt;()</text>
<polygon fill="#666666" stroke="#666666" points="107.5,-369.5 107.5,-369.5 219.5,-369.5 219.5,-369.5 107.5,-369.5"/>
<polygon fill="#666666" stroke="#666666" points="107.5,-354.5 107.5,-354.5 219.5,-354.5 219.5,-354.5 107.5,-354.5"/>
<polygon fill="none" stroke="#666666" points="107.5,-338 107.5,-387 219.5,-387 219.5,-338 107.5,-338"/>
</a>
</g>
</g>
<!-- Node4&#45;&gt;Node2 -->
<g id="edge3_Node000002_Node000004" class="edge">
<title>Node4&#45;&gt;Node2</title>
<g id="a_edge3_Node000002_Node000004"><a xlink:title=" ">
<path fill="none" stroke="orange" d="M122.48,-331.54C118.26,-327.84 114.18,-323.96 110.5,-320 100.83,-309.6 91.85,-296.6 84.96,-285.54"/>
<polygon fill="orange" stroke="orange" points="120.25,-334.24 130.16,-338 124.75,-328.89 120.25,-334.24"/>
</a>
</g>
<text text-anchor="middle" x="142" y="-312" font-family="Helvetica,sans-Serif" font-size="10.00" fill="grey"> &lt; GOrigin &gt;</text>
</g>
<!-- Node6 -->
<g id="Node000006" class="node">
<title>Node6</title>
<g id="a_Node000006"><a xlink:title=" ">
<polygon fill="white" stroke="transparent" points="289.5,-291 161.5,-291 161.5,-231 289.5,-231 289.5,-291"/>
<text text-anchor="start" x="166.5" y="-279" font-family="Helvetica,sans-Serif" font-size="10.00">std::shared_ptr&lt; cv</text>
<text text-anchor="start" x="166.5" y="-268" font-family="Helvetica,sans-Serif" font-size="10.00">::detail::TypeHintBase &gt;</text>
<text text-anchor="start" x="223.5" y="-253" font-family="Helvetica,sans-Serif" font-size="10.00"> </text>
<text text-anchor="start" x="177" y="-238" font-family="Helvetica,sans-Serif" font-size="10.00">+</text>
<text text-anchor="start" x="201.5" y="-238" font-family="Helvetica,sans-Serif" font-size="10.00">operator&#45;&gt;()</text>
<polygon fill="#666666" stroke="#666666" points="161.5,-263 161.5,-263 289.5,-263 289.5,-263 161.5,-263"/>
<polygon fill="#666666" stroke="#666666" points="161.5,-248 161.5,-248 289.5,-248 289.5,-248 161.5,-248"/>
<polygon fill="none" stroke="#666666" points="161.5,-231 161.5,-291 289.5,-291 289.5,-231 161.5,-231"/>
</a>
</g>
</g>
<!-- Node4&#45;&gt;Node6 -->
<g id="edge7_Node000006_Node000004" class="edge">
<title>Node4&#45;&gt;Node6</title>
<g id="a_edge7_Node000006_Node000004"><a xlink:title=" ">
<path fill="none" stroke="orange" d="M173.25,-328.35C175.81,-321.72 178.89,-314.96 182.5,-309 186.22,-302.85 190.82,-296.79 195.62,-291.18"/>
<polygon fill="orange" stroke="orange" points="169.92,-327.27 169.86,-337.87 176.51,-329.62 169.92,-327.27"/>
</a>
</g>
<text text-anchor="middle" x="254" y="-312" font-family="Helvetica,sans-Serif" font-size="10.00" fill="grey"> &lt; cv::detail::TypeHintBase &gt;</text>
</g>
<!-- Node5 -->
<g id="Node000005" class="node">
<title>Node5</title>
<g id="a_Node000005"><a xlink:title=" ">
<polygon fill="white" stroke="transparent" points="172,-483 155,-483 155,-434 172,-434 172,-483"/>
<text text-anchor="start" x="160.5" y="-470.5" font-family="Helvetica,sans-Serif" font-size="10.00">T</text>
<text text-anchor="start" x="162" y="-455.5" font-family="Helvetica,sans-Serif" font-size="10.00"> </text>
<text text-anchor="start" x="162" y="-440.5" font-family="Helvetica,sans-Serif" font-size="10.00"> </text>
<polygon fill="#666666" stroke="#666666" points="155.5,-465.5 155.5,-465.5 172.5,-465.5 172.5,-465.5 155.5,-465.5"/>
<polygon fill="#666666" stroke="#666666" points="155.5,-450.5 155.5,-450.5 172.5,-450.5 172.5,-450.5 155.5,-450.5"/>
<polygon fill="none" stroke="#666666" points="155,-434 155,-483 172,-483 172,-434 155,-434"/>
</a>
</g>
</g>
<!-- Node5&#45;&gt;Node4 -->
<g id="edge4_Node000004_Node000005" class="edge">
<title>Node5&#45;&gt;Node4</title>
<g id="a_edge4_Node000004_Node000005"><a xlink:title=" ">
<path fill="none" stroke="#63b8ff" d="M163.5,-433.78C163.5,-423.32 163.5,-410.79 163.5,-399.23"/>
<polygon fill="none" stroke="#63b8ff" points="163.5,-399.21 159.5,-393.21 163.5,-387.21 167.5,-393.21 163.5,-399.21"/>
</a>
</g>
<text text-anchor="middle" x="176" y="-408" font-family="Helvetica,sans-Serif" font-size="10.00" fill="grey"> +ptr</text>
</g>
<!-- Node6&#45;&gt;Node1 -->
<g id="edge5_Node000001_Node000006" class="edge">
<title>Node6&#45;&gt;Node1</title>
<g id="a_edge5_Node000001_Node000006"><a xlink:title=" ">
<path fill="none" stroke="#63b8ff" d="M211.91,-230.91C207.07,-220.54 201.3,-208.19 195.24,-195.21"/>
<polygon fill="none" stroke="#63b8ff" points="195.17,-195.05 189,-191.31 190.09,-184.18 196.25,-187.92 195.17,-195.05"/>
</a>
</g>
<text text-anchor="middle" x="225.5" y="-205" font-family="Helvetica,sans-Serif" font-size="10.00" fill="grey"> #m_hint</text>
</g>
<!-- Node7 -->
<g id="Node000007" class="node">
<title>Node7</title>
<g id="a_Node000007"><a xlink:href="../../d6/de4/structcv_1_1detail_1_1TypeHintBase.html" target="_top" xlink:title=" ">
<polygon fill="white" stroke="transparent" points="411.5,-387 283.5,-387 283.5,-338 411.5,-338 411.5,-387"/>
<text text-anchor="start" x="288.5" y="-374.5" font-family="Helvetica,sans-Serif" font-size="10.00">cv::detail::TypeHintBase</text>
<text text-anchor="start" x="345.5" y="-359.5" font-family="Helvetica,sans-Serif" font-size="10.00"> </text>
<text text-anchor="start" x="293.5" y="-344.5" font-family="Helvetica,sans-Serif" font-size="10.00">+</text>
<text text-anchor="start" x="312.5" y="-344.5" font-family="Helvetica,sans-Serif" font-size="10.00">~TypeHintBase()</text>
<polygon fill="#666666" stroke="#666666" points="283.5,-369.5 283.5,-369.5 411.5,-369.5 411.5,-369.5 283.5,-369.5"/>
<polygon fill="#666666" stroke="#666666" points="283.5,-354.5 283.5,-354.5 411.5,-354.5 411.5,-354.5 283.5,-354.5"/>
<polygon fill="none" stroke="#666666" points="283.5,-338 283.5,-387 411.5,-387 411.5,-338 283.5,-338"/>
</a>
</g>
</g>
<!-- Node7&#45;&gt;Node6 -->
<g id="edge6_Node000006_Node000007" class="edge">
<title>Node7&#45;&gt;Node6</title>
<g id="a_edge6_Node000006_Node000007"><a xlink:title=" ">
<path fill="none" stroke="#63b8ff" d="M341.72,-337.94C338.33,-328.04 333.16,-316.99 325.5,-309 318.22,-301.4 309.47,-294.9 300.21,-289.38"/>
<polygon fill="none" stroke="#63b8ff" points="300.11,-289.33 292.93,-289.95 289.59,-283.55 296.78,-282.93 300.11,-289.33"/>
</a>
</g>
<text text-anchor="middle" x="345" y="-312" font-family="Helvetica,sans-Serif" font-size="10.00" fill="grey"> +ptr</text>
</g>
</g>
</svg>
