<?xml version="1.0" encoding="UTF-8" standalone="no"?>
<!DOCTYPE svg PUBLIC "-//W3C//DTD SVG 1.1//EN"
 "http://www.w3.org/Graphics/SVG/1.1/DTD/svg11.dtd">
<!-- Generated by graphviz version 2.43.0 (0)
 -->
<!-- Title: cv::text::OCRHolisticWordRecognizer Pages: 1 -->
<svg width="143pt" height="213pt"
 viewBox="0.00 0.00 143.00 213.00" xmlns="http://www.w3.org/2000/svg" xmlns:xlink="http://www.w3.org/1999/xlink">
<g id="graph0" class="graph" transform="scale(1 1) rotate(0) translate(4 209)">
<title>cv::text::OCRHolisticWordRecognizer</title>
<!-- Node1 -->
<g id="Node000001" class="node">
<title>Node1</title>
<g id="a_Node000001"><a xlink:title="OCRHolisticWordRecognizer class provides the functionallity of segmented wordspotting....">
<polygon fill="#999999" stroke="transparent" points="135,-90 0,-90 0,0 135,0 135,-90"/>
<text text-anchor="start" x="5.5" y="-78" font-family="Helvetica,sans-Serif" font-size="10.00">cv::text::OCRHolisticWord</text>
<text text-anchor="start" x="40.5" y="-67" font-family="Helvetica,sans-Serif" font-size="10.00">Recognizer</text>
<text text-anchor="start" x="66" y="-52" font-family="Helvetica,sans-Serif" font-size="10.00"> </text>
<text text-anchor="start" x="23" y="-37" font-family="Helvetica,sans-Serif" font-size="10.00">+</text>
<text text-anchor="start" x="54.5" y="-37" font-family="Helvetica,sans-Serif" font-size="10.00">run()</text>
<text text-anchor="start" x="23" y="-22" font-family="Helvetica,sans-Serif" font-size="10.00">+</text>
<text text-anchor="start" x="54.5" y="-22" font-family="Helvetica,sans-Serif" font-size="10.00">run()</text>
<text text-anchor="start" x="23" y="-7" font-family="Helvetica,sans-Serif" font-size="10.00">+</text>
<text text-anchor="start" x="54.5" y="-7" font-family="Helvetica,sans-Serif" font-size="10.00">create()</text>
<polygon fill="#666666" stroke="#666666" points="0.5,-62 0.5,-62 135.5,-62 135.5,-62 0.5,-62"/>
<polygon fill="#666666" stroke="#666666" points="0.5,-47 0.5,-47 135.5,-47 135.5,-47 0.5,-47"/>
<polygon fill="none" stroke="#666666" points="0,0 0,-90 135,-90 135,0 0,0"/>
</a>
</g>
</g>
<!-- Node2 -->
<g id="Node000002" class="node">
<title>Node2</title>
<g id="a_Node000002"><a xlink:href="../../de/d3a/classcv_1_1text_1_1BaseOCR.html" target="_top" xlink:title=" ">
<polygon fill="white" stroke="transparent" points="116.5,-205 18.5,-205 18.5,-126 116.5,-126 116.5,-205"/>
<text text-anchor="start" x="23.5" y="-192.5" font-family="Helvetica,sans-Serif" font-size="10.00">cv::text::BaseOCR</text>
<text text-anchor="start" x="65.5" y="-177.5" font-family="Helvetica,sans-Serif" font-size="10.00"> </text>
<text text-anchor="start" x="26.5" y="-162.5" font-family="Helvetica,sans-Serif" font-size="10.00">+</text>
<text text-anchor="start" x="43.5" y="-162.5" font-family="Helvetica,sans-Serif" font-size="10.00">~BaseOCR()</text>
<text text-anchor="start" x="26.5" y="-147.5" font-family="Helvetica,sans-Serif" font-size="10.00">+</text>
<text text-anchor="start" x="43.5" y="-147.5" font-family="Helvetica,sans-Serif" font-size="10.00">run()</text>
<text text-anchor="start" x="26.5" y="-132.5" font-family="Helvetica,sans-Serif" font-size="10.00">+</text>
<text text-anchor="start" x="43.5" y="-132.5" font-family="Helvetica,sans-Serif" font-size="10.00">run()</text>
<polygon fill="#666666" stroke="#666666" points="18.5,-187.5 18.5,-187.5 116.5,-187.5 116.5,-187.5 18.5,-187.5"/>
<polygon fill="#666666" stroke="#666666" points="18.5,-172.5 18.5,-172.5 116.5,-172.5 116.5,-172.5 18.5,-172.5"/>
<polygon fill="none" stroke="#666666" points="18.5,-126 18.5,-205 116.5,-205 116.5,-126 18.5,-126"/>
</a>
</g>
</g>
<!-- Node2&#45;&gt;Node1 -->
<g id="edge1_Node000001_Node000002" class="edge">
<title>Node2&#45;&gt;Node1</title>
<g id="a_edge1_Node000001_Node000002"><a xlink:title=" ">
<path fill="none" stroke="#63b8ff" d="M67.5,-115.63C67.5,-107.21 67.5,-98.51 67.5,-90.23"/>
<polygon fill="none" stroke="#63b8ff" points="64,-115.7 67.5,-125.7 71,-115.7 64,-115.7"/>
</a>
</g>
</g>
</g>
</svg>
