<?xml version="1.0" encoding="UTF-8" standalone="no"?>
<!DOCTYPE svg PUBLIC "-//W3C//DTD SVG 1.1//EN"
 "http://www.w3.org/Graphics/SVG/1.1/DTD/svg11.dtd">
<!-- Generated by graphviz version 2.43.0 (0)
 -->
<!-- Title: cv::img_hash::MarrHildrethHash Pages: 1 -->
<svg width="248pt" height="539pt"
 viewBox="0.00 0.00 248.00 539.00" xmlns="http://www.w3.org/2000/svg" xmlns:xlink="http://www.w3.org/1999/xlink">
<g id="graph0" class="graph" transform="scale(1 1) rotate(0) translate(4 535)">
<title>cv::img_hash::MarrHildrethHash</title>
<!-- Node1 -->
<g id="Node000001" class="node">
<title>Node1</title>
<g id="a_Node000001"><a xlink:title="Marr&#45;Hildreth Operator Based Hash, slowest but more discriminative.">
<polygon fill="#999999" stroke="transparent" points="202.5,-109 35.5,-109 35.5,0 202.5,0 202.5,-109"/>
<text text-anchor="start" x="41" y="-96.5" font-family="Helvetica,sans-Serif" font-size="10.00">cv::img_hash::MarrHildrethHash</text>
<text text-anchor="start" x="117.5" y="-81.5" font-family="Helvetica,sans-Serif" font-size="10.00"> </text>
<text text-anchor="start" x="53" y="-66.5" font-family="Helvetica,sans-Serif" font-size="10.00">+</text>
<text text-anchor="start" x="79" y="-66.5" font-family="Helvetica,sans-Serif" font-size="10.00">getAlpha()</text>
<text text-anchor="start" x="53" y="-51.5" font-family="Helvetica,sans-Serif" font-size="10.00">+</text>
<text text-anchor="start" x="79" y="-51.5" font-family="Helvetica,sans-Serif" font-size="10.00">getScale()</text>
<text text-anchor="start" x="53" y="-36.5" font-family="Helvetica,sans-Serif" font-size="10.00">+</text>
<text text-anchor="start" x="79" y="-36.5" font-family="Helvetica,sans-Serif" font-size="10.00">setKernelParam()</text>
<text text-anchor="start" x="53" y="-21.5" font-family="Helvetica,sans-Serif" font-size="10.00">+</text>
<text text-anchor="start" x="79" y="-21.5" font-family="Helvetica,sans-Serif" font-size="10.00">create()</text>
<text text-anchor="start" x="53" y="-6.5" font-family="Helvetica,sans-Serif" font-size="10.00">#</text>
<text text-anchor="start" x="79" y="-6.5" font-family="Helvetica,sans-Serif" font-size="10.00">MarrHildrethHash()</text>
<polygon fill="#666666" stroke="#666666" points="36,-91.5 36,-91.5 203,-91.5 203,-91.5 36,-91.5"/>
<polygon fill="#666666" stroke="#666666" points="36,-76.5 36,-76.5 203,-76.5 203,-76.5 36,-76.5"/>
<polygon fill="none" stroke="#666666" points="35.5,0 35.5,-109 202.5,-109 202.5,0 35.5,0"/>
</a>
</g>
</g>
<!-- Node2 -->
<g id="Node000002" class="node">
<title>Node2</title>
<g id="a_Node000002"><a xlink:href="../../de/d29/classcv_1_1img__hash_1_1ImgHashBase.html" target="_top" xlink:title="The base class for image hash algorithms.">
<polygon fill="white" stroke="transparent" points="193,-240 45,-240 45,-146 193,-146 193,-240"/>
<text text-anchor="start" x="50" y="-228" font-family="Helvetica,sans-Serif" font-size="10.00">cv::img_hash::ImgHashBase</text>
<text text-anchor="start" x="117" y="-213" font-family="Helvetica,sans-Serif" font-size="10.00"> </text>
<text text-anchor="start" x="59.5" y="-198" font-family="Helvetica,sans-Serif" font-size="10.00">+</text>
<text text-anchor="start" x="83" y="-198" font-family="Helvetica,sans-Serif" font-size="10.00">~ImgHashBase()</text>
<text text-anchor="start" x="59.5" y="-183" font-family="Helvetica,sans-Serif" font-size="10.00">+</text>
<text text-anchor="start" x="83" y="-183" font-family="Helvetica,sans-Serif" font-size="10.00">compare()</text>
<text text-anchor="start" x="59.5" y="-168" font-family="Helvetica,sans-Serif" font-size="10.00">+</text>
<text text-anchor="start" x="83" y="-168" font-family="Helvetica,sans-Serif" font-size="10.00">compute()</text>
<text text-anchor="start" x="59.5" y="-153" font-family="Helvetica,sans-Serif" font-size="10.00">#</text>
<text text-anchor="start" x="83" y="-153" font-family="Helvetica,sans-Serif" font-size="10.00">ImgHashBase()</text>
<polygon fill="#666666" stroke="#666666" points="45,-223 45,-223 193,-223 193,-223 45,-223"/>
<polygon fill="#666666" stroke="#666666" points="45,-208 45,-208 193,-208 193,-208 45,-208"/>
<polygon fill="none" stroke="#666666" points="45,-146 45,-240 193,-240 193,-146 45,-146"/>
</a>
</g>
</g>
<!-- Node2&#45;&gt;Node1 -->
<g id="edge1_Node000001_Node000002" class="edge">
<title>Node2&#45;&gt;Node1</title>
<g id="a_edge1_Node000001_Node000002"><a xlink:title=" ">
<path fill="none" stroke="#63b8ff" d="M119,-135.67C119,-126.92 119,-117.9 119,-109.2"/>
<polygon fill="none" stroke="#63b8ff" points="115.5,-135.79 119,-145.79 122.5,-135.79 115.5,-135.79"/>
</a>
</g>
</g>
<!-- Node3 -->
<g id="Node000003" class="node">
<title>Node3</title>
<g id="a_Node000003"><a xlink:href="../../d3/d46/classcv_1_1Algorithm.html" target="_top" xlink:title="This is a base class for all more or less complex algorithms in OpenCV.">
<polygon fill="white" stroke="transparent" points="110,-531 0,-531 0,-287 110,-287 110,-531"/>
<text text-anchor="start" x="22.5" y="-519" font-family="Helvetica,sans-Serif" font-size="10.00">cv::Algorithm</text>
<text text-anchor="start" x="53" y="-504" font-family="Helvetica,sans-Serif" font-size="10.00"> </text>
<text text-anchor="start" x="4" y="-489" font-family="Helvetica,sans-Serif" font-size="10.00">+</text>
<text text-anchor="start" x="17" y="-489" font-family="Helvetica,sans-Serif" font-size="10.00">Algorithm()</text>
<text text-anchor="start" x="4" y="-474" font-family="Helvetica,sans-Serif" font-size="10.00">+</text>
<text text-anchor="start" x="17" y="-474" font-family="Helvetica,sans-Serif" font-size="10.00">~Algorithm()</text>
<text text-anchor="start" x="4" y="-459" font-family="Helvetica,sans-Serif" font-size="10.00">+</text>
<text text-anchor="start" x="17" y="-459" font-family="Helvetica,sans-Serif" font-size="10.00">clear()</text>
<text text-anchor="start" x="4" y="-444" font-family="Helvetica,sans-Serif" font-size="10.00">+</text>
<text text-anchor="start" x="17" y="-444" font-family="Helvetica,sans-Serif" font-size="10.00">empty()</text>
<text text-anchor="start" x="4" y="-429" font-family="Helvetica,sans-Serif" font-size="10.00">+</text>
<text text-anchor="start" x="17" y="-429" font-family="Helvetica,sans-Serif" font-size="10.00">getDefaultName()</text>
<text text-anchor="start" x="4" y="-414" font-family="Helvetica,sans-Serif" font-size="10.00">+</text>
<text text-anchor="start" x="17" y="-414" font-family="Helvetica,sans-Serif" font-size="10.00">read()</text>
<text text-anchor="start" x="4" y="-399" font-family="Helvetica,sans-Serif" font-size="10.00">+</text>
<text text-anchor="start" x="17" y="-399" font-family="Helvetica,sans-Serif" font-size="10.00">save()</text>
<text text-anchor="start" x="4" y="-384" font-family="Helvetica,sans-Serif" font-size="10.00">+</text>
<text text-anchor="start" x="17" y="-384" font-family="Helvetica,sans-Serif" font-size="10.00">write()</text>
<text text-anchor="start" x="4" y="-369" font-family="Helvetica,sans-Serif" font-size="10.00">+</text>
<text text-anchor="start" x="17" y="-369" font-family="Helvetica,sans-Serif" font-size="10.00">write()</text>
<text text-anchor="start" x="4" y="-354" font-family="Helvetica,sans-Serif" font-size="10.00">+</text>
<text text-anchor="start" x="17" y="-354" font-family="Helvetica,sans-Serif" font-size="10.00">write()</text>
<text text-anchor="start" x="4" y="-339" font-family="Helvetica,sans-Serif" font-size="10.00">+</text>
<text text-anchor="start" x="17" y="-339" font-family="Helvetica,sans-Serif" font-size="10.00">load()</text>
<text text-anchor="start" x="4" y="-324" font-family="Helvetica,sans-Serif" font-size="10.00">+</text>
<text text-anchor="start" x="17" y="-324" font-family="Helvetica,sans-Serif" font-size="10.00">loadFromString()</text>
<text text-anchor="start" x="4" y="-309" font-family="Helvetica,sans-Serif" font-size="10.00">+</text>
<text text-anchor="start" x="17" y="-309" font-family="Helvetica,sans-Serif" font-size="10.00">read()</text>
<text text-anchor="start" x="4" y="-294" font-family="Helvetica,sans-Serif" font-size="10.00">#</text>
<text text-anchor="start" x="17" y="-294" font-family="Helvetica,sans-Serif" font-size="10.00">writeFormat()</text>
<polygon fill="#666666" stroke="#666666" points="0,-514 0,-514 110,-514 110,-514 0,-514"/>
<polygon fill="#666666" stroke="#666666" points="0,-499 0,-499 110,-499 110,-499 0,-499"/>
<polygon fill="none" stroke="#666666" points="0,-287 0,-531 110,-531 110,-287 0,-287"/>
</a>
</g>
</g>
<!-- Node3&#45;&gt;Node2 -->
<g id="edge2_Node000002_Node000003" class="edge">
<title>Node3&#45;&gt;Node2</title>
<g id="a_edge2_Node000002_Node000003"><a xlink:title=" ">
<path fill="none" stroke="#63b8ff" d="M94.11,-277.24C98.05,-264.04 101.85,-251.35 105.23,-240.03"/>
<polygon fill="none" stroke="#63b8ff" points="90.72,-276.35 91.21,-286.93 97.43,-278.35 90.72,-276.35"/>
</a>
</g>
</g>
<!-- Node4 -->
<g id="Node000004" class="node">
<title>Node4</title>
<g id="a_Node000004"><a xlink:title=" ">
<polygon fill="white" stroke="transparent" points="240,-433.5 128,-433.5 128,-384.5 240,-384.5 240,-433.5"/>
<text text-anchor="start" x="133" y="-421" font-family="Helvetica,sans-Serif" font-size="10.00">Ptr&lt; ImgHashImpl &gt;</text>
<text text-anchor="start" x="182" y="-406" font-family="Helvetica,sans-Serif" font-size="10.00"> </text>
<text text-anchor="start" x="182" y="-391" font-family="Helvetica,sans-Serif" font-size="10.00"> </text>
<polygon fill="#666666" stroke="#666666" points="128,-416 128,-416 240,-416 240,-416 128,-416"/>
<polygon fill="#666666" stroke="#666666" points="128,-401 128,-401 240,-401 240,-401 128,-401"/>
<polygon fill="none" stroke="#666666" points="128,-384.5 128,-433.5 240,-433.5 240,-384.5 128,-384.5"/>
</a>
</g>
</g>
<!-- Node4&#45;&gt;Node2 -->
<g id="edge3_Node000002_Node000004" class="edge">
<title>Node4&#45;&gt;Node2</title>
<g id="a_edge3_Node000002_Node000004"><a xlink:title=" ">
<path fill="none" stroke="#63b8ff" d="M176.8,-384.28C167.17,-352.58 149.79,-295.36 136.59,-251.92"/>
<polygon fill="none" stroke="#63b8ff" points="136.57,-251.83 130.99,-247.25 133.08,-240.35 138.65,-244.93 136.57,-251.83"/>
</a>
</g>
<text text-anchor="middle" x="161" y="-261" font-family="Helvetica,sans-Serif" font-size="10.00" fill="grey"> #pImpl</text>
</g>
</g>
</svg>
