<?xml version="1.0" encoding="UTF-8" standalone="no"?>
<!DOCTYPE svg PUBLIC "-//W3C//DTD SVG 1.1//EN"
 "http://www.w3.org/Graphics/SVG/1.1/DTD/svg11.dtd">
<!-- Generated by graphviz version 2.43.0 (0)
 -->
<!-- Title: cv::cudev::PtrTraits&lt; GlobPtrSz&lt; T &gt; &gt; Pages: 1 -->
<svg width="231pt" height="343pt"
 viewBox="0.00 0.00 230.50 343.00" xmlns="http://www.w3.org/2000/svg" xmlns:xlink="http://www.w3.org/1999/xlink">
<g id="graph0" class="graph" transform="scale(1 1) rotate(0) translate(4 339)">
<title>cv::cudev::PtrTraits&lt; GlobPtrSz&lt; T &gt; &gt;</title>
<!-- Node1 -->
<g id="Node000001" class="node">
<title>Node1</title>
<g id="a_Node000001"><a xlink:title=" ">
<polygon fill="#999999" stroke="transparent" points="144,-60 35,-60 35,0 144,0 144,-60"/>
<text text-anchor="start" x="40.5" y="-48" font-family="Helvetica,sans-Serif" font-size="10.00">cv::cudev::PtrTraits</text>
<text text-anchor="start" x="40.5" y="-37" font-family="Helvetica,sans-Serif" font-size="10.00">&lt; GlobPtrSz&lt; T &gt; &gt;</text>
<text text-anchor="start" x="88" y="-22" font-family="Helvetica,sans-Serif" font-size="10.00"> </text>
<text text-anchor="start" x="88" y="-7" font-family="Helvetica,sans-Serif" font-size="10.00"> </text>
<polygon fill="#666666" stroke="#666666" points="35.5,-32 35.5,-32 144.5,-32 144.5,-32 35.5,-32"/>
<polygon fill="#666666" stroke="#666666" points="35.5,-17 35.5,-17 144.5,-17 144.5,-17 35.5,-17"/>
<polygon fill="none" stroke="#666666" points="35,0 35,-60 144,-60 144,0 35,0"/>
</a>
</g>
</g>
<!-- Node2 -->
<g id="Node000002" class="node">
<title>Node2</title>
<g id="a_Node000002"><a xlink:href="../../db/d3c/structcv_1_1cudev_1_1PtrTraitsBase.html" target="_top" xlink:title=" ">
<polygon fill="white" stroke="transparent" points="179,-187 0,-187 0,-97 179,-97 179,-187"/>
<text text-anchor="start" x="5.5" y="-175" font-family="Helvetica,sans-Serif" font-size="10.00">cv::cudev::PtrTraitsBase</text>
<text text-anchor="start" x="5.5" y="-164" font-family="Helvetica,sans-Serif" font-size="10.00">&lt; GlobPtrSz&lt; T &gt;, GlobPtr&lt; T &gt; &gt;</text>
<text text-anchor="start" x="88" y="-149" font-family="Helvetica,sans-Serif" font-size="10.00"> </text>
<text text-anchor="start" x="31" y="-134" font-family="Helvetica,sans-Serif" font-size="10.00">+</text>
<text text-anchor="start" x="70.5" y="-134" font-family="Helvetica,sans-Serif" font-size="10.00">getCols()</text>
<text text-anchor="start" x="31" y="-119" font-family="Helvetica,sans-Serif" font-size="10.00">+</text>
<text text-anchor="start" x="70.5" y="-119" font-family="Helvetica,sans-Serif" font-size="10.00">getRows()</text>
<text text-anchor="start" x="31" y="-104" font-family="Helvetica,sans-Serif" font-size="10.00">+</text>
<text text-anchor="start" x="70.5" y="-104" font-family="Helvetica,sans-Serif" font-size="10.00">shrinkPtr()</text>
<polygon fill="#666666" stroke="#666666" points="0.5,-159 0.5,-159 179.5,-159 179.5,-159 0.5,-159"/>
<polygon fill="#666666" stroke="#666666" points="0.5,-144 0.5,-144 179.5,-144 179.5,-144 0.5,-144"/>
<polygon fill="none" stroke="#666666" points="0,-97 0,-187 179,-187 179,-97 0,-97"/>
</a>
</g>
</g>
<!-- Node2&#45;&gt;Node1 -->
<g id="edge1_Node000001_Node000002" class="edge">
<title>Node2&#45;&gt;Node1</title>
<g id="a_edge1_Node000001_Node000002"><a xlink:title=" ">
<path fill="none" stroke="#63b8ff" d="M89.5,-86.68C89.5,-77.57 89.5,-68.44 89.5,-60.28"/>
<polygon fill="none" stroke="#63b8ff" points="86,-86.89 89.5,-96.89 93,-86.89 86,-86.89"/>
</a>
</g>
</g>
<!-- Node3 -->
<g id="Node000003" class="node">
<title>Node3</title>
<g id="a_Node000003"><a xlink:href="../../db/d3c/structcv_1_1cudev_1_1PtrTraitsBase.html" target="_top" xlink:title=" ">
<polygon fill="white" stroke="transparent" points="152,-335 27,-335 27,-245 152,-245 152,-335"/>
<text text-anchor="start" x="32.5" y="-323" font-family="Helvetica,sans-Serif" font-size="10.00">cv::cudev::PtrTraitsBase</text>
<text text-anchor="start" x="43" y="-312" font-family="Helvetica,sans-Serif" font-size="10.00">&lt; Ptr2DSz, Ptr2D &gt;</text>
<text text-anchor="start" x="88" y="-297" font-family="Helvetica,sans-Serif" font-size="10.00"> </text>
<text text-anchor="start" x="44.5" y="-282" font-family="Helvetica,sans-Serif" font-size="10.00">+</text>
<text text-anchor="start" x="70.5" y="-282" font-family="Helvetica,sans-Serif" font-size="10.00">getCols()</text>
<text text-anchor="start" x="44.5" y="-267" font-family="Helvetica,sans-Serif" font-size="10.00">+</text>
<text text-anchor="start" x="70.5" y="-267" font-family="Helvetica,sans-Serif" font-size="10.00">getRows()</text>
<text text-anchor="start" x="44.5" y="-252" font-family="Helvetica,sans-Serif" font-size="10.00">+</text>
<text text-anchor="start" x="70.5" y="-252" font-family="Helvetica,sans-Serif" font-size="10.00">shrinkPtr()</text>
<polygon fill="#666666" stroke="#666666" points="27.5,-307 27.5,-307 152.5,-307 152.5,-307 27.5,-307"/>
<polygon fill="#666666" stroke="#666666" points="27.5,-292 27.5,-292 152.5,-292 152.5,-292 27.5,-292"/>
<polygon fill="none" stroke="#666666" points="27,-245 27,-335 152,-335 152,-245 27,-245"/>
</a>
</g>
</g>
<!-- Node3&#45;&gt;Node2 -->
<g id="edge2_Node000002_Node000003" class="edge">
<title>Node3&#45;&gt;Node2</title>
<g id="a_edge2_Node000002_Node000003"><a xlink:title=" ">
<path fill="none" stroke="orange" d="M89.5,-234.69C89.5,-218.99 89.5,-202.05 89.5,-187.05"/>
<polygon fill="orange" stroke="orange" points="86,-234.8 89.5,-244.8 93,-234.8 86,-234.8"/>
</a>
</g>
<text text-anchor="start" x="89.5" y="-219" font-family="Helvetica,sans-Serif" font-size="10.00" fill="grey"> &lt; GlobPtrSz&lt; T &gt;, GlobPtr</text>
<text text-anchor="middle" x="156" y="-208" font-family="Helvetica,sans-Serif" font-size="10.00" fill="grey">&lt; T &gt; &gt;</text>
</g>
</g>
</svg>
