<?xml version="1.0" encoding="UTF-8" standalone="no"?>
<!DOCTYPE svg PUBLIC "-//W3C//DTD SVG 1.1//EN"
 "http://www.w3.org/Graphics/SVG/1.1/DTD/svg11.dtd">
<!-- Generated by graphviz version 2.43.0 (0)
 -->
<!-- Title: cv::TrackerKCF::Params Pages: 1 -->
<svg width="375pt" height="208pt"
 viewBox="0.00 0.00 375.00 208.00" xmlns="http://www.w3.org/2000/svg" xmlns:xlink="http://www.w3.org/1999/xlink">
<g id="graph0" class="graph" transform="scale(1 1) rotate(0) translate(4 204)">
<title>cv::TrackerKCF::Params</title>
<!-- Node1 -->
<g id="Node000001" class="node">
<title>Node1</title>
<g id="a_Node000001"><a xlink:title=" ">
<polygon fill="#999999" stroke="transparent" points="209,-49 87,-49 87,0 209,0 209,-49"/>
<text text-anchor="start" x="92" y="-36.5" font-family="Helvetica,sans-Serif" font-size="10.00">cv::TrackerKCF::Params</text>
<text text-anchor="start" x="146" y="-21.5" font-family="Helvetica,sans-Serif" font-size="10.00"> </text>
<text text-anchor="start" x="105" y="-6.5" font-family="Helvetica,sans-Serif" font-size="10.00">+</text>
<text text-anchor="start" x="132" y="-6.5" font-family="Helvetica,sans-Serif" font-size="10.00">Params()</text>
<polygon fill="#666666" stroke="#666666" points="87,-31.5 87,-31.5 209,-31.5 209,-31.5 87,-31.5"/>
<polygon fill="#666666" stroke="#666666" points="87,-16.5 87,-16.5 209,-16.5 209,-16.5 87,-16.5"/>
<polygon fill="none" stroke="#666666" points="87,0 87,-49 209,-49 209,0 87,0"/>
</a>
</g>
</g>
<!-- Node2 -->
<g id="Node000002" class="node">
<title>Node2</title>
<g id="a_Node000002"><a xlink:title=" ">
<polygon fill="white" stroke="transparent" points="32,-200 0,-200 0,-151 32,-151 32,-200"/>
<text text-anchor="start" x="5" y="-187.5" font-family="Helvetica,sans-Serif" font-size="10.00">float</text>
<text text-anchor="start" x="14" y="-172.5" font-family="Helvetica,sans-Serif" font-size="10.00"> </text>
<text text-anchor="start" x="14" y="-157.5" font-family="Helvetica,sans-Serif" font-size="10.00"> </text>
<polygon fill="#666666" stroke="#666666" points="0,-182.5 0,-182.5 32,-182.5 32,-182.5 0,-182.5"/>
<polygon fill="#666666" stroke="#666666" points="0,-167.5 0,-167.5 32,-167.5 32,-167.5 0,-167.5"/>
<polygon fill="none" stroke="#666666" points="0,-151 0,-200 32,-200 32,-151 0,-151"/>
</a>
</g>
</g>
<!-- Node2&#45;&gt;Node1 -->
<g id="edge1_Node000001_Node000002" class="edge">
<title>Node2&#45;&gt;Node1</title>
<g id="a_edge1_Node000001_Node000002"><a xlink:title=" ">
<path fill="none" stroke="#63b8ff" d="M13.82,-150.74C12.95,-126.89 15.42,-90.4 35,-67 45.42,-54.55 59.93,-45.83 75.08,-39.73"/>
<polygon fill="none" stroke="#63b8ff" points="75.43,-39.6 79.73,-33.81 86.73,-35.56 82.43,-41.35 75.43,-39.6"/>
</a>
</g>
<text text-anchor="middle" x="89.5" y="-125" font-family="Helvetica,sans-Serif" font-size="10.00" fill="grey"> +detect_thresh</text>
<text text-anchor="middle" x="89.5" y="-114" font-family="Helvetica,sans-Serif" font-size="10.00" fill="grey">+interp_factor</text>
<text text-anchor="middle" x="89.5" y="-103" font-family="Helvetica,sans-Serif" font-size="10.00" fill="grey">+lambda</text>
<text text-anchor="middle" x="89.5" y="-92" font-family="Helvetica,sans-Serif" font-size="10.00" fill="grey">+output_sigma_factor</text>
<text text-anchor="middle" x="89.5" y="-81" font-family="Helvetica,sans-Serif" font-size="10.00" fill="grey">+pca_learning_rate</text>
<text text-anchor="middle" x="89.5" y="-70" font-family="Helvetica,sans-Serif" font-size="10.00" fill="grey">+sigma</text>
</g>
<!-- Node3 -->
<g id="Node000003" class="node">
<title>Node3</title>
<g id="a_Node000003"><a xlink:title=" ">
<polygon fill="white" stroke="transparent" points="164,-200 132,-200 132,-151 164,-151 164,-200"/>
<text text-anchor="start" x="137" y="-187.5" font-family="Helvetica,sans-Serif" font-size="10.00">bool</text>
<text text-anchor="start" x="146" y="-172.5" font-family="Helvetica,sans-Serif" font-size="10.00"> </text>
<text text-anchor="start" x="146" y="-157.5" font-family="Helvetica,sans-Serif" font-size="10.00"> </text>
<polygon fill="#666666" stroke="#666666" points="132,-182.5 132,-182.5 164,-182.5 164,-182.5 132,-182.5"/>
<polygon fill="#666666" stroke="#666666" points="132,-167.5 132,-167.5 164,-167.5 164,-167.5 132,-167.5"/>
<polygon fill="none" stroke="#666666" points="132,-151 132,-200 164,-200 164,-151 132,-151"/>
</a>
</g>
</g>
<!-- Node3&#45;&gt;Node1 -->
<g id="edge2_Node000001_Node000003" class="edge">
<title>Node3&#45;&gt;Node1</title>
<g id="a_edge2_Node000001_Node000003"><a xlink:title=" ">
<path fill="none" stroke="#63b8ff" d="M148,-150.89C148,-126.95 148,-89.57 148,-61.85"/>
<polygon fill="none" stroke="#63b8ff" points="148,-61.49 144,-55.49 148,-49.49 152,-55.49 148,-61.49"/>
</a>
</g>
<text text-anchor="middle" x="198" y="-114" font-family="Helvetica,sans-Serif" font-size="10.00" fill="grey"> +compress_feature</text>
<text text-anchor="middle" x="198" y="-103" font-family="Helvetica,sans-Serif" font-size="10.00" fill="grey">+resize</text>
<text text-anchor="middle" x="198" y="-92" font-family="Helvetica,sans-Serif" font-size="10.00" fill="grey">+split_coeff</text>
<text text-anchor="middle" x="198" y="-81" font-family="Helvetica,sans-Serif" font-size="10.00" fill="grey">+wrap_kernel</text>
</g>
<!-- Node4 -->
<g id="Node000004" class="node">
<title>Node4</title>
<g id="a_Node000004"><a xlink:title=" ">
<polygon fill="white" stroke="transparent" points="282.5,-200 259.5,-200 259.5,-151 282.5,-151 282.5,-200"/>
<text text-anchor="start" x="265" y="-187.5" font-family="Helvetica,sans-Serif" font-size="10.00">int</text>
<text text-anchor="start" x="269.5" y="-172.5" font-family="Helvetica,sans-Serif" font-size="10.00"> </text>
<text text-anchor="start" x="269.5" y="-157.5" font-family="Helvetica,sans-Serif" font-size="10.00"> </text>
<polygon fill="#666666" stroke="#666666" points="260,-182.5 260,-182.5 283,-182.5 283,-182.5 260,-182.5"/>
<polygon fill="#666666" stroke="#666666" points="260,-167.5 260,-167.5 283,-167.5 283,-167.5 260,-167.5"/>
<polygon fill="none" stroke="#666666" points="259.5,-151 259.5,-200 282.5,-200 282.5,-151 259.5,-151"/>
</a>
</g>
</g>
<!-- Node4&#45;&gt;Node1 -->
<g id="edge3_Node000001_Node000004" class="edge">
<title>Node4&#45;&gt;Node1</title>
<g id="a_edge3_Node000001_Node000004"><a xlink:title=" ">
<path fill="none" stroke="#63b8ff" d="M272.24,-150.84C272.22,-127.05 268.56,-90.63 249,-67 241.29,-57.69 231.16,-50.44 220.29,-44.81"/>
<polygon fill="none" stroke="#63b8ff" points="220.13,-44.73 213,-45.85 209.24,-39.7 216.36,-38.59 220.13,-44.73"/>
</a>
</g>
<text text-anchor="middle" x="319" y="-114" font-family="Helvetica,sans-Serif" font-size="10.00" fill="grey"> +compressed_size</text>
<text text-anchor="middle" x="319" y="-103" font-family="Helvetica,sans-Serif" font-size="10.00" fill="grey">+desc_npca</text>
<text text-anchor="middle" x="319" y="-92" font-family="Helvetica,sans-Serif" font-size="10.00" fill="grey">+desc_pca</text>
<text text-anchor="middle" x="319" y="-81" font-family="Helvetica,sans-Serif" font-size="10.00" fill="grey">+max_patch_size</text>
</g>
</g>
</svg>
