<?xml version="1.0" encoding="UTF-8" standalone="no"?>
<!DOCTYPE svg PUBLIC "-//W3C//DTD SVG 1.1//EN"
 "http://www.w3.org/Graphics/SVG/1.1/DTD/svg11.dtd">
<!-- Generated by graphviz version 2.43.0 (0)
 -->
<!-- Title: cv::gapi::wip::onevpl::DataProviderImplementationException Pages: 1 -->
<svg width="180pt" height="342pt"
 viewBox="0.00 0.00 180.00 342.00" xmlns="http://www.w3.org/2000/svg" xmlns:xlink="http://www.w3.org/1999/xlink">
<g id="graph0" class="graph" transform="scale(1 1) rotate(0) translate(4 338)">
<title>cv::gapi::wip::onevpl::DataProviderImplementationException</title>
<!-- Node1 -->
<g id="Node000001" class="node">
<title>Node1</title>
<g id="a_Node000001"><a xlink:title=" ">
<polygon fill="#999999" stroke="transparent" points="172,-108 0,-108 0,0 172,0 172,-108"/>
<text text-anchor="start" x="12" y="-96" font-family="Helvetica,sans-Serif" font-size="10.00">cv::gapi::wip::onevpl</text>
<text text-anchor="start" x="12" y="-85" font-family="Helvetica,sans-Serif" font-size="10.00">::DataProviderImplementation</text>
<text text-anchor="start" x="61.5" y="-74" font-family="Helvetica,sans-Serif" font-size="10.00">Exception</text>
<text text-anchor="start" x="84" y="-59" font-family="Helvetica,sans-Serif" font-size="10.00"> </text>
<text text-anchor="start" x="4" y="-44" font-family="Helvetica,sans-Serif" font-size="10.00">+</text>
<text text-anchor="start" x="17" y="-44" font-family="Helvetica,sans-Serif" font-size="10.00">DataProviderImplementation</text>
<text text-anchor="start" x="17" y="-33" font-family="Helvetica,sans-Serif" font-size="10.00">Exception()</text>
<text text-anchor="start" x="4" y="-18" font-family="Helvetica,sans-Serif" font-size="10.00">+</text>
<text text-anchor="start" x="17" y="-18" font-family="Helvetica,sans-Serif" font-size="10.00">~DataProviderImplementation</text>
<text text-anchor="start" x="17" y="-7" font-family="Helvetica,sans-Serif" font-size="10.00">Exception()</text>
<polygon fill="#666666" stroke="#666666" points="0,-69 0,-69 172,-69 172,-69 0,-69"/>
<polygon fill="#666666" stroke="#666666" points="0,-54 0,-54 172,-54 172,-54 0,-54"/>
<polygon fill="none" stroke="#666666" points="0,0 0,-108 172,-108 172,0 0,0"/>
</a>
</g>
</g>
<!-- Node2 -->
<g id="Node000002" class="node">
<title>Node2</title>
<g id="a_Node000002"><a xlink:href="../../d5/ded/structcv_1_1gapi_1_1wip_1_1onevpl_1_1DataProviderException.html" target="_top" xlink:title=" ">
<polygon fill="white" stroke="transparent" points="160.5,-249 11.5,-249 11.5,-144 160.5,-144 160.5,-249"/>
<text text-anchor="start" x="27.5" y="-236.5" font-family="Helvetica,sans-Serif" font-size="10.00">cv::gapi::wip::onevpl</text>
<text text-anchor="start" x="27.5" y="-225.5" font-family="Helvetica,sans-Serif" font-size="10.00">::DataProviderException</text>
<text text-anchor="start" x="84.5" y="-210.5" font-family="Helvetica,sans-Serif" font-size="10.00"> </text>
<text text-anchor="start" x="16" y="-195.5" font-family="Helvetica,sans-Serif" font-size="10.00">+</text>
<text text-anchor="start" x="29" y="-195.5" font-family="Helvetica,sans-Serif" font-size="10.00">DataProviderException()</text>
<text text-anchor="start" x="16" y="-180.5" font-family="Helvetica,sans-Serif" font-size="10.00">+</text>
<text text-anchor="start" x="29" y="-180.5" font-family="Helvetica,sans-Serif" font-size="10.00">DataProviderException()</text>
<text text-anchor="start" x="16" y="-165.5" font-family="Helvetica,sans-Serif" font-size="10.00">+</text>
<text text-anchor="start" x="29" y="-165.5" font-family="Helvetica,sans-Serif" font-size="10.00">~DataProviderException()</text>
<text text-anchor="start" x="16" y="-150.5" font-family="Helvetica,sans-Serif" font-size="10.00">+</text>
<text text-anchor="start" x="29" y="-150.5" font-family="Helvetica,sans-Serif" font-size="10.00">what()</text>
<polygon fill="#666666" stroke="#666666" points="12,-220.5 12,-220.5 161,-220.5 161,-220.5 12,-220.5"/>
<polygon fill="#666666" stroke="#666666" points="12,-205.5 12,-205.5 161,-205.5 161,-205.5 12,-205.5"/>
<polygon fill="none" stroke="#666666" points="11.5,-144 11.5,-249 160.5,-249 160.5,-144 11.5,-144"/>
</a>
</g>
</g>
<!-- Node2&#45;&gt;Node1 -->
<g id="edge1_Node000001_Node000002" class="edge">
<title>Node2&#45;&gt;Node1</title>
<g id="a_edge1_Node000001_Node000002"><a xlink:title=" ">
<path fill="none" stroke="#63b8ff" d="M86,-133.78C86,-125.32 86,-116.69 86,-108.4"/>
<polygon fill="none" stroke="#63b8ff" points="82.5,-133.98 86,-143.98 89.5,-133.98 82.5,-133.98"/>
</a>
</g>
</g>
<!-- Node3 -->
<g id="Node000003" class="node">
<title>Node3</title>
<g id="a_Node000003"><a xlink:title=" ">
<polygon fill="white" stroke="transparent" points="126,-334 46,-334 46,-285 126,-285 126,-334"/>
<text text-anchor="start" x="51" y="-321.5" font-family="Helvetica,sans-Serif" font-size="10.00">std::exception</text>
<text text-anchor="start" x="84" y="-306.5" font-family="Helvetica,sans-Serif" font-size="10.00"> </text>
<text text-anchor="start" x="84" y="-291.5" font-family="Helvetica,sans-Serif" font-size="10.00"> </text>
<polygon fill="#666666" stroke="#666666" points="46,-316.5 46,-316.5 126,-316.5 126,-316.5 46,-316.5"/>
<polygon fill="#666666" stroke="#666666" points="46,-301.5 46,-301.5 126,-301.5 126,-301.5 46,-301.5"/>
<polygon fill="none" stroke="#666666" points="46,-285 46,-334 126,-334 126,-285 46,-285"/>
</a>
</g>
</g>
<!-- Node3&#45;&gt;Node2 -->
<g id="edge2_Node000002_Node000003" class="edge">
<title>Node3&#45;&gt;Node2</title>
<g id="a_edge2_Node000002_Node000003"><a xlink:title=" ">
<path fill="none" stroke="#63b8ff" d="M86,-274.85C86,-266.79 86,-258 86,-249.32"/>
<polygon fill="none" stroke="#63b8ff" points="82.5,-274.96 86,-284.96 89.5,-274.96 82.5,-274.96"/>
</a>
</g>
</g>
</g>
</svg>
