<?xml version="1.0" encoding="UTF-8" standalone="no"?>
<!DOCTYPE svg PUBLIC "-//W3C//DTD SVG 1.1//EN"
 "http://www.w3.org/Graphics/SVG/1.1/DTD/svg11.dtd">
<!-- Generated by graphviz version 2.43.0 (0)
 -->
<!-- Title: cv::TrackerMIL::Params Pages: 1 -->
<svg width="300pt" height="186pt"
 viewBox="0.00 0.00 300.00 186.00" xmlns="http://www.w3.org/2000/svg" xmlns:xlink="http://www.w3.org/1999/xlink">
<g id="graph0" class="graph" transform="scale(1 1) rotate(0) translate(4 182)">
<title>cv::TrackerMIL::Params</title>
<!-- Node1 -->
<g id="Node000001" class="node">
<title>Node1</title>
<g id="a_Node000001"><a xlink:title=" ">
<polygon fill="#999999" stroke="transparent" points="148.5,-49 27.5,-49 27.5,0 148.5,0 148.5,-49"/>
<text text-anchor="start" x="33" y="-36.5" font-family="Helvetica,sans-Serif" font-size="10.00">cv::TrackerMIL::Params</text>
<text text-anchor="start" x="86.5" y="-21.5" font-family="Helvetica,sans-Serif" font-size="10.00"> </text>
<text text-anchor="start" x="46" y="-6.5" font-family="Helvetica,sans-Serif" font-size="10.00">+</text>
<text text-anchor="start" x="73" y="-6.5" font-family="Helvetica,sans-Serif" font-size="10.00">Params()</text>
<polygon fill="#666666" stroke="#666666" points="28,-31.5 28,-31.5 149,-31.5 149,-31.5 28,-31.5"/>
<polygon fill="#666666" stroke="#666666" points="28,-16.5 28,-16.5 149,-16.5 149,-16.5 28,-16.5"/>
<polygon fill="none" stroke="#666666" points="27.5,0 27.5,-49 148.5,-49 148.5,0 27.5,0"/>
</a>
</g>
</g>
<!-- Node2 -->
<g id="Node000002" class="node">
<title>Node2</title>
<g id="a_Node000002"><a xlink:title=" ">
<polygon fill="white" stroke="transparent" points="32,-178 0,-178 0,-129 32,-129 32,-178"/>
<text text-anchor="start" x="5" y="-165.5" font-family="Helvetica,sans-Serif" font-size="10.00">float</text>
<text text-anchor="start" x="14" y="-150.5" font-family="Helvetica,sans-Serif" font-size="10.00"> </text>
<text text-anchor="start" x="14" y="-135.5" font-family="Helvetica,sans-Serif" font-size="10.00"> </text>
<polygon fill="#666666" stroke="#666666" points="0,-160.5 0,-160.5 32,-160.5 32,-160.5 0,-160.5"/>
<polygon fill="#666666" stroke="#666666" points="0,-145.5 0,-145.5 32,-145.5 32,-145.5 0,-145.5"/>
<polygon fill="none" stroke="#666666" points="0,-129 0,-178 32,-178 32,-129 0,-129"/>
</a>
</g>
</g>
<!-- Node2&#45;&gt;Node1 -->
<g id="edge1_Node000001_Node000002" class="edge">
<title>Node2&#45;&gt;Node1</title>
<g id="a_edge1_Node000001_Node000002"><a xlink:title=" ">
<path fill="none" stroke="#63b8ff" d="M10.3,-128.71C7.29,-110.57 6.18,-85.61 17,-67 19.01,-63.54 21.43,-60.35 24.14,-57.4"/>
<polygon fill="none" stroke="#63b8ff" points="24.2,-57.34 25.94,-50.35 33.07,-49.26 31.33,-56.25 24.2,-57.34"/>
</a>
</g>
<text text-anchor="middle" x="77.5" y="-97.5" font-family="Helvetica,sans-Serif" font-size="10.00" fill="grey"> +samplerInitInRadius</text>
<text text-anchor="middle" x="77.5" y="-86.5" font-family="Helvetica,sans-Serif" font-size="10.00" fill="grey">+samplerSearchWinSize</text>
<text text-anchor="middle" x="77.5" y="-75.5" font-family="Helvetica,sans-Serif" font-size="10.00" fill="grey">+samplerTrackInRadius</text>
</g>
<!-- Node3 -->
<g id="Node000003" class="node">
<title>Node3</title>
<g id="a_Node000003"><a xlink:title=" ">
<polygon fill="white" stroke="transparent" points="171.5,-178 148.5,-178 148.5,-129 171.5,-129 171.5,-178"/>
<text text-anchor="start" x="154" y="-165.5" font-family="Helvetica,sans-Serif" font-size="10.00">int</text>
<text text-anchor="start" x="158.5" y="-150.5" font-family="Helvetica,sans-Serif" font-size="10.00"> </text>
<text text-anchor="start" x="158.5" y="-135.5" font-family="Helvetica,sans-Serif" font-size="10.00"> </text>
<polygon fill="#666666" stroke="#666666" points="149,-160.5 149,-160.5 172,-160.5 172,-160.5 149,-160.5"/>
<polygon fill="#666666" stroke="#666666" points="149,-145.5 149,-145.5 172,-145.5 172,-145.5 149,-145.5"/>
<polygon fill="none" stroke="#666666" points="148.5,-129 148.5,-178 171.5,-178 171.5,-129 148.5,-129"/>
</a>
</g>
</g>
<!-- Node3&#45;&gt;Node1 -->
<g id="edge2_Node000001_Node000003" class="edge">
<title>Node3&#45;&gt;Node1</title>
<g id="a_edge2_Node000001_Node000003"><a xlink:title=" ">
<path fill="none" stroke="#63b8ff" d="M157.89,-128.8C155.38,-110.71 149.9,-85.77 138,-67 135.98,-63.82 133.64,-60.76 131.09,-57.84"/>
<polygon fill="none" stroke="#63b8ff" points="130.83,-57.58 123.77,-56.13 122.39,-49.06 129.45,-50.51 130.83,-57.58"/>
</a>
</g>
<text text-anchor="middle" x="223" y="-103" font-family="Helvetica,sans-Serif" font-size="10.00" fill="grey"> +featureSetNumFeatures</text>
<text text-anchor="middle" x="223" y="-92" font-family="Helvetica,sans-Serif" font-size="10.00" fill="grey">+samplerInitMaxNegNum</text>
<text text-anchor="middle" x="223" y="-81" font-family="Helvetica,sans-Serif" font-size="10.00" fill="grey">+samplerTrackMaxNegNum</text>
<text text-anchor="middle" x="223" y="-70" font-family="Helvetica,sans-Serif" font-size="10.00" fill="grey">+samplerTrackMaxPosNum</text>
</g>
</g>
</svg>
