<?xml version="1.0" encoding="UTF-8" standalone="no"?>
<!DOCTYPE svg PUBLIC "-//W3C//DTD SVG 1.1//EN"
 "http://www.w3.org/Graphics/SVG/1.1/DTD/svg11.dtd">
<!-- Generated by graphviz version 2.43.0 (0)
 -->
<!-- Title: cv::cudev::numeric_limits&lt; schar &gt; Pages: 1 -->
<svg width="117pt" height="179pt"
 viewBox="0.00 0.00 116.50 179.00" xmlns="http://www.w3.org/2000/svg" xmlns:xlink="http://www.w3.org/1999/xlink">
<g id="graph0" class="graph" transform="scale(1 1) rotate(0) translate(4 175)">
<title>cv::cudev::numeric_limits&lt; schar &gt;</title>
<!-- Node1 -->
<g id="Node000001" class="node">
<title>Node1</title>
<g id="a_Node000001"><a xlink:title=" ">
<polygon fill="#999999" stroke="transparent" points="101,-75 0,-75 0,0 101,0 101,-75"/>
<text text-anchor="start" x="5.5" y="-62.5" font-family="Helvetica,sans-Serif" font-size="10.00">cv::cudev::numeric</text>
<text text-anchor="start" x="10" y="-51.5" font-family="Helvetica,sans-Serif" font-size="10.00">_limits&lt; schar &gt;</text>
<text text-anchor="start" x="49" y="-36.5" font-family="Helvetica,sans-Serif" font-size="10.00"> </text>
<text text-anchor="start" x="17" y="-21.5" font-family="Helvetica,sans-Serif" font-size="10.00">+</text>
<text text-anchor="start" x="42.5" y="-21.5" font-family="Helvetica,sans-Serif" font-size="10.00">max()</text>
<text text-anchor="start" x="17" y="-6.5" font-family="Helvetica,sans-Serif" font-size="10.00">+</text>
<text text-anchor="start" x="42.5" y="-6.5" font-family="Helvetica,sans-Serif" font-size="10.00">min()</text>
<polygon fill="#666666" stroke="#666666" points="0.5,-46.5 0.5,-46.5 101.5,-46.5 101.5,-46.5 0.5,-46.5"/>
<polygon fill="#666666" stroke="#666666" points="0.5,-31.5 0.5,-31.5 101.5,-31.5 101.5,-31.5 0.5,-31.5"/>
<polygon fill="none" stroke="#666666" points="0,0 0,-75 101,-75 101,0 0,0"/>
</a>
</g>
</g>
<!-- Node2 -->
<g id="Node000002" class="node">
<title>Node2</title>
<g id="a_Node000002"><a xlink:title=" ">
<polygon fill="white" stroke="transparent" points="66.5,-171 34.5,-171 34.5,-122 66.5,-122 66.5,-171"/>
<text text-anchor="start" x="39.5" y="-158.5" font-family="Helvetica,sans-Serif" font-size="10.00">bool</text>
<text text-anchor="start" x="48.5" y="-143.5" font-family="Helvetica,sans-Serif" font-size="10.00"> </text>
<text text-anchor="start" x="48.5" y="-128.5" font-family="Helvetica,sans-Serif" font-size="10.00"> </text>
<polygon fill="#666666" stroke="#666666" points="34.5,-153.5 34.5,-153.5 66.5,-153.5 66.5,-153.5 34.5,-153.5"/>
<polygon fill="#666666" stroke="#666666" points="34.5,-138.5 34.5,-138.5 66.5,-138.5 66.5,-138.5 34.5,-138.5"/>
<polygon fill="none" stroke="#666666" points="34.5,-122 34.5,-171 66.5,-171 66.5,-122 34.5,-122"/>
</a>
</g>
</g>
<!-- Node2&#45;&gt;Node1 -->
<g id="edge1_Node000001_Node000002" class="edge">
<title>Node2&#45;&gt;Node1</title>
<g id="a_edge1_Node000001_Node000002"><a xlink:title=" ">
<path fill="none" stroke="#63b8ff" d="M50.5,-121.75C50.5,-111.61 50.5,-99.37 50.5,-87.44"/>
<polygon fill="none" stroke="#63b8ff" points="50.5,-87.22 46.5,-81.22 50.5,-75.22 54.5,-81.22 50.5,-87.22"/>
</a>
</g>
<text text-anchor="middle" x="79.5" y="-96" font-family="Helvetica,sans-Serif" font-size="10.00" fill="grey"> +is_signed</text>
</g>
</g>
</svg>
