<?xml version="1.0" encoding="UTF-8" standalone="no"?>
<!DOCTYPE svg PUBLIC "-//W3C//DTD SVG 1.1//EN"
 "http://www.w3.org/Graphics/SVG/1.1/DTD/svg11.dtd">
<!-- Generated by graphviz version 2.43.0 (0)
 -->
<!-- Title: cv::cudev::PtrTraits&lt; RemapPtr1Sz&lt; SrcPtr, MapPtr &gt; &gt; Pages: 1 -->
<svg width="212pt" height="387pt"
 viewBox="0.00 0.00 212.00 387.00" xmlns="http://www.w3.org/2000/svg" xmlns:xlink="http://www.w3.org/1999/xlink">
<g id="graph0" class="graph" transform="scale(1 1) rotate(0) translate(4 383)">
<title>cv::cudev::PtrTraits&lt; RemapPtr1Sz&lt; SrcPtr, MapPtr &gt; &gt;</title>
<!-- Node1 -->
<g id="Node000001" class="node">
<title>Node1</title>
<g id="a_Node000001"><a xlink:title=" ">
<polygon fill="#999999" stroke="transparent" points="146,-71 16,-71 16,0 146,0 146,-71"/>
<text text-anchor="start" x="21" y="-58.5" font-family="Helvetica,sans-Serif" font-size="10.00">cv::cudev::PtrTraits</text>
<text text-anchor="start" x="21" y="-47.5" font-family="Helvetica,sans-Serif" font-size="10.00">&lt; RemapPtr1Sz&lt; SrcPtr,</text>
<text text-anchor="start" x="50.5" y="-36.5" font-family="Helvetica,sans-Serif" font-size="10.00"> MapPtr &gt; &gt;</text>
<text text-anchor="start" x="79" y="-21.5" font-family="Helvetica,sans-Serif" font-size="10.00"> </text>
<text text-anchor="start" x="79" y="-6.5" font-family="Helvetica,sans-Serif" font-size="10.00"> </text>
<polygon fill="#666666" stroke="#666666" points="16,-31.5 16,-31.5 146,-31.5 146,-31.5 16,-31.5"/>
<polygon fill="#666666" stroke="#666666" points="16,-16.5 16,-16.5 146,-16.5 146,-16.5 16,-16.5"/>
<polygon fill="none" stroke="#666666" points="16,0 16,-71 146,-71 146,0 16,0"/>
</a>
</g>
</g>
<!-- Node2 -->
<g id="Node000002" class="node">
<title>Node2</title>
<g id="a_Node000002"><a xlink:href="../../db/d3c/structcv_1_1cudev_1_1PtrTraitsBase.html" target="_top" xlink:title=" ">
<polygon fill="white" stroke="transparent" points="162,-220 0,-220 0,-108 162,-108 162,-220"/>
<text text-anchor="start" x="5" y="-208" font-family="Helvetica,sans-Serif" font-size="10.00">cv::cudev::PtrTraitsBase</text>
<text text-anchor="start" x="5" y="-197" font-family="Helvetica,sans-Serif" font-size="10.00">&lt; RemapPtr1Sz&lt; SrcPtr,</text>
<text text-anchor="start" x="5" y="-186" font-family="Helvetica,sans-Serif" font-size="10.00"> MapPtr &gt;, RemapPtr1&lt; SrcPtr,</text>
<text text-anchor="start" x="50.5" y="-175" font-family="Helvetica,sans-Serif" font-size="10.00"> MapPtr &gt; &gt;</text>
<text text-anchor="start" x="79" y="-160" font-family="Helvetica,sans-Serif" font-size="10.00"> </text>
<text text-anchor="start" x="26" y="-145" font-family="Helvetica,sans-Serif" font-size="10.00">+</text>
<text text-anchor="start" x="61" y="-145" font-family="Helvetica,sans-Serif" font-size="10.00">getCols()</text>
<text text-anchor="start" x="26" y="-130" font-family="Helvetica,sans-Serif" font-size="10.00">+</text>
<text text-anchor="start" x="61" y="-130" font-family="Helvetica,sans-Serif" font-size="10.00">getRows()</text>
<text text-anchor="start" x="26" y="-115" font-family="Helvetica,sans-Serif" font-size="10.00">+</text>
<text text-anchor="start" x="61" y="-115" font-family="Helvetica,sans-Serif" font-size="10.00">shrinkPtr()</text>
<polygon fill="#666666" stroke="#666666" points="0,-170 0,-170 162,-170 162,-170 0,-170"/>
<polygon fill="#666666" stroke="#666666" points="0,-155 0,-155 162,-155 162,-155 0,-155"/>
<polygon fill="none" stroke="#666666" points="0,-108 0,-220 162,-220 162,-108 0,-108"/>
</a>
</g>
</g>
<!-- Node2&#45;&gt;Node1 -->
<g id="edge1_Node000001_Node000002" class="edge">
<title>Node2&#45;&gt;Node1</title>
<g id="a_edge1_Node000001_Node000002"><a xlink:title=" ">
<path fill="none" stroke="#63b8ff" d="M81,-97.85C81,-88.6 81,-79.4 81,-71.04"/>
<polygon fill="none" stroke="#63b8ff" points="77.5,-97.88 81,-107.88 84.5,-97.88 77.5,-97.88"/>
</a>
</g>
</g>
<!-- Node3 -->
<g id="Node000003" class="node">
<title>Node3</title>
<g id="a_Node000003"><a xlink:href="../../db/d3c/structcv_1_1cudev_1_1PtrTraitsBase.html" target="_top" xlink:title=" ">
<polygon fill="white" stroke="transparent" points="143.5,-379 18.5,-379 18.5,-289 143.5,-289 143.5,-379"/>
<text text-anchor="start" x="24" y="-367" font-family="Helvetica,sans-Serif" font-size="10.00">cv::cudev::PtrTraitsBase</text>
<text text-anchor="start" x="34.5" y="-356" font-family="Helvetica,sans-Serif" font-size="10.00">&lt; Ptr2DSz, Ptr2D &gt;</text>
<text text-anchor="start" x="79.5" y="-341" font-family="Helvetica,sans-Serif" font-size="10.00"> </text>
<text text-anchor="start" x="36" y="-326" font-family="Helvetica,sans-Serif" font-size="10.00">+</text>
<text text-anchor="start" x="62" y="-326" font-family="Helvetica,sans-Serif" font-size="10.00">getCols()</text>
<text text-anchor="start" x="36" y="-311" font-family="Helvetica,sans-Serif" font-size="10.00">+</text>
<text text-anchor="start" x="62" y="-311" font-family="Helvetica,sans-Serif" font-size="10.00">getRows()</text>
<text text-anchor="start" x="36" y="-296" font-family="Helvetica,sans-Serif" font-size="10.00">+</text>
<text text-anchor="start" x="62" y="-296" font-family="Helvetica,sans-Serif" font-size="10.00">shrinkPtr()</text>
<polygon fill="#666666" stroke="#666666" points="19,-351 19,-351 144,-351 144,-351 19,-351"/>
<polygon fill="#666666" stroke="#666666" points="19,-336 19,-336 144,-336 144,-336 19,-336"/>
<polygon fill="none" stroke="#666666" points="18.5,-289 18.5,-379 143.5,-379 143.5,-289 18.5,-289"/>
</a>
</g>
</g>
<!-- Node3&#45;&gt;Node2 -->
<g id="edge2_Node000002_Node000003" class="edge">
<title>Node3&#45;&gt;Node2</title>
<g id="a_edge2_Node000002_Node000003"><a xlink:title=" ">
<path fill="none" stroke="orange" d="M81,-278.73C81,-260.02 81,-239.06 81,-220.27"/>
<polygon fill="orange" stroke="orange" points="77.5,-278.86 81,-288.86 84.5,-278.86 77.5,-278.86"/>
</a>
</g>
<text text-anchor="start" x="81" y="-263" font-family="Helvetica,sans-Serif" font-size="10.00" fill="grey"> &lt; RemapPtr1Sz&lt; SrcPtr,</text>
<text text-anchor="start" x="81" y="-252" font-family="Helvetica,sans-Serif" font-size="10.00" fill="grey"> MapPtr &gt;, RemapPtr1</text>
<text text-anchor="middle" x="142.5" y="-241" font-family="Helvetica,sans-Serif" font-size="10.00" fill="grey">&lt; SrcPtr, MapPtr &gt; &gt;</text>
</g>
</g>
</svg>
