<?xml version="1.0" encoding="UTF-8" standalone="no"?>
<!DOCTYPE svg PUBLIC "-//W3C//DTD SVG 1.1//EN"
 "http://www.w3.org/Graphics/SVG/1.1/DTD/svg11.dtd">
<!-- Generated by graphviz version 2.43.0 (0)
 -->
<!-- Title: cv::cudev::blockFill Pages: 1 -->
<svg width="299pt" height="76pt"
 viewBox="0.00 0.00 299.00 75.50" xmlns="http://www.w3.org/2000/svg" xmlns:xlink="http://www.w3.org/1999/xlink">
<g id="graph0" class="graph" transform="scale(1 1) rotate(0) translate(4 71.5)">
<title>cv::cudev::blockFill</title>
<!-- Node1 -->
<g id="Node000001" class="node">
<title>Node1</title>
<g id="a_Node000001"><a xlink:title=" ">
<polygon fill="#999999" stroke="#666666" points="108,-45.5 0,-45.5 0,-26.5 108,-26.5 108,-45.5"/>
<text text-anchor="middle" x="54" y="-33.5" font-family="Helvetica,sans-Serif" font-size="10.00">cv::cudev::blockFill</text>
</a>
</g>
</g>
<!-- Node2 -->
<g id="Node000002" class="node">
<title>Node2</title>
<g id="a_Node000002"><a xlink:href="../../d3/d6c/structcv_1_1cudev_1_1Block.html#aced8f8d7740e8fd062d588358e0d670a" target="_top" xlink:title=" ">
<polygon fill="white" stroke="#666666" points="291,-67.5 144,-67.5 144,-48.5 291,-48.5 291,-67.5"/>
<text text-anchor="middle" x="217.5" y="-55.5" font-family="Helvetica,sans-Serif" font-size="10.00">cv::cudev::Block::blockSize</text>
</a>
</g>
</g>
<!-- Node1&#45;&gt;Node2 -->
<g id="edge1_Node000001_Node000002" class="edge">
<title>Node1&#45;&gt;Node2</title>
<g id="a_edge1_Node000001_Node000002"><a xlink:title=" ">
<path fill="none" stroke="#63b8ff" d="M108.33,-43.26C117.4,-44.5 126.99,-45.81 136.57,-47.11"/>
<polygon fill="#63b8ff" stroke="#63b8ff" points="136.14,-50.59 146.52,-48.47 137.09,-43.65 136.14,-50.59"/>
</a>
</g>
</g>
<!-- Node3 -->
<g id="Node000003" class="node">
<title>Node3</title>
<g id="a_Node000003"><a xlink:href="../../d3/d6c/structcv_1_1cudev_1_1Block.html#a88b4a5964e2ff214990975284ee9bbb0" target="_top" xlink:title=" ">
<polygon fill="white" stroke="#666666" points="283.5,-30 151.5,-30 151.5,0 283.5,0 283.5,-30"/>
<text text-anchor="start" x="159.5" y="-18" font-family="Helvetica,sans-Serif" font-size="10.00">cv::cudev::Block::thread</text>
<text text-anchor="middle" x="217.5" y="-7" font-family="Helvetica,sans-Serif" font-size="10.00">LineId</text>
</a>
</g>
</g>
<!-- Node1&#45;&gt;Node3 -->
<g id="edge2_Node000001_Node000003" class="edge">
<title>Node1&#45;&gt;Node3</title>
<g id="a_edge2_Node000001_Node000003"><a xlink:title=" ">
<path fill="none" stroke="#63b8ff" d="M108.33,-29.07C118.88,-27.69 130.14,-26.23 141.26,-24.78"/>
<polygon fill="#63b8ff" stroke="#63b8ff" points="141.94,-28.22 151.41,-23.46 141.04,-21.28 141.94,-28.22"/>
</a>
</g>
</g>
</g>
</svg>
