<?xml version="1.0" encoding="UTF-8" standalone="no"?>
<!DOCTYPE svg PUBLIC "-//W3C//DTD SVG 1.1//EN"
 "http://www.w3.org/Graphics/SVG/1.1/DTD/svg11.dtd">
<!-- Generated by graphviz version 2.43.0 (0)
 -->
<!-- Title: cv::cudev::gridMerge_ Pages: 1 -->
<svg width="514pt" height="169pt"
 viewBox="0.00 0.00 514.00 169.00" xmlns="http://www.w3.org/2000/svg" xmlns:xlink="http://www.w3.org/1999/xlink">
<g id="graph0" class="graph" transform="scale(1 1) rotate(0) translate(4 165)">
<title>cv::cudev::gridMerge_</title>
<!-- Node1 -->
<g id="Node000001" class="node">
<title>Node1</title>
<g id="a_Node000001"><a xlink:title=" ">
<polygon fill="#999999" stroke="#666666" points="122,-88.5 0,-88.5 0,-69.5 122,-69.5 122,-88.5"/>
<text text-anchor="middle" x="61" y="-76.5" font-family="Helvetica,sans-Serif" font-size="10.00">cv::cudev::gridMerge_</text>
</a>
</g>
</g>
<!-- Node2 -->
<g id="Node000002" class="node">
<title>Node2</title>
<g id="a_Node000002"><a xlink:href="../../df/dfc/group__cudev.html#gad6dab113b0778bcf03f9d0ebfe78ad10" target="_top" xlink:title=" ">
<polygon fill="white" stroke="#666666" points="280.5,-152.5 176.5,-152.5 176.5,-133.5 280.5,-133.5 280.5,-152.5"/>
<text text-anchor="middle" x="228.5" y="-140.5" font-family="Helvetica,sans-Serif" font-size="10.00">cv::cudev::getCols</text>
</a>
</g>
</g>
<!-- Node1&#45;&gt;Node2 -->
<g id="edge1_Node000001_Node000002" class="edge">
<title>Node1&#45;&gt;Node2</title>
<g id="a_edge1_Node000001_Node000002"><a xlink:title=" ">
<path fill="none" stroke="#63b8ff" d="M83.14,-88.64C102.46,-97.29 131.9,-110.13 158,-120 167.35,-123.54 177.52,-127.07 187.12,-130.27"/>
<polygon fill="#63b8ff" stroke="#63b8ff" points="186.26,-133.68 196.86,-133.47 188.45,-127.03 186.26,-133.68"/>
</a>
</g>
</g>
<!-- Node4 -->
<g id="Node000004" class="node">
<title>Node4</title>
<g id="a_Node000004"><a xlink:href="../../df/dfc/group__cudev.html#gad690da4acd9ac0de7ab244ee1c5394b4" target="_top" xlink:title=" ">
<polygon fill="white" stroke="#666666" points="283.5,-110.5 173.5,-110.5 173.5,-91.5 283.5,-91.5 283.5,-110.5"/>
<text text-anchor="middle" x="228.5" y="-98.5" font-family="Helvetica,sans-Serif" font-size="10.00">cv::cudev::getRows</text>
</a>
</g>
</g>
<!-- Node1&#45;&gt;Node4 -->
<g id="edge3_Node000001_Node000004" class="edge">
<title>Node1&#45;&gt;Node4</title>
<g id="a_edge3_Node000001_Node000004"><a xlink:title=" ">
<path fill="none" stroke="#63b8ff" d="M122.22,-87C135.55,-88.78 149.72,-90.66 163.21,-92.45"/>
<polygon fill="#63b8ff" stroke="#63b8ff" points="162.99,-95.96 173.36,-93.8 163.91,-89.02 162.99,-95.96"/>
</a>
</g>
</g>
<!-- Node6 -->
<g id="Node000006" class="node">
<title>Node6</title>
<g id="a_Node000006"><a xlink:href="../../d6/df1/structcv_1_1cuda_1_1StreamAccessor.html#a5830d99635f08b462a429771bfad71a9" target="_top" xlink:title=" ">
<polygon fill="white" stroke="#666666" points="299,-73 158,-73 158,-43 299,-43 299,-73"/>
<text text-anchor="start" x="166" y="-61" font-family="Helvetica,sans-Serif" font-size="10.00">cv::cuda::StreamAccessor</text>
<text text-anchor="middle" x="228.5" y="-50" font-family="Helvetica,sans-Serif" font-size="10.00">::getStream</text>
</a>
</g>
</g>
<!-- Node1&#45;&gt;Node6 -->
<g id="edge5_Node000001_Node000006" class="edge">
<title>Node1&#45;&gt;Node6</title>
<g id="a_edge5_Node000001_Node000006"><a xlink:title=" ">
<path fill="none" stroke="#63b8ff" d="M122.22,-71.36C130.52,-70.31 139.15,-69.21 147.74,-68.12"/>
<polygon fill="#63b8ff" stroke="#63b8ff" points="148.3,-71.58 157.78,-66.85 147.42,-64.63 148.3,-71.58"/>
</a>
</g>
</g>
<!-- Node7 -->
<g id="Node000007" class="node">
<title>Node7</title>
<g id="a_Node000007"><a xlink:href="../../df/dfc/group__cudev.html#gaa3dcb9b45488dc7770dd40609724b531" target="_top" xlink:title=" ">
<polygon fill="white" stroke="#666666" points="284,-24.5 173,-24.5 173,-5.5 284,-5.5 284,-24.5"/>
<text text-anchor="middle" x="228.5" y="-12.5" font-family="Helvetica,sans-Serif" font-size="10.00">cv::cudev::shrinkPtr</text>
</a>
</g>
</g>
<!-- Node1&#45;&gt;Node7 -->
<g id="edge6_Node000001_Node000007" class="edge">
<title>Node1&#45;&gt;Node7</title>
<g id="a_edge6_Node000001_Node000007"><a xlink:title=" ">
<path fill="none" stroke="#63b8ff" d="M80.01,-69.42C99.01,-59.58 130.02,-44.3 158,-34 164.39,-31.65 171.2,-29.44 177.97,-27.42"/>
<polygon fill="#63b8ff" stroke="#63b8ff" points="179.16,-30.72 187.8,-24.59 177.22,-23.99 179.16,-30.72"/>
</a>
</g>
</g>
<!-- Node3 -->
<g id="Node000003" class="node">
<title>Node3</title>
<g id="a_Node000003"><a xlink:href="../../db/d3c/structcv_1_1cudev_1_1PtrTraitsBase.html#a8d71e329800db50f164dd41cc6699f2a" target="_top" xlink:title=" ">
<polygon fill="white" stroke="#666666" points="502.5,-161 338.5,-161 338.5,-131 502.5,-131 502.5,-161"/>
<text text-anchor="start" x="346.5" y="-149" font-family="Helvetica,sans-Serif" font-size="10.00">cv::cudev::PtrTraitsBase</text>
<text text-anchor="middle" x="420.5" y="-138" font-family="Helvetica,sans-Serif" font-size="10.00">&lt; Ptr2DSz, Ptr2DSz &gt;::getCols</text>
</a>
</g>
</g>
<!-- Node2&#45;&gt;Node3 -->
<g id="edge2_Node000002_Node000003" class="edge">
<title>Node2&#45;&gt;Node3</title>
<g id="a_edge2_Node000002_Node000003"><a xlink:title=" ">
<path fill="none" stroke="#63b8ff" d="M280.67,-143.81C295.32,-144.04 311.76,-144.3 328.05,-144.56"/>
<polygon fill="#63b8ff" stroke="#63b8ff" points="328.11,-148.06 338.17,-144.72 328.22,-141.06 328.11,-148.06"/>
</a>
</g>
</g>
<!-- Node5 -->
<g id="Node000005" class="node">
<title>Node5</title>
<g id="a_Node000005"><a xlink:href="../../db/d3c/structcv_1_1cudev_1_1PtrTraitsBase.html#abaa5f1be07d953c5035bdbf9c9d8231f" target="_top" xlink:title=" ">
<polygon fill="white" stroke="#666666" points="505.5,-113 335.5,-113 335.5,-83 505.5,-83 505.5,-113"/>
<text text-anchor="start" x="343.5" y="-101" font-family="Helvetica,sans-Serif" font-size="10.00">cv::cudev::PtrTraitsBase</text>
<text text-anchor="middle" x="420.5" y="-90" font-family="Helvetica,sans-Serif" font-size="10.00">&lt; Ptr2DSz, Ptr2DSz &gt;::getRows</text>
</a>
</g>
</g>
<!-- Node4&#45;&gt;Node5 -->
<g id="edge4_Node000004_Node000005" class="edge">
<title>Node4&#45;&gt;Node5</title>
<g id="a_edge4_Node000004_Node000005"><a xlink:title=" ">
<path fill="none" stroke="#63b8ff" d="M283.69,-100.14C296.67,-99.94 310.9,-99.71 325.11,-99.49"/>
<polygon fill="#63b8ff" stroke="#63b8ff" points="325.49,-102.98 335.43,-99.33 325.38,-95.99 325.49,-102.98"/>
</a>
</g>
</g>
<!-- Node8 -->
<g id="Node000008" class="node">
<title>Node8</title>
<g id="a_Node000008"><a xlink:href="../../db/d3c/structcv_1_1cudev_1_1PtrTraitsBase.html#a17d5c5dba728eeaa99bbc55f697245d4" target="_top" xlink:title=" ">
<polygon fill="white" stroke="#666666" points="506,-30 335,-30 335,0 506,0 506,-30"/>
<text text-anchor="start" x="343" y="-18" font-family="Helvetica,sans-Serif" font-size="10.00">cv::cudev::PtrTraitsBase</text>
<text text-anchor="middle" x="420.5" y="-7" font-family="Helvetica,sans-Serif" font-size="10.00">&lt; Ptr2DSz, Ptr2DSz &gt;::shrinkPtr</text>
</a>
</g>
</g>
<!-- Node7&#45;&gt;Node8 -->
<g id="edge7_Node000007_Node000008" class="edge">
<title>Node7&#45;&gt;Node8</title>
<g id="a_edge7_Node000007_Node000008"><a xlink:title=" ">
<path fill="none" stroke="#63b8ff" d="M284.2,-15C296.9,-15 310.79,-15 324.67,-15"/>
<polygon fill="#63b8ff" stroke="#63b8ff" points="324.75,-18.5 334.75,-15 324.75,-11.5 324.75,-18.5"/>
</a>
</g>
</g>
</g>
</svg>
