<?xml version="1.0" encoding="UTF-8" standalone="no"?>
<!DOCTYPE svg PUBLIC "-//W3C//DTD SVG 1.1//EN"
 "http://www.w3.org/Graphics/SVG/1.1/DTD/svg11.dtd">
<!-- Generated by graphviz version 2.43.0 (0)
 -->
<!-- Title: cv::cudev::warpAffinePtr Pages: 1 -->
<svg width="707pt" height="155pt"
 viewBox="0.00 0.00 707.00 154.50" xmlns="http://www.w3.org/2000/svg" xmlns:xlink="http://www.w3.org/1999/xlink">
<g id="graph0" class="graph" transform="scale(1 1) rotate(0) translate(4 150.5)">
<title>cv::cudev::warpAffinePtr</title>
<!-- Node1 -->
<g id="Node000001" class="node">
<title>Node1</title>
<g id="a_Node000001"><a xlink:title=" ">
<polygon fill="#999999" stroke="#666666" points="134,-108.5 0,-108.5 0,-89.5 134,-89.5 134,-108.5"/>
<text text-anchor="middle" x="67" y="-96.5" font-family="Helvetica,sans-Serif" font-size="10.00">cv::cudev::warpAffinePtr</text>
</a>
</g>
</g>
<!-- Node2 -->
<g id="Node000002" class="node">
<title>Node2</title>
<g id="a_Node000002"><a xlink:href="../../df/dfc/group__cudev.html#gadd9331786dac6937d97e77e929e9fc19" target="_top" xlink:title=" ">
<polygon fill="white" stroke="#666666" points="286,-136.5 170,-136.5 170,-117.5 286,-117.5 286,-136.5"/>
<text text-anchor="middle" x="228" y="-124.5" font-family="Helvetica,sans-Serif" font-size="10.00">cv::cudev::affineMap</text>
</a>
</g>
</g>
<!-- Node1&#45;&gt;Node2 -->
<g id="edge1_Node000001_Node000002" class="edge">
<title>Node1&#45;&gt;Node2</title>
<g id="a_edge1_Node000001_Node000002"><a xlink:title=" ">
<path fill="none" stroke="#63b8ff" d="M122.27,-108.56C135.32,-110.86 149.38,-113.33 162.83,-115.7"/>
<polygon fill="#63b8ff" stroke="#63b8ff" points="162.52,-119.2 172.97,-117.49 163.73,-112.3 162.52,-119.2"/>
</a>
</g>
</g>
<!-- Node4 -->
<g id="Node000004" class="node">
<title>Node4</title>
<g id="a_Node000004"><a xlink:href="../../df/dfc/group__cudev.html#gab42554c6ffe36361771806d36f34352d" target="_top" xlink:title=" ">
<polygon fill="white" stroke="#666666" points="284.5,-90.5 171.5,-90.5 171.5,-71.5 284.5,-71.5 284.5,-90.5"/>
<text text-anchor="middle" x="228" y="-78.5" font-family="Helvetica,sans-Serif" font-size="10.00">cv::cudev::remapPtr</text>
</a>
</g>
</g>
<!-- Node1&#45;&gt;Node4 -->
<g id="edge3_Node000001_Node000004" class="edge">
<title>Node1&#45;&gt;Node4</title>
<g id="a_edge3_Node000001_Node000004"><a xlink:title=" ">
<path fill="none" stroke="#63b8ff" d="M134.05,-91.52C142.98,-90.51 152.14,-89.48 161.06,-88.46"/>
<polygon fill="#63b8ff" stroke="#63b8ff" points="161.47,-91.94 171.01,-87.34 160.68,-84.99 161.47,-91.94"/>
</a>
</g>
</g>
<!-- Node3 -->
<g id="Node000003" class="node">
<title>Node3</title>
<g id="a_Node000003"><a xlink:href="../../d0/d60/classcv_1_1cuda_1_1GpuMat.html#a400fc4c7880bf132f2ffea03892486b0" target="_top" xlink:title=" ">
<polygon fill="white" stroke="#666666" points="492,-146.5 322,-146.5 322,-127.5 492,-127.5 492,-146.5"/>
<text text-anchor="middle" x="407" y="-134.5" font-family="Helvetica,sans-Serif" font-size="10.00">cv::cuda::GpuMat::isContinuous</text>
</a>
</g>
</g>
<!-- Node2&#45;&gt;Node3 -->
<g id="edge2_Node000002_Node000003" class="edge">
<title>Node2&#45;&gt;Node3</title>
<g id="a_edge2_Node000002_Node000003"><a xlink:title=" ">
<path fill="none" stroke="#63b8ff" d="M286.47,-130.25C294.59,-130.71 303.12,-131.19 311.72,-131.67"/>
<polygon fill="#63b8ff" stroke="#63b8ff" points="311.64,-135.17 321.83,-132.24 312.04,-128.19 311.64,-135.17"/>
</a>
</g>
</g>
<!-- Node5 -->
<g id="Node000005" class="node">
<title>Node5</title>
<g id="a_Node000005"><a xlink:href="../../df/dfc/group__cudev.html#gad6dab113b0778bcf03f9d0ebfe78ad10" target="_top" xlink:title=" ">
<polygon fill="white" stroke="#666666" points="459,-109.5 355,-109.5 355,-90.5 459,-90.5 459,-109.5"/>
<text text-anchor="middle" x="407" y="-97.5" font-family="Helvetica,sans-Serif" font-size="10.00">cv::cudev::getCols</text>
</a>
</g>
</g>
<!-- Node4&#45;&gt;Node5 -->
<g id="edge4_Node000004_Node000005" class="edge">
<title>Node4&#45;&gt;Node5</title>
<g id="a_edge4_Node000004_Node000005"><a xlink:title=" ">
<path fill="none" stroke="#63b8ff" d="M284.52,-86.96C303.68,-89.02 325.26,-91.33 344.85,-93.44"/>
<polygon fill="#63b8ff" stroke="#63b8ff" points="344.58,-96.93 354.89,-94.51 345.32,-89.97 344.58,-96.93"/>
</a>
</g>
</g>
<!-- Node7 -->
<g id="Node000007" class="node">
<title>Node7</title>
<g id="a_Node000007"><a xlink:href="../../df/dfc/group__cudev.html#gad690da4acd9ac0de7ab244ee1c5394b4" target="_top" xlink:title=" ">
<polygon fill="white" stroke="#666666" points="462,-72.5 352,-72.5 352,-53.5 462,-53.5 462,-72.5"/>
<text text-anchor="middle" x="407" y="-60.5" font-family="Helvetica,sans-Serif" font-size="10.00">cv::cudev::getRows</text>
</a>
</g>
</g>
<!-- Node4&#45;&gt;Node7 -->
<g id="edge6_Node000004_Node000007" class="edge">
<title>Node4&#45;&gt;Node7</title>
<g id="a_edge6_Node000004_Node000007"><a xlink:title=" ">
<path fill="none" stroke="#63b8ff" d="M284.52,-75.35C302.74,-73.5 323.13,-71.43 341.93,-69.52"/>
<polygon fill="#63b8ff" stroke="#63b8ff" points="342.3,-73 351.89,-68.5 341.59,-66.03 342.3,-73"/>
</a>
</g>
</g>
<!-- Node9 -->
<g id="Node000009" class="node">
<title>Node9</title>
<g id="a_Node000009"><a xlink:href="../../df/dfc/group__cudev.html#gaa3dcb9b45488dc7770dd40609724b531" target="_top" xlink:title=" ">
<polygon fill="white" stroke="#666666" points="462.5,-30.5 351.5,-30.5 351.5,-11.5 462.5,-11.5 462.5,-30.5"/>
<text text-anchor="middle" x="407" y="-18.5" font-family="Helvetica,sans-Serif" font-size="10.00">cv::cudev::shrinkPtr</text>
</a>
</g>
</g>
<!-- Node4&#45;&gt;Node9 -->
<g id="edge8_Node000004_Node000009" class="edge">
<title>Node4&#45;&gt;Node9</title>
<g id="a_edge8_Node000004_Node000009"><a xlink:title=" ">
<path fill="none" stroke="#63b8ff" d="M252.1,-71.38C270.79,-63.77 297.87,-53.1 322,-45 334.25,-40.89 347.66,-36.85 360.09,-33.3"/>
<polygon fill="#63b8ff" stroke="#63b8ff" points="361.13,-36.64 369.81,-30.56 359.23,-29.91 361.13,-36.64"/>
</a>
</g>
</g>
<!-- Node6 -->
<g id="Node000006" class="node">
<title>Node6</title>
<g id="a_Node000006"><a xlink:href="../../db/d3c/structcv_1_1cudev_1_1PtrTraitsBase.html#a8d71e329800db50f164dd41cc6699f2a" target="_top" xlink:title=" ">
<polygon fill="white" stroke="#666666" points="695.5,-126 531.5,-126 531.5,-96 695.5,-96 695.5,-126"/>
<text text-anchor="start" x="539.5" y="-114" font-family="Helvetica,sans-Serif" font-size="10.00">cv::cudev::PtrTraitsBase</text>
<text text-anchor="middle" x="613.5" y="-103" font-family="Helvetica,sans-Serif" font-size="10.00">&lt; Ptr2DSz, Ptr2DSz &gt;::getCols</text>
</a>
</g>
</g>
<!-- Node5&#45;&gt;Node6 -->
<g id="edge5_Node000005_Node000006" class="edge">
<title>Node5&#45;&gt;Node6</title>
<g id="a_edge5_Node000005_Node000006"><a xlink:title=" ">
<path fill="none" stroke="#63b8ff" d="M459.08,-102.75C477.97,-103.76 500.01,-104.95 521.38,-106.1"/>
<polygon fill="#63b8ff" stroke="#63b8ff" points="521.3,-109.6 531.48,-106.64 521.68,-102.61 521.3,-109.6"/>
</a>
</g>
</g>
<!-- Node8 -->
<g id="Node000008" class="node">
<title>Node8</title>
<g id="a_Node000008"><a xlink:href="../../db/d3c/structcv_1_1cudev_1_1PtrTraitsBase.html#abaa5f1be07d953c5035bdbf9c9d8231f" target="_top" xlink:title=" ">
<polygon fill="white" stroke="#666666" points="698.5,-78 528.5,-78 528.5,-48 698.5,-48 698.5,-78"/>
<text text-anchor="start" x="536.5" y="-66" font-family="Helvetica,sans-Serif" font-size="10.00">cv::cudev::PtrTraitsBase</text>
<text text-anchor="middle" x="613.5" y="-55" font-family="Helvetica,sans-Serif" font-size="10.00">&lt; Ptr2DSz, Ptr2DSz &gt;::getRows</text>
</a>
</g>
</g>
<!-- Node7&#45;&gt;Node8 -->
<g id="edge7_Node000007_Node000008" class="edge">
<title>Node7&#45;&gt;Node8</title>
<g id="a_edge7_Node000007_Node000008"><a xlink:title=" ">
<path fill="none" stroke="#63b8ff" d="M462.27,-63C479.42,-63 498.9,-63 518.02,-63"/>
<polygon fill="#63b8ff" stroke="#63b8ff" points="518.27,-66.5 528.27,-63 518.27,-59.5 518.27,-66.5"/>
</a>
</g>
</g>
<!-- Node10 -->
<g id="Node000010" class="node">
<title>Node10</title>
<g id="a_Node000010"><a xlink:href="../../db/d3c/structcv_1_1cudev_1_1PtrTraitsBase.html#a17d5c5dba728eeaa99bbc55f697245d4" target="_top" xlink:title=" ">
<polygon fill="white" stroke="#666666" points="699,-30 528,-30 528,0 699,0 699,-30"/>
<text text-anchor="start" x="536" y="-18" font-family="Helvetica,sans-Serif" font-size="10.00">cv::cudev::PtrTraitsBase</text>
<text text-anchor="middle" x="613.5" y="-7" font-family="Helvetica,sans-Serif" font-size="10.00">&lt; Ptr2DSz, Ptr2DSz &gt;::shrinkPtr</text>
</a>
</g>
</g>
<!-- Node9&#45;&gt;Node10 -->
<g id="edge9_Node000009_Node000010" class="edge">
<title>Node9&#45;&gt;Node10</title>
<g id="a_edge9_Node000009_Node000010"><a xlink:title=" ">
<path fill="none" stroke="#63b8ff" d="M462.53,-19.4C479.48,-18.9 498.69,-18.34 517.56,-17.79"/>
<polygon fill="#63b8ff" stroke="#63b8ff" points="517.79,-21.28 527.69,-17.49 517.59,-14.28 517.79,-21.28"/>
</a>
</g>
</g>
</g>
</svg>
