<?xml version="1.0" encoding="UTF-8" standalone="no"?>
<!DOCTYPE svg PUBLIC "-//W3C//DTD SVG 1.1//EN"
 "http://www.w3.org/Graphics/SVG/1.1/DTD/svg11.dtd">
<!-- Generated by graphviz version 2.43.0 (0)
 -->
<!-- Title: cv::cudev::checkCudaError Pages: 1 -->
<svg width="244pt" height="64pt"
 viewBox="0.00 0.00 244.00 64.00" xmlns="http://www.w3.org/2000/svg" xmlns:xlink="http://www.w3.org/1999/xlink">
<g id="graph0" class="graph" transform="scale(1 1) rotate(0) translate(4 60)">
<title>cv::cudev::checkCudaError</title>
<!-- Node1 -->
<g id="Node000001" class="node">
<title>Node1</title>
<g id="a_Node000001"><a xlink:title=" ">
<polygon fill="#999999" stroke="#666666" points="144,-37 0,-37 0,-18 144,-18 144,-37"/>
<text text-anchor="middle" x="72" y="-25" font-family="Helvetica,sans-Serif" font-size="10.00">cv::cudev::checkCudaError</text>
</a>
</g>
</g>
<!-- Node2 -->
<g id="Node000002" class="node">
<title>Node2</title>
<g id="a_Node000002"><a xlink:href="../../db/de0/group__core__utils.html#ga4910d7f86336cd4eff9dd05575667e41" target="_top" xlink:title="Signals an error and raises the exception.">
<polygon fill="white" stroke="#666666" points="236,-56 180,-56 180,-37 236,-37 236,-56"/>
<text text-anchor="middle" x="208" y="-44" font-family="Helvetica,sans-Serif" font-size="10.00">cv::error</text>
</a>
</g>
</g>
<!-- Node1&#45;&gt;Node2 -->
<g id="edge1_Node000001_Node000002" class="edge">
<title>Node1&#45;&gt;Node2</title>
<g id="a_edge1_Node000001_Node000002"><a xlink:title=" ">
<path fill="none" stroke="#63b8ff" d="M140.39,-37.06C150.53,-38.49 160.65,-39.93 169.83,-41.23"/>
<polygon fill="#63b8ff" stroke="#63b8ff" points="169.36,-44.7 179.75,-42.64 170.34,-37.77 169.36,-44.7"/>
</a>
</g>
</g>
<!-- Node3 -->
<g id="Node000003" class="node">
<title>Node3</title>
<g id="a_Node000003"><a xlink:href="../../d6/d6e/group__imgproc__draw.html#ga7078a9fae8c7e7d13d24dac2520ae4a2" target="_top" xlink:title="Draws a line segment connecting two points.">
<polygon fill="white" stroke="#666666" points="233.5,-19 182.5,-19 182.5,0 233.5,0 233.5,-19"/>
<text text-anchor="middle" x="208" y="-7" font-family="Helvetica,sans-Serif" font-size="10.00">cv::line</text>
</a>
</g>
</g>
<!-- Node1&#45;&gt;Node3 -->
<g id="edge2_Node000001_Node000003" class="edge">
<title>Node1&#45;&gt;Node3</title>
<g id="a_edge2_Node000001_Node000003"><a xlink:title=" ">
<path fill="none" stroke="#63b8ff" d="M143.92,-17.97C153.74,-16.65 163.45,-15.35 172.19,-14.18"/>
<polygon fill="#63b8ff" stroke="#63b8ff" points="172.88,-17.61 182.33,-12.81 171.95,-10.68 172.88,-17.61"/>
</a>
</g>
</g>
</g>
</svg>
