<?xml version="1.0" encoding="UTF-8" standalone="no"?>
<!DOCTYPE svg PUBLIC "-//W3C//DTD SVG 1.1//EN"
 "http://www.w3.org/Graphics/SVG/1.1/DTD/svg11.dtd">
<!-- Generated by graphviz version 2.43.0 (0)
 -->
<!-- Title: cv::cudev::derivY_ Pages: 1 -->
<svg width="618pt" height="134pt"
 viewBox="0.00 0.00 618.00 134.00" xmlns="http://www.w3.org/2000/svg" xmlns:xlink="http://www.w3.org/1999/xlink">
<g id="graph0" class="graph" transform="scale(1 1) rotate(0) translate(4 130)">
<title>cv::cudev::derivY_</title>
<!-- Node1 -->
<g id="Node000001" class="node">
<title>Node1</title>
<g id="a_Node000001"><a xlink:title=" ">
<polygon fill="#999999" stroke="#666666" points="104,-53.5 0,-53.5 0,-34.5 104,-34.5 104,-53.5"/>
<text text-anchor="middle" x="52" y="-41.5" font-family="Helvetica,sans-Serif" font-size="10.00">cv::cudev::derivY_</text>
</a>
</g>
</g>
<!-- Node2 -->
<g id="Node000002" class="node">
<title>Node2</title>
<g id="a_Node000002"><a xlink:href="../../df/dfc/group__cudev.html#ga413944b5f927ac8e1420e4a17b77d141" target="_top" xlink:title=" ">
<polygon fill="white" stroke="#666666" points="254,-72.5 142,-72.5 142,-53.5 254,-53.5 254,-72.5"/>
<text text-anchor="middle" x="198" y="-60.5" font-family="Helvetica,sans-Serif" font-size="10.00">cv::cudev::derivYPtr</text>
</a>
</g>
</g>
<!-- Node1&#45;&gt;Node2 -->
<g id="edge1_Node000001_Node000002" class="edge">
<title>Node1&#45;&gt;Node2</title>
<g id="a_edge1_Node000001_Node000002"><a xlink:title=" ">
<path fill="none" stroke="#63b8ff" d="M104.17,-50.75C113.08,-51.93 122.45,-53.16 131.67,-54.38"/>
<polygon fill="#63b8ff" stroke="#63b8ff" points="131.22,-57.85 141.59,-55.69 132.14,-50.91 131.22,-57.85"/>
</a>
</g>
</g>
<!-- Node9 -->
<g id="Node000009" class="node">
<title>Node9</title>
<g id="a_Node000009"><a xlink:href="../../df/dfc/group__cudev.html#ga1dbd29079f84cb97dbcbd1f32ba0ac9b" target="_top" xlink:title=" ">
<polygon fill="white" stroke="#666666" points="256,-35.5 140,-35.5 140,-16.5 256,-16.5 256,-35.5"/>
<text text-anchor="middle" x="198" y="-23.5" font-family="Helvetica,sans-Serif" font-size="10.00">cv::cudev::makeExpr</text>
</a>
</g>
</g>
<!-- Node1&#45;&gt;Node9 -->
<g id="edge8_Node000001_Node000009" class="edge">
<title>Node1&#45;&gt;Node9</title>
<g id="a_edge8_Node000001_Node000009"><a xlink:title=" ">
<path fill="none" stroke="#63b8ff" d="M104.17,-37.6C112.43,-36.57 121.07,-35.49 129.64,-34.42"/>
<polygon fill="#63b8ff" stroke="#63b8ff" points="130.13,-37.89 139.62,-33.17 129.26,-30.94 130.13,-37.89"/>
</a>
</g>
</g>
<!-- Node3 -->
<g id="Node000003" class="node">
<title>Node3</title>
<g id="a_Node000003"><a xlink:href="../../df/dfc/group__cudev.html#gad6dab113b0778bcf03f9d0ebfe78ad10" target="_top" xlink:title=" ">
<polygon fill="white" stroke="#666666" points="399.5,-114.5 295.5,-114.5 295.5,-95.5 399.5,-95.5 399.5,-114.5"/>
<text text-anchor="middle" x="347.5" y="-102.5" font-family="Helvetica,sans-Serif" font-size="10.00">cv::cudev::getCols</text>
</a>
</g>
</g>
<!-- Node2&#45;&gt;Node3 -->
<g id="edge2_Node000002_Node000003" class="edge">
<title>Node2&#45;&gt;Node3</title>
<g id="a_edge2_Node000002_Node000003"><a xlink:title=" ">
<path fill="none" stroke="#63b8ff" d="M232.47,-72.53C253.42,-78.5 280.63,-86.25 303.22,-92.68"/>
<polygon fill="#63b8ff" stroke="#63b8ff" points="302.33,-96.06 312.91,-95.43 304.25,-89.33 302.33,-96.06"/>
</a>
</g>
</g>
<!-- Node5 -->
<g id="Node000005" class="node">
<title>Node5</title>
<g id="a_Node000005"><a xlink:href="../../df/dfc/group__cudev.html#gad690da4acd9ac0de7ab244ee1c5394b4" target="_top" xlink:title=" ">
<polygon fill="white" stroke="#666666" points="402.5,-72.5 292.5,-72.5 292.5,-53.5 402.5,-53.5 402.5,-72.5"/>
<text text-anchor="middle" x="347.5" y="-60.5" font-family="Helvetica,sans-Serif" font-size="10.00">cv::cudev::getRows</text>
</a>
</g>
</g>
<!-- Node2&#45;&gt;Node5 -->
<g id="edge4_Node000002_Node000005" class="edge">
<title>Node2&#45;&gt;Node5</title>
<g id="a_edge4_Node000002_Node000005"><a xlink:title=" ">
<path fill="none" stroke="#63b8ff" d="M254.34,-63C263.47,-63 272.99,-63 282.31,-63"/>
<polygon fill="#63b8ff" stroke="#63b8ff" points="282.32,-66.5 292.32,-63 282.32,-59.5 282.32,-66.5"/>
</a>
</g>
</g>
<!-- Node7 -->
<g id="Node000007" class="node">
<title>Node7</title>
<g id="a_Node000007"><a xlink:href="../../df/dfc/group__cudev.html#gaa3dcb9b45488dc7770dd40609724b531" target="_top" xlink:title=" ">
<polygon fill="white" stroke="#666666" points="403,-30.5 292,-30.5 292,-11.5 403,-11.5 403,-30.5"/>
<text text-anchor="middle" x="347.5" y="-18.5" font-family="Helvetica,sans-Serif" font-size="10.00">cv::cudev::shrinkPtr</text>
</a>
</g>
</g>
<!-- Node2&#45;&gt;Node7 -->
<g id="edge6_Node000002_Node000007" class="edge">
<title>Node2&#45;&gt;Node7</title>
<g id="a_edge6_Node000002_Node000007"><a xlink:title=" ">
<path fill="none" stroke="#63b8ff" d="M232.47,-53.47C253.42,-47.5 280.63,-39.75 303.22,-33.32"/>
<polygon fill="#63b8ff" stroke="#63b8ff" points="304.25,-36.67 312.91,-30.57 302.33,-29.94 304.25,-36.67"/>
</a>
</g>
</g>
<!-- Node4 -->
<g id="Node000004" class="node">
<title>Node4</title>
<g id="a_Node000004"><a xlink:href="../../db/d3c/structcv_1_1cudev_1_1PtrTraitsBase.html#a8d71e329800db50f164dd41cc6699f2a" target="_top" xlink:title=" ">
<polygon fill="white" stroke="#666666" points="606.5,-126 442.5,-126 442.5,-96 606.5,-96 606.5,-126"/>
<text text-anchor="start" x="450.5" y="-114" font-family="Helvetica,sans-Serif" font-size="10.00">cv::cudev::PtrTraitsBase</text>
<text text-anchor="middle" x="524.5" y="-103" font-family="Helvetica,sans-Serif" font-size="10.00">&lt; Ptr2DSz, Ptr2DSz &gt;::getCols</text>
</a>
</g>
</g>
<!-- Node3&#45;&gt;Node4 -->
<g id="edge3_Node000003_Node000004" class="edge">
<title>Node3&#45;&gt;Node4</title>
<g id="a_edge3_Node000003_Node000004"><a xlink:title=" ">
<path fill="none" stroke="#63b8ff" d="M399.59,-106.75C409.86,-107.1 420.95,-107.48 432.12,-107.87"/>
<polygon fill="#63b8ff" stroke="#63b8ff" points="432.27,-111.37 442.38,-108.22 432.51,-104.38 432.27,-111.37"/>
</a>
</g>
</g>
<!-- Node6 -->
<g id="Node000006" class="node">
<title>Node6</title>
<g id="a_Node000006"><a xlink:href="../../db/d3c/structcv_1_1cudev_1_1PtrTraitsBase.html#abaa5f1be07d953c5035bdbf9c9d8231f" target="_top" xlink:title=" ">
<polygon fill="white" stroke="#666666" points="609.5,-78 439.5,-78 439.5,-48 609.5,-48 609.5,-78"/>
<text text-anchor="start" x="447.5" y="-66" font-family="Helvetica,sans-Serif" font-size="10.00">cv::cudev::PtrTraitsBase</text>
<text text-anchor="middle" x="524.5" y="-55" font-family="Helvetica,sans-Serif" font-size="10.00">&lt; Ptr2DSz, Ptr2DSz &gt;::getRows</text>
</a>
</g>
</g>
<!-- Node5&#45;&gt;Node6 -->
<g id="edge5_Node000005_Node000006" class="edge">
<title>Node5&#45;&gt;Node6</title>
<g id="a_edge5_Node000005_Node000006"><a xlink:title=" ">
<path fill="none" stroke="#63b8ff" d="M402.91,-63C411.3,-63 420.15,-63 429.11,-63"/>
<polygon fill="#63b8ff" stroke="#63b8ff" points="429.24,-66.5 439.24,-63 429.24,-59.5 429.24,-66.5"/>
</a>
</g>
</g>
<!-- Node8 -->
<g id="Node000008" class="node">
<title>Node8</title>
<g id="a_Node000008"><a xlink:href="../../db/d3c/structcv_1_1cudev_1_1PtrTraitsBase.html#a17d5c5dba728eeaa99bbc55f697245d4" target="_top" xlink:title=" ">
<polygon fill="white" stroke="#666666" points="610,-30 439,-30 439,0 610,0 610,-30"/>
<text text-anchor="start" x="447" y="-18" font-family="Helvetica,sans-Serif" font-size="10.00">cv::cudev::PtrTraitsBase</text>
<text text-anchor="middle" x="524.5" y="-7" font-family="Helvetica,sans-Serif" font-size="10.00">&lt; Ptr2DSz, Ptr2DSz &gt;::shrinkPtr</text>
</a>
</g>
</g>
<!-- Node7&#45;&gt;Node8 -->
<g id="edge7_Node000007_Node000008" class="edge">
<title>Node7&#45;&gt;Node8</title>
<g id="a_edge7_Node000007_Node000008"><a xlink:title=" ">
<path fill="none" stroke="#63b8ff" d="M403.39,-19.12C411.53,-18.84 420.11,-18.54 428.79,-18.25"/>
<polygon fill="#63b8ff" stroke="#63b8ff" points="429.12,-21.74 439,-17.9 428.88,-14.74 429.12,-21.74"/>
</a>
</g>
</g>
</g>
</svg>
