<?xml version="1.0" encoding="UTF-8" standalone="no"?>
<!DOCTYPE svg PUBLIC "-//W3C//DTD SVG 1.1//EN"
 "http://www.w3.org/Graphics/SVG/1.1/DTD/svg11.dtd">
<!-- Generated by graphviz version 2.43.0 (0)
 -->
<!-- Title: cv::cudev::gridMergeArray_ Pages: 1 -->
<svg width="541pt" height="129pt"
 viewBox="0.00 0.00 541.00 129.00" xmlns="http://www.w3.org/2000/svg" xmlns:xlink="http://www.w3.org/1999/xlink">
<g id="graph0" class="graph" transform="scale(1 1) rotate(0) translate(4 125)">
<title>cv::cudev::gridMergeArray_</title>
<!-- Node1 -->
<g id="Node000001" class="node">
<title>Node1</title>
<g id="a_Node000001"><a xlink:title=" ">
<polygon fill="#999999" stroke="#666666" points="149,-67.5 0,-67.5 0,-48.5 149,-48.5 149,-67.5"/>
<text text-anchor="middle" x="74.5" y="-55.5" font-family="Helvetica,sans-Serif" font-size="10.00">cv::cudev::gridMergeArray_</text>
</a>
</g>
</g>
<!-- Node2 -->
<g id="Node000002" class="node">
<title>Node2</title>
<g id="a_Node000002"><a xlink:href="../../d3/d1c/classcv_1_1cudev_1_1GpuMat__.html#a9d88407df08c49f1de5d2d062099c1fc" target="_top" xlink:title="allocates new GpuMat data unless the GpuMat already has specified size and type">
<polygon fill="white" stroke="#666666" points="311,-121 200,-121 200,-91 311,-91 311,-121"/>
<text text-anchor="start" x="208" y="-109" font-family="Helvetica,sans-Serif" font-size="10.00">cv::cudev::GpuMat_</text>
<text text-anchor="middle" x="255.5" y="-98" font-family="Helvetica,sans-Serif" font-size="10.00">::create</text>
</a>
</g>
</g>
<!-- Node1&#45;&gt;Node2 -->
<g id="edge1_Node000001_Node000002" class="edge">
<title>Node1&#45;&gt;Node2</title>
<g id="a_edge1_Node000001_Node000002"><a xlink:title=" ">
<path fill="none" stroke="#63b8ff" d="M111.29,-67.6C133.73,-73.61 163.31,-81.55 189.76,-88.64"/>
<polygon fill="#63b8ff" stroke="#63b8ff" points="189.16,-92.1 199.72,-91.31 190.97,-85.34 189.16,-92.1"/>
</a>
</g>
</g>
<!-- Node3 -->
<g id="Node000003" class="node">
<title>Node3</title>
<g id="a_Node000003"><a xlink:href="../../d6/df1/structcv_1_1cuda_1_1StreamAccessor.html#a5830d99635f08b462a429771bfad71a9" target="_top" xlink:title=" ">
<polygon fill="white" stroke="#666666" points="326,-73 185,-73 185,-43 326,-43 326,-73"/>
<text text-anchor="start" x="193" y="-61" font-family="Helvetica,sans-Serif" font-size="10.00">cv::cuda::StreamAccessor</text>
<text text-anchor="middle" x="255.5" y="-50" font-family="Helvetica,sans-Serif" font-size="10.00">::getStream</text>
</a>
</g>
</g>
<!-- Node1&#45;&gt;Node3 -->
<g id="edge2_Node000001_Node000003" class="edge">
<title>Node1&#45;&gt;Node3</title>
<g id="a_edge2_Node000001_Node000003"><a xlink:title=" ">
<path fill="none" stroke="#63b8ff" d="M149.08,-58C157.61,-58 166.33,-58 174.93,-58"/>
<polygon fill="#63b8ff" stroke="#63b8ff" points="174.95,-61.5 184.95,-58 174.95,-54.5 174.95,-61.5"/>
</a>
</g>
</g>
<!-- Node4 -->
<g id="Node000004" class="node">
<title>Node4</title>
<g id="a_Node000004"><a xlink:href="../../df/dfc/group__cudev.html#gaa3dcb9b45488dc7770dd40609724b531" target="_top" xlink:title=" ">
<polygon fill="white" stroke="#666666" points="311,-24.5 200,-24.5 200,-5.5 311,-5.5 311,-24.5"/>
<text text-anchor="middle" x="255.5" y="-12.5" font-family="Helvetica,sans-Serif" font-size="10.00">cv::cudev::shrinkPtr</text>
</a>
</g>
</g>
<!-- Node1&#45;&gt;Node4 -->
<g id="edge3_Node000001_Node000004" class="edge">
<title>Node1&#45;&gt;Node4</title>
<g id="a_edge3_Node000001_Node000004"><a xlink:title=" ">
<path fill="none" stroke="#63b8ff" d="M115.23,-48.46C141.64,-42.11 176.55,-33.73 204.8,-26.94"/>
<polygon fill="#63b8ff" stroke="#63b8ff" points="205.98,-30.26 214.89,-24.52 204.34,-23.45 205.98,-30.26"/>
</a>
</g>
</g>
<!-- Node5 -->
<g id="Node000005" class="node">
<title>Node5</title>
<g id="a_Node000005"><a xlink:href="../../db/d3c/structcv_1_1cudev_1_1PtrTraitsBase.html#a17d5c5dba728eeaa99bbc55f697245d4" target="_top" xlink:title=" ">
<polygon fill="white" stroke="#666666" points="533,-30 362,-30 362,0 533,0 533,-30"/>
<text text-anchor="start" x="370" y="-18" font-family="Helvetica,sans-Serif" font-size="10.00">cv::cudev::PtrTraitsBase</text>
<text text-anchor="middle" x="447.5" y="-7" font-family="Helvetica,sans-Serif" font-size="10.00">&lt; Ptr2DSz, Ptr2DSz &gt;::shrinkPtr</text>
</a>
</g>
</g>
<!-- Node4&#45;&gt;Node5 -->
<g id="edge4_Node000004_Node000005" class="edge">
<title>Node4&#45;&gt;Node5</title>
<g id="a_edge4_Node000004_Node000005"><a xlink:title=" ">
<path fill="none" stroke="#63b8ff" d="M311.2,-15C323.9,-15 337.79,-15 351.67,-15"/>
<polygon fill="#63b8ff" stroke="#63b8ff" points="351.75,-18.5 361.75,-15 351.75,-11.5 351.75,-18.5"/>
</a>
</g>
</g>
</g>
</svg>
