<?xml version="1.0" encoding="UTF-8" standalone="no"?>
<!DOCTYPE svg PUBLIC "-//W3C//DTD SVG 1.1//EN"
 "http://www.w3.org/Graphics/SVG/1.1/DTD/svg11.dtd">
<!-- Generated by graphviz version 2.43.0 (0)
 -->
<!-- Title: cv::cudev::blockTransform Pages: 1 -->
<svg width="334pt" height="76pt"
 viewBox="0.00 0.00 334.00 75.50" xmlns="http://www.w3.org/2000/svg" xmlns:xlink="http://www.w3.org/1999/xlink">
<g id="graph0" class="graph" transform="scale(1 1) rotate(0) translate(4 71.5)">
<title>cv::cudev::blockTransform</title>
<!-- Node1 -->
<g id="Node000001" class="node">
<title>Node1</title>
<g id="a_Node000001"><a xlink:title=" ">
<polygon fill="#999999" stroke="#666666" points="143,-45.5 0,-45.5 0,-26.5 143,-26.5 143,-45.5"/>
<text text-anchor="middle" x="71.5" y="-33.5" font-family="Helvetica,sans-Serif" font-size="10.00">cv::cudev::blockTransform</text>
</a>
</g>
</g>
<!-- Node2 -->
<g id="Node000002" class="node">
<title>Node2</title>
<g id="a_Node000002"><a xlink:href="../../d3/d6c/structcv_1_1cudev_1_1Block.html#aced8f8d7740e8fd062d588358e0d670a" target="_top" xlink:title=" ">
<polygon fill="white" stroke="#666666" points="326,-67.5 179,-67.5 179,-48.5 326,-48.5 326,-67.5"/>
<text text-anchor="middle" x="252.5" y="-55.5" font-family="Helvetica,sans-Serif" font-size="10.00">cv::cudev::Block::blockSize</text>
</a>
</g>
</g>
<!-- Node1&#45;&gt;Node2 -->
<g id="edge1_Node000001_Node000002" class="edge">
<title>Node1&#45;&gt;Node2</title>
<g id="a_edge1_Node000001_Node000002"><a xlink:title=" ">
<path fill="none" stroke="#63b8ff" d="M143.25,-44.69C151.67,-45.73 160.33,-46.8 168.91,-47.85"/>
<polygon fill="#63b8ff" stroke="#63b8ff" points="168.57,-51.33 178.92,-49.08 169.42,-44.39 168.57,-51.33"/>
</a>
</g>
</g>
<!-- Node3 -->
<g id="Node000003" class="node">
<title>Node3</title>
<g id="a_Node000003"><a xlink:href="../../d3/d6c/structcv_1_1cudev_1_1Block.html#a88b4a5964e2ff214990975284ee9bbb0" target="_top" xlink:title=" ">
<polygon fill="white" stroke="#666666" points="318.5,-30 186.5,-30 186.5,0 318.5,0 318.5,-30"/>
<text text-anchor="start" x="194.5" y="-18" font-family="Helvetica,sans-Serif" font-size="10.00">cv::cudev::Block::thread</text>
<text text-anchor="middle" x="252.5" y="-7" font-family="Helvetica,sans-Serif" font-size="10.00">LineId</text>
</a>
</g>
</g>
<!-- Node1&#45;&gt;Node3 -->
<g id="edge2_Node000001_Node000003" class="edge">
<title>Node1&#45;&gt;Node3</title>
<g id="a_edge2_Node000001_Node000003"><a xlink:title=" ">
<path fill="none" stroke="#63b8ff" d="M143.25,-27.7C154.09,-26.43 165.33,-25.11 176.27,-23.83"/>
<polygon fill="#63b8ff" stroke="#63b8ff" points="176.69,-27.3 186.22,-22.66 175.88,-20.35 176.69,-27.3"/>
</a>
</g>
</g>
</g>
</svg>
