<?xml version="1.0" encoding="UTF-8" standalone="no"?>
<!DOCTYPE svg PUBLIC "-//W3C//DTD SVG 1.1//EN"
 "http://www.w3.org/Graphics/SVG/1.1/DTD/svg11.dtd">
<!-- Generated by graphviz version 2.43.0 (0)
 -->
<!-- Title: cv::cudev::gridMerge_ Pages: 1 -->
<svg width="514pt" height="204pt"
 viewBox="0.00 0.00 514.00 204.00" xmlns="http://www.w3.org/2000/svg" xmlns:xlink="http://www.w3.org/1999/xlink">
<g id="graph0" class="graph" transform="scale(1 1) rotate(0) translate(4 200)">
<title>cv::cudev::gridMerge_</title>
<!-- Node1 -->
<g id="Node000001" class="node">
<title>Node1</title>
<g id="a_Node000001"><a xlink:title=" ">
<polygon fill="#999999" stroke="#666666" points="122,-110.5 0,-110.5 0,-91.5 122,-91.5 122,-110.5"/>
<text text-anchor="middle" x="61" y="-98.5" font-family="Helvetica,sans-Serif" font-size="10.00">cv::cudev::gridMerge_</text>
</a>
</g>
</g>
<!-- Node2 -->
<g id="Node000002" class="node">
<title>Node2</title>
<g id="a_Node000002"><a xlink:href="../../d3/d1c/classcv_1_1cudev_1_1GpuMat__.html#a9d88407df08c49f1de5d2d062099c1fc" target="_top" xlink:title="allocates new GpuMat data unless the GpuMat already has specified size and type">
<polygon fill="white" stroke="#666666" points="284,-196 173,-196 173,-166 284,-166 284,-196"/>
<text text-anchor="start" x="181" y="-184" font-family="Helvetica,sans-Serif" font-size="10.00">cv::cudev::GpuMat_</text>
<text text-anchor="middle" x="228.5" y="-173" font-family="Helvetica,sans-Serif" font-size="10.00">::create</text>
</a>
</g>
</g>
<!-- Node1&#45;&gt;Node2 -->
<g id="edge1_Node000001_Node000002" class="edge">
<title>Node1&#45;&gt;Node2</title>
<g id="a_edge1_Node000001_Node000002"><a xlink:title=" ">
<path fill="none" stroke="#63b8ff" d="M76.48,-110.66C94.87,-122.64 127.84,-143.16 158,-157 162.02,-158.85 166.23,-160.63 170.51,-162.34"/>
<polygon fill="#63b8ff" stroke="#63b8ff" points="169.31,-165.64 179.9,-165.96 171.83,-159.1 169.31,-165.64"/>
</a>
</g>
</g>
<!-- Node3 -->
<g id="Node000003" class="node">
<title>Node3</title>
<g id="a_Node000003"><a xlink:href="../../df/dfc/group__cudev.html#gad6dab113b0778bcf03f9d0ebfe78ad10" target="_top" xlink:title=" ">
<polygon fill="white" stroke="#666666" points="280.5,-147.5 176.5,-147.5 176.5,-128.5 280.5,-128.5 280.5,-147.5"/>
<text text-anchor="middle" x="228.5" y="-135.5" font-family="Helvetica,sans-Serif" font-size="10.00">cv::cudev::getCols</text>
</a>
</g>
</g>
<!-- Node1&#45;&gt;Node3 -->
<g id="edge2_Node000001_Node000003" class="edge">
<title>Node1&#45;&gt;Node3</title>
<g id="a_edge2_Node000001_Node000003"><a xlink:title=" ">
<path fill="none" stroke="#63b8ff" d="M104.62,-110.53C126.06,-115.32 152.25,-121.18 174.93,-126.25"/>
<polygon fill="#63b8ff" stroke="#63b8ff" points="174.21,-129.67 184.74,-128.44 175.74,-122.84 174.21,-129.67"/>
</a>
</g>
</g>
<!-- Node5 -->
<g id="Node000005" class="node">
<title>Node5</title>
<g id="a_Node000005"><a xlink:href="../../df/dfc/group__cudev.html#gad690da4acd9ac0de7ab244ee1c5394b4" target="_top" xlink:title=" ">
<polygon fill="white" stroke="#666666" points="283.5,-110.5 173.5,-110.5 173.5,-91.5 283.5,-91.5 283.5,-110.5"/>
<text text-anchor="middle" x="228.5" y="-98.5" font-family="Helvetica,sans-Serif" font-size="10.00">cv::cudev::getRows</text>
</a>
</g>
</g>
<!-- Node1&#45;&gt;Node5 -->
<g id="edge4_Node000001_Node000005" class="edge">
<title>Node1&#45;&gt;Node5</title>
<g id="a_edge4_Node000001_Node000005"><a xlink:title=" ">
<path fill="none" stroke="#63b8ff" d="M122.22,-101C135.55,-101 149.72,-101 163.21,-101"/>
<polygon fill="#63b8ff" stroke="#63b8ff" points="163.36,-104.5 173.36,-101 163.36,-97.5 163.36,-104.5"/>
</a>
</g>
</g>
<!-- Node7 -->
<g id="Node000007" class="node">
<title>Node7</title>
<g id="a_Node000007"><a xlink:href="../../d6/df1/structcv_1_1cuda_1_1StreamAccessor.html#a5830d99635f08b462a429771bfad71a9" target="_top" xlink:title=" ">
<polygon fill="white" stroke="#666666" points="299,-73 158,-73 158,-43 299,-43 299,-73"/>
<text text-anchor="start" x="166" y="-61" font-family="Helvetica,sans-Serif" font-size="10.00">cv::cuda::StreamAccessor</text>
<text text-anchor="middle" x="228.5" y="-50" font-family="Helvetica,sans-Serif" font-size="10.00">::getStream</text>
</a>
</g>
</g>
<!-- Node1&#45;&gt;Node7 -->
<g id="edge6_Node000001_Node000007" class="edge">
<title>Node1&#45;&gt;Node7</title>
<g id="a_edge6_Node000001_Node000007"><a xlink:title=" ">
<path fill="none" stroke="#63b8ff" d="M98.73,-91.46C116.73,-86.78 139,-80.99 159.92,-75.56"/>
<polygon fill="#63b8ff" stroke="#63b8ff" points="160.94,-78.91 169.74,-73.01 159.18,-72.13 160.94,-78.91"/>
</a>
</g>
</g>
<!-- Node8 -->
<g id="Node000008" class="node">
<title>Node8</title>
<g id="a_Node000008"><a xlink:href="../../df/dfc/group__cudev.html#gaa3dcb9b45488dc7770dd40609724b531" target="_top" xlink:title=" ">
<polygon fill="white" stroke="#666666" points="284,-24.5 173,-24.5 173,-5.5 284,-5.5 284,-24.5"/>
<text text-anchor="middle" x="228.5" y="-12.5" font-family="Helvetica,sans-Serif" font-size="10.00">cv::cudev::shrinkPtr</text>
</a>
</g>
</g>
<!-- Node1&#45;&gt;Node8 -->
<g id="edge7_Node000001_Node000008" class="edge">
<title>Node1&#45;&gt;Node8</title>
<g id="a_edge7_Node000001_Node000008"><a xlink:title=" ">
<path fill="none" stroke="#63b8ff" d="M73.03,-91.38C90.11,-76.94 124.5,-49.69 158,-34 163.03,-31.65 168.4,-29.54 173.85,-27.66"/>
<polygon fill="#63b8ff" stroke="#63b8ff" points="175.21,-30.9 183.67,-24.52 173.08,-24.23 175.21,-30.9"/>
</a>
</g>
</g>
<!-- Node4 -->
<g id="Node000004" class="node">
<title>Node4</title>
<g id="a_Node000004"><a xlink:href="../../db/d3c/structcv_1_1cudev_1_1PtrTraitsBase.html#a8d71e329800db50f164dd41cc6699f2a" target="_top" xlink:title=" ">
<polygon fill="white" stroke="#666666" points="502.5,-158 338.5,-158 338.5,-128 502.5,-128 502.5,-158"/>
<text text-anchor="start" x="346.5" y="-146" font-family="Helvetica,sans-Serif" font-size="10.00">cv::cudev::PtrTraitsBase</text>
<text text-anchor="middle" x="420.5" y="-135" font-family="Helvetica,sans-Serif" font-size="10.00">&lt; Ptr2DSz, Ptr2DSz &gt;::getCols</text>
</a>
</g>
</g>
<!-- Node3&#45;&gt;Node4 -->
<g id="edge3_Node000003_Node000004" class="edge">
<title>Node3&#45;&gt;Node4</title>
<g id="a_edge3_Node000003_Node000004"><a xlink:title=" ">
<path fill="none" stroke="#63b8ff" d="M280.67,-139.35C295.32,-139.73 311.76,-140.16 328.05,-140.59"/>
<polygon fill="#63b8ff" stroke="#63b8ff" points="328.08,-144.1 338.17,-140.86 328.26,-137.1 328.08,-144.1"/>
</a>
</g>
</g>
<!-- Node6 -->
<g id="Node000006" class="node">
<title>Node6</title>
<g id="a_Node000006"><a xlink:href="../../db/d3c/structcv_1_1cudev_1_1PtrTraitsBase.html#abaa5f1be07d953c5035bdbf9c9d8231f" target="_top" xlink:title=" ">
<polygon fill="white" stroke="#666666" points="505.5,-110 335.5,-110 335.5,-80 505.5,-80 505.5,-110"/>
<text text-anchor="start" x="343.5" y="-98" font-family="Helvetica,sans-Serif" font-size="10.00">cv::cudev::PtrTraitsBase</text>
<text text-anchor="middle" x="420.5" y="-87" font-family="Helvetica,sans-Serif" font-size="10.00">&lt; Ptr2DSz, Ptr2DSz &gt;::getRows</text>
</a>
</g>
</g>
<!-- Node5&#45;&gt;Node6 -->
<g id="edge5_Node000005_Node000006" class="edge">
<title>Node5&#45;&gt;Node6</title>
<g id="a_edge5_Node000005_Node000006"><a xlink:title=" ">
<path fill="none" stroke="#63b8ff" d="M283.69,-99.29C296.67,-98.88 310.9,-98.43 325.11,-97.98"/>
<polygon fill="#63b8ff" stroke="#63b8ff" points="325.55,-101.47 335.43,-97.65 325.33,-94.47 325.55,-101.47"/>
</a>
</g>
</g>
<!-- Node9 -->
<g id="Node000009" class="node">
<title>Node9</title>
<g id="a_Node000009"><a xlink:href="../../db/d3c/structcv_1_1cudev_1_1PtrTraitsBase.html#a17d5c5dba728eeaa99bbc55f697245d4" target="_top" xlink:title=" ">
<polygon fill="white" stroke="#666666" points="506,-30 335,-30 335,0 506,0 506,-30"/>
<text text-anchor="start" x="343" y="-18" font-family="Helvetica,sans-Serif" font-size="10.00">cv::cudev::PtrTraitsBase</text>
<text text-anchor="middle" x="420.5" y="-7" font-family="Helvetica,sans-Serif" font-size="10.00">&lt; Ptr2DSz, Ptr2DSz &gt;::shrinkPtr</text>
</a>
</g>
</g>
<!-- Node8&#45;&gt;Node9 -->
<g id="edge8_Node000008_Node000009" class="edge">
<title>Node8&#45;&gt;Node9</title>
<g id="a_edge8_Node000008_Node000009"><a xlink:title=" ">
<path fill="none" stroke="#63b8ff" d="M284.2,-15C296.9,-15 310.79,-15 324.67,-15"/>
<polygon fill="#63b8ff" stroke="#63b8ff" points="324.75,-18.5 334.75,-15 324.75,-11.5 324.75,-18.5"/>
</a>
</g>
</g>
</g>
</svg>
