<?xml version="1.0" encoding="UTF-8" standalone="no"?>
<!DOCTYPE svg PUBLIC "-//W3C//DTD SVG 1.1//EN"
 "http://www.w3.org/Graphics/SVG/1.1/DTD/svg11.dtd">
<!-- Generated by graphviz version 2.43.0 (0)
 -->
<!-- Title: cv::cudev::gridTransformUnary_ Pages: 1 -->
<svg width="527pt" height="204pt"
 viewBox="0.00 0.00 527.00 204.00" xmlns="http://www.w3.org/2000/svg" xmlns:xlink="http://www.w3.org/1999/xlink">
<g id="graph0" class="graph" transform="scale(1 1) rotate(0) translate(4 200)">
<title>cv::cudev::gridTransformUnary_</title>
<!-- Node1 -->
<g id="Node000001" class="node">
<title>Node1</title>
<g id="a_Node000001"><a xlink:title=" ">
<polygon fill="#999999" stroke="#666666" points="135,-116 0,-116 0,-86 135,-86 135,-116"/>
<text text-anchor="start" x="8" y="-104" font-family="Helvetica,sans-Serif" font-size="10.00">cv::cudev::gridTransform</text>
<text text-anchor="middle" x="67.5" y="-93" font-family="Helvetica,sans-Serif" font-size="10.00">Unary_</text>
</a>
</g>
</g>
<!-- Node2 -->
<g id="Node000002" class="node">
<title>Node2</title>
<g id="a_Node000002"><a xlink:href="../../d3/d1c/classcv_1_1cudev_1_1GpuMat__.html#a9d88407df08c49f1de5d2d062099c1fc" target="_top" xlink:title="allocates new GpuMat data unless the GpuMat already has specified size and type">
<polygon fill="white" stroke="#666666" points="297,-196 186,-196 186,-166 297,-166 297,-196"/>
<text text-anchor="start" x="194" y="-184" font-family="Helvetica,sans-Serif" font-size="10.00">cv::cudev::GpuMat_</text>
<text text-anchor="middle" x="241.5" y="-173" font-family="Helvetica,sans-Serif" font-size="10.00">::create</text>
</a>
</g>
</g>
<!-- Node1&#45;&gt;Node2 -->
<g id="edge1_Node000001_Node000002" class="edge">
<title>Node1&#45;&gt;Node2</title>
<g id="a_edge1_Node000001_Node000002"><a xlink:title=" ">
<path fill="none" stroke="#63b8ff" d="M93.18,-116.01C113.58,-128.04 143.55,-144.87 171,-157 175.12,-158.82 179.42,-160.59 183.78,-162.3"/>
<polygon fill="#63b8ff" stroke="#63b8ff" points="182.76,-165.66 193.35,-165.92 185.24,-159.11 182.76,-165.66"/>
</a>
</g>
</g>
<!-- Node3 -->
<g id="Node000003" class="node">
<title>Node3</title>
<g id="a_Node000003"><a xlink:href="../../df/dfc/group__cudev.html#gad6dab113b0778bcf03f9d0ebfe78ad10" target="_top" xlink:title=" ">
<polygon fill="white" stroke="#666666" points="293.5,-147.5 189.5,-147.5 189.5,-128.5 293.5,-128.5 293.5,-147.5"/>
<text text-anchor="middle" x="241.5" y="-135.5" font-family="Helvetica,sans-Serif" font-size="10.00">cv::cudev::getCols</text>
</a>
</g>
</g>
<!-- Node1&#45;&gt;Node3 -->
<g id="edge2_Node000001_Node000003" class="edge">
<title>Node1&#45;&gt;Node3</title>
<g id="a_edge2_Node000001_Node000003"><a xlink:title=" ">
<path fill="none" stroke="#63b8ff" d="M135.49,-115.41C152.36,-119.04 170.26,-122.89 186.41,-126.37"/>
<polygon fill="#63b8ff" stroke="#63b8ff" points="185.71,-129.79 196.22,-128.47 187.18,-122.95 185.71,-129.79"/>
</a>
</g>
</g>
<!-- Node5 -->
<g id="Node000005" class="node">
<title>Node5</title>
<g id="a_Node000005"><a xlink:href="../../df/dfc/group__cudev.html#gad690da4acd9ac0de7ab244ee1c5394b4" target="_top" xlink:title=" ">
<polygon fill="white" stroke="#666666" points="296.5,-110.5 186.5,-110.5 186.5,-91.5 296.5,-91.5 296.5,-110.5"/>
<text text-anchor="middle" x="241.5" y="-98.5" font-family="Helvetica,sans-Serif" font-size="10.00">cv::cudev::getRows</text>
</a>
</g>
</g>
<!-- Node1&#45;&gt;Node5 -->
<g id="edge4_Node000001_Node000005" class="edge">
<title>Node1&#45;&gt;Node5</title>
<g id="a_edge4_Node000001_Node000005"><a xlink:title=" ">
<path fill="none" stroke="#63b8ff" d="M135.49,-101C148.95,-101 163.05,-101 176.41,-101"/>
<polygon fill="#63b8ff" stroke="#63b8ff" points="176.45,-104.5 186.45,-101 176.45,-97.5 176.45,-104.5"/>
</a>
</g>
</g>
<!-- Node7 -->
<g id="Node000007" class="node">
<title>Node7</title>
<g id="a_Node000007"><a xlink:href="../../d6/df1/structcv_1_1cuda_1_1StreamAccessor.html#a5830d99635f08b462a429771bfad71a9" target="_top" xlink:title=" ">
<polygon fill="white" stroke="#666666" points="312,-73 171,-73 171,-43 312,-43 312,-73"/>
<text text-anchor="start" x="179" y="-61" font-family="Helvetica,sans-Serif" font-size="10.00">cv::cuda::StreamAccessor</text>
<text text-anchor="middle" x="241.5" y="-50" font-family="Helvetica,sans-Serif" font-size="10.00">::getStream</text>
</a>
</g>
</g>
<!-- Node1&#45;&gt;Node7 -->
<g id="edge6_Node000001_Node000007" class="edge">
<title>Node1&#45;&gt;Node7</title>
<g id="a_edge6_Node000001_Node000007"><a xlink:title=" ">
<path fill="none" stroke="#63b8ff" d="M128.66,-85.96C142.14,-82.59 156.56,-78.98 170.41,-75.52"/>
<polygon fill="#63b8ff" stroke="#63b8ff" points="171.52,-78.85 180.38,-73.03 169.83,-72.06 171.52,-78.85"/>
</a>
</g>
</g>
<!-- Node8 -->
<g id="Node000008" class="node">
<title>Node8</title>
<g id="a_Node000008"><a xlink:href="../../df/dfc/group__cudev.html#gaa3dcb9b45488dc7770dd40609724b531" target="_top" xlink:title=" ">
<polygon fill="white" stroke="#666666" points="297,-24.5 186,-24.5 186,-5.5 297,-5.5 297,-24.5"/>
<text text-anchor="middle" x="241.5" y="-12.5" font-family="Helvetica,sans-Serif" font-size="10.00">cv::cudev::shrinkPtr</text>
</a>
</g>
</g>
<!-- Node1&#45;&gt;Node8 -->
<g id="edge7_Node000001_Node000008" class="edge">
<title>Node1&#45;&gt;Node8</title>
<g id="a_edge7_Node000001_Node000008"><a xlink:title=" ">
<path fill="none" stroke="#63b8ff" d="M87.47,-85.97C107.29,-70.93 139.79,-48.05 171,-34 176.33,-31.6 182.04,-29.44 187.8,-27.52"/>
<polygon fill="#63b8ff" stroke="#63b8ff" points="188.99,-30.81 197.5,-24.5 186.91,-24.13 188.99,-30.81"/>
</a>
</g>
</g>
<!-- Node4 -->
<g id="Node000004" class="node">
<title>Node4</title>
<g id="a_Node000004"><a xlink:href="../../db/d3c/structcv_1_1cudev_1_1PtrTraitsBase.html#a8d71e329800db50f164dd41cc6699f2a" target="_top" xlink:title=" ">
<polygon fill="white" stroke="#666666" points="515.5,-158 351.5,-158 351.5,-128 515.5,-128 515.5,-158"/>
<text text-anchor="start" x="359.5" y="-146" font-family="Helvetica,sans-Serif" font-size="10.00">cv::cudev::PtrTraitsBase</text>
<text text-anchor="middle" x="433.5" y="-135" font-family="Helvetica,sans-Serif" font-size="10.00">&lt; Ptr2DSz, Ptr2DSz &gt;::getCols</text>
</a>
</g>
</g>
<!-- Node3&#45;&gt;Node4 -->
<g id="edge3_Node000003_Node000004" class="edge">
<title>Node3&#45;&gt;Node4</title>
<g id="a_edge3_Node000003_Node000004"><a xlink:title=" ">
<path fill="none" stroke="#63b8ff" d="M293.67,-139.35C308.32,-139.73 324.76,-140.16 341.05,-140.59"/>
<polygon fill="#63b8ff" stroke="#63b8ff" points="341.08,-144.1 351.17,-140.86 341.26,-137.1 341.08,-144.1"/>
</a>
</g>
</g>
<!-- Node6 -->
<g id="Node000006" class="node">
<title>Node6</title>
<g id="a_Node000006"><a xlink:href="../../db/d3c/structcv_1_1cudev_1_1PtrTraitsBase.html#abaa5f1be07d953c5035bdbf9c9d8231f" target="_top" xlink:title=" ">
<polygon fill="white" stroke="#666666" points="518.5,-110 348.5,-110 348.5,-80 518.5,-80 518.5,-110"/>
<text text-anchor="start" x="356.5" y="-98" font-family="Helvetica,sans-Serif" font-size="10.00">cv::cudev::PtrTraitsBase</text>
<text text-anchor="middle" x="433.5" y="-87" font-family="Helvetica,sans-Serif" font-size="10.00">&lt; Ptr2DSz, Ptr2DSz &gt;::getRows</text>
</a>
</g>
</g>
<!-- Node5&#45;&gt;Node6 -->
<g id="edge5_Node000005_Node000006" class="edge">
<title>Node5&#45;&gt;Node6</title>
<g id="a_edge5_Node000005_Node000006"><a xlink:title=" ">
<path fill="none" stroke="#63b8ff" d="M296.69,-99.29C309.67,-98.88 323.9,-98.43 338.11,-97.98"/>
<polygon fill="#63b8ff" stroke="#63b8ff" points="338.55,-101.47 348.43,-97.65 338.33,-94.47 338.55,-101.47"/>
</a>
</g>
</g>
<!-- Node9 -->
<g id="Node000009" class="node">
<title>Node9</title>
<g id="a_Node000009"><a xlink:href="../../db/d3c/structcv_1_1cudev_1_1PtrTraitsBase.html#a17d5c5dba728eeaa99bbc55f697245d4" target="_top" xlink:title=" ">
<polygon fill="white" stroke="#666666" points="519,-30 348,-30 348,0 519,0 519,-30"/>
<text text-anchor="start" x="356" y="-18" font-family="Helvetica,sans-Serif" font-size="10.00">cv::cudev::PtrTraitsBase</text>
<text text-anchor="middle" x="433.5" y="-7" font-family="Helvetica,sans-Serif" font-size="10.00">&lt; Ptr2DSz, Ptr2DSz &gt;::shrinkPtr</text>
</a>
</g>
</g>
<!-- Node8&#45;&gt;Node9 -->
<g id="edge8_Node000008_Node000009" class="edge">
<title>Node8&#45;&gt;Node9</title>
<g id="a_edge8_Node000008_Node000009"><a xlink:title=" ">
<path fill="none" stroke="#63b8ff" d="M297.2,-15C309.9,-15 323.79,-15 337.67,-15"/>
<polygon fill="#63b8ff" stroke="#63b8ff" points="337.75,-18.5 347.75,-15 337.75,-11.5 337.75,-18.5"/>
</a>
</g>
</g>
</g>
</svg>
