<?xml version="1.0" encoding="UTF-8" standalone="no"?>
<!DOCTYPE svg PUBLIC "-//W3C//DTD SVG 1.1//EN"
 "http://www.w3.org/Graphics/SVG/1.1/DTD/svg11.dtd">
<!-- Generated by graphviz version 2.43.0 (0)
 -->
<!-- Title: cv::cudev::remapPtr Pages: 1 -->
<svg width="475pt" height="134pt"
 viewBox="0.00 0.00 475.00 134.00" xmlns="http://www.w3.org/2000/svg" xmlns:xlink="http://www.w3.org/1999/xlink">
<g id="graph0" class="graph" transform="scale(1 1) rotate(0) translate(4 130)">
<title>cv::cudev::remapPtr</title>
<!-- Node1 -->
<g id="Node000001" class="node">
<title>Node1</title>
<g id="a_Node000001"><a xlink:title=" ">
<polygon fill="#999999" stroke="#666666" points="113,-72.5 0,-72.5 0,-53.5 113,-53.5 113,-72.5"/>
<text text-anchor="middle" x="56.5" y="-60.5" font-family="Helvetica,sans-Serif" font-size="10.00">cv::cudev::remapPtr</text>
</a>
</g>
</g>
<!-- Node2 -->
<g id="Node000002" class="node">
<title>Node2</title>
<g id="a_Node000002"><a xlink:href="../../df/dfc/group__cudev.html#gad6dab113b0778bcf03f9d0ebfe78ad10" target="_top" xlink:title=" ">
<polygon fill="white" stroke="#666666" points="256.5,-114.5 152.5,-114.5 152.5,-95.5 256.5,-95.5 256.5,-114.5"/>
<text text-anchor="middle" x="204.5" y="-102.5" font-family="Helvetica,sans-Serif" font-size="10.00">cv::cudev::getCols</text>
</a>
</g>
</g>
<!-- Node1&#45;&gt;Node2 -->
<g id="edge1_Node000001_Node000002" class="edge">
<title>Node1&#45;&gt;Node2</title>
<g id="a_edge1_Node000001_Node000002"><a xlink:title=" ">
<path fill="none" stroke="#63b8ff" d="M90.63,-72.53C111.28,-78.47 138.06,-86.18 160.36,-92.59"/>
<polygon fill="#63b8ff" stroke="#63b8ff" points="159.67,-96.03 170.25,-95.43 161.61,-89.31 159.67,-96.03"/>
</a>
</g>
</g>
<!-- Node4 -->
<g id="Node000004" class="node">
<title>Node4</title>
<g id="a_Node000004"><a xlink:href="../../df/dfc/group__cudev.html#gad690da4acd9ac0de7ab244ee1c5394b4" target="_top" xlink:title=" ">
<polygon fill="white" stroke="#666666" points="259.5,-72.5 149.5,-72.5 149.5,-53.5 259.5,-53.5 259.5,-72.5"/>
<text text-anchor="middle" x="204.5" y="-60.5" font-family="Helvetica,sans-Serif" font-size="10.00">cv::cudev::getRows</text>
</a>
</g>
</g>
<!-- Node1&#45;&gt;Node4 -->
<g id="edge3_Node000001_Node000004" class="edge">
<title>Node1&#45;&gt;Node4</title>
<g id="a_edge3_Node000001_Node000004"><a xlink:title=" ">
<path fill="none" stroke="#63b8ff" d="M113.11,-63C121.69,-63 130.6,-63 139.34,-63"/>
<polygon fill="#63b8ff" stroke="#63b8ff" points="139.49,-66.5 149.49,-63 139.49,-59.5 139.49,-66.5"/>
</a>
</g>
</g>
<!-- Node6 -->
<g id="Node000006" class="node">
<title>Node6</title>
<g id="a_Node000006"><a xlink:href="../../df/dfc/group__cudev.html#gaa3dcb9b45488dc7770dd40609724b531" target="_top" xlink:title=" ">
<polygon fill="white" stroke="#666666" points="260,-30.5 149,-30.5 149,-11.5 260,-11.5 260,-30.5"/>
<text text-anchor="middle" x="204.5" y="-18.5" font-family="Helvetica,sans-Serif" font-size="10.00">cv::cudev::shrinkPtr</text>
</a>
</g>
</g>
<!-- Node1&#45;&gt;Node6 -->
<g id="edge5_Node000001_Node000006" class="edge">
<title>Node1&#45;&gt;Node6</title>
<g id="a_edge5_Node000001_Node000006"><a xlink:title=" ">
<path fill="none" stroke="#63b8ff" d="M90.63,-53.47C111.28,-47.53 138.06,-39.82 160.36,-33.41"/>
<polygon fill="#63b8ff" stroke="#63b8ff" points="161.61,-36.69 170.25,-30.57 159.67,-29.97 161.61,-36.69"/>
</a>
</g>
</g>
<!-- Node3 -->
<g id="Node000003" class="node">
<title>Node3</title>
<g id="a_Node000003"><a xlink:href="../../db/d3c/structcv_1_1cudev_1_1PtrTraitsBase.html#a8d71e329800db50f164dd41cc6699f2a" target="_top" xlink:title=" ">
<polygon fill="white" stroke="#666666" points="463.5,-126 299.5,-126 299.5,-96 463.5,-96 463.5,-126"/>
<text text-anchor="start" x="307.5" y="-114" font-family="Helvetica,sans-Serif" font-size="10.00">cv::cudev::PtrTraitsBase</text>
<text text-anchor="middle" x="381.5" y="-103" font-family="Helvetica,sans-Serif" font-size="10.00">&lt; Ptr2DSz, Ptr2DSz &gt;::getCols</text>
</a>
</g>
</g>
<!-- Node2&#45;&gt;Node3 -->
<g id="edge2_Node000002_Node000003" class="edge">
<title>Node2&#45;&gt;Node3</title>
<g id="a_edge2_Node000002_Node000003"><a xlink:title=" ">
<path fill="none" stroke="#63b8ff" d="M256.59,-106.75C266.86,-107.1 277.95,-107.48 289.12,-107.87"/>
<polygon fill="#63b8ff" stroke="#63b8ff" points="289.27,-111.37 299.38,-108.22 289.51,-104.38 289.27,-111.37"/>
</a>
</g>
</g>
<!-- Node5 -->
<g id="Node000005" class="node">
<title>Node5</title>
<g id="a_Node000005"><a xlink:href="../../db/d3c/structcv_1_1cudev_1_1PtrTraitsBase.html#abaa5f1be07d953c5035bdbf9c9d8231f" target="_top" xlink:title=" ">
<polygon fill="white" stroke="#666666" points="466.5,-78 296.5,-78 296.5,-48 466.5,-48 466.5,-78"/>
<text text-anchor="start" x="304.5" y="-66" font-family="Helvetica,sans-Serif" font-size="10.00">cv::cudev::PtrTraitsBase</text>
<text text-anchor="middle" x="381.5" y="-55" font-family="Helvetica,sans-Serif" font-size="10.00">&lt; Ptr2DSz, Ptr2DSz &gt;::getRows</text>
</a>
</g>
</g>
<!-- Node4&#45;&gt;Node5 -->
<g id="edge4_Node000004_Node000005" class="edge">
<title>Node4&#45;&gt;Node5</title>
<g id="a_edge4_Node000004_Node000005"><a xlink:title=" ">
<path fill="none" stroke="#63b8ff" d="M259.91,-63C268.3,-63 277.15,-63 286.11,-63"/>
<polygon fill="#63b8ff" stroke="#63b8ff" points="286.24,-66.5 296.24,-63 286.24,-59.5 286.24,-66.5"/>
</a>
</g>
</g>
<!-- Node7 -->
<g id="Node000007" class="node">
<title>Node7</title>
<g id="a_Node000007"><a xlink:href="../../db/d3c/structcv_1_1cudev_1_1PtrTraitsBase.html#a17d5c5dba728eeaa99bbc55f697245d4" target="_top" xlink:title=" ">
<polygon fill="white" stroke="#666666" points="467,-30 296,-30 296,0 467,0 467,-30"/>
<text text-anchor="start" x="304" y="-18" font-family="Helvetica,sans-Serif" font-size="10.00">cv::cudev::PtrTraitsBase</text>
<text text-anchor="middle" x="381.5" y="-7" font-family="Helvetica,sans-Serif" font-size="10.00">&lt; Ptr2DSz, Ptr2DSz &gt;::shrinkPtr</text>
</a>
</g>
</g>
<!-- Node6&#45;&gt;Node7 -->
<g id="edge6_Node000006_Node000007" class="edge">
<title>Node6&#45;&gt;Node7</title>
<g id="a_edge6_Node000006_Node000007"><a xlink:title=" ">
<path fill="none" stroke="#63b8ff" d="M260.39,-19.12C268.53,-18.84 277.11,-18.54 285.79,-18.25"/>
<polygon fill="#63b8ff" stroke="#63b8ff" points="286.12,-21.74 296,-17.9 285.88,-14.74 286.12,-21.74"/>
</a>
</g>
</g>
</g>
</svg>
