<?xml version="1.0" encoding="UTF-8" standalone="no"?>
<!DOCTYPE svg PUBLIC "-//W3C//DTD SVG 1.1//EN"
 "http://www.w3.org/Graphics/SVG/1.1/DTD/svg11.dtd">
<!-- Generated by graphviz version 2.43.0 (0)
 -->
<!-- Title: cv::cudev::gridTranspose_ Pages: 1 -->
<svg width="532pt" height="169pt"
 viewBox="0.00 0.00 532.00 169.00" xmlns="http://www.w3.org/2000/svg" xmlns:xlink="http://www.w3.org/1999/xlink">
<g id="graph0" class="graph" transform="scale(1 1) rotate(0) translate(4 165)">
<title>cv::cudev::gridTranspose_</title>
<!-- Node1 -->
<g id="Node000001" class="node">
<title>Node1</title>
<g id="a_Node000001"><a xlink:title=" ">
<polygon fill="#999999" stroke="#666666" points="140,-88.5 0,-88.5 0,-69.5 140,-69.5 140,-88.5"/>
<text text-anchor="middle" x="70" y="-76.5" font-family="Helvetica,sans-Serif" font-size="10.00">cv::cudev::gridTranspose_</text>
</a>
</g>
</g>
<!-- Node2 -->
<g id="Node000002" class="node">
<title>Node2</title>
<g id="a_Node000002"><a xlink:href="../../df/dfc/group__cudev.html#gad6dab113b0778bcf03f9d0ebfe78ad10" target="_top" xlink:title=" ">
<polygon fill="white" stroke="#666666" points="298.5,-152.5 194.5,-152.5 194.5,-133.5 298.5,-133.5 298.5,-152.5"/>
<text text-anchor="middle" x="246.5" y="-140.5" font-family="Helvetica,sans-Serif" font-size="10.00">cv::cudev::getCols</text>
</a>
</g>
</g>
<!-- Node1&#45;&gt;Node2 -->
<g id="edge1_Node000001_Node000002" class="edge">
<title>Node1&#45;&gt;Node2</title>
<g id="a_edge1_Node000001_Node000002"><a xlink:title=" ">
<path fill="none" stroke="#63b8ff" d="M94.64,-88.64C115.83,-97.19 147.83,-109.85 176,-120 185.68,-123.49 196.2,-127.07 206.05,-130.34"/>
<polygon fill="#63b8ff" stroke="#63b8ff" points="205.03,-133.69 215.62,-133.49 207.21,-127.04 205.03,-133.69"/>
</a>
</g>
</g>
<!-- Node4 -->
<g id="Node000004" class="node">
<title>Node4</title>
<g id="a_Node000004"><a xlink:href="../../df/dfc/group__cudev.html#gad690da4acd9ac0de7ab244ee1c5394b4" target="_top" xlink:title=" ">
<polygon fill="white" stroke="#666666" points="301.5,-110.5 191.5,-110.5 191.5,-91.5 301.5,-91.5 301.5,-110.5"/>
<text text-anchor="middle" x="246.5" y="-98.5" font-family="Helvetica,sans-Serif" font-size="10.00">cv::cudev::getRows</text>
</a>
</g>
</g>
<!-- Node1&#45;&gt;Node4 -->
<g id="edge3_Node000001_Node000004" class="edge">
<title>Node1&#45;&gt;Node4</title>
<g id="a_edge3_Node000001_Node000004"><a xlink:title=" ">
<path fill="none" stroke="#63b8ff" d="M140.22,-87.73C153.79,-89.44 167.97,-91.23 181.37,-92.91"/>
<polygon fill="#63b8ff" stroke="#63b8ff" points="181.08,-96.41 191.44,-94.18 181.96,-89.46 181.08,-96.41"/>
</a>
</g>
</g>
<!-- Node6 -->
<g id="Node000006" class="node">
<title>Node6</title>
<g id="a_Node000006"><a xlink:href="../../d6/df1/structcv_1_1cuda_1_1StreamAccessor.html#a5830d99635f08b462a429771bfad71a9" target="_top" xlink:title=" ">
<polygon fill="white" stroke="#666666" points="317,-73 176,-73 176,-43 317,-43 317,-73"/>
<text text-anchor="start" x="184" y="-61" font-family="Helvetica,sans-Serif" font-size="10.00">cv::cuda::StreamAccessor</text>
<text text-anchor="middle" x="246.5" y="-50" font-family="Helvetica,sans-Serif" font-size="10.00">::getStream</text>
</a>
</g>
</g>
<!-- Node1&#45;&gt;Node6 -->
<g id="edge5_Node000001_Node000006" class="edge">
<title>Node1&#45;&gt;Node6</title>
<g id="a_edge5_Node000001_Node000006"><a xlink:title=" ">
<path fill="none" stroke="#63b8ff" d="M140.22,-70.67C148.63,-69.66 157.28,-68.62 165.82,-67.59"/>
<polygon fill="#63b8ff" stroke="#63b8ff" points="166.28,-71.06 175.79,-66.39 165.45,-64.11 166.28,-71.06"/>
</a>
</g>
</g>
<!-- Node7 -->
<g id="Node000007" class="node">
<title>Node7</title>
<g id="a_Node000007"><a xlink:href="../../df/dfc/group__cudev.html#gaa3dcb9b45488dc7770dd40609724b531" target="_top" xlink:title=" ">
<polygon fill="white" stroke="#666666" points="302,-24.5 191,-24.5 191,-5.5 302,-5.5 302,-24.5"/>
<text text-anchor="middle" x="246.5" y="-12.5" font-family="Helvetica,sans-Serif" font-size="10.00">cv::cudev::shrinkPtr</text>
</a>
</g>
</g>
<!-- Node1&#45;&gt;Node7 -->
<g id="edge6_Node000001_Node000007" class="edge">
<title>Node1&#45;&gt;Node7</title>
<g id="a_edge6_Node000001_Node000007"><a xlink:title=" ">
<path fill="none" stroke="#63b8ff" d="M91.19,-69.36C112.1,-59.61 145.85,-44.52 176,-34 182.82,-31.62 190.1,-29.35 197.29,-27.25"/>
<polygon fill="#63b8ff" stroke="#63b8ff" points="198.3,-30.6 206.97,-24.52 196.4,-23.87 198.3,-30.6"/>
</a>
</g>
</g>
<!-- Node3 -->
<g id="Node000003" class="node">
<title>Node3</title>
<g id="a_Node000003"><a xlink:href="../../db/d3c/structcv_1_1cudev_1_1PtrTraitsBase.html#a8d71e329800db50f164dd41cc6699f2a" target="_top" xlink:title=" ">
<polygon fill="white" stroke="#666666" points="520.5,-161 356.5,-161 356.5,-131 520.5,-131 520.5,-161"/>
<text text-anchor="start" x="364.5" y="-149" font-family="Helvetica,sans-Serif" font-size="10.00">cv::cudev::PtrTraitsBase</text>
<text text-anchor="middle" x="438.5" y="-138" font-family="Helvetica,sans-Serif" font-size="10.00">&lt; Ptr2DSz, Ptr2DSz &gt;::getCols</text>
</a>
</g>
</g>
<!-- Node2&#45;&gt;Node3 -->
<g id="edge2_Node000002_Node000003" class="edge">
<title>Node2&#45;&gt;Node3</title>
<g id="a_edge2_Node000002_Node000003"><a xlink:title=" ">
<path fill="none" stroke="#63b8ff" d="M298.67,-143.81C313.32,-144.04 329.76,-144.3 346.05,-144.56"/>
<polygon fill="#63b8ff" stroke="#63b8ff" points="346.11,-148.06 356.17,-144.72 346.22,-141.06 346.11,-148.06"/>
</a>
</g>
</g>
<!-- Node5 -->
<g id="Node000005" class="node">
<title>Node5</title>
<g id="a_Node000005"><a xlink:href="../../db/d3c/structcv_1_1cudev_1_1PtrTraitsBase.html#abaa5f1be07d953c5035bdbf9c9d8231f" target="_top" xlink:title=" ">
<polygon fill="white" stroke="#666666" points="523.5,-113 353.5,-113 353.5,-83 523.5,-83 523.5,-113"/>
<text text-anchor="start" x="361.5" y="-101" font-family="Helvetica,sans-Serif" font-size="10.00">cv::cudev::PtrTraitsBase</text>
<text text-anchor="middle" x="438.5" y="-90" font-family="Helvetica,sans-Serif" font-size="10.00">&lt; Ptr2DSz, Ptr2DSz &gt;::getRows</text>
</a>
</g>
</g>
<!-- Node4&#45;&gt;Node5 -->
<g id="edge4_Node000004_Node000005" class="edge">
<title>Node4&#45;&gt;Node5</title>
<g id="a_edge4_Node000004_Node000005"><a xlink:title=" ">
<path fill="none" stroke="#63b8ff" d="M301.69,-100.14C314.67,-99.94 328.9,-99.71 343.11,-99.49"/>
<polygon fill="#63b8ff" stroke="#63b8ff" points="343.49,-102.98 353.43,-99.33 343.38,-95.99 343.49,-102.98"/>
</a>
</g>
</g>
<!-- Node8 -->
<g id="Node000008" class="node">
<title>Node8</title>
<g id="a_Node000008"><a xlink:href="../../db/d3c/structcv_1_1cudev_1_1PtrTraitsBase.html#a17d5c5dba728eeaa99bbc55f697245d4" target="_top" xlink:title=" ">
<polygon fill="white" stroke="#666666" points="524,-30 353,-30 353,0 524,0 524,-30"/>
<text text-anchor="start" x="361" y="-18" font-family="Helvetica,sans-Serif" font-size="10.00">cv::cudev::PtrTraitsBase</text>
<text text-anchor="middle" x="438.5" y="-7" font-family="Helvetica,sans-Serif" font-size="10.00">&lt; Ptr2DSz, Ptr2DSz &gt;::shrinkPtr</text>
</a>
</g>
</g>
<!-- Node7&#45;&gt;Node8 -->
<g id="edge7_Node000007_Node000008" class="edge">
<title>Node7&#45;&gt;Node8</title>
<g id="a_edge7_Node000007_Node000008"><a xlink:title=" ">
<path fill="none" stroke="#63b8ff" d="M302.2,-15C314.9,-15 328.79,-15 342.67,-15"/>
<polygon fill="#63b8ff" stroke="#63b8ff" points="342.75,-18.5 352.75,-15 342.75,-11.5 342.75,-18.5"/>
</a>
</g>
</g>
</g>
</svg>
