<?xml version="1.0" encoding="UTF-8" standalone="no"?>
<!DOCTYPE svg PUBLIC "-//W3C//DTD SVG 1.1//EN"
 "http://www.w3.org/Graphics/SVG/1.1/DTD/svg11.dtd">
<!-- Generated by graphviz version 2.43.0 (0)
 -->
<!-- Title: cv::cudev::threshTrunc_ Pages: 1 -->
<svg width="682pt" height="155pt"
 viewBox="0.00 0.00 682.00 154.50" xmlns="http://www.w3.org/2000/svg" xmlns:xlink="http://www.w3.org/1999/xlink">
<g id="graph0" class="graph" transform="scale(1 1) rotate(0) translate(4 150.5)">
<title>cv::cudev::threshTrunc_</title>
<!-- Node1 -->
<g id="Node000001" class="node">
<title>Node1</title>
<g id="a_Node000001"><a xlink:title=" ">
<polygon fill="#999999" stroke="#666666" points="129,-109.5 0,-109.5 0,-90.5 129,-90.5 129,-109.5"/>
<text text-anchor="middle" x="64.5" y="-97.5" font-family="Helvetica,sans-Serif" font-size="10.00">cv::cudev::threshTrunc_</text>
</a>
</g>
</g>
<!-- Node2 -->
<g id="Node000002" class="node">
<title>Node2</title>
<g id="a_Node000002"><a xlink:href="../../df/dfc/group__cudev.html#ga1dbd29079f84cb97dbcbd1f32ba0ac9b" target="_top" xlink:title=" ">
<polygon fill="white" stroke="#666666" points="300.5,-146.5 184.5,-146.5 184.5,-127.5 300.5,-127.5 300.5,-146.5"/>
<text text-anchor="middle" x="242.5" y="-134.5" font-family="Helvetica,sans-Serif" font-size="10.00">cv::cudev::makeExpr</text>
</a>
</g>
</g>
<!-- Node1&#45;&gt;Node2 -->
<g id="edge1_Node000001_Node000002" class="edge">
<title>Node1&#45;&gt;Node2</title>
<g id="a_edge1_Node000001_Node000002"><a xlink:title=" ">
<path fill="none" stroke="#63b8ff" d="M110.82,-109.53C133.83,-114.36 161.97,-120.28 186.24,-125.38"/>
<polygon fill="#63b8ff" stroke="#63b8ff" points="185.52,-128.81 196.02,-127.44 186.96,-121.96 185.52,-128.81"/>
</a>
</g>
</g>
<!-- Node3 -->
<g id="Node000003" class="node">
<title>Node3</title>
<g id="a_Node000003"><a xlink:href="../../df/dfc/group__cudev.html#gaaabd6bcc02f8be156b4de4fa9ec959b6" target="_top" xlink:title=" ">
<polygon fill="white" stroke="#666666" points="320,-109.5 165,-109.5 165,-90.5 320,-90.5 320,-109.5"/>
<text text-anchor="middle" x="242.5" y="-97.5" font-family="Helvetica,sans-Serif" font-size="10.00">cv::cudev::thresh_trunc_func</text>
</a>
</g>
</g>
<!-- Node1&#45;&gt;Node3 -->
<g id="edge2_Node000001_Node000003" class="edge">
<title>Node1&#45;&gt;Node3</title>
<g id="a_edge2_Node000001_Node000003"><a xlink:title=" ">
<path fill="none" stroke="#63b8ff" d="M129.04,-100C137.39,-100 146.06,-100 154.72,-100"/>
<polygon fill="#63b8ff" stroke="#63b8ff" points="154.85,-103.5 164.85,-100 154.85,-96.5 154.85,-103.5"/>
</a>
</g>
</g>
<!-- Node4 -->
<g id="Node000004" class="node">
<title>Node4</title>
<g id="a_Node000004"><a xlink:href="../../df/dfc/group__cudev.html#ga52e729b1406c40d69981c3bb4e8b7270" target="_top" xlink:title=" ">
<polygon fill="white" stroke="#666666" points="307,-72.5 178,-72.5 178,-53.5 307,-53.5 307,-72.5"/>
<text text-anchor="middle" x="242.5" y="-60.5" font-family="Helvetica,sans-Serif" font-size="10.00">cv::cudev::transformPtr</text>
</a>
</g>
</g>
<!-- Node1&#45;&gt;Node4 -->
<g id="edge3_Node000001_Node000004" class="edge">
<title>Node1&#45;&gt;Node4</title>
<g id="a_edge3_Node000001_Node000004"><a xlink:title=" ">
<path fill="none" stroke="#63b8ff" d="M110.82,-90.47C133.83,-85.64 161.97,-79.72 186.24,-74.62"/>
<polygon fill="#63b8ff" stroke="#63b8ff" points="186.96,-78.04 196.02,-72.56 185.52,-71.19 186.96,-78.04"/>
</a>
</g>
</g>
<!-- Node5 -->
<g id="Node000005" class="node">
<title>Node5</title>
<g id="a_Node000005"><a xlink:href="../../df/dfc/group__cudev.html#gad6dab113b0778bcf03f9d0ebfe78ad10" target="_top" xlink:title=" ">
<polygon fill="white" stroke="#666666" points="463.5,-114.5 359.5,-114.5 359.5,-95.5 463.5,-95.5 463.5,-114.5"/>
<text text-anchor="middle" x="411.5" y="-102.5" font-family="Helvetica,sans-Serif" font-size="10.00">cv::cudev::getCols</text>
</a>
</g>
</g>
<!-- Node4&#45;&gt;Node5 -->
<g id="edge4_Node000004_Node000005" class="edge">
<title>Node4&#45;&gt;Node5</title>
<g id="a_edge4_Node000004_Node000005"><a xlink:title=" ">
<path fill="none" stroke="#63b8ff" d="M282.04,-72.53C294.19,-75.54 307.66,-78.9 320,-82 334.04,-85.53 349.3,-89.39 363.22,-92.93"/>
<polygon fill="#63b8ff" stroke="#63b8ff" points="362.53,-96.37 373.09,-95.44 364.26,-89.58 362.53,-96.37"/>
</a>
</g>
</g>
<!-- Node7 -->
<g id="Node000007" class="node">
<title>Node7</title>
<g id="a_Node000007"><a xlink:href="../../df/dfc/group__cudev.html#gad690da4acd9ac0de7ab244ee1c5394b4" target="_top" xlink:title=" ">
<polygon fill="white" stroke="#666666" points="466.5,-72.5 356.5,-72.5 356.5,-53.5 466.5,-53.5 466.5,-72.5"/>
<text text-anchor="middle" x="411.5" y="-60.5" font-family="Helvetica,sans-Serif" font-size="10.00">cv::cudev::getRows</text>
</a>
</g>
</g>
<!-- Node4&#45;&gt;Node7 -->
<g id="edge6_Node000004_Node000007" class="edge">
<title>Node4&#45;&gt;Node7</title>
<g id="a_edge6_Node000004_Node000007"><a xlink:title=" ">
<path fill="none" stroke="#63b8ff" d="M307.11,-63C319.91,-63 333.38,-63 346.2,-63"/>
<polygon fill="#63b8ff" stroke="#63b8ff" points="346.32,-66.5 356.32,-63 346.32,-59.5 346.32,-66.5"/>
</a>
</g>
</g>
<!-- Node9 -->
<g id="Node000009" class="node">
<title>Node9</title>
<g id="a_Node000009"><a xlink:href="../../df/dfc/group__cudev.html#gaa3dcb9b45488dc7770dd40609724b531" target="_top" xlink:title=" ">
<polygon fill="white" stroke="#666666" points="467,-30.5 356,-30.5 356,-11.5 467,-11.5 467,-30.5"/>
<text text-anchor="middle" x="411.5" y="-18.5" font-family="Helvetica,sans-Serif" font-size="10.00">cv::cudev::shrinkPtr</text>
</a>
</g>
</g>
<!-- Node4&#45;&gt;Node9 -->
<g id="edge8_Node000004_Node000009" class="edge">
<title>Node4&#45;&gt;Node9</title>
<g id="a_edge8_Node000004_Node000009"><a xlink:title=" ">
<path fill="none" stroke="#63b8ff" d="M281.39,-53.47C305.44,-47.42 336.76,-39.55 362.53,-33.06"/>
<polygon fill="#63b8ff" stroke="#63b8ff" points="363.62,-36.4 372.47,-30.57 361.91,-29.61 363.62,-36.4"/>
</a>
</g>
</g>
<!-- Node6 -->
<g id="Node000006" class="node">
<title>Node6</title>
<g id="a_Node000006"><a xlink:href="../../db/d3c/structcv_1_1cudev_1_1PtrTraitsBase.html#a8d71e329800db50f164dd41cc6699f2a" target="_top" xlink:title=" ">
<polygon fill="white" stroke="#666666" points="670.5,-126 506.5,-126 506.5,-96 670.5,-96 670.5,-126"/>
<text text-anchor="start" x="514.5" y="-114" font-family="Helvetica,sans-Serif" font-size="10.00">cv::cudev::PtrTraitsBase</text>
<text text-anchor="middle" x="588.5" y="-103" font-family="Helvetica,sans-Serif" font-size="10.00">&lt; Ptr2DSz, Ptr2DSz &gt;::getCols</text>
</a>
</g>
</g>
<!-- Node5&#45;&gt;Node6 -->
<g id="edge5_Node000005_Node000006" class="edge">
<title>Node5&#45;&gt;Node6</title>
<g id="a_edge5_Node000005_Node000006"><a xlink:title=" ">
<path fill="none" stroke="#63b8ff" d="M463.59,-106.75C473.86,-107.1 484.95,-107.48 496.12,-107.87"/>
<polygon fill="#63b8ff" stroke="#63b8ff" points="496.27,-111.37 506.38,-108.22 496.51,-104.38 496.27,-111.37"/>
</a>
</g>
</g>
<!-- Node8 -->
<g id="Node000008" class="node">
<title>Node8</title>
<g id="a_Node000008"><a xlink:href="../../db/d3c/structcv_1_1cudev_1_1PtrTraitsBase.html#abaa5f1be07d953c5035bdbf9c9d8231f" target="_top" xlink:title=" ">
<polygon fill="white" stroke="#666666" points="673.5,-78 503.5,-78 503.5,-48 673.5,-48 673.5,-78"/>
<text text-anchor="start" x="511.5" y="-66" font-family="Helvetica,sans-Serif" font-size="10.00">cv::cudev::PtrTraitsBase</text>
<text text-anchor="middle" x="588.5" y="-55" font-family="Helvetica,sans-Serif" font-size="10.00">&lt; Ptr2DSz, Ptr2DSz &gt;::getRows</text>
</a>
</g>
</g>
<!-- Node7&#45;&gt;Node8 -->
<g id="edge7_Node000007_Node000008" class="edge">
<title>Node7&#45;&gt;Node8</title>
<g id="a_edge7_Node000007_Node000008"><a xlink:title=" ">
<path fill="none" stroke="#63b8ff" d="M466.91,-63C475.3,-63 484.15,-63 493.11,-63"/>
<polygon fill="#63b8ff" stroke="#63b8ff" points="493.24,-66.5 503.24,-63 493.24,-59.5 493.24,-66.5"/>
</a>
</g>
</g>
<!-- Node10 -->
<g id="Node000010" class="node">
<title>Node10</title>
<g id="a_Node000010"><a xlink:href="../../db/d3c/structcv_1_1cudev_1_1PtrTraitsBase.html#a17d5c5dba728eeaa99bbc55f697245d4" target="_top" xlink:title=" ">
<polygon fill="white" stroke="#666666" points="674,-30 503,-30 503,0 674,0 674,-30"/>
<text text-anchor="start" x="511" y="-18" font-family="Helvetica,sans-Serif" font-size="10.00">cv::cudev::PtrTraitsBase</text>
<text text-anchor="middle" x="588.5" y="-7" font-family="Helvetica,sans-Serif" font-size="10.00">&lt; Ptr2DSz, Ptr2DSz &gt;::shrinkPtr</text>
</a>
</g>
</g>
<!-- Node9&#45;&gt;Node10 -->
<g id="edge9_Node000009_Node000010" class="edge">
<title>Node9&#45;&gt;Node10</title>
<g id="a_edge9_Node000009_Node000010"><a xlink:title=" ">
<path fill="none" stroke="#63b8ff" d="M467.39,-19.12C475.53,-18.84 484.11,-18.54 492.79,-18.25"/>
<polygon fill="#63b8ff" stroke="#63b8ff" points="493.12,-21.74 503,-17.9 492.88,-14.74 493.12,-21.74"/>
</a>
</g>
</g>
</g>
</svg>
