<?xml version="1.0" encoding="UTF-8" standalone="no"?>
<!DOCTYPE svg PUBLIC "-//W3C//DTD SVG 1.1//EN"
 "http://www.w3.org/Graphics/SVG/1.1/DTD/svg11.dtd">
<!-- Generated by graphviz version 2.43.0 (0)
 -->
<!-- Title: cv::cudev::vmax4 Pages: 1 -->
<svg width="538pt" height="46pt"
 viewBox="0.00 0.00 538.00 46.00" xmlns="http://www.w3.org/2000/svg" xmlns:xlink="http://www.w3.org/1999/xlink">
<g id="graph0" class="graph" transform="scale(1 1) rotate(0) translate(4 42)">
<title>cv::cudev::vmax4</title>
<!-- Node1 -->
<g id="Node000001" class="node">
<title>Node1</title>
<g id="a_Node000001"><a xlink:title=" ">
<polygon fill="#999999" stroke="#666666" points="101,-38 0,-38 0,-19 101,-19 101,-38"/>
<text text-anchor="middle" x="50.5" y="-26" font-family="Helvetica,sans-Serif" font-size="10.00">cv::cudev::vmax4</text>
</a>
</g>
</g>
<!-- Node2 -->
<g id="Node000002" class="node">
<title>Node2</title>
<g id="a_Node000002"><a xlink:href="../../df/dfc/group__cudev.html#ga07ed1834e5be35f07abcad584c884655" target="_top" xlink:title=" ">
<polygon fill="white" stroke="#666666" points="250,-38 137,-38 137,-19 250,-19 250,-38"/>
<text text-anchor="middle" x="193.5" y="-26" font-family="Helvetica,sans-Serif" font-size="10.00">cv::cudev::vcmpge4</text>
</a>
</g>
</g>
<!-- Node1&#45;&gt;Node2 -->
<g id="edge1_Node000001_Node000002" class="edge">
<title>Node1&#45;&gt;Node2</title>
<g id="a_edge1_Node000001_Node000002"><a xlink:title=" ">
<path fill="none" stroke="#63b8ff" d="M101.21,-28.5C109.53,-28.5 118.28,-28.5 126.92,-28.5"/>
<polygon fill="#63b8ff" stroke="#63b8ff" points="126.99,-32 136.99,-28.5 126.99,-25 126.99,-32"/>
</a>
</g>
</g>
<!-- Node3 -->
<g id="Node000003" class="node">
<title>Node3</title>
<g id="a_Node000003"><a xlink:href="../../df/dfc/group__cudev.html#ga4db95f1f4957d445cf44f3b971696012" target="_top" xlink:title=" ">
<polygon fill="white" stroke="#666666" points="530,-38 429,-38 429,-19 530,-19 530,-38"/>
<text text-anchor="middle" x="479.5" y="-26" font-family="Helvetica,sans-Serif" font-size="10.00">cv::cudev::vavrg4</text>
</a>
</g>
</g>
<!-- Node2&#45;&gt;Node3 -->
<g id="edge2_Node000002_Node000003" class="edge">
<title>Node2&#45;&gt;Node3</title>
<g id="a_edge2_Node000002_Node000003"><a xlink:title=" ">
<path fill="none" stroke="#63b8ff" d="M250.27,-28.5C298.68,-28.5 368.61,-28.5 418.28,-28.5"/>
<polygon fill="#63b8ff" stroke="#63b8ff" points="418.56,-32 428.56,-28.5 418.56,-25 418.56,-32"/>
</a>
</g>
</g>
<!-- Node4 -->
<g id="Node000004" class="node">
<title>Node4</title>
<g id="a_Node000004"><a xlink:href="../../df/dfc/group__cudev.html#ga59bddb10bcef75d257c5ebe2e7b04b7d" target="_top" xlink:title=" ">
<polygon fill="white" stroke="#666666" points="393,-19 286,-19 286,0 393,0 393,-19"/>
<text text-anchor="middle" x="339.5" y="-7" font-family="Helvetica,sans-Serif" font-size="10.00">cv::cudev::vsetge4</text>
</a>
</g>
</g>
<!-- Node2&#45;&gt;Node4 -->
<g id="edge3_Node000002_Node000004" class="edge">
<title>Node2&#45;&gt;Node4</title>
<g id="a_edge3_Node000002_Node000004"><a xlink:title=" ">
<path fill="none" stroke="#63b8ff" d="M250.17,-21.15C258.59,-20.04 267.33,-18.89 275.88,-17.76"/>
<polygon fill="#63b8ff" stroke="#63b8ff" points="276.35,-21.23 285.81,-16.45 275.44,-14.29 276.35,-21.23"/>
</a>
</g>
</g>
<!-- Node4&#45;&gt;Node3 -->
<g id="edge4_Node000004_Node000003" class="edge">
<title>Node4&#45;&gt;Node3</title>
<g id="a_edge4_Node000004_Node000003"><a xlink:title=" ">
<path fill="none" stroke="#63b8ff" d="M393.07,-16.74C401.5,-17.9 410.28,-19.11 418.86,-20.29"/>
<polygon fill="#63b8ff" stroke="#63b8ff" points="418.42,-23.76 428.81,-21.66 419.38,-16.83 418.42,-23.76"/>
</a>
</g>
</g>
</g>
</svg>
