<?xml version="1.0" encoding="UTF-8" standalone="no"?>
<!DOCTYPE svg PUBLIC "-//W3C//DTD SVG 1.1//EN"
 "http://www.w3.org/Graphics/SVG/1.1/DTD/svg11.dtd">
<!-- Generated by graphviz version 2.43.0 (0)
 -->
<!-- Title: cv::cudev::vmin4 Pages: 1 -->
<svg width="535pt" height="46pt"
 viewBox="0.00 0.00 535.00 46.00" xmlns="http://www.w3.org/2000/svg" xmlns:xlink="http://www.w3.org/1999/xlink">
<g id="graph0" class="graph" transform="scale(1 1) rotate(0) translate(4 42)">
<title>cv::cudev::vmin4</title>
<!-- Node1 -->
<g id="Node000001" class="node">
<title>Node1</title>
<g id="a_Node000001"><a xlink:title=" ">
<polygon fill="#999999" stroke="#666666" points="98,-38 0,-38 0,-19 98,-19 98,-38"/>
<text text-anchor="middle" x="49" y="-26" font-family="Helvetica,sans-Serif" font-size="10.00">cv::cudev::vmin4</text>
</a>
</g>
</g>
<!-- Node2 -->
<g id="Node000002" class="node">
<title>Node2</title>
<g id="a_Node000002"><a xlink:href="../../df/dfc/group__cudev.html#ga07ed1834e5be35f07abcad584c884655" target="_top" xlink:title=" ">
<polygon fill="white" stroke="#666666" points="247,-38 134,-38 134,-19 247,-19 247,-38"/>
<text text-anchor="middle" x="190.5" y="-26" font-family="Helvetica,sans-Serif" font-size="10.00">cv::cudev::vcmpge4</text>
</a>
</g>
</g>
<!-- Node1&#45;&gt;Node2 -->
<g id="edge1_Node000001_Node000002" class="edge">
<title>Node1&#45;&gt;Node2</title>
<g id="a_edge1_Node000001_Node000002"><a xlink:title=" ">
<path fill="none" stroke="#63b8ff" d="M98.01,-28.5C106.28,-28.5 115,-28.5 123.65,-28.5"/>
<polygon fill="#63b8ff" stroke="#63b8ff" points="123.72,-32 133.72,-28.5 123.72,-25 123.72,-32"/>
</a>
</g>
</g>
<!-- Node3 -->
<g id="Node000003" class="node">
<title>Node3</title>
<g id="a_Node000003"><a xlink:href="../../df/dfc/group__cudev.html#ga4db95f1f4957d445cf44f3b971696012" target="_top" xlink:title=" ">
<polygon fill="white" stroke="#666666" points="527,-38 426,-38 426,-19 527,-19 527,-38"/>
<text text-anchor="middle" x="476.5" y="-26" font-family="Helvetica,sans-Serif" font-size="10.00">cv::cudev::vavrg4</text>
</a>
</g>
</g>
<!-- Node2&#45;&gt;Node3 -->
<g id="edge2_Node000002_Node000003" class="edge">
<title>Node2&#45;&gt;Node3</title>
<g id="a_edge2_Node000002_Node000003"><a xlink:title=" ">
<path fill="none" stroke="#63b8ff" d="M247.27,-28.5C295.68,-28.5 365.61,-28.5 415.28,-28.5"/>
<polygon fill="#63b8ff" stroke="#63b8ff" points="415.56,-32 425.56,-28.5 415.56,-25 415.56,-32"/>
</a>
</g>
</g>
<!-- Node4 -->
<g id="Node000004" class="node">
<title>Node4</title>
<g id="a_Node000004"><a xlink:href="../../df/dfc/group__cudev.html#ga59bddb10bcef75d257c5ebe2e7b04b7d" target="_top" xlink:title=" ">
<polygon fill="white" stroke="#666666" points="390,-19 283,-19 283,0 390,0 390,-19"/>
<text text-anchor="middle" x="336.5" y="-7" font-family="Helvetica,sans-Serif" font-size="10.00">cv::cudev::vsetge4</text>
</a>
</g>
</g>
<!-- Node2&#45;&gt;Node4 -->
<g id="edge3_Node000002_Node000004" class="edge">
<title>Node2&#45;&gt;Node4</title>
<g id="a_edge3_Node000002_Node000004"><a xlink:title=" ">
<path fill="none" stroke="#63b8ff" d="M247.17,-21.15C255.59,-20.04 264.33,-18.89 272.88,-17.76"/>
<polygon fill="#63b8ff" stroke="#63b8ff" points="273.35,-21.23 282.81,-16.45 272.44,-14.29 273.35,-21.23"/>
</a>
</g>
</g>
<!-- Node4&#45;&gt;Node3 -->
<g id="edge4_Node000004_Node000003" class="edge">
<title>Node4&#45;&gt;Node3</title>
<g id="a_edge4_Node000004_Node000003"><a xlink:title=" ">
<path fill="none" stroke="#63b8ff" d="M390.07,-16.74C398.5,-17.9 407.28,-19.11 415.86,-20.29"/>
<polygon fill="#63b8ff" stroke="#63b8ff" points="415.42,-23.76 425.81,-21.66 416.38,-16.83 415.42,-23.76"/>
</a>
</g>
</g>
</g>
</svg>
