<?xml version="1.0" encoding="UTF-8" standalone="no"?>
<!DOCTYPE svg PUBLIC "-//W3C//DTD SVG 1.1//EN"
 "http://www.w3.org/Graphics/SVG/1.1/DTD/svg11.dtd">
<!-- Generated by graphviz version 2.43.0 (0)
 -->
<!-- Title: cv::datasets::Dataset Pages: 1 -->
<svg width="317pt" height="490pt"
 viewBox="0.00 0.00 317.00 490.00" xmlns="http://www.w3.org/2000/svg" xmlns:xlink="http://www.w3.org/1999/xlink">
<g id="graph0" class="graph" transform="scale(1 1) rotate(0) translate(4 486)">
<title>cv::datasets::Dataset</title>
<!-- Node1 -->
<g id="Node000001" class="node">
<title>Node1</title>
<g id="a_Node000001"><a xlink:title=" ">
<polygon fill="#999999" stroke="transparent" points="164.5,-139 51.5,-139 51.5,0 164.5,0 164.5,-139"/>
<text text-anchor="start" x="57" y="-126.5" font-family="Helvetica,sans-Serif" font-size="10.00">cv::datasets::Dataset</text>
<text text-anchor="start" x="106.5" y="-111.5" font-family="Helvetica,sans-Serif" font-size="10.00"> </text>
<text text-anchor="start" x="60.5" y="-96.5" font-family="Helvetica,sans-Serif" font-size="10.00">+</text>
<text text-anchor="start" x="78" y="-96.5" font-family="Helvetica,sans-Serif" font-size="10.00">Dataset()</text>
<text text-anchor="start" x="60.5" y="-81.5" font-family="Helvetica,sans-Serif" font-size="10.00">+</text>
<text text-anchor="start" x="78" y="-81.5" font-family="Helvetica,sans-Serif" font-size="10.00">~Dataset()</text>
<text text-anchor="start" x="60.5" y="-66.5" font-family="Helvetica,sans-Serif" font-size="10.00">+</text>
<text text-anchor="start" x="78" y="-66.5" font-family="Helvetica,sans-Serif" font-size="10.00">getNumSplits()</text>
<text text-anchor="start" x="60.5" y="-51.5" font-family="Helvetica,sans-Serif" font-size="10.00">+</text>
<text text-anchor="start" x="78" y="-51.5" font-family="Helvetica,sans-Serif" font-size="10.00">getTest()</text>
<text text-anchor="start" x="60.5" y="-36.5" font-family="Helvetica,sans-Serif" font-size="10.00">+</text>
<text text-anchor="start" x="78" y="-36.5" font-family="Helvetica,sans-Serif" font-size="10.00">getTrain()</text>
<text text-anchor="start" x="60.5" y="-21.5" font-family="Helvetica,sans-Serif" font-size="10.00">+</text>
<text text-anchor="start" x="78" y="-21.5" font-family="Helvetica,sans-Serif" font-size="10.00">getValidation()</text>
<text text-anchor="start" x="60.5" y="-6.5" font-family="Helvetica,sans-Serif" font-size="10.00">+</text>
<text text-anchor="start" x="78" y="-6.5" font-family="Helvetica,sans-Serif" font-size="10.00">load()</text>
<polygon fill="#666666" stroke="#666666" points="52,-121.5 52,-121.5 165,-121.5 165,-121.5 52,-121.5"/>
<polygon fill="#666666" stroke="#666666" points="52,-106.5 52,-106.5 165,-106.5 165,-106.5 52,-106.5"/>
<polygon fill="none" stroke="#666666" points="51.5,0 51.5,-139 164.5,-139 164.5,0 51.5,0"/>
</a>
</g>
</g>
<!-- Node2 -->
<g id="Node000002" class="node">
<title>Node2</title>
<g id="a_Node000002"><a xlink:title=" ">
<polygon fill="white" stroke="transparent" points="196,-268 20,-268 20,-208 196,-208 196,-268"/>
<text text-anchor="start" x="25" y="-256" font-family="Helvetica,sans-Serif" font-size="10.00">std::vector&lt; std::vector</text>
<text text-anchor="start" x="25" y="-245" font-family="Helvetica,sans-Serif" font-size="10.00">&lt; Ptr&lt; cv::datasets::Object &gt; &gt; &gt;</text>
<text text-anchor="start" x="106" y="-230" font-family="Helvetica,sans-Serif" font-size="10.00"> </text>
<text text-anchor="start" x="106" y="-215" font-family="Helvetica,sans-Serif" font-size="10.00"> </text>
<polygon fill="#666666" stroke="#666666" points="20,-240 20,-240 196,-240 196,-240 20,-240"/>
<polygon fill="#666666" stroke="#666666" points="20,-225 20,-225 196,-225 196,-225 20,-225"/>
<polygon fill="none" stroke="#666666" points="20,-208 20,-268 196,-268 196,-208 20,-208"/>
</a>
</g>
</g>
<!-- Node2&#45;&gt;Node1 -->
<g id="edge1_Node000001_Node000002" class="edge">
<title>Node2&#45;&gt;Node1</title>
<g id="a_edge1_Node000001_Node000002"><a xlink:title=" ">
<path fill="none" stroke="#63b8ff" d="M108,-208C108,-192.18 108,-171.74 108,-151.48"/>
<polygon fill="none" stroke="#63b8ff" points="108,-151.27 104,-145.27 108,-139.27 112,-145.27 108,-151.27"/>
</a>
</g>
<text text-anchor="middle" x="137" y="-182" font-family="Helvetica,sans-Serif" font-size="10.00" fill="grey"> #test</text>
<text text-anchor="middle" x="137" y="-171" font-family="Helvetica,sans-Serif" font-size="10.00" fill="grey">#train</text>
<text text-anchor="middle" x="137" y="-160" font-family="Helvetica,sans-Serif" font-size="10.00" fill="grey">#validation</text>
</g>
<!-- Node3 -->
<g id="Node000003" class="node">
<title>Node3</title>
<g id="a_Node000003"><a xlink:title=" ">
<polygon fill="white" stroke="transparent" points="136,-386 0,-386 0,-326 136,-326 136,-386"/>
<text text-anchor="start" x="5" y="-374" font-family="Helvetica,sans-Serif" font-size="10.00">vector&lt; Ptr&lt; cv::datasets</text>
<text text-anchor="start" x="37.5" y="-363" font-family="Helvetica,sans-Serif" font-size="10.00">::Object &gt; &gt;</text>
<text text-anchor="start" x="66" y="-348" font-family="Helvetica,sans-Serif" font-size="10.00"> </text>
<text text-anchor="start" x="66" y="-333" font-family="Helvetica,sans-Serif" font-size="10.00"> </text>
<polygon fill="#666666" stroke="#666666" points="0,-358 0,-358 136,-358 136,-358 0,-358"/>
<polygon fill="#666666" stroke="#666666" points="0,-343 0,-343 136,-343 136,-343 0,-343"/>
<polygon fill="none" stroke="#666666" points="0,-326 0,-386 136,-386 136,-326 0,-326"/>
</a>
</g>
</g>
<!-- Node3&#45;&gt;Node2 -->
<g id="edge2_Node000002_Node000003" class="edge">
<title>Node3&#45;&gt;Node2</title>
<g id="a_edge2_Node000002_Node000003"><a xlink:title=" ">
<path fill="none" stroke="#63b8ff" d="M78.09,-325.73C82.88,-311.85 88.67,-295.04 93.89,-279.93"/>
<polygon fill="none" stroke="#63b8ff" points="94,-279.61 92.17,-272.63 97.91,-268.26 99.74,-275.24 94,-279.61"/>
</a>
</g>
<text text-anchor="middle" x="121" y="-294.5" font-family="Helvetica,sans-Serif" font-size="10.00" fill="grey"> +elements</text>
</g>
<!-- Node4 -->
<g id="Node000004" class="node">
<title>Node4</title>
<g id="a_Node000004"><a xlink:title=" ">
<polygon fill="white" stroke="transparent" points="245.5,-380.5 154.5,-380.5 154.5,-331.5 245.5,-331.5 245.5,-380.5"/>
<text text-anchor="start" x="160" y="-368" font-family="Helvetica,sans-Serif" font-size="10.00">std::vector&lt; T &gt;</text>
<text text-anchor="start" x="198.5" y="-353" font-family="Helvetica,sans-Serif" font-size="10.00"> </text>
<text text-anchor="start" x="198.5" y="-338" font-family="Helvetica,sans-Serif" font-size="10.00"> </text>
<polygon fill="#666666" stroke="#666666" points="155,-363 155,-363 246,-363 246,-363 155,-363"/>
<polygon fill="#666666" stroke="#666666" points="155,-348 155,-348 246,-348 246,-348 155,-348"/>
<polygon fill="none" stroke="#666666" points="154.5,-331.5 154.5,-380.5 245.5,-380.5 245.5,-331.5 154.5,-331.5"/>
</a>
</g>
</g>
<!-- Node4&#45;&gt;Node2 -->
<g id="edge3_Node000002_Node000004" class="edge">
<title>Node4&#45;&gt;Node2</title>
<g id="a_edge3_Node000002_Node000004"><a xlink:title=" ">
<path fill="none" stroke="orange" d="M179.19,-323.04C171.07,-311.14 161.45,-297.69 152,-286 147.22,-280.09 141.87,-274 136.6,-268.25"/>
<polygon fill="orange" stroke="orange" points="176.32,-325.05 184.81,-331.39 182.13,-321.14 176.32,-325.05"/>
</a>
</g>
<text text-anchor="start" x="167" y="-300" font-family="Helvetica,sans-Serif" font-size="10.00" fill="grey"> &lt; std::vector&lt; Ptr</text>
<text text-anchor="middle" x="238" y="-289" font-family="Helvetica,sans-Serif" font-size="10.00" fill="grey">&lt; cv::datasets::Object &gt; &gt; &gt;</text>
</g>
<!-- Node5 -->
<g id="Node000005" class="node">
<title>Node5</title>
<g id="a_Node000005"><a xlink:title=" ">
<polygon fill="white" stroke="transparent" points="208.5,-482 191.5,-482 191.5,-433 208.5,-433 208.5,-482"/>
<text text-anchor="start" x="197" y="-469.5" font-family="Helvetica,sans-Serif" font-size="10.00">T</text>
<text text-anchor="start" x="198.5" y="-454.5" font-family="Helvetica,sans-Serif" font-size="10.00"> </text>
<text text-anchor="start" x="198.5" y="-439.5" font-family="Helvetica,sans-Serif" font-size="10.00"> </text>
<polygon fill="#666666" stroke="#666666" points="192,-464.5 192,-464.5 209,-464.5 209,-464.5 192,-464.5"/>
<polygon fill="#666666" stroke="#666666" points="192,-449.5 192,-449.5 209,-449.5 209,-449.5 192,-449.5"/>
<polygon fill="none" stroke="#666666" points="191.5,-433 191.5,-482 208.5,-482 208.5,-433 191.5,-433"/>
</a>
</g>
</g>
<!-- Node5&#45;&gt;Node4 -->
<g id="edge4_Node000004_Node000005" class="edge">
<title>Node5&#45;&gt;Node4</title>
<g id="a_edge4_Node000004_Node000005"><a xlink:title=" ">
<path fill="none" stroke="#63b8ff" d="M200,-432.92C200,-420.99 200,-406.25 200,-392.94"/>
<polygon fill="none" stroke="#63b8ff" points="200,-392.76 196,-386.76 200,-380.76 204,-386.76 200,-392.76"/>
</a>
</g>
<text text-anchor="middle" x="229" y="-407" font-family="Helvetica,sans-Serif" font-size="10.00" fill="grey"> +elements</text>
</g>
</g>
</svg>
