<?xml version="1.0" encoding="UTF-8" standalone="no"?>
<!DOCTYPE svg PUBLIC "-//W3C//DTD SVG 1.1//EN"
 "http://www.w3.org/Graphics/SVG/1.1/DTD/svg11.dtd">
<!-- Generated by graphviz version 2.43.0 (0)
 -->
<!-- Title: cv::wechat_qrcode::WeChatQRCode Pages: 1 -->
<svg width="123pt" height="224pt"
 viewBox="0.00 0.00 123.00 224.00" xmlns="http://www.w3.org/2000/svg" xmlns:xlink="http://www.w3.org/1999/xlink">
<g id="graph0" class="graph" transform="scale(1 1) rotate(0) translate(4 220)">
<title>cv::wechat_qrcode::WeChatQRCode</title>
<!-- Node1 -->
<g id="Node000001" class="node">
<title>Node1</title>
<g id="a_Node000001"><a xlink:title="WeChat QRCode includes two CNN&#45;based models: A object detection model and a super resolution model....">
<polygon fill="#999999" stroke="transparent" points="115,-120 0,-120 0,0 115,0 115,-120"/>
<text text-anchor="start" x="9.5" y="-108" font-family="Helvetica,sans-Serif" font-size="10.00">cv::wechat_qrcode::</text>
<text text-anchor="start" x="19.5" y="-97" font-family="Helvetica,sans-Serif" font-size="10.00">WeChatQRCode</text>
<text text-anchor="start" x="56" y="-82" font-family="Helvetica,sans-Serif" font-size="10.00"> </text>
<text text-anchor="start" x="4.5" y="-67" font-family="Helvetica,sans-Serif" font-size="10.00">+</text>
<text text-anchor="start" x="17.5" y="-67" font-family="Helvetica,sans-Serif" font-size="10.00">WeChatQRCode()</text>
<text text-anchor="start" x="4.5" y="-52" font-family="Helvetica,sans-Serif" font-size="10.00">+</text>
<text text-anchor="start" x="17.5" y="-52" font-family="Helvetica,sans-Serif" font-size="10.00">~WeChatQRCode()</text>
<text text-anchor="start" x="4.5" y="-37" font-family="Helvetica,sans-Serif" font-size="10.00">+</text>
<text text-anchor="start" x="17.5" y="-37" font-family="Helvetica,sans-Serif" font-size="10.00">detectAndDecode()</text>
<text text-anchor="start" x="4.5" y="-22" font-family="Helvetica,sans-Serif" font-size="10.00">+</text>
<text text-anchor="start" x="17.5" y="-22" font-family="Helvetica,sans-Serif" font-size="10.00">getScaleFactor()</text>
<text text-anchor="start" x="4.5" y="-7" font-family="Helvetica,sans-Serif" font-size="10.00">+</text>
<text text-anchor="start" x="17.5" y="-7" font-family="Helvetica,sans-Serif" font-size="10.00">setScaleFactor()</text>
<polygon fill="#666666" stroke="#666666" points="0.5,-92 0.5,-92 115.5,-92 115.5,-92 0.5,-92"/>
<polygon fill="#666666" stroke="#666666" points="0.5,-77 0.5,-77 115.5,-77 115.5,-77 0.5,-77"/>
<polygon fill="none" stroke="#666666" points="0,0 0,-120 115,-120 115,0 0,0"/>
</a>
</g>
</g>
<!-- Node2 -->
<g id="Node000002" class="node">
<title>Node2</title>
<g id="a_Node000002"><a xlink:title=" ">
<polygon fill="white" stroke="transparent" points="91.5,-216 23.5,-216 23.5,-167 91.5,-167 91.5,-216"/>
<text text-anchor="start" x="28.5" y="-203.5" font-family="Helvetica,sans-Serif" font-size="10.00">Ptr&lt; Impl &gt;</text>
<text text-anchor="start" x="55.5" y="-188.5" font-family="Helvetica,sans-Serif" font-size="10.00"> </text>
<text text-anchor="start" x="55.5" y="-173.5" font-family="Helvetica,sans-Serif" font-size="10.00"> </text>
<polygon fill="#666666" stroke="#666666" points="23.5,-198.5 23.5,-198.5 91.5,-198.5 91.5,-198.5 23.5,-198.5"/>
<polygon fill="#666666" stroke="#666666" points="23.5,-183.5 23.5,-183.5 91.5,-183.5 91.5,-183.5 23.5,-183.5"/>
<polygon fill="none" stroke="#666666" points="23.5,-167 23.5,-216 91.5,-216 91.5,-167 23.5,-167"/>
</a>
</g>
</g>
<!-- Node2&#45;&gt;Node1 -->
<g id="edge1_Node000001_Node000002" class="edge">
<title>Node2&#45;&gt;Node1</title>
<g id="a_edge1_Node000001_Node000002"><a xlink:title=" ">
<path fill="none" stroke="#63b8ff" d="M57.5,-166.75C57.5,-156.79 57.5,-144.63 57.5,-132.15"/>
<polygon fill="none" stroke="#63b8ff" points="57.5,-132.15 53.5,-126.15 57.5,-120.15 61.5,-126.15 57.5,-132.15"/>
</a>
</g>
<text text-anchor="middle" x="66.5" y="-141" font-family="Helvetica,sans-Serif" font-size="10.00" fill="grey"> #p</text>
</g>
</g>
</svg>
