<?xml version="1.0" encoding="UTF-8" standalone="no"?>
<!DOCTYPE svg PUBLIC "-//W3C//DTD SVG 1.1//EN"
 "http://www.w3.org/Graphics/SVG/1.1/DTD/svg11.dtd">
<!-- Generated by graphviz version 2.43.0 (0)
 -->
<!-- Title: cv::gapi::own::Point Pages: 1 -->
<svg width="113pt" height="179pt"
 viewBox="0.00 0.00 113.00 179.00" xmlns="http://www.w3.org/2000/svg" xmlns:xlink="http://www.w3.org/1999/xlink">
<g id="graph0" class="graph" transform="scale(1 1) rotate(0) translate(4 175)">
<title>cv::gapi::own::Point</title>
<!-- Node1 -->
<g id="Node000001" class="node">
<title>Node1</title>
<g id="a_Node000001"><a xlink:title=" ">
<polygon fill="#999999" stroke="transparent" points="105,-64 0,-64 0,0 105,0 105,-64"/>
<text text-anchor="start" x="5.5" y="-52" font-family="Helvetica,sans-Serif" font-size="10.00">cv::gapi::own::Point</text>
<text text-anchor="start" x="51" y="-37" font-family="Helvetica,sans-Serif" font-size="10.00"> </text>
<text text-anchor="start" x="17" y="-22" font-family="Helvetica,sans-Serif" font-size="10.00">+</text>
<text text-anchor="start" x="42.5" y="-22" font-family="Helvetica,sans-Serif" font-size="10.00">Point()</text>
<text text-anchor="start" x="17" y="-7" font-family="Helvetica,sans-Serif" font-size="10.00">+</text>
<text text-anchor="start" x="42.5" y="-7" font-family="Helvetica,sans-Serif" font-size="10.00">Point()</text>
<polygon fill="#666666" stroke="#666666" points="0.5,-47 0.5,-47 105.5,-47 105.5,-47 0.5,-47"/>
<polygon fill="#666666" stroke="#666666" points="0.5,-32 0.5,-32 105.5,-32 105.5,-32 0.5,-32"/>
<polygon fill="none" stroke="#666666" points="0,0 0,-64 105,-64 105,0 0,0"/>
</a>
</g>
</g>
<!-- Node2 -->
<g id="Node000002" class="node">
<title>Node2</title>
<g id="a_Node000002"><a xlink:title=" ">
<polygon fill="white" stroke="transparent" points="64,-171 41,-171 41,-122 64,-122 64,-171"/>
<text text-anchor="start" x="46.5" y="-158.5" font-family="Helvetica,sans-Serif" font-size="10.00">int</text>
<text text-anchor="start" x="51" y="-143.5" font-family="Helvetica,sans-Serif" font-size="10.00"> </text>
<text text-anchor="start" x="51" y="-128.5" font-family="Helvetica,sans-Serif" font-size="10.00"> </text>
<polygon fill="#666666" stroke="#666666" points="41.5,-153.5 41.5,-153.5 64.5,-153.5 64.5,-153.5 41.5,-153.5"/>
<polygon fill="#666666" stroke="#666666" points="41.5,-138.5 41.5,-138.5 64.5,-138.5 64.5,-138.5 41.5,-138.5"/>
<polygon fill="none" stroke="#666666" points="41,-122 41,-171 64,-171 64,-122 41,-122"/>
</a>
</g>
</g>
<!-- Node2&#45;&gt;Node1 -->
<g id="edge1_Node000001_Node000002" class="edge">
<title>Node2&#45;&gt;Node1</title>
<g id="a_edge1_Node000001_Node000002"><a xlink:title=" ">
<path fill="none" stroke="#63b8ff" d="M52.5,-121.92C52.5,-108.7 52.5,-91.8 52.5,-76.29"/>
<polygon fill="none" stroke="#63b8ff" points="52.5,-76.24 48.5,-70.24 52.5,-64.24 56.5,-70.24 52.5,-76.24"/>
</a>
</g>
<text text-anchor="middle" x="61.5" y="-96" font-family="Helvetica,sans-Serif" font-size="10.00" fill="grey"> +x</text>
<text text-anchor="middle" x="61.5" y="-85" font-family="Helvetica,sans-Serif" font-size="10.00" fill="grey">+y</text>
</g>
</g>
</svg>
