<?xml version="1.0" encoding="UTF-8" standalone="no"?>
<!DOCTYPE svg PUBLIC "-//W3C//DTD SVG 1.1//EN"
 "http://www.w3.org/Graphics/SVG/1.1/DTD/svg11.dtd">
<!-- Generated by graphviz version 2.43.0 (0)
 -->
<!-- Title: cv::EMDL1HistogramCostExtractor Pages: 1 -->
<svg width="186pt" height="482pt"
 viewBox="0.00 0.00 186.00 482.00" xmlns="http://www.w3.org/2000/svg" xmlns:xlink="http://www.w3.org/1999/xlink">
<g id="graph0" class="graph" transform="scale(1 1) rotate(0) translate(4 478)">
<title>cv::EMDL1HistogramCostExtractor</title>
<!-- Node1 -->
<g id="Node000001" class="node">
<title>Node1</title>
<g id="a_Node000001"><a xlink:title="An EMD&#45;L1 based cost extraction. :">
<polygon fill="#999999" stroke="transparent" points="178,-49 0,-49 0,0 178,0 178,-49"/>
<text text-anchor="start" x="5" y="-36.5" font-family="Helvetica,sans-Serif" font-size="10.00">cv::EMDL1HistogramCostExtractor</text>
<text text-anchor="start" x="87" y="-21.5" font-family="Helvetica,sans-Serif" font-size="10.00"> </text>
<text text-anchor="start" x="87" y="-6.5" font-family="Helvetica,sans-Serif" font-size="10.00"> </text>
<polygon fill="#666666" stroke="#666666" points="0,-31.5 0,-31.5 178,-31.5 178,-31.5 0,-31.5"/>
<polygon fill="#666666" stroke="#666666" points="0,-16.5 0,-16.5 178,-16.5 178,-16.5 0,-16.5"/>
<polygon fill="none" stroke="#666666" points="0,0 0,-49 178,-49 178,0 0,0"/>
</a>
</g>
</g>
<!-- Node2 -->
<g id="Node000002" class="node">
<title>Node2</title>
<g id="a_Node000002"><a xlink:href="../../df/d9a/classcv_1_1HistogramCostExtractor.html" target="_top" xlink:title="Abstract base class for histogram cost algorithms.">
<polygon fill="white" stroke="transparent" points="161,-194 17,-194 17,-85 161,-85 161,-194"/>
<text text-anchor="start" x="22" y="-181.5" font-family="Helvetica,sans-Serif" font-size="10.00">cv::HistogramCostExtractor</text>
<text text-anchor="start" x="87" y="-166.5" font-family="Helvetica,sans-Serif" font-size="10.00"> </text>
<text text-anchor="start" x="30.5" y="-151.5" font-family="Helvetica,sans-Serif" font-size="10.00">+</text>
<text text-anchor="start" x="53" y="-151.5" font-family="Helvetica,sans-Serif" font-size="10.00">buildCostMatrix()</text>
<text text-anchor="start" x="30.5" y="-136.5" font-family="Helvetica,sans-Serif" font-size="10.00">+</text>
<text text-anchor="start" x="53" y="-136.5" font-family="Helvetica,sans-Serif" font-size="10.00">getDefaultCost()</text>
<text text-anchor="start" x="30.5" y="-121.5" font-family="Helvetica,sans-Serif" font-size="10.00">+</text>
<text text-anchor="start" x="53" y="-121.5" font-family="Helvetica,sans-Serif" font-size="10.00">getNDummies()</text>
<text text-anchor="start" x="30.5" y="-106.5" font-family="Helvetica,sans-Serif" font-size="10.00">+</text>
<text text-anchor="start" x="53" y="-106.5" font-family="Helvetica,sans-Serif" font-size="10.00">setDefaultCost()</text>
<text text-anchor="start" x="30.5" y="-91.5" font-family="Helvetica,sans-Serif" font-size="10.00">+</text>
<text text-anchor="start" x="53" y="-91.5" font-family="Helvetica,sans-Serif" font-size="10.00">setNDummies()</text>
<polygon fill="#666666" stroke="#666666" points="17,-176.5 17,-176.5 161,-176.5 161,-176.5 17,-176.5"/>
<polygon fill="#666666" stroke="#666666" points="17,-161.5 17,-161.5 161,-161.5 161,-161.5 17,-161.5"/>
<polygon fill="none" stroke="#666666" points="17,-85 17,-194 161,-194 161,-85 17,-85"/>
</a>
</g>
</g>
<!-- Node2&#45;&gt;Node1 -->
<g id="edge1_Node000001_Node000002" class="edge">
<title>Node2&#45;&gt;Node1</title>
<g id="a_edge1_Node000001_Node000002"><a xlink:title=" ">
<path fill="none" stroke="#63b8ff" d="M89,-74.69C89,-65.63 89,-56.82 89,-49.23"/>
<polygon fill="none" stroke="#63b8ff" points="85.5,-74.98 89,-84.98 92.5,-74.98 85.5,-74.98"/>
</a>
</g>
</g>
<!-- Node3 -->
<g id="Node000003" class="node">
<title>Node3</title>
<g id="a_Node000003"><a xlink:href="../../d3/d46/classcv_1_1Algorithm.html" target="_top" xlink:title="This is a base class for all more or less complex algorithms in OpenCV.">
<polygon fill="white" stroke="transparent" points="144,-474 34,-474 34,-230 144,-230 144,-474"/>
<text text-anchor="start" x="56.5" y="-462" font-family="Helvetica,sans-Serif" font-size="10.00">cv::Algorithm</text>
<text text-anchor="start" x="87" y="-447" font-family="Helvetica,sans-Serif" font-size="10.00"> </text>
<text text-anchor="start" x="38" y="-432" font-family="Helvetica,sans-Serif" font-size="10.00">+</text>
<text text-anchor="start" x="51" y="-432" font-family="Helvetica,sans-Serif" font-size="10.00">Algorithm()</text>
<text text-anchor="start" x="38" y="-417" font-family="Helvetica,sans-Serif" font-size="10.00">+</text>
<text text-anchor="start" x="51" y="-417" font-family="Helvetica,sans-Serif" font-size="10.00">~Algorithm()</text>
<text text-anchor="start" x="38" y="-402" font-family="Helvetica,sans-Serif" font-size="10.00">+</text>
<text text-anchor="start" x="51" y="-402" font-family="Helvetica,sans-Serif" font-size="10.00">clear()</text>
<text text-anchor="start" x="38" y="-387" font-family="Helvetica,sans-Serif" font-size="10.00">+</text>
<text text-anchor="start" x="51" y="-387" font-family="Helvetica,sans-Serif" font-size="10.00">empty()</text>
<text text-anchor="start" x="38" y="-372" font-family="Helvetica,sans-Serif" font-size="10.00">+</text>
<text text-anchor="start" x="51" y="-372" font-family="Helvetica,sans-Serif" font-size="10.00">getDefaultName()</text>
<text text-anchor="start" x="38" y="-357" font-family="Helvetica,sans-Serif" font-size="10.00">+</text>
<text text-anchor="start" x="51" y="-357" font-family="Helvetica,sans-Serif" font-size="10.00">read()</text>
<text text-anchor="start" x="38" y="-342" font-family="Helvetica,sans-Serif" font-size="10.00">+</text>
<text text-anchor="start" x="51" y="-342" font-family="Helvetica,sans-Serif" font-size="10.00">save()</text>
<text text-anchor="start" x="38" y="-327" font-family="Helvetica,sans-Serif" font-size="10.00">+</text>
<text text-anchor="start" x="51" y="-327" font-family="Helvetica,sans-Serif" font-size="10.00">write()</text>
<text text-anchor="start" x="38" y="-312" font-family="Helvetica,sans-Serif" font-size="10.00">+</text>
<text text-anchor="start" x="51" y="-312" font-family="Helvetica,sans-Serif" font-size="10.00">write()</text>
<text text-anchor="start" x="38" y="-297" font-family="Helvetica,sans-Serif" font-size="10.00">+</text>
<text text-anchor="start" x="51" y="-297" font-family="Helvetica,sans-Serif" font-size="10.00">write()</text>
<text text-anchor="start" x="38" y="-282" font-family="Helvetica,sans-Serif" font-size="10.00">+</text>
<text text-anchor="start" x="51" y="-282" font-family="Helvetica,sans-Serif" font-size="10.00">load()</text>
<text text-anchor="start" x="38" y="-267" font-family="Helvetica,sans-Serif" font-size="10.00">+</text>
<text text-anchor="start" x="51" y="-267" font-family="Helvetica,sans-Serif" font-size="10.00">loadFromString()</text>
<text text-anchor="start" x="38" y="-252" font-family="Helvetica,sans-Serif" font-size="10.00">+</text>
<text text-anchor="start" x="51" y="-252" font-family="Helvetica,sans-Serif" font-size="10.00">read()</text>
<text text-anchor="start" x="38" y="-237" font-family="Helvetica,sans-Serif" font-size="10.00">#</text>
<text text-anchor="start" x="51" y="-237" font-family="Helvetica,sans-Serif" font-size="10.00">writeFormat()</text>
<polygon fill="#666666" stroke="#666666" points="34,-457 34,-457 144,-457 144,-457 34,-457"/>
<polygon fill="#666666" stroke="#666666" points="34,-442 34,-442 144,-442 144,-442 34,-442"/>
<polygon fill="none" stroke="#666666" points="34,-230 34,-474 144,-474 144,-230 34,-230"/>
</a>
</g>
</g>
<!-- Node3&#45;&gt;Node2 -->
<g id="edge2_Node000002_Node000003" class="edge">
<title>Node3&#45;&gt;Node2</title>
<g id="a_edge2_Node000002_Node000003"><a xlink:title=" ">
<path fill="none" stroke="#63b8ff" d="M89,-219.66C89,-210.79 89,-202.18 89,-194.11"/>
<polygon fill="none" stroke="#63b8ff" points="85.5,-219.77 89,-229.77 92.5,-219.77 85.5,-219.77"/>
</a>
</g>
</g>
</g>
</svg>
