<?xml version="1.0" encoding="UTF-8" standalone="no"?>
<!DOCTYPE svg PUBLIC "-//W3C//DTD SVG 1.1//EN"
 "http://www.w3.org/Graphics/SVG/1.1/DTD/svg11.dtd">
<!-- Generated by graphviz version 2.43.0 (0)
 -->
<!-- Title: cv::GMatDesc Pages: 1 -->
<svg width="387pt" height="656pt"
 viewBox="0.00 0.00 387.02 656.00" xmlns="http://www.w3.org/2000/svg" xmlns:xlink="http://www.w3.org/1999/xlink">
<g id="graph0" class="graph" transform="scale(1 1) rotate(0) translate(4 652)">
<title>cv::GMatDesc</title>
<!-- Node1 -->
<g id="Node000001" class="node">
<title>Node1</title>
<g id="a_Node000001"><a xlink:title=" ">
<polygon fill="#999999" stroke="transparent" points="234.02,-199 138.02,-199 138.02,0 234.02,0 234.02,-199"/>
<text text-anchor="start" x="152.52" y="-186.5" font-family="Helvetica,sans-Serif" font-size="10.00">cv::GMatDesc</text>
<text text-anchor="start" x="184.02" y="-171.5" font-family="Helvetica,sans-Serif" font-size="10.00"> </text>
<text text-anchor="start" x="142.02" y="-156.5" font-family="Helvetica,sans-Serif" font-size="10.00">+</text>
<text text-anchor="start" x="155.02" y="-156.5" font-family="Helvetica,sans-Serif" font-size="10.00">GMatDesc()</text>
<text text-anchor="start" x="142.02" y="-141.5" font-family="Helvetica,sans-Serif" font-size="10.00">+</text>
<text text-anchor="start" x="155.02" y="-141.5" font-family="Helvetica,sans-Serif" font-size="10.00">GMatDesc()</text>
<text text-anchor="start" x="142.02" y="-126.5" font-family="Helvetica,sans-Serif" font-size="10.00">+</text>
<text text-anchor="start" x="155.02" y="-126.5" font-family="Helvetica,sans-Serif" font-size="10.00">GMatDesc()</text>
<text text-anchor="start" x="142.02" y="-111.5" font-family="Helvetica,sans-Serif" font-size="10.00">+</text>
<text text-anchor="start" x="155.02" y="-111.5" font-family="Helvetica,sans-Serif" font-size="10.00">GMatDesc()</text>
<text text-anchor="start" x="142.02" y="-96.5" font-family="Helvetica,sans-Serif" font-size="10.00">+</text>
<text text-anchor="start" x="155.02" y="-96.5" font-family="Helvetica,sans-Serif" font-size="10.00">asInterleaved()</text>
<text text-anchor="start" x="142.02" y="-81.5" font-family="Helvetica,sans-Serif" font-size="10.00">+</text>
<text text-anchor="start" x="155.02" y="-81.5" font-family="Helvetica,sans-Serif" font-size="10.00">asPlanar()</text>
<text text-anchor="start" x="142.02" y="-66.5" font-family="Helvetica,sans-Serif" font-size="10.00">+</text>
<text text-anchor="start" x="155.02" y="-66.5" font-family="Helvetica,sans-Serif" font-size="10.00">asPlanar()</text>
<text text-anchor="start" x="142.02" y="-51.5" font-family="Helvetica,sans-Serif" font-size="10.00">+</text>
<text text-anchor="start" x="155.02" y="-51.5" font-family="Helvetica,sans-Serif" font-size="10.00">canDescribe()</text>
<text text-anchor="start" x="142.02" y="-36.5" font-family="Helvetica,sans-Serif" font-size="10.00">+</text>
<text text-anchor="start" x="155.02" y="-36.5" font-family="Helvetica,sans-Serif" font-size="10.00">canDescribe()</text>
<text text-anchor="start" x="142.02" y="-21.5" font-family="Helvetica,sans-Serif" font-size="10.00">+</text>
<text text-anchor="start" x="155.02" y="-21.5" font-family="Helvetica,sans-Serif" font-size="10.00">isND()</text>
<text text-anchor="start" x="155.02" y="-6.5" font-family="Helvetica,sans-Serif" font-size="10.00">and 7 more...</text>
<polygon fill="#666666" stroke="#666666" points="138.02,-181.5 138.02,-181.5 234.02,-181.5 234.02,-181.5 138.02,-181.5"/>
<polygon fill="#666666" stroke="#666666" points="138.02,-166.5 138.02,-166.5 234.02,-166.5 234.02,-166.5 138.02,-166.5"/>
<polygon fill="none" stroke="#666666" points="138.02,0 138.02,-199 234.02,-199 234.02,0 138.02,0"/>
</a>
</g>
</g>
<!-- Node2 -->
<g id="Node000002" class="node">
<title>Node2</title>
<g id="a_Node000002"><a xlink:title=" ">
<polygon fill="white" stroke="transparent" points="40.52,-552 17.52,-552 17.52,-503 40.52,-503 40.52,-552"/>
<text text-anchor="start" x="23.02" y="-539.5" font-family="Helvetica,sans-Serif" font-size="10.00">int</text>
<text text-anchor="start" x="27.52" y="-524.5" font-family="Helvetica,sans-Serif" font-size="10.00"> </text>
<text text-anchor="start" x="27.52" y="-509.5" font-family="Helvetica,sans-Serif" font-size="10.00"> </text>
<polygon fill="#666666" stroke="#666666" points="18.02,-534.5 18.02,-534.5 41.02,-534.5 41.02,-534.5 18.02,-534.5"/>
<polygon fill="#666666" stroke="#666666" points="18.02,-519.5 18.02,-519.5 41.02,-519.5 41.02,-519.5 18.02,-519.5"/>
<polygon fill="none" stroke="#666666" points="17.52,-503 17.52,-552 40.52,-552 40.52,-503 17.52,-503"/>
</a>
</g>
</g>
<!-- Node2&#45;&gt;Node1 -->
<g id="edge1_Node000001_Node000002" class="edge">
<title>Node2&#45;&gt;Node1</title>
<g id="a_edge1_Node000001_Node000002"><a xlink:title=" ">
<path fill="none" stroke="#63b8ff" d="M21.76,-502.99C7.69,-453.03 -18.57,-333.7 21.02,-246 42.78,-197.8 89.28,-159.17 127.39,-133.86"/>
<polygon fill="none" stroke="#63b8ff" points="127.81,-133.59 130.68,-126.97 137.89,-127.08 135.02,-133.69 127.81,-133.59"/>
</a>
</g>
<text text-anchor="middle" x="39.52" y="-348.5" font-family="Helvetica,sans-Serif" font-size="10.00" fill="grey"> +chan</text>
<text text-anchor="middle" x="39.52" y="-337.5" font-family="Helvetica,sans-Serif" font-size="10.00" fill="grey">+depth</text>
</g>
<!-- Node6 -->
<g id="Node000006" class="node">
<title>Node6</title>
<g id="a_Node000006"><a xlink:title=" ">
<polygon fill="white" stroke="transparent" points="165.02,-370 67.02,-370 67.02,-321 165.02,-321 165.02,-370"/>
<text text-anchor="start" x="72.02" y="-357.5" font-family="Helvetica,sans-Serif" font-size="10.00">std::vector&lt; int &gt;</text>
<text text-anchor="start" x="114.02" y="-342.5" font-family="Helvetica,sans-Serif" font-size="10.00"> </text>
<text text-anchor="start" x="114.02" y="-327.5" font-family="Helvetica,sans-Serif" font-size="10.00"> </text>
<polygon fill="#666666" stroke="#666666" points="67.02,-352.5 67.02,-352.5 165.02,-352.5 165.02,-352.5 67.02,-352.5"/>
<polygon fill="#666666" stroke="#666666" points="67.02,-337.5 67.02,-337.5 165.02,-337.5 165.02,-337.5 67.02,-337.5"/>
<polygon fill="none" stroke="#666666" points="67.02,-321 67.02,-370 165.02,-370 165.02,-321 67.02,-321"/>
</a>
</g>
</g>
<!-- Node2&#45;&gt;Node6 -->
<g id="edge6_Node000006_Node000002" class="edge">
<title>Node2&#45;&gt;Node6</title>
<g id="a_edge6_Node000006_Node000002"><a xlink:title=" ">
<path fill="none" stroke="#63b8ff" d="M40.4,-502.97C55.44,-471.84 82.07,-416.74 99.38,-380.93"/>
<polygon fill="none" stroke="#63b8ff" points="99.42,-380.84 98.43,-373.7 104.65,-370.04 105.64,-377.18 99.42,-380.84"/>
</a>
</g>
<text text-anchor="middle" x="89.02" y="-471.5" font-family="Helvetica,sans-Serif" font-size="10.00" fill="grey"> +elements</text>
</g>
<!-- Node3 -->
<g id="Node000003" class="node">
<title>Node3</title>
<g id="a_Node000003"><a xlink:href="../../d6/d50/classcv_1_1Size__.html" target="_top" xlink:title="Template class for specifying the size of an image or rectangle.">
<polygon fill="white" stroke="transparent" points="328.52,-445 183.52,-445 183.52,-246 328.52,-246 328.52,-445"/>
<text text-anchor="start" x="215.52" y="-432.5" font-family="Helvetica,sans-Serif" font-size="10.00">cv::Size_&lt; _Tp &gt;</text>
<text text-anchor="start" x="254.52" y="-417.5" font-family="Helvetica,sans-Serif" font-size="10.00"> </text>
<text text-anchor="start" x="188.02" y="-402.5" font-family="Helvetica,sans-Serif" font-size="10.00">+</text>
<text text-anchor="start" x="201.02" y="-402.5" font-family="Helvetica,sans-Serif" font-size="10.00">Size_()</text>
<text text-anchor="start" x="188.02" y="-387.5" font-family="Helvetica,sans-Serif" font-size="10.00">+</text>
<text text-anchor="start" x="201.02" y="-387.5" font-family="Helvetica,sans-Serif" font-size="10.00">Size_()</text>
<text text-anchor="start" x="188.02" y="-372.5" font-family="Helvetica,sans-Serif" font-size="10.00">+</text>
<text text-anchor="start" x="201.02" y="-372.5" font-family="Helvetica,sans-Serif" font-size="10.00">Size_()</text>
<text text-anchor="start" x="188.02" y="-357.5" font-family="Helvetica,sans-Serif" font-size="10.00">+</text>
<text text-anchor="start" x="201.02" y="-357.5" font-family="Helvetica,sans-Serif" font-size="10.00">Size_()</text>
<text text-anchor="start" x="188.02" y="-342.5" font-family="Helvetica,sans-Serif" font-size="10.00">+</text>
<text text-anchor="start" x="201.02" y="-342.5" font-family="Helvetica,sans-Serif" font-size="10.00">Size_()</text>
<text text-anchor="start" x="188.02" y="-327.5" font-family="Helvetica,sans-Serif" font-size="10.00">+</text>
<text text-anchor="start" x="201.02" y="-327.5" font-family="Helvetica,sans-Serif" font-size="10.00">area()</text>
<text text-anchor="start" x="188.02" y="-312.5" font-family="Helvetica,sans-Serif" font-size="10.00">+</text>
<text text-anchor="start" x="201.02" y="-312.5" font-family="Helvetica,sans-Serif" font-size="10.00">aspectRatio()</text>
<text text-anchor="start" x="188.02" y="-297.5" font-family="Helvetica,sans-Serif" font-size="10.00">+</text>
<text text-anchor="start" x="201.02" y="-297.5" font-family="Helvetica,sans-Serif" font-size="10.00">empty()</text>
<text text-anchor="start" x="188.02" y="-282.5" font-family="Helvetica,sans-Serif" font-size="10.00">+</text>
<text text-anchor="start" x="201.02" y="-282.5" font-family="Helvetica,sans-Serif" font-size="10.00">operator Size_&lt; _Tp2 &gt;()</text>
<text text-anchor="start" x="188.02" y="-267.5" font-family="Helvetica,sans-Serif" font-size="10.00">+</text>
<text text-anchor="start" x="201.02" y="-267.5" font-family="Helvetica,sans-Serif" font-size="10.00">operator=()</text>
<text text-anchor="start" x="188.02" y="-252.5" font-family="Helvetica,sans-Serif" font-size="10.00">+</text>
<text text-anchor="start" x="201.02" y="-252.5" font-family="Helvetica,sans-Serif" font-size="10.00">operator=()</text>
<polygon fill="#666666" stroke="#666666" points="184.02,-427.5 184.02,-427.5 329.02,-427.5 329.02,-427.5 184.02,-427.5"/>
<polygon fill="#666666" stroke="#666666" points="184.02,-412.5 184.02,-412.5 329.02,-412.5 329.02,-412.5 184.02,-412.5"/>
<polygon fill="none" stroke="#666666" points="183.52,-246 183.52,-445 328.52,-445 328.52,-246 183.52,-246"/>
</a>
</g>
</g>
<!-- Node3&#45;&gt;Node1 -->
<g id="edge2_Node000001_Node000003" class="edge">
<title>Node3&#45;&gt;Node1</title>
<g id="a_edge2_Node000001_Node000003"><a xlink:title=" ">
<path fill="none" stroke="#63b8ff" d="M227.75,-245.96C224.42,-234.35 221.01,-222.45 217.64,-210.7"/>
<polygon fill="none" stroke="#63b8ff" points="217.59,-210.55 212.09,-205.88 214.28,-199.01 219.78,-203.68 217.59,-210.55"/>
</a>
</g>
<text text-anchor="middle" x="236.52" y="-220" font-family="Helvetica,sans-Serif" font-size="10.00" fill="grey"> +size</text>
</g>
<!-- Node4 -->
<g id="Node000004" class="node">
<title>Node4</title>
<g id="a_Node000004"><a xlink:href="../../d1/dd7/class__Tp.html" target="_top" xlink:title=" ">
<polygon fill="white" stroke="transparent" points="270.02,-552 242.02,-552 242.02,-503 270.02,-503 270.02,-552"/>
<text text-anchor="start" x="247.02" y="-539.5" font-family="Helvetica,sans-Serif" font-size="10.00">_Tp</text>
<text text-anchor="start" x="254.02" y="-524.5" font-family="Helvetica,sans-Serif" font-size="10.00"> </text>
<text text-anchor="start" x="254.02" y="-509.5" font-family="Helvetica,sans-Serif" font-size="10.00"> </text>
<polygon fill="#666666" stroke="#666666" points="242.02,-534.5 242.02,-534.5 270.02,-534.5 270.02,-534.5 242.02,-534.5"/>
<polygon fill="#666666" stroke="#666666" points="242.02,-519.5 242.02,-519.5 270.02,-519.5 270.02,-519.5 242.02,-519.5"/>
<polygon fill="none" stroke="#666666" points="242.02,-503 242.02,-552 270.02,-552 270.02,-503 242.02,-503"/>
</a>
</g>
</g>
<!-- Node4&#45;&gt;Node3 -->
<g id="edge3_Node000003_Node000004" class="edge">
<title>Node4&#45;&gt;Node3</title>
<g id="a_edge3_Node000003_Node000004"><a xlink:title=" ">
<path fill="none" stroke="#63b8ff" d="M256.02,-502.97C256.02,-490.58 256.02,-474.4 256.02,-457.14"/>
<polygon fill="none" stroke="#63b8ff" points="256.02,-457.06 252.02,-451.06 256.02,-445.06 260.02,-451.06 256.02,-457.06"/>
</a>
</g>
<text text-anchor="middle" x="277.52" y="-477" font-family="Helvetica,sans-Serif" font-size="10.00" fill="grey"> +height</text>
<text text-anchor="middle" x="277.52" y="-466" font-family="Helvetica,sans-Serif" font-size="10.00" fill="grey">+width</text>
</g>
<!-- Node5 -->
<g id="Node000005" class="node">
<title>Node5</title>
<g id="a_Node000005"><a xlink:title=" ">
<polygon fill="white" stroke="transparent" points="379.02,-370 347.02,-370 347.02,-321 379.02,-321 379.02,-370"/>
<text text-anchor="start" x="352.02" y="-357.5" font-family="Helvetica,sans-Serif" font-size="10.00">bool</text>
<text text-anchor="start" x="361.02" y="-342.5" font-family="Helvetica,sans-Serif" font-size="10.00"> </text>
<text text-anchor="start" x="361.02" y="-327.5" font-family="Helvetica,sans-Serif" font-size="10.00"> </text>
<polygon fill="#666666" stroke="#666666" points="347.02,-352.5 347.02,-352.5 379.02,-352.5 379.02,-352.5 347.02,-352.5"/>
<polygon fill="#666666" stroke="#666666" points="347.02,-337.5 347.02,-337.5 379.02,-337.5 379.02,-337.5 347.02,-337.5"/>
<polygon fill="none" stroke="#666666" points="347.02,-321 347.02,-370 379.02,-370 379.02,-321 347.02,-321"/>
</a>
</g>
</g>
<!-- Node5&#45;&gt;Node1 -->
<g id="edge4_Node000001_Node000005" class="edge">
<title>Node5&#45;&gt;Node1</title>
<g id="a_edge4_Node000001_Node000005"><a xlink:title=" ">
<path fill="none" stroke="#63b8ff" d="M360.74,-320.82C357.89,-299.95 351.62,-269.32 338.02,-246 314.34,-205.39 276.06,-168.84 243.84,-142.53"/>
<polygon fill="none" stroke="#63b8ff" points="243.43,-142.2 236.24,-141.58 234.06,-134.7 241.24,-135.33 243.43,-142.2"/>
</a>
</g>
<text text-anchor="middle" x="346.52" y="-220" font-family="Helvetica,sans-Serif" font-size="10.00" fill="grey"> +planar</text>
</g>
<!-- Node6&#45;&gt;Node1 -->
<g id="edge5_Node000001_Node000006" class="edge">
<title>Node6&#45;&gt;Node1</title>
<g id="a_edge5_Node000001_Node000006"><a xlink:title=" ">
<path fill="none" stroke="#63b8ff" d="M122.86,-320.66C130.27,-294.85 142.61,-251.82 154.43,-210.62"/>
<polygon fill="none" stroke="#63b8ff" points="154.44,-210.6 152.25,-203.73 157.74,-199.07 159.93,-205.94 154.44,-210.6"/>
</a>
</g>
<text text-anchor="middle" x="169.02" y="-220" font-family="Helvetica,sans-Serif" font-size="10.00" fill="grey"> +dims</text>
</g>
<!-- Node7 -->
<g id="Node000007" class="node">
<title>Node7</title>
<g id="a_Node000007"><a xlink:title=" ">
<polygon fill="white" stroke="transparent" points="171.52,-552 80.52,-552 80.52,-503 171.52,-503 171.52,-552"/>
<text text-anchor="start" x="86.02" y="-539.5" font-family="Helvetica,sans-Serif" font-size="10.00">std::vector&lt; T &gt;</text>
<text text-anchor="start" x="124.52" y="-524.5" font-family="Helvetica,sans-Serif" font-size="10.00"> </text>
<text text-anchor="start" x="124.52" y="-509.5" font-family="Helvetica,sans-Serif" font-size="10.00"> </text>
<polygon fill="#666666" stroke="#666666" points="81.02,-534.5 81.02,-534.5 172.02,-534.5 172.02,-534.5 81.02,-534.5"/>
<polygon fill="#666666" stroke="#666666" points="81.02,-519.5 81.02,-519.5 172.02,-519.5 172.02,-519.5 81.02,-519.5"/>
<polygon fill="none" stroke="#666666" points="80.52,-503 80.52,-552 171.52,-552 171.52,-503 80.52,-503"/>
</a>
</g>
</g>
<!-- Node7&#45;&gt;Node6 -->
<g id="edge7_Node000006_Node000007" class="edge">
<title>Node7&#45;&gt;Node6</title>
<g id="a_edge7_Node000006_Node000007"><a xlink:title=" ">
<path fill="none" stroke="orange" d="M124.14,-492.54C122.15,-456.74 119.07,-401.3 117.33,-370.04"/>
<polygon fill="orange" stroke="orange" points="120.67,-493.18 124.71,-502.97 127.65,-492.79 120.67,-493.18"/>
</a>
</g>
<text text-anchor="middle" x="143.52" y="-471.5" font-family="Helvetica,sans-Serif" font-size="10.00" fill="grey"> &lt; int &gt;</text>
</g>
<!-- Node8 -->
<g id="Node000008" class="node">
<title>Node8</title>
<g id="a_Node000008"><a xlink:title=" ">
<polygon fill="white" stroke="transparent" points="134.52,-648 117.52,-648 117.52,-599 134.52,-599 134.52,-648"/>
<text text-anchor="start" x="123.02" y="-635.5" font-family="Helvetica,sans-Serif" font-size="10.00">T</text>
<text text-anchor="start" x="124.52" y="-620.5" font-family="Helvetica,sans-Serif" font-size="10.00"> </text>
<text text-anchor="start" x="124.52" y="-605.5" font-family="Helvetica,sans-Serif" font-size="10.00"> </text>
<polygon fill="#666666" stroke="#666666" points="118.02,-630.5 118.02,-630.5 135.02,-630.5 135.02,-630.5 118.02,-630.5"/>
<polygon fill="#666666" stroke="#666666" points="118.02,-615.5 118.02,-615.5 135.02,-615.5 135.02,-615.5 118.02,-615.5"/>
<polygon fill="none" stroke="#666666" points="117.52,-599 117.52,-648 134.52,-648 134.52,-599 117.52,-599"/>
</a>
</g>
</g>
<!-- Node8&#45;&gt;Node7 -->
<g id="edge8_Node000007_Node000008" class="edge">
<title>Node8&#45;&gt;Node7</title>
<g id="a_edge8_Node000007_Node000008"><a xlink:title=" ">
<path fill="none" stroke="#63b8ff" d="M126.02,-598.78C126.02,-588.32 126.02,-575.79 126.02,-564.23"/>
<polygon fill="none" stroke="#63b8ff" points="126.02,-564.21 122.02,-558.21 126.02,-552.21 130.02,-558.21 126.02,-564.21"/>
</a>
</g>
<text text-anchor="middle" x="155.02" y="-573" font-family="Helvetica,sans-Serif" font-size="10.00" fill="grey"> +elements</text>
</g>
</g>
</svg>
