<?xml version="1.0" encoding="UTF-8" standalone="no"?>
<!DOCTYPE svg PUBLIC "-//W3C//DTD SVG 1.1//EN"
 "http://www.w3.org/Graphics/SVG/1.1/DTD/svg11.dtd">
<!-- Generated by graphviz version 2.43.0 (0)
 -->
<!-- Title: cv::detail::CylindricalWarper Pages: 1 -->
<svg width="426pt" height="943pt"
 viewBox="0.00 0.00 425.50 943.00" xmlns="http://www.w3.org/2000/svg" xmlns:xlink="http://www.w3.org/1999/xlink">
<g id="graph0" class="graph" transform="scale(1 1) rotate(0) translate(4 939)">
<title>cv::detail::CylindricalWarper</title>
<!-- Node1 -->
<g id="Node000001" class="node">
<title>Node1</title>
<g id="a_Node000001"><a xlink:title="Warper that maps an image onto the x*x + z*z = 1 cylinder.">
<polygon fill="#999999" stroke="transparent" points="241,-94 94,-94 94,0 241,0 241,-94"/>
<text text-anchor="start" x="99.5" y="-82" font-family="Helvetica,sans-Serif" font-size="10.00">cv::detail::CylindricalWarper</text>
<text text-anchor="start" x="166" y="-67" font-family="Helvetica,sans-Serif" font-size="10.00"> </text>
<text text-anchor="start" x="106.5" y="-52" font-family="Helvetica,sans-Serif" font-size="10.00">+</text>
<text text-anchor="start" x="127.5" y="-52" font-family="Helvetica,sans-Serif" font-size="10.00">CylindricalWarper()</text>
<text text-anchor="start" x="106.5" y="-37" font-family="Helvetica,sans-Serif" font-size="10.00">+</text>
<text text-anchor="start" x="127.5" y="-37" font-family="Helvetica,sans-Serif" font-size="10.00">buildMaps()</text>
<text text-anchor="start" x="106.5" y="-22" font-family="Helvetica,sans-Serif" font-size="10.00">+</text>
<text text-anchor="start" x="127.5" y="-22" font-family="Helvetica,sans-Serif" font-size="10.00">warp()</text>
<text text-anchor="start" x="106.5" y="-7" font-family="Helvetica,sans-Serif" font-size="10.00">#</text>
<text text-anchor="start" x="127.5" y="-7" font-family="Helvetica,sans-Serif" font-size="10.00">detectResultRoi()</text>
<polygon fill="#666666" stroke="#666666" points="94.5,-77 94.5,-77 241.5,-77 241.5,-77 94.5,-77"/>
<polygon fill="#666666" stroke="#666666" points="94.5,-62 94.5,-62 241.5,-62 241.5,-62 94.5,-62"/>
<polygon fill="none" stroke="#666666" points="94,0 94,-94 241,-94 241,0 94,0"/>
</a>
</g>
</g>
<!-- Node2 -->
<g id="Node000002" class="node">
<title>Node2</title>
<g id="a_Node000002"><a xlink:href="../../d6/d65/classcv_1_1detail_1_1RotationWarperBase.html" target="_top" xlink:title=" ">
<polygon fill="white" stroke="transparent" points="243.5,-326 91.5,-326 91.5,-131 243.5,-131 243.5,-326"/>
<text text-anchor="start" x="96.5" y="-313.5" font-family="Helvetica,sans-Serif" font-size="10.00">cv::detail::RotationWarper</text>
<text text-anchor="start" x="96.5" y="-302.5" font-family="Helvetica,sans-Serif" font-size="10.00">Base&lt; CylindricalProjector &gt;</text>
<text text-anchor="start" x="165.5" y="-287.5" font-family="Helvetica,sans-Serif" font-size="10.00"> </text>
<text text-anchor="start" x="95.5" y="-272.5" font-family="Helvetica,sans-Serif" font-size="10.00">+</text>
<text text-anchor="start" x="108.5" y="-272.5" font-family="Helvetica,sans-Serif" font-size="10.00">buildMaps()</text>
<text text-anchor="start" x="95.5" y="-257.5" font-family="Helvetica,sans-Serif" font-size="10.00">+</text>
<text text-anchor="start" x="108.5" y="-257.5" font-family="Helvetica,sans-Serif" font-size="10.00">getScale()</text>
<text text-anchor="start" x="95.5" y="-242.5" font-family="Helvetica,sans-Serif" font-size="10.00">+</text>
<text text-anchor="start" x="108.5" y="-242.5" font-family="Helvetica,sans-Serif" font-size="10.00">setScale()</text>
<text text-anchor="start" x="95.5" y="-227.5" font-family="Helvetica,sans-Serif" font-size="10.00">+</text>
<text text-anchor="start" x="108.5" y="-227.5" font-family="Helvetica,sans-Serif" font-size="10.00">warp()</text>
<text text-anchor="start" x="95.5" y="-212.5" font-family="Helvetica,sans-Serif" font-size="10.00">+</text>
<text text-anchor="start" x="108.5" y="-212.5" font-family="Helvetica,sans-Serif" font-size="10.00">warpBackward()</text>
<text text-anchor="start" x="95.5" y="-197.5" font-family="Helvetica,sans-Serif" font-size="10.00">+</text>
<text text-anchor="start" x="108.5" y="-197.5" font-family="Helvetica,sans-Serif" font-size="10.00">warpPoint()</text>
<text text-anchor="start" x="95.5" y="-182.5" font-family="Helvetica,sans-Serif" font-size="10.00">+</text>
<text text-anchor="start" x="108.5" y="-182.5" font-family="Helvetica,sans-Serif" font-size="10.00">warpPointBackward()</text>
<text text-anchor="start" x="95.5" y="-167.5" font-family="Helvetica,sans-Serif" font-size="10.00">+</text>
<text text-anchor="start" x="108.5" y="-167.5" font-family="Helvetica,sans-Serif" font-size="10.00">warpRoi()</text>
<text text-anchor="start" x="95.5" y="-152.5" font-family="Helvetica,sans-Serif" font-size="10.00">#</text>
<text text-anchor="start" x="108.5" y="-152.5" font-family="Helvetica,sans-Serif" font-size="10.00">detectResultRoi()</text>
<text text-anchor="start" x="95.5" y="-137.5" font-family="Helvetica,sans-Serif" font-size="10.00">#</text>
<text text-anchor="start" x="108.5" y="-137.5" font-family="Helvetica,sans-Serif" font-size="10.00">detectResultRoiByBorder()</text>
<polygon fill="#666666" stroke="#666666" points="91.5,-297.5 91.5,-297.5 243.5,-297.5 243.5,-297.5 91.5,-297.5"/>
<polygon fill="#666666" stroke="#666666" points="91.5,-282.5 91.5,-282.5 243.5,-282.5 243.5,-282.5 91.5,-282.5"/>
<polygon fill="none" stroke="#666666" points="91.5,-131 91.5,-326 243.5,-326 243.5,-131 91.5,-131"/>
</a>
</g>
</g>
<!-- Node2&#45;&gt;Node1 -->
<g id="edge1_Node000001_Node000002" class="edge">
<title>Node2&#45;&gt;Node1</title>
<g id="a_edge1_Node000001_Node000002"><a xlink:title=" ">
<path fill="none" stroke="#63b8ff" d="M167.5,-120.8C167.5,-111.54 167.5,-102.53 167.5,-94.18"/>
<polygon fill="none" stroke="#63b8ff" points="164,-120.92 167.5,-130.92 171,-120.92 164,-120.92"/>
</a>
</g>
</g>
<!-- Node3 -->
<g id="Node000003" class="node">
<title>Node3</title>
<g id="a_Node000003"><a xlink:href="../../da/db8/classcv_1_1detail_1_1RotationWarper.html" target="_top" xlink:title="Rotation&#45;only model image warper interface.">
<polygon fill="white" stroke="transparent" points="137,-784 0,-784 0,-615 137,-615 137,-784"/>
<text text-anchor="start" x="5.5" y="-771.5" font-family="Helvetica,sans-Serif" font-size="10.00">cv::detail::RotationWarper</text>
<text text-anchor="start" x="67" y="-756.5" font-family="Helvetica,sans-Serif" font-size="10.00"> </text>
<text text-anchor="start" x="7" y="-741.5" font-family="Helvetica,sans-Serif" font-size="10.00">+</text>
<text text-anchor="start" x="22.5" y="-741.5" font-family="Helvetica,sans-Serif" font-size="10.00">~RotationWarper()</text>
<text text-anchor="start" x="7" y="-726.5" font-family="Helvetica,sans-Serif" font-size="10.00">+</text>
<text text-anchor="start" x="22.5" y="-726.5" font-family="Helvetica,sans-Serif" font-size="10.00">buildMaps()</text>
<text text-anchor="start" x="7" y="-711.5" font-family="Helvetica,sans-Serif" font-size="10.00">+</text>
<text text-anchor="start" x="22.5" y="-711.5" font-family="Helvetica,sans-Serif" font-size="10.00">getScale()</text>
<text text-anchor="start" x="7" y="-696.5" font-family="Helvetica,sans-Serif" font-size="10.00">+</text>
<text text-anchor="start" x="22.5" y="-696.5" font-family="Helvetica,sans-Serif" font-size="10.00">setScale()</text>
<text text-anchor="start" x="7" y="-681.5" font-family="Helvetica,sans-Serif" font-size="10.00">+</text>
<text text-anchor="start" x="22.5" y="-681.5" font-family="Helvetica,sans-Serif" font-size="10.00">warp()</text>
<text text-anchor="start" x="7" y="-666.5" font-family="Helvetica,sans-Serif" font-size="10.00">+</text>
<text text-anchor="start" x="22.5" y="-666.5" font-family="Helvetica,sans-Serif" font-size="10.00">warpBackward()</text>
<text text-anchor="start" x="7" y="-651.5" font-family="Helvetica,sans-Serif" font-size="10.00">+</text>
<text text-anchor="start" x="22.5" y="-651.5" font-family="Helvetica,sans-Serif" font-size="10.00">warpPoint()</text>
<text text-anchor="start" x="7" y="-636.5" font-family="Helvetica,sans-Serif" font-size="10.00">+</text>
<text text-anchor="start" x="22.5" y="-636.5" font-family="Helvetica,sans-Serif" font-size="10.00">warpPointBackward()</text>
<text text-anchor="start" x="7" y="-621.5" font-family="Helvetica,sans-Serif" font-size="10.00">+</text>
<text text-anchor="start" x="22.5" y="-621.5" font-family="Helvetica,sans-Serif" font-size="10.00">warpRoi()</text>
<polygon fill="#666666" stroke="#666666" points="0.5,-766.5 0.5,-766.5 137.5,-766.5 137.5,-766.5 0.5,-766.5"/>
<polygon fill="#666666" stroke="#666666" points="0.5,-751.5 0.5,-751.5 137.5,-751.5 137.5,-751.5 0.5,-751.5"/>
<polygon fill="none" stroke="#666666" points="0,-615 0,-784 137,-784 137,-615 0,-615"/>
</a>
</g>
</g>
<!-- Node3&#45;&gt;Node2 -->
<g id="edge2_Node000002_Node000003" class="edge">
<title>Node3&#45;&gt;Node2</title>
<g id="a_edge2_Node000002_Node000003"><a xlink:title=" ">
<path fill="none" stroke="#63b8ff" d="M60.6,-604.74C57.88,-538.6 60.01,-448.68 82.5,-373 87.2,-357.18 94.02,-341.29 101.79,-326.15"/>
<polygon fill="none" stroke="#63b8ff" points="57.1,-604.9 61.05,-614.73 64.1,-604.58 57.1,-604.9"/>
</a>
</g>
</g>
<!-- Node7 -->
<g id="Node000007" class="node">
<title>Node7</title>
<g id="a_Node000007"><a xlink:href="../../d6/d65/classcv_1_1detail_1_1RotationWarperBase.html" target="_top" xlink:title="Base class for rotation&#45;based warper using a detail::ProjectorBase_ derived class.">
<polygon fill="white" stroke="transparent" points="243,-568 92,-568 92,-373 243,-373 243,-568"/>
<text text-anchor="start" x="104.5" y="-555.5" font-family="Helvetica,sans-Serif" font-size="10.00">cv::detail::RotationWarper</text>
<text text-anchor="start" x="141.5" y="-544.5" font-family="Helvetica,sans-Serif" font-size="10.00">Base&lt; P &gt;</text>
<text text-anchor="start" x="166" y="-529.5" font-family="Helvetica,sans-Serif" font-size="10.00"> </text>
<text text-anchor="start" x="96.5" y="-514.5" font-family="Helvetica,sans-Serif" font-size="10.00">+</text>
<text text-anchor="start" x="109.5" y="-514.5" font-family="Helvetica,sans-Serif" font-size="10.00">buildMaps()</text>
<text text-anchor="start" x="96.5" y="-499.5" font-family="Helvetica,sans-Serif" font-size="10.00">+</text>
<text text-anchor="start" x="109.5" y="-499.5" font-family="Helvetica,sans-Serif" font-size="10.00">getScale()</text>
<text text-anchor="start" x="96.5" y="-484.5" font-family="Helvetica,sans-Serif" font-size="10.00">+</text>
<text text-anchor="start" x="109.5" y="-484.5" font-family="Helvetica,sans-Serif" font-size="10.00">setScale()</text>
<text text-anchor="start" x="96.5" y="-469.5" font-family="Helvetica,sans-Serif" font-size="10.00">+</text>
<text text-anchor="start" x="109.5" y="-469.5" font-family="Helvetica,sans-Serif" font-size="10.00">warp()</text>
<text text-anchor="start" x="96.5" y="-454.5" font-family="Helvetica,sans-Serif" font-size="10.00">+</text>
<text text-anchor="start" x="109.5" y="-454.5" font-family="Helvetica,sans-Serif" font-size="10.00">warpBackward()</text>
<text text-anchor="start" x="96.5" y="-439.5" font-family="Helvetica,sans-Serif" font-size="10.00">+</text>
<text text-anchor="start" x="109.5" y="-439.5" font-family="Helvetica,sans-Serif" font-size="10.00">warpPoint()</text>
<text text-anchor="start" x="96.5" y="-424.5" font-family="Helvetica,sans-Serif" font-size="10.00">+</text>
<text text-anchor="start" x="109.5" y="-424.5" font-family="Helvetica,sans-Serif" font-size="10.00">warpPointBackward()</text>
<text text-anchor="start" x="96.5" y="-409.5" font-family="Helvetica,sans-Serif" font-size="10.00">+</text>
<text text-anchor="start" x="109.5" y="-409.5" font-family="Helvetica,sans-Serif" font-size="10.00">warpRoi()</text>
<text text-anchor="start" x="96.5" y="-394.5" font-family="Helvetica,sans-Serif" font-size="10.00">#</text>
<text text-anchor="start" x="109.5" y="-394.5" font-family="Helvetica,sans-Serif" font-size="10.00">detectResultRoi()</text>
<text text-anchor="start" x="96.5" y="-379.5" font-family="Helvetica,sans-Serif" font-size="10.00">#</text>
<text text-anchor="start" x="109.5" y="-379.5" font-family="Helvetica,sans-Serif" font-size="10.00">detectResultRoiByBorder()</text>
<polygon fill="#666666" stroke="#666666" points="92.5,-539.5 92.5,-539.5 243.5,-539.5 243.5,-539.5 92.5,-539.5"/>
<polygon fill="#666666" stroke="#666666" points="92.5,-524.5 92.5,-524.5 243.5,-524.5 243.5,-524.5 92.5,-524.5"/>
<polygon fill="none" stroke="#666666" points="92,-373 92,-568 243,-568 243,-373 92,-373"/>
</a>
</g>
</g>
<!-- Node3&#45;&gt;Node7 -->
<g id="edge7_Node000007_Node000003" class="edge">
<title>Node3&#45;&gt;Node7</title>
<g id="a_edge7_Node000007_Node000003"><a xlink:title=" ">
<path fill="none" stroke="#63b8ff" d="M109.01,-605.61C114.37,-593.31 119.88,-580.68 125.28,-568.32"/>
<polygon fill="none" stroke="#63b8ff" points="105.73,-604.38 104.94,-614.94 112.15,-607.17 105.73,-604.38"/>
</a>
</g>
</g>
<!-- Node4 -->
<g id="Node000004" class="node">
<title>Node4</title>
<g id="a_Node000004"><a xlink:href="../../dd/d96/structcv_1_1detail_1_1CylindricalProjector.html" target="_top" xlink:title=" ">
<polygon fill="white" stroke="transparent" points="417.5,-502.5 261.5,-502.5 261.5,-438.5 417.5,-438.5 417.5,-502.5"/>
<text text-anchor="start" x="266.5" y="-490.5" font-family="Helvetica,sans-Serif" font-size="10.00">cv::detail::CylindricalProjector</text>
<text text-anchor="start" x="337.5" y="-475.5" font-family="Helvetica,sans-Serif" font-size="10.00"> </text>
<text text-anchor="start" x="279.5" y="-460.5" font-family="Helvetica,sans-Serif" font-size="10.00">+</text>
<text text-anchor="start" x="306.5" y="-460.5" font-family="Helvetica,sans-Serif" font-size="10.00">mapBackward()</text>
<text text-anchor="start" x="279.5" y="-445.5" font-family="Helvetica,sans-Serif" font-size="10.00">+</text>
<text text-anchor="start" x="306.5" y="-445.5" font-family="Helvetica,sans-Serif" font-size="10.00">mapForward()</text>
<polygon fill="#666666" stroke="#666666" points="261.5,-485.5 261.5,-485.5 417.5,-485.5 417.5,-485.5 261.5,-485.5"/>
<polygon fill="#666666" stroke="#666666" points="261.5,-470.5 261.5,-470.5 417.5,-470.5 417.5,-470.5 261.5,-470.5"/>
<polygon fill="none" stroke="#666666" points="261.5,-438.5 261.5,-502.5 417.5,-502.5 417.5,-438.5 261.5,-438.5"/>
</a>
</g>
</g>
<!-- Node4&#45;&gt;Node2 -->
<g id="edge3_Node000002_Node000004" class="edge">
<title>Node4&#45;&gt;Node2</title>
<g id="a_edge3_Node000002_Node000004"><a xlink:title=" ">
<path fill="none" stroke="#63b8ff" d="M332.26,-438.44C325.06,-411.8 312.22,-373.21 292.5,-344 281.21,-327.28 267.01,-311.3 252.26,-296.87"/>
<polygon fill="none" stroke="#63b8ff" points="252.22,-296.84 245.12,-295.6 243.53,-288.56 250.63,-289.8 252.22,-296.84"/>
</a>
</g>
<text text-anchor="middle" x="328" y="-347" font-family="Helvetica,sans-Serif" font-size="10.00" fill="grey"> #projector_</text>
</g>
<!-- Node5 -->
<g id="Node000005" class="node">
<title>Node5</title>
<g id="a_Node000005"><a xlink:href="../../dc/d2c/structcv_1_1detail_1_1ProjectorBase.html" target="_top" xlink:title="Base class for warping logic implementation.">
<polygon fill="white" stroke="transparent" points="403.5,-724 275.5,-724 275.5,-675 403.5,-675 403.5,-724"/>
<text text-anchor="start" x="280.5" y="-711.5" font-family="Helvetica,sans-Serif" font-size="10.00">cv::detail::ProjectorBase</text>
<text text-anchor="start" x="337.5" y="-696.5" font-family="Helvetica,sans-Serif" font-size="10.00"> </text>
<text text-anchor="start" x="282" y="-681.5" font-family="Helvetica,sans-Serif" font-size="10.00">+</text>
<text text-anchor="start" x="297.5" y="-681.5" font-family="Helvetica,sans-Serif" font-size="10.00">setCameraParams()</text>
<polygon fill="#666666" stroke="#666666" points="275.5,-706.5 275.5,-706.5 403.5,-706.5 403.5,-706.5 275.5,-706.5"/>
<polygon fill="#666666" stroke="#666666" points="275.5,-691.5 275.5,-691.5 403.5,-691.5 403.5,-691.5 275.5,-691.5"/>
<polygon fill="none" stroke="#666666" points="275.5,-675 275.5,-724 403.5,-724 403.5,-675 275.5,-675"/>
</a>
</g>
</g>
<!-- Node5&#45;&gt;Node4 -->
<g id="edge4_Node000004_Node000005" class="edge">
<title>Node5&#45;&gt;Node4</title>
<g id="a_edge4_Node000004_Node000005"><a xlink:title=" ">
<path fill="none" stroke="#63b8ff" d="M339.5,-664.47C339.5,-620.62 339.5,-544.98 339.5,-502.6"/>
<polygon fill="none" stroke="#63b8ff" points="336,-664.64 339.5,-674.64 343,-664.64 336,-664.64"/>
</a>
</g>
</g>
<!-- Node6 -->
<g id="Node000006" class="node">
<title>Node6</title>
<g id="a_Node000006"><a xlink:title=" ">
<polygon fill="white" stroke="transparent" points="355.5,-935 323.5,-935 323.5,-886 355.5,-886 355.5,-935"/>
<text text-anchor="start" x="328.5" y="-922.5" font-family="Helvetica,sans-Serif" font-size="10.00">float</text>
<text text-anchor="start" x="337.5" y="-907.5" font-family="Helvetica,sans-Serif" font-size="10.00"> </text>
<text text-anchor="start" x="337.5" y="-892.5" font-family="Helvetica,sans-Serif" font-size="10.00"> </text>
<polygon fill="#666666" stroke="#666666" points="323.5,-917.5 323.5,-917.5 355.5,-917.5 355.5,-917.5 323.5,-917.5"/>
<polygon fill="#666666" stroke="#666666" points="323.5,-902.5 323.5,-902.5 355.5,-902.5 355.5,-902.5 323.5,-902.5"/>
<polygon fill="none" stroke="#666666" points="323.5,-886 323.5,-935 355.5,-935 355.5,-886 323.5,-886"/>
</a>
</g>
</g>
<!-- Node6&#45;&gt;Node5 -->
<g id="edge5_Node000005_Node000006" class="edge">
<title>Node6&#45;&gt;Node5</title>
<g id="a_edge5_Node000005_Node000006"><a xlink:title=" ">
<path fill="none" stroke="#63b8ff" d="M339.5,-885.93C339.5,-849.48 339.5,-779.16 339.5,-736.37"/>
<polygon fill="none" stroke="#63b8ff" points="339.5,-736.3 335.5,-730.3 339.5,-724.3 343.5,-730.3 339.5,-736.3"/>
</a>
</g>
<text text-anchor="middle" x="359" y="-860" font-family="Helvetica,sans-Serif" font-size="10.00" fill="grey"> +k</text>
<text text-anchor="middle" x="359" y="-849" font-family="Helvetica,sans-Serif" font-size="10.00" fill="grey">+k_rinv</text>
<text text-anchor="middle" x="359" y="-838" font-family="Helvetica,sans-Serif" font-size="10.00" fill="grey">+r_kinv</text>
<text text-anchor="middle" x="359" y="-827" font-family="Helvetica,sans-Serif" font-size="10.00" fill="grey">+rinv</text>
<text text-anchor="middle" x="359" y="-816" font-family="Helvetica,sans-Serif" font-size="10.00" fill="grey">+scale</text>
<text text-anchor="middle" x="359" y="-805" font-family="Helvetica,sans-Serif" font-size="10.00" fill="grey">+t</text>
</g>
<!-- Node7&#45;&gt;Node2 -->
<g id="edge6_Node000002_Node000007" class="edge">
<title>Node7&#45;&gt;Node2</title>
<g id="a_edge6_Node000002_Node000007"><a xlink:title=" ">
<path fill="none" stroke="orange" d="M167.5,-362.77C167.5,-350.62 167.5,-338.28 167.5,-326.27"/>
<polygon fill="orange" stroke="orange" points="164,-362.92 167.5,-372.92 171,-362.92 164,-362.92"/>
</a>
</g>
<text text-anchor="middle" x="228" y="-347" font-family="Helvetica,sans-Serif" font-size="10.00" fill="grey"> &lt; CylindricalProjector &gt;</text>
</g>
<!-- Node8 -->
<g id="Node000008" class="node">
<title>Node8</title>
<g id="a_Node000008"><a xlink:title=" ">
<polygon fill="white" stroke="transparent" points="176,-724 159,-724 159,-675 176,-675 176,-724"/>
<text text-anchor="start" x="164.5" y="-711.5" font-family="Helvetica,sans-Serif" font-size="10.00">P</text>
<text text-anchor="start" x="166" y="-696.5" font-family="Helvetica,sans-Serif" font-size="10.00"> </text>
<text text-anchor="start" x="166" y="-681.5" font-family="Helvetica,sans-Serif" font-size="10.00"> </text>
<polygon fill="#666666" stroke="#666666" points="159.5,-706.5 159.5,-706.5 176.5,-706.5 176.5,-706.5 159.5,-706.5"/>
<polygon fill="#666666" stroke="#666666" points="159.5,-691.5 159.5,-691.5 176.5,-691.5 176.5,-691.5 159.5,-691.5"/>
<polygon fill="none" stroke="#666666" points="159,-675 159,-724 176,-724 176,-675 159,-675"/>
</a>
</g>
</g>
<!-- Node8&#45;&gt;Node7 -->
<g id="edge8_Node000007_Node000008" class="edge">
<title>Node8&#45;&gt;Node7</title>
<g id="a_edge8_Node000007_Node000008"><a xlink:title=" ">
<path fill="none" stroke="#63b8ff" d="M167.5,-674.64C167.5,-651.78 167.5,-615.61 167.5,-580.08"/>
<polygon fill="none" stroke="#63b8ff" points="167.5,-580.07 163.5,-574.07 167.5,-568.07 171.5,-574.07 167.5,-580.07"/>
</a>
</g>
<text text-anchor="middle" x="198" y="-589" font-family="Helvetica,sans-Serif" font-size="10.00" fill="grey"> #projector_</text>
</g>
</g>
</svg>
