<?xml version="1.0" encoding="UTF-8" standalone="no"?>
<!DOCTYPE svg PUBLIC "-//W3C//DTD SVG 1.1//EN"
 "http://www.w3.org/Graphics/SVG/1.1/DTD/svg11.dtd">
<!-- Generated by graphviz version 2.43.0 (0)
 -->
<!-- Title: cv::detail::postprocess Pages: 1 -->
<svg width="420pt" height="86pt"
 viewBox="0.00 0.00 420.00 86.00" xmlns="http://www.w3.org/2000/svg" xmlns:xlink="http://www.w3.org/1999/xlink">
<g id="graph0" class="graph" transform="scale(1 1) rotate(0) translate(4 82)">
<title>cv::detail::postprocess</title>
<!-- Node1 -->
<g id="Node000001" class="node">
<title>Node1</title>
<g id="a_Node000001"><a xlink:title=" ">
<polygon fill="#999999" stroke="#666666" points="125,-48.5 0,-48.5 0,-29.5 125,-29.5 125,-48.5"/>
<text text-anchor="middle" x="62.5" y="-36.5" font-family="Helvetica,sans-Serif" font-size="10.00">cv::detail::postprocess</text>
</a>
</g>
</g>
<!-- Node2 -->
<g id="Node000002" class="node">
<title>Node2</title>
<g id="a_Node000002"><a xlink:href="../../d3/dce/namespacecv_1_1util.html#a5f00f5a230b8dc4f63bdd1c8057ace44" target="_top" xlink:title="Utility template function to prevent &quot;unused&quot; warnings by various compilers.">
<polygon fill="white" stroke="#666666" points="263.5,-78 162.5,-78 162.5,-48 263.5,-48 263.5,-78"/>
<text text-anchor="start" x="170.5" y="-66" font-family="Helvetica,sans-Serif" font-size="10.00">cv::util::suppress</text>
<text text-anchor="middle" x="213" y="-55" font-family="Helvetica,sans-Serif" font-size="10.00">_unused_warning</text>
</a>
</g>
</g>
<!-- Node1&#45;&gt;Node2 -->
<g id="edge1_Node000001_Node000002" class="edge">
<title>Node1&#45;&gt;Node2</title>
<g id="a_edge1_Node000001_Node000002"><a xlink:title=" ">
<path fill="none" stroke="#63b8ff" d="M122.62,-48.55C132.34,-50.13 142.43,-51.76 152.17,-53.33"/>
<polygon fill="#63b8ff" stroke="#63b8ff" points="151.74,-56.81 162.17,-54.95 152.86,-49.9 151.74,-56.81"/>
</a>
</g>
</g>
<!-- Node3 -->
<g id="Node000003" class="node">
<title>Node3</title>
<g id="a_Node000003"><a xlink:href="../../d3/d73/structcv_1_1detail_1_1tracked__cv__mat.html#a8f53e513ca5a22ea0ecd896551c59664" target="_top" xlink:title=" ">
<polygon fill="white" stroke="#666666" points="265,-30 161,-30 161,0 265,0 265,-30"/>
<text text-anchor="start" x="169" y="-18" font-family="Helvetica,sans-Serif" font-size="10.00">cv::detail::tracked</text>
<text text-anchor="middle" x="213" y="-7" font-family="Helvetica,sans-Serif" font-size="10.00">_cv_mat::validate</text>
</a>
</g>
</g>
<!-- Node1&#45;&gt;Node3 -->
<g id="edge2_Node000001_Node000003" class="edge">
<title>Node1&#45;&gt;Node3</title>
<g id="a_edge2_Node000001_Node000003"><a xlink:title=" ">
<path fill="none" stroke="#63b8ff" d="M122.62,-29.45C131.88,-27.95 141.48,-26.4 150.79,-24.89"/>
<polygon fill="#63b8ff" stroke="#63b8ff" points="151.44,-28.33 160.76,-23.28 150.32,-21.42 151.44,-28.33"/>
</a>
</g>
</g>
<!-- Node4 -->
<g id="Node000004" class="node">
<title>Node4</title>
<g id="a_Node000004"><a xlink:href="../../d3/dce/namespacecv_1_1util.html#a40544b3ca23b3917f2a5de6b0273079d" target="_top" xlink:title=" ">
<polygon fill="white" stroke="#666666" points="412,-24.5 301,-24.5 301,-5.5 412,-5.5 412,-24.5"/>
<text text-anchor="middle" x="356.5" y="-12.5" font-family="Helvetica,sans-Serif" font-size="10.00">cv::util::throw_error</text>
</a>
</g>
</g>
<!-- Node3&#45;&gt;Node4 -->
<g id="edge3_Node000003_Node000004" class="edge">
<title>Node3&#45;&gt;Node4</title>
<g id="a_edge3_Node000003_Node000004"><a xlink:title=" ">
<path fill="none" stroke="#63b8ff" d="M265.08,-15C273.3,-15 281.9,-15 290.39,-15"/>
<polygon fill="#63b8ff" stroke="#63b8ff" points="290.67,-18.5 300.67,-15 290.67,-11.5 290.67,-18.5"/>
</a>
</g>
</g>
</g>
</svg>
