<?xml version="1.0" encoding="UTF-8" standalone="no"?>
<!DOCTYPE svg PUBLIC "-//W3C//DTD SVG 1.1//EN"
 "http://www.w3.org/Graphics/SVG/1.1/DTD/svg11.dtd">
<!-- Generated by graphviz version 2.43.0 (0)
 -->
<!-- Title: cv::detail::inferGenericROI Pages: 1 -->
<svg width="317pt" height="76pt"
 viewBox="0.00 0.00 317.00 75.50" xmlns="http://www.w3.org/2000/svg" xmlns:xlink="http://www.w3.org/1999/xlink">
<g id="graph0" class="graph" transform="scale(1 1) rotate(0) translate(4 71.5)">
<title>cv::detail::inferGenericROI</title>
<!-- Node1 -->
<g id="Node000001" class="node">
<title>Node1</title>
<g id="a_Node000001"><a xlink:title=" ">
<polygon fill="#999999" stroke="#666666" points="144,-40 0,-40 0,-21 144,-21 144,-40"/>
<text text-anchor="middle" x="72" y="-28" font-family="Helvetica,sans-Serif" font-size="10.00">cv::detail::inferGenericROI</text>
</a>
</g>
</g>
<!-- Node2 -->
<g id="Node000002" class="node">
<title>Node2</title>
<g id="a_Node000002"><a xlink:href="../../d5/dce/classcv_1_1detail_1_1GInferInputsTyped.html#a38aa79c0af98c7f3fcf193022bf81579" target="_top" xlink:title=" ">
<polygon fill="white" stroke="#666666" points="308,-67.5 181,-67.5 181,-37.5 308,-37.5 308,-67.5"/>
<text text-anchor="start" x="189" y="-55.5" font-family="Helvetica,sans-Serif" font-size="10.00">cv::detail::GInferInputs</text>
<text text-anchor="middle" x="244.5" y="-44.5" font-family="Helvetica,sans-Serif" font-size="10.00">Typed::getBlobs</text>
</a>
</g>
</g>
<!-- Node1&#45;&gt;Node2 -->
<g id="edge1_Node000001_Node000002" class="edge">
<title>Node1&#45;&gt;Node2</title>
<g id="a_edge1_Node000001_Node000002"><a xlink:title=" ">
<path fill="none" stroke="#63b8ff" d="M144.32,-39.7C153.04,-40.83 161.97,-41.98 170.71,-43.11"/>
<polygon fill="#63b8ff" stroke="#63b8ff" points="170.5,-46.61 180.87,-44.42 171.4,-39.67 170.5,-46.61"/>
</a>
</g>
</g>
<!-- Node3 -->
<g id="Node000003" class="node">
<title>Node3</title>
<g id="a_Node000003"><a xlink:href="../../d2/daf/namespacecv_1_1detail.html#a2f3b650bb58db1c7b03169735e78994d" target="_top" xlink:title=" ">
<polygon fill="white" stroke="#666666" points="309,-19 180,-19 180,0 309,0 309,-19"/>
<text text-anchor="middle" x="244.5" y="-7" font-family="Helvetica,sans-Serif" font-size="10.00">cv::detail::unpackBlobs</text>
</a>
</g>
</g>
<!-- Node1&#45;&gt;Node3 -->
<g id="edge2_Node000001_Node000003" class="edge">
<title>Node1&#45;&gt;Node3</title>
<g id="a_edge2_Node000001_Node000003"><a xlink:title=" ">
<path fill="none" stroke="#63b8ff" d="M144.32,-21.72C152.69,-20.69 161.24,-19.63 169.64,-18.6"/>
<polygon fill="#63b8ff" stroke="#63b8ff" points="170.3,-22.04 179.8,-17.35 169.44,-15.09 170.3,-22.04"/>
</a>
</g>
</g>
</g>
</svg>
