<?xml version="1.0" encoding="UTF-8" standalone="no"?>
<!DOCTYPE svg PUBLIC "-//W3C//DTD SVG 1.1//EN"
 "http://www.w3.org/Graphics/SVG/1.1/DTD/svg11.dtd">
<!-- Generated by graphviz version 2.43.0 (0)
 -->
<!-- Title: cv::datasets::TR_icdar Pages: 1 -->
<svg width="317pt" height="591pt"
 viewBox="0.00 0.00 317.00 591.00" xmlns="http://www.w3.org/2000/svg" xmlns:xlink="http://www.w3.org/1999/xlink">
<g id="graph0" class="graph" transform="scale(1 1) rotate(0) translate(4 587)">
<title>cv::datasets::TR_icdar</title>
<!-- Node1 -->
<g id="Node000001" class="node">
<title>Node1</title>
<g id="a_Node000001"><a xlink:title=" ">
<polygon fill="#999999" stroke="transparent" points="166.5,-64 49.5,-64 49.5,0 166.5,0 166.5,-64"/>
<text text-anchor="start" x="55" y="-52" font-family="Helvetica,sans-Serif" font-size="10.00">cv::datasets::TR_icdar</text>
<text text-anchor="start" x="106.5" y="-37" font-family="Helvetica,sans-Serif" font-size="10.00"> </text>
<text text-anchor="start" x="68" y="-22" font-family="Helvetica,sans-Serif" font-size="10.00">+</text>
<text text-anchor="start" x="95" y="-22" font-family="Helvetica,sans-Serif" font-size="10.00">load()</text>
<text text-anchor="start" x="68" y="-7" font-family="Helvetica,sans-Serif" font-size="10.00">+</text>
<text text-anchor="start" x="95" y="-7" font-family="Helvetica,sans-Serif" font-size="10.00">create()</text>
<polygon fill="#666666" stroke="#666666" points="50,-47 50,-47 167,-47 167,-47 50,-47"/>
<polygon fill="#666666" stroke="#666666" points="50,-32 50,-32 167,-32 167,-32 50,-32"/>
<polygon fill="none" stroke="#666666" points="49.5,0 49.5,-64 166.5,-64 166.5,0 49.5,0"/>
</a>
</g>
</g>
<!-- Node2 -->
<g id="Node000002" class="node">
<title>Node2</title>
<g id="a_Node000002"><a xlink:href="../../d9/d2e/classcv_1_1datasets_1_1Dataset.html" target="_top" xlink:title=" ">
<polygon fill="white" stroke="transparent" points="164.5,-240 51.5,-240 51.5,-101 164.5,-101 164.5,-240"/>
<text text-anchor="start" x="57" y="-227.5" font-family="Helvetica,sans-Serif" font-size="10.00">cv::datasets::Dataset</text>
<text text-anchor="start" x="106.5" y="-212.5" font-family="Helvetica,sans-Serif" font-size="10.00"> </text>
<text text-anchor="start" x="60.5" y="-197.5" font-family="Helvetica,sans-Serif" font-size="10.00">+</text>
<text text-anchor="start" x="78" y="-197.5" font-family="Helvetica,sans-Serif" font-size="10.00">Dataset()</text>
<text text-anchor="start" x="60.5" y="-182.5" font-family="Helvetica,sans-Serif" font-size="10.00">+</text>
<text text-anchor="start" x="78" y="-182.5" font-family="Helvetica,sans-Serif" font-size="10.00">~Dataset()</text>
<text text-anchor="start" x="60.5" y="-167.5" font-family="Helvetica,sans-Serif" font-size="10.00">+</text>
<text text-anchor="start" x="78" y="-167.5" font-family="Helvetica,sans-Serif" font-size="10.00">getNumSplits()</text>
<text text-anchor="start" x="60.5" y="-152.5" font-family="Helvetica,sans-Serif" font-size="10.00">+</text>
<text text-anchor="start" x="78" y="-152.5" font-family="Helvetica,sans-Serif" font-size="10.00">getTest()</text>
<text text-anchor="start" x="60.5" y="-137.5" font-family="Helvetica,sans-Serif" font-size="10.00">+</text>
<text text-anchor="start" x="78" y="-137.5" font-family="Helvetica,sans-Serif" font-size="10.00">getTrain()</text>
<text text-anchor="start" x="60.5" y="-122.5" font-family="Helvetica,sans-Serif" font-size="10.00">+</text>
<text text-anchor="start" x="78" y="-122.5" font-family="Helvetica,sans-Serif" font-size="10.00">getValidation()</text>
<text text-anchor="start" x="60.5" y="-107.5" font-family="Helvetica,sans-Serif" font-size="10.00">+</text>
<text text-anchor="start" x="78" y="-107.5" font-family="Helvetica,sans-Serif" font-size="10.00">load()</text>
<polygon fill="#666666" stroke="#666666" points="52,-222.5 52,-222.5 165,-222.5 165,-222.5 52,-222.5"/>
<polygon fill="#666666" stroke="#666666" points="52,-207.5 52,-207.5 165,-207.5 165,-207.5 52,-207.5"/>
<polygon fill="none" stroke="#666666" points="51.5,-101 51.5,-240 164.5,-240 164.5,-101 51.5,-101"/>
</a>
</g>
</g>
<!-- Node2&#45;&gt;Node1 -->
<g id="edge1_Node000001_Node000002" class="edge">
<title>Node2&#45;&gt;Node1</title>
<g id="a_edge1_Node000001_Node000002"><a xlink:title=" ">
<path fill="none" stroke="#63b8ff" d="M108,-90.63C108,-81.27 108,-72.19 108,-64.1"/>
<polygon fill="none" stroke="#63b8ff" points="104.5,-90.85 108,-100.85 111.5,-90.85 104.5,-90.85"/>
</a>
</g>
</g>
<!-- Node3 -->
<g id="Node000003" class="node">
<title>Node3</title>
<g id="a_Node000003"><a xlink:title=" ">
<polygon fill="white" stroke="transparent" points="196,-369 20,-369 20,-309 196,-309 196,-369"/>
<text text-anchor="start" x="25" y="-357" font-family="Helvetica,sans-Serif" font-size="10.00">std::vector&lt; std::vector</text>
<text text-anchor="start" x="25" y="-346" font-family="Helvetica,sans-Serif" font-size="10.00">&lt; Ptr&lt; cv::datasets::Object &gt; &gt; &gt;</text>
<text text-anchor="start" x="106" y="-331" font-family="Helvetica,sans-Serif" font-size="10.00"> </text>
<text text-anchor="start" x="106" y="-316" font-family="Helvetica,sans-Serif" font-size="10.00"> </text>
<polygon fill="#666666" stroke="#666666" points="20,-341 20,-341 196,-341 196,-341 20,-341"/>
<polygon fill="#666666" stroke="#666666" points="20,-326 20,-326 196,-326 196,-326 20,-326"/>
<polygon fill="none" stroke="#666666" points="20,-309 20,-369 196,-369 196,-309 20,-309"/>
</a>
</g>
</g>
<!-- Node3&#45;&gt;Node2 -->
<g id="edge2_Node000002_Node000003" class="edge">
<title>Node3&#45;&gt;Node2</title>
<g id="a_edge2_Node000002_Node000003"><a xlink:title=" ">
<path fill="none" stroke="#63b8ff" d="M108,-309C108,-293.18 108,-272.74 108,-252.48"/>
<polygon fill="none" stroke="#63b8ff" points="108,-252.27 104,-246.27 108,-240.27 112,-246.27 108,-252.27"/>
</a>
</g>
<text text-anchor="middle" x="137" y="-283" font-family="Helvetica,sans-Serif" font-size="10.00" fill="grey"> #test</text>
<text text-anchor="middle" x="137" y="-272" font-family="Helvetica,sans-Serif" font-size="10.00" fill="grey">#train</text>
<text text-anchor="middle" x="137" y="-261" font-family="Helvetica,sans-Serif" font-size="10.00" fill="grey">#validation</text>
</g>
<!-- Node4 -->
<g id="Node000004" class="node">
<title>Node4</title>
<g id="a_Node000004"><a xlink:title=" ">
<polygon fill="white" stroke="transparent" points="136,-487 0,-487 0,-427 136,-427 136,-487"/>
<text text-anchor="start" x="5" y="-475" font-family="Helvetica,sans-Serif" font-size="10.00">vector&lt; Ptr&lt; cv::datasets</text>
<text text-anchor="start" x="37.5" y="-464" font-family="Helvetica,sans-Serif" font-size="10.00">::Object &gt; &gt;</text>
<text text-anchor="start" x="66" y="-449" font-family="Helvetica,sans-Serif" font-size="10.00"> </text>
<text text-anchor="start" x="66" y="-434" font-family="Helvetica,sans-Serif" font-size="10.00"> </text>
<polygon fill="#666666" stroke="#666666" points="0,-459 0,-459 136,-459 136,-459 0,-459"/>
<polygon fill="#666666" stroke="#666666" points="0,-444 0,-444 136,-444 136,-444 0,-444"/>
<polygon fill="none" stroke="#666666" points="0,-427 0,-487 136,-487 136,-427 0,-427"/>
</a>
</g>
</g>
<!-- Node4&#45;&gt;Node3 -->
<g id="edge3_Node000003_Node000004" class="edge">
<title>Node4&#45;&gt;Node3</title>
<g id="a_edge3_Node000003_Node000004"><a xlink:title=" ">
<path fill="none" stroke="#63b8ff" d="M78.09,-426.73C82.88,-412.85 88.67,-396.04 93.89,-380.93"/>
<polygon fill="none" stroke="#63b8ff" points="94,-380.61 92.17,-373.63 97.91,-369.26 99.74,-376.24 94,-380.61"/>
</a>
</g>
<text text-anchor="middle" x="121" y="-395.5" font-family="Helvetica,sans-Serif" font-size="10.00" fill="grey"> +elements</text>
</g>
<!-- Node5 -->
<g id="Node000005" class="node">
<title>Node5</title>
<g id="a_Node000005"><a xlink:title=" ">
<polygon fill="white" stroke="transparent" points="245.5,-481.5 154.5,-481.5 154.5,-432.5 245.5,-432.5 245.5,-481.5"/>
<text text-anchor="start" x="160" y="-469" font-family="Helvetica,sans-Serif" font-size="10.00">std::vector&lt; T &gt;</text>
<text text-anchor="start" x="198.5" y="-454" font-family="Helvetica,sans-Serif" font-size="10.00"> </text>
<text text-anchor="start" x="198.5" y="-439" font-family="Helvetica,sans-Serif" font-size="10.00"> </text>
<polygon fill="#666666" stroke="#666666" points="155,-464 155,-464 246,-464 246,-464 155,-464"/>
<polygon fill="#666666" stroke="#666666" points="155,-449 155,-449 246,-449 246,-449 155,-449"/>
<polygon fill="none" stroke="#666666" points="154.5,-432.5 154.5,-481.5 245.5,-481.5 245.5,-432.5 154.5,-432.5"/>
</a>
</g>
</g>
<!-- Node5&#45;&gt;Node3 -->
<g id="edge4_Node000003_Node000005" class="edge">
<title>Node5&#45;&gt;Node3</title>
<g id="a_edge4_Node000003_Node000005"><a xlink:title=" ">
<path fill="none" stroke="orange" d="M179.19,-424.04C171.07,-412.14 161.45,-398.69 152,-387 147.22,-381.09 141.87,-375 136.6,-369.25"/>
<polygon fill="orange" stroke="orange" points="176.32,-426.05 184.81,-432.39 182.13,-422.14 176.32,-426.05"/>
</a>
</g>
<text text-anchor="start" x="167" y="-401" font-family="Helvetica,sans-Serif" font-size="10.00" fill="grey"> &lt; std::vector&lt; Ptr</text>
<text text-anchor="middle" x="238" y="-390" font-family="Helvetica,sans-Serif" font-size="10.00" fill="grey">&lt; cv::datasets::Object &gt; &gt; &gt;</text>
</g>
<!-- Node6 -->
<g id="Node000006" class="node">
<title>Node6</title>
<g id="a_Node000006"><a xlink:title=" ">
<polygon fill="white" stroke="transparent" points="208.5,-583 191.5,-583 191.5,-534 208.5,-534 208.5,-583"/>
<text text-anchor="start" x="197" y="-570.5" font-family="Helvetica,sans-Serif" font-size="10.00">T</text>
<text text-anchor="start" x="198.5" y="-555.5" font-family="Helvetica,sans-Serif" font-size="10.00"> </text>
<text text-anchor="start" x="198.5" y="-540.5" font-family="Helvetica,sans-Serif" font-size="10.00"> </text>
<polygon fill="#666666" stroke="#666666" points="192,-565.5 192,-565.5 209,-565.5 209,-565.5 192,-565.5"/>
<polygon fill="#666666" stroke="#666666" points="192,-550.5 192,-550.5 209,-550.5 209,-550.5 192,-550.5"/>
<polygon fill="none" stroke="#666666" points="191.5,-534 191.5,-583 208.5,-583 208.5,-534 191.5,-534"/>
</a>
</g>
</g>
<!-- Node6&#45;&gt;Node5 -->
<g id="edge5_Node000005_Node000006" class="edge">
<title>Node6&#45;&gt;Node5</title>
<g id="a_edge5_Node000005_Node000006"><a xlink:title=" ">
<path fill="none" stroke="#63b8ff" d="M200,-533.92C200,-521.99 200,-507.25 200,-493.94"/>
<polygon fill="none" stroke="#63b8ff" points="200,-493.76 196,-487.76 200,-481.76 204,-487.76 200,-493.76"/>
</a>
</g>
<text text-anchor="middle" x="229" y="-508" font-family="Helvetica,sans-Serif" font-size="10.00" fill="grey"> +elements</text>
</g>
</g>
</svg>
