<?xml version="1.0" encoding="UTF-8" standalone="no"?>
<!DOCTYPE svg PUBLIC "-//W3C//DTD SVG 1.1//EN"
 "http://www.w3.org/Graphics/SVG/1.1/DTD/svg11.dtd">
<!-- Generated by graphviz version 2.43.0 (0)
 -->
<!-- Title: cv::StereographicWarper Pages: 1 -->
<svg width="137pt" height="157pt"
 viewBox="0.00 0.00 137.00 157.00" xmlns="http://www.w3.org/2000/svg" xmlns:xlink="http://www.w3.org/1999/xlink">
<g id="graph0" class="graph" transform="scale(1 1) rotate(0) translate(4 153)">
<title>cv::StereographicWarper</title>
<!-- Node1 -->
<g id="Node000001" class="node">
<title>Node1</title>
<g id="a_Node000001"><a xlink:title=" ">
<polygon fill="#999999" stroke="transparent" points="129,-49 0,-49 0,0 129,0 129,-49"/>
<text text-anchor="start" x="5.5" y="-36.5" font-family="Helvetica,sans-Serif" font-size="10.00">cv::StereographicWarper</text>
<text text-anchor="start" x="63" y="-21.5" font-family="Helvetica,sans-Serif" font-size="10.00"> </text>
<text text-anchor="start" x="21.5" y="-6.5" font-family="Helvetica,sans-Serif" font-size="10.00">+</text>
<text text-anchor="start" x="51.5" y="-6.5" font-family="Helvetica,sans-Serif" font-size="10.00">create()</text>
<polygon fill="#666666" stroke="#666666" points="0.5,-31.5 0.5,-31.5 129.5,-31.5 129.5,-31.5 0.5,-31.5"/>
<polygon fill="#666666" stroke="#666666" points="0.5,-16.5 0.5,-16.5 129.5,-16.5 129.5,-16.5 0.5,-16.5"/>
<polygon fill="none" stroke="#666666" points="0,0 0,-49 129,-49 129,0 0,0"/>
</a>
</g>
</g>
<!-- Node2 -->
<g id="Node000002" class="node">
<title>Node2</title>
<g id="a_Node000002"><a xlink:href="../../d7/d1c/classcv_1_1WarperCreator.html" target="_top" xlink:title="Image warper factories base class.">
<polygon fill="white" stroke="transparent" points="118.5,-149 10.5,-149 10.5,-85 118.5,-85 118.5,-149"/>
<text text-anchor="start" x="20.5" y="-137" font-family="Helvetica,sans-Serif" font-size="10.00">cv::WarperCreator</text>
<text text-anchor="start" x="62.5" y="-122" font-family="Helvetica,sans-Serif" font-size="10.00"> </text>
<text text-anchor="start" x="14.5" y="-107" font-family="Helvetica,sans-Serif" font-size="10.00">+</text>
<text text-anchor="start" x="27.5" y="-107" font-family="Helvetica,sans-Serif" font-size="10.00">~WarperCreator()</text>
<text text-anchor="start" x="14.5" y="-92" font-family="Helvetica,sans-Serif" font-size="10.00">+</text>
<text text-anchor="start" x="27.5" y="-92" font-family="Helvetica,sans-Serif" font-size="10.00">create()</text>
<polygon fill="#666666" stroke="#666666" points="10.5,-132 10.5,-132 118.5,-132 118.5,-132 10.5,-132"/>
<polygon fill="#666666" stroke="#666666" points="10.5,-117 10.5,-117 118.5,-117 118.5,-117 10.5,-117"/>
<polygon fill="none" stroke="#666666" points="10.5,-85 10.5,-149 118.5,-149 118.5,-85 10.5,-85"/>
</a>
</g>
</g>
<!-- Node2&#45;&gt;Node1 -->
<g id="edge1_Node000001_Node000002" class="edge">
<title>Node2&#45;&gt;Node1</title>
<g id="a_edge1_Node000001_Node000002"><a xlink:title=" ">
<path fill="none" stroke="#63b8ff" d="M64.5,-74.77C64.5,-66.03 64.5,-57.09 64.5,-49.27"/>
<polygon fill="none" stroke="#63b8ff" points="61,-74.85 64.5,-84.86 68,-74.86 61,-74.85"/>
</a>
</g>
</g>
</g>
</svg>
