<?xml version="1.0" encoding="UTF-8" standalone="no"?>
<!DOCTYPE svg PUBLIC "-//W3C//DTD SVG 1.1//EN"
 "http://www.w3.org/Graphics/SVG/1.1/DTD/svg11.dtd">
<!-- Generated by graphviz version 2.43.0 (0)
 -->
<!-- Title: cv::datasets::tag Pages: 1 -->
<svg width="151pt" height="283pt"
 viewBox="0.00 0.00 151.00 283.00" xmlns="http://www.w3.org/2000/svg" xmlns:xlink="http://www.w3.org/1999/xlink">
<g id="graph0" class="graph" transform="scale(1 1) rotate(0) translate(4 279)">
<title>cv::datasets::tag</title>
<!-- Node1 -->
<g id="Node000001" class="node">
<title>Node1</title>
<g id="a_Node000001"><a xlink:title=" ">
<polygon fill="#999999" stroke="transparent" points="125.5,-49 34.5,-49 34.5,0 125.5,0 125.5,-49"/>
<text text-anchor="start" x="40" y="-36.5" font-family="Helvetica,sans-Serif" font-size="10.00">cv::datasets::tag</text>
<text text-anchor="start" x="78.5" y="-21.5" font-family="Helvetica,sans-Serif" font-size="10.00"> </text>
<text text-anchor="start" x="78.5" y="-6.5" font-family="Helvetica,sans-Serif" font-size="10.00"> </text>
<polygon fill="#666666" stroke="#666666" points="35,-31.5 35,-31.5 126,-31.5 126,-31.5 35,-31.5"/>
<polygon fill="#666666" stroke="#666666" points="35,-16.5 35,-16.5 126,-16.5 126,-16.5 35,-16.5"/>
<polygon fill="none" stroke="#666666" points="34.5,0 34.5,-49 125.5,-49 125.5,0 34.5,0"/>
</a>
</g>
</g>
<!-- Node2 -->
<g id="Node000002" class="node">
<title>Node2</title>
<g id="a_Node000002"><a xlink:title=" ">
<polygon fill="white" stroke="transparent" points="78.5,-178 19.5,-178 19.5,-129 78.5,-129 78.5,-178"/>
<text text-anchor="start" x="25" y="-165.5" font-family="Helvetica,sans-Serif" font-size="10.00">std::string</text>
<text text-anchor="start" x="47.5" y="-150.5" font-family="Helvetica,sans-Serif" font-size="10.00"> </text>
<text text-anchor="start" x="47.5" y="-135.5" font-family="Helvetica,sans-Serif" font-size="10.00"> </text>
<polygon fill="#666666" stroke="#666666" points="20,-160.5 20,-160.5 79,-160.5 79,-160.5 20,-160.5"/>
<polygon fill="#666666" stroke="#666666" points="20,-145.5 20,-145.5 79,-145.5 79,-145.5 20,-145.5"/>
<polygon fill="none" stroke="#666666" points="19.5,-129 19.5,-178 78.5,-178 78.5,-129 19.5,-129"/>
</a>
</g>
</g>
<!-- Node2&#45;&gt;Node1 -->
<g id="edge1_Node000001_Node000002" class="edge">
<title>Node2&#45;&gt;Node1</title>
<g id="a_edge1_Node000001_Node000002"><a xlink:title=" ">
<path fill="none" stroke="#63b8ff" d="M45.49,-128.64C43.81,-111.13 43.39,-87.02 50,-67 50.84,-64.46 51.89,-61.95 53.1,-59.49"/>
<polygon fill="none" stroke="#63b8ff" points="53.11,-59.47 52.71,-52.27 59.2,-49.13 59.6,-56.33 53.11,-59.47"/>
</a>
</g>
<text text-anchor="middle" x="69.5" y="-86.5" font-family="Helvetica,sans-Serif" font-size="10.00" fill="grey"> +value</text>
</g>
<!-- Node3 -->
<g id="Node000003" class="node">
<title>Node3</title>
<g id="a_Node000003"><a xlink:title=" ">
<polygon fill="white" stroke="transparent" points="98,-275 0,-275 0,-215 98,-215 98,-275"/>
<text text-anchor="start" x="5" y="-263" font-family="Helvetica,sans-Serif" font-size="10.00">std::basic_string&lt;</text>
<text text-anchor="start" x="30.5" y="-252" font-family="Helvetica,sans-Serif" font-size="10.00"> Char &gt;</text>
<text text-anchor="start" x="47" y="-237" font-family="Helvetica,sans-Serif" font-size="10.00"> </text>
<text text-anchor="start" x="47" y="-222" font-family="Helvetica,sans-Serif" font-size="10.00"> </text>
<polygon fill="#666666" stroke="#666666" points="0,-247 0,-247 98,-247 98,-247 0,-247"/>
<polygon fill="#666666" stroke="#666666" points="0,-232 0,-232 98,-232 98,-232 0,-232"/>
<polygon fill="none" stroke="#666666" points="0,-215 0,-275 98,-275 98,-215 0,-215"/>
</a>
</g>
</g>
<!-- Node3&#45;&gt;Node2 -->
<g id="edge2_Node000002_Node000003" class="edge">
<title>Node3&#45;&gt;Node2</title>
<g id="a_edge2_Node000002_Node000003"><a xlink:title=" ">
<path fill="none" stroke="#63b8ff" d="M49,-204.41C49,-195.47 49,-186.25 49,-178.21"/>
<polygon fill="none" stroke="#63b8ff" points="45.5,-204.69 49,-214.69 52.5,-204.69 45.5,-204.69"/>
</a>
</g>
</g>
<!-- Node4 -->
<g id="Node000004" class="node">
<title>Node4</title>
<g id="a_Node000004"><a xlink:title=" ">
<polygon fill="white" stroke="transparent" points="122.5,-178 99.5,-178 99.5,-129 122.5,-129 122.5,-178"/>
<text text-anchor="start" x="105" y="-165.5" font-family="Helvetica,sans-Serif" font-size="10.00">int</text>
<text text-anchor="start" x="109.5" y="-150.5" font-family="Helvetica,sans-Serif" font-size="10.00"> </text>
<text text-anchor="start" x="109.5" y="-135.5" font-family="Helvetica,sans-Serif" font-size="10.00"> </text>
<polygon fill="#666666" stroke="#666666" points="100,-160.5 100,-160.5 123,-160.5 123,-160.5 100,-160.5"/>
<polygon fill="#666666" stroke="#666666" points="100,-145.5 100,-145.5 123,-145.5 123,-145.5 100,-145.5"/>
<polygon fill="none" stroke="#666666" points="99.5,-129 99.5,-178 122.5,-178 122.5,-129 99.5,-129"/>
</a>
</g>
</g>
<!-- Node4&#45;&gt;Node1 -->
<g id="edge3_Node000001_Node000004" class="edge">
<title>Node4&#45;&gt;Node1</title>
<g id="a_edge3_Node000001_Node000004"><a xlink:title=" ">
<path fill="none" stroke="#63b8ff" d="M105.24,-128.91C100.59,-109.87 93.98,-82.79 88.69,-61.11"/>
<polygon fill="none" stroke="#63b8ff" points="88.68,-61.05 83.37,-56.17 85.83,-49.39 91.14,-54.28 88.68,-61.05"/>
</a>
</g>
<text text-anchor="middle" x="121.5" y="-103" font-family="Helvetica,sans-Serif" font-size="10.00" fill="grey"> +height</text>
<text text-anchor="middle" x="121.5" y="-92" font-family="Helvetica,sans-Serif" font-size="10.00" fill="grey">+width</text>
<text text-anchor="middle" x="121.5" y="-81" font-family="Helvetica,sans-Serif" font-size="10.00" fill="grey">+x</text>
<text text-anchor="middle" x="121.5" y="-70" font-family="Helvetica,sans-Serif" font-size="10.00" fill="grey">+y</text>
</g>
</g>
</svg>
