<?xml version="1.0" encoding="UTF-8" standalone="no"?>
<!DOCTYPE svg PUBLIC "-//W3C//DTD SVG 1.1//EN"
 "http://www.w3.org/Graphics/SVG/1.1/DTD/svg11.dtd">
<!-- Generated by graphviz version 2.43.0 (0)
 -->
<!-- Title: NCVVector&lt; T &gt; Pages: 1 -->
<svg width="207pt" height="243pt"
 viewBox="0.00 0.00 207.00 243.00" xmlns="http://www.w3.org/2000/svg" xmlns:xlink="http://www.w3.org/1999/xlink">
<g id="graph0" class="graph" transform="scale(1 1) rotate(0) translate(4 239)">
<title>NCVVector&lt; T &gt;</title>
<!-- Node1 -->
<g id="Node000001" class="node">
<title>Node1</title>
<g id="a_Node000001"><a xlink:title=" ">
<polygon fill="#999999" stroke="transparent" points="112,-139 21,-139 21,0 112,0 112,-139"/>
<text text-anchor="start" x="26.5" y="-126.5" font-family="Helvetica,sans-Serif" font-size="10.00">NCVVector&lt; T &gt;</text>
<text text-anchor="start" x="65" y="-111.5" font-family="Helvetica,sans-Serif" font-size="10.00"> </text>
<text text-anchor="start" x="26" y="-96.5" font-family="Helvetica,sans-Serif" font-size="10.00">+</text>
<text text-anchor="start" x="39.5" y="-96.5" font-family="Helvetica,sans-Serif" font-size="10.00">NCVVector()</text>
<text text-anchor="start" x="26" y="-81.5" font-family="Helvetica,sans-Serif" font-size="10.00">+</text>
<text text-anchor="start" x="39.5" y="-81.5" font-family="Helvetica,sans-Serif" font-size="10.00">~NCVVector()</text>
<text text-anchor="start" x="26" y="-66.5" font-family="Helvetica,sans-Serif" font-size="10.00">+</text>
<text text-anchor="start" x="39.5" y="-66.5" font-family="Helvetica,sans-Serif" font-size="10.00">clear()</text>
<text text-anchor="start" x="26" y="-51.5" font-family="Helvetica,sans-Serif" font-size="10.00">+</text>
<text text-anchor="start" x="39.5" y="-51.5" font-family="Helvetica,sans-Serif" font-size="10.00">copySolid()</text>
<text text-anchor="start" x="26" y="-36.5" font-family="Helvetica,sans-Serif" font-size="10.00">+</text>
<text text-anchor="start" x="39.5" y="-36.5" font-family="Helvetica,sans-Serif" font-size="10.00">length()</text>
<text text-anchor="start" x="26" y="-21.5" font-family="Helvetica,sans-Serif" font-size="10.00">+</text>
<text text-anchor="start" x="39.5" y="-21.5" font-family="Helvetica,sans-Serif" font-size="10.00">memType()</text>
<text text-anchor="start" x="26" y="-6.5" font-family="Helvetica,sans-Serif" font-size="10.00">+</text>
<text text-anchor="start" x="39.5" y="-6.5" font-family="Helvetica,sans-Serif" font-size="10.00">ptr()</text>
<polygon fill="#666666" stroke="#666666" points="21.5,-121.5 21.5,-121.5 112.5,-121.5 112.5,-121.5 21.5,-121.5"/>
<polygon fill="#666666" stroke="#666666" points="21.5,-106.5 21.5,-106.5 112.5,-106.5 112.5,-106.5 21.5,-106.5"/>
<polygon fill="none" stroke="#666666" points="21,0 21,-139 112,-139 112,0 21,0"/>
</a>
</g>
</g>
<!-- Node2 -->
<g id="Node000002" class="node">
<title>Node2</title>
<g id="a_Node000002"><a xlink:title=" ">
<polygon fill="white" stroke="transparent" points="25,-235 0,-235 0,-186 25,-186 25,-235"/>
<text text-anchor="start" x="5.5" y="-222.5" font-family="Helvetica,sans-Serif" font-size="10.00">T *</text>
<text text-anchor="start" x="11" y="-207.5" font-family="Helvetica,sans-Serif" font-size="10.00"> </text>
<text text-anchor="start" x="11" y="-192.5" font-family="Helvetica,sans-Serif" font-size="10.00"> </text>
<polygon fill="#666666" stroke="#666666" points="0.5,-217.5 0.5,-217.5 25.5,-217.5 25.5,-217.5 0.5,-217.5"/>
<polygon fill="#666666" stroke="#666666" points="0.5,-202.5 0.5,-202.5 25.5,-202.5 25.5,-202.5 0.5,-202.5"/>
<polygon fill="none" stroke="#666666" points="0,-186 0,-235 25,-235 25,-186 0,-186"/>
</a>
</g>
</g>
<!-- Node2&#45;&gt;Node1 -->
<g id="edge1_Node000001_Node000002" class="edge">
<title>Node2&#45;&gt;Node1</title>
<g id="a_edge1_Node000001_Node000002"><a xlink:title=" ">
<path fill="none" stroke="#63b8ff" d="M20.83,-185.91C24.08,-176.84 27.89,-166.41 31.5,-157 32.29,-154.93 33.1,-152.84 33.92,-150.73"/>
<polygon fill="none" stroke="#63b8ff" points="34,-150.52 32.46,-143.47 38.38,-139.34 39.91,-146.39 34,-150.52"/>
</a>
</g>
<text text-anchor="middle" x="47" y="-160" font-family="Helvetica,sans-Serif" font-size="10.00" fill="grey"> #_ptr</text>
</g>
<!-- Node3 -->
<g id="Node000003" class="node">
<title>Node3</title>
<g id="a_Node000003"><a xlink:title=" ">
<polygon fill="white" stroke="transparent" points="86,-235 47,-235 47,-186 86,-186 86,-235"/>
<text text-anchor="start" x="52.5" y="-222.5" font-family="Helvetica,sans-Serif" font-size="10.00">size_t</text>
<text text-anchor="start" x="65" y="-207.5" font-family="Helvetica,sans-Serif" font-size="10.00"> </text>
<text text-anchor="start" x="65" y="-192.5" font-family="Helvetica,sans-Serif" font-size="10.00"> </text>
<polygon fill="#666666" stroke="#666666" points="47.5,-217.5 47.5,-217.5 86.5,-217.5 86.5,-217.5 47.5,-217.5"/>
<polygon fill="#666666" stroke="#666666" points="47.5,-202.5 47.5,-202.5 86.5,-202.5 86.5,-202.5 47.5,-202.5"/>
<polygon fill="none" stroke="#666666" points="47,-186 47,-235 86,-235 86,-186 47,-186"/>
</a>
</g>
</g>
<!-- Node3&#45;&gt;Node1 -->
<g id="edge2_Node000001_Node000003" class="edge">
<title>Node3&#45;&gt;Node1</title>
<g id="a_edge2_Node000001_Node000003"><a xlink:title=" ">
<path fill="none" stroke="#63b8ff" d="M66.5,-185.92C66.5,-176.06 66.5,-163.97 66.5,-151.36"/>
<polygon fill="none" stroke="#63b8ff" points="66.5,-151.17 62.5,-145.17 66.5,-139.17 70.5,-145.17 66.5,-151.17"/>
</a>
</g>
<text text-anchor="middle" x="90.5" y="-160" font-family="Helvetica,sans-Serif" font-size="10.00" fill="grey"> #_length</text>
</g>
<!-- Node4 -->
<g id="Node000004" class="node">
<title>Node4</title>
<g id="a_Node000004"><a xlink:title=" ">
<polygon fill="white" stroke="transparent" points="199,-235 104,-235 104,-186 199,-186 199,-235"/>
<text text-anchor="start" x="109.5" y="-222.5" font-family="Helvetica,sans-Serif" font-size="10.00">NCVMemoryType</text>
<text text-anchor="start" x="150" y="-207.5" font-family="Helvetica,sans-Serif" font-size="10.00"> </text>
<text text-anchor="start" x="150" y="-192.5" font-family="Helvetica,sans-Serif" font-size="10.00"> </text>
<polygon fill="#666666" stroke="#666666" points="104.5,-217.5 104.5,-217.5 199.5,-217.5 199.5,-217.5 104.5,-217.5"/>
<polygon fill="#666666" stroke="#666666" points="104.5,-202.5 104.5,-202.5 199.5,-202.5 199.5,-202.5 104.5,-202.5"/>
<polygon fill="none" stroke="#666666" points="104,-186 104,-235 199,-235 199,-186 104,-186"/>
</a>
</g>
</g>
<!-- Node4&#45;&gt;Node1 -->
<g id="edge3_Node000001_Node000004" class="edge">
<title>Node4&#45;&gt;Node1</title>
<g id="a_edge3_Node000001_Node000004"><a xlink:title=" ">
<path fill="none" stroke="#63b8ff" d="M137.08,-185.92C130.8,-175.65 123.04,-162.96 114.99,-149.8"/>
<polygon fill="none" stroke="#63b8ff" points="114.75,-149.41 108.21,-146.38 108.49,-139.17 115.04,-142.2 114.75,-149.41"/>
</a>
</g>
<text text-anchor="middle" x="155.5" y="-160" font-family="Helvetica,sans-Serif" font-size="10.00" fill="grey"> #_memtype</text>
</g>
</g>
</svg>
