<?xml version="1.0" encoding="UTF-8" standalone="no"?>
<!DOCTYPE svg PUBLIC "-//W3C//DTD SVG 1.1//EN"
 "http://www.w3.org/Graphics/SVG/1.1/DTD/svg11.dtd">
<!-- Generated by graphviz version 2.43.0 (0)
 -->
<!-- Title: opencv2/cudev/ptr2d/mask.hpp Pages: 1 -->
<svg width="1673pt" height="357pt"
 viewBox="0.00 0.00 1673.00 357.00" xmlns="http://www.w3.org/2000/svg" xmlns:xlink="http://www.w3.org/1999/xlink">
<g id="graph0" class="graph" transform="scale(1 1) rotate(0) translate(4 353)">
<title>opencv2/cudev/ptr2d/mask.hpp</title>
<!-- Node1 -->
<g id="Node000001" class="node">
<title>Node1</title>
<g id="a_Node000001"><a xlink:title=" ">
<polygon fill="#999999" stroke="#666666" points="1416.5,-349 1297.5,-349 1297.5,-319 1416.5,-319 1416.5,-349"/>
<text text-anchor="start" x="1305.5" y="-337" font-family="Helvetica,sans-Serif" font-size="10.00">opencv2/cudev/ptr2d</text>
<text text-anchor="middle" x="1357" y="-326" font-family="Helvetica,sans-Serif" font-size="10.00">/mask.hpp</text>
</a>
</g>
</g>
<!-- Node2 -->
<g id="Node000002" class="node">
<title>Node2</title>
<g id="a_Node000002"><a xlink:href="../../d6/d38/cudev_8hpp.html" target="_top" xlink:title=" ">
<polygon fill="white" stroke="#666666" points="741,-19 631,-19 631,0 741,0 741,-19"/>
<text text-anchor="middle" x="686" y="-7" font-family="Helvetica,sans-Serif" font-size="10.00">opencv2/cudev.hpp</text>
</a>
</g>
</g>
<!-- Node1&#45;&gt;Node2 -->
<g id="edge1_Node000001_Node000002" class="edge">
<title>Node1&#45;&gt;Node2</title>
<g id="a_edge1_Node000001_Node000002"><a xlink:title=" ">
<path fill="none" stroke="#63b8ff" d="M1286.93,-332.6C1129.9,-330.97 738.04,-322.89 413,-283 227.43,-260.22 0,-389.97 0,-203 0,-203 0,-203 0,-135 0,-90.56 20.98,-76.27 60,-55 109.45,-28.04 487.33,-15.6 630.9,-11.81"/>
<polygon fill="#63b8ff" stroke="#63b8ff" points="1287.35,-336.1 1297.38,-332.7 1287.42,-329.1 1287.35,-336.1"/>
</a>
</g>
</g>
<!-- Node3 -->
<g id="Node000003" class="node">
<title>Node3</title>
<g id="a_Node000003"><a xlink:href="../../d7/deb/copy_8hpp.html" target="_top" xlink:title=" ">
<polygon fill="white" stroke="#666666" points="534,-283 422,-283 422,-253 534,-253 534,-283"/>
<text text-anchor="start" x="430" y="-271" font-family="Helvetica,sans-Serif" font-size="10.00">opencv2/cudev/grid</text>
<text text-anchor="middle" x="478" y="-260" font-family="Helvetica,sans-Serif" font-size="10.00">/copy.hpp</text>
</a>
</g>
</g>
<!-- Node1&#45;&gt;Node3 -->
<g id="edge2_Node000001_Node000003" class="edge">
<title>Node1&#45;&gt;Node3</title>
<g id="a_edge2_Node000001_Node000003"><a xlink:title=" ">
<path fill="none" stroke="#63b8ff" d="M1287.23,-327.92C1117.99,-315.6 688.23,-284.31 534.09,-273.08"/>
<polygon fill="#63b8ff" stroke="#63b8ff" points="1287.05,-331.42 1297.27,-328.65 1287.55,-324.43 1287.05,-331.42"/>
</a>
</g>
</g>
<!-- Node18 -->
<g id="Node000018" class="node">
<title>Node18</title>
<g id="a_Node000018"><a xlink:href="../../d4/d25/contrib_2modules_2cudev_2include_2opencv2_2cudev_2grid_2reduce_8hpp.html" target="_top" xlink:title=" ">
<polygon fill="white" stroke="#666666" points="1283,-151 1171,-151 1171,-121 1283,-121 1283,-151"/>
<text text-anchor="start" x="1179" y="-139" font-family="Helvetica,sans-Serif" font-size="10.00">opencv2/cudev/grid</text>
<text text-anchor="middle" x="1227" y="-128" font-family="Helvetica,sans-Serif" font-size="10.00">/reduce.hpp</text>
</a>
</g>
</g>
<!-- Node1&#45;&gt;Node18 -->
<g id="edge42_Node000001_Node000018" class="edge">
<title>Node1&#45;&gt;Node18</title>
<g id="a_edge42_Node000001_Node000018"><a xlink:title=" ">
<path fill="none" stroke="#63b8ff" d="M1342.05,-310.46C1315.02,-269.71 1258.78,-184.91 1236.44,-151.23"/>
<polygon fill="#63b8ff" stroke="#63b8ff" points="1339.21,-312.51 1347.65,-318.9 1345.04,-308.64 1339.21,-312.51"/>
</a>
</g>
</g>
<!-- Node20 -->
<g id="Node000020" class="node">
<title>Node20</title>
<g id="a_Node000020"><a xlink:href="../../d5/d6e/histogram_8hpp.html" target="_top" xlink:title=" ">
<polygon fill="white" stroke="#666666" points="1413,-151 1301,-151 1301,-121 1413,-121 1413,-151"/>
<text text-anchor="start" x="1309" y="-139" font-family="Helvetica,sans-Serif" font-size="10.00">opencv2/cudev/grid</text>
<text text-anchor="middle" x="1357" y="-128" font-family="Helvetica,sans-Serif" font-size="10.00">/histogram.hpp</text>
</a>
</g>
</g>
<!-- Node1&#45;&gt;Node20 -->
<g id="edge39_Node000001_Node000020" class="edge">
<title>Node1&#45;&gt;Node20</title>
<g id="a_edge39_Node000001_Node000020"><a xlink:title=" ">
<path fill="none" stroke="#63b8ff" d="M1357,-308.89C1357,-267.58 1357,-184.48 1357,-151.23"/>
<polygon fill="#63b8ff" stroke="#63b8ff" points="1353.5,-308.9 1357,-318.9 1360.5,-308.9 1353.5,-308.9"/>
</a>
</g>
</g>
<!-- Node21 -->
<g id="Node000021" class="node">
<title>Node21</title>
<g id="a_Node000021"><a xlink:href="../../d3/ddc/reduce__to__vec_8hpp.html" target="_top" xlink:title=" ">
<polygon fill="white" stroke="#666666" points="1543,-151 1431,-151 1431,-121 1543,-121 1543,-151"/>
<text text-anchor="start" x="1439" y="-139" font-family="Helvetica,sans-Serif" font-size="10.00">opencv2/cudev/grid</text>
<text text-anchor="middle" x="1487" y="-128" font-family="Helvetica,sans-Serif" font-size="10.00">/reduce_to_vec.hpp</text>
</a>
</g>
</g>
<!-- Node1&#45;&gt;Node21 -->
<g id="edge43_Node000001_Node000021" class="edge">
<title>Node1&#45;&gt;Node21</title>
<g id="a_edge43_Node000001_Node000021"><a xlink:title=" ">
<path fill="none" stroke="#63b8ff" d="M1371.95,-310.46C1398.98,-269.71 1455.22,-184.91 1477.56,-151.23"/>
<polygon fill="#63b8ff" stroke="#63b8ff" points="1368.96,-308.64 1366.35,-318.9 1374.79,-312.51 1368.96,-308.64"/>
</a>
</g>
</g>
<!-- Node22 -->
<g id="Node000022" class="node">
<title>Node22</title>
<g id="a_Node000022"><a xlink:href="../../d6/d56/split__merge_8hpp.html" target="_top" xlink:title=" ">
<polygon fill="white" stroke="#666666" points="1535,-283 1423,-283 1423,-253 1535,-253 1535,-283"/>
<text text-anchor="start" x="1431" y="-271" font-family="Helvetica,sans-Serif" font-size="10.00">opencv2/cudev/grid</text>
<text text-anchor="middle" x="1479" y="-260" font-family="Helvetica,sans-Serif" font-size="10.00">/split_merge.hpp</text>
</a>
</g>
</g>
<!-- Node1&#45;&gt;Node22 -->
<g id="edge46_Node000001_Node000022" class="edge">
<title>Node1&#45;&gt;Node22</title>
<g id="a_edge46_Node000001_Node000022"><a xlink:title=" ">
<path fill="none" stroke="#63b8ff" d="M1392.76,-314.24C1411.8,-304.25 1434.82,-292.18 1452.29,-283.01"/>
<polygon fill="#63b8ff" stroke="#63b8ff" points="1391,-311.21 1383.77,-318.95 1394.25,-317.41 1391,-311.21"/>
</a>
</g>
</g>
<!-- Node23 -->
<g id="Node000023" class="node">
<title>Node23</title>
<g id="a_Node000023"><a xlink:href="../../dc/df5/contrib_2modules_2cudev_2include_2opencv2_2cudev_2grid_2transform_8hpp.html" target="_top" xlink:title=" ">
<polygon fill="white" stroke="#666666" points="1665,-283 1553,-283 1553,-253 1665,-253 1665,-283"/>
<text text-anchor="start" x="1561" y="-271" font-family="Helvetica,sans-Serif" font-size="10.00">opencv2/cudev/grid</text>
<text text-anchor="middle" x="1609" y="-260" font-family="Helvetica,sans-Serif" font-size="10.00">/transform.hpp</text>
</a>
</g>
</g>
<!-- Node1&#45;&gt;Node23 -->
<g id="edge48_Node000001_Node000023" class="edge">
<title>Node1&#45;&gt;Node23</title>
<g id="a_edge48_Node000001_Node000023"><a xlink:title=" ">
<path fill="none" stroke="#63b8ff" d="M1422.16,-316.45C1462.99,-306.08 1515.04,-292.86 1553.83,-283.01"/>
<polygon fill="#63b8ff" stroke="#63b8ff" points="1421.13,-313.1 1412.3,-318.95 1422.86,-319.89 1421.13,-313.1"/>
</a>
</g>
</g>
<!-- Node3&#45;&gt;Node2 -->
<g id="edge3_Node000003_Node000002" class="edge">
<title>Node3&#45;&gt;Node2</title>
<g id="a_edge3_Node000003_Node000002"><a xlink:title=" ">
<path fill="none" stroke="#63b8ff" d="M411.59,-259.22C303.1,-244.9 96,-210.29 57,-151 49.67,-139.86 54.34,-134.07 57,-121 63.35,-89.78 59.1,-73.56 85,-55 128.77,-23.64 490.83,-13.94 630.93,-11.34"/>
<polygon fill="#63b8ff" stroke="#63b8ff" points="411.4,-262.72 421.77,-260.54 412.31,-255.78 411.4,-262.72"/>
</a>
</g>
</g>
<!-- Node4 -->
<g id="Node000004" class="node">
<title>Node4</title>
<g id="a_Node000004"><a xlink:href="../../dd/da3/ptr2d_2deriv_8hpp.html" target="_top" xlink:title=" ">
<polygon fill="white" stroke="#666666" points="185.5,-151 66.5,-151 66.5,-121 185.5,-121 185.5,-151"/>
<text text-anchor="start" x="74.5" y="-139" font-family="Helvetica,sans-Serif" font-size="10.00">opencv2/cudev/ptr2d</text>
<text text-anchor="middle" x="126" y="-128" font-family="Helvetica,sans-Serif" font-size="10.00">/deriv.hpp</text>
</a>
</g>
</g>
<!-- Node3&#45;&gt;Node4 -->
<g id="edge4_Node000003_Node000004" class="edge">
<title>Node3&#45;&gt;Node4</title>
<g id="a_edge4_Node000003_Node000004"><a xlink:title=" ">
<path fill="none" stroke="#63b8ff" d="M411.99,-254.81C372.16,-246.43 320.81,-233.77 277,-217 229.34,-198.76 177.56,-168.92 148.71,-151.3"/>
<polygon fill="#63b8ff" stroke="#63b8ff" points="411.36,-258.26 421.86,-256.85 412.78,-251.4 411.36,-258.26"/>
</a>
</g>
</g>
<!-- Node6 -->
<g id="Node000006" class="node">
<title>Node6</title>
<g id="a_Node000006"><a xlink:href="../../d7/d32/lut_8hpp.html" target="_top" xlink:title=" ">
<polygon fill="white" stroke="#666666" points="625.5,-217 506.5,-217 506.5,-187 625.5,-187 625.5,-217"/>
<text text-anchor="start" x="514.5" y="-205" font-family="Helvetica,sans-Serif" font-size="10.00">opencv2/cudev/ptr2d</text>
<text text-anchor="middle" x="566" y="-194" font-family="Helvetica,sans-Serif" font-size="10.00">/lut.hpp</text>
</a>
</g>
</g>
<!-- Node3&#45;&gt;Node6 -->
<g id="edge8_Node000003_Node000006" class="edge">
<title>Node3&#45;&gt;Node6</title>
<g id="a_edge8_Node000003_Node000006"><a xlink:title=" ">
<path fill="none" stroke="#63b8ff" d="M505.84,-246.75C519.07,-237.13 534.57,-225.86 546.52,-217.16"/>
<polygon fill="#63b8ff" stroke="#63b8ff" points="503.56,-244.08 497.53,-252.8 507.68,-249.75 503.56,-244.08"/>
</a>
</g>
</g>
<!-- Node8 -->
<g id="Node000008" class="node">
<title>Node8</title>
<g id="a_Node000008"><a xlink:href="../../d1/d59/remap_8hpp.html" target="_top" xlink:title=" ">
<polygon fill="white" stroke="#666666" points="405.5,-217 286.5,-217 286.5,-187 405.5,-187 405.5,-217"/>
<text text-anchor="start" x="294.5" y="-205" font-family="Helvetica,sans-Serif" font-size="10.00">opencv2/cudev/ptr2d</text>
<text text-anchor="middle" x="346" y="-194" font-family="Helvetica,sans-Serif" font-size="10.00">/remap.hpp</text>
</a>
</g>
</g>
<!-- Node3&#45;&gt;Node8 -->
<g id="edge12_Node000003_Node000008" class="edge">
<title>Node3&#45;&gt;Node8</title>
<g id="a_edge12_Node000003_Node000008"><a xlink:title=" ">
<path fill="none" stroke="#63b8ff" d="M439.87,-248.51C419.16,-238.47 393.97,-226.26 374.9,-217.01"/>
<polygon fill="#63b8ff" stroke="#63b8ff" points="438.51,-251.74 449.03,-252.95 441.56,-245.44 438.51,-251.74"/>
</a>
</g>
</g>
<!-- Node11 -->
<g id="Node000011" class="node">
<title>Node11</title>
<g id="a_Node000011"><a xlink:href="../../dc/d12/resize_8hpp.html" target="_top" xlink:title=" ">
<polygon fill="white" stroke="#666666" points="537.5,-151 418.5,-151 418.5,-121 537.5,-121 537.5,-151"/>
<text text-anchor="start" x="426.5" y="-139" font-family="Helvetica,sans-Serif" font-size="10.00">opencv2/cudev/ptr2d</text>
<text text-anchor="middle" x="478" y="-128" font-family="Helvetica,sans-Serif" font-size="10.00">/resize.hpp</text>
</a>
</g>
</g>
<!-- Node3&#45;&gt;Node11 -->
<g id="edge19_Node000003_Node000011" class="edge">
<title>Node3&#45;&gt;Node11</title>
<g id="a_edge19_Node000003_Node000011"><a xlink:title=" ">
<path fill="none" stroke="#63b8ff" d="M478,-242.68C478,-215.7 478,-173.11 478,-151.14"/>
<polygon fill="#63b8ff" stroke="#63b8ff" points="474.5,-242.84 478,-252.84 481.5,-242.84 474.5,-242.84"/>
</a>
</g>
</g>
<!-- Node12 -->
<g id="Node000012" class="node">
<title>Node12</title>
<g id="a_Node000012"><a xlink:href="../../dc/d14/contrib_2modules_2cudev_2include_2opencv2_2cudev_2ptr2d_2transform_8hpp.html" target="_top" xlink:title=" ">
<polygon fill="white" stroke="#666666" points="945.5,-217 826.5,-217 826.5,-187 945.5,-187 945.5,-217"/>
<text text-anchor="start" x="834.5" y="-205" font-family="Helvetica,sans-Serif" font-size="10.00">opencv2/cudev/ptr2d</text>
<text text-anchor="middle" x="886" y="-194" font-family="Helvetica,sans-Serif" font-size="10.00">/transform.hpp</text>
</a>
</g>
</g>
<!-- Node3&#45;&gt;Node12 -->
<g id="edge22_Node000003_Node000012" class="edge">
<title>Node3&#45;&gt;Node12</title>
<g id="a_edge22_Node000003_Node000012"><a xlink:title=" ">
<path fill="none" stroke="#63b8ff" d="M544.52,-256.57C622.68,-244.3 751.22,-224.14 826.3,-212.36"/>
<polygon fill="#63b8ff" stroke="#63b8ff" points="543.64,-253.16 534.3,-258.17 544.72,-260.08 543.64,-253.16"/>
</a>
</g>
</g>
<!-- Node4&#45;&gt;Node2 -->
<g id="edge5_Node000004_Node000002" class="edge">
<title>Node4&#45;&gt;Node2</title>
<g id="a_edge5_Node000004_Node000002"><a xlink:title=" ">
<path fill="none" stroke="#63b8ff" d="M106.05,-112.86C92.68,-95.31 80.03,-71.14 95,-55 130.99,-16.2 490.89,-11.02 630.79,-10.49"/>
<polygon fill="#63b8ff" stroke="#63b8ff" points="103.53,-115.32 112.55,-120.88 108.97,-110.91 103.53,-115.32"/>
</a>
</g>
</g>
<!-- Node5 -->
<g id="Node000005" class="node">
<title>Node5</title>
<g id="a_Node000005"><a xlink:href="../../df/d27/expr_2deriv_8hpp.html" target="_top" xlink:title=" ">
<polygon fill="white" stroke="#666666" points="219.5,-85 104.5,-85 104.5,-55 219.5,-55 219.5,-85"/>
<text text-anchor="start" x="112.5" y="-73" font-family="Helvetica,sans-Serif" font-size="10.00">opencv2/cudev/expr</text>
<text text-anchor="middle" x="162" y="-62" font-family="Helvetica,sans-Serif" font-size="10.00">/deriv.hpp</text>
</a>
</g>
</g>
<!-- Node4&#45;&gt;Node5 -->
<g id="edge6_Node000004_Node000005" class="edge">
<title>Node4&#45;&gt;Node5</title>
<g id="a_edge6_Node000004_Node000005"><a xlink:title=" ">
<path fill="none" stroke="#63b8ff" d="M138.96,-111.96C144,-103 149.61,-93.03 154.03,-85.16"/>
<polygon fill="#63b8ff" stroke="#63b8ff" points="135.84,-110.36 133.99,-120.8 141.94,-113.8 135.84,-110.36"/>
</a>
</g>
</g>
<!-- Node5&#45;&gt;Node2 -->
<g id="edge7_Node000005_Node000002" class="edge">
<title>Node5&#45;&gt;Node2</title>
<g id="a_edge7_Node000005_Node000002"><a xlink:title=" ">
<path fill="none" stroke="#63b8ff" d="M229.59,-55.67C231.07,-55.44 232.54,-55.21 234,-55 376.39,-34.19 545.48,-20.44 630.83,-14.25"/>
<polygon fill="#63b8ff" stroke="#63b8ff" points="228.99,-52.22 219.69,-57.29 230.12,-59.12 228.99,-52.22"/>
</a>
</g>
</g>
<!-- Node6&#45;&gt;Node2 -->
<g id="edge9_Node000006_Node000002" class="edge">
<title>Node6&#45;&gt;Node2</title>
<g id="a_edge9_Node000006_Node000002"><a xlink:title=" ">
<path fill="none" stroke="#63b8ff" d="M560.45,-176.67C551.83,-137.69 536.93,-64.63 544,-55 563.81,-28.04 599.91,-16.97 630.76,-12.61"/>
<polygon fill="#63b8ff" stroke="#63b8ff" points="557.09,-177.69 562.69,-186.68 563.92,-176.16 557.09,-177.69"/>
</a>
</g>
</g>
<!-- Node7 -->
<g id="Node000007" class="node">
<title>Node7</title>
<g id="a_Node000007"><a xlink:href="../../dd/d7e/per__element__func_8hpp.html" target="_top" xlink:title=" ">
<polygon fill="white" stroke="#666666" points="722,-151 594,-151 594,-121 722,-121 722,-151"/>
<text text-anchor="start" x="602" y="-139" font-family="Helvetica,sans-Serif" font-size="10.00">opencv2/cudev/expr</text>
<text text-anchor="middle" x="658" y="-128" font-family="Helvetica,sans-Serif" font-size="10.00">/per_element_func.hpp</text>
</a>
</g>
</g>
<!-- Node6&#45;&gt;Node7 -->
<g id="edge10_Node000006_Node000007" class="edge">
<title>Node6&#45;&gt;Node7</title>
<g id="a_edge10_Node000006_Node000007"><a xlink:title=" ">
<path fill="none" stroke="#63b8ff" d="M594.71,-181.03C608.63,-171.34 625.03,-159.94 637.64,-151.16"/>
<polygon fill="#63b8ff" stroke="#63b8ff" points="592.63,-178.21 586.42,-186.8 596.63,-183.96 592.63,-178.21"/>
</a>
</g>
</g>
<!-- Node7&#45;&gt;Node2 -->
<g id="edge11_Node000007_Node000002" class="edge">
<title>Node7&#45;&gt;Node2</title>
<g id="a_edge11_Node000007_Node000002"><a xlink:title=" ">
<path fill="none" stroke="#63b8ff" d="M602.54,-117.15C568.22,-103.04 534.03,-81.35 553,-55 570.71,-30.4 602.65,-19.2 630.79,-14.19"/>
<polygon fill="#63b8ff" stroke="#63b8ff" points="601.59,-120.54 612.17,-120.93 604.14,-114.02 601.59,-120.54"/>
</a>
</g>
</g>
<!-- Node8&#45;&gt;Node2 -->
<g id="edge13_Node000008_Node000002" class="edge">
<title>Node8&#45;&gt;Node2</title>
<g id="a_edge13_Node000008_Node000002"><a xlink:title=" ">
<path fill="none" stroke="#63b8ff" d="M276.79,-184.93C259.62,-177.51 243.22,-166.7 233,-151 203.74,-106.05 289.65,-55.19 290,-55 347.83,-24.51 536.12,-14.79 630.71,-11.78"/>
<polygon fill="#63b8ff" stroke="#63b8ff" points="275.79,-188.3 286.37,-188.72 278.36,-181.79 275.79,-188.3"/>
</a>
</g>
</g>
<!-- Node9 -->
<g id="Node000009" class="node">
<title>Node9</title>
<g id="a_Node000009"><a xlink:href="../../d7/d51/expr_2warping_8hpp.html" target="_top" xlink:title=" ">
<polygon fill="white" stroke="#666666" points="429.5,-85 314.5,-85 314.5,-55 429.5,-55 429.5,-85"/>
<text text-anchor="start" x="322.5" y="-73" font-family="Helvetica,sans-Serif" font-size="10.00">opencv2/cudev/expr</text>
<text text-anchor="middle" x="372" y="-62" font-family="Helvetica,sans-Serif" font-size="10.00">/warping.hpp</text>
</a>
</g>
</g>
<!-- Node8&#45;&gt;Node9 -->
<g id="edge14_Node000008_Node000009" class="edge">
<title>Node8&#45;&gt;Node9</title>
<g id="a_edge14_Node000008_Node000009"><a xlink:title=" ">
<path fill="none" stroke="#63b8ff" d="M359.65,-177.79C363.78,-169.6 367.8,-160.15 370,-151 375.43,-128.44 374.63,-101.27 373.41,-85.11"/>
<polygon fill="#63b8ff" stroke="#63b8ff" points="356.5,-176.27 354.86,-186.73 362.67,-179.57 356.5,-176.27"/>
</a>
</g>
</g>
<!-- Node10 -->
<g id="Node000010" class="node">
<title>Node10</title>
<g id="a_Node000010"><a xlink:href="../../db/ddb/ptr2d_2warping_8hpp.html" target="_top" xlink:title=" ">
<polygon fill="white" stroke="#666666" points="361.5,-151 242.5,-151 242.5,-121 361.5,-121 361.5,-151"/>
<text text-anchor="start" x="250.5" y="-139" font-family="Helvetica,sans-Serif" font-size="10.00">opencv2/cudev/ptr2d</text>
<text text-anchor="middle" x="302" y="-128" font-family="Helvetica,sans-Serif" font-size="10.00">/warping.hpp</text>
</a>
</g>
</g>
<!-- Node8&#45;&gt;Node10 -->
<g id="edge16_Node000008_Node000010" class="edge">
<title>Node8&#45;&gt;Node10</title>
<g id="a_edge16_Node000008_Node000010"><a xlink:title=" ">
<path fill="none" stroke="#63b8ff" d="M330.55,-178.53C324.29,-169.43 317.26,-159.19 311.74,-151.16"/>
<polygon fill="#63b8ff" stroke="#63b8ff" points="327.69,-180.54 336.23,-186.8 333.45,-176.57 327.69,-180.54"/>
</a>
</g>
</g>
<!-- Node9&#45;&gt;Node2 -->
<g id="edge15_Node000009_Node000002" class="edge">
<title>Node9&#45;&gt;Node2</title>
<g id="a_edge15_Node000009_Node000002"><a xlink:title=" ">
<path fill="none" stroke="#63b8ff" d="M439.62,-55.83C441.09,-55.55 442.55,-55.27 444,-55 511.58,-42.22 589.87,-27.91 638.67,-19.06"/>
<polygon fill="#63b8ff" stroke="#63b8ff" points="438.92,-52.4 429.76,-57.72 440.24,-59.28 438.92,-52.4"/>
</a>
</g>
</g>
<!-- Node10&#45;&gt;Node2 -->
<g id="edge17_Node000010_Node000002" class="edge">
<title>Node10&#45;&gt;Node2</title>
<g id="a_edge17_Node000010_Node000002"><a xlink:title=" ">
<path fill="none" stroke="#63b8ff" d="M295.37,-110.63C292.16,-92.93 291.49,-69.62 305,-55 326.72,-31.49 530.69,-18.2 630.93,-13.03"/>
<polygon fill="#63b8ff" stroke="#63b8ff" points="292.04,-111.77 297.6,-120.79 298.88,-110.28 292.04,-111.77"/>
</a>
</g>
</g>
<!-- Node10&#45;&gt;Node9 -->
<g id="edge18_Node000010_Node000009" class="edge">
<title>Node10&#45;&gt;Node9</title>
<g id="a_edge18_Node000010_Node000009"><a xlink:title=" ">
<path fill="none" stroke="#63b8ff" d="M325.05,-113.92C335.37,-104.49 347.27,-93.61 356.51,-85.16"/>
<polygon fill="#63b8ff" stroke="#63b8ff" points="322.55,-111.47 317.54,-120.8 327.28,-116.63 322.55,-111.47"/>
</a>
</g>
</g>
<!-- Node11&#45;&gt;Node2 -->
<g id="edge20_Node000011_Node000002" class="edge">
<title>Node11&#45;&gt;Node2</title>
<g id="a_edge20_Node000011_Node000002"><a xlink:title=" ">
<path fill="none" stroke="#63b8ff" d="M472.1,-110.66C469.4,-93.17 469.19,-70.11 482,-55 500.92,-32.67 577.16,-20.8 630.86,-15.09"/>
<polygon fill="#63b8ff" stroke="#63b8ff" points="468.71,-111.54 474.01,-120.71 475.58,-110.23 468.71,-111.54"/>
</a>
</g>
</g>
<!-- Node11&#45;&gt;Node9 -->
<g id="edge21_Node000011_Node000009" class="edge">
<title>Node11&#45;&gt;Node9</title>
<g id="a_edge21_Node000011_Node000009"><a xlink:title=" ">
<path fill="none" stroke="#63b8ff" d="M446.03,-115.69C429.66,-105.82 410.11,-94.01 395.21,-85.01"/>
<polygon fill="#63b8ff" stroke="#63b8ff" points="444.37,-118.78 454.74,-120.95 447.99,-112.79 444.37,-118.78"/>
</a>
</g>
</g>
<!-- Node12&#45;&gt;Node2 -->
<g id="edge23_Node000012_Node000002" class="edge">
<title>Node12&#45;&gt;Node2</title>
<g id="a_edge23_Node000012_Node000002"><a xlink:title=" ">
<path fill="none" stroke="#63b8ff" d="M946.15,-183.84C1021.63,-159.45 1135.45,-111.39 1085,-55 1062.49,-29.84 845.5,-17.27 741.31,-12.65"/>
<polygon fill="#63b8ff" stroke="#63b8ff" points="944.71,-180.63 936.23,-186.98 946.82,-187.3 944.71,-180.63"/>
</a>
</g>
</g>
<!-- Node12&#45;&gt;Node7 -->
<g id="edge30_Node000012_Node000007" class="edge">
<title>Node12&#45;&gt;Node7</title>
<g id="a_edge30_Node000012_Node000007"><a xlink:title=" ">
<path fill="none" stroke="#63b8ff" d="M825.87,-184.12C789.11,-173.8 742.64,-160.76 707.92,-151.01"/>
<polygon fill="#63b8ff" stroke="#63b8ff" points="825.39,-187.62 835.96,-186.95 827.28,-180.88 825.39,-187.62"/>
</a>
</g>
</g>
<!-- Node13 -->
<g id="Node000013" class="node">
<title>Node13</title>
<g id="a_Node000013"><a xlink:href="../../d3/d3c/binary__func_8hpp.html" target="_top" xlink:title=" ">
<polygon fill="white" stroke="#666666" points="1248.5,-85 1133.5,-85 1133.5,-55 1248.5,-55 1248.5,-85"/>
<text text-anchor="start" x="1141.5" y="-73" font-family="Helvetica,sans-Serif" font-size="10.00">opencv2/cudev/expr</text>
<text text-anchor="middle" x="1191" y="-62" font-family="Helvetica,sans-Serif" font-size="10.00">/binary_func.hpp</text>
</a>
</g>
</g>
<!-- Node12&#45;&gt;Node13 -->
<g id="edge24_Node000012_Node000013" class="edge">
<title>Node12&#45;&gt;Node13</title>
<g id="a_edge24_Node000012_Node000013"><a xlink:title=" ">
<path fill="none" stroke="#63b8ff" d="M955.73,-197.33C1004.28,-192.17 1069.02,-179.93 1119,-151 1147.3,-134.62 1170.55,-103.25 1182.44,-85.04"/>
<polygon fill="#63b8ff" stroke="#63b8ff" points="955.24,-193.86 945.63,-198.33 955.92,-200.83 955.24,-193.86"/>
</a>
</g>
</g>
<!-- Node14 -->
<g id="Node000014" class="node">
<title>Node14</title>
<g id="a_Node000014"><a xlink:href="../../d7/d8d/binary__op_8hpp.html" target="_top" xlink:title=" ">
<polygon fill="white" stroke="#666666" points="677.5,-85 562.5,-85 562.5,-55 677.5,-55 677.5,-85"/>
<text text-anchor="start" x="570.5" y="-73" font-family="Helvetica,sans-Serif" font-size="10.00">opencv2/cudev/expr</text>
<text text-anchor="middle" x="620" y="-62" font-family="Helvetica,sans-Serif" font-size="10.00">/binary_op.hpp</text>
</a>
</g>
</g>
<!-- Node12&#45;&gt;Node14 -->
<g id="edge26_Node000012_Node000014" class="edge">
<title>Node12&#45;&gt;Node14</title>
<g id="a_edge26_Node000012_Node000014"><a xlink:title=" ">
<path fill="none" stroke="#63b8ff" d="M850.72,-182.11C819.48,-165.55 772.52,-141.05 731,-121 704.92,-108.41 674.97,-94.97 652.75,-85.21"/>
<polygon fill="#63b8ff" stroke="#63b8ff" points="849.41,-185.38 859.89,-186.98 852.7,-179.2 849.41,-185.38"/>
</a>
</g>
</g>
<!-- Node15 -->
<g id="Node000015" class="node">
<title>Node15</title>
<g id="a_Node000015"><a xlink:href="../../dc/d7a/contrib_2modules_2cudev_2include_2opencv2_2cudev_2expr_2color_8hpp.html" target="_top" xlink:title=" ">
<polygon fill="white" stroke="#666666" points="810.5,-85 695.5,-85 695.5,-55 810.5,-55 810.5,-85"/>
<text text-anchor="start" x="703.5" y="-73" font-family="Helvetica,sans-Serif" font-size="10.00">opencv2/cudev/expr</text>
<text text-anchor="middle" x="753" y="-62" font-family="Helvetica,sans-Serif" font-size="10.00">/color.hpp</text>
</a>
</g>
</g>
<!-- Node12&#45;&gt;Node15 -->
<g id="edge28_Node000012_Node000015" class="edge">
<title>Node12&#45;&gt;Node15</title>
<g id="a_edge28_Node000012_Node000015"><a xlink:title=" ">
<path fill="none" stroke="#63b8ff" d="M864.35,-179.84C837.04,-153.15 790.84,-107.99 767.47,-85.14"/>
<polygon fill="#63b8ff" stroke="#63b8ff" points="861.92,-182.35 871.51,-186.84 866.81,-177.35 861.92,-182.35"/>
</a>
</g>
</g>
<!-- Node16 -->
<g id="Node000016" class="node">
<title>Node16</title>
<g id="a_Node000016"><a xlink:href="../../da/d71/unary__func_8hpp.html" target="_top" xlink:title=" ">
<polygon fill="white" stroke="#666666" points="943.5,-85 828.5,-85 828.5,-55 943.5,-55 943.5,-85"/>
<text text-anchor="start" x="836.5" y="-73" font-family="Helvetica,sans-Serif" font-size="10.00">opencv2/cudev/expr</text>
<text text-anchor="middle" x="886" y="-62" font-family="Helvetica,sans-Serif" font-size="10.00">/unary_func.hpp</text>
</a>
</g>
</g>
<!-- Node12&#45;&gt;Node16 -->
<g id="edge31_Node000012_Node000016" class="edge">
<title>Node12&#45;&gt;Node16</title>
<g id="a_edge31_Node000012_Node000016"><a xlink:title=" ">
<path fill="none" stroke="#63b8ff" d="M886,-176.68C886,-149.7 886,-107.11 886,-85.14"/>
<polygon fill="#63b8ff" stroke="#63b8ff" points="882.5,-176.84 886,-186.84 889.5,-176.84 882.5,-176.84"/>
</a>
</g>
</g>
<!-- Node17 -->
<g id="Node000017" class="node">
<title>Node17</title>
<g id="a_Node000017"><a xlink:href="../../da/d1f/unary__op_8hpp.html" target="_top" xlink:title=" ">
<polygon fill="white" stroke="#666666" points="1076.5,-85 961.5,-85 961.5,-55 1076.5,-55 1076.5,-85"/>
<text text-anchor="start" x="969.5" y="-73" font-family="Helvetica,sans-Serif" font-size="10.00">opencv2/cudev/expr</text>
<text text-anchor="middle" x="1019" y="-62" font-family="Helvetica,sans-Serif" font-size="10.00">/unary_op.hpp</text>
</a>
</g>
</g>
<!-- Node12&#45;&gt;Node17 -->
<g id="edge33_Node000012_Node000017" class="edge">
<title>Node12&#45;&gt;Node17</title>
<g id="a_edge33_Node000012_Node000017"><a xlink:title=" ">
<path fill="none" stroke="#63b8ff" d="M907.65,-179.84C934.96,-153.15 981.16,-107.99 1004.53,-85.14"/>
<polygon fill="#63b8ff" stroke="#63b8ff" points="905.19,-177.35 900.49,-186.84 910.08,-182.35 905.19,-177.35"/>
</a>
</g>
</g>
<!-- Node12&#45;&gt;Node18 -->
<g id="edge35_Node000012_Node000018" class="edge">
<title>Node12&#45;&gt;Node18</title>
<g id="a_edge35_Node000012_Node000018"><a xlink:title=" ">
<path fill="none" stroke="#63b8ff" d="M955.47,-188.48C1010.25,-178.53 1088.55,-164.16 1157,-151 1161.5,-150.13 1166.17,-149.23 1170.85,-148.31"/>
<polygon fill="#63b8ff" stroke="#63b8ff" points="954.74,-185.05 945.52,-190.28 955.99,-191.94 954.74,-185.05"/>
</a>
</g>
</g>
<!-- Node13&#45;&gt;Node2 -->
<g id="edge25_Node000013_Node000002" class="edge">
<title>Node13&#45;&gt;Node2</title>
<g id="a_edge25_Node000013_Node000002"><a xlink:title=" ">
<path fill="none" stroke="#63b8ff" d="M1123.41,-55.67C1121.93,-55.44 1120.46,-55.22 1119,-55 983.89,-34.96 823.71,-21.04 741.22,-14.58"/>
<polygon fill="#63b8ff" stroke="#63b8ff" points="1122.87,-59.13 1133.31,-57.31 1124.01,-52.23 1122.87,-59.13"/>
</a>
</g>
</g>
<!-- Node14&#45;&gt;Node2 -->
<g id="edge27_Node000014_Node000002" class="edge">
<title>Node14&#45;&gt;Node2</title>
<g id="a_edge27_Node000014_Node000002"><a xlink:title=" ">
<path fill="none" stroke="#63b8ff" d="M643.74,-47.96C654.89,-38.07 667.57,-26.83 676.11,-19.27"/>
<polygon fill="#63b8ff" stroke="#63b8ff" points="641.14,-45.59 635.98,-54.84 645.78,-50.82 641.14,-45.59"/>
</a>
</g>
</g>
<!-- Node15&#45;&gt;Node2 -->
<g id="edge29_Node000015_Node000002" class="edge">
<title>Node15&#45;&gt;Node2</title>
<g id="a_edge29_Node000015_Node000002"><a xlink:title=" ">
<path fill="none" stroke="#63b8ff" d="M729.23,-48.24C717.83,-38.29 704.79,-26.91 696.04,-19.27"/>
<polygon fill="#63b8ff" stroke="#63b8ff" points="726.95,-50.9 736.78,-54.84 731.55,-45.63 726.95,-50.9"/>
</a>
</g>
</g>
<!-- Node16&#45;&gt;Node2 -->
<g id="edge32_Node000016_Node000002" class="edge">
<title>Node16&#45;&gt;Node2</title>
<g id="a_edge32_Node000016_Node000002"><a xlink:title=" ">
<path fill="none" stroke="#63b8ff" d="M828.42,-52.16C791.39,-41.33 744.84,-27.71 715.24,-19.05"/>
<polygon fill="#63b8ff" stroke="#63b8ff" points="827.51,-55.54 838.1,-54.99 829.48,-48.82 827.51,-55.54"/>
</a>
</g>
</g>
<!-- Node17&#45;&gt;Node2 -->
<g id="edge34_Node000017_Node000002" class="edge">
<title>Node17&#45;&gt;Node2</title>
<g id="a_edge34_Node000017_Node000002"><a xlink:title=" ">
<path fill="none" stroke="#63b8ff" d="M951.17,-54.89C872.3,-40.19 792.53,-27.19 740.88,-19.02"/>
<polygon fill="#63b8ff" stroke="#63b8ff" points="950.81,-58.38 961.29,-56.79 952.1,-51.5 950.81,-58.38"/>
</a>
</g>
</g>
<!-- Node18&#45;&gt;Node2 -->
<g id="edge36_Node000018_Node000002" class="edge">
<title>Node18&#45;&gt;Node2</title>
<g id="a_edge36_Node000018_Node000002"><a xlink:title=" ">
<path fill="none" stroke="#63b8ff" d="M1246.52,-112.84C1259.58,-95.27 1271.89,-71.09 1257,-55 1222.42,-17.62 877.48,-11.57 741.09,-10.64"/>
<polygon fill="#63b8ff" stroke="#63b8ff" points="1243.63,-110.85 1240.17,-120.86 1249.12,-115.2 1243.63,-110.85"/>
</a>
</g>
</g>
<!-- Node19 -->
<g id="Node000019" class="node">
<title>Node19</title>
<g id="a_Node000019"><a xlink:href="../../d2/da5/reduction_8hpp.html" target="_top" xlink:title=" ">
<polygon fill="white" stroke="#666666" points="1420.5,-85 1305.5,-85 1305.5,-55 1420.5,-55 1420.5,-85"/>
<text text-anchor="start" x="1313.5" y="-73" font-family="Helvetica,sans-Serif" font-size="10.00">opencv2/cudev/expr</text>
<text text-anchor="middle" x="1363" y="-62" font-family="Helvetica,sans-Serif" font-size="10.00">/reduction.hpp</text>
</a>
</g>
</g>
<!-- Node18&#45;&gt;Node19 -->
<g id="edge37_Node000018_Node000019" class="edge">
<title>Node18&#45;&gt;Node19</title>
<g id="a_edge37_Node000018_Node000019"><a xlink:title=" ">
<path fill="none" stroke="#63b8ff" d="M1266,-116.65C1287.39,-106.58 1313.49,-94.3 1333.22,-85.01"/>
<polygon fill="#63b8ff" stroke="#63b8ff" points="1264.4,-113.53 1256.85,-120.95 1267.38,-119.86 1264.4,-113.53"/>
</a>
</g>
</g>
<!-- Node19&#45;&gt;Node2 -->
<g id="edge38_Node000019_Node000002" class="edge">
<title>Node19&#45;&gt;Node2</title>
<g id="a_edge38_Node000019_Node000002"><a xlink:title=" ">
<path fill="none" stroke="#63b8ff" d="M1295.42,-55.62C1293.93,-55.4 1292.46,-55.19 1291,-55 1089.52,-28.1 847.97,-16.47 741.28,-12.37"/>
<polygon fill="#63b8ff" stroke="#63b8ff" points="1294.91,-59.08 1305.33,-57.16 1295.99,-52.16 1294.91,-59.08"/>
</a>
</g>
</g>
<!-- Node20&#45;&gt;Node2 -->
<g id="edge40_Node000020_Node000002" class="edge">
<title>Node20&#45;&gt;Node2</title>
<g id="a_edge40_Node000020_Node000002"><a xlink:title=" ">
<path fill="none" stroke="#63b8ff" d="M1393.67,-115.72C1420.18,-99.37 1448.22,-75.41 1429,-55 1405.47,-30.01 909.05,-15.85 741.03,-11.75"/>
<polygon fill="#63b8ff" stroke="#63b8ff" points="1391.64,-112.85 1384.81,-120.95 1395.2,-118.88 1391.64,-112.85"/>
</a>
</g>
</g>
<!-- Node20&#45;&gt;Node19 -->
<g id="edge41_Node000020_Node000019" class="edge">
<title>Node20&#45;&gt;Node19</title>
<g id="a_edge41_Node000020_Node000019"><a xlink:title=" ">
<path fill="none" stroke="#63b8ff" d="M1359.27,-110.83C1360.08,-102.17 1360.97,-92.7 1361.67,-85.16"/>
<polygon fill="#63b8ff" stroke="#63b8ff" points="1355.78,-110.51 1358.33,-120.8 1362.75,-111.17 1355.78,-110.51"/>
</a>
</g>
</g>
<!-- Node21&#45;&gt;Node2 -->
<g id="edge44_Node000021_Node000002" class="edge">
<title>Node21&#45;&gt;Node2</title>
<g id="a_edge44_Node000021_Node000002"><a xlink:title=" ">
<path fill="none" stroke="#63b8ff" d="M1481.87,-110.98C1476.53,-92.35 1466.16,-67.63 1447,-55 1388.5,-16.44 906.12,-11.22 741.11,-10.57"/>
<polygon fill="#63b8ff" stroke="#63b8ff" points="1478.53,-112.04 1484.41,-120.85 1485.31,-110.3 1478.53,-112.04"/>
</a>
</g>
</g>
<!-- Node21&#45;&gt;Node19 -->
<g id="edge45_Node000021_Node000019" class="edge">
<title>Node21&#45;&gt;Node19</title>
<g id="a_edge45_Node000021_Node000019"><a xlink:title=" ">
<path fill="none" stroke="#63b8ff" d="M1450.66,-116.24C1431.3,-106.25 1407.9,-94.18 1390.15,-85.01"/>
<polygon fill="#63b8ff" stroke="#63b8ff" points="1449.3,-119.48 1459.79,-120.95 1452.51,-113.26 1449.3,-119.48"/>
</a>
</g>
</g>
<!-- Node22&#45;&gt;Node2 -->
<g id="edge47_Node000022_Node000002" class="edge">
<title>Node22&#45;&gt;Node2</title>
<g id="a_edge47_Node000022_Node000002"><a xlink:title=" ">
<path fill="none" stroke="#63b8ff" d="M1498.08,-245.2C1515.98,-223.17 1541.53,-187.29 1552,-151 1567.24,-98.18 1525.07,-75.36 1474,-55 1406.46,-28.08 909.24,-15.21 741.26,-11.6"/>
<polygon fill="#63b8ff" stroke="#63b8ff" points="1495.34,-243.01 1491.64,-252.94 1500.72,-247.49 1495.34,-243.01"/>
</a>
</g>
</g>
<!-- Node23&#45;&gt;Node2 -->
<g id="edge49_Node000023_Node000002" class="edge">
<title>Node23&#45;&gt;Node2</title>
<g id="a_edge49_Node000023_Node000002"><a xlink:title=" ">
<path fill="none" stroke="#63b8ff" d="M1607.61,-242.69C1603.37,-195.14 1586.22,-91.32 1517,-55 1448.67,-19.15 915.72,-12.14 741.15,-10.81"/>
<polygon fill="#63b8ff" stroke="#63b8ff" points="1604.12,-243.02 1608.38,-252.72 1611.1,-242.48 1604.12,-243.02"/>
</a>
</g>
</g>
</g>
</svg>
