<?xml version="1.0" encoding="UTF-8" standalone="no"?>
<!DOCTYPE svg PUBLIC "-//W3C//DTD SVG 1.1//EN"
 "http://www.w3.org/Graphics/SVG/1.1/DTD/svg11.dtd">
<!-- Generated by graphviz version 2.43.0 (0)
 -->
<!-- Title: opencv2/core/affine.hpp Pages: 1 -->
<svg width="1868pt" height="324pt"
 viewBox="0.00 0.00 1868.00 324.00" xmlns="http://www.w3.org/2000/svg" xmlns:xlink="http://www.w3.org/1999/xlink">
<g id="graph0" class="graph" transform="scale(1 1) rotate(0) translate(4 320)">
<title>opencv2/core/affine.hpp</title>
<!-- Node1 -->
<g id="Node000001" class="node">
<title>Node1</title>
<g id="a_Node000001"><a xlink:title=" ">
<polygon fill="#999999" stroke="#666666" points="1261.5,-316 1127.5,-316 1127.5,-297 1261.5,-297 1261.5,-316"/>
<text text-anchor="middle" x="1194.5" y="-304" font-family="Helvetica,sans-Serif" font-size="10.00">opencv2/core/affine.hpp</text>
</a>
</g>
</g>
<!-- Node2 -->
<g id="Node000002" class="node">
<title>Node2</title>
<g id="a_Node000002"><a xlink:href="../../d2/d28/calib3d_8hpp.html" target="_top" xlink:title=" ">
<polygon fill="white" stroke="#666666" points="509,-261 392,-261 392,-242 509,-242 509,-261"/>
<text text-anchor="middle" x="450.5" y="-249" font-family="Helvetica,sans-Serif" font-size="10.00">opencv2/calib3d.hpp</text>
</a>
</g>
</g>
<!-- Node1&#45;&gt;Node2 -->
<g id="edge1_Node000001_Node000002" class="edge">
<title>Node1&#45;&gt;Node2</title>
<g id="a_edge1_Node000001_Node000002"><a xlink:title=" ">
<path fill="none" stroke="#63b8ff" d="M1117.49,-300.01C968.21,-289.38 642.46,-266.17 509.15,-256.68"/>
<polygon fill="#63b8ff" stroke="#63b8ff" points="1117.27,-303.51 1127.49,-300.73 1117.77,-296.52 1117.27,-303.51"/>
</a>
</g>
</g>
<!-- Node10 -->
<g id="Node000010" class="node">
<title>Node10</title>
<g id="a_Node000010"><a xlink:href="../../db/d62/omnidir_8hpp.html" target="_top" xlink:title=" ">
<polygon fill="white" stroke="#666666" points="883.5,-261 733.5,-261 733.5,-242 883.5,-242 883.5,-261"/>
<text text-anchor="middle" x="808.5" y="-249" font-family="Helvetica,sans-Serif" font-size="10.00">opencv2/ccalib/omnidir.hpp</text>
</a>
</g>
</g>
<!-- Node1&#45;&gt;Node10 -->
<g id="edge9_Node000001_Node000010" class="edge">
<title>Node1&#45;&gt;Node10</title>
<g id="a_edge9_Node000001_Node000010"><a xlink:title=" ">
<path fill="none" stroke="#63b8ff" d="M1122.52,-295.62C1050.06,-285.67 939.44,-270.48 870.68,-261.04"/>
<polygon fill="#63b8ff" stroke="#63b8ff" points="1122.1,-299.09 1132.48,-296.98 1123.05,-292.16 1122.1,-299.09"/>
</a>
</g>
</g>
<!-- Node12 -->
<g id="Node000012" class="node">
<title>Node12</title>
<g id="a_Node000012"><a xlink:href="../../d2/dfa/dualquaternion_8hpp.html" target="_top" xlink:title=" ">
<polygon fill="white" stroke="#666666" points="1081,-261 902,-261 902,-242 1081,-242 1081,-261"/>
<text text-anchor="middle" x="991.5" y="-249" font-family="Helvetica,sans-Serif" font-size="10.00">opencv2/core/dualquaternion.hpp</text>
</a>
</g>
</g>
<!-- Node1&#45;&gt;Node12 -->
<g id="edge11_Node000001_Node000012" class="edge">
<title>Node1&#45;&gt;Node12</title>
<g id="a_edge11_Node000001_Node000012"><a xlink:title=" ">
<path fill="none" stroke="#63b8ff" d="M1152.13,-294.44C1114.13,-284.52 1059.14,-270.16 1024.37,-261.08"/>
<polygon fill="#63b8ff" stroke="#63b8ff" points="1151.32,-297.84 1161.88,-296.98 1153.09,-291.07 1151.32,-297.84"/>
</a>
</g>
</g>
<!-- Node13 -->
<g id="Node000013" class="node">
<title>Node13</title>
<g id="a_Node000013"><a xlink:href="../../dd/dc8/colored__kinfu_8hpp.html" target="_top" xlink:title=" ">
<polygon fill="white" stroke="#666666" points="1509.5,-206 1387.5,-206 1387.5,-176 1509.5,-176 1509.5,-206"/>
<text text-anchor="start" x="1395.5" y="-194" font-family="Helvetica,sans-Serif" font-size="10.00">opencv2/rgbd/colored</text>
<text text-anchor="middle" x="1448.5" y="-183" font-family="Helvetica,sans-Serif" font-size="10.00">_kinfu.hpp</text>
</a>
</g>
</g>
<!-- Node1&#45;&gt;Node13 -->
<g id="edge12_Node000001_Node000013" class="edge">
<title>Node1&#45;&gt;Node13</title>
<g id="a_edge12_Node000001_Node000013"><a xlink:title=" ">
<path fill="none" stroke="#63b8ff" d="M1271.93,-300.92C1311.43,-295.6 1358.75,-284.39 1395.5,-261 1416.91,-247.37 1433.04,-221.92 1441.61,-206.02"/>
<polygon fill="#63b8ff" stroke="#63b8ff" points="1271.3,-297.47 1261.81,-302.18 1272.17,-304.42 1271.3,-297.47"/>
</a>
</g>
</g>
<!-- Node15 -->
<g id="Node000015" class="node">
<title>Node15</title>
<g id="a_Node000015"><a xlink:href="../../d1/da6/pose__graph_8hpp.html" target="_top" xlink:title=" ">
<polygon fill="white" stroke="#666666" points="1538,-140 1425,-140 1425,-110 1538,-110 1538,-140"/>
<text text-anchor="start" x="1433" y="-128" font-family="Helvetica,sans-Serif" font-size="10.00">opencv2/rgbd/detail</text>
<text text-anchor="middle" x="1481.5" y="-117" font-family="Helvetica,sans-Serif" font-size="10.00">/pose_graph.hpp</text>
</a>
</g>
</g>
<!-- Node1&#45;&gt;Node15 -->
<g id="edge14_Node000001_Node000015" class="edge">
<title>Node1&#45;&gt;Node15</title>
<g id="a_edge14_Node000001_Node000015"><a xlink:title=" ">
<path fill="none" stroke="#63b8ff" d="M1272.04,-296.26C1316.18,-289.5 1371.98,-278.41 1419.5,-261 1466.76,-243.68 1492.97,-249.38 1518.5,-206 1531.54,-183.84 1511.53,-156.31 1496.23,-140.01"/>
<polygon fill="#63b8ff" stroke="#63b8ff" points="1271.33,-292.83 1261.95,-297.76 1272.36,-299.75 1271.33,-292.83"/>
</a>
</g>
</g>
<!-- Node16 -->
<g id="Node000016" class="node">
<title>Node16</title>
<g id="a_Node000016"><a xlink:href="../../dc/dcf/dynafu_8hpp.html" target="_top" xlink:title=" ">
<polygon fill="white" stroke="#666666" points="1245.5,-134.5 1105.5,-134.5 1105.5,-115.5 1245.5,-115.5 1245.5,-134.5"/>
<text text-anchor="middle" x="1175.5" y="-122.5" font-family="Helvetica,sans-Serif" font-size="10.00">opencv2/rgbd/dynafu.hpp</text>
</a>
</g>
</g>
<!-- Node1&#45;&gt;Node16 -->
<g id="edge16_Node000001_Node000016" class="edge">
<title>Node1&#45;&gt;Node16</title>
<g id="a_edge16_Node000001_Node000016"><a xlink:title=" ">
<path fill="none" stroke="#63b8ff" d="M1173.51,-291.06C1150.57,-273.87 1115.14,-242.81 1100.5,-206 1095.57,-193.61 1094.21,-187.76 1100.5,-176 1111.28,-155.86 1134.16,-142.43 1151.83,-134.6"/>
<polygon fill="#63b8ff" stroke="#63b8ff" points="1171.47,-293.91 1181.62,-296.96 1175.59,-288.25 1171.47,-293.91"/>
</a>
</g>
</g>
<!-- Node17 -->
<g id="Node000017" class="node">
<title>Node17</title>
<g id="a_Node000017"><a xlink:href="../../d9/dc4/kinfu_8hpp.html" target="_top" xlink:title=" ">
<polygon fill="white" stroke="#666666" points="1241,-200.5 1110,-200.5 1110,-181.5 1241,-181.5 1241,-200.5"/>
<text text-anchor="middle" x="1175.5" y="-188.5" font-family="Helvetica,sans-Serif" font-size="10.00">opencv2/rgbd/kinfu.hpp</text>
</a>
</g>
</g>
<!-- Node1&#45;&gt;Node17 -->
<g id="edge18_Node000001_Node000017" class="edge">
<title>Node1&#45;&gt;Node17</title>
<g id="a_edge18_Node000001_Node000017"><a xlink:title=" ">
<path fill="none" stroke="#63b8ff" d="M1191.4,-286.99C1187.24,-262.13 1180.01,-218.96 1176.94,-200.63"/>
<polygon fill="#63b8ff" stroke="#63b8ff" points="1187.97,-287.68 1193.07,-296.97 1194.87,-286.53 1187.97,-287.68"/>
</a>
</g>
</g>
<!-- Node18 -->
<g id="Node000018" class="node">
<title>Node18</title>
<g id="a_Node000018"><a xlink:href="../../d1/db8/large__kinfu_8hpp.html" target="_top" xlink:title=" ">
<polygon fill="white" stroke="#666666" points="1369.5,-206 1259.5,-206 1259.5,-176 1369.5,-176 1369.5,-206"/>
<text text-anchor="start" x="1267.5" y="-194" font-family="Helvetica,sans-Serif" font-size="10.00">opencv2/rgbd/large</text>
<text text-anchor="middle" x="1314.5" y="-183" font-family="Helvetica,sans-Serif" font-size="10.00">_kinfu.hpp</text>
</a>
</g>
</g>
<!-- Node1&#45;&gt;Node18 -->
<g id="edge21_Node000001_Node000018" class="edge">
<title>Node1&#45;&gt;Node18</title>
<g id="a_edge21_Node000001_Node000018"><a xlink:title=" ">
<path fill="none" stroke="#63b8ff" d="M1202.66,-287.54C1209.49,-273.9 1220.25,-255.28 1233.5,-242 1248.21,-227.26 1268.06,-214.92 1284.43,-206.18"/>
<polygon fill="#63b8ff" stroke="#63b8ff" points="1199.37,-286.3 1198.22,-296.83 1205.69,-289.31 1199.37,-286.3"/>
</a>
</g>
</g>
<!-- Node19 -->
<g id="Node000019" class="node">
<title>Node19</title>
<g id="a_Node000019"><a xlink:href="../../d9/d6b/volume_8hpp.html" target="_top" xlink:title=" ">
<polygon fill="white" stroke="#666666" points="1386,-261 1243,-261 1243,-242 1386,-242 1386,-261"/>
<text text-anchor="middle" x="1314.5" y="-249" font-family="Helvetica,sans-Serif" font-size="10.00">opencv2/rgbd/volume.hpp</text>
</a>
</g>
</g>
<!-- Node1&#45;&gt;Node19 -->
<g id="edge23_Node000001_Node000019" class="edge">
<title>Node1&#45;&gt;Node19</title>
<g id="a_edge23_Node000001_Node000019"><a xlink:title=" ">
<path fill="none" stroke="#63b8ff" d="M1223.03,-292.9C1245.2,-283.11 1275.35,-269.79 1294.87,-261.17"/>
<polygon fill="#63b8ff" stroke="#63b8ff" points="1221.51,-289.74 1213.78,-296.98 1224.34,-296.15 1221.51,-289.74"/>
</a>
</g>
</g>
<!-- Node20 -->
<g id="Node000020" class="node">
<title>Node20</title>
<g id="a_Node000020"><a xlink:href="../../d3/d0e/contrib_2modules_2viz_2include_2opencv2_2viz_2types_8hpp.html" target="_top" xlink:title=" ">
<polygon fill="white" stroke="#666666" points="1691.5,-261 1565.5,-261 1565.5,-242 1691.5,-242 1691.5,-261"/>
<text text-anchor="middle" x="1628.5" y="-249" font-family="Helvetica,sans-Serif" font-size="10.00">opencv2/viz/types.hpp</text>
</a>
</g>
</g>
<!-- Node1&#45;&gt;Node20 -->
<g id="edge27_Node000001_Node000020" class="edge">
<title>Node1&#45;&gt;Node20</title>
<g id="a_edge27_Node000001_Node000020"><a xlink:title=" ">
<path fill="none" stroke="#63b8ff" d="M1271.8,-296.06C1355.51,-285.84 1487.47,-269.72 1565.24,-260.22"/>
<polygon fill="#63b8ff" stroke="#63b8ff" points="1271.34,-292.59 1261.84,-297.28 1272.19,-299.54 1271.34,-292.59"/>
</a>
</g>
</g>
<!-- Node3 -->
<g id="Node000003" class="node">
<title>Node3</title>
<g id="a_Node000003"><a xlink:href="../../d7/de4/calib3d_2calib3d_8hpp.html" target="_top" xlink:title=" ">
<polygon fill="white" stroke="#666666" points="155,-200.5 0,-200.5 0,-181.5 155,-181.5 155,-200.5"/>
<text text-anchor="middle" x="77.5" y="-188.5" font-family="Helvetica,sans-Serif" font-size="10.00">opencv2/calib3d/calib3d.hpp</text>
</a>
</g>
</g>
<!-- Node2&#45;&gt;Node3 -->
<g id="edge2_Node000002_Node000003" class="edge">
<title>Node2&#45;&gt;Node3</title>
<g id="a_edge2_Node000002_Node000003"><a xlink:title=" ">
<path fill="none" stroke="#63b8ff" d="M385,-240.41C327.02,-231.45 240.12,-217.97 164.5,-206 153.47,-204.25 141.66,-202.37 130.4,-200.56"/>
<polygon fill="#63b8ff" stroke="#63b8ff" points="384.71,-243.9 395.12,-241.97 385.78,-236.99 384.71,-243.9"/>
</a>
</g>
</g>
<!-- Node4 -->
<g id="Node000004" class="node">
<title>Node4</title>
<g id="a_Node000004"><a xlink:href="../../d6/d01/ccalib_8hpp.html" target="_top" xlink:title=" ">
<polygon fill="white" stroke="#666666" points="283.5,-200.5 173.5,-200.5 173.5,-181.5 283.5,-181.5 283.5,-200.5"/>
<text text-anchor="middle" x="228.5" y="-188.5" font-family="Helvetica,sans-Serif" font-size="10.00">opencv2/ccalib.hpp</text>
</a>
</g>
</g>
<!-- Node2&#45;&gt;Node4 -->
<g id="edge3_Node000002_Node000004" class="edge">
<title>Node2&#45;&gt;Node4</title>
<g id="a_edge3_Node000002_Node000004"><a xlink:title=" ">
<path fill="none" stroke="#63b8ff" d="M408.36,-239.4C365.44,-228.08 299.8,-210.79 260.82,-200.52"/>
<polygon fill="#63b8ff" stroke="#63b8ff" points="407.66,-242.83 418.22,-241.99 409.44,-236.06 407.66,-242.83"/>
</a>
</g>
</g>
<!-- Node5 -->
<g id="Node000005" class="node">
<title>Node5</title>
<g id="a_Node000005"><a xlink:href="../../d8/d60/cudastereo_8hpp.html" target="_top" xlink:title=" ">
<polygon fill="white" stroke="#666666" points="437.5,-200.5 301.5,-200.5 301.5,-181.5 437.5,-181.5 437.5,-200.5"/>
<text text-anchor="middle" x="369.5" y="-188.5" font-family="Helvetica,sans-Serif" font-size="10.00">opencv2/cudastereo.hpp</text>
</a>
</g>
</g>
<!-- Node2&#45;&gt;Node5 -->
<g id="edge4_Node000002_Node000005" class="edge">
<title>Node2&#45;&gt;Node5</title>
<g id="a_edge4_Node000002_Node000005"><a xlink:title=" ">
<path fill="none" stroke="#63b8ff" d="M430.21,-235.85C414.87,-224.77 394.32,-209.93 381.5,-200.67"/>
<polygon fill="#63b8ff" stroke="#63b8ff" points="428.39,-238.85 438.55,-241.87 432.49,-233.18 428.39,-238.85"/>
</a>
</g>
</g>
<!-- Node6 -->
<g id="Node000006" class="node">
<title>Node6</title>
<g id="a_Node000006"><a xlink:href="../../d5/de0/sinusoidalpattern_8hpp.html" target="_top" xlink:title=" ">
<polygon fill="white" stroke="#666666" points="607.5,-206 455.5,-206 455.5,-176 607.5,-176 607.5,-206"/>
<text text-anchor="start" x="463.5" y="-194" font-family="Helvetica,sans-Serif" font-size="10.00">opencv2/structured</text>
<text text-anchor="middle" x="531.5" y="-183" font-family="Helvetica,sans-Serif" font-size="10.00">_light/sinusoidalpattern.hpp</text>
</a>
</g>
</g>
<!-- Node2&#45;&gt;Node6 -->
<g id="edge5_Node000002_Node000006" class="edge">
<title>Node2&#45;&gt;Node6</title>
<g id="a_edge5_Node000002_Node000006"><a xlink:title=" ">
<path fill="none" stroke="#63b8ff" d="M470.9,-235.77C483.48,-226.68 499.54,-215.09 511.96,-206.11"/>
<polygon fill="#63b8ff" stroke="#63b8ff" points="468.51,-233.18 462.45,-241.87 472.61,-238.85 468.51,-233.18"/>
</a>
</g>
</g>
<!-- Node8 -->
<g id="Node000008" class="node">
<title>Node8</title>
<g id="a_Node000008"><a xlink:href="../../da/d08/disparity__filter_8hpp.html" target="_top" xlink:title=" ">
<polygon fill="white" stroke="#666666" points="777.5,-206 625.5,-206 625.5,-176 777.5,-176 777.5,-206"/>
<text text-anchor="start" x="633.5" y="-194" font-family="Helvetica,sans-Serif" font-size="10.00">opencv2/ximgproc/disparity</text>
<text text-anchor="middle" x="701.5" y="-183" font-family="Helvetica,sans-Serif" font-size="10.00">_filter.hpp</text>
</a>
</g>
</g>
<!-- Node2&#45;&gt;Node8 -->
<g id="edge7_Node000002_Node000008" class="edge">
<title>Node2&#45;&gt;Node8</title>
<g id="a_edge7_Node000002_Node000008"><a xlink:title=" ">
<path fill="none" stroke="#63b8ff" d="M496.91,-239.68C537.54,-230.21 596.85,-216.39 641.16,-206.06"/>
<polygon fill="#63b8ff" stroke="#63b8ff" points="495.94,-236.32 487,-241.99 497.53,-243.13 495.94,-236.32"/>
</a>
</g>
</g>
<!-- Node7 -->
<g id="Node000007" class="node">
<title>Node7</title>
<g id="a_Node000007"><a xlink:href="../../d3/d23/structured__light_8hpp.html" target="_top" xlink:title=" ">
<polygon fill="white" stroke="#666666" points="586.5,-140 476.5,-140 476.5,-110 586.5,-110 586.5,-140"/>
<text text-anchor="start" x="484.5" y="-128" font-family="Helvetica,sans-Serif" font-size="10.00">opencv2/structured</text>
<text text-anchor="middle" x="531.5" y="-117" font-family="Helvetica,sans-Serif" font-size="10.00">_light.hpp</text>
</a>
</g>
</g>
<!-- Node6&#45;&gt;Node7 -->
<g id="edge6_Node000006_Node000007" class="edge">
<title>Node6&#45;&gt;Node7</title>
<g id="a_edge6_Node000006_Node000007"><a xlink:title=" ">
<path fill="none" stroke="#63b8ff" d="M531.5,-165.54C531.5,-156.96 531.5,-147.61 531.5,-140.16"/>
<polygon fill="#63b8ff" stroke="#63b8ff" points="528,-165.8 531.5,-175.8 535,-165.8 528,-165.8"/>
</a>
</g>
</g>
<!-- Node9 -->
<g id="Node000009" class="node">
<title>Node9</title>
<g id="a_Node000009"><a xlink:href="../../df/d6c/ximgproc_8hpp.html" target="_top" xlink:title=" ">
<polygon fill="white" stroke="#666666" points="765.5,-134.5 637.5,-134.5 637.5,-115.5 765.5,-115.5 765.5,-134.5"/>
<text text-anchor="middle" x="701.5" y="-122.5" font-family="Helvetica,sans-Serif" font-size="10.00">opencv2/ximgproc.hpp</text>
</a>
</g>
</g>
<!-- Node8&#45;&gt;Node9 -->
<g id="edge8_Node000008_Node000009" class="edge">
<title>Node8&#45;&gt;Node9</title>
<g id="a_edge8_Node000008_Node000009"><a xlink:title=" ">
<path fill="none" stroke="#63b8ff" d="M701.5,-165.6C701.5,-154.8 701.5,-142.78 701.5,-134.84"/>
<polygon fill="#63b8ff" stroke="#63b8ff" points="698,-165.8 701.5,-175.8 705,-165.8 698,-165.8"/>
</a>
</g>
</g>
<!-- Node11 -->
<g id="Node000011" class="node">
<title>Node11</title>
<g id="a_Node000011"><a xlink:href="../../d6/d51/multicalib_8hpp.html" target="_top" xlink:title=" ">
<polygon fill="white" stroke="#666666" points="957.5,-200.5 795.5,-200.5 795.5,-181.5 957.5,-181.5 957.5,-200.5"/>
<text text-anchor="middle" x="876.5" y="-188.5" font-family="Helvetica,sans-Serif" font-size="10.00">opencv2/ccalib/multicalib.hpp</text>
</a>
</g>
</g>
<!-- Node10&#45;&gt;Node11 -->
<g id="edge10_Node000010_Node000011" class="edge">
<title>Node10&#45;&gt;Node11</title>
<g id="a_edge10_Node000010_Node000011"><a xlink:title=" ">
<path fill="none" stroke="#63b8ff" d="M826.26,-235.22C839.05,-224.21 855.86,-209.75 866.43,-200.67"/>
<polygon fill="#63b8ff" stroke="#63b8ff" points="823.83,-232.69 818.53,-241.87 828.4,-238 823.83,-232.69"/>
</a>
</g>
</g>
<!-- Node14 -->
<g id="Node000014" class="node">
<title>Node14</title>
<g id="a_Node000014"><a xlink:href="../../dd/dd3/rgbd_8hpp.html" target="_top" xlink:title=" ">
<polygon fill="white" stroke="#666666" points="1366.5,-74 1262.5,-74 1262.5,-55 1366.5,-55 1366.5,-74"/>
<text text-anchor="middle" x="1314.5" y="-62" font-family="Helvetica,sans-Serif" font-size="10.00">opencv2/rgbd.hpp</text>
</a>
</g>
</g>
<!-- Node13&#45;&gt;Node14 -->
<g id="edge13_Node000013_Node000014" class="edge">
<title>Node13&#45;&gt;Node14</title>
<g id="a_edge13_Node000013_Node000014"><a xlink:title=" ">
<path fill="none" stroke="#63b8ff" d="M1425.93,-169.03C1396.04,-141.26 1344.68,-93.54 1323.77,-74.11"/>
<polygon fill="#63b8ff" stroke="#63b8ff" points="1423.68,-171.72 1433.39,-175.96 1428.45,-166.59 1423.68,-171.72"/>
</a>
</g>
</g>
<!-- Node15&#45;&gt;Node14 -->
<g id="edge15_Node000015_Node000014" class="edge">
<title>Node15&#45;&gt;Node14</title>
<g id="a_edge15_Node000015_Node000014"><a xlink:title=" ">
<path fill="none" stroke="#63b8ff" d="M1431.86,-106.61C1401.31,-95.91 1363.47,-82.65 1339.16,-74.14"/>
<polygon fill="#63b8ff" stroke="#63b8ff" points="1430.9,-109.98 1441.5,-109.99 1433.22,-103.38 1430.9,-109.98"/>
</a>
</g>
</g>
<!-- Node16&#45;&gt;Node14 -->
<g id="edge17_Node000016_Node000014" class="edge">
<title>Node16&#45;&gt;Node14</title>
<g id="a_edge17_Node000016_Node000014"><a xlink:title=" ">
<path fill="none" stroke="#63b8ff" d="M1205.01,-111.58C1231.86,-100.28 1270.78,-83.9 1294.26,-74.02"/>
<polygon fill="#63b8ff" stroke="#63b8ff" points="1203.57,-108.39 1195.71,-115.49 1206.29,-114.84 1203.57,-108.39"/>
</a>
</g>
</g>
<!-- Node17&#45;&gt;Node14 -->
<g id="edge19_Node000017_Node000014" class="edge">
<title>Node17&#45;&gt;Node14</title>
<g id="a_edge19_Node000017_Node000014"><a xlink:title=" ">
<path fill="none" stroke="#63b8ff" d="M1201.26,-176.57C1217.46,-167.45 1238.3,-154.45 1254.5,-140 1277.8,-119.21 1299.23,-88.78 1308.98,-74.08"/>
<polygon fill="#63b8ff" stroke="#63b8ff" points="1199.41,-173.6 1192.32,-181.47 1202.77,-179.73 1199.41,-173.6"/>
</a>
</g>
</g>
<!-- Node17&#45;&gt;Node16 -->
<g id="edge20_Node000017_Node000016" class="edge">
<title>Node17&#45;&gt;Node16</title>
<g id="a_edge20_Node000017_Node000016"><a xlink:title=" ">
<path fill="none" stroke="#63b8ff" d="M1175.5,-171.08C1175.5,-159.13 1175.5,-144.22 1175.5,-134.91"/>
<polygon fill="#63b8ff" stroke="#63b8ff" points="1172,-171.37 1175.5,-181.37 1179,-171.37 1172,-171.37"/>
</a>
</g>
</g>
<!-- Node18&#45;&gt;Node14 -->
<g id="edge22_Node000018_Node000014" class="edge">
<title>Node18&#45;&gt;Node14</title>
<g id="a_edge22_Node000018_Node000014"><a xlink:title=" ">
<path fill="none" stroke="#63b8ff" d="M1314.5,-165.48C1314.5,-137.34 1314.5,-92.67 1314.5,-74.07"/>
<polygon fill="#63b8ff" stroke="#63b8ff" points="1311,-165.72 1314.5,-175.72 1318,-165.72 1311,-165.72"/>
</a>
</g>
</g>
<!-- Node19&#45;&gt;Node13 -->
<g id="edge24_Node000019_Node000013" class="edge">
<title>Node19&#45;&gt;Node13</title>
<g id="a_edge24_Node000019_Node000013"><a xlink:title=" ">
<path fill="none" stroke="#63b8ff" d="M1343.24,-237.95C1364.7,-228.59 1394.03,-215.78 1416.28,-206.06"/>
<polygon fill="#63b8ff" stroke="#63b8ff" points="1341.75,-234.78 1333.98,-241.99 1344.55,-241.2 1341.75,-234.78"/>
</a>
</g>
</g>
<!-- Node19&#45;&gt;Node17 -->
<g id="edge25_Node000019_Node000017" class="edge">
<title>Node19&#45;&gt;Node17</title>
<g id="a_edge25_Node000019_Node000017"><a xlink:title=" ">
<path fill="none" stroke="#63b8ff" d="M1284.99,-238.08C1258.14,-226.78 1219.22,-210.4 1195.74,-200.52"/>
<polygon fill="#63b8ff" stroke="#63b8ff" points="1283.71,-241.34 1294.29,-241.99 1286.43,-234.89 1283.71,-241.34"/>
</a>
</g>
</g>
<!-- Node19&#45;&gt;Node18 -->
<g id="edge26_Node000019_Node000018" class="edge">
<title>Node19&#45;&gt;Node18</title>
<g id="a_edge26_Node000019_Node000018"><a xlink:title=" ">
<path fill="none" stroke="#63b8ff" d="M1314.5,-231.65C1314.5,-223.36 1314.5,-213.78 1314.5,-206.11"/>
<polygon fill="#63b8ff" stroke="#63b8ff" points="1311,-231.87 1314.5,-241.87 1318,-231.87 1311,-231.87"/>
</a>
</g>
</g>
<!-- Node21 -->
<g id="Node000021" class="node">
<title>Node21</title>
<g id="a_Node000021"><a xlink:href="../../d0/d7e/viz_8hpp.html" target="_top" xlink:title=" ">
<polygon fill="white" stroke="#666666" points="1731.5,-19 1635.5,-19 1635.5,0 1731.5,0 1731.5,-19"/>
<text text-anchor="middle" x="1683.5" y="-7" font-family="Helvetica,sans-Serif" font-size="10.00">opencv2/viz.hpp</text>
</a>
</g>
</g>
<!-- Node20&#45;&gt;Node21 -->
<g id="edge28_Node000020_Node000021" class="edge">
<title>Node20&#45;&gt;Node21</title>
<g id="a_edge28_Node000020_Node000021"><a xlink:title=" ">
<path fill="none" stroke="#63b8ff" d="M1622.37,-232.1C1620.03,-224.17 1617.66,-214.73 1616.5,-206 1610.88,-163.59 1612.25,-151.27 1623.5,-110 1630.56,-84.09 1634.54,-77.94 1648.5,-55 1656.57,-41.73 1668.01,-27.89 1675.59,-19.24"/>
<polygon fill="#63b8ff" stroke="#63b8ff" points="1619.07,-233.28 1625.41,-241.77 1625.75,-231.18 1619.07,-233.28"/>
</a>
</g>
</g>
<!-- Node22 -->
<g id="Node000022" class="node">
<title>Node22</title>
<g id="a_Node000022"><a xlink:href="../../de/d82/viz3d_8hpp.html" target="_top" xlink:title=" ">
<polygon fill="white" stroke="#666666" points="1775,-134.5 1650,-134.5 1650,-115.5 1775,-115.5 1775,-134.5"/>
<text text-anchor="middle" x="1712.5" y="-122.5" font-family="Helvetica,sans-Serif" font-size="10.00">opencv2/viz/viz3d.hpp</text>
</a>
</g>
</g>
<!-- Node20&#45;&gt;Node22 -->
<g id="edge29_Node000020_Node000022" class="edge">
<title>Node20&#45;&gt;Node22</title>
<g id="a_edge29_Node000020_Node000022"><a xlink:title=" ">
<path fill="none" stroke="#63b8ff" d="M1639.95,-233.54C1658.12,-206.6 1692.92,-155.02 1706.69,-134.62"/>
<polygon fill="#63b8ff" stroke="#63b8ff" points="1636.97,-231.7 1634.27,-241.94 1642.77,-235.61 1636.97,-231.7"/>
</a>
</g>
</g>
<!-- Node23 -->
<g id="Node000023" class="node">
<title>Node23</title>
<g id="a_Node000023"><a xlink:href="../../d2/d4b/vizcore_8hpp.html" target="_top" xlink:title=" ">
<polygon fill="white" stroke="#666666" points="1798.5,-74 1664.5,-74 1664.5,-55 1798.5,-55 1798.5,-74"/>
<text text-anchor="middle" x="1731.5" y="-62" font-family="Helvetica,sans-Serif" font-size="10.00">opencv2/viz/vizcore.hpp</text>
</a>
</g>
</g>
<!-- Node20&#45;&gt;Node23 -->
<g id="edge33_Node000020_Node000023" class="edge">
<title>Node20&#45;&gt;Node23</title>
<g id="a_edge33_Node000020_Node000023"><a xlink:title=" ">
<path fill="none" stroke="#63b8ff" d="M1624.92,-232.05C1620.41,-203.25 1616.03,-147.08 1641.5,-110 1654.03,-91.75 1676.28,-80.66 1695.52,-74.11"/>
<polygon fill="#63b8ff" stroke="#63b8ff" points="1621.49,-232.72 1626.66,-241.96 1628.38,-231.51 1621.49,-232.72"/>
</a>
</g>
</g>
<!-- Node24 -->
<g id="Node000024" class="node">
<title>Node24</title>
<g id="a_Node000024"><a xlink:href="../../d0/dd3/widgets_8hpp.html" target="_top" xlink:title=" ">
<polygon fill="white" stroke="#666666" points="1860,-200.5 1723,-200.5 1723,-181.5 1860,-181.5 1860,-200.5"/>
<text text-anchor="middle" x="1791.5" y="-188.5" font-family="Helvetica,sans-Serif" font-size="10.00">opencv2/viz/widgets.hpp</text>
</a>
</g>
</g>
<!-- Node20&#45;&gt;Node24 -->
<g id="edge34_Node000020_Node000024" class="edge">
<title>Node20&#45;&gt;Node24</title>
<g id="a_edge34_Node000020_Node000024"><a xlink:title=" ">
<path fill="none" stroke="#63b8ff" d="M1661.87,-238.52C1693.38,-227.21 1739.87,-210.53 1767.77,-200.52"/>
<polygon fill="#63b8ff" stroke="#63b8ff" points="1660.43,-235.32 1652.2,-241.99 1662.8,-241.91 1660.43,-235.32"/>
</a>
</g>
</g>
<!-- Node22&#45;&gt;Node21 -->
<g id="edge30_Node000022_Node000021" class="edge">
<title>Node22&#45;&gt;Node21</title>
<g id="a_edge30_Node000022_Node000021"><a xlink:title=" ">
<path fill="none" stroke="#63b8ff" d="M1688.25,-109.84C1675.98,-101.21 1662.28,-88.96 1655.5,-74 1646.65,-54.46 1663.64,-31.4 1674.82,-19.15"/>
<polygon fill="#63b8ff" stroke="#63b8ff" points="1686.54,-112.9 1696.82,-115.47 1690.38,-107.05 1686.54,-112.9"/>
</a>
</g>
</g>
<!-- Node22&#45;&gt;Node23 -->
<g id="edge31_Node000022_Node000023" class="edge">
<title>Node22&#45;&gt;Node23</title>
<g id="a_edge31_Node000022_Node000023"><a xlink:title=" ">
<path fill="none" stroke="#63b8ff" d="M1718.4,-105.82C1721.83,-95.28 1725.99,-82.48 1728.68,-74.17"/>
<polygon fill="#63b8ff" stroke="#63b8ff" points="1715.06,-104.78 1715.3,-115.37 1721.72,-106.94 1715.06,-104.78"/>
</a>
</g>
</g>
<!-- Node23&#45;&gt;Node21 -->
<g id="edge32_Node000023_Node000021" class="edge">
<title>Node23&#45;&gt;Node21</title>
<g id="a_edge32_Node000023_Node000021"><a xlink:title=" ">
<path fill="none" stroke="#63b8ff" d="M1716.77,-47.24C1708.36,-37.95 1698.15,-26.68 1691.28,-19.09"/>
<polygon fill="#63b8ff" stroke="#63b8ff" points="1714.27,-49.69 1723.57,-54.75 1719.46,-44.99 1714.27,-49.69"/>
</a>
</g>
</g>
<!-- Node24&#45;&gt;Node21 -->
<g id="edge35_Node000024_Node000021" class="edge">
<title>Node24&#45;&gt;Node21</title>
<g id="a_edge35_Node000024_Node000021"><a xlink:title=" ">
<path fill="none" stroke="#63b8ff" d="M1800.61,-172.2C1813.38,-144.45 1832.43,-90.43 1807.5,-55 1790.39,-30.68 1758.68,-19.59 1731.61,-14.56"/>
<polygon fill="#63b8ff" stroke="#63b8ff" points="1797.34,-170.92 1796.12,-181.45 1803.64,-173.98 1797.34,-170.92"/>
</a>
</g>
</g>
<!-- Node24&#45;&gt;Node22 -->
<g id="edge36_Node000024_Node000022" class="edge">
<title>Node24&#45;&gt;Node22</title>
<g id="a_edge36_Node000024_Node000022"><a xlink:title=" ">
<path fill="none" stroke="#63b8ff" d="M1772.97,-174.99C1757.5,-162.46 1736,-145.04 1723.24,-134.7"/>
<polygon fill="#63b8ff" stroke="#63b8ff" points="1770.87,-177.79 1780.85,-181.37 1775.28,-172.35 1770.87,-177.79"/>
</a>
</g>
</g>
<!-- Node24&#45;&gt;Node23 -->
<g id="edge37_Node000024_Node000023" class="edge">
<title>Node24&#45;&gt;Node23</title>
<g id="a_edge37_Node000024_Node000023"><a xlink:title=" ">
<path fill="none" stroke="#63b8ff" d="M1793.76,-171.21C1794.93,-154.25 1794.44,-129.09 1784.5,-110 1776.24,-94.12 1759.64,-81.65 1747.21,-74"/>
<polygon fill="#63b8ff" stroke="#63b8ff" points="1790.25,-171.19 1792.78,-181.48 1797.22,-171.85 1790.25,-171.19"/>
</a>
</g>
</g>
</g>
</svg>
