<?xml version="1.0" encoding="UTF-8" standalone="no"?>
<!DOCTYPE svg PUBLIC "-//W3C//DTD SVG 1.1//EN"
 "http://www.w3.org/Graphics/SVG/1.1/DTD/svg11.dtd">
<!-- Generated by graphviz version 2.43.0 (0)
 -->
<!-- Title: cv::aruco::CharucoBoard Pages: 1 -->
<svg width="186pt" height="509pt"
 viewBox="0.00 0.00 186.00 509.00" xmlns="http://www.w3.org/2000/svg" xmlns:xlink="http://www.w3.org/1999/xlink">
<g id="graph0" class="graph" transform="scale(1 1) rotate(0) translate(4 505)">
<title>cv::aruco::CharucoBoard</title>
<!-- Node1 -->
<g id="Node000001" class="node">
<title>Node1</title>
<g id="a_Node000001"><a xlink:title="ChArUco board is a planar chessboard where the markers are placed inside the white squares of a chess...">
<polygon fill="#999999" stroke="transparent" points="178,-199 0,-199 0,0 178,0 178,-199"/>
<text text-anchor="start" x="30" y="-186.5" font-family="Helvetica,sans-Serif" font-size="10.00">cv::aruco::CharucoBoard</text>
<text text-anchor="start" x="87" y="-171.5" font-family="Helvetica,sans-Serif" font-size="10.00"> </text>
<text text-anchor="start" x="4" y="-156.5" font-family="Helvetica,sans-Serif" font-size="10.00">+</text>
<text text-anchor="start" x="17" y="-156.5" font-family="Helvetica,sans-Serif" font-size="10.00">CharucoBoard()</text>
<text text-anchor="start" x="4" y="-141.5" font-family="Helvetica,sans-Serif" font-size="10.00">+</text>
<text text-anchor="start" x="17" y="-141.5" font-family="Helvetica,sans-Serif" font-size="10.00">CharucoBoard()</text>
<text text-anchor="start" x="4" y="-126.5" font-family="Helvetica,sans-Serif" font-size="10.00">+</text>
<text text-anchor="start" x="17" y="-126.5" font-family="Helvetica,sans-Serif" font-size="10.00">checkCharucoCornersCollinear()</text>
<text text-anchor="start" x="4" y="-111.5" font-family="Helvetica,sans-Serif" font-size="10.00">+</text>
<text text-anchor="start" x="17" y="-111.5" font-family="Helvetica,sans-Serif" font-size="10.00">getChessboardCorners()</text>
<text text-anchor="start" x="4" y="-96.5" font-family="Helvetica,sans-Serif" font-size="10.00">+</text>
<text text-anchor="start" x="17" y="-96.5" font-family="Helvetica,sans-Serif" font-size="10.00">getChessboardSize()</text>
<text text-anchor="start" x="4" y="-81.5" font-family="Helvetica,sans-Serif" font-size="10.00">+</text>
<text text-anchor="start" x="17" y="-81.5" font-family="Helvetica,sans-Serif" font-size="10.00">getLegacyPattern()</text>
<text text-anchor="start" x="4" y="-66.5" font-family="Helvetica,sans-Serif" font-size="10.00">+</text>
<text text-anchor="start" x="17" y="-66.5" font-family="Helvetica,sans-Serif" font-size="10.00">getMarkerLength()</text>
<text text-anchor="start" x="4" y="-51.5" font-family="Helvetica,sans-Serif" font-size="10.00">+</text>
<text text-anchor="start" x="17" y="-51.5" font-family="Helvetica,sans-Serif" font-size="10.00">getNearestMarkerCorners()</text>
<text text-anchor="start" x="4" y="-36.5" font-family="Helvetica,sans-Serif" font-size="10.00">+</text>
<text text-anchor="start" x="17" y="-36.5" font-family="Helvetica,sans-Serif" font-size="10.00">getNearestMarkerIdx()</text>
<text text-anchor="start" x="4" y="-21.5" font-family="Helvetica,sans-Serif" font-size="10.00">+</text>
<text text-anchor="start" x="17" y="-21.5" font-family="Helvetica,sans-Serif" font-size="10.00">getSquareLength()</text>
<text text-anchor="start" x="4" y="-6.5" font-family="Helvetica,sans-Serif" font-size="10.00">+</text>
<text text-anchor="start" x="17" y="-6.5" font-family="Helvetica,sans-Serif" font-size="10.00">setLegacyPattern()</text>
<polygon fill="#666666" stroke="#666666" points="0,-181.5 0,-181.5 178,-181.5 178,-181.5 0,-181.5"/>
<polygon fill="#666666" stroke="#666666" points="0,-166.5 0,-166.5 178,-166.5 178,-166.5 0,-166.5"/>
<polygon fill="none" stroke="#666666" points="0,0 0,-199 178,-199 178,0 0,0"/>
</a>
</g>
</g>
<!-- Node2 -->
<g id="Node000002" class="node">
<title>Node2</title>
<g id="a_Node000002"><a xlink:href="../../d4/db2/classcv_1_1aruco_1_1Board.html" target="_top" xlink:title="Board of ArUco markers.">
<polygon fill="white" stroke="transparent" points="158.5,-405 19.5,-405 19.5,-236 158.5,-236 158.5,-405"/>
<text text-anchor="start" x="50" y="-392.5" font-family="Helvetica,sans-Serif" font-size="10.00">cv::aruco::Board</text>
<text text-anchor="start" x="87.5" y="-377.5" font-family="Helvetica,sans-Serif" font-size="10.00"> </text>
<text text-anchor="start" x="24" y="-362.5" font-family="Helvetica,sans-Serif" font-size="10.00">+</text>
<text text-anchor="start" x="37" y="-362.5" font-family="Helvetica,sans-Serif" font-size="10.00">Board()</text>
<text text-anchor="start" x="24" y="-347.5" font-family="Helvetica,sans-Serif" font-size="10.00">+</text>
<text text-anchor="start" x="37" y="-347.5" font-family="Helvetica,sans-Serif" font-size="10.00">Board()</text>
<text text-anchor="start" x="24" y="-332.5" font-family="Helvetica,sans-Serif" font-size="10.00">+</text>
<text text-anchor="start" x="37" y="-332.5" font-family="Helvetica,sans-Serif" font-size="10.00">generateImage()</text>
<text text-anchor="start" x="24" y="-317.5" font-family="Helvetica,sans-Serif" font-size="10.00">+</text>
<text text-anchor="start" x="37" y="-317.5" font-family="Helvetica,sans-Serif" font-size="10.00">getDictionary()</text>
<text text-anchor="start" x="24" y="-302.5" font-family="Helvetica,sans-Serif" font-size="10.00">+</text>
<text text-anchor="start" x="37" y="-302.5" font-family="Helvetica,sans-Serif" font-size="10.00">getIds()</text>
<text text-anchor="start" x="24" y="-287.5" font-family="Helvetica,sans-Serif" font-size="10.00">+</text>
<text text-anchor="start" x="37" y="-287.5" font-family="Helvetica,sans-Serif" font-size="10.00">getObjPoints()</text>
<text text-anchor="start" x="24" y="-272.5" font-family="Helvetica,sans-Serif" font-size="10.00">+</text>
<text text-anchor="start" x="37" y="-272.5" font-family="Helvetica,sans-Serif" font-size="10.00">getRightBottomCorner()</text>
<text text-anchor="start" x="24" y="-257.5" font-family="Helvetica,sans-Serif" font-size="10.00">+</text>
<text text-anchor="start" x="37" y="-257.5" font-family="Helvetica,sans-Serif" font-size="10.00">matchImagePoints()</text>
<text text-anchor="start" x="24" y="-242.5" font-family="Helvetica,sans-Serif" font-size="10.00">#</text>
<text text-anchor="start" x="37" y="-242.5" font-family="Helvetica,sans-Serif" font-size="10.00">Board()</text>
<polygon fill="#666666" stroke="#666666" points="20,-387.5 20,-387.5 159,-387.5 159,-387.5 20,-387.5"/>
<polygon fill="#666666" stroke="#666666" points="20,-372.5 20,-372.5 159,-372.5 159,-372.5 20,-372.5"/>
<polygon fill="none" stroke="#666666" points="19.5,-236 19.5,-405 158.5,-405 158.5,-236 19.5,-236"/>
</a>
</g>
</g>
<!-- Node2&#45;&gt;Node1 -->
<g id="edge1_Node000001_Node000002" class="edge">
<title>Node2&#45;&gt;Node1</title>
<g id="a_edge1_Node000001_Node000002"><a xlink:title=" ">
<path fill="none" stroke="#63b8ff" d="M89,-225.59C89,-216.86 89,-207.99 89,-199.22"/>
<polygon fill="none" stroke="#63b8ff" points="85.5,-225.77 89,-235.77 92.5,-225.77 85.5,-225.77"/>
</a>
</g>
</g>
<!-- Node3 -->
<g id="Node000003" class="node">
<title>Node3</title>
<g id="a_Node000003"><a xlink:title=" ">
<polygon fill="white" stroke="transparent" points="123,-501 55,-501 55,-452 123,-452 123,-501"/>
<text text-anchor="start" x="60" y="-488.5" font-family="Helvetica,sans-Serif" font-size="10.00">Ptr&lt; Impl &gt;</text>
<text text-anchor="start" x="87" y="-473.5" font-family="Helvetica,sans-Serif" font-size="10.00"> </text>
<text text-anchor="start" x="87" y="-458.5" font-family="Helvetica,sans-Serif" font-size="10.00"> </text>
<polygon fill="#666666" stroke="#666666" points="55,-483.5 55,-483.5 123,-483.5 123,-483.5 55,-483.5"/>
<polygon fill="#666666" stroke="#666666" points="55,-468.5 55,-468.5 123,-468.5 123,-468.5 55,-468.5"/>
<polygon fill="none" stroke="#666666" points="55,-452 55,-501 123,-501 123,-452 55,-452"/>
</a>
</g>
</g>
<!-- Node3&#45;&gt;Node2 -->
<g id="edge2_Node000002_Node000003" class="edge">
<title>Node3&#45;&gt;Node2</title>
<g id="a_edge2_Node000002_Node000003"><a xlink:title=" ">
<path fill="none" stroke="#63b8ff" d="M89,-451.77C89,-442.06 89,-430.12 89,-417.45"/>
<polygon fill="none" stroke="#63b8ff" points="89,-417.13 85,-411.13 89,-405.13 93,-411.13 89,-417.13"/>
</a>
</g>
<text text-anchor="middle" x="106" y="-426" font-family="Helvetica,sans-Serif" font-size="10.00" fill="grey"> #impl</text>
</g>
</g>
</svg>
