<?xml version="1.0" encoding="UTF-8" standalone="no"?>
<!DOCTYPE svg PUBLIC "-//W3C//DTD SVG 1.1//EN"
 "http://www.w3.org/Graphics/SVG/1.1/DTD/svg11.dtd">
<!-- Generated by graphviz version 2.43.0 (0)
 -->
<!-- Title: cv::multicalib::MultiCameraCalibration::vertex Pages: 1 -->
<svg width="1005pt" height="1293pt"
 viewBox="0.00 0.00 1005.23 1293.00" xmlns="http://www.w3.org/2000/svg" xmlns:xlink="http://www.w3.org/1999/xlink">
<g id="graph0" class="graph" transform="scale(1 1) rotate(0) translate(4 1289)">
<title>cv::multicalib::MultiCameraCalibration::vertex</title>
<!-- Node1 -->
<g id="Node000001" class="node">
<title>Node1</title>
<g id="a_Node000001"><a xlink:title=" ">
<polygon fill="#999999" stroke="transparent" points="162.73,-75 17.73,-75 17.73,0 162.73,0 162.73,-75"/>
<text text-anchor="start" x="23.23" y="-62.5" font-family="Helvetica,sans-Serif" font-size="10.00">cv::multicalib::MultiCamera</text>
<text text-anchor="start" x="45.23" y="-51.5" font-family="Helvetica,sans-Serif" font-size="10.00">Calibration::vertex</text>
<text text-anchor="start" x="88.73" y="-36.5" font-family="Helvetica,sans-Serif" font-size="10.00"> </text>
<text text-anchor="start" x="43.23" y="-21.5" font-family="Helvetica,sans-Serif" font-size="10.00">+</text>
<text text-anchor="start" x="77.23" y="-21.5" font-family="Helvetica,sans-Serif" font-size="10.00">vertex()</text>
<text text-anchor="start" x="43.23" y="-6.5" font-family="Helvetica,sans-Serif" font-size="10.00">+</text>
<text text-anchor="start" x="77.23" y="-6.5" font-family="Helvetica,sans-Serif" font-size="10.00">vertex()</text>
<polygon fill="#666666" stroke="#666666" points="18.23,-46.5 18.23,-46.5 163.23,-46.5 163.23,-46.5 18.23,-46.5"/>
<polygon fill="#666666" stroke="#666666" points="18.23,-31.5 18.23,-31.5 163.23,-31.5 163.23,-31.5 18.23,-31.5"/>
<polygon fill="none" stroke="#666666" points="17.73,0 17.73,-75 162.73,-75 162.73,0 17.73,0"/>
</a>
</g>
</g>
<!-- Node2 -->
<g id="Node000002" class="node">
<title>Node2</title>
<g id="a_Node000002"><a xlink:href="../../d3/d63/classcv_1_1Mat.html" target="_top" xlink:title="n&#45;dimensional dense array class">
<polygon fill="white" stroke="transparent" points="362.23,-516 238.23,-516 238.23,-122 362.23,-122 362.23,-516"/>
<text text-anchor="start" x="282.23" y="-504" font-family="Helvetica,sans-Serif" font-size="10.00">cv::Mat</text>
<text text-anchor="start" x="298.23" y="-489" font-family="Helvetica,sans-Serif" font-size="10.00"> </text>
<text text-anchor="start" x="242.23" y="-474" font-family="Helvetica,sans-Serif" font-size="10.00">+</text>
<text text-anchor="start" x="255.23" y="-474" font-family="Helvetica,sans-Serif" font-size="10.00">Mat()</text>
<text text-anchor="start" x="242.23" y="-459" font-family="Helvetica,sans-Serif" font-size="10.00">+</text>
<text text-anchor="start" x="255.23" y="-459" font-family="Helvetica,sans-Serif" font-size="10.00">Mat()</text>
<text text-anchor="start" x="242.23" y="-444" font-family="Helvetica,sans-Serif" font-size="10.00">+</text>
<text text-anchor="start" x="255.23" y="-444" font-family="Helvetica,sans-Serif" font-size="10.00">Mat()</text>
<text text-anchor="start" x="242.23" y="-429" font-family="Helvetica,sans-Serif" font-size="10.00">+</text>
<text text-anchor="start" x="255.23" y="-429" font-family="Helvetica,sans-Serif" font-size="10.00">Mat()</text>
<text text-anchor="start" x="242.23" y="-414" font-family="Helvetica,sans-Serif" font-size="10.00">+</text>
<text text-anchor="start" x="255.23" y="-414" font-family="Helvetica,sans-Serif" font-size="10.00">Mat()</text>
<text text-anchor="start" x="242.23" y="-399" font-family="Helvetica,sans-Serif" font-size="10.00">+</text>
<text text-anchor="start" x="255.23" y="-399" font-family="Helvetica,sans-Serif" font-size="10.00">Mat()</text>
<text text-anchor="start" x="242.23" y="-384" font-family="Helvetica,sans-Serif" font-size="10.00">+</text>
<text text-anchor="start" x="255.23" y="-384" font-family="Helvetica,sans-Serif" font-size="10.00">Mat()</text>
<text text-anchor="start" x="242.23" y="-369" font-family="Helvetica,sans-Serif" font-size="10.00">+</text>
<text text-anchor="start" x="255.23" y="-369" font-family="Helvetica,sans-Serif" font-size="10.00">Mat()</text>
<text text-anchor="start" x="242.23" y="-354" font-family="Helvetica,sans-Serif" font-size="10.00">+</text>
<text text-anchor="start" x="255.23" y="-354" font-family="Helvetica,sans-Serif" font-size="10.00">Mat()</text>
<text text-anchor="start" x="242.23" y="-339" font-family="Helvetica,sans-Serif" font-size="10.00">+</text>
<text text-anchor="start" x="255.23" y="-339" font-family="Helvetica,sans-Serif" font-size="10.00">Mat()</text>
<text text-anchor="start" x="255.23" y="-324" font-family="Helvetica,sans-Serif" font-size="10.00">and 129 more...</text>
<text text-anchor="start" x="242.23" y="-309" font-family="Helvetica,sans-Serif" font-size="10.00">+</text>
<text text-anchor="start" x="255.23" y="-309" font-family="Helvetica,sans-Serif" font-size="10.00">diag()</text>
<text text-anchor="start" x="242.23" y="-294" font-family="Helvetica,sans-Serif" font-size="10.00">+</text>
<text text-anchor="start" x="255.23" y="-294" font-family="Helvetica,sans-Serif" font-size="10.00">eye()</text>
<text text-anchor="start" x="242.23" y="-279" font-family="Helvetica,sans-Serif" font-size="10.00">+</text>
<text text-anchor="start" x="255.23" y="-279" font-family="Helvetica,sans-Serif" font-size="10.00">eye()</text>
<text text-anchor="start" x="242.23" y="-264" font-family="Helvetica,sans-Serif" font-size="10.00">+</text>
<text text-anchor="start" x="255.23" y="-264" font-family="Helvetica,sans-Serif" font-size="10.00">getDefaultAllocator()</text>
<text text-anchor="start" x="242.23" y="-249" font-family="Helvetica,sans-Serif" font-size="10.00">+</text>
<text text-anchor="start" x="255.23" y="-249" font-family="Helvetica,sans-Serif" font-size="10.00">getStdAllocator()</text>
<text text-anchor="start" x="242.23" y="-234" font-family="Helvetica,sans-Serif" font-size="10.00">+</text>
<text text-anchor="start" x="255.23" y="-234" font-family="Helvetica,sans-Serif" font-size="10.00">ones()</text>
<text text-anchor="start" x="242.23" y="-219" font-family="Helvetica,sans-Serif" font-size="10.00">+</text>
<text text-anchor="start" x="255.23" y="-219" font-family="Helvetica,sans-Serif" font-size="10.00">ones()</text>
<text text-anchor="start" x="242.23" y="-204" font-family="Helvetica,sans-Serif" font-size="10.00">+</text>
<text text-anchor="start" x="255.23" y="-204" font-family="Helvetica,sans-Serif" font-size="10.00">ones()</text>
<text text-anchor="start" x="242.23" y="-189" font-family="Helvetica,sans-Serif" font-size="10.00">+</text>
<text text-anchor="start" x="255.23" y="-189" font-family="Helvetica,sans-Serif" font-size="10.00">setDefaultAllocator()</text>
<text text-anchor="start" x="242.23" y="-174" font-family="Helvetica,sans-Serif" font-size="10.00">+</text>
<text text-anchor="start" x="255.23" y="-174" font-family="Helvetica,sans-Serif" font-size="10.00">zeros()</text>
<text text-anchor="start" x="242.23" y="-159" font-family="Helvetica,sans-Serif" font-size="10.00">+</text>
<text text-anchor="start" x="255.23" y="-159" font-family="Helvetica,sans-Serif" font-size="10.00">zeros()</text>
<text text-anchor="start" x="242.23" y="-144" font-family="Helvetica,sans-Serif" font-size="10.00">+</text>
<text text-anchor="start" x="255.23" y="-144" font-family="Helvetica,sans-Serif" font-size="10.00">zeros()</text>
<text text-anchor="start" x="242.23" y="-129" font-family="Helvetica,sans-Serif" font-size="10.00">#</text>
<text text-anchor="start" x="255.23" y="-129" font-family="Helvetica,sans-Serif" font-size="10.00">forEach_impl()</text>
<polygon fill="#666666" stroke="#666666" points="238.23,-499 238.23,-499 362.23,-499 362.23,-499 238.23,-499"/>
<polygon fill="#666666" stroke="#666666" points="238.23,-484 238.23,-484 362.23,-484 362.23,-484 238.23,-484"/>
<polygon fill="none" stroke="#666666" points="238.23,-122 238.23,-516 362.23,-516 362.23,-122 238.23,-122"/>
</a>
</g>
</g>
<!-- Node2&#45;&gt;Node1 -->
<g id="edge1_Node000001_Node000002" class="edge">
<title>Node2&#45;&gt;Node1</title>
<g id="a_edge1_Node000001_Node000002"><a xlink:title=" ">
<path fill="none" stroke="#63b8ff" d="M238.08,-235.28C201.2,-186.2 155.82,-125.8 125.14,-84.96"/>
<polygon fill="none" stroke="#63b8ff" points="125.07,-84.87 118.27,-82.48 117.86,-75.28 124.67,-77.67 125.07,-84.87"/>
</a>
</g>
<text text-anchor="middle" x="153.73" y="-96" font-family="Helvetica,sans-Serif" font-size="10.00" fill="grey"> +pose</text>
</g>
<!-- Node3 -->
<g id="Node000003" class="node">
<title>Node3</title>
<g id="a_Node000003"><a xlink:title=" ">
<polygon fill="white" stroke="transparent" points="191.73,-1018 168.73,-1018 168.73,-969 191.73,-969 191.73,-1018"/>
<text text-anchor="start" x="174.23" y="-1005.5" font-family="Helvetica,sans-Serif" font-size="10.00">int</text>
<text text-anchor="start" x="178.73" y="-990.5" font-family="Helvetica,sans-Serif" font-size="10.00"> </text>
<text text-anchor="start" x="178.73" y="-975.5" font-family="Helvetica,sans-Serif" font-size="10.00"> </text>
<polygon fill="#666666" stroke="#666666" points="169.23,-1000.5 169.23,-1000.5 192.23,-1000.5 192.23,-1000.5 169.23,-1000.5"/>
<polygon fill="#666666" stroke="#666666" points="169.23,-985.5 169.23,-985.5 192.23,-985.5 192.23,-985.5 169.23,-985.5"/>
<polygon fill="none" stroke="#666666" points="168.73,-969 168.73,-1018 191.73,-1018 191.73,-969 168.73,-969"/>
</a>
</g>
</g>
<!-- Node3&#45;&gt;Node1 -->
<g id="edge22_Node000001_Node000003" class="edge">
<title>Node3&#45;&gt;Node1</title>
<g id="a_edge22_Node000001_Node000003"><a xlink:title=" ">
<path fill="none" stroke="#63b8ff" d="M168.5,-982.8C139.79,-958.2 66.46,-889.94 40.23,-814 -50.13,-552.36 36.46,-211.99 74.41,-87.14"/>
<polygon fill="none" stroke="#63b8ff" points="74.5,-86.86 72.44,-79.95 78.03,-75.39 80.09,-82.31 74.5,-86.86"/>
</a>
</g>
<text text-anchor="middle" x="33.73" y="-548" font-family="Helvetica,sans-Serif" font-size="10.00" fill="grey"> +timestamp</text>
</g>
<!-- Node3&#45;&gt;Node2 -->
<g id="edge2_Node000002_Node000003" class="edge">
<title>Node3&#45;&gt;Node2</title>
<g id="a_edge2_Node000002_Node000003"><a xlink:title=" ">
<path fill="none" stroke="#63b8ff" d="M189.71,-968.97C202.91,-935.22 226.61,-870.88 239.23,-814 261.43,-713.95 253.71,-686.71 266.23,-585 268.51,-566.51 270.91,-547.3 273.33,-528.05"/>
<polygon fill="none" stroke="#63b8ff" points="273.34,-527.97 270.13,-521.51 274.85,-516.06 278.06,-522.52 273.34,-527.97"/>
</a>
</g>
<text text-anchor="middle" x="282.73" y="-713.5" font-family="Helvetica,sans-Serif" font-size="10.00" fill="grey"> +cols</text>
<text text-anchor="middle" x="282.73" y="-702.5" font-family="Helvetica,sans-Serif" font-size="10.00" fill="grey">+dims</text>
<text text-anchor="middle" x="282.73" y="-691.5" font-family="Helvetica,sans-Serif" font-size="10.00" fill="grey">+flags</text>
<text text-anchor="middle" x="282.73" y="-680.5" font-family="Helvetica,sans-Serif" font-size="10.00" fill="grey">+rows</text>
</g>
<!-- Node7 -->
<g id="Node000007" class="node">
<title>Node7</title>
<g id="a_Node000007"><a xlink:href="../../db/d58/structcv_1_1UMatData.html" target="_top" xlink:title=" ">
<polygon fill="white" stroke="transparent" points="753.73,-814 596.73,-814 596.73,-585 753.73,-585 753.73,-814"/>
<text text-anchor="start" x="642.23" y="-801.5" font-family="Helvetica,sans-Serif" font-size="10.00">cv::UMatData</text>
<text text-anchor="start" x="673.73" y="-786.5" font-family="Helvetica,sans-Serif" font-size="10.00"> </text>
<text text-anchor="start" x="601.23" y="-771.5" font-family="Helvetica,sans-Serif" font-size="10.00">+</text>
<text text-anchor="start" x="614.23" y="-771.5" font-family="Helvetica,sans-Serif" font-size="10.00">UMatData()</text>
<text text-anchor="start" x="601.23" y="-756.5" font-family="Helvetica,sans-Serif" font-size="10.00">+</text>
<text text-anchor="start" x="614.23" y="-756.5" font-family="Helvetica,sans-Serif" font-size="10.00">~UMatData()</text>
<text text-anchor="start" x="601.23" y="-741.5" font-family="Helvetica,sans-Serif" font-size="10.00">+</text>
<text text-anchor="start" x="614.23" y="-741.5" font-family="Helvetica,sans-Serif" font-size="10.00">copyOnMap()</text>
<text text-anchor="start" x="601.23" y="-726.5" font-family="Helvetica,sans-Serif" font-size="10.00">+</text>
<text text-anchor="start" x="614.23" y="-726.5" font-family="Helvetica,sans-Serif" font-size="10.00">deviceCopyObsolete()</text>
<text text-anchor="start" x="601.23" y="-711.5" font-family="Helvetica,sans-Serif" font-size="10.00">+</text>
<text text-anchor="start" x="614.23" y="-711.5" font-family="Helvetica,sans-Serif" font-size="10.00">deviceMemMapped()</text>
<text text-anchor="start" x="601.23" y="-696.5" font-family="Helvetica,sans-Serif" font-size="10.00">+</text>
<text text-anchor="start" x="614.23" y="-696.5" font-family="Helvetica,sans-Serif" font-size="10.00">hostCopyObsolete()</text>
<text text-anchor="start" x="601.23" y="-681.5" font-family="Helvetica,sans-Serif" font-size="10.00">+</text>
<text text-anchor="start" x="614.23" y="-681.5" font-family="Helvetica,sans-Serif" font-size="10.00">lock()</text>
<text text-anchor="start" x="601.23" y="-666.5" font-family="Helvetica,sans-Serif" font-size="10.00">+</text>
<text text-anchor="start" x="614.23" y="-666.5" font-family="Helvetica,sans-Serif" font-size="10.00">markDeviceCopyObsolete()</text>
<text text-anchor="start" x="601.23" y="-651.5" font-family="Helvetica,sans-Serif" font-size="10.00">+</text>
<text text-anchor="start" x="614.23" y="-651.5" font-family="Helvetica,sans-Serif" font-size="10.00">markDeviceMemMapped()</text>
<text text-anchor="start" x="601.23" y="-636.5" font-family="Helvetica,sans-Serif" font-size="10.00">+</text>
<text text-anchor="start" x="614.23" y="-636.5" font-family="Helvetica,sans-Serif" font-size="10.00">markHostCopyObsolete()</text>
<text text-anchor="start" x="601.23" y="-621.5" font-family="Helvetica,sans-Serif" font-size="10.00">+</text>
<text text-anchor="start" x="614.23" y="-621.5" font-family="Helvetica,sans-Serif" font-size="10.00">tempCopiedUMat()</text>
<text text-anchor="start" x="601.23" y="-606.5" font-family="Helvetica,sans-Serif" font-size="10.00">+</text>
<text text-anchor="start" x="614.23" y="-606.5" font-family="Helvetica,sans-Serif" font-size="10.00">tempUMat()</text>
<text text-anchor="start" x="601.23" y="-591.5" font-family="Helvetica,sans-Serif" font-size="10.00">+</text>
<text text-anchor="start" x="614.23" y="-591.5" font-family="Helvetica,sans-Serif" font-size="10.00">unlock()</text>
<polygon fill="#666666" stroke="#666666" points="597.23,-796.5 597.23,-796.5 754.23,-796.5 754.23,-796.5 597.23,-796.5"/>
<polygon fill="#666666" stroke="#666666" points="597.23,-781.5 597.23,-781.5 754.23,-781.5 754.23,-781.5 597.23,-781.5"/>
<polygon fill="none" stroke="#666666" points="596.73,-585 596.73,-814 753.73,-814 753.73,-585 596.73,-585"/>
</a>
</g>
</g>
<!-- Node3&#45;&gt;Node7 -->
<g id="edge8_Node000007_Node000003" class="edge">
<title>Node3&#45;&gt;Node7</title>
<g id="a_edge8_Node000007_Node000003"><a xlink:title=" ">
<path fill="none" stroke="#63b8ff" d="M191.78,-976.28C216.96,-942.38 280.58,-864.5 355.23,-832 448.02,-791.6 492.54,-860.89 582.23,-814 583.63,-813.27 585.01,-812.51 586.38,-811.72"/>
<polygon fill="none" stroke="#63b8ff" points="586.53,-811.62 589.41,-805.01 596.62,-805.12 593.74,-811.73 586.53,-811.62"/>
</a>
</g>
<text text-anchor="middle" x="398.23" y="-868" font-family="Helvetica,sans-Serif" font-size="10.00" fill="grey"> +allocatorFlags_</text>
<text text-anchor="middle" x="398.23" y="-857" font-family="Helvetica,sans-Serif" font-size="10.00" fill="grey">+mapcount</text>
<text text-anchor="middle" x="398.23" y="-846" font-family="Helvetica,sans-Serif" font-size="10.00" fill="grey">+refcount</text>
<text text-anchor="middle" x="398.23" y="-835" font-family="Helvetica,sans-Serif" font-size="10.00" fill="grey">+urefcount</text>
</g>
<!-- Node15 -->
<g id="Node000015" class="node">
<title>Node15</title>
<g id="a_Node000015"><a xlink:href="../../df/d63/structcv_1_1MatSize.html" target="_top" xlink:title=" ">
<polygon fill="white" stroke="transparent" points="136.73,-769 49.73,-769 49.73,-630 136.73,-630 136.73,-769"/>
<text text-anchor="start" x="65.73" y="-756.5" font-family="Helvetica,sans-Serif" font-size="10.00">cv::MatSize</text>
<text text-anchor="start" x="91.73" y="-741.5" font-family="Helvetica,sans-Serif" font-size="10.00"> </text>
<text text-anchor="start" x="54.23" y="-726.5" font-family="Helvetica,sans-Serif" font-size="10.00">+</text>
<text text-anchor="start" x="67.23" y="-726.5" font-family="Helvetica,sans-Serif" font-size="10.00">MatSize()</text>
<text text-anchor="start" x="54.23" y="-711.5" font-family="Helvetica,sans-Serif" font-size="10.00">+</text>
<text text-anchor="start" x="67.23" y="-711.5" font-family="Helvetica,sans-Serif" font-size="10.00">dims()</text>
<text text-anchor="start" x="54.23" y="-696.5" font-family="Helvetica,sans-Serif" font-size="10.00">+</text>
<text text-anchor="start" x="67.23" y="-696.5" font-family="Helvetica,sans-Serif" font-size="10.00">operator!=()</text>
<text text-anchor="start" x="54.23" y="-681.5" font-family="Helvetica,sans-Serif" font-size="10.00">+</text>
<text text-anchor="start" x="67.23" y="-681.5" font-family="Helvetica,sans-Serif" font-size="10.00">operator()()</text>
<text text-anchor="start" x="54.23" y="-666.5" font-family="Helvetica,sans-Serif" font-size="10.00">+</text>
<text text-anchor="start" x="67.23" y="-666.5" font-family="Helvetica,sans-Serif" font-size="10.00">operator==()</text>
<text text-anchor="start" x="54.23" y="-651.5" font-family="Helvetica,sans-Serif" font-size="10.00">+</text>
<text text-anchor="start" x="67.23" y="-651.5" font-family="Helvetica,sans-Serif" font-size="10.00">operator[]()</text>
<text text-anchor="start" x="54.23" y="-636.5" font-family="Helvetica,sans-Serif" font-size="10.00">+</text>
<text text-anchor="start" x="67.23" y="-636.5" font-family="Helvetica,sans-Serif" font-size="10.00">operator[]()</text>
<polygon fill="#666666" stroke="#666666" points="50.23,-751.5 50.23,-751.5 137.23,-751.5 137.23,-751.5 50.23,-751.5"/>
<polygon fill="#666666" stroke="#666666" points="50.23,-736.5 50.23,-736.5 137.23,-736.5 137.23,-736.5 50.23,-736.5"/>
<polygon fill="none" stroke="#666666" points="49.73,-630 49.73,-769 136.73,-769 136.73,-630 49.73,-630"/>
</a>
</g>
</g>
<!-- Node3&#45;&gt;Node15 -->
<g id="edge19_Node000015_Node000003" class="edge">
<title>Node3&#45;&gt;Node15</title>
<g id="a_edge19_Node000015_Node000003"><a xlink:title=" ">
<path fill="none" stroke="#63b8ff" d="M173.11,-968.6C161.02,-928.02 135.95,-843.88 117.1,-780.61"/>
<polygon fill="none" stroke="#63b8ff" points="117.08,-780.56 111.54,-775.95 113.66,-769.06 119.2,-773.67 117.08,-780.56"/>
</a>
</g>
<text text-anchor="middle" x="153.23" y="-851.5" font-family="Helvetica,sans-Serif" font-size="10.00" fill="grey"> +p</text>
</g>
<!-- Node4 -->
<g id="Node000004" class="node">
<title>Node4</title>
<g id="a_Node000004"><a xlink:title=" ">
<polygon fill="white" stroke="transparent" points="575.23,-1018 529.23,-1018 529.23,-969 575.23,-969 575.23,-1018"/>
<text text-anchor="start" x="534.23" y="-1005.5" font-family="Helvetica,sans-Serif" font-size="10.00">uchar *</text>
<text text-anchor="start" x="550.23" y="-990.5" font-family="Helvetica,sans-Serif" font-size="10.00"> </text>
<text text-anchor="start" x="550.23" y="-975.5" font-family="Helvetica,sans-Serif" font-size="10.00"> </text>
<polygon fill="#666666" stroke="#666666" points="529.23,-1000.5 529.23,-1000.5 575.23,-1000.5 575.23,-1000.5 529.23,-1000.5"/>
<polygon fill="#666666" stroke="#666666" points="529.23,-985.5 529.23,-985.5 575.23,-985.5 575.23,-985.5 529.23,-985.5"/>
<polygon fill="none" stroke="#666666" points="529.23,-969 529.23,-1018 575.23,-1018 575.23,-969 529.23,-969"/>
</a>
</g>
</g>
<!-- Node4&#45;&gt;Node2 -->
<g id="edge3_Node000002_Node000004" class="edge">
<title>Node4&#45;&gt;Node2</title>
<g id="a_edge3_Node000002_Node000004"><a xlink:title=" ">
<path fill="none" stroke="#63b8ff" d="M551.11,-968.94C549.13,-937.27 543.83,-879.45 530.23,-832 490.65,-693.95 420.41,-545.15 367.94,-443.74"/>
<polygon fill="none" stroke="#63b8ff" points="367.81,-443.5 361.49,-440.02 362.27,-432.85 368.59,-436.33 367.81,-443.5"/>
</a>
</g>
<text text-anchor="middle" x="539.23" y="-697" font-family="Helvetica,sans-Serif" font-size="10.00" fill="grey"> +data</text>
</g>
<!-- Node4&#45;&gt;Node7 -->
<g id="edge9_Node000007_Node000004" class="edge">
<title>Node4&#45;&gt;Node7</title>
<g id="a_edge9_Node000007_Node000004"><a xlink:title=" ">
<path fill="none" stroke="#63b8ff" d="M554.15,-968.78C557.4,-936.67 565.67,-878.09 585.23,-832 587.01,-827.81 588.94,-823.61 590.98,-819.42"/>
<polygon fill="none" stroke="#63b8ff" points="591.16,-819.07 590.34,-811.9 596.64,-808.39 597.46,-815.55 591.16,-819.07"/>
</a>
</g>
<text text-anchor="middle" x="609.73" y="-857" font-family="Helvetica,sans-Serif" font-size="10.00" fill="grey"> +data</text>
<text text-anchor="middle" x="609.73" y="-846" font-family="Helvetica,sans-Serif" font-size="10.00" fill="grey">+origdata</text>
</g>
<!-- Node5 -->
<g id="Node000005" class="node">
<title>Node5</title>
<g id="a_Node000005"><a xlink:title=" ">
<polygon fill="white" stroke="transparent" points="229.73,-724 154.73,-724 154.73,-675 229.73,-675 229.73,-724"/>
<text text-anchor="start" x="160.23" y="-711.5" font-family="Helvetica,sans-Serif" font-size="10.00">const uchar *</text>
<text text-anchor="start" x="190.73" y="-696.5" font-family="Helvetica,sans-Serif" font-size="10.00"> </text>
<text text-anchor="start" x="190.73" y="-681.5" font-family="Helvetica,sans-Serif" font-size="10.00"> </text>
<polygon fill="#666666" stroke="#666666" points="155.23,-706.5 155.23,-706.5 230.23,-706.5 230.23,-706.5 155.23,-706.5"/>
<polygon fill="#666666" stroke="#666666" points="155.23,-691.5 155.23,-691.5 230.23,-691.5 230.23,-691.5 155.23,-691.5"/>
<polygon fill="none" stroke="#666666" points="154.73,-675 154.73,-724 229.73,-724 229.73,-675 154.73,-675"/>
</a>
</g>
</g>
<!-- Node5&#45;&gt;Node2 -->
<g id="edge4_Node000002_Node000005" class="edge">
<title>Node5&#45;&gt;Node2</title>
<g id="a_edge4_Node000002_Node000005"><a xlink:title=" ">
<path fill="none" stroke="#63b8ff" d="M190.34,-674.93C188.4,-642.62 187.15,-582.99 199.23,-534 206.93,-502.79 219.36,-470.66 232.9,-441.09"/>
<polygon fill="none" stroke="#63b8ff" points="233.06,-440.77 231.98,-433.64 238.14,-429.9 239.22,-437.03 233.06,-440.77"/>
</a>
</g>
<text text-anchor="middle" x="225.73" y="-559" font-family="Helvetica,sans-Serif" font-size="10.00" fill="grey"> +dataend</text>
<text text-anchor="middle" x="225.73" y="-548" font-family="Helvetica,sans-Serif" font-size="10.00" fill="grey">+datalimit</text>
<text text-anchor="middle" x="225.73" y="-537" font-family="Helvetica,sans-Serif" font-size="10.00" fill="grey">+datastart</text>
</g>
<!-- Node6 -->
<g id="Node000006" class="node">
<title>Node6</title>
<g id="a_Node000006"><a xlink:href="../../df/d4c/classcv_1_1MatAllocator.html" target="_top" xlink:title="Custom array allocator.">
<polygon fill="white" stroke="transparent" points="451.73,-1093 308.73,-1093 308.73,-894 451.73,-894 451.73,-1093"/>
<text text-anchor="start" x="341.23" y="-1080.5" font-family="Helvetica,sans-Serif" font-size="10.00">cv::MatAllocator</text>
<text text-anchor="start" x="378.73" y="-1065.5" font-family="Helvetica,sans-Serif" font-size="10.00"> </text>
<text text-anchor="start" x="313.23" y="-1050.5" font-family="Helvetica,sans-Serif" font-size="10.00">+</text>
<text text-anchor="start" x="326.23" y="-1050.5" font-family="Helvetica,sans-Serif" font-size="10.00">MatAllocator()</text>
<text text-anchor="start" x="313.23" y="-1035.5" font-family="Helvetica,sans-Serif" font-size="10.00">+</text>
<text text-anchor="start" x="326.23" y="-1035.5" font-family="Helvetica,sans-Serif" font-size="10.00">~MatAllocator()</text>
<text text-anchor="start" x="313.23" y="-1020.5" font-family="Helvetica,sans-Serif" font-size="10.00">+</text>
<text text-anchor="start" x="326.23" y="-1020.5" font-family="Helvetica,sans-Serif" font-size="10.00">allocate()</text>
<text text-anchor="start" x="313.23" y="-1005.5" font-family="Helvetica,sans-Serif" font-size="10.00">+</text>
<text text-anchor="start" x="326.23" y="-1005.5" font-family="Helvetica,sans-Serif" font-size="10.00">allocate()</text>
<text text-anchor="start" x="313.23" y="-990.5" font-family="Helvetica,sans-Serif" font-size="10.00">+</text>
<text text-anchor="start" x="326.23" y="-990.5" font-family="Helvetica,sans-Serif" font-size="10.00">copy()</text>
<text text-anchor="start" x="313.23" y="-975.5" font-family="Helvetica,sans-Serif" font-size="10.00">+</text>
<text text-anchor="start" x="326.23" y="-975.5" font-family="Helvetica,sans-Serif" font-size="10.00">deallocate()</text>
<text text-anchor="start" x="313.23" y="-960.5" font-family="Helvetica,sans-Serif" font-size="10.00">+</text>
<text text-anchor="start" x="326.23" y="-960.5" font-family="Helvetica,sans-Serif" font-size="10.00">download()</text>
<text text-anchor="start" x="313.23" y="-945.5" font-family="Helvetica,sans-Serif" font-size="10.00">+</text>
<text text-anchor="start" x="326.23" y="-945.5" font-family="Helvetica,sans-Serif" font-size="10.00">getBufferPoolController()</text>
<text text-anchor="start" x="313.23" y="-930.5" font-family="Helvetica,sans-Serif" font-size="10.00">+</text>
<text text-anchor="start" x="326.23" y="-930.5" font-family="Helvetica,sans-Serif" font-size="10.00">map()</text>
<text text-anchor="start" x="313.23" y="-915.5" font-family="Helvetica,sans-Serif" font-size="10.00">+</text>
<text text-anchor="start" x="326.23" y="-915.5" font-family="Helvetica,sans-Serif" font-size="10.00">unmap()</text>
<text text-anchor="start" x="313.23" y="-900.5" font-family="Helvetica,sans-Serif" font-size="10.00">+</text>
<text text-anchor="start" x="326.23" y="-900.5" font-family="Helvetica,sans-Serif" font-size="10.00">upload()</text>
<polygon fill="#666666" stroke="#666666" points="309.23,-1075.5 309.23,-1075.5 452.23,-1075.5 452.23,-1075.5 309.23,-1075.5"/>
<polygon fill="#666666" stroke="#666666" points="309.23,-1060.5 309.23,-1060.5 452.23,-1060.5 452.23,-1060.5 309.23,-1060.5"/>
<polygon fill="none" stroke="#666666" points="308.73,-894 308.73,-1093 451.73,-1093 451.73,-894 308.73,-894"/>
</a>
</g>
</g>
<!-- Node6&#45;&gt;Node2 -->
<g id="edge5_Node000002_Node000006" class="edge">
<title>Node6&#45;&gt;Node2</title>
<g id="a_edge5_Node000002_Node000006"><a xlink:title=" ">
<path fill="none" stroke="#63b8ff" d="M332.37,-893.94C330.41,-887.95 328.67,-881.94 327.23,-876 311.69,-811.85 305.04,-657.83 302.23,-528.13"/>
<polygon fill="none" stroke="#63b8ff" points="302.23,-528.06 298.1,-522.14 301.97,-516.06 306.1,-521.97 302.23,-528.06"/>
</a>
</g>
<text text-anchor="middle" x="343.73" y="-697" font-family="Helvetica,sans-Serif" font-size="10.00" fill="grey"> +allocator</text>
</g>
<!-- Node6&#45;&gt;Node7 -->
<g id="edge7_Node000007_Node000006" class="edge">
<title>Node6&#45;&gt;Node7</title>
<g id="a_edge7_Node000007_Node000006"><a xlink:title=" ">
<path fill="none" stroke="#63b8ff" d="M431.63,-893.67C448.08,-870.28 468.35,-847.63 492.23,-832 526.36,-809.66 547.26,-835 582.23,-814 583.61,-813.17 584.98,-812.31 586.34,-811.43"/>
<polygon fill="none" stroke="#63b8ff" points="586.76,-811.13 589.32,-804.39 596.52,-804.16 593.96,-810.9 586.76,-811.13"/>
</a>
</g>
<text text-anchor="middle" x="529.23" y="-857" font-family="Helvetica,sans-Serif" font-size="10.00" fill="grey"> +currAllocator</text>
<text text-anchor="middle" x="529.23" y="-846" font-family="Helvetica,sans-Serif" font-size="10.00" fill="grey">+prevAllocator</text>
</g>
<!-- Node7&#45;&gt;Node2 -->
<g id="edge6_Node000002_Node000007" class="edge">
<title>Node7&#45;&gt;Node2</title>
<g id="a_edge6_Node000002_Node000007"><a xlink:title=" ">
<path fill="none" stroke="#63b8ff" d="M600.31,-584.84C587.03,-567.21 572.78,-549.67 558.23,-534 501.2,-472.57 426.67,-412.52 372.39,-371.75"/>
<polygon fill="none" stroke="#63b8ff" points="372.11,-371.54 364.91,-371.16 362.5,-364.36 369.7,-364.75 372.11,-371.54"/>
</a>
</g>
<text text-anchor="middle" x="592.23" y="-548" font-family="Helvetica,sans-Serif" font-size="10.00" fill="grey"> +u</text>
</g>
<!-- Node7&#45;&gt;Node7 -->
<g id="edge13_Node000007_Node000007" class="edge">
<title>Node7&#45;&gt;Node7</title>
<g id="a_edge13_Node000007_Node000007"><a xlink:title=" ">
<path fill="none" stroke="#63b8ff" d="M753.99,-724.12C764.64,-719.99 771.73,-711.79 771.73,-699.5 771.73,-691.82 768.96,-685.74 764.28,-681.25"/>
<polygon fill="none" stroke="#63b8ff" points="764.19,-681.19 756.99,-681.44 753.99,-674.88 761.19,-674.63 764.19,-681.19"/>
</a>
</g>
<text text-anchor="middle" x="820.73" y="-697" font-family="Helvetica,sans-Serif" font-size="10.00" fill="grey"> +originalUMatData</text>
</g>
<!-- Node8 -->
<g id="Node000008" class="node">
<title>Node8</title>
<g id="a_Node000008"><a xlink:title=" ">
<polygon fill="white" stroke="transparent" points="953.73,-1018 914.73,-1018 914.73,-969 953.73,-969 953.73,-1018"/>
<text text-anchor="start" x="920.23" y="-1005.5" font-family="Helvetica,sans-Serif" font-size="10.00">size_t</text>
<text text-anchor="start" x="932.73" y="-990.5" font-family="Helvetica,sans-Serif" font-size="10.00"> </text>
<text text-anchor="start" x="932.73" y="-975.5" font-family="Helvetica,sans-Serif" font-size="10.00"> </text>
<polygon fill="#666666" stroke="#666666" points="915.23,-1000.5 915.23,-1000.5 954.23,-1000.5 954.23,-1000.5 915.23,-1000.5"/>
<polygon fill="#666666" stroke="#666666" points="915.23,-985.5 915.23,-985.5 954.23,-985.5 954.23,-985.5 915.23,-985.5"/>
<polygon fill="none" stroke="#666666" points="914.73,-969 914.73,-1018 953.73,-1018 953.73,-969 914.73,-969"/>
</a>
</g>
</g>
<!-- Node8&#45;&gt;Node7 -->
<g id="edge10_Node000007_Node000008" class="edge">
<title>Node8&#45;&gt;Node7</title>
<g id="a_edge10_Node000007_Node000008"><a xlink:title=" ">
<path fill="none" stroke="#63b8ff" d="M927.79,-968.85C917.81,-935.52 896.06,-874.1 861.23,-832 834.5,-799.69 798.01,-771.59 764.42,-749.75"/>
<polygon fill="none" stroke="#63b8ff" points="764.22,-749.62 757.02,-749.77 754.11,-743.17 761.31,-743.02 764.22,-749.62"/>
</a>
</g>
<text text-anchor="middle" x="902.73" y="-851.5" font-family="Helvetica,sans-Serif" font-size="10.00" fill="grey"> +size</text>
</g>
<!-- Node16 -->
<g id="Node000016" class="node">
<title>Node16</title>
<g id="a_Node000016"><a xlink:href="../../d4/d26/structcv_1_1MatStep.html" target="_top" xlink:title=" ">
<polygon fill="white" stroke="transparent" points="997.23,-769 895.23,-769 895.23,-630 997.23,-630 997.23,-769"/>
<text text-anchor="start" x="917.23" y="-756.5" font-family="Helvetica,sans-Serif" font-size="10.00">cv::MatStep</text>
<text text-anchor="start" x="944.23" y="-741.5" font-family="Helvetica,sans-Serif" font-size="10.00"> </text>
<text text-anchor="start" x="899.23" y="-726.5" font-family="Helvetica,sans-Serif" font-size="10.00">+</text>
<text text-anchor="start" x="912.23" y="-726.5" font-family="Helvetica,sans-Serif" font-size="10.00">MatStep()</text>
<text text-anchor="start" x="899.23" y="-711.5" font-family="Helvetica,sans-Serif" font-size="10.00">+</text>
<text text-anchor="start" x="912.23" y="-711.5" font-family="Helvetica,sans-Serif" font-size="10.00">MatStep()</text>
<text text-anchor="start" x="899.23" y="-696.5" font-family="Helvetica,sans-Serif" font-size="10.00">+</text>
<text text-anchor="start" x="912.23" y="-696.5" font-family="Helvetica,sans-Serif" font-size="10.00">operator size_t()</text>
<text text-anchor="start" x="899.23" y="-681.5" font-family="Helvetica,sans-Serif" font-size="10.00">+</text>
<text text-anchor="start" x="912.23" y="-681.5" font-family="Helvetica,sans-Serif" font-size="10.00">operator=()</text>
<text text-anchor="start" x="899.23" y="-666.5" font-family="Helvetica,sans-Serif" font-size="10.00">+</text>
<text text-anchor="start" x="912.23" y="-666.5" font-family="Helvetica,sans-Serif" font-size="10.00">operator[]()</text>
<text text-anchor="start" x="899.23" y="-651.5" font-family="Helvetica,sans-Serif" font-size="10.00">+</text>
<text text-anchor="start" x="912.23" y="-651.5" font-family="Helvetica,sans-Serif" font-size="10.00">operator[]()</text>
<text text-anchor="start" x="899.23" y="-636.5" font-family="Helvetica,sans-Serif" font-size="10.00">#</text>
<text text-anchor="start" x="912.23" y="-636.5" font-family="Helvetica,sans-Serif" font-size="10.00">operator=()</text>
<polygon fill="#666666" stroke="#666666" points="895.23,-751.5 895.23,-751.5 997.23,-751.5 997.23,-751.5 895.23,-751.5"/>
<polygon fill="#666666" stroke="#666666" points="895.23,-736.5 895.23,-736.5 997.23,-736.5 997.23,-736.5 895.23,-736.5"/>
<polygon fill="none" stroke="#666666" points="895.23,-630 895.23,-769 997.23,-769 997.23,-630 895.23,-630"/>
</a>
</g>
</g>
<!-- Node8&#45;&gt;Node16 -->
<g id="edge21_Node000016_Node000008" class="edge">
<title>Node8&#45;&gt;Node16</title>
<g id="a_edge21_Node000016_Node000008"><a xlink:title=" ">
<path fill="none" stroke="#63b8ff" d="M935.21,-968.6C936.87,-928.19 940.31,-844.57 942.91,-781.4"/>
<polygon fill="none" stroke="#63b8ff" points="942.92,-781.05 939.17,-774.89 943.41,-769.06 947.16,-775.22 942.92,-781.05"/>
</a>
</g>
<text text-anchor="middle" x="954.23" y="-857" font-family="Helvetica,sans-Serif" font-size="10.00" fill="grey"> +buf</text>
<text text-anchor="middle" x="954.23" y="-846" font-family="Helvetica,sans-Serif" font-size="10.00" fill="grey">+p</text>
</g>
<!-- Node9 -->
<g id="Node000009" class="node">
<title>Node9</title>
<g id="a_Node000009"><a xlink:title=" ">
<polygon fill="white" stroke="transparent" points="878.23,-1018 806.23,-1018 806.23,-969 878.23,-969 878.23,-1018"/>
<text text-anchor="start" x="811.23" y="-1005.5" font-family="Helvetica,sans-Serif" font-size="10.00">MemoryFlag</text>
<text text-anchor="start" x="840.23" y="-990.5" font-family="Helvetica,sans-Serif" font-size="10.00"> </text>
<text text-anchor="start" x="840.23" y="-975.5" font-family="Helvetica,sans-Serif" font-size="10.00"> </text>
<polygon fill="#666666" stroke="#666666" points="806.23,-1000.5 806.23,-1000.5 878.23,-1000.5 878.23,-1000.5 806.23,-1000.5"/>
<polygon fill="#666666" stroke="#666666" points="806.23,-985.5 806.23,-985.5 878.23,-985.5 878.23,-985.5 806.23,-985.5"/>
<polygon fill="none" stroke="#666666" points="806.23,-969 806.23,-1018 878.23,-1018 878.23,-969 806.23,-969"/>
</a>
</g>
</g>
<!-- Node9&#45;&gt;Node7 -->
<g id="edge11_Node000007_Node000009" class="edge">
<title>Node9&#45;&gt;Node7</title>
<g id="a_edge11_Node000007_Node000009"><a xlink:title=" ">
<path fill="none" stroke="#63b8ff" d="M840.81,-968.75C837.98,-936.09 829.63,-876.34 805.23,-832 793.96,-811.52 778.59,-792.06 762.35,-774.68"/>
<polygon fill="none" stroke="#63b8ff" points="762.12,-774.44 755.08,-772.89 753.8,-765.79 760.85,-767.35 762.12,-774.44"/>
</a>
</g>
<text text-anchor="middle" x="839.73" y="-851.5" font-family="Helvetica,sans-Serif" font-size="10.00" fill="grey"> +flags</text>
</g>
<!-- Node10 -->
<g id="Node000010" class="node">
<title>Node10</title>
<g id="a_Node000010"><a xlink:title=" ">
<polygon fill="white" stroke="transparent" points="642.23,-1018 602.23,-1018 602.23,-969 642.23,-969 642.23,-1018"/>
<text text-anchor="start" x="607.23" y="-1005.5" font-family="Helvetica,sans-Serif" font-size="10.00">void *</text>
<text text-anchor="start" x="620.23" y="-990.5" font-family="Helvetica,sans-Serif" font-size="10.00"> </text>
<text text-anchor="start" x="620.23" y="-975.5" font-family="Helvetica,sans-Serif" font-size="10.00"> </text>
<polygon fill="#666666" stroke="#666666" points="602.23,-1000.5 602.23,-1000.5 642.23,-1000.5 642.23,-1000.5 602.23,-1000.5"/>
<polygon fill="#666666" stroke="#666666" points="602.23,-985.5 602.23,-985.5 642.23,-985.5 642.23,-985.5 602.23,-985.5"/>
<polygon fill="none" stroke="#666666" points="602.23,-969 602.23,-1018 642.23,-1018 642.23,-969 602.23,-969"/>
</a>
</g>
</g>
<!-- Node10&#45;&gt;Node7 -->
<g id="edge12_Node000007_Node000010" class="edge">
<title>Node10&#45;&gt;Node7</title>
<g id="a_edge12_Node000007_Node000010"><a xlink:title=" ">
<path fill="none" stroke="#63b8ff" d="M625.26,-968.76C629.39,-937.36 637.3,-880.35 646.23,-832 646.6,-829.98 646.98,-827.95 647.37,-825.91"/>
<polygon fill="none" stroke="#63b8ff" points="647.38,-825.87 644.6,-819.21 649.67,-814.09 652.45,-820.74 647.38,-825.87"/>
</a>
</g>
<text text-anchor="middle" x="672.23" y="-857" font-family="Helvetica,sans-Serif" font-size="10.00" fill="grey"> +handle</text>
<text text-anchor="middle" x="672.23" y="-846" font-family="Helvetica,sans-Serif" font-size="10.00" fill="grey">+userdata</text>
</g>
<!-- Node11 -->
<g id="Node000011" class="node">
<title>Node11</title>
<g id="a_Node000011"><a xlink:title=" ">
<polygon fill="white" stroke="transparent" points="787.73,-1018 660.73,-1018 660.73,-969 787.73,-969 787.73,-1018"/>
<text text-anchor="start" x="666.23" y="-1005.5" font-family="Helvetica,sans-Serif" font-size="10.00">std::shared_ptr&lt; void &gt;</text>
<text text-anchor="start" x="722.73" y="-990.5" font-family="Helvetica,sans-Serif" font-size="10.00"> </text>
<text text-anchor="start" x="722.73" y="-975.5" font-family="Helvetica,sans-Serif" font-size="10.00"> </text>
<polygon fill="#666666" stroke="#666666" points="661.23,-1000.5 661.23,-1000.5 788.23,-1000.5 788.23,-1000.5 661.23,-1000.5"/>
<polygon fill="#666666" stroke="#666666" points="661.23,-985.5 661.23,-985.5 788.23,-985.5 788.23,-985.5 661.23,-985.5"/>
<polygon fill="none" stroke="#666666" points="660.73,-969 660.73,-1018 787.73,-1018 787.73,-969 660.73,-969"/>
</a>
</g>
</g>
<!-- Node11&#45;&gt;Node7 -->
<g id="edge14_Node000007_Node000011" class="edge">
<title>Node11&#45;&gt;Node7</title>
<g id="a_edge14_Node000007_Node000011"><a xlink:title=" ">
<path fill="none" stroke="#63b8ff" d="M721.48,-968.77C717.72,-937.38 710.5,-880.38 702.23,-832 701.89,-829.99 701.53,-827.96 701.17,-825.91"/>
<polygon fill="none" stroke="#63b8ff" points="701.17,-825.91 696.17,-820.71 699.04,-814.1 704.05,-819.29 701.17,-825.91"/>
</a>
</g>
<text text-anchor="middle" x="754.73" y="-851.5" font-family="Helvetica,sans-Serif" font-size="10.00" fill="grey"> +allocatorContext</text>
</g>
<!-- Node12 -->
<g id="Node000012" class="node">
<title>Node12</title>
<g id="a_Node000012"><a xlink:title=" ">
<polygon fill="white" stroke="transparent" points="705.23,-1189 673.23,-1189 673.23,-1140 705.23,-1140 705.23,-1189"/>
<text text-anchor="start" x="678.23" y="-1176.5" font-family="Helvetica,sans-Serif" font-size="10.00">void</text>
<text text-anchor="start" x="687.23" y="-1161.5" font-family="Helvetica,sans-Serif" font-size="10.00"> </text>
<text text-anchor="start" x="687.23" y="-1146.5" font-family="Helvetica,sans-Serif" font-size="10.00"> </text>
<polygon fill="#666666" stroke="#666666" points="673.23,-1171.5 673.23,-1171.5 705.23,-1171.5 705.23,-1171.5 673.23,-1171.5"/>
<polygon fill="#666666" stroke="#666666" points="673.23,-1156.5 673.23,-1156.5 705.23,-1156.5 705.23,-1156.5 673.23,-1156.5"/>
<polygon fill="none" stroke="#666666" points="673.23,-1140 673.23,-1189 705.23,-1189 705.23,-1140 673.23,-1140"/>
</a>
</g>
</g>
<!-- Node12&#45;&gt;Node11 -->
<g id="edge15_Node000011_Node000012" class="edge">
<title>Node12&#45;&gt;Node11</title>
<g id="a_edge15_Node000011_Node000012"><a xlink:title=" ">
<path fill="none" stroke="#63b8ff" d="M694.17,-1139.64C700.09,-1111.08 710.05,-1062.99 716.87,-1030.05"/>
<polygon fill="none" stroke="#63b8ff" points="716.88,-1029.98 714.18,-1023.3 719.32,-1018.23 722.02,-1024.92 716.88,-1029.98"/>
</a>
</g>
<text text-anchor="middle" x="711.73" y="-1114" font-family="Helvetica,sans-Serif" font-size="10.00" fill="grey"> +ptr</text>
</g>
<!-- Node13 -->
<g id="Node000013" class="node">
<title>Node13</title>
<g id="a_Node000013"><a xlink:title=" ">
<polygon fill="white" stroke="transparent" points="835.23,-1189 723.23,-1189 723.23,-1140 835.23,-1140 835.23,-1189"/>
<text text-anchor="start" x="728.23" y="-1176.5" font-family="Helvetica,sans-Serif" font-size="10.00">std::shared_ptr&lt; T &gt;</text>
<text text-anchor="start" x="777.23" y="-1161.5" font-family="Helvetica,sans-Serif" font-size="10.00"> </text>
<text text-anchor="start" x="734.73" y="-1146.5" font-family="Helvetica,sans-Serif" font-size="10.00">+</text>
<text text-anchor="start" x="755.23" y="-1146.5" font-family="Helvetica,sans-Serif" font-size="10.00">operator&#45;&gt;()</text>
<polygon fill="#666666" stroke="#666666" points="723.23,-1171.5 723.23,-1171.5 835.23,-1171.5 835.23,-1171.5 723.23,-1171.5"/>
<polygon fill="#666666" stroke="#666666" points="723.23,-1156.5 723.23,-1156.5 835.23,-1156.5 835.23,-1156.5 723.23,-1156.5"/>
<polygon fill="none" stroke="#666666" points="723.23,-1140 723.23,-1189 835.23,-1189 835.23,-1140 723.23,-1140"/>
</a>
</g>
</g>
<!-- Node13&#45;&gt;Node11 -->
<g id="edge16_Node000011_Node000013" class="edge">
<title>Node13&#45;&gt;Node11</title>
<g id="a_edge16_Node000011_Node000013"><a xlink:title=" ">
<path fill="none" stroke="orange" d="M768.32,-1129.97C757.57,-1096.96 741.44,-1047.37 731.95,-1018.23"/>
<polygon fill="orange" stroke="orange" points="765.04,-1131.22 771.47,-1139.64 771.7,-1129.05 765.04,-1131.22"/>
</a>
</g>
<text text-anchor="middle" x="787.73" y="-1114" font-family="Helvetica,sans-Serif" font-size="10.00" fill="grey"> &lt; void &gt;</text>
</g>
<!-- Node14 -->
<g id="Node000014" class="node">
<title>Node14</title>
<g id="a_Node000014"><a xlink:title=" ">
<polygon fill="white" stroke="transparent" points="787.73,-1285 770.73,-1285 770.73,-1236 787.73,-1236 787.73,-1285"/>
<text text-anchor="start" x="776.23" y="-1272.5" font-family="Helvetica,sans-Serif" font-size="10.00">T</text>
<text text-anchor="start" x="777.73" y="-1257.5" font-family="Helvetica,sans-Serif" font-size="10.00"> </text>
<text text-anchor="start" x="777.73" y="-1242.5" font-family="Helvetica,sans-Serif" font-size="10.00"> </text>
<polygon fill="#666666" stroke="#666666" points="771.23,-1267.5 771.23,-1267.5 788.23,-1267.5 788.23,-1267.5 771.23,-1267.5"/>
<polygon fill="#666666" stroke="#666666" points="771.23,-1252.5 771.23,-1252.5 788.23,-1252.5 788.23,-1252.5 771.23,-1252.5"/>
<polygon fill="none" stroke="#666666" points="770.73,-1236 770.73,-1285 787.73,-1285 787.73,-1236 770.73,-1236"/>
</a>
</g>
</g>
<!-- Node14&#45;&gt;Node13 -->
<g id="edge17_Node000013_Node000014" class="edge">
<title>Node14&#45;&gt;Node13</title>
<g id="a_edge17_Node000013_Node000014"><a xlink:title=" ">
<path fill="none" stroke="#63b8ff" d="M779.23,-1235.78C779.23,-1225.32 779.23,-1212.79 779.23,-1201.23"/>
<polygon fill="none" stroke="#63b8ff" points="779.23,-1201.21 775.23,-1195.21 779.23,-1189.21 783.23,-1195.21 779.23,-1201.21"/>
</a>
</g>
<text text-anchor="middle" x="791.73" y="-1210" font-family="Helvetica,sans-Serif" font-size="10.00" fill="grey"> +ptr</text>
</g>
<!-- Node15&#45;&gt;Node2 -->
<g id="edge18_Node000002_Node000015" class="edge">
<title>Node15&#45;&gt;Node2</title>
<g id="a_edge18_Node000002_Node000015"><a xlink:title=" ">
<path fill="none" stroke="#63b8ff" d="M116.69,-629.85C127.89,-599.79 142.32,-564.49 158.23,-534 179.4,-493.44 206.41,-451.02 231.18,-414.74"/>
<polygon fill="none" stroke="#63b8ff" points="231.3,-414.57 231.4,-407.36 238.1,-404.68 238,-411.89 231.3,-414.57"/>
</a>
</g>
<text text-anchor="middle" x="173.73" y="-548" font-family="Helvetica,sans-Serif" font-size="10.00" fill="grey"> +size</text>
</g>
<!-- Node16&#45;&gt;Node2 -->
<g id="edge20_Node000002_Node000016" class="edge">
<title>Node16&#45;&gt;Node2</title>
<g id="a_edge20_Node000002_Node000016"><a xlink:title=" ">
<path fill="none" stroke="#63b8ff" d="M914.77,-629.88C905.05,-613.72 893.17,-597.56 879.23,-585 727.38,-448.17 492.83,-370.76 374.27,-338.31"/>
<polygon fill="none" stroke="#63b8ff" points="374.06,-338.25 367.22,-340.55 362.47,-335.12 369.31,-332.82 374.06,-338.25"/>
</a>
</g>
<text text-anchor="middle" x="869.73" y="-548" font-family="Helvetica,sans-Serif" font-size="10.00" fill="grey"> +step</text>
</g>
</g>
</svg>
