<?xml version="1.0" encoding="UTF-8" standalone="no"?>
<!DOCTYPE svg PUBLIC "-//W3C//DTD SVG 1.1//EN"
 "http://www.w3.org/Graphics/SVG/1.1/DTD/svg11.dtd">
<!-- Generated by graphviz version 2.43.0 (0)
 -->
<!-- Title: cv::detail::GCompoundContext Pages: 1 -->
<svg width="324pt" height="551pt"
 viewBox="0.00 0.00 323.50 551.00" xmlns="http://www.w3.org/2000/svg" xmlns:xlink="http://www.w3.org/1999/xlink">
<g id="graph0" class="graph" transform="scale(1 1) rotate(0) translate(4 547)">
<title>cv::detail::GCompoundContext</title>
<!-- Node1 -->
<g id="Node000001" class="node">
<title>Node1</title>
<g id="a_Node000001"><a xlink:title=" ">
<polygon fill="#999999" stroke="transparent" points="263,-64 104,-64 104,0 263,0 263,-64"/>
<text text-anchor="start" x="109.5" y="-52" font-family="Helvetica,sans-Serif" font-size="10.00">cv::detail::GCompoundContext</text>
<text text-anchor="start" x="182" y="-37" font-family="Helvetica,sans-Serif" font-size="10.00"> </text>
<text text-anchor="start" x="116.5" y="-22" font-family="Helvetica,sans-Serif" font-size="10.00">+</text>
<text text-anchor="start" x="137.5" y="-22" font-family="Helvetica,sans-Serif" font-size="10.00">GCompoundContext()</text>
<text text-anchor="start" x="116.5" y="-7" font-family="Helvetica,sans-Serif" font-size="10.00">+</text>
<text text-anchor="start" x="137.5" y="-7" font-family="Helvetica,sans-Serif" font-size="10.00">inArg()</text>
<polygon fill="#666666" stroke="#666666" points="104.5,-47 104.5,-47 263.5,-47 263.5,-47 104.5,-47"/>
<polygon fill="#666666" stroke="#666666" points="104.5,-32 104.5,-32 263.5,-32 263.5,-32 104.5,-32"/>
<polygon fill="none" stroke="#666666" points="104,0 104,-64 263,-64 263,0 104,0"/>
</a>
</g>
</g>
<!-- Node2 -->
<g id="Node000002" class="node">
<title>Node2</title>
<g id="a_Node000002"><a xlink:title=" ">
<polygon fill="white" stroke="transparent" points="238,-171 129,-171 129,-122 238,-122 238,-171"/>
<text text-anchor="start" x="134.5" y="-158.5" font-family="Helvetica,sans-Serif" font-size="10.00">std::vector&lt; GArg &gt;</text>
<text text-anchor="start" x="182" y="-143.5" font-family="Helvetica,sans-Serif" font-size="10.00"> </text>
<text text-anchor="start" x="182" y="-128.5" font-family="Helvetica,sans-Serif" font-size="10.00"> </text>
<polygon fill="#666666" stroke="#666666" points="129.5,-153.5 129.5,-153.5 238.5,-153.5 238.5,-153.5 129.5,-153.5"/>
<polygon fill="#666666" stroke="#666666" points="129.5,-138.5 129.5,-138.5 238.5,-138.5 238.5,-138.5 129.5,-138.5"/>
<polygon fill="none" stroke="#666666" points="129,-122 129,-171 238,-171 238,-122 129,-122"/>
</a>
</g>
</g>
<!-- Node2&#45;&gt;Node1 -->
<g id="edge1_Node000001_Node000002" class="edge">
<title>Node2&#45;&gt;Node1</title>
<g id="a_edge1_Node000001_Node000002"><a xlink:title=" ">
<path fill="none" stroke="#63b8ff" d="M183.5,-121.92C183.5,-108.7 183.5,-91.8 183.5,-76.29"/>
<polygon fill="none" stroke="#63b8ff" points="183.5,-76.24 179.5,-70.24 183.5,-64.24 187.5,-70.24 183.5,-76.24"/>
</a>
</g>
<text text-anchor="middle" x="212" y="-96" font-family="Helvetica,sans-Serif" font-size="10.00" fill="grey"> +m_args</text>
<text text-anchor="middle" x="212" y="-85" font-family="Helvetica,sans-Serif" font-size="10.00" fill="grey">+m_results</text>
</g>
<!-- Node3 -->
<g id="Node000003" class="node">
<title>Node3</title>
<g id="a_Node000003"><a xlink:href="../../d7/de1/classcv_1_1GArg.html" target="_top" xlink:title=" ">
<polygon fill="white" stroke="transparent" points="173,-357 90,-357 90,-218 173,-218 173,-357"/>
<text text-anchor="start" x="111.5" y="-344.5" font-family="Helvetica,sans-Serif" font-size="10.00">cv::GArg</text>
<text text-anchor="start" x="130" y="-329.5" font-family="Helvetica,sans-Serif" font-size="10.00"> </text>
<text text-anchor="start" x="94.5" y="-314.5" font-family="Helvetica,sans-Serif" font-size="10.00">+</text>
<text text-anchor="start" x="107.5" y="-314.5" font-family="Helvetica,sans-Serif" font-size="10.00">GArg()</text>
<text text-anchor="start" x="94.5" y="-299.5" font-family="Helvetica,sans-Serif" font-size="10.00">+</text>
<text text-anchor="start" x="107.5" y="-299.5" font-family="Helvetica,sans-Serif" font-size="10.00">GArg()</text>
<text text-anchor="start" x="94.5" y="-284.5" font-family="Helvetica,sans-Serif" font-size="10.00">+</text>
<text text-anchor="start" x="107.5" y="-284.5" font-family="Helvetica,sans-Serif" font-size="10.00">GArg()</text>
<text text-anchor="start" x="94.5" y="-269.5" font-family="Helvetica,sans-Serif" font-size="10.00">+</text>
<text text-anchor="start" x="107.5" y="-269.5" font-family="Helvetica,sans-Serif" font-size="10.00">get()</text>
<text text-anchor="start" x="94.5" y="-254.5" font-family="Helvetica,sans-Serif" font-size="10.00">+</text>
<text text-anchor="start" x="107.5" y="-254.5" font-family="Helvetica,sans-Serif" font-size="10.00">get()</text>
<text text-anchor="start" x="94.5" y="-239.5" font-family="Helvetica,sans-Serif" font-size="10.00">+</text>
<text text-anchor="start" x="107.5" y="-239.5" font-family="Helvetica,sans-Serif" font-size="10.00">unsafe_get()</text>
<text text-anchor="start" x="94.5" y="-224.5" font-family="Helvetica,sans-Serif" font-size="10.00">+</text>
<text text-anchor="start" x="107.5" y="-224.5" font-family="Helvetica,sans-Serif" font-size="10.00">unsafe_get()</text>
<polygon fill="#666666" stroke="#666666" points="90.5,-339.5 90.5,-339.5 173.5,-339.5 173.5,-339.5 90.5,-339.5"/>
<polygon fill="#666666" stroke="#666666" points="90.5,-324.5 90.5,-324.5 173.5,-324.5 173.5,-324.5 90.5,-324.5"/>
<polygon fill="none" stroke="#666666" points="90,-218 90,-357 173,-357 173,-218 90,-218"/>
</a>
</g>
</g>
<!-- Node3&#45;&gt;Node2 -->
<g id="edge2_Node000002_Node000003" class="edge">
<title>Node3&#45;&gt;Node2</title>
<g id="a_edge2_Node000002_Node000003"><a xlink:title=" ">
<path fill="none" stroke="#63b8ff" d="M146.99,-217.95C150.02,-208.07 153.52,-198.16 157.5,-189 158.51,-186.69 159.63,-184.35 160.83,-182.03"/>
<polygon fill="none" stroke="#63b8ff" points="160.93,-181.85 160.4,-174.66 166.84,-171.41 167.36,-178.6 160.93,-181.85"/>
</a>
</g>
<text text-anchor="middle" x="186.5" y="-192" font-family="Helvetica,sans-Serif" font-size="10.00" fill="grey"> +elements</text>
</g>
<!-- Node4 -->
<g id="Node000004" class="node">
<title>Node4</title>
<g id="a_Node000004"><a xlink:title=" ">
<polygon fill="white" stroke="transparent" points="49,-498 0,-498 0,-449 49,-449 49,-498"/>
<text text-anchor="start" x="5.5" y="-485.5" font-family="Helvetica,sans-Serif" font-size="10.00">ArgKind</text>
<text text-anchor="start" x="23" y="-470.5" font-family="Helvetica,sans-Serif" font-size="10.00"> </text>
<text text-anchor="start" x="23" y="-455.5" font-family="Helvetica,sans-Serif" font-size="10.00"> </text>
<polygon fill="#666666" stroke="#666666" points="0.5,-480.5 0.5,-480.5 49.5,-480.5 49.5,-480.5 0.5,-480.5"/>
<polygon fill="#666666" stroke="#666666" points="0.5,-465.5 0.5,-465.5 49.5,-465.5 49.5,-465.5 0.5,-465.5"/>
<polygon fill="none" stroke="#666666" points="0,-449 0,-498 49,-498 49,-449 0,-449"/>
</a>
</g>
</g>
<!-- Node4&#45;&gt;Node3 -->
<g id="edge3_Node000003_Node000004" class="edge">
<title>Node4&#45;&gt;Node3</title>
<g id="a_edge3_Node000003_Node000004"><a xlink:title=" ">
<path fill="none" stroke="#63b8ff" d="M32.52,-448.86C39.84,-428.6 51.6,-398.99 65.5,-375 70.6,-366.19 76.48,-357.25 82.59,-348.63"/>
<polygon fill="none" stroke="#63b8ff" points="82.76,-348.39 83.06,-341.19 89.82,-338.69 89.53,-345.9 82.76,-348.39"/>
</a>
</g>
<text text-anchor="middle" x="82" y="-378" font-family="Helvetica,sans-Serif" font-size="10.00" fill="grey"> +kind</text>
</g>
<!-- Node5 -->
<g id="Node000005" class="node">
<title>Node5</title>
<g id="a_Node000005"><a xlink:title=" ">
<polygon fill="white" stroke="transparent" points="137.5,-498 67.5,-498 67.5,-449 137.5,-449 137.5,-498"/>
<text text-anchor="start" x="72.5" y="-485.5" font-family="Helvetica,sans-Serif" font-size="10.00">OpaqueKind</text>
<text text-anchor="start" x="100.5" y="-470.5" font-family="Helvetica,sans-Serif" font-size="10.00"> </text>
<text text-anchor="start" x="100.5" y="-455.5" font-family="Helvetica,sans-Serif" font-size="10.00"> </text>
<polygon fill="#666666" stroke="#666666" points="67.5,-480.5 67.5,-480.5 137.5,-480.5 137.5,-480.5 67.5,-480.5"/>
<polygon fill="#666666" stroke="#666666" points="67.5,-465.5 67.5,-465.5 137.5,-465.5 137.5,-465.5 67.5,-465.5"/>
<polygon fill="none" stroke="#666666" points="67.5,-449 67.5,-498 137.5,-498 137.5,-449 67.5,-449"/>
</a>
</g>
</g>
<!-- Node5&#45;&gt;Node3 -->
<g id="edge4_Node000003_Node000005" class="edge">
<title>Node5&#45;&gt;Node3</title>
<g id="a_edge4_Node000003_Node000005"><a xlink:title=" ">
<path fill="none" stroke="#63b8ff" d="M100.75,-448.69C99.77,-428.84 99.44,-399.89 103.5,-375 103.81,-373.11 104.15,-371.2 104.52,-369.29"/>
<polygon fill="none" stroke="#63b8ff" points="104.55,-369.16 101.94,-362.44 107.15,-357.45 109.75,-364.17 104.55,-369.16"/>
</a>
</g>
<text text-anchor="middle" x="140.5" y="-378" font-family="Helvetica,sans-Serif" font-size="10.00" fill="grey"> +opaque_kind</text>
</g>
<!-- Node6 -->
<g id="Node000006" class="node">
<title>Node6</title>
<g id="a_Node000006"><a xlink:href="../../d9/dc4/classcv_1_1util_1_1any.html" target="_top" xlink:title=" ">
<polygon fill="white" stroke="transparent" points="239,-543 160,-543 160,-404 239,-404 239,-543"/>
<text text-anchor="start" x="171.5" y="-530.5" font-family="Helvetica,sans-Serif" font-size="10.00">cv::util::any</text>
<text text-anchor="start" x="198" y="-515.5" font-family="Helvetica,sans-Serif" font-size="10.00"> </text>
<text text-anchor="start" x="164.5" y="-500.5" font-family="Helvetica,sans-Serif" font-size="10.00">+</text>
<text text-anchor="start" x="177.5" y="-500.5" font-family="Helvetica,sans-Serif" font-size="10.00">any()</text>
<text text-anchor="start" x="164.5" y="-485.5" font-family="Helvetica,sans-Serif" font-size="10.00">+</text>
<text text-anchor="start" x="177.5" y="-485.5" font-family="Helvetica,sans-Serif" font-size="10.00">any()</text>
<text text-anchor="start" x="164.5" y="-470.5" font-family="Helvetica,sans-Serif" font-size="10.00">+</text>
<text text-anchor="start" x="177.5" y="-470.5" font-family="Helvetica,sans-Serif" font-size="10.00">any()</text>
<text text-anchor="start" x="164.5" y="-455.5" font-family="Helvetica,sans-Serif" font-size="10.00">+</text>
<text text-anchor="start" x="177.5" y="-455.5" font-family="Helvetica,sans-Serif" font-size="10.00">any()</text>
<text text-anchor="start" x="164.5" y="-440.5" font-family="Helvetica,sans-Serif" font-size="10.00">+</text>
<text text-anchor="start" x="177.5" y="-440.5" font-family="Helvetica,sans-Serif" font-size="10.00">any()</text>
<text text-anchor="start" x="164.5" y="-425.5" font-family="Helvetica,sans-Serif" font-size="10.00">+</text>
<text text-anchor="start" x="177.5" y="-425.5" font-family="Helvetica,sans-Serif" font-size="10.00">operator=()</text>
<text text-anchor="start" x="164.5" y="-410.5" font-family="Helvetica,sans-Serif" font-size="10.00">+</text>
<text text-anchor="start" x="177.5" y="-410.5" font-family="Helvetica,sans-Serif" font-size="10.00">operator=()</text>
<polygon fill="#666666" stroke="#666666" points="160.5,-525.5 160.5,-525.5 239.5,-525.5 239.5,-525.5 160.5,-525.5"/>
<polygon fill="#666666" stroke="#666666" points="160.5,-510.5 160.5,-510.5 239.5,-510.5 239.5,-510.5 160.5,-510.5"/>
<polygon fill="none" stroke="#666666" points="160,-404 160,-543 239,-543 239,-404 160,-404"/>
</a>
</g>
</g>
<!-- Node6&#45;&gt;Node3 -->
<g id="edge5_Node000003_Node000006" class="edge">
<title>Node6&#45;&gt;Node3</title>
<g id="a_edge5_Node000003_Node000006"><a xlink:title=" ">
<path fill="none" stroke="#63b8ff" d="M186.46,-403.9C183.89,-394.08 180.91,-384.19 177.5,-375 176.68,-372.79 175.81,-370.56 174.91,-368.33"/>
<polygon fill="none" stroke="#63b8ff" points="174.84,-368.17 168.79,-364.24 170.09,-357.15 176.14,-361.08 174.84,-368.17"/>
</a>
</g>
<text text-anchor="middle" x="200" y="-378" font-family="Helvetica,sans-Serif" font-size="10.00" fill="grey"> #value</text>
</g>
<!-- Node7 -->
<g id="Node000007" class="node">
<title>Node7</title>
<g id="a_Node000007"><a xlink:title=" ">
<polygon fill="white" stroke="transparent" points="296,-312 205,-312 205,-263 296,-263 296,-312"/>
<text text-anchor="start" x="210.5" y="-299.5" font-family="Helvetica,sans-Serif" font-size="10.00">std::vector&lt; T &gt;</text>
<text text-anchor="start" x="249" y="-284.5" font-family="Helvetica,sans-Serif" font-size="10.00"> </text>
<text text-anchor="start" x="249" y="-269.5" font-family="Helvetica,sans-Serif" font-size="10.00"> </text>
<polygon fill="#666666" stroke="#666666" points="205.5,-294.5 205.5,-294.5 296.5,-294.5 296.5,-294.5 205.5,-294.5"/>
<polygon fill="#666666" stroke="#666666" points="205.5,-279.5 205.5,-279.5 296.5,-279.5 296.5,-279.5 205.5,-279.5"/>
<polygon fill="none" stroke="#666666" points="205,-263 205,-312 296,-312 296,-263 205,-263"/>
</a>
</g>
</g>
<!-- Node7&#45;&gt;Node2 -->
<g id="edge6_Node000002_Node000007" class="edge">
<title>Node7&#45;&gt;Node2</title>
<g id="a_edge6_Node000002_Node000007"><a xlink:title=" ">
<path fill="none" stroke="orange" d="M241.37,-253.16C235.38,-233.79 226.6,-209.29 215.5,-189 212.18,-182.93 208.01,-176.81 203.79,-171.2"/>
<polygon fill="orange" stroke="orange" points="238.03,-254.19 244.25,-262.77 244.73,-252.19 238.03,-254.19"/>
</a>
</g>
<text text-anchor="middle" x="245.5" y="-192" font-family="Helvetica,sans-Serif" font-size="10.00" fill="grey"> &lt; GArg &gt;</text>
</g>
<!-- Node8 -->
<g id="Node000008" class="node">
<title>Node8</title>
<g id="a_Node000008"><a xlink:title=" ">
<polygon fill="white" stroke="transparent" points="274,-498 257,-498 257,-449 274,-449 274,-498"/>
<text text-anchor="start" x="262.5" y="-485.5" font-family="Helvetica,sans-Serif" font-size="10.00">T</text>
<text text-anchor="start" x="264" y="-470.5" font-family="Helvetica,sans-Serif" font-size="10.00"> </text>
<text text-anchor="start" x="264" y="-455.5" font-family="Helvetica,sans-Serif" font-size="10.00"> </text>
<polygon fill="#666666" stroke="#666666" points="257.5,-480.5 257.5,-480.5 274.5,-480.5 274.5,-480.5 257.5,-480.5"/>
<polygon fill="#666666" stroke="#666666" points="257.5,-465.5 257.5,-465.5 274.5,-465.5 274.5,-465.5 257.5,-465.5"/>
<polygon fill="none" stroke="#666666" points="257,-449 257,-498 274,-498 274,-449 257,-449"/>
</a>
</g>
</g>
<!-- Node8&#45;&gt;Node7 -->
<g id="edge7_Node000007_Node000008" class="edge">
<title>Node8&#45;&gt;Node7</title>
<g id="a_edge7_Node000007_Node000008"><a xlink:title=" ">
<path fill="none" stroke="#63b8ff" d="M263.57,-448.82C260.99,-417.22 256.41,-360.97 253.41,-324.21"/>
<polygon fill="none" stroke="#63b8ff" points="253.4,-324.05 248.92,-318.39 252.42,-312.09 256.9,-317.74 253.4,-324.05"/>
</a>
</g>
<text text-anchor="middle" x="286.5" y="-378" font-family="Helvetica,sans-Serif" font-size="10.00" fill="grey"> +elements</text>
</g>
</g>
</svg>
