<?xml version="1.0" encoding="UTF-8" standalone="no"?>
<!DOCTYPE svg PUBLIC "-//W3C//DTD SVG 1.1//EN"
 "http://www.w3.org/Graphics/SVG/1.1/DTD/svg11.dtd">
<!-- Generated by graphviz version 2.43.0 (0)
 -->
<!-- Title: cv::dnn::TextRecognitionModel Pages: 1 -->
<svg width="179pt" height="546pt"
 viewBox="0.00 0.00 179.00 546.00" xmlns="http://www.w3.org/2000/svg" xmlns:xlink="http://www.w3.org/1999/xlink">
<g id="graph0" class="graph" transform="scale(1 1) rotate(0) translate(4 542)">
<title>cv::dnn::TextRecognitionModel</title>
<!-- Node1 -->
<g id="Node000001" class="node">
<title>Node1</title>
<g id="a_Node000001"><a xlink:title="This class represents high&#45;level API for text recognition networks.">
<polygon fill="#999999" stroke="transparent" points="171,-206 0,-206 0,0 171,0 171,-206"/>
<text text-anchor="start" x="26.5" y="-194" font-family="Helvetica,sans-Serif" font-size="10.00">cv::dnn::TextRecognition</text>
<text text-anchor="start" x="70.5" y="-183" font-family="Helvetica,sans-Serif" font-size="10.00">Model</text>
<text text-anchor="start" x="84" y="-168" font-family="Helvetica,sans-Serif" font-size="10.00"> </text>
<text text-anchor="start" x="4.5" y="-153" font-family="Helvetica,sans-Serif" font-size="10.00">+</text>
<text text-anchor="start" x="17.5" y="-153" font-family="Helvetica,sans-Serif" font-size="10.00">TextRecognitionModel()</text>
<text text-anchor="start" x="4.5" y="-138" font-family="Helvetica,sans-Serif" font-size="10.00">+</text>
<text text-anchor="start" x="17.5" y="-138" font-family="Helvetica,sans-Serif" font-size="10.00">TextRecognitionModel()</text>
<text text-anchor="start" x="4.5" y="-123" font-family="Helvetica,sans-Serif" font-size="10.00">+</text>
<text text-anchor="start" x="17.5" y="-123" font-family="Helvetica,sans-Serif" font-size="10.00">TextRecognitionModel()</text>
<text text-anchor="start" x="4.5" y="-108" font-family="Helvetica,sans-Serif" font-size="10.00">+</text>
<text text-anchor="start" x="17.5" y="-108" font-family="Helvetica,sans-Serif" font-size="10.00">getDecodeType()</text>
<text text-anchor="start" x="4.5" y="-93" font-family="Helvetica,sans-Serif" font-size="10.00">+</text>
<text text-anchor="start" x="17.5" y="-93" font-family="Helvetica,sans-Serif" font-size="10.00">getVocabulary()</text>
<text text-anchor="start" x="4.5" y="-78" font-family="Helvetica,sans-Serif" font-size="10.00">+</text>
<text text-anchor="start" x="17.5" y="-78" font-family="Helvetica,sans-Serif" font-size="10.00">recognize()</text>
<text text-anchor="start" x="4.5" y="-63" font-family="Helvetica,sans-Serif" font-size="10.00">+</text>
<text text-anchor="start" x="17.5" y="-63" font-family="Helvetica,sans-Serif" font-size="10.00">recognize()</text>
<text text-anchor="start" x="4.5" y="-48" font-family="Helvetica,sans-Serif" font-size="10.00">+</text>
<text text-anchor="start" x="17.5" y="-48" font-family="Helvetica,sans-Serif" font-size="10.00">setDecodeOptsCTCPrefixBeam</text>
<text text-anchor="start" x="17.5" y="-37" font-family="Helvetica,sans-Serif" font-size="10.00">Search()</text>
<text text-anchor="start" x="4.5" y="-22" font-family="Helvetica,sans-Serif" font-size="10.00">+</text>
<text text-anchor="start" x="17.5" y="-22" font-family="Helvetica,sans-Serif" font-size="10.00">setDecodeType()</text>
<text text-anchor="start" x="4.5" y="-7" font-family="Helvetica,sans-Serif" font-size="10.00">+</text>
<text text-anchor="start" x="17.5" y="-7" font-family="Helvetica,sans-Serif" font-size="10.00">setVocabulary()</text>
<polygon fill="#666666" stroke="#666666" points="0.5,-178 0.5,-178 171.5,-178 171.5,-178 0.5,-178"/>
<polygon fill="#666666" stroke="#666666" points="0.5,-163 0.5,-163 171.5,-163 171.5,-163 0.5,-163"/>
<polygon fill="none" stroke="#666666" points="0,0 0,-206 171,-206 171,0 0,0"/>
</a>
</g>
</g>
<!-- Node2 -->
<g id="Node000002" class="node">
<title>Node2</title>
<g id="a_Node000002"><a xlink:href="../../d3/df0/classcv_1_1dnn_1_1Model.html" target="_top" xlink:title="This class is presented high&#45;level API for neural networks.">
<polygon fill="white" stroke="transparent" points="140,-442 31,-442 31,-243 140,-243 140,-442"/>
<text text-anchor="start" x="50.5" y="-429.5" font-family="Helvetica,sans-Serif" font-size="10.00">cv::dnn::Model</text>
<text text-anchor="start" x="84" y="-414.5" font-family="Helvetica,sans-Serif" font-size="10.00"> </text>
<text text-anchor="start" x="35.5" y="-399.5" font-family="Helvetica,sans-Serif" font-size="10.00">+</text>
<text text-anchor="start" x="48.5" y="-399.5" font-family="Helvetica,sans-Serif" font-size="10.00">Model()</text>
<text text-anchor="start" x="35.5" y="-384.5" font-family="Helvetica,sans-Serif" font-size="10.00">+</text>
<text text-anchor="start" x="48.5" y="-384.5" font-family="Helvetica,sans-Serif" font-size="10.00">Model()</text>
<text text-anchor="start" x="35.5" y="-369.5" font-family="Helvetica,sans-Serif" font-size="10.00">+</text>
<text text-anchor="start" x="48.5" y="-369.5" font-family="Helvetica,sans-Serif" font-size="10.00">Model()</text>
<text text-anchor="start" x="35.5" y="-354.5" font-family="Helvetica,sans-Serif" font-size="10.00">+</text>
<text text-anchor="start" x="48.5" y="-354.5" font-family="Helvetica,sans-Serif" font-size="10.00">Model()</text>
<text text-anchor="start" x="35.5" y="-339.5" font-family="Helvetica,sans-Serif" font-size="10.00">+</text>
<text text-anchor="start" x="48.5" y="-339.5" font-family="Helvetica,sans-Serif" font-size="10.00">Model()</text>
<text text-anchor="start" x="35.5" y="-324.5" font-family="Helvetica,sans-Serif" font-size="10.00">+</text>
<text text-anchor="start" x="48.5" y="-324.5" font-family="Helvetica,sans-Serif" font-size="10.00">enableWinograd()</text>
<text text-anchor="start" x="35.5" y="-309.5" font-family="Helvetica,sans-Serif" font-size="10.00">+</text>
<text text-anchor="start" x="48.5" y="-309.5" font-family="Helvetica,sans-Serif" font-size="10.00">getImpl()</text>
<text text-anchor="start" x="35.5" y="-294.5" font-family="Helvetica,sans-Serif" font-size="10.00">+</text>
<text text-anchor="start" x="48.5" y="-294.5" font-family="Helvetica,sans-Serif" font-size="10.00">getImplRef()</text>
<text text-anchor="start" x="35.5" y="-279.5" font-family="Helvetica,sans-Serif" font-size="10.00">+</text>
<text text-anchor="start" x="48.5" y="-279.5" font-family="Helvetica,sans-Serif" font-size="10.00">getNetwork_()</text>
<text text-anchor="start" x="35.5" y="-264.5" font-family="Helvetica,sans-Serif" font-size="10.00">+</text>
<text text-anchor="start" x="48.5" y="-264.5" font-family="Helvetica,sans-Serif" font-size="10.00">getNetwork_()</text>
<text text-anchor="start" x="48.5" y="-249.5" font-family="Helvetica,sans-Serif" font-size="10.00">and 14 more...</text>
<polygon fill="#666666" stroke="#666666" points="31.5,-424.5 31.5,-424.5 140.5,-424.5 140.5,-424.5 31.5,-424.5"/>
<polygon fill="#666666" stroke="#666666" points="31.5,-409.5 31.5,-409.5 140.5,-409.5 140.5,-409.5 31.5,-409.5"/>
<polygon fill="none" stroke="#666666" points="31,-243 31,-442 140,-442 140,-243 31,-243"/>
</a>
</g>
</g>
<!-- Node2&#45;&gt;Node1 -->
<g id="edge1_Node000001_Node000002" class="edge">
<title>Node2&#45;&gt;Node1</title>
<g id="a_edge1_Node000001_Node000002"><a xlink:title=" ">
<path fill="none" stroke="#63b8ff" d="M85.5,-232.57C85.5,-223.78 85.5,-214.92 85.5,-206.18"/>
<polygon fill="none" stroke="#63b8ff" points="82,-232.84 85.5,-242.84 89,-232.84 82,-232.84"/>
</a>
</g>
</g>
<!-- Node3 -->
<g id="Node000003" class="node">
<title>Node3</title>
<g id="a_Node000003"><a xlink:title=" ">
<polygon fill="white" stroke="transparent" points="119.5,-538 51.5,-538 51.5,-489 119.5,-489 119.5,-538"/>
<text text-anchor="start" x="56.5" y="-525.5" font-family="Helvetica,sans-Serif" font-size="10.00">Ptr&lt; Impl &gt;</text>
<text text-anchor="start" x="83.5" y="-510.5" font-family="Helvetica,sans-Serif" font-size="10.00"> </text>
<text text-anchor="start" x="83.5" y="-495.5" font-family="Helvetica,sans-Serif" font-size="10.00"> </text>
<polygon fill="#666666" stroke="#666666" points="51.5,-520.5 51.5,-520.5 119.5,-520.5 119.5,-520.5 51.5,-520.5"/>
<polygon fill="#666666" stroke="#666666" points="51.5,-505.5 51.5,-505.5 119.5,-505.5 119.5,-505.5 51.5,-505.5"/>
<polygon fill="none" stroke="#666666" points="51.5,-489 51.5,-538 119.5,-538 119.5,-489 51.5,-489"/>
</a>
</g>
</g>
<!-- Node3&#45;&gt;Node2 -->
<g id="edge2_Node000002_Node000003" class="edge">
<title>Node3&#45;&gt;Node2</title>
<g id="a_edge2_Node000002_Node000003"><a xlink:title=" ">
<path fill="none" stroke="#63b8ff" d="M85.5,-488.64C85.5,-479.06 85.5,-467.28 85.5,-454.6"/>
<polygon fill="none" stroke="#63b8ff" points="85.5,-454.22 81.5,-448.22 85.5,-442.22 89.5,-448.22 85.5,-454.22"/>
</a>
</g>
<text text-anchor="middle" x="102.5" y="-463" font-family="Helvetica,sans-Serif" font-size="10.00" fill="grey"> #impl</text>
</g>
</g>
</svg>
