<?xml version="1.0" encoding="UTF-8" standalone="no"?>
<!DOCTYPE svg PUBLIC "-//W3C//DTD SVG 1.1//EN"
 "http://www.w3.org/Graphics/SVG/1.1/DTD/svg11.dtd">
<!-- Generated by graphviz version 2.43.0 (0)
 -->
<!-- Title: cv::ocl::OpenCLExecutionContextScope::~OpenCLExecutionContextScope Pages: 1 -->
<svg width="365pt" height="86pt"
 viewBox="0.00 0.00 365.00 86.00" xmlns="http://www.w3.org/2000/svg" xmlns:xlink="http://www.w3.org/1999/xlink">
<g id="graph0" class="graph" transform="scale(1 1) rotate(0) translate(4 82)">
<title>cv::ocl::OpenCLExecutionContextScope::~OpenCLExecutionContextScope</title>
<!-- Node1 -->
<g id="Node000001" class="node">
<title>Node1</title>
<g id="a_Node000001"><a xlink:title=" ">
<polygon fill="#999999" stroke="#666666" points="183,-59.5 0,-59.5 0,-18.5 183,-18.5 183,-59.5"/>
<text text-anchor="start" x="8" y="-47.5" font-family="Helvetica,sans-Serif" font-size="10.00">cv::ocl::OpenCLExecution</text>
<text text-anchor="start" x="8" y="-36.5" font-family="Helvetica,sans-Serif" font-size="10.00">ContextScope::~OpenCLExecution</text>
<text text-anchor="middle" x="91.5" y="-25.5" font-family="Helvetica,sans-Serif" font-size="10.00">ContextScope</text>
</a>
</g>
</g>
<!-- Node2 -->
<g id="Node000002" class="node">
<title>Node2</title>
<g id="a_Node000002"><a xlink:href="../../d7/d83/classcv_1_1ocl_1_1OpenCLExecutionContext.html#a48b5bca72706e8875c581fd6e55d0782" target="_top" xlink:title=" ">
<polygon fill="white" stroke="#666666" points="357,-78 219,-78 219,-48 357,-48 357,-78"/>
<text text-anchor="start" x="227" y="-66" font-family="Helvetica,sans-Serif" font-size="10.00">cv::ocl::OpenCLExecution</text>
<text text-anchor="middle" x="288" y="-55" font-family="Helvetica,sans-Serif" font-size="10.00">Context::bind</text>
</a>
</g>
</g>
<!-- Node1&#45;&gt;Node2 -->
<g id="edge1_Node000001_Node000002" class="edge">
<title>Node1&#45;&gt;Node2</title>
<g id="a_edge1_Node000001_Node000002"><a xlink:title=" ">
<path fill="none" stroke="#63b8ff" d="M183.2,-50.19C191.72,-51.24 200.31,-52.3 208.7,-53.34"/>
<polygon fill="#63b8ff" stroke="#63b8ff" points="208.47,-56.84 218.82,-54.59 209.32,-49.89 208.47,-56.84"/>
</a>
</g>
</g>
<!-- Node3 -->
<g id="Node000003" class="node">
<title>Node3</title>
<g id="a_Node000003"><a xlink:href="../../d7/d83/classcv_1_1ocl_1_1OpenCLExecutionContext.html#a0c626e6579c65d10af592f4eeb31a112" target="_top" xlink:title=" ">
<polygon fill="white" stroke="#666666" points="357,-30 219,-30 219,0 357,0 357,-30"/>
<text text-anchor="start" x="227" y="-18" font-family="Helvetica,sans-Serif" font-size="10.00">cv::ocl::OpenCLExecution</text>
<text text-anchor="middle" x="288" y="-7" font-family="Helvetica,sans-Serif" font-size="10.00">Context::empty</text>
</a>
</g>
</g>
<!-- Node1&#45;&gt;Node3 -->
<g id="edge2_Node000001_Node000003" class="edge">
<title>Node1&#45;&gt;Node3</title>
<g id="a_edge2_Node000001_Node000003"><a xlink:title=" ">
<path fill="none" stroke="#63b8ff" d="M183.2,-27.81C191.72,-26.76 200.31,-25.7 208.7,-24.66"/>
<polygon fill="#63b8ff" stroke="#63b8ff" points="209.32,-28.11 218.82,-23.41 208.47,-21.16 209.32,-28.11"/>
</a>
</g>
</g>
</g>
</svg>
