<?xml version="1.0" encoding="UTF-8" standalone="no"?>
<!DOCTYPE svg PUBLIC "-//W3C//DTD SVG 1.1//EN"
 "http://www.w3.org/Graphics/SVG/1.1/DTD/svg11.dtd">
<!-- Generated by graphviz version 2.43.0 (0)
 -->
<!-- Title: cv::detail::OCVSetupHelper&lt; Impl, std::tuple&lt; Ins... &gt; &gt; Pages: 1 -->
<svg width="160pt" height="98pt"
 viewBox="0.00 0.00 160.00 98.00" xmlns="http://www.w3.org/2000/svg" xmlns:xlink="http://www.w3.org/1999/xlink">
<g id="graph0" class="graph" transform="scale(1 1) rotate(0) translate(4 94)">
<title>cv::detail::OCVSetupHelper&lt; Impl, std::tuple&lt; Ins... &gt; &gt;</title>
<!-- Node1 -->
<g id="Node000001" class="node">
<title>Node1</title>
<g id="a_Node000001"><a xlink:title=" ">
<polygon fill="#999999" stroke="transparent" points="152,-90 0,-90 0,0 152,0 152,-90"/>
<text text-anchor="start" x="5" y="-78" font-family="Helvetica,sans-Serif" font-size="10.00">cv::detail::OCVSetupHelper</text>
<text text-anchor="start" x="5" y="-67" font-family="Helvetica,sans-Serif" font-size="10.00">&lt; Impl, std::tuple&lt; Ins... &gt; &gt;</text>
<text text-anchor="start" x="74" y="-52" font-family="Helvetica,sans-Serif" font-size="10.00"> </text>
<text text-anchor="start" x="21" y="-37" font-family="Helvetica,sans-Serif" font-size="10.00">+</text>
<text text-anchor="start" x="51" y="-37" font-family="Helvetica,sans-Serif" font-size="10.00">setup()</text>
<text text-anchor="start" x="21" y="-22" font-family="Helvetica,sans-Serif" font-size="10.00">+</text>
<text text-anchor="start" x="51" y="-22" font-family="Helvetica,sans-Serif" font-size="10.00">setup_impl()</text>
<text text-anchor="start" x="21" y="-7" font-family="Helvetica,sans-Serif" font-size="10.00">+</text>
<text text-anchor="start" x="51" y="-7" font-family="Helvetica,sans-Serif" font-size="10.00">setup_impl()</text>
<polygon fill="#666666" stroke="#666666" points="0,-62 0,-62 152,-62 152,-62 0,-62"/>
<polygon fill="#666666" stroke="#666666" points="0,-47 0,-47 152,-47 152,-47 0,-47"/>
<polygon fill="none" stroke="#666666" points="0,0 0,-90 152,-90 152,0 0,0"/>
</a>
</g>
</g>
</g>
</svg>
