<?xml version="1.0" encoding="UTF-8" standalone="no"?>
<!DOCTYPE svg PUBLIC "-//W3C//DTD SVG 1.1//EN"
 "http://www.w3.org/Graphics/SVG/1.1/DTD/svg11.dtd">
<!-- Generated by graphviz version 2.43.0 (0)
 -->
<!-- Title: cv::face::FacemarkAAM::Data Pages: 1 -->
<svg width="279pt" height="573pt"
 viewBox="0.00 0.00 278.50 573.00" xmlns="http://www.w3.org/2000/svg" xmlns:xlink="http://www.w3.org/1999/xlink">
<g id="graph0" class="graph" transform="scale(1 1) rotate(0) translate(4 569)">
<title>cv::face::FacemarkAAM::Data</title>
<!-- Node1 -->
<g id="Node000001" class="node">
<title>Node1</title>
<g id="a_Node000001"><a xlink:title="Data container for the facemark::getData function.">
<polygon fill="#999999" stroke="transparent" points="204.5,-60 80.5,-60 80.5,0 204.5,0 204.5,-60"/>
<text text-anchor="start" x="85.5" y="-48" font-family="Helvetica,sans-Serif" font-size="10.00">cv::face::FacemarkAAM</text>
<text text-anchor="start" x="127.5" y="-37" font-family="Helvetica,sans-Serif" font-size="10.00">::Data</text>
<text text-anchor="start" x="140.5" y="-22" font-family="Helvetica,sans-Serif" font-size="10.00"> </text>
<text text-anchor="start" x="140.5" y="-7" font-family="Helvetica,sans-Serif" font-size="10.00"> </text>
<polygon fill="#666666" stroke="#666666" points="80.5,-32 80.5,-32 204.5,-32 204.5,-32 80.5,-32"/>
<polygon fill="#666666" stroke="#666666" points="80.5,-17 80.5,-17 204.5,-17 204.5,-17 80.5,-17"/>
<polygon fill="none" stroke="#666666" points="80.5,0 80.5,-60 204.5,-60 204.5,0 80.5,0"/>
</a>
</g>
</g>
<!-- Node2 -->
<g id="Node000002" class="node">
<title>Node2</title>
<g id="a_Node000002"><a xlink:title=" ">
<polygon fill="white" stroke="transparent" points="208,-156 77,-156 77,-107 208,-107 208,-156"/>
<text text-anchor="start" x="82.5" y="-143.5" font-family="Helvetica,sans-Serif" font-size="10.00">std::vector&lt; cv::Point_ &gt;</text>
<text text-anchor="start" x="141" y="-128.5" font-family="Helvetica,sans-Serif" font-size="10.00"> </text>
<text text-anchor="start" x="141" y="-113.5" font-family="Helvetica,sans-Serif" font-size="10.00"> </text>
<polygon fill="#666666" stroke="#666666" points="77.5,-138.5 77.5,-138.5 208.5,-138.5 208.5,-138.5 77.5,-138.5"/>
<polygon fill="#666666" stroke="#666666" points="77.5,-123.5 77.5,-123.5 208.5,-123.5 208.5,-123.5 77.5,-123.5"/>
<polygon fill="none" stroke="#666666" points="77,-107 77,-156 208,-156 208,-107 77,-107"/>
</a>
</g>
</g>
<!-- Node2&#45;&gt;Node1 -->
<g id="edge1_Node000001_Node000002" class="edge">
<title>Node2&#45;&gt;Node1</title>
<g id="a_edge1_Node000001_Node000002"><a xlink:title=" ">
<path fill="none" stroke="#63b8ff" d="M142.5,-106.92C142.5,-96.51 142.5,-83.97 142.5,-72.1"/>
<polygon fill="none" stroke="#63b8ff" points="142.5,-72.1 138.5,-66.1 142.5,-60.1 146.5,-66.1 142.5,-72.1"/>
</a>
</g>
<text text-anchor="middle" x="154" y="-81" font-family="Helvetica,sans-Serif" font-size="10.00" fill="grey"> +s0</text>
</g>
<!-- Node3 -->
<g id="Node000003" class="node">
<title>Node3</title>
<g id="a_Node000003"><a xlink:href="../../db/d4e/classcv_1_1Point__.html" target="_top" xlink:title="Template class for 2D points specified by its coordinates x and y.">
<polygon fill="white" stroke="transparent" points="149,-458 0,-458 0,-203 149,-203 149,-458"/>
<text text-anchor="start" x="31.5" y="-445.5" font-family="Helvetica,sans-Serif" font-size="10.00">cv::Point_&lt; _Tp &gt;</text>
<text text-anchor="start" x="73" y="-430.5" font-family="Helvetica,sans-Serif" font-size="10.00"> </text>
<text text-anchor="start" x="4.5" y="-415.5" font-family="Helvetica,sans-Serif" font-size="10.00">+</text>
<text text-anchor="start" x="17.5" y="-415.5" font-family="Helvetica,sans-Serif" font-size="10.00">Point_()</text>
<text text-anchor="start" x="4.5" y="-400.5" font-family="Helvetica,sans-Serif" font-size="10.00">+</text>
<text text-anchor="start" x="17.5" y="-400.5" font-family="Helvetica,sans-Serif" font-size="10.00">Point_()</text>
<text text-anchor="start" x="4.5" y="-385.5" font-family="Helvetica,sans-Serif" font-size="10.00">+</text>
<text text-anchor="start" x="17.5" y="-385.5" font-family="Helvetica,sans-Serif" font-size="10.00">Point_()</text>
<text text-anchor="start" x="4.5" y="-370.5" font-family="Helvetica,sans-Serif" font-size="10.00">+</text>
<text text-anchor="start" x="17.5" y="-370.5" font-family="Helvetica,sans-Serif" font-size="10.00">Point_()</text>
<text text-anchor="start" x="4.5" y="-355.5" font-family="Helvetica,sans-Serif" font-size="10.00">+</text>
<text text-anchor="start" x="17.5" y="-355.5" font-family="Helvetica,sans-Serif" font-size="10.00">Point_()</text>
<text text-anchor="start" x="4.5" y="-340.5" font-family="Helvetica,sans-Serif" font-size="10.00">+</text>
<text text-anchor="start" x="17.5" y="-340.5" font-family="Helvetica,sans-Serif" font-size="10.00">Point_()</text>
<text text-anchor="start" x="4.5" y="-325.5" font-family="Helvetica,sans-Serif" font-size="10.00">+</text>
<text text-anchor="start" x="17.5" y="-325.5" font-family="Helvetica,sans-Serif" font-size="10.00">cross()</text>
<text text-anchor="start" x="4.5" y="-310.5" font-family="Helvetica,sans-Serif" font-size="10.00">+</text>
<text text-anchor="start" x="17.5" y="-310.5" font-family="Helvetica,sans-Serif" font-size="10.00">ddot()</text>
<text text-anchor="start" x="4.5" y="-295.5" font-family="Helvetica,sans-Serif" font-size="10.00">+</text>
<text text-anchor="start" x="17.5" y="-295.5" font-family="Helvetica,sans-Serif" font-size="10.00">dot()</text>
<text text-anchor="start" x="4.5" y="-280.5" font-family="Helvetica,sans-Serif" font-size="10.00">+</text>
<text text-anchor="start" x="17.5" y="-280.5" font-family="Helvetica,sans-Serif" font-size="10.00">inside()</text>
<text text-anchor="start" x="4.5" y="-265.5" font-family="Helvetica,sans-Serif" font-size="10.00">+</text>
<text text-anchor="start" x="17.5" y="-265.5" font-family="Helvetica,sans-Serif" font-size="10.00">operator Point_&lt; _Tp2 &gt;()</text>
<text text-anchor="start" x="4.5" y="-250.5" font-family="Helvetica,sans-Serif" font-size="10.00">+</text>
<text text-anchor="start" x="17.5" y="-250.5" font-family="Helvetica,sans-Serif" font-size="10.00">operator Vec&lt; _Tp,</text>
<text text-anchor="start" x="17.5" y="-239.5" font-family="Helvetica,sans-Serif" font-size="10.00"> 2 &gt;()</text>
<text text-anchor="start" x="4.5" y="-224.5" font-family="Helvetica,sans-Serif" font-size="10.00">+</text>
<text text-anchor="start" x="17.5" y="-224.5" font-family="Helvetica,sans-Serif" font-size="10.00">operator=()</text>
<text text-anchor="start" x="4.5" y="-209.5" font-family="Helvetica,sans-Serif" font-size="10.00">+</text>
<text text-anchor="start" x="17.5" y="-209.5" font-family="Helvetica,sans-Serif" font-size="10.00">operator=()</text>
<polygon fill="#666666" stroke="#666666" points="0.5,-440.5 0.5,-440.5 149.5,-440.5 149.5,-440.5 0.5,-440.5"/>
<polygon fill="#666666" stroke="#666666" points="0.5,-425.5 0.5,-425.5 149.5,-425.5 149.5,-425.5 0.5,-425.5"/>
<polygon fill="none" stroke="#666666" points="0,-203 0,-458 149,-458 149,-203 0,-203"/>
</a>
</g>
</g>
<!-- Node3&#45;&gt;Node2 -->
<g id="edge2_Node000002_Node000003" class="edge">
<title>Node3&#45;&gt;Node2</title>
<g id="a_edge2_Node000002_Node000003"><a xlink:title=" ">
<path fill="none" stroke="#63b8ff" d="M106.37,-202.89C109.81,-193 113.52,-183.26 117.5,-174 118.55,-171.55 119.73,-169.07 120.98,-166.61"/>
<polygon fill="none" stroke="#63b8ff" points="121.01,-166.55 120.41,-159.37 126.81,-156.05 127.41,-163.23 121.01,-166.55"/>
</a>
</g>
<text text-anchor="middle" x="146.5" y="-177" font-family="Helvetica,sans-Serif" font-size="10.00" fill="grey"> +elements</text>
</g>
<!-- Node4 -->
<g id="Node000004" class="node">
<title>Node4</title>
<g id="a_Node000004"><a xlink:href="../../d1/dd7/class__Tp.html" target="_top" xlink:title=" ">
<polygon fill="white" stroke="transparent" points="88.5,-565 60.5,-565 60.5,-516 88.5,-516 88.5,-565"/>
<text text-anchor="start" x="65.5" y="-552.5" font-family="Helvetica,sans-Serif" font-size="10.00">_Tp</text>
<text text-anchor="start" x="72.5" y="-537.5" font-family="Helvetica,sans-Serif" font-size="10.00"> </text>
<text text-anchor="start" x="72.5" y="-522.5" font-family="Helvetica,sans-Serif" font-size="10.00"> </text>
<polygon fill="#666666" stroke="#666666" points="60.5,-547.5 60.5,-547.5 88.5,-547.5 88.5,-547.5 60.5,-547.5"/>
<polygon fill="#666666" stroke="#666666" points="60.5,-532.5 60.5,-532.5 88.5,-532.5 88.5,-532.5 60.5,-532.5"/>
<polygon fill="none" stroke="#666666" points="60.5,-516 60.5,-565 88.5,-565 88.5,-516 60.5,-516"/>
</a>
</g>
</g>
<!-- Node4&#45;&gt;Node3 -->
<g id="edge3_Node000003_Node000004" class="edge">
<title>Node4&#45;&gt;Node3</title>
<g id="a_edge3_Node000003_Node000004"><a xlink:title=" ">
<path fill="none" stroke="#63b8ff" d="M74.5,-515.64C74.5,-503.5 74.5,-487.67 74.5,-470.38"/>
<polygon fill="none" stroke="#63b8ff" points="74.5,-470.21 70.5,-464.21 74.5,-458.21 78.5,-464.21 74.5,-470.21"/>
</a>
</g>
<text text-anchor="middle" x="83.5" y="-490" font-family="Helvetica,sans-Serif" font-size="10.00" fill="grey"> +x</text>
<text text-anchor="middle" x="83.5" y="-479" font-family="Helvetica,sans-Serif" font-size="10.00" fill="grey">+y</text>
</g>
<!-- Node5 -->
<g id="Node000005" class="node">
<title>Node5</title>
<g id="a_Node000005"><a xlink:title=" ">
<polygon fill="white" stroke="transparent" points="258,-355 167,-355 167,-306 258,-306 258,-355"/>
<text text-anchor="start" x="172.5" y="-342.5" font-family="Helvetica,sans-Serif" font-size="10.00">std::vector&lt; T &gt;</text>
<text text-anchor="start" x="211" y="-327.5" font-family="Helvetica,sans-Serif" font-size="10.00"> </text>
<text text-anchor="start" x="211" y="-312.5" font-family="Helvetica,sans-Serif" font-size="10.00"> </text>
<polygon fill="#666666" stroke="#666666" points="167.5,-337.5 167.5,-337.5 258.5,-337.5 258.5,-337.5 167.5,-337.5"/>
<polygon fill="#666666" stroke="#666666" points="167.5,-322.5 167.5,-322.5 258.5,-322.5 258.5,-322.5 167.5,-322.5"/>
<polygon fill="none" stroke="#666666" points="167,-306 167,-355 258,-355 258,-306 167,-306"/>
</a>
</g>
</g>
<!-- Node5&#45;&gt;Node2 -->
<g id="edge4_Node000002_Node000005" class="edge">
<title>Node5&#45;&gt;Node2</title>
<g id="a_edge4_Node000002_Node000005"><a xlink:title=" ">
<path fill="none" stroke="orange" d="M208.75,-295.44C204.18,-262.93 194.58,-213.24 175.5,-174 172.52,-167.87 168.51,-161.82 164.3,-156.31"/>
<polygon fill="orange" stroke="orange" points="205.33,-296.31 210.11,-305.76 212.27,-295.39 205.33,-296.31"/>
</a>
</g>
<text text-anchor="middle" x="216" y="-177" font-family="Helvetica,sans-Serif" font-size="10.00" fill="grey"> &lt; cv::Point_ &gt;</text>
</g>
<!-- Node6 -->
<g id="Node000006" class="node">
<title>Node6</title>
<g id="a_Node000006"><a xlink:title=" ">
<polygon fill="white" stroke="transparent" points="221,-565 204,-565 204,-516 221,-516 221,-565"/>
<text text-anchor="start" x="209.5" y="-552.5" font-family="Helvetica,sans-Serif" font-size="10.00">T</text>
<text text-anchor="start" x="211" y="-537.5" font-family="Helvetica,sans-Serif" font-size="10.00"> </text>
<text text-anchor="start" x="211" y="-522.5" font-family="Helvetica,sans-Serif" font-size="10.00"> </text>
<polygon fill="#666666" stroke="#666666" points="204.5,-547.5 204.5,-547.5 221.5,-547.5 221.5,-547.5 204.5,-547.5"/>
<polygon fill="#666666" stroke="#666666" points="204.5,-532.5 204.5,-532.5 221.5,-532.5 221.5,-532.5 204.5,-532.5"/>
<polygon fill="none" stroke="#666666" points="204,-516 204,-565 221,-565 221,-516 204,-516"/>
</a>
</g>
</g>
<!-- Node6&#45;&gt;Node5 -->
<g id="edge5_Node000005_Node000006" class="edge">
<title>Node6&#45;&gt;Node5</title>
<g id="a_edge5_Node000005_Node000006"><a xlink:title=" ">
<path fill="none" stroke="#63b8ff" d="M212.5,-515.64C212.5,-479.28 212.5,-409.76 212.5,-367.32"/>
<polygon fill="none" stroke="#63b8ff" points="212.5,-367.08 208.5,-361.08 212.5,-355.08 216.5,-361.08 212.5,-367.08"/>
</a>
</g>
<text text-anchor="middle" x="241.5" y="-484.5" font-family="Helvetica,sans-Serif" font-size="10.00" fill="grey"> +elements</text>
</g>
</g>
</svg>
