<?xml version="1.0" encoding="UTF-8" standalone="no"?>
<!DOCTYPE svg PUBLIC "-//W3C//DTD SVG 1.1//EN"
 "http://www.w3.org/Graphics/SVG/1.1/DTD/svg11.dtd">
<!-- Generated by graphviz version 2.43.0 (0)
 -->
<!-- Title: opencv2/cudev/warp/warp.hpp Pages: 1 -->
<svg width="231pt" height="291pt"
 viewBox="0.00 0.00 231.00 291.00" xmlns="http://www.w3.org/2000/svg" xmlns:xlink="http://www.w3.org/1999/xlink">
<g id="graph0" class="graph" transform="scale(1 1) rotate(0) translate(4 287)">
<title>opencv2/cudev/warp/warp.hpp</title>
<!-- Node1 -->
<g id="Node000001" class="node">
<title>Node1</title>
<g id="a_Node000001"><a xlink:title=" ">
<polygon fill="#999999" stroke="#666666" points="117,-283 0,-283 0,-253 117,-253 117,-283"/>
<text text-anchor="start" x="8" y="-271" font-family="Helvetica,sans-Serif" font-size="10.00">opencv2/cudev/warp</text>
<text text-anchor="middle" x="58.5" y="-260" font-family="Helvetica,sans-Serif" font-size="10.00">/warp.hpp</text>
</a>
</g>
</g>
<!-- Node2 -->
<g id="Node000002" class="node">
<title>Node2</title>
<g id="a_Node000002"><a xlink:href="../../d6/d38/cudev_8hpp.html" target="_top" xlink:title=" ">
<polygon fill="white" stroke="#666666" points="186.5,-19 76.5,-19 76.5,0 186.5,0 186.5,-19"/>
<text text-anchor="middle" x="131.5" y="-7" font-family="Helvetica,sans-Serif" font-size="10.00">opencv2/cudev.hpp</text>
</a>
</g>
</g>
<!-- Node1&#45;&gt;Node2 -->
<g id="edge1_Node000001_Node000002" class="edge">
<title>Node1&#45;&gt;Node2</title>
<g id="a_edge1_Node000001_Node000002"><a xlink:title=" ">
<path fill="none" stroke="#63b8ff" d="M44.15,-244.15C20.16,-202.71 -21.69,-114.02 18.5,-55 31.67,-35.66 54.67,-24.72 76.49,-18.54"/>
<polygon fill="#63b8ff" stroke="#63b8ff" points="41.26,-246.13 49.39,-252.93 47.28,-242.55 41.26,-246.13"/>
</a>
</g>
</g>
<!-- Node3 -->
<g id="Node000003" class="node">
<title>Node3</title>
<g id="a_Node000003"><a xlink:href="../../d7/de8/contrib_2modules_2cudev_2include_2opencv2_2cudev_2block_2scan_8hpp.html" target="_top" xlink:title=" ">
<polygon fill="white" stroke="#666666" points="147,-85 28,-85 28,-55 147,-55 147,-85"/>
<text text-anchor="start" x="36" y="-73" font-family="Helvetica,sans-Serif" font-size="10.00">opencv2/cudev/block</text>
<text text-anchor="middle" x="87.5" y="-62" font-family="Helvetica,sans-Serif" font-size="10.00">/scan.hpp</text>
</a>
</g>
</g>
<!-- Node1&#45;&gt;Node3 -->
<g id="edge2_Node000001_Node000003" class="edge">
<title>Node1&#45;&gt;Node3</title>
<g id="a_edge2_Node000001_Node000003"><a xlink:title=" ">
<path fill="none" stroke="#63b8ff" d="M54.73,-242.86C50.99,-213.49 47.29,-162.67 58.5,-121 61.99,-108.01 69.78,-94.92 76.4,-85.4"/>
<polygon fill="#63b8ff" stroke="#63b8ff" points="51.29,-243.57 56.13,-253 58.23,-242.61 51.29,-243.57"/>
</a>
</g>
</g>
<!-- Node4 -->
<g id="Node000004" class="node">
<title>Node4</title>
<g id="a_Node000004"><a xlink:href="../../dd/de6/contrib_2modules_2cudev_2include_2opencv2_2cudev_2warp_2scan_8hpp.html" target="_top" xlink:title=" ">
<polygon fill="white" stroke="#666666" points="185,-151 68,-151 68,-121 185,-121 185,-151"/>
<text text-anchor="start" x="76" y="-139" font-family="Helvetica,sans-Serif" font-size="10.00">opencv2/cudev/warp</text>
<text text-anchor="middle" x="126.5" y="-128" font-family="Helvetica,sans-Serif" font-size="10.00">/scan.hpp</text>
</a>
</g>
</g>
<!-- Node1&#45;&gt;Node4 -->
<g id="edge4_Node000001_Node000004" class="edge">
<title>Node1&#45;&gt;Node4</title>
<g id="a_edge4_Node000001_Node000004"><a xlink:title=" ">
<path fill="none" stroke="#63b8ff" d="M68.84,-243.7C76.17,-227.58 86.46,-205.74 96.5,-187 103.1,-174.69 111.3,-161.12 117.46,-151.23"/>
<polygon fill="#63b8ff" stroke="#63b8ff" points="65.61,-242.37 64.69,-252.92 71.99,-245.24 65.61,-242.37"/>
</a>
</g>
</g>
<!-- Node5 -->
<g id="Node000005" class="node">
<title>Node5</title>
<g id="a_Node000005"><a xlink:href="../../d1/d77/shuffle_8hpp.html" target="_top" xlink:title=" ">
<polygon fill="white" stroke="#666666" points="223,-217 106,-217 106,-187 223,-187 223,-217"/>
<text text-anchor="start" x="114" y="-205" font-family="Helvetica,sans-Serif" font-size="10.00">opencv2/cudev/warp</text>
<text text-anchor="middle" x="164.5" y="-194" font-family="Helvetica,sans-Serif" font-size="10.00">/shuffle.hpp</text>
</a>
</g>
</g>
<!-- Node1&#45;&gt;Node5 -->
<g id="edge7_Node000001_Node000005" class="edge">
<title>Node1&#45;&gt;Node5</title>
<g id="a_edge7_Node000001_Node000005"><a xlink:title=" ">
<path fill="none" stroke="#63b8ff" d="M90.47,-247.69C106.84,-237.82 126.39,-226.01 141.29,-217.01"/>
<polygon fill="#63b8ff" stroke="#63b8ff" points="88.51,-244.79 81.76,-252.95 92.13,-250.78 88.51,-244.79"/>
</a>
</g>
</g>
<!-- Node3&#45;&gt;Node2 -->
<g id="edge3_Node000003_Node000002" class="edge">
<title>Node3&#45;&gt;Node2</title>
<g id="a_edge3_Node000003_Node000002"><a xlink:title=" ">
<path fill="none" stroke="#63b8ff" d="M104.2,-46.8C111.41,-37.21 119.44,-26.54 124.91,-19.27"/>
<polygon fill="#63b8ff" stroke="#63b8ff" points="101.37,-44.74 98.15,-54.84 106.96,-48.95 101.37,-44.74"/>
</a>
</g>
</g>
<!-- Node4&#45;&gt;Node2 -->
<g id="edge5_Node000004_Node000002" class="edge">
<title>Node4&#45;&gt;Node2</title>
<g id="a_edge5_Node000004_Node000002"><a xlink:title=" ">
<path fill="none" stroke="#63b8ff" d="M143.18,-112.06C148.16,-103.92 152.96,-94.43 155.5,-85 158.96,-72.12 158.76,-67.93 155.5,-55 152.11,-41.55 143.76,-27.75 137.87,-19.16"/>
<polygon fill="#63b8ff" stroke="#63b8ff" points="140.14,-110.32 137.6,-120.6 146,-114.15 140.14,-110.32"/>
</a>
</g>
</g>
<!-- Node4&#45;&gt;Node3 -->
<g id="edge6_Node000004_Node000003" class="edge">
<title>Node4&#45;&gt;Node3</title>
<g id="a_edge6_Node000004_Node000003"><a xlink:title=" ">
<path fill="none" stroke="#63b8ff" d="M112.63,-112.24C107.13,-103.21 100.97,-93.11 96.13,-85.16"/>
<polygon fill="#63b8ff" stroke="#63b8ff" points="109.65,-114.08 117.84,-120.8 115.63,-110.44 109.65,-114.08"/>
</a>
</g>
</g>
<!-- Node5&#45;&gt;Node2 -->
<g id="edge8_Node000005_Node000002" class="edge">
<title>Node5&#45;&gt;Node2</title>
<g id="a_edge8_Node000005_Node000002"><a xlink:title=" ">
<path fill="none" stroke="#63b8ff" d="M181.18,-178.06C186.16,-169.92 190.96,-160.43 193.5,-151 196.96,-138.12 195.64,-134.16 193.5,-121 188.55,-90.48 187.05,-81.73 171.5,-55 163.35,-40.99 150.28,-27.53 141.31,-19.15"/>
<polygon fill="#63b8ff" stroke="#63b8ff" points="178.14,-176.32 175.6,-186.6 184,-180.15 178.14,-176.32"/>
</a>
</g>
</g>
<!-- Node5&#45;&gt;Node4 -->
<g id="edge9_Node000005_Node000004" class="edge">
<title>Node5&#45;&gt;Node4</title>
<g id="a_edge9_Node000005_Node000004"><a xlink:title=" ">
<path fill="none" stroke="#63b8ff" d="M150.82,-177.96C145.5,-169 139.58,-159.03 134.91,-151.16"/>
<polygon fill="#63b8ff" stroke="#63b8ff" points="147.95,-179.98 156.07,-186.8 153.97,-176.41 147.95,-179.98"/>
</a>
</g>
</g>
</g>
</svg>
