<?xml version="1.0" encoding="UTF-8" standalone="no"?>
<!DOCTYPE svg PUBLIC "-//W3C//DTD SVG 1.1//EN"
 "http://www.w3.org/Graphics/SVG/1.1/DTD/svg11.dtd">
<!-- Generated by graphviz version 2.43.0 (0)
 -->
<!-- Title: opencv2/objdetect/aruco_detector.hpp Pages: 1 -->
<svg width="661pt" height="390pt"
 viewBox="0.00 0.00 661.00 390.00" xmlns="http://www.w3.org/2000/svg" xmlns:xlink="http://www.w3.org/1999/xlink">
<g id="graph0" class="graph" transform="scale(1 1) rotate(0) translate(4 386)">
<title>opencv2/objdetect/aruco_detector.hpp</title>
<!-- Node1 -->
<g id="Node000001" class="node">
<title>Node1</title>
<g id="a_Node000001"><a xlink:title=" ">
<polygon fill="#999999" stroke="#666666" points="270,-382 133,-382 133,-352 270,-352 270,-382"/>
<text text-anchor="start" x="141" y="-370" font-family="Helvetica,sans-Serif" font-size="10.00">opencv2/objdetect/aruco</text>
<text text-anchor="middle" x="201.5" y="-359" font-family="Helvetica,sans-Serif" font-size="10.00">_detector.hpp</text>
</a>
</g>
</g>
<!-- Node2 -->
<g id="Node000002" class="node">
<title>Node2</title>
<g id="a_Node000002"><a xlink:href="../../d9/d53/aruco_8hpp.html" target="_top" xlink:title=" ">
<polygon fill="white" stroke="#666666" points="109,-310.5 0,-310.5 0,-291.5 109,-291.5 109,-310.5"/>
<text text-anchor="middle" x="54.5" y="-298.5" font-family="Helvetica,sans-Serif" font-size="10.00">opencv2/aruco.hpp</text>
</a>
</g>
</g>
<!-- Node1&#45;&gt;Node2 -->
<g id="edge1_Node000001_Node000002" class="edge">
<title>Node1&#45;&gt;Node2</title>
<g id="a_edge1_Node000001_Node000002"><a xlink:title=" ">
<path fill="none" stroke="#63b8ff" d="M160.02,-347.94C131.86,-335.68 95.9,-320.02 74.06,-310.52"/>
<polygon fill="#63b8ff" stroke="#63b8ff" points="158.67,-351.17 169.24,-351.95 161.47,-344.75 158.67,-351.17"/>
</a>
</g>
</g>
<!-- Node4 -->
<g id="Node000004" class="node">
<title>Node4</title>
<g id="a_Node000004"><a xlink:href="../../d8/da3/objdetect_8hpp.html" target="_top" xlink:title=" ">
<polygon fill="white" stroke="#666666" points="344.5,-250 216.5,-250 216.5,-231 344.5,-231 344.5,-250"/>
<text text-anchor="middle" x="280.5" y="-238" font-family="Helvetica,sans-Serif" font-size="10.00">opencv2/objdetect.hpp</text>
</a>
</g>
</g>
<!-- Node1&#45;&gt;Node4 -->
<g id="edge3_Node000001_Node000004" class="edge">
<title>Node1&#45;&gt;Node4</title>
<g id="a_edge3_Node000001_Node000004"><a xlink:title=" ">
<path fill="none" stroke="#63b8ff" d="M251.11,-347.07C264.3,-339.5 276.97,-329.33 284.5,-316 296.35,-295.02 288.87,-265.2 283.89,-250.46"/>
<polygon fill="#63b8ff" stroke="#63b8ff" points="249.15,-344.15 241.94,-351.91 252.42,-350.34 249.15,-344.15"/>
</a>
</g>
</g>
<!-- Node13 -->
<g id="Node000013" class="node">
<title>Node13</title>
<g id="a_Node000013"><a xlink:href="../../dc/d25/charuco__detector_8hpp.html" target="_top" xlink:title=" ">
<polygon fill="white" stroke="#666666" points="275.5,-316 127.5,-316 127.5,-286 275.5,-286 275.5,-316"/>
<text text-anchor="start" x="135.5" y="-304" font-family="Helvetica,sans-Serif" font-size="10.00">opencv2/objdetect/charuco</text>
<text text-anchor="middle" x="201.5" y="-293" font-family="Helvetica,sans-Serif" font-size="10.00">_detector.hpp</text>
</a>
</g>
</g>
<!-- Node1&#45;&gt;Node13 -->
<g id="edge16_Node000001_Node000013" class="edge">
<title>Node1&#45;&gt;Node13</title>
<g id="a_edge16_Node000001_Node000013"><a xlink:title=" ">
<path fill="none" stroke="#63b8ff" d="M201.5,-341.54C201.5,-332.96 201.5,-323.61 201.5,-316.16"/>
<polygon fill="#63b8ff" stroke="#63b8ff" points="198,-341.8 201.5,-351.8 205,-341.8 198,-341.8"/>
</a>
</g>
</g>
<!-- Node3 -->
<g id="Node000003" class="node">
<title>Node3</title>
<g id="a_Node000003"><a xlink:href="../../da/d3b/charuco_8hpp.html" target="_top" xlink:title=" ">
<polygon fill="white" stroke="#666666" points="175.5,-250 25.5,-250 25.5,-231 175.5,-231 175.5,-250"/>
<text text-anchor="middle" x="100.5" y="-238" font-family="Helvetica,sans-Serif" font-size="10.00">opencv2/aruco/charuco.hpp</text>
</a>
</g>
</g>
<!-- Node2&#45;&gt;Node3 -->
<g id="edge2_Node000002_Node000003" class="edge">
<title>Node2&#45;&gt;Node3</title>
<g id="a_edge2_Node000002_Node000003"><a xlink:title=" ">
<path fill="none" stroke="#63b8ff" d="M67.51,-283.45C76.03,-272.62 86.81,-258.91 93.68,-250.17"/>
<polygon fill="#63b8ff" stroke="#63b8ff" points="64.72,-281.34 61.29,-291.37 70.22,-285.67 64.72,-281.34"/>
</a>
</g>
</g>
<!-- Node5 -->
<g id="Node000005" class="node">
<title>Node5</title>
<g id="a_Node000005"><a xlink:href="../../d2/df3/cudaobjdetect_8hpp.html" target="_top" xlink:title=" ">
<polygon fill="white" stroke="#666666" points="197,-189.5 46,-189.5 46,-170.5 197,-170.5 197,-189.5"/>
<text text-anchor="middle" x="121.5" y="-177.5" font-family="Helvetica,sans-Serif" font-size="10.00">opencv2/cudaobjdetect.hpp</text>
</a>
</g>
</g>
<!-- Node4&#45;&gt;Node5 -->
<g id="edge4_Node000004_Node000005" class="edge">
<title>Node4&#45;&gt;Node5</title>
<g id="a_edge4_Node000004_Node000005"><a xlink:title=" ">
<path fill="none" stroke="#63b8ff" d="M247.95,-227.52C217.21,-216.21 171.86,-199.53 144.65,-189.52"/>
<polygon fill="#63b8ff" stroke="#63b8ff" points="246.79,-230.83 257.38,-230.99 249.2,-224.26 246.79,-230.83"/>
</a>
</g>
</g>
<!-- Node6 -->
<g id="Node000006" class="node">
<title>Node6</title>
<g id="a_Node000006"><a xlink:href="../../dc/dd9/facemark__train_8hpp.html" target="_top" xlink:title=" ">
<polygon fill="white" stroke="#666666" points="346,-195 215,-195 215,-165 346,-165 346,-195"/>
<text text-anchor="start" x="223" y="-183" font-family="Helvetica,sans-Serif" font-size="10.00">opencv2/face/facemark</text>
<text text-anchor="middle" x="280.5" y="-172" font-family="Helvetica,sans-Serif" font-size="10.00">_train.hpp</text>
</a>
</g>
</g>
<!-- Node4&#45;&gt;Node6 -->
<g id="edge5_Node000004_Node000006" class="edge">
<title>Node4&#45;&gt;Node6</title>
<g id="a_edge5_Node000004_Node000006"><a xlink:title=" ">
<path fill="none" stroke="#63b8ff" d="M280.5,-220.65C280.5,-212.36 280.5,-202.78 280.5,-195.11"/>
<polygon fill="#63b8ff" stroke="#63b8ff" points="277,-220.87 280.5,-230.87 284,-220.87 277,-220.87"/>
</a>
</g>
</g>
<!-- Node12 -->
<g id="Node000012" class="node">
<title>Node12</title>
<g id="a_Node000012"><a xlink:href="../../d7/df0/objdetect_2objdetect_8hpp.html" target="_top" xlink:title=" ">
<polygon fill="white" stroke="#666666" points="540.5,-189.5 364.5,-189.5 364.5,-170.5 540.5,-170.5 540.5,-189.5"/>
<text text-anchor="middle" x="452.5" y="-177.5" font-family="Helvetica,sans-Serif" font-size="10.00">opencv2/objdetect/objdetect.hpp</text>
</a>
</g>
</g>
<!-- Node4&#45;&gt;Node12 -->
<g id="edge15_Node000004_Node000012" class="edge">
<title>Node4&#45;&gt;Node12</title>
<g id="a_edge15_Node000004_Node000012"><a xlink:title=" ">
<path fill="none" stroke="#63b8ff" d="M315.28,-227.67C348.54,-216.36 397.89,-199.57 427.46,-189.52"/>
<polygon fill="#63b8ff" stroke="#63b8ff" points="313.85,-224.46 305.51,-230.99 316.1,-231.09 313.85,-224.46"/>
</a>
</g>
</g>
<!-- Node7 -->
<g id="Node000007" class="node">
<title>Node7</title>
<g id="a_Node000007"><a xlink:href="../../d2/dc4/contrib_2modules_2face_2include_2opencv2_2face_8hpp.html" target="_top" xlink:title=" ">
<polygon fill="white" stroke="#666666" points="331,-74 228,-74 228,-55 331,-55 331,-74"/>
<text text-anchor="middle" x="279.5" y="-62" font-family="Helvetica,sans-Serif" font-size="10.00">opencv2/face.hpp</text>
</a>
</g>
</g>
<!-- Node6&#45;&gt;Node7 -->
<g id="edge6_Node000006_Node000007" class="edge">
<title>Node6&#45;&gt;Node7</title>
<g id="a_edge6_Node000006_Node000007"><a xlink:title=" ">
<path fill="none" stroke="#63b8ff" d="M204.83,-164.62C151.95,-153.81 89.42,-139.16 81.5,-129 76.31,-122.34 76.22,-116.59 81.5,-110 99.5,-87.51 175.27,-75.6 227.68,-69.92"/>
<polygon fill="#63b8ff" stroke="#63b8ff" points="204.42,-168.11 214.92,-166.66 205.81,-161.25 204.42,-168.11"/>
</a>
</g>
</g>
<!-- Node9 -->
<g id="Node000009" class="node">
<title>Node9</title>
<g id="a_Node000009"><a xlink:href="../../d9/d91/face__alignment_8hpp.html" target="_top" xlink:title=" ">
<polygon fill="white" stroke="#666666" points="272.5,-129 90.5,-129 90.5,-110 272.5,-110 272.5,-129"/>
<text text-anchor="middle" x="181.5" y="-117" font-family="Helvetica,sans-Serif" font-size="10.00">opencv2/face/face_alignment.hpp</text>
</a>
</g>
</g>
<!-- Node6&#45;&gt;Node9 -->
<g id="edge9_Node000006_Node000009" class="edge">
<title>Node6&#45;&gt;Node9</title>
<g id="a_edge9_Node000006_Node000009"><a xlink:title=" ">
<path fill="none" stroke="#63b8ff" d="M247.98,-159.78C230.46,-149.43 209.72,-137.18 196.12,-129.14"/>
<polygon fill="#63b8ff" stroke="#63b8ff" points="246.4,-162.91 256.79,-164.99 249.96,-156.89 246.4,-162.91"/>
</a>
</g>
</g>
<!-- Node10 -->
<g id="Node000010" class="node">
<title>Node10</title>
<g id="a_Node000010"><a xlink:href="../../da/dc2/facemarkAAM_8hpp.html" target="_top" xlink:title=" ">
<polygon fill="white" stroke="#666666" points="466,-129 291,-129 291,-110 466,-110 466,-129"/>
<text text-anchor="middle" x="378.5" y="-117" font-family="Helvetica,sans-Serif" font-size="10.00">opencv2/face/facemarkAAM.hpp</text>
</a>
</g>
</g>
<!-- Node6&#45;&gt;Node10 -->
<g id="edge11_Node000006_Node000010" class="edge">
<title>Node6&#45;&gt;Node10</title>
<g id="a_edge11_Node000006_Node000010"><a xlink:title=" ">
<path fill="none" stroke="#63b8ff" d="M312.94,-159.64C330.26,-149.3 350.7,-137.09 364.1,-129.09"/>
<polygon fill="#63b8ff" stroke="#63b8ff" points="311.02,-156.71 304.22,-164.84 314.6,-162.72 311.02,-156.71"/>
</a>
</g>
</g>
<!-- Node11 -->
<g id="Node000011" class="node">
<title>Node11</title>
<g id="a_Node000011"><a xlink:href="../../db/dee/facemarkLBF_8hpp.html" target="_top" xlink:title=" ">
<polygon fill="white" stroke="#666666" points="653,-129 484,-129 484,-110 653,-110 653,-129"/>
<text text-anchor="middle" x="568.5" y="-117" font-family="Helvetica,sans-Serif" font-size="10.00">opencv2/face/facemarkLBF.hpp</text>
</a>
</g>
</g>
<!-- Node6&#45;&gt;Node11 -->
<g id="edge13_Node000006_Node000011" class="edge">
<title>Node6&#45;&gt;Node11</title>
<g id="a_edge13_Node000006_Node000011"><a xlink:title=" ">
<path fill="none" stroke="#63b8ff" d="M356.15,-163.63C410.46,-152.6 481.67,-138.14 526.26,-129.08"/>
<polygon fill="#63b8ff" stroke="#63b8ff" points="355.32,-160.23 346.21,-165.65 356.71,-167.09 355.32,-160.23"/>
</a>
</g>
</g>
<!-- Node8 -->
<g id="Node000008" class="node">
<title>Node8</title>
<g id="a_Node000008"><a xlink:href="../../dd/d81/facerec_8hpp.html" target="_top" xlink:title=" ">
<polygon fill="white" stroke="#666666" points="350.5,-19 208.5,-19 208.5,0 350.5,0 350.5,-19"/>
<text text-anchor="middle" x="279.5" y="-7" font-family="Helvetica,sans-Serif" font-size="10.00">opencv2/face/facerec.hpp</text>
</a>
</g>
</g>
<!-- Node7&#45;&gt;Node8 -->
<g id="edge7_Node000007_Node000008" class="edge">
<title>Node7&#45;&gt;Node8</title>
<g id="a_edge7_Node000007_Node000008"><a xlink:title=" ">
<path fill="none" stroke="#63b8ff" d="M273.01,-44.66C272.41,-35.93 272.86,-25.99 274.37,-19.09"/>
<polygon fill="#63b8ff" stroke="#63b8ff" points="269.56,-45.29 274.33,-54.75 276.5,-44.38 269.56,-45.29"/>
</a>
</g>
</g>
<!-- Node8&#45;&gt;Node7 -->
<g id="edge8_Node000008_Node000007" class="edge">
<title>Node8&#45;&gt;Node7</title>
<g id="a_edge8_Node000008_Node000007"><a xlink:title=" ">
<path fill="none" stroke="#63b8ff" d="M285.98,-29.13C286.6,-37.85 286.16,-47.8 284.67,-54.75"/>
<polygon fill="#63b8ff" stroke="#63b8ff" points="289.43,-28.53 284.63,-19.09 282.49,-29.47 289.43,-28.53"/>
</a>
</g>
</g>
<!-- Node9&#45;&gt;Node7 -->
<g id="edge10_Node000009_Node000007" class="edge">
<title>Node9&#45;&gt;Node7</title>
<g id="a_edge10_Node000009_Node000007"><a xlink:title=" ">
<path fill="none" stroke="#63b8ff" d="M206.53,-104.97C224.44,-95.28 248.03,-82.52 263.47,-74.17"/>
<polygon fill="#63b8ff" stroke="#63b8ff" points="204.38,-102.15 197.25,-109.98 207.71,-108.31 204.38,-102.15"/>
</a>
</g>
</g>
<!-- Node10&#45;&gt;Node7 -->
<g id="edge12_Node000010_Node000007" class="edge">
<title>Node10&#45;&gt;Node7</title>
<g id="a_edge12_Node000010_Node000007"><a xlink:title=" ">
<path fill="none" stroke="#63b8ff" d="M353.72,-105.23C335.56,-95.51 311.44,-82.6 295.7,-74.17"/>
<polygon fill="#63b8ff" stroke="#63b8ff" points="352.13,-108.35 362.59,-109.98 355.43,-102.18 352.13,-108.35"/>
</a>
</g>
</g>
<!-- Node11&#45;&gt;Node7 -->
<g id="edge14_Node000011_Node000007" class="edge">
<title>Node11&#45;&gt;Node7</title>
<g id="a_edge14_Node000011_Node000007"><a xlink:title=" ">
<path fill="none" stroke="#63b8ff" d="M511.94,-108.13C457.76,-98.19 376.96,-83.37 326.3,-74.08"/>
<polygon fill="#63b8ff" stroke="#63b8ff" points="511.6,-111.62 522.07,-109.98 512.86,-104.74 511.6,-111.62"/>
</a>
</g>
</g>
<!-- Node13&#45;&gt;Node3 -->
<g id="edge17_Node000013_Node000003" class="edge">
<title>Node13&#45;&gt;Node3</title>
<g id="a_edge17_Node000013_Node000003"><a xlink:title=" ">
<path fill="none" stroke="#63b8ff" d="M168.32,-280.78C150.45,-270.43 129.29,-258.18 115.42,-250.14"/>
<polygon fill="#63b8ff" stroke="#63b8ff" points="166.9,-284 177.31,-285.99 170.41,-277.95 166.9,-284"/>
</a>
</g>
</g>
<!-- Node13&#45;&gt;Node4 -->
<g id="edge18_Node000013_Node000004" class="edge">
<title>Node13&#45;&gt;Node4</title>
<g id="a_edge18_Node000013_Node000004"><a xlink:title=" ">
<path fill="none" stroke="#63b8ff" d="M228.76,-279.82C242.37,-269.73 258.15,-258.05 268.66,-250.27"/>
<polygon fill="#63b8ff" stroke="#63b8ff" points="226.58,-277.07 220.62,-285.84 230.74,-282.7 226.58,-277.07"/>
</a>
</g>
</g>
</g>
</svg>
