<?xml version="1.0" encoding="UTF-8" standalone="no"?>
<!DOCTYPE svg PUBLIC "-//W3C//DTD SVG 1.1//EN"
 "http://www.w3.org/Graphics/SVG/1.1/DTD/svg11.dtd">
<!-- Generated by graphviz version 2.43.0 (0)
 -->
<!-- Title: cv::detail::AffineBasedEstimator Pages: 1 -->
<svg width="175pt" height="172pt"
 viewBox="0.00 0.00 175.00 172.00" xmlns="http://www.w3.org/2000/svg" xmlns:xlink="http://www.w3.org/1999/xlink">
<g id="graph0" class="graph" transform="scale(1 1) rotate(0) translate(4 168)">
<title>cv::detail::AffineBasedEstimator</title>
<!-- Node1 -->
<g id="Node000001" class="node">
<title>Node1</title>
<g id="a_Node000001"><a xlink:title="Affine transformation based estimator.">
<polygon fill="#999999" stroke="transparent" points="167,-49 0,-49 0,0 167,0 167,-49"/>
<text text-anchor="start" x="5.5" y="-36.5" font-family="Helvetica,sans-Serif" font-size="10.00">cv::detail::AffineBasedEstimator</text>
<text text-anchor="start" x="82" y="-21.5" font-family="Helvetica,sans-Serif" font-size="10.00"> </text>
<text text-anchor="start" x="12.5" y="-6.5" font-family="Helvetica,sans-Serif" font-size="10.00">+</text>
<text text-anchor="start" x="33.5" y="-6.5" font-family="Helvetica,sans-Serif" font-size="10.00">AffineBasedEstimator()</text>
<polygon fill="#666666" stroke="#666666" points="0.5,-31.5 0.5,-31.5 167.5,-31.5 167.5,-31.5 0.5,-31.5"/>
<polygon fill="#666666" stroke="#666666" points="0.5,-16.5 0.5,-16.5 167.5,-16.5 167.5,-16.5 0.5,-16.5"/>
<polygon fill="none" stroke="#666666" points="0,0 0,-49 167,-49 167,0 0,0"/>
</a>
</g>
</g>
<!-- Node2 -->
<g id="Node000002" class="node">
<title>Node2</title>
<g id="a_Node000002"><a xlink:href="../../df/d15/classcv_1_1detail_1_1Estimator.html" target="_top" xlink:title="Rotation estimator base class.">
<polygon fill="white" stroke="transparent" points="137.5,-164 29.5,-164 29.5,-85 137.5,-85 137.5,-164"/>
<text text-anchor="start" x="34.5" y="-151.5" font-family="Helvetica,sans-Serif" font-size="10.00">cv::detail::Estimator</text>
<text text-anchor="start" x="81.5" y="-136.5" font-family="Helvetica,sans-Serif" font-size="10.00"> </text>
<text text-anchor="start" x="39" y="-121.5" font-family="Helvetica,sans-Serif" font-size="10.00">+</text>
<text text-anchor="start" x="57.5" y="-121.5" font-family="Helvetica,sans-Serif" font-size="10.00">~Estimator()</text>
<text text-anchor="start" x="39" y="-106.5" font-family="Helvetica,sans-Serif" font-size="10.00">+</text>
<text text-anchor="start" x="57.5" y="-106.5" font-family="Helvetica,sans-Serif" font-size="10.00">operator()()</text>
<text text-anchor="start" x="39" y="-91.5" font-family="Helvetica,sans-Serif" font-size="10.00">#</text>
<text text-anchor="start" x="57.5" y="-91.5" font-family="Helvetica,sans-Serif" font-size="10.00">estimate()</text>
<polygon fill="#666666" stroke="#666666" points="29.5,-146.5 29.5,-146.5 137.5,-146.5 137.5,-146.5 29.5,-146.5"/>
<polygon fill="#666666" stroke="#666666" points="29.5,-131.5 29.5,-131.5 137.5,-131.5 137.5,-131.5 29.5,-131.5"/>
<polygon fill="none" stroke="#666666" points="29.5,-85 29.5,-164 137.5,-164 137.5,-85 29.5,-85"/>
</a>
</g>
</g>
<!-- Node2&#45;&gt;Node1 -->
<g id="edge1_Node000001_Node000002" class="edge">
<title>Node2&#45;&gt;Node1</title>
<g id="a_edge1_Node000001_Node000002"><a xlink:title=" ">
<path fill="none" stroke="#63b8ff" d="M83.5,-74.72C83.5,-65.75 83.5,-56.78 83.5,-49"/>
<polygon fill="none" stroke="#63b8ff" points="80,-74.77 83.5,-84.77 87,-74.77 80,-74.77"/>
</a>
</g>
</g>
</g>
</svg>
