<?xml version="1.0" encoding="UTF-8" standalone="no"?>
<!DOCTYPE svg PUBLIC "-//W3C//DTD SVG 1.1//EN"
 "http://www.w3.org/Graphics/SVG/1.1/DTD/svg11.dtd">
<!-- Generated by graphviz version 2.43.0 (0)
 -->
<!-- Title: cv::kinfu::Intr::Projector Pages: 1 -->
<svg width="132pt" height="216pt"
 viewBox="0.00 0.00 132.00 216.00" xmlns="http://www.w3.org/2000/svg" xmlns:xlink="http://www.w3.org/1999/xlink">
<g id="graph0" class="graph" transform="scale(1 1) rotate(0) translate(4 212)">
<title>cv::kinfu::Intr::Projector</title>
<!-- Node1 -->
<g id="Node000001" class="node">
<title>Node1</title>
<g id="a_Node000001"><a xlink:title=" ">
<polygon fill="#999999" stroke="transparent" points="124,-79 0,-79 0,0 124,0 124,-79"/>
<text text-anchor="start" x="5" y="-66.5" font-family="Helvetica,sans-Serif" font-size="10.00">cv::kinfu::Intr::Projector</text>
<text text-anchor="start" x="60" y="-51.5" font-family="Helvetica,sans-Serif" font-size="10.00"> </text>
<text text-anchor="start" x="15.5" y="-36.5" font-family="Helvetica,sans-Serif" font-size="10.00">+</text>
<text text-anchor="start" x="40" y="-36.5" font-family="Helvetica,sans-Serif" font-size="10.00">Projector()</text>
<text text-anchor="start" x="15.5" y="-21.5" font-family="Helvetica,sans-Serif" font-size="10.00">+</text>
<text text-anchor="start" x="40" y="-21.5" font-family="Helvetica,sans-Serif" font-size="10.00">operator()()</text>
<text text-anchor="start" x="15.5" y="-6.5" font-family="Helvetica,sans-Serif" font-size="10.00">+</text>
<text text-anchor="start" x="40" y="-6.5" font-family="Helvetica,sans-Serif" font-size="10.00">operator()()</text>
<polygon fill="#666666" stroke="#666666" points="0,-61.5 0,-61.5 124,-61.5 124,-61.5 0,-61.5"/>
<polygon fill="#666666" stroke="#666666" points="0,-46.5 0,-46.5 124,-46.5 124,-46.5 0,-46.5"/>
<polygon fill="none" stroke="#666666" points="0,0 0,-79 124,-79 124,0 0,0"/>
</a>
</g>
</g>
<!-- Node2 -->
<g id="Node000002" class="node">
<title>Node2</title>
<g id="a_Node000002"><a xlink:title=" ">
<polygon fill="white" stroke="transparent" points="78,-208 46,-208 46,-159 78,-159 78,-208"/>
<text text-anchor="start" x="51" y="-195.5" font-family="Helvetica,sans-Serif" font-size="10.00">float</text>
<text text-anchor="start" x="60" y="-180.5" font-family="Helvetica,sans-Serif" font-size="10.00"> </text>
<text text-anchor="start" x="60" y="-165.5" font-family="Helvetica,sans-Serif" font-size="10.00"> </text>
<polygon fill="#666666" stroke="#666666" points="46,-190.5 46,-190.5 78,-190.5 78,-190.5 46,-190.5"/>
<polygon fill="#666666" stroke="#666666" points="46,-175.5 46,-175.5 78,-175.5 78,-175.5 46,-175.5"/>
<polygon fill="none" stroke="#666666" points="46,-159 46,-208 78,-208 78,-159 46,-159"/>
</a>
</g>
</g>
<!-- Node2&#45;&gt;Node1 -->
<g id="edge1_Node000001_Node000002" class="edge">
<title>Node2&#45;&gt;Node1</title>
<g id="a_edge1_Node000001_Node000002"><a xlink:title=" ">
<path fill="none" stroke="#63b8ff" d="M62,-158.73C62,-140.33 62,-114.17 62,-91.14"/>
<polygon fill="none" stroke="#63b8ff" points="62,-91.09 58,-85.09 62,-79.09 66,-85.09 62,-91.09"/>
</a>
</g>
<text text-anchor="middle" x="73.5" y="-133" font-family="Helvetica,sans-Serif" font-size="10.00" fill="grey"> +cx</text>
<text text-anchor="middle" x="73.5" y="-122" font-family="Helvetica,sans-Serif" font-size="10.00" fill="grey">+cy</text>
<text text-anchor="middle" x="73.5" y="-111" font-family="Helvetica,sans-Serif" font-size="10.00" fill="grey">+fx</text>
<text text-anchor="middle" x="73.5" y="-100" font-family="Helvetica,sans-Serif" font-size="10.00" fill="grey">+fy</text>
</g>
</g>
</svg>
