<?xml version="1.0" encoding="UTF-8" standalone="no"?>
<!DOCTYPE svg PUBLIC "-//W3C//DTD SVG 1.1//EN"
 "http://www.w3.org/Graphics/SVG/1.1/DTD/svg11.dtd">
<!-- Generated by graphviz version 2.43.0 (0)
 -->
<!-- Title: cv::cudev::XYZ_to_RGBA_func&lt; SrcDepth &gt; Pages: 1 -->
<svg width="163pt" height="175pt"
 viewBox="0.00 0.00 163.00 175.00" xmlns="http://www.w3.org/2000/svg" xmlns:xlink="http://www.w3.org/1999/xlink">
<g id="graph0" class="graph" transform="scale(1 1) rotate(0) translate(4 171)">
<title>cv::cudev::XYZ_to_RGBA_func&lt; SrcDepth &gt;</title>
<!-- Node1 -->
<g id="Node000001" class="node">
<title>Node1</title>
<g id="a_Node000001"><a xlink:title=" ">
<polygon fill="#999999" stroke="transparent" points="142,-60 13,-60 13,0 142,0 142,-60"/>
<text text-anchor="start" x="18.5" y="-48" font-family="Helvetica,sans-Serif" font-size="10.00">cv::cudev::XYZ_to_RGBA</text>
<text text-anchor="start" x="31" y="-37" font-family="Helvetica,sans-Serif" font-size="10.00">_func&lt; SrcDepth &gt;</text>
<text text-anchor="start" x="76" y="-22" font-family="Helvetica,sans-Serif" font-size="10.00"> </text>
<text text-anchor="start" x="76" y="-7" font-family="Helvetica,sans-Serif" font-size="10.00"> </text>
<polygon fill="#666666" stroke="#666666" points="13.5,-32 13.5,-32 142.5,-32 142.5,-32 13.5,-32"/>
<polygon fill="#666666" stroke="#666666" points="13.5,-17 13.5,-17 142.5,-17 142.5,-17 13.5,-17"/>
<polygon fill="none" stroke="#666666" points="13,0 13,-60 142,-60 142,0 13,0"/>
</a>
</g>
</g>
<!-- Node2 -->
<g id="Node000002" class="node">
<title>Node2</title>
<g id="a_Node000002"><a xlink:href="../../df/d94/classcv_1_1cudev_1_1color__cvt__detail_1_1XYZ2RGB.html" target="_top" xlink:title=" ">
<polygon fill="white" stroke="transparent" points="155,-167 0,-167 0,-96 155,-96 155,-167"/>
<text text-anchor="start" x="5.5" y="-154.5" font-family="Helvetica,sans-Serif" font-size="10.00">cv::cudev::color_cvt</text>
<text text-anchor="start" x="5.5" y="-143.5" font-family="Helvetica,sans-Serif" font-size="10.00">_detail::XYZ2RGB&lt; SrcDepth,</text>
<text text-anchor="start" x="55.5" y="-132.5" font-family="Helvetica,sans-Serif" font-size="10.00"> 3, 4, 2 &gt;</text>
<text text-anchor="start" x="76" y="-117.5" font-family="Helvetica,sans-Serif" font-size="10.00"> </text>
<text text-anchor="start" x="76" y="-102.5" font-family="Helvetica,sans-Serif" font-size="10.00"> </text>
<polygon fill="#666666" stroke="#666666" points="0.5,-127.5 0.5,-127.5 155.5,-127.5 155.5,-127.5 0.5,-127.5"/>
<polygon fill="#666666" stroke="#666666" points="0.5,-112.5 0.5,-112.5 155.5,-112.5 155.5,-112.5 0.5,-112.5"/>
<polygon fill="none" stroke="#666666" points="0,-96 0,-167 155,-167 155,-96 0,-96"/>
</a>
</g>
</g>
<!-- Node2&#45;&gt;Node1 -->
<g id="edge1_Node000001_Node000002" class="edge">
<title>Node2&#45;&gt;Node1</title>
<g id="a_edge1_Node000001_Node000002"><a xlink:title=" ">
<path fill="none" stroke="#63b8ff" d="M77.5,-85.9C77.5,-77.17 77.5,-68.24 77.5,-60.17"/>
<polygon fill="none" stroke="#63b8ff" points="74,-85.98 77.5,-95.98 81,-85.98 74,-85.98"/>
</a>
</g>
</g>
</g>
</svg>
