<?xml version="1.0" encoding="UTF-8" standalone="no"?>
<!DOCTYPE svg PUBLIC "-//W3C//DTD SVG 1.1//EN"
 "http://www.w3.org/Graphics/SVG/1.1/DTD/svg11.dtd">
<!-- Generated by graphviz version 2.43.0 (0)
 -->
<!-- Title: cv::datasets::cameraParam Pages: 1 -->
<svg width="304pt" height="866pt"
 viewBox="0.00 0.00 303.76 866.00" xmlns="http://www.w3.org/2000/svg" xmlns:xlink="http://www.w3.org/1999/xlink">
<g id="graph0" class="graph" transform="scale(1 1) rotate(0) translate(4 862)">
<title>cv::datasets::cameraParam</title>
<!-- Node1 -->
<g id="Node000001" class="node">
<title>Node1</title>
<g id="a_Node000001"><a xlink:title=" ">
<polygon fill="#999999" stroke="transparent" points="228.26,-49 85.26,-49 85.26,0 228.26,0 228.26,-49"/>
<text text-anchor="start" x="90.76" y="-36.5" font-family="Helvetica,sans-Serif" font-size="10.00">cv::datasets::cameraParam</text>
<text text-anchor="start" x="155.26" y="-21.5" font-family="Helvetica,sans-Serif" font-size="10.00"> </text>
<text text-anchor="start" x="155.26" y="-6.5" font-family="Helvetica,sans-Serif" font-size="10.00"> </text>
<polygon fill="#666666" stroke="#666666" points="85.76,-31.5 85.76,-31.5 228.76,-31.5 228.76,-31.5 85.76,-31.5"/>
<polygon fill="#666666" stroke="#666666" points="85.76,-16.5 85.76,-16.5 228.76,-16.5 228.76,-16.5 85.76,-16.5"/>
<polygon fill="none" stroke="#666666" points="85.26,0 85.26,-49 228.26,-49 228.26,0 85.26,0"/>
</a>
</g>
</g>
<!-- Node2 -->
<g id="Node000002" class="node">
<title>Node2</title>
<g id="a_Node000002"><a xlink:href="../../de/de1/classcv_1_1Matx.html" target="_top" xlink:title=" ">
<polygon fill="white" stroke="transparent" points="222.26,-411 91.26,-411 91.26,-107 222.26,-107 222.26,-411"/>
<text text-anchor="start" x="96.76" y="-399" font-family="Helvetica,sans-Serif" font-size="10.00">cv::Matx&lt; double, 3, 3 &gt;</text>
<text text-anchor="start" x="155.26" y="-384" font-family="Helvetica,sans-Serif" font-size="10.00"> </text>
<text text-anchor="start" x="105.26" y="-369" font-family="Helvetica,sans-Serif" font-size="10.00">+</text>
<text text-anchor="start" x="127.76" y="-369" font-family="Helvetica,sans-Serif" font-size="10.00">Matx()</text>
<text text-anchor="start" x="105.26" y="-354" font-family="Helvetica,sans-Serif" font-size="10.00">+</text>
<text text-anchor="start" x="127.76" y="-354" font-family="Helvetica,sans-Serif" font-size="10.00">Matx()</text>
<text text-anchor="start" x="105.26" y="-339" font-family="Helvetica,sans-Serif" font-size="10.00">+</text>
<text text-anchor="start" x="127.76" y="-339" font-family="Helvetica,sans-Serif" font-size="10.00">Matx()</text>
<text text-anchor="start" x="105.26" y="-324" font-family="Helvetica,sans-Serif" font-size="10.00">+</text>
<text text-anchor="start" x="127.76" y="-324" font-family="Helvetica,sans-Serif" font-size="10.00">Matx()</text>
<text text-anchor="start" x="105.26" y="-309" font-family="Helvetica,sans-Serif" font-size="10.00">+</text>
<text text-anchor="start" x="127.76" y="-309" font-family="Helvetica,sans-Serif" font-size="10.00">Matx()</text>
<text text-anchor="start" x="105.26" y="-294" font-family="Helvetica,sans-Serif" font-size="10.00">+</text>
<text text-anchor="start" x="127.76" y="-294" font-family="Helvetica,sans-Serif" font-size="10.00">Matx()</text>
<text text-anchor="start" x="105.26" y="-279" font-family="Helvetica,sans-Serif" font-size="10.00">+</text>
<text text-anchor="start" x="127.76" y="-279" font-family="Helvetica,sans-Serif" font-size="10.00">Matx()</text>
<text text-anchor="start" x="105.26" y="-264" font-family="Helvetica,sans-Serif" font-size="10.00">+</text>
<text text-anchor="start" x="127.76" y="-264" font-family="Helvetica,sans-Serif" font-size="10.00">Matx()</text>
<text text-anchor="start" x="105.26" y="-249" font-family="Helvetica,sans-Serif" font-size="10.00">+</text>
<text text-anchor="start" x="127.76" y="-249" font-family="Helvetica,sans-Serif" font-size="10.00">Matx()</text>
<text text-anchor="start" x="105.26" y="-234" font-family="Helvetica,sans-Serif" font-size="10.00">+</text>
<text text-anchor="start" x="127.76" y="-234" font-family="Helvetica,sans-Serif" font-size="10.00">Matx()</text>
<text text-anchor="start" x="127.76" y="-219" font-family="Helvetica,sans-Serif" font-size="10.00">and 31 more...</text>
<text text-anchor="start" x="105.26" y="-204" font-family="Helvetica,sans-Serif" font-size="10.00">+</text>
<text text-anchor="start" x="127.76" y="-204" font-family="Helvetica,sans-Serif" font-size="10.00">all()</text>
<text text-anchor="start" x="105.26" y="-189" font-family="Helvetica,sans-Serif" font-size="10.00">+</text>
<text text-anchor="start" x="127.76" y="-189" font-family="Helvetica,sans-Serif" font-size="10.00">diag()</text>
<text text-anchor="start" x="105.26" y="-174" font-family="Helvetica,sans-Serif" font-size="10.00">+</text>
<text text-anchor="start" x="127.76" y="-174" font-family="Helvetica,sans-Serif" font-size="10.00">eye()</text>
<text text-anchor="start" x="105.26" y="-159" font-family="Helvetica,sans-Serif" font-size="10.00">+</text>
<text text-anchor="start" x="127.76" y="-159" font-family="Helvetica,sans-Serif" font-size="10.00">ones()</text>
<text text-anchor="start" x="105.26" y="-144" font-family="Helvetica,sans-Serif" font-size="10.00">+</text>
<text text-anchor="start" x="127.76" y="-144" font-family="Helvetica,sans-Serif" font-size="10.00">randn()</text>
<text text-anchor="start" x="105.26" y="-129" font-family="Helvetica,sans-Serif" font-size="10.00">+</text>
<text text-anchor="start" x="127.76" y="-129" font-family="Helvetica,sans-Serif" font-size="10.00">randu()</text>
<text text-anchor="start" x="105.26" y="-114" font-family="Helvetica,sans-Serif" font-size="10.00">+</text>
<text text-anchor="start" x="127.76" y="-114" font-family="Helvetica,sans-Serif" font-size="10.00">zeros()</text>
<polygon fill="#666666" stroke="#666666" points="91.76,-394 91.76,-394 222.76,-394 222.76,-394 91.76,-394"/>
<polygon fill="#666666" stroke="#666666" points="91.76,-379 91.76,-379 222.76,-379 222.76,-379 91.76,-379"/>
<polygon fill="none" stroke="#666666" points="91.26,-107 91.26,-411 222.26,-411 222.26,-107 91.26,-107"/>
</a>
</g>
</g>
<!-- Node2&#45;&gt;Node1 -->
<g id="edge1_Node000001_Node000002" class="edge">
<title>Node2&#45;&gt;Node1</title>
<g id="a_edge1_Node000001_Node000002"><a xlink:title=" ">
<path fill="none" stroke="#63b8ff" d="M156.76,-106.82C156.76,-90.03 156.76,-74.32 156.76,-61.27"/>
<polygon fill="none" stroke="#63b8ff" points="156.76,-61.16 152.76,-55.16 156.76,-49.16 160.76,-55.16 156.76,-61.16"/>
</a>
</g>
<text text-anchor="middle" x="175.26" y="-81" font-family="Helvetica,sans-Serif" font-size="10.00" fill="grey"> +mat1</text>
<text text-anchor="middle" x="175.26" y="-70" font-family="Helvetica,sans-Serif" font-size="10.00" fill="grey">+mat3</text>
</g>
<!-- Node3 -->
<g id="Node000003" class="node">
<title>Node3</title>
<g id="a_Node000003"><a xlink:title=" ">
<polygon fill="white" stroke="transparent" points="68.76,-634.5 24.76,-634.5 24.76,-585.5 68.76,-585.5 68.76,-634.5"/>
<text text-anchor="start" x="29.76" y="-622" font-family="Helvetica,sans-Serif" font-size="10.00">double</text>
<text text-anchor="start" x="44.76" y="-607" font-family="Helvetica,sans-Serif" font-size="10.00"> </text>
<text text-anchor="start" x="44.76" y="-592" font-family="Helvetica,sans-Serif" font-size="10.00"> </text>
<polygon fill="#666666" stroke="#666666" points="24.76,-617 24.76,-617 68.76,-617 68.76,-617 24.76,-617"/>
<polygon fill="#666666" stroke="#666666" points="24.76,-602 24.76,-602 68.76,-602 68.76,-602 24.76,-602"/>
<polygon fill="none" stroke="#666666" points="24.76,-585.5 24.76,-634.5 68.76,-634.5 68.76,-585.5 24.76,-585.5"/>
</a>
</g>
</g>
<!-- Node3&#45;&gt;Node1 -->
<g id="edge5_Node000001_Node000003" class="edge">
<title>Node3&#45;&gt;Node1</title>
<g id="a_edge5_Node000001_Node000003"><a xlink:title=" ">
<path fill="none" stroke="#63b8ff" d="M39.48,-585.27C17.85,-510.1 -39.46,-272.43 44.76,-107 55.67,-85.56 75.16,-68.43 94.86,-55.51"/>
<polygon fill="none" stroke="#63b8ff" points="94.94,-55.46 97.93,-48.9 105.14,-49.14 102.14,-55.7 94.94,-55.46"/>
</a>
</g>
<text text-anchor="middle" x="63.26" y="-262" font-family="Helvetica,sans-Serif" font-size="10.00" fill="grey"> +mat2</text>
<text text-anchor="middle" x="63.26" y="-251" font-family="Helvetica,sans-Serif" font-size="10.00" fill="grey">+mat4</text>
</g>
<!-- Node3&#45;&gt;Node2 -->
<g id="edge2_Node000002_Node000003" class="edge">
<title>Node3&#45;&gt;Node2</title>
<g id="a_edge2_Node000002_Node000003"><a xlink:title=" ">
<path fill="none" stroke="#63b8ff" d="M52.64,-585.31C60.18,-555.45 73.94,-502.63 87.76,-458 91.33,-446.47 95.13,-434.61 99.04,-422.69"/>
<polygon fill="none" stroke="#63b8ff" points="99.06,-422.65 97.14,-415.69 102.83,-411.25 104.74,-418.21 99.06,-422.65"/>
</a>
</g>
<text text-anchor="middle" x="110.26" y="-432" font-family="Helvetica,sans-Serif" font-size="10.00" fill="grey"> +val</text>
</g>
<!-- Node4 -->
<g id="Node000004" class="node">
<title>Node4</title>
<g id="a_Node000004"><a xlink:href="../../de/de1/classcv_1_1Matx.html" target="_top" xlink:title="Template class for small matrices whose type and size are known at compilation time.">
<polygon fill="white" stroke="transparent" points="216.26,-762 97.26,-762 97.26,-458 216.26,-458 216.26,-762"/>
<text text-anchor="start" x="102.76" y="-750" font-family="Helvetica,sans-Serif" font-size="10.00">cv::Matx&lt; _Tp, m, n &gt;</text>
<text text-anchor="start" x="155.26" y="-735" font-family="Helvetica,sans-Serif" font-size="10.00"> </text>
<text text-anchor="start" x="108.26" y="-720" font-family="Helvetica,sans-Serif" font-size="10.00">+</text>
<text text-anchor="start" x="127.76" y="-720" font-family="Helvetica,sans-Serif" font-size="10.00">Matx()</text>
<text text-anchor="start" x="108.26" y="-705" font-family="Helvetica,sans-Serif" font-size="10.00">+</text>
<text text-anchor="start" x="127.76" y="-705" font-family="Helvetica,sans-Serif" font-size="10.00">Matx()</text>
<text text-anchor="start" x="108.26" y="-690" font-family="Helvetica,sans-Serif" font-size="10.00">+</text>
<text text-anchor="start" x="127.76" y="-690" font-family="Helvetica,sans-Serif" font-size="10.00">Matx()</text>
<text text-anchor="start" x="108.26" y="-675" font-family="Helvetica,sans-Serif" font-size="10.00">+</text>
<text text-anchor="start" x="127.76" y="-675" font-family="Helvetica,sans-Serif" font-size="10.00">Matx()</text>
<text text-anchor="start" x="108.26" y="-660" font-family="Helvetica,sans-Serif" font-size="10.00">+</text>
<text text-anchor="start" x="127.76" y="-660" font-family="Helvetica,sans-Serif" font-size="10.00">Matx()</text>
<text text-anchor="start" x="108.26" y="-645" font-family="Helvetica,sans-Serif" font-size="10.00">+</text>
<text text-anchor="start" x="127.76" y="-645" font-family="Helvetica,sans-Serif" font-size="10.00">Matx()</text>
<text text-anchor="start" x="108.26" y="-630" font-family="Helvetica,sans-Serif" font-size="10.00">+</text>
<text text-anchor="start" x="127.76" y="-630" font-family="Helvetica,sans-Serif" font-size="10.00">Matx()</text>
<text text-anchor="start" x="108.26" y="-615" font-family="Helvetica,sans-Serif" font-size="10.00">+</text>
<text text-anchor="start" x="127.76" y="-615" font-family="Helvetica,sans-Serif" font-size="10.00">Matx()</text>
<text text-anchor="start" x="108.26" y="-600" font-family="Helvetica,sans-Serif" font-size="10.00">+</text>
<text text-anchor="start" x="127.76" y="-600" font-family="Helvetica,sans-Serif" font-size="10.00">Matx()</text>
<text text-anchor="start" x="108.26" y="-585" font-family="Helvetica,sans-Serif" font-size="10.00">+</text>
<text text-anchor="start" x="127.76" y="-585" font-family="Helvetica,sans-Serif" font-size="10.00">Matx()</text>
<text text-anchor="start" x="127.76" y="-570" font-family="Helvetica,sans-Serif" font-size="10.00">and 31 more...</text>
<text text-anchor="start" x="108.26" y="-555" font-family="Helvetica,sans-Serif" font-size="10.00">+</text>
<text text-anchor="start" x="127.76" y="-555" font-family="Helvetica,sans-Serif" font-size="10.00">all()</text>
<text text-anchor="start" x="108.26" y="-540" font-family="Helvetica,sans-Serif" font-size="10.00">+</text>
<text text-anchor="start" x="127.76" y="-540" font-family="Helvetica,sans-Serif" font-size="10.00">diag()</text>
<text text-anchor="start" x="108.26" y="-525" font-family="Helvetica,sans-Serif" font-size="10.00">+</text>
<text text-anchor="start" x="127.76" y="-525" font-family="Helvetica,sans-Serif" font-size="10.00">eye()</text>
<text text-anchor="start" x="108.26" y="-510" font-family="Helvetica,sans-Serif" font-size="10.00">+</text>
<text text-anchor="start" x="127.76" y="-510" font-family="Helvetica,sans-Serif" font-size="10.00">ones()</text>
<text text-anchor="start" x="108.26" y="-495" font-family="Helvetica,sans-Serif" font-size="10.00">+</text>
<text text-anchor="start" x="127.76" y="-495" font-family="Helvetica,sans-Serif" font-size="10.00">randn()</text>
<text text-anchor="start" x="108.26" y="-480" font-family="Helvetica,sans-Serif" font-size="10.00">+</text>
<text text-anchor="start" x="127.76" y="-480" font-family="Helvetica,sans-Serif" font-size="10.00">randu()</text>
<text text-anchor="start" x="108.26" y="-465" font-family="Helvetica,sans-Serif" font-size="10.00">+</text>
<text text-anchor="start" x="127.76" y="-465" font-family="Helvetica,sans-Serif" font-size="10.00">zeros()</text>
<polygon fill="#666666" stroke="#666666" points="97.76,-745 97.76,-745 216.76,-745 216.76,-745 97.76,-745"/>
<polygon fill="#666666" stroke="#666666" points="97.76,-730 97.76,-730 216.76,-730 216.76,-730 97.76,-730"/>
<polygon fill="none" stroke="#666666" points="97.26,-458 97.26,-762 216.26,-762 216.26,-458 97.26,-458"/>
</a>
</g>
</g>
<!-- Node4&#45;&gt;Node2 -->
<g id="edge3_Node000002_Node000004" class="edge">
<title>Node4&#45;&gt;Node2</title>
<g id="a_edge3_Node000002_Node000004"><a xlink:title=" ">
<path fill="none" stroke="orange" d="M156.76,-447.71C156.76,-435.48 156.76,-423.16 156.76,-411"/>
<polygon fill="orange" stroke="orange" points="153.26,-447.95 156.76,-457.95 160.26,-447.95 153.26,-447.95"/>
</a>
</g>
<text text-anchor="middle" x="198.26" y="-432" font-family="Helvetica,sans-Serif" font-size="10.00" fill="grey"> &lt; double, 3, 3 &gt;</text>
</g>
<!-- Node5 -->
<g id="Node000005" class="node">
<title>Node5</title>
<g id="a_Node000005"><a xlink:href="../../d1/dd7/class__Tp.html" target="_top" xlink:title=" ">
<polygon fill="white" stroke="transparent" points="170.76,-858 142.76,-858 142.76,-809 170.76,-809 170.76,-858"/>
<text text-anchor="start" x="147.76" y="-845.5" font-family="Helvetica,sans-Serif" font-size="10.00">_Tp</text>
<text text-anchor="start" x="154.76" y="-830.5" font-family="Helvetica,sans-Serif" font-size="10.00"> </text>
<text text-anchor="start" x="154.76" y="-815.5" font-family="Helvetica,sans-Serif" font-size="10.00"> </text>
<polygon fill="#666666" stroke="#666666" points="142.76,-840.5 142.76,-840.5 170.76,-840.5 170.76,-840.5 142.76,-840.5"/>
<polygon fill="#666666" stroke="#666666" points="142.76,-825.5 142.76,-825.5 170.76,-825.5 170.76,-825.5 142.76,-825.5"/>
<polygon fill="none" stroke="#666666" points="142.76,-809 142.76,-858 170.76,-858 170.76,-809 142.76,-809"/>
</a>
</g>
</g>
<!-- Node5&#45;&gt;Node4 -->
<g id="edge4_Node000004_Node000005" class="edge">
<title>Node5&#45;&gt;Node4</title>
<g id="a_edge4_Node000004_Node000005"><a xlink:title=" ">
<path fill="none" stroke="#63b8ff" d="M156.76,-808.8C156.76,-799.31 156.76,-787.53 156.76,-774.46"/>
<polygon fill="none" stroke="#63b8ff" points="156.76,-774.14 152.76,-768.14 156.76,-762.14 160.76,-768.14 156.76,-774.14"/>
</a>
</g>
<text text-anchor="middle" x="170.26" y="-783" font-family="Helvetica,sans-Serif" font-size="10.00" fill="grey"> +val</text>
</g>
<!-- Node6 -->
<g id="Node000006" class="node">
<title>Node6</title>
<g id="a_Node000006"><a xlink:title=" ">
<polygon fill="white" stroke="transparent" points="263.26,-283.5 240.26,-283.5 240.26,-234.5 263.26,-234.5 263.26,-283.5"/>
<text text-anchor="start" x="245.76" y="-271" font-family="Helvetica,sans-Serif" font-size="10.00">int</text>
<text text-anchor="start" x="250.26" y="-256" font-family="Helvetica,sans-Serif" font-size="10.00"> </text>
<text text-anchor="start" x="250.26" y="-241" font-family="Helvetica,sans-Serif" font-size="10.00"> </text>
<polygon fill="#666666" stroke="#666666" points="240.76,-266 240.76,-266 263.76,-266 263.76,-266 240.76,-266"/>
<polygon fill="#666666" stroke="#666666" points="240.76,-251 240.76,-251 263.76,-251 263.76,-251 240.76,-251"/>
<polygon fill="none" stroke="#666666" points="240.26,-234.5 240.26,-283.5 263.26,-283.5 263.26,-234.5 240.26,-234.5"/>
</a>
</g>
</g>
<!-- Node6&#45;&gt;Node1 -->
<g id="edge6_Node000001_Node000006" class="edge">
<title>Node6&#45;&gt;Node1</title>
<g id="a_edge6_Node000001_Node000006"><a xlink:title=" ">
<path fill="none" stroke="#63b8ff" d="M252.66,-234.39C252.96,-203.7 250.44,-149.05 231.76,-107 223.49,-88.4 209.25,-71.26 195.38,-57.54"/>
<polygon fill="none" stroke="#63b8ff" points="195.1,-57.28 187.99,-56.06 186.38,-49.04 193.49,-50.25 195.1,-57.28"/>
</a>
</g>
<text text-anchor="middle" x="258.26" y="-81" font-family="Helvetica,sans-Serif" font-size="10.00" fill="grey"> +imageHeight</text>
<text text-anchor="middle" x="258.26" y="-70" font-family="Helvetica,sans-Serif" font-size="10.00" fill="grey">+imageWidth</text>
</g>
</g>
</svg>
