<?xml version="1.0" encoding="UTF-8" standalone="no"?>
<!DOCTYPE svg PUBLIC "-//W3C//DTD SVG 1.1//EN"
 "http://www.w3.org/Graphics/SVG/1.1/DTD/svg11.dtd">
<!-- Generated by graphviz version 2.43.0 (0)
 -->
<!-- Title: cv::v_dotprod_expand Pages: 1 -->
<svg width="274pt" height="101pt"
 viewBox="0.00 0.00 274.00 101.00" xmlns="http://www.w3.org/2000/svg" xmlns:xlink="http://www.w3.org/1999/xlink">
<g id="graph0" class="graph" transform="scale(1 1) rotate(0) translate(4 97)">
<title>cv::v_dotprod_expand</title>
<!-- Node1 -->
<g id="Node000001" class="node">
<title>Node1</title>
<g id="a_Node000001"><a xlink:title=" ">
<polygon fill="#999999" stroke="#666666" points="123,-56 0,-56 0,-37 123,-37 123,-56"/>
<text text-anchor="middle" x="61.5" y="-44" font-family="Helvetica,sans-Serif" font-size="10.00">cv::v_dotprod_expand</text>
</a>
</g>
</g>
<!-- Node2 -->
<g id="Node000002" class="node">
<title>Node2</title>
<g id="a_Node000002"><a xlink:href="../../df/d91/group__core__hal__intrin.html#ga7d639347e0681f067f0ea17436483f7a" target="_top" xlink:title="Convert lower half to double.">
<polygon fill="white" stroke="#666666" points="252.5,-93 172.5,-93 172.5,-74 252.5,-74 252.5,-93"/>
<text text-anchor="middle" x="212.5" y="-81" font-family="Helvetica,sans-Serif" font-size="10.00">cv::v_cvt_f64</text>
</a>
</g>
</g>
<!-- Node1&#45;&gt;Node2 -->
<g id="edge1_Node000001_Node000002" class="edge">
<title>Node1&#45;&gt;Node2</title>
<g id="a_edge1_Node000001_Node000002"><a xlink:title=" ">
<path fill="none" stroke="#63b8ff" d="M100.87,-56.03C119.83,-60.74 142.9,-66.47 163.06,-71.47"/>
<polygon fill="#63b8ff" stroke="#63b8ff" points="162.45,-74.93 173,-73.94 164.14,-68.13 162.45,-74.93"/>
</a>
</g>
</g>
<!-- Node3 -->
<g id="Node000003" class="node">
<title>Node3</title>
<g id="a_Node000003"><a xlink:href="../../df/d91/group__core__hal__intrin.html#gafab8a4095386b72aa46796e7fef3668a" target="_top" xlink:title="Convert to double high part of vector.">
<polygon fill="white" stroke="#666666" points="266,-56 159,-56 159,-37 266,-37 266,-56"/>
<text text-anchor="middle" x="212.5" y="-44" font-family="Helvetica,sans-Serif" font-size="10.00">cv::v_cvt_f64_high</text>
</a>
</g>
</g>
<!-- Node1&#45;&gt;Node3 -->
<g id="edge2_Node000001_Node000003" class="edge">
<title>Node1&#45;&gt;Node3</title>
<g id="a_edge2_Node000001_Node000003"><a xlink:title=" ">
<path fill="none" stroke="#63b8ff" d="M123.1,-46.5C131.47,-46.5 140.07,-46.5 148.48,-46.5"/>
<polygon fill="#63b8ff" stroke="#63b8ff" points="148.6,-50 158.6,-46.5 148.6,-43 148.6,-50"/>
</a>
</g>
</g>
<!-- Node4 -->
<g id="Node000004" class="node">
<title>Node4</title>
<g id="a_Node000004"><a xlink:href="../../df/d91/group__core__hal__intrin.html#gaa5aa4bc7f178b3cc0e6b11781003dd77" target="_top" xlink:title="Multiply and add.">
<polygon fill="white" stroke="#666666" points="244.5,-19 180.5,-19 180.5,0 244.5,0 244.5,-19"/>
<text text-anchor="middle" x="212.5" y="-7" font-family="Helvetica,sans-Serif" font-size="10.00">cv::v_fma</text>
</a>
</g>
</g>
<!-- Node1&#45;&gt;Node4 -->
<g id="edge3_Node000001_Node000004" class="edge">
<title>Node1&#45;&gt;Node4</title>
<g id="a_edge3_Node000001_Node000004"><a xlink:title=" ">
<path fill="none" stroke="#63b8ff" d="M100.87,-36.97C122.16,-31.69 148.64,-25.11 170.36,-19.72"/>
<polygon fill="#63b8ff" stroke="#63b8ff" points="171.42,-23.06 180.28,-17.25 169.73,-16.27 171.42,-23.06"/>
</a>
</g>
</g>
</g>
</svg>
