<?xml version="1.0" encoding="UTF-8" standalone="no"?>
<!DOCTYPE svg PUBLIC "-//W3C//DTD SVG 1.1//EN"
 "http://www.w3.org/Graphics/SVG/1.1/DTD/svg11.dtd">
<!-- Generated by graphviz version 2.43.0 (0)
 -->
<!-- Title: cv::v_store_aligned Pages: 1 -->
<svg width="337pt" height="46pt"
 viewBox="0.00 0.00 337.00 46.00" xmlns="http://www.w3.org/2000/svg" xmlns:xlink="http://www.w3.org/1999/xlink">
<g id="graph0" class="graph" transform="scale(1 1) rotate(0) translate(4 42)">
<title>cv::v_store_aligned</title>
<!-- Node1 -->
<g id="Node000001" class="node">
<title>Node1</title>
<g id="a_Node000001"><a xlink:title=" ">
<polygon fill="#999999" stroke="#666666" points="110,-38 0,-38 0,-19 110,-19 110,-38"/>
<text text-anchor="middle" x="55" y="-26" font-family="Helvetica,sans-Serif" font-size="10.00">cv::v_store_aligned</text>
</a>
</g>
</g>
<!-- Node2 -->
<g id="Node000002" class="node">
<title>Node2</title>
<g id="a_Node000002"><a xlink:href="../../db/de0/group__core__utils.html#gadbc1b082037ac3725f3b12fe6c541c61" target="_top" xlink:title="Alignment check of passed values.">
<polygon fill="white" stroke="#666666" points="329,-38 251,-38 251,-19 329,-19 329,-38"/>
<text text-anchor="middle" x="290" y="-26" font-family="Helvetica,sans-Serif" font-size="10.00">cv::isAligned</text>
</a>
</g>
</g>
<!-- Node1&#45;&gt;Node2 -->
<g id="edge1_Node000001_Node000002" class="edge">
<title>Node1&#45;&gt;Node2</title>
<g id="a_edge1_Node000001_Node000002"><a xlink:title=" ">
<path fill="none" stroke="#63b8ff" d="M110.04,-28.5C149.49,-28.5 202.49,-28.5 240.57,-28.5"/>
<polygon fill="#63b8ff" stroke="#63b8ff" points="240.88,-32 250.88,-28.5 240.88,-25 240.88,-32"/>
</a>
</g>
</g>
<!-- Node3 -->
<g id="Node000003" class="node">
<title>Node3</title>
<g id="a_Node000003"><a xlink:href="../../df/d91/group__core__hal__intrin.html#ga275dfa9c8935f5e9a1031121cde460f4" target="_top" xlink:title="Store data to memory.">
<polygon fill="white" stroke="#666666" points="215,-19 146,-19 146,0 215,0 215,-19"/>
<text text-anchor="middle" x="180.5" y="-7" font-family="Helvetica,sans-Serif" font-size="10.00">cv::v_store</text>
</a>
</g>
</g>
<!-- Node1&#45;&gt;Node3 -->
<g id="edge2_Node000001_Node000003" class="edge">
<title>Node1&#45;&gt;Node3</title>
<g id="a_edge2_Node000001_Node000003"><a xlink:title=" ">
<path fill="none" stroke="#63b8ff" d="M110.17,-20.17C118.83,-18.83 127.7,-17.47 136.07,-16.18"/>
<polygon fill="#63b8ff" stroke="#63b8ff" points="136.63,-19.64 145.98,-14.66 135.57,-12.72 136.63,-19.64"/>
</a>
</g>
</g>
<!-- Node3&#45;&gt;Node2 -->
<g id="edge3_Node000003_Node000002" class="edge">
<title>Node3&#45;&gt;Node2</title>
<g id="a_edge3_Node000003_Node000002"><a xlink:title=" ">
<path fill="none" stroke="#63b8ff" d="M215.22,-15.46C223.36,-16.9 232.22,-18.46 240.88,-20"/>
<polygon fill="#63b8ff" stroke="#63b8ff" points="240.45,-23.47 250.91,-21.77 241.67,-16.58 240.45,-23.47"/>
</a>
</g>
</g>
</g>
</svg>
