<?xml version="1.0" encoding="UTF-8" standalone="no"?>
<!DOCTYPE svg PUBLIC "-//W3C//DTD SVG 1.1//EN"
 "http://www.w3.org/Graphics/SVG/1.1/DTD/svg11.dtd">
<!-- Generated by graphviz version 2.43.0 (0)
 -->
<!-- Title: cv::v_store Pages: 1 -->
<svg width="296pt" height="46pt"
 viewBox="0.00 0.00 296.00 46.00" xmlns="http://www.w3.org/2000/svg" xmlns:xlink="http://www.w3.org/1999/xlink">
<g id="graph0" class="graph" transform="scale(1 1) rotate(0) translate(4 42)">
<title>cv::v_store</title>
<!-- Node1 -->
<g id="Node000001" class="node">
<title>Node1</title>
<g id="a_Node000001"><a xlink:title=" ">
<polygon fill="#999999" stroke="#666666" points="69,-38 0,-38 0,-19 69,-19 69,-38"/>
<text text-anchor="middle" x="34.5" y="-26" font-family="Helvetica,sans-Serif" font-size="10.00">cv::v_store</text>
</a>
</g>
</g>
<!-- Node2 -->
<g id="Node000002" class="node">
<title>Node2</title>
<g id="a_Node000002"><a xlink:href="../../db/de0/group__core__utils.html#gadbc1b082037ac3725f3b12fe6c541c61" target="_top" xlink:title="Alignment check of passed values.">
<polygon fill="white" stroke="#666666" points="288,-38 210,-38 210,-19 288,-19 288,-38"/>
<text text-anchor="middle" x="249" y="-26" font-family="Helvetica,sans-Serif" font-size="10.00">cv::isAligned</text>
</a>
</g>
</g>
<!-- Node1&#45;&gt;Node2 -->
<g id="edge1_Node000001_Node000002" class="edge">
<title>Node1&#45;&gt;Node2</title>
<g id="a_edge1_Node000001_Node000002"><a xlink:title=" ">
<path fill="none" stroke="#63b8ff" d="M69.17,-28.5C104.38,-28.5 159.94,-28.5 199.79,-28.5"/>
<polygon fill="#63b8ff" stroke="#63b8ff" points="199.82,-32 209.82,-28.5 199.82,-25 199.82,-32"/>
</a>
</g>
</g>
<!-- Node3 -->
<g id="Node000003" class="node">
<title>Node3</title>
<g id="a_Node000003"><a xlink:href="../../df/d91/group__core__hal__intrin.html#ga275dfa9c8935f5e9a1031121cde460f4" target="_top" xlink:title="Store data to memory.">
<polygon fill="white" stroke="#666666" points="174,-19 105,-19 105,0 174,0 174,-19"/>
<text text-anchor="middle" x="139.5" y="-7" font-family="Helvetica,sans-Serif" font-size="10.00">cv::v_store</text>
</a>
</g>
</g>
<!-- Node1&#45;&gt;Node3 -->
<g id="edge2_Node000001_Node000003" class="edge">
<title>Node1&#45;&gt;Node3</title>
<g id="a_edge2_Node000001_Node000003"><a xlink:title=" ">
<path fill="none" stroke="#63b8ff" d="M69.23,-22.28C77.41,-20.77 86.27,-19.13 94.84,-17.55"/>
<polygon fill="#63b8ff" stroke="#63b8ff" points="95.5,-20.99 104.7,-15.74 94.23,-14.11 95.5,-20.99"/>
</a>
</g>
</g>
<!-- Node3&#45;&gt;Node2 -->
<g id="edge3_Node000003_Node000002" class="edge">
<title>Node3&#45;&gt;Node2</title>
<g id="a_edge3_Node000003_Node000002"><a xlink:title=" ">
<path fill="none" stroke="#63b8ff" d="M174.22,-15.46C182.36,-16.9 191.22,-18.46 199.88,-20"/>
<polygon fill="#63b8ff" stroke="#63b8ff" points="199.45,-23.47 209.91,-21.77 200.67,-16.58 199.45,-23.47"/>
</a>
</g>
</g>
</g>
</svg>
