<?xml version="1.0" encoding="UTF-8" standalone="no"?>
<!DOCTYPE svg PUBLIC "-//W3C//DTD SVG 1.1//EN"
 "http://www.w3.org/Graphics/SVG/1.1/DTD/svg11.dtd">
<!-- Generated by graphviz version 2.43.0 (0)
 -->
<!-- Title: cv::kmeans Pages: 1 -->
<svg width="187pt" height="45pt"
 viewBox="0.00 0.00 187.00 45.00" xmlns="http://www.w3.org/2000/svg" xmlns:xlink="http://www.w3.org/1999/xlink">
<g id="graph0" class="graph" transform="scale(1 1) rotate(0) translate(4 41)">
<title>cv::kmeans</title>
<!-- Node1 -->
<g id="Node000001" class="node">
<title>Node1</title>
<g id="a_Node000001"><a xlink:title="Finds centers of clusters and groups input samples around the clusters.">
<polygon fill="#999999" stroke="#666666" points="72,-19 0,-19 0,0 72,0 72,-19"/>
<text text-anchor="middle" x="36" y="-7" font-family="Helvetica,sans-Serif" font-size="10.00">cv::kmeans</text>
</a>
</g>
</g>
<!-- Node1&#45;&gt;Node1 -->
<g id="edge1_Node000001_Node000001" class="edge">
<title>Node1&#45;&gt;Node1</title>
<g id="a_edge1_Node000001_Node000001"><a xlink:title=" ">
<path fill="none" stroke="#63b8ff" d="M19.66,-19.08C11.71,-27.73 17.16,-37 36,-37 47.77,-37 54.32,-33.38 55.63,-28.55"/>
<polygon fill="#63b8ff" stroke="#63b8ff" points="58.93,-27.38 52.34,-19.08 52.31,-29.68 58.93,-27.38"/>
</a>
</g>
</g>
<!-- Node2 -->
<g id="Node000002" class="node">
<title>Node2</title>
<g id="a_Node000002"><a xlink:href="../../dc/d84/group__core__basic.html#gad9287b23bba2fed753b36ef561ae7346" target="_top" xlink:title=" ">
<polygon fill="white" stroke="#666666" points="179,-19 108,-19 108,0 179,0 179,-19"/>
<text text-anchor="middle" x="143.5" y="-7" font-family="Helvetica,sans-Serif" font-size="10.00">cv::noArray</text>
</a>
</g>
</g>
<!-- Node1&#45;&gt;Node2 -->
<g id="edge2_Node000001_Node000002" class="edge">
<title>Node1&#45;&gt;Node2</title>
<g id="a_edge2_Node000001_Node000002"><a xlink:title=" ">
<path fill="none" stroke="#63b8ff" d="M72.13,-9.5C80.31,-9.5 89.13,-9.5 97.67,-9.5"/>
<polygon fill="#63b8ff" stroke="#63b8ff" points="97.88,-13 107.88,-9.5 97.88,-6 97.88,-13"/>
</a>
</g>
</g>
</g>
</svg>
