<?xml version="1.0" encoding="UTF-8" standalone="no"?>
<!DOCTYPE svg PUBLIC "-//W3C//DTD SVG 1.1//EN"
 "http://www.w3.org/Graphics/SVG/1.1/DTD/svg11.dtd">
<!-- Generated by graphviz version 2.43.0 (0)
 -->
<!-- Title: cv::cudev::BGRA_to_HLS4_FULL_func&lt; float &gt; Pages: 1 -->
<svg width="148pt" height="175pt"
 viewBox="0.00 0.00 148.00 175.00" xmlns="http://www.w3.org/2000/svg" xmlns:xlink="http://www.w3.org/1999/xlink">
<g id="graph0" class="graph" transform="scale(1 1) rotate(0) translate(4 171)">
<title>cv::cudev::BGRA_to_HLS4_FULL_func&lt; float &gt;</title>
<!-- Node1 -->
<g id="Node000001" class="node">
<title>Node1</title>
<g id="a_Node000001"><a xlink:title=" ">
<polygon fill="#999999" stroke="transparent" points="140,-60 0,-60 0,0 140,0 140,-60"/>
<text text-anchor="start" x="5" y="-48" font-family="Helvetica,sans-Serif" font-size="10.00">cv::cudev::BGRA_to</text>
<text text-anchor="start" x="5" y="-37" font-family="Helvetica,sans-Serif" font-size="10.00">_HLS4_FULL_func&lt; float &gt;</text>
<text text-anchor="start" x="68" y="-22" font-family="Helvetica,sans-Serif" font-size="10.00"> </text>
<text text-anchor="start" x="68" y="-7" font-family="Helvetica,sans-Serif" font-size="10.00"> </text>
<polygon fill="#666666" stroke="#666666" points="0,-32 0,-32 140,-32 140,-32 0,-32"/>
<polygon fill="#666666" stroke="#666666" points="0,-17 0,-17 140,-17 140,-17 0,-17"/>
<polygon fill="none" stroke="#666666" points="0,0 0,-60 140,-60 140,0 0,0"/>
</a>
</g>
</g>
<!-- Node2 -->
<g id="Node000002" class="node">
<title>Node2</title>
<g id="a_Node000002"><a xlink:href="../../de/d2b/classcv_1_1cudev_1_1color__cvt__detail_1_1RGB2HLS.html" target="_top" xlink:title=" ">
<polygon fill="white" stroke="transparent" points="135.5,-167 4.5,-167 4.5,-96 135.5,-96 135.5,-167"/>
<text text-anchor="start" x="10" y="-154.5" font-family="Helvetica,sans-Serif" font-size="10.00">cv::cudev::color_cvt</text>
<text text-anchor="start" x="10" y="-143.5" font-family="Helvetica,sans-Serif" font-size="10.00">_detail::RGB2HLS&lt; float,</text>
<text text-anchor="start" x="36" y="-132.5" font-family="Helvetica,sans-Serif" font-size="10.00"> 4, 4, 0, 360 &gt;</text>
<text text-anchor="start" x="68.5" y="-117.5" font-family="Helvetica,sans-Serif" font-size="10.00"> </text>
<text text-anchor="start" x="68.5" y="-102.5" font-family="Helvetica,sans-Serif" font-size="10.00"> </text>
<polygon fill="#666666" stroke="#666666" points="5,-127.5 5,-127.5 136,-127.5 136,-127.5 5,-127.5"/>
<polygon fill="#666666" stroke="#666666" points="5,-112.5 5,-112.5 136,-112.5 136,-112.5 5,-112.5"/>
<polygon fill="none" stroke="#666666" points="4.5,-96 4.5,-167 135.5,-167 135.5,-96 4.5,-96"/>
</a>
</g>
</g>
<!-- Node2&#45;&gt;Node1 -->
<g id="edge1_Node000001_Node000002" class="edge">
<title>Node2&#45;&gt;Node1</title>
<g id="a_edge1_Node000001_Node000002"><a xlink:title=" ">
<path fill="none" stroke="#63b8ff" d="M70,-85.9C70,-77.17 70,-68.24 70,-60.17"/>
<polygon fill="none" stroke="#63b8ff" points="66.5,-85.98 70,-95.98 73.5,-85.98 66.5,-85.98"/>
</a>
</g>
</g>
</g>
</svg>
