<?xml version="1.0" encoding="UTF-8" standalone="no"?>
<!DOCTYPE svg PUBLIC "-//W3C//DTD SVG 1.1//EN"
 "http://www.w3.org/Graphics/SVG/1.1/DTD/svg11.dtd">
<!-- Generated by graphviz version 2.43.0 (0)
 -->
<!-- Title: cv::GCall Pages: 1 -->
<svg width="192pt" height="570pt"
 viewBox="0.00 0.00 191.50 570.00" xmlns="http://www.w3.org/2000/svg" xmlns:xlink="http://www.w3.org/1999/xlink">
<g id="graph0" class="graph" transform="scale(1 1) rotate(0) translate(4 566)">
<title>cv::GCall</title>
<!-- Node1 -->
<g id="Node000001" class="node">
<title>Node1</title>
<g id="a_Node000001"><a xlink:title=" ">
<polygon fill="#999999" stroke="transparent" points="108,-274 17,-274 17,0 108,0 108,-274"/>
<text text-anchor="start" x="41.5" y="-262" font-family="Helvetica,sans-Serif" font-size="10.00">cv::GCall</text>
<text text-anchor="start" x="61" y="-247" font-family="Helvetica,sans-Serif" font-size="10.00"> </text>
<text text-anchor="start" x="21.5" y="-232" font-family="Helvetica,sans-Serif" font-size="10.00">+</text>
<text text-anchor="start" x="34.5" y="-232" font-family="Helvetica,sans-Serif" font-size="10.00">GCall()</text>
<text text-anchor="start" x="21.5" y="-217" font-family="Helvetica,sans-Serif" font-size="10.00">+</text>
<text text-anchor="start" x="34.5" y="-217" font-family="Helvetica,sans-Serif" font-size="10.00">~GCall()</text>
<text text-anchor="start" x="21.5" y="-202" font-family="Helvetica,sans-Serif" font-size="10.00">+</text>
<text text-anchor="start" x="34.5" y="-202" font-family="Helvetica,sans-Serif" font-size="10.00">kernel()</text>
<text text-anchor="start" x="21.5" y="-187" font-family="Helvetica,sans-Serif" font-size="10.00">+</text>
<text text-anchor="start" x="34.5" y="-187" font-family="Helvetica,sans-Serif" font-size="10.00">params()</text>
<text text-anchor="start" x="21.5" y="-172" font-family="Helvetica,sans-Serif" font-size="10.00">+</text>
<text text-anchor="start" x="34.5" y="-172" font-family="Helvetica,sans-Serif" font-size="10.00">pass()</text>
<text text-anchor="start" x="21.5" y="-157" font-family="Helvetica,sans-Serif" font-size="10.00">+</text>
<text text-anchor="start" x="34.5" y="-157" font-family="Helvetica,sans-Serif" font-size="10.00">priv()</text>
<text text-anchor="start" x="21.5" y="-142" font-family="Helvetica,sans-Serif" font-size="10.00">+</text>
<text text-anchor="start" x="34.5" y="-142" font-family="Helvetica,sans-Serif" font-size="10.00">priv()</text>
<text text-anchor="start" x="21.5" y="-127" font-family="Helvetica,sans-Serif" font-size="10.00">+</text>
<text text-anchor="start" x="34.5" y="-127" font-family="Helvetica,sans-Serif" font-size="10.00">setArgs()</text>
<text text-anchor="start" x="21.5" y="-112" font-family="Helvetica,sans-Serif" font-size="10.00">+</text>
<text text-anchor="start" x="34.5" y="-112" font-family="Helvetica,sans-Serif" font-size="10.00">yield()</text>
<text text-anchor="start" x="21.5" y="-97" font-family="Helvetica,sans-Serif" font-size="10.00">+</text>
<text text-anchor="start" x="34.5" y="-97" font-family="Helvetica,sans-Serif" font-size="10.00">yieldArray()</text>
<text text-anchor="start" x="21.5" y="-82" font-family="Helvetica,sans-Serif" font-size="10.00">+</text>
<text text-anchor="start" x="34.5" y="-82" font-family="Helvetica,sans-Serif" font-size="10.00">yieldFrame()</text>
<text text-anchor="start" x="21.5" y="-67" font-family="Helvetica,sans-Serif" font-size="10.00">+</text>
<text text-anchor="start" x="34.5" y="-67" font-family="Helvetica,sans-Serif" font-size="10.00">yieldOpaque()</text>
<text text-anchor="start" x="21.5" y="-52" font-family="Helvetica,sans-Serif" font-size="10.00">+</text>
<text text-anchor="start" x="34.5" y="-52" font-family="Helvetica,sans-Serif" font-size="10.00">yieldP()</text>
<text text-anchor="start" x="21.5" y="-37" font-family="Helvetica,sans-Serif" font-size="10.00">+</text>
<text text-anchor="start" x="34.5" y="-37" font-family="Helvetica,sans-Serif" font-size="10.00">yieldScalar()</text>
<text text-anchor="start" x="21.5" y="-22" font-family="Helvetica,sans-Serif" font-size="10.00">#</text>
<text text-anchor="start" x="34.5" y="-22" font-family="Helvetica,sans-Serif" font-size="10.00">yieldArray()</text>
<text text-anchor="start" x="21.5" y="-7" font-family="Helvetica,sans-Serif" font-size="10.00">#</text>
<text text-anchor="start" x="34.5" y="-7" font-family="Helvetica,sans-Serif" font-size="10.00">yieldOpaque()</text>
<polygon fill="#666666" stroke="#666666" points="17.5,-257 17.5,-257 108.5,-257 108.5,-257 17.5,-257"/>
<polygon fill="#666666" stroke="#666666" points="17.5,-242 17.5,-242 108.5,-242 108.5,-242 17.5,-242"/>
<polygon fill="none" stroke="#666666" points="17,0 17,-274 108,-274 108,0 17,0"/>
</a>
</g>
</g>
<!-- Node2 -->
<g id="Node000002" class="node">
<title>Node2</title>
<g id="a_Node000002"><a xlink:title=" ">
<polygon fill="white" stroke="transparent" points="125,-370 0,-370 0,-321 125,-321 125,-370"/>
<text text-anchor="start" x="5.5" y="-357.5" font-family="Helvetica,sans-Serif" font-size="10.00">std::shared_ptr&lt; Priv &gt;</text>
<text text-anchor="start" x="61" y="-342.5" font-family="Helvetica,sans-Serif" font-size="10.00"> </text>
<text text-anchor="start" x="15" y="-327.5" font-family="Helvetica,sans-Serif" font-size="10.00">+</text>
<text text-anchor="start" x="38.5" y="-327.5" font-family="Helvetica,sans-Serif" font-size="10.00">operator&#45;&gt;()</text>
<polygon fill="#666666" stroke="#666666" points="0.5,-352.5 0.5,-352.5 125.5,-352.5 125.5,-352.5 0.5,-352.5"/>
<polygon fill="#666666" stroke="#666666" points="0.5,-337.5 0.5,-337.5 125.5,-337.5 125.5,-337.5 0.5,-337.5"/>
<polygon fill="none" stroke="#666666" points="0,-321 0,-370 125,-370 125,-321 0,-321"/>
</a>
</g>
</g>
<!-- Node2&#45;&gt;Node1 -->
<g id="edge1_Node000001_Node000002" class="edge">
<title>Node2&#45;&gt;Node1</title>
<g id="a_edge1_Node000001_Node000002"><a xlink:title=" ">
<path fill="none" stroke="#63b8ff" d="M62.5,-320.81C62.5,-311.32 62.5,-299.56 62.5,-286.6"/>
<polygon fill="none" stroke="#63b8ff" points="62.5,-286.4 58.5,-280.4 62.5,-274.4 66.5,-280.4 62.5,-286.4"/>
</a>
</g>
<text text-anchor="middle" x="85.5" y="-295" font-family="Helvetica,sans-Serif" font-size="10.00" fill="grey"> #m_priv</text>
</g>
<!-- Node3 -->
<g id="Node000003" class="node">
<title>Node3</title>
<g id="a_Node000003"><a xlink:title=" ">
<polygon fill="white" stroke="transparent" points="53,-466 24,-466 24,-417 53,-417 53,-466"/>
<text text-anchor="start" x="29.5" y="-453.5" font-family="Helvetica,sans-Serif" font-size="10.00">Priv</text>
<text text-anchor="start" x="37" y="-438.5" font-family="Helvetica,sans-Serif" font-size="10.00"> </text>
<text text-anchor="start" x="37" y="-423.5" font-family="Helvetica,sans-Serif" font-size="10.00"> </text>
<polygon fill="#666666" stroke="#666666" points="24.5,-448.5 24.5,-448.5 53.5,-448.5 53.5,-448.5 24.5,-448.5"/>
<polygon fill="#666666" stroke="#666666" points="24.5,-433.5 24.5,-433.5 53.5,-433.5 53.5,-433.5 24.5,-433.5"/>
<polygon fill="none" stroke="#666666" points="24,-417 24,-466 53,-466 53,-417 24,-417"/>
</a>
</g>
</g>
<!-- Node3&#45;&gt;Node2 -->
<g id="edge2_Node000002_Node000003" class="edge">
<title>Node3&#45;&gt;Node2</title>
<g id="a_edge2_Node000002_Node000003"><a xlink:title=" ">
<path fill="none" stroke="#63b8ff" d="M44.56,-416.78C47.26,-406.2 50.49,-393.52 53.47,-381.86"/>
<polygon fill="none" stroke="#63b8ff" points="53.48,-381.84 51.09,-375.04 56.45,-370.21 58.84,-377.02 53.48,-381.84"/>
</a>
</g>
<text text-anchor="middle" x="64" y="-391" font-family="Helvetica,sans-Serif" font-size="10.00" fill="grey"> +ptr</text>
</g>
<!-- Node4 -->
<g id="Node000004" class="node">
<title>Node4</title>
<g id="a_Node000004"><a xlink:title=" ">
<polygon fill="white" stroke="transparent" points="183.5,-466 71.5,-466 71.5,-417 183.5,-417 183.5,-466"/>
<text text-anchor="start" x="76.5" y="-453.5" font-family="Helvetica,sans-Serif" font-size="10.00">std::shared_ptr&lt; T &gt;</text>
<text text-anchor="start" x="125.5" y="-438.5" font-family="Helvetica,sans-Serif" font-size="10.00"> </text>
<text text-anchor="start" x="83" y="-423.5" font-family="Helvetica,sans-Serif" font-size="10.00">+</text>
<text text-anchor="start" x="103.5" y="-423.5" font-family="Helvetica,sans-Serif" font-size="10.00">operator&#45;&gt;()</text>
<polygon fill="#666666" stroke="#666666" points="71.5,-448.5 71.5,-448.5 183.5,-448.5 183.5,-448.5 71.5,-448.5"/>
<polygon fill="#666666" stroke="#666666" points="71.5,-433.5 71.5,-433.5 183.5,-433.5 183.5,-433.5 71.5,-433.5"/>
<polygon fill="none" stroke="#666666" points="71.5,-417 71.5,-466 183.5,-466 183.5,-417 71.5,-417"/>
</a>
</g>
</g>
<!-- Node4&#45;&gt;Node2 -->
<g id="edge3_Node000002_Node000004" class="edge">
<title>Node4&#45;&gt;Node2</title>
<g id="a_edge3_Node000002_Node000004"><a xlink:title=" ">
<path fill="none" stroke="orange" d="M105.31,-408.41C96.65,-395.89 86.9,-381.79 78.9,-370.21"/>
<polygon fill="orange" stroke="orange" points="102.53,-410.55 111.1,-416.78 108.29,-406.56 102.53,-410.55"/>
</a>
</g>
<text text-anchor="middle" x="119" y="-391" font-family="Helvetica,sans-Serif" font-size="10.00" fill="grey"> &lt; Priv &gt;</text>
</g>
<!-- Node5 -->
<g id="Node000005" class="node">
<title>Node5</title>
<g id="a_Node000005"><a xlink:title=" ">
<polygon fill="white" stroke="transparent" points="136,-562 119,-562 119,-513 136,-513 136,-562"/>
<text text-anchor="start" x="124.5" y="-549.5" font-family="Helvetica,sans-Serif" font-size="10.00">T</text>
<text text-anchor="start" x="126" y="-534.5" font-family="Helvetica,sans-Serif" font-size="10.00"> </text>
<text text-anchor="start" x="126" y="-519.5" font-family="Helvetica,sans-Serif" font-size="10.00"> </text>
<polygon fill="#666666" stroke="#666666" points="119.5,-544.5 119.5,-544.5 136.5,-544.5 136.5,-544.5 119.5,-544.5"/>
<polygon fill="#666666" stroke="#666666" points="119.5,-529.5 119.5,-529.5 136.5,-529.5 136.5,-529.5 119.5,-529.5"/>
<polygon fill="none" stroke="#666666" points="119,-513 119,-562 136,-562 136,-513 119,-513"/>
</a>
</g>
</g>
<!-- Node5&#45;&gt;Node4 -->
<g id="edge4_Node000004_Node000005" class="edge">
<title>Node5&#45;&gt;Node4</title>
<g id="a_edge4_Node000004_Node000005"><a xlink:title=" ">
<path fill="none" stroke="#63b8ff" d="M127.5,-512.78C127.5,-502.32 127.5,-489.79 127.5,-478.23"/>
<polygon fill="none" stroke="#63b8ff" points="127.5,-478.21 123.5,-472.21 127.5,-466.21 131.5,-472.21 127.5,-478.21"/>
</a>
</g>
<text text-anchor="middle" x="140" y="-487" font-family="Helvetica,sans-Serif" font-size="10.00" fill="grey"> +ptr</text>
</g>
</g>
</svg>
