<?xml version="1.0" encoding="UTF-8" standalone="no"?>
<!DOCTYPE svg PUBLIC "-//W3C//DTD SVG 1.1//EN"
 "http://www.w3.org/Graphics/SVG/1.1/DTD/svg11.dtd">
<!-- Generated by graphviz version 2.43.0 (0)
 -->
<!-- Title: cv::optflow::GPCPatchSample Pages: 1 -->
<svg width="384pt" height="1988pt"
 viewBox="0.00 0.00 384.00 1988.00" xmlns="http://www.w3.org/2000/svg" xmlns:xlink="http://www.w3.org/1999/xlink">
<g id="graph0" class="graph" transform="scale(1 1) rotate(0) translate(4 1984)">
<title>cv::optflow::GPCPatchSample</title>
<!-- Node1 -->
<g id="Node000001" class="node">
<title>Node1</title>
<g id="a_Node000001"><a xlink:title=" ">
<polygon fill="#999999" stroke="transparent" points="158.5,-49 6.5,-49 6.5,0 158.5,0 158.5,-49"/>
<text text-anchor="start" x="11.5" y="-36.5" font-family="Helvetica,sans-Serif" font-size="10.00">cv::optflow::GPCPatchSample</text>
<text text-anchor="start" x="80.5" y="-21.5" font-family="Helvetica,sans-Serif" font-size="10.00"> </text>
<text text-anchor="start" x="25" y="-6.5" font-family="Helvetica,sans-Serif" font-size="10.00">+</text>
<text text-anchor="start" x="52.5" y="-6.5" font-family="Helvetica,sans-Serif" font-size="10.00">getDirections()</text>
<polygon fill="#666666" stroke="#666666" points="6.5,-31.5 6.5,-31.5 158.5,-31.5 158.5,-31.5 6.5,-31.5"/>
<polygon fill="#666666" stroke="#666666" points="6.5,-16.5 6.5,-16.5 158.5,-16.5 158.5,-16.5 6.5,-16.5"/>
<polygon fill="none" stroke="#666666" points="6.5,0 6.5,-49 158.5,-49 158.5,0 6.5,0"/>
</a>
</g>
</g>
<!-- Node2 -->
<g id="Node000002" class="node">
<title>Node2</title>
<g id="a_Node000002"><a xlink:href="../../d1/dfd/structcv_1_1optflow_1_1GPCPatchDescriptor.html" target="_top" xlink:title=" ">
<polygon fill="white" stroke="transparent" points="165,-197 0,-197 0,-118 165,-118 165,-197"/>
<text text-anchor="start" x="5.5" y="-184.5" font-family="Helvetica,sans-Serif" font-size="10.00">cv::optflow::GPCPatchDescriptor</text>
<text text-anchor="start" x="81" y="-169.5" font-family="Helvetica,sans-Serif" font-size="10.00"> </text>
<text text-anchor="start" x="16.5" y="-154.5" font-family="Helvetica,sans-Serif" font-size="10.00">+</text>
<text text-anchor="start" x="41.5" y="-154.5" font-family="Helvetica,sans-Serif" font-size="10.00">dot()</text>
<text text-anchor="start" x="16.5" y="-139.5" font-family="Helvetica,sans-Serif" font-size="10.00">+</text>
<text text-anchor="start" x="41.5" y="-139.5" font-family="Helvetica,sans-Serif" font-size="10.00">isSeparated()</text>
<text text-anchor="start" x="16.5" y="-124.5" font-family="Helvetica,sans-Serif" font-size="10.00">+</text>
<text text-anchor="start" x="41.5" y="-124.5" font-family="Helvetica,sans-Serif" font-size="10.00">markAsSeparated()</text>
<polygon fill="#666666" stroke="#666666" points="0.5,-179.5 0.5,-179.5 165.5,-179.5 165.5,-179.5 0.5,-179.5"/>
<polygon fill="#666666" stroke="#666666" points="0.5,-164.5 0.5,-164.5 165.5,-164.5 165.5,-164.5 0.5,-164.5"/>
<polygon fill="none" stroke="#666666" points="0,-118 0,-197 165,-197 165,-118 0,-118"/>
</a>
</g>
</g>
<!-- Node2&#45;&gt;Node1 -->
<g id="edge1_Node000001_Node000002" class="edge">
<title>Node2&#45;&gt;Node1</title>
<g id="a_edge1_Node000001_Node000002"><a xlink:title=" ">
<path fill="none" stroke="#63b8ff" d="M82.5,-117.9C82.5,-99.93 82.5,-78.68 82.5,-61.09"/>
<polygon fill="none" stroke="#63b8ff" points="82.5,-61.03 78.5,-55.03 82.5,-49.03 86.5,-55.03 82.5,-61.03"/>
</a>
</g>
<text text-anchor="middle" x="97.5" y="-92" font-family="Helvetica,sans-Serif" font-size="10.00" fill="grey"> +neg</text>
<text text-anchor="middle" x="97.5" y="-81" font-family="Helvetica,sans-Serif" font-size="10.00" fill="grey">+pos</text>
<text text-anchor="middle" x="97.5" y="-70" font-family="Helvetica,sans-Serif" font-size="10.00" fill="grey">+ref</text>
</g>
<!-- Node3 -->
<g id="Node000003" class="node">
<title>Node3</title>
<g id="a_Node000003"><a xlink:title=" ">
<polygon fill="white" stroke="transparent" points="69,-420.5 14,-420.5 14,-371.5 69,-371.5 69,-420.5"/>
<text text-anchor="start" x="19.5" y="-408" font-family="Helvetica,sans-Serif" font-size="10.00">unsigned</text>
<text text-anchor="start" x="40" y="-393" font-family="Helvetica,sans-Serif" font-size="10.00"> </text>
<text text-anchor="start" x="40" y="-378" font-family="Helvetica,sans-Serif" font-size="10.00"> </text>
<polygon fill="#666666" stroke="#666666" points="14.5,-403 14.5,-403 69.5,-403 69.5,-403 14.5,-403"/>
<polygon fill="#666666" stroke="#666666" points="14.5,-388 14.5,-388 69.5,-388 69.5,-388 14.5,-388"/>
<polygon fill="none" stroke="#666666" points="14,-371.5 14,-420.5 69,-420.5 69,-371.5 14,-371.5"/>
</a>
</g>
</g>
<!-- Node3&#45;&gt;Node2 -->
<g id="edge2_Node000002_Node000003" class="edge">
<title>Node3&#45;&gt;Node2</title>
<g id="a_edge2_Node000002_Node000003"><a xlink:title=" ">
<path fill="none" stroke="#63b8ff" d="M42.57,-371.41C44.51,-336.74 49.69,-270.16 62.5,-215 62.99,-212.89 63.53,-210.74 64.12,-208.59"/>
<polygon fill="none" stroke="#63b8ff" points="64.13,-208.56 62.01,-201.67 67.56,-197.06 69.68,-203.96 64.13,-208.56"/>
</a>
</g>
<text text-anchor="middle" x="92.5" y="-218" font-family="Helvetica,sans-Serif" font-size="10.00" fill="grey"> +nFeatures</text>
</g>
<!-- Node4 -->
<g id="Node000004" class="node">
<title>Node4</title>
<g id="a_Node000004"><a xlink:href="../../d6/dcf/classcv_1_1Vec.html" target="_top" xlink:title=" ">
<polygon fill="white" stroke="transparent" points="241.5,-548 87.5,-548 87.5,-244 241.5,-244 241.5,-548"/>
<text text-anchor="start" x="92.5" y="-536" font-family="Helvetica,sans-Serif" font-size="10.00">cv::Vec&lt; double, nFeatures &gt;</text>
<text text-anchor="start" x="162.5" y="-521" font-family="Helvetica,sans-Serif" font-size="10.00"> </text>
<text text-anchor="start" x="107" y="-506" font-family="Helvetica,sans-Serif" font-size="10.00">+</text>
<text text-anchor="start" x="135.5" y="-506" font-family="Helvetica,sans-Serif" font-size="10.00">Vec()</text>
<text text-anchor="start" x="107" y="-491" font-family="Helvetica,sans-Serif" font-size="10.00">+</text>
<text text-anchor="start" x="135.5" y="-491" font-family="Helvetica,sans-Serif" font-size="10.00">Vec()</text>
<text text-anchor="start" x="107" y="-476" font-family="Helvetica,sans-Serif" font-size="10.00">+</text>
<text text-anchor="start" x="135.5" y="-476" font-family="Helvetica,sans-Serif" font-size="10.00">Vec()</text>
<text text-anchor="start" x="107" y="-461" font-family="Helvetica,sans-Serif" font-size="10.00">+</text>
<text text-anchor="start" x="135.5" y="-461" font-family="Helvetica,sans-Serif" font-size="10.00">Vec()</text>
<text text-anchor="start" x="107" y="-446" font-family="Helvetica,sans-Serif" font-size="10.00">+</text>
<text text-anchor="start" x="135.5" y="-446" font-family="Helvetica,sans-Serif" font-size="10.00">Vec()</text>
<text text-anchor="start" x="107" y="-431" font-family="Helvetica,sans-Serif" font-size="10.00">+</text>
<text text-anchor="start" x="135.5" y="-431" font-family="Helvetica,sans-Serif" font-size="10.00">Vec()</text>
<text text-anchor="start" x="107" y="-416" font-family="Helvetica,sans-Serif" font-size="10.00">+</text>
<text text-anchor="start" x="135.5" y="-416" font-family="Helvetica,sans-Serif" font-size="10.00">Vec()</text>
<text text-anchor="start" x="107" y="-401" font-family="Helvetica,sans-Serif" font-size="10.00">+</text>
<text text-anchor="start" x="135.5" y="-401" font-family="Helvetica,sans-Serif" font-size="10.00">Vec()</text>
<text text-anchor="start" x="107" y="-386" font-family="Helvetica,sans-Serif" font-size="10.00">+</text>
<text text-anchor="start" x="135.5" y="-386" font-family="Helvetica,sans-Serif" font-size="10.00">Vec()</text>
<text text-anchor="start" x="107" y="-371" font-family="Helvetica,sans-Serif" font-size="10.00">+</text>
<text text-anchor="start" x="135.5" y="-371" font-family="Helvetica,sans-Serif" font-size="10.00">Vec()</text>
<text text-anchor="start" x="135.5" y="-356" font-family="Helvetica,sans-Serif" font-size="10.00">and 17 more...</text>
<text text-anchor="start" x="107" y="-341" font-family="Helvetica,sans-Serif" font-size="10.00">+</text>
<text text-anchor="start" x="135.5" y="-341" font-family="Helvetica,sans-Serif" font-size="10.00">all()</text>
<text text-anchor="start" x="107" y="-326" font-family="Helvetica,sans-Serif" font-size="10.00">+</text>
<text text-anchor="start" x="135.5" y="-326" font-family="Helvetica,sans-Serif" font-size="10.00">diag()</text>
<text text-anchor="start" x="107" y="-311" font-family="Helvetica,sans-Serif" font-size="10.00">+</text>
<text text-anchor="start" x="135.5" y="-311" font-family="Helvetica,sans-Serif" font-size="10.00">eye()</text>
<text text-anchor="start" x="107" y="-296" font-family="Helvetica,sans-Serif" font-size="10.00">+</text>
<text text-anchor="start" x="135.5" y="-296" font-family="Helvetica,sans-Serif" font-size="10.00">ones()</text>
<text text-anchor="start" x="107" y="-281" font-family="Helvetica,sans-Serif" font-size="10.00">+</text>
<text text-anchor="start" x="135.5" y="-281" font-family="Helvetica,sans-Serif" font-size="10.00">randn()</text>
<text text-anchor="start" x="107" y="-266" font-family="Helvetica,sans-Serif" font-size="10.00">+</text>
<text text-anchor="start" x="135.5" y="-266" font-family="Helvetica,sans-Serif" font-size="10.00">randu()</text>
<text text-anchor="start" x="107" y="-251" font-family="Helvetica,sans-Serif" font-size="10.00">+</text>
<text text-anchor="start" x="135.5" y="-251" font-family="Helvetica,sans-Serif" font-size="10.00">zeros()</text>
<polygon fill="#666666" stroke="#666666" points="87.5,-531 87.5,-531 241.5,-531 241.5,-531 87.5,-531"/>
<polygon fill="#666666" stroke="#666666" points="87.5,-516 87.5,-516 241.5,-516 241.5,-516 87.5,-516"/>
<polygon fill="none" stroke="#666666" points="87.5,-244 87.5,-548 241.5,-548 241.5,-244 87.5,-244"/>
</a>
</g>
</g>
<!-- Node4&#45;&gt;Node2 -->
<g id="edge3_Node000002_Node000004" class="edge">
<title>Node4&#45;&gt;Node2</title>
<g id="a_edge3_Node000002_Node000004"><a xlink:title=" ">
<path fill="none" stroke="#63b8ff" d="M133.82,-243.77C130.41,-233.89 126.65,-224.22 122.5,-215 121.4,-212.55 120.18,-210.1 118.89,-207.66"/>
<polygon fill="none" stroke="#63b8ff" points="118.8,-207.51 112.31,-204.35 112.74,-197.15 119.22,-200.31 118.8,-207.51"/>
</a>
</g>
<text text-anchor="middle" x="150" y="-218" font-family="Helvetica,sans-Serif" font-size="10.00" fill="grey"> +feature</text>
</g>
<!-- Node5 -->
<g id="Node000005" class="node">
<title>Node5</title>
<g id="a_Node000005"><a xlink:href="../../de/de1/classcv_1_1Matx.html" target="_top" xlink:title="Template class for small matrices whose type and size are known at compilation time.">
<polygon fill="white" stroke="transparent" points="196,-1562 77,-1562 77,-1258 196,-1258 196,-1562"/>
<text text-anchor="start" x="82.5" y="-1550" font-family="Helvetica,sans-Serif" font-size="10.00">cv::Matx&lt; _Tp, m, n &gt;</text>
<text text-anchor="start" x="135" y="-1535" font-family="Helvetica,sans-Serif" font-size="10.00"> </text>
<text text-anchor="start" x="88" y="-1520" font-family="Helvetica,sans-Serif" font-size="10.00">+</text>
<text text-anchor="start" x="107.5" y="-1520" font-family="Helvetica,sans-Serif" font-size="10.00">Matx()</text>
<text text-anchor="start" x="88" y="-1505" font-family="Helvetica,sans-Serif" font-size="10.00">+</text>
<text text-anchor="start" x="107.5" y="-1505" font-family="Helvetica,sans-Serif" font-size="10.00">Matx()</text>
<text text-anchor="start" x="88" y="-1490" font-family="Helvetica,sans-Serif" font-size="10.00">+</text>
<text text-anchor="start" x="107.5" y="-1490" font-family="Helvetica,sans-Serif" font-size="10.00">Matx()</text>
<text text-anchor="start" x="88" y="-1475" font-family="Helvetica,sans-Serif" font-size="10.00">+</text>
<text text-anchor="start" x="107.5" y="-1475" font-family="Helvetica,sans-Serif" font-size="10.00">Matx()</text>
<text text-anchor="start" x="88" y="-1460" font-family="Helvetica,sans-Serif" font-size="10.00">+</text>
<text text-anchor="start" x="107.5" y="-1460" font-family="Helvetica,sans-Serif" font-size="10.00">Matx()</text>
<text text-anchor="start" x="88" y="-1445" font-family="Helvetica,sans-Serif" font-size="10.00">+</text>
<text text-anchor="start" x="107.5" y="-1445" font-family="Helvetica,sans-Serif" font-size="10.00">Matx()</text>
<text text-anchor="start" x="88" y="-1430" font-family="Helvetica,sans-Serif" font-size="10.00">+</text>
<text text-anchor="start" x="107.5" y="-1430" font-family="Helvetica,sans-Serif" font-size="10.00">Matx()</text>
<text text-anchor="start" x="88" y="-1415" font-family="Helvetica,sans-Serif" font-size="10.00">+</text>
<text text-anchor="start" x="107.5" y="-1415" font-family="Helvetica,sans-Serif" font-size="10.00">Matx()</text>
<text text-anchor="start" x="88" y="-1400" font-family="Helvetica,sans-Serif" font-size="10.00">+</text>
<text text-anchor="start" x="107.5" y="-1400" font-family="Helvetica,sans-Serif" font-size="10.00">Matx()</text>
<text text-anchor="start" x="88" y="-1385" font-family="Helvetica,sans-Serif" font-size="10.00">+</text>
<text text-anchor="start" x="107.5" y="-1385" font-family="Helvetica,sans-Serif" font-size="10.00">Matx()</text>
<text text-anchor="start" x="107.5" y="-1370" font-family="Helvetica,sans-Serif" font-size="10.00">and 31 more...</text>
<text text-anchor="start" x="88" y="-1355" font-family="Helvetica,sans-Serif" font-size="10.00">+</text>
<text text-anchor="start" x="107.5" y="-1355" font-family="Helvetica,sans-Serif" font-size="10.00">all()</text>
<text text-anchor="start" x="88" y="-1340" font-family="Helvetica,sans-Serif" font-size="10.00">+</text>
<text text-anchor="start" x="107.5" y="-1340" font-family="Helvetica,sans-Serif" font-size="10.00">diag()</text>
<text text-anchor="start" x="88" y="-1325" font-family="Helvetica,sans-Serif" font-size="10.00">+</text>
<text text-anchor="start" x="107.5" y="-1325" font-family="Helvetica,sans-Serif" font-size="10.00">eye()</text>
<text text-anchor="start" x="88" y="-1310" font-family="Helvetica,sans-Serif" font-size="10.00">+</text>
<text text-anchor="start" x="107.5" y="-1310" font-family="Helvetica,sans-Serif" font-size="10.00">ones()</text>
<text text-anchor="start" x="88" y="-1295" font-family="Helvetica,sans-Serif" font-size="10.00">+</text>
<text text-anchor="start" x="107.5" y="-1295" font-family="Helvetica,sans-Serif" font-size="10.00">randn()</text>
<text text-anchor="start" x="88" y="-1280" font-family="Helvetica,sans-Serif" font-size="10.00">+</text>
<text text-anchor="start" x="107.5" y="-1280" font-family="Helvetica,sans-Serif" font-size="10.00">randu()</text>
<text text-anchor="start" x="88" y="-1265" font-family="Helvetica,sans-Serif" font-size="10.00">+</text>
<text text-anchor="start" x="107.5" y="-1265" font-family="Helvetica,sans-Serif" font-size="10.00">zeros()</text>
<polygon fill="#666666" stroke="#666666" points="77.5,-1545 77.5,-1545 196.5,-1545 196.5,-1545 77.5,-1545"/>
<polygon fill="#666666" stroke="#666666" points="77.5,-1530 77.5,-1530 196.5,-1530 196.5,-1530 77.5,-1530"/>
<polygon fill="none" stroke="#666666" points="77,-1258 77,-1562 196,-1562 196,-1258 77,-1258"/>
</a>
</g>
</g>
<!-- Node5&#45;&gt;Node4 -->
<g id="edge4_Node000004_Node000005" class="edge">
<title>Node5&#45;&gt;Node4</title>
<g id="a_edge4_Node000004_Node000005"><a xlink:title=" ">
<path fill="none" stroke="#63b8ff" d="M140.97,-1247.56C146.29,-1055.18 155.11,-736.23 160.31,-548.39"/>
<polygon fill="none" stroke="#63b8ff" points="137.46,-1247.67 140.68,-1257.77 144.46,-1247.87 137.46,-1247.67"/>
</a>
</g>
</g>
<!-- Node6 -->
<g id="Node000006" class="node">
<title>Node6</title>
<g id="a_Node000006"><a xlink:href="../../d1/dd7/class__Tp.html" target="_top" xlink:title=" ">
<polygon fill="white" stroke="transparent" points="225.5,-1980 197.5,-1980 197.5,-1931 225.5,-1931 225.5,-1980"/>
<text text-anchor="start" x="202.5" y="-1967.5" font-family="Helvetica,sans-Serif" font-size="10.00">_Tp</text>
<text text-anchor="start" x="209.5" y="-1952.5" font-family="Helvetica,sans-Serif" font-size="10.00"> </text>
<text text-anchor="start" x="209.5" y="-1937.5" font-family="Helvetica,sans-Serif" font-size="10.00"> </text>
<polygon fill="#666666" stroke="#666666" points="197.5,-1962.5 197.5,-1962.5 225.5,-1962.5 225.5,-1962.5 197.5,-1962.5"/>
<polygon fill="#666666" stroke="#666666" points="197.5,-1947.5 197.5,-1947.5 225.5,-1947.5 225.5,-1947.5 197.5,-1947.5"/>
<polygon fill="none" stroke="#666666" points="197.5,-1931 197.5,-1980 225.5,-1980 225.5,-1931 197.5,-1931"/>
</a>
</g>
</g>
<!-- Node6&#45;&gt;Node5 -->
<g id="edge5_Node000005_Node000006" class="edge">
<title>Node6&#45;&gt;Node5</title>
<g id="a_edge5_Node000005_Node000006"><a xlink:title=" ">
<path fill="none" stroke="#63b8ff" d="M197.46,-1944.62C188.04,-1937.13 176.33,-1925.93 170.5,-1913 122.81,-1807.2 115.46,-1676.02 119.43,-1574.29"/>
<polygon fill="none" stroke="#63b8ff" points="119.44,-1574.03 115.71,-1567.86 119.96,-1562.04 123.7,-1568.21 119.44,-1574.03"/>
</a>
</g>
<text text-anchor="middle" x="184" y="-1905" font-family="Helvetica,sans-Serif" font-size="10.00" fill="grey"> +val</text>
</g>
<!-- Node8 -->
<g id="Node000008" class="node">
<title>Node8</title>
<g id="a_Node000008"><a xlink:href="../../de/de1/classcv_1_1Matx.html" target="_top" xlink:title=" ">
<polygon fill="white" stroke="transparent" points="286,-1240 165,-1240 165,-936 286,-936 286,-1240"/>
<text text-anchor="start" x="170.5" y="-1228" font-family="Helvetica,sans-Serif" font-size="10.00">cv::Matx&lt; _Tp, cn, 1 &gt;</text>
<text text-anchor="start" x="224" y="-1213" font-family="Helvetica,sans-Serif" font-size="10.00"> </text>
<text text-anchor="start" x="176.5" y="-1198" font-family="Helvetica,sans-Serif" font-size="10.00">+</text>
<text text-anchor="start" x="196.5" y="-1198" font-family="Helvetica,sans-Serif" font-size="10.00">Matx()</text>
<text text-anchor="start" x="176.5" y="-1183" font-family="Helvetica,sans-Serif" font-size="10.00">+</text>
<text text-anchor="start" x="196.5" y="-1183" font-family="Helvetica,sans-Serif" font-size="10.00">Matx()</text>
<text text-anchor="start" x="176.5" y="-1168" font-family="Helvetica,sans-Serif" font-size="10.00">+</text>
<text text-anchor="start" x="196.5" y="-1168" font-family="Helvetica,sans-Serif" font-size="10.00">Matx()</text>
<text text-anchor="start" x="176.5" y="-1153" font-family="Helvetica,sans-Serif" font-size="10.00">+</text>
<text text-anchor="start" x="196.5" y="-1153" font-family="Helvetica,sans-Serif" font-size="10.00">Matx()</text>
<text text-anchor="start" x="176.5" y="-1138" font-family="Helvetica,sans-Serif" font-size="10.00">+</text>
<text text-anchor="start" x="196.5" y="-1138" font-family="Helvetica,sans-Serif" font-size="10.00">Matx()</text>
<text text-anchor="start" x="176.5" y="-1123" font-family="Helvetica,sans-Serif" font-size="10.00">+</text>
<text text-anchor="start" x="196.5" y="-1123" font-family="Helvetica,sans-Serif" font-size="10.00">Matx()</text>
<text text-anchor="start" x="176.5" y="-1108" font-family="Helvetica,sans-Serif" font-size="10.00">+</text>
<text text-anchor="start" x="196.5" y="-1108" font-family="Helvetica,sans-Serif" font-size="10.00">Matx()</text>
<text text-anchor="start" x="176.5" y="-1093" font-family="Helvetica,sans-Serif" font-size="10.00">+</text>
<text text-anchor="start" x="196.5" y="-1093" font-family="Helvetica,sans-Serif" font-size="10.00">Matx()</text>
<text text-anchor="start" x="176.5" y="-1078" font-family="Helvetica,sans-Serif" font-size="10.00">+</text>
<text text-anchor="start" x="196.5" y="-1078" font-family="Helvetica,sans-Serif" font-size="10.00">Matx()</text>
<text text-anchor="start" x="176.5" y="-1063" font-family="Helvetica,sans-Serif" font-size="10.00">+</text>
<text text-anchor="start" x="196.5" y="-1063" font-family="Helvetica,sans-Serif" font-size="10.00">Matx()</text>
<text text-anchor="start" x="196.5" y="-1048" font-family="Helvetica,sans-Serif" font-size="10.00">and 31 more...</text>
<text text-anchor="start" x="176.5" y="-1033" font-family="Helvetica,sans-Serif" font-size="10.00">+</text>
<text text-anchor="start" x="196.5" y="-1033" font-family="Helvetica,sans-Serif" font-size="10.00">all()</text>
<text text-anchor="start" x="176.5" y="-1018" font-family="Helvetica,sans-Serif" font-size="10.00">+</text>
<text text-anchor="start" x="196.5" y="-1018" font-family="Helvetica,sans-Serif" font-size="10.00">diag()</text>
<text text-anchor="start" x="176.5" y="-1003" font-family="Helvetica,sans-Serif" font-size="10.00">+</text>
<text text-anchor="start" x="196.5" y="-1003" font-family="Helvetica,sans-Serif" font-size="10.00">eye()</text>
<text text-anchor="start" x="176.5" y="-988" font-family="Helvetica,sans-Serif" font-size="10.00">+</text>
<text text-anchor="start" x="196.5" y="-988" font-family="Helvetica,sans-Serif" font-size="10.00">ones()</text>
<text text-anchor="start" x="176.5" y="-973" font-family="Helvetica,sans-Serif" font-size="10.00">+</text>
<text text-anchor="start" x="196.5" y="-973" font-family="Helvetica,sans-Serif" font-size="10.00">randn()</text>
<text text-anchor="start" x="176.5" y="-958" font-family="Helvetica,sans-Serif" font-size="10.00">+</text>
<text text-anchor="start" x="196.5" y="-958" font-family="Helvetica,sans-Serif" font-size="10.00">randu()</text>
<text text-anchor="start" x="176.5" y="-943" font-family="Helvetica,sans-Serif" font-size="10.00">+</text>
<text text-anchor="start" x="196.5" y="-943" font-family="Helvetica,sans-Serif" font-size="10.00">zeros()</text>
<polygon fill="#666666" stroke="#666666" points="165.5,-1223 165.5,-1223 286.5,-1223 286.5,-1223 165.5,-1223"/>
<polygon fill="#666666" stroke="#666666" points="165.5,-1208 165.5,-1208 286.5,-1208 286.5,-1208 165.5,-1208"/>
<polygon fill="none" stroke="#666666" points="165,-936 165,-1240 286,-1240 286,-936 165,-936"/>
</a>
</g>
</g>
<!-- Node6&#45;&gt;Node8 -->
<g id="edge8_Node000008_Node000006" class="edge">
<title>Node6&#45;&gt;Node8</title>
<g id="a_edge8_Node000008_Node000006"><a xlink:title=" ">
<path fill="none" stroke="#63b8ff" d="M211.88,-1930.9C213.43,-1834.98 219.35,-1469.13 222.85,-1252.54"/>
<polygon fill="none" stroke="#63b8ff" points="222.86,-1252.41 218.95,-1246.35 223.05,-1240.42 226.95,-1246.48 222.86,-1252.41"/>
</a>
</g>
<text text-anchor="middle" x="231" y="-1729.5" font-family="Helvetica,sans-Serif" font-size="10.00" fill="grey"> +val</text>
</g>
<!-- Node9 -->
<g id="Node000009" class="node">
<title>Node9</title>
<g id="a_Node000009"><a xlink:href="../../de/de1/classcv_1_1Matx.html" target="_top" xlink:title="Template class for small matrices whose type and size are known at compilation time.">
<polygon fill="white" stroke="transparent" points="376,-1884 257,-1884 257,-1580 376,-1580 376,-1884"/>
<text text-anchor="start" x="262.5" y="-1872" font-family="Helvetica,sans-Serif" font-size="10.00">cv::Matx&lt; _Tp, m, n &gt;</text>
<text text-anchor="start" x="315" y="-1857" font-family="Helvetica,sans-Serif" font-size="10.00"> </text>
<text text-anchor="start" x="268" y="-1842" font-family="Helvetica,sans-Serif" font-size="10.00">+</text>
<text text-anchor="start" x="287.5" y="-1842" font-family="Helvetica,sans-Serif" font-size="10.00">Matx()</text>
<text text-anchor="start" x="268" y="-1827" font-family="Helvetica,sans-Serif" font-size="10.00">+</text>
<text text-anchor="start" x="287.5" y="-1827" font-family="Helvetica,sans-Serif" font-size="10.00">Matx()</text>
<text text-anchor="start" x="268" y="-1812" font-family="Helvetica,sans-Serif" font-size="10.00">+</text>
<text text-anchor="start" x="287.5" y="-1812" font-family="Helvetica,sans-Serif" font-size="10.00">Matx()</text>
<text text-anchor="start" x="268" y="-1797" font-family="Helvetica,sans-Serif" font-size="10.00">+</text>
<text text-anchor="start" x="287.5" y="-1797" font-family="Helvetica,sans-Serif" font-size="10.00">Matx()</text>
<text text-anchor="start" x="268" y="-1782" font-family="Helvetica,sans-Serif" font-size="10.00">+</text>
<text text-anchor="start" x="287.5" y="-1782" font-family="Helvetica,sans-Serif" font-size="10.00">Matx()</text>
<text text-anchor="start" x="268" y="-1767" font-family="Helvetica,sans-Serif" font-size="10.00">+</text>
<text text-anchor="start" x="287.5" y="-1767" font-family="Helvetica,sans-Serif" font-size="10.00">Matx()</text>
<text text-anchor="start" x="268" y="-1752" font-family="Helvetica,sans-Serif" font-size="10.00">+</text>
<text text-anchor="start" x="287.5" y="-1752" font-family="Helvetica,sans-Serif" font-size="10.00">Matx()</text>
<text text-anchor="start" x="268" y="-1737" font-family="Helvetica,sans-Serif" font-size="10.00">+</text>
<text text-anchor="start" x="287.5" y="-1737" font-family="Helvetica,sans-Serif" font-size="10.00">Matx()</text>
<text text-anchor="start" x="268" y="-1722" font-family="Helvetica,sans-Serif" font-size="10.00">+</text>
<text text-anchor="start" x="287.5" y="-1722" font-family="Helvetica,sans-Serif" font-size="10.00">Matx()</text>
<text text-anchor="start" x="268" y="-1707" font-family="Helvetica,sans-Serif" font-size="10.00">+</text>
<text text-anchor="start" x="287.5" y="-1707" font-family="Helvetica,sans-Serif" font-size="10.00">Matx()</text>
<text text-anchor="start" x="287.5" y="-1692" font-family="Helvetica,sans-Serif" font-size="10.00">and 31 more...</text>
<text text-anchor="start" x="268" y="-1677" font-family="Helvetica,sans-Serif" font-size="10.00">+</text>
<text text-anchor="start" x="287.5" y="-1677" font-family="Helvetica,sans-Serif" font-size="10.00">all()</text>
<text text-anchor="start" x="268" y="-1662" font-family="Helvetica,sans-Serif" font-size="10.00">+</text>
<text text-anchor="start" x="287.5" y="-1662" font-family="Helvetica,sans-Serif" font-size="10.00">diag()</text>
<text text-anchor="start" x="268" y="-1647" font-family="Helvetica,sans-Serif" font-size="10.00">+</text>
<text text-anchor="start" x="287.5" y="-1647" font-family="Helvetica,sans-Serif" font-size="10.00">eye()</text>
<text text-anchor="start" x="268" y="-1632" font-family="Helvetica,sans-Serif" font-size="10.00">+</text>
<text text-anchor="start" x="287.5" y="-1632" font-family="Helvetica,sans-Serif" font-size="10.00">ones()</text>
<text text-anchor="start" x="268" y="-1617" font-family="Helvetica,sans-Serif" font-size="10.00">+</text>
<text text-anchor="start" x="287.5" y="-1617" font-family="Helvetica,sans-Serif" font-size="10.00">randn()</text>
<text text-anchor="start" x="268" y="-1602" font-family="Helvetica,sans-Serif" font-size="10.00">+</text>
<text text-anchor="start" x="287.5" y="-1602" font-family="Helvetica,sans-Serif" font-size="10.00">randu()</text>
<text text-anchor="start" x="268" y="-1587" font-family="Helvetica,sans-Serif" font-size="10.00">+</text>
<text text-anchor="start" x="287.5" y="-1587" font-family="Helvetica,sans-Serif" font-size="10.00">zeros()</text>
<polygon fill="#666666" stroke="#666666" points="257.5,-1867 257.5,-1867 376.5,-1867 376.5,-1867 257.5,-1867"/>
<polygon fill="#666666" stroke="#666666" points="257.5,-1852 257.5,-1852 376.5,-1852 376.5,-1852 257.5,-1852"/>
<polygon fill="none" stroke="#666666" points="257,-1580 257,-1884 376,-1884 376,-1580 257,-1580"/>
</a>
</g>
</g>
<!-- Node6&#45;&gt;Node9 -->
<g id="edge10_Node000009_Node000006" class="edge">
<title>Node6&#45;&gt;Node9</title>
<g id="a_edge10_Node000009_Node000006"><a xlink:title=" ">
<path fill="none" stroke="#63b8ff" d="M222.74,-1930.8C230.17,-1915.12 240.58,-1893.15 251.78,-1869.53"/>
<polygon fill="none" stroke="#63b8ff" points="251.83,-1869.42 250.79,-1862.28 256.97,-1858.57 258.02,-1865.71 251.83,-1869.42"/>
</a>
</g>
<text text-anchor="middle" x="248" y="-1905" font-family="Helvetica,sans-Serif" font-size="10.00" fill="grey"> +val</text>
</g>
<!-- Node7 -->
<g id="Node000007" class="node">
<title>Node7</title>
<g id="a_Node000007"><a xlink:href="../../d6/dcf/classcv_1_1Vec.html" target="_top" xlink:title="Template class for short numerical vectors, a partial case of Matx.">
<polygon fill="white" stroke="transparent" points="271,-899 170,-899 170,-595 271,-595 271,-899"/>
<text text-anchor="start" x="175.5" y="-887" font-family="Helvetica,sans-Serif" font-size="10.00">cv::Vec&lt; _Tp, cn &gt;</text>
<text text-anchor="start" x="219" y="-872" font-family="Helvetica,sans-Serif" font-size="10.00"> </text>
<text text-anchor="start" x="176.5" y="-857" font-family="Helvetica,sans-Serif" font-size="10.00">+</text>
<text text-anchor="start" x="191.5" y="-857" font-family="Helvetica,sans-Serif" font-size="10.00">Vec()</text>
<text text-anchor="start" x="176.5" y="-842" font-family="Helvetica,sans-Serif" font-size="10.00">+</text>
<text text-anchor="start" x="191.5" y="-842" font-family="Helvetica,sans-Serif" font-size="10.00">Vec()</text>
<text text-anchor="start" x="176.5" y="-827" font-family="Helvetica,sans-Serif" font-size="10.00">+</text>
<text text-anchor="start" x="191.5" y="-827" font-family="Helvetica,sans-Serif" font-size="10.00">Vec()</text>
<text text-anchor="start" x="176.5" y="-812" font-family="Helvetica,sans-Serif" font-size="10.00">+</text>
<text text-anchor="start" x="191.5" y="-812" font-family="Helvetica,sans-Serif" font-size="10.00">Vec()</text>
<text text-anchor="start" x="176.5" y="-797" font-family="Helvetica,sans-Serif" font-size="10.00">+</text>
<text text-anchor="start" x="191.5" y="-797" font-family="Helvetica,sans-Serif" font-size="10.00">Vec()</text>
<text text-anchor="start" x="176.5" y="-782" font-family="Helvetica,sans-Serif" font-size="10.00">+</text>
<text text-anchor="start" x="191.5" y="-782" font-family="Helvetica,sans-Serif" font-size="10.00">Vec()</text>
<text text-anchor="start" x="176.5" y="-767" font-family="Helvetica,sans-Serif" font-size="10.00">+</text>
<text text-anchor="start" x="191.5" y="-767" font-family="Helvetica,sans-Serif" font-size="10.00">Vec()</text>
<text text-anchor="start" x="176.5" y="-752" font-family="Helvetica,sans-Serif" font-size="10.00">+</text>
<text text-anchor="start" x="191.5" y="-752" font-family="Helvetica,sans-Serif" font-size="10.00">Vec()</text>
<text text-anchor="start" x="176.5" y="-737" font-family="Helvetica,sans-Serif" font-size="10.00">+</text>
<text text-anchor="start" x="191.5" y="-737" font-family="Helvetica,sans-Serif" font-size="10.00">Vec()</text>
<text text-anchor="start" x="176.5" y="-722" font-family="Helvetica,sans-Serif" font-size="10.00">+</text>
<text text-anchor="start" x="191.5" y="-722" font-family="Helvetica,sans-Serif" font-size="10.00">Vec()</text>
<text text-anchor="start" x="191.5" y="-707" font-family="Helvetica,sans-Serif" font-size="10.00">and 17 more...</text>
<text text-anchor="start" x="176.5" y="-692" font-family="Helvetica,sans-Serif" font-size="10.00">+</text>
<text text-anchor="start" x="191.5" y="-692" font-family="Helvetica,sans-Serif" font-size="10.00">all()</text>
<text text-anchor="start" x="176.5" y="-677" font-family="Helvetica,sans-Serif" font-size="10.00">+</text>
<text text-anchor="start" x="191.5" y="-677" font-family="Helvetica,sans-Serif" font-size="10.00">diag()</text>
<text text-anchor="start" x="176.5" y="-662" font-family="Helvetica,sans-Serif" font-size="10.00">+</text>
<text text-anchor="start" x="191.5" y="-662" font-family="Helvetica,sans-Serif" font-size="10.00">eye()</text>
<text text-anchor="start" x="176.5" y="-647" font-family="Helvetica,sans-Serif" font-size="10.00">+</text>
<text text-anchor="start" x="191.5" y="-647" font-family="Helvetica,sans-Serif" font-size="10.00">ones()</text>
<text text-anchor="start" x="176.5" y="-632" font-family="Helvetica,sans-Serif" font-size="10.00">+</text>
<text text-anchor="start" x="191.5" y="-632" font-family="Helvetica,sans-Serif" font-size="10.00">randn()</text>
<text text-anchor="start" x="176.5" y="-617" font-family="Helvetica,sans-Serif" font-size="10.00">+</text>
<text text-anchor="start" x="191.5" y="-617" font-family="Helvetica,sans-Serif" font-size="10.00">randu()</text>
<text text-anchor="start" x="176.5" y="-602" font-family="Helvetica,sans-Serif" font-size="10.00">+</text>
<text text-anchor="start" x="191.5" y="-602" font-family="Helvetica,sans-Serif" font-size="10.00">zeros()</text>
<polygon fill="#666666" stroke="#666666" points="170.5,-882 170.5,-882 271.5,-882 271.5,-882 170.5,-882"/>
<polygon fill="#666666" stroke="#666666" points="170.5,-867 170.5,-867 271.5,-867 271.5,-867 170.5,-867"/>
<polygon fill="none" stroke="#666666" points="170,-595 170,-899 271,-899 271,-595 170,-595"/>
</a>
</g>
</g>
<!-- Node7&#45;&gt;Node4 -->
<g id="edge6_Node000004_Node000007" class="edge">
<title>Node7&#45;&gt;Node4</title>
<g id="a_edge6_Node000004_Node000007"><a xlink:title=" ">
<path fill="none" stroke="orange" d="M194.68,-585.07C192.7,-572.72 190.7,-560.28 188.73,-548"/>
<polygon fill="orange" stroke="orange" points="191.22,-585.63 196.26,-594.95 198.13,-584.53 191.22,-585.63"/>
</a>
</g>
<text text-anchor="middle" x="249" y="-569" font-family="Helvetica,sans-Serif" font-size="10.00" fill="grey"> &lt; double, nFeatures &gt;</text>
</g>
<!-- Node8&#45;&gt;Node7 -->
<g id="edge7_Node000007_Node000008" class="edge">
<title>Node8&#45;&gt;Node7</title>
<g id="a_edge7_Node000007_Node000008"><a xlink:title=" ">
<path fill="none" stroke="#63b8ff" d="M223.12,-925.82C222.99,-916.94 222.86,-908.02 222.73,-899.17"/>
<polygon fill="none" stroke="#63b8ff" points="219.62,-925.89 223.27,-935.84 226.62,-925.79 219.62,-925.89"/>
</a>
</g>
</g>
<!-- Node9&#45;&gt;Node8 -->
<g id="edge9_Node000008_Node000009" class="edge">
<title>Node9&#45;&gt;Node8</title>
<g id="a_edge9_Node000008_Node000009"><a xlink:title=" ">
<path fill="none" stroke="orange" d="M293.63,-1569.67C279.31,-1468.61 260.97,-1339.22 246.92,-1240.15"/>
<polygon fill="orange" stroke="orange" points="290.18,-1570.26 295.05,-1579.67 297.11,-1569.28 290.18,-1570.26"/>
</a>
</g>
<text text-anchor="middle" x="329" y="-1407.5" font-family="Helvetica,sans-Serif" font-size="10.00" fill="grey"> &lt; _Tp, cn, 1 &gt;</text>
</g>
</g>
</svg>
