<?xml version="1.0" encoding="UTF-8" standalone="no"?>
<!DOCTYPE svg PUBLIC "-//W3C//DTD SVG 1.1//EN"
 "http://www.w3.org/Graphics/SVG/1.1/DTD/svg11.dtd">
<!-- Generated by graphviz version 2.43.0 (0)
 -->
<!-- Title: cv::gapi::ov::detail::ParamDesc Pages: 1 -->
<svg width="735pt" height="790pt"
 viewBox="0.00 0.00 734.50 790.00" xmlns="http://www.w3.org/2000/svg" xmlns:xlink="http://www.w3.org/1999/xlink">
<g id="graph0" class="graph" transform="scale(1 1) rotate(0) translate(4 786)">
<title>cv::gapi::ov::detail::ParamDesc</title>
<!-- Node1 -->
<g id="Node000001" class="node">
<title>Node1</title>
<g id="a_Node000001"><a xlink:title=" ">
<polygon fill="#999999" stroke="transparent" points="442.5,-60 343.5,-60 343.5,0 442.5,0 442.5,-60"/>
<text text-anchor="start" x="349" y="-48" font-family="Helvetica,sans-Serif" font-size="10.00">cv::gapi::ov::detail</text>
<text text-anchor="start" x="363" y="-37" font-family="Helvetica,sans-Serif" font-size="10.00">::ParamDesc</text>
<text text-anchor="start" x="391.5" y="-22" font-family="Helvetica,sans-Serif" font-size="10.00"> </text>
<text text-anchor="start" x="351.5" y="-7" font-family="Helvetica,sans-Serif" font-size="10.00">+</text>
<text text-anchor="start" x="368" y="-7" font-family="Helvetica,sans-Serif" font-size="10.00">ParamDesc()</text>
<polygon fill="#666666" stroke="#666666" points="344,-32 344,-32 443,-32 443,-32 344,-32"/>
<polygon fill="#666666" stroke="#666666" points="344,-17 344,-17 443,-17 443,-17 344,-17"/>
<polygon fill="none" stroke="#666666" points="343.5,0 343.5,-60 442.5,-60 442.5,0 343.5,0"/>
</a>
</g>
</g>
<!-- Node2 -->
<g id="Node000002" class="node">
<title>Node2</title>
<g id="a_Node000002"><a xlink:href="../../dc/d3e/classcv_1_1util_1_1variant.html" target="_top" xlink:title=" ">
<polygon fill="white" stroke="transparent" points="194.5,-373 57.5,-373 57.5,-118 194.5,-118 194.5,-373"/>
<text text-anchor="start" x="63" y="-360.5" font-family="Helvetica,sans-Serif" font-size="10.00">cv::util::variant&lt;</text>
<text text-anchor="start" x="63" y="-349.5" font-family="Helvetica,sans-Serif" font-size="10.00"> Model, CompiledModel &gt;</text>
<text text-anchor="start" x="124.5" y="-334.5" font-family="Helvetica,sans-Serif" font-size="10.00"> </text>
<text text-anchor="start" x="76.5" y="-319.5" font-family="Helvetica,sans-Serif" font-size="10.00">+</text>
<text text-anchor="start" x="104" y="-319.5" font-family="Helvetica,sans-Serif" font-size="10.00">variant()</text>
<text text-anchor="start" x="76.5" y="-304.5" font-family="Helvetica,sans-Serif" font-size="10.00">+</text>
<text text-anchor="start" x="104" y="-304.5" font-family="Helvetica,sans-Serif" font-size="10.00">variant()</text>
<text text-anchor="start" x="76.5" y="-289.5" font-family="Helvetica,sans-Serif" font-size="10.00">+</text>
<text text-anchor="start" x="104" y="-289.5" font-family="Helvetica,sans-Serif" font-size="10.00">variant()</text>
<text text-anchor="start" x="76.5" y="-274.5" font-family="Helvetica,sans-Serif" font-size="10.00">+</text>
<text text-anchor="start" x="104" y="-274.5" font-family="Helvetica,sans-Serif" font-size="10.00">variant()</text>
<text text-anchor="start" x="76.5" y="-259.5" font-family="Helvetica,sans-Serif" font-size="10.00">+</text>
<text text-anchor="start" x="104" y="-259.5" font-family="Helvetica,sans-Serif" font-size="10.00">~variant()</text>
<text text-anchor="start" x="76.5" y="-244.5" font-family="Helvetica,sans-Serif" font-size="10.00">+</text>
<text text-anchor="start" x="104" y="-244.5" font-family="Helvetica,sans-Serif" font-size="10.00">index()</text>
<text text-anchor="start" x="76.5" y="-229.5" font-family="Helvetica,sans-Serif" font-size="10.00">+</text>
<text text-anchor="start" x="104" y="-229.5" font-family="Helvetica,sans-Serif" font-size="10.00">operator=()</text>
<text text-anchor="start" x="76.5" y="-214.5" font-family="Helvetica,sans-Serif" font-size="10.00">+</text>
<text text-anchor="start" x="104" y="-214.5" font-family="Helvetica,sans-Serif" font-size="10.00">operator=()</text>
<text text-anchor="start" x="76.5" y="-199.5" font-family="Helvetica,sans-Serif" font-size="10.00">+</text>
<text text-anchor="start" x="104" y="-199.5" font-family="Helvetica,sans-Serif" font-size="10.00">operator=()</text>
<text text-anchor="start" x="76.5" y="-184.5" font-family="Helvetica,sans-Serif" font-size="10.00">+</text>
<text text-anchor="start" x="104" y="-184.5" font-family="Helvetica,sans-Serif" font-size="10.00">operator=()</text>
<text text-anchor="start" x="76.5" y="-169.5" font-family="Helvetica,sans-Serif" font-size="10.00">+</text>
<text text-anchor="start" x="104" y="-169.5" font-family="Helvetica,sans-Serif" font-size="10.00">operator=()</text>
<text text-anchor="start" x="76.5" y="-154.5" font-family="Helvetica,sans-Serif" font-size="10.00">+</text>
<text text-anchor="start" x="104" y="-154.5" font-family="Helvetica,sans-Serif" font-size="10.00">operator=()</text>
<text text-anchor="start" x="76.5" y="-139.5" font-family="Helvetica,sans-Serif" font-size="10.00">+</text>
<text text-anchor="start" x="104" y="-139.5" font-family="Helvetica,sans-Serif" font-size="10.00">swap()</text>
<text text-anchor="start" x="76.5" y="-124.5" font-family="Helvetica,sans-Serif" font-size="10.00">+</text>
<text text-anchor="start" x="104" y="-124.5" font-family="Helvetica,sans-Serif" font-size="10.00">index_of()</text>
<polygon fill="#666666" stroke="#666666" points="58,-344.5 58,-344.5 195,-344.5 195,-344.5 58,-344.5"/>
<polygon fill="#666666" stroke="#666666" points="58,-329.5 58,-329.5 195,-329.5 195,-329.5 58,-329.5"/>
<polygon fill="none" stroke="#666666" points="57.5,-118 57.5,-373 194.5,-373 194.5,-118 57.5,-118"/>
</a>
</g>
</g>
<!-- Node2&#45;&gt;Node1 -->
<g id="edge1_Node000001_Node000002" class="edge">
<title>Node2&#45;&gt;Node1</title>
<g id="a_edge1_Node000001_Node000002"><a xlink:title=" ">
<path fill="none" stroke="#63b8ff" d="M154.31,-117.65C161.95,-102.77 171.67,-89 184,-78 205.5,-58.82 277.53,-45.64 331.05,-38.23"/>
<polygon fill="none" stroke="#63b8ff" points="331.29,-38.19 336.71,-33.43 343.18,-36.6 337.77,-41.36 331.29,-38.19"/>
</a>
</g>
<text text-anchor="middle" x="200.5" y="-86.5" font-family="Helvetica,sans-Serif" font-size="10.00" fill="grey"> +kind</text>
</g>
<!-- Node3 -->
<g id="Node000003" class="node">
<title>Node3</title>
<g id="a_Node000003"><a xlink:title=" ">
<polygon fill="white" stroke="transparent" points="165,-776.5 119,-776.5 119,-727.5 165,-727.5 165,-776.5"/>
<text text-anchor="start" x="124" y="-764" font-family="Helvetica,sans-Serif" font-size="10.00">type[1]</text>
<text text-anchor="start" x="140" y="-749" font-family="Helvetica,sans-Serif" font-size="10.00"> </text>
<text text-anchor="start" x="140" y="-734" font-family="Helvetica,sans-Serif" font-size="10.00"> </text>
<polygon fill="#666666" stroke="#666666" points="119,-759 119,-759 165,-759 165,-759 119,-759"/>
<polygon fill="#666666" stroke="#666666" points="119,-744 119,-744 165,-744 165,-744 119,-744"/>
<polygon fill="none" stroke="#666666" points="119,-727.5 119,-776.5 165,-776.5 165,-727.5 119,-727.5"/>
</a>
</g>
</g>
<!-- Node3&#45;&gt;Node2 -->
<g id="edge2_Node000002_Node000003" class="edge">
<title>Node3&#45;&gt;Node2</title>
<g id="a_edge2_Node000002_Node000003"><a xlink:title=" ">
<path fill="none" stroke="#63b8ff" d="M158.25,-727.11C162.24,-719.98 165.95,-711.95 168,-704 202.77,-569.31 187.61,-528.72 168,-391 167.73,-389.09 167.44,-387.17 167.13,-385.24"/>
<polygon fill="none" stroke="#63b8ff" points="167.11,-385.14 162.12,-379.93 165.02,-373.32 170,-378.53 167.11,-385.14"/>
</a>
</g>
<text text-anchor="middle" x="215.5" y="-550.5" font-family="Helvetica,sans-Serif" font-size="10.00" fill="grey"> #memory</text>
</g>
<!-- Node4 -->
<g id="Node000004" class="node">
<title>Node4</title>
<g id="a_Node000004"><a xlink:href="../../dc/d3e/classcv_1_1util_1_1variant.html" target="_top" xlink:title=" ">
<polygon fill="white" stroke="transparent" points="116,-675 0,-675 0,-431 116,-431 116,-675"/>
<text text-anchor="start" x="5" y="-663" font-family="Helvetica,sans-Serif" font-size="10.00">cv::util::variant&lt; Ts &gt;</text>
<text text-anchor="start" x="56" y="-648" font-family="Helvetica,sans-Serif" font-size="10.00"> </text>
<text text-anchor="start" x="13" y="-633" font-family="Helvetica,sans-Serif" font-size="10.00">+</text>
<text text-anchor="start" x="35" y="-633" font-family="Helvetica,sans-Serif" font-size="10.00">variant()</text>
<text text-anchor="start" x="13" y="-618" font-family="Helvetica,sans-Serif" font-size="10.00">+</text>
<text text-anchor="start" x="35" y="-618" font-family="Helvetica,sans-Serif" font-size="10.00">variant()</text>
<text text-anchor="start" x="13" y="-603" font-family="Helvetica,sans-Serif" font-size="10.00">+</text>
<text text-anchor="start" x="35" y="-603" font-family="Helvetica,sans-Serif" font-size="10.00">variant()</text>
<text text-anchor="start" x="13" y="-588" font-family="Helvetica,sans-Serif" font-size="10.00">+</text>
<text text-anchor="start" x="35" y="-588" font-family="Helvetica,sans-Serif" font-size="10.00">variant()</text>
<text text-anchor="start" x="13" y="-573" font-family="Helvetica,sans-Serif" font-size="10.00">+</text>
<text text-anchor="start" x="35" y="-573" font-family="Helvetica,sans-Serif" font-size="10.00">~variant()</text>
<text text-anchor="start" x="13" y="-558" font-family="Helvetica,sans-Serif" font-size="10.00">+</text>
<text text-anchor="start" x="35" y="-558" font-family="Helvetica,sans-Serif" font-size="10.00">index()</text>
<text text-anchor="start" x="13" y="-543" font-family="Helvetica,sans-Serif" font-size="10.00">+</text>
<text text-anchor="start" x="35" y="-543" font-family="Helvetica,sans-Serif" font-size="10.00">operator=()</text>
<text text-anchor="start" x="13" y="-528" font-family="Helvetica,sans-Serif" font-size="10.00">+</text>
<text text-anchor="start" x="35" y="-528" font-family="Helvetica,sans-Serif" font-size="10.00">operator=()</text>
<text text-anchor="start" x="13" y="-513" font-family="Helvetica,sans-Serif" font-size="10.00">+</text>
<text text-anchor="start" x="35" y="-513" font-family="Helvetica,sans-Serif" font-size="10.00">operator=()</text>
<text text-anchor="start" x="13" y="-498" font-family="Helvetica,sans-Serif" font-size="10.00">+</text>
<text text-anchor="start" x="35" y="-498" font-family="Helvetica,sans-Serif" font-size="10.00">operator=()</text>
<text text-anchor="start" x="13" y="-483" font-family="Helvetica,sans-Serif" font-size="10.00">+</text>
<text text-anchor="start" x="35" y="-483" font-family="Helvetica,sans-Serif" font-size="10.00">operator=()</text>
<text text-anchor="start" x="13" y="-468" font-family="Helvetica,sans-Serif" font-size="10.00">+</text>
<text text-anchor="start" x="35" y="-468" font-family="Helvetica,sans-Serif" font-size="10.00">operator=()</text>
<text text-anchor="start" x="13" y="-453" font-family="Helvetica,sans-Serif" font-size="10.00">+</text>
<text text-anchor="start" x="35" y="-453" font-family="Helvetica,sans-Serif" font-size="10.00">swap()</text>
<text text-anchor="start" x="13" y="-438" font-family="Helvetica,sans-Serif" font-size="10.00">+</text>
<text text-anchor="start" x="35" y="-438" font-family="Helvetica,sans-Serif" font-size="10.00">index_of()</text>
<polygon fill="#666666" stroke="#666666" points="0,-658 0,-658 116,-658 116,-658 0,-658"/>
<polygon fill="#666666" stroke="#666666" points="0,-643 0,-643 116,-643 116,-643 0,-643"/>
<polygon fill="none" stroke="#666666" points="0,-431 0,-675 116,-675 116,-431 0,-431"/>
</a>
</g>
</g>
<!-- Node3&#45;&gt;Node4 -->
<g id="edge4_Node000004_Node000003" class="edge">
<title>Node3&#45;&gt;Node4</title>
<g id="a_edge4_Node000004_Node000003"><a xlink:title=" ">
<path fill="none" stroke="#63b8ff" d="M127.52,-727.48C123.23,-720.1 118.71,-711.82 115,-704 112.24,-698.18 109.52,-692.18 106.84,-686.1"/>
<polygon fill="none" stroke="#63b8ff" points="106.83,-686.07 100.79,-682.15 102.09,-675.05 108.13,-678.98 106.83,-686.07"/>
</a>
</g>
<text text-anchor="middle" x="141.5" y="-696" font-family="Helvetica,sans-Serif" font-size="10.00" fill="grey"> #memory</text>
</g>
<!-- Node4&#45;&gt;Node2 -->
<g id="edge3_Node000002_Node000004" class="edge">
<title>Node4&#45;&gt;Node2</title>
<g id="a_edge3_Node000002_Node000004"><a xlink:title=" ">
<path fill="none" stroke="orange" d="M23.99,-420.68C24.52,-410.57 26.08,-400.58 29,-391 35.29,-370.33 45.64,-349.94 57.28,-331.28"/>
<polygon fill="orange" stroke="orange" points="20.49,-420.76 23.8,-430.82 27.49,-420.89 20.49,-420.76"/>
</a>
</g>
<text text-anchor="middle" x="98.5" y="-399.5" font-family="Helvetica,sans-Serif" font-size="10.00" fill="grey"> &lt; Model, CompiledModel &gt;</text>
</g>
<!-- Node5 -->
<g id="Node000005" class="node">
<title>Node5</title>
<g id="a_Node000005"><a xlink:title=" ">
<polygon fill="white" stroke="transparent" points="351.5,-577.5 292.5,-577.5 292.5,-528.5 351.5,-528.5 351.5,-577.5"/>
<text text-anchor="start" x="298" y="-565" font-family="Helvetica,sans-Serif" font-size="10.00">std::string</text>
<text text-anchor="start" x="320.5" y="-550" font-family="Helvetica,sans-Serif" font-size="10.00"> </text>
<text text-anchor="start" x="320.5" y="-535" font-family="Helvetica,sans-Serif" font-size="10.00"> </text>
<polygon fill="#666666" stroke="#666666" points="293,-560 293,-560 352,-560 352,-560 293,-560"/>
<polygon fill="#666666" stroke="#666666" points="293,-545 293,-545 352,-545 352,-545 293,-545"/>
<polygon fill="none" stroke="#666666" points="292.5,-528.5 292.5,-577.5 351.5,-577.5 351.5,-528.5 292.5,-528.5"/>
</a>
</g>
</g>
<!-- Node5&#45;&gt;Node1 -->
<g id="edge5_Node000001_Node000005" class="edge">
<title>Node5&#45;&gt;Node1</title>
<g id="a_edge5_Node000001_Node000005"><a xlink:title=" ">
<path fill="none" stroke="#63b8ff" d="M307.11,-528.13C266.45,-459.6 161.64,-258.24 240,-118 259.27,-83.52 298.08,-61.68 331.8,-48.5"/>
<polygon fill="none" stroke="#63b8ff" points="332.21,-48.35 336.45,-42.52 343.47,-44.2 339.22,-50.03 332.21,-48.35"/>
</a>
</g>
<text text-anchor="middle" x="262" y="-243" font-family="Helvetica,sans-Serif" font-size="10.00" fill="grey"> +device</text>
</g>
<!-- Node9 -->
<g id="Node000009" class="node">
<title>Node9</title>
<g id="a_Node000009"><a xlink:title=" ">
<polygon fill="white" stroke="transparent" points="535,-270 401,-270 401,-221 535,-221 535,-270"/>
<text text-anchor="start" x="406" y="-257.5" font-family="Helvetica,sans-Serif" font-size="10.00">std::vector&lt; std::string &gt;</text>
<text text-anchor="start" x="466" y="-242.5" font-family="Helvetica,sans-Serif" font-size="10.00"> </text>
<text text-anchor="start" x="466" y="-227.5" font-family="Helvetica,sans-Serif" font-size="10.00"> </text>
<polygon fill="#666666" stroke="#666666" points="401,-252.5 401,-252.5 535,-252.5 535,-252.5 401,-252.5"/>
<polygon fill="#666666" stroke="#666666" points="401,-237.5 401,-237.5 535,-237.5 535,-237.5 401,-237.5"/>
<polygon fill="none" stroke="#666666" points="401,-221 401,-270 535,-270 535,-221 401,-221"/>
</a>
</g>
</g>
<!-- Node5&#45;&gt;Node9 -->
<g id="edge10_Node000009_Node000005" class="edge">
<title>Node5&#45;&gt;Node9</title>
<g id="a_edge10_Node000009_Node000005"><a xlink:title=" ">
<path fill="none" stroke="#63b8ff" d="M314.05,-528.36C304.17,-494.18 292.12,-430.72 323,-391 342.45,-365.98 366.63,-391.99 392,-373 422.92,-349.86 443.78,-310.11 455.7,-281.34"/>
<polygon fill="none" stroke="#63b8ff" points="455.71,-281.3 454.2,-274.25 460.12,-270.14 461.64,-277.19 455.71,-281.3"/>
</a>
</g>
<text text-anchor="middle" x="352" y="-399.5" font-family="Helvetica,sans-Serif" font-size="10.00" fill="grey"> +elements</text>
</g>
<!-- Node12 -->
<g id="Node000012" class="node">
<title>Node12</title>
<g id="a_Node000012"><a xlink:title=" ">
<polygon fill="white" stroke="transparent" points="669,-275.5 553,-275.5 553,-215.5 669,-215.5 669,-275.5"/>
<text text-anchor="start" x="558" y="-263.5" font-family="Helvetica,sans-Serif" font-size="10.00">std::map&lt; std::string,</text>
<text text-anchor="start" x="579" y="-252.5" font-family="Helvetica,sans-Serif" font-size="10.00"> std::string &gt;</text>
<text text-anchor="start" x="609" y="-237.5" font-family="Helvetica,sans-Serif" font-size="10.00"> </text>
<text text-anchor="start" x="609" y="-222.5" font-family="Helvetica,sans-Serif" font-size="10.00"> </text>
<polygon fill="#666666" stroke="#666666" points="553,-247.5 553,-247.5 669,-247.5 669,-247.5 553,-247.5"/>
<polygon fill="#666666" stroke="#666666" points="553,-232.5 553,-232.5 669,-232.5 669,-232.5 553,-232.5"/>
<polygon fill="none" stroke="#666666" points="553,-215.5 553,-275.5 669,-275.5 669,-215.5 553,-215.5"/>
</a>
</g>
</g>
<!-- Node5&#45;&gt;Node12 -->
<g id="edge14_Node000012_Node000005" class="edge">
<title>Node5&#45;&gt;Node12</title>
<g id="a_edge14_Node000012_Node000005"><a xlink:title=" ">
<path fill="none" stroke="#63b8ff" d="M328.27,-528.24C339.16,-492.09 365.2,-424 414,-391 462.32,-358.32 496.21,-406.45 544,-373 572.95,-352.74 590.41,-315.96 600.21,-287.26"/>
<polygon fill="none" stroke="#63b8ff" points="600.31,-286.96 598.32,-280.03 603.96,-275.53 605.94,-282.46 600.31,-286.96"/>
</a>
</g>
<text text-anchor="middle" x="443" y="-405" font-family="Helvetica,sans-Serif" font-size="10.00" fill="grey"> +elements</text>
<text text-anchor="middle" x="443" y="-394" font-family="Helvetica,sans-Serif" font-size="10.00" fill="grey">+keys</text>
</g>
<!-- Node6 -->
<g id="Node000006" class="node">
<title>Node6</title>
<g id="a_Node000006"><a xlink:title=" ">
<polygon fill="white" stroke="transparent" points="371,-782 273,-782 273,-722 371,-722 371,-782"/>
<text text-anchor="start" x="278" y="-770" font-family="Helvetica,sans-Serif" font-size="10.00">std::basic_string&lt;</text>
<text text-anchor="start" x="303.5" y="-759" font-family="Helvetica,sans-Serif" font-size="10.00"> Char &gt;</text>
<text text-anchor="start" x="320" y="-744" font-family="Helvetica,sans-Serif" font-size="10.00"> </text>
<text text-anchor="start" x="320" y="-729" font-family="Helvetica,sans-Serif" font-size="10.00"> </text>
<polygon fill="#666666" stroke="#666666" points="273,-754 273,-754 371,-754 371,-754 273,-754"/>
<polygon fill="#666666" stroke="#666666" points="273,-739 273,-739 371,-739 371,-739 273,-739"/>
<polygon fill="none" stroke="#666666" points="273,-722 273,-782 371,-782 371,-722 273,-722"/>
</a>
</g>
</g>
<!-- Node6&#45;&gt;Node5 -->
<g id="edge6_Node000005_Node000006" class="edge">
<title>Node6&#45;&gt;Node5</title>
<g id="a_edge6_Node000005_Node000006"><a xlink:title=" ">
<path fill="none" stroke="#63b8ff" d="M322,-711.72C322,-671.66 322,-610.81 322,-577.62"/>
<polygon fill="none" stroke="#63b8ff" points="318.5,-711.93 322,-721.93 325.5,-711.93 318.5,-711.93"/>
</a>
</g>
</g>
<!-- Node7 -->
<g id="Node000007" class="node">
<title>Node7</title>
<g id="a_Node000007"><a xlink:title=" ">
<polygon fill="white" stroke="transparent" points="325,-270 293,-270 293,-221 325,-221 325,-270"/>
<text text-anchor="start" x="298" y="-257.5" font-family="Helvetica,sans-Serif" font-size="10.00">bool</text>
<text text-anchor="start" x="307" y="-242.5" font-family="Helvetica,sans-Serif" font-size="10.00"> </text>
<text text-anchor="start" x="307" y="-227.5" font-family="Helvetica,sans-Serif" font-size="10.00"> </text>
<polygon fill="#666666" stroke="#666666" points="293,-252.5 293,-252.5 325,-252.5 325,-252.5 293,-252.5"/>
<polygon fill="#666666" stroke="#666666" points="293,-237.5 293,-237.5 325,-237.5 325,-237.5 293,-237.5"/>
<polygon fill="none" stroke="#666666" points="293,-221 293,-270 325,-270 325,-221 293,-221"/>
</a>
</g>
</g>
<!-- Node7&#45;&gt;Node1 -->
<g id="edge7_Node000001_Node000007" class="edge">
<title>Node7&#45;&gt;Node1</title>
<g id="a_edge7_Node000001_Node000007"><a xlink:title=" ">
<path fill="none" stroke="#63b8ff" d="M304.08,-220.78C298.31,-186.62 292.61,-122.78 319,-78 322.85,-71.46 328.01,-65.68 333.83,-60.62"/>
<polygon fill="none" stroke="#63b8ff" points="333.89,-60.57 336.21,-53.74 343.4,-53.25 341.09,-60.08 333.89,-60.57"/>
</a>
</g>
<text text-anchor="middle" x="349.5" y="-86.5" font-family="Helvetica,sans-Serif" font-size="10.00" fill="grey"> +is_generic</text>
</g>
<!-- Node8 -->
<g id="Node000008" class="node">
<title>Node8</title>
<g id="a_Node000008"><a xlink:title=" ">
<polygon fill="white" stroke="transparent" points="382.5,-270 343.5,-270 343.5,-221 382.5,-221 382.5,-270"/>
<text text-anchor="start" x="349" y="-257.5" font-family="Helvetica,sans-Serif" font-size="10.00">size_t</text>
<text text-anchor="start" x="361.5" y="-242.5" font-family="Helvetica,sans-Serif" font-size="10.00"> </text>
<text text-anchor="start" x="361.5" y="-227.5" font-family="Helvetica,sans-Serif" font-size="10.00"> </text>
<polygon fill="#666666" stroke="#666666" points="344,-252.5 344,-252.5 383,-252.5 383,-252.5 344,-252.5"/>
<polygon fill="#666666" stroke="#666666" points="344,-237.5 344,-237.5 383,-237.5 383,-237.5 344,-237.5"/>
<polygon fill="none" stroke="#666666" points="343.5,-221 343.5,-270 382.5,-270 382.5,-221 343.5,-221"/>
</a>
</g>
</g>
<!-- Node8&#45;&gt;Node1 -->
<g id="edge8_Node000001_Node000008" class="edge">
<title>Node8&#45;&gt;Node1</title>
<g id="a_edge8_Node000001_Node000008"><a xlink:title=" ">
<path fill="none" stroke="#63b8ff" d="M366.33,-220.84C371.36,-184.99 381,-116.43 387.2,-72.25"/>
<polygon fill="none" stroke="#63b8ff" points="387.23,-72.1 384.1,-65.6 388.89,-60.21 392.02,-66.71 387.23,-72.1"/>
</a>
</g>
<text text-anchor="middle" x="411" y="-92" font-family="Helvetica,sans-Serif" font-size="10.00" fill="grey"> +num_in</text>
<text text-anchor="middle" x="411" y="-81" font-family="Helvetica,sans-Serif" font-size="10.00" fill="grey">+num_out</text>
</g>
<!-- Node9&#45;&gt;Node1 -->
<g id="edge9_Node000001_Node000009" class="edge">
<title>Node9&#45;&gt;Node1</title>
<g id="a_edge9_Node000001_Node000009"><a xlink:title=" ">
<path fill="none" stroke="#63b8ff" d="M468.69,-220.72C468.7,-187.05 465.06,-124.4 441,-78 439.49,-75.09 437.74,-72.25 435.81,-69.51"/>
<polygon fill="none" stroke="#63b8ff" points="435.69,-69.37 428.82,-67.19 428.18,-60.01 435.06,-62.18 435.69,-69.37"/>
</a>
</g>
<text text-anchor="middle" x="489.5" y="-92" font-family="Helvetica,sans-Serif" font-size="10.00" fill="grey"> +input_names</text>
<text text-anchor="middle" x="489.5" y="-81" font-family="Helvetica,sans-Serif" font-size="10.00" fill="grey">+output_names</text>
</g>
<!-- Node10 -->
<g id="Node000010" class="node">
<title>Node10</title>
<g id="a_Node000010"><a xlink:title=" ">
<polygon fill="white" stroke="transparent" points="529.5,-577.5 438.5,-577.5 438.5,-528.5 529.5,-528.5 529.5,-577.5"/>
<text text-anchor="start" x="444" y="-565" font-family="Helvetica,sans-Serif" font-size="10.00">std::vector&lt; T &gt;</text>
<text text-anchor="start" x="482.5" y="-550" font-family="Helvetica,sans-Serif" font-size="10.00"> </text>
<text text-anchor="start" x="482.5" y="-535" font-family="Helvetica,sans-Serif" font-size="10.00"> </text>
<polygon fill="#666666" stroke="#666666" points="439,-560 439,-560 530,-560 530,-560 439,-560"/>
<polygon fill="#666666" stroke="#666666" points="439,-545 439,-545 530,-545 530,-545 439,-545"/>
<polygon fill="none" stroke="#666666" points="438.5,-528.5 438.5,-577.5 529.5,-577.5 529.5,-528.5 438.5,-528.5"/>
</a>
</g>
</g>
<!-- Node10&#45;&gt;Node9 -->
<g id="edge11_Node000009_Node000010" class="edge">
<title>Node10&#45;&gt;Node9</title>
<g id="a_edge11_Node000009_Node000010"><a xlink:title=" ">
<path fill="none" stroke="orange" d="M482.23,-518.19C478.97,-455.89 472.08,-324.41 469.25,-270.41"/>
<polygon fill="orange" stroke="orange" points="478.74,-518.48 482.76,-528.28 485.73,-518.11 478.74,-518.48"/>
</a>
</g>
<text text-anchor="middle" x="513.5" y="-399.5" font-family="Helvetica,sans-Serif" font-size="10.00" fill="grey"> &lt; std::string &gt;</text>
</g>
<!-- Node11 -->
<g id="Node000011" class="node">
<title>Node11</title>
<g id="a_Node000011"><a xlink:title=" ">
<polygon fill="white" stroke="transparent" points="533.5,-776.5 516.5,-776.5 516.5,-727.5 533.5,-727.5 533.5,-776.5"/>
<text text-anchor="start" x="522" y="-764" font-family="Helvetica,sans-Serif" font-size="10.00">T</text>
<text text-anchor="start" x="523.5" y="-749" font-family="Helvetica,sans-Serif" font-size="10.00"> </text>
<text text-anchor="start" x="523.5" y="-734" font-family="Helvetica,sans-Serif" font-size="10.00"> </text>
<polygon fill="#666666" stroke="#666666" points="517,-759 517,-759 534,-759 534,-759 517,-759"/>
<polygon fill="#666666" stroke="#666666" points="517,-744 517,-744 534,-744 534,-744 517,-744"/>
<polygon fill="none" stroke="#666666" points="516.5,-727.5 516.5,-776.5 533.5,-776.5 533.5,-727.5 516.5,-727.5"/>
</a>
</g>
</g>
<!-- Node11&#45;&gt;Node10 -->
<g id="edge12_Node000010_Node000011" class="edge">
<title>Node11&#45;&gt;Node10</title>
<g id="a_edge12_Node000010_Node000011"><a xlink:title=" ">
<path fill="none" stroke="#63b8ff" d="M516.29,-744.14C506.54,-735.84 491.27,-720.87 485,-704 471.2,-666.88 473.44,-620.94 477.54,-589.75"/>
<polygon fill="none" stroke="#63b8ff" points="477.55,-589.63 474.47,-583.12 479.3,-577.76 482.38,-584.28 477.55,-589.63"/>
</a>
</g>
<text text-anchor="middle" x="514" y="-696" font-family="Helvetica,sans-Serif" font-size="10.00" fill="grey"> +elements</text>
</g>
<!-- Node13 -->
<g id="Node000013" class="node">
<title>Node13</title>
<g id="a_Node000013"><a xlink:title=" ">
<polygon fill="white" stroke="transparent" points="658.5,-577.5 563.5,-577.5 563.5,-528.5 658.5,-528.5 658.5,-577.5"/>
<text text-anchor="start" x="569" y="-565" font-family="Helvetica,sans-Serif" font-size="10.00">std::map&lt; K, T &gt;</text>
<text text-anchor="start" x="609.5" y="-550" font-family="Helvetica,sans-Serif" font-size="10.00"> </text>
<text text-anchor="start" x="609.5" y="-535" font-family="Helvetica,sans-Serif" font-size="10.00"> </text>
<polygon fill="#666666" stroke="#666666" points="564,-560 564,-560 659,-560 659,-560 564,-560"/>
<polygon fill="#666666" stroke="#666666" points="564,-545 564,-545 659,-545 659,-545 564,-545"/>
<polygon fill="none" stroke="#666666" points="563.5,-528.5 563.5,-577.5 658.5,-577.5 658.5,-528.5 563.5,-528.5"/>
</a>
</g>
</g>
<!-- Node11&#45;&gt;Node13 -->
<g id="edge17_Node000013_Node000011" class="edge">
<title>Node11&#45;&gt;Node13</title>
<g id="a_edge17_Node000013_Node000011"><a xlink:title=" ">
<path fill="none" stroke="#63b8ff" d="M533.56,-731.39C548.05,-698.19 577.61,-630.49 595.72,-588.99"/>
<polygon fill="none" stroke="#63b8ff" points="595.82,-588.78 594.55,-581.68 600.62,-577.78 601.88,-584.88 595.82,-588.78"/>
</a>
</g>
<text text-anchor="middle" x="577" y="-696" font-family="Helvetica,sans-Serif" font-size="10.00" fill="grey"> +elements</text>
</g>
<!-- Node12&#45;&gt;Node1 -->
<g id="edge13_Node000001_Node000012" class="edge">
<title>Node12&#45;&gt;Node1</title>
<g id="a_edge13_Node000001_Node000012"><a xlink:title=" ">
<path fill="none" stroke="#63b8ff" d="M604.8,-215.25C595.47,-178.24 574.33,-114.86 533,-78 511.26,-58.61 481.25,-47.18 454.58,-40.45"/>
<polygon fill="none" stroke="#63b8ff" points="454.3,-40.39 447.56,-42.93 442.61,-37.68 449.36,-35.14 454.3,-40.39"/>
</a>
</g>
<text text-anchor="middle" x="573.5" y="-86.5" font-family="Helvetica,sans-Serif" font-size="10.00" fill="grey"> +config</text>
</g>
<!-- Node13&#45;&gt;Node12 -->
<g id="edge15_Node000012_Node000013" class="edge">
<title>Node13&#45;&gt;Node12</title>
<g id="a_edge15_Node000012_Node000013"><a xlink:title=" ">
<path fill="none" stroke="orange" d="M611,-518.14C611,-457.76 611,-332.54 611,-275.7"/>
<polygon fill="orange" stroke="orange" points="607.5,-518.28 611,-528.28 614.5,-518.28 607.5,-518.28"/>
</a>
</g>
<text text-anchor="start" x="611" y="-405" font-family="Helvetica,sans-Serif" font-size="10.00" fill="grey"> &lt; std::string, std</text>
<text text-anchor="middle" x="653.5" y="-394" font-family="Helvetica,sans-Serif" font-size="10.00" fill="grey">::string &gt;</text>
</g>
<!-- Node14 -->
<g id="Node000014" class="node">
<title>Node14</title>
<g id="a_Node000014"><a xlink:title=" ">
<polygon fill="white" stroke="transparent" points="654.5,-776.5 637.5,-776.5 637.5,-727.5 654.5,-727.5 654.5,-776.5"/>
<text text-anchor="start" x="643" y="-764" font-family="Helvetica,sans-Serif" font-size="10.00">K</text>
<text text-anchor="start" x="644.5" y="-749" font-family="Helvetica,sans-Serif" font-size="10.00"> </text>
<text text-anchor="start" x="644.5" y="-734" font-family="Helvetica,sans-Serif" font-size="10.00"> </text>
<polygon fill="#666666" stroke="#666666" points="638,-759 638,-759 655,-759 655,-759 638,-759"/>
<polygon fill="#666666" stroke="#666666" points="638,-744 638,-744 655,-744 655,-744 638,-744"/>
<polygon fill="none" stroke="#666666" points="637.5,-727.5 637.5,-776.5 654.5,-776.5 654.5,-727.5 637.5,-727.5"/>
</a>
</g>
</g>
<!-- Node14&#45;&gt;Node13 -->
<g id="edge16_Node000013_Node000014" class="edge">
<title>Node14&#45;&gt;Node13</title>
<g id="a_edge16_Node000013_Node000014"><a xlink:title=" ">
<path fill="none" stroke="#63b8ff" d="M641.78,-727.24C635.69,-692.98 624.41,-629.46 617.32,-589.59"/>
<polygon fill="none" stroke="#63b8ff" points="617.28,-589.36 612.29,-584.15 615.18,-577.54 620.17,-582.75 617.28,-589.36"/>
</a>
</g>
<text text-anchor="middle" x="654" y="-696" font-family="Helvetica,sans-Serif" font-size="10.00" fill="grey"> +keys</text>
</g>
<!-- Node15 -->
<g id="Node000015" class="node">
<title>Node15</title>
<g id="a_Node000015"><a xlink:title=" ">
<polygon fill="white" stroke="transparent" points="726.5,-270 687.5,-270 687.5,-221 726.5,-221 726.5,-270"/>
<text text-anchor="start" x="693" y="-257.5" font-family="Helvetica,sans-Serif" font-size="10.00">size_t</text>
<text text-anchor="start" x="705.5" y="-242.5" font-family="Helvetica,sans-Serif" font-size="10.00"> </text>
<text text-anchor="start" x="705.5" y="-227.5" font-family="Helvetica,sans-Serif" font-size="10.00"> </text>
<polygon fill="#666666" stroke="#666666" points="688,-252.5 688,-252.5 727,-252.5 727,-252.5 688,-252.5"/>
<polygon fill="#666666" stroke="#666666" points="688,-237.5 688,-237.5 727,-237.5 727,-237.5 688,-237.5"/>
<polygon fill="none" stroke="#666666" points="687.5,-221 687.5,-270 726.5,-270 726.5,-221 687.5,-221"/>
</a>
</g>
</g>
<!-- Node15&#45;&gt;Node1 -->
<g id="edge18_Node000001_Node000015" class="edge">
<title>Node15&#45;&gt;Node1</title>
<g id="a_edge18_Node000001_Node000015"><a xlink:title=" ">
<path fill="none" stroke="#63b8ff" d="M707.38,-220.97C706.63,-193.48 701.53,-147.93 678,-118 650.36,-82.85 530.08,-55.5 454.89,-41.44"/>
<polygon fill="none" stroke="#63b8ff" points="454.58,-41.38 447.95,-44.24 442.77,-39.22 449.4,-36.37 454.58,-41.38"/>
</a>
</g>
<text text-anchor="middle" x="668.5" y="-86.5" font-family="Helvetica,sans-Serif" font-size="10.00" fill="grey"> +nireq</text>
</g>
</g>
</svg>
