<?xml version="1.0" encoding="UTF-8" standalone="no"?>
<!DOCTYPE svg PUBLIC "-//W3C//DTD SVG 1.1//EN"
 "http://www.w3.org/Graphics/SVG/1.1/DTD/svg11.dtd">
<!-- Generated by graphviz version 2.43.0 (0)
 -->
<!-- Title: cv::cudev::maximum&lt; T &gt; Pages: 1 -->
<svg width="148pt" height="261pt"
 viewBox="0.00 0.00 148.00 261.00" xmlns="http://www.w3.org/2000/svg" xmlns:xlink="http://www.w3.org/1999/xlink">
<g id="graph0" class="graph" transform="scale(1 1) rotate(0) translate(4 257)">
<title>cv::cudev::maximum&lt; T &gt;</title>
<!-- Node1 -->
<g id="Node000001" class="node">
<title>Node1</title>
<g id="a_Node000001"><a xlink:title=" ">
<polygon fill="#999999" stroke="transparent" points="140,-49 0,-49 0,0 140,0 140,-49"/>
<text text-anchor="start" x="5" y="-36.5" font-family="Helvetica,sans-Serif" font-size="10.00">cv::cudev::maximum&lt; T &gt;</text>
<text text-anchor="start" x="68" y="-21.5" font-family="Helvetica,sans-Serif" font-size="10.00"> </text>
<text text-anchor="start" x="19.5" y="-6.5" font-family="Helvetica,sans-Serif" font-size="10.00">+</text>
<text text-anchor="start" x="48" y="-6.5" font-family="Helvetica,sans-Serif" font-size="10.00">operator()()</text>
<polygon fill="#666666" stroke="#666666" points="0,-31.5 0,-31.5 140,-31.5 140,-31.5 0,-31.5"/>
<polygon fill="#666666" stroke="#666666" points="0,-16.5 0,-16.5 140,-16.5 140,-16.5 0,-16.5"/>
<polygon fill="none" stroke="#666666" points="0,0 0,-49 140,-49 140,0 0,0"/>
</a>
</g>
</g>
<!-- Node2 -->
<g id="Node000002" class="node">
<title>Node2</title>
<g id="a_Node000002"><a xlink:title=" ">
<polygon fill="white" stroke="transparent" points="138.5,-146 1.5,-146 1.5,-86 138.5,-86 138.5,-146"/>
<text text-anchor="start" x="7" y="-134" font-family="Helvetica,sans-Serif" font-size="10.00">cv::cudev::binary_function</text>
<text text-anchor="start" x="44" y="-123" font-family="Helvetica,sans-Serif" font-size="10.00">&lt; T, T, T &gt;</text>
<text text-anchor="start" x="68.5" y="-108" font-family="Helvetica,sans-Serif" font-size="10.00"> </text>
<text text-anchor="start" x="68.5" y="-93" font-family="Helvetica,sans-Serif" font-size="10.00"> </text>
<polygon fill="#666666" stroke="#666666" points="2,-118 2,-118 139,-118 139,-118 2,-118"/>
<polygon fill="#666666" stroke="#666666" points="2,-103 2,-103 139,-103 139,-103 2,-103"/>
<polygon fill="none" stroke="#666666" points="1.5,-86 1.5,-146 138.5,-146 138.5,-86 1.5,-86"/>
</a>
</g>
</g>
<!-- Node2&#45;&gt;Node1 -->
<g id="edge1_Node000001_Node000002" class="edge">
<title>Node2&#45;&gt;Node1</title>
<g id="a_edge1_Node000001_Node000002"><a xlink:title=" ">
<path fill="none" stroke="#63b8ff" d="M70,-75.41C70,-66.47 70,-57.25 70,-49.21"/>
<polygon fill="none" stroke="#63b8ff" points="66.5,-75.69 70,-85.69 73.5,-75.69 66.5,-75.69"/>
</a>
</g>
</g>
<!-- Node3 -->
<g id="Node000003" class="node">
<title>Node3</title>
<g id="a_Node000003"><a xlink:href="../../d6/ddf/structcv_1_1cudev_1_1binary__function.html" target="_top" xlink:title=" ">
<polygon fill="white" stroke="transparent" points="138.5,-253 1.5,-253 1.5,-193 138.5,-193 138.5,-253"/>
<text text-anchor="start" x="7" y="-241" font-family="Helvetica,sans-Serif" font-size="10.00">cv::cudev::binary_function</text>
<text text-anchor="start" x="7" y="-230" font-family="Helvetica,sans-Serif" font-size="10.00">&lt; _Arg1, _Arg2, _Result &gt;</text>
<text text-anchor="start" x="68.5" y="-215" font-family="Helvetica,sans-Serif" font-size="10.00"> </text>
<text text-anchor="start" x="68.5" y="-200" font-family="Helvetica,sans-Serif" font-size="10.00"> </text>
<polygon fill="#666666" stroke="#666666" points="2,-225 2,-225 139,-225 139,-225 2,-225"/>
<polygon fill="#666666" stroke="#666666" points="2,-210 2,-210 139,-210 139,-210 2,-210"/>
<polygon fill="none" stroke="#666666" points="1.5,-193 1.5,-253 138.5,-253 138.5,-193 1.5,-193"/>
</a>
</g>
</g>
<!-- Node3&#45;&gt;Node2 -->
<g id="edge2_Node000002_Node000003" class="edge">
<title>Node3&#45;&gt;Node2</title>
<g id="a_edge2_Node000002_Node000003"><a xlink:title=" ">
<path fill="none" stroke="orange" d="M70,-182.46C70,-170.39 70,-157.34 70,-146.09"/>
<polygon fill="orange" stroke="orange" points="66.5,-182.75 70,-192.75 73.5,-182.75 66.5,-182.75"/>
</a>
</g>
<text text-anchor="middle" x="98" y="-167" font-family="Helvetica,sans-Serif" font-size="10.00" fill="grey"> &lt; T, T, T &gt;</text>
</g>
</g>
</svg>
