<?xml version="1.0" encoding="UTF-8" standalone="no"?>
<!DOCTYPE svg PUBLIC "-//W3C//DTD SVG 1.1//EN"
 "http://www.w3.org/Graphics/SVG/1.1/DTD/svg11.dtd">
<!-- Generated by graphviz version 2.43.0 (0)
 -->
<!-- Title: cv::legacy::MultiTracker_Alt Pages: 1 -->
<svg width="558pt" height="2252pt"
 viewBox="0.00 0.00 557.50 2252.00" xmlns="http://www.w3.org/2000/svg" xmlns:xlink="http://www.w3.org/1999/xlink">
<g id="graph0" class="graph" transform="scale(1 1) rotate(0) translate(4 2248)">
<title>cv::legacy::MultiTracker_Alt</title>
<!-- Node1 -->
<g id="Node000001" class="node">
<title>Node1</title>
<g id="a_Node000001"><a xlink:title="Base abstract class for the long&#45;term Multi Object Trackers:">
<polygon fill="#999999" stroke="transparent" points="295,-79 152,-79 152,0 295,0 295,-79"/>
<text text-anchor="start" x="157.5" y="-66.5" font-family="Helvetica,sans-Serif" font-size="10.00">cv::legacy::MultiTracker_Alt</text>
<text text-anchor="start" x="222" y="-51.5" font-family="Helvetica,sans-Serif" font-size="10.00"> </text>
<text text-anchor="start" x="165.5" y="-36.5" font-family="Helvetica,sans-Serif" font-size="10.00">+</text>
<text text-anchor="start" x="187.5" y="-36.5" font-family="Helvetica,sans-Serif" font-size="10.00">MultiTracker_Alt()</text>
<text text-anchor="start" x="165.5" y="-21.5" font-family="Helvetica,sans-Serif" font-size="10.00">+</text>
<text text-anchor="start" x="187.5" y="-21.5" font-family="Helvetica,sans-Serif" font-size="10.00">addTarget()</text>
<text text-anchor="start" x="165.5" y="-6.5" font-family="Helvetica,sans-Serif" font-size="10.00">+</text>
<text text-anchor="start" x="187.5" y="-6.5" font-family="Helvetica,sans-Serif" font-size="10.00">update()</text>
<polygon fill="#666666" stroke="#666666" points="152.5,-61.5 152.5,-61.5 295.5,-61.5 295.5,-61.5 152.5,-61.5"/>
<polygon fill="#666666" stroke="#666666" points="152.5,-46.5 152.5,-46.5 295.5,-46.5 295.5,-46.5 152.5,-46.5"/>
<polygon fill="none" stroke="#666666" points="152,0 152,-79 295,-79 295,0 152,0"/>
</a>
</g>
</g>
<!-- Node2 -->
<g id="Node000002" class="node">
<title>Node2</title>
<g id="a_Node000002"><a xlink:title=" ">
<polygon fill="white" stroke="transparent" points="73,-180.5 50,-180.5 50,-131.5 73,-131.5 73,-180.5"/>
<text text-anchor="start" x="55.5" y="-168" font-family="Helvetica,sans-Serif" font-size="10.00">int</text>
<text text-anchor="start" x="60" y="-153" font-family="Helvetica,sans-Serif" font-size="10.00"> </text>
<text text-anchor="start" x="60" y="-138" font-family="Helvetica,sans-Serif" font-size="10.00"> </text>
<polygon fill="#666666" stroke="#666666" points="50.5,-163 50.5,-163 73.5,-163 73.5,-163 50.5,-163"/>
<polygon fill="#666666" stroke="#666666" points="50.5,-148 50.5,-148 73.5,-148 73.5,-148 50.5,-148"/>
<polygon fill="none" stroke="#666666" points="50,-131.5 50,-180.5 73,-180.5 73,-131.5 50,-131.5"/>
</a>
</g>
</g>
<!-- Node2&#45;&gt;Node1 -->
<g id="edge1_Node000001_Node000002" class="edge">
<title>Node2&#45;&gt;Node1</title>
<g id="a_edge1_Node000001_Node000002"><a xlink:title=" ">
<path fill="none" stroke="#63b8ff" d="M73.19,-136.76C75.79,-133.09 78.63,-129.34 81.5,-126 93.82,-111.71 97.05,-107.83 112.5,-97 121.47,-90.71 131.24,-84.7 141.14,-79.1"/>
<polygon fill="none" stroke="#63b8ff" points="141.38,-78.96 144.72,-72.57 151.9,-73.19 148.57,-79.58 141.38,-78.96"/>
</a>
</g>
<text text-anchor="middle" x="144.5" y="-100" font-family="Helvetica,sans-Serif" font-size="10.00" fill="grey"> +targetNum</text>
</g>
<!-- Node3 -->
<g id="Node000003" class="node">
<title>Node3</title>
<g id="a_Node000003"><a xlink:title=" ">
<polygon fill="white" stroke="transparent" points="202,-186 91,-186 91,-126 202,-126 202,-186"/>
<text text-anchor="start" x="96.5" y="-174" font-family="Helvetica,sans-Serif" font-size="10.00">std::vector&lt; Ptr&lt; cv</text>
<text text-anchor="start" x="96.5" y="-163" font-family="Helvetica,sans-Serif" font-size="10.00">::legacy::Tracker &gt; &gt;</text>
<text text-anchor="start" x="145" y="-148" font-family="Helvetica,sans-Serif" font-size="10.00"> </text>
<text text-anchor="start" x="145" y="-133" font-family="Helvetica,sans-Serif" font-size="10.00"> </text>
<polygon fill="#666666" stroke="#666666" points="91.5,-158 91.5,-158 202.5,-158 202.5,-158 91.5,-158"/>
<polygon fill="#666666" stroke="#666666" points="91.5,-143 91.5,-143 202.5,-143 202.5,-143 91.5,-143"/>
<polygon fill="none" stroke="#666666" points="91,-126 91,-186 202,-186 202,-126 91,-126"/>
</a>
</g>
</g>
<!-- Node3&#45;&gt;Node1 -->
<g id="edge2_Node000001_Node000003" class="edge">
<title>Node3&#45;&gt;Node1</title>
<g id="a_edge2_Node000001_Node000003"><a xlink:title=" ">
<path fill="none" stroke="#63b8ff" d="M166.13,-125.81C173.58,-114.73 182.28,-101.79 190.62,-89.39"/>
<polygon fill="none" stroke="#63b8ff" points="190.81,-89.11 190.84,-81.9 197.51,-79.15 197.48,-86.36 190.81,-89.11"/>
</a>
</g>
<text text-anchor="middle" x="211" y="-100" font-family="Helvetica,sans-Serif" font-size="10.00" fill="grey"> +trackers</text>
</g>
<!-- Node4 -->
<g id="Node000004" class="node">
<title>Node4</title>
<g id="a_Node000004"><a xlink:title=" ">
<polygon fill="white" stroke="transparent" points="135,-383 0,-383 0,-334 135,-334 135,-383"/>
<text text-anchor="start" x="5.5" y="-370.5" font-family="Helvetica,sans-Serif" font-size="10.00">Ptr&lt; cv::legacy::Tracker &gt;</text>
<text text-anchor="start" x="66" y="-355.5" font-family="Helvetica,sans-Serif" font-size="10.00"> </text>
<text text-anchor="start" x="66" y="-340.5" font-family="Helvetica,sans-Serif" font-size="10.00"> </text>
<polygon fill="#666666" stroke="#666666" points="0.5,-365.5 0.5,-365.5 135.5,-365.5 135.5,-365.5 0.5,-365.5"/>
<polygon fill="#666666" stroke="#666666" points="0.5,-350.5 0.5,-350.5 135.5,-350.5 135.5,-350.5 0.5,-350.5"/>
<polygon fill="none" stroke="#666666" points="0,-334 0,-383 135,-383 135,-334 0,-334"/>
</a>
</g>
</g>
<!-- Node4&#45;&gt;Node3 -->
<g id="edge3_Node000003_Node000004" class="edge">
<title>Node4&#45;&gt;Node3</title>
<g id="a_edge3_Node000003_Node000004"><a xlink:title=" ">
<path fill="none" stroke="#63b8ff" d="M66.28,-333.77C65.7,-302.13 68.42,-245.33 91.5,-204 93.19,-200.97 95.16,-198.04 97.33,-195.23"/>
<polygon fill="none" stroke="#63b8ff" points="97.39,-195.16 98.37,-188.02 105.34,-186.17 104.36,-193.31 97.39,-195.16"/>
</a>
</g>
<text text-anchor="middle" x="120.5" y="-212.5" font-family="Helvetica,sans-Serif" font-size="10.00" fill="grey"> +elements</text>
</g>
<!-- Node5 -->
<g id="Node000005" class="node">
<title>Node5</title>
<g id="a_Node000005"><a xlink:title=" ">
<polygon fill="white" stroke="transparent" points="359,-383 268,-383 268,-334 359,-334 359,-383"/>
<text text-anchor="start" x="273.5" y="-370.5" font-family="Helvetica,sans-Serif" font-size="10.00">std::vector&lt; T &gt;</text>
<text text-anchor="start" x="312" y="-355.5" font-family="Helvetica,sans-Serif" font-size="10.00"> </text>
<text text-anchor="start" x="312" y="-340.5" font-family="Helvetica,sans-Serif" font-size="10.00"> </text>
<polygon fill="#666666" stroke="#666666" points="268.5,-365.5 268.5,-365.5 359.5,-365.5 359.5,-365.5 268.5,-365.5"/>
<polygon fill="#666666" stroke="#666666" points="268.5,-350.5 268.5,-350.5 359.5,-350.5 359.5,-350.5 268.5,-350.5"/>
<polygon fill="none" stroke="#666666" points="268,-334 268,-383 359,-383 359,-334 268,-334"/>
</a>
</g>
</g>
<!-- Node5&#45;&gt;Node3 -->
<g id="edge4_Node000003_Node000005" class="edge">
<title>Node5&#45;&gt;Node3</title>
<g id="a_edge4_Node000003_Node000005"><a xlink:title=" ">
<path fill="none" stroke="orange" d="M282.77,-326.38C257.71,-300.41 221.93,-261.97 193.5,-226 183.52,-213.38 173.36,-198.73 165.05,-186.18"/>
<polygon fill="orange" stroke="orange" points="280.39,-328.95 289.86,-333.69 285.41,-324.08 280.39,-328.95"/>
</a>
</g>
<text text-anchor="start" x="193.5" y="-218" font-family="Helvetica,sans-Serif" font-size="10.00" fill="grey"> &lt; Ptr&lt; cv::legacy::</text>
<text text-anchor="middle" x="240.5" y="-207" font-family="Helvetica,sans-Serif" font-size="10.00" fill="grey">Tracker &gt; &gt;</text>
</g>
<!-- Node7 -->
<g id="Node000007" class="node">
<title>Node7</title>
<g id="a_Node000007"><a xlink:title=" ">
<polygon fill="white" stroke="transparent" points="348.5,-180.5 220.5,-180.5 220.5,-131.5 348.5,-131.5 348.5,-180.5"/>
<text text-anchor="start" x="225.5" y="-168" font-family="Helvetica,sans-Serif" font-size="10.00">std::vector&lt; cv::Rect_ &gt;</text>
<text text-anchor="start" x="282.5" y="-153" font-family="Helvetica,sans-Serif" font-size="10.00"> </text>
<text text-anchor="start" x="282.5" y="-138" font-family="Helvetica,sans-Serif" font-size="10.00"> </text>
<polygon fill="#666666" stroke="#666666" points="220.5,-163 220.5,-163 348.5,-163 348.5,-163 220.5,-163"/>
<polygon fill="#666666" stroke="#666666" points="220.5,-148 220.5,-148 348.5,-148 348.5,-148 220.5,-148"/>
<polygon fill="none" stroke="#666666" points="220.5,-131.5 220.5,-180.5 348.5,-180.5 348.5,-131.5 220.5,-131.5"/>
</a>
</g>
</g>
<!-- Node5&#45;&gt;Node7 -->
<g id="edge9_Node000007_Node000005" class="edge">
<title>Node5&#45;&gt;Node7</title>
<g id="a_edge9_Node000007_Node000005"><a xlink:title=" ">
<path fill="none" stroke="orange" d="M308.69,-323.54C304.27,-292.43 297.51,-245.11 291.5,-204 290.4,-196.49 289.19,-188.31 288.09,-180.91"/>
<polygon fill="orange" stroke="orange" points="305.28,-324.42 310.15,-333.83 312.21,-323.43 305.28,-324.42"/>
</a>
</g>
<text text-anchor="middle" x="330.5" y="-212.5" font-family="Helvetica,sans-Serif" font-size="10.00" fill="grey"> &lt; cv::Rect_ &gt;</text>
</g>
<!-- Node10 -->
<g id="Node000010" class="node">
<title>Node10</title>
<g id="a_Node000010"><a xlink:title=" ">
<polygon fill="white" stroke="transparent" points="504,-180.5 367,-180.5 367,-131.5 504,-131.5 504,-180.5"/>
<text text-anchor="start" x="372.5" y="-168" font-family="Helvetica,sans-Serif" font-size="10.00">std::vector&lt; cv::Scalar_ &gt;</text>
<text text-anchor="start" x="434" y="-153" font-family="Helvetica,sans-Serif" font-size="10.00"> </text>
<text text-anchor="start" x="434" y="-138" font-family="Helvetica,sans-Serif" font-size="10.00"> </text>
<polygon fill="#666666" stroke="#666666" points="367.5,-163 367.5,-163 504.5,-163 504.5,-163 367.5,-163"/>
<polygon fill="#666666" stroke="#666666" points="367.5,-148 367.5,-148 504.5,-148 504.5,-148 367.5,-148"/>
<polygon fill="none" stroke="#666666" points="367,-131.5 367,-180.5 504,-180.5 504,-131.5 367,-131.5"/>
</a>
</g>
</g>
<!-- Node5&#45;&gt;Node10 -->
<g id="edge19_Node000010_Node000005" class="edge">
<title>Node5&#45;&gt;Node10</title>
<g id="a_edge19_Node000010_Node000005"><a xlink:title=" ">
<path fill="none" stroke="orange" d="M331.68,-325.05C349.43,-293.72 377.5,-245.11 403.5,-204 408.36,-196.32 413.85,-188.1 418.91,-180.7"/>
<polygon fill="orange" stroke="orange" points="328.61,-323.37 326.74,-333.8 334.7,-326.81 328.61,-323.37"/>
</a>
</g>
<text text-anchor="middle" x="442.5" y="-212.5" font-family="Helvetica,sans-Serif" font-size="10.00" fill="grey"> &lt; cv::Scalar_ &gt;</text>
</g>
<!-- Node6 -->
<g id="Node000006" class="node">
<title>Node6</title>
<g id="a_Node000006"><a xlink:title=" ">
<polygon fill="white" stroke="transparent" points="322,-696.5 305,-696.5 305,-647.5 322,-647.5 322,-696.5"/>
<text text-anchor="start" x="310.5" y="-684" font-family="Helvetica,sans-Serif" font-size="10.00">T</text>
<text text-anchor="start" x="312" y="-669" font-family="Helvetica,sans-Serif" font-size="10.00"> </text>
<text text-anchor="start" x="312" y="-654" font-family="Helvetica,sans-Serif" font-size="10.00"> </text>
<polygon fill="#666666" stroke="#666666" points="305.5,-679 305.5,-679 322.5,-679 322.5,-679 305.5,-679"/>
<polygon fill="#666666" stroke="#666666" points="305.5,-664 305.5,-664 322.5,-664 322.5,-664 305.5,-664"/>
<polygon fill="none" stroke="#666666" points="305,-647.5 305,-696.5 322,-696.5 322,-647.5 305,-647.5"/>
</a>
</g>
</g>
<!-- Node6&#45;&gt;Node5 -->
<g id="edge5_Node000005_Node000006" class="edge">
<title>Node6&#45;&gt;Node5</title>
<g id="a_edge5_Node000005_Node000006"><a xlink:title=" ">
<path fill="none" stroke="#63b8ff" d="M313.5,-647.33C313.5,-593.14 313.5,-459.77 313.5,-395.41"/>
<polygon fill="none" stroke="#63b8ff" points="313.5,-395.13 309.5,-389.13 313.5,-383.13 317.5,-389.13 313.5,-395.13"/>
</a>
</g>
<text text-anchor="middle" x="342.5" y="-494" font-family="Helvetica,sans-Serif" font-size="10.00" fill="grey"> +elements</text>
</g>
<!-- Node7&#45;&gt;Node1 -->
<g id="edge6_Node000001_Node000007" class="edge">
<title>Node7&#45;&gt;Node1</title>
<g id="a_edge6_Node000001_Node000007"><a xlink:title=" ">
<path fill="none" stroke="#63b8ff" d="M271.86,-131.28C265.46,-119.27 257.45,-104.23 249.8,-89.86"/>
<polygon fill="none" stroke="#63b8ff" points="249.69,-89.66 243.34,-86.24 244.05,-79.07 250.4,-82.48 249.69,-89.66"/>
</a>
</g>
<text text-anchor="middle" x="301.5" y="-100" font-family="Helvetica,sans-Serif" font-size="10.00" fill="grey"> +boundingBoxes</text>
</g>
<!-- Node8 -->
<g id="Node000008" class="node">
<title>Node8</title>
<g id="a_Node000008"><a xlink:href="../../d2/d44/classcv_1_1Rect__.html" target="_top" xlink:title="Template class for 2D rectangles.">
<polygon fill="white" stroke="transparent" points="247.5,-1793 101.5,-1793 101.5,-1534 247.5,-1534 247.5,-1793"/>
<text text-anchor="start" x="132.5" y="-1780.5" font-family="Helvetica,sans-Serif" font-size="10.00">cv::Rect_&lt; _Tp &gt;</text>
<text text-anchor="start" x="172.5" y="-1765.5" font-family="Helvetica,sans-Serif" font-size="10.00"> </text>
<text text-anchor="start" x="105.5" y="-1750.5" font-family="Helvetica,sans-Serif" font-size="10.00">+</text>
<text text-anchor="start" x="118.5" y="-1750.5" font-family="Helvetica,sans-Serif" font-size="10.00">Rect_()</text>
<text text-anchor="start" x="105.5" y="-1735.5" font-family="Helvetica,sans-Serif" font-size="10.00">+</text>
<text text-anchor="start" x="118.5" y="-1735.5" font-family="Helvetica,sans-Serif" font-size="10.00">Rect_()</text>
<text text-anchor="start" x="105.5" y="-1720.5" font-family="Helvetica,sans-Serif" font-size="10.00">+</text>
<text text-anchor="start" x="118.5" y="-1720.5" font-family="Helvetica,sans-Serif" font-size="10.00">Rect_()</text>
<text text-anchor="start" x="105.5" y="-1705.5" font-family="Helvetica,sans-Serif" font-size="10.00">+</text>
<text text-anchor="start" x="118.5" y="-1705.5" font-family="Helvetica,sans-Serif" font-size="10.00">Rect_()</text>
<text text-anchor="start" x="105.5" y="-1690.5" font-family="Helvetica,sans-Serif" font-size="10.00">+</text>
<text text-anchor="start" x="118.5" y="-1690.5" font-family="Helvetica,sans-Serif" font-size="10.00">Rect_()</text>
<text text-anchor="start" x="105.5" y="-1675.5" font-family="Helvetica,sans-Serif" font-size="10.00">+</text>
<text text-anchor="start" x="118.5" y="-1675.5" font-family="Helvetica,sans-Serif" font-size="10.00">Rect_()</text>
<text text-anchor="start" x="105.5" y="-1660.5" font-family="Helvetica,sans-Serif" font-size="10.00">+</text>
<text text-anchor="start" x="118.5" y="-1660.5" font-family="Helvetica,sans-Serif" font-size="10.00">area()</text>
<text text-anchor="start" x="105.5" y="-1645.5" font-family="Helvetica,sans-Serif" font-size="10.00">+</text>
<text text-anchor="start" x="118.5" y="-1645.5" font-family="Helvetica,sans-Serif" font-size="10.00">br()</text>
<text text-anchor="start" x="105.5" y="-1630.5" font-family="Helvetica,sans-Serif" font-size="10.00">+</text>
<text text-anchor="start" x="118.5" y="-1630.5" font-family="Helvetica,sans-Serif" font-size="10.00">contains()</text>
<text text-anchor="start" x="105.5" y="-1615.5" font-family="Helvetica,sans-Serif" font-size="10.00">+</text>
<text text-anchor="start" x="118.5" y="-1615.5" font-family="Helvetica,sans-Serif" font-size="10.00">empty()</text>
<text text-anchor="start" x="105.5" y="-1600.5" font-family="Helvetica,sans-Serif" font-size="10.00">+</text>
<text text-anchor="start" x="118.5" y="-1600.5" font-family="Helvetica,sans-Serif" font-size="10.00">operator Rect_&lt; _Tp2 &gt;()</text>
<text text-anchor="start" x="105.5" y="-1585.5" font-family="Helvetica,sans-Serif" font-size="10.00">+</text>
<text text-anchor="start" x="118.5" y="-1585.5" font-family="Helvetica,sans-Serif" font-size="10.00">operator=()</text>
<text text-anchor="start" x="105.5" y="-1570.5" font-family="Helvetica,sans-Serif" font-size="10.00">+</text>
<text text-anchor="start" x="118.5" y="-1570.5" font-family="Helvetica,sans-Serif" font-size="10.00">operator=()</text>
<text text-anchor="start" x="105.5" y="-1555.5" font-family="Helvetica,sans-Serif" font-size="10.00">+</text>
<text text-anchor="start" x="118.5" y="-1555.5" font-family="Helvetica,sans-Serif" font-size="10.00">size()</text>
<text text-anchor="start" x="105.5" y="-1540.5" font-family="Helvetica,sans-Serif" font-size="10.00">+</text>
<text text-anchor="start" x="118.5" y="-1540.5" font-family="Helvetica,sans-Serif" font-size="10.00">tl()</text>
<polygon fill="#666666" stroke="#666666" points="101.5,-1775.5 101.5,-1775.5 247.5,-1775.5 247.5,-1775.5 101.5,-1775.5"/>
<polygon fill="#666666" stroke="#666666" points="101.5,-1760.5 101.5,-1760.5 247.5,-1760.5 247.5,-1760.5 101.5,-1760.5"/>
<polygon fill="none" stroke="#666666" points="101.5,-1534 101.5,-1793 247.5,-1793 247.5,-1534 101.5,-1534"/>
</a>
</g>
</g>
<!-- Node8&#45;&gt;Node7 -->
<g id="edge7_Node000007_Node000008" class="edge">
<title>Node8&#45;&gt;Node7</title>
<g id="a_edge7_Node000007_Node000008"><a xlink:title=" ">
<path fill="none" stroke="#63b8ff" d="M169.85,-1533.76C166.85,-1439.65 163.5,-1308.92 163.5,-1194 163.5,-1194 163.5,-1194 163.5,-357.5 163.5,-288.99 137.48,-259.6 177.5,-204 180.26,-200.16 195.19,-192.89 213.06,-185.2"/>
<polygon fill="none" stroke="#63b8ff" points="213.12,-185.17 217.09,-179.15 224.17,-180.51 220.2,-186.53 213.12,-185.17"/>
</a>
</g>
<text text-anchor="middle" x="192.5" y="-845" font-family="Helvetica,sans-Serif" font-size="10.00" fill="grey"> +elements</text>
</g>
<!-- Node9 -->
<g id="Node000009" class="node">
<title>Node9</title>
<g id="a_Node000009"><a xlink:href="../../d1/dd7/class__Tp.html" target="_top" xlink:title=" ">
<polygon fill="white" stroke="transparent" points="284.5,-2244 256.5,-2244 256.5,-2195 284.5,-2195 284.5,-2244"/>
<text text-anchor="start" x="261.5" y="-2231.5" font-family="Helvetica,sans-Serif" font-size="10.00">_Tp</text>
<text text-anchor="start" x="268.5" y="-2216.5" font-family="Helvetica,sans-Serif" font-size="10.00"> </text>
<text text-anchor="start" x="268.5" y="-2201.5" font-family="Helvetica,sans-Serif" font-size="10.00"> </text>
<polygon fill="#666666" stroke="#666666" points="256.5,-2226.5 256.5,-2226.5 284.5,-2226.5 284.5,-2226.5 256.5,-2226.5"/>
<polygon fill="#666666" stroke="#666666" points="256.5,-2211.5 256.5,-2211.5 284.5,-2211.5 284.5,-2211.5 256.5,-2211.5"/>
<polygon fill="none" stroke="#666666" points="256.5,-2195 256.5,-2244 284.5,-2244 284.5,-2195 256.5,-2195"/>
</a>
</g>
</g>
<!-- Node9&#45;&gt;Node8 -->
<g id="edge8_Node000008_Node000009" class="edge">
<title>Node9&#45;&gt;Node8</title>
<g id="a_edge8_Node000008_Node000009"><a xlink:title=" ">
<path fill="none" stroke="#63b8ff" d="M256.42,-2209.08C246.05,-2201.5 232.28,-2189.99 223.5,-2177 207.13,-2152.77 207.32,-2143.65 201.5,-2115 180.73,-2012.78 174.26,-1895.04 172.84,-1805.57"/>
<polygon fill="none" stroke="#63b8ff" points="172.84,-1805.41 168.75,-1799.47 172.67,-1793.42 176.75,-1799.36 172.84,-1805.41"/>
</a>
</g>
<text text-anchor="middle" x="245" y="-2169" font-family="Helvetica,sans-Serif" font-size="10.00" fill="grey"> +height</text>
<text text-anchor="middle" x="245" y="-2158" font-family="Helvetica,sans-Serif" font-size="10.00" fill="grey">+width</text>
<text text-anchor="middle" x="245" y="-2147" font-family="Helvetica,sans-Serif" font-size="10.00" fill="grey">+x</text>
<text text-anchor="middle" x="245" y="-2136" font-family="Helvetica,sans-Serif" font-size="10.00" fill="grey">+y</text>
</g>
<!-- Node13 -->
<g id="Node000013" class="node">
<title>Node13</title>
<g id="a_Node000013"><a xlink:href="../../de/de1/classcv_1_1Matx.html" target="_top" xlink:title=" ">
<polygon fill="white" stroke="transparent" points="427,-1516 306,-1516 306,-1212 427,-1212 427,-1516"/>
<text text-anchor="start" x="311.5" y="-1504" font-family="Helvetica,sans-Serif" font-size="10.00">cv::Matx&lt; _Tp, cn, 1 &gt;</text>
<text text-anchor="start" x="365" y="-1489" font-family="Helvetica,sans-Serif" font-size="10.00"> </text>
<text text-anchor="start" x="317.5" y="-1474" font-family="Helvetica,sans-Serif" font-size="10.00">+</text>
<text text-anchor="start" x="337.5" y="-1474" font-family="Helvetica,sans-Serif" font-size="10.00">Matx()</text>
<text text-anchor="start" x="317.5" y="-1459" font-family="Helvetica,sans-Serif" font-size="10.00">+</text>
<text text-anchor="start" x="337.5" y="-1459" font-family="Helvetica,sans-Serif" font-size="10.00">Matx()</text>
<text text-anchor="start" x="317.5" y="-1444" font-family="Helvetica,sans-Serif" font-size="10.00">+</text>
<text text-anchor="start" x="337.5" y="-1444" font-family="Helvetica,sans-Serif" font-size="10.00">Matx()</text>
<text text-anchor="start" x="317.5" y="-1429" font-family="Helvetica,sans-Serif" font-size="10.00">+</text>
<text text-anchor="start" x="337.5" y="-1429" font-family="Helvetica,sans-Serif" font-size="10.00">Matx()</text>
<text text-anchor="start" x="317.5" y="-1414" font-family="Helvetica,sans-Serif" font-size="10.00">+</text>
<text text-anchor="start" x="337.5" y="-1414" font-family="Helvetica,sans-Serif" font-size="10.00">Matx()</text>
<text text-anchor="start" x="317.5" y="-1399" font-family="Helvetica,sans-Serif" font-size="10.00">+</text>
<text text-anchor="start" x="337.5" y="-1399" font-family="Helvetica,sans-Serif" font-size="10.00">Matx()</text>
<text text-anchor="start" x="317.5" y="-1384" font-family="Helvetica,sans-Serif" font-size="10.00">+</text>
<text text-anchor="start" x="337.5" y="-1384" font-family="Helvetica,sans-Serif" font-size="10.00">Matx()</text>
<text text-anchor="start" x="317.5" y="-1369" font-family="Helvetica,sans-Serif" font-size="10.00">+</text>
<text text-anchor="start" x="337.5" y="-1369" font-family="Helvetica,sans-Serif" font-size="10.00">Matx()</text>
<text text-anchor="start" x="317.5" y="-1354" font-family="Helvetica,sans-Serif" font-size="10.00">+</text>
<text text-anchor="start" x="337.5" y="-1354" font-family="Helvetica,sans-Serif" font-size="10.00">Matx()</text>
<text text-anchor="start" x="317.5" y="-1339" font-family="Helvetica,sans-Serif" font-size="10.00">+</text>
<text text-anchor="start" x="337.5" y="-1339" font-family="Helvetica,sans-Serif" font-size="10.00">Matx()</text>
<text text-anchor="start" x="337.5" y="-1324" font-family="Helvetica,sans-Serif" font-size="10.00">and 31 more...</text>
<text text-anchor="start" x="317.5" y="-1309" font-family="Helvetica,sans-Serif" font-size="10.00">+</text>
<text text-anchor="start" x="337.5" y="-1309" font-family="Helvetica,sans-Serif" font-size="10.00">all()</text>
<text text-anchor="start" x="317.5" y="-1294" font-family="Helvetica,sans-Serif" font-size="10.00">+</text>
<text text-anchor="start" x="337.5" y="-1294" font-family="Helvetica,sans-Serif" font-size="10.00">diag()</text>
<text text-anchor="start" x="317.5" y="-1279" font-family="Helvetica,sans-Serif" font-size="10.00">+</text>
<text text-anchor="start" x="337.5" y="-1279" font-family="Helvetica,sans-Serif" font-size="10.00">eye()</text>
<text text-anchor="start" x="317.5" y="-1264" font-family="Helvetica,sans-Serif" font-size="10.00">+</text>
<text text-anchor="start" x="337.5" y="-1264" font-family="Helvetica,sans-Serif" font-size="10.00">ones()</text>
<text text-anchor="start" x="317.5" y="-1249" font-family="Helvetica,sans-Serif" font-size="10.00">+</text>
<text text-anchor="start" x="337.5" y="-1249" font-family="Helvetica,sans-Serif" font-size="10.00">randn()</text>
<text text-anchor="start" x="317.5" y="-1234" font-family="Helvetica,sans-Serif" font-size="10.00">+</text>
<text text-anchor="start" x="337.5" y="-1234" font-family="Helvetica,sans-Serif" font-size="10.00">randu()</text>
<text text-anchor="start" x="317.5" y="-1219" font-family="Helvetica,sans-Serif" font-size="10.00">+</text>
<text text-anchor="start" x="337.5" y="-1219" font-family="Helvetica,sans-Serif" font-size="10.00">zeros()</text>
<polygon fill="#666666" stroke="#666666" points="306.5,-1499 306.5,-1499 427.5,-1499 427.5,-1499 306.5,-1499"/>
<polygon fill="#666666" stroke="#666666" points="306.5,-1484 306.5,-1484 427.5,-1484 427.5,-1484 306.5,-1484"/>
<polygon fill="none" stroke="#666666" points="306,-1212 306,-1516 427,-1516 427,-1212 306,-1212"/>
</a>
</g>
</g>
<!-- Node9&#45;&gt;Node13 -->
<g id="edge14_Node000013_Node000009" class="edge">
<title>Node9&#45;&gt;Node13</title>
<g id="a_edge14_Node000013_Node000009"><a xlink:title=" ">
<path fill="none" stroke="#63b8ff" d="M284.72,-2203.53C301.58,-2184.64 328.76,-2150.33 339.5,-2115 398.76,-1920.04 395.69,-1683.39 384.33,-1528.74"/>
<polygon fill="none" stroke="#63b8ff" points="384.3,-1528.32 379.86,-1522.64 383.39,-1516.35 387.84,-1522.03 384.3,-1528.32"/>
</a>
</g>
<text text-anchor="middle" x="401" y="-1960.5" font-family="Helvetica,sans-Serif" font-size="10.00" fill="grey"> +val</text>
</g>
<!-- Node14 -->
<g id="Node000014" class="node">
<title>Node14</title>
<g id="a_Node000014"><a xlink:href="../../de/de1/classcv_1_1Matx.html" target="_top" xlink:title="Template class for small matrices whose type and size are known at compilation time.">
<polygon fill="white" stroke="transparent" points="330,-2115 211,-2115 211,-1811 330,-1811 330,-2115"/>
<text text-anchor="start" x="216.5" y="-2103" font-family="Helvetica,sans-Serif" font-size="10.00">cv::Matx&lt; _Tp, m, n &gt;</text>
<text text-anchor="start" x="269" y="-2088" font-family="Helvetica,sans-Serif" font-size="10.00"> </text>
<text text-anchor="start" x="222" y="-2073" font-family="Helvetica,sans-Serif" font-size="10.00">+</text>
<text text-anchor="start" x="241.5" y="-2073" font-family="Helvetica,sans-Serif" font-size="10.00">Matx()</text>
<text text-anchor="start" x="222" y="-2058" font-family="Helvetica,sans-Serif" font-size="10.00">+</text>
<text text-anchor="start" x="241.5" y="-2058" font-family="Helvetica,sans-Serif" font-size="10.00">Matx()</text>
<text text-anchor="start" x="222" y="-2043" font-family="Helvetica,sans-Serif" font-size="10.00">+</text>
<text text-anchor="start" x="241.5" y="-2043" font-family="Helvetica,sans-Serif" font-size="10.00">Matx()</text>
<text text-anchor="start" x="222" y="-2028" font-family="Helvetica,sans-Serif" font-size="10.00">+</text>
<text text-anchor="start" x="241.5" y="-2028" font-family="Helvetica,sans-Serif" font-size="10.00">Matx()</text>
<text text-anchor="start" x="222" y="-2013" font-family="Helvetica,sans-Serif" font-size="10.00">+</text>
<text text-anchor="start" x="241.5" y="-2013" font-family="Helvetica,sans-Serif" font-size="10.00">Matx()</text>
<text text-anchor="start" x="222" y="-1998" font-family="Helvetica,sans-Serif" font-size="10.00">+</text>
<text text-anchor="start" x="241.5" y="-1998" font-family="Helvetica,sans-Serif" font-size="10.00">Matx()</text>
<text text-anchor="start" x="222" y="-1983" font-family="Helvetica,sans-Serif" font-size="10.00">+</text>
<text text-anchor="start" x="241.5" y="-1983" font-family="Helvetica,sans-Serif" font-size="10.00">Matx()</text>
<text text-anchor="start" x="222" y="-1968" font-family="Helvetica,sans-Serif" font-size="10.00">+</text>
<text text-anchor="start" x="241.5" y="-1968" font-family="Helvetica,sans-Serif" font-size="10.00">Matx()</text>
<text text-anchor="start" x="222" y="-1953" font-family="Helvetica,sans-Serif" font-size="10.00">+</text>
<text text-anchor="start" x="241.5" y="-1953" font-family="Helvetica,sans-Serif" font-size="10.00">Matx()</text>
<text text-anchor="start" x="222" y="-1938" font-family="Helvetica,sans-Serif" font-size="10.00">+</text>
<text text-anchor="start" x="241.5" y="-1938" font-family="Helvetica,sans-Serif" font-size="10.00">Matx()</text>
<text text-anchor="start" x="241.5" y="-1923" font-family="Helvetica,sans-Serif" font-size="10.00">and 31 more...</text>
<text text-anchor="start" x="222" y="-1908" font-family="Helvetica,sans-Serif" font-size="10.00">+</text>
<text text-anchor="start" x="241.5" y="-1908" font-family="Helvetica,sans-Serif" font-size="10.00">all()</text>
<text text-anchor="start" x="222" y="-1893" font-family="Helvetica,sans-Serif" font-size="10.00">+</text>
<text text-anchor="start" x="241.5" y="-1893" font-family="Helvetica,sans-Serif" font-size="10.00">diag()</text>
<text text-anchor="start" x="222" y="-1878" font-family="Helvetica,sans-Serif" font-size="10.00">+</text>
<text text-anchor="start" x="241.5" y="-1878" font-family="Helvetica,sans-Serif" font-size="10.00">eye()</text>
<text text-anchor="start" x="222" y="-1863" font-family="Helvetica,sans-Serif" font-size="10.00">+</text>
<text text-anchor="start" x="241.5" y="-1863" font-family="Helvetica,sans-Serif" font-size="10.00">ones()</text>
<text text-anchor="start" x="222" y="-1848" font-family="Helvetica,sans-Serif" font-size="10.00">+</text>
<text text-anchor="start" x="241.5" y="-1848" font-family="Helvetica,sans-Serif" font-size="10.00">randn()</text>
<text text-anchor="start" x="222" y="-1833" font-family="Helvetica,sans-Serif" font-size="10.00">+</text>
<text text-anchor="start" x="241.5" y="-1833" font-family="Helvetica,sans-Serif" font-size="10.00">randu()</text>
<text text-anchor="start" x="222" y="-1818" font-family="Helvetica,sans-Serif" font-size="10.00">+</text>
<text text-anchor="start" x="241.5" y="-1818" font-family="Helvetica,sans-Serif" font-size="10.00">zeros()</text>
<polygon fill="#666666" stroke="#666666" points="211.5,-2098 211.5,-2098 330.5,-2098 330.5,-2098 211.5,-2098"/>
<polygon fill="#666666" stroke="#666666" points="211.5,-2083 211.5,-2083 330.5,-2083 330.5,-2083 211.5,-2083"/>
<polygon fill="none" stroke="#666666" points="211,-1811 211,-2115 330,-2115 330,-1811 211,-1811"/>
</a>
</g>
</g>
<!-- Node9&#45;&gt;Node14 -->
<g id="edge16_Node000014_Node000009" class="edge">
<title>Node9&#45;&gt;Node14</title>
<g id="a_edge16_Node000014_Node000009"><a xlink:title=" ">
<path fill="none" stroke="#63b8ff" d="M270.5,-2194.56C270.5,-2177.76 270.5,-2153.67 270.5,-2127.34"/>
<polygon fill="none" stroke="#63b8ff" points="270.5,-2127.09 266.5,-2121.09 270.5,-2115.09 274.5,-2121.09 270.5,-2127.09"/>
</a>
</g>
<text text-anchor="middle" x="284" y="-2152.5" font-family="Helvetica,sans-Serif" font-size="10.00" fill="grey"> +val</text>
</g>
<!-- Node10&#45;&gt;Node1 -->
<g id="edge10_Node000001_Node000010" class="edge">
<title>Node10&#45;&gt;Node1</title>
<g id="a_edge10_Node000001_Node000010"><a xlink:title=" ">
<path fill="none" stroke="#63b8ff" d="M402.83,-131.38C386.84,-120.3 367.07,-107.3 348.5,-97 335.19,-89.62 320.73,-82.4 306.53,-75.73"/>
<polygon fill="none" stroke="#63b8ff" points="306.12,-75.53 298.99,-76.65 295.23,-70.5 302.35,-69.39 306.12,-75.53"/>
</a>
</g>
<text text-anchor="middle" x="386" y="-100" font-family="Helvetica,sans-Serif" font-size="10.00" fill="grey"> +colors</text>
</g>
<!-- Node11 -->
<g id="Node000011" class="node">
<title>Node11</title>
<g id="a_Node000011"><a xlink:href="../../d1/da0/classcv_1_1Scalar__.html" target="_top" xlink:title="Template class for a 4&#45;element vector derived from Vec.">
<polygon fill="white" stroke="transparent" points="549,-473 406,-473 406,-244 549,-244 549,-473"/>
<text text-anchor="start" x="432" y="-460.5" font-family="Helvetica,sans-Serif" font-size="10.00">cv::Scalar_&lt; _Tp &gt;</text>
<text text-anchor="start" x="476" y="-445.5" font-family="Helvetica,sans-Serif" font-size="10.00"> </text>
<text text-anchor="start" x="410.5" y="-430.5" font-family="Helvetica,sans-Serif" font-size="10.00">+</text>
<text text-anchor="start" x="423.5" y="-430.5" font-family="Helvetica,sans-Serif" font-size="10.00">Scalar_()</text>
<text text-anchor="start" x="410.5" y="-415.5" font-family="Helvetica,sans-Serif" font-size="10.00">+</text>
<text text-anchor="start" x="423.5" y="-415.5" font-family="Helvetica,sans-Serif" font-size="10.00">Scalar_()</text>
<text text-anchor="start" x="410.5" y="-400.5" font-family="Helvetica,sans-Serif" font-size="10.00">+</text>
<text text-anchor="start" x="423.5" y="-400.5" font-family="Helvetica,sans-Serif" font-size="10.00">Scalar_()</text>
<text text-anchor="start" x="410.5" y="-385.5" font-family="Helvetica,sans-Serif" font-size="10.00">+</text>
<text text-anchor="start" x="423.5" y="-385.5" font-family="Helvetica,sans-Serif" font-size="10.00">Scalar_()</text>
<text text-anchor="start" x="410.5" y="-370.5" font-family="Helvetica,sans-Serif" font-size="10.00">+</text>
<text text-anchor="start" x="423.5" y="-370.5" font-family="Helvetica,sans-Serif" font-size="10.00">Scalar_()</text>
<text text-anchor="start" x="410.5" y="-355.5" font-family="Helvetica,sans-Serif" font-size="10.00">+</text>
<text text-anchor="start" x="423.5" y="-355.5" font-family="Helvetica,sans-Serif" font-size="10.00">Scalar_()</text>
<text text-anchor="start" x="410.5" y="-340.5" font-family="Helvetica,sans-Serif" font-size="10.00">+</text>
<text text-anchor="start" x="423.5" y="-340.5" font-family="Helvetica,sans-Serif" font-size="10.00">conj()</text>
<text text-anchor="start" x="410.5" y="-325.5" font-family="Helvetica,sans-Serif" font-size="10.00">+</text>
<text text-anchor="start" x="423.5" y="-325.5" font-family="Helvetica,sans-Serif" font-size="10.00">isReal()</text>
<text text-anchor="start" x="410.5" y="-310.5" font-family="Helvetica,sans-Serif" font-size="10.00">+</text>
<text text-anchor="start" x="423.5" y="-310.5" font-family="Helvetica,sans-Serif" font-size="10.00">mul()</text>
<text text-anchor="start" x="410.5" y="-295.5" font-family="Helvetica,sans-Serif" font-size="10.00">+</text>
<text text-anchor="start" x="423.5" y="-295.5" font-family="Helvetica,sans-Serif" font-size="10.00">operator Scalar_&lt; T2 &gt;()</text>
<text text-anchor="start" x="410.5" y="-280.5" font-family="Helvetica,sans-Serif" font-size="10.00">+</text>
<text text-anchor="start" x="423.5" y="-280.5" font-family="Helvetica,sans-Serif" font-size="10.00">operator=()</text>
<text text-anchor="start" x="410.5" y="-265.5" font-family="Helvetica,sans-Serif" font-size="10.00">+</text>
<text text-anchor="start" x="423.5" y="-265.5" font-family="Helvetica,sans-Serif" font-size="10.00">operator=()</text>
<text text-anchor="start" x="410.5" y="-250.5" font-family="Helvetica,sans-Serif" font-size="10.00">+</text>
<text text-anchor="start" x="423.5" y="-250.5" font-family="Helvetica,sans-Serif" font-size="10.00">all()</text>
<polygon fill="#666666" stroke="#666666" points="406.5,-455.5 406.5,-455.5 549.5,-455.5 549.5,-455.5 406.5,-455.5"/>
<polygon fill="#666666" stroke="#666666" points="406.5,-440.5 406.5,-440.5 549.5,-440.5 549.5,-440.5 406.5,-440.5"/>
<polygon fill="none" stroke="#666666" points="406,-244 406,-473 549,-473 549,-244 406,-244"/>
</a>
</g>
</g>
<!-- Node11&#45;&gt;Node10 -->
<g id="edge11_Node000010_Node000011" class="edge">
<title>Node11&#45;&gt;Node10</title>
<g id="a_edge11_Node000010_Node000011"><a xlink:title=" ">
<path fill="none" stroke="#63b8ff" d="M495.07,-243.88C493.83,-230.1 490.9,-216.49 485.5,-204 483.31,-198.94 480.28,-194.18 476.79,-189.77"/>
<polygon fill="none" stroke="#63b8ff" points="476.61,-189.57 469.62,-187.83 468.54,-180.69 475.54,-182.44 476.61,-189.57"/>
</a>
</g>
<text text-anchor="middle" x="520.5" y="-212.5" font-family="Helvetica,sans-Serif" font-size="10.00" fill="grey"> +elements</text>
</g>
<!-- Node12 -->
<g id="Node000012" class="node">
<title>Node12</title>
<g id="a_Node000012"><a xlink:href="../../d6/dcf/classcv_1_1Vec.html" target="_top" xlink:title=" ">
<polygon fill="white" stroke="transparent" points="493.5,-824 397.5,-824 397.5,-520 493.5,-520 493.5,-824"/>
<text text-anchor="start" x="402.5" y="-812" font-family="Helvetica,sans-Serif" font-size="10.00">cv::Vec&lt; _Tp, 4 &gt;</text>
<text text-anchor="start" x="443.5" y="-797" font-family="Helvetica,sans-Serif" font-size="10.00"> </text>
<text text-anchor="start" x="402.5" y="-782" font-family="Helvetica,sans-Serif" font-size="10.00">+</text>
<text text-anchor="start" x="416.5" y="-782" font-family="Helvetica,sans-Serif" font-size="10.00">Vec()</text>
<text text-anchor="start" x="402.5" y="-767" font-family="Helvetica,sans-Serif" font-size="10.00">+</text>
<text text-anchor="start" x="416.5" y="-767" font-family="Helvetica,sans-Serif" font-size="10.00">Vec()</text>
<text text-anchor="start" x="402.5" y="-752" font-family="Helvetica,sans-Serif" font-size="10.00">+</text>
<text text-anchor="start" x="416.5" y="-752" font-family="Helvetica,sans-Serif" font-size="10.00">Vec()</text>
<text text-anchor="start" x="402.5" y="-737" font-family="Helvetica,sans-Serif" font-size="10.00">+</text>
<text text-anchor="start" x="416.5" y="-737" font-family="Helvetica,sans-Serif" font-size="10.00">Vec()</text>
<text text-anchor="start" x="402.5" y="-722" font-family="Helvetica,sans-Serif" font-size="10.00">+</text>
<text text-anchor="start" x="416.5" y="-722" font-family="Helvetica,sans-Serif" font-size="10.00">Vec()</text>
<text text-anchor="start" x="402.5" y="-707" font-family="Helvetica,sans-Serif" font-size="10.00">+</text>
<text text-anchor="start" x="416.5" y="-707" font-family="Helvetica,sans-Serif" font-size="10.00">Vec()</text>
<text text-anchor="start" x="402.5" y="-692" font-family="Helvetica,sans-Serif" font-size="10.00">+</text>
<text text-anchor="start" x="416.5" y="-692" font-family="Helvetica,sans-Serif" font-size="10.00">Vec()</text>
<text text-anchor="start" x="402.5" y="-677" font-family="Helvetica,sans-Serif" font-size="10.00">+</text>
<text text-anchor="start" x="416.5" y="-677" font-family="Helvetica,sans-Serif" font-size="10.00">Vec()</text>
<text text-anchor="start" x="402.5" y="-662" font-family="Helvetica,sans-Serif" font-size="10.00">+</text>
<text text-anchor="start" x="416.5" y="-662" font-family="Helvetica,sans-Serif" font-size="10.00">Vec()</text>
<text text-anchor="start" x="402.5" y="-647" font-family="Helvetica,sans-Serif" font-size="10.00">+</text>
<text text-anchor="start" x="416.5" y="-647" font-family="Helvetica,sans-Serif" font-size="10.00">Vec()</text>
<text text-anchor="start" x="416.5" y="-632" font-family="Helvetica,sans-Serif" font-size="10.00">and 17 more...</text>
<text text-anchor="start" x="402.5" y="-617" font-family="Helvetica,sans-Serif" font-size="10.00">+</text>
<text text-anchor="start" x="416.5" y="-617" font-family="Helvetica,sans-Serif" font-size="10.00">all()</text>
<text text-anchor="start" x="402.5" y="-602" font-family="Helvetica,sans-Serif" font-size="10.00">+</text>
<text text-anchor="start" x="416.5" y="-602" font-family="Helvetica,sans-Serif" font-size="10.00">diag()</text>
<text text-anchor="start" x="402.5" y="-587" font-family="Helvetica,sans-Serif" font-size="10.00">+</text>
<text text-anchor="start" x="416.5" y="-587" font-family="Helvetica,sans-Serif" font-size="10.00">eye()</text>
<text text-anchor="start" x="402.5" y="-572" font-family="Helvetica,sans-Serif" font-size="10.00">+</text>
<text text-anchor="start" x="416.5" y="-572" font-family="Helvetica,sans-Serif" font-size="10.00">ones()</text>
<text text-anchor="start" x="402.5" y="-557" font-family="Helvetica,sans-Serif" font-size="10.00">+</text>
<text text-anchor="start" x="416.5" y="-557" font-family="Helvetica,sans-Serif" font-size="10.00">randn()</text>
<text text-anchor="start" x="402.5" y="-542" font-family="Helvetica,sans-Serif" font-size="10.00">+</text>
<text text-anchor="start" x="416.5" y="-542" font-family="Helvetica,sans-Serif" font-size="10.00">randu()</text>
<text text-anchor="start" x="402.5" y="-527" font-family="Helvetica,sans-Serif" font-size="10.00">+</text>
<text text-anchor="start" x="416.5" y="-527" font-family="Helvetica,sans-Serif" font-size="10.00">zeros()</text>
<polygon fill="#666666" stroke="#666666" points="397.5,-807 397.5,-807 493.5,-807 493.5,-807 397.5,-807"/>
<polygon fill="#666666" stroke="#666666" points="397.5,-792 397.5,-792 493.5,-792 493.5,-792 397.5,-792"/>
<polygon fill="none" stroke="#666666" points="397.5,-520 397.5,-824 493.5,-824 493.5,-520 397.5,-520"/>
</a>
</g>
</g>
<!-- Node12&#45;&gt;Node11 -->
<g id="edge12_Node000011_Node000012" class="edge">
<title>Node12&#45;&gt;Node11</title>
<g id="a_edge12_Node000011_Node000012"><a xlink:title=" ">
<path fill="none" stroke="#63b8ff" d="M462.09,-509.54C463.34,-497.31 464.59,-485.13 465.81,-473.29"/>
<polygon fill="none" stroke="#63b8ff" points="458.57,-509.51 461.03,-519.81 465.53,-510.22 458.57,-509.51"/>
</a>
</g>
</g>
<!-- Node13&#45;&gt;Node12 -->
<g id="edge13_Node000012_Node000013" class="edge">
<title>Node13&#45;&gt;Node12</title>
<g id="a_edge13_Node000012_Node000013"><a xlink:title=" ">
<path fill="none" stroke="#63b8ff" d="M362.99,-1201.68C363.39,-1105.13 368.28,-980.34 386.5,-871 389.32,-854.11 393.13,-836.63 397.48,-819.36"/>
<polygon fill="none" stroke="#63b8ff" points="359.49,-1201.81 362.97,-1211.82 366.49,-1201.83 359.49,-1201.81"/>
</a>
</g>
</g>
<!-- Node15 -->
<g id="Node000015" class="node">
<title>Node15</title>
<g id="a_Node000015"><a xlink:href="../../d6/dcf/classcv_1_1Vec.html" target="_top" xlink:title="Template class for short numerical vectors, a partial case of Matx.">
<polygon fill="white" stroke="transparent" points="496,-1175 395,-1175 395,-871 496,-871 496,-1175"/>
<text text-anchor="start" x="400.5" y="-1163" font-family="Helvetica,sans-Serif" font-size="10.00">cv::Vec&lt; _Tp, cn &gt;</text>
<text text-anchor="start" x="444" y="-1148" font-family="Helvetica,sans-Serif" font-size="10.00"> </text>
<text text-anchor="start" x="401.5" y="-1133" font-family="Helvetica,sans-Serif" font-size="10.00">+</text>
<text text-anchor="start" x="416.5" y="-1133" font-family="Helvetica,sans-Serif" font-size="10.00">Vec()</text>
<text text-anchor="start" x="401.5" y="-1118" font-family="Helvetica,sans-Serif" font-size="10.00">+</text>
<text text-anchor="start" x="416.5" y="-1118" font-family="Helvetica,sans-Serif" font-size="10.00">Vec()</text>
<text text-anchor="start" x="401.5" y="-1103" font-family="Helvetica,sans-Serif" font-size="10.00">+</text>
<text text-anchor="start" x="416.5" y="-1103" font-family="Helvetica,sans-Serif" font-size="10.00">Vec()</text>
<text text-anchor="start" x="401.5" y="-1088" font-family="Helvetica,sans-Serif" font-size="10.00">+</text>
<text text-anchor="start" x="416.5" y="-1088" font-family="Helvetica,sans-Serif" font-size="10.00">Vec()</text>
<text text-anchor="start" x="401.5" y="-1073" font-family="Helvetica,sans-Serif" font-size="10.00">+</text>
<text text-anchor="start" x="416.5" y="-1073" font-family="Helvetica,sans-Serif" font-size="10.00">Vec()</text>
<text text-anchor="start" x="401.5" y="-1058" font-family="Helvetica,sans-Serif" font-size="10.00">+</text>
<text text-anchor="start" x="416.5" y="-1058" font-family="Helvetica,sans-Serif" font-size="10.00">Vec()</text>
<text text-anchor="start" x="401.5" y="-1043" font-family="Helvetica,sans-Serif" font-size="10.00">+</text>
<text text-anchor="start" x="416.5" y="-1043" font-family="Helvetica,sans-Serif" font-size="10.00">Vec()</text>
<text text-anchor="start" x="401.5" y="-1028" font-family="Helvetica,sans-Serif" font-size="10.00">+</text>
<text text-anchor="start" x="416.5" y="-1028" font-family="Helvetica,sans-Serif" font-size="10.00">Vec()</text>
<text text-anchor="start" x="401.5" y="-1013" font-family="Helvetica,sans-Serif" font-size="10.00">+</text>
<text text-anchor="start" x="416.5" y="-1013" font-family="Helvetica,sans-Serif" font-size="10.00">Vec()</text>
<text text-anchor="start" x="401.5" y="-998" font-family="Helvetica,sans-Serif" font-size="10.00">+</text>
<text text-anchor="start" x="416.5" y="-998" font-family="Helvetica,sans-Serif" font-size="10.00">Vec()</text>
<text text-anchor="start" x="416.5" y="-983" font-family="Helvetica,sans-Serif" font-size="10.00">and 17 more...</text>
<text text-anchor="start" x="401.5" y="-968" font-family="Helvetica,sans-Serif" font-size="10.00">+</text>
<text text-anchor="start" x="416.5" y="-968" font-family="Helvetica,sans-Serif" font-size="10.00">all()</text>
<text text-anchor="start" x="401.5" y="-953" font-family="Helvetica,sans-Serif" font-size="10.00">+</text>
<text text-anchor="start" x="416.5" y="-953" font-family="Helvetica,sans-Serif" font-size="10.00">diag()</text>
<text text-anchor="start" x="401.5" y="-938" font-family="Helvetica,sans-Serif" font-size="10.00">+</text>
<text text-anchor="start" x="416.5" y="-938" font-family="Helvetica,sans-Serif" font-size="10.00">eye()</text>
<text text-anchor="start" x="401.5" y="-923" font-family="Helvetica,sans-Serif" font-size="10.00">+</text>
<text text-anchor="start" x="416.5" y="-923" font-family="Helvetica,sans-Serif" font-size="10.00">ones()</text>
<text text-anchor="start" x="401.5" y="-908" font-family="Helvetica,sans-Serif" font-size="10.00">+</text>
<text text-anchor="start" x="416.5" y="-908" font-family="Helvetica,sans-Serif" font-size="10.00">randn()</text>
<text text-anchor="start" x="401.5" y="-893" font-family="Helvetica,sans-Serif" font-size="10.00">+</text>
<text text-anchor="start" x="416.5" y="-893" font-family="Helvetica,sans-Serif" font-size="10.00">randu()</text>
<text text-anchor="start" x="401.5" y="-878" font-family="Helvetica,sans-Serif" font-size="10.00">+</text>
<text text-anchor="start" x="416.5" y="-878" font-family="Helvetica,sans-Serif" font-size="10.00">zeros()</text>
<polygon fill="#666666" stroke="#666666" points="395.5,-1158 395.5,-1158 496.5,-1158 496.5,-1158 395.5,-1158"/>
<polygon fill="#666666" stroke="#666666" points="395.5,-1143 395.5,-1143 496.5,-1143 496.5,-1143 395.5,-1143"/>
<polygon fill="none" stroke="#666666" points="395,-871 395,-1175 496,-1175 496,-871 395,-871"/>
</a>
</g>
</g>
<!-- Node13&#45;&gt;Node15 -->
<g id="edge18_Node000015_Node000013" class="edge">
<title>Node13&#45;&gt;Node15</title>
<g id="a_edge18_Node000015_Node000013"><a xlink:title=" ">
<path fill="none" stroke="#63b8ff" d="M404.06,-1201.82C406.13,-1192.94 408.21,-1184.02 410.27,-1175.17"/>
<polygon fill="none" stroke="#63b8ff" points="400.59,-1201.31 401.73,-1211.84 407.4,-1202.9 400.59,-1201.31"/>
</a>
</g>
</g>
<!-- Node14&#45;&gt;Node13 -->
<g id="edge15_Node000013_Node000014" class="edge">
<title>Node14&#45;&gt;Node13</title>
<g id="a_edge15_Node000013_Node000014"><a xlink:title=" ">
<path fill="none" stroke="orange" d="M256.85,-1800.42C254.26,-1719.29 257.66,-1620.19 279.5,-1534 285.46,-1510.49 295.17,-1486.55 305.98,-1464.36"/>
<polygon fill="orange" stroke="orange" points="253.36,-1800.85 257.21,-1810.72 260.35,-1800.61 253.36,-1800.85"/>
</a>
</g>
<text text-anchor="middle" x="316" y="-1661" font-family="Helvetica,sans-Serif" font-size="10.00" fill="grey"> &lt; _Tp, cn, 1 &gt;</text>
</g>
<!-- Node15&#45;&gt;Node12 -->
<g id="edge17_Node000012_Node000015" class="edge">
<title>Node15&#45;&gt;Node12</title>
<g id="a_edge17_Node000012_Node000015"><a xlink:title=" ">
<path fill="none" stroke="orange" d="M445.5,-860.71C445.5,-848.48 445.5,-836.16 445.5,-824"/>
<polygon fill="orange" stroke="orange" points="442,-860.95 445.5,-870.95 449,-860.95 442,-860.95"/>
</a>
</g>
<text text-anchor="middle" x="473" y="-845" font-family="Helvetica,sans-Serif" font-size="10.00" fill="grey"> &lt; _Tp, 4 &gt;</text>
</g>
</g>
</svg>
