<?xml version="1.0" encoding="UTF-8" standalone="no"?>
<!DOCTYPE svg PUBLIC "-//W3C//DTD SVG 1.1//EN"
 "http://www.w3.org/Graphics/SVG/1.1/DTD/svg11.dtd">
<!-- Generated by graphviz version 2.43.0 (0)
 -->
<!-- Title: cv::xfeatures2d::FREAK Pages: 1 -->
<svg width="240pt" height="741pt"
 viewBox="0.00 0.00 239.50 741.00" xmlns="http://www.w3.org/2000/svg" xmlns:xlink="http://www.w3.org/1999/xlink">
<g id="graph0" class="graph" transform="scale(1 1) rotate(0) translate(4 737)">
<title>cv::xfeatures2d::FREAK</title>
<!-- Node1 -->
<g id="Node000001" class="node">
<title>Node1</title>
<g id="a_Node000001"><a xlink:title="Class implementing the FREAK (Fast Retina Keypoint) keypoint descriptor, described in &#160;.">
<polygon fill="#999999" stroke="transparent" points="207.5,-184 51.5,-184 51.5,0 207.5,0 207.5,-184"/>
<text text-anchor="start" x="72.5" y="-172" font-family="Helvetica,sans-Serif" font-size="10.00">cv::xfeatures2d::FREAK</text>
<text text-anchor="start" x="127.5" y="-157" font-family="Helvetica,sans-Serif" font-size="10.00"> </text>
<text text-anchor="start" x="55.5" y="-142" font-family="Helvetica,sans-Serif" font-size="10.00">+</text>
<text text-anchor="start" x="68.5" y="-142" font-family="Helvetica,sans-Serif" font-size="10.00">getDefaultName()</text>
<text text-anchor="start" x="55.5" y="-127" font-family="Helvetica,sans-Serif" font-size="10.00">+</text>
<text text-anchor="start" x="68.5" y="-127" font-family="Helvetica,sans-Serif" font-size="10.00">getNOctaves()</text>
<text text-anchor="start" x="55.5" y="-112" font-family="Helvetica,sans-Serif" font-size="10.00">+</text>
<text text-anchor="start" x="68.5" y="-112" font-family="Helvetica,sans-Serif" font-size="10.00">getOrientationNormalized()</text>
<text text-anchor="start" x="55.5" y="-97" font-family="Helvetica,sans-Serif" font-size="10.00">+</text>
<text text-anchor="start" x="68.5" y="-97" font-family="Helvetica,sans-Serif" font-size="10.00">getPatternScale()</text>
<text text-anchor="start" x="55.5" y="-82" font-family="Helvetica,sans-Serif" font-size="10.00">+</text>
<text text-anchor="start" x="68.5" y="-82" font-family="Helvetica,sans-Serif" font-size="10.00">getScaleNormalized()</text>
<text text-anchor="start" x="55.5" y="-67" font-family="Helvetica,sans-Serif" font-size="10.00">+</text>
<text text-anchor="start" x="68.5" y="-67" font-family="Helvetica,sans-Serif" font-size="10.00">setNOctaves()</text>
<text text-anchor="start" x="55.5" y="-52" font-family="Helvetica,sans-Serif" font-size="10.00">+</text>
<text text-anchor="start" x="68.5" y="-52" font-family="Helvetica,sans-Serif" font-size="10.00">setOrientationNormalized()</text>
<text text-anchor="start" x="55.5" y="-37" font-family="Helvetica,sans-Serif" font-size="10.00">+</text>
<text text-anchor="start" x="68.5" y="-37" font-family="Helvetica,sans-Serif" font-size="10.00">setPatternScale()</text>
<text text-anchor="start" x="55.5" y="-22" font-family="Helvetica,sans-Serif" font-size="10.00">+</text>
<text text-anchor="start" x="68.5" y="-22" font-family="Helvetica,sans-Serif" font-size="10.00">setScaleNormalized()</text>
<text text-anchor="start" x="55.5" y="-7" font-family="Helvetica,sans-Serif" font-size="10.00">+</text>
<text text-anchor="start" x="68.5" y="-7" font-family="Helvetica,sans-Serif" font-size="10.00">create()</text>
<polygon fill="#666666" stroke="#666666" points="51.5,-167 51.5,-167 207.5,-167 207.5,-167 51.5,-167"/>
<polygon fill="#666666" stroke="#666666" points="51.5,-152 51.5,-152 207.5,-152 207.5,-152 51.5,-152"/>
<polygon fill="none" stroke="#666666" points="51.5,0 51.5,-184 207.5,-184 207.5,0 51.5,0"/>
</a>
</g>
</g>
<!-- Node2 -->
<g id="Node000002" class="node">
<title>Node2</title>
<g id="a_Node000002"><a xlink:href="../../d0/d13/classcv_1_1Feature2D.html" target="_top" xlink:title="Abstract base class for 2D image feature detectors and descriptor extractors.">
<polygon fill="white" stroke="transparent" points="123,-452 0,-452 0,-253 123,-253 123,-452"/>
<text text-anchor="start" x="28.5" y="-439.5" font-family="Helvetica,sans-Serif" font-size="10.00">cv::Feature2D</text>
<text text-anchor="start" x="60" y="-424.5" font-family="Helvetica,sans-Serif" font-size="10.00"> </text>
<text text-anchor="start" x="4.5" y="-409.5" font-family="Helvetica,sans-Serif" font-size="10.00">+</text>
<text text-anchor="start" x="17.5" y="-409.5" font-family="Helvetica,sans-Serif" font-size="10.00">~Feature2D()</text>
<text text-anchor="start" x="4.5" y="-394.5" font-family="Helvetica,sans-Serif" font-size="10.00">+</text>
<text text-anchor="start" x="17.5" y="-394.5" font-family="Helvetica,sans-Serif" font-size="10.00">compute()</text>
<text text-anchor="start" x="4.5" y="-379.5" font-family="Helvetica,sans-Serif" font-size="10.00">+</text>
<text text-anchor="start" x="17.5" y="-379.5" font-family="Helvetica,sans-Serif" font-size="10.00">compute()</text>
<text text-anchor="start" x="4.5" y="-364.5" font-family="Helvetica,sans-Serif" font-size="10.00">+</text>
<text text-anchor="start" x="17.5" y="-364.5" font-family="Helvetica,sans-Serif" font-size="10.00">defaultNorm()</text>
<text text-anchor="start" x="4.5" y="-349.5" font-family="Helvetica,sans-Serif" font-size="10.00">+</text>
<text text-anchor="start" x="17.5" y="-349.5" font-family="Helvetica,sans-Serif" font-size="10.00">descriptorSize()</text>
<text text-anchor="start" x="4.5" y="-334.5" font-family="Helvetica,sans-Serif" font-size="10.00">+</text>
<text text-anchor="start" x="17.5" y="-334.5" font-family="Helvetica,sans-Serif" font-size="10.00">descriptorType()</text>
<text text-anchor="start" x="4.5" y="-319.5" font-family="Helvetica,sans-Serif" font-size="10.00">+</text>
<text text-anchor="start" x="17.5" y="-319.5" font-family="Helvetica,sans-Serif" font-size="10.00">detect()</text>
<text text-anchor="start" x="4.5" y="-304.5" font-family="Helvetica,sans-Serif" font-size="10.00">+</text>
<text text-anchor="start" x="17.5" y="-304.5" font-family="Helvetica,sans-Serif" font-size="10.00">detect()</text>
<text text-anchor="start" x="4.5" y="-289.5" font-family="Helvetica,sans-Serif" font-size="10.00">+</text>
<text text-anchor="start" x="17.5" y="-289.5" font-family="Helvetica,sans-Serif" font-size="10.00">detectAndCompute()</text>
<text text-anchor="start" x="4.5" y="-274.5" font-family="Helvetica,sans-Serif" font-size="10.00">+</text>
<text text-anchor="start" x="17.5" y="-274.5" font-family="Helvetica,sans-Serif" font-size="10.00">empty()</text>
<text text-anchor="start" x="17.5" y="-259.5" font-family="Helvetica,sans-Serif" font-size="10.00">and 7 more...</text>
<polygon fill="#666666" stroke="#666666" points="0.5,-434.5 0.5,-434.5 123.5,-434.5 123.5,-434.5 0.5,-434.5"/>
<polygon fill="#666666" stroke="#666666" points="0.5,-419.5 0.5,-419.5 123.5,-419.5 123.5,-419.5 0.5,-419.5"/>
<polygon fill="none" stroke="#666666" points="0,-253 0,-452 123,-452 123,-253 0,-253"/>
</a>
</g>
</g>
<!-- Node2&#45;&gt;Node1 -->
<g id="edge1_Node000001_Node000002" class="edge">
<title>Node2&#45;&gt;Node1</title>
<g id="a_edge1_Node000001_Node000002"><a xlink:title=" ">
<path fill="none" stroke="#63b8ff" d="M90.09,-242.83C95.23,-223.29 100.53,-203.11 105.53,-184.14"/>
<polygon fill="none" stroke="#63b8ff" points="86.66,-242.1 87.5,-252.67 93.43,-243.89 86.66,-242.1"/>
</a>
</g>
</g>
<!-- Node3 -->
<g id="Node000003" class="node">
<title>Node3</title>
<g id="a_Node000003"><a xlink:href="../../d3/d46/classcv_1_1Algorithm.html" target="_top" xlink:title="This is a base class for all more or less complex algorithms in OpenCV.">
<polygon fill="white" stroke="transparent" points="116.5,-733 6.5,-733 6.5,-489 116.5,-489 116.5,-733"/>
<text text-anchor="start" x="29" y="-721" font-family="Helvetica,sans-Serif" font-size="10.00">cv::Algorithm</text>
<text text-anchor="start" x="59.5" y="-706" font-family="Helvetica,sans-Serif" font-size="10.00"> </text>
<text text-anchor="start" x="10.5" y="-691" font-family="Helvetica,sans-Serif" font-size="10.00">+</text>
<text text-anchor="start" x="23.5" y="-691" font-family="Helvetica,sans-Serif" font-size="10.00">Algorithm()</text>
<text text-anchor="start" x="10.5" y="-676" font-family="Helvetica,sans-Serif" font-size="10.00">+</text>
<text text-anchor="start" x="23.5" y="-676" font-family="Helvetica,sans-Serif" font-size="10.00">~Algorithm()</text>
<text text-anchor="start" x="10.5" y="-661" font-family="Helvetica,sans-Serif" font-size="10.00">+</text>
<text text-anchor="start" x="23.5" y="-661" font-family="Helvetica,sans-Serif" font-size="10.00">clear()</text>
<text text-anchor="start" x="10.5" y="-646" font-family="Helvetica,sans-Serif" font-size="10.00">+</text>
<text text-anchor="start" x="23.5" y="-646" font-family="Helvetica,sans-Serif" font-size="10.00">empty()</text>
<text text-anchor="start" x="10.5" y="-631" font-family="Helvetica,sans-Serif" font-size="10.00">+</text>
<text text-anchor="start" x="23.5" y="-631" font-family="Helvetica,sans-Serif" font-size="10.00">getDefaultName()</text>
<text text-anchor="start" x="10.5" y="-616" font-family="Helvetica,sans-Serif" font-size="10.00">+</text>
<text text-anchor="start" x="23.5" y="-616" font-family="Helvetica,sans-Serif" font-size="10.00">read()</text>
<text text-anchor="start" x="10.5" y="-601" font-family="Helvetica,sans-Serif" font-size="10.00">+</text>
<text text-anchor="start" x="23.5" y="-601" font-family="Helvetica,sans-Serif" font-size="10.00">save()</text>
<text text-anchor="start" x="10.5" y="-586" font-family="Helvetica,sans-Serif" font-size="10.00">+</text>
<text text-anchor="start" x="23.5" y="-586" font-family="Helvetica,sans-Serif" font-size="10.00">write()</text>
<text text-anchor="start" x="10.5" y="-571" font-family="Helvetica,sans-Serif" font-size="10.00">+</text>
<text text-anchor="start" x="23.5" y="-571" font-family="Helvetica,sans-Serif" font-size="10.00">write()</text>
<text text-anchor="start" x="10.5" y="-556" font-family="Helvetica,sans-Serif" font-size="10.00">+</text>
<text text-anchor="start" x="23.5" y="-556" font-family="Helvetica,sans-Serif" font-size="10.00">write()</text>
<text text-anchor="start" x="10.5" y="-541" font-family="Helvetica,sans-Serif" font-size="10.00">+</text>
<text text-anchor="start" x="23.5" y="-541" font-family="Helvetica,sans-Serif" font-size="10.00">load()</text>
<text text-anchor="start" x="10.5" y="-526" font-family="Helvetica,sans-Serif" font-size="10.00">+</text>
<text text-anchor="start" x="23.5" y="-526" font-family="Helvetica,sans-Serif" font-size="10.00">loadFromString()</text>
<text text-anchor="start" x="10.5" y="-511" font-family="Helvetica,sans-Serif" font-size="10.00">+</text>
<text text-anchor="start" x="23.5" y="-511" font-family="Helvetica,sans-Serif" font-size="10.00">read()</text>
<text text-anchor="start" x="10.5" y="-496" font-family="Helvetica,sans-Serif" font-size="10.00">#</text>
<text text-anchor="start" x="23.5" y="-496" font-family="Helvetica,sans-Serif" font-size="10.00">writeFormat()</text>
<polygon fill="#666666" stroke="#666666" points="6.5,-716 6.5,-716 116.5,-716 116.5,-716 6.5,-716"/>
<polygon fill="#666666" stroke="#666666" points="6.5,-701 6.5,-701 116.5,-701 116.5,-701 6.5,-701"/>
<polygon fill="none" stroke="#666666" points="6.5,-489 6.5,-733 116.5,-733 116.5,-489 6.5,-489"/>
</a>
</g>
</g>
<!-- Node3&#45;&gt;Node2 -->
<g id="edge2_Node000002_Node000003" class="edge">
<title>Node3&#45;&gt;Node2</title>
<g id="a_edge2_Node000002_Node000003"><a xlink:title=" ">
<path fill="none" stroke="#63b8ff" d="M61.5,-478.77C61.5,-469.8 61.5,-460.86 61.5,-452.11"/>
<polygon fill="none" stroke="#63b8ff" points="58,-478.89 61.5,-488.89 65,-478.89 58,-478.89"/>
</a>
</g>
</g>
<!-- Node4 -->
<g id="Node000004" class="node">
<title>Node4</title>
<g id="a_Node000004"><a xlink:title=" ">
<polygon fill="white" stroke="transparent" points="164,-377 141,-377 141,-328 164,-328 164,-377"/>
<text text-anchor="start" x="146.5" y="-364.5" font-family="Helvetica,sans-Serif" font-size="10.00">int</text>
<text text-anchor="start" x="151" y="-349.5" font-family="Helvetica,sans-Serif" font-size="10.00"> </text>
<text text-anchor="start" x="151" y="-334.5" font-family="Helvetica,sans-Serif" font-size="10.00"> </text>
<polygon fill="#666666" stroke="#666666" points="141.5,-359.5 141.5,-359.5 164.5,-359.5 164.5,-359.5 141.5,-359.5"/>
<polygon fill="#666666" stroke="#666666" points="141.5,-344.5 141.5,-344.5 164.5,-344.5 164.5,-344.5 141.5,-344.5"/>
<polygon fill="none" stroke="#666666" points="141,-328 141,-377 164,-377 164,-328 141,-328"/>
</a>
</g>
</g>
<!-- Node4&#45;&gt;Node1 -->
<g id="edge3_Node000001_Node000004" class="edge">
<title>Node4&#45;&gt;Node1</title>
<g id="a_edge3_Node000001_Node000004"><a xlink:title=" ">
<path fill="none" stroke="#63b8ff" d="M150.38,-327.64C147.72,-297.74 142.98,-244.56 138.7,-196.38"/>
<polygon fill="none" stroke="#63b8ff" points="138.68,-196.2 134.17,-190.58 137.62,-184.25 142.14,-189.87 138.68,-196.2"/>
</a>
</g>
<text text-anchor="middle" x="186.5" y="-227" font-family="Helvetica,sans-Serif" font-size="10.00" fill="grey"> +NB_ORIENPAIRS</text>
<text text-anchor="middle" x="186.5" y="-216" font-family="Helvetica,sans-Serif" font-size="10.00" fill="grey">+NB_PAIRS</text>
<text text-anchor="middle" x="186.5" y="-205" font-family="Helvetica,sans-Serif" font-size="10.00" fill="grey">+NB_SCALES</text>
</g>
</g>
</svg>
