<?xml version="1.0" encoding="UTF-8" standalone="no"?>
<!DOCTYPE svg PUBLIC "-//W3C//DTD SVG 1.1//EN"
 "http://www.w3.org/Graphics/SVG/1.1/DTD/svg11.dtd">
<!-- Generated by graphviz version 2.43.0 (0)
 -->
<!-- Title: opencv2/reg/map.hpp Pages: 1 -->
<svg width="1320pt" height="137pt"
 viewBox="0.00 0.00 1319.50 137.00" xmlns="http://www.w3.org/2000/svg" xmlns:xlink="http://www.w3.org/1999/xlink">
<g id="graph0" class="graph" transform="scale(1 1) rotate(0) translate(4 133)">
<title>opencv2/reg/map.hpp</title>
<!-- Node1 -->
<g id="Node000001" class="node">
<title>Node1</title>
<g id="a_Node000001"><a xlink:title=" ">
<polygon fill="#999999" stroke="#666666" points="388,-129 266,-129 266,-110 388,-110 388,-129"/>
<text text-anchor="middle" x="327" y="-117" font-family="Helvetica,sans-Serif" font-size="10.00">opencv2/reg/map.hpp</text>
</a>
</g>
</g>
<!-- Node2 -->
<g id="Node000002" class="node">
<title>Node2</title>
<g id="a_Node000002"><a xlink:href="../../dd/d7f/mapaffine_8hpp.html" target="_top" xlink:title=" ">
<polygon fill="white" stroke="#666666" points="150,-74 0,-74 0,-55 150,-55 150,-74"/>
<text text-anchor="middle" x="75" y="-62" font-family="Helvetica,sans-Serif" font-size="10.00">opencv2/reg/mapaffine.hpp</text>
</a>
</g>
</g>
<!-- Node1&#45;&gt;Node2 -->
<g id="edge1_Node000001_Node000002" class="edge">
<title>Node1&#45;&gt;Node2</title>
<g id="a_edge1_Node000001_Node000002"><a xlink:title=" ">
<path fill="none" stroke="#63b8ff" d="M276.5,-107.88C229.26,-97.94 159.61,-83.3 115.81,-74.08"/>
<polygon fill="#63b8ff" stroke="#63b8ff" points="276.01,-111.35 286.51,-109.98 277.45,-104.5 276.01,-111.35"/>
</a>
</g>
</g>
<!-- Node4 -->
<g id="Node000004" class="node">
<title>Node4</title>
<g id="a_Node000004"><a xlink:href="../../df/d13/mapper_8hpp.html" target="_top" xlink:title=" ">
<polygon fill="white" stroke="#666666" points="678.5,-74 541.5,-74 541.5,-55 678.5,-55 678.5,-74"/>
<text text-anchor="middle" x="610" y="-62" font-family="Helvetica,sans-Serif" font-size="10.00">opencv2/reg/mapper.hpp</text>
</a>
</g>
</g>
<!-- Node1&#45;&gt;Node4 -->
<g id="edge3_Node000001_Node000004" class="edge">
<title>Node1&#45;&gt;Node4</title>
<g id="a_edge3_Node000001_Node000004"><a xlink:title=" ">
<path fill="none" stroke="#63b8ff" d="M382.39,-108.13C435.44,-98.19 514.57,-83.37 564.17,-74.08"/>
<polygon fill="#63b8ff" stroke="#63b8ff" points="381.65,-104.7 372.47,-109.98 382.94,-111.58 381.65,-104.7"/>
</a>
</g>
</g>
<!-- Node10 -->
<g id="Node000010" class="node">
<title>Node10</title>
<g id="a_Node000010"><a xlink:href="../../df/d08/mapprojec_8hpp.html" target="_top" xlink:title=" ">
<polygon fill="white" stroke="#666666" points="320,-74 168,-74 168,-55 320,-55 320,-74"/>
<text text-anchor="middle" x="244" y="-62" font-family="Helvetica,sans-Serif" font-size="10.00">opencv2/reg/mapprojec.hpp</text>
</a>
</g>
</g>
<!-- Node1&#45;&gt;Node10 -->
<g id="edge10_Node000001_Node000010" class="edge">
<title>Node1&#45;&gt;Node10</title>
<g id="a_edge10_Node000001_Node000010"><a xlink:title=" ">
<path fill="none" stroke="#63b8ff" d="M304.96,-104.42C289.89,-94.81 270.41,-82.37 257.58,-74.17"/>
<polygon fill="#63b8ff" stroke="#63b8ff" points="303.35,-107.55 313.66,-109.98 307.12,-101.65 303.35,-107.55"/>
</a>
</g>
</g>
<!-- Node11 -->
<g id="Node000011" class="node">
<title>Node11</title>
<g id="a_Node000011"><a xlink:href="../../de/d67/mapshift_8hpp.html" target="_top" xlink:title=" ">
<polygon fill="white" stroke="#666666" points="481.5,-74 338.5,-74 338.5,-55 481.5,-55 481.5,-74"/>
<text text-anchor="middle" x="410" y="-62" font-family="Helvetica,sans-Serif" font-size="10.00">opencv2/reg/mapshift.hpp</text>
</a>
</g>
</g>
<!-- Node1&#45;&gt;Node11 -->
<g id="edge12_Node000001_Node000011" class="edge">
<title>Node1&#45;&gt;Node11</title>
<g id="a_edge12_Node000001_Node000011"><a xlink:title=" ">
<path fill="none" stroke="#63b8ff" d="M349.04,-104.42C364.11,-94.81 383.59,-82.37 396.42,-74.17"/>
<polygon fill="#63b8ff" stroke="#63b8ff" points="346.88,-101.65 340.34,-109.98 350.65,-107.55 346.88,-101.65"/>
</a>
</g>
</g>
<!-- Node3 -->
<g id="Node000003" class="node">
<title>Node3</title>
<g id="a_Node000003"><a xlink:href="../../de/da9/mapperpyramid_8hpp.html" target="_top" xlink:title=" ">
<polygon fill="white" stroke="#666666" points="290.5,-19 111.5,-19 111.5,0 290.5,0 290.5,-19"/>
<text text-anchor="middle" x="201" y="-7" font-family="Helvetica,sans-Serif" font-size="10.00">opencv2/reg/mapperpyramid.hpp</text>
</a>
</g>
</g>
<!-- Node2&#45;&gt;Node3 -->
<g id="edge2_Node000002_Node000003" class="edge">
<title>Node2&#45;&gt;Node3</title>
<g id="a_edge2_Node000002_Node000003"><a xlink:title=" ">
<path fill="none" stroke="#63b8ff" d="M104.65,-51.03C127.95,-41.23 159.8,-27.83 180.39,-19.17"/>
<polygon fill="#63b8ff" stroke="#63b8ff" points="103.1,-47.88 95.24,-54.98 105.82,-54.33 103.1,-47.88"/>
</a>
</g>
</g>
<!-- Node4&#45;&gt;Node3 -->
<g id="edge9_Node000004_Node000003" class="edge">
<title>Node4&#45;&gt;Node3</title>
<g id="a_edge9_Node000004_Node000003"><a xlink:title=" ">
<path fill="none" stroke="#63b8ff" d="M534.2,-53.68C457.43,-43.73 339.9,-28.5 266.89,-19.04"/>
<polygon fill="#63b8ff" stroke="#63b8ff" points="533.92,-57.17 544.29,-54.98 534.82,-50.23 533.92,-57.17"/>
</a>
</g>
</g>
<!-- Node5 -->
<g id="Node000005" class="node">
<title>Node5</title>
<g id="a_Node000005"><a xlink:href="../../d7/d89/mappergradaffine_8hpp.html" target="_top" xlink:title=" ">
<polygon fill="white" stroke="#666666" points="497,-19 309,-19 309,0 497,0 497,-19"/>
<text text-anchor="middle" x="403" y="-7" font-family="Helvetica,sans-Serif" font-size="10.00">opencv2/reg/mappergradaffine.hpp</text>
</a>
</g>
</g>
<!-- Node4&#45;&gt;Node5 -->
<g id="edge4_Node000004_Node000005" class="edge">
<title>Node4&#45;&gt;Node5</title>
<g id="a_edge4_Node000004_Node000005"><a xlink:title=" ">
<path fill="none" stroke="#63b8ff" d="M566.79,-52.44C528.04,-42.52 471.97,-28.16 436.52,-19.08"/>
<polygon fill="#63b8ff" stroke="#63b8ff" points="566.19,-55.89 576.74,-54.98 567.92,-49.11 566.19,-55.89"/>
</a>
</g>
</g>
<!-- Node6 -->
<g id="Node000006" class="node">
<title>Node6</title>
<g id="a_Node000006"><a xlink:href="../../d3/d4e/mappergradeuclid_8hpp.html" target="_top" xlink:title=" ">
<polygon fill="white" stroke="#666666" points="704.5,-19 515.5,-19 515.5,0 704.5,0 704.5,-19"/>
<text text-anchor="middle" x="610" y="-7" font-family="Helvetica,sans-Serif" font-size="10.00">opencv2/reg/mappergradeuclid.hpp</text>
</a>
</g>
</g>
<!-- Node4&#45;&gt;Node6 -->
<g id="edge5_Node000004_Node000006" class="edge">
<title>Node4&#45;&gt;Node6</title>
<g id="a_edge5_Node000004_Node000006"><a xlink:title=" ">
<path fill="none" stroke="#63b8ff" d="M610,-44.66C610,-35.93 610,-25.99 610,-19.09"/>
<polygon fill="#63b8ff" stroke="#63b8ff" points="606.5,-44.75 610,-54.75 613.5,-44.75 606.5,-44.75"/>
</a>
</g>
</g>
<!-- Node7 -->
<g id="Node000007" class="node">
<title>Node7</title>
<g id="a_Node000007"><a xlink:href="../../d2/d7f/mappergradproj_8hpp.html" target="_top" xlink:title=" ">
<polygon fill="white" stroke="#666666" points="901.5,-19 722.5,-19 722.5,0 901.5,0 901.5,-19"/>
<text text-anchor="middle" x="812" y="-7" font-family="Helvetica,sans-Serif" font-size="10.00">opencv2/reg/mappergradproj.hpp</text>
</a>
</g>
</g>
<!-- Node4&#45;&gt;Node7 -->
<g id="edge6_Node000004_Node000007" class="edge">
<title>Node4&#45;&gt;Node7</title>
<g id="a_edge6_Node000004_Node000007"><a xlink:title=" ">
<path fill="none" stroke="#63b8ff" d="M652.16,-52.44C689.98,-42.52 744.69,-28.16 779.29,-19.08"/>
<polygon fill="#63b8ff" stroke="#63b8ff" points="651.24,-49.06 642.45,-54.98 653.02,-55.83 651.24,-49.06"/>
</a>
</g>
</g>
<!-- Node8 -->
<g id="Node000008" class="node">
<title>Node8</title>
<g id="a_Node000008"><a xlink:href="../../dc/d62/mappergradshift_8hpp.html" target="_top" xlink:title=" ">
<polygon fill="white" stroke="#666666" points="1100.5,-19 919.5,-19 919.5,0 1100.5,0 1100.5,-19"/>
<text text-anchor="middle" x="1010" y="-7" font-family="Helvetica,sans-Serif" font-size="10.00">opencv2/reg/mappergradshift.hpp</text>
</a>
</g>
</g>
<!-- Node4&#45;&gt;Node8 -->
<g id="edge7_Node000004_Node000008" class="edge">
<title>Node4&#45;&gt;Node8</title>
<g id="a_edge7_Node000004_Node000008"><a xlink:title=" ">
<path fill="none" stroke="#63b8ff" d="M684.59,-53.62C759.68,-43.67 874.31,-28.48 945.56,-19.04"/>
<polygon fill="#63b8ff" stroke="#63b8ff" points="683.72,-50.2 674.27,-54.98 684.64,-57.14 683.72,-50.2"/>
</a>
</g>
</g>
<!-- Node9 -->
<g id="Node000009" class="node">
<title>Node9</title>
<g id="a_Node000009"><a xlink:href="../../d1/d14/mappergradsimilar_8hpp.html" target="_top" xlink:title=" ">
<polygon fill="white" stroke="#666666" points="1311.5,-19 1118.5,-19 1118.5,0 1311.5,0 1311.5,-19"/>
<text text-anchor="middle" x="1215" y="-7" font-family="Helvetica,sans-Serif" font-size="10.00">opencv2/reg/mappergradsimilar.hpp</text>
</a>
</g>
</g>
<!-- Node4&#45;&gt;Node9 -->
<g id="edge8_Node000004_Node000009" class="edge">
<title>Node4&#45;&gt;Node9</title>
<g id="a_edge8_Node000004_Node000009"><a xlink:title=" ">
<path fill="none" stroke="#63b8ff" d="M688.57,-56.62C798.76,-46.96 999.05,-29.42 1118.27,-18.97"/>
<polygon fill="#63b8ff" stroke="#63b8ff" points="688.17,-53.14 678.52,-57.5 688.79,-60.11 688.17,-53.14"/>
</a>
</g>
</g>
<!-- Node10&#45;&gt;Node3 -->
<g id="edge11_Node000010_Node000003" class="edge">
<title>Node10&#45;&gt;Node3</title>
<g id="a_edge11_Node000010_Node000003"><a xlink:title=" ">
<path fill="none" stroke="#63b8ff" d="M230.58,-46.96C223.09,-37.72 214.06,-26.6 207.97,-19.09"/>
<polygon fill="#63b8ff" stroke="#63b8ff" points="227.88,-49.19 236.9,-54.75 233.32,-44.78 227.88,-49.19"/>
</a>
</g>
</g>
<!-- Node11&#45;&gt;Node3 -->
<g id="edge13_Node000011_Node000003" class="edge">
<title>Node11&#45;&gt;Node3</title>
<g id="a_edge13_Node000011_Node000003"><a xlink:title=" ">
<path fill="none" stroke="#63b8ff" d="M366.63,-52.5C327.49,-42.58 270.72,-28.18 234.84,-19.08"/>
<polygon fill="#63b8ff" stroke="#63b8ff" points="365.87,-55.92 376.42,-54.98 367.59,-49.13 365.87,-55.92"/>
</a>
</g>
</g>
</g>
</svg>
