<?xml version="1.0" encoding="UTF-8" standalone="no"?>
<!DOCTYPE svg PUBLIC "-//W3C//DTD SVG 1.1//EN"
 "http://www.w3.org/Graphics/SVG/1.1/DTD/svg11.dtd">
<!-- Generated by graphviz version 2.43.0 (0)
 -->
<!-- Title: cv::cann::kernel_launch Pages: 1 -->
<svg width="350pt" height="172pt"
 viewBox="0.00 0.00 350.00 172.00" xmlns="http://www.w3.org/2000/svg" xmlns:xlink="http://www.w3.org/1999/xlink">
<g id="graph0" class="graph" transform="scale(1 1) rotate(0) translate(4 168)">
<title>cv::cann::kernel_launch</title>
<!-- Node1 -->
<g id="Node000001" class="node">
<title>Node1</title>
<g id="a_Node000001"><a xlink:title=" ">
<polygon fill="#999999" stroke="#666666" points="130,-88.5 0,-88.5 0,-69.5 130,-69.5 130,-88.5"/>
<text text-anchor="middle" x="65" y="-76.5" font-family="Helvetica,sans-Serif" font-size="10.00">cv::cann::kernel_launch</text>
</a>
</g>
</g>
<!-- Node2 -->
<g id="Node000002" class="node">
<title>Node2</title>
<g id="a_Node000002"><a xlink:href="../../d3/d85/classcv_1_1cann_1_1AscendMat.html#afccc73d5f17e9033df0302c3babe3a30" target="_top" xlink:title="Create default allocator for AscendMat. This allocator alloc memory from device for specific size.">
<polygon fill="white" stroke="#666666" points="312,-164 196,-164 196,-134 312,-134 312,-164"/>
<text text-anchor="start" x="204" y="-152" font-family="Helvetica,sans-Serif" font-size="10.00">cv::cann::AscendMat</text>
<text text-anchor="middle" x="254" y="-141" font-family="Helvetica,sans-Serif" font-size="10.00">::defaultAllocator</text>
</a>
</g>
</g>
<!-- Node1&#45;&gt;Node2 -->
<g id="edge1_Node000001_Node000002" class="edge">
<title>Node1&#45;&gt;Node2</title>
<g id="a_edge1_Node000001_Node000002"><a xlink:title=" ">
<path fill="none" stroke="#63b8ff" d="M84.42,-88.57C104.2,-98.59 136.74,-114.31 166,-125 172.43,-127.35 179.19,-129.59 186,-131.7"/>
<polygon fill="#63b8ff" stroke="#63b8ff" points="185.37,-135.17 195.95,-134.69 187.38,-128.46 185.37,-135.17"/>
</a>
</g>
</g>
<!-- Node3 -->
<g id="Node000003" class="node">
<title>Node3</title>
<g id="a_Node000003"><a xlink:href="../../de/df3/structcv_1_1cann_1_1AscendStreamAccessor.html#a195cec3970adc4a2b4dea363ec3eb739" target="_top" xlink:title=" ">
<polygon fill="white" stroke="#666666" points="342,-116 166,-116 166,-86 342,-86 342,-116"/>
<text text-anchor="start" x="174" y="-104" font-family="Helvetica,sans-Serif" font-size="10.00">cv::cann::AscendStreamAccessor</text>
<text text-anchor="middle" x="254" y="-93" font-family="Helvetica,sans-Serif" font-size="10.00">::getStream</text>
</a>
</g>
</g>
<!-- Node1&#45;&gt;Node3 -->
<g id="edge2_Node000001_Node000003" class="edge">
<title>Node1&#45;&gt;Node3</title>
<g id="a_edge2_Node000001_Node000003"><a xlink:title=" ">
<path fill="none" stroke="#63b8ff" d="M130.09,-86.54C138.38,-87.51 147,-88.53 155.67,-89.55"/>
<polygon fill="#63b8ff" stroke="#63b8ff" points="155.51,-93.05 165.85,-90.75 156.33,-86.1 155.51,-93.05"/>
</a>
</g>
</g>
<!-- Node4 -->
<g id="Node000004" class="node">
<title>Node4</title>
<g id="a_Node000004"><a xlink:href="../../d2/dcf/namespacecv_1_1cann.html#aee240e051fa3b79a8ad84e3a33207553" target="_top" xlink:title="Malloc and upload raw data to devices.">
<polygon fill="white" stroke="#666666" points="328.5,-67.5 179.5,-67.5 179.5,-48.5 328.5,-48.5 328.5,-67.5"/>
<text text-anchor="middle" x="254" y="-55.5" font-family="Helvetica,sans-Serif" font-size="10.00">cv::cann::mallocAndUpload</text>
</a>
</g>
</g>
<!-- Node1&#45;&gt;Node4 -->
<g id="edge3_Node000001_Node000004" class="edge">
<title>Node1&#45;&gt;Node4</title>
<g id="a_edge3_Node000001_Node000004"><a xlink:title=" ">
<path fill="none" stroke="#63b8ff" d="M130.09,-71.8C142.73,-70.38 156.17,-68.87 169.34,-67.4"/>
<polygon fill="#63b8ff" stroke="#63b8ff" points="169.8,-70.87 179.34,-66.27 169.02,-63.91 169.8,-70.87"/>
</a>
</g>
</g>
<!-- Node5 -->
<g id="Node000005" class="node">
<title>Node5</title>
<g id="a_Node000005"><a xlink:href="../../d7/dcc/classcv_1_1cann_1_1AscendStream.html#adfc159e3cc719889f8c0aacc5c0204c1" target="_top" xlink:title="blocks the current CPU thread until all operations in the stream are complete.">
<polygon fill="white" stroke="#666666" points="320.5,-30 187.5,-30 187.5,0 320.5,0 320.5,-30"/>
<text text-anchor="start" x="195.5" y="-18" font-family="Helvetica,sans-Serif" font-size="10.00">cv::cann::AscendStream</text>
<text text-anchor="middle" x="254" y="-7" font-family="Helvetica,sans-Serif" font-size="10.00">::waitForCompletion</text>
</a>
</g>
</g>
<!-- Node1&#45;&gt;Node5 -->
<g id="edge4_Node000001_Node000005" class="edge">
<title>Node1&#45;&gt;Node5</title>
<g id="a_edge4_Node000001_Node000005"><a xlink:title=" ">
<path fill="none" stroke="#63b8ff" d="M88.82,-69.41C108.94,-61.12 139.17,-49.07 166,-40 172.96,-37.65 180.28,-35.32 187.6,-33.09"/>
<polygon fill="#63b8ff" stroke="#63b8ff" points="188.96,-36.33 197.53,-30.11 186.95,-29.63 188.96,-36.33"/>
</a>
</g>
</g>
</g>
</svg>
