<?xml version="1.0" encoding="UTF-8" standalone="no"?>
<!DOCTYPE svg PUBLIC "-//W3C//DTD SVG 1.1//EN"
 "http://www.w3.org/Graphics/SVG/1.1/DTD/svg11.dtd">
<!-- Generated by graphviz version 2.43.0 (0)
 -->
<!-- Title: cv::SparseMatIterator Pages: 1 -->
<svg width="419pt" height="1691pt"
 viewBox="0.00 0.00 418.50 1691.00" xmlns="http://www.w3.org/2000/svg" xmlns:xlink="http://www.w3.org/1999/xlink">
<g id="graph0" class="graph" transform="scale(1 1) rotate(0) translate(4 1687)">
<title>cv::SparseMatIterator</title>
<!-- Node1 -->
<g id="Node000001" class="node">
<title>Node1</title>
<g id="a_Node000001"><a xlink:title="Read&#45;write Sparse Matrix Iterator.">
<polygon fill="#999999" stroke="transparent" points="277.5,-169 160.5,-169 160.5,0 277.5,0 277.5,-169"/>
<text text-anchor="start" x="167" y="-156.5" font-family="Helvetica,sans-Serif" font-size="10.00">cv::SparseMatIterator</text>
<text text-anchor="start" x="217.5" y="-141.5" font-family="Helvetica,sans-Serif" font-size="10.00"> </text>
<text text-anchor="start" x="165" y="-126.5" font-family="Helvetica,sans-Serif" font-size="10.00">+</text>
<text text-anchor="start" x="178" y="-126.5" font-family="Helvetica,sans-Serif" font-size="10.00">SparseMatIterator()</text>
<text text-anchor="start" x="165" y="-111.5" font-family="Helvetica,sans-Serif" font-size="10.00">+</text>
<text text-anchor="start" x="178" y="-111.5" font-family="Helvetica,sans-Serif" font-size="10.00">SparseMatIterator()</text>
<text text-anchor="start" x="165" y="-96.5" font-family="Helvetica,sans-Serif" font-size="10.00">+</text>
<text text-anchor="start" x="178" y="-96.5" font-family="Helvetica,sans-Serif" font-size="10.00">SparseMatIterator()</text>
<text text-anchor="start" x="165" y="-81.5" font-family="Helvetica,sans-Serif" font-size="10.00">+</text>
<text text-anchor="start" x="178" y="-81.5" font-family="Helvetica,sans-Serif" font-size="10.00">SparseMatIterator()</text>
<text text-anchor="start" x="165" y="-66.5" font-family="Helvetica,sans-Serif" font-size="10.00">+</text>
<text text-anchor="start" x="178" y="-66.5" font-family="Helvetica,sans-Serif" font-size="10.00">node()</text>
<text text-anchor="start" x="165" y="-51.5" font-family="Helvetica,sans-Serif" font-size="10.00">+</text>
<text text-anchor="start" x="178" y="-51.5" font-family="Helvetica,sans-Serif" font-size="10.00">operator++()</text>
<text text-anchor="start" x="165" y="-36.5" font-family="Helvetica,sans-Serif" font-size="10.00">+</text>
<text text-anchor="start" x="178" y="-36.5" font-family="Helvetica,sans-Serif" font-size="10.00">operator++()</text>
<text text-anchor="start" x="165" y="-21.5" font-family="Helvetica,sans-Serif" font-size="10.00">+</text>
<text text-anchor="start" x="178" y="-21.5" font-family="Helvetica,sans-Serif" font-size="10.00">operator=()</text>
<text text-anchor="start" x="165" y="-6.5" font-family="Helvetica,sans-Serif" font-size="10.00">+</text>
<text text-anchor="start" x="178" y="-6.5" font-family="Helvetica,sans-Serif" font-size="10.00">value()</text>
<polygon fill="#666666" stroke="#666666" points="161,-151.5 161,-151.5 278,-151.5 278,-151.5 161,-151.5"/>
<polygon fill="#666666" stroke="#666666" points="161,-136.5 161,-136.5 278,-136.5 278,-136.5 161,-136.5"/>
<polygon fill="none" stroke="#666666" points="160.5,0 160.5,-169 277.5,-169 277.5,0 160.5,0"/>
</a>
</g>
</g>
<!-- Node2 -->
<g id="Node000002" class="node">
<title>Node2</title>
<g id="a_Node000002"><a xlink:href="../../df/dec/classcv_1_1SparseMatConstIterator.html" target="_top" xlink:title="Read&#45;Only Sparse Matrix Iterator.">
<polygon fill="white" stroke="transparent" points="291.5,-405 146.5,-405 146.5,-206 291.5,-206 291.5,-405"/>
<text text-anchor="start" x="153" y="-392.5" font-family="Helvetica,sans-Serif" font-size="10.00">cv::SparseMatConstIterator</text>
<text text-anchor="start" x="217.5" y="-377.5" font-family="Helvetica,sans-Serif" font-size="10.00"> </text>
<text text-anchor="start" x="151" y="-362.5" font-family="Helvetica,sans-Serif" font-size="10.00">+</text>
<text text-anchor="start" x="164" y="-362.5" font-family="Helvetica,sans-Serif" font-size="10.00">SparseMatConstIterator()</text>
<text text-anchor="start" x="151" y="-347.5" font-family="Helvetica,sans-Serif" font-size="10.00">+</text>
<text text-anchor="start" x="164" y="-347.5" font-family="Helvetica,sans-Serif" font-size="10.00">SparseMatConstIterator()</text>
<text text-anchor="start" x="151" y="-332.5" font-family="Helvetica,sans-Serif" font-size="10.00">+</text>
<text text-anchor="start" x="164" y="-332.5" font-family="Helvetica,sans-Serif" font-size="10.00">SparseMatConstIterator()</text>
<text text-anchor="start" x="151" y="-317.5" font-family="Helvetica,sans-Serif" font-size="10.00">+</text>
<text text-anchor="start" x="164" y="-317.5" font-family="Helvetica,sans-Serif" font-size="10.00">node()</text>
<text text-anchor="start" x="151" y="-302.5" font-family="Helvetica,sans-Serif" font-size="10.00">+</text>
<text text-anchor="start" x="164" y="-302.5" font-family="Helvetica,sans-Serif" font-size="10.00">operator++()</text>
<text text-anchor="start" x="151" y="-287.5" font-family="Helvetica,sans-Serif" font-size="10.00">+</text>
<text text-anchor="start" x="164" y="-287.5" font-family="Helvetica,sans-Serif" font-size="10.00">operator++()</text>
<text text-anchor="start" x="151" y="-272.5" font-family="Helvetica,sans-Serif" font-size="10.00">+</text>
<text text-anchor="start" x="164" y="-272.5" font-family="Helvetica,sans-Serif" font-size="10.00">operator&#45;&#45;()</text>
<text text-anchor="start" x="151" y="-257.5" font-family="Helvetica,sans-Serif" font-size="10.00">+</text>
<text text-anchor="start" x="164" y="-257.5" font-family="Helvetica,sans-Serif" font-size="10.00">operator&#45;&#45;()</text>
<text text-anchor="start" x="151" y="-242.5" font-family="Helvetica,sans-Serif" font-size="10.00">+</text>
<text text-anchor="start" x="164" y="-242.5" font-family="Helvetica,sans-Serif" font-size="10.00">operator=()</text>
<text text-anchor="start" x="151" y="-227.5" font-family="Helvetica,sans-Serif" font-size="10.00">+</text>
<text text-anchor="start" x="164" y="-227.5" font-family="Helvetica,sans-Serif" font-size="10.00">seekEnd()</text>
<text text-anchor="start" x="151" y="-212.5" font-family="Helvetica,sans-Serif" font-size="10.00">+</text>
<text text-anchor="start" x="164" y="-212.5" font-family="Helvetica,sans-Serif" font-size="10.00">value()</text>
<polygon fill="#666666" stroke="#666666" points="147,-387.5 147,-387.5 292,-387.5 292,-387.5 147,-387.5"/>
<polygon fill="#666666" stroke="#666666" points="147,-372.5 147,-372.5 292,-372.5 292,-372.5 147,-372.5"/>
<polygon fill="none" stroke="#666666" points="146.5,-206 146.5,-405 291.5,-405 291.5,-206 146.5,-206"/>
</a>
</g>
</g>
<!-- Node2&#45;&gt;Node1 -->
<g id="edge1_Node000001_Node000002" class="edge">
<title>Node2&#45;&gt;Node1</title>
<g id="a_edge1_Node000001_Node000002"><a xlink:title=" ">
<path fill="none" stroke="#63b8ff" d="M219,-195.8C219,-186.86 219,-177.9 219,-169.18"/>
<polygon fill="none" stroke="#63b8ff" points="215.5,-195.89 219,-205.89 222.5,-195.89 215.5,-195.89"/>
</a>
</g>
</g>
<!-- Node3 -->
<g id="Node000003" class="node">
<title>Node3</title>
<g id="a_Node000003"><a xlink:href="../../dd/da9/classcv_1_1SparseMat.html" target="_top" xlink:title="The class SparseMat represents multi&#45;dimensional sparse numerical arrays.">
<polygon fill="white" stroke="transparent" points="265,-1251 173,-1251 173,-452 265,-452 265,-1251"/>
<text text-anchor="start" x="184.5" y="-1238.5" font-family="Helvetica,sans-Serif" font-size="10.00">cv::SparseMat</text>
<text text-anchor="start" x="217" y="-1223.5" font-family="Helvetica,sans-Serif" font-size="10.00"> </text>
<text text-anchor="start" x="177" y="-1208.5" font-family="Helvetica,sans-Serif" font-size="10.00">+</text>
<text text-anchor="start" x="190" y="-1208.5" font-family="Helvetica,sans-Serif" font-size="10.00">SparseMat()</text>
<text text-anchor="start" x="177" y="-1193.5" font-family="Helvetica,sans-Serif" font-size="10.00">+</text>
<text text-anchor="start" x="190" y="-1193.5" font-family="Helvetica,sans-Serif" font-size="10.00">SparseMat()</text>
<text text-anchor="start" x="177" y="-1178.5" font-family="Helvetica,sans-Serif" font-size="10.00">+</text>
<text text-anchor="start" x="190" y="-1178.5" font-family="Helvetica,sans-Serif" font-size="10.00">SparseMat()</text>
<text text-anchor="start" x="177" y="-1163.5" font-family="Helvetica,sans-Serif" font-size="10.00">+</text>
<text text-anchor="start" x="190" y="-1163.5" font-family="Helvetica,sans-Serif" font-size="10.00">SparseMat()</text>
<text text-anchor="start" x="177" y="-1148.5" font-family="Helvetica,sans-Serif" font-size="10.00">+</text>
<text text-anchor="start" x="190" y="-1148.5" font-family="Helvetica,sans-Serif" font-size="10.00">~SparseMat()</text>
<text text-anchor="start" x="177" y="-1133.5" font-family="Helvetica,sans-Serif" font-size="10.00">+</text>
<text text-anchor="start" x="190" y="-1133.5" font-family="Helvetica,sans-Serif" font-size="10.00">addref()</text>
<text text-anchor="start" x="177" y="-1118.5" font-family="Helvetica,sans-Serif" font-size="10.00">+</text>
<text text-anchor="start" x="190" y="-1118.5" font-family="Helvetica,sans-Serif" font-size="10.00">assignTo()</text>
<text text-anchor="start" x="177" y="-1103.5" font-family="Helvetica,sans-Serif" font-size="10.00">+</text>
<text text-anchor="start" x="190" y="-1103.5" font-family="Helvetica,sans-Serif" font-size="10.00">channels()</text>
<text text-anchor="start" x="177" y="-1088.5" font-family="Helvetica,sans-Serif" font-size="10.00">+</text>
<text text-anchor="start" x="190" y="-1088.5" font-family="Helvetica,sans-Serif" font-size="10.00">clear()</text>
<text text-anchor="start" x="177" y="-1073.5" font-family="Helvetica,sans-Serif" font-size="10.00">+</text>
<text text-anchor="start" x="190" y="-1073.5" font-family="Helvetica,sans-Serif" font-size="10.00">clone()</text>
<text text-anchor="start" x="190" y="-1058.5" font-family="Helvetica,sans-Serif" font-size="10.00">and 34 more...</text>
<text text-anchor="start" x="177" y="-1043.5" font-family="Helvetica,sans-Serif" font-size="10.00">+</text>
<text text-anchor="start" x="190" y="-1043.5" font-family="Helvetica,sans-Serif" font-size="10.00">ptr()</text>
<text text-anchor="start" x="177" y="-1028.5" font-family="Helvetica,sans-Serif" font-size="10.00">+</text>
<text text-anchor="start" x="190" y="-1028.5" font-family="Helvetica,sans-Serif" font-size="10.00">ptr()</text>
<text text-anchor="start" x="177" y="-1013.5" font-family="Helvetica,sans-Serif" font-size="10.00">+</text>
<text text-anchor="start" x="190" y="-1013.5" font-family="Helvetica,sans-Serif" font-size="10.00">ptr()</text>
<text text-anchor="start" x="177" y="-998.5" font-family="Helvetica,sans-Serif" font-size="10.00">+</text>
<text text-anchor="start" x="190" y="-998.5" font-family="Helvetica,sans-Serif" font-size="10.00">ptr()</text>
<text text-anchor="start" x="177" y="-983.5" font-family="Helvetica,sans-Serif" font-size="10.00">+</text>
<text text-anchor="start" x="190" y="-983.5" font-family="Helvetica,sans-Serif" font-size="10.00">ref()</text>
<text text-anchor="start" x="177" y="-968.5" font-family="Helvetica,sans-Serif" font-size="10.00">+</text>
<text text-anchor="start" x="190" y="-968.5" font-family="Helvetica,sans-Serif" font-size="10.00">ref()</text>
<text text-anchor="start" x="177" y="-953.5" font-family="Helvetica,sans-Serif" font-size="10.00">+</text>
<text text-anchor="start" x="190" y="-953.5" font-family="Helvetica,sans-Serif" font-size="10.00">ref()</text>
<text text-anchor="start" x="177" y="-938.5" font-family="Helvetica,sans-Serif" font-size="10.00">+</text>
<text text-anchor="start" x="190" y="-938.5" font-family="Helvetica,sans-Serif" font-size="10.00">ref()</text>
<text text-anchor="start" x="177" y="-923.5" font-family="Helvetica,sans-Serif" font-size="10.00">+</text>
<text text-anchor="start" x="190" y="-923.5" font-family="Helvetica,sans-Serif" font-size="10.00">value()</text>
<text text-anchor="start" x="177" y="-908.5" font-family="Helvetica,sans-Serif" font-size="10.00">+</text>
<text text-anchor="start" x="190" y="-908.5" font-family="Helvetica,sans-Serif" font-size="10.00">value()</text>
<text text-anchor="start" x="177" y="-893.5" font-family="Helvetica,sans-Serif" font-size="10.00">+</text>
<text text-anchor="start" x="190" y="-893.5" font-family="Helvetica,sans-Serif" font-size="10.00">value()</text>
<text text-anchor="start" x="177" y="-878.5" font-family="Helvetica,sans-Serif" font-size="10.00">+</text>
<text text-anchor="start" x="190" y="-878.5" font-family="Helvetica,sans-Serif" font-size="10.00">value()</text>
<text text-anchor="start" x="177" y="-863.5" font-family="Helvetica,sans-Serif" font-size="10.00">+</text>
<text text-anchor="start" x="190" y="-863.5" font-family="Helvetica,sans-Serif" font-size="10.00">find()</text>
<text text-anchor="start" x="177" y="-848.5" font-family="Helvetica,sans-Serif" font-size="10.00">+</text>
<text text-anchor="start" x="190" y="-848.5" font-family="Helvetica,sans-Serif" font-size="10.00">find()</text>
<text text-anchor="start" x="177" y="-833.5" font-family="Helvetica,sans-Serif" font-size="10.00">+</text>
<text text-anchor="start" x="190" y="-833.5" font-family="Helvetica,sans-Serif" font-size="10.00">find()</text>
<text text-anchor="start" x="177" y="-818.5" font-family="Helvetica,sans-Serif" font-size="10.00">+</text>
<text text-anchor="start" x="190" y="-818.5" font-family="Helvetica,sans-Serif" font-size="10.00">find()</text>
<text text-anchor="start" x="177" y="-803.5" font-family="Helvetica,sans-Serif" font-size="10.00">+</text>
<text text-anchor="start" x="190" y="-803.5" font-family="Helvetica,sans-Serif" font-size="10.00">begin()</text>
<text text-anchor="start" x="177" y="-788.5" font-family="Helvetica,sans-Serif" font-size="10.00">+</text>
<text text-anchor="start" x="190" y="-788.5" font-family="Helvetica,sans-Serif" font-size="10.00">begin()</text>
<text text-anchor="start" x="177" y="-773.5" font-family="Helvetica,sans-Serif" font-size="10.00">+</text>
<text text-anchor="start" x="190" y="-773.5" font-family="Helvetica,sans-Serif" font-size="10.00">begin()</text>
<text text-anchor="start" x="177" y="-758.5" font-family="Helvetica,sans-Serif" font-size="10.00">+</text>
<text text-anchor="start" x="190" y="-758.5" font-family="Helvetica,sans-Serif" font-size="10.00">begin()</text>
<text text-anchor="start" x="178.5" y="-743.5" font-family="Helvetica,sans-Serif" font-size="10.00">*</text>
<text text-anchor="start" x="190" y="-743.5" font-family="Helvetica,sans-Serif" font-size="10.00">ptr()</text>
<text text-anchor="start" x="178.5" y="-728.5" font-family="Helvetica,sans-Serif" font-size="10.00">*</text>
<text text-anchor="start" x="190" y="-728.5" font-family="Helvetica,sans-Serif" font-size="10.00">ptr()</text>
<text text-anchor="start" x="178.5" y="-713.5" font-family="Helvetica,sans-Serif" font-size="10.00">*</text>
<text text-anchor="start" x="190" y="-713.5" font-family="Helvetica,sans-Serif" font-size="10.00">ptr()</text>
<text text-anchor="start" x="178.5" y="-698.5" font-family="Helvetica,sans-Serif" font-size="10.00">*</text>
<text text-anchor="start" x="190" y="-698.5" font-family="Helvetica,sans-Serif" font-size="10.00">ptr()</text>
<text text-anchor="start" x="178.5" y="-683.5" font-family="Helvetica,sans-Serif" font-size="10.00">*</text>
<text text-anchor="start" x="190" y="-683.5" font-family="Helvetica,sans-Serif" font-size="10.00">ref()</text>
<text text-anchor="start" x="178.5" y="-668.5" font-family="Helvetica,sans-Serif" font-size="10.00">*</text>
<text text-anchor="start" x="190" y="-668.5" font-family="Helvetica,sans-Serif" font-size="10.00">ref()</text>
<text text-anchor="start" x="178.5" y="-653.5" font-family="Helvetica,sans-Serif" font-size="10.00">*</text>
<text text-anchor="start" x="190" y="-653.5" font-family="Helvetica,sans-Serif" font-size="10.00">ref()</text>
<text text-anchor="start" x="178.5" y="-638.5" font-family="Helvetica,sans-Serif" font-size="10.00">*</text>
<text text-anchor="start" x="190" y="-638.5" font-family="Helvetica,sans-Serif" font-size="10.00">ref()</text>
<text text-anchor="start" x="178.5" y="-623.5" font-family="Helvetica,sans-Serif" font-size="10.00">*</text>
<text text-anchor="start" x="190" y="-623.5" font-family="Helvetica,sans-Serif" font-size="10.00">value()</text>
<text text-anchor="start" x="178.5" y="-608.5" font-family="Helvetica,sans-Serif" font-size="10.00">*</text>
<text text-anchor="start" x="190" y="-608.5" font-family="Helvetica,sans-Serif" font-size="10.00">value()</text>
<text text-anchor="start" x="178.5" y="-593.5" font-family="Helvetica,sans-Serif" font-size="10.00">*</text>
<text text-anchor="start" x="190" y="-593.5" font-family="Helvetica,sans-Serif" font-size="10.00">value()</text>
<text text-anchor="start" x="178.5" y="-578.5" font-family="Helvetica,sans-Serif" font-size="10.00">*</text>
<text text-anchor="start" x="190" y="-578.5" font-family="Helvetica,sans-Serif" font-size="10.00">value()</text>
<text text-anchor="start" x="178.5" y="-563.5" font-family="Helvetica,sans-Serif" font-size="10.00">*</text>
<text text-anchor="start" x="190" y="-563.5" font-family="Helvetica,sans-Serif" font-size="10.00">find()</text>
<text text-anchor="start" x="178.5" y="-548.5" font-family="Helvetica,sans-Serif" font-size="10.00">*</text>
<text text-anchor="start" x="190" y="-548.5" font-family="Helvetica,sans-Serif" font-size="10.00">find()</text>
<text text-anchor="start" x="178.5" y="-533.5" font-family="Helvetica,sans-Serif" font-size="10.00">*</text>
<text text-anchor="start" x="190" y="-533.5" font-family="Helvetica,sans-Serif" font-size="10.00">find()</text>
<text text-anchor="start" x="178.5" y="-518.5" font-family="Helvetica,sans-Serif" font-size="10.00">*</text>
<text text-anchor="start" x="190" y="-518.5" font-family="Helvetica,sans-Serif" font-size="10.00">find()</text>
<text text-anchor="start" x="178.5" y="-503.5" font-family="Helvetica,sans-Serif" font-size="10.00">*</text>
<text text-anchor="start" x="190" y="-503.5" font-family="Helvetica,sans-Serif" font-size="10.00">begin()</text>
<text text-anchor="start" x="178.5" y="-488.5" font-family="Helvetica,sans-Serif" font-size="10.00">*</text>
<text text-anchor="start" x="190" y="-488.5" font-family="Helvetica,sans-Serif" font-size="10.00">begin()</text>
<text text-anchor="start" x="178.5" y="-473.5" font-family="Helvetica,sans-Serif" font-size="10.00">*</text>
<text text-anchor="start" x="190" y="-473.5" font-family="Helvetica,sans-Serif" font-size="10.00">begin()</text>
<text text-anchor="start" x="178.5" y="-458.5" font-family="Helvetica,sans-Serif" font-size="10.00">*</text>
<text text-anchor="start" x="190" y="-458.5" font-family="Helvetica,sans-Serif" font-size="10.00">begin()</text>
<polygon fill="#666666" stroke="#666666" points="173,-1233.5 173,-1233.5 265,-1233.5 265,-1233.5 173,-1233.5"/>
<polygon fill="#666666" stroke="#666666" points="173,-1218.5 173,-1218.5 265,-1218.5 265,-1218.5 173,-1218.5"/>
<polygon fill="none" stroke="#666666" points="173,-452 173,-1251 265,-1251 265,-452 173,-452"/>
</a>
</g>
</g>
<!-- Node3&#45;&gt;Node2 -->
<g id="edge2_Node000002_Node000003" class="edge">
<title>Node3&#45;&gt;Node2</title>
<g id="a_edge2_Node000002_Node000003"><a xlink:title=" ">
<path fill="none" stroke="#63b8ff" d="M219,-451.92C219,-439.94 219,-428.38 219,-417.37"/>
<polygon fill="none" stroke="#63b8ff" points="219,-417.19 215,-411.19 219,-405.19 223,-411.19 219,-417.19"/>
</a>
</g>
<text text-anchor="middle" x="230" y="-426" font-family="Helvetica,sans-Serif" font-size="10.00" fill="grey"> +m</text>
</g>
<!-- Node4 -->
<g id="Node000004" class="node">
<title>Node4</title>
<g id="a_Node000004"><a xlink:title=" ">
<polygon fill="white" stroke="transparent" points="410.5,-1491 387.5,-1491 387.5,-1442 410.5,-1442 410.5,-1491"/>
<text text-anchor="start" x="393" y="-1478.5" font-family="Helvetica,sans-Serif" font-size="10.00">int</text>
<text text-anchor="start" x="397.5" y="-1463.5" font-family="Helvetica,sans-Serif" font-size="10.00"> </text>
<text text-anchor="start" x="397.5" y="-1448.5" font-family="Helvetica,sans-Serif" font-size="10.00"> </text>
<polygon fill="#666666" stroke="#666666" points="388,-1473.5 388,-1473.5 411,-1473.5 411,-1473.5 388,-1473.5"/>
<polygon fill="#666666" stroke="#666666" points="388,-1458.5 388,-1458.5 411,-1458.5 411,-1458.5 388,-1458.5"/>
<polygon fill="none" stroke="#666666" points="387.5,-1442 387.5,-1491 410.5,-1491 410.5,-1442 387.5,-1442"/>
</a>
</g>
</g>
<!-- Node4&#45;&gt;Node3 -->
<g id="edge3_Node000003_Node000004" class="edge">
<title>Node4&#45;&gt;Node3</title>
<g id="a_edge3_Node000003_Node000004"><a xlink:title=" ">
<path fill="none" stroke="#63b8ff" d="M398.21,-1442C396.83,-1424.23 393.24,-1399.64 384,-1380 351.92,-1311.83 304.83,-1319.75 274,-1251 272.53,-1247.71 271.09,-1244.4 269.69,-1241.06"/>
<polygon fill="none" stroke="#63b8ff" points="269.55,-1240.72 263.6,-1236.66 265.07,-1229.6 271.02,-1233.66 269.55,-1240.72"/>
</a>
</g>
<text text-anchor="middle" x="390.5" y="-1327.5" font-family="Helvetica,sans-Serif" font-size="10.00" fill="grey"> +flags</text>
</g>
<!-- Node5 -->
<g id="Node000005" class="node">
<title>Node5</title>
<g id="a_Node000005"><a xlink:href="../../d4/d8d/structcv_1_1SparseMat_1_1Hdr.html" target="_top" xlink:title="the sparse matrix header">
<polygon fill="white" stroke="transparent" points="270,-1362 168,-1362 168,-1298 270,-1298 270,-1362"/>
<text text-anchor="start" x="173" y="-1350" font-family="Helvetica,sans-Serif" font-size="10.00">cv::SparseMat::Hdr</text>
<text text-anchor="start" x="217" y="-1335" font-family="Helvetica,sans-Serif" font-size="10.00"> </text>
<text text-anchor="start" x="184" y="-1320" font-family="Helvetica,sans-Serif" font-size="10.00">+</text>
<text text-anchor="start" x="209" y="-1320" font-family="Helvetica,sans-Serif" font-size="10.00">Hdr()</text>
<text text-anchor="start" x="184" y="-1305" font-family="Helvetica,sans-Serif" font-size="10.00">+</text>
<text text-anchor="start" x="209" y="-1305" font-family="Helvetica,sans-Serif" font-size="10.00">clear()</text>
<polygon fill="#666666" stroke="#666666" points="168,-1345 168,-1345 270,-1345 270,-1345 168,-1345"/>
<polygon fill="#666666" stroke="#666666" points="168,-1330 168,-1330 270,-1330 270,-1330 168,-1330"/>
<polygon fill="none" stroke="#666666" points="168,-1298 168,-1362 270,-1362 270,-1298 168,-1298"/>
</a>
</g>
</g>
<!-- Node4&#45;&gt;Node5 -->
<g id="edge5_Node000005_Node000004" class="edge">
<title>Node4&#45;&gt;Node5</title>
<g id="a_edge5_Node000005_Node000004"><a xlink:title=" ">
<path fill="none" stroke="#63b8ff" d="M387.19,-1449.82C384.43,-1446.91 381.32,-1444.12 378,-1442 354.9,-1427.23 340.25,-1441.32 319,-1424 301.73,-1409.93 310.16,-1396.32 295,-1380 290.46,-1375.11 285.33,-1370.5 279.93,-1366.2"/>
<polygon fill="none" stroke="#63b8ff" points="279.63,-1365.97 272.43,-1365.6 270,-1358.81 277.21,-1359.18 279.63,-1365.97"/>
</a>
</g>
<text text-anchor="middle" x="351.5" y="-1416" font-family="Helvetica,sans-Serif" font-size="10.00" fill="grey"> +dims</text>
<text text-anchor="middle" x="351.5" y="-1405" font-family="Helvetica,sans-Serif" font-size="10.00" fill="grey">+refcount</text>
<text text-anchor="middle" x="351.5" y="-1394" font-family="Helvetica,sans-Serif" font-size="10.00" fill="grey">+size</text>
<text text-anchor="middle" x="351.5" y="-1383" font-family="Helvetica,sans-Serif" font-size="10.00" fill="grey">+valueOffset</text>
</g>
<!-- Node5&#45;&gt;Node3 -->
<g id="edge4_Node000003_Node000005" class="edge">
<title>Node5&#45;&gt;Node3</title>
<g id="a_edge4_Node000003_Node000005"><a xlink:title=" ">
<path fill="none" stroke="#63b8ff" d="M219,-1297.74C219,-1288.14 219,-1276.65 219,-1263.66"/>
<polygon fill="none" stroke="#63b8ff" points="219,-1263.33 215,-1257.33 219,-1251.33 223,-1257.33 219,-1263.33"/>
</a>
</g>
<text text-anchor="middle" x="233" y="-1272" font-family="Helvetica,sans-Serif" font-size="10.00" fill="grey"> +hdr</text>
</g>
<!-- Node6 -->
<g id="Node000006" class="node">
<title>Node6</title>
<g id="a_Node000006"><a xlink:title=" ">
<polygon fill="white" stroke="transparent" points="65.5,-1587 26.5,-1587 26.5,-1538 65.5,-1538 65.5,-1587"/>
<text text-anchor="start" x="32" y="-1574.5" font-family="Helvetica,sans-Serif" font-size="10.00">size_t</text>
<text text-anchor="start" x="44.5" y="-1559.5" font-family="Helvetica,sans-Serif" font-size="10.00"> </text>
<text text-anchor="start" x="44.5" y="-1544.5" font-family="Helvetica,sans-Serif" font-size="10.00"> </text>
<polygon fill="#666666" stroke="#666666" points="27,-1569.5 27,-1569.5 66,-1569.5 66,-1569.5 27,-1569.5"/>
<polygon fill="#666666" stroke="#666666" points="27,-1554.5 27,-1554.5 66,-1554.5 66,-1554.5 27,-1554.5"/>
<polygon fill="none" stroke="#666666" points="26.5,-1538 26.5,-1587 65.5,-1587 65.5,-1538 26.5,-1538"/>
</a>
</g>
</g>
<!-- Node6&#45;&gt;Node2 -->
<g id="edge14_Node000002_Node000006" class="edge">
<title>Node6&#45;&gt;Node2</title>
<g id="a_edge14_Node000002_Node000006"><a xlink:title=" ">
<path fill="none" stroke="#63b8ff" d="M27.02,-1537.91C14.35,-1519.77 0,-1493.48 0,-1467.5 0,-1467.5 0,-1467.5 0,-850.5 0,-690.64 82.39,-522.22 146.1,-415.89"/>
<polygon fill="none" stroke="#63b8ff" points="146.19,-415.74 145.87,-408.54 152.4,-405.47 152.72,-412.68 146.19,-415.74"/>
</a>
</g>
<text text-anchor="middle" x="25" y="-1327.5" font-family="Helvetica,sans-Serif" font-size="10.00" fill="grey"> +hashidx</text>
</g>
<!-- Node6&#45;&gt;Node5 -->
<g id="edge6_Node000005_Node000006" class="edge">
<title>Node6&#45;&gt;Node5</title>
<g id="a_edge6_Node000005_Node000006"><a xlink:title=" ">
<path fill="none" stroke="#63b8ff" d="M42.02,-1537.73C39,-1512.26 37.88,-1471.52 55,-1442 77.74,-1402.78 120.56,-1374.52 156.75,-1356.32"/>
<polygon fill="none" stroke="#63b8ff" points="156.94,-1356.23 160.59,-1350.02 167.74,-1351 164.08,-1357.22 156.94,-1356.23"/>
</a>
</g>
<text text-anchor="middle" x="85.5" y="-1475" font-family="Helvetica,sans-Serif" font-size="10.00" fill="grey"> +freeList</text>
<text text-anchor="middle" x="85.5" y="-1464" font-family="Helvetica,sans-Serif" font-size="10.00" fill="grey">+nodeCount</text>
<text text-anchor="middle" x="85.5" y="-1453" font-family="Helvetica,sans-Serif" font-size="10.00" fill="grey">+nodeSize</text>
</g>
<!-- Node11 -->
<g id="Node000011" class="node">
<title>Node11</title>
<g id="a_Node000011"><a xlink:title=" ">
<polygon fill="white" stroke="transparent" points="238.5,-1491 125.5,-1491 125.5,-1442 238.5,-1442 238.5,-1491"/>
<text text-anchor="start" x="131" y="-1478.5" font-family="Helvetica,sans-Serif" font-size="10.00">std::vector&lt; size_t &gt;</text>
<text text-anchor="start" x="180.5" y="-1463.5" font-family="Helvetica,sans-Serif" font-size="10.00"> </text>
<text text-anchor="start" x="180.5" y="-1448.5" font-family="Helvetica,sans-Serif" font-size="10.00"> </text>
<polygon fill="#666666" stroke="#666666" points="126,-1473.5 126,-1473.5 239,-1473.5 239,-1473.5 126,-1473.5"/>
<polygon fill="#666666" stroke="#666666" points="126,-1458.5 126,-1458.5 239,-1458.5 239,-1458.5 126,-1458.5"/>
<polygon fill="none" stroke="#666666" points="125.5,-1442 125.5,-1491 238.5,-1491 238.5,-1442 125.5,-1442"/>
</a>
</g>
</g>
<!-- Node6&#45;&gt;Node11 -->
<g id="edge12_Node000011_Node000006" class="edge">
<title>Node6&#45;&gt;Node11</title>
<g id="a_edge12_Node000011_Node000006"><a xlink:title=" ">
<path fill="none" stroke="#63b8ff" d="M65.67,-1547.02C80.28,-1536.35 100.74,-1521.57 119,-1509 124.19,-1505.42 129.66,-1501.73 135.12,-1498.08"/>
<polygon fill="none" stroke="#63b8ff" points="135.52,-1497.81 138.31,-1491.16 145.52,-1491.17 142.73,-1497.82 135.52,-1497.81"/>
</a>
</g>
<text text-anchor="middle" x="148" y="-1512" font-family="Helvetica,sans-Serif" font-size="10.00" fill="grey"> +elements</text>
</g>
<!-- Node7 -->
<g id="Node000007" class="node">
<title>Node7</title>
<g id="a_Node000007"><a xlink:title=" ">
<polygon fill="white" stroke="transparent" points="369,-1491 257,-1491 257,-1442 369,-1442 369,-1491"/>
<text text-anchor="start" x="262" y="-1478.5" font-family="Helvetica,sans-Serif" font-size="10.00">std::vector&lt; uchar &gt;</text>
<text text-anchor="start" x="311" y="-1463.5" font-family="Helvetica,sans-Serif" font-size="10.00"> </text>
<text text-anchor="start" x="311" y="-1448.5" font-family="Helvetica,sans-Serif" font-size="10.00"> </text>
<polygon fill="#666666" stroke="#666666" points="257,-1473.5 257,-1473.5 369,-1473.5 369,-1473.5 257,-1473.5"/>
<polygon fill="#666666" stroke="#666666" points="257,-1458.5 257,-1458.5 369,-1458.5 369,-1458.5 257,-1458.5"/>
<polygon fill="none" stroke="#666666" points="257,-1442 257,-1491 369,-1491 369,-1442 257,-1442"/>
</a>
</g>
</g>
<!-- Node7&#45;&gt;Node5 -->
<g id="edge7_Node000005_Node000007" class="edge">
<title>Node7&#45;&gt;Node5</title>
<g id="a_edge7_Node000005_Node000007"><a xlink:title=" ">
<path fill="none" stroke="#63b8ff" d="M279.38,-1441.83C273.11,-1436.44 266.97,-1430.4 262,-1424 255.28,-1415.35 245.07,-1393.49 236.28,-1373.13"/>
<polygon fill="none" stroke="#63b8ff" points="236.28,-1373.12 230.25,-1369.16 231.58,-1362.08 237.61,-1366.03 236.28,-1373.12"/>
</a>
</g>
<text text-anchor="middle" x="278.5" y="-1399.5" font-family="Helvetica,sans-Serif" font-size="10.00" fill="grey"> +pool</text>
</g>
<!-- Node8 -->
<g id="Node000008" class="node">
<title>Node8</title>
<g id="a_Node000008"><a xlink:title=" ">
<polygon fill="white" stroke="transparent" points="355,-1587 317,-1587 317,-1538 355,-1538 355,-1587"/>
<text text-anchor="start" x="322" y="-1574.5" font-family="Helvetica,sans-Serif" font-size="10.00">uchar</text>
<text text-anchor="start" x="334" y="-1559.5" font-family="Helvetica,sans-Serif" font-size="10.00"> </text>
<text text-anchor="start" x="334" y="-1544.5" font-family="Helvetica,sans-Serif" font-size="10.00"> </text>
<polygon fill="#666666" stroke="#666666" points="317,-1569.5 317,-1569.5 355,-1569.5 355,-1569.5 317,-1569.5"/>
<polygon fill="#666666" stroke="#666666" points="317,-1554.5 317,-1554.5 355,-1554.5 355,-1554.5 317,-1554.5"/>
<polygon fill="none" stroke="#666666" points="317,-1538 317,-1587 355,-1587 355,-1538 317,-1538"/>
</a>
</g>
</g>
<!-- Node8&#45;&gt;Node7 -->
<g id="edge8_Node000007_Node000008" class="edge">
<title>Node8&#45;&gt;Node7</title>
<g id="a_edge8_Node000007_Node000008"><a xlink:title=" ">
<path fill="none" stroke="#63b8ff" d="M330.2,-1537.78C327.64,-1527.32 324.57,-1514.79 321.74,-1503.23"/>
<polygon fill="none" stroke="#63b8ff" points="321.65,-1502.87 316.34,-1497.99 318.8,-1491.21 324.11,-1496.09 321.65,-1502.87"/>
</a>
</g>
<text text-anchor="middle" x="354" y="-1512" font-family="Helvetica,sans-Serif" font-size="10.00" fill="grey"> +elements</text>
</g>
<!-- Node9 -->
<g id="Node000009" class="node">
<title>Node9</title>
<g id="a_Node000009"><a xlink:title=" ">
<polygon fill="white" stroke="transparent" points="262.5,-1587 171.5,-1587 171.5,-1538 262.5,-1538 262.5,-1587"/>
<text text-anchor="start" x="177" y="-1574.5" font-family="Helvetica,sans-Serif" font-size="10.00">std::vector&lt; T &gt;</text>
<text text-anchor="start" x="215.5" y="-1559.5" font-family="Helvetica,sans-Serif" font-size="10.00"> </text>
<text text-anchor="start" x="215.5" y="-1544.5" font-family="Helvetica,sans-Serif" font-size="10.00"> </text>
<polygon fill="#666666" stroke="#666666" points="172,-1569.5 172,-1569.5 263,-1569.5 263,-1569.5 172,-1569.5"/>
<polygon fill="#666666" stroke="#666666" points="172,-1554.5 172,-1554.5 263,-1554.5 263,-1554.5 172,-1554.5"/>
<polygon fill="none" stroke="#666666" points="171.5,-1538 171.5,-1587 262.5,-1587 262.5,-1538 171.5,-1538"/>
</a>
</g>
</g>
<!-- Node9&#45;&gt;Node7 -->
<g id="edge9_Node000007_Node000009" class="edge">
<title>Node9&#45;&gt;Node7</title>
<g id="a_edge9_Node000007_Node000009"><a xlink:title=" ">
<path fill="none" stroke="orange" d="M245.25,-1530.24C251.92,-1523.13 259.11,-1515.7 266,-1509 272.09,-1503.08 278.83,-1496.91 285.26,-1491.2"/>
<polygon fill="orange" stroke="orange" points="242.48,-1528.07 238.24,-1537.78 247.61,-1532.84 242.48,-1528.07"/>
</a>
</g>
<text text-anchor="middle" x="292.5" y="-1512" font-family="Helvetica,sans-Serif" font-size="10.00" fill="grey"> &lt; uchar &gt;</text>
</g>
<!-- Node9&#45;&gt;Node11 -->
<g id="edge13_Node000011_Node000009" class="edge">
<title>Node9&#45;&gt;Node11</title>
<g id="a_edge13_Node000011_Node000009"><a xlink:title=" ">
<path fill="none" stroke="orange" d="M187.39,-1529.2C185.66,-1526.23 184.16,-1523.15 183,-1520 179.66,-1510.93 178.92,-1500.37 179.19,-1491.11"/>
<polygon fill="orange" stroke="orange" points="184.66,-1531.41 193.15,-1537.76 190.47,-1527.5 184.66,-1531.41"/>
</a>
</g>
<text text-anchor="middle" x="210.5" y="-1512" font-family="Helvetica,sans-Serif" font-size="10.00" fill="grey"> &lt; size_t &gt;</text>
</g>
<!-- Node10 -->
<g id="Node000010" class="node">
<title>Node10</title>
<g id="a_Node000010"><a xlink:title=" ">
<polygon fill="white" stroke="transparent" points="225.5,-1683 208.5,-1683 208.5,-1634 225.5,-1634 225.5,-1683"/>
<text text-anchor="start" x="214" y="-1670.5" font-family="Helvetica,sans-Serif" font-size="10.00">T</text>
<text text-anchor="start" x="215.5" y="-1655.5" font-family="Helvetica,sans-Serif" font-size="10.00"> </text>
<text text-anchor="start" x="215.5" y="-1640.5" font-family="Helvetica,sans-Serif" font-size="10.00"> </text>
<polygon fill="#666666" stroke="#666666" points="209,-1665.5 209,-1665.5 226,-1665.5 226,-1665.5 209,-1665.5"/>
<polygon fill="#666666" stroke="#666666" points="209,-1650.5 209,-1650.5 226,-1650.5 226,-1650.5 209,-1650.5"/>
<polygon fill="none" stroke="#666666" points="208.5,-1634 208.5,-1683 225.5,-1683 225.5,-1634 208.5,-1634"/>
</a>
</g>
</g>
<!-- Node10&#45;&gt;Node9 -->
<g id="edge10_Node000009_Node000010" class="edge">
<title>Node10&#45;&gt;Node9</title>
<g id="a_edge10_Node000009_Node000010"><a xlink:title=" ">
<path fill="none" stroke="#63b8ff" d="M217,-1633.78C217,-1623.32 217,-1610.79 217,-1599.23"/>
<polygon fill="none" stroke="#63b8ff" points="217,-1599.21 213,-1593.21 217,-1587.21 221,-1593.21 217,-1599.21"/>
</a>
</g>
<text text-anchor="middle" x="246" y="-1608" font-family="Helvetica,sans-Serif" font-size="10.00" fill="grey"> +elements</text>
</g>
<!-- Node11&#45;&gt;Node5 -->
<g id="edge11_Node000005_Node000011" class="edge">
<title>Node11&#45;&gt;Node5</title>
<g id="a_edge11_Node000005_Node000011"><a xlink:title=" ">
<path fill="none" stroke="#63b8ff" d="M179.73,-1441.65C178.86,-1424.15 179.37,-1400.03 186,-1380 186.79,-1377.6 187.74,-1375.22 188.8,-1372.86"/>
<polygon fill="none" stroke="#63b8ff" points="188.88,-1372.71 188.14,-1365.54 194.47,-1362.1 195.21,-1369.27 188.88,-1372.71"/>
</a>
</g>
<text text-anchor="middle" x="211.5" y="-1399.5" font-family="Helvetica,sans-Serif" font-size="10.00" fill="grey"> +hashtab</text>
</g>
<!-- Node12 -->
<g id="Node000012" class="node">
<title>Node12</title>
<g id="a_Node000012"><a xlink:title=" ">
<polygon fill="white" stroke="transparent" points="329,-876 283,-876 283,-827 329,-827 329,-876"/>
<text text-anchor="start" x="288" y="-863.5" font-family="Helvetica,sans-Serif" font-size="10.00">uchar *</text>
<text text-anchor="start" x="304" y="-848.5" font-family="Helvetica,sans-Serif" font-size="10.00"> </text>
<text text-anchor="start" x="304" y="-833.5" font-family="Helvetica,sans-Serif" font-size="10.00"> </text>
<polygon fill="#666666" stroke="#666666" points="283,-858.5 283,-858.5 329,-858.5 329,-858.5 283,-858.5"/>
<polygon fill="#666666" stroke="#666666" points="283,-843.5 283,-843.5 329,-843.5 329,-843.5 283,-843.5"/>
<polygon fill="none" stroke="#666666" points="283,-827 283,-876 329,-876 329,-827 283,-827"/>
</a>
</g>
</g>
<!-- Node12&#45;&gt;Node2 -->
<g id="edge15_Node000002_Node000012" class="edge">
<title>Node12&#45;&gt;Node2</title>
<g id="a_edge15_Node000002_Node000012"><a xlink:title=" ">
<path fill="none" stroke="#63b8ff" d="M306.4,-826.8C306.95,-764.53 305.31,-591.51 274,-452 271.41,-440.44 268.08,-428.57 264.36,-416.83"/>
<polygon fill="none" stroke="#63b8ff" points="264.27,-416.55 258.6,-412.11 260.52,-405.16 266.2,-409.6 264.27,-416.55"/>
</a>
</g>
<text text-anchor="middle" x="280.5" y="-426" font-family="Helvetica,sans-Serif" font-size="10.00" fill="grey"> +ptr</text>
</g>
</g>
</svg>
