<?xml version="1.0" encoding="UTF-8" standalone="no"?>
<!DOCTYPE svg PUBLIC "-//W3C//DTD SVG 1.1//EN"
 "http://www.w3.org/Graphics/SVG/1.1/DTD/svg11.dtd">
<!-- Generated by graphviz version 2.43.0 (0)
 -->
<!-- Title: cv::cudev::maximum::operator() Pages: 1 -->
<svg width="217pt" height="51pt"
 viewBox="0.00 0.00 217.00 50.50" xmlns="http://www.w3.org/2000/svg" xmlns:xlink="http://www.w3.org/1999/xlink">
<g id="graph0" class="graph" transform="scale(1 1) rotate(0) translate(4 46.5)">
<title>cv::cudev::maximum::operator()</title>
<!-- Node1 -->
<g id="Node000001" class="node">
<title>Node1</title>
<g id="a_Node000001"><a xlink:title=" ">
<polygon fill="#999999" stroke="#666666" points="118,-30 0,-30 0,0 118,0 118,-30"/>
<text text-anchor="start" x="8" y="-18" font-family="Helvetica,sans-Serif" font-size="10.00">cv::cudev::maximum</text>
<text text-anchor="middle" x="59" y="-7" font-family="Helvetica,sans-Serif" font-size="10.00">::operator()</text>
</a>
</g>
</g>
<!-- Node2 -->
<g id="Node000002" class="node">
<title>Node2</title>
<g id="a_Node000002"><a xlink:href="../../d2/de8/group__core__array.html#gacc40fa15eac0fb83f8ca70b7cc0b588d" target="_top" xlink:title="Calculates per&#45;element maximum of two arrays or an array and a scalar.">
<polygon fill="white" stroke="#666666" points="209,-24.5 154,-24.5 154,-5.5 209,-5.5 209,-24.5"/>
<text text-anchor="middle" x="181.5" y="-12.5" font-family="Helvetica,sans-Serif" font-size="10.00">cv::max</text>
</a>
</g>
</g>
<!-- Node1&#45;&gt;Node2 -->
<g id="edge1_Node000001_Node000002" class="edge">
<title>Node1&#45;&gt;Node2</title>
<g id="a_edge1_Node000001_Node000002"><a xlink:title=" ">
<path fill="none" stroke="#63b8ff" d="M118.13,-15C126.84,-15 135.6,-15 143.69,-15"/>
<polygon fill="#63b8ff" stroke="#63b8ff" points="143.89,-18.5 153.89,-15 143.89,-11.5 143.89,-18.5"/>
</a>
</g>
</g>
<!-- Node2&#45;&gt;Node2 -->
<g id="edge2_Node000002_Node000002" class="edge">
<title>Node2&#45;&gt;Node2</title>
<g id="a_edge2_Node000002_Node000002"><a xlink:title=" ">
<path fill="none" stroke="#63b8ff" d="M162.7,-24.58C153.55,-33.23 159.82,-42.5 181.5,-42.5 195.05,-42.5 202.58,-38.88 204.09,-34.05"/>
<polygon fill="#63b8ff" stroke="#63b8ff" points="207.27,-32.57 200.3,-24.58 200.77,-35.17 207.27,-32.57"/>
</a>
</g>
</g>
</g>
</svg>
