<?xml version="1.0" encoding="UTF-8" standalone="no"?>
<!DOCTYPE svg PUBLIC "-//W3C//DTD SVG 1.1//EN"
 "http://www.w3.org/Graphics/SVG/1.1/DTD/svg11.dtd">
<!-- Generated by graphviz version 2.43.0 (0)
 -->
<!-- Title: cv::RotatedRect Pages: 1 -->
<svg width="395pt" height="869pt"
 viewBox="0.00 0.00 395.00 869.00" xmlns="http://www.w3.org/2000/svg" xmlns:xlink="http://www.w3.org/1999/xlink">
<g id="graph0" class="graph" transform="scale(1 1) rotate(0) translate(4 865)">
<title>cv::RotatedRect</title>
<!-- Node1 -->
<g id="Node000001" class="node">
<title>Node1</title>
<g id="a_Node000001"><a xlink:title="The class represents rotated (i.e. not up&#45;right) rectangles on a plane.">
<polygon fill="#999999" stroke="transparent" points="237.5,-139 131.5,-139 131.5,0 237.5,0 237.5,-139"/>
<text text-anchor="start" x="146" y="-126.5" font-family="Helvetica,sans-Serif" font-size="10.00">cv::RotatedRect</text>
<text text-anchor="start" x="182.5" y="-111.5" font-family="Helvetica,sans-Serif" font-size="10.00"> </text>
<text text-anchor="start" x="135.5" y="-96.5" font-family="Helvetica,sans-Serif" font-size="10.00">+</text>
<text text-anchor="start" x="148.5" y="-96.5" font-family="Helvetica,sans-Serif" font-size="10.00">RotatedRect()</text>
<text text-anchor="start" x="135.5" y="-81.5" font-family="Helvetica,sans-Serif" font-size="10.00">+</text>
<text text-anchor="start" x="148.5" y="-81.5" font-family="Helvetica,sans-Serif" font-size="10.00">RotatedRect()</text>
<text text-anchor="start" x="135.5" y="-66.5" font-family="Helvetica,sans-Serif" font-size="10.00">+</text>
<text text-anchor="start" x="148.5" y="-66.5" font-family="Helvetica,sans-Serif" font-size="10.00">RotatedRect()</text>
<text text-anchor="start" x="135.5" y="-51.5" font-family="Helvetica,sans-Serif" font-size="10.00">+</text>
<text text-anchor="start" x="148.5" y="-51.5" font-family="Helvetica,sans-Serif" font-size="10.00">boundingRect()</text>
<text text-anchor="start" x="135.5" y="-36.5" font-family="Helvetica,sans-Serif" font-size="10.00">+</text>
<text text-anchor="start" x="148.5" y="-36.5" font-family="Helvetica,sans-Serif" font-size="10.00">boundingRect2f()</text>
<text text-anchor="start" x="135.5" y="-21.5" font-family="Helvetica,sans-Serif" font-size="10.00">+</text>
<text text-anchor="start" x="148.5" y="-21.5" font-family="Helvetica,sans-Serif" font-size="10.00">points()</text>
<text text-anchor="start" x="135.5" y="-6.5" font-family="Helvetica,sans-Serif" font-size="10.00">+</text>
<text text-anchor="start" x="148.5" y="-6.5" font-family="Helvetica,sans-Serif" font-size="10.00">points()</text>
<polygon fill="#666666" stroke="#666666" points="131.5,-121.5 131.5,-121.5 237.5,-121.5 237.5,-121.5 131.5,-121.5"/>
<polygon fill="#666666" stroke="#666666" points="131.5,-106.5 131.5,-106.5 237.5,-106.5 237.5,-106.5 131.5,-106.5"/>
<polygon fill="none" stroke="#666666" points="131.5,0 131.5,-139 237.5,-139 237.5,0 131.5,0"/>
</a>
</g>
</g>
<!-- Node2 -->
<g id="Node000002" class="node">
<title>Node2</title>
<g id="a_Node000002"><a xlink:href="../../db/d4e/classcv_1_1Point__.html" target="_top" xlink:title=" ">
<polygon fill="white" stroke="transparent" points="149,-441 0,-441 0,-186 149,-186 149,-441"/>
<text text-anchor="start" x="29.5" y="-428.5" font-family="Helvetica,sans-Serif" font-size="10.00">cv::Point_&lt; float &gt;</text>
<text text-anchor="start" x="73" y="-413.5" font-family="Helvetica,sans-Serif" font-size="10.00"> </text>
<text text-anchor="start" x="4.5" y="-398.5" font-family="Helvetica,sans-Serif" font-size="10.00">+</text>
<text text-anchor="start" x="17.5" y="-398.5" font-family="Helvetica,sans-Serif" font-size="10.00">Point_()</text>
<text text-anchor="start" x="4.5" y="-383.5" font-family="Helvetica,sans-Serif" font-size="10.00">+</text>
<text text-anchor="start" x="17.5" y="-383.5" font-family="Helvetica,sans-Serif" font-size="10.00">Point_()</text>
<text text-anchor="start" x="4.5" y="-368.5" font-family="Helvetica,sans-Serif" font-size="10.00">+</text>
<text text-anchor="start" x="17.5" y="-368.5" font-family="Helvetica,sans-Serif" font-size="10.00">Point_()</text>
<text text-anchor="start" x="4.5" y="-353.5" font-family="Helvetica,sans-Serif" font-size="10.00">+</text>
<text text-anchor="start" x="17.5" y="-353.5" font-family="Helvetica,sans-Serif" font-size="10.00">Point_()</text>
<text text-anchor="start" x="4.5" y="-338.5" font-family="Helvetica,sans-Serif" font-size="10.00">+</text>
<text text-anchor="start" x="17.5" y="-338.5" font-family="Helvetica,sans-Serif" font-size="10.00">Point_()</text>
<text text-anchor="start" x="4.5" y="-323.5" font-family="Helvetica,sans-Serif" font-size="10.00">+</text>
<text text-anchor="start" x="17.5" y="-323.5" font-family="Helvetica,sans-Serif" font-size="10.00">Point_()</text>
<text text-anchor="start" x="4.5" y="-308.5" font-family="Helvetica,sans-Serif" font-size="10.00">+</text>
<text text-anchor="start" x="17.5" y="-308.5" font-family="Helvetica,sans-Serif" font-size="10.00">cross()</text>
<text text-anchor="start" x="4.5" y="-293.5" font-family="Helvetica,sans-Serif" font-size="10.00">+</text>
<text text-anchor="start" x="17.5" y="-293.5" font-family="Helvetica,sans-Serif" font-size="10.00">ddot()</text>
<text text-anchor="start" x="4.5" y="-278.5" font-family="Helvetica,sans-Serif" font-size="10.00">+</text>
<text text-anchor="start" x="17.5" y="-278.5" font-family="Helvetica,sans-Serif" font-size="10.00">dot()</text>
<text text-anchor="start" x="4.5" y="-263.5" font-family="Helvetica,sans-Serif" font-size="10.00">+</text>
<text text-anchor="start" x="17.5" y="-263.5" font-family="Helvetica,sans-Serif" font-size="10.00">inside()</text>
<text text-anchor="start" x="4.5" y="-248.5" font-family="Helvetica,sans-Serif" font-size="10.00">+</text>
<text text-anchor="start" x="17.5" y="-248.5" font-family="Helvetica,sans-Serif" font-size="10.00">operator Point_&lt; _Tp2 &gt;()</text>
<text text-anchor="start" x="4.5" y="-233.5" font-family="Helvetica,sans-Serif" font-size="10.00">+</text>
<text text-anchor="start" x="17.5" y="-233.5" font-family="Helvetica,sans-Serif" font-size="10.00">operator Vec&lt; float,</text>
<text text-anchor="start" x="17.5" y="-222.5" font-family="Helvetica,sans-Serif" font-size="10.00"> 2 &gt;()</text>
<text text-anchor="start" x="4.5" y="-207.5" font-family="Helvetica,sans-Serif" font-size="10.00">+</text>
<text text-anchor="start" x="17.5" y="-207.5" font-family="Helvetica,sans-Serif" font-size="10.00">operator=()</text>
<text text-anchor="start" x="4.5" y="-192.5" font-family="Helvetica,sans-Serif" font-size="10.00">+</text>
<text text-anchor="start" x="17.5" y="-192.5" font-family="Helvetica,sans-Serif" font-size="10.00">operator=()</text>
<polygon fill="#666666" stroke="#666666" points="0.5,-423.5 0.5,-423.5 149.5,-423.5 149.5,-423.5 0.5,-423.5"/>
<polygon fill="#666666" stroke="#666666" points="0.5,-408.5 0.5,-408.5 149.5,-408.5 149.5,-408.5 0.5,-408.5"/>
<polygon fill="none" stroke="#666666" points="0,-186 0,-441 149,-441 149,-186 0,-186"/>
</a>
</g>
</g>
<!-- Node2&#45;&gt;Node1 -->
<g id="edge1_Node000001_Node000002" class="edge">
<title>Node2&#45;&gt;Node1</title>
<g id="a_edge1_Node000001_Node000002"><a xlink:title=" ">
<path fill="none" stroke="#63b8ff" d="M114.64,-185.79C118.69,-175.92 122.98,-166.22 127.5,-157 128.61,-154.73 129.78,-152.45 130.98,-150.16"/>
<polygon fill="none" stroke="#63b8ff" points="131.08,-149.98 130.48,-142.79 136.88,-139.47 137.48,-146.65 131.08,-149.98"/>
</a>
</g>
<text text-anchor="middle" x="149" y="-160" font-family="Helvetica,sans-Serif" font-size="10.00" fill="grey"> +center</text>
</g>
<!-- Node3 -->
<g id="Node000003" class="node">
<title>Node3</title>
<g id="a_Node000003"><a xlink:title=" ">
<polygon fill="white" stroke="transparent" points="200.5,-651 168.5,-651 168.5,-602 200.5,-602 200.5,-651"/>
<text text-anchor="start" x="173.5" y="-638.5" font-family="Helvetica,sans-Serif" font-size="10.00">float</text>
<text text-anchor="start" x="182.5" y="-623.5" font-family="Helvetica,sans-Serif" font-size="10.00"> </text>
<text text-anchor="start" x="182.5" y="-608.5" font-family="Helvetica,sans-Serif" font-size="10.00"> </text>
<polygon fill="#666666" stroke="#666666" points="168.5,-633.5 168.5,-633.5 200.5,-633.5 200.5,-633.5 168.5,-633.5"/>
<polygon fill="#666666" stroke="#666666" points="168.5,-618.5 168.5,-618.5 200.5,-618.5 200.5,-618.5 168.5,-618.5"/>
<polygon fill="none" stroke="#666666" points="168.5,-602 168.5,-651 200.5,-651 200.5,-602 168.5,-602"/>
</a>
</g>
</g>
<!-- Node3&#45;&gt;Node1 -->
<g id="edge9_Node000001_Node000003" class="edge">
<title>Node3&#45;&gt;Node1</title>
<g id="a_edge9_Node000001_Node000003"><a xlink:title=" ">
<path fill="none" stroke="#63b8ff" d="M184.5,-601.65C184.5,-524.57 184.5,-279.69 184.5,-151.11"/>
<polygon fill="none" stroke="#63b8ff" points="184.5,-151.04 180.5,-145.04 184.5,-139.04 188.5,-145.04 184.5,-151.04"/>
</a>
</g>
<text text-anchor="middle" x="204" y="-311" font-family="Helvetica,sans-Serif" font-size="10.00" fill="grey"> +angle</text>
</g>
<!-- Node3&#45;&gt;Node2 -->
<g id="edge2_Node000002_Node000003" class="edge">
<title>Node3&#45;&gt;Node2</title>
<g id="a_edge2_Node000002_Node000003"><a xlink:title=" ">
<path fill="none" stroke="#63b8ff" d="M181.52,-601.76C177.9,-576.02 170.82,-533.93 159.5,-499 157.49,-492.81 149.58,-474.85 139.33,-452.43"/>
<polygon fill="none" stroke="#63b8ff" points="139.3,-452.37 133.16,-448.59 134.3,-441.46 140.43,-445.25 139.3,-452.37"/>
</a>
</g>
<text text-anchor="middle" x="159.5" y="-473" font-family="Helvetica,sans-Serif" font-size="10.00" fill="grey"> +x</text>
<text text-anchor="middle" x="159.5" y="-462" font-family="Helvetica,sans-Serif" font-size="10.00" fill="grey">+y</text>
</g>
<!-- Node6 -->
<g id="Node000006" class="node">
<title>Node6</title>
<g id="a_Node000006"><a xlink:href="../../d6/d50/classcv_1_1Size__.html" target="_top" xlink:title=" ">
<polygon fill="white" stroke="transparent" points="387,-413 242,-413 242,-214 387,-214 387,-413"/>
<text text-anchor="start" x="271.5" y="-400.5" font-family="Helvetica,sans-Serif" font-size="10.00">cv::Size_&lt; float &gt;</text>
<text text-anchor="start" x="313" y="-385.5" font-family="Helvetica,sans-Serif" font-size="10.00"> </text>
<text text-anchor="start" x="246.5" y="-370.5" font-family="Helvetica,sans-Serif" font-size="10.00">+</text>
<text text-anchor="start" x="259.5" y="-370.5" font-family="Helvetica,sans-Serif" font-size="10.00">Size_()</text>
<text text-anchor="start" x="246.5" y="-355.5" font-family="Helvetica,sans-Serif" font-size="10.00">+</text>
<text text-anchor="start" x="259.5" y="-355.5" font-family="Helvetica,sans-Serif" font-size="10.00">Size_()</text>
<text text-anchor="start" x="246.5" y="-340.5" font-family="Helvetica,sans-Serif" font-size="10.00">+</text>
<text text-anchor="start" x="259.5" y="-340.5" font-family="Helvetica,sans-Serif" font-size="10.00">Size_()</text>
<text text-anchor="start" x="246.5" y="-325.5" font-family="Helvetica,sans-Serif" font-size="10.00">+</text>
<text text-anchor="start" x="259.5" y="-325.5" font-family="Helvetica,sans-Serif" font-size="10.00">Size_()</text>
<text text-anchor="start" x="246.5" y="-310.5" font-family="Helvetica,sans-Serif" font-size="10.00">+</text>
<text text-anchor="start" x="259.5" y="-310.5" font-family="Helvetica,sans-Serif" font-size="10.00">Size_()</text>
<text text-anchor="start" x="246.5" y="-295.5" font-family="Helvetica,sans-Serif" font-size="10.00">+</text>
<text text-anchor="start" x="259.5" y="-295.5" font-family="Helvetica,sans-Serif" font-size="10.00">area()</text>
<text text-anchor="start" x="246.5" y="-280.5" font-family="Helvetica,sans-Serif" font-size="10.00">+</text>
<text text-anchor="start" x="259.5" y="-280.5" font-family="Helvetica,sans-Serif" font-size="10.00">aspectRatio()</text>
<text text-anchor="start" x="246.5" y="-265.5" font-family="Helvetica,sans-Serif" font-size="10.00">+</text>
<text text-anchor="start" x="259.5" y="-265.5" font-family="Helvetica,sans-Serif" font-size="10.00">empty()</text>
<text text-anchor="start" x="246.5" y="-250.5" font-family="Helvetica,sans-Serif" font-size="10.00">+</text>
<text text-anchor="start" x="259.5" y="-250.5" font-family="Helvetica,sans-Serif" font-size="10.00">operator Size_&lt; _Tp2 &gt;()</text>
<text text-anchor="start" x="246.5" y="-235.5" font-family="Helvetica,sans-Serif" font-size="10.00">+</text>
<text text-anchor="start" x="259.5" y="-235.5" font-family="Helvetica,sans-Serif" font-size="10.00">operator=()</text>
<text text-anchor="start" x="246.5" y="-220.5" font-family="Helvetica,sans-Serif" font-size="10.00">+</text>
<text text-anchor="start" x="259.5" y="-220.5" font-family="Helvetica,sans-Serif" font-size="10.00">operator=()</text>
<polygon fill="#666666" stroke="#666666" points="242.5,-395.5 242.5,-395.5 387.5,-395.5 387.5,-395.5 242.5,-395.5"/>
<polygon fill="#666666" stroke="#666666" points="242.5,-380.5 242.5,-380.5 387.5,-380.5 387.5,-380.5 242.5,-380.5"/>
<polygon fill="none" stroke="#666666" points="242,-214 242,-413 387,-413 387,-214 242,-214"/>
</a>
</g>
</g>
<!-- Node3&#45;&gt;Node6 -->
<g id="edge6_Node000006_Node000003" class="edge">
<title>Node3&#45;&gt;Node6</title>
<g id="a_edge6_Node000006_Node000003"><a xlink:title=" ">
<path fill="none" stroke="#63b8ff" d="M190.07,-601.76C196.42,-576.01 207.73,-533.91 221.5,-499 231.26,-474.26 243.17,-448.37 255.16,-424.08"/>
<polygon fill="none" stroke="#63b8ff" points="255.31,-423.78 254.41,-416.62 260.67,-413.04 261.57,-420.2 255.31,-423.78"/>
</a>
</g>
<text text-anchor="middle" x="258" y="-473" font-family="Helvetica,sans-Serif" font-size="10.00" fill="grey"> +height</text>
<text text-anchor="middle" x="258" y="-462" font-family="Helvetica,sans-Serif" font-size="10.00" fill="grey">+width</text>
</g>
<!-- Node4 -->
<g id="Node000004" class="node">
<title>Node4</title>
<g id="a_Node000004"><a xlink:href="../../db/d4e/classcv_1_1Point__.html" target="_top" xlink:title="Template class for 2D points specified by its coordinates x and y.">
<polygon fill="white" stroke="transparent" points="151,-754 2,-754 2,-499 151,-499 151,-754"/>
<text text-anchor="start" x="33.5" y="-741.5" font-family="Helvetica,sans-Serif" font-size="10.00">cv::Point_&lt; _Tp &gt;</text>
<text text-anchor="start" x="75" y="-726.5" font-family="Helvetica,sans-Serif" font-size="10.00"> </text>
<text text-anchor="start" x="6.5" y="-711.5" font-family="Helvetica,sans-Serif" font-size="10.00">+</text>
<text text-anchor="start" x="19.5" y="-711.5" font-family="Helvetica,sans-Serif" font-size="10.00">Point_()</text>
<text text-anchor="start" x="6.5" y="-696.5" font-family="Helvetica,sans-Serif" font-size="10.00">+</text>
<text text-anchor="start" x="19.5" y="-696.5" font-family="Helvetica,sans-Serif" font-size="10.00">Point_()</text>
<text text-anchor="start" x="6.5" y="-681.5" font-family="Helvetica,sans-Serif" font-size="10.00">+</text>
<text text-anchor="start" x="19.5" y="-681.5" font-family="Helvetica,sans-Serif" font-size="10.00">Point_()</text>
<text text-anchor="start" x="6.5" y="-666.5" font-family="Helvetica,sans-Serif" font-size="10.00">+</text>
<text text-anchor="start" x="19.5" y="-666.5" font-family="Helvetica,sans-Serif" font-size="10.00">Point_()</text>
<text text-anchor="start" x="6.5" y="-651.5" font-family="Helvetica,sans-Serif" font-size="10.00">+</text>
<text text-anchor="start" x="19.5" y="-651.5" font-family="Helvetica,sans-Serif" font-size="10.00">Point_()</text>
<text text-anchor="start" x="6.5" y="-636.5" font-family="Helvetica,sans-Serif" font-size="10.00">+</text>
<text text-anchor="start" x="19.5" y="-636.5" font-family="Helvetica,sans-Serif" font-size="10.00">Point_()</text>
<text text-anchor="start" x="6.5" y="-621.5" font-family="Helvetica,sans-Serif" font-size="10.00">+</text>
<text text-anchor="start" x="19.5" y="-621.5" font-family="Helvetica,sans-Serif" font-size="10.00">cross()</text>
<text text-anchor="start" x="6.5" y="-606.5" font-family="Helvetica,sans-Serif" font-size="10.00">+</text>
<text text-anchor="start" x="19.5" y="-606.5" font-family="Helvetica,sans-Serif" font-size="10.00">ddot()</text>
<text text-anchor="start" x="6.5" y="-591.5" font-family="Helvetica,sans-Serif" font-size="10.00">+</text>
<text text-anchor="start" x="19.5" y="-591.5" font-family="Helvetica,sans-Serif" font-size="10.00">dot()</text>
<text text-anchor="start" x="6.5" y="-576.5" font-family="Helvetica,sans-Serif" font-size="10.00">+</text>
<text text-anchor="start" x="19.5" y="-576.5" font-family="Helvetica,sans-Serif" font-size="10.00">inside()</text>
<text text-anchor="start" x="6.5" y="-561.5" font-family="Helvetica,sans-Serif" font-size="10.00">+</text>
<text text-anchor="start" x="19.5" y="-561.5" font-family="Helvetica,sans-Serif" font-size="10.00">operator Point_&lt; _Tp2 &gt;()</text>
<text text-anchor="start" x="6.5" y="-546.5" font-family="Helvetica,sans-Serif" font-size="10.00">+</text>
<text text-anchor="start" x="19.5" y="-546.5" font-family="Helvetica,sans-Serif" font-size="10.00">operator Vec&lt; _Tp,</text>
<text text-anchor="start" x="19.5" y="-535.5" font-family="Helvetica,sans-Serif" font-size="10.00"> 2 &gt;()</text>
<text text-anchor="start" x="6.5" y="-520.5" font-family="Helvetica,sans-Serif" font-size="10.00">+</text>
<text text-anchor="start" x="19.5" y="-520.5" font-family="Helvetica,sans-Serif" font-size="10.00">operator=()</text>
<text text-anchor="start" x="6.5" y="-505.5" font-family="Helvetica,sans-Serif" font-size="10.00">+</text>
<text text-anchor="start" x="19.5" y="-505.5" font-family="Helvetica,sans-Serif" font-size="10.00">operator=()</text>
<polygon fill="#666666" stroke="#666666" points="2.5,-736.5 2.5,-736.5 151.5,-736.5 151.5,-736.5 2.5,-736.5"/>
<polygon fill="#666666" stroke="#666666" points="2.5,-721.5 2.5,-721.5 151.5,-721.5 151.5,-721.5 2.5,-721.5"/>
<polygon fill="none" stroke="#666666" points="2,-499 2,-754 151,-754 151,-499 2,-499"/>
</a>
</g>
</g>
<!-- Node4&#45;&gt;Node2 -->
<g id="edge3_Node000002_Node000004" class="edge">
<title>Node4&#45;&gt;Node2</title>
<g id="a_edge3_Node000002_Node000004"><a xlink:title=" ">
<path fill="none" stroke="orange" d="M75.62,-488.27C75.52,-472.56 75.41,-456.6 75.31,-441.04"/>
<polygon fill="orange" stroke="orange" points="72.12,-488.58 75.68,-498.56 79.12,-488.53 72.12,-488.58"/>
</a>
</g>
<text text-anchor="middle" x="100.5" y="-467.5" font-family="Helvetica,sans-Serif" font-size="10.00" fill="grey"> &lt; float &gt;</text>
</g>
<!-- Node5 -->
<g id="Node000005" class="node">
<title>Node5</title>
<g id="a_Node000005"><a xlink:href="../../d1/dd7/class__Tp.html" target="_top" xlink:title=" ">
<polygon fill="white" stroke="transparent" points="197.5,-861 169.5,-861 169.5,-812 197.5,-812 197.5,-861"/>
<text text-anchor="start" x="174.5" y="-848.5" font-family="Helvetica,sans-Serif" font-size="10.00">_Tp</text>
<text text-anchor="start" x="181.5" y="-833.5" font-family="Helvetica,sans-Serif" font-size="10.00"> </text>
<text text-anchor="start" x="181.5" y="-818.5" font-family="Helvetica,sans-Serif" font-size="10.00"> </text>
<polygon fill="#666666" stroke="#666666" points="169.5,-843.5 169.5,-843.5 197.5,-843.5 197.5,-843.5 169.5,-843.5"/>
<polygon fill="#666666" stroke="#666666" points="169.5,-828.5 169.5,-828.5 197.5,-828.5 197.5,-828.5 169.5,-828.5"/>
<polygon fill="none" stroke="#666666" points="169.5,-812 169.5,-861 197.5,-861 197.5,-812 169.5,-812"/>
</a>
</g>
</g>
<!-- Node5&#45;&gt;Node4 -->
<g id="edge4_Node000004_Node000005" class="edge">
<title>Node5&#45;&gt;Node4</title>
<g id="a_edge4_Node000004_Node000005"><a xlink:title=" ">
<path fill="none" stroke="#63b8ff" d="M171.23,-811.64C164.8,-799.15 156.36,-782.75 147.17,-764.88"/>
<polygon fill="none" stroke="#63b8ff" points="147.17,-764.88 140.87,-761.37 141.68,-754.21 147.98,-757.71 147.17,-764.88"/>
</a>
</g>
<text text-anchor="middle" x="168.5" y="-786" font-family="Helvetica,sans-Serif" font-size="10.00" fill="grey"> +x</text>
<text text-anchor="middle" x="168.5" y="-775" font-family="Helvetica,sans-Serif" font-size="10.00" fill="grey">+y</text>
</g>
<!-- Node7 -->
<g id="Node000007" class="node">
<title>Node7</title>
<g id="a_Node000007"><a xlink:href="../../d6/d50/classcv_1_1Size__.html" target="_top" xlink:title="Template class for specifying the size of an image or rectangle.">
<polygon fill="white" stroke="transparent" points="375,-726 230,-726 230,-527 375,-527 375,-726"/>
<text text-anchor="start" x="262" y="-713.5" font-family="Helvetica,sans-Serif" font-size="10.00">cv::Size_&lt; _Tp &gt;</text>
<text text-anchor="start" x="301" y="-698.5" font-family="Helvetica,sans-Serif" font-size="10.00"> </text>
<text text-anchor="start" x="234.5" y="-683.5" font-family="Helvetica,sans-Serif" font-size="10.00">+</text>
<text text-anchor="start" x="247.5" y="-683.5" font-family="Helvetica,sans-Serif" font-size="10.00">Size_()</text>
<text text-anchor="start" x="234.5" y="-668.5" font-family="Helvetica,sans-Serif" font-size="10.00">+</text>
<text text-anchor="start" x="247.5" y="-668.5" font-family="Helvetica,sans-Serif" font-size="10.00">Size_()</text>
<text text-anchor="start" x="234.5" y="-653.5" font-family="Helvetica,sans-Serif" font-size="10.00">+</text>
<text text-anchor="start" x="247.5" y="-653.5" font-family="Helvetica,sans-Serif" font-size="10.00">Size_()</text>
<text text-anchor="start" x="234.5" y="-638.5" font-family="Helvetica,sans-Serif" font-size="10.00">+</text>
<text text-anchor="start" x="247.5" y="-638.5" font-family="Helvetica,sans-Serif" font-size="10.00">Size_()</text>
<text text-anchor="start" x="234.5" y="-623.5" font-family="Helvetica,sans-Serif" font-size="10.00">+</text>
<text text-anchor="start" x="247.5" y="-623.5" font-family="Helvetica,sans-Serif" font-size="10.00">Size_()</text>
<text text-anchor="start" x="234.5" y="-608.5" font-family="Helvetica,sans-Serif" font-size="10.00">+</text>
<text text-anchor="start" x="247.5" y="-608.5" font-family="Helvetica,sans-Serif" font-size="10.00">area()</text>
<text text-anchor="start" x="234.5" y="-593.5" font-family="Helvetica,sans-Serif" font-size="10.00">+</text>
<text text-anchor="start" x="247.5" y="-593.5" font-family="Helvetica,sans-Serif" font-size="10.00">aspectRatio()</text>
<text text-anchor="start" x="234.5" y="-578.5" font-family="Helvetica,sans-Serif" font-size="10.00">+</text>
<text text-anchor="start" x="247.5" y="-578.5" font-family="Helvetica,sans-Serif" font-size="10.00">empty()</text>
<text text-anchor="start" x="234.5" y="-563.5" font-family="Helvetica,sans-Serif" font-size="10.00">+</text>
<text text-anchor="start" x="247.5" y="-563.5" font-family="Helvetica,sans-Serif" font-size="10.00">operator Size_&lt; _Tp2 &gt;()</text>
<text text-anchor="start" x="234.5" y="-548.5" font-family="Helvetica,sans-Serif" font-size="10.00">+</text>
<text text-anchor="start" x="247.5" y="-548.5" font-family="Helvetica,sans-Serif" font-size="10.00">operator=()</text>
<text text-anchor="start" x="234.5" y="-533.5" font-family="Helvetica,sans-Serif" font-size="10.00">+</text>
<text text-anchor="start" x="247.5" y="-533.5" font-family="Helvetica,sans-Serif" font-size="10.00">operator=()</text>
<polygon fill="#666666" stroke="#666666" points="230.5,-708.5 230.5,-708.5 375.5,-708.5 375.5,-708.5 230.5,-708.5"/>
<polygon fill="#666666" stroke="#666666" points="230.5,-693.5 230.5,-693.5 375.5,-693.5 375.5,-693.5 230.5,-693.5"/>
<polygon fill="none" stroke="#666666" points="230,-527 230,-726 375,-726 375,-527 230,-527"/>
</a>
</g>
</g>
<!-- Node5&#45;&gt;Node7 -->
<g id="edge8_Node000007_Node000005" class="edge">
<title>Node5&#45;&gt;Node7</title>
<g id="a_edge8_Node000007_Node000005"><a xlink:title=" ">
<path fill="none" stroke="#63b8ff" d="M197.15,-811.64C207.97,-792.73 223.92,-764.84 240.16,-736.47"/>
<polygon fill="none" stroke="#63b8ff" points="240.19,-736.42 239.69,-729.23 246.14,-726 246.64,-733.2 240.19,-736.42"/>
</a>
</g>
<text text-anchor="middle" x="240" y="-786" font-family="Helvetica,sans-Serif" font-size="10.00" fill="grey"> +height</text>
<text text-anchor="middle" x="240" y="-775" font-family="Helvetica,sans-Serif" font-size="10.00" fill="grey">+width</text>
</g>
<!-- Node6&#45;&gt;Node1 -->
<g id="edge5_Node000001_Node000006" class="edge">
<title>Node6&#45;&gt;Node1</title>
<g id="a_edge5_Node000001_Node000006"><a xlink:title=" ">
<path fill="none" stroke="#63b8ff" d="M261.44,-213.72C250.07,-192.56 238.2,-170.46 227.28,-150.13"/>
<polygon fill="none" stroke="#63b8ff" points="227.17,-149.93 220.81,-146.54 221.49,-139.36 227.85,-142.75 227.17,-149.93"/>
</a>
</g>
<text text-anchor="middle" x="249" y="-160" font-family="Helvetica,sans-Serif" font-size="10.00" fill="grey"> +size</text>
</g>
<!-- Node7&#45;&gt;Node6 -->
<g id="edge7_Node000006_Node000007" class="edge">
<title>Node7&#45;&gt;Node6</title>
<g id="a_edge7_Node000006_Node000007"><a xlink:title=" ">
<path fill="none" stroke="orange" d="M306.71,-516.35C308.01,-482.73 309.43,-445.93 310.7,-413.07"/>
<polygon fill="orange" stroke="orange" points="303.2,-516.54 306.31,-526.67 310.2,-516.81 303.2,-516.54"/>
</a>
</g>
<text text-anchor="middle" x="332.5" y="-467.5" font-family="Helvetica,sans-Serif" font-size="10.00" fill="grey"> &lt; float &gt;</text>
</g>
</g>
</svg>
