<?xml version="1.0" encoding="UTF-8" standalone="no"?>
<!DOCTYPE svg PUBLIC "-//W3C//DTD SVG 1.1//EN"
 "http://www.w3.org/Graphics/SVG/1.1/DTD/svg11.dtd">
<!-- Generated by graphviz version 2.43.0 (0)
 -->
<!-- Title: cv::detail::tracking::contrib_feature::CvParams Pages: 1 -->
<svg width="154pt" height="351pt"
 viewBox="0.00 0.00 154.00 351.00" xmlns="http://www.w3.org/2000/svg" xmlns:xlink="http://www.w3.org/1999/xlink">
<g id="graph0" class="graph" transform="scale(1 1) rotate(0) translate(4 347)">
<title>cv::detail::tracking::contrib_feature::CvParams</title>
<!-- Node1 -->
<g id="Node000001" class="node">
<title>Node1</title>
<g id="a_Node000001"><a xlink:title=" ">
<polygon fill="#999999" stroke="transparent" points="146,-150 0,-150 0,0 146,0 146,-150"/>
<text text-anchor="start" x="5" y="-138" font-family="Helvetica,sans-Serif" font-size="10.00">cv::detail::tracking</text>
<text text-anchor="start" x="5" y="-127" font-family="Helvetica,sans-Serif" font-size="10.00">::contrib_feature::CvParams</text>
<text text-anchor="start" x="71" y="-112" font-family="Helvetica,sans-Serif" font-size="10.00"> </text>
<text text-anchor="start" x="17" y="-97" font-family="Helvetica,sans-Serif" font-size="10.00">+</text>
<text text-anchor="start" x="43" y="-97" font-family="Helvetica,sans-Serif" font-size="10.00">CvParams()</text>
<text text-anchor="start" x="17" y="-82" font-family="Helvetica,sans-Serif" font-size="10.00">+</text>
<text text-anchor="start" x="43" y="-82" font-family="Helvetica,sans-Serif" font-size="10.00">~CvParams()</text>
<text text-anchor="start" x="17" y="-67" font-family="Helvetica,sans-Serif" font-size="10.00">+</text>
<text text-anchor="start" x="43" y="-67" font-family="Helvetica,sans-Serif" font-size="10.00">printAttrs()</text>
<text text-anchor="start" x="17" y="-52" font-family="Helvetica,sans-Serif" font-size="10.00">+</text>
<text text-anchor="start" x="43" y="-52" font-family="Helvetica,sans-Serif" font-size="10.00">printDefaults()</text>
<text text-anchor="start" x="17" y="-37" font-family="Helvetica,sans-Serif" font-size="10.00">+</text>
<text text-anchor="start" x="43" y="-37" font-family="Helvetica,sans-Serif" font-size="10.00">read()</text>
<text text-anchor="start" x="17" y="-22" font-family="Helvetica,sans-Serif" font-size="10.00">+</text>
<text text-anchor="start" x="43" y="-22" font-family="Helvetica,sans-Serif" font-size="10.00">scanAttr()</text>
<text text-anchor="start" x="17" y="-7" font-family="Helvetica,sans-Serif" font-size="10.00">+</text>
<text text-anchor="start" x="43" y="-7" font-family="Helvetica,sans-Serif" font-size="10.00">write()</text>
<polygon fill="#666666" stroke="#666666" points="0,-122 0,-122 146,-122 146,-122 0,-122"/>
<polygon fill="#666666" stroke="#666666" points="0,-107 0,-107 146,-107 146,-107 0,-107"/>
<polygon fill="none" stroke="#666666" points="0,0 0,-150 146,-150 146,0 0,0"/>
</a>
</g>
</g>
<!-- Node2 -->
<g id="Node000002" class="node">
<title>Node2</title>
<g id="a_Node000002"><a xlink:title=" ">
<polygon fill="white" stroke="transparent" points="102.5,-246 43.5,-246 43.5,-197 102.5,-197 102.5,-246"/>
<text text-anchor="start" x="49" y="-233.5" font-family="Helvetica,sans-Serif" font-size="10.00">std::string</text>
<text text-anchor="start" x="71.5" y="-218.5" font-family="Helvetica,sans-Serif" font-size="10.00"> </text>
<text text-anchor="start" x="71.5" y="-203.5" font-family="Helvetica,sans-Serif" font-size="10.00"> </text>
<polygon fill="#666666" stroke="#666666" points="44,-228.5 44,-228.5 103,-228.5 103,-228.5 44,-228.5"/>
<polygon fill="#666666" stroke="#666666" points="44,-213.5 44,-213.5 103,-213.5 103,-213.5 44,-213.5"/>
<polygon fill="none" stroke="#666666" points="43.5,-197 43.5,-246 102.5,-246 102.5,-197 43.5,-197"/>
</a>
</g>
</g>
<!-- Node2&#45;&gt;Node1 -->
<g id="edge1_Node000001_Node000002" class="edge">
<title>Node2&#45;&gt;Node1</title>
<g id="a_edge1_Node000001_Node000002"><a xlink:title=" ">
<path fill="none" stroke="#63b8ff" d="M73,-196.96C73,-187.14 73,-175.08 73,-162.41"/>
<polygon fill="none" stroke="#63b8ff" points="73,-162.13 69,-156.13 73,-150.13 77,-156.13 73,-162.13"/>
</a>
</g>
<text text-anchor="middle" x="93" y="-171" font-family="Helvetica,sans-Serif" font-size="10.00" fill="grey"> +name</text>
</g>
<!-- Node3 -->
<g id="Node000003" class="node">
<title>Node3</title>
<g id="a_Node000003"><a xlink:title=" ">
<polygon fill="white" stroke="transparent" points="122,-343 24,-343 24,-283 122,-283 122,-343"/>
<text text-anchor="start" x="29" y="-331" font-family="Helvetica,sans-Serif" font-size="10.00">std::basic_string&lt;</text>
<text text-anchor="start" x="54.5" y="-320" font-family="Helvetica,sans-Serif" font-size="10.00"> Char &gt;</text>
<text text-anchor="start" x="71" y="-305" font-family="Helvetica,sans-Serif" font-size="10.00"> </text>
<text text-anchor="start" x="71" y="-290" font-family="Helvetica,sans-Serif" font-size="10.00"> </text>
<polygon fill="#666666" stroke="#666666" points="24,-315 24,-315 122,-315 122,-315 24,-315"/>
<polygon fill="#666666" stroke="#666666" points="24,-300 24,-300 122,-300 122,-300 24,-300"/>
<polygon fill="none" stroke="#666666" points="24,-283 24,-343 122,-343 122,-283 24,-283"/>
</a>
</g>
</g>
<!-- Node3&#45;&gt;Node2 -->
<g id="edge2_Node000002_Node000003" class="edge">
<title>Node3&#45;&gt;Node2</title>
<g id="a_edge2_Node000002_Node000003"><a xlink:title=" ">
<path fill="none" stroke="#63b8ff" d="M73,-272.41C73,-263.47 73,-254.25 73,-246.21"/>
<polygon fill="none" stroke="#63b8ff" points="69.5,-272.69 73,-282.69 76.5,-272.69 69.5,-272.69"/>
</a>
</g>
</g>
</g>
</svg>
