<?xml version="1.0" encoding="UTF-8" standalone="no"?>
<!DOCTYPE svg PUBLIC "-//W3C//DTD SVG 1.1//EN"
 "http://www.w3.org/Graphics/SVG/1.1/DTD/svg11.dtd">
<!-- Generated by graphviz version 2.43.0 (0)
 -->
<!-- Title: cv::saliency::StaticSaliencySpectralResidual Pages: 1 -->
<svg width="238pt" height="844pt"
 viewBox="0.00 0.00 238.00 844.00" xmlns="http://www.w3.org/2000/svg" xmlns:xlink="http://www.w3.org/1999/xlink">
<g id="graph0" class="graph" transform="scale(1 1) rotate(0) translate(4 840)">
<title>cv::saliency::StaticSaliencySpectralResidual</title>
<!-- Node1 -->
<g id="Node000001" class="node">
<title>Node1</title>
<g id="a_Node000001"><a xlink:title="the Spectral Residual approach from">
<polygon fill="#999999" stroke="transparent" points="215,-210 27,-210 27,0 215,0 215,-210"/>
<text text-anchor="start" x="55" y="-198" font-family="Helvetica,sans-Serif" font-size="10.00">cv::saliency::StaticSaliency</text>
<text text-anchor="start" x="80" y="-187" font-family="Helvetica,sans-Serif" font-size="10.00">SpectralResidual</text>
<text text-anchor="start" x="119" y="-172" font-family="Helvetica,sans-Serif" font-size="10.00"> </text>
<text text-anchor="start" x="31" y="-157" font-family="Helvetica,sans-Serif" font-size="10.00">+</text>
<text text-anchor="start" x="44" y="-157" font-family="Helvetica,sans-Serif" font-size="10.00">StaticSaliencySpectralResidual()</text>
<text text-anchor="start" x="31" y="-142" font-family="Helvetica,sans-Serif" font-size="10.00">+</text>
<text text-anchor="start" x="44" y="-142" font-family="Helvetica,sans-Serif" font-size="10.00">~StaticSaliencySpectralResidual()</text>
<text text-anchor="start" x="31" y="-127" font-family="Helvetica,sans-Serif" font-size="10.00">+</text>
<text text-anchor="start" x="44" y="-127" font-family="Helvetica,sans-Serif" font-size="10.00">computeSaliency()</text>
<text text-anchor="start" x="31" y="-112" font-family="Helvetica,sans-Serif" font-size="10.00">+</text>
<text text-anchor="start" x="44" y="-112" font-family="Helvetica,sans-Serif" font-size="10.00">getImageHeight()</text>
<text text-anchor="start" x="31" y="-97" font-family="Helvetica,sans-Serif" font-size="10.00">+</text>
<text text-anchor="start" x="44" y="-97" font-family="Helvetica,sans-Serif" font-size="10.00">getImageWidth()</text>
<text text-anchor="start" x="31" y="-82" font-family="Helvetica,sans-Serif" font-size="10.00">+</text>
<text text-anchor="start" x="44" y="-82" font-family="Helvetica,sans-Serif" font-size="10.00">read()</text>
<text text-anchor="start" x="31" y="-67" font-family="Helvetica,sans-Serif" font-size="10.00">+</text>
<text text-anchor="start" x="44" y="-67" font-family="Helvetica,sans-Serif" font-size="10.00">setImageHeight()</text>
<text text-anchor="start" x="31" y="-52" font-family="Helvetica,sans-Serif" font-size="10.00">+</text>
<text text-anchor="start" x="44" y="-52" font-family="Helvetica,sans-Serif" font-size="10.00">setImageWidth()</text>
<text text-anchor="start" x="31" y="-37" font-family="Helvetica,sans-Serif" font-size="10.00">+</text>
<text text-anchor="start" x="44" y="-37" font-family="Helvetica,sans-Serif" font-size="10.00">write()</text>
<text text-anchor="start" x="31" y="-22" font-family="Helvetica,sans-Serif" font-size="10.00">+</text>
<text text-anchor="start" x="44" y="-22" font-family="Helvetica,sans-Serif" font-size="10.00">create()</text>
<text text-anchor="start" x="31" y="-7" font-family="Helvetica,sans-Serif" font-size="10.00">#</text>
<text text-anchor="start" x="44" y="-7" font-family="Helvetica,sans-Serif" font-size="10.00">computeSaliencyImpl()</text>
<polygon fill="#666666" stroke="#666666" points="27,-182 27,-182 215,-182 215,-182 27,-182"/>
<polygon fill="#666666" stroke="#666666" points="27,-167 27,-167 215,-167 215,-167 27,-167"/>
<polygon fill="none" stroke="#666666" points="27,0 27,-210 215,-210 215,0 27,0"/>
</a>
</g>
</g>
<!-- Node2 -->
<g id="Node000002" class="node">
<title>Node2</title>
<g id="a_Node000002"><a xlink:href="../../d5/d87/classcv_1_1saliency_1_1StaticSaliency.html" target="_top" xlink:title=" ">
<polygon fill="white" stroke="transparent" points="142,-332 0,-332 0,-268 142,-268 142,-332"/>
<text text-anchor="start" x="5" y="-320" font-family="Helvetica,sans-Serif" font-size="10.00">cv::saliency::StaticSaliency</text>
<text text-anchor="start" x="69" y="-305" font-family="Helvetica,sans-Serif" font-size="10.00"> </text>
<text text-anchor="start" x="5.5" y="-290" font-family="Helvetica,sans-Serif" font-size="10.00">+</text>
<text text-anchor="start" x="20" y="-290" font-family="Helvetica,sans-Serif" font-size="10.00">computeBinaryMap()</text>
<text text-anchor="start" x="5.5" y="-275" font-family="Helvetica,sans-Serif" font-size="10.00">#</text>
<text text-anchor="start" x="20" y="-275" font-family="Helvetica,sans-Serif" font-size="10.00">computeSaliencyImpl()</text>
<polygon fill="#666666" stroke="#666666" points="0,-315 0,-315 142,-315 142,-315 0,-315"/>
<polygon fill="#666666" stroke="#666666" points="0,-300 0,-300 142,-300 142,-300 0,-300"/>
<polygon fill="none" stroke="#666666" points="0,-268 0,-332 142,-332 142,-268 0,-268"/>
</a>
</g>
</g>
<!-- Node2&#45;&gt;Node1 -->
<g id="edge1_Node000001_Node000002" class="edge">
<title>Node2&#45;&gt;Node1</title>
<g id="a_edge1_Node000001_Node000002"><a xlink:title=" ">
<path fill="none" stroke="#63b8ff" d="M81.6,-258.07C85.3,-243.8 89.63,-227.08 94.05,-210.04"/>
<polygon fill="none" stroke="#63b8ff" points="78.15,-257.43 79.03,-267.99 84.93,-259.19 78.15,-257.43"/>
</a>
</g>
</g>
<!-- Node3 -->
<g id="Node000003" class="node">
<title>Node3</title>
<g id="a_Node000003"><a xlink:href="../../d9/dcd/classcv_1_1saliency_1_1Saliency.html" target="_top" xlink:title=" ">
<polygon fill="white" stroke="transparent" points="138.5,-448 3.5,-448 3.5,-369 138.5,-369 138.5,-448"/>
<text text-anchor="start" x="19.5" y="-435.5" font-family="Helvetica,sans-Serif" font-size="10.00">cv::saliency::Saliency</text>
<text text-anchor="start" x="69.5" y="-420.5" font-family="Helvetica,sans-Serif" font-size="10.00"> </text>
<text text-anchor="start" x="8" y="-405.5" font-family="Helvetica,sans-Serif" font-size="10.00">+</text>
<text text-anchor="start" x="21" y="-405.5" font-family="Helvetica,sans-Serif" font-size="10.00">~Saliency()</text>
<text text-anchor="start" x="8" y="-390.5" font-family="Helvetica,sans-Serif" font-size="10.00">+</text>
<text text-anchor="start" x="21" y="-390.5" font-family="Helvetica,sans-Serif" font-size="10.00">computeSaliency()</text>
<text text-anchor="start" x="8" y="-375.5" font-family="Helvetica,sans-Serif" font-size="10.00">#</text>
<text text-anchor="start" x="21" y="-375.5" font-family="Helvetica,sans-Serif" font-size="10.00">computeSaliencyImpl()</text>
<polygon fill="#666666" stroke="#666666" points="4,-430.5 4,-430.5 139,-430.5 139,-430.5 4,-430.5"/>
<polygon fill="#666666" stroke="#666666" points="4,-415.5 4,-415.5 139,-415.5 139,-415.5 4,-415.5"/>
<polygon fill="none" stroke="#666666" points="3.5,-369 3.5,-448 138.5,-448 138.5,-369 3.5,-369"/>
</a>
</g>
</g>
<!-- Node3&#45;&gt;Node2 -->
<g id="edge2_Node000002_Node000003" class="edge">
<title>Node3&#45;&gt;Node2</title>
<g id="a_edge2_Node000002_Node000003"><a xlink:title=" ">
<path fill="none" stroke="#63b8ff" d="M71,-358.71C71,-349.71 71,-340.53 71,-332.22"/>
<polygon fill="none" stroke="#63b8ff" points="67.5,-358.75 71,-368.75 74.5,-358.75 67.5,-358.75"/>
</a>
</g>
</g>
<!-- Node4 -->
<g id="Node000004" class="node">
<title>Node4</title>
<g id="a_Node000004"><a xlink:href="../../d3/d46/classcv_1_1Algorithm.html" target="_top" xlink:title="This is a base class for all more or less complex algorithms in OpenCV.">
<polygon fill="white" stroke="transparent" points="110,-739 0,-739 0,-495 110,-495 110,-739"/>
<text text-anchor="start" x="22.5" y="-727" font-family="Helvetica,sans-Serif" font-size="10.00">cv::Algorithm</text>
<text text-anchor="start" x="53" y="-712" font-family="Helvetica,sans-Serif" font-size="10.00"> </text>
<text text-anchor="start" x="4" y="-697" font-family="Helvetica,sans-Serif" font-size="10.00">+</text>
<text text-anchor="start" x="17" y="-697" font-family="Helvetica,sans-Serif" font-size="10.00">Algorithm()</text>
<text text-anchor="start" x="4" y="-682" font-family="Helvetica,sans-Serif" font-size="10.00">+</text>
<text text-anchor="start" x="17" y="-682" font-family="Helvetica,sans-Serif" font-size="10.00">~Algorithm()</text>
<text text-anchor="start" x="4" y="-667" font-family="Helvetica,sans-Serif" font-size="10.00">+</text>
<text text-anchor="start" x="17" y="-667" font-family="Helvetica,sans-Serif" font-size="10.00">clear()</text>
<text text-anchor="start" x="4" y="-652" font-family="Helvetica,sans-Serif" font-size="10.00">+</text>
<text text-anchor="start" x="17" y="-652" font-family="Helvetica,sans-Serif" font-size="10.00">empty()</text>
<text text-anchor="start" x="4" y="-637" font-family="Helvetica,sans-Serif" font-size="10.00">+</text>
<text text-anchor="start" x="17" y="-637" font-family="Helvetica,sans-Serif" font-size="10.00">getDefaultName()</text>
<text text-anchor="start" x="4" y="-622" font-family="Helvetica,sans-Serif" font-size="10.00">+</text>
<text text-anchor="start" x="17" y="-622" font-family="Helvetica,sans-Serif" font-size="10.00">read()</text>
<text text-anchor="start" x="4" y="-607" font-family="Helvetica,sans-Serif" font-size="10.00">+</text>
<text text-anchor="start" x="17" y="-607" font-family="Helvetica,sans-Serif" font-size="10.00">save()</text>
<text text-anchor="start" x="4" y="-592" font-family="Helvetica,sans-Serif" font-size="10.00">+</text>
<text text-anchor="start" x="17" y="-592" font-family="Helvetica,sans-Serif" font-size="10.00">write()</text>
<text text-anchor="start" x="4" y="-577" font-family="Helvetica,sans-Serif" font-size="10.00">+</text>
<text text-anchor="start" x="17" y="-577" font-family="Helvetica,sans-Serif" font-size="10.00">write()</text>
<text text-anchor="start" x="4" y="-562" font-family="Helvetica,sans-Serif" font-size="10.00">+</text>
<text text-anchor="start" x="17" y="-562" font-family="Helvetica,sans-Serif" font-size="10.00">write()</text>
<text text-anchor="start" x="4" y="-547" font-family="Helvetica,sans-Serif" font-size="10.00">+</text>
<text text-anchor="start" x="17" y="-547" font-family="Helvetica,sans-Serif" font-size="10.00">load()</text>
<text text-anchor="start" x="4" y="-532" font-family="Helvetica,sans-Serif" font-size="10.00">+</text>
<text text-anchor="start" x="17" y="-532" font-family="Helvetica,sans-Serif" font-size="10.00">loadFromString()</text>
<text text-anchor="start" x="4" y="-517" font-family="Helvetica,sans-Serif" font-size="10.00">+</text>
<text text-anchor="start" x="17" y="-517" font-family="Helvetica,sans-Serif" font-size="10.00">read()</text>
<text text-anchor="start" x="4" y="-502" font-family="Helvetica,sans-Serif" font-size="10.00">#</text>
<text text-anchor="start" x="17" y="-502" font-family="Helvetica,sans-Serif" font-size="10.00">writeFormat()</text>
<polygon fill="#666666" stroke="#666666" points="0,-722 0,-722 110,-722 110,-722 0,-722"/>
<polygon fill="#666666" stroke="#666666" points="0,-707 0,-707 110,-707 110,-707 0,-707"/>
<polygon fill="none" stroke="#666666" points="0,-495 0,-739 110,-739 110,-495 0,-495"/>
</a>
</g>
</g>
<!-- Node4&#45;&gt;Node3 -->
<g id="edge3_Node000003_Node000004" class="edge">
<title>Node4&#45;&gt;Node3</title>
<g id="a_edge3_Node000003_Node000004"><a xlink:title=" ">
<path fill="none" stroke="#63b8ff" d="M65.17,-484.78C66.19,-471.59 67.16,-459.05 68.01,-448.13"/>
<polygon fill="none" stroke="#63b8ff" points="61.66,-484.74 64.38,-494.98 68.64,-485.28 61.66,-484.74"/>
</a>
</g>
</g>
<!-- Node5 -->
<g id="Node000005" class="node">
<title>Node5</title>
<g id="a_Node000005"><a xlink:title=" ">
<polygon fill="white" stroke="transparent" points="187.5,-641.5 128.5,-641.5 128.5,-592.5 187.5,-592.5 187.5,-641.5"/>
<text text-anchor="start" x="134" y="-629" font-family="Helvetica,sans-Serif" font-size="10.00">std::string</text>
<text text-anchor="start" x="156.5" y="-614" font-family="Helvetica,sans-Serif" font-size="10.00"> </text>
<text text-anchor="start" x="156.5" y="-599" font-family="Helvetica,sans-Serif" font-size="10.00"> </text>
<polygon fill="#666666" stroke="#666666" points="129,-624 129,-624 188,-624 188,-624 129,-624"/>
<polygon fill="#666666" stroke="#666666" points="129,-609 129,-609 188,-609 188,-609 129,-609"/>
<polygon fill="none" stroke="#666666" points="128.5,-592.5 128.5,-641.5 187.5,-641.5 187.5,-592.5 128.5,-592.5"/>
</a>
</g>
</g>
<!-- Node5&#45;&gt;Node3 -->
<g id="edge4_Node000003_Node000005" class="edge">
<title>Node5&#45;&gt;Node3</title>
<g id="a_edge4_Node000003_Node000005"><a xlink:title=" ">
<path fill="none" stroke="#63b8ff" d="M151.87,-592.29C145.12,-567.52 133.31,-527.77 119,-495 113.79,-483.06 107.4,-470.62 101.01,-459.04"/>
<polygon fill="none" stroke="#63b8ff" points="100.81,-458.7 94.38,-455.44 94.91,-448.25 101.35,-451.51 100.81,-458.7"/>
</a>
</g>
<text text-anchor="middle" x="143" y="-469" font-family="Helvetica,sans-Serif" font-size="10.00" fill="grey"> #className</text>
</g>
<!-- Node6 -->
<g id="Node000006" class="node">
<title>Node6</title>
<g id="a_Node000006"><a xlink:title=" ">
<polygon fill="white" stroke="transparent" points="207,-836 109,-836 109,-776 207,-776 207,-836"/>
<text text-anchor="start" x="114" y="-824" font-family="Helvetica,sans-Serif" font-size="10.00">std::basic_string&lt;</text>
<text text-anchor="start" x="139.5" y="-813" font-family="Helvetica,sans-Serif" font-size="10.00"> Char &gt;</text>
<text text-anchor="start" x="156" y="-798" font-family="Helvetica,sans-Serif" font-size="10.00"> </text>
<text text-anchor="start" x="156" y="-783" font-family="Helvetica,sans-Serif" font-size="10.00"> </text>
<polygon fill="#666666" stroke="#666666" points="109,-808 109,-808 207,-808 207,-808 109,-808"/>
<polygon fill="#666666" stroke="#666666" points="109,-793 109,-793 207,-793 207,-793 109,-793"/>
<polygon fill="none" stroke="#666666" points="109,-776 109,-836 207,-836 207,-776 109,-776"/>
</a>
</g>
</g>
<!-- Node6&#45;&gt;Node5 -->
<g id="edge5_Node000005_Node000006" class="edge">
<title>Node6&#45;&gt;Node5</title>
<g id="a_edge5_Node000005_Node000006"><a xlink:title=" ">
<path fill="none" stroke="#63b8ff" d="M158,-765.71C158,-728.19 158,-672.89 158,-641.68"/>
<polygon fill="none" stroke="#63b8ff" points="154.5,-765.78 158,-775.78 161.5,-765.78 154.5,-765.78"/>
</a>
</g>
</g>
<!-- Node7 -->
<g id="Node000007" class="node">
<title>Node7</title>
<g id="a_Node000007"><a xlink:title=" ">
<polygon fill="white" stroke="transparent" points="183.5,-324.5 160.5,-324.5 160.5,-275.5 183.5,-275.5 183.5,-324.5"/>
<text text-anchor="start" x="166" y="-312" font-family="Helvetica,sans-Serif" font-size="10.00">int</text>
<text text-anchor="start" x="170.5" y="-297" font-family="Helvetica,sans-Serif" font-size="10.00"> </text>
<text text-anchor="start" x="170.5" y="-282" font-family="Helvetica,sans-Serif" font-size="10.00"> </text>
<polygon fill="#666666" stroke="#666666" points="161,-307 161,-307 184,-307 184,-307 161,-307"/>
<polygon fill="#666666" stroke="#666666" points="161,-292 161,-292 184,-292 184,-292 161,-292"/>
<polygon fill="none" stroke="#666666" points="160.5,-275.5 160.5,-324.5 183.5,-324.5 183.5,-275.5 160.5,-275.5"/>
</a>
</g>
</g>
<!-- Node7&#45;&gt;Node1 -->
<g id="edge6_Node000001_Node000007" class="edge">
<title>Node7&#45;&gt;Node1</title>
<g id="a_edge6_Node000001_Node000007"><a xlink:title=" ">
<path fill="none" stroke="#63b8ff" d="M165.75,-275.33C162.02,-261.22 156.97,-242.13 151.61,-221.85"/>
<polygon fill="none" stroke="#63b8ff" points="151.59,-221.75 146.19,-216.97 148.52,-210.14 153.92,-214.92 151.59,-221.75"/>
</a>
</g>
<text text-anchor="middle" x="194" y="-242" font-family="Helvetica,sans-Serif" font-size="10.00" fill="grey"> #resImHeight</text>
<text text-anchor="middle" x="194" y="-231" font-family="Helvetica,sans-Serif" font-size="10.00" fill="grey">#resImWidth</text>
</g>
</g>
</svg>
