<?xml version="1.0" encoding="UTF-8" standalone="no"?>
<!DOCTYPE svg PUBLIC "-//W3C//DTD SVG 1.1//EN"
 "http://www.w3.org/Graphics/SVG/1.1/DTD/svg11.dtd">
<!-- Generated by graphviz version 2.43.0 (0)
 -->
<!-- Title: cv::util::static_visitor::operator() Pages: 1 -->
<svg width="263pt" height="76pt"
 viewBox="0.00 0.00 263.00 75.50" xmlns="http://www.w3.org/2000/svg" xmlns:xlink="http://www.w3.org/1999/xlink">
<g id="graph0" class="graph" transform="scale(1 1) rotate(0) translate(4 71.5)">
<title>cv::util::static_visitor::operator()</title>
<!-- Node1 -->
<g id="Node000001" class="node">
<title>Node1</title>
<g id="a_Node000001"><a xlink:title=" ">
<polygon fill="#999999" stroke="#666666" points="118,-45.5 0,-45.5 0,-15.5 118,-15.5 118,-45.5"/>
<text text-anchor="start" x="8" y="-33.5" font-family="Helvetica,sans-Serif" font-size="10.00">cv::util::static_visitor</text>
<text text-anchor="middle" x="59" y="-22.5" font-family="Helvetica,sans-Serif" font-size="10.00">::operator()</text>
</a>
</g>
</g>
<!-- Node2 -->
<g id="Node000002" class="node">
<title>Node2</title>
<g id="a_Node000002"><a xlink:href="../../d3/dce/namespacecv_1_1util.html#a5f00f5a230b8dc4f63bdd1c8057ace44" target="_top" xlink:title="Utility template function to prevent &quot;unused&quot; warnings by various compilers.">
<polygon fill="white" stroke="#666666" points="255,-67.5 154,-67.5 154,-37.5 255,-37.5 255,-67.5"/>
<text text-anchor="start" x="162" y="-55.5" font-family="Helvetica,sans-Serif" font-size="10.00">cv::util::suppress</text>
<text text-anchor="middle" x="204.5" y="-44.5" font-family="Helvetica,sans-Serif" font-size="10.00">_unused_warning</text>
</a>
</g>
</g>
<!-- Node1&#45;&gt;Node2 -->
<g id="edge1_Node000001_Node000002" class="edge">
<title>Node1&#45;&gt;Node2</title>
<g id="a_edge1_Node000001_Node000002"><a xlink:title=" ">
<path fill="none" stroke="#63b8ff" d="M118.37,-39.45C126.75,-40.73 135.39,-42.06 143.8,-43.35"/>
<polygon fill="#63b8ff" stroke="#63b8ff" points="143.5,-46.84 153.91,-44.9 144.56,-39.92 143.5,-46.84"/>
</a>
</g>
</g>
<!-- Node3 -->
<g id="Node000003" class="node">
<title>Node3</title>
<g id="a_Node000003"><a xlink:href="../../d3/dce/namespacecv_1_1util.html#abffd2e88d41b88bc1e3e9c1241630e9e" target="_top" xlink:title=" ">
<polygon fill="white" stroke="#666666" points="242.5,-19 166.5,-19 166.5,0 242.5,0 242.5,-19"/>
<text text-anchor="middle" x="204.5" y="-7" font-family="Helvetica,sans-Serif" font-size="10.00">cv::util::visit</text>
</a>
</g>
</g>
<!-- Node1&#45;&gt;Node3 -->
<g id="edge2_Node000001_Node000003" class="edge">
<title>Node1&#45;&gt;Node3</title>
<g id="a_edge2_Node000001_Node000003"><a xlink:title=" ">
<path fill="none" stroke="#63b8ff" d="M118.37,-21.96C130.98,-20.11 144.16,-18.18 156.28,-16.41"/>
<polygon fill="#63b8ff" stroke="#63b8ff" points="156.78,-19.87 166.17,-14.96 155.77,-12.95 156.78,-19.87"/>
</a>
</g>
</g>
</g>
</svg>
