<?xml version="1.0" encoding="UTF-8" standalone="no"?>
<!DOCTYPE svg PUBLIC "-//W3C//DTD SVG 1.1//EN"
 "http://www.w3.org/Graphics/SVG/1.1/DTD/svg11.dtd">
<!-- Generated by graphviz version 2.43.0 (0)
 -->
<!-- Title: opencv2/shape/hist_cost.hpp Pages: 1 -->
<svg width="186pt" height="214pt"
 viewBox="0.00 0.00 185.50 214.00" xmlns="http://www.w3.org/2000/svg" xmlns:xlink="http://www.w3.org/1999/xlink">
<g id="graph0" class="graph" transform="scale(1 1) rotate(0) translate(4 210)">
<title>opencv2/shape/hist_cost.hpp</title>
<!-- Node1 -->
<g id="Node000001" class="node">
<title>Node1</title>
<g id="a_Node000001"><a xlink:title=" ">
<polygon fill="#999999" stroke="#666666" points="127,-206 16,-206 16,-176 127,-176 127,-206"/>
<text text-anchor="start" x="24" y="-194" font-family="Helvetica,sans-Serif" font-size="10.00">opencv2/shape/hist</text>
<text text-anchor="middle" x="71.5" y="-183" font-family="Helvetica,sans-Serif" font-size="10.00">_cost.hpp</text>
</a>
</g>
</g>
<!-- Node2 -->
<g id="Node000002" class="node">
<title>Node2</title>
<g id="a_Node000002"><a xlink:href="../../d3/d30/shape_8hpp.html" target="_top" xlink:title=" ">
<polygon fill="white" stroke="#666666" points="127,-74 16,-74 16,-55 127,-55 127,-74"/>
<text text-anchor="middle" x="71.5" y="-62" font-family="Helvetica,sans-Serif" font-size="10.00">opencv2/shape.hpp</text>
</a>
</g>
</g>
<!-- Node1&#45;&gt;Node2 -->
<g id="edge1_Node000001_Node000002" class="edge">
<title>Node1&#45;&gt;Node2</title>
<g id="a_edge1_Node000001_Node000002"><a xlink:title=" ">
<path fill="none" stroke="#63b8ff" d="M57.15,-166.89C52.84,-158.7 48.68,-149.23 46.5,-140 43.44,-127.02 43.12,-122.9 46.5,-110 50.04,-96.46 58.74,-82.68 64.87,-74.12"/>
<polygon fill="#63b8ff" stroke="#63b8ff" points="54.22,-168.81 62.17,-175.81 60.32,-165.38 54.22,-168.81"/>
</a>
</g>
</g>
<!-- Node4 -->
<g id="Node000004" class="node">
<title>Node4</title>
<g id="a_Node000004"><a xlink:href="../../d4/d7c/shape__distance_8hpp.html" target="_top" xlink:title=" ">
<polygon fill="white" stroke="#666666" points="177.5,-140 55.5,-140 55.5,-110 177.5,-110 177.5,-140"/>
<text text-anchor="start" x="63.5" y="-128" font-family="Helvetica,sans-Serif" font-size="10.00">opencv2/shape/shape</text>
<text text-anchor="middle" x="116.5" y="-117" font-family="Helvetica,sans-Serif" font-size="10.00">_distance.hpp</text>
</a>
</g>
</g>
<!-- Node1&#45;&gt;Node4 -->
<g id="edge3_Node000001_Node000004" class="edge">
<title>Node1&#45;&gt;Node4</title>
<g id="a_edge3_Node000001_Node000004"><a xlink:title=" ">
<path fill="none" stroke="#63b8ff" d="M87.3,-167.53C93.7,-158.43 100.89,-148.19 106.54,-140.16"/>
<polygon fill="#63b8ff" stroke="#63b8ff" points="84.38,-165.6 81.49,-175.8 90.1,-169.63 84.38,-165.6"/>
</a>
</g>
</g>
<!-- Node3 -->
<g id="Node000003" class="node">
<title>Node3</title>
<g id="a_Node000003"><a xlink:href="../../db/d0f/shape_2shape_8hpp.html" target="_top" xlink:title=" ">
<polygon fill="white" stroke="#666666" points="143,-19 0,-19 0,0 143,0 143,-19"/>
<text text-anchor="middle" x="71.5" y="-7" font-family="Helvetica,sans-Serif" font-size="10.00">opencv2/shape/shape.hpp</text>
</a>
</g>
</g>
<!-- Node2&#45;&gt;Node3 -->
<g id="edge2_Node000002_Node000003" class="edge">
<title>Node2&#45;&gt;Node3</title>
<g id="a_edge2_Node000002_Node000003"><a xlink:title=" ">
<path fill="none" stroke="#63b8ff" d="M71.5,-44.66C71.5,-35.93 71.5,-25.99 71.5,-19.09"/>
<polygon fill="#63b8ff" stroke="#63b8ff" points="68,-44.75 71.5,-54.75 75,-44.75 68,-44.75"/>
</a>
</g>
</g>
<!-- Node4&#45;&gt;Node2 -->
<g id="edge4_Node000004_Node000002" class="edge">
<title>Node4&#45;&gt;Node2</title>
<g id="a_edge4_Node000004_Node000002"><a xlink:title=" ">
<path fill="none" stroke="#63b8ff" d="M99.42,-101.8C92.04,-92.21 83.84,-81.54 78.24,-74.27"/>
<polygon fill="#63b8ff" stroke="#63b8ff" points="96.74,-104.05 105.61,-109.84 102.28,-99.78 96.74,-104.05"/>
</a>
</g>
</g>
</g>
</svg>
