<?xml version="1.0" encoding="UTF-8" standalone="no"?>
<!DOCTYPE svg PUBLIC "-//W3C//DTD SVG 1.1//EN"
 "http://www.w3.org/Graphics/SVG/1.1/DTD/svg11.dtd">
<!-- Generated by graphviz version 2.43.0 (0)
 -->
<!-- Title: opencv2/flann/miniflann.hpp Pages: 1 -->
<svg width="163pt" height="137pt"
 viewBox="0.00 0.00 163.00 137.00" xmlns="http://www.w3.org/2000/svg" xmlns:xlink="http://www.w3.org/1999/xlink">
<g id="graph0" class="graph" transform="scale(1 1) rotate(0) translate(4 133)">
<title>opencv2/flann/miniflann.hpp</title>
<!-- Node1 -->
<g id="Node000001" class="node">
<title>Node1</title>
<g id="a_Node000001"><a xlink:title=" ">
<polygon fill="#999999" stroke="#666666" points="155,-129 0,-129 0,-110 155,-110 155,-129"/>
<text text-anchor="middle" x="77.5" y="-117" font-family="Helvetica,sans-Serif" font-size="10.00">opencv2/flann/miniflann.hpp</text>
</a>
</g>
</g>
<!-- Node2 -->
<g id="Node000002" class="node">
<title>Node2</title>
<g id="a_Node000002"><a xlink:href="../../dc/dc1/flann_8hpp.html" target="_top" xlink:title=" ">
<polygon fill="white" stroke="#666666" points="130.5,-74 24.5,-74 24.5,-55 130.5,-55 130.5,-74"/>
<text text-anchor="middle" x="77.5" y="-62" font-family="Helvetica,sans-Serif" font-size="10.00">opencv2/flann.hpp</text>
</a>
</g>
</g>
<!-- Node1&#45;&gt;Node2 -->
<g id="edge1_Node000001_Node000002" class="edge">
<title>Node1&#45;&gt;Node2</title>
<g id="a_edge1_Node000001_Node000002"><a xlink:title=" ">
<path fill="none" stroke="#63b8ff" d="M77.5,-99.66C77.5,-90.93 77.5,-80.99 77.5,-74.09"/>
<polygon fill="#63b8ff" stroke="#63b8ff" points="74,-99.75 77.5,-109.75 81,-99.75 74,-99.75"/>
</a>
</g>
</g>
<!-- Node3 -->
<g id="Node000003" class="node">
<title>Node3</title>
<g id="a_Node000003"><a xlink:href="../../d4/d45/flann_2flann_8hpp.html" target="_top" xlink:title=" ">
<polygon fill="white" stroke="#666666" points="144,-19 11,-19 11,0 144,0 144,-19"/>
<text text-anchor="middle" x="77.5" y="-7" font-family="Helvetica,sans-Serif" font-size="10.00">opencv2/flann/flann.hpp</text>
</a>
</g>
</g>
<!-- Node2&#45;&gt;Node3 -->
<g id="edge2_Node000002_Node000003" class="edge">
<title>Node2&#45;&gt;Node3</title>
<g id="a_edge2_Node000002_Node000003"><a xlink:title=" ">
<path fill="none" stroke="#63b8ff" d="M77.5,-44.66C77.5,-35.93 77.5,-25.99 77.5,-19.09"/>
<polygon fill="#63b8ff" stroke="#63b8ff" points="74,-44.75 77.5,-54.75 81,-44.75 74,-44.75"/>
</a>
</g>
</g>
</g>
</svg>
