<?xml version="1.0" encoding="UTF-8" standalone="no"?>
<!DOCTYPE svg PUBLIC "-//W3C//DTD SVG 1.1//EN"
 "http://www.w3.org/Graphics/SVG/1.1/DTD/svg11.dtd">
<!-- Generated by graphviz version 2.43.0 (0)
 -->
<!-- Title: cv::cudev::RemapPtr2Sz&lt; SrcPtr, MapXPtr, MapYPtr &gt; Pages: 1 -->
<svg width="222pt" height="282pt"
 viewBox="0.00 0.00 222.00 282.00" xmlns="http://www.w3.org/2000/svg" xmlns:xlink="http://www.w3.org/1999/xlink">
<g id="graph0" class="graph" transform="scale(1 1) rotate(0) translate(4 278)">
<title>cv::cudev::RemapPtr2Sz&lt; SrcPtr, MapXPtr, MapYPtr &gt;</title>
<!-- Node1 -->
<g id="Node000001" class="node">
<title>Node1</title>
<g id="a_Node000001"><a xlink:title=" ">
<polygon fill="#999999" stroke="transparent" points="214,-60 59,-60 59,0 214,0 214,-60"/>
<text text-anchor="start" x="64.5" y="-48" font-family="Helvetica,sans-Serif" font-size="10.00">cv::cudev::RemapPtr2Sz</text>
<text text-anchor="start" x="64.5" y="-37" font-family="Helvetica,sans-Serif" font-size="10.00">&lt; SrcPtr, MapXPtr, MapYPtr &gt;</text>
<text text-anchor="start" x="135" y="-22" font-family="Helvetica,sans-Serif" font-size="10.00"> </text>
<text text-anchor="start" x="84.5" y="-7" font-family="Helvetica,sans-Serif" font-size="10.00">+</text>
<text text-anchor="start" x="118.5" y="-7" font-family="Helvetica,sans-Serif" font-size="10.00">assignTo()</text>
<polygon fill="#666666" stroke="#666666" points="59.5,-32 59.5,-32 214.5,-32 214.5,-32 59.5,-32"/>
<polygon fill="#666666" stroke="#666666" points="59.5,-17 59.5,-17 214.5,-17 214.5,-17 59.5,-17"/>
<polygon fill="none" stroke="#666666" points="59,0 59,-60 214,-60 214,0 59,0"/>
</a>
</g>
</g>
<!-- Node2 -->
<g id="Node000002" class="node">
<title>Node2</title>
<g id="a_Node000002"><a xlink:href="../../d1/d32/structcv_1_1cudev_1_1RemapPtr2.html" target="_top" xlink:title=" ">
<polygon fill="white" stroke="transparent" points="161,-178 6,-178 6,-118 161,-118 161,-178"/>
<text text-anchor="start" x="11.5" y="-166" font-family="Helvetica,sans-Serif" font-size="10.00">cv::cudev::RemapPtr2</text>
<text text-anchor="start" x="11.5" y="-155" font-family="Helvetica,sans-Serif" font-size="10.00">&lt; SrcPtr, MapXPtr, MapYPtr &gt;</text>
<text text-anchor="start" x="82" y="-140" font-family="Helvetica,sans-Serif" font-size="10.00"> </text>
<text text-anchor="start" x="29.5" y="-125" font-family="Helvetica,sans-Serif" font-size="10.00">+</text>
<text text-anchor="start" x="61.5" y="-125" font-family="Helvetica,sans-Serif" font-size="10.00">operator()()</text>
<polygon fill="#666666" stroke="#666666" points="6.5,-150 6.5,-150 161.5,-150 161.5,-150 6.5,-150"/>
<polygon fill="#666666" stroke="#666666" points="6.5,-135 6.5,-135 161.5,-135 161.5,-135 6.5,-135"/>
<polygon fill="none" stroke="#666666" points="6,-118 6,-178 161,-178 161,-118 6,-118"/>
</a>
</g>
</g>
<!-- Node2&#45;&gt;Node1 -->
<g id="edge1_Node000001_Node000002" class="edge">
<title>Node2&#45;&gt;Node1</title>
<g id="a_edge1_Node000001_Node000002"><a xlink:title=" ">
<path fill="none" stroke="#63b8ff" d="M101.19,-108.29C108.35,-92.62 116.48,-74.82 123.13,-60.26"/>
<polygon fill="none" stroke="#63b8ff" points="97.85,-107.18 96.87,-117.73 104.21,-110.09 97.85,-107.18"/>
</a>
</g>
</g>
<!-- Node3 -->
<g id="Node000003" class="node">
<title>Node3</title>
<g id="a_Node000003"><a xlink:title=" ">
<polygon fill="white" stroke="transparent" points="39,-274 0,-274 0,-225 39,-225 39,-274"/>
<text text-anchor="start" x="5.5" y="-261.5" font-family="Helvetica,sans-Serif" font-size="10.00">SrcPtr</text>
<text text-anchor="start" x="18" y="-246.5" font-family="Helvetica,sans-Serif" font-size="10.00"> </text>
<text text-anchor="start" x="18" y="-231.5" font-family="Helvetica,sans-Serif" font-size="10.00"> </text>
<polygon fill="#666666" stroke="#666666" points="0.5,-256.5 0.5,-256.5 39.5,-256.5 39.5,-256.5 0.5,-256.5"/>
<polygon fill="#666666" stroke="#666666" points="0.5,-241.5 0.5,-241.5 39.5,-241.5 39.5,-241.5 0.5,-241.5"/>
<polygon fill="none" stroke="#666666" points="0,-225 0,-274 39,-274 39,-225 0,-225"/>
</a>
</g>
</g>
<!-- Node3&#45;&gt;Node2 -->
<g id="edge2_Node000002_Node000003" class="edge">
<title>Node3&#45;&gt;Node2</title>
<g id="a_edge2_Node000002_Node000003"><a xlink:title=" ">
<path fill="none" stroke="#63b8ff" d="M34.67,-224.92C41.71,-213.97 50.28,-200.64 58.26,-188.24"/>
<polygon fill="none" stroke="#63b8ff" points="58.29,-188.19 58.17,-180.98 64.78,-178.1 64.9,-185.31 58.29,-188.19"/>
</a>
</g>
<text text-anchor="middle" x="64.5" y="-199" font-family="Helvetica,sans-Serif" font-size="10.00" fill="grey"> +src</text>
</g>
<!-- Node4 -->
<g id="Node000004" class="node">
<title>Node4</title>
<g id="a_Node000004"><a xlink:title=" ">
<polygon fill="white" stroke="transparent" points="109.5,-274 57.5,-274 57.5,-225 109.5,-225 109.5,-274"/>
<text text-anchor="start" x="62.5" y="-261.5" font-family="Helvetica,sans-Serif" font-size="10.00">MapXPtr</text>
<text text-anchor="start" x="81.5" y="-246.5" font-family="Helvetica,sans-Serif" font-size="10.00"> </text>
<text text-anchor="start" x="81.5" y="-231.5" font-family="Helvetica,sans-Serif" font-size="10.00"> </text>
<polygon fill="#666666" stroke="#666666" points="57.5,-256.5 57.5,-256.5 109.5,-256.5 109.5,-256.5 57.5,-256.5"/>
<polygon fill="#666666" stroke="#666666" points="57.5,-241.5 57.5,-241.5 109.5,-241.5 109.5,-241.5 57.5,-241.5"/>
<polygon fill="none" stroke="#666666" points="57.5,-225 57.5,-274 109.5,-274 109.5,-225 57.5,-225"/>
</a>
</g>
</g>
<!-- Node4&#45;&gt;Node2 -->
<g id="edge3_Node000002_Node000004" class="edge">
<title>Node4&#45;&gt;Node2</title>
<g id="a_edge3_Node000002_Node000004"><a xlink:title=" ">
<path fill="none" stroke="#63b8ff" d="M83.5,-224.92C83.5,-214.51 83.5,-201.97 83.5,-190.1"/>
<polygon fill="none" stroke="#63b8ff" points="83.5,-190.1 79.5,-184.1 83.5,-178.1 87.5,-184.1 83.5,-190.1"/>
</a>
</g>
<text text-anchor="middle" x="103.5" y="-199" font-family="Helvetica,sans-Serif" font-size="10.00" fill="grey"> +mapx</text>
</g>
<!-- Node5 -->
<g id="Node000005" class="node">
<title>Node5</title>
<g id="a_Node000005"><a xlink:title=" ">
<polygon fill="white" stroke="transparent" points="179,-274 128,-274 128,-225 179,-225 179,-274"/>
<text text-anchor="start" x="133.5" y="-261.5" font-family="Helvetica,sans-Serif" font-size="10.00">MapYPtr</text>
<text text-anchor="start" x="152" y="-246.5" font-family="Helvetica,sans-Serif" font-size="10.00"> </text>
<text text-anchor="start" x="152" y="-231.5" font-family="Helvetica,sans-Serif" font-size="10.00"> </text>
<polygon fill="#666666" stroke="#666666" points="128.5,-256.5 128.5,-256.5 179.5,-256.5 179.5,-256.5 128.5,-256.5"/>
<polygon fill="#666666" stroke="#666666" points="128.5,-241.5 128.5,-241.5 179.5,-241.5 179.5,-241.5 128.5,-241.5"/>
<polygon fill="none" stroke="#666666" points="128,-225 128,-274 179,-274 179,-225 128,-225"/>
</a>
</g>
</g>
<!-- Node5&#45;&gt;Node2 -->
<g id="edge4_Node000002_Node000005" class="edge">
<title>Node5&#45;&gt;Node2</title>
<g id="a_edge4_Node000002_Node000005"><a xlink:title=" ">
<path fill="none" stroke="#63b8ff" d="M143.63,-224.94C139.26,-215.58 133.7,-204.94 127.5,-196 125.53,-193.16 123.39,-190.32 121.16,-187.52"/>
<polygon fill="none" stroke="#63b8ff" points="121.04,-187.38 114.11,-185.38 113.29,-178.22 120.22,-180.21 121.04,-187.38"/>
</a>
</g>
<text text-anchor="middle" x="154.5" y="-199" font-family="Helvetica,sans-Serif" font-size="10.00" fill="grey"> +mapy</text>
</g>
<!-- Node6 -->
<g id="Node000006" class="node">
<title>Node6</title>
<g id="a_Node000006"><a xlink:title=" ">
<polygon fill="white" stroke="transparent" points="202,-172.5 179,-172.5 179,-123.5 202,-123.5 202,-172.5"/>
<text text-anchor="start" x="184.5" y="-160" font-family="Helvetica,sans-Serif" font-size="10.00">int</text>
<text text-anchor="start" x="189" y="-145" font-family="Helvetica,sans-Serif" font-size="10.00"> </text>
<text text-anchor="start" x="189" y="-130" font-family="Helvetica,sans-Serif" font-size="10.00"> </text>
<polygon fill="#666666" stroke="#666666" points="179.5,-155 179.5,-155 202.5,-155 202.5,-155 179.5,-155"/>
<polygon fill="#666666" stroke="#666666" points="179.5,-140 179.5,-140 202.5,-140 202.5,-140 179.5,-140"/>
<polygon fill="none" stroke="#666666" points="179,-123.5 179,-172.5 202,-172.5 202,-123.5 179,-123.5"/>
</a>
</g>
</g>
<!-- Node6&#45;&gt;Node1 -->
<g id="edge5_Node000001_Node000006" class="edge">
<title>Node6&#45;&gt;Node1</title>
<g id="a_edge5_Node000001_Node000006"><a xlink:title=" ">
<path fill="none" stroke="#63b8ff" d="M179.44,-123.25C172.46,-108.24 163.25,-88.47 155.16,-71.08"/>
<polygon fill="none" stroke="#63b8ff" points="155.1,-70.95 148.94,-67.2 150.03,-60.07 156.19,-63.82 155.1,-70.95"/>
</a>
</g>
<text text-anchor="middle" x="183.5" y="-92" font-family="Helvetica,sans-Serif" font-size="10.00" fill="grey"> +cols</text>
<text text-anchor="middle" x="183.5" y="-81" font-family="Helvetica,sans-Serif" font-size="10.00" fill="grey">+rows</text>
</g>
</g>
</svg>
