<?xml version="1.0" encoding="UTF-8" standalone="no"?>
<!DOCTYPE svg PUBLIC "-//W3C//DTD SVG 1.1//EN"
 "http://www.w3.org/Graphics/SVG/1.1/DTD/svg11.dtd">
<!-- Generated by graphviz version 2.43.0 (0)
 -->
<!-- Title: cv::detail::NoSeamFinder Pages: 1 -->
<svg width="140pt" height="172pt"
 viewBox="0.00 0.00 140.00 172.00" xmlns="http://www.w3.org/2000/svg" xmlns:xlink="http://www.w3.org/1999/xlink">
<g id="graph0" class="graph" transform="scale(1 1) rotate(0) translate(4 168)">
<title>cv::detail::NoSeamFinder</title>
<!-- Node1 -->
<g id="Node000001" class="node">
<title>Node1</title>
<g id="a_Node000001"><a xlink:title="Stub seam estimator which does nothing.">
<polygon fill="#999999" stroke="transparent" points="132,-49 0,-49 0,0 132,0 132,-49"/>
<text text-anchor="start" x="5" y="-36.5" font-family="Helvetica,sans-Serif" font-size="10.00">cv::detail::NoSeamFinder</text>
<text text-anchor="start" x="64" y="-21.5" font-family="Helvetica,sans-Serif" font-size="10.00"> </text>
<text text-anchor="start" x="25" y="-6.5" font-family="Helvetica,sans-Serif" font-size="10.00">+</text>
<text text-anchor="start" x="59" y="-6.5" font-family="Helvetica,sans-Serif" font-size="10.00">find()</text>
<polygon fill="#666666" stroke="#666666" points="0,-31.5 0,-31.5 132,-31.5 132,-31.5 0,-31.5"/>
<polygon fill="#666666" stroke="#666666" points="0,-16.5 0,-16.5 132,-16.5 132,-16.5 0,-16.5"/>
<polygon fill="none" stroke="#666666" points="0,0 0,-49 132,-49 132,0 0,0"/>
</a>
</g>
</g>
<!-- Node2 -->
<g id="Node000002" class="node">
<title>Node2</title>
<g id="a_Node000002"><a xlink:href="../../d7/d09/classcv_1_1detail_1_1SeamFinder.html" target="_top" xlink:title="Base class for a seam estimator.">
<polygon fill="white" stroke="transparent" points="125.5,-164 6.5,-164 6.5,-85 125.5,-85 125.5,-164"/>
<text text-anchor="start" x="12" y="-151.5" font-family="Helvetica,sans-Serif" font-size="10.00">cv::detail::SeamFinder</text>
<text text-anchor="start" x="64.5" y="-136.5" font-family="Helvetica,sans-Serif" font-size="10.00"> </text>
<text text-anchor="start" x="16.5" y="-121.5" font-family="Helvetica,sans-Serif" font-size="10.00">+</text>
<text text-anchor="start" x="35" y="-121.5" font-family="Helvetica,sans-Serif" font-size="10.00">~SeamFinder()</text>
<text text-anchor="start" x="16.5" y="-106.5" font-family="Helvetica,sans-Serif" font-size="10.00">+</text>
<text text-anchor="start" x="35" y="-106.5" font-family="Helvetica,sans-Serif" font-size="10.00">find()</text>
<text text-anchor="start" x="16.5" y="-91.5" font-family="Helvetica,sans-Serif" font-size="10.00">+</text>
<text text-anchor="start" x="35" y="-91.5" font-family="Helvetica,sans-Serif" font-size="10.00">createDefault()</text>
<polygon fill="#666666" stroke="#666666" points="7,-146.5 7,-146.5 126,-146.5 126,-146.5 7,-146.5"/>
<polygon fill="#666666" stroke="#666666" points="7,-131.5 7,-131.5 126,-131.5 126,-131.5 7,-131.5"/>
<polygon fill="none" stroke="#666666" points="6.5,-85 6.5,-164 125.5,-164 125.5,-85 6.5,-85"/>
</a>
</g>
</g>
<!-- Node2&#45;&gt;Node1 -->
<g id="edge1_Node000001_Node000002" class="edge">
<title>Node2&#45;&gt;Node1</title>
<g id="a_edge1_Node000001_Node000002"><a xlink:title=" ">
<path fill="none" stroke="#63b8ff" d="M66,-74.72C66,-65.75 66,-56.78 66,-49"/>
<polygon fill="none" stroke="#63b8ff" points="62.5,-74.77 66,-84.77 69.5,-74.77 62.5,-74.77"/>
</a>
</g>
</g>
</g>
</svg>
