<?xml version="1.0" encoding="UTF-8" standalone="no"?>
<!DOCTYPE svg PUBLIC "-//W3C//DTD SVG 1.1//EN"
 "http://www.w3.org/Graphics/SVG/1.1/DTD/svg11.dtd">
<!-- Generated by graphviz version 2.43.0 (0)
 -->
<!-- Title: cv::datasets::groundTruth Pages: 1 -->
<svg width="142pt" height="175pt"
 viewBox="0.00 0.00 141.50 175.00" xmlns="http://www.w3.org/2000/svg" xmlns:xlink="http://www.w3.org/1999/xlink">
<g id="graph0" class="graph" transform="scale(1 1) rotate(0) translate(4 171)">
<title>cv::datasets::groundTruth</title>
<!-- Node1 -->
<g id="Node000001" class="node">
<title>Node1</title>
<g id="a_Node000001"><a xlink:title=" ">
<polygon fill="#999999" stroke="transparent" points="133,-49 0,-49 0,0 133,0 133,-49"/>
<text text-anchor="start" x="5.5" y="-36.5" font-family="Helvetica,sans-Serif" font-size="10.00">cv::datasets::groundTruth</text>
<text text-anchor="start" x="65" y="-21.5" font-family="Helvetica,sans-Serif" font-size="10.00"> </text>
<text text-anchor="start" x="65" y="-6.5" font-family="Helvetica,sans-Serif" font-size="10.00"> </text>
<polygon fill="#666666" stroke="#666666" points="0.5,-31.5 0.5,-31.5 133.5,-31.5 133.5,-31.5 0.5,-31.5"/>
<polygon fill="#666666" stroke="#666666" points="0.5,-16.5 0.5,-16.5 133.5,-16.5 133.5,-16.5 0.5,-16.5"/>
<polygon fill="none" stroke="#666666" points="0,0 0,-49 133,-49 133,0 0,0"/>
</a>
</g>
</g>
<!-- Node2 -->
<g id="Node000002" class="node">
<title>Node2</title>
<g id="a_Node000002"><a xlink:title=" ">
<polygon fill="white" stroke="transparent" points="78,-167 55,-167 55,-118 78,-118 78,-167"/>
<text text-anchor="start" x="60.5" y="-154.5" font-family="Helvetica,sans-Serif" font-size="10.00">int</text>
<text text-anchor="start" x="65" y="-139.5" font-family="Helvetica,sans-Serif" font-size="10.00"> </text>
<text text-anchor="start" x="65" y="-124.5" font-family="Helvetica,sans-Serif" font-size="10.00"> </text>
<polygon fill="#666666" stroke="#666666" points="55.5,-149.5 55.5,-149.5 78.5,-149.5 78.5,-149.5 55.5,-149.5"/>
<polygon fill="#666666" stroke="#666666" points="55.5,-134.5 55.5,-134.5 78.5,-134.5 78.5,-134.5 55.5,-134.5"/>
<polygon fill="none" stroke="#666666" points="55,-118 55,-167 78,-167 78,-118 55,-118"/>
</a>
</g>
</g>
<!-- Node2&#45;&gt;Node1 -->
<g id="edge1_Node000001_Node000002" class="edge">
<title>Node2&#45;&gt;Node1</title>
<g id="a_edge1_Node000001_Node000002"><a xlink:title=" ">
<path fill="none" stroke="#63b8ff" d="M66.5,-117.75C66.5,-101.48 66.5,-79.62 66.5,-61.26"/>
<polygon fill="none" stroke="#63b8ff" points="66.5,-61.22 62.5,-55.22 66.5,-49.22 70.5,-55.22 66.5,-61.22"/>
</a>
</g>
<text text-anchor="middle" x="100" y="-92" font-family="Helvetica,sans-Serif" font-size="10.00" fill="grey"> +gestureID</text>
<text text-anchor="middle" x="100" y="-81" font-family="Helvetica,sans-Serif" font-size="10.00" fill="grey">+initialFrame</text>
<text text-anchor="middle" x="100" y="-70" font-family="Helvetica,sans-Serif" font-size="10.00" fill="grey">+lastFrame</text>
</g>
</g>
</svg>
