<?xml version="1.0" encoding="UTF-8" standalone="no"?>
<!DOCTYPE svg PUBLIC "-//W3C//DTD SVG 1.1//EN"
 "http://www.w3.org/Graphics/SVG/1.1/DTD/svg11.dtd">
<!-- Generated by graphviz version 2.43.0 (0)
 -->
<!-- Title: cv::cv2eigen Pages: 1 -->
<svg width="226pt" height="156pt"
 viewBox="0.00 0.00 226.00 156.00" xmlns="http://www.w3.org/2000/svg" xmlns:xlink="http://www.w3.org/1999/xlink">
<g id="graph0" class="graph" transform="scale(1 1) rotate(0) translate(4 152)">
<title>cv::cv2eigen</title>
<!-- Node1 -->
<g id="Node000001" class="node">
<title>Node1</title>
<g id="a_Node000001"><a xlink:title=" ">
<polygon fill="#999999" stroke="#666666" points="77,-83 0,-83 0,-64 77,-64 77,-83"/>
<text text-anchor="middle" x="38.5" y="-71" font-family="Helvetica,sans-Serif" font-size="10.00">cv::cv2eigen</text>
</a>
</g>
</g>
<!-- Node2 -->
<g id="Node000002" class="node">
<title>Node2</title>
<g id="a_Node000002"><a xlink:href="../../d3/d63/classcv_1_1Mat.html#adf88c60c5b4980e05bb556080916978b" target="_top" xlink:title="Converts an array to another data type with optional scaling.">
<polygon fill="white" stroke="#666666" points="218,-148 113,-148 113,-129 218,-129 218,-148"/>
<text text-anchor="middle" x="165.5" y="-136" font-family="Helvetica,sans-Serif" font-size="10.00">cv::Mat::convertTo</text>
</a>
</g>
</g>
<!-- Node1&#45;&gt;Node2 -->
<g id="edge1_Node000001_Node000002" class="edge">
<title>Node1&#45;&gt;Node2</title>
<g id="a_edge1_Node000001_Node000002"><a xlink:title=" ">
<path fill="none" stroke="#63b8ff" d="M52.5,-83.14C66.78,-93.4 90.66,-109.64 113,-120.5 116.54,-122.22 120.29,-123.86 124.08,-125.39"/>
<polygon fill="#63b8ff" stroke="#63b8ff" points="122.93,-128.7 133.52,-128.99 125.42,-122.16 122.93,-128.7"/>
</a>
</g>
</g>
<!-- Node3 -->
<g id="Node000003" class="node">
<title>Node3</title>
<g id="a_Node000003"><a xlink:href="../../d3/d63/classcv_1_1Mat.html#aaa428c60ccb6d8ea5de18f63dfac8e11" target="_top" xlink:title="Transposes a matrix.">
<polygon fill="white" stroke="#666666" points="196.5,-111 134.5,-111 134.5,-92 196.5,-92 196.5,-111"/>
<text text-anchor="middle" x="165.5" y="-99" font-family="Helvetica,sans-Serif" font-size="10.00">cv::Mat::t</text>
</a>
</g>
</g>
<!-- Node1&#45;&gt;Node3 -->
<g id="edge2_Node000001_Node000003" class="edge">
<title>Node1&#45;&gt;Node3</title>
<g id="a_edge2_Node000001_Node000003"><a xlink:title=" ">
<path fill="none" stroke="#63b8ff" d="M77,-81.9C91.85,-85.23 108.94,-89.05 124.06,-92.44"/>
<polygon fill="#63b8ff" stroke="#63b8ff" points="123.63,-95.93 134.15,-94.7 125.16,-89.1 123.63,-95.93"/>
</a>
</g>
</g>
<!-- Node4 -->
<g id="Node000004" class="node">
<title>Node4</title>
<g id="a_Node000004"><a xlink:href="../../d2/de8/group__core__array.html#ga46630ed6c0ea6254a35f447289bd7404" target="_top" xlink:title="Transposes a matrix.">
<polygon fill="white" stroke="#666666" points="206,-56 125,-56 125,-37 206,-37 206,-56"/>
<text text-anchor="middle" x="165.5" y="-44" font-family="Helvetica,sans-Serif" font-size="10.00">cv::transpose</text>
</a>
</g>
</g>
<!-- Node1&#45;&gt;Node4 -->
<g id="edge3_Node000001_Node000004" class="edge">
<title>Node1&#45;&gt;Node4</title>
<g id="a_edge3_Node000001_Node000004"><a xlink:title=" ">
<path fill="none" stroke="#63b8ff" d="M77,-65.4C88.92,-62.83 102.29,-59.94 114.92,-57.21"/>
<polygon fill="#63b8ff" stroke="#63b8ff" points="115.81,-60.6 124.85,-55.06 114.34,-53.75 115.81,-60.6"/>
</a>
</g>
</g>
<!-- Node5 -->
<g id="Node000005" class="node">
<title>Node5</title>
<g id="a_Node000005"><a xlink:href="../../d3/d63/classcv_1_1Mat.html#af2d2652e552d7de635988f18a84b53e5" target="_top" xlink:title="Returns the type of a matrix element.">
<polygon fill="white" stroke="#666666" points="205.5,-19 125.5,-19 125.5,0 205.5,0 205.5,-19"/>
<text text-anchor="middle" x="165.5" y="-7" font-family="Helvetica,sans-Serif" font-size="10.00">cv::Mat::type</text>
</a>
</g>
</g>
<!-- Node1&#45;&gt;Node5 -->
<g id="edge5_Node000001_Node000005" class="edge">
<title>Node1&#45;&gt;Node5</title>
<g id="a_edge5_Node000001_Node000005"><a xlink:title=" ">
<path fill="none" stroke="#63b8ff" d="M53.4,-63.85C67.84,-54.1 91.32,-39.01 113,-28.5 117.11,-26.51 121.5,-24.59 125.9,-22.8"/>
<polygon fill="#63b8ff" stroke="#63b8ff" points="127.43,-25.96 135.48,-19.08 124.89,-19.43 127.43,-25.96"/>
</a>
</g>
</g>
<!-- Node4&#45;&gt;Node4 -->
<g id="edge4_Node000004_Node000004" class="edge">
<title>Node4&#45;&gt;Node4</title>
<g id="a_edge4_Node000004_Node000004"><a xlink:title=" ">
<path fill="none" stroke="#63b8ff" d="M146.08,-56.08C136.63,-64.73 143.11,-74 165.5,-74 179.5,-74 187.27,-70.38 188.83,-65.55"/>
<polygon fill="#63b8ff" stroke="#63b8ff" points="191.97,-63.99 184.92,-56.08 185.5,-66.66 191.97,-63.99"/>
</a>
</g>
</g>
</g>
</svg>
