<?xml version="1.0" encoding="UTF-8" standalone="no"?>
<!DOCTYPE svg PUBLIC "-//W3C//DTD SVG 1.1//EN"
 "http://www.w3.org/Graphics/SVG/1.1/DTD/svg11.dtd">
<!-- Generated by graphviz version 2.43.0 (0)
 -->
<!-- Title: cv::gapi::ov::Params&lt; cv::gapi::Generic &gt;::cfgOutputModelLayout Pages: 1 -->
<svg width="479pt" height="49pt"
 viewBox="0.00 0.00 479.00 49.00" xmlns="http://www.w3.org/2000/svg" xmlns:xlink="http://www.w3.org/1999/xlink">
<g id="graph0" class="graph" transform="scale(1 1) rotate(0) translate(4 45)">
<title>cv::gapi::ov::Params&lt; cv::gapi::Generic &gt;::cfgOutputModelLayout</title>
<!-- Node1 -->
<g id="Node000001" class="node">
<title>Node1</title>
<g id="a_Node000001"><a xlink:title=" ">
<polygon fill="#999999" stroke="#666666" points="134,-41 0,-41 0,0 134,0 134,-41"/>
<text text-anchor="start" x="8" y="-29" font-family="Helvetica,sans-Serif" font-size="10.00">cv::gapi::ov::Params</text>
<text text-anchor="start" x="8" y="-18" font-family="Helvetica,sans-Serif" font-size="10.00">&lt; cv::gapi::Generic &gt;</text>
<text text-anchor="middle" x="67" y="-7" font-family="Helvetica,sans-Serif" font-size="10.00">::cfgOutputModelLayout</text>
</a>
</g>
</g>
<!-- Node2 -->
<g id="Node000002" class="node">
<title>Node2</title>
<g id="a_Node000002"><a xlink:href="../../dd/dcf/namespacecv_1_1gapi_1_1ov_1_1detail.html#ac664c69c5bdea8330e2739b26bdf74f5" target="_top" xlink:title=" ">
<polygon fill="white" stroke="#666666" points="324,-35.5 170,-35.5 170,-5.5 324,-5.5 324,-35.5"/>
<text text-anchor="start" x="178" y="-23.5" font-family="Helvetica,sans-Serif" font-size="10.00">cv::gapi::ov::detail</text>
<text text-anchor="middle" x="247" y="-12.5" font-family="Helvetica,sans-Serif" font-size="10.00">::getModelToSetAttrOrThrow</text>
</a>
</g>
</g>
<!-- Node1&#45;&gt;Node2 -->
<g id="edge1_Node000001_Node000002" class="edge">
<title>Node1&#45;&gt;Node2</title>
<g id="a_edge1_Node000001_Node000002"><a xlink:title=" ">
<path fill="none" stroke="#63b8ff" d="M134.03,-20.5C142.42,-20.5 151.1,-20.5 159.75,-20.5"/>
<polygon fill="#63b8ff" stroke="#63b8ff" points="159.87,-24 169.87,-20.5 159.87,-17 159.87,-24"/>
</a>
</g>
</g>
<!-- Node3 -->
<g id="Node000003" class="node">
<title>Node3</title>
<g id="a_Node000003"><a xlink:href="../../d3/dce/namespacecv_1_1util.html#a40544b3ca23b3917f2a5de6b0273079d" target="_top" xlink:title=" ">
<polygon fill="white" stroke="#666666" points="471,-30 360,-30 360,-11 471,-11 471,-30"/>
<text text-anchor="middle" x="415.5" y="-18" font-family="Helvetica,sans-Serif" font-size="10.00">cv::util::throw_error</text>
</a>
</g>
</g>
<!-- Node2&#45;&gt;Node3 -->
<g id="edge2_Node000002_Node000003" class="edge">
<title>Node2&#45;&gt;Node3</title>
<g id="a_edge2_Node000002_Node000003"><a xlink:title=" ">
<path fill="none" stroke="#63b8ff" d="M324.43,-20.5C332.94,-20.5 341.54,-20.5 349.88,-20.5"/>
<polygon fill="#63b8ff" stroke="#63b8ff" points="349.9,-24 359.9,-20.5 349.9,-17 349.9,-24"/>
</a>
</g>
</g>
</g>
</svg>
