<?xml version="1.0" encoding="UTF-8" standalone="no"?>
<!DOCTYPE svg PUBLIC "-//W3C//DTD SVG 1.1//EN"
 "http://www.w3.org/Graphics/SVG/1.1/DTD/svg11.dtd">
<!-- Generated by graphviz version 2.43.0 (0)
 -->
<!-- Title: cv::cuda::NvidiaHWOpticalFlow Pages: 1 -->
<svg width="171pt" height="367pt"
 viewBox="0.00 0.00 171.00 367.00" xmlns="http://www.w3.org/2000/svg" xmlns:xlink="http://www.w3.org/1999/xlink">
<g id="graph0" class="graph" transform="scale(1 1) rotate(0) translate(4 363)">
<title>cv::cuda::NvidiaHWOpticalFlow</title>
<!-- Node1 -->
<g id="Node000001" class="node">
<title>Node1</title>
<g id="a_Node000001"><a xlink:title="Base Interface for optical flow algorithms using NVIDIA Optical Flow SDK.">
<polygon fill="#999999" stroke="transparent" points="163,-79 0,-79 0,0 163,0 163,-79"/>
<text text-anchor="start" x="5.5" y="-66.5" font-family="Helvetica,sans-Serif" font-size="10.00">cv::cuda::NvidiaHWOpticalFlow</text>
<text text-anchor="start" x="80" y="-51.5" font-family="Helvetica,sans-Serif" font-size="10.00"> </text>
<text text-anchor="start" x="19.5" y="-36.5" font-family="Helvetica,sans-Serif" font-size="10.00">+</text>
<text text-anchor="start" x="47.5" y="-36.5" font-family="Helvetica,sans-Serif" font-size="10.00">calc()</text>
<text text-anchor="start" x="19.5" y="-21.5" font-family="Helvetica,sans-Serif" font-size="10.00">+</text>
<text text-anchor="start" x="47.5" y="-21.5" font-family="Helvetica,sans-Serif" font-size="10.00">collectGarbage()</text>
<text text-anchor="start" x="19.5" y="-6.5" font-family="Helvetica,sans-Serif" font-size="10.00">+</text>
<text text-anchor="start" x="47.5" y="-6.5" font-family="Helvetica,sans-Serif" font-size="10.00">getGridSize()</text>
<polygon fill="#666666" stroke="#666666" points="0.5,-61.5 0.5,-61.5 163.5,-61.5 163.5,-61.5 0.5,-61.5"/>
<polygon fill="#666666" stroke="#666666" points="0.5,-46.5 0.5,-46.5 163.5,-46.5 163.5,-46.5 0.5,-46.5"/>
<polygon fill="none" stroke="#666666" points="0,0 0,-79 163,-79 163,0 0,0"/>
</a>
</g>
</g>
<!-- Node2 -->
<g id="Node000002" class="node">
<title>Node2</title>
<g id="a_Node000002"><a xlink:href="../../d3/d46/classcv_1_1Algorithm.html" target="_top" xlink:title="This is a base class for all more or less complex algorithms in OpenCV.">
<polygon fill="white" stroke="transparent" points="136.5,-359 26.5,-359 26.5,-115 136.5,-115 136.5,-359"/>
<text text-anchor="start" x="49" y="-347" font-family="Helvetica,sans-Serif" font-size="10.00">cv::Algorithm</text>
<text text-anchor="start" x="79.5" y="-332" font-family="Helvetica,sans-Serif" font-size="10.00"> </text>
<text text-anchor="start" x="30.5" y="-317" font-family="Helvetica,sans-Serif" font-size="10.00">+</text>
<text text-anchor="start" x="43.5" y="-317" font-family="Helvetica,sans-Serif" font-size="10.00">Algorithm()</text>
<text text-anchor="start" x="30.5" y="-302" font-family="Helvetica,sans-Serif" font-size="10.00">+</text>
<text text-anchor="start" x="43.5" y="-302" font-family="Helvetica,sans-Serif" font-size="10.00">~Algorithm()</text>
<text text-anchor="start" x="30.5" y="-287" font-family="Helvetica,sans-Serif" font-size="10.00">+</text>
<text text-anchor="start" x="43.5" y="-287" font-family="Helvetica,sans-Serif" font-size="10.00">clear()</text>
<text text-anchor="start" x="30.5" y="-272" font-family="Helvetica,sans-Serif" font-size="10.00">+</text>
<text text-anchor="start" x="43.5" y="-272" font-family="Helvetica,sans-Serif" font-size="10.00">empty()</text>
<text text-anchor="start" x="30.5" y="-257" font-family="Helvetica,sans-Serif" font-size="10.00">+</text>
<text text-anchor="start" x="43.5" y="-257" font-family="Helvetica,sans-Serif" font-size="10.00">getDefaultName()</text>
<text text-anchor="start" x="30.5" y="-242" font-family="Helvetica,sans-Serif" font-size="10.00">+</text>
<text text-anchor="start" x="43.5" y="-242" font-family="Helvetica,sans-Serif" font-size="10.00">read()</text>
<text text-anchor="start" x="30.5" y="-227" font-family="Helvetica,sans-Serif" font-size="10.00">+</text>
<text text-anchor="start" x="43.5" y="-227" font-family="Helvetica,sans-Serif" font-size="10.00">save()</text>
<text text-anchor="start" x="30.5" y="-212" font-family="Helvetica,sans-Serif" font-size="10.00">+</text>
<text text-anchor="start" x="43.5" y="-212" font-family="Helvetica,sans-Serif" font-size="10.00">write()</text>
<text text-anchor="start" x="30.5" y="-197" font-family="Helvetica,sans-Serif" font-size="10.00">+</text>
<text text-anchor="start" x="43.5" y="-197" font-family="Helvetica,sans-Serif" font-size="10.00">write()</text>
<text text-anchor="start" x="30.5" y="-182" font-family="Helvetica,sans-Serif" font-size="10.00">+</text>
<text text-anchor="start" x="43.5" y="-182" font-family="Helvetica,sans-Serif" font-size="10.00">write()</text>
<text text-anchor="start" x="30.5" y="-167" font-family="Helvetica,sans-Serif" font-size="10.00">+</text>
<text text-anchor="start" x="43.5" y="-167" font-family="Helvetica,sans-Serif" font-size="10.00">load()</text>
<text text-anchor="start" x="30.5" y="-152" font-family="Helvetica,sans-Serif" font-size="10.00">+</text>
<text text-anchor="start" x="43.5" y="-152" font-family="Helvetica,sans-Serif" font-size="10.00">loadFromString()</text>
<text text-anchor="start" x="30.5" y="-137" font-family="Helvetica,sans-Serif" font-size="10.00">+</text>
<text text-anchor="start" x="43.5" y="-137" font-family="Helvetica,sans-Serif" font-size="10.00">read()</text>
<text text-anchor="start" x="30.5" y="-122" font-family="Helvetica,sans-Serif" font-size="10.00">#</text>
<text text-anchor="start" x="43.5" y="-122" font-family="Helvetica,sans-Serif" font-size="10.00">writeFormat()</text>
<polygon fill="#666666" stroke="#666666" points="26.5,-342 26.5,-342 136.5,-342 136.5,-342 26.5,-342"/>
<polygon fill="#666666" stroke="#666666" points="26.5,-327 26.5,-327 136.5,-327 136.5,-327 26.5,-327"/>
<polygon fill="none" stroke="#666666" points="26.5,-115 26.5,-359 136.5,-359 136.5,-115 26.5,-115"/>
</a>
</g>
</g>
<!-- Node2&#45;&gt;Node1 -->
<g id="edge1_Node000001_Node000002" class="edge">
<title>Node2&#45;&gt;Node1</title>
<g id="a_edge1_Node000001_Node000002"><a xlink:title=" ">
<path fill="none" stroke="#63b8ff" d="M81.5,-104.9C81.5,-95.76 81.5,-87.06 81.5,-79.19"/>
<polygon fill="none" stroke="#63b8ff" points="78,-104.97 81.5,-114.97 85,-104.97 78,-104.97"/>
</a>
</g>
</g>
</g>
</svg>
