<?xml version="1.0" encoding="UTF-8" standalone="no"?>
<!DOCTYPE svg PUBLIC "-//W3C//DTD SVG 1.1//EN"
 "http://www.w3.org/Graphics/SVG/1.1/DTD/svg11.dtd">
<!-- Generated by graphviz version 2.43.0 (0)
 -->
<!-- Title: cv::MatExpr::min Pages: 1 -->
<svg width="219pt" height="45pt"
 viewBox="0.00 0.00 219.00 45.00" xmlns="http://www.w3.org/2000/svg" xmlns:xlink="http://www.w3.org/1999/xlink">
<g id="graph0" class="graph" transform="scale(1 1) rotate(0) translate(4 41)">
<title>cv::MatExpr::min</title>
<!-- Node1 -->
<g id="Node000001" class="node">
<title>Node1</title>
<g id="a_Node000001"><a xlink:title=" ">
<polygon fill="#999999" stroke="#666666" points="98,-19 0,-19 0,0 98,0 98,-19"/>
<text text-anchor="middle" x="49" y="-7" font-family="Helvetica,sans-Serif" font-size="10.00">cv::MatExpr::min</text>
</a>
</g>
</g>
<!-- Node1&#45;&gt;Node1 -->
<g id="edge2_Node000001_Node000001" class="edge">
<title>Node1&#45;&gt;Node1</title>
<g id="a_edge2_Node000001_Node000001"><a xlink:title=" ">
<path fill="none" stroke="#63b8ff" d="M30.2,-19.08C21.05,-27.73 27.32,-37 49,-37 62.55,-37 70.08,-33.38 71.59,-28.55"/>
<polygon fill="#63b8ff" stroke="#63b8ff" points="74.77,-27.07 67.8,-19.08 68.27,-29.67 74.77,-27.07"/>
</a>
</g>
</g>
<!-- Node2 -->
<g id="Node000002" class="node">
<title>Node2</title>
<g id="a_Node000002"><a xlink:href="../../d3/d63/classcv_1_1Mat.html#a2c4229732da267f1fe385458af3896d8" target="_top" xlink:title=" ">
<polygon fill="white" stroke="#666666" points="211,-19 134,-19 134,0 211,0 211,-19"/>
<text text-anchor="middle" x="172.5" y="-7" font-family="Helvetica,sans-Serif" font-size="10.00">cv::Mat::Mat</text>
</a>
</g>
</g>
<!-- Node1&#45;&gt;Node2 -->
<g id="edge1_Node000001_Node000002" class="edge">
<title>Node1&#45;&gt;Node2</title>
<g id="a_edge1_Node000001_Node000002"><a xlink:title=" ">
<path fill="none" stroke="#63b8ff" d="M98.02,-9.5C106.51,-9.5 115.34,-9.5 123.82,-9.5"/>
<polygon fill="#63b8ff" stroke="#63b8ff" points="123.94,-13 133.94,-9.5 123.94,-6 123.94,-13"/>
</a>
</g>
</g>
</g>
</svg>
