<?xml version="1.0" encoding="UTF-8" standalone="no"?>
<!DOCTYPE svg PUBLIC "-//W3C//DTD SVG 1.1//EN"
 "http://www.w3.org/Graphics/SVG/1.1/DTD/svg11.dtd">
<!-- Generated by graphviz version 2.43.0 (0)
 -->
<!-- Title: opencv2/core/parallel/parallel_backend.hpp Pages: 1 -->
<svg width="366pt" height="104pt"
 viewBox="0.00 0.00 366.00 104.00" xmlns="http://www.w3.org/2000/svg" xmlns:xlink="http://www.w3.org/1999/xlink">
<g id="graph0" class="graph" transform="scale(1 1) rotate(0) translate(4 100)">
<title>opencv2/core/parallel/parallel_backend.hpp</title>
<!-- Node1 -->
<g id="Node000001" class="node">
<title>Node1</title>
<g id="a_Node000001"><a xlink:title=" ">
<polygon fill="#999999" stroke="#666666" points="246.5,-96 123.5,-96 123.5,-66 246.5,-66 246.5,-96"/>
<text text-anchor="start" x="131.5" y="-84" font-family="Helvetica,sans-Serif" font-size="10.00">opencv2/core/parallel</text>
<text text-anchor="middle" x="185" y="-73" font-family="Helvetica,sans-Serif" font-size="10.00">/parallel_backend.hpp</text>
</a>
</g>
</g>
<!-- Node2 -->
<g id="Node000002" class="node">
<title>Node2</title>
<g id="a_Node000002"><a xlink:href="../../dd/d5c/parallel__for_8openmp_8hpp.html" target="_top" xlink:title=" ">
<polygon fill="white" stroke="#666666" points="182,-30 0,-30 0,0 182,0 182,-30"/>
<text text-anchor="start" x="8" y="-18" font-family="Helvetica,sans-Serif" font-size="10.00">opencv2/core/parallel</text>
<text text-anchor="middle" x="91" y="-7" font-family="Helvetica,sans-Serif" font-size="10.00">/backend/parallel_for.openmp.hpp</text>
</a>
</g>
</g>
<!-- Node1&#45;&gt;Node2 -->
<g id="edge1_Node000001_Node000002" class="edge">
<title>Node1&#45;&gt;Node2</title>
<g id="a_edge1_Node000001_Node000002"><a xlink:title=" ">
<path fill="none" stroke="#63b8ff" d="M155.67,-60.03C141.44,-50.34 124.69,-38.94 111.8,-30.16"/>
<polygon fill="#63b8ff" stroke="#63b8ff" points="153.9,-63.06 164.14,-65.8 157.84,-57.28 153.9,-63.06"/>
</a>
</g>
</g>
<!-- Node3 -->
<g id="Node000003" class="node">
<title>Node3</title>
<g id="a_Node000003"><a xlink:href="../../dd/d07/parallel__for_8tbb_8hpp.html" target="_top" xlink:title=" ">
<polygon fill="white" stroke="#666666" points="358,-30 200,-30 200,0 358,0 358,-30"/>
<text text-anchor="start" x="208" y="-18" font-family="Helvetica,sans-Serif" font-size="10.00">opencv2/core/parallel</text>
<text text-anchor="middle" x="279" y="-7" font-family="Helvetica,sans-Serif" font-size="10.00">/backend/parallel_for.tbb.hpp</text>
</a>
</g>
</g>
<!-- Node1&#45;&gt;Node3 -->
<g id="edge2_Node000001_Node000003" class="edge">
<title>Node1&#45;&gt;Node3</title>
<g id="a_edge2_Node000001_Node000003"><a xlink:title=" ">
<path fill="none" stroke="#63b8ff" d="M214.33,-60.03C228.56,-50.34 245.31,-38.94 258.2,-30.16"/>
<polygon fill="#63b8ff" stroke="#63b8ff" points="212.16,-57.28 205.86,-65.8 216.1,-63.06 212.16,-57.28"/>
</a>
</g>
</g>
</g>
</svg>
