<?xml version="1.0" encoding="UTF-8" standalone="no"?>
<!DOCTYPE svg PUBLIC "-//W3C//DTD SVG 1.1//EN"
 "http://www.w3.org/Graphics/SVG/1.1/DTD/svg11.dtd">
<!-- Generated by graphviz version 2.43.0 (0)
 -->
<!-- Title: opencv2/cudev/block/reduce.hpp Pages: 1 -->
<svg width="171pt" height="159pt"
 viewBox="0.00 0.00 171.00 159.00" xmlns="http://www.w3.org/2000/svg" xmlns:xlink="http://www.w3.org/1999/xlink">
<g id="graph0" class="graph" transform="scale(1 1) rotate(0) translate(4 155)">
<title>opencv2/cudev/block/reduce.hpp</title>
<!-- Node1 -->
<g id="Node000001" class="node">
<title>Node1</title>
<g id="a_Node000001"><a xlink:title=" ">
<polygon fill="#999999" stroke="#666666" points="119,-151 0,-151 0,-121 119,-121 119,-151"/>
<text text-anchor="start" x="8" y="-139" font-family="Helvetica,sans-Serif" font-size="10.00">opencv2/cudev/block</text>
<text text-anchor="middle" x="59.5" y="-128" font-family="Helvetica,sans-Serif" font-size="10.00">/reduce.hpp</text>
</a>
</g>
</g>
<!-- Node2 -->
<g id="Node000002" class="node">
<title>Node2</title>
<g id="a_Node000002"><a xlink:href="../../d6/d38/cudev_8hpp.html" target="_top" xlink:title=" ">
<polygon fill="white" stroke="#666666" points="114.5,-19 4.5,-19 4.5,0 114.5,0 114.5,-19"/>
<text text-anchor="middle" x="59.5" y="-7" font-family="Helvetica,sans-Serif" font-size="10.00">opencv2/cudev.hpp</text>
</a>
</g>
</g>
<!-- Node1&#45;&gt;Node2 -->
<g id="edge1_Node000001_Node000002" class="edge">
<title>Node1&#45;&gt;Node2</title>
<g id="a_edge1_Node000001_Node000002"><a xlink:title=" ">
<path fill="none" stroke="#63b8ff" d="M45.15,-111.89C40.84,-103.7 36.68,-94.23 34.5,-85 31.44,-72.02 31.12,-67.9 34.5,-55 38.04,-41.46 46.74,-27.68 52.87,-19.12"/>
<polygon fill="#63b8ff" stroke="#63b8ff" points="42.22,-113.81 50.17,-120.81 48.32,-110.38 42.22,-113.81"/>
</a>
</g>
</g>
<!-- Node3 -->
<g id="Node000003" class="node">
<title>Node3</title>
<g id="a_Node000003"><a xlink:href="../../d5/dbb/contrib_2modules_2cudev_2include_2opencv2_2cudev_2block_2vec__distance_8hpp.html" target="_top" xlink:title=" ">
<polygon fill="white" stroke="#666666" points="163,-85 44,-85 44,-55 163,-55 163,-85"/>
<text text-anchor="start" x="52" y="-73" font-family="Helvetica,sans-Serif" font-size="10.00">opencv2/cudev/block</text>
<text text-anchor="middle" x="103.5" y="-62" font-family="Helvetica,sans-Serif" font-size="10.00">/vec_distance.hpp</text>
</a>
</g>
</g>
<!-- Node1&#45;&gt;Node3 -->
<g id="edge2_Node000001_Node000003" class="edge">
<title>Node1&#45;&gt;Node3</title>
<g id="a_edge2_Node000001_Node000003"><a xlink:title=" ">
<path fill="none" stroke="#63b8ff" d="M74.95,-112.53C81.21,-103.43 88.24,-93.19 93.76,-85.16"/>
<polygon fill="#63b8ff" stroke="#63b8ff" points="72.05,-110.57 69.27,-120.8 77.81,-114.54 72.05,-110.57"/>
</a>
</g>
</g>
<!-- Node3&#45;&gt;Node2 -->
<g id="edge3_Node000003_Node000002" class="edge">
<title>Node3&#45;&gt;Node2</title>
<g id="a_edge3_Node000003_Node000002"><a xlink:title=" ">
<path fill="none" stroke="#63b8ff" d="M86.8,-46.8C79.59,-37.21 71.56,-26.54 66.09,-19.27"/>
<polygon fill="#63b8ff" stroke="#63b8ff" points="84.04,-48.95 92.85,-54.84 89.63,-44.74 84.04,-48.95"/>
</a>
</g>
</g>
</g>
</svg>
