<?xml version="1.0" encoding="UTF-8" standalone="no"?>
<!DOCTYPE svg PUBLIC "-//W3C//DTD SVG 1.1//EN"
 "http://www.w3.org/Graphics/SVG/1.1/DTD/svg11.dtd">
<!-- Generated by graphviz version 2.43.0 (0)
 -->
<!-- Title: HaarClassifierCascadeDescriptor Pages: 1 -->
<svg width="389pt" height="301pt"
 viewBox="0.00 0.00 388.50 301.00" xmlns="http://www.w3.org/2000/svg" xmlns:xlink="http://www.w3.org/1999/xlink">
<g id="graph0" class="graph" transform="scale(1 1) rotate(0) translate(4 297)">
<title>HaarClassifierCascadeDescriptor</title>
<!-- Node1 -->
<g id="Node000001" class="node">
<title>Node1</title>
<g id="a_Node000001"><a xlink:title=" ">
<polygon fill="#999999" stroke="transparent" points="280.5,-49 110.5,-49 110.5,0 280.5,0 280.5,-49"/>
<text text-anchor="start" x="115.5" y="-36.5" font-family="Helvetica,sans-Serif" font-size="10.00">HaarClassifierCascadeDescriptor</text>
<text text-anchor="start" x="193.5" y="-21.5" font-family="Helvetica,sans-Serif" font-size="10.00"> </text>
<text text-anchor="start" x="193.5" y="-6.5" font-family="Helvetica,sans-Serif" font-size="10.00"> </text>
<polygon fill="#666666" stroke="#666666" points="110.5,-31.5 110.5,-31.5 280.5,-31.5 280.5,-31.5 110.5,-31.5"/>
<polygon fill="#666666" stroke="#666666" points="110.5,-16.5 110.5,-16.5 280.5,-16.5 280.5,-16.5 110.5,-16.5"/>
<polygon fill="none" stroke="#666666" points="110.5,0 110.5,-49 280.5,-49 280.5,0 110.5,0"/>
</a>
</g>
</g>
<!-- Node2 -->
<g id="Node000002" class="node">
<title>Node2</title>
<g id="a_Node000002"><a xlink:title=" ">
<polygon fill="white" stroke="transparent" points="55,-293 0,-293 0,-244 55,-244 55,-293"/>
<text text-anchor="start" x="5.5" y="-280.5" font-family="Helvetica,sans-Serif" font-size="10.00">unsigned</text>
<text text-anchor="start" x="26" y="-265.5" font-family="Helvetica,sans-Serif" font-size="10.00"> </text>
<text text-anchor="start" x="26" y="-250.5" font-family="Helvetica,sans-Serif" font-size="10.00"> </text>
<polygon fill="#666666" stroke="#666666" points="0.5,-275.5 0.5,-275.5 55.5,-275.5 55.5,-275.5 0.5,-275.5"/>
<polygon fill="#666666" stroke="#666666" points="0.5,-260.5 0.5,-260.5 55.5,-260.5 55.5,-260.5 0.5,-260.5"/>
<polygon fill="none" stroke="#666666" points="0,-244 0,-293 55,-293 55,-244 0,-244"/>
</a>
</g>
</g>
<!-- Node2&#45;&gt;Node1 -->
<g id="edge1_Node000001_Node000002" class="edge">
<title>Node2&#45;&gt;Node1</title>
<g id="a_edge1_Node000001_Node000002"><a xlink:title=" ">
<path fill="none" stroke="#63b8ff" d="M18.61,-243.82C7.7,-210.45 -6.26,-148.98 20.5,-107 38.31,-79.06 68.47,-60.54 98.78,-48.34"/>
<polygon fill="none" stroke="#63b8ff" points="99.15,-48.2 103.35,-42.34 110.37,-43.97 106.17,-49.83 99.15,-48.2"/>
</a>
</g>
<text text-anchor="middle" x="87" y="-160.5" font-family="Helvetica,sans-Serif" font-size="10.00" fill="grey"> +NumClassifierRootNodes</text>
<text text-anchor="middle" x="87" y="-149.5" font-family="Helvetica,sans-Serif" font-size="10.00" fill="grey">+NumClassifierTotalNodes</text>
<text text-anchor="middle" x="87" y="-138.5" font-family="Helvetica,sans-Serif" font-size="10.00" fill="grey">+NumFeatures</text>
<text text-anchor="middle" x="87" y="-127.5" font-family="Helvetica,sans-Serif" font-size="10.00" fill="grey">+NumStages</text>
</g>
<!-- Node3 -->
<g id="Node000003" class="node">
<title>Node3</title>
<g id="a_Node000003"><a xlink:href="../../d8/dde/structNcvSize32u.html" target="_top" xlink:title=" ">
<polygon fill="white" stroke="transparent" points="250,-186 163,-186 163,-107 250,-107 250,-186"/>
<text text-anchor="start" x="178" y="-173.5" font-family="Helvetica,sans-Serif" font-size="10.00">NcvSize32u</text>
<text text-anchor="start" x="205" y="-158.5" font-family="Helvetica,sans-Serif" font-size="10.00"> </text>
<text text-anchor="start" x="167.5" y="-143.5" font-family="Helvetica,sans-Serif" font-size="10.00">+</text>
<text text-anchor="start" x="180.5" y="-143.5" font-family="Helvetica,sans-Serif" font-size="10.00">NcvSize32u()</text>
<text text-anchor="start" x="167.5" y="-128.5" font-family="Helvetica,sans-Serif" font-size="10.00">+</text>
<text text-anchor="start" x="180.5" y="-128.5" font-family="Helvetica,sans-Serif" font-size="10.00">NcvSize32u()</text>
<text text-anchor="start" x="167.5" y="-113.5" font-family="Helvetica,sans-Serif" font-size="10.00">+</text>
<text text-anchor="start" x="180.5" y="-113.5" font-family="Helvetica,sans-Serif" font-size="10.00">operator==()</text>
<polygon fill="#666666" stroke="#666666" points="163.5,-168.5 163.5,-168.5 250.5,-168.5 250.5,-168.5 163.5,-168.5"/>
<polygon fill="#666666" stroke="#666666" points="163.5,-153.5 163.5,-153.5 250.5,-153.5 250.5,-153.5 163.5,-153.5"/>
<polygon fill="none" stroke="#666666" points="163,-107 163,-186 250,-186 250,-107 163,-107"/>
</a>
</g>
</g>
<!-- Node2&#45;&gt;Node3 -->
<g id="edge3_Node000003_Node000002" class="edge">
<title>Node2&#45;&gt;Node3</title>
<g id="a_edge3_Node000003_Node000002"><a xlink:title=" ">
<path fill="none" stroke="#63b8ff" d="M55.08,-249.01C81,-231.63 120.53,-205.13 152.7,-183.57"/>
<polygon fill="none" stroke="#63b8ff" points="152.89,-183.44 155.65,-176.77 162.86,-176.76 160.1,-183.42 152.89,-183.44"/>
</a>
</g>
<text text-anchor="middle" x="139" y="-218" font-family="Helvetica,sans-Serif" font-size="10.00" fill="grey"> +height</text>
<text text-anchor="middle" x="139" y="-207" font-family="Helvetica,sans-Serif" font-size="10.00" fill="grey">+width</text>
</g>
<!-- Node3&#45;&gt;Node1 -->
<g id="edge2_Node000001_Node000003" class="edge">
<title>Node3&#45;&gt;Node1</title>
<g id="a_edge2_Node000001_Node000003"><a xlink:title=" ">
<path fill="none" stroke="#63b8ff" d="M198.8,-106.71C197.87,-100.8 197.05,-94.75 196.5,-89 195.64,-80.05 195.23,-70.35 195.07,-61.3"/>
<polygon fill="none" stroke="#63b8ff" points="195.06,-61.07 191.02,-55.1 194.98,-49.07 199.02,-55.04 195.06,-61.07"/>
</a>
</g>
<text text-anchor="middle" x="235" y="-75.5" font-family="Helvetica,sans-Serif" font-size="10.00" fill="grey"> +ClassifierSize</text>
</g>
<!-- Node4 -->
<g id="Node000004" class="node">
<title>Node4</title>
<g id="a_Node000004"><a xlink:title=" ">
<polygon fill="white" stroke="transparent" points="311.5,-171 279.5,-171 279.5,-122 311.5,-122 311.5,-171"/>
<text text-anchor="start" x="284.5" y="-158.5" font-family="Helvetica,sans-Serif" font-size="10.00">bool</text>
<text text-anchor="start" x="293.5" y="-143.5" font-family="Helvetica,sans-Serif" font-size="10.00"> </text>
<text text-anchor="start" x="293.5" y="-128.5" font-family="Helvetica,sans-Serif" font-size="10.00"> </text>
<polygon fill="#666666" stroke="#666666" points="279.5,-153.5 279.5,-153.5 311.5,-153.5 311.5,-153.5 279.5,-153.5"/>
<polygon fill="#666666" stroke="#666666" points="279.5,-138.5 279.5,-138.5 311.5,-138.5 311.5,-138.5 279.5,-138.5"/>
<polygon fill="none" stroke="#666666" points="279.5,-122 279.5,-171 311.5,-171 311.5,-122 279.5,-122"/>
</a>
</g>
</g>
<!-- Node4&#45;&gt;Node1 -->
<g id="edge4_Node000001_Node000004" class="edge">
<title>Node4&#45;&gt;Node1</title>
<g id="a_edge4_Node000001_Node000004"><a xlink:title=" ">
<path fill="none" stroke="#63b8ff" d="M293.79,-121.98C291.49,-105.1 286.1,-82.66 273.5,-67 270.45,-63.21 266.96,-59.72 263.18,-56.52"/>
<polygon fill="none" stroke="#63b8ff" points="262.91,-56.31 255.71,-55.93 253.29,-49.14 260.49,-49.52 262.91,-56.31"/>
</a>
</g>
<text text-anchor="middle" x="332.5" y="-81" font-family="Helvetica,sans-Serif" font-size="10.00" fill="grey"> +bHasStumpsOnly</text>
<text text-anchor="middle" x="332.5" y="-70" font-family="Helvetica,sans-Serif" font-size="10.00" fill="grey">+bNeedsTiltedII</text>
</g>
</g>
</svg>
