<?xml version="1.0" encoding="UTF-8" standalone="no"?>
<!DOCTYPE svg PUBLIC "-//W3C//DTD SVG 1.1//EN"
 "http://www.w3.org/Graphics/SVG/1.1/DTD/svg11.dtd">
<!-- Generated by graphviz version 2.43.0 (0)
 -->
<!-- Title: cv::GCompileArg Pages: 1 -->
<svg width="106pt" height="310pt"
 viewBox="0.00 0.00 106.00 310.00" xmlns="http://www.w3.org/2000/svg" xmlns:xlink="http://www.w3.org/1999/xlink">
<g id="graph0" class="graph" transform="scale(1 1) rotate(0) translate(4 306)">
<title>cv::GCompileArg</title>
<!-- Node1 -->
<g id="Node000001" class="node">
<title>Node1</title>
<g id="a_Node000001"><a xlink:title="Represents an arbitrary compilation argument.">
<polygon fill="#999999" stroke="transparent" points="96,-109 2,-109 2,0 96,0 96,-109"/>
<text text-anchor="start" x="8" y="-96.5" font-family="Helvetica,sans-Serif" font-size="10.00">cv::GCompileArg</text>
<text text-anchor="start" x="47" y="-81.5" font-family="Helvetica,sans-Serif" font-size="10.00"> </text>
<text text-anchor="start" x="6" y="-66.5" font-family="Helvetica,sans-Serif" font-size="10.00">+</text>
<text text-anchor="start" x="19" y="-66.5" font-family="Helvetica,sans-Serif" font-size="10.00">GCompileArg()</text>
<text text-anchor="start" x="6" y="-51.5" font-family="Helvetica,sans-Serif" font-size="10.00">+</text>
<text text-anchor="start" x="19" y="-51.5" font-family="Helvetica,sans-Serif" font-size="10.00">GCompileArg()</text>
<text text-anchor="start" x="6" y="-36.5" font-family="Helvetica,sans-Serif" font-size="10.00">+</text>
<text text-anchor="start" x="19" y="-36.5" font-family="Helvetica,sans-Serif" font-size="10.00">get()</text>
<text text-anchor="start" x="6" y="-21.5" font-family="Helvetica,sans-Serif" font-size="10.00">+</text>
<text text-anchor="start" x="19" y="-21.5" font-family="Helvetica,sans-Serif" font-size="10.00">get()</text>
<text text-anchor="start" x="6" y="-6.5" font-family="Helvetica,sans-Serif" font-size="10.00">+</text>
<text text-anchor="start" x="19" y="-6.5" font-family="Helvetica,sans-Serif" font-size="10.00">serialize()</text>
<polygon fill="#666666" stroke="#666666" points="2,-91.5 2,-91.5 96,-91.5 96,-91.5 2,-91.5"/>
<polygon fill="#666666" stroke="#666666" points="2,-76.5 2,-76.5 96,-76.5 96,-76.5 2,-76.5"/>
<polygon fill="none" stroke="#666666" points="2,0 2,-109 96,-109 96,0 2,0"/>
</a>
</g>
</g>
<!-- Node2 -->
<g id="Node000002" class="node">
<title>Node2</title>
<g id="a_Node000002"><a xlink:title=" ">
<polygon fill="white" stroke="transparent" points="78.5,-205 19.5,-205 19.5,-156 78.5,-156 78.5,-205"/>
<text text-anchor="start" x="25" y="-192.5" font-family="Helvetica,sans-Serif" font-size="10.00">std::string</text>
<text text-anchor="start" x="47.5" y="-177.5" font-family="Helvetica,sans-Serif" font-size="10.00"> </text>
<text text-anchor="start" x="47.5" y="-162.5" font-family="Helvetica,sans-Serif" font-size="10.00"> </text>
<polygon fill="#666666" stroke="#666666" points="20,-187.5 20,-187.5 79,-187.5 79,-187.5 20,-187.5"/>
<polygon fill="#666666" stroke="#666666" points="20,-172.5 20,-172.5 79,-172.5 79,-172.5 20,-172.5"/>
<polygon fill="none" stroke="#666666" points="19.5,-156 19.5,-205 78.5,-205 78.5,-156 19.5,-156"/>
</a>
</g>
</g>
<!-- Node2&#45;&gt;Node1 -->
<g id="edge1_Node000001_Node000002" class="edge">
<title>Node2&#45;&gt;Node1</title>
<g id="a_edge1_Node000001_Node000002"><a xlink:title=" ">
<path fill="none" stroke="#63b8ff" d="M49,-155.88C49,-145.92 49,-133.78 49,-121.44"/>
<polygon fill="none" stroke="#63b8ff" points="49,-121.09 45,-115.09 49,-109.09 53,-115.09 49,-121.09"/>
</a>
</g>
<text text-anchor="middle" x="63" y="-130" font-family="Helvetica,sans-Serif" font-size="10.00" fill="grey"> +tag</text>
</g>
<!-- Node3 -->
<g id="Node000003" class="node">
<title>Node3</title>
<g id="a_Node000003"><a xlink:title=" ">
<polygon fill="white" stroke="transparent" points="98,-302 0,-302 0,-242 98,-242 98,-302"/>
<text text-anchor="start" x="5" y="-290" font-family="Helvetica,sans-Serif" font-size="10.00">std::basic_string&lt;</text>
<text text-anchor="start" x="30.5" y="-279" font-family="Helvetica,sans-Serif" font-size="10.00"> Char &gt;</text>
<text text-anchor="start" x="47" y="-264" font-family="Helvetica,sans-Serif" font-size="10.00"> </text>
<text text-anchor="start" x="47" y="-249" font-family="Helvetica,sans-Serif" font-size="10.00"> </text>
<polygon fill="#666666" stroke="#666666" points="0,-274 0,-274 98,-274 98,-274 0,-274"/>
<polygon fill="#666666" stroke="#666666" points="0,-259 0,-259 98,-259 98,-259 0,-259"/>
<polygon fill="none" stroke="#666666" points="0,-242 0,-302 98,-302 98,-242 0,-242"/>
</a>
</g>
</g>
<!-- Node3&#45;&gt;Node2 -->
<g id="edge2_Node000002_Node000003" class="edge">
<title>Node3&#45;&gt;Node2</title>
<g id="a_edge2_Node000002_Node000003"><a xlink:title=" ">
<path fill="none" stroke="#63b8ff" d="M49,-231.41C49,-222.47 49,-213.25 49,-205.21"/>
<polygon fill="none" stroke="#63b8ff" points="45.5,-231.69 49,-241.69 52.5,-231.69 45.5,-231.69"/>
</a>
</g>
</g>
</g>
</svg>
