<?xml version="1.0" encoding="UTF-8" standalone="no"?>
<!DOCTYPE svg PUBLIC "-//W3C//DTD SVG 1.1//EN"
 "http://www.w3.org/Graphics/SVG/1.1/DTD/svg11.dtd">
<!-- Generated by graphviz version 2.43.0 (0)
 -->
<!-- Title: cv::gapi::wip::draw::Circle Pages: 1 -->
<svg width="336pt" height="2127pt"
 viewBox="0.00 0.00 336.00 2127.00" xmlns="http://www.w3.org/2000/svg" xmlns:xlink="http://www.w3.org/1999/xlink">
<g id="graph0" class="graph" transform="scale(1 1) rotate(0) translate(4 2123)">
<title>cv::gapi::wip::draw::Circle</title>
<!-- Node1 -->
<g id="Node000001" class="node">
<title>Node1</title>
<g id="a_Node000001"><a xlink:title="This structure represents a circle to draw.">
<polygon fill="#999999" stroke="transparent" points="225,-75 124,-75 124,0 225,0 225,-75"/>
<text text-anchor="start" x="129.5" y="-62.5" font-family="Helvetica,sans-Serif" font-size="10.00">cv::gapi::wip::draw</text>
<text text-anchor="start" x="158" y="-51.5" font-family="Helvetica,sans-Serif" font-size="10.00">::Circle</text>
<text text-anchor="start" x="173" y="-36.5" font-family="Helvetica,sans-Serif" font-size="10.00"> </text>
<text text-anchor="start" x="139.5" y="-21.5" font-family="Helvetica,sans-Serif" font-size="10.00">+</text>
<text text-anchor="start" x="163.5" y="-21.5" font-family="Helvetica,sans-Serif" font-size="10.00">Circle()</text>
<text text-anchor="start" x="139.5" y="-6.5" font-family="Helvetica,sans-Serif" font-size="10.00">+</text>
<text text-anchor="start" x="163.5" y="-6.5" font-family="Helvetica,sans-Serif" font-size="10.00">Circle()</text>
<polygon fill="#666666" stroke="#666666" points="124.5,-46.5 124.5,-46.5 225.5,-46.5 225.5,-46.5 124.5,-46.5"/>
<polygon fill="#666666" stroke="#666666" points="124.5,-31.5 124.5,-31.5 225.5,-31.5 225.5,-31.5 124.5,-31.5"/>
<polygon fill="none" stroke="#666666" points="124,0 124,-75 225,-75 225,0 124,0"/>
</a>
</g>
</g>
<!-- Node2 -->
<g id="Node000002" class="node">
<title>Node2</title>
<g id="a_Node000002"><a xlink:href="../../db/d4e/classcv_1_1Point__.html" target="_top" xlink:title="Template class for 2D points specified by its coordinates x and y.">
<polygon fill="white" stroke="transparent" points="149,-1690 0,-1690 0,-1435 149,-1435 149,-1690"/>
<text text-anchor="start" x="31.5" y="-1677.5" font-family="Helvetica,sans-Serif" font-size="10.00">cv::Point_&lt; _Tp &gt;</text>
<text text-anchor="start" x="73" y="-1662.5" font-family="Helvetica,sans-Serif" font-size="10.00"> </text>
<text text-anchor="start" x="4.5" y="-1647.5" font-family="Helvetica,sans-Serif" font-size="10.00">+</text>
<text text-anchor="start" x="17.5" y="-1647.5" font-family="Helvetica,sans-Serif" font-size="10.00">Point_()</text>
<text text-anchor="start" x="4.5" y="-1632.5" font-family="Helvetica,sans-Serif" font-size="10.00">+</text>
<text text-anchor="start" x="17.5" y="-1632.5" font-family="Helvetica,sans-Serif" font-size="10.00">Point_()</text>
<text text-anchor="start" x="4.5" y="-1617.5" font-family="Helvetica,sans-Serif" font-size="10.00">+</text>
<text text-anchor="start" x="17.5" y="-1617.5" font-family="Helvetica,sans-Serif" font-size="10.00">Point_()</text>
<text text-anchor="start" x="4.5" y="-1602.5" font-family="Helvetica,sans-Serif" font-size="10.00">+</text>
<text text-anchor="start" x="17.5" y="-1602.5" font-family="Helvetica,sans-Serif" font-size="10.00">Point_()</text>
<text text-anchor="start" x="4.5" y="-1587.5" font-family="Helvetica,sans-Serif" font-size="10.00">+</text>
<text text-anchor="start" x="17.5" y="-1587.5" font-family="Helvetica,sans-Serif" font-size="10.00">Point_()</text>
<text text-anchor="start" x="4.5" y="-1572.5" font-family="Helvetica,sans-Serif" font-size="10.00">+</text>
<text text-anchor="start" x="17.5" y="-1572.5" font-family="Helvetica,sans-Serif" font-size="10.00">Point_()</text>
<text text-anchor="start" x="4.5" y="-1557.5" font-family="Helvetica,sans-Serif" font-size="10.00">+</text>
<text text-anchor="start" x="17.5" y="-1557.5" font-family="Helvetica,sans-Serif" font-size="10.00">cross()</text>
<text text-anchor="start" x="4.5" y="-1542.5" font-family="Helvetica,sans-Serif" font-size="10.00">+</text>
<text text-anchor="start" x="17.5" y="-1542.5" font-family="Helvetica,sans-Serif" font-size="10.00">ddot()</text>
<text text-anchor="start" x="4.5" y="-1527.5" font-family="Helvetica,sans-Serif" font-size="10.00">+</text>
<text text-anchor="start" x="17.5" y="-1527.5" font-family="Helvetica,sans-Serif" font-size="10.00">dot()</text>
<text text-anchor="start" x="4.5" y="-1512.5" font-family="Helvetica,sans-Serif" font-size="10.00">+</text>
<text text-anchor="start" x="17.5" y="-1512.5" font-family="Helvetica,sans-Serif" font-size="10.00">inside()</text>
<text text-anchor="start" x="4.5" y="-1497.5" font-family="Helvetica,sans-Serif" font-size="10.00">+</text>
<text text-anchor="start" x="17.5" y="-1497.5" font-family="Helvetica,sans-Serif" font-size="10.00">operator Point_&lt; _Tp2 &gt;()</text>
<text text-anchor="start" x="4.5" y="-1482.5" font-family="Helvetica,sans-Serif" font-size="10.00">+</text>
<text text-anchor="start" x="17.5" y="-1482.5" font-family="Helvetica,sans-Serif" font-size="10.00">operator Vec&lt; _Tp,</text>
<text text-anchor="start" x="17.5" y="-1471.5" font-family="Helvetica,sans-Serif" font-size="10.00"> 2 &gt;()</text>
<text text-anchor="start" x="4.5" y="-1456.5" font-family="Helvetica,sans-Serif" font-size="10.00">+</text>
<text text-anchor="start" x="17.5" y="-1456.5" font-family="Helvetica,sans-Serif" font-size="10.00">operator=()</text>
<text text-anchor="start" x="4.5" y="-1441.5" font-family="Helvetica,sans-Serif" font-size="10.00">+</text>
<text text-anchor="start" x="17.5" y="-1441.5" font-family="Helvetica,sans-Serif" font-size="10.00">operator=()</text>
<polygon fill="#666666" stroke="#666666" points="0.5,-1672.5 0.5,-1672.5 149.5,-1672.5 149.5,-1672.5 0.5,-1672.5"/>
<polygon fill="#666666" stroke="#666666" points="0.5,-1657.5 0.5,-1657.5 149.5,-1657.5 149.5,-1657.5 0.5,-1657.5"/>
<polygon fill="none" stroke="#666666" points="0,-1435 0,-1690 149,-1690 149,-1435 0,-1435"/>
</a>
</g>
</g>
<!-- Node2&#45;&gt;Node1 -->
<g id="edge1_Node000001_Node000002" class="edge">
<title>Node2&#45;&gt;Node1</title>
<g id="a_edge1_Node000001_Node000002"><a xlink:title=" ">
<path fill="none" stroke="#63b8ff" d="M74.5,-1434.78C74.5,-1340.96 74.5,-1210.01 74.5,-1095 74.5,-1095 74.5,-1095 74.5,-268.5 74.5,-217.35 74.21,-202.37 93.5,-155 103.68,-130 119.98,-105.06 135.31,-84.71"/>
<polygon fill="none" stroke="#63b8ff" points="135.38,-84.6 135.88,-77.41 142.72,-75.1 142.22,-82.3 135.38,-84.6"/>
</a>
</g>
<text text-anchor="middle" x="96" y="-746" font-family="Helvetica,sans-Serif" font-size="10.00" fill="grey"> +center</text>
</g>
<!-- Node3 -->
<g id="Node000003" class="node">
<title>Node3</title>
<g id="a_Node000003"><a xlink:href="../../d1/dd7/class__Tp.html" target="_top" xlink:title=" ">
<polygon fill="white" stroke="transparent" points="177.5,-2119 149.5,-2119 149.5,-2070 177.5,-2070 177.5,-2119"/>
<text text-anchor="start" x="154.5" y="-2106.5" font-family="Helvetica,sans-Serif" font-size="10.00">_Tp</text>
<text text-anchor="start" x="161.5" y="-2091.5" font-family="Helvetica,sans-Serif" font-size="10.00"> </text>
<text text-anchor="start" x="161.5" y="-2076.5" font-family="Helvetica,sans-Serif" font-size="10.00"> </text>
<polygon fill="#666666" stroke="#666666" points="149.5,-2101.5 149.5,-2101.5 177.5,-2101.5 177.5,-2101.5 149.5,-2101.5"/>
<polygon fill="#666666" stroke="#666666" points="149.5,-2086.5 149.5,-2086.5 177.5,-2086.5 177.5,-2086.5 149.5,-2086.5"/>
<polygon fill="none" stroke="#666666" points="149.5,-2070 149.5,-2119 177.5,-2119 177.5,-2070 149.5,-2070"/>
</a>
</g>
</g>
<!-- Node3&#45;&gt;Node2 -->
<g id="edge2_Node000002_Node000003" class="edge">
<title>Node3&#45;&gt;Node2</title>
<g id="a_edge2_Node000002_Node000003"><a xlink:title=" ">
<path fill="none" stroke="#63b8ff" d="M149.49,-2079.37C142.9,-2071.86 135.62,-2062.11 131.5,-2052 85.96,-1940.1 73.35,-1802.66 71.18,-1702.1"/>
<polygon fill="none" stroke="#63b8ff" points="71.17,-1702.02 67.07,-1696.09 70.96,-1690.02 75.07,-1695.95 71.17,-1702.02"/>
</a>
</g>
<text text-anchor="middle" x="140.5" y="-2044" font-family="Helvetica,sans-Serif" font-size="10.00" fill="grey"> +x</text>
<text text-anchor="middle" x="140.5" y="-2033" font-family="Helvetica,sans-Serif" font-size="10.00" fill="grey">+y</text>
</g>
<!-- Node7 -->
<g id="Node000007" class="node">
<title>Node7</title>
<g id="a_Node000007"><a xlink:href="../../de/de1/classcv_1_1Matx.html" target="_top" xlink:title=" ">
<polygon fill="white" stroke="transparent" points="246,-1417 125,-1417 125,-1113 246,-1113 246,-1417"/>
<text text-anchor="start" x="130.5" y="-1405" font-family="Helvetica,sans-Serif" font-size="10.00">cv::Matx&lt; _Tp, cn, 1 &gt;</text>
<text text-anchor="start" x="184" y="-1390" font-family="Helvetica,sans-Serif" font-size="10.00"> </text>
<text text-anchor="start" x="136.5" y="-1375" font-family="Helvetica,sans-Serif" font-size="10.00">+</text>
<text text-anchor="start" x="156.5" y="-1375" font-family="Helvetica,sans-Serif" font-size="10.00">Matx()</text>
<text text-anchor="start" x="136.5" y="-1360" font-family="Helvetica,sans-Serif" font-size="10.00">+</text>
<text text-anchor="start" x="156.5" y="-1360" font-family="Helvetica,sans-Serif" font-size="10.00">Matx()</text>
<text text-anchor="start" x="136.5" y="-1345" font-family="Helvetica,sans-Serif" font-size="10.00">+</text>
<text text-anchor="start" x="156.5" y="-1345" font-family="Helvetica,sans-Serif" font-size="10.00">Matx()</text>
<text text-anchor="start" x="136.5" y="-1330" font-family="Helvetica,sans-Serif" font-size="10.00">+</text>
<text text-anchor="start" x="156.5" y="-1330" font-family="Helvetica,sans-Serif" font-size="10.00">Matx()</text>
<text text-anchor="start" x="136.5" y="-1315" font-family="Helvetica,sans-Serif" font-size="10.00">+</text>
<text text-anchor="start" x="156.5" y="-1315" font-family="Helvetica,sans-Serif" font-size="10.00">Matx()</text>
<text text-anchor="start" x="136.5" y="-1300" font-family="Helvetica,sans-Serif" font-size="10.00">+</text>
<text text-anchor="start" x="156.5" y="-1300" font-family="Helvetica,sans-Serif" font-size="10.00">Matx()</text>
<text text-anchor="start" x="136.5" y="-1285" font-family="Helvetica,sans-Serif" font-size="10.00">+</text>
<text text-anchor="start" x="156.5" y="-1285" font-family="Helvetica,sans-Serif" font-size="10.00">Matx()</text>
<text text-anchor="start" x="136.5" y="-1270" font-family="Helvetica,sans-Serif" font-size="10.00">+</text>
<text text-anchor="start" x="156.5" y="-1270" font-family="Helvetica,sans-Serif" font-size="10.00">Matx()</text>
<text text-anchor="start" x="136.5" y="-1255" font-family="Helvetica,sans-Serif" font-size="10.00">+</text>
<text text-anchor="start" x="156.5" y="-1255" font-family="Helvetica,sans-Serif" font-size="10.00">Matx()</text>
<text text-anchor="start" x="136.5" y="-1240" font-family="Helvetica,sans-Serif" font-size="10.00">+</text>
<text text-anchor="start" x="156.5" y="-1240" font-family="Helvetica,sans-Serif" font-size="10.00">Matx()</text>
<text text-anchor="start" x="156.5" y="-1225" font-family="Helvetica,sans-Serif" font-size="10.00">and 31 more...</text>
<text text-anchor="start" x="136.5" y="-1210" font-family="Helvetica,sans-Serif" font-size="10.00">+</text>
<text text-anchor="start" x="156.5" y="-1210" font-family="Helvetica,sans-Serif" font-size="10.00">all()</text>
<text text-anchor="start" x="136.5" y="-1195" font-family="Helvetica,sans-Serif" font-size="10.00">+</text>
<text text-anchor="start" x="156.5" y="-1195" font-family="Helvetica,sans-Serif" font-size="10.00">diag()</text>
<text text-anchor="start" x="136.5" y="-1180" font-family="Helvetica,sans-Serif" font-size="10.00">+</text>
<text text-anchor="start" x="156.5" y="-1180" font-family="Helvetica,sans-Serif" font-size="10.00">eye()</text>
<text text-anchor="start" x="136.5" y="-1165" font-family="Helvetica,sans-Serif" font-size="10.00">+</text>
<text text-anchor="start" x="156.5" y="-1165" font-family="Helvetica,sans-Serif" font-size="10.00">ones()</text>
<text text-anchor="start" x="136.5" y="-1150" font-family="Helvetica,sans-Serif" font-size="10.00">+</text>
<text text-anchor="start" x="156.5" y="-1150" font-family="Helvetica,sans-Serif" font-size="10.00">randn()</text>
<text text-anchor="start" x="136.5" y="-1135" font-family="Helvetica,sans-Serif" font-size="10.00">+</text>
<text text-anchor="start" x="156.5" y="-1135" font-family="Helvetica,sans-Serif" font-size="10.00">randu()</text>
<text text-anchor="start" x="136.5" y="-1120" font-family="Helvetica,sans-Serif" font-size="10.00">+</text>
<text text-anchor="start" x="156.5" y="-1120" font-family="Helvetica,sans-Serif" font-size="10.00">zeros()</text>
<polygon fill="#666666" stroke="#666666" points="125.5,-1400 125.5,-1400 246.5,-1400 246.5,-1400 125.5,-1400"/>
<polygon fill="#666666" stroke="#666666" points="125.5,-1385 125.5,-1385 246.5,-1385 246.5,-1385 125.5,-1385"/>
<polygon fill="none" stroke="#666666" points="125,-1113 125,-1417 246,-1417 246,-1113 125,-1113"/>
</a>
</g>
</g>
<!-- Node3&#45;&gt;Node7 -->
<g id="edge7_Node000007_Node000003" class="edge">
<title>Node3&#45;&gt;Node7</title>
<g id="a_edge7_Node000007_Node000003"><a xlink:title=" ">
<path fill="none" stroke="#63b8ff" d="M164.11,-2069.59C165.66,-2009.06 169.87,-1844.86 173.5,-1708 175.95,-1615.75 178.74,-1512.68 181.02,-1429.28"/>
<polygon fill="none" stroke="#63b8ff" points="181.02,-1429.12 177.19,-1423.01 181.35,-1417.12 185.19,-1423.23 181.02,-1429.12"/>
</a>
</g>
<text text-anchor="middle" x="187" y="-1857.5" font-family="Helvetica,sans-Serif" font-size="10.00" fill="grey"> +val</text>
</g>
<!-- Node8 -->
<g id="Node000008" class="node">
<title>Node8</title>
<g id="a_Node000008"><a xlink:href="../../de/de1/classcv_1_1Matx.html" target="_top" xlink:title="Template class for small matrices whose type and size are known at compilation time.">
<polygon fill="white" stroke="transparent" points="328,-2012 209,-2012 209,-1708 328,-1708 328,-2012"/>
<text text-anchor="start" x="214.5" y="-2000" font-family="Helvetica,sans-Serif" font-size="10.00">cv::Matx&lt; _Tp, m, n &gt;</text>
<text text-anchor="start" x="267" y="-1985" font-family="Helvetica,sans-Serif" font-size="10.00"> </text>
<text text-anchor="start" x="220" y="-1970" font-family="Helvetica,sans-Serif" font-size="10.00">+</text>
<text text-anchor="start" x="239.5" y="-1970" font-family="Helvetica,sans-Serif" font-size="10.00">Matx()</text>
<text text-anchor="start" x="220" y="-1955" font-family="Helvetica,sans-Serif" font-size="10.00">+</text>
<text text-anchor="start" x="239.5" y="-1955" font-family="Helvetica,sans-Serif" font-size="10.00">Matx()</text>
<text text-anchor="start" x="220" y="-1940" font-family="Helvetica,sans-Serif" font-size="10.00">+</text>
<text text-anchor="start" x="239.5" y="-1940" font-family="Helvetica,sans-Serif" font-size="10.00">Matx()</text>
<text text-anchor="start" x="220" y="-1925" font-family="Helvetica,sans-Serif" font-size="10.00">+</text>
<text text-anchor="start" x="239.5" y="-1925" font-family="Helvetica,sans-Serif" font-size="10.00">Matx()</text>
<text text-anchor="start" x="220" y="-1910" font-family="Helvetica,sans-Serif" font-size="10.00">+</text>
<text text-anchor="start" x="239.5" y="-1910" font-family="Helvetica,sans-Serif" font-size="10.00">Matx()</text>
<text text-anchor="start" x="220" y="-1895" font-family="Helvetica,sans-Serif" font-size="10.00">+</text>
<text text-anchor="start" x="239.5" y="-1895" font-family="Helvetica,sans-Serif" font-size="10.00">Matx()</text>
<text text-anchor="start" x="220" y="-1880" font-family="Helvetica,sans-Serif" font-size="10.00">+</text>
<text text-anchor="start" x="239.5" y="-1880" font-family="Helvetica,sans-Serif" font-size="10.00">Matx()</text>
<text text-anchor="start" x="220" y="-1865" font-family="Helvetica,sans-Serif" font-size="10.00">+</text>
<text text-anchor="start" x="239.5" y="-1865" font-family="Helvetica,sans-Serif" font-size="10.00">Matx()</text>
<text text-anchor="start" x="220" y="-1850" font-family="Helvetica,sans-Serif" font-size="10.00">+</text>
<text text-anchor="start" x="239.5" y="-1850" font-family="Helvetica,sans-Serif" font-size="10.00">Matx()</text>
<text text-anchor="start" x="220" y="-1835" font-family="Helvetica,sans-Serif" font-size="10.00">+</text>
<text text-anchor="start" x="239.5" y="-1835" font-family="Helvetica,sans-Serif" font-size="10.00">Matx()</text>
<text text-anchor="start" x="239.5" y="-1820" font-family="Helvetica,sans-Serif" font-size="10.00">and 31 more...</text>
<text text-anchor="start" x="220" y="-1805" font-family="Helvetica,sans-Serif" font-size="10.00">+</text>
<text text-anchor="start" x="239.5" y="-1805" font-family="Helvetica,sans-Serif" font-size="10.00">all()</text>
<text text-anchor="start" x="220" y="-1790" font-family="Helvetica,sans-Serif" font-size="10.00">+</text>
<text text-anchor="start" x="239.5" y="-1790" font-family="Helvetica,sans-Serif" font-size="10.00">diag()</text>
<text text-anchor="start" x="220" y="-1775" font-family="Helvetica,sans-Serif" font-size="10.00">+</text>
<text text-anchor="start" x="239.5" y="-1775" font-family="Helvetica,sans-Serif" font-size="10.00">eye()</text>
<text text-anchor="start" x="220" y="-1760" font-family="Helvetica,sans-Serif" font-size="10.00">+</text>
<text text-anchor="start" x="239.5" y="-1760" font-family="Helvetica,sans-Serif" font-size="10.00">ones()</text>
<text text-anchor="start" x="220" y="-1745" font-family="Helvetica,sans-Serif" font-size="10.00">+</text>
<text text-anchor="start" x="239.5" y="-1745" font-family="Helvetica,sans-Serif" font-size="10.00">randn()</text>
<text text-anchor="start" x="220" y="-1730" font-family="Helvetica,sans-Serif" font-size="10.00">+</text>
<text text-anchor="start" x="239.5" y="-1730" font-family="Helvetica,sans-Serif" font-size="10.00">randu()</text>
<text text-anchor="start" x="220" y="-1715" font-family="Helvetica,sans-Serif" font-size="10.00">+</text>
<text text-anchor="start" x="239.5" y="-1715" font-family="Helvetica,sans-Serif" font-size="10.00">zeros()</text>
<polygon fill="#666666" stroke="#666666" points="209.5,-1995 209.5,-1995 328.5,-1995 328.5,-1995 209.5,-1995"/>
<polygon fill="#666666" stroke="#666666" points="209.5,-1980 209.5,-1980 328.5,-1980 328.5,-1980 209.5,-1980"/>
<polygon fill="none" stroke="#666666" points="209,-1708 209,-2012 328,-2012 328,-1708 209,-1708"/>
</a>
</g>
</g>
<!-- Node3&#45;&gt;Node8 -->
<g id="edge9_Node000008_Node000003" class="edge">
<title>Node3&#45;&gt;Node8</title>
<g id="a_edge9_Node000008_Node000003"><a xlink:title=" ">
<path fill="none" stroke="#63b8ff" d="M174.15,-2069.93C181.65,-2053.31 192.39,-2029.52 203.96,-2003.91"/>
<polygon fill="none" stroke="#63b8ff" points="204.02,-2003.78 202.84,-1996.66 208.96,-1992.84 210.13,-1999.96 204.02,-2003.78"/>
</a>
</g>
<text text-anchor="middle" x="205" y="-2038.5" font-family="Helvetica,sans-Serif" font-size="10.00" fill="grey"> +val</text>
</g>
<!-- Node4 -->
<g id="Node000004" class="node">
<title>Node4</title>
<g id="a_Node000004"><a xlink:title=" ">
<polygon fill="white" stroke="transparent" points="287,-294 264,-294 264,-245 287,-245 287,-294"/>
<text text-anchor="start" x="269.5" y="-281.5" font-family="Helvetica,sans-Serif" font-size="10.00">int</text>
<text text-anchor="start" x="274" y="-266.5" font-family="Helvetica,sans-Serif" font-size="10.00"> </text>
<text text-anchor="start" x="274" y="-251.5" font-family="Helvetica,sans-Serif" font-size="10.00"> </text>
<polygon fill="#666666" stroke="#666666" points="264.5,-276.5 264.5,-276.5 287.5,-276.5 287.5,-276.5 264.5,-276.5"/>
<polygon fill="#666666" stroke="#666666" points="264.5,-261.5 264.5,-261.5 287.5,-261.5 287.5,-261.5 264.5,-261.5"/>
<polygon fill="none" stroke="#666666" points="264,-245 264,-294 287,-294 287,-245 264,-245"/>
</a>
</g>
</g>
<!-- Node4&#45;&gt;Node1 -->
<g id="edge3_Node000001_Node000004" class="edge">
<title>Node4&#45;&gt;Node1</title>
<g id="a_edge3_Node000001_Node000004"><a xlink:title=" ">
<path fill="none" stroke="#63b8ff" d="M274.14,-244.69C272.14,-221.18 267.28,-184.55 255.5,-155 245.5,-129.93 229.23,-104.98 213.88,-84.63"/>
<polygon fill="none" stroke="#63b8ff" points="213.79,-84.53 206.96,-82.23 206.45,-75.04 213.28,-77.33 213.79,-84.53"/>
</a>
</g>
<text text-anchor="middle" x="265" y="-129" font-family="Helvetica,sans-Serif" font-size="10.00" fill="grey"> +lt</text>
<text text-anchor="middle" x="265" y="-118" font-family="Helvetica,sans-Serif" font-size="10.00" fill="grey">+radius</text>
<text text-anchor="middle" x="265" y="-107" font-family="Helvetica,sans-Serif" font-size="10.00" fill="grey">+shift</text>
<text text-anchor="middle" x="265" y="-96" font-family="Helvetica,sans-Serif" font-size="10.00" fill="grey">+thick</text>
</g>
<!-- Node5 -->
<g id="Node000005" class="node">
<title>Node5</title>
<g id="a_Node000005"><a xlink:href="../../d1/da0/classcv_1_1Scalar__.html" target="_top" xlink:title="Template class for a 4&#45;element vector derived from Vec.">
<polygon fill="white" stroke="transparent" points="246,-384 103,-384 103,-155 246,-155 246,-384"/>
<text text-anchor="start" x="129" y="-371.5" font-family="Helvetica,sans-Serif" font-size="10.00">cv::Scalar_&lt; _Tp &gt;</text>
<text text-anchor="start" x="173" y="-356.5" font-family="Helvetica,sans-Serif" font-size="10.00"> </text>
<text text-anchor="start" x="107.5" y="-341.5" font-family="Helvetica,sans-Serif" font-size="10.00">+</text>
<text text-anchor="start" x="120.5" y="-341.5" font-family="Helvetica,sans-Serif" font-size="10.00">Scalar_()</text>
<text text-anchor="start" x="107.5" y="-326.5" font-family="Helvetica,sans-Serif" font-size="10.00">+</text>
<text text-anchor="start" x="120.5" y="-326.5" font-family="Helvetica,sans-Serif" font-size="10.00">Scalar_()</text>
<text text-anchor="start" x="107.5" y="-311.5" font-family="Helvetica,sans-Serif" font-size="10.00">+</text>
<text text-anchor="start" x="120.5" y="-311.5" font-family="Helvetica,sans-Serif" font-size="10.00">Scalar_()</text>
<text text-anchor="start" x="107.5" y="-296.5" font-family="Helvetica,sans-Serif" font-size="10.00">+</text>
<text text-anchor="start" x="120.5" y="-296.5" font-family="Helvetica,sans-Serif" font-size="10.00">Scalar_()</text>
<text text-anchor="start" x="107.5" y="-281.5" font-family="Helvetica,sans-Serif" font-size="10.00">+</text>
<text text-anchor="start" x="120.5" y="-281.5" font-family="Helvetica,sans-Serif" font-size="10.00">Scalar_()</text>
<text text-anchor="start" x="107.5" y="-266.5" font-family="Helvetica,sans-Serif" font-size="10.00">+</text>
<text text-anchor="start" x="120.5" y="-266.5" font-family="Helvetica,sans-Serif" font-size="10.00">Scalar_()</text>
<text text-anchor="start" x="107.5" y="-251.5" font-family="Helvetica,sans-Serif" font-size="10.00">+</text>
<text text-anchor="start" x="120.5" y="-251.5" font-family="Helvetica,sans-Serif" font-size="10.00">conj()</text>
<text text-anchor="start" x="107.5" y="-236.5" font-family="Helvetica,sans-Serif" font-size="10.00">+</text>
<text text-anchor="start" x="120.5" y="-236.5" font-family="Helvetica,sans-Serif" font-size="10.00">isReal()</text>
<text text-anchor="start" x="107.5" y="-221.5" font-family="Helvetica,sans-Serif" font-size="10.00">+</text>
<text text-anchor="start" x="120.5" y="-221.5" font-family="Helvetica,sans-Serif" font-size="10.00">mul()</text>
<text text-anchor="start" x="107.5" y="-206.5" font-family="Helvetica,sans-Serif" font-size="10.00">+</text>
<text text-anchor="start" x="120.5" y="-206.5" font-family="Helvetica,sans-Serif" font-size="10.00">operator Scalar_&lt; T2 &gt;()</text>
<text text-anchor="start" x="107.5" y="-191.5" font-family="Helvetica,sans-Serif" font-size="10.00">+</text>
<text text-anchor="start" x="120.5" y="-191.5" font-family="Helvetica,sans-Serif" font-size="10.00">operator=()</text>
<text text-anchor="start" x="107.5" y="-176.5" font-family="Helvetica,sans-Serif" font-size="10.00">+</text>
<text text-anchor="start" x="120.5" y="-176.5" font-family="Helvetica,sans-Serif" font-size="10.00">operator=()</text>
<text text-anchor="start" x="107.5" y="-161.5" font-family="Helvetica,sans-Serif" font-size="10.00">+</text>
<text text-anchor="start" x="120.5" y="-161.5" font-family="Helvetica,sans-Serif" font-size="10.00">all()</text>
<polygon fill="#666666" stroke="#666666" points="103.5,-366.5 103.5,-366.5 246.5,-366.5 246.5,-366.5 103.5,-366.5"/>
<polygon fill="#666666" stroke="#666666" points="103.5,-351.5 103.5,-351.5 246.5,-351.5 246.5,-351.5 103.5,-351.5"/>
<polygon fill="none" stroke="#666666" points="103,-155 103,-384 246,-384 246,-155 103,-155"/>
</a>
</g>
</g>
<!-- Node5&#45;&gt;Node1 -->
<g id="edge4_Node000001_Node000005" class="edge">
<title>Node5&#45;&gt;Node1</title>
<g id="a_edge4_Node000001_Node000005"><a xlink:title=" ">
<path fill="none" stroke="#63b8ff" d="M174.5,-154.85C174.5,-131.06 174.5,-107.2 174.5,-87.33"/>
<polygon fill="none" stroke="#63b8ff" points="174.5,-87.2 170.5,-81.2 174.5,-75.2 178.5,-81.2 174.5,-87.2"/>
</a>
</g>
<text text-anchor="middle" x="192.5" y="-112.5" font-family="Helvetica,sans-Serif" font-size="10.00" fill="grey"> +color</text>
</g>
<!-- Node6 -->
<g id="Node000006" class="node">
<title>Node6</title>
<g id="a_Node000006"><a xlink:href="../../d6/dcf/classcv_1_1Vec.html" target="_top" xlink:title=" ">
<polygon fill="white" stroke="transparent" points="222.5,-725 126.5,-725 126.5,-421 222.5,-421 222.5,-725"/>
<text text-anchor="start" x="131.5" y="-713" font-family="Helvetica,sans-Serif" font-size="10.00">cv::Vec&lt; _Tp, 4 &gt;</text>
<text text-anchor="start" x="172.5" y="-698" font-family="Helvetica,sans-Serif" font-size="10.00"> </text>
<text text-anchor="start" x="131.5" y="-683" font-family="Helvetica,sans-Serif" font-size="10.00">+</text>
<text text-anchor="start" x="145.5" y="-683" font-family="Helvetica,sans-Serif" font-size="10.00">Vec()</text>
<text text-anchor="start" x="131.5" y="-668" font-family="Helvetica,sans-Serif" font-size="10.00">+</text>
<text text-anchor="start" x="145.5" y="-668" font-family="Helvetica,sans-Serif" font-size="10.00">Vec()</text>
<text text-anchor="start" x="131.5" y="-653" font-family="Helvetica,sans-Serif" font-size="10.00">+</text>
<text text-anchor="start" x="145.5" y="-653" font-family="Helvetica,sans-Serif" font-size="10.00">Vec()</text>
<text text-anchor="start" x="131.5" y="-638" font-family="Helvetica,sans-Serif" font-size="10.00">+</text>
<text text-anchor="start" x="145.5" y="-638" font-family="Helvetica,sans-Serif" font-size="10.00">Vec()</text>
<text text-anchor="start" x="131.5" y="-623" font-family="Helvetica,sans-Serif" font-size="10.00">+</text>
<text text-anchor="start" x="145.5" y="-623" font-family="Helvetica,sans-Serif" font-size="10.00">Vec()</text>
<text text-anchor="start" x="131.5" y="-608" font-family="Helvetica,sans-Serif" font-size="10.00">+</text>
<text text-anchor="start" x="145.5" y="-608" font-family="Helvetica,sans-Serif" font-size="10.00">Vec()</text>
<text text-anchor="start" x="131.5" y="-593" font-family="Helvetica,sans-Serif" font-size="10.00">+</text>
<text text-anchor="start" x="145.5" y="-593" font-family="Helvetica,sans-Serif" font-size="10.00">Vec()</text>
<text text-anchor="start" x="131.5" y="-578" font-family="Helvetica,sans-Serif" font-size="10.00">+</text>
<text text-anchor="start" x="145.5" y="-578" font-family="Helvetica,sans-Serif" font-size="10.00">Vec()</text>
<text text-anchor="start" x="131.5" y="-563" font-family="Helvetica,sans-Serif" font-size="10.00">+</text>
<text text-anchor="start" x="145.5" y="-563" font-family="Helvetica,sans-Serif" font-size="10.00">Vec()</text>
<text text-anchor="start" x="131.5" y="-548" font-family="Helvetica,sans-Serif" font-size="10.00">+</text>
<text text-anchor="start" x="145.5" y="-548" font-family="Helvetica,sans-Serif" font-size="10.00">Vec()</text>
<text text-anchor="start" x="145.5" y="-533" font-family="Helvetica,sans-Serif" font-size="10.00">and 17 more...</text>
<text text-anchor="start" x="131.5" y="-518" font-family="Helvetica,sans-Serif" font-size="10.00">+</text>
<text text-anchor="start" x="145.5" y="-518" font-family="Helvetica,sans-Serif" font-size="10.00">all()</text>
<text text-anchor="start" x="131.5" y="-503" font-family="Helvetica,sans-Serif" font-size="10.00">+</text>
<text text-anchor="start" x="145.5" y="-503" font-family="Helvetica,sans-Serif" font-size="10.00">diag()</text>
<text text-anchor="start" x="131.5" y="-488" font-family="Helvetica,sans-Serif" font-size="10.00">+</text>
<text text-anchor="start" x="145.5" y="-488" font-family="Helvetica,sans-Serif" font-size="10.00">eye()</text>
<text text-anchor="start" x="131.5" y="-473" font-family="Helvetica,sans-Serif" font-size="10.00">+</text>
<text text-anchor="start" x="145.5" y="-473" font-family="Helvetica,sans-Serif" font-size="10.00">ones()</text>
<text text-anchor="start" x="131.5" y="-458" font-family="Helvetica,sans-Serif" font-size="10.00">+</text>
<text text-anchor="start" x="145.5" y="-458" font-family="Helvetica,sans-Serif" font-size="10.00">randn()</text>
<text text-anchor="start" x="131.5" y="-443" font-family="Helvetica,sans-Serif" font-size="10.00">+</text>
<text text-anchor="start" x="145.5" y="-443" font-family="Helvetica,sans-Serif" font-size="10.00">randu()</text>
<text text-anchor="start" x="131.5" y="-428" font-family="Helvetica,sans-Serif" font-size="10.00">+</text>
<text text-anchor="start" x="145.5" y="-428" font-family="Helvetica,sans-Serif" font-size="10.00">zeros()</text>
<polygon fill="#666666" stroke="#666666" points="126.5,-708 126.5,-708 222.5,-708 222.5,-708 126.5,-708"/>
<polygon fill="#666666" stroke="#666666" points="126.5,-693 126.5,-693 222.5,-693 222.5,-693 126.5,-693"/>
<polygon fill="none" stroke="#666666" points="126.5,-421 126.5,-725 222.5,-725 222.5,-421 126.5,-421"/>
</a>
</g>
</g>
<!-- Node6&#45;&gt;Node5 -->
<g id="edge5_Node000005_Node000006" class="edge">
<title>Node6&#45;&gt;Node5</title>
<g id="a_edge5_Node000005_Node000006"><a xlink:title=" ">
<path fill="none" stroke="#63b8ff" d="M174.5,-410.69C174.5,-401.74 174.5,-392.85 174.5,-384.13"/>
<polygon fill="none" stroke="#63b8ff" points="171,-410.81 174.5,-420.81 178,-410.81 171,-410.81"/>
</a>
</g>
</g>
<!-- Node7&#45;&gt;Node6 -->
<g id="edge6_Node000006_Node000007" class="edge">
<title>Node7&#45;&gt;Node6</title>
<g id="a_edge6_Node000006_Node000007"><a xlink:title=" ">
<path fill="none" stroke="#63b8ff" d="M175.45,-1102.71C175.08,-1093.68 174.76,-1084.73 174.5,-1076 171.06,-958.18 171.25,-824.73 172.2,-725.06"/>
<polygon fill="none" stroke="#63b8ff" points="171.96,-1103.1 175.89,-1112.94 178.95,-1102.8 171.96,-1103.1"/>
</a>
</g>
</g>
<!-- Node9 -->
<g id="Node000009" class="node">
<title>Node9</title>
<g id="a_Node000009"><a xlink:href="../../d6/dcf/classcv_1_1Vec.html" target="_top" xlink:title="Template class for short numerical vectors, a partial case of Matx.">
<polygon fill="white" stroke="transparent" points="285,-1076 184,-1076 184,-772 285,-772 285,-1076"/>
<text text-anchor="start" x="189.5" y="-1064" font-family="Helvetica,sans-Serif" font-size="10.00">cv::Vec&lt; _Tp, cn &gt;</text>
<text text-anchor="start" x="233" y="-1049" font-family="Helvetica,sans-Serif" font-size="10.00"> </text>
<text text-anchor="start" x="190.5" y="-1034" font-family="Helvetica,sans-Serif" font-size="10.00">+</text>
<text text-anchor="start" x="205.5" y="-1034" font-family="Helvetica,sans-Serif" font-size="10.00">Vec()</text>
<text text-anchor="start" x="190.5" y="-1019" font-family="Helvetica,sans-Serif" font-size="10.00">+</text>
<text text-anchor="start" x="205.5" y="-1019" font-family="Helvetica,sans-Serif" font-size="10.00">Vec()</text>
<text text-anchor="start" x="190.5" y="-1004" font-family="Helvetica,sans-Serif" font-size="10.00">+</text>
<text text-anchor="start" x="205.5" y="-1004" font-family="Helvetica,sans-Serif" font-size="10.00">Vec()</text>
<text text-anchor="start" x="190.5" y="-989" font-family="Helvetica,sans-Serif" font-size="10.00">+</text>
<text text-anchor="start" x="205.5" y="-989" font-family="Helvetica,sans-Serif" font-size="10.00">Vec()</text>
<text text-anchor="start" x="190.5" y="-974" font-family="Helvetica,sans-Serif" font-size="10.00">+</text>
<text text-anchor="start" x="205.5" y="-974" font-family="Helvetica,sans-Serif" font-size="10.00">Vec()</text>
<text text-anchor="start" x="190.5" y="-959" font-family="Helvetica,sans-Serif" font-size="10.00">+</text>
<text text-anchor="start" x="205.5" y="-959" font-family="Helvetica,sans-Serif" font-size="10.00">Vec()</text>
<text text-anchor="start" x="190.5" y="-944" font-family="Helvetica,sans-Serif" font-size="10.00">+</text>
<text text-anchor="start" x="205.5" y="-944" font-family="Helvetica,sans-Serif" font-size="10.00">Vec()</text>
<text text-anchor="start" x="190.5" y="-929" font-family="Helvetica,sans-Serif" font-size="10.00">+</text>
<text text-anchor="start" x="205.5" y="-929" font-family="Helvetica,sans-Serif" font-size="10.00">Vec()</text>
<text text-anchor="start" x="190.5" y="-914" font-family="Helvetica,sans-Serif" font-size="10.00">+</text>
<text text-anchor="start" x="205.5" y="-914" font-family="Helvetica,sans-Serif" font-size="10.00">Vec()</text>
<text text-anchor="start" x="190.5" y="-899" font-family="Helvetica,sans-Serif" font-size="10.00">+</text>
<text text-anchor="start" x="205.5" y="-899" font-family="Helvetica,sans-Serif" font-size="10.00">Vec()</text>
<text text-anchor="start" x="205.5" y="-884" font-family="Helvetica,sans-Serif" font-size="10.00">and 17 more...</text>
<text text-anchor="start" x="190.5" y="-869" font-family="Helvetica,sans-Serif" font-size="10.00">+</text>
<text text-anchor="start" x="205.5" y="-869" font-family="Helvetica,sans-Serif" font-size="10.00">all()</text>
<text text-anchor="start" x="190.5" y="-854" font-family="Helvetica,sans-Serif" font-size="10.00">+</text>
<text text-anchor="start" x="205.5" y="-854" font-family="Helvetica,sans-Serif" font-size="10.00">diag()</text>
<text text-anchor="start" x="190.5" y="-839" font-family="Helvetica,sans-Serif" font-size="10.00">+</text>
<text text-anchor="start" x="205.5" y="-839" font-family="Helvetica,sans-Serif" font-size="10.00">eye()</text>
<text text-anchor="start" x="190.5" y="-824" font-family="Helvetica,sans-Serif" font-size="10.00">+</text>
<text text-anchor="start" x="205.5" y="-824" font-family="Helvetica,sans-Serif" font-size="10.00">ones()</text>
<text text-anchor="start" x="190.5" y="-809" font-family="Helvetica,sans-Serif" font-size="10.00">+</text>
<text text-anchor="start" x="205.5" y="-809" font-family="Helvetica,sans-Serif" font-size="10.00">randn()</text>
<text text-anchor="start" x="190.5" y="-794" font-family="Helvetica,sans-Serif" font-size="10.00">+</text>
<text text-anchor="start" x="205.5" y="-794" font-family="Helvetica,sans-Serif" font-size="10.00">randu()</text>
<text text-anchor="start" x="190.5" y="-779" font-family="Helvetica,sans-Serif" font-size="10.00">+</text>
<text text-anchor="start" x="205.5" y="-779" font-family="Helvetica,sans-Serif" font-size="10.00">zeros()</text>
<polygon fill="#666666" stroke="#666666" points="184.5,-1059 184.5,-1059 285.5,-1059 285.5,-1059 184.5,-1059"/>
<polygon fill="#666666" stroke="#666666" points="184.5,-1044 184.5,-1044 285.5,-1044 285.5,-1044 184.5,-1044"/>
<polygon fill="none" stroke="#666666" points="184,-772 184,-1076 285,-1076 285,-772 184,-772"/>
</a>
</g>
</g>
<!-- Node7&#45;&gt;Node9 -->
<g id="edge11_Node000009_Node000007" class="edge">
<title>Node7&#45;&gt;Node9</title>
<g id="a_edge11_Node000009_Node000007"><a xlink:title=" ">
<path fill="none" stroke="#63b8ff" d="M208.8,-1102.82C210.08,-1093.94 211.37,-1085.02 212.65,-1076.17"/>
<polygon fill="none" stroke="#63b8ff" points="205.32,-1102.44 207.35,-1112.84 212.24,-1103.45 205.32,-1102.44"/>
</a>
</g>
</g>
<!-- Node8&#45;&gt;Node7 -->
<g id="edge8_Node000007_Node000008" class="edge">
<title>Node8&#45;&gt;Node7</title>
<g id="a_edge8_Node000007_Node000008"><a xlink:title=" ">
<path fill="none" stroke="orange" d="M245.94,-1697.81C233.7,-1610.38 218.67,-1502.98 206.66,-1417.15"/>
<polygon fill="orange" stroke="orange" points="242.49,-1698.41 247.34,-1707.83 249.42,-1697.44 242.49,-1698.41"/>
</a>
</g>
<text text-anchor="middle" x="280" y="-1560" font-family="Helvetica,sans-Serif" font-size="10.00" fill="grey"> &lt; _Tp, cn, 1 &gt;</text>
</g>
<!-- Node9&#45;&gt;Node6 -->
<g id="edge10_Node000006_Node000009" class="edge">
<title>Node9&#45;&gt;Node6</title>
<g id="a_edge10_Node000006_Node000009"><a xlink:title=" ">
<path fill="none" stroke="orange" d="M206.83,-762.07C204.71,-749.72 202.57,-737.28 200.46,-725"/>
<polygon fill="orange" stroke="orange" points="203.39,-762.69 208.53,-771.95 210.29,-761.5 203.39,-762.69"/>
</a>
</g>
<text text-anchor="middle" x="232" y="-746" font-family="Helvetica,sans-Serif" font-size="10.00" fill="grey"> &lt; _Tp, 4 &gt;</text>
</g>
</g>
</svg>
