<?xml version="1.0" encoding="UTF-8" standalone="no"?>
<!DOCTYPE svg PUBLIC "-//W3C//DTD SVG 1.1//EN"
 "http://www.w3.org/Graphics/SVG/1.1/DTD/svg11.dtd">
<!-- Generated by graphviz version 2.43.0 (0)
 -->
<!-- Title: cv::aruco::EstimateParameters Pages: 1 -->
<svg width="353pt" height="153pt"
 viewBox="0.00 0.00 352.50 153.00" xmlns="http://www.w3.org/2000/svg" xmlns:xlink="http://www.w3.org/1999/xlink">
<g id="graph0" class="graph" transform="scale(1 1) rotate(0) translate(4 149)">
<title>cv::aruco::EstimateParameters</title>
<!-- Node1 -->
<g id="Node000001" class="node">
<title>Node1</title>
<g id="a_Node000001"><a xlink:title="Pose estimation parameters.">
<polygon fill="#999999" stroke="transparent" points="221,-49 62,-49 62,0 221,0 221,-49"/>
<text text-anchor="start" x="67.5" y="-36.5" font-family="Helvetica,sans-Serif" font-size="10.00">cv::aruco::EstimateParameters</text>
<text text-anchor="start" x="140" y="-21.5" font-family="Helvetica,sans-Serif" font-size="10.00"> </text>
<text text-anchor="start" x="74" y="-6.5" font-family="Helvetica,sans-Serif" font-size="10.00">+</text>
<text text-anchor="start" x="94.5" y="-6.5" font-family="Helvetica,sans-Serif" font-size="10.00">EstimateParameters()</text>
<polygon fill="#666666" stroke="#666666" points="62.5,-31.5 62.5,-31.5 221.5,-31.5 221.5,-31.5 62.5,-31.5"/>
<polygon fill="#666666" stroke="#666666" points="62.5,-16.5 62.5,-16.5 221.5,-16.5 221.5,-16.5 62.5,-16.5"/>
<polygon fill="none" stroke="#666666" points="62,0 62,-49 221,-49 221,0 62,0"/>
</a>
</g>
</g>
<!-- Node2 -->
<g id="Node000002" class="node">
<title>Node2</title>
<g id="a_Node000002"><a xlink:title=" ">
<polygon fill="white" stroke="transparent" points="107,-145 0,-145 0,-96 107,-96 107,-145"/>
<text text-anchor="start" x="5.5" y="-132.5" font-family="Helvetica,sans-Serif" font-size="10.00">PatternPositionType</text>
<text text-anchor="start" x="52" y="-117.5" font-family="Helvetica,sans-Serif" font-size="10.00"> </text>
<text text-anchor="start" x="52" y="-102.5" font-family="Helvetica,sans-Serif" font-size="10.00"> </text>
<polygon fill="#666666" stroke="#666666" points="0.5,-127.5 0.5,-127.5 107.5,-127.5 107.5,-127.5 0.5,-127.5"/>
<polygon fill="#666666" stroke="#666666" points="0.5,-112.5 0.5,-112.5 107.5,-112.5 107.5,-112.5 0.5,-112.5"/>
<polygon fill="none" stroke="#666666" points="0,-96 0,-145 107,-145 107,-96 0,-96"/>
</a>
</g>
</g>
<!-- Node2&#45;&gt;Node1 -->
<g id="edge1_Node000001_Node000002" class="edge">
<title>Node2&#45;&gt;Node1</title>
<g id="a_edge1_Node000001_Node000002"><a xlink:title=" ">
<path fill="none" stroke="#63b8ff" d="M68.06,-95.98C74.41,-86.52 82.28,-75.8 90.5,-67 93.69,-63.58 97.17,-60.19 100.77,-56.9"/>
<polygon fill="none" stroke="#63b8ff" points="100.78,-56.89 102.68,-49.94 109.83,-49.01 107.93,-55.97 100.78,-56.89"/>
</a>
</g>
<text text-anchor="middle" x="114" y="-70" font-family="Helvetica,sans-Serif" font-size="10.00" fill="grey"> +pattern</text>
</g>
<!-- Node3 -->
<g id="Node000003" class="node">
<title>Node3</title>
<g id="a_Node000003"><a xlink:title=" ">
<polygon fill="white" stroke="transparent" points="157.5,-145 125.5,-145 125.5,-96 157.5,-96 157.5,-145"/>
<text text-anchor="start" x="130.5" y="-132.5" font-family="Helvetica,sans-Serif" font-size="10.00">bool</text>
<text text-anchor="start" x="139.5" y="-117.5" font-family="Helvetica,sans-Serif" font-size="10.00"> </text>
<text text-anchor="start" x="139.5" y="-102.5" font-family="Helvetica,sans-Serif" font-size="10.00"> </text>
<polygon fill="#666666" stroke="#666666" points="125.5,-127.5 125.5,-127.5 157.5,-127.5 157.5,-127.5 125.5,-127.5"/>
<polygon fill="#666666" stroke="#666666" points="125.5,-112.5 125.5,-112.5 157.5,-112.5 157.5,-112.5 125.5,-112.5"/>
<polygon fill="none" stroke="#666666" points="125.5,-96 125.5,-145 157.5,-145 157.5,-96 125.5,-96"/>
</a>
</g>
</g>
<!-- Node3&#45;&gt;Node1 -->
<g id="edge2_Node000001_Node000003" class="edge">
<title>Node3&#45;&gt;Node1</title>
<g id="a_edge2_Node000001_Node000003"><a xlink:title=" ">
<path fill="none" stroke="#63b8ff" d="M141.5,-95.78C141.5,-85.32 141.5,-72.79 141.5,-61.23"/>
<polygon fill="none" stroke="#63b8ff" points="141.5,-61.21 137.5,-55.21 141.5,-49.21 145.5,-55.21 141.5,-61.21"/>
</a>
</g>
<text text-anchor="middle" x="192" y="-70" font-family="Helvetica,sans-Serif" font-size="10.00" fill="grey"> +useExtrinsicGuess</text>
</g>
<!-- Node4 -->
<g id="Node000004" class="node">
<title>Node4</title>
<g id="a_Node000004"><a xlink:title=" ">
<polygon fill="white" stroke="transparent" points="277,-145 254,-145 254,-96 277,-96 277,-145"/>
<text text-anchor="start" x="259.5" y="-132.5" font-family="Helvetica,sans-Serif" font-size="10.00">int</text>
<text text-anchor="start" x="264" y="-117.5" font-family="Helvetica,sans-Serif" font-size="10.00"> </text>
<text text-anchor="start" x="264" y="-102.5" font-family="Helvetica,sans-Serif" font-size="10.00"> </text>
<polygon fill="#666666" stroke="#666666" points="254.5,-127.5 254.5,-127.5 277.5,-127.5 277.5,-127.5 254.5,-127.5"/>
<polygon fill="#666666" stroke="#666666" points="254.5,-112.5 254.5,-112.5 277.5,-112.5 277.5,-112.5 254.5,-112.5"/>
<polygon fill="none" stroke="#666666" points="254,-96 254,-145 277,-145 277,-96 254,-96"/>
</a>
</g>
</g>
<!-- Node4&#45;&gt;Node1 -->
<g id="edge3_Node000001_Node000004" class="edge">
<title>Node4&#45;&gt;Node1</title>
<g id="a_edge3_Node000001_Node000004"><a xlink:title=" ">
<path fill="none" stroke="#63b8ff" d="M259.92,-95.74C256.56,-85.81 251.37,-74.79 243.5,-67 239.15,-62.7 234.3,-58.82 229.13,-55.34"/>
<polygon fill="none" stroke="#63b8ff" points="229.12,-55.33 221.92,-55.63 218.87,-49.1 226.07,-48.79 229.12,-55.33"/>
</a>
</g>
<text text-anchor="middle" x="298" y="-70" font-family="Helvetica,sans-Serif" font-size="10.00" fill="grey"> +solvePnPMethod</text>
</g>
</g>
</svg>
