<?xml version="1.0" encoding="UTF-8" standalone="no"?>
<!DOCTYPE svg PUBLIC "-//W3C//DTD SVG 1.1//EN"
 "http://www.w3.org/Graphics/SVG/1.1/DTD/svg11.dtd">
<!-- Generated by graphviz version 2.43.0 (0)
 -->
<!-- Title: cv::face::FacemarkLBF::BBox Pages: 1 -->
<svg width="127pt" height="301pt"
 viewBox="0.00 0.00 127.00 301.00" xmlns="http://www.w3.org/2000/svg" xmlns:xlink="http://www.w3.org/1999/xlink">
<g id="graph0" class="graph" transform="scale(1 1) rotate(0) translate(4 297)">
<title>cv::face::FacemarkLBF::BBox</title>
<!-- Node1 -->
<g id="Node000001" class="node">
<title>Node1</title>
<g id="a_Node000001"><a xlink:title=" ">
<polygon fill="#999999" stroke="transparent" points="119,-120 0,-120 0,0 119,0 119,-120"/>
<text text-anchor="start" x="5.5" y="-108" font-family="Helvetica,sans-Serif" font-size="10.00">cv::face::FacemarkLBF</text>
<text text-anchor="start" x="44" y="-97" font-family="Helvetica,sans-Serif" font-size="10.00">::BBox</text>
<text text-anchor="start" x="58" y="-82" font-family="Helvetica,sans-Serif" font-size="10.00"> </text>
<text text-anchor="start" x="16" y="-67" font-family="Helvetica,sans-Serif" font-size="10.00">+</text>
<text text-anchor="start" x="40.5" y="-67" font-family="Helvetica,sans-Serif" font-size="10.00">BBox()</text>
<text text-anchor="start" x="16" y="-52" font-family="Helvetica,sans-Serif" font-size="10.00">+</text>
<text text-anchor="start" x="40.5" y="-52" font-family="Helvetica,sans-Serif" font-size="10.00">BBox()</text>
<text text-anchor="start" x="16" y="-37" font-family="Helvetica,sans-Serif" font-size="10.00">+</text>
<text text-anchor="start" x="40.5" y="-37" font-family="Helvetica,sans-Serif" font-size="10.00">~BBox()</text>
<text text-anchor="start" x="16" y="-22" font-family="Helvetica,sans-Serif" font-size="10.00">+</text>
<text text-anchor="start" x="40.5" y="-22" font-family="Helvetica,sans-Serif" font-size="10.00">project()</text>
<text text-anchor="start" x="16" y="-7" font-family="Helvetica,sans-Serif" font-size="10.00">+</text>
<text text-anchor="start" x="40.5" y="-7" font-family="Helvetica,sans-Serif" font-size="10.00">reproject()</text>
<polygon fill="#666666" stroke="#666666" points="0.5,-92 0.5,-92 119.5,-92 119.5,-92 0.5,-92"/>
<polygon fill="#666666" stroke="#666666" points="0.5,-77 0.5,-77 119.5,-77 119.5,-77 0.5,-77"/>
<polygon fill="none" stroke="#666666" points="0,0 0,-120 119,-120 119,0 0,0"/>
</a>
</g>
</g>
<!-- Node2 -->
<g id="Node000002" class="node">
<title>Node2</title>
<g id="a_Node000002"><a xlink:title=" ">
<polygon fill="white" stroke="transparent" points="81.5,-293 37.5,-293 37.5,-244 81.5,-244 81.5,-293"/>
<text text-anchor="start" x="42.5" y="-280.5" font-family="Helvetica,sans-Serif" font-size="10.00">double</text>
<text text-anchor="start" x="57.5" y="-265.5" font-family="Helvetica,sans-Serif" font-size="10.00"> </text>
<text text-anchor="start" x="57.5" y="-250.5" font-family="Helvetica,sans-Serif" font-size="10.00"> </text>
<polygon fill="#666666" stroke="#666666" points="37.5,-275.5 37.5,-275.5 81.5,-275.5 81.5,-275.5 37.5,-275.5"/>
<polygon fill="#666666" stroke="#666666" points="37.5,-260.5 37.5,-260.5 81.5,-260.5 81.5,-260.5 37.5,-260.5"/>
<polygon fill="none" stroke="#666666" points="37.5,-244 37.5,-293 81.5,-293 81.5,-244 37.5,-244"/>
</a>
</g>
</g>
<!-- Node2&#45;&gt;Node1 -->
<g id="edge1_Node000001_Node000002" class="edge">
<title>Node2&#45;&gt;Node1</title>
<g id="a_edge1_Node000001_Node000002"><a xlink:title=" ">
<path fill="none" stroke="#63b8ff" d="M59.5,-243.81C59.5,-216.7 59.5,-171.02 59.5,-132.1"/>
<polygon fill="none" stroke="#63b8ff" points="59.5,-132.01 55.5,-126.01 59.5,-120.01 63.5,-126.01 59.5,-132.01"/>
</a>
</g>
<text text-anchor="middle" x="85" y="-218" font-family="Helvetica,sans-Serif" font-size="10.00" fill="grey"> +height</text>
<text text-anchor="middle" x="85" y="-207" font-family="Helvetica,sans-Serif" font-size="10.00" fill="grey">+width</text>
<text text-anchor="middle" x="85" y="-196" font-family="Helvetica,sans-Serif" font-size="10.00" fill="grey">+x</text>
<text text-anchor="middle" x="85" y="-185" font-family="Helvetica,sans-Serif" font-size="10.00" fill="grey">+x_center</text>
<text text-anchor="middle" x="85" y="-174" font-family="Helvetica,sans-Serif" font-size="10.00" fill="grey">+x_scale</text>
<text text-anchor="middle" x="85" y="-163" font-family="Helvetica,sans-Serif" font-size="10.00" fill="grey">+y</text>
<text text-anchor="middle" x="85" y="-152" font-family="Helvetica,sans-Serif" font-size="10.00" fill="grey">+y_center</text>
<text text-anchor="middle" x="85" y="-141" font-family="Helvetica,sans-Serif" font-size="10.00" fill="grey">+y_scale</text>
</g>
</g>
</svg>
