<?xml version="1.0" encoding="UTF-8" standalone="no"?>
<!DOCTYPE svg PUBLIC "-//W3C//DTD SVG 1.1//EN"
 "http://www.w3.org/Graphics/SVG/1.1/DTD/svg11.dtd">
<!-- Generated by graphviz version 2.43.0 (0)
 -->
<!-- Title: cv::aruco::GridBoard Pages: 1 -->
<svg width="147pt" height="419pt"
 viewBox="0.00 0.00 147.00 419.00" xmlns="http://www.w3.org/2000/svg" xmlns:xlink="http://www.w3.org/1999/xlink">
<g id="graph0" class="graph" transform="scale(1 1) rotate(0) translate(4 415)">
<title>cv::aruco::GridBoard</title>
<!-- Node1 -->
<g id="Node000001" class="node">
<title>Node1</title>
<g id="a_Node000001"><a xlink:title="Planar board with grid arrangement of markers.">
<polygon fill="#999999" stroke="transparent" points="135,-109 4,-109 4,0 135,0 135,-109"/>
<text text-anchor="start" x="20.5" y="-96.5" font-family="Helvetica,sans-Serif" font-size="10.00">cv::aruco::GridBoard</text>
<text text-anchor="start" x="68" y="-81.5" font-family="Helvetica,sans-Serif" font-size="10.00"> </text>
<text text-anchor="start" x="8.5" y="-66.5" font-family="Helvetica,sans-Serif" font-size="10.00">+</text>
<text text-anchor="start" x="21.5" y="-66.5" font-family="Helvetica,sans-Serif" font-size="10.00">GridBoard()</text>
<text text-anchor="start" x="8.5" y="-51.5" font-family="Helvetica,sans-Serif" font-size="10.00">+</text>
<text text-anchor="start" x="21.5" y="-51.5" font-family="Helvetica,sans-Serif" font-size="10.00">GridBoard()</text>
<text text-anchor="start" x="8.5" y="-36.5" font-family="Helvetica,sans-Serif" font-size="10.00">+</text>
<text text-anchor="start" x="21.5" y="-36.5" font-family="Helvetica,sans-Serif" font-size="10.00">getGridSize()</text>
<text text-anchor="start" x="8.5" y="-21.5" font-family="Helvetica,sans-Serif" font-size="10.00">+</text>
<text text-anchor="start" x="21.5" y="-21.5" font-family="Helvetica,sans-Serif" font-size="10.00">getMarkerLength()</text>
<text text-anchor="start" x="8.5" y="-6.5" font-family="Helvetica,sans-Serif" font-size="10.00">+</text>
<text text-anchor="start" x="21.5" y="-6.5" font-family="Helvetica,sans-Serif" font-size="10.00">getMarkerSeparation()</text>
<polygon fill="#666666" stroke="#666666" points="4.5,-91.5 4.5,-91.5 135.5,-91.5 135.5,-91.5 4.5,-91.5"/>
<polygon fill="#666666" stroke="#666666" points="4.5,-76.5 4.5,-76.5 135.5,-76.5 135.5,-76.5 4.5,-76.5"/>
<polygon fill="none" stroke="#666666" points="4,0 4,-109 135,-109 135,0 4,0"/>
</a>
</g>
</g>
<!-- Node2 -->
<g id="Node000002" class="node">
<title>Node2</title>
<g id="a_Node000002"><a xlink:href="../../d4/db2/classcv_1_1aruco_1_1Board.html" target="_top" xlink:title="Board of ArUco markers.">
<polygon fill="white" stroke="transparent" points="139,-315 0,-315 0,-146 139,-146 139,-315"/>
<text text-anchor="start" x="30.5" y="-302.5" font-family="Helvetica,sans-Serif" font-size="10.00">cv::aruco::Board</text>
<text text-anchor="start" x="68" y="-287.5" font-family="Helvetica,sans-Serif" font-size="10.00"> </text>
<text text-anchor="start" x="4.5" y="-272.5" font-family="Helvetica,sans-Serif" font-size="10.00">+</text>
<text text-anchor="start" x="17.5" y="-272.5" font-family="Helvetica,sans-Serif" font-size="10.00">Board()</text>
<text text-anchor="start" x="4.5" y="-257.5" font-family="Helvetica,sans-Serif" font-size="10.00">+</text>
<text text-anchor="start" x="17.5" y="-257.5" font-family="Helvetica,sans-Serif" font-size="10.00">Board()</text>
<text text-anchor="start" x="4.5" y="-242.5" font-family="Helvetica,sans-Serif" font-size="10.00">+</text>
<text text-anchor="start" x="17.5" y="-242.5" font-family="Helvetica,sans-Serif" font-size="10.00">generateImage()</text>
<text text-anchor="start" x="4.5" y="-227.5" font-family="Helvetica,sans-Serif" font-size="10.00">+</text>
<text text-anchor="start" x="17.5" y="-227.5" font-family="Helvetica,sans-Serif" font-size="10.00">getDictionary()</text>
<text text-anchor="start" x="4.5" y="-212.5" font-family="Helvetica,sans-Serif" font-size="10.00">+</text>
<text text-anchor="start" x="17.5" y="-212.5" font-family="Helvetica,sans-Serif" font-size="10.00">getIds()</text>
<text text-anchor="start" x="4.5" y="-197.5" font-family="Helvetica,sans-Serif" font-size="10.00">+</text>
<text text-anchor="start" x="17.5" y="-197.5" font-family="Helvetica,sans-Serif" font-size="10.00">getObjPoints()</text>
<text text-anchor="start" x="4.5" y="-182.5" font-family="Helvetica,sans-Serif" font-size="10.00">+</text>
<text text-anchor="start" x="17.5" y="-182.5" font-family="Helvetica,sans-Serif" font-size="10.00">getRightBottomCorner()</text>
<text text-anchor="start" x="4.5" y="-167.5" font-family="Helvetica,sans-Serif" font-size="10.00">+</text>
<text text-anchor="start" x="17.5" y="-167.5" font-family="Helvetica,sans-Serif" font-size="10.00">matchImagePoints()</text>
<text text-anchor="start" x="4.5" y="-152.5" font-family="Helvetica,sans-Serif" font-size="10.00">#</text>
<text text-anchor="start" x="17.5" y="-152.5" font-family="Helvetica,sans-Serif" font-size="10.00">Board()</text>
<polygon fill="#666666" stroke="#666666" points="0.5,-297.5 0.5,-297.5 139.5,-297.5 139.5,-297.5 0.5,-297.5"/>
<polygon fill="#666666" stroke="#666666" points="0.5,-282.5 0.5,-282.5 139.5,-282.5 139.5,-282.5 0.5,-282.5"/>
<polygon fill="none" stroke="#666666" points="0,-146 0,-315 139,-315 139,-146 0,-146"/>
</a>
</g>
</g>
<!-- Node2&#45;&gt;Node1 -->
<g id="edge1_Node000001_Node000002" class="edge">
<title>Node2&#45;&gt;Node1</title>
<g id="a_edge1_Node000001_Node000002"><a xlink:title=" ">
<path fill="none" stroke="#63b8ff" d="M69.5,-135.67C69.5,-126.71 69.5,-117.84 69.5,-109.46"/>
<polygon fill="none" stroke="#63b8ff" points="66,-135.81 69.5,-145.81 73,-135.81 66,-135.81"/>
</a>
</g>
</g>
<!-- Node3 -->
<g id="Node000003" class="node">
<title>Node3</title>
<g id="a_Node000003"><a xlink:title=" ">
<polygon fill="white" stroke="transparent" points="103.5,-411 35.5,-411 35.5,-362 103.5,-362 103.5,-411"/>
<text text-anchor="start" x="40.5" y="-398.5" font-family="Helvetica,sans-Serif" font-size="10.00">Ptr&lt; Impl &gt;</text>
<text text-anchor="start" x="67.5" y="-383.5" font-family="Helvetica,sans-Serif" font-size="10.00"> </text>
<text text-anchor="start" x="67.5" y="-368.5" font-family="Helvetica,sans-Serif" font-size="10.00"> </text>
<polygon fill="#666666" stroke="#666666" points="35.5,-393.5 35.5,-393.5 103.5,-393.5 103.5,-393.5 35.5,-393.5"/>
<polygon fill="#666666" stroke="#666666" points="35.5,-378.5 35.5,-378.5 103.5,-378.5 103.5,-378.5 35.5,-378.5"/>
<polygon fill="none" stroke="#666666" points="35.5,-362 35.5,-411 103.5,-411 103.5,-362 35.5,-362"/>
</a>
</g>
</g>
<!-- Node3&#45;&gt;Node2 -->
<g id="edge2_Node000002_Node000003" class="edge">
<title>Node3&#45;&gt;Node2</title>
<g id="a_edge2_Node000002_Node000003"><a xlink:title=" ">
<path fill="none" stroke="#63b8ff" d="M69.5,-361.77C69.5,-352.06 69.5,-340.12 69.5,-327.45"/>
<polygon fill="none" stroke="#63b8ff" points="69.5,-327.13 65.5,-321.13 69.5,-315.13 73.5,-321.13 69.5,-327.13"/>
</a>
</g>
<text text-anchor="middle" x="86.5" y="-336" font-family="Helvetica,sans-Serif" font-size="10.00" fill="grey"> #impl</text>
</g>
</g>
</svg>
