<?xml version="1.0" encoding="UTF-8" standalone="no"?>
<!DOCTYPE svg PUBLIC "-//W3C//DTD SVG 1.1//EN"
 "http://www.w3.org/Graphics/SVG/1.1/DTD/svg11.dtd">
<!-- Generated by graphviz version 2.43.0 (0)
 -->
<!-- Title: cv::cudev::UnaryNegate&lt; Predicate &gt; Pages: 1 -->
<svg width="234pt" height="315pt"
 viewBox="0.00 0.00 233.50 315.00" xmlns="http://www.w3.org/2000/svg" xmlns:xlink="http://www.w3.org/1999/xlink">
<g id="graph0" class="graph" transform="scale(1 1) rotate(0) translate(4 311)">
<title>cv::cudev::UnaryNegate&lt; Predicate &gt;</title>
<!-- Node1 -->
<g id="Node000001" class="node">
<title>Node1</title>
<g id="a_Node000001"><a xlink:title=" ">
<polygon fill="#999999" stroke="transparent" points="199.5,-60 73.5,-60 73.5,0 199.5,0 199.5,-60"/>
<text text-anchor="start" x="78.5" y="-48" font-family="Helvetica,sans-Serif" font-size="10.00">cv::cudev::UnaryNegate</text>
<text text-anchor="start" x="102" y="-37" font-family="Helvetica,sans-Serif" font-size="10.00">&lt; Predicate &gt;</text>
<text text-anchor="start" x="134.5" y="-22" font-family="Helvetica,sans-Serif" font-size="10.00"> </text>
<text text-anchor="start" x="89.5" y="-7" font-family="Helvetica,sans-Serif" font-size="10.00">+</text>
<text text-anchor="start" x="114.5" y="-7" font-family="Helvetica,sans-Serif" font-size="10.00">operator()()</text>
<polygon fill="#666666" stroke="#666666" points="73.5,-32 73.5,-32 199.5,-32 199.5,-32 73.5,-32"/>
<polygon fill="#666666" stroke="#666666" points="73.5,-17 73.5,-17 199.5,-17 199.5,-17 73.5,-17"/>
<polygon fill="none" stroke="#666666" points="73.5,0 73.5,-60 199.5,-60 199.5,0 73.5,0"/>
</a>
</g>
</g>
<!-- Node2 -->
<g id="Node000002" class="node">
<title>Node2</title>
<g id="a_Node000002"><a xlink:href="../../df/d11/structcv_1_1cudev_1_1unary__function.html" target="_top" xlink:title=" ">
<polygon fill="white" stroke="transparent" points="151,-178 0,-178 0,-107 151,-107 151,-178"/>
<text text-anchor="start" x="5.5" y="-165.5" font-family="Helvetica,sans-Serif" font-size="10.00">cv::cudev::unary_function</text>
<text text-anchor="start" x="5.5" y="-154.5" font-family="Helvetica,sans-Serif" font-size="10.00">&lt; Predicate::argument_type,</text>
<text text-anchor="start" x="15.5" y="-143.5" font-family="Helvetica,sans-Serif" font-size="10.00"> Predicate::result_type &gt;</text>
<text text-anchor="start" x="74" y="-128.5" font-family="Helvetica,sans-Serif" font-size="10.00"> </text>
<text text-anchor="start" x="74" y="-113.5" font-family="Helvetica,sans-Serif" font-size="10.00"> </text>
<polygon fill="#666666" stroke="#666666" points="0.5,-138.5 0.5,-138.5 151.5,-138.5 151.5,-138.5 0.5,-138.5"/>
<polygon fill="#666666" stroke="#666666" points="0.5,-123.5 0.5,-123.5 151.5,-123.5 151.5,-123.5 0.5,-123.5"/>
<polygon fill="none" stroke="#666666" points="0,-107 0,-178 151,-178 151,-107 0,-107"/>
</a>
</g>
</g>
<!-- Node2&#45;&gt;Node1 -->
<g id="edge1_Node000001_Node000002" class="edge">
<title>Node2&#45;&gt;Node1</title>
<g id="a_edge1_Node000001_Node000002"><a xlink:title=" ">
<path fill="none" stroke="#63b8ff" d="M99.59,-97.86C106.54,-85.27 113.96,-71.83 120.31,-60.33"/>
<polygon fill="none" stroke="#63b8ff" points="96.4,-96.39 94.63,-106.84 102.53,-99.78 96.4,-96.39"/>
</a>
</g>
</g>
<!-- Node3 -->
<g id="Node000003" class="node">
<title>Node3</title>
<g id="a_Node000003"><a xlink:href="../../df/d11/structcv_1_1cudev_1_1unary__function.html" target="_top" xlink:title=" ">
<polygon fill="white" stroke="transparent" points="142.5,-307 8.5,-307 8.5,-247 142.5,-247 142.5,-307"/>
<text text-anchor="start" x="13.5" y="-295" font-family="Helvetica,sans-Serif" font-size="10.00">cv::cudev::unary_function</text>
<text text-anchor="start" x="32" y="-284" font-family="Helvetica,sans-Serif" font-size="10.00">&lt; _Arg, _Result &gt;</text>
<text text-anchor="start" x="73.5" y="-269" font-family="Helvetica,sans-Serif" font-size="10.00"> </text>
<text text-anchor="start" x="73.5" y="-254" font-family="Helvetica,sans-Serif" font-size="10.00"> </text>
<polygon fill="#666666" stroke="#666666" points="8.5,-279 8.5,-279 142.5,-279 142.5,-279 8.5,-279"/>
<polygon fill="#666666" stroke="#666666" points="8.5,-264 8.5,-264 142.5,-264 142.5,-264 8.5,-264"/>
<polygon fill="none" stroke="#666666" points="8.5,-247 8.5,-307 142.5,-307 142.5,-247 8.5,-247"/>
</a>
</g>
</g>
<!-- Node3&#45;&gt;Node2 -->
<g id="edge2_Node000002_Node000003" class="edge">
<title>Node3&#45;&gt;Node2</title>
<g id="a_edge2_Node000002_Node000003"><a xlink:title=" ">
<path fill="none" stroke="orange" d="M75.5,-236.71C75.5,-218.12 75.5,-196.11 75.5,-178.15"/>
<polygon fill="orange" stroke="orange" points="72,-236.92 75.5,-246.92 79,-236.92 72,-236.92"/>
</a>
</g>
<text text-anchor="start" x="75.5" y="-221" font-family="Helvetica,sans-Serif" font-size="10.00" fill="grey"> &lt; Predicate::argument</text>
<text text-anchor="start" x="75.5" y="-210" font-family="Helvetica,sans-Serif" font-size="10.00" fill="grey">_type, Predicate::result</text>
<text text-anchor="middle" x="132.5" y="-199" font-family="Helvetica,sans-Serif" font-size="10.00" fill="grey">_type &gt;</text>
</g>
<!-- Node4 -->
<g id="Node000004" class="node">
<title>Node4</title>
<g id="a_Node000004"><a xlink:title=" ">
<polygon fill="white" stroke="transparent" points="225.5,-167 169.5,-167 169.5,-118 225.5,-118 225.5,-167"/>
<text text-anchor="start" x="174.5" y="-154.5" font-family="Helvetica,sans-Serif" font-size="10.00">Predicate</text>
<text text-anchor="start" x="195.5" y="-139.5" font-family="Helvetica,sans-Serif" font-size="10.00"> </text>
<text text-anchor="start" x="195.5" y="-124.5" font-family="Helvetica,sans-Serif" font-size="10.00"> </text>
<polygon fill="#666666" stroke="#666666" points="169.5,-149.5 169.5,-149.5 225.5,-149.5 225.5,-149.5 169.5,-149.5"/>
<polygon fill="#666666" stroke="#666666" points="169.5,-134.5 169.5,-134.5 225.5,-134.5 225.5,-134.5 169.5,-134.5"/>
<polygon fill="none" stroke="#666666" points="169.5,-118 169.5,-167 225.5,-167 225.5,-118 169.5,-118"/>
</a>
</g>
</g>
<!-- Node4&#45;&gt;Node1 -->
<g id="edge3_Node000001_Node000004" class="edge">
<title>Node4&#45;&gt;Node1</title>
<g id="a_edge3_Node000001_Node000004"><a xlink:title=" ">
<path fill="none" stroke="#63b8ff" d="M184.41,-117.79C176.85,-104.09 167.13,-86.49 158.43,-70.72"/>
<polygon fill="none" stroke="#63b8ff" points="158.4,-70.68 152,-67.36 152.6,-60.17 159.01,-63.49 158.4,-70.68"/>
</a>
</g>
<text text-anchor="middle" x="183.5" y="-81" font-family="Helvetica,sans-Serif" font-size="10.00" fill="grey"> +pred</text>
</g>
</g>
</svg>
