<?xml version="1.0" encoding="UTF-8" standalone="no"?>
<!DOCTYPE svg PUBLIC "-//W3C//DTD SVG 1.1//EN"
 "http://www.w3.org/Graphics/SVG/1.1/DTD/svg11.dtd">
<!-- Generated by graphviz version 2.43.0 (0)
 -->
<!-- Title: cv::GCPUKernel Pages: 1 -->
<svg width="452pt" height="190pt"
 viewBox="0.00 0.00 451.50 190.00" xmlns="http://www.w3.org/2000/svg" xmlns:xlink="http://www.w3.org/1999/xlink">
<g id="graph0" class="graph" transform="scale(1 1) rotate(0) translate(4 186)">
<title>cv::GCPUKernel</title>
<!-- Node1 -->
<g id="Node000001" class="node">
<title>Node1</title>
<g id="a_Node000001"><a xlink:title=" ">
<polygon fill="#999999" stroke="transparent" points="331.5,-64 243.5,-64 243.5,0 331.5,0 331.5,-64"/>
<text text-anchor="start" x="249.5" y="-52" font-family="Helvetica,sans-Serif" font-size="10.00">cv::GCPUKernel</text>
<text text-anchor="start" x="285.5" y="-37" font-family="Helvetica,sans-Serif" font-size="10.00"> </text>
<text text-anchor="start" x="247.5" y="-22" font-family="Helvetica,sans-Serif" font-size="10.00">+</text>
<text text-anchor="start" x="260.5" y="-22" font-family="Helvetica,sans-Serif" font-size="10.00">GCPUKernel()</text>
<text text-anchor="start" x="247.5" y="-7" font-family="Helvetica,sans-Serif" font-size="10.00">+</text>
<text text-anchor="start" x="260.5" y="-7" font-family="Helvetica,sans-Serif" font-size="10.00">GCPUKernel()</text>
<polygon fill="#666666" stroke="#666666" points="243.5,-47 243.5,-47 331.5,-47 331.5,-47 243.5,-47"/>
<polygon fill="#666666" stroke="#666666" points="243.5,-32 243.5,-32 331.5,-32 331.5,-32 243.5,-32"/>
<polygon fill="none" stroke="#666666" points="243.5,0 243.5,-64 331.5,-64 331.5,0 243.5,0"/>
</a>
</g>
</g>
<!-- Node2 -->
<g id="Node000002" class="node">
<title>Node2</title>
<g id="a_Node000002"><a xlink:title=" ">
<polygon fill="white" stroke="transparent" points="175,-171 0,-171 0,-122 175,-122 175,-171"/>
<text text-anchor="start" x="5.5" y="-158.5" font-family="Helvetica,sans-Serif" font-size="10.00">function&lt; void(GCPUContext &amp;)&gt;</text>
<text text-anchor="start" x="86" y="-143.5" font-family="Helvetica,sans-Serif" font-size="10.00"> </text>
<text text-anchor="start" x="86" y="-128.5" font-family="Helvetica,sans-Serif" font-size="10.00"> </text>
<polygon fill="#666666" stroke="#666666" points="0.5,-153.5 0.5,-153.5 175.5,-153.5 175.5,-153.5 0.5,-153.5"/>
<polygon fill="#666666" stroke="#666666" points="0.5,-138.5 0.5,-138.5 175.5,-138.5 175.5,-138.5 0.5,-138.5"/>
<polygon fill="none" stroke="#666666" points="0,-122 0,-171 175,-171 175,-122 0,-122"/>
</a>
</g>
</g>
<!-- Node2&#45;&gt;Node1 -->
<g id="edge1_Node000001_Node000002" class="edge">
<title>Node2&#45;&gt;Node1</title>
<g id="a_edge1_Node000001_Node000002"><a xlink:title=" ">
<path fill="none" stroke="#63b8ff" d="M129.43,-121.92C159.37,-105.07 199.95,-82.24 232.5,-63.94"/>
<polygon fill="none" stroke="#63b8ff" points="232.74,-63.8 236.01,-57.37 243.2,-57.92 239.93,-64.35 232.74,-63.8"/>
</a>
</g>
<text text-anchor="middle" x="224" y="-85" font-family="Helvetica,sans-Serif" font-size="10.00" fill="grey"> +m_runF</text>
</g>
<!-- Node3 -->
<g id="Node000003" class="node">
<title>Node3</title>
<g id="a_Node000003"><a xlink:title=" ">
<polygon fill="white" stroke="transparent" points="382,-182 193,-182 193,-111 382,-111 382,-182"/>
<text text-anchor="start" x="198.5" y="-169.5" font-family="Helvetica,sans-Serif" font-size="10.00">function&lt; void(const</text>
<text text-anchor="start" x="198.5" y="-158.5" font-family="Helvetica,sans-Serif" font-size="10.00"> GMetaArgs &amp;, const GArgs</text>
<text text-anchor="start" x="198.5" y="-147.5" font-family="Helvetica,sans-Serif" font-size="10.00"> &amp;, GArg &amp;, const GCompileArgs &amp;)&gt;</text>
<text text-anchor="start" x="286" y="-132.5" font-family="Helvetica,sans-Serif" font-size="10.00"> </text>
<text text-anchor="start" x="286" y="-117.5" font-family="Helvetica,sans-Serif" font-size="10.00"> </text>
<polygon fill="#666666" stroke="#666666" points="193.5,-142.5 193.5,-142.5 382.5,-142.5 382.5,-142.5 193.5,-142.5"/>
<polygon fill="#666666" stroke="#666666" points="193.5,-127.5 193.5,-127.5 382.5,-127.5 382.5,-127.5 193.5,-127.5"/>
<polygon fill="none" stroke="#666666" points="193,-111 193,-182 382,-182 382,-111 193,-111"/>
</a>
</g>
</g>
<!-- Node3&#45;&gt;Node1 -->
<g id="edge2_Node000001_Node000003" class="edge">
<title>Node3&#45;&gt;Node1</title>
<g id="a_edge2_Node000001_Node000003"><a xlink:title=" ">
<path fill="none" stroke="#63b8ff" d="M287.5,-110.83C287.5,-99.92 287.5,-87.74 287.5,-76.32"/>
<polygon fill="none" stroke="#63b8ff" points="287.5,-76.31 283.5,-70.31 287.5,-64.31 291.5,-70.31 287.5,-76.31"/>
</a>
</g>
<text text-anchor="middle" x="317.5" y="-85" font-family="Helvetica,sans-Serif" font-size="10.00" fill="grey"> +m_setupF</text>
</g>
<!-- Node4 -->
<g id="Node000004" class="node">
<title>Node4</title>
<g id="a_Node000004"><a xlink:title=" ">
<polygon fill="white" stroke="transparent" points="432.5,-171 400.5,-171 400.5,-122 432.5,-122 432.5,-171"/>
<text text-anchor="start" x="405.5" y="-158.5" font-family="Helvetica,sans-Serif" font-size="10.00">bool</text>
<text text-anchor="start" x="414.5" y="-143.5" font-family="Helvetica,sans-Serif" font-size="10.00"> </text>
<text text-anchor="start" x="414.5" y="-128.5" font-family="Helvetica,sans-Serif" font-size="10.00"> </text>
<polygon fill="#666666" stroke="#666666" points="400.5,-153.5 400.5,-153.5 432.5,-153.5 432.5,-153.5 400.5,-153.5"/>
<polygon fill="#666666" stroke="#666666" points="400.5,-138.5 400.5,-138.5 432.5,-138.5 432.5,-138.5 400.5,-138.5"/>
<polygon fill="none" stroke="#666666" points="400.5,-122 400.5,-171 432.5,-171 432.5,-122 400.5,-122"/>
</a>
</g>
</g>
<!-- Node4&#45;&gt;Node1 -->
<g id="edge3_Node000001_Node000004" class="edge">
<title>Node4&#45;&gt;Node1</title>
<g id="a_edge3_Node000001_Node000004"><a xlink:title=" ">
<path fill="none" stroke="#63b8ff" d="M400.73,-121.72C397.84,-117.98 394.72,-114.27 391.5,-111 376.48,-95.73 358.31,-81.07 341.39,-68.66"/>
<polygon fill="none" stroke="#63b8ff" points="341.34,-68.63 334.14,-68.37 331.6,-61.62 338.81,-61.88 341.34,-68.63"/>
</a>
</g>
<text text-anchor="middle" x="407" y="-85" font-family="Helvetica,sans-Serif" font-size="10.00" fill="grey"> +m_isStateful</text>
</g>
</g>
</svg>
