<?xml version="1.0" encoding="UTF-8" standalone="no"?>
<!DOCTYPE svg PUBLIC "-//W3C//DTD SVG 1.1//EN"
 "http://www.w3.org/Graphics/SVG/1.1/DTD/svg11.dtd">
<!-- Generated by graphviz version 2.43.0 (0)
 -->
<!-- Title: cv::detail::MetaHelper&lt; K, std::tuple&lt; Ins... &gt;, std::tuple&lt; Outs... &gt; &gt; Pages: 1 -->
<svg width="147pt" height="94pt"
 viewBox="0.00 0.00 147.00 94.00" xmlns="http://www.w3.org/2000/svg" xmlns:xlink="http://www.w3.org/1999/xlink">
<g id="graph0" class="graph" transform="scale(1 1) rotate(0) translate(4 90)">
<title>cv::detail::MetaHelper&lt; K, std::tuple&lt; Ins... &gt;, std::tuple&lt; Outs... &gt; &gt;</title>
<!-- Node1 -->
<g id="Node000001" class="node">
<title>Node1</title>
<g id="a_Node000001"><a xlink:title=" ">
<polygon fill="#999999" stroke="transparent" points="139,-86 0,-86 0,0 139,0 139,-86"/>
<text text-anchor="start" x="5.5" y="-74" font-family="Helvetica,sans-Serif" font-size="10.00">cv::detail::MetaHelper</text>
<text text-anchor="start" x="5.5" y="-63" font-family="Helvetica,sans-Serif" font-size="10.00">&lt; K, std::tuple&lt; Ins...</text>
<text text-anchor="start" x="5.5" y="-52" font-family="Helvetica,sans-Serif" font-size="10.00"> &gt;, std::tuple&lt; Outs... &gt; &gt;</text>
<text text-anchor="start" x="68" y="-37" font-family="Helvetica,sans-Serif" font-size="10.00"> </text>
<text text-anchor="start" x="10.5" y="-22" font-family="Helvetica,sans-Serif" font-size="10.00">+</text>
<text text-anchor="start" x="29.5" y="-22" font-family="Helvetica,sans-Serif" font-size="10.00">getOutMeta()</text>
<text text-anchor="start" x="10.5" y="-7" font-family="Helvetica,sans-Serif" font-size="10.00">+</text>
<text text-anchor="start" x="29.5" y="-7" font-family="Helvetica,sans-Serif" font-size="10.00">getOutMeta_impl()</text>
<polygon fill="#666666" stroke="#666666" points="0.5,-47 0.5,-47 139.5,-47 139.5,-47 0.5,-47"/>
<polygon fill="#666666" stroke="#666666" points="0.5,-32 0.5,-32 139.5,-32 139.5,-32 0.5,-32"/>
<polygon fill="none" stroke="#666666" points="0,0 0,-86 139,-86 139,0 0,0"/>
</a>
</g>
</g>
</g>
</svg>
