<?xml version="1.0" encoding="UTF-8" standalone="no"?>
<!DOCTYPE svg PUBLIC "-//W3C//DTD SVG 1.1//EN"
 "http://www.w3.org/Graphics/SVG/1.1/DTD/svg11.dtd">
<!-- Generated by graphviz version 2.43.0 (0)
 -->
<!-- Title: opencv2/calib3d.hpp Pages: 1 -->
<svg width="786pt" height="159pt"
 viewBox="0.00 0.00 785.50 159.00" xmlns="http://www.w3.org/2000/svg" xmlns:xlink="http://www.w3.org/1999/xlink">
<g id="graph0" class="graph" transform="scale(1 1) rotate(0) translate(4 155)">
<title>opencv2/calib3d.hpp</title>
<!-- Node1 -->
<g id="Node000001" class="node">
<title>Node1</title>
<g id="a_Node000001"><a xlink:title=" ">
<polygon fill="#999999" stroke="#666666" points="428,-151 311,-151 311,-132 428,-132 428,-151"/>
<text text-anchor="middle" x="369.5" y="-139" font-family="Helvetica,sans-Serif" font-size="10.00">opencv2/calib3d.hpp</text>
</a>
</g>
</g>
<!-- Node2 -->
<g id="Node000002" class="node">
<title>Node2</title>
<g id="a_Node000002"><a xlink:href="../../d7/de4/calib3d_2calib3d_8hpp.html" target="_top" xlink:title=" ">
<polygon fill="white" stroke="#666666" points="155,-90.5 0,-90.5 0,-71.5 155,-71.5 155,-90.5"/>
<text text-anchor="middle" x="77.5" y="-78.5" font-family="Helvetica,sans-Serif" font-size="10.00">opencv2/calib3d/calib3d.hpp</text>
</a>
</g>
</g>
<!-- Node1&#45;&gt;Node2 -->
<g id="edge1_Node000001_Node000002" class="edge">
<title>Node1&#45;&gt;Node2</title>
<g id="a_edge1_Node000001_Node000002"><a xlink:title=" ">
<path fill="none" stroke="#63b8ff" d="M316.9,-129.96C260.54,-118.67 172.15,-100.96 120.01,-90.52"/>
<polygon fill="#63b8ff" stroke="#63b8ff" points="316.55,-133.46 327.04,-131.99 317.92,-126.6 316.55,-133.46"/>
</a>
</g>
</g>
<!-- Node3 -->
<g id="Node000003" class="node">
<title>Node3</title>
<g id="a_Node000003"><a xlink:href="../../d6/d01/ccalib_8hpp.html" target="_top" xlink:title=" ">
<polygon fill="white" stroke="#666666" points="283.5,-90.5 173.5,-90.5 173.5,-71.5 283.5,-71.5 283.5,-90.5"/>
<text text-anchor="middle" x="228.5" y="-78.5" font-family="Helvetica,sans-Serif" font-size="10.00">opencv2/ccalib.hpp</text>
</a>
</g>
</g>
<!-- Node1&#45;&gt;Node3 -->
<g id="edge2_Node000001_Node000003" class="edge">
<title>Node1&#45;&gt;Node3</title>
<g id="a_edge2_Node000001_Node000003"><a xlink:title=" ">
<path fill="none" stroke="#63b8ff" d="M339.57,-128.08C312.33,-116.78 272.85,-100.4 249.03,-90.52"/>
<polygon fill="#63b8ff" stroke="#63b8ff" points="338.42,-131.39 349,-131.99 341.1,-124.93 338.42,-131.39"/>
</a>
</g>
</g>
<!-- Node4 -->
<g id="Node000004" class="node">
<title>Node4</title>
<g id="a_Node000004"><a xlink:href="../../d8/d60/cudastereo_8hpp.html" target="_top" xlink:title=" ">
<polygon fill="white" stroke="#666666" points="437.5,-90.5 301.5,-90.5 301.5,-71.5 437.5,-71.5 437.5,-90.5"/>
<text text-anchor="middle" x="369.5" y="-78.5" font-family="Helvetica,sans-Serif" font-size="10.00">opencv2/cudastereo.hpp</text>
</a>
</g>
</g>
<!-- Node1&#45;&gt;Node4 -->
<g id="edge3_Node000001_Node000004" class="edge">
<title>Node1&#45;&gt;Node4</title>
<g id="a_edge3_Node000001_Node000004"><a xlink:title=" ">
<path fill="none" stroke="#63b8ff" d="M369.5,-121.66C369.5,-111.24 369.5,-98.8 369.5,-90.67"/>
<polygon fill="#63b8ff" stroke="#63b8ff" points="366,-121.87 369.5,-131.87 373,-121.87 366,-121.87"/>
</a>
</g>
</g>
<!-- Node5 -->
<g id="Node000005" class="node">
<title>Node5</title>
<g id="a_Node000005"><a xlink:href="../../d5/de0/sinusoidalpattern_8hpp.html" target="_top" xlink:title=" ">
<polygon fill="white" stroke="#666666" points="607.5,-96 455.5,-96 455.5,-66 607.5,-66 607.5,-96"/>
<text text-anchor="start" x="463.5" y="-84" font-family="Helvetica,sans-Serif" font-size="10.00">opencv2/structured</text>
<text text-anchor="middle" x="531.5" y="-73" font-family="Helvetica,sans-Serif" font-size="10.00">_light/sinusoidalpattern.hpp</text>
</a>
</g>
</g>
<!-- Node1&#45;&gt;Node5 -->
<g id="edge4_Node000001_Node000005" class="edge">
<title>Node1&#45;&gt;Node5</title>
<g id="a_edge4_Node000001_Node000005"><a xlink:title=" ">
<path fill="none" stroke="#63b8ff" d="M402.5,-128.58C428.58,-119.16 465.04,-106 492.55,-96.06"/>
<polygon fill="#63b8ff" stroke="#63b8ff" points="401.27,-125.31 393.06,-131.99 403.65,-131.89 401.27,-125.31"/>
</a>
</g>
</g>
<!-- Node7 -->
<g id="Node000007" class="node">
<title>Node7</title>
<g id="a_Node000007"><a xlink:href="../../da/d08/disparity__filter_8hpp.html" target="_top" xlink:title=" ">
<polygon fill="white" stroke="#666666" points="777.5,-96 625.5,-96 625.5,-66 777.5,-66 777.5,-96"/>
<text text-anchor="start" x="633.5" y="-84" font-family="Helvetica,sans-Serif" font-size="10.00">opencv2/ximgproc/disparity</text>
<text text-anchor="middle" x="701.5" y="-73" font-family="Helvetica,sans-Serif" font-size="10.00">_filter.hpp</text>
</a>
</g>
</g>
<!-- Node1&#45;&gt;Node7 -->
<g id="edge6_Node000001_Node000007" class="edge">
<title>Node1&#45;&gt;Node7</title>
<g id="a_edge6_Node000001_Node000007"><a xlink:title=" ">
<path fill="none" stroke="#63b8ff" d="M427.68,-130.25C482.54,-120.58 565.08,-106.04 625.19,-95.45"/>
<polygon fill="#63b8ff" stroke="#63b8ff" points="427.02,-126.81 417.78,-131.99 428.23,-133.71 427.02,-126.81"/>
</a>
</g>
</g>
<!-- Node6 -->
<g id="Node000006" class="node">
<title>Node6</title>
<g id="a_Node000006"><a xlink:href="../../d3/d23/structured__light_8hpp.html" target="_top" xlink:title=" ">
<polygon fill="white" stroke="#666666" points="586.5,-30 476.5,-30 476.5,0 586.5,0 586.5,-30"/>
<text text-anchor="start" x="484.5" y="-18" font-family="Helvetica,sans-Serif" font-size="10.00">opencv2/structured</text>
<text text-anchor="middle" x="531.5" y="-7" font-family="Helvetica,sans-Serif" font-size="10.00">_light.hpp</text>
</a>
</g>
</g>
<!-- Node5&#45;&gt;Node6 -->
<g id="edge5_Node000005_Node000006" class="edge">
<title>Node5&#45;&gt;Node6</title>
<g id="a_edge5_Node000005_Node000006"><a xlink:title=" ">
<path fill="none" stroke="#63b8ff" d="M531.5,-55.54C531.5,-46.96 531.5,-37.61 531.5,-30.16"/>
<polygon fill="#63b8ff" stroke="#63b8ff" points="528,-55.8 531.5,-65.8 535,-55.8 528,-55.8"/>
</a>
</g>
</g>
<!-- Node8 -->
<g id="Node000008" class="node">
<title>Node8</title>
<g id="a_Node000008"><a xlink:href="../../df/d6c/ximgproc_8hpp.html" target="_top" xlink:title=" ">
<polygon fill="white" stroke="#666666" points="765.5,-24.5 637.5,-24.5 637.5,-5.5 765.5,-5.5 765.5,-24.5"/>
<text text-anchor="middle" x="701.5" y="-12.5" font-family="Helvetica,sans-Serif" font-size="10.00">opencv2/ximgproc.hpp</text>
</a>
</g>
</g>
<!-- Node7&#45;&gt;Node8 -->
<g id="edge7_Node000007_Node000008" class="edge">
<title>Node7&#45;&gt;Node8</title>
<g id="a_edge7_Node000007_Node000008"><a xlink:title=" ">
<path fill="none" stroke="#63b8ff" d="M701.5,-55.6C701.5,-44.8 701.5,-32.78 701.5,-24.84"/>
<polygon fill="#63b8ff" stroke="#63b8ff" points="698,-55.8 701.5,-65.8 705,-55.8 698,-55.8"/>
</a>
</g>
</g>
</g>
</svg>
