<?xml version="1.0" encoding="UTF-8" standalone="no"?>
<!DOCTYPE svg PUBLIC "-//W3C//DTD SVG 1.1//EN"
 "http://www.w3.org/Graphics/SVG/1.1/DTD/svg11.dtd">
<!-- Generated by graphviz version 2.43.0 (0)
 -->
<!-- Title: cv::DMatch Pages: 1 -->
<svg width="135pt" height="220pt"
 viewBox="0.00 0.00 134.50 220.00" xmlns="http://www.w3.org/2000/svg" xmlns:xlink="http://www.w3.org/1999/xlink">
<g id="graph0" class="graph" transform="scale(1 1) rotate(0) translate(4 216)">
<title>cv::DMatch</title>
<!-- Node1 -->
<g id="Node000001" class="node">
<title>Node1</title>
<g id="a_Node000001"><a xlink:title="Class for matching keypoint descriptors.">
<polygon fill="#999999" stroke="transparent" points="88,-94 9,-94 9,0 88,0 88,-94"/>
<text text-anchor="start" x="21.5" y="-82" font-family="Helvetica,sans-Serif" font-size="10.00">cv::DMatch</text>
<text text-anchor="start" x="47" y="-67" font-family="Helvetica,sans-Serif" font-size="10.00"> </text>
<text text-anchor="start" x="13.5" y="-52" font-family="Helvetica,sans-Serif" font-size="10.00">+</text>
<text text-anchor="start" x="26.5" y="-52" font-family="Helvetica,sans-Serif" font-size="10.00">DMatch()</text>
<text text-anchor="start" x="13.5" y="-37" font-family="Helvetica,sans-Serif" font-size="10.00">+</text>
<text text-anchor="start" x="26.5" y="-37" font-family="Helvetica,sans-Serif" font-size="10.00">DMatch()</text>
<text text-anchor="start" x="13.5" y="-22" font-family="Helvetica,sans-Serif" font-size="10.00">+</text>
<text text-anchor="start" x="26.5" y="-22" font-family="Helvetica,sans-Serif" font-size="10.00">DMatch()</text>
<text text-anchor="start" x="13.5" y="-7" font-family="Helvetica,sans-Serif" font-size="10.00">+</text>
<text text-anchor="start" x="26.5" y="-7" font-family="Helvetica,sans-Serif" font-size="10.00">operator&lt;()</text>
<polygon fill="#666666" stroke="#666666" points="9.5,-77 9.5,-77 88.5,-77 88.5,-77 9.5,-77"/>
<polygon fill="#666666" stroke="#666666" points="9.5,-62 9.5,-62 88.5,-62 88.5,-62 9.5,-62"/>
<polygon fill="none" stroke="#666666" points="9,0 9,-94 88,-94 88,0 9,0"/>
</a>
</g>
</g>
<!-- Node2 -->
<g id="Node000002" class="node">
<title>Node2</title>
<g id="a_Node000002"><a xlink:title=" ">
<polygon fill="white" stroke="transparent" points="23,-212 0,-212 0,-163 23,-163 23,-212"/>
<text text-anchor="start" x="5.5" y="-199.5" font-family="Helvetica,sans-Serif" font-size="10.00">int</text>
<text text-anchor="start" x="10" y="-184.5" font-family="Helvetica,sans-Serif" font-size="10.00"> </text>
<text text-anchor="start" x="10" y="-169.5" font-family="Helvetica,sans-Serif" font-size="10.00"> </text>
<polygon fill="#666666" stroke="#666666" points="0.5,-194.5 0.5,-194.5 23.5,-194.5 23.5,-194.5 0.5,-194.5"/>
<polygon fill="#666666" stroke="#666666" points="0.5,-179.5 0.5,-179.5 23.5,-179.5 23.5,-179.5 0.5,-179.5"/>
<polygon fill="none" stroke="#666666" points="0,-163 0,-212 23,-212 23,-163 0,-163"/>
</a>
</g>
</g>
<!-- Node2&#45;&gt;Node1 -->
<g id="edge1_Node000001_Node000002" class="edge">
<title>Node2&#45;&gt;Node1</title>
<g id="a_edge1_Node000001_Node000002"><a xlink:title=" ">
<path fill="none" stroke="#63b8ff" d="M8.87,-162.94C7.93,-148.07 8.03,-128.61 12.5,-112 13.11,-109.74 13.82,-107.47 14.6,-105.21"/>
<polygon fill="none" stroke="#63b8ff" points="14.63,-105.15 13.17,-98.09 19.14,-94.03 20.59,-101.1 14.63,-105.15"/>
</a>
</g>
<text text-anchor="middle" x="38.5" y="-137" font-family="Helvetica,sans-Serif" font-size="10.00" fill="grey"> +imgIdx</text>
<text text-anchor="middle" x="38.5" y="-126" font-family="Helvetica,sans-Serif" font-size="10.00" fill="grey">+queryIdx</text>
<text text-anchor="middle" x="38.5" y="-115" font-family="Helvetica,sans-Serif" font-size="10.00" fill="grey">+trainIdx</text>
</g>
<!-- Node3 -->
<g id="Node000003" class="node">
<title>Node3</title>
<g id="a_Node000003"><a xlink:title=" ">
<polygon fill="white" stroke="transparent" points="102.5,-212 70.5,-212 70.5,-163 102.5,-163 102.5,-212"/>
<text text-anchor="start" x="75.5" y="-199.5" font-family="Helvetica,sans-Serif" font-size="10.00">float</text>
<text text-anchor="start" x="84.5" y="-184.5" font-family="Helvetica,sans-Serif" font-size="10.00"> </text>
<text text-anchor="start" x="84.5" y="-169.5" font-family="Helvetica,sans-Serif" font-size="10.00"> </text>
<polygon fill="#666666" stroke="#666666" points="70.5,-194.5 70.5,-194.5 102.5,-194.5 102.5,-194.5 70.5,-194.5"/>
<polygon fill="#666666" stroke="#666666" points="70.5,-179.5 70.5,-179.5 102.5,-179.5 102.5,-179.5 70.5,-179.5"/>
<polygon fill="none" stroke="#666666" points="70.5,-163 70.5,-212 102.5,-212 102.5,-163 70.5,-163"/>
</a>
</g>
</g>
<!-- Node3&#45;&gt;Node1 -->
<g id="edge2_Node000001_Node000003" class="edge">
<title>Node3&#45;&gt;Node1</title>
<g id="a_edge2_Node000001_Node000003"><a xlink:title=" ">
<path fill="none" stroke="#63b8ff" d="M79.97,-162.69C75.68,-147.05 69.87,-125.88 64.41,-105.98"/>
<polygon fill="none" stroke="#63b8ff" points="64.34,-105.72 58.89,-100.99 61.16,-94.15 66.61,-98.87 64.34,-105.72"/>
</a>
</g>
<text text-anchor="middle" x="100" y="-126" font-family="Helvetica,sans-Serif" font-size="10.00" fill="grey"> +distance</text>
</g>
</g>
</svg>
