<?xml version="1.0" encoding="UTF-8" standalone="no"?>
<!DOCTYPE svg PUBLIC "-//W3C//DTD SVG 1.1//EN"
 "http://www.w3.org/Graphics/SVG/1.1/DTD/svg11.dtd">
<!-- Generated by graphviz version 2.43.0 (0)
 -->
<!-- Title: Cv64suf Pages: 1 -->
<svg width="182pt" height="153pt"
 viewBox="0.00 0.00 182.00 153.00" xmlns="http://www.w3.org/2000/svg" xmlns:xlink="http://www.w3.org/1999/xlink">
<g id="graph0" class="graph" transform="scale(1 1) rotate(0) translate(4 149)">
<title>Cv64suf</title>
<!-- Node1 -->
<g id="Node000001" class="node">
<title>Node1</title>
<g id="a_Node000001"><a xlink:title=" ">
<polygon fill="#999999" stroke="transparent" points="112,-49 62,-49 62,0 112,0 112,-49"/>
<text text-anchor="start" x="67" y="-36.5" font-family="Helvetica,sans-Serif" font-size="10.00">Cv64suf</text>
<text text-anchor="start" x="85" y="-21.5" font-family="Helvetica,sans-Serif" font-size="10.00"> </text>
<text text-anchor="start" x="85" y="-6.5" font-family="Helvetica,sans-Serif" font-size="10.00"> </text>
<polygon fill="#666666" stroke="#666666" points="62,-31.5 62,-31.5 112,-31.5 112,-31.5 62,-31.5"/>
<polygon fill="#666666" stroke="#666666" points="62,-16.5 62,-16.5 112,-16.5 112,-16.5 62,-16.5"/>
<polygon fill="none" stroke="#666666" points="62,0 62,-49 112,-49 112,0 62,0"/>
</a>
</g>
</g>
<!-- Node2 -->
<g id="Node000002" class="node">
<title>Node2</title>
<g id="a_Node000002"><a xlink:title=" ">
<polygon fill="white" stroke="transparent" points="44,-145 0,-145 0,-96 44,-96 44,-145"/>
<text text-anchor="start" x="5" y="-132.5" font-family="Helvetica,sans-Serif" font-size="10.00">int64_t</text>
<text text-anchor="start" x="20" y="-117.5" font-family="Helvetica,sans-Serif" font-size="10.00"> </text>
<text text-anchor="start" x="20" y="-102.5" font-family="Helvetica,sans-Serif" font-size="10.00"> </text>
<polygon fill="#666666" stroke="#666666" points="0,-127.5 0,-127.5 44,-127.5 44,-127.5 0,-127.5"/>
<polygon fill="#666666" stroke="#666666" points="0,-112.5 0,-112.5 44,-112.5 44,-112.5 0,-112.5"/>
<polygon fill="none" stroke="#666666" points="0,-96 0,-145 44,-145 44,-96 0,-96"/>
</a>
</g>
</g>
<!-- Node2&#45;&gt;Node1 -->
<g id="edge1_Node000001_Node000002" class="edge">
<title>Node2&#45;&gt;Node1</title>
<g id="a_edge1_Node000001_Node000002"><a xlink:title=" ">
<path fill="none" stroke="#63b8ff" d="M38.4,-95.78C46.02,-84.76 55.22,-71.45 63.56,-59.4"/>
<polygon fill="none" stroke="#63b8ff" points="63.78,-59.08 63.9,-51.87 70.6,-49.21 70.48,-56.42 63.78,-59.08"/>
</a>
</g>
<text text-anchor="middle" x="64.5" y="-70" font-family="Helvetica,sans-Serif" font-size="10.00" fill="grey"> +i</text>
</g>
<!-- Node3 -->
<g id="Node000003" class="node">
<title>Node3</title>
<g id="a_Node000003"><a xlink:title=" ">
<polygon fill="white" stroke="transparent" points="112,-145 62,-145 62,-96 112,-96 112,-145"/>
<text text-anchor="start" x="67" y="-132.5" font-family="Helvetica,sans-Serif" font-size="10.00">uint64_t</text>
<text text-anchor="start" x="85" y="-117.5" font-family="Helvetica,sans-Serif" font-size="10.00"> </text>
<text text-anchor="start" x="85" y="-102.5" font-family="Helvetica,sans-Serif" font-size="10.00"> </text>
<polygon fill="#666666" stroke="#666666" points="62,-127.5 62,-127.5 112,-127.5 112,-127.5 62,-127.5"/>
<polygon fill="#666666" stroke="#666666" points="62,-112.5 62,-112.5 112,-112.5 112,-112.5 62,-112.5"/>
<polygon fill="none" stroke="#666666" points="62,-96 62,-145 112,-145 112,-96 62,-96"/>
</a>
</g>
</g>
<!-- Node3&#45;&gt;Node1 -->
<g id="edge2_Node000001_Node000003" class="edge">
<title>Node3&#45;&gt;Node1</title>
<g id="a_edge2_Node000001_Node000003"><a xlink:title=" ">
<path fill="none" stroke="#63b8ff" d="M87,-95.78C87,-85.32 87,-72.79 87,-61.23"/>
<polygon fill="none" stroke="#63b8ff" points="87,-61.21 83,-55.21 87,-49.21 91,-55.21 87,-61.21"/>
</a>
</g>
<text text-anchor="middle" x="96" y="-70" font-family="Helvetica,sans-Serif" font-size="10.00" fill="grey"> +u</text>
</g>
<!-- Node4 -->
<g id="Node000004" class="node">
<title>Node4</title>
<g id="a_Node000004"><a xlink:title=" ">
<polygon fill="white" stroke="transparent" points="174,-145 130,-145 130,-96 174,-96 174,-145"/>
<text text-anchor="start" x="135" y="-132.5" font-family="Helvetica,sans-Serif" font-size="10.00">double</text>
<text text-anchor="start" x="150" y="-117.5" font-family="Helvetica,sans-Serif" font-size="10.00"> </text>
<text text-anchor="start" x="150" y="-102.5" font-family="Helvetica,sans-Serif" font-size="10.00"> </text>
<polygon fill="#666666" stroke="#666666" points="130,-127.5 130,-127.5 174,-127.5 174,-127.5 130,-127.5"/>
<polygon fill="#666666" stroke="#666666" points="130,-112.5 130,-112.5 174,-112.5 174,-112.5 130,-112.5"/>
<polygon fill="none" stroke="#666666" points="130,-96 130,-145 174,-145 174,-96 130,-96"/>
</a>
</g>
</g>
<!-- Node4&#45;&gt;Node1 -->
<g id="edge3_Node000001_Node000004" class="edge">
<title>Node4&#45;&gt;Node1</title>
<g id="a_edge3_Node000001_Node000004"><a xlink:title=" ">
<path fill="none" stroke="#63b8ff" d="M135.6,-95.78C127.98,-84.76 118.78,-71.45 110.44,-59.4"/>
<polygon fill="none" stroke="#63b8ff" points="110.22,-59.08 103.52,-56.42 103.4,-49.21 110.1,-51.87 110.22,-59.08"/>
</a>
</g>
<text text-anchor="middle" x="129" y="-70" font-family="Helvetica,sans-Serif" font-size="10.00" fill="grey"> +f</text>
</g>
</g>
</svg>
