<?xml version="1.0" encoding="UTF-8" standalone="no"?>
<!DOCTYPE svg PUBLIC "-//W3C//DTD SVG 1.1//EN"
 "http://www.w3.org/Graphics/SVG/1.1/DTD/svg11.dtd">
<!-- Generated by graphviz version 2.43.0 (0)
 -->
<!-- Title: NcvPoint2D32u Pages: 1 -->
<svg width="112pt" height="179pt"
 viewBox="0.00 0.00 112.00 179.00" xmlns="http://www.w3.org/2000/svg" xmlns:xlink="http://www.w3.org/1999/xlink">
<g id="graph0" class="graph" transform="scale(1 1) rotate(0) translate(4 175)">
<title>NcvPoint2D32u</title>
<!-- Node1 -->
<g id="Node000001" class="node">
<title>Node1</title>
<g id="a_Node000001"><a xlink:title=" ">
<polygon fill="#999999" stroke="transparent" points="104,-64 0,-64 0,0 104,0 104,-64"/>
<text text-anchor="start" x="14" y="-52" font-family="Helvetica,sans-Serif" font-size="10.00">NcvPoint2D32u</text>
<text text-anchor="start" x="50" y="-37" font-family="Helvetica,sans-Serif" font-size="10.00"> </text>
<text text-anchor="start" x="4" y="-22" font-family="Helvetica,sans-Serif" font-size="10.00">+</text>
<text text-anchor="start" x="17" y="-22" font-family="Helvetica,sans-Serif" font-size="10.00">NcvPoint2D32u()</text>
<text text-anchor="start" x="4" y="-7" font-family="Helvetica,sans-Serif" font-size="10.00">+</text>
<text text-anchor="start" x="17" y="-7" font-family="Helvetica,sans-Serif" font-size="10.00">NcvPoint2D32u()</text>
<polygon fill="#666666" stroke="#666666" points="0,-47 0,-47 104,-47 104,-47 0,-47"/>
<polygon fill="#666666" stroke="#666666" points="0,-32 0,-32 104,-32 104,-32 0,-32"/>
<polygon fill="none" stroke="#666666" points="0,0 0,-64 104,-64 104,0 0,0"/>
</a>
</g>
</g>
<!-- Node2 -->
<g id="Node000002" class="node">
<title>Node2</title>
<g id="a_Node000002"><a xlink:title=" ">
<polygon fill="white" stroke="transparent" points="79.5,-171 24.5,-171 24.5,-122 79.5,-122 79.5,-171"/>
<text text-anchor="start" x="30" y="-158.5" font-family="Helvetica,sans-Serif" font-size="10.00">unsigned</text>
<text text-anchor="start" x="50.5" y="-143.5" font-family="Helvetica,sans-Serif" font-size="10.00"> </text>
<text text-anchor="start" x="50.5" y="-128.5" font-family="Helvetica,sans-Serif" font-size="10.00"> </text>
<polygon fill="#666666" stroke="#666666" points="25,-153.5 25,-153.5 80,-153.5 80,-153.5 25,-153.5"/>
<polygon fill="#666666" stroke="#666666" points="25,-138.5 25,-138.5 80,-138.5 80,-138.5 25,-138.5"/>
<polygon fill="none" stroke="#666666" points="24.5,-122 24.5,-171 79.5,-171 79.5,-122 24.5,-122"/>
</a>
</g>
</g>
<!-- Node2&#45;&gt;Node1 -->
<g id="edge1_Node000001_Node000002" class="edge">
<title>Node2&#45;&gt;Node1</title>
<g id="a_edge1_Node000001_Node000002"><a xlink:title=" ">
<path fill="none" stroke="#63b8ff" d="M52,-121.92C52,-108.7 52,-91.8 52,-76.29"/>
<polygon fill="none" stroke="#63b8ff" points="52,-76.24 48,-70.24 52,-64.24 56,-70.24 52,-76.24"/>
</a>
</g>
<text text-anchor="middle" x="61" y="-96" font-family="Helvetica,sans-Serif" font-size="10.00" fill="grey"> +x</text>
<text text-anchor="middle" x="61" y="-85" font-family="Helvetica,sans-Serif" font-size="10.00" fill="grey">+y</text>
</g>
</g>
</svg>
