<?xml version="1.0" encoding="UTF-8" standalone="no"?>
<!DOCTYPE svg PUBLIC "-//W3C//DTD SVG 1.1//EN"
 "http://www.w3.org/Graphics/SVG/1.1/DTD/svg11.dtd">
<!-- Generated by graphviz version 2.43.0 (0)
 -->
<!-- Title: cv::detail::get_in&lt; cv::GOpaque&lt; cv::GScalar &gt; &gt; Pages: 1 -->
<svg width="198pt" height="272pt"
 viewBox="0.00 0.00 197.50 272.00" xmlns="http://www.w3.org/2000/svg" xmlns:xlink="http://www.w3.org/1999/xlink">
<g id="graph0" class="graph" transform="scale(1 1) rotate(0) translate(4 268)">
<title>cv::detail::get_in&lt; cv::GOpaque&lt; cv::GScalar &gt; &gt;</title>
<!-- Node1 -->
<g id="Node000001" class="node">
<title>Node1</title>
<g id="a_Node000001"><a xlink:title=" ">
<polygon fill="#999999" stroke="transparent" points="171,-60 0,-60 0,0 171,0 171,-60"/>
<text text-anchor="start" x="5.5" y="-48" font-family="Helvetica,sans-Serif" font-size="10.00">cv::detail::get_in</text>
<text text-anchor="start" x="5.5" y="-37" font-family="Helvetica,sans-Serif" font-size="10.00">&lt; cv::GOpaque&lt; cv::GScalar &gt; &gt;</text>
<text text-anchor="start" x="84" y="-22" font-family="Helvetica,sans-Serif" font-size="10.00"> </text>
<text text-anchor="start" x="84" y="-7" font-family="Helvetica,sans-Serif" font-size="10.00"> </text>
<polygon fill="#666666" stroke="#666666" points="0.5,-32 0.5,-32 171.5,-32 171.5,-32 0.5,-32"/>
<polygon fill="#666666" stroke="#666666" points="0.5,-17 0.5,-17 171.5,-17 171.5,-17 0.5,-17"/>
<polygon fill="none" stroke="#666666" points="0,0 0,-60 171,-60 171,0 0,0"/>
</a>
</g>
</g>
<!-- Node2 -->
<g id="Node000002" class="node">
<title>Node2</title>
<g id="a_Node000002"><a xlink:href="../../db/d2c/structcv_1_1detail_1_1get__in.html" target="_top" xlink:title=" ">
<polygon fill="white" stroke="transparent" points="161.5,-157 9.5,-157 9.5,-97 161.5,-97 161.5,-157"/>
<text text-anchor="start" x="14.5" y="-145" font-family="Helvetica,sans-Serif" font-size="10.00">cv::detail::get_in</text>
<text text-anchor="start" x="14.5" y="-134" font-family="Helvetica,sans-Serif" font-size="10.00">&lt; cv::GOpaque&lt; cv::Mat &gt; &gt;</text>
<text text-anchor="start" x="83.5" y="-119" font-family="Helvetica,sans-Serif" font-size="10.00"> </text>
<text text-anchor="start" x="40" y="-104" font-family="Helvetica,sans-Serif" font-size="10.00">+</text>
<text text-anchor="start" x="79.5" y="-104" font-family="Helvetica,sans-Serif" font-size="10.00">get()</text>
<polygon fill="#666666" stroke="#666666" points="9.5,-129 9.5,-129 161.5,-129 161.5,-129 9.5,-129"/>
<polygon fill="#666666" stroke="#666666" points="9.5,-114 9.5,-114 161.5,-114 161.5,-114 9.5,-114"/>
<polygon fill="none" stroke="#666666" points="9.5,-97 9.5,-157 161.5,-157 161.5,-97 9.5,-97"/>
</a>
</g>
</g>
<!-- Node2&#45;&gt;Node1 -->
<g id="edge1_Node000001_Node000002" class="edge">
<title>Node2&#45;&gt;Node1</title>
<g id="a_edge1_Node000001_Node000002"><a xlink:title=" ">
<path fill="none" stroke="#63b8ff" d="M85.5,-86.79C85.5,-77.88 85.5,-68.57 85.5,-60.17"/>
<polygon fill="none" stroke="#63b8ff" points="82,-86.98 85.5,-96.98 89,-86.98 82,-86.98"/>
</a>
</g>
</g>
<!-- Node3 -->
<g id="Node000003" class="node">
<title>Node3</title>
<g id="a_Node000003"><a xlink:href="../../db/d2c/structcv_1_1detail_1_1get__in.html" target="_top" xlink:title=" ">
<polygon fill="white" stroke="transparent" points="145,-264 26,-264 26,-215 145,-215 145,-264"/>
<text text-anchor="start" x="31.5" y="-251.5" font-family="Helvetica,sans-Serif" font-size="10.00">cv::detail::get_in&lt; T &gt;</text>
<text text-anchor="start" x="84" y="-236.5" font-family="Helvetica,sans-Serif" font-size="10.00"> </text>
<text text-anchor="start" x="49" y="-221.5" font-family="Helvetica,sans-Serif" font-size="10.00">+</text>
<text text-anchor="start" x="80.5" y="-221.5" font-family="Helvetica,sans-Serif" font-size="10.00">get()</text>
<polygon fill="#666666" stroke="#666666" points="26.5,-246.5 26.5,-246.5 145.5,-246.5 145.5,-246.5 26.5,-246.5"/>
<polygon fill="#666666" stroke="#666666" points="26.5,-231.5 26.5,-231.5 145.5,-231.5 145.5,-231.5 26.5,-231.5"/>
<polygon fill="none" stroke="#666666" points="26,-215 26,-264 145,-264 145,-215 26,-215"/>
</a>
</g>
</g>
<!-- Node3&#45;&gt;Node2 -->
<g id="edge2_Node000002_Node000003" class="edge">
<title>Node3&#45;&gt;Node2</title>
<g id="a_edge2_Node000002_Node000003"><a xlink:title=" ">
<path fill="none" stroke="orange" d="M85.5,-204.75C85.5,-189.56 85.5,-171.79 85.5,-157.17"/>
<polygon fill="orange" stroke="orange" points="82,-204.79 85.5,-214.79 89,-204.8 82,-204.79"/>
</a>
</g>
<text text-anchor="start" x="85.5" y="-189" font-family="Helvetica,sans-Serif" font-size="10.00" fill="grey"> &lt; cv::GOpaque&lt; cv::</text>
<text text-anchor="middle" x="137.5" y="-178" font-family="Helvetica,sans-Serif" font-size="10.00" fill="grey">Mat &gt; &gt;</text>
</g>
</g>
</svg>
