<?xml version="1.0" encoding="UTF-8" standalone="no"?>
<!DOCTYPE svg PUBLIC "-//W3C//DTD SVG 1.1//EN"
 "http://www.w3.org/Graphics/SVG/1.1/DTD/svg11.dtd">
<!-- Generated by graphviz version 2.43.0 (0)
 -->
<!-- Title: cv::cudev::ConstantPtrSz&lt; T &gt; Pages: 1 -->
<svg width="238pt" height="260pt"
 viewBox="0.00 0.00 237.50 260.00" xmlns="http://www.w3.org/2000/svg" xmlns:xlink="http://www.w3.org/1999/xlink">
<g id="graph0" class="graph" transform="scale(1 1) rotate(0) translate(4 256)">
<title>cv::cudev::ConstantPtrSz&lt; T &gt;</title>
<!-- Node1 -->
<g id="Node000001" class="node">
<title>Node1</title>
<g id="a_Node000001"><a xlink:title=" ">
<polygon fill="#999999" stroke="transparent" points="229.5,-49 71.5,-49 71.5,0 229.5,0 229.5,-49"/>
<text text-anchor="start" x="76.5" y="-36.5" font-family="Helvetica,sans-Serif" font-size="10.00">cv::cudev::ConstantPtrSz&lt; T &gt;</text>
<text text-anchor="start" x="148.5" y="-21.5" font-family="Helvetica,sans-Serif" font-size="10.00"> </text>
<text text-anchor="start" x="148.5" y="-6.5" font-family="Helvetica,sans-Serif" font-size="10.00"> </text>
<polygon fill="#666666" stroke="#666666" points="71.5,-31.5 71.5,-31.5 229.5,-31.5 229.5,-31.5 71.5,-31.5"/>
<polygon fill="#666666" stroke="#666666" points="71.5,-16.5 71.5,-16.5 229.5,-16.5 229.5,-16.5 71.5,-16.5"/>
<polygon fill="none" stroke="#666666" points="71.5,0 71.5,-49 229.5,-49 229.5,0 71.5,0"/>
</a>
</g>
</g>
<!-- Node2 -->
<g id="Node000002" class="node">
<title>Node2</title>
<g id="a_Node000002"><a xlink:href="../../d5/db7/structcv_1_1cudev_1_1ConstantPtr.html" target="_top" xlink:title=" ">
<polygon fill="white" stroke="transparent" points="147,-156 0,-156 0,-107 147,-107 147,-156"/>
<text text-anchor="start" x="5.5" y="-143.5" font-family="Helvetica,sans-Serif" font-size="10.00">cv::cudev::ConstantPtr&lt; T &gt;</text>
<text text-anchor="start" x="72" y="-128.5" font-family="Helvetica,sans-Serif" font-size="10.00"> </text>
<text text-anchor="start" x="21.5" y="-113.5" font-family="Helvetica,sans-Serif" font-size="10.00">+</text>
<text text-anchor="start" x="51.5" y="-113.5" font-family="Helvetica,sans-Serif" font-size="10.00">operator()()</text>
<polygon fill="#666666" stroke="#666666" points="0.5,-138.5 0.5,-138.5 147.5,-138.5 147.5,-138.5 0.5,-138.5"/>
<polygon fill="#666666" stroke="#666666" points="0.5,-123.5 0.5,-123.5 147.5,-123.5 147.5,-123.5 0.5,-123.5"/>
<polygon fill="none" stroke="#666666" points="0,-107 0,-156 147,-156 147,-107 0,-107"/>
</a>
</g>
</g>
<!-- Node2&#45;&gt;Node1 -->
<g id="edge1_Node000001_Node000002" class="edge">
<title>Node2&#45;&gt;Node1</title>
<g id="a_edge1_Node000001_Node000002"><a xlink:title=" ">
<path fill="none" stroke="#63b8ff" d="M96.97,-98.49C108.58,-82.67 122.35,-63.89 133.01,-49.35"/>
<polygon fill="none" stroke="#63b8ff" points="93.87,-96.8 90.78,-106.94 99.52,-100.94 93.87,-96.8"/>
</a>
</g>
</g>
<!-- Node3 -->
<g id="Node000003" class="node">
<title>Node3</title>
<g id="a_Node000003"><a xlink:title=" ">
<polygon fill="white" stroke="transparent" points="82,-252 65,-252 65,-203 82,-203 82,-252"/>
<text text-anchor="start" x="70.5" y="-239.5" font-family="Helvetica,sans-Serif" font-size="10.00">T</text>
<text text-anchor="start" x="72" y="-224.5" font-family="Helvetica,sans-Serif" font-size="10.00"> </text>
<text text-anchor="start" x="72" y="-209.5" font-family="Helvetica,sans-Serif" font-size="10.00"> </text>
<polygon fill="#666666" stroke="#666666" points="65.5,-234.5 65.5,-234.5 82.5,-234.5 82.5,-234.5 65.5,-234.5"/>
<polygon fill="#666666" stroke="#666666" points="65.5,-219.5 65.5,-219.5 82.5,-219.5 82.5,-219.5 65.5,-219.5"/>
<polygon fill="none" stroke="#666666" points="65,-203 65,-252 82,-252 82,-203 65,-203"/>
</a>
</g>
</g>
<!-- Node3&#45;&gt;Node2 -->
<g id="edge2_Node000002_Node000003" class="edge">
<title>Node3&#45;&gt;Node2</title>
<g id="a_edge2_Node000002_Node000003"><a xlink:title=" ">
<path fill="none" stroke="#63b8ff" d="M73.5,-202.78C73.5,-192.32 73.5,-179.79 73.5,-168.23"/>
<polygon fill="none" stroke="#63b8ff" points="73.5,-168.21 69.5,-162.21 73.5,-156.21 77.5,-162.21 73.5,-168.21"/>
</a>
</g>
<text text-anchor="middle" x="93" y="-177" font-family="Helvetica,sans-Serif" font-size="10.00" fill="grey"> +value</text>
</g>
<!-- Node4 -->
<g id="Node000004" class="node">
<title>Node4</title>
<g id="a_Node000004"><a xlink:title=" ">
<polygon fill="white" stroke="transparent" points="188,-156 165,-156 165,-107 188,-107 188,-156"/>
<text text-anchor="start" x="170.5" y="-143.5" font-family="Helvetica,sans-Serif" font-size="10.00">int</text>
<text text-anchor="start" x="175" y="-128.5" font-family="Helvetica,sans-Serif" font-size="10.00"> </text>
<text text-anchor="start" x="175" y="-113.5" font-family="Helvetica,sans-Serif" font-size="10.00"> </text>
<polygon fill="#666666" stroke="#666666" points="165.5,-138.5 165.5,-138.5 188.5,-138.5 188.5,-138.5 165.5,-138.5"/>
<polygon fill="#666666" stroke="#666666" points="165.5,-123.5 165.5,-123.5 188.5,-123.5 188.5,-123.5 165.5,-123.5"/>
<polygon fill="none" stroke="#666666" points="165,-107 165,-156 188,-156 188,-107 165,-107"/>
</a>
</g>
</g>
<!-- Node4&#45;&gt;Node1 -->
<g id="edge3_Node000001_Node000004" class="edge">
<title>Node4&#45;&gt;Node1</title>
<g id="a_edge3_Node000001_Node000004"><a xlink:title=" ">
<path fill="none" stroke="#63b8ff" d="M170.67,-106.94C167.34,-93.52 163.11,-76.44 159.39,-61.39"/>
<polygon fill="none" stroke="#63b8ff" points="159.29,-61 153.96,-56.13 156.41,-49.35 161.73,-54.21 159.29,-61"/>
</a>
</g>
<text text-anchor="middle" x="181.5" y="-81" font-family="Helvetica,sans-Serif" font-size="10.00" fill="grey"> +cols</text>
<text text-anchor="middle" x="181.5" y="-70" font-family="Helvetica,sans-Serif" font-size="10.00" fill="grey">+rows</text>
</g>
</g>
</svg>
