<?xml version="1.0" encoding="UTF-8" standalone="no"?>
<!DOCTYPE svg PUBLIC "-//W3C//DTD SVG 1.1//EN"
 "http://www.w3.org/Graphics/SVG/1.1/DTD/svg11.dtd">
<!-- Generated by graphviz version 2.43.0 (0)
 -->
<!-- Title: cv::QRCodeDetectorAruco::Params Pages: 1 -->
<svg width="223pt" height="230pt"
 viewBox="0.00 0.00 223.00 230.00" xmlns="http://www.w3.org/2000/svg" xmlns:xlink="http://www.w3.org/1999/xlink">
<g id="graph0" class="graph" transform="scale(1 1) rotate(0) translate(4 226)">
<title>cv::QRCodeDetectorAruco::Params</title>
<!-- Node1 -->
<g id="Node000001" class="node">
<title>Node1</title>
<g id="a_Node000001"><a xlink:title=" ">
<polygon fill="#999999" stroke="transparent" points="136,-60 0,-60 0,0 136,0 136,-60"/>
<text text-anchor="start" x="5" y="-48" font-family="Helvetica,sans-Serif" font-size="10.00">cv::QRCodeDetectorAruco</text>
<text text-anchor="start" x="46.5" y="-37" font-family="Helvetica,sans-Serif" font-size="10.00">::Params</text>
<text text-anchor="start" x="66" y="-22" font-family="Helvetica,sans-Serif" font-size="10.00"> </text>
<text text-anchor="start" x="21.5" y="-7" font-family="Helvetica,sans-Serif" font-size="10.00">+</text>
<text text-anchor="start" x="52" y="-7" font-family="Helvetica,sans-Serif" font-size="10.00">Params()</text>
<polygon fill="#666666" stroke="#666666" points="0,-32 0,-32 136,-32 136,-32 0,-32"/>
<polygon fill="#666666" stroke="#666666" points="0,-17 0,-17 136,-17 136,-17 0,-17"/>
<polygon fill="none" stroke="#666666" points="0,0 0,-60 136,-60 136,0 0,0"/>
</a>
</g>
</g>
<!-- Node2 -->
<g id="Node000002" class="node">
<title>Node2</title>
<g id="a_Node000002"><a xlink:title=" ">
<polygon fill="white" stroke="transparent" points="84,-222 52,-222 52,-173 84,-173 84,-222"/>
<text text-anchor="start" x="57" y="-209.5" font-family="Helvetica,sans-Serif" font-size="10.00">float</text>
<text text-anchor="start" x="66" y="-194.5" font-family="Helvetica,sans-Serif" font-size="10.00"> </text>
<text text-anchor="start" x="66" y="-179.5" font-family="Helvetica,sans-Serif" font-size="10.00"> </text>
<polygon fill="#666666" stroke="#666666" points="52,-204.5 52,-204.5 84,-204.5 84,-204.5 52,-204.5"/>
<polygon fill="#666666" stroke="#666666" points="52,-189.5 52,-189.5 84,-189.5 84,-189.5 52,-189.5"/>
<polygon fill="none" stroke="#666666" points="52,-173 52,-222 84,-222 84,-173 52,-173"/>
</a>
</g>
</g>
<!-- Node2&#45;&gt;Node1 -->
<g id="edge1_Node000001_Node000002" class="edge">
<title>Node2&#45;&gt;Node1</title>
<g id="a_edge1_Node000001_Node000002"><a xlink:title=" ">
<path fill="none" stroke="#63b8ff" d="M68,-172.79C68,-146.71 68,-104.3 68,-72.65"/>
<polygon fill="none" stroke="#63b8ff" points="68,-72.25 64,-66.25 68,-60.25 72,-66.25 68,-72.25"/>
</a>
</g>
<text text-anchor="middle" x="141.5" y="-147" font-family="Helvetica,sans-Serif" font-size="10.00" fill="grey"> +maxColorsMismatch</text>
<text text-anchor="middle" x="141.5" y="-136" font-family="Helvetica,sans-Serif" font-size="10.00" fill="grey">+maxModuleSizeMismatch</text>
<text text-anchor="middle" x="141.5" y="-125" font-family="Helvetica,sans-Serif" font-size="10.00" fill="grey">+maxPenalties</text>
<text text-anchor="middle" x="141.5" y="-114" font-family="Helvetica,sans-Serif" font-size="10.00" fill="grey">+maxRotation</text>
<text text-anchor="middle" x="141.5" y="-103" font-family="Helvetica,sans-Serif" font-size="10.00" fill="grey">+maxTimingPatternMismatch</text>
<text text-anchor="middle" x="141.5" y="-92" font-family="Helvetica,sans-Serif" font-size="10.00" fill="grey">+minModuleSizeInPyramid</text>
<text text-anchor="middle" x="141.5" y="-81" font-family="Helvetica,sans-Serif" font-size="10.00" fill="grey">+scaleTimingPatternScore</text>
</g>
</g>
</svg>
