<?xml version="1.0" encoding="UTF-8" standalone="no"?>
<!DOCTYPE svg PUBLIC "-//W3C//DTD SVG 1.1//EN"
 "http://www.w3.org/Graphics/SVG/1.1/DTD/svg11.dtd">
<!-- Generated by graphviz version 2.43.0 (0)
 -->
<!-- Title: cv::cuda::SparsePyrLKOpticalFlow Pages: 1 -->
<svg width="182pt" height="542pt"
 viewBox="0.00 0.00 182.00 542.00" xmlns="http://www.w3.org/2000/svg" xmlns:xlink="http://www.w3.org/1999/xlink">
<g id="graph0" class="graph" transform="scale(1 1) rotate(0) translate(4 538)">
<title>cv::cuda::SparsePyrLKOpticalFlow</title>
<!-- Node1 -->
<g id="Node000001" class="node">
<title>Node1</title>
<g id="a_Node000001"><a xlink:title="Class used for calculating a sparse optical flow.">
<polygon fill="#999999" stroke="transparent" points="174,-169 0,-169 0,0 174,0 174,-169"/>
<text text-anchor="start" x="5" y="-156.5" font-family="Helvetica,sans-Serif" font-size="10.00">cv::cuda::SparsePyrLKOpticalFlow</text>
<text text-anchor="start" x="85" y="-141.5" font-family="Helvetica,sans-Serif" font-size="10.00"> </text>
<text text-anchor="start" x="18.5" y="-126.5" font-family="Helvetica,sans-Serif" font-size="10.00">+</text>
<text text-anchor="start" x="46" y="-126.5" font-family="Helvetica,sans-Serif" font-size="10.00">getMaxLevel()</text>
<text text-anchor="start" x="18.5" y="-111.5" font-family="Helvetica,sans-Serif" font-size="10.00">+</text>
<text text-anchor="start" x="46" y="-111.5" font-family="Helvetica,sans-Serif" font-size="10.00">getNumIters()</text>
<text text-anchor="start" x="18.5" y="-96.5" font-family="Helvetica,sans-Serif" font-size="10.00">+</text>
<text text-anchor="start" x="46" y="-96.5" font-family="Helvetica,sans-Serif" font-size="10.00">getUseInitialFlow()</text>
<text text-anchor="start" x="18.5" y="-81.5" font-family="Helvetica,sans-Serif" font-size="10.00">+</text>
<text text-anchor="start" x="46" y="-81.5" font-family="Helvetica,sans-Serif" font-size="10.00">getWinSize()</text>
<text text-anchor="start" x="18.5" y="-66.5" font-family="Helvetica,sans-Serif" font-size="10.00">+</text>
<text text-anchor="start" x="46" y="-66.5" font-family="Helvetica,sans-Serif" font-size="10.00">setMaxLevel()</text>
<text text-anchor="start" x="18.5" y="-51.5" font-family="Helvetica,sans-Serif" font-size="10.00">+</text>
<text text-anchor="start" x="46" y="-51.5" font-family="Helvetica,sans-Serif" font-size="10.00">setNumIters()</text>
<text text-anchor="start" x="18.5" y="-36.5" font-family="Helvetica,sans-Serif" font-size="10.00">+</text>
<text text-anchor="start" x="46" y="-36.5" font-family="Helvetica,sans-Serif" font-size="10.00">setUseInitialFlow()</text>
<text text-anchor="start" x="18.5" y="-21.5" font-family="Helvetica,sans-Serif" font-size="10.00">+</text>
<text text-anchor="start" x="46" y="-21.5" font-family="Helvetica,sans-Serif" font-size="10.00">setWinSize()</text>
<text text-anchor="start" x="18.5" y="-6.5" font-family="Helvetica,sans-Serif" font-size="10.00">+</text>
<text text-anchor="start" x="46" y="-6.5" font-family="Helvetica,sans-Serif" font-size="10.00">create()</text>
<polygon fill="#666666" stroke="#666666" points="0,-151.5 0,-151.5 174,-151.5 174,-151.5 0,-151.5"/>
<polygon fill="#666666" stroke="#666666" points="0,-136.5 0,-136.5 174,-136.5 174,-136.5 0,-136.5"/>
<polygon fill="none" stroke="#666666" points="0,0 0,-169 174,-169 174,0 0,0"/>
</a>
</g>
</g>
<!-- Node2 -->
<g id="Node000002" class="node">
<title>Node2</title>
<g id="a_Node000002"><a xlink:href="../../d5/dcf/classcv_1_1cuda_1_1SparseOpticalFlow.html" target="_top" xlink:title="Base interface for sparse optical flow algorithms.">
<polygon fill="white" stroke="transparent" points="160.5,-254 13.5,-254 13.5,-205 160.5,-205 160.5,-254"/>
<text text-anchor="start" x="19" y="-241.5" font-family="Helvetica,sans-Serif" font-size="10.00">cv::cuda::SparseOpticalFlow</text>
<text text-anchor="start" x="85.5" y="-226.5" font-family="Helvetica,sans-Serif" font-size="10.00"> </text>
<text text-anchor="start" x="42.5" y="-211.5" font-family="Helvetica,sans-Serif" font-size="10.00">+</text>
<text text-anchor="start" x="80" y="-211.5" font-family="Helvetica,sans-Serif" font-size="10.00">calc()</text>
<polygon fill="#666666" stroke="#666666" points="14,-236.5 14,-236.5 161,-236.5 161,-236.5 14,-236.5"/>
<polygon fill="#666666" stroke="#666666" points="14,-221.5 14,-221.5 161,-221.5 161,-221.5 14,-221.5"/>
<polygon fill="none" stroke="#666666" points="13.5,-205 13.5,-254 160.5,-254 160.5,-205 13.5,-205"/>
</a>
</g>
</g>
<!-- Node2&#45;&gt;Node1 -->
<g id="edge1_Node000001_Node000002" class="edge">
<title>Node2&#45;&gt;Node1</title>
<g id="a_edge1_Node000001_Node000002"><a xlink:title=" ">
<path fill="none" stroke="#63b8ff" d="M87,-194.72C87,-186.84 87,-178.1 87,-169.1"/>
<polygon fill="none" stroke="#63b8ff" points="83.5,-194.89 87,-204.89 90.5,-194.89 83.5,-194.89"/>
</a>
</g>
</g>
<!-- Node3 -->
<g id="Node000003" class="node">
<title>Node3</title>
<g id="a_Node000003"><a xlink:href="../../d3/d46/classcv_1_1Algorithm.html" target="_top" xlink:title="This is a base class for all more or less complex algorithms in OpenCV.">
<polygon fill="white" stroke="transparent" points="142,-534 32,-534 32,-290 142,-290 142,-534"/>
<text text-anchor="start" x="54.5" y="-522" font-family="Helvetica,sans-Serif" font-size="10.00">cv::Algorithm</text>
<text text-anchor="start" x="85" y="-507" font-family="Helvetica,sans-Serif" font-size="10.00"> </text>
<text text-anchor="start" x="36" y="-492" font-family="Helvetica,sans-Serif" font-size="10.00">+</text>
<text text-anchor="start" x="49" y="-492" font-family="Helvetica,sans-Serif" font-size="10.00">Algorithm()</text>
<text text-anchor="start" x="36" y="-477" font-family="Helvetica,sans-Serif" font-size="10.00">+</text>
<text text-anchor="start" x="49" y="-477" font-family="Helvetica,sans-Serif" font-size="10.00">~Algorithm()</text>
<text text-anchor="start" x="36" y="-462" font-family="Helvetica,sans-Serif" font-size="10.00">+</text>
<text text-anchor="start" x="49" y="-462" font-family="Helvetica,sans-Serif" font-size="10.00">clear()</text>
<text text-anchor="start" x="36" y="-447" font-family="Helvetica,sans-Serif" font-size="10.00">+</text>
<text text-anchor="start" x="49" y="-447" font-family="Helvetica,sans-Serif" font-size="10.00">empty()</text>
<text text-anchor="start" x="36" y="-432" font-family="Helvetica,sans-Serif" font-size="10.00">+</text>
<text text-anchor="start" x="49" y="-432" font-family="Helvetica,sans-Serif" font-size="10.00">getDefaultName()</text>
<text text-anchor="start" x="36" y="-417" font-family="Helvetica,sans-Serif" font-size="10.00">+</text>
<text text-anchor="start" x="49" y="-417" font-family="Helvetica,sans-Serif" font-size="10.00">read()</text>
<text text-anchor="start" x="36" y="-402" font-family="Helvetica,sans-Serif" font-size="10.00">+</text>
<text text-anchor="start" x="49" y="-402" font-family="Helvetica,sans-Serif" font-size="10.00">save()</text>
<text text-anchor="start" x="36" y="-387" font-family="Helvetica,sans-Serif" font-size="10.00">+</text>
<text text-anchor="start" x="49" y="-387" font-family="Helvetica,sans-Serif" font-size="10.00">write()</text>
<text text-anchor="start" x="36" y="-372" font-family="Helvetica,sans-Serif" font-size="10.00">+</text>
<text text-anchor="start" x="49" y="-372" font-family="Helvetica,sans-Serif" font-size="10.00">write()</text>
<text text-anchor="start" x="36" y="-357" font-family="Helvetica,sans-Serif" font-size="10.00">+</text>
<text text-anchor="start" x="49" y="-357" font-family="Helvetica,sans-Serif" font-size="10.00">write()</text>
<text text-anchor="start" x="36" y="-342" font-family="Helvetica,sans-Serif" font-size="10.00">+</text>
<text text-anchor="start" x="49" y="-342" font-family="Helvetica,sans-Serif" font-size="10.00">load()</text>
<text text-anchor="start" x="36" y="-327" font-family="Helvetica,sans-Serif" font-size="10.00">+</text>
<text text-anchor="start" x="49" y="-327" font-family="Helvetica,sans-Serif" font-size="10.00">loadFromString()</text>
<text text-anchor="start" x="36" y="-312" font-family="Helvetica,sans-Serif" font-size="10.00">+</text>
<text text-anchor="start" x="49" y="-312" font-family="Helvetica,sans-Serif" font-size="10.00">read()</text>
<text text-anchor="start" x="36" y="-297" font-family="Helvetica,sans-Serif" font-size="10.00">#</text>
<text text-anchor="start" x="49" y="-297" font-family="Helvetica,sans-Serif" font-size="10.00">writeFormat()</text>
<polygon fill="#666666" stroke="#666666" points="32,-517 32,-517 142,-517 142,-517 32,-517"/>
<polygon fill="#666666" stroke="#666666" points="32,-502 32,-502 142,-502 142,-502 32,-502"/>
<polygon fill="none" stroke="#666666" points="32,-290 32,-534 142,-534 142,-290 32,-290"/>
</a>
</g>
</g>
<!-- Node3&#45;&gt;Node2 -->
<g id="edge2_Node000002_Node000003" class="edge">
<title>Node3&#45;&gt;Node2</title>
<g id="a_edge2_Node000002_Node000003"><a xlink:title=" ">
<path fill="none" stroke="#63b8ff" d="M87,-279.69C87,-270.18 87,-261.45 87,-254.06"/>
<polygon fill="none" stroke="#63b8ff" points="83.5,-279.85 87,-289.85 90.5,-279.85 83.5,-279.85"/>
</a>
</g>
</g>
</g>
</svg>
