<?xml version="1.0" encoding="UTF-8" standalone="no"?>
<!DOCTYPE svg PUBLIC "-//W3C//DTD SVG 1.1//EN"
 "http://www.w3.org/Graphics/SVG/1.1/DTD/svg11.dtd">
<!-- Generated by graphviz version 2.43.0 (0)
 -->
<!-- Title: cv::videostab::MotionFilterBase Pages: 1 -->
<svg width="172pt" height="187pt"
 viewBox="0.00 0.00 172.00 187.00" xmlns="http://www.w3.org/2000/svg" xmlns:xlink="http://www.w3.org/1999/xlink">
<g id="graph0" class="graph" transform="scale(1 1) rotate(0) translate(4 183)">
<title>cv::videostab::MotionFilterBase</title>
<!-- Node1 -->
<g id="Node000001" class="node">
<title>Node1</title>
<g id="a_Node000001"><a xlink:title=" ">
<polygon fill="#999999" stroke="transparent" points="164,-79 0,-79 0,0 164,0 164,-79"/>
<text text-anchor="start" x="5" y="-66.5" font-family="Helvetica,sans-Serif" font-size="10.00">cv::videostab::MotionFilterBase</text>
<text text-anchor="start" x="80" y="-51.5" font-family="Helvetica,sans-Serif" font-size="10.00"> </text>
<text text-anchor="start" x="15" y="-36.5" font-family="Helvetica,sans-Serif" font-size="10.00">+</text>
<text text-anchor="start" x="39" y="-36.5" font-family="Helvetica,sans-Serif" font-size="10.00">~MotionFilterBase()</text>
<text text-anchor="start" x="15" y="-21.5" font-family="Helvetica,sans-Serif" font-size="10.00">+</text>
<text text-anchor="start" x="39" y="-21.5" font-family="Helvetica,sans-Serif" font-size="10.00">stabilize()</text>
<text text-anchor="start" x="15" y="-6.5" font-family="Helvetica,sans-Serif" font-size="10.00">+</text>
<text text-anchor="start" x="39" y="-6.5" font-family="Helvetica,sans-Serif" font-size="10.00">stabilize()</text>
<polygon fill="#666666" stroke="#666666" points="0,-61.5 0,-61.5 164,-61.5 164,-61.5 0,-61.5"/>
<polygon fill="#666666" stroke="#666666" points="0,-46.5 0,-46.5 164,-46.5 164,-46.5 0,-46.5"/>
<polygon fill="none" stroke="#666666" points="0,0 0,-79 164,-79 164,0 0,0"/>
</a>
</g>
</g>
<!-- Node2 -->
<g id="Node000002" class="node">
<title>Node2</title>
<g id="a_Node000002"><a xlink:href="../../d0/df6/classcv_1_1videostab_1_1IMotionStabilizer.html" target="_top" xlink:title=" ">
<polygon fill="white" stroke="transparent" points="164,-179 0,-179 0,-115 164,-115 164,-179"/>
<text text-anchor="start" x="5" y="-167" font-family="Helvetica,sans-Serif" font-size="10.00">cv::videostab::IMotionStabilizer</text>
<text text-anchor="start" x="80" y="-152" font-family="Helvetica,sans-Serif" font-size="10.00"> </text>
<text text-anchor="start" x="15" y="-137" font-family="Helvetica,sans-Serif" font-size="10.00">+</text>
<text text-anchor="start" x="39" y="-137" font-family="Helvetica,sans-Serif" font-size="10.00">~IMotionStabilizer()</text>
<text text-anchor="start" x="15" y="-122" font-family="Helvetica,sans-Serif" font-size="10.00">+</text>
<text text-anchor="start" x="39" y="-122" font-family="Helvetica,sans-Serif" font-size="10.00">stabilize()</text>
<polygon fill="#666666" stroke="#666666" points="0,-162 0,-162 164,-162 164,-162 0,-162"/>
<polygon fill="#666666" stroke="#666666" points="0,-147 0,-147 164,-147 164,-147 0,-147"/>
<polygon fill="none" stroke="#666666" points="0,-115 0,-179 164,-179 164,-115 0,-115"/>
</a>
</g>
</g>
<!-- Node2&#45;&gt;Node1 -->
<g id="edge1_Node000001_Node000002" class="edge">
<title>Node2&#45;&gt;Node1</title>
<g id="a_edge1_Node000001_Node000002"><a xlink:title=" ">
<path fill="none" stroke="#63b8ff" d="M82,-104.89C82,-96.44 82,-87.58 82,-79.22"/>
<polygon fill="none" stroke="#63b8ff" points="78.5,-104.92 82,-114.92 85.5,-104.92 78.5,-104.92"/>
</a>
</g>
</g>
</g>
</svg>
