<?xml version="1.0" encoding="UTF-8" standalone="no"?>
<!DOCTYPE svg PUBLIC "-//W3C//DTD SVG 1.1//EN"
 "http://www.w3.org/Graphics/SVG/1.1/DTD/svg11.dtd">
<!-- Generated by graphviz version 2.43.0 (0)
 -->
<!-- Title: cv::datasets::PD_caltechObj Pages: 1 -->
<svg width="353pt" height="356pt"
 viewBox="0.00 0.00 352.50 356.00" xmlns="http://www.w3.org/2000/svg" xmlns:xlink="http://www.w3.org/1999/xlink">
<g id="graph0" class="graph" transform="scale(1 1) rotate(0) translate(4 352)">
<title>cv::datasets::PD_caltechObj</title>
<!-- Node1 -->
<g id="Node000001" class="node">
<title>Node1</title>
<g id="a_Node000001"><a xlink:title=" ">
<polygon fill="#999999" stroke="transparent" points="265.5,-49 119.5,-49 119.5,0 265.5,0 265.5,-49"/>
<text text-anchor="start" x="124.5" y="-36.5" font-family="Helvetica,sans-Serif" font-size="10.00">cv::datasets::PD_caltechObj</text>
<text text-anchor="start" x="190.5" y="-21.5" font-family="Helvetica,sans-Serif" font-size="10.00"> </text>
<text text-anchor="start" x="190.5" y="-6.5" font-family="Helvetica,sans-Serif" font-size="10.00"> </text>
<polygon fill="#666666" stroke="#666666" points="119.5,-31.5 119.5,-31.5 265.5,-31.5 265.5,-31.5 119.5,-31.5"/>
<polygon fill="#666666" stroke="#666666" points="119.5,-16.5 119.5,-16.5 265.5,-16.5 265.5,-16.5 119.5,-16.5"/>
<polygon fill="none" stroke="#666666" points="119.5,0 119.5,-49 265.5,-49 265.5,0 119.5,0"/>
</a>
</g>
</g>
<!-- Node2 -->
<g id="Node000002" class="node">
<title>Node2</title>
<g id="a_Node000002"><a xlink:href="../../de/d47/structcv_1_1datasets_1_1Object.html" target="_top" xlink:title=" ">
<polygon fill="white" stroke="transparent" points="107,-145 0,-145 0,-96 107,-96 107,-145"/>
<text text-anchor="start" x="5.5" y="-132.5" font-family="Helvetica,sans-Serif" font-size="10.00">cv::datasets::Object</text>
<text text-anchor="start" x="52" y="-117.5" font-family="Helvetica,sans-Serif" font-size="10.00"> </text>
<text text-anchor="start" x="52" y="-102.5" font-family="Helvetica,sans-Serif" font-size="10.00"> </text>
<polygon fill="#666666" stroke="#666666" points="0.5,-127.5 0.5,-127.5 107.5,-127.5 107.5,-127.5 0.5,-127.5"/>
<polygon fill="#666666" stroke="#666666" points="0.5,-112.5 0.5,-112.5 107.5,-112.5 107.5,-112.5 0.5,-112.5"/>
<polygon fill="none" stroke="#666666" points="0,-96 0,-145 107,-145 107,-96 0,-96"/>
</a>
</g>
</g>
<!-- Node2&#45;&gt;Node1 -->
<g id="edge1_Node000001_Node000002" class="edge">
<title>Node2&#45;&gt;Node1</title>
<g id="a_edge1_Node000001_Node000002"><a xlink:title=" ">
<path fill="none" stroke="#63b8ff" d="M96.98,-90.1C116.44,-76.94 139.08,-61.62 157.44,-49.21"/>
<polygon fill="none" stroke="#63b8ff" points="94.9,-87.28 88.58,-95.78 98.82,-93.08 94.9,-87.28"/>
</a>
</g>
</g>
<!-- Node3 -->
<g id="Node000003" class="node">
<title>Node3</title>
<g id="a_Node000003"><a xlink:title=" ">
<polygon fill="white" stroke="transparent" points="288,-241 229,-241 229,-192 288,-192 288,-241"/>
<text text-anchor="start" x="234.5" y="-228.5" font-family="Helvetica,sans-Serif" font-size="10.00">std::string</text>
<text text-anchor="start" x="257" y="-213.5" font-family="Helvetica,sans-Serif" font-size="10.00"> </text>
<text text-anchor="start" x="257" y="-198.5" font-family="Helvetica,sans-Serif" font-size="10.00"> </text>
<polygon fill="#666666" stroke="#666666" points="229.5,-223.5 229.5,-223.5 288.5,-223.5 288.5,-223.5 229.5,-223.5"/>
<polygon fill="#666666" stroke="#666666" points="229.5,-208.5 229.5,-208.5 288.5,-208.5 288.5,-208.5 229.5,-208.5"/>
<polygon fill="none" stroke="#666666" points="229,-192 229,-241 288,-241 288,-192 229,-192"/>
</a>
</g>
</g>
<!-- Node3&#45;&gt;Node1 -->
<g id="edge2_Node000001_Node000003" class="edge">
<title>Node3&#45;&gt;Node1</title>
<g id="a_edge2_Node000001_Node000003"><a xlink:title=" ">
<path fill="none" stroke="#63b8ff" d="M274.3,-191.79C277.27,-186.18 279.93,-180.06 281.5,-174 289.75,-142.11 334.64,-158.26 273.5,-67 271.1,-63.41 268.28,-60.12 265.18,-57.09"/>
<polygon fill="none" stroke="#63b8ff" points="264.97,-56.93 257.8,-56.18 255.73,-49.28 262.9,-50.02 264.97,-56.93"/>
</a>
</g>
<text text-anchor="middle" x="324.5" y="-118" font-family="Helvetica,sans-Serif" font-size="10.00" fill="grey"> +name</text>
</g>
<!-- Node5 -->
<g id="Node000005" class="node">
<title>Node5</title>
<g id="a_Node000005"><a xlink:title=" ">
<polygon fill="white" stroke="transparent" points="259.5,-145 125.5,-145 125.5,-96 259.5,-96 259.5,-145"/>
<text text-anchor="start" x="130.5" y="-132.5" font-family="Helvetica,sans-Serif" font-size="10.00">std::vector&lt; std::string &gt;</text>
<text text-anchor="start" x="190.5" y="-117.5" font-family="Helvetica,sans-Serif" font-size="10.00"> </text>
<text text-anchor="start" x="190.5" y="-102.5" font-family="Helvetica,sans-Serif" font-size="10.00"> </text>
<polygon fill="#666666" stroke="#666666" points="125.5,-127.5 125.5,-127.5 259.5,-127.5 259.5,-127.5 125.5,-127.5"/>
<polygon fill="#666666" stroke="#666666" points="125.5,-112.5 125.5,-112.5 259.5,-112.5 259.5,-112.5 125.5,-112.5"/>
<polygon fill="none" stroke="#666666" points="125.5,-96 125.5,-145 259.5,-145 259.5,-96 125.5,-96"/>
</a>
</g>
</g>
<!-- Node3&#45;&gt;Node5 -->
<g id="edge5_Node000005_Node000003" class="edge">
<title>Node3&#45;&gt;Node5</title>
<g id="a_edge5_Node000005_Node000003"><a xlink:title=" ">
<path fill="none" stroke="#63b8ff" d="M237.44,-191.91C232.66,-186.19 227.75,-180 223.5,-174 219.34,-168.14 215.21,-161.69 211.38,-155.38"/>
<polygon fill="none" stroke="#63b8ff" points="211.37,-155.36 204.87,-152.23 205.27,-145.03 211.76,-148.16 211.37,-155.36"/>
</a>
</g>
<text text-anchor="middle" x="252.5" y="-166" font-family="Helvetica,sans-Serif" font-size="10.00" fill="grey"> +elements</text>
</g>
<!-- Node4 -->
<g id="Node000004" class="node">
<title>Node4</title>
<g id="a_Node000004"><a xlink:title=" ">
<polygon fill="white" stroke="transparent" points="307.5,-348 209.5,-348 209.5,-288 307.5,-288 307.5,-348"/>
<text text-anchor="start" x="214.5" y="-336" font-family="Helvetica,sans-Serif" font-size="10.00">std::basic_string&lt;</text>
<text text-anchor="start" x="240" y="-325" font-family="Helvetica,sans-Serif" font-size="10.00"> Char &gt;</text>
<text text-anchor="start" x="256.5" y="-310" font-family="Helvetica,sans-Serif" font-size="10.00"> </text>
<text text-anchor="start" x="256.5" y="-295" font-family="Helvetica,sans-Serif" font-size="10.00"> </text>
<polygon fill="#666666" stroke="#666666" points="209.5,-320 209.5,-320 307.5,-320 307.5,-320 209.5,-320"/>
<polygon fill="#666666" stroke="#666666" points="209.5,-305 209.5,-305 307.5,-305 307.5,-305 209.5,-305"/>
<polygon fill="none" stroke="#666666" points="209.5,-288 209.5,-348 307.5,-348 307.5,-288 209.5,-288"/>
</a>
</g>
</g>
<!-- Node4&#45;&gt;Node3 -->
<g id="edge3_Node000003_Node000004" class="edge">
<title>Node4&#45;&gt;Node3</title>
<g id="a_edge3_Node000003_Node000004"><a xlink:title=" ">
<path fill="none" stroke="#63b8ff" d="M258.5,-277.8C258.5,-265.38 258.5,-252.03 258.5,-241.06"/>
<polygon fill="none" stroke="#63b8ff" points="255,-277.95 258.5,-287.95 262,-277.95 255,-277.95"/>
</a>
</g>
</g>
<!-- Node5&#45;&gt;Node1 -->
<g id="edge4_Node000001_Node000005" class="edge">
<title>Node5&#45;&gt;Node1</title>
<g id="a_edge4_Node000001_Node000005"><a xlink:title=" ">
<path fill="none" stroke="#63b8ff" d="M192.5,-95.78C192.5,-85.32 192.5,-72.79 192.5,-61.23"/>
<polygon fill="none" stroke="#63b8ff" points="192.5,-61.21 188.5,-55.21 192.5,-49.21 196.5,-55.21 192.5,-61.21"/>
</a>
</g>
<text text-anchor="middle" x="231" y="-70" font-family="Helvetica,sans-Serif" font-size="10.00" fill="grey"> +imageNames</text>
</g>
<!-- Node6 -->
<g id="Node000006" class="node">
<title>Node6</title>
<g id="a_Node000006"><a xlink:title=" ">
<polygon fill="white" stroke="transparent" points="170,-241 79,-241 79,-192 170,-192 170,-241"/>
<text text-anchor="start" x="84.5" y="-228.5" font-family="Helvetica,sans-Serif" font-size="10.00">std::vector&lt; T &gt;</text>
<text text-anchor="start" x="123" y="-213.5" font-family="Helvetica,sans-Serif" font-size="10.00"> </text>
<text text-anchor="start" x="123" y="-198.5" font-family="Helvetica,sans-Serif" font-size="10.00"> </text>
<polygon fill="#666666" stroke="#666666" points="79.5,-223.5 79.5,-223.5 170.5,-223.5 170.5,-223.5 79.5,-223.5"/>
<polygon fill="#666666" stroke="#666666" points="79.5,-208.5 79.5,-208.5 170.5,-208.5 170.5,-208.5 79.5,-208.5"/>
<polygon fill="none" stroke="#666666" points="79,-192 79,-241 170,-241 170,-192 79,-192"/>
</a>
</g>
</g>
<!-- Node6&#45;&gt;Node5 -->
<g id="edge6_Node000005_Node000006" class="edge">
<title>Node6&#45;&gt;Node5</title>
<g id="a_edge6_Node000005_Node000006"><a xlink:title=" ">
<path fill="none" stroke="orange" d="M130,-181.75C132.01,-175.19 134.76,-168.61 138.5,-163 142.89,-156.41 148.69,-150.43 154.85,-145.18"/>
<polygon fill="orange" stroke="orange" points="126.49,-181.36 127.4,-191.91 133.27,-183.09 126.49,-181.36"/>
</a>
</g>
<text text-anchor="middle" x="176" y="-166" font-family="Helvetica,sans-Serif" font-size="10.00" fill="grey"> &lt; std::string &gt;</text>
</g>
<!-- Node7 -->
<g id="Node000007" class="node">
<title>Node7</title>
<g id="a_Node000007"><a xlink:title=" ">
<polygon fill="white" stroke="transparent" points="133,-342.5 116,-342.5 116,-293.5 133,-293.5 133,-342.5"/>
<text text-anchor="start" x="121.5" y="-330" font-family="Helvetica,sans-Serif" font-size="10.00">T</text>
<text text-anchor="start" x="123" y="-315" font-family="Helvetica,sans-Serif" font-size="10.00"> </text>
<text text-anchor="start" x="123" y="-300" font-family="Helvetica,sans-Serif" font-size="10.00"> </text>
<polygon fill="#666666" stroke="#666666" points="116.5,-325 116.5,-325 133.5,-325 133.5,-325 116.5,-325"/>
<polygon fill="#666666" stroke="#666666" points="116.5,-310 116.5,-310 133.5,-310 133.5,-310 116.5,-310"/>
<polygon fill="none" stroke="#666666" points="116,-293.5 116,-342.5 133,-342.5 133,-293.5 116,-293.5"/>
</a>
</g>
</g>
<!-- Node7&#45;&gt;Node6 -->
<g id="edge7_Node000006_Node000007" class="edge">
<title>Node7&#45;&gt;Node6</title>
<g id="a_edge7_Node000006_Node000007"><a xlink:title=" ">
<path fill="none" stroke="#63b8ff" d="M124.5,-293.42C124.5,-281.49 124.5,-266.75 124.5,-253.44"/>
<polygon fill="none" stroke="#63b8ff" points="124.5,-253.26 120.5,-247.26 124.5,-241.26 128.5,-247.26 124.5,-253.26"/>
</a>
</g>
<text text-anchor="middle" x="153.5" y="-262" font-family="Helvetica,sans-Serif" font-size="10.00" fill="grey"> +elements</text>
</g>
</g>
</svg>
