<?xml version="1.0" encoding="UTF-8" standalone="no"?>
<!DOCTYPE svg PUBLIC "-//W3C//DTD SVG 1.1//EN"
 "http://www.w3.org/Graphics/SVG/1.1/DTD/svg11.dtd">
<!-- Generated by graphviz version 2.43.0 (0)
 -->
<!-- Title: cv::PaniniWarper Pages: 1 -->
<svg width="116pt" height="172pt"
 viewBox="0.00 0.00 116.00 172.00" xmlns="http://www.w3.org/2000/svg" xmlns:xlink="http://www.w3.org/1999/xlink">
<g id="graph0" class="graph" transform="scale(1 1) rotate(0) translate(4 168)">
<title>cv::PaniniWarper</title>
<!-- Node1 -->
<g id="Node000001" class="node">
<title>Node1</title>
<g id="a_Node000001"><a xlink:title=" ">
<polygon fill="#999999" stroke="transparent" points="100.5,-64 7.5,-64 7.5,0 100.5,0 100.5,-64"/>
<text text-anchor="start" x="14" y="-52" font-family="Helvetica,sans-Serif" font-size="10.00">cv::PaniniWarper</text>
<text text-anchor="start" x="52.5" y="-37" font-family="Helvetica,sans-Serif" font-size="10.00"> </text>
<text text-anchor="start" x="12" y="-22" font-family="Helvetica,sans-Serif" font-size="10.00">+</text>
<text text-anchor="start" x="25" y="-22" font-family="Helvetica,sans-Serif" font-size="10.00">PaniniWarper()</text>
<text text-anchor="start" x="12" y="-7" font-family="Helvetica,sans-Serif" font-size="10.00">+</text>
<text text-anchor="start" x="25" y="-7" font-family="Helvetica,sans-Serif" font-size="10.00">create()</text>
<polygon fill="#666666" stroke="#666666" points="8,-47 8,-47 101,-47 101,-47 8,-47"/>
<polygon fill="#666666" stroke="#666666" points="8,-32 8,-32 101,-32 101,-32 8,-32"/>
<polygon fill="none" stroke="#666666" points="7.5,0 7.5,-64 100.5,-64 100.5,0 7.5,0"/>
</a>
</g>
</g>
<!-- Node2 -->
<g id="Node000002" class="node">
<title>Node2</title>
<g id="a_Node000002"><a xlink:href="../../d7/d1c/classcv_1_1WarperCreator.html" target="_top" xlink:title="Image warper factories base class.">
<polygon fill="white" stroke="transparent" points="108,-164 0,-164 0,-100 108,-100 108,-164"/>
<text text-anchor="start" x="10" y="-152" font-family="Helvetica,sans-Serif" font-size="10.00">cv::WarperCreator</text>
<text text-anchor="start" x="52" y="-137" font-family="Helvetica,sans-Serif" font-size="10.00"> </text>
<text text-anchor="start" x="4" y="-122" font-family="Helvetica,sans-Serif" font-size="10.00">+</text>
<text text-anchor="start" x="17" y="-122" font-family="Helvetica,sans-Serif" font-size="10.00">~WarperCreator()</text>
<text text-anchor="start" x="4" y="-107" font-family="Helvetica,sans-Serif" font-size="10.00">+</text>
<text text-anchor="start" x="17" y="-107" font-family="Helvetica,sans-Serif" font-size="10.00">create()</text>
<polygon fill="#666666" stroke="#666666" points="0,-147 0,-147 108,-147 108,-147 0,-147"/>
<polygon fill="#666666" stroke="#666666" points="0,-132 0,-132 108,-132 108,-132 0,-132"/>
<polygon fill="none" stroke="#666666" points="0,-100 0,-164 108,-164 108,-100 0,-100"/>
</a>
</g>
</g>
<!-- Node2&#45;&gt;Node1 -->
<g id="edge1_Node000001_Node000002" class="edge">
<title>Node2&#45;&gt;Node1</title>
<g id="a_edge1_Node000001_Node000002"><a xlink:title=" ">
<path fill="none" stroke="#63b8ff" d="M54,-89.76C54,-81.19 54,-72.28 54,-64.14"/>
<polygon fill="none" stroke="#63b8ff" points="50.5,-89.99 54,-99.99 57.5,-89.99 50.5,-89.99"/>
</a>
</g>
</g>
</g>
</svg>
