<?xml version="1.0" encoding="UTF-8" standalone="no"?>
<!DOCTYPE svg PUBLIC "-//W3C//DTD SVG 1.1//EN"
 "http://www.w3.org/Graphics/SVG/1.1/DTD/svg11.dtd">
<!-- Generated by graphviz version 2.43.0 (0)
 -->
<!-- Title: cv::ocl::OpenCLExecutionContext Pages: 1 -->
<svg width="200pt" height="581pt"
 viewBox="0.00 0.00 200.00 581.00" xmlns="http://www.w3.org/2000/svg" xmlns:xlink="http://www.w3.org/1999/xlink">
<g id="graph0" class="graph" transform="scale(1 1) rotate(0) translate(4 577)">
<title>cv::ocl::OpenCLExecutionContext</title>
<!-- Node1 -->
<g id="Node000001" class="node">
<title>Node1</title>
<g id="a_Node000001"><a xlink:title=" ">
<polygon fill="#999999" stroke="transparent" points="160,-285 0,-285 0,0 160,0 160,-285"/>
<text text-anchor="start" x="19" y="-272.5" font-family="Helvetica,sans-Serif" font-size="10.00">cv::ocl::OpenCLExecution</text>
<text text-anchor="start" x="60.5" y="-261.5" font-family="Helvetica,sans-Serif" font-size="10.00">Context</text>
<text text-anchor="start" x="78" y="-246.5" font-family="Helvetica,sans-Serif" font-size="10.00"> </text>
<text text-anchor="start" x="4" y="-231.5" font-family="Helvetica,sans-Serif" font-size="10.00">+</text>
<text text-anchor="start" x="17" y="-231.5" font-family="Helvetica,sans-Serif" font-size="10.00">OpenCLExecutionContext()</text>
<text text-anchor="start" x="4" y="-216.5" font-family="Helvetica,sans-Serif" font-size="10.00">+</text>
<text text-anchor="start" x="17" y="-216.5" font-family="Helvetica,sans-Serif" font-size="10.00">OpenCLExecutionContext()</text>
<text text-anchor="start" x="4" y="-201.5" font-family="Helvetica,sans-Serif" font-size="10.00">+</text>
<text text-anchor="start" x="17" y="-201.5" font-family="Helvetica,sans-Serif" font-size="10.00">OpenCLExecutionContext()</text>
<text text-anchor="start" x="4" y="-186.5" font-family="Helvetica,sans-Serif" font-size="10.00">+</text>
<text text-anchor="start" x="17" y="-186.5" font-family="Helvetica,sans-Serif" font-size="10.00">~OpenCLExecutionContext()</text>
<text text-anchor="start" x="4" y="-171.5" font-family="Helvetica,sans-Serif" font-size="10.00">+</text>
<text text-anchor="start" x="17" y="-171.5" font-family="Helvetica,sans-Serif" font-size="10.00">bind()</text>
<text text-anchor="start" x="4" y="-156.5" font-family="Helvetica,sans-Serif" font-size="10.00">+</text>
<text text-anchor="start" x="17" y="-156.5" font-family="Helvetica,sans-Serif" font-size="10.00">cloneWithNewQueue()</text>
<text text-anchor="start" x="4" y="-141.5" font-family="Helvetica,sans-Serif" font-size="10.00">+</text>
<text text-anchor="start" x="17" y="-141.5" font-family="Helvetica,sans-Serif" font-size="10.00">cloneWithNewQueue()</text>
<text text-anchor="start" x="4" y="-126.5" font-family="Helvetica,sans-Serif" font-size="10.00">+</text>
<text text-anchor="start" x="17" y="-126.5" font-family="Helvetica,sans-Serif" font-size="10.00">empty()</text>
<text text-anchor="start" x="4" y="-111.5" font-family="Helvetica,sans-Serif" font-size="10.00">+</text>
<text text-anchor="start" x="17" y="-111.5" font-family="Helvetica,sans-Serif" font-size="10.00">getContext()</text>
<text text-anchor="start" x="4" y="-96.5" font-family="Helvetica,sans-Serif" font-size="10.00">+</text>
<text text-anchor="start" x="17" y="-96.5" font-family="Helvetica,sans-Serif" font-size="10.00">getDevice()</text>
<text text-anchor="start" x="17" y="-81.5" font-family="Helvetica,sans-Serif" font-size="10.00">and 6 more...</text>
<text text-anchor="start" x="4" y="-66.5" font-family="Helvetica,sans-Serif" font-size="10.00">+</text>
<text text-anchor="start" x="17" y="-66.5" font-family="Helvetica,sans-Serif" font-size="10.00">create()</text>
<text text-anchor="start" x="4" y="-51.5" font-family="Helvetica,sans-Serif" font-size="10.00">+</text>
<text text-anchor="start" x="17" y="-51.5" font-family="Helvetica,sans-Serif" font-size="10.00">create()</text>
<text text-anchor="start" x="4" y="-36.5" font-family="Helvetica,sans-Serif" font-size="10.00">+</text>
<text text-anchor="start" x="17" y="-36.5" font-family="Helvetica,sans-Serif" font-size="10.00">create()</text>
<text text-anchor="start" x="4" y="-21.5" font-family="Helvetica,sans-Serif" font-size="10.00">+</text>
<text text-anchor="start" x="17" y="-21.5" font-family="Helvetica,sans-Serif" font-size="10.00">getCurrent()</text>
<text text-anchor="start" x="4" y="-6.5" font-family="Helvetica,sans-Serif" font-size="10.00">+</text>
<text text-anchor="start" x="17" y="-6.5" font-family="Helvetica,sans-Serif" font-size="10.00">getCurrentRef()</text>
<polygon fill="#666666" stroke="#666666" points="0,-256.5 0,-256.5 160,-256.5 160,-256.5 0,-256.5"/>
<polygon fill="#666666" stroke="#666666" points="0,-241.5 0,-241.5 160,-241.5 160,-241.5 0,-241.5"/>
<polygon fill="none" stroke="#666666" points="0,0 0,-285 160,-285 160,0 0,0"/>
</a>
</g>
</g>
<!-- Node2 -->
<g id="Node000002" class="node">
<title>Node2</title>
<g id="a_Node000002"><a xlink:title=" ">
<polygon fill="white" stroke="transparent" points="144,-381 16,-381 16,-332 144,-332 144,-381"/>
<text text-anchor="start" x="21" y="-368.5" font-family="Helvetica,sans-Serif" font-size="10.00">std::shared_ptr&lt; Impl &gt;</text>
<text text-anchor="start" x="78" y="-353.5" font-family="Helvetica,sans-Serif" font-size="10.00"> </text>
<text text-anchor="start" x="31.5" y="-338.5" font-family="Helvetica,sans-Serif" font-size="10.00">+</text>
<text text-anchor="start" x="56" y="-338.5" font-family="Helvetica,sans-Serif" font-size="10.00">operator&#45;&gt;()</text>
<polygon fill="#666666" stroke="#666666" points="16,-363.5 16,-363.5 144,-363.5 144,-363.5 16,-363.5"/>
<polygon fill="#666666" stroke="#666666" points="16,-348.5 16,-348.5 144,-348.5 144,-348.5 16,-348.5"/>
<polygon fill="none" stroke="#666666" points="16,-332 16,-381 144,-381 144,-332 16,-332"/>
</a>
</g>
</g>
<!-- Node2&#45;&gt;Node1 -->
<g id="edge1_Node000001_Node000002" class="edge">
<title>Node2&#45;&gt;Node1</title>
<g id="a_edge1_Node000001_Node000002"><a xlink:title=" ">
<path fill="none" stroke="#63b8ff" d="M80,-331.59C80,-322.14 80,-310.45 80,-297.55"/>
<polygon fill="none" stroke="#63b8ff" points="80,-297.39 76,-291.39 80,-285.39 84,-291.39 80,-297.39"/>
</a>
</g>
<text text-anchor="middle" x="89" y="-306" font-family="Helvetica,sans-Serif" font-size="10.00" fill="grey"> #p</text>
</g>
<!-- Node3 -->
<g id="Node000003" class="node">
<title>Node3</title>
<g id="a_Node000003"><a xlink:title=" ">
<polygon fill="white" stroke="transparent" points="62,-477 30,-477 30,-428 62,-428 62,-477"/>
<text text-anchor="start" x="35" y="-464.5" font-family="Helvetica,sans-Serif" font-size="10.00">Impl</text>
<text text-anchor="start" x="44" y="-449.5" font-family="Helvetica,sans-Serif" font-size="10.00"> </text>
<text text-anchor="start" x="44" y="-434.5" font-family="Helvetica,sans-Serif" font-size="10.00"> </text>
<polygon fill="#666666" stroke="#666666" points="30,-459.5 30,-459.5 62,-459.5 62,-459.5 30,-459.5"/>
<polygon fill="#666666" stroke="#666666" points="30,-444.5 30,-444.5 62,-444.5 62,-444.5 30,-444.5"/>
<polygon fill="none" stroke="#666666" points="30,-428 30,-477 62,-477 62,-428 30,-428"/>
</a>
</g>
</g>
<!-- Node3&#45;&gt;Node2 -->
<g id="edge2_Node000002_Node000003" class="edge">
<title>Node3&#45;&gt;Node2</title>
<g id="a_edge2_Node000002_Node000003"><a xlink:title=" ">
<path fill="none" stroke="#63b8ff" d="M54.58,-427.78C58.4,-417.2 62.99,-404.52 67.21,-392.86"/>
<polygon fill="none" stroke="#63b8ff" points="67.34,-392.5 65.62,-385.49 71.42,-381.21 73.14,-388.22 67.34,-392.5"/>
</a>
</g>
<text text-anchor="middle" x="76.5" y="-402" font-family="Helvetica,sans-Serif" font-size="10.00" fill="grey"> +ptr</text>
</g>
<!-- Node4 -->
<g id="Node000004" class="node">
<title>Node4</title>
<g id="a_Node000004"><a xlink:title=" ">
<polygon fill="white" stroke="transparent" points="192,-477 80,-477 80,-428 192,-428 192,-477"/>
<text text-anchor="start" x="85" y="-464.5" font-family="Helvetica,sans-Serif" font-size="10.00">std::shared_ptr&lt; T &gt;</text>
<text text-anchor="start" x="134" y="-449.5" font-family="Helvetica,sans-Serif" font-size="10.00"> </text>
<text text-anchor="start" x="91.5" y="-434.5" font-family="Helvetica,sans-Serif" font-size="10.00">+</text>
<text text-anchor="start" x="112" y="-434.5" font-family="Helvetica,sans-Serif" font-size="10.00">operator&#45;&gt;()</text>
<polygon fill="#666666" stroke="#666666" points="80,-459.5 80,-459.5 192,-459.5 192,-459.5 80,-459.5"/>
<polygon fill="#666666" stroke="#666666" points="80,-444.5 80,-444.5 192,-444.5 192,-444.5 80,-444.5"/>
<polygon fill="none" stroke="#666666" points="80,-428 80,-477 192,-477 192,-428 80,-428"/>
</a>
</g>
</g>
<!-- Node4&#45;&gt;Node2 -->
<g id="edge3_Node000002_Node000004" class="edge">
<title>Node4&#45;&gt;Node2</title>
<g id="a_edge3_Node000002_Node000004"><a xlink:title=" ">
<path fill="none" stroke="orange" d="M116.67,-419.05C109.26,-406.62 100.96,-392.68 94.13,-381.21"/>
<polygon fill="orange" stroke="orange" points="113.74,-420.98 121.87,-427.78 119.76,-417.4 113.74,-420.98"/>
</a>
</g>
<text text-anchor="middle" x="133" y="-402" font-family="Helvetica,sans-Serif" font-size="10.00" fill="grey"> &lt; Impl &gt;</text>
</g>
<!-- Node5 -->
<g id="Node000005" class="node">
<title>Node5</title>
<g id="a_Node000005"><a xlink:title=" ">
<polygon fill="white" stroke="transparent" points="144.5,-573 127.5,-573 127.5,-524 144.5,-524 144.5,-573"/>
<text text-anchor="start" x="133" y="-560.5" font-family="Helvetica,sans-Serif" font-size="10.00">T</text>
<text text-anchor="start" x="134.5" y="-545.5" font-family="Helvetica,sans-Serif" font-size="10.00"> </text>
<text text-anchor="start" x="134.5" y="-530.5" font-family="Helvetica,sans-Serif" font-size="10.00"> </text>
<polygon fill="#666666" stroke="#666666" points="128,-555.5 128,-555.5 145,-555.5 145,-555.5 128,-555.5"/>
<polygon fill="#666666" stroke="#666666" points="128,-540.5 128,-540.5 145,-540.5 145,-540.5 128,-540.5"/>
<polygon fill="none" stroke="#666666" points="127.5,-524 127.5,-573 144.5,-573 144.5,-524 127.5,-524"/>
</a>
</g>
</g>
<!-- Node5&#45;&gt;Node4 -->
<g id="edge4_Node000004_Node000005" class="edge">
<title>Node5&#45;&gt;Node4</title>
<g id="a_edge4_Node000004_Node000005"><a xlink:title=" ">
<path fill="none" stroke="#63b8ff" d="M136,-523.78C136,-513.32 136,-500.79 136,-489.23"/>
<polygon fill="none" stroke="#63b8ff" points="136,-489.21 132,-483.21 136,-477.21 140,-483.21 136,-489.21"/>
</a>
</g>
<text text-anchor="middle" x="148.5" y="-498" font-family="Helvetica,sans-Serif" font-size="10.00" fill="grey"> +ptr</text>
</g>
</g>
</svg>
