<?xml version="1.0" encoding="UTF-8" standalone="no"?>
<!DOCTYPE svg PUBLIC "-//W3C//DTD SVG 1.1//EN"
 "http://www.w3.org/Graphics/SVG/1.1/DTD/svg11.dtd">
<!-- Generated by graphviz version 2.43.0 (0)
 -->
<!-- Title: opencv2/cudev/util/saturate_cast.hpp Pages: 1 -->
<svg width="1032pt" height="357pt"
 viewBox="0.00 0.00 1031.50 357.00" xmlns="http://www.w3.org/2000/svg" xmlns:xlink="http://www.w3.org/1999/xlink">
<g id="graph0" class="graph" transform="scale(1 1) rotate(0) translate(4 353)">
<title>opencv2/cudev/util/saturate_cast.hpp</title>
<!-- Node1 -->
<g id="Node000001" class="node">
<title>Node1</title>
<g id="a_Node000001"><a xlink:title=" ">
<polygon fill="#999999" stroke="#666666" points="550.5,-349 441.5,-349 441.5,-319 550.5,-319 550.5,-349"/>
<text text-anchor="start" x="449.5" y="-337" font-family="Helvetica,sans-Serif" font-size="10.00">opencv2/cudev/util</text>
<text text-anchor="middle" x="496" y="-326" font-family="Helvetica,sans-Serif" font-size="10.00">/saturate_cast.hpp</text>
</a>
</g>
</g>
<!-- Node2 -->
<g id="Node000002" class="node">
<title>Node2</title>
<g id="a_Node000002"><a xlink:href="../../d6/d38/cudev_8hpp.html" target="_top" xlink:title=" ">
<polygon fill="white" stroke="#666666" points="470,-19 360,-19 360,0 470,0 470,-19"/>
<text text-anchor="middle" x="415" y="-7" font-family="Helvetica,sans-Serif" font-size="10.00">opencv2/cudev.hpp</text>
</a>
</g>
</g>
<!-- Node1&#45;&gt;Node2 -->
<g id="edge1_Node000001_Node000002" class="edge">
<title>Node1&#45;&gt;Node2</title>
<g id="a_edge1_Node000001_Node000002"><a xlink:title=" ">
<path fill="none" stroke="#63b8ff" d="M430.84,-329.56C296.25,-320.65 0,-291.06 0,-203 0,-203 0,-203 0,-135 0,-87.46 28.98,-77.24 71,-55 119.9,-29.12 275.83,-17.46 359.95,-12.95"/>
<polygon fill="#63b8ff" stroke="#63b8ff" points="430.82,-333.06 441.02,-330.21 431.27,-326.08 430.82,-333.06"/>
</a>
</g>
</g>
<!-- Node3 -->
<g id="Node000003" class="node">
<title>Node3</title>
<g id="a_Node000003"><a xlink:href="../../db/d4b/contrib_2modules_2cudev_2include_2opencv2_2cudev_2functional_2functional_8hpp.html" target="_top" xlink:title=" ">
<polygon fill="white" stroke="#666666" points="609,-217 467,-217 467,-187 609,-187 609,-217"/>
<text text-anchor="start" x="475" y="-205" font-family="Helvetica,sans-Serif" font-size="10.00">opencv2/cudev/functional</text>
<text text-anchor="middle" x="538" y="-194" font-family="Helvetica,sans-Serif" font-size="10.00">/functional.hpp</text>
</a>
</g>
</g>
<!-- Node1&#45;&gt;Node3 -->
<g id="edge2_Node000001_Node000003" class="edge">
<title>Node1&#45;&gt;Node3</title>
<g id="a_edge2_Node000001_Node000003"><a xlink:title=" ">
<path fill="none" stroke="#63b8ff" d="M500.46,-308.73C503.73,-292.69 508.68,-271.31 515,-253 519.3,-240.53 525.65,-226.98 530.59,-217.13"/>
<polygon fill="#63b8ff" stroke="#63b8ff" points="496.96,-308.4 498.47,-318.89 503.83,-309.74 496.96,-308.4"/>
</a>
</g>
</g>
<!-- Node10 -->
<g id="Node000010" class="node">
<title>Node10</title>
<g id="a_Node000010"><a xlink:href="../../d3/ddc/reduce__to__vec_8hpp.html" target="_top" xlink:title=" ">
<polygon fill="white" stroke="#666666" points="140,-151 28,-151 28,-121 140,-121 140,-151"/>
<text text-anchor="start" x="36" y="-139" font-family="Helvetica,sans-Serif" font-size="10.00">opencv2/cudev/grid</text>
<text text-anchor="middle" x="84" y="-128" font-family="Helvetica,sans-Serif" font-size="10.00">/reduce_to_vec.hpp</text>
</a>
</g>
</g>
<!-- Node1&#45;&gt;Node10 -->
<g id="edge20_Node000001_Node000010" class="edge">
<title>Node1&#45;&gt;Node10</title>
<g id="a_edge20_Node000001_Node000010"><a xlink:title=" ">
<path fill="none" stroke="#63b8ff" d="M456.92,-314.41C374.94,-275.41 186.61,-185.81 113.64,-151.1"/>
<polygon fill="#63b8ff" stroke="#63b8ff" points="455.84,-317.77 466.37,-318.9 458.84,-311.45 455.84,-317.77"/>
</a>
</g>
</g>
<!-- Node12 -->
<g id="Node000012" class="node">
<title>Node12</title>
<g id="a_Node000012"><a xlink:href="../../d8/d8e/interpolation_8hpp.html" target="_top" xlink:title=" ">
<polygon fill="white" stroke="#666666" points="1023.5,-217 904.5,-217 904.5,-187 1023.5,-187 1023.5,-217"/>
<text text-anchor="start" x="912.5" y="-205" font-family="Helvetica,sans-Serif" font-size="10.00">opencv2/cudev/ptr2d</text>
<text text-anchor="middle" x="964" y="-194" font-family="Helvetica,sans-Serif" font-size="10.00">/interpolation.hpp</text>
</a>
</g>
</g>
<!-- Node1&#45;&gt;Node12 -->
<g id="edge21_Node000001_Node000012" class="edge">
<title>Node1&#45;&gt;Node12</title>
<g id="a_edge21_Node000001_Node000012"><a xlink:title=" ">
<path fill="none" stroke="#63b8ff" d="M556.36,-316.23C649.48,-290.37 826.46,-241.21 913.33,-217.08"/>
<polygon fill="#63b8ff" stroke="#63b8ff" points="555.23,-312.92 546.53,-318.96 557.1,-319.66 555.23,-312.92"/>
</a>
</g>
</g>
<!-- Node13 -->
<g id="Node000013" class="node">
<title>Node13</title>
<g id="a_Node000013"><a xlink:href="../../dc/d1b/contrib_2modules_2cudev_2include_2opencv2_2cudev_2util_2vec__math_8hpp.html" target="_top" xlink:title=" ">
<polygon fill="white" stroke="#666666" points="633.5,-283 524.5,-283 524.5,-253 633.5,-253 633.5,-283"/>
<text text-anchor="start" x="532.5" y="-271" font-family="Helvetica,sans-Serif" font-size="10.00">opencv2/cudev/util</text>
<text text-anchor="middle" x="579" y="-260" font-family="Helvetica,sans-Serif" font-size="10.00">/vec_math.hpp</text>
</a>
</g>
</g>
<!-- Node1&#45;&gt;Node13 -->
<g id="edge23_Node000001_Node000013" class="edge">
<title>Node1&#45;&gt;Node13</title>
<g id="a_edge23_Node000001_Node000013"><a xlink:title=" ">
<path fill="none" stroke="#63b8ff" d="M522.61,-312.48C535.02,-302.91 549.47,-291.77 560.63,-283.16"/>
<polygon fill="#63b8ff" stroke="#63b8ff" points="520.2,-309.92 514.42,-318.8 524.48,-315.46 520.2,-309.92"/>
</a>
</g>
</g>
<!-- Node3&#45;&gt;Node2 -->
<g id="edge3_Node000003_Node000002" class="edge">
<title>Node3&#45;&gt;Node2</title>
<g id="a_edge3_Node000003_Node000002"><a xlink:title=" ">
<path fill="none" stroke="#63b8ff" d="M554.46,-177.95C564.44,-160.9 573.12,-137.82 561,-121 531.42,-79.95 491.36,-118 453,-85 432.09,-67.01 421.28,-34.69 417.1,-19.21"/>
<polygon fill="#63b8ff" stroke="#63b8ff" points="551.3,-176.41 548.91,-186.73 557.21,-180.15 551.3,-176.41"/>
</a>
</g>
</g>
<!-- Node4 -->
<g id="Node000004" class="node">
<title>Node4</title>
<g id="a_Node000004"><a xlink:href="../../d5/dbb/contrib_2modules_2cudev_2include_2opencv2_2cudev_2block_2vec__distance_8hpp.html" target="_top" xlink:title=" ">
<polygon fill="white" stroke="#666666" points="581.5,-85 462.5,-85 462.5,-55 581.5,-55 581.5,-85"/>
<text text-anchor="start" x="470.5" y="-73" font-family="Helvetica,sans-Serif" font-size="10.00">opencv2/cudev/block</text>
<text text-anchor="middle" x="522" y="-62" font-family="Helvetica,sans-Serif" font-size="10.00">/vec_distance.hpp</text>
</a>
</g>
</g>
<!-- Node3&#45;&gt;Node4 -->
<g id="edge4_Node000003_Node000004" class="edge">
<title>Node3&#45;&gt;Node4</title>
<g id="a_edge4_Node000003_Node000004"><a xlink:title=" ">
<path fill="none" stroke="#63b8ff" d="M570.36,-180.72C580.14,-172.76 589.7,-162.71 595,-151 600.5,-138.85 601.22,-132.79 595,-121 586.62,-105.1 570.65,-93.29 555.78,-85.15"/>
<polygon fill="#63b8ff" stroke="#63b8ff" points="568.04,-178.08 562.17,-186.9 572.26,-183.67 568.04,-178.08"/>
</a>
</g>
</g>
<!-- Node5 -->
<g id="Node000005" class="node">
<title>Node5</title>
<g id="a_Node000005"><a xlink:href="../../d3/d3c/binary__func_8hpp.html" target="_top" xlink:title=" ">
<polygon fill="white" stroke="#666666" points="714.5,-85 599.5,-85 599.5,-55 714.5,-55 714.5,-85"/>
<text text-anchor="start" x="607.5" y="-73" font-family="Helvetica,sans-Serif" font-size="10.00">opencv2/cudev/expr</text>
<text text-anchor="middle" x="657" y="-62" font-family="Helvetica,sans-Serif" font-size="10.00">/binary_func.hpp</text>
</a>
</g>
</g>
<!-- Node3&#45;&gt;Node5 -->
<g id="edge6_Node000003_Node000005" class="edge">
<title>Node3&#45;&gt;Node5</title>
<g id="a_edge6_Node000003_Node000005"><a xlink:title=" ">
<path fill="none" stroke="#63b8ff" d="M573.73,-181.59C586.81,-173.33 601.07,-162.86 612,-151 630.36,-131.08 644.18,-102.34 651.39,-85.27"/>
<polygon fill="#63b8ff" stroke="#63b8ff" points="571.64,-178.76 564.91,-186.95 575.28,-184.75 571.64,-178.76"/>
</a>
</g>
</g>
<!-- Node6 -->
<g id="Node000006" class="node">
<title>Node6</title>
<g id="a_Node000006"><a xlink:href="../../d7/d8d/binary__op_8hpp.html" target="_top" xlink:title=" ">
<polygon fill="white" stroke="#666666" points="847.5,-85 732.5,-85 732.5,-55 847.5,-55 847.5,-85"/>
<text text-anchor="start" x="740.5" y="-73" font-family="Helvetica,sans-Serif" font-size="10.00">opencv2/cudev/expr</text>
<text text-anchor="middle" x="790" y="-62" font-family="Helvetica,sans-Serif" font-size="10.00">/binary_op.hpp</text>
</a>
</g>
</g>
<!-- Node3&#45;&gt;Node6 -->
<g id="edge8_Node000003_Node000006" class="edge">
<title>Node3&#45;&gt;Node6</title>
<g id="a_edge8_Node000003_Node000006"><a xlink:title=" ">
<path fill="none" stroke="#63b8ff" d="M575.24,-182.35C593.83,-173 616.64,-161.47 637,-151 681.39,-128.19 732.76,-101.21 763.25,-85.13"/>
<polygon fill="#63b8ff" stroke="#63b8ff" points="573.58,-179.26 566.22,-186.88 576.72,-185.52 573.58,-179.26"/>
</a>
</g>
</g>
<!-- Node7 -->
<g id="Node000007" class="node">
<title>Node7</title>
<g id="a_Node000007"><a xlink:href="../../dd/d7e/per__element__func_8hpp.html" target="_top" xlink:title=" ">
<polygon fill="white" stroke="#666666" points="286,-151 158,-151 158,-121 286,-121 286,-151"/>
<text text-anchor="start" x="166" y="-139" font-family="Helvetica,sans-Serif" font-size="10.00">opencv2/cudev/expr</text>
<text text-anchor="middle" x="222" y="-128" font-family="Helvetica,sans-Serif" font-size="10.00">/per_element_func.hpp</text>
</a>
</g>
</g>
<!-- Node3&#45;&gt;Node7 -->
<g id="edge10_Node000003_Node000007" class="edge">
<title>Node3&#45;&gt;Node7</title>
<g id="a_edge10_Node000003_Node000007"><a xlink:title=" ">
<path fill="none" stroke="#63b8ff" d="M458.55,-184.91C405.22,-174.11 335.88,-160.06 286.08,-149.98"/>
<polygon fill="#63b8ff" stroke="#63b8ff" points="458.16,-188.4 468.65,-186.95 459.55,-181.54 458.16,-188.4"/>
</a>
</g>
</g>
<!-- Node8 -->
<g id="Node000008" class="node">
<title>Node8</title>
<g id="a_Node000008"><a xlink:href="../../da/d71/unary__func_8hpp.html" target="_top" xlink:title=" ">
<polygon fill="white" stroke="#666666" points="419.5,-151 304.5,-151 304.5,-121 419.5,-121 419.5,-151"/>
<text text-anchor="start" x="312.5" y="-139" font-family="Helvetica,sans-Serif" font-size="10.00">opencv2/cudev/expr</text>
<text text-anchor="middle" x="362" y="-128" font-family="Helvetica,sans-Serif" font-size="10.00">/unary_func.hpp</text>
</a>
</g>
</g>
<!-- Node3&#45;&gt;Node8 -->
<g id="edge12_Node000003_Node000008" class="edge">
<title>Node3&#45;&gt;Node8</title>
<g id="a_edge12_Node000003_Node000008"><a xlink:title=" ">
<path fill="none" stroke="#63b8ff" d="M489.76,-183.46C461.68,-173.25 426.76,-160.55 400.53,-151.01"/>
<polygon fill="#63b8ff" stroke="#63b8ff" points="488.78,-186.83 499.38,-186.95 491.17,-180.25 488.78,-186.83"/>
</a>
</g>
</g>
<!-- Node9 -->
<g id="Node000009" class="node">
<title>Node9</title>
<g id="a_Node000009"><a xlink:href="../../da/d1f/unary__op_8hpp.html" target="_top" xlink:title=" ">
<polygon fill="white" stroke="#666666" points="552.5,-151 437.5,-151 437.5,-121 552.5,-121 552.5,-151"/>
<text text-anchor="start" x="445.5" y="-139" font-family="Helvetica,sans-Serif" font-size="10.00">opencv2/cudev/expr</text>
<text text-anchor="middle" x="495" y="-128" font-family="Helvetica,sans-Serif" font-size="10.00">/unary_op.hpp</text>
</a>
</g>
</g>
<!-- Node3&#45;&gt;Node9 -->
<g id="edge14_Node000003_Node000009" class="edge">
<title>Node3&#45;&gt;Node9</title>
<g id="a_edge14_Node000003_Node000009"><a xlink:title=" ">
<path fill="none" stroke="#63b8ff" d="M522.71,-178.24C516.64,-169.21 509.86,-159.11 504.52,-151.16"/>
<polygon fill="#63b8ff" stroke="#63b8ff" points="519.97,-180.45 528.46,-186.8 525.79,-176.54 519.97,-180.45"/>
</a>
</g>
</g>
<!-- Node3&#45;&gt;Node10 -->
<g id="edge16_Node000003_Node000010" class="edge">
<title>Node3&#45;&gt;Node10</title>
<g id="a_edge16_Node000003_Node000010"><a xlink:title=" ">
<path fill="none" stroke="#63b8ff" d="M456.39,-192.54C377.47,-183.87 254.65,-169.13 149,-151 146.16,-150.51 143.25,-149.99 140.31,-149.43"/>
<polygon fill="#63b8ff" stroke="#63b8ff" points="456.43,-196.06 466.75,-193.67 457.19,-189.1 456.43,-196.06"/>
</a>
</g>
</g>
<!-- Node4&#45;&gt;Node2 -->
<g id="edge5_Node000004_Node000002" class="edge">
<title>Node4&#45;&gt;Node2</title>
<g id="a_edge5_Node000004_Node000002"><a xlink:title=" ">
<path fill="none" stroke="#63b8ff" d="M487.37,-50.07C468.33,-39.66 445.64,-27.25 430.8,-19.14"/>
<polygon fill="#63b8ff" stroke="#63b8ff" points="485.92,-53.26 496.37,-54.99 489.28,-47.12 485.92,-53.26"/>
</a>
</g>
</g>
<!-- Node5&#45;&gt;Node2 -->
<g id="edge7_Node000005_Node000002" class="edge">
<title>Node5&#45;&gt;Node2</title>
<g id="a_edge7_Node000005_Node000002"><a xlink:title=" ">
<path fill="none" stroke="#63b8ff" d="M589.34,-52.64C544.26,-41.75 486.83,-27.86 450.48,-19.08"/>
<polygon fill="#63b8ff" stroke="#63b8ff" points="588.8,-56.11 599.34,-55.06 590.44,-49.31 588.8,-56.11"/>
</a>
</g>
</g>
<!-- Node6&#45;&gt;Node2 -->
<g id="edge9_Node000006_Node000002" class="edge">
<title>Node6&#45;&gt;Node2</title>
<g id="a_edge9_Node000006_Node000002"><a xlink:title=" ">
<path fill="none" stroke="#63b8ff" d="M722.3,-54.95C627.96,-38.5 529.91,-25.14 470.25,-17.42"/>
<polygon fill="#63b8ff" stroke="#63b8ff" points="721.85,-58.42 732.3,-56.7 723.06,-51.53 721.85,-58.42"/>
</a>
</g>
</g>
<!-- Node7&#45;&gt;Node2 -->
<g id="edge11_Node000007_Node000002" class="edge">
<title>Node7&#45;&gt;Node2</title>
<g id="a_edge11_Node000007_Node000002"><a xlink:title=" ">
<path fill="none" stroke="#63b8ff" d="M252.34,-115.43C295.03,-87.89 371.02,-38.87 401.65,-19.11"/>
<polygon fill="#63b8ff" stroke="#63b8ff" points="250.27,-112.6 243.76,-120.96 254.06,-118.48 250.27,-112.6"/>
</a>
</g>
</g>
<!-- Node8&#45;&gt;Node2 -->
<g id="edge13_Node000008_Node000002" class="edge">
<title>Node8&#45;&gt;Node2</title>
<g id="a_edge13_Node000008_Node000002"><a xlink:title=" ">
<path fill="none" stroke="#63b8ff" d="M365.55,-110.53C368.52,-94.24 373.65,-72.67 382,-55 388.49,-41.26 399.54,-27.53 407.05,-19.03"/>
<polygon fill="#63b8ff" stroke="#63b8ff" points="362.02,-110.41 363.82,-120.85 368.92,-111.56 362.02,-110.41"/>
</a>
</g>
</g>
<!-- Node9&#45;&gt;Node2 -->
<g id="edge15_Node000009_Node000002" class="edge">
<title>Node9&#45;&gt;Node2</title>
<g id="a_edge15_Node000009_Node000002"><a xlink:title=" ">
<path fill="none" stroke="#63b8ff" d="M451.82,-115.6C439.48,-107.88 427.38,-97.75 420,-85 407.79,-63.91 410.82,-33.62 413.29,-19.01"/>
<polygon fill="#63b8ff" stroke="#63b8ff" points="450.39,-118.81 460.79,-120.8 453.89,-112.76 450.39,-118.81"/>
</a>
</g>
</g>
<!-- Node10&#45;&gt;Node2 -->
<g id="edge17_Node000010_Node000002" class="edge">
<title>Node10&#45;&gt;Node2</title>
<g id="a_edge17_Node000010_Node000002"><a xlink:title=" ">
<path fill="none" stroke="#63b8ff" d="M131.07,-117.29C203.2,-90.16 338.36,-39.33 392.11,-19.11"/>
<polygon fill="#63b8ff" stroke="#63b8ff" points="129.45,-114.16 121.33,-120.96 131.92,-120.72 129.45,-114.16"/>
</a>
</g>
</g>
<!-- Node11 -->
<g id="Node000011" class="node">
<title>Node11</title>
<g id="a_Node000011"><a xlink:href="../../d2/da5/reduction_8hpp.html" target="_top" xlink:title=" ">
<polygon fill="white" stroke="#666666" points="195.5,-85 80.5,-85 80.5,-55 195.5,-55 195.5,-85"/>
<text text-anchor="start" x="88.5" y="-73" font-family="Helvetica,sans-Serif" font-size="10.00">opencv2/cudev/expr</text>
<text text-anchor="middle" x="138" y="-62" font-family="Helvetica,sans-Serif" font-size="10.00">/reduction.hpp</text>
</a>
</g>
</g>
<!-- Node10&#45;&gt;Node11 -->
<g id="edge18_Node000010_Node000011" class="edge">
<title>Node10&#45;&gt;Node11</title>
<g id="a_edge18_Node000010_Node000011"><a xlink:title=" ">
<path fill="none" stroke="#63b8ff" d="M102.49,-113.09C110.28,-103.85 119.13,-93.36 126.05,-85.16"/>
<polygon fill="#63b8ff" stroke="#63b8ff" points="99.76,-110.9 95.98,-120.8 105.11,-115.41 99.76,-110.9"/>
</a>
</g>
</g>
<!-- Node11&#45;&gt;Node2 -->
<g id="edge19_Node000011_Node000002" class="edge">
<title>Node11&#45;&gt;Node2</title>
<g id="a_edge19_Node000011_Node000002"><a xlink:title=" ">
<path fill="none" stroke="#63b8ff" d="M205.7,-54.7C258.51,-43.55 330.11,-28.43 374.39,-19.08"/>
<polygon fill="#63b8ff" stroke="#63b8ff" points="204.79,-51.32 195.73,-56.81 206.24,-58.17 204.79,-51.32"/>
</a>
</g>
</g>
<!-- Node12&#45;&gt;Node2 -->
<g id="edge22_Node000012_Node000002" class="edge">
<title>Node12&#45;&gt;Node2</title>
<g id="a_edge22_Node000012_Node000002"><a xlink:title=" ">
<path fill="none" stroke="#63b8ff" d="M959.31,-176.9C951.4,-143.37 931.97,-83.56 890,-55 855.93,-31.82 587.8,-17.79 470.09,-12.69"/>
<polygon fill="#63b8ff" stroke="#63b8ff" points="955.92,-177.77 961.49,-186.79 962.76,-176.27 955.92,-177.77"/>
</a>
</g>
</g>
<!-- Node13&#45;&gt;Node2 -->
<g id="edge24_Node000013_Node000002" class="edge">
<title>Node13&#45;&gt;Node2</title>
<g id="a_edge24_Node000013_Node000002"><a xlink:title=" ">
<path fill="none" stroke="#63b8ff" d="M637.2,-249.95C739.56,-217.22 933.9,-141.16 856,-55 830.58,-26.89 583.13,-15.69 470.43,-12.02"/>
<polygon fill="#63b8ff" stroke="#63b8ff" points="636.08,-246.63 627.6,-252.98 638.19,-253.31 636.08,-246.63"/>
</a>
</g>
</g>
<!-- Node13&#45;&gt;Node3 -->
<g id="edge25_Node000013_Node000003" class="edge">
<title>Node13&#45;&gt;Node3</title>
<g id="a_edge25_Node000013_Node000003"><a xlink:title=" ">
<path fill="none" stroke="#63b8ff" d="M564.42,-244.24C558.64,-235.21 552.16,-225.11 547.07,-217.16"/>
<polygon fill="#63b8ff" stroke="#63b8ff" points="561.56,-246.26 569.9,-252.8 567.45,-242.49 561.56,-246.26"/>
</a>
</g>
</g>
</g>
</svg>
