<?xml version="1.0" encoding="UTF-8" standalone="no"?>
<!DOCTYPE svg PUBLIC "-//W3C//DTD SVG 1.1//EN"
 "http://www.w3.org/Graphics/SVG/1.1/DTD/svg11.dtd">
<!-- Generated by graphviz version 2.43.0 (0)
 -->
<!-- Title: cv::gapi::fluid::View::Cache Pages: 1 -->
<svg width="660pt" height="763pt"
 viewBox="0.00 0.00 659.50 763.00" xmlns="http://www.w3.org/2000/svg" xmlns:xlink="http://www.w3.org/1999/xlink">
<g id="graph0" class="graph" transform="scale(1 1) rotate(0) translate(4 759)">
<title>cv::gapi::fluid::View::Cache</title>
<!-- Node1 -->
<g id="Node000001" class="node">
<title>Node1</title>
<g id="a_Node000001"><a xlink:title=" ">
<polygon fill="#999999" stroke="transparent" points="442.5,-60 337.5,-60 337.5,0 442.5,0 442.5,-60"/>
<text text-anchor="start" x="343" y="-48" font-family="Helvetica,sans-Serif" font-size="10.00">cv::gapi::fluid::View</text>
<text text-anchor="start" x="372" y="-37" font-family="Helvetica,sans-Serif" font-size="10.00">::Cache</text>
<text text-anchor="start" x="388.5" y="-22" font-family="Helvetica,sans-Serif" font-size="10.00"> </text>
<text text-anchor="start" x="353" y="-7" font-family="Helvetica,sans-Serif" font-size="10.00">+</text>
<text text-anchor="start" x="377" y="-7" font-family="Helvetica,sans-Serif" font-size="10.00">linePtr()</text>
<polygon fill="#666666" stroke="#666666" points="338,-32 338,-32 443,-32 443,-32 338,-32"/>
<polygon fill="#666666" stroke="#666666" points="338,-17 338,-17 443,-17 443,-17 338,-17"/>
<polygon fill="none" stroke="#666666" points="337.5,0 337.5,-60 442.5,-60 442.5,0 337.5,0"/>
</a>
</g>
</g>
<!-- Node2 -->
<g id="Node000002" class="node">
<title>Node2</title>
<g id="a_Node000002"><a xlink:title=" ">
<polygon fill="white" stroke="transparent" points="153,-482.5 53,-482.5 53,-422.5 153,-422.5 153,-482.5"/>
<text text-anchor="start" x="58" y="-470.5" font-family="Helvetica,sans-Serif" font-size="10.00">std::vector&lt; const</text>
<text text-anchor="start" x="74.5" y="-459.5" font-family="Helvetica,sans-Serif" font-size="10.00"> uint8_t * &gt;</text>
<text text-anchor="start" x="101" y="-444.5" font-family="Helvetica,sans-Serif" font-size="10.00"> </text>
<text text-anchor="start" x="101" y="-429.5" font-family="Helvetica,sans-Serif" font-size="10.00"> </text>
<polygon fill="#666666" stroke="#666666" points="53,-454.5 53,-454.5 153,-454.5 153,-454.5 53,-454.5"/>
<polygon fill="#666666" stroke="#666666" points="53,-439.5 53,-439.5 153,-439.5 153,-439.5 53,-439.5"/>
<polygon fill="none" stroke="#666666" points="53,-422.5 53,-482.5 153,-482.5 153,-422.5 53,-422.5"/>
</a>
</g>
</g>
<!-- Node2&#45;&gt;Node1 -->
<g id="edge1_Node000001_Node000002" class="edge">
<title>Node2&#45;&gt;Node1</title>
<g id="a_edge1_Node000001_Node000002"><a xlink:title=" ">
<path fill="none" stroke="#63b8ff" d="M111.07,-422.04C129.74,-358.26 181.17,-205.25 269,-107 285.12,-88.97 306.51,-73.65 326.83,-61.59"/>
<polygon fill="none" stroke="#63b8ff" points="326.9,-61.54 330.12,-55.09 337.32,-55.58 334.1,-62.03 326.9,-61.54"/>
</a>
</g>
<text text-anchor="middle" x="301" y="-204" font-family="Helvetica,sans-Serif" font-size="10.00" fill="grey"> +m_linePtrs</text>
</g>
<!-- Node3 -->
<g id="Node000003" class="node">
<title>Node3</title>
<g id="a_Node000003"><a xlink:title=" ">
<polygon fill="white" stroke="transparent" points="44,-659 0,-659 0,-610 44,-610 44,-659"/>
<text text-anchor="start" x="5" y="-646.5" font-family="Helvetica,sans-Serif" font-size="10.00">uint8_t</text>
<text text-anchor="start" x="20" y="-631.5" font-family="Helvetica,sans-Serif" font-size="10.00"> </text>
<text text-anchor="start" x="20" y="-616.5" font-family="Helvetica,sans-Serif" font-size="10.00"> </text>
<polygon fill="#666666" stroke="#666666" points="0,-641.5 0,-641.5 44,-641.5 44,-641.5 0,-641.5"/>
<polygon fill="#666666" stroke="#666666" points="0,-626.5 0,-626.5 44,-626.5 44,-626.5 0,-626.5"/>
<polygon fill="none" stroke="#666666" points="0,-610 0,-659 44,-659 44,-610 0,-610"/>
</a>
</g>
</g>
<!-- Node3&#45;&gt;Node2 -->
<g id="edge2_Node000002_Node000003" class="edge">
<title>Node3&#45;&gt;Node2</title>
<g id="a_edge2_Node000002_Node000003"><a xlink:title=" ">
<path fill="none" stroke="#63b8ff" d="M24.49,-609.74C26.27,-597.58 29.21,-582.7 34,-570 44.27,-542.78 60.73,-514.66 75,-492.86"/>
<polygon fill="none" stroke="#63b8ff" points="75.13,-492.67 75.14,-485.46 81.8,-482.7 81.79,-489.91 75.13,-492.67"/>
</a>
</g>
<text text-anchor="middle" x="63" y="-578.5" font-family="Helvetica,sans-Serif" font-size="10.00" fill="grey"> +elements</text>
</g>
<!-- Node4 -->
<g id="Node000004" class="node">
<title>Node4</title>
<g id="a_Node000004"><a xlink:title=" ">
<polygon fill="white" stroke="transparent" points="211.5,-659 120.5,-659 120.5,-610 211.5,-610 211.5,-659"/>
<text text-anchor="start" x="126" y="-646.5" font-family="Helvetica,sans-Serif" font-size="10.00">std::vector&lt; T &gt;</text>
<text text-anchor="start" x="164.5" y="-631.5" font-family="Helvetica,sans-Serif" font-size="10.00"> </text>
<text text-anchor="start" x="164.5" y="-616.5" font-family="Helvetica,sans-Serif" font-size="10.00"> </text>
<polygon fill="#666666" stroke="#666666" points="121,-641.5 121,-641.5 212,-641.5 212,-641.5 121,-641.5"/>
<polygon fill="#666666" stroke="#666666" points="121,-626.5 121,-626.5 212,-626.5 212,-626.5 121,-626.5"/>
<polygon fill="none" stroke="#666666" points="120.5,-610 120.5,-659 211.5,-659 211.5,-610 120.5,-610"/>
</a>
</g>
</g>
<!-- Node4&#45;&gt;Node2 -->
<g id="edge3_Node000002_Node000004" class="edge">
<title>Node4&#45;&gt;Node2</title>
<g id="a_edge3_Node000002_Node000004"><a xlink:title=" ">
<path fill="none" stroke="orange" d="M112.77,-603.9C109.34,-600.29 106.33,-596.33 104,-592 85.7,-558.02 89.95,-512.21 95.67,-482.76"/>
<polygon fill="orange" stroke="orange" points="110.58,-606.64 120.32,-610.8 115.3,-601.47 110.58,-606.64"/>
</a>
</g>
<text text-anchor="middle" x="152.5" y="-578.5" font-family="Helvetica,sans-Serif" font-size="10.00" fill="grey"> &lt; const uint8_t * &gt;</text>
</g>
<!-- Node11 -->
<g id="Node000011" class="node">
<title>Node11</title>
<g id="a_Node000011"><a xlink:title=" ">
<polygon fill="white" stroke="transparent" points="322,-477 224,-477 224,-428 322,-428 322,-477"/>
<text text-anchor="start" x="229" y="-464.5" font-family="Helvetica,sans-Serif" font-size="10.00">std::vector&lt; int &gt;</text>
<text text-anchor="start" x="271" y="-449.5" font-family="Helvetica,sans-Serif" font-size="10.00"> </text>
<text text-anchor="start" x="271" y="-434.5" font-family="Helvetica,sans-Serif" font-size="10.00"> </text>
<polygon fill="#666666" stroke="#666666" points="224,-459.5 224,-459.5 322,-459.5 322,-459.5 224,-459.5"/>
<polygon fill="#666666" stroke="#666666" points="224,-444.5 224,-444.5 322,-444.5 322,-444.5 224,-444.5"/>
<polygon fill="none" stroke="#666666" points="224,-428 224,-477 322,-477 322,-428 224,-428"/>
</a>
</g>
</g>
<!-- Node4&#45;&gt;Node11 -->
<g id="edge12_Node000011_Node000004" class="edge">
<title>Node4&#45;&gt;Node11</title>
<g id="a_edge12_Node000011_Node000004"><a xlink:title=" ">
<path fill="none" stroke="orange" d="M193.94,-601.78C196.43,-598.55 198.82,-595.26 201,-592 226.56,-553.83 249.83,-505.49 262.65,-477.18"/>
<polygon fill="orange" stroke="orange" points="191.18,-599.63 187.67,-609.63 196.65,-604 191.18,-599.63"/>
</a>
</g>
<text text-anchor="middle" x="233.5" y="-578.5" font-family="Helvetica,sans-Serif" font-size="10.00" fill="grey"> &lt; int &gt;</text>
</g>
<!-- Node5 -->
<g id="Node000005" class="node">
<title>Node5</title>
<g id="a_Node000005"><a xlink:title=" ">
<polygon fill="white" stroke="transparent" points="174.5,-755 157.5,-755 157.5,-706 174.5,-706 174.5,-755"/>
<text text-anchor="start" x="163" y="-742.5" font-family="Helvetica,sans-Serif" font-size="10.00">T</text>
<text text-anchor="start" x="164.5" y="-727.5" font-family="Helvetica,sans-Serif" font-size="10.00"> </text>
<text text-anchor="start" x="164.5" y="-712.5" font-family="Helvetica,sans-Serif" font-size="10.00"> </text>
<polygon fill="#666666" stroke="#666666" points="158,-737.5 158,-737.5 175,-737.5 175,-737.5 158,-737.5"/>
<polygon fill="#666666" stroke="#666666" points="158,-722.5 158,-722.5 175,-722.5 175,-722.5 158,-722.5"/>
<polygon fill="none" stroke="#666666" points="157.5,-706 157.5,-755 174.5,-755 174.5,-706 157.5,-706"/>
</a>
</g>
</g>
<!-- Node5&#45;&gt;Node4 -->
<g id="edge4_Node000004_Node000005" class="edge">
<title>Node5&#45;&gt;Node4</title>
<g id="a_edge4_Node000004_Node000005"><a xlink:title=" ">
<path fill="none" stroke="#63b8ff" d="M166,-705.78C166,-695.32 166,-682.79 166,-671.23"/>
<polygon fill="none" stroke="#63b8ff" points="166,-671.21 162,-665.21 166,-659.21 170,-665.21 166,-671.21"/>
</a>
</g>
<text text-anchor="middle" x="195" y="-680" font-family="Helvetica,sans-Serif" font-size="10.00" fill="grey"> +elements</text>
</g>
<!-- Node6 -->
<g id="Node000006" class="node">
<title>Node6</title>
<g id="a_Node000006"><a xlink:href="../../d0/d82/structcv_1_1GMatDesc.html" target="_top" xlink:title=" ">
<polygon fill="white" stroke="transparent" points="438,-306 342,-306 342,-107 438,-107 438,-306"/>
<text text-anchor="start" x="356.5" y="-293.5" font-family="Helvetica,sans-Serif" font-size="10.00">cv::GMatDesc</text>
<text text-anchor="start" x="388" y="-278.5" font-family="Helvetica,sans-Serif" font-size="10.00"> </text>
<text text-anchor="start" x="346" y="-263.5" font-family="Helvetica,sans-Serif" font-size="10.00">+</text>
<text text-anchor="start" x="359" y="-263.5" font-family="Helvetica,sans-Serif" font-size="10.00">GMatDesc()</text>
<text text-anchor="start" x="346" y="-248.5" font-family="Helvetica,sans-Serif" font-size="10.00">+</text>
<text text-anchor="start" x="359" y="-248.5" font-family="Helvetica,sans-Serif" font-size="10.00">GMatDesc()</text>
<text text-anchor="start" x="346" y="-233.5" font-family="Helvetica,sans-Serif" font-size="10.00">+</text>
<text text-anchor="start" x="359" y="-233.5" font-family="Helvetica,sans-Serif" font-size="10.00">GMatDesc()</text>
<text text-anchor="start" x="346" y="-218.5" font-family="Helvetica,sans-Serif" font-size="10.00">+</text>
<text text-anchor="start" x="359" y="-218.5" font-family="Helvetica,sans-Serif" font-size="10.00">GMatDesc()</text>
<text text-anchor="start" x="346" y="-203.5" font-family="Helvetica,sans-Serif" font-size="10.00">+</text>
<text text-anchor="start" x="359" y="-203.5" font-family="Helvetica,sans-Serif" font-size="10.00">asInterleaved()</text>
<text text-anchor="start" x="346" y="-188.5" font-family="Helvetica,sans-Serif" font-size="10.00">+</text>
<text text-anchor="start" x="359" y="-188.5" font-family="Helvetica,sans-Serif" font-size="10.00">asPlanar()</text>
<text text-anchor="start" x="346" y="-173.5" font-family="Helvetica,sans-Serif" font-size="10.00">+</text>
<text text-anchor="start" x="359" y="-173.5" font-family="Helvetica,sans-Serif" font-size="10.00">asPlanar()</text>
<text text-anchor="start" x="346" y="-158.5" font-family="Helvetica,sans-Serif" font-size="10.00">+</text>
<text text-anchor="start" x="359" y="-158.5" font-family="Helvetica,sans-Serif" font-size="10.00">canDescribe()</text>
<text text-anchor="start" x="346" y="-143.5" font-family="Helvetica,sans-Serif" font-size="10.00">+</text>
<text text-anchor="start" x="359" y="-143.5" font-family="Helvetica,sans-Serif" font-size="10.00">canDescribe()</text>
<text text-anchor="start" x="346" y="-128.5" font-family="Helvetica,sans-Serif" font-size="10.00">+</text>
<text text-anchor="start" x="359" y="-128.5" font-family="Helvetica,sans-Serif" font-size="10.00">isND()</text>
<text text-anchor="start" x="359" y="-113.5" font-family="Helvetica,sans-Serif" font-size="10.00">and 7 more...</text>
<polygon fill="#666666" stroke="#666666" points="342,-288.5 342,-288.5 438,-288.5 438,-288.5 342,-288.5"/>
<polygon fill="#666666" stroke="#666666" points="342,-273.5 342,-273.5 438,-273.5 438,-273.5 342,-273.5"/>
<polygon fill="none" stroke="#666666" points="342,-107 342,-306 438,-306 438,-107 342,-107"/>
</a>
</g>
</g>
<!-- Node6&#45;&gt;Node1 -->
<g id="edge5_Node000001_Node000006" class="edge">
<title>Node6&#45;&gt;Node1</title>
<g id="a_edge5_Node000001_Node000006"><a xlink:title=" ">
<path fill="none" stroke="#63b8ff" d="M390,-106.78C390,-94.72 390,-82.95 390,-72.43"/>
<polygon fill="none" stroke="#63b8ff" points="390,-72.27 386,-66.27 390,-60.27 394,-66.27 390,-72.27"/>
</a>
</g>
<text text-anchor="middle" x="414.5" y="-81" font-family="Helvetica,sans-Serif" font-size="10.00" fill="grey"> +m_desc</text>
</g>
<!-- Node7 -->
<g id="Node000007" class="node">
<title>Node7</title>
<g id="a_Node000007"><a xlink:title=" ">
<polygon fill="white" stroke="transparent" points="369.5,-659 346.5,-659 346.5,-610 369.5,-610 369.5,-659"/>
<text text-anchor="start" x="352" y="-646.5" font-family="Helvetica,sans-Serif" font-size="10.00">int</text>
<text text-anchor="start" x="356.5" y="-631.5" font-family="Helvetica,sans-Serif" font-size="10.00"> </text>
<text text-anchor="start" x="356.5" y="-616.5" font-family="Helvetica,sans-Serif" font-size="10.00"> </text>
<polygon fill="#666666" stroke="#666666" points="347,-641.5 347,-641.5 370,-641.5 370,-641.5 347,-641.5"/>
<polygon fill="#666666" stroke="#666666" points="347,-626.5 347,-626.5 370,-626.5 370,-626.5 347,-626.5"/>
<polygon fill="none" stroke="#666666" points="346.5,-610 346.5,-659 369.5,-659 369.5,-610 346.5,-610"/>
</a>
</g>
</g>
<!-- Node7&#45;&gt;Node1 -->
<g id="edge13_Node000001_Node000007" class="edge">
<title>Node7&#45;&gt;Node1</title>
<g id="a_edge13_Node000001_Node000007"><a xlink:title=" ">
<path fill="none" stroke="#63b8ff" d="M369.69,-627.91C391.18,-616.89 436.37,-590.09 454,-552 464.8,-528.67 448.5,-125.14 447,-107 445.92,-94.03 449.14,-89.47 443,-78 441.37,-74.95 439.46,-72 437.34,-69.17"/>
<polygon fill="none" stroke="#63b8ff" points="437.31,-69.14 430.37,-67.18 429.51,-60.02 436.45,-61.98 437.31,-69.14"/>
</a>
</g>
<text text-anchor="middle" x="496.5" y="-327" font-family="Helvetica,sans-Serif" font-size="10.00" fill="grey"> +m_border_size</text>
</g>
<!-- Node7&#45;&gt;Node6 -->
<g id="edge6_Node000006_Node000007" class="edge">
<title>Node7&#45;&gt;Node6</title>
<g id="a_edge6_Node000006_Node000007"><a xlink:title=" ">
<path fill="none" stroke="#63b8ff" d="M357.77,-609.8C357.51,-561.41 358.02,-447.83 367,-353 368.06,-341.76 369.45,-330.06 371,-318.41"/>
<polygon fill="none" stroke="#63b8ff" points="371.04,-318.18 367.9,-311.69 372.69,-306.3 375.82,-312.79 371.04,-318.18"/>
</a>
</g>
<text text-anchor="middle" x="385.5" y="-455.5" font-family="Helvetica,sans-Serif" font-size="10.00" fill="grey"> +chan</text>
<text text-anchor="middle" x="385.5" y="-444.5" font-family="Helvetica,sans-Serif" font-size="10.00" fill="grey">+depth</text>
</g>
<!-- Node7&#45;&gt;Node11 -->
<g id="edge11_Node000011_Node000007" class="edge">
<title>Node7&#45;&gt;Node11</title>
<g id="a_edge11_Node000011_Node000007"><a xlink:title=" ">
<path fill="none" stroke="#63b8ff" d="M346.44,-630.48C329.93,-625.49 300.03,-613.85 286,-592 266.45,-561.55 265.33,-519.3 267.77,-489.5"/>
<polygon fill="none" stroke="#63b8ff" points="267.81,-489.1 264.44,-482.72 269.03,-477.16 272.4,-483.54 267.81,-489.1"/>
</a>
</g>
<text text-anchor="middle" x="315" y="-578.5" font-family="Helvetica,sans-Serif" font-size="10.00" fill="grey"> +elements</text>
</g>
<!-- Node8 -->
<g id="Node000008" class="node">
<title>Node8</title>
<g id="a_Node000008"><a xlink:href="../../d6/d50/classcv_1_1Size__.html" target="_top" xlink:title="Template class for specifying the size of an image or rectangle.">
<polygon fill="white" stroke="transparent" points="651.5,-552 506.5,-552 506.5,-353 651.5,-353 651.5,-552"/>
<text text-anchor="start" x="538.5" y="-539.5" font-family="Helvetica,sans-Serif" font-size="10.00">cv::Size_&lt; _Tp &gt;</text>
<text text-anchor="start" x="577.5" y="-524.5" font-family="Helvetica,sans-Serif" font-size="10.00"> </text>
<text text-anchor="start" x="511" y="-509.5" font-family="Helvetica,sans-Serif" font-size="10.00">+</text>
<text text-anchor="start" x="524" y="-509.5" font-family="Helvetica,sans-Serif" font-size="10.00">Size_()</text>
<text text-anchor="start" x="511" y="-494.5" font-family="Helvetica,sans-Serif" font-size="10.00">+</text>
<text text-anchor="start" x="524" y="-494.5" font-family="Helvetica,sans-Serif" font-size="10.00">Size_()</text>
<text text-anchor="start" x="511" y="-479.5" font-family="Helvetica,sans-Serif" font-size="10.00">+</text>
<text text-anchor="start" x="524" y="-479.5" font-family="Helvetica,sans-Serif" font-size="10.00">Size_()</text>
<text text-anchor="start" x="511" y="-464.5" font-family="Helvetica,sans-Serif" font-size="10.00">+</text>
<text text-anchor="start" x="524" y="-464.5" font-family="Helvetica,sans-Serif" font-size="10.00">Size_()</text>
<text text-anchor="start" x="511" y="-449.5" font-family="Helvetica,sans-Serif" font-size="10.00">+</text>
<text text-anchor="start" x="524" y="-449.5" font-family="Helvetica,sans-Serif" font-size="10.00">Size_()</text>
<text text-anchor="start" x="511" y="-434.5" font-family="Helvetica,sans-Serif" font-size="10.00">+</text>
<text text-anchor="start" x="524" y="-434.5" font-family="Helvetica,sans-Serif" font-size="10.00">area()</text>
<text text-anchor="start" x="511" y="-419.5" font-family="Helvetica,sans-Serif" font-size="10.00">+</text>
<text text-anchor="start" x="524" y="-419.5" font-family="Helvetica,sans-Serif" font-size="10.00">aspectRatio()</text>
<text text-anchor="start" x="511" y="-404.5" font-family="Helvetica,sans-Serif" font-size="10.00">+</text>
<text text-anchor="start" x="524" y="-404.5" font-family="Helvetica,sans-Serif" font-size="10.00">empty()</text>
<text text-anchor="start" x="511" y="-389.5" font-family="Helvetica,sans-Serif" font-size="10.00">+</text>
<text text-anchor="start" x="524" y="-389.5" font-family="Helvetica,sans-Serif" font-size="10.00">operator Size_&lt; _Tp2 &gt;()</text>
<text text-anchor="start" x="511" y="-374.5" font-family="Helvetica,sans-Serif" font-size="10.00">+</text>
<text text-anchor="start" x="524" y="-374.5" font-family="Helvetica,sans-Serif" font-size="10.00">operator=()</text>
<text text-anchor="start" x="511" y="-359.5" font-family="Helvetica,sans-Serif" font-size="10.00">+</text>
<text text-anchor="start" x="524" y="-359.5" font-family="Helvetica,sans-Serif" font-size="10.00">operator=()</text>
<polygon fill="#666666" stroke="#666666" points="507,-534.5 507,-534.5 652,-534.5 652,-534.5 507,-534.5"/>
<polygon fill="#666666" stroke="#666666" points="507,-519.5 507,-519.5 652,-519.5 652,-519.5 507,-519.5"/>
<polygon fill="none" stroke="#666666" points="506.5,-353 506.5,-552 651.5,-552 651.5,-353 506.5,-353"/>
</a>
</g>
</g>
<!-- Node8&#45;&gt;Node6 -->
<g id="edge7_Node000006_Node000008" class="edge">
<title>Node8&#45;&gt;Node6</title>
<g id="a_edge7_Node000006_Node000008"><a xlink:title=" ">
<path fill="none" stroke="#63b8ff" d="M570.17,-352.8C566.9,-342.63 562.6,-332.81 557,-324 531.39,-283.72 486.33,-253.52 449.47,-233.97"/>
<polygon fill="none" stroke="#63b8ff" points="449,-233.73 441.84,-234.55 438.33,-228.25 445.49,-227.43 449,-233.73"/>
</a>
</g>
<text text-anchor="middle" x="577.5" y="-327" font-family="Helvetica,sans-Serif" font-size="10.00" fill="grey"> +size</text>
</g>
<!-- Node9 -->
<g id="Node000009" class="node">
<title>Node9</title>
<g id="a_Node000009"><a xlink:href="../../d1/dd7/class__Tp.html" target="_top" xlink:title=" ">
<polygon fill="white" stroke="transparent" points="593,-659 565,-659 565,-610 593,-610 593,-659"/>
<text text-anchor="start" x="570" y="-646.5" font-family="Helvetica,sans-Serif" font-size="10.00">_Tp</text>
<text text-anchor="start" x="577" y="-631.5" font-family="Helvetica,sans-Serif" font-size="10.00"> </text>
<text text-anchor="start" x="577" y="-616.5" font-family="Helvetica,sans-Serif" font-size="10.00"> </text>
<polygon fill="#666666" stroke="#666666" points="565,-641.5 565,-641.5 593,-641.5 593,-641.5 565,-641.5"/>
<polygon fill="#666666" stroke="#666666" points="565,-626.5 565,-626.5 593,-626.5 593,-626.5 565,-626.5"/>
<polygon fill="none" stroke="#666666" points="565,-610 565,-659 593,-659 593,-610 565,-610"/>
</a>
</g>
</g>
<!-- Node9&#45;&gt;Node8 -->
<g id="edge8_Node000008_Node000009" class="edge">
<title>Node9&#45;&gt;Node8</title>
<g id="a_edge8_Node000008_Node000009"><a xlink:title=" ">
<path fill="none" stroke="#63b8ff" d="M579,-609.97C579,-597.58 579,-581.4 579,-564.14"/>
<polygon fill="none" stroke="#63b8ff" points="579,-564.06 575,-558.06 579,-552.06 583,-558.06 579,-564.06"/>
</a>
</g>
<text text-anchor="middle" x="600.5" y="-584" font-family="Helvetica,sans-Serif" font-size="10.00" fill="grey"> +height</text>
<text text-anchor="middle" x="600.5" y="-573" font-family="Helvetica,sans-Serif" font-size="10.00" fill="grey">+width</text>
</g>
<!-- Node10 -->
<g id="Node000010" class="node">
<title>Node10</title>
<g id="a_Node000010"><a xlink:title=" ">
<polygon fill="white" stroke="transparent" points="445,-477 413,-477 413,-428 445,-428 445,-477"/>
<text text-anchor="start" x="418" y="-464.5" font-family="Helvetica,sans-Serif" font-size="10.00">bool</text>
<text text-anchor="start" x="427" y="-449.5" font-family="Helvetica,sans-Serif" font-size="10.00"> </text>
<text text-anchor="start" x="427" y="-434.5" font-family="Helvetica,sans-Serif" font-size="10.00"> </text>
<polygon fill="#666666" stroke="#666666" points="413,-459.5 413,-459.5 445,-459.5 445,-459.5 413,-459.5"/>
<polygon fill="#666666" stroke="#666666" points="413,-444.5 413,-444.5 445,-444.5 445,-444.5 413,-444.5"/>
<polygon fill="none" stroke="#666666" points="413,-428 413,-477 445,-477 445,-428 413,-428"/>
</a>
</g>
</g>
<!-- Node10&#45;&gt;Node6 -->
<g id="edge9_Node000006_Node000010" class="edge">
<title>Node10&#45;&gt;Node6</title>
<g id="a_edge9_Node000006_Node000010"><a xlink:title=" ">
<path fill="none" stroke="#63b8ff" d="M424.47,-427.89C420.03,-404.39 413.18,-367.26 408,-335 407.11,-329.43 406.21,-323.72 405.33,-317.95"/>
<polygon fill="none" stroke="#63b8ff" points="405.32,-317.92 400.47,-312.58 403.53,-306.05 408.38,-311.39 405.32,-317.92"/>
</a>
</g>
<text text-anchor="middle" x="429.5" y="-327" font-family="Helvetica,sans-Serif" font-size="10.00" fill="grey"> +planar</text>
</g>
<!-- Node11&#45;&gt;Node6 -->
<g id="edge10_Node000006_Node000011" class="edge">
<title>Node11&#45;&gt;Node6</title>
<g id="a_edge10_Node000006_Node000011"><a xlink:title=" ">
<path fill="none" stroke="#63b8ff" d="M277,-427.61C281.98,-401.32 291.85,-358.26 308,-324 315.46,-308.19 325.05,-292.22 335.03,-277.4"/>
<polygon fill="none" stroke="#63b8ff" points="335.16,-277.21 335.27,-270 341.97,-267.33 341.86,-274.54 335.16,-277.21"/>
</a>
</g>
<text text-anchor="middle" x="326" y="-327" font-family="Helvetica,sans-Serif" font-size="10.00" fill="grey"> +dims</text>
</g>
</g>
</svg>
