<?xml version="1.0" encoding="UTF-8" standalone="no"?>
<!DOCTYPE svg PUBLIC "-//W3C//DTD SVG 1.1//EN"
 "http://www.w3.org/Graphics/SVG/1.1/DTD/svg11.dtd">
<!-- Generated by graphviz version 2.43.0 (0)
 -->
<!-- Title: cv::QtFont Pages: 1 -->
<svg width="368pt" height="2437pt"
 viewBox="0.00 0.00 367.50 2437.00" xmlns="http://www.w3.org/2000/svg" xmlns:xlink="http://www.w3.org/1999/xlink">
<g id="graph0" class="graph" transform="scale(1 1) rotate(0) translate(4 2433)">
<title>cv::QtFont</title>
<!-- Node1 -->
<g id="Node000001" class="node">
<title>Node1</title>
<g id="a_Node000001"><a xlink:title="QtFont available only for Qt. See cv::fontQt.">
<polygon fill="#999999" stroke="transparent" points="243,-49 184,-49 184,0 243,0 243,-49"/>
<text text-anchor="start" x="189.5" y="-36.5" font-family="Helvetica,sans-Serif" font-size="10.00">cv::QtFont</text>
<text text-anchor="start" x="212" y="-21.5" font-family="Helvetica,sans-Serif" font-size="10.00"> </text>
<text text-anchor="start" x="212" y="-6.5" font-family="Helvetica,sans-Serif" font-size="10.00"> </text>
<polygon fill="#666666" stroke="#666666" points="184.5,-31.5 184.5,-31.5 243.5,-31.5 243.5,-31.5 184.5,-31.5"/>
<polygon fill="#666666" stroke="#666666" points="184.5,-16.5 184.5,-16.5 243.5,-16.5 243.5,-16.5 184.5,-16.5"/>
<polygon fill="none" stroke="#666666" points="184,0 184,-49 243,-49 243,0 184,0"/>
</a>
</g>
</g>
<!-- Node2 -->
<g id="Node000002" class="node">
<title>Node2</title>
<g id="a_Node000002"><a xlink:title=" ">
<polygon fill="white" stroke="transparent" points="69,-290 0,-290 0,-241 69,-241 69,-290"/>
<text text-anchor="start" x="5.5" y="-277.5" font-family="Helvetica,sans-Serif" font-size="10.00">const char *</text>
<text text-anchor="start" x="33" y="-262.5" font-family="Helvetica,sans-Serif" font-size="10.00"> </text>
<text text-anchor="start" x="33" y="-247.5" font-family="Helvetica,sans-Serif" font-size="10.00"> </text>
<polygon fill="#666666" stroke="#666666" points="0.5,-272.5 0.5,-272.5 69.5,-272.5 69.5,-272.5 0.5,-272.5"/>
<polygon fill="#666666" stroke="#666666" points="0.5,-257.5 0.5,-257.5 69.5,-257.5 69.5,-257.5 0.5,-257.5"/>
<polygon fill="none" stroke="#666666" points="0,-241 0,-290 69,-290 69,-241 0,-241"/>
</a>
</g>
</g>
<!-- Node2&#45;&gt;Node1 -->
<g id="edge1_Node000001_Node000002" class="edge">
<title>Node2&#45;&gt;Node1</title>
<g id="a_edge1_Node000001_Node000002"><a xlink:title=" ">
<path fill="none" stroke="#63b8ff" d="M35.94,-240.75C39.68,-199.86 53.03,-115.89 100.5,-67 119.34,-47.59 148.02,-37.2 171.77,-31.67"/>
<polygon fill="none" stroke="#63b8ff" points="171.91,-31.64 176.97,-26.5 183.66,-29.2 178.6,-34.34 171.91,-31.64"/>
</a>
</g>
<text text-anchor="middle" x="131" y="-97.5" font-family="Helvetica,sans-Serif" font-size="10.00" fill="grey"> +nameFont</text>
</g>
<!-- Node3 -->
<g id="Node000003" class="node">
<title>Node3</title>
<g id="a_Node000003"><a xlink:href="../../d1/da0/classcv_1_1Scalar__.html" target="_top" xlink:title=" ">
<polygon fill="white" stroke="transparent" points="230,-380 87,-380 87,-151 230,-151 230,-380"/>
<text text-anchor="start" x="105" y="-367.5" font-family="Helvetica,sans-Serif" font-size="10.00">cv::Scalar_&lt; double &gt;</text>
<text text-anchor="start" x="157" y="-352.5" font-family="Helvetica,sans-Serif" font-size="10.00"> </text>
<text text-anchor="start" x="91.5" y="-337.5" font-family="Helvetica,sans-Serif" font-size="10.00">+</text>
<text text-anchor="start" x="104.5" y="-337.5" font-family="Helvetica,sans-Serif" font-size="10.00">Scalar_()</text>
<text text-anchor="start" x="91.5" y="-322.5" font-family="Helvetica,sans-Serif" font-size="10.00">+</text>
<text text-anchor="start" x="104.5" y="-322.5" font-family="Helvetica,sans-Serif" font-size="10.00">Scalar_()</text>
<text text-anchor="start" x="91.5" y="-307.5" font-family="Helvetica,sans-Serif" font-size="10.00">+</text>
<text text-anchor="start" x="104.5" y="-307.5" font-family="Helvetica,sans-Serif" font-size="10.00">Scalar_()</text>
<text text-anchor="start" x="91.5" y="-292.5" font-family="Helvetica,sans-Serif" font-size="10.00">+</text>
<text text-anchor="start" x="104.5" y="-292.5" font-family="Helvetica,sans-Serif" font-size="10.00">Scalar_()</text>
<text text-anchor="start" x="91.5" y="-277.5" font-family="Helvetica,sans-Serif" font-size="10.00">+</text>
<text text-anchor="start" x="104.5" y="-277.5" font-family="Helvetica,sans-Serif" font-size="10.00">Scalar_()</text>
<text text-anchor="start" x="91.5" y="-262.5" font-family="Helvetica,sans-Serif" font-size="10.00">+</text>
<text text-anchor="start" x="104.5" y="-262.5" font-family="Helvetica,sans-Serif" font-size="10.00">Scalar_()</text>
<text text-anchor="start" x="91.5" y="-247.5" font-family="Helvetica,sans-Serif" font-size="10.00">+</text>
<text text-anchor="start" x="104.5" y="-247.5" font-family="Helvetica,sans-Serif" font-size="10.00">conj()</text>
<text text-anchor="start" x="91.5" y="-232.5" font-family="Helvetica,sans-Serif" font-size="10.00">+</text>
<text text-anchor="start" x="104.5" y="-232.5" font-family="Helvetica,sans-Serif" font-size="10.00">isReal()</text>
<text text-anchor="start" x="91.5" y="-217.5" font-family="Helvetica,sans-Serif" font-size="10.00">+</text>
<text text-anchor="start" x="104.5" y="-217.5" font-family="Helvetica,sans-Serif" font-size="10.00">mul()</text>
<text text-anchor="start" x="91.5" y="-202.5" font-family="Helvetica,sans-Serif" font-size="10.00">+</text>
<text text-anchor="start" x="104.5" y="-202.5" font-family="Helvetica,sans-Serif" font-size="10.00">operator Scalar_&lt; T2 &gt;()</text>
<text text-anchor="start" x="91.5" y="-187.5" font-family="Helvetica,sans-Serif" font-size="10.00">+</text>
<text text-anchor="start" x="104.5" y="-187.5" font-family="Helvetica,sans-Serif" font-size="10.00">operator=()</text>
<text text-anchor="start" x="91.5" y="-172.5" font-family="Helvetica,sans-Serif" font-size="10.00">+</text>
<text text-anchor="start" x="104.5" y="-172.5" font-family="Helvetica,sans-Serif" font-size="10.00">operator=()</text>
<text text-anchor="start" x="91.5" y="-157.5" font-family="Helvetica,sans-Serif" font-size="10.00">+</text>
<text text-anchor="start" x="104.5" y="-157.5" font-family="Helvetica,sans-Serif" font-size="10.00">all()</text>
<polygon fill="#666666" stroke="#666666" points="87.5,-362.5 87.5,-362.5 230.5,-362.5 230.5,-362.5 87.5,-362.5"/>
<polygon fill="#666666" stroke="#666666" points="87.5,-347.5 87.5,-347.5 230.5,-347.5 230.5,-347.5 87.5,-347.5"/>
<polygon fill="none" stroke="#666666" points="87,-151 87,-380 230,-380 230,-151 87,-151"/>
</a>
</g>
</g>
<!-- Node3&#45;&gt;Node1 -->
<g id="edge2_Node000001_Node000003" class="edge">
<title>Node3&#45;&gt;Node1</title>
<g id="a_edge2_Node000001_Node000003"><a xlink:title=" ">
<path fill="none" stroke="#63b8ff" d="M162.12,-150.99C165.75,-122.82 171.99,-93.21 182.5,-67 183.51,-64.49 184.7,-62 186.03,-59.55"/>
<polygon fill="none" stroke="#63b8ff" points="186.14,-59.39 185.95,-52.18 192.53,-49.24 192.72,-56.44 186.14,-59.39"/>
</a>
</g>
<text text-anchor="middle" x="200.5" y="-97.5" font-family="Helvetica,sans-Serif" font-size="10.00" fill="grey"> +color</text>
</g>
<!-- Node4 -->
<g id="Node000004" class="node">
<title>Node4</title>
<g id="a_Node000004"><a xlink:href="../../d6/dcf/classcv_1_1Vec.html" target="_top" xlink:title="Template class for short numerical vectors, a partial case of Matx.">
<polygon fill="white" stroke="transparent" points="176,-1319 75,-1319 75,-1015 176,-1015 176,-1319"/>
<text text-anchor="start" x="80.5" y="-1307" font-family="Helvetica,sans-Serif" font-size="10.00">cv::Vec&lt; _Tp, cn &gt;</text>
<text text-anchor="start" x="124" y="-1292" font-family="Helvetica,sans-Serif" font-size="10.00"> </text>
<text text-anchor="start" x="81.5" y="-1277" font-family="Helvetica,sans-Serif" font-size="10.00">+</text>
<text text-anchor="start" x="96.5" y="-1277" font-family="Helvetica,sans-Serif" font-size="10.00">Vec()</text>
<text text-anchor="start" x="81.5" y="-1262" font-family="Helvetica,sans-Serif" font-size="10.00">+</text>
<text text-anchor="start" x="96.5" y="-1262" font-family="Helvetica,sans-Serif" font-size="10.00">Vec()</text>
<text text-anchor="start" x="81.5" y="-1247" font-family="Helvetica,sans-Serif" font-size="10.00">+</text>
<text text-anchor="start" x="96.5" y="-1247" font-family="Helvetica,sans-Serif" font-size="10.00">Vec()</text>
<text text-anchor="start" x="81.5" y="-1232" font-family="Helvetica,sans-Serif" font-size="10.00">+</text>
<text text-anchor="start" x="96.5" y="-1232" font-family="Helvetica,sans-Serif" font-size="10.00">Vec()</text>
<text text-anchor="start" x="81.5" y="-1217" font-family="Helvetica,sans-Serif" font-size="10.00">+</text>
<text text-anchor="start" x="96.5" y="-1217" font-family="Helvetica,sans-Serif" font-size="10.00">Vec()</text>
<text text-anchor="start" x="81.5" y="-1202" font-family="Helvetica,sans-Serif" font-size="10.00">+</text>
<text text-anchor="start" x="96.5" y="-1202" font-family="Helvetica,sans-Serif" font-size="10.00">Vec()</text>
<text text-anchor="start" x="81.5" y="-1187" font-family="Helvetica,sans-Serif" font-size="10.00">+</text>
<text text-anchor="start" x="96.5" y="-1187" font-family="Helvetica,sans-Serif" font-size="10.00">Vec()</text>
<text text-anchor="start" x="81.5" y="-1172" font-family="Helvetica,sans-Serif" font-size="10.00">+</text>
<text text-anchor="start" x="96.5" y="-1172" font-family="Helvetica,sans-Serif" font-size="10.00">Vec()</text>
<text text-anchor="start" x="81.5" y="-1157" font-family="Helvetica,sans-Serif" font-size="10.00">+</text>
<text text-anchor="start" x="96.5" y="-1157" font-family="Helvetica,sans-Serif" font-size="10.00">Vec()</text>
<text text-anchor="start" x="81.5" y="-1142" font-family="Helvetica,sans-Serif" font-size="10.00">+</text>
<text text-anchor="start" x="96.5" y="-1142" font-family="Helvetica,sans-Serif" font-size="10.00">Vec()</text>
<text text-anchor="start" x="96.5" y="-1127" font-family="Helvetica,sans-Serif" font-size="10.00">and 17 more...</text>
<text text-anchor="start" x="81.5" y="-1112" font-family="Helvetica,sans-Serif" font-size="10.00">+</text>
<text text-anchor="start" x="96.5" y="-1112" font-family="Helvetica,sans-Serif" font-size="10.00">all()</text>
<text text-anchor="start" x="81.5" y="-1097" font-family="Helvetica,sans-Serif" font-size="10.00">+</text>
<text text-anchor="start" x="96.5" y="-1097" font-family="Helvetica,sans-Serif" font-size="10.00">diag()</text>
<text text-anchor="start" x="81.5" y="-1082" font-family="Helvetica,sans-Serif" font-size="10.00">+</text>
<text text-anchor="start" x="96.5" y="-1082" font-family="Helvetica,sans-Serif" font-size="10.00">eye()</text>
<text text-anchor="start" x="81.5" y="-1067" font-family="Helvetica,sans-Serif" font-size="10.00">+</text>
<text text-anchor="start" x="96.5" y="-1067" font-family="Helvetica,sans-Serif" font-size="10.00">ones()</text>
<text text-anchor="start" x="81.5" y="-1052" font-family="Helvetica,sans-Serif" font-size="10.00">+</text>
<text text-anchor="start" x="96.5" y="-1052" font-family="Helvetica,sans-Serif" font-size="10.00">randn()</text>
<text text-anchor="start" x="81.5" y="-1037" font-family="Helvetica,sans-Serif" font-size="10.00">+</text>
<text text-anchor="start" x="96.5" y="-1037" font-family="Helvetica,sans-Serif" font-size="10.00">randu()</text>
<text text-anchor="start" x="81.5" y="-1022" font-family="Helvetica,sans-Serif" font-size="10.00">+</text>
<text text-anchor="start" x="96.5" y="-1022" font-family="Helvetica,sans-Serif" font-size="10.00">zeros()</text>
<polygon fill="#666666" stroke="#666666" points="75.5,-1302 75.5,-1302 176.5,-1302 176.5,-1302 75.5,-1302"/>
<polygon fill="#666666" stroke="#666666" points="75.5,-1287 75.5,-1287 176.5,-1287 176.5,-1287 75.5,-1287"/>
<polygon fill="none" stroke="#666666" points="75,-1015 75,-1319 176,-1319 176,-1015 75,-1015"/>
</a>
</g>
</g>
<!-- Node4&#45;&gt;Node3 -->
<g id="edge3_Node000003_Node000004" class="edge">
<title>Node4&#45;&gt;Node3</title>
<g id="a_edge3_Node000003_Node000004"><a xlink:title=" ">
<path fill="none" stroke="#63b8ff" d="M126.8,-1004.6C128.69,-854.81 133.29,-625.69 144.5,-427 145.35,-411.92 146.47,-396.06 147.7,-380.42"/>
<polygon fill="none" stroke="#63b8ff" points="123.3,-1004.76 126.68,-1014.8 130.3,-1004.85 123.3,-1004.76"/>
</a>
</g>
</g>
<!-- Node5 -->
<g id="Node000005" class="node">
<title>Node5</title>
<g id="a_Node000005"><a xlink:href="../../de/de1/classcv_1_1Matx.html" target="_top" xlink:title=" ">
<polygon fill="white" stroke="transparent" points="252,-1982 131,-1982 131,-1678 252,-1678 252,-1982"/>
<text text-anchor="start" x="136.5" y="-1970" font-family="Helvetica,sans-Serif" font-size="10.00">cv::Matx&lt; _Tp, cn, 1 &gt;</text>
<text text-anchor="start" x="190" y="-1955" font-family="Helvetica,sans-Serif" font-size="10.00"> </text>
<text text-anchor="start" x="142.5" y="-1940" font-family="Helvetica,sans-Serif" font-size="10.00">+</text>
<text text-anchor="start" x="162.5" y="-1940" font-family="Helvetica,sans-Serif" font-size="10.00">Matx()</text>
<text text-anchor="start" x="142.5" y="-1925" font-family="Helvetica,sans-Serif" font-size="10.00">+</text>
<text text-anchor="start" x="162.5" y="-1925" font-family="Helvetica,sans-Serif" font-size="10.00">Matx()</text>
<text text-anchor="start" x="142.5" y="-1910" font-family="Helvetica,sans-Serif" font-size="10.00">+</text>
<text text-anchor="start" x="162.5" y="-1910" font-family="Helvetica,sans-Serif" font-size="10.00">Matx()</text>
<text text-anchor="start" x="142.5" y="-1895" font-family="Helvetica,sans-Serif" font-size="10.00">+</text>
<text text-anchor="start" x="162.5" y="-1895" font-family="Helvetica,sans-Serif" font-size="10.00">Matx()</text>
<text text-anchor="start" x="142.5" y="-1880" font-family="Helvetica,sans-Serif" font-size="10.00">+</text>
<text text-anchor="start" x="162.5" y="-1880" font-family="Helvetica,sans-Serif" font-size="10.00">Matx()</text>
<text text-anchor="start" x="142.5" y="-1865" font-family="Helvetica,sans-Serif" font-size="10.00">+</text>
<text text-anchor="start" x="162.5" y="-1865" font-family="Helvetica,sans-Serif" font-size="10.00">Matx()</text>
<text text-anchor="start" x="142.5" y="-1850" font-family="Helvetica,sans-Serif" font-size="10.00">+</text>
<text text-anchor="start" x="162.5" y="-1850" font-family="Helvetica,sans-Serif" font-size="10.00">Matx()</text>
<text text-anchor="start" x="142.5" y="-1835" font-family="Helvetica,sans-Serif" font-size="10.00">+</text>
<text text-anchor="start" x="162.5" y="-1835" font-family="Helvetica,sans-Serif" font-size="10.00">Matx()</text>
<text text-anchor="start" x="142.5" y="-1820" font-family="Helvetica,sans-Serif" font-size="10.00">+</text>
<text text-anchor="start" x="162.5" y="-1820" font-family="Helvetica,sans-Serif" font-size="10.00">Matx()</text>
<text text-anchor="start" x="142.5" y="-1805" font-family="Helvetica,sans-Serif" font-size="10.00">+</text>
<text text-anchor="start" x="162.5" y="-1805" font-family="Helvetica,sans-Serif" font-size="10.00">Matx()</text>
<text text-anchor="start" x="162.5" y="-1790" font-family="Helvetica,sans-Serif" font-size="10.00">and 31 more...</text>
<text text-anchor="start" x="142.5" y="-1775" font-family="Helvetica,sans-Serif" font-size="10.00">+</text>
<text text-anchor="start" x="162.5" y="-1775" font-family="Helvetica,sans-Serif" font-size="10.00">all()</text>
<text text-anchor="start" x="142.5" y="-1760" font-family="Helvetica,sans-Serif" font-size="10.00">+</text>
<text text-anchor="start" x="162.5" y="-1760" font-family="Helvetica,sans-Serif" font-size="10.00">diag()</text>
<text text-anchor="start" x="142.5" y="-1745" font-family="Helvetica,sans-Serif" font-size="10.00">+</text>
<text text-anchor="start" x="162.5" y="-1745" font-family="Helvetica,sans-Serif" font-size="10.00">eye()</text>
<text text-anchor="start" x="142.5" y="-1730" font-family="Helvetica,sans-Serif" font-size="10.00">+</text>
<text text-anchor="start" x="162.5" y="-1730" font-family="Helvetica,sans-Serif" font-size="10.00">ones()</text>
<text text-anchor="start" x="142.5" y="-1715" font-family="Helvetica,sans-Serif" font-size="10.00">+</text>
<text text-anchor="start" x="162.5" y="-1715" font-family="Helvetica,sans-Serif" font-size="10.00">randn()</text>
<text text-anchor="start" x="142.5" y="-1700" font-family="Helvetica,sans-Serif" font-size="10.00">+</text>
<text text-anchor="start" x="162.5" y="-1700" font-family="Helvetica,sans-Serif" font-size="10.00">randu()</text>
<text text-anchor="start" x="142.5" y="-1685" font-family="Helvetica,sans-Serif" font-size="10.00">+</text>
<text text-anchor="start" x="162.5" y="-1685" font-family="Helvetica,sans-Serif" font-size="10.00">zeros()</text>
<polygon fill="#666666" stroke="#666666" points="131.5,-1965 131.5,-1965 252.5,-1965 252.5,-1965 131.5,-1965"/>
<polygon fill="#666666" stroke="#666666" points="131.5,-1950 131.5,-1950 252.5,-1950 252.5,-1950 131.5,-1950"/>
<polygon fill="none" stroke="#666666" points="131,-1678 131,-1982 252,-1982 252,-1678 131,-1678"/>
</a>
</g>
</g>
<!-- Node5&#45;&gt;Node4 -->
<g id="edge4_Node000004_Node000005" class="edge">
<title>Node5&#45;&gt;Node4</title>
<g id="a_edge4_Node000004_Node000005"><a xlink:title=" ">
<path fill="none" stroke="#63b8ff" d="M175.38,-1667.59C164.78,-1561.35 150.98,-1423.21 140.59,-1319.13"/>
<polygon fill="none" stroke="#63b8ff" points="171.92,-1668.16 176.4,-1677.77 178.89,-1667.47 171.92,-1668.16"/>
</a>
</g>
</g>
<!-- Node9 -->
<g id="Node000009" class="node">
<title>Node9</title>
<g id="a_Node000009"><a xlink:href="../../d6/dcf/classcv_1_1Vec.html" target="_top" xlink:title=" ">
<polygon fill="white" stroke="transparent" points="273.5,-997 177.5,-997 177.5,-693 273.5,-693 273.5,-997"/>
<text text-anchor="start" x="182.5" y="-985" font-family="Helvetica,sans-Serif" font-size="10.00">cv::Vec&lt; _Tp, 4 &gt;</text>
<text text-anchor="start" x="223.5" y="-970" font-family="Helvetica,sans-Serif" font-size="10.00"> </text>
<text text-anchor="start" x="182.5" y="-955" font-family="Helvetica,sans-Serif" font-size="10.00">+</text>
<text text-anchor="start" x="196.5" y="-955" font-family="Helvetica,sans-Serif" font-size="10.00">Vec()</text>
<text text-anchor="start" x="182.5" y="-940" font-family="Helvetica,sans-Serif" font-size="10.00">+</text>
<text text-anchor="start" x="196.5" y="-940" font-family="Helvetica,sans-Serif" font-size="10.00">Vec()</text>
<text text-anchor="start" x="182.5" y="-925" font-family="Helvetica,sans-Serif" font-size="10.00">+</text>
<text text-anchor="start" x="196.5" y="-925" font-family="Helvetica,sans-Serif" font-size="10.00">Vec()</text>
<text text-anchor="start" x="182.5" y="-910" font-family="Helvetica,sans-Serif" font-size="10.00">+</text>
<text text-anchor="start" x="196.5" y="-910" font-family="Helvetica,sans-Serif" font-size="10.00">Vec()</text>
<text text-anchor="start" x="182.5" y="-895" font-family="Helvetica,sans-Serif" font-size="10.00">+</text>
<text text-anchor="start" x="196.5" y="-895" font-family="Helvetica,sans-Serif" font-size="10.00">Vec()</text>
<text text-anchor="start" x="182.5" y="-880" font-family="Helvetica,sans-Serif" font-size="10.00">+</text>
<text text-anchor="start" x="196.5" y="-880" font-family="Helvetica,sans-Serif" font-size="10.00">Vec()</text>
<text text-anchor="start" x="182.5" y="-865" font-family="Helvetica,sans-Serif" font-size="10.00">+</text>
<text text-anchor="start" x="196.5" y="-865" font-family="Helvetica,sans-Serif" font-size="10.00">Vec()</text>
<text text-anchor="start" x="182.5" y="-850" font-family="Helvetica,sans-Serif" font-size="10.00">+</text>
<text text-anchor="start" x="196.5" y="-850" font-family="Helvetica,sans-Serif" font-size="10.00">Vec()</text>
<text text-anchor="start" x="182.5" y="-835" font-family="Helvetica,sans-Serif" font-size="10.00">+</text>
<text text-anchor="start" x="196.5" y="-835" font-family="Helvetica,sans-Serif" font-size="10.00">Vec()</text>
<text text-anchor="start" x="182.5" y="-820" font-family="Helvetica,sans-Serif" font-size="10.00">+</text>
<text text-anchor="start" x="196.5" y="-820" font-family="Helvetica,sans-Serif" font-size="10.00">Vec()</text>
<text text-anchor="start" x="196.5" y="-805" font-family="Helvetica,sans-Serif" font-size="10.00">and 17 more...</text>
<text text-anchor="start" x="182.5" y="-790" font-family="Helvetica,sans-Serif" font-size="10.00">+</text>
<text text-anchor="start" x="196.5" y="-790" font-family="Helvetica,sans-Serif" font-size="10.00">all()</text>
<text text-anchor="start" x="182.5" y="-775" font-family="Helvetica,sans-Serif" font-size="10.00">+</text>
<text text-anchor="start" x="196.5" y="-775" font-family="Helvetica,sans-Serif" font-size="10.00">diag()</text>
<text text-anchor="start" x="182.5" y="-760" font-family="Helvetica,sans-Serif" font-size="10.00">+</text>
<text text-anchor="start" x="196.5" y="-760" font-family="Helvetica,sans-Serif" font-size="10.00">eye()</text>
<text text-anchor="start" x="182.5" y="-745" font-family="Helvetica,sans-Serif" font-size="10.00">+</text>
<text text-anchor="start" x="196.5" y="-745" font-family="Helvetica,sans-Serif" font-size="10.00">ones()</text>
<text text-anchor="start" x="182.5" y="-730" font-family="Helvetica,sans-Serif" font-size="10.00">+</text>
<text text-anchor="start" x="196.5" y="-730" font-family="Helvetica,sans-Serif" font-size="10.00">randn()</text>
<text text-anchor="start" x="182.5" y="-715" font-family="Helvetica,sans-Serif" font-size="10.00">+</text>
<text text-anchor="start" x="196.5" y="-715" font-family="Helvetica,sans-Serif" font-size="10.00">randu()</text>
<text text-anchor="start" x="182.5" y="-700" font-family="Helvetica,sans-Serif" font-size="10.00">+</text>
<text text-anchor="start" x="196.5" y="-700" font-family="Helvetica,sans-Serif" font-size="10.00">zeros()</text>
<polygon fill="#666666" stroke="#666666" points="177.5,-980 177.5,-980 273.5,-980 273.5,-980 177.5,-980"/>
<polygon fill="#666666" stroke="#666666" points="177.5,-965 177.5,-965 273.5,-965 273.5,-965 177.5,-965"/>
<polygon fill="none" stroke="#666666" points="177.5,-693 177.5,-997 273.5,-997 273.5,-693 177.5,-693"/>
</a>
</g>
</g>
<!-- Node5&#45;&gt;Node9 -->
<g id="edge10_Node000009_Node000005" class="edge">
<title>Node5&#45;&gt;Node9</title>
<g id="a_edge10_Node000009_Node000005"><a xlink:title=" ">
<path fill="none" stroke="#63b8ff" d="M197.08,-1667.69C203.51,-1481.84 213.99,-1178.81 220.27,-997.3"/>
<polygon fill="none" stroke="#63b8ff" points="193.58,-1667.71 196.73,-1677.83 200.57,-1667.96 193.58,-1667.71"/>
</a>
</g>
</g>
<!-- Node10 -->
<g id="Node000010" class="node">
<title>Node10</title>
<g id="a_Node000010"><a xlink:href="../../d6/dcf/classcv_1_1Vec.html" target="_top" xlink:title="Template class for short numerical vectors, a partial case of Matx.">
<polygon fill="white" stroke="transparent" points="321,-1641 220,-1641 220,-1337 321,-1337 321,-1641"/>
<text text-anchor="start" x="225.5" y="-1629" font-family="Helvetica,sans-Serif" font-size="10.00">cv::Vec&lt; _Tp, cn &gt;</text>
<text text-anchor="start" x="269" y="-1614" font-family="Helvetica,sans-Serif" font-size="10.00"> </text>
<text text-anchor="start" x="226.5" y="-1599" font-family="Helvetica,sans-Serif" font-size="10.00">+</text>
<text text-anchor="start" x="241.5" y="-1599" font-family="Helvetica,sans-Serif" font-size="10.00">Vec()</text>
<text text-anchor="start" x="226.5" y="-1584" font-family="Helvetica,sans-Serif" font-size="10.00">+</text>
<text text-anchor="start" x="241.5" y="-1584" font-family="Helvetica,sans-Serif" font-size="10.00">Vec()</text>
<text text-anchor="start" x="226.5" y="-1569" font-family="Helvetica,sans-Serif" font-size="10.00">+</text>
<text text-anchor="start" x="241.5" y="-1569" font-family="Helvetica,sans-Serif" font-size="10.00">Vec()</text>
<text text-anchor="start" x="226.5" y="-1554" font-family="Helvetica,sans-Serif" font-size="10.00">+</text>
<text text-anchor="start" x="241.5" y="-1554" font-family="Helvetica,sans-Serif" font-size="10.00">Vec()</text>
<text text-anchor="start" x="226.5" y="-1539" font-family="Helvetica,sans-Serif" font-size="10.00">+</text>
<text text-anchor="start" x="241.5" y="-1539" font-family="Helvetica,sans-Serif" font-size="10.00">Vec()</text>
<text text-anchor="start" x="226.5" y="-1524" font-family="Helvetica,sans-Serif" font-size="10.00">+</text>
<text text-anchor="start" x="241.5" y="-1524" font-family="Helvetica,sans-Serif" font-size="10.00">Vec()</text>
<text text-anchor="start" x="226.5" y="-1509" font-family="Helvetica,sans-Serif" font-size="10.00">+</text>
<text text-anchor="start" x="241.5" y="-1509" font-family="Helvetica,sans-Serif" font-size="10.00">Vec()</text>
<text text-anchor="start" x="226.5" y="-1494" font-family="Helvetica,sans-Serif" font-size="10.00">+</text>
<text text-anchor="start" x="241.5" y="-1494" font-family="Helvetica,sans-Serif" font-size="10.00">Vec()</text>
<text text-anchor="start" x="226.5" y="-1479" font-family="Helvetica,sans-Serif" font-size="10.00">+</text>
<text text-anchor="start" x="241.5" y="-1479" font-family="Helvetica,sans-Serif" font-size="10.00">Vec()</text>
<text text-anchor="start" x="226.5" y="-1464" font-family="Helvetica,sans-Serif" font-size="10.00">+</text>
<text text-anchor="start" x="241.5" y="-1464" font-family="Helvetica,sans-Serif" font-size="10.00">Vec()</text>
<text text-anchor="start" x="241.5" y="-1449" font-family="Helvetica,sans-Serif" font-size="10.00">and 17 more...</text>
<text text-anchor="start" x="226.5" y="-1434" font-family="Helvetica,sans-Serif" font-size="10.00">+</text>
<text text-anchor="start" x="241.5" y="-1434" font-family="Helvetica,sans-Serif" font-size="10.00">all()</text>
<text text-anchor="start" x="226.5" y="-1419" font-family="Helvetica,sans-Serif" font-size="10.00">+</text>
<text text-anchor="start" x="241.5" y="-1419" font-family="Helvetica,sans-Serif" font-size="10.00">diag()</text>
<text text-anchor="start" x="226.5" y="-1404" font-family="Helvetica,sans-Serif" font-size="10.00">+</text>
<text text-anchor="start" x="241.5" y="-1404" font-family="Helvetica,sans-Serif" font-size="10.00">eye()</text>
<text text-anchor="start" x="226.5" y="-1389" font-family="Helvetica,sans-Serif" font-size="10.00">+</text>
<text text-anchor="start" x="241.5" y="-1389" font-family="Helvetica,sans-Serif" font-size="10.00">ones()</text>
<text text-anchor="start" x="226.5" y="-1374" font-family="Helvetica,sans-Serif" font-size="10.00">+</text>
<text text-anchor="start" x="241.5" y="-1374" font-family="Helvetica,sans-Serif" font-size="10.00">randn()</text>
<text text-anchor="start" x="226.5" y="-1359" font-family="Helvetica,sans-Serif" font-size="10.00">+</text>
<text text-anchor="start" x="241.5" y="-1359" font-family="Helvetica,sans-Serif" font-size="10.00">randu()</text>
<text text-anchor="start" x="226.5" y="-1344" font-family="Helvetica,sans-Serif" font-size="10.00">+</text>
<text text-anchor="start" x="241.5" y="-1344" font-family="Helvetica,sans-Serif" font-size="10.00">zeros()</text>
<polygon fill="#666666" stroke="#666666" points="220.5,-1624 220.5,-1624 321.5,-1624 321.5,-1624 220.5,-1624"/>
<polygon fill="#666666" stroke="#666666" points="220.5,-1609 220.5,-1609 321.5,-1609 321.5,-1609 220.5,-1609"/>
<polygon fill="none" stroke="#666666" points="220,-1337 220,-1641 321,-1641 321,-1337 220,-1337"/>
</a>
</g>
</g>
<!-- Node5&#45;&gt;Node10 -->
<g id="edge12_Node000010_Node000005" class="edge">
<title>Node5&#45;&gt;Node10</title>
<g id="a_edge12_Node000010_Node000005"><a xlink:title=" ">
<path fill="none" stroke="#63b8ff" d="M229.06,-1667.82C231.13,-1658.94 233.21,-1650.02 235.27,-1641.17"/>
<polygon fill="none" stroke="#63b8ff" points="225.59,-1667.31 226.73,-1677.84 232.4,-1668.9 225.59,-1667.31"/>
</a>
</g>
</g>
<!-- Node6 -->
<g id="Node000006" class="node">
<title>Node6</title>
<g id="a_Node000006"><a xlink:href="../../d1/dd7/class__Tp.html" target="_top" xlink:title=" ">
<polygon fill="white" stroke="transparent" points="205.5,-2429 177.5,-2429 177.5,-2380 205.5,-2380 205.5,-2429"/>
<text text-anchor="start" x="182.5" y="-2416.5" font-family="Helvetica,sans-Serif" font-size="10.00">_Tp</text>
<text text-anchor="start" x="189.5" y="-2401.5" font-family="Helvetica,sans-Serif" font-size="10.00"> </text>
<text text-anchor="start" x="189.5" y="-2386.5" font-family="Helvetica,sans-Serif" font-size="10.00"> </text>
<polygon fill="#666666" stroke="#666666" points="177.5,-2411.5 177.5,-2411.5 205.5,-2411.5 205.5,-2411.5 177.5,-2411.5"/>
<polygon fill="#666666" stroke="#666666" points="177.5,-2396.5 177.5,-2396.5 205.5,-2396.5 205.5,-2396.5 177.5,-2396.5"/>
<polygon fill="none" stroke="#666666" points="177.5,-2380 177.5,-2429 205.5,-2429 205.5,-2380 177.5,-2380"/>
</a>
</g>
</g>
<!-- Node6&#45;&gt;Node5 -->
<g id="edge5_Node000005_Node000006" class="edge">
<title>Node6&#45;&gt;Node5</title>
<g id="a_edge5_Node000005_Node000006"><a xlink:title=" ">
<path fill="none" stroke="#63b8ff" d="M188.55,-2379.72C187,-2366.07 185.27,-2348.6 184.5,-2333 178.9,-2219.97 180.78,-2092.47 184,-1994.25"/>
<polygon fill="none" stroke="#63b8ff" points="184,-1994.1 180.21,-1987.97 184.41,-1982.11 188.2,-1988.24 184,-1994.1"/>
</a>
</g>
<text text-anchor="middle" x="198" y="-2178.5" font-family="Helvetica,sans-Serif" font-size="10.00" fill="grey"> +val</text>
</g>
<!-- Node7 -->
<g id="Node000007" class="node">
<title>Node7</title>
<g id="a_Node000007"><a xlink:href="../../de/de1/classcv_1_1Matx.html" target="_top" xlink:title="Template class for small matrices whose type and size are known at compilation time.">
<polygon fill="white" stroke="transparent" points="340,-2333 221,-2333 221,-2029 340,-2029 340,-2333"/>
<text text-anchor="start" x="226.5" y="-2321" font-family="Helvetica,sans-Serif" font-size="10.00">cv::Matx&lt; _Tp, m, n &gt;</text>
<text text-anchor="start" x="279" y="-2306" font-family="Helvetica,sans-Serif" font-size="10.00"> </text>
<text text-anchor="start" x="232" y="-2291" font-family="Helvetica,sans-Serif" font-size="10.00">+</text>
<text text-anchor="start" x="251.5" y="-2291" font-family="Helvetica,sans-Serif" font-size="10.00">Matx()</text>
<text text-anchor="start" x="232" y="-2276" font-family="Helvetica,sans-Serif" font-size="10.00">+</text>
<text text-anchor="start" x="251.5" y="-2276" font-family="Helvetica,sans-Serif" font-size="10.00">Matx()</text>
<text text-anchor="start" x="232" y="-2261" font-family="Helvetica,sans-Serif" font-size="10.00">+</text>
<text text-anchor="start" x="251.5" y="-2261" font-family="Helvetica,sans-Serif" font-size="10.00">Matx()</text>
<text text-anchor="start" x="232" y="-2246" font-family="Helvetica,sans-Serif" font-size="10.00">+</text>
<text text-anchor="start" x="251.5" y="-2246" font-family="Helvetica,sans-Serif" font-size="10.00">Matx()</text>
<text text-anchor="start" x="232" y="-2231" font-family="Helvetica,sans-Serif" font-size="10.00">+</text>
<text text-anchor="start" x="251.5" y="-2231" font-family="Helvetica,sans-Serif" font-size="10.00">Matx()</text>
<text text-anchor="start" x="232" y="-2216" font-family="Helvetica,sans-Serif" font-size="10.00">+</text>
<text text-anchor="start" x="251.5" y="-2216" font-family="Helvetica,sans-Serif" font-size="10.00">Matx()</text>
<text text-anchor="start" x="232" y="-2201" font-family="Helvetica,sans-Serif" font-size="10.00">+</text>
<text text-anchor="start" x="251.5" y="-2201" font-family="Helvetica,sans-Serif" font-size="10.00">Matx()</text>
<text text-anchor="start" x="232" y="-2186" font-family="Helvetica,sans-Serif" font-size="10.00">+</text>
<text text-anchor="start" x="251.5" y="-2186" font-family="Helvetica,sans-Serif" font-size="10.00">Matx()</text>
<text text-anchor="start" x="232" y="-2171" font-family="Helvetica,sans-Serif" font-size="10.00">+</text>
<text text-anchor="start" x="251.5" y="-2171" font-family="Helvetica,sans-Serif" font-size="10.00">Matx()</text>
<text text-anchor="start" x="232" y="-2156" font-family="Helvetica,sans-Serif" font-size="10.00">+</text>
<text text-anchor="start" x="251.5" y="-2156" font-family="Helvetica,sans-Serif" font-size="10.00">Matx()</text>
<text text-anchor="start" x="251.5" y="-2141" font-family="Helvetica,sans-Serif" font-size="10.00">and 31 more...</text>
<text text-anchor="start" x="232" y="-2126" font-family="Helvetica,sans-Serif" font-size="10.00">+</text>
<text text-anchor="start" x="251.5" y="-2126" font-family="Helvetica,sans-Serif" font-size="10.00">all()</text>
<text text-anchor="start" x="232" y="-2111" font-family="Helvetica,sans-Serif" font-size="10.00">+</text>
<text text-anchor="start" x="251.5" y="-2111" font-family="Helvetica,sans-Serif" font-size="10.00">diag()</text>
<text text-anchor="start" x="232" y="-2096" font-family="Helvetica,sans-Serif" font-size="10.00">+</text>
<text text-anchor="start" x="251.5" y="-2096" font-family="Helvetica,sans-Serif" font-size="10.00">eye()</text>
<text text-anchor="start" x="232" y="-2081" font-family="Helvetica,sans-Serif" font-size="10.00">+</text>
<text text-anchor="start" x="251.5" y="-2081" font-family="Helvetica,sans-Serif" font-size="10.00">ones()</text>
<text text-anchor="start" x="232" y="-2066" font-family="Helvetica,sans-Serif" font-size="10.00">+</text>
<text text-anchor="start" x="251.5" y="-2066" font-family="Helvetica,sans-Serif" font-size="10.00">randn()</text>
<text text-anchor="start" x="232" y="-2051" font-family="Helvetica,sans-Serif" font-size="10.00">+</text>
<text text-anchor="start" x="251.5" y="-2051" font-family="Helvetica,sans-Serif" font-size="10.00">randu()</text>
<text text-anchor="start" x="232" y="-2036" font-family="Helvetica,sans-Serif" font-size="10.00">+</text>
<text text-anchor="start" x="251.5" y="-2036" font-family="Helvetica,sans-Serif" font-size="10.00">zeros()</text>
<polygon fill="#666666" stroke="#666666" points="221.5,-2316 221.5,-2316 340.5,-2316 340.5,-2316 221.5,-2316"/>
<polygon fill="#666666" stroke="#666666" points="221.5,-2301 221.5,-2301 340.5,-2301 340.5,-2301 221.5,-2301"/>
<polygon fill="none" stroke="#666666" points="221,-2029 221,-2333 340,-2333 340,-2029 221,-2029"/>
</a>
</g>
</g>
<!-- Node6&#45;&gt;Node7 -->
<g id="edge7_Node000007_Node000006" class="edge">
<title>Node6&#45;&gt;Node7</title>
<g id="a_edge7_Node000007_Node000006"><a xlink:title=" ">
<path fill="none" stroke="#63b8ff" d="M201.02,-2379.8C205.21,-2369.39 210.5,-2356.22 216.36,-2341.63"/>
<polygon fill="none" stroke="#63b8ff" points="216.47,-2341.35 215,-2334.29 220.95,-2330.21 222.42,-2337.27 216.47,-2341.35"/>
</a>
</g>
<text text-anchor="middle" x="225" y="-2354" font-family="Helvetica,sans-Serif" font-size="10.00" fill="grey"> +val</text>
</g>
<!-- Node7&#45;&gt;Node5 -->
<g id="edge6_Node000005_Node000007" class="edge">
<title>Node7&#45;&gt;Node5</title>
<g id="a_edge6_Node000005_Node000007"><a xlink:title=" ">
<path fill="none" stroke="orange" d="M239.46,-2019.07C236.31,-2006.72 233.14,-1994.28 230.01,-1982"/>
<polygon fill="orange" stroke="orange" points="236.12,-2020.13 241.98,-2028.95 242.9,-2018.4 236.12,-2020.13"/>
</a>
</g>
<text text-anchor="middle" x="272" y="-2003" font-family="Helvetica,sans-Serif" font-size="10.00" fill="grey"> &lt; _Tp, cn, 1 &gt;</text>
</g>
<!-- Node8 -->
<g id="Node000008" class="node">
<title>Node8</title>
<g id="a_Node000008"><a xlink:href="../../d1/da0/classcv_1_1Scalar__.html" target="_top" xlink:title="Template class for a 4&#45;element vector derived from Vec.">
<polygon fill="white" stroke="transparent" points="297,-656 154,-656 154,-427 297,-427 297,-656"/>
<text text-anchor="start" x="180" y="-643.5" font-family="Helvetica,sans-Serif" font-size="10.00">cv::Scalar_&lt; _Tp &gt;</text>
<text text-anchor="start" x="224" y="-628.5" font-family="Helvetica,sans-Serif" font-size="10.00"> </text>
<text text-anchor="start" x="158.5" y="-613.5" font-family="Helvetica,sans-Serif" font-size="10.00">+</text>
<text text-anchor="start" x="171.5" y="-613.5" font-family="Helvetica,sans-Serif" font-size="10.00">Scalar_()</text>
<text text-anchor="start" x="158.5" y="-598.5" font-family="Helvetica,sans-Serif" font-size="10.00">+</text>
<text text-anchor="start" x="171.5" y="-598.5" font-family="Helvetica,sans-Serif" font-size="10.00">Scalar_()</text>
<text text-anchor="start" x="158.5" y="-583.5" font-family="Helvetica,sans-Serif" font-size="10.00">+</text>
<text text-anchor="start" x="171.5" y="-583.5" font-family="Helvetica,sans-Serif" font-size="10.00">Scalar_()</text>
<text text-anchor="start" x="158.5" y="-568.5" font-family="Helvetica,sans-Serif" font-size="10.00">+</text>
<text text-anchor="start" x="171.5" y="-568.5" font-family="Helvetica,sans-Serif" font-size="10.00">Scalar_()</text>
<text text-anchor="start" x="158.5" y="-553.5" font-family="Helvetica,sans-Serif" font-size="10.00">+</text>
<text text-anchor="start" x="171.5" y="-553.5" font-family="Helvetica,sans-Serif" font-size="10.00">Scalar_()</text>
<text text-anchor="start" x="158.5" y="-538.5" font-family="Helvetica,sans-Serif" font-size="10.00">+</text>
<text text-anchor="start" x="171.5" y="-538.5" font-family="Helvetica,sans-Serif" font-size="10.00">Scalar_()</text>
<text text-anchor="start" x="158.5" y="-523.5" font-family="Helvetica,sans-Serif" font-size="10.00">+</text>
<text text-anchor="start" x="171.5" y="-523.5" font-family="Helvetica,sans-Serif" font-size="10.00">conj()</text>
<text text-anchor="start" x="158.5" y="-508.5" font-family="Helvetica,sans-Serif" font-size="10.00">+</text>
<text text-anchor="start" x="171.5" y="-508.5" font-family="Helvetica,sans-Serif" font-size="10.00">isReal()</text>
<text text-anchor="start" x="158.5" y="-493.5" font-family="Helvetica,sans-Serif" font-size="10.00">+</text>
<text text-anchor="start" x="171.5" y="-493.5" font-family="Helvetica,sans-Serif" font-size="10.00">mul()</text>
<text text-anchor="start" x="158.5" y="-478.5" font-family="Helvetica,sans-Serif" font-size="10.00">+</text>
<text text-anchor="start" x="171.5" y="-478.5" font-family="Helvetica,sans-Serif" font-size="10.00">operator Scalar_&lt; T2 &gt;()</text>
<text text-anchor="start" x="158.5" y="-463.5" font-family="Helvetica,sans-Serif" font-size="10.00">+</text>
<text text-anchor="start" x="171.5" y="-463.5" font-family="Helvetica,sans-Serif" font-size="10.00">operator=()</text>
<text text-anchor="start" x="158.5" y="-448.5" font-family="Helvetica,sans-Serif" font-size="10.00">+</text>
<text text-anchor="start" x="171.5" y="-448.5" font-family="Helvetica,sans-Serif" font-size="10.00">operator=()</text>
<text text-anchor="start" x="158.5" y="-433.5" font-family="Helvetica,sans-Serif" font-size="10.00">+</text>
<text text-anchor="start" x="171.5" y="-433.5" font-family="Helvetica,sans-Serif" font-size="10.00">all()</text>
<polygon fill="#666666" stroke="#666666" points="154.5,-638.5 154.5,-638.5 297.5,-638.5 297.5,-638.5 154.5,-638.5"/>
<polygon fill="#666666" stroke="#666666" points="154.5,-623.5 154.5,-623.5 297.5,-623.5 297.5,-623.5 154.5,-623.5"/>
<polygon fill="none" stroke="#666666" points="154,-427 154,-656 297,-656 297,-427 154,-427"/>
</a>
</g>
</g>
<!-- Node8&#45;&gt;Node3 -->
<g id="edge8_Node000003_Node000008" class="edge">
<title>Node8&#45;&gt;Node3</title>
<g id="a_edge8_Node000003_Node000008"><a xlink:title=" ">
<path fill="none" stroke="orange" d="M195.29,-416.96C192.31,-404.79 189.3,-392.47 186.35,-380.41"/>
<polygon fill="orange" stroke="orange" points="191.89,-417.8 197.67,-426.68 198.69,-416.13 191.89,-417.8"/>
</a>
</g>
<text text-anchor="middle" x="222" y="-401" font-family="Helvetica,sans-Serif" font-size="10.00" fill="grey"> &lt; double &gt;</text>
</g>
<!-- Node9&#45;&gt;Node8 -->
<g id="edge9_Node000008_Node000009" class="edge">
<title>Node9&#45;&gt;Node8</title>
<g id="a_edge9_Node000008_Node000009"><a xlink:title=" ">
<path fill="none" stroke="#63b8ff" d="M225.5,-682.69C225.5,-673.74 225.5,-664.85 225.5,-656.13"/>
<polygon fill="none" stroke="#63b8ff" points="222,-682.81 225.5,-692.81 229,-682.81 222,-682.81"/>
</a>
</g>
</g>
<!-- Node10&#45;&gt;Node9 -->
<g id="edge11_Node000009_Node000010" class="edge">
<title>Node10&#45;&gt;Node9</title>
<g id="a_edge11_Node000009_Node000010"><a xlink:title=" ">
<path fill="none" stroke="orange" d="M259.19,-1326.67C252.11,-1225.61 243.04,-1096.22 236.09,-997.15"/>
<polygon fill="orange" stroke="orange" points="255.7,-1326.94 259.89,-1336.67 262.68,-1326.45 255.7,-1326.94"/>
</a>
</g>
<text text-anchor="middle" x="285" y="-1164.5" font-family="Helvetica,sans-Serif" font-size="10.00" fill="grey"> &lt; _Tp, 4 &gt;</text>
</g>
<!-- Node11 -->
<g id="Node000011" class="node">
<title>Node11</title>
<g id="a_Node000011"><a xlink:title=" ">
<polygon fill="white" stroke="transparent" points="271,-290 248,-290 248,-241 271,-241 271,-290"/>
<text text-anchor="start" x="253.5" y="-277.5" font-family="Helvetica,sans-Serif" font-size="10.00">int</text>
<text text-anchor="start" x="258" y="-262.5" font-family="Helvetica,sans-Serif" font-size="10.00"> </text>
<text text-anchor="start" x="258" y="-247.5" font-family="Helvetica,sans-Serif" font-size="10.00"> </text>
<polygon fill="#666666" stroke="#666666" points="248.5,-272.5 248.5,-272.5 271.5,-272.5 271.5,-272.5 248.5,-272.5"/>
<polygon fill="#666666" stroke="#666666" points="248.5,-257.5 248.5,-257.5 271.5,-257.5 271.5,-257.5 248.5,-257.5"/>
<polygon fill="none" stroke="#666666" points="248,-241 248,-290 271,-290 271,-241 248,-241"/>
</a>
</g>
</g>
<!-- Node11&#45;&gt;Node1 -->
<g id="edge13_Node000001_Node000011" class="edge">
<title>Node11&#45;&gt;Node1</title>
<g id="a_edge13_Node000001_Node000011"><a xlink:title=" ">
<path fill="none" stroke="#63b8ff" d="M255.57,-240.99C251.67,-218.01 245.45,-182.05 239.5,-151 233.66,-120.53 226.47,-86.02 221.13,-60.91"/>
<polygon fill="none" stroke="#63b8ff" points="221.1,-60.79 215.94,-55.75 218.6,-49.05 223.76,-54.08 221.1,-60.79"/>
</a>
</g>
<text text-anchor="middle" x="262" y="-125" font-family="Helvetica,sans-Serif" font-size="10.00" fill="grey"> +ascii</text>
<text text-anchor="middle" x="262" y="-114" font-family="Helvetica,sans-Serif" font-size="10.00" fill="grey">+cyrillic</text>
<text text-anchor="middle" x="262" y="-103" font-family="Helvetica,sans-Serif" font-size="10.00" fill="grey">+font_face</text>
<text text-anchor="middle" x="262" y="-92" font-family="Helvetica,sans-Serif" font-size="10.00" fill="grey">+greek</text>
<text text-anchor="middle" x="262" y="-81" font-family="Helvetica,sans-Serif" font-size="10.00" fill="grey">+line_type</text>
<text text-anchor="middle" x="262" y="-70" font-family="Helvetica,sans-Serif" font-size="10.00" fill="grey">+thickness</text>
</g>
<!-- Node12 -->
<g id="Node000012" class="node">
<title>Node12</title>
<g id="a_Node000012"><a xlink:title=" ">
<polygon fill="white" stroke="transparent" points="337.5,-290 305.5,-290 305.5,-241 337.5,-241 337.5,-290"/>
<text text-anchor="start" x="310.5" y="-277.5" font-family="Helvetica,sans-Serif" font-size="10.00">float</text>
<text text-anchor="start" x="319.5" y="-262.5" font-family="Helvetica,sans-Serif" font-size="10.00"> </text>
<text text-anchor="start" x="319.5" y="-247.5" font-family="Helvetica,sans-Serif" font-size="10.00"> </text>
<polygon fill="#666666" stroke="#666666" points="305.5,-272.5 305.5,-272.5 337.5,-272.5 337.5,-272.5 305.5,-272.5"/>
<polygon fill="#666666" stroke="#666666" points="305.5,-257.5 305.5,-257.5 337.5,-257.5 337.5,-257.5 305.5,-257.5"/>
<polygon fill="none" stroke="#666666" points="305.5,-241 305.5,-290 337.5,-290 337.5,-241 305.5,-241"/>
</a>
</g>
</g>
<!-- Node12&#45;&gt;Node1 -->
<g id="edge14_Node000001_Node000012" class="edge">
<title>Node12&#45;&gt;Node1</title>
<g id="a_edge14_Node000001_Node000012"><a xlink:title=" ">
<path fill="none" stroke="#63b8ff" d="M324.66,-240.71C328.63,-200.87 330.95,-119.84 293.5,-67 284.08,-53.7 269.08,-44.36 254.6,-37.95"/>
<polygon fill="none" stroke="#63b8ff" points="254.37,-37.85 247.32,-39.35 243.22,-33.42 250.27,-31.92 254.37,-37.85"/>
</a>
</g>
<text text-anchor="middle" x="339.5" y="-114" font-family="Helvetica,sans-Serif" font-size="10.00" fill="grey"> +dx</text>
<text text-anchor="middle" x="339.5" y="-103" font-family="Helvetica,sans-Serif" font-size="10.00" fill="grey">+hscale</text>
<text text-anchor="middle" x="339.5" y="-92" font-family="Helvetica,sans-Serif" font-size="10.00" fill="grey">+shear</text>
<text text-anchor="middle" x="339.5" y="-81" font-family="Helvetica,sans-Serif" font-size="10.00" fill="grey">+vscale</text>
</g>
</g>
</svg>
