<?xml version="1.0" encoding="UTF-8" standalone="no"?>
<!DOCTYPE svg PUBLIC "-//W3C//DTD SVG 1.1//EN"
 "http://www.w3.org/Graphics/SVG/1.1/DTD/svg11.dtd">
<!-- Generated by graphviz version 2.43.0 (0)
 -->
<!-- Title: cv::detail::tracking::tbm::ResizedImageDescriptor::compute Pages: 1 -->
<svg width="300pt" height="64pt"
 viewBox="0.00 0.00 300.00 64.00" xmlns="http://www.w3.org/2000/svg" xmlns:xlink="http://www.w3.org/1999/xlink">
<g id="graph0" class="graph" transform="scale(1 1) rotate(0) translate(4 60)">
<title>cv::detail::tracking::tbm::ResizedImageDescriptor::compute</title>
<!-- Node1 -->
<g id="Node000001" class="node">
<title>Node1</title>
<g id="a_Node000001"><a xlink:title="Computes image descriptor.">
<polygon fill="#999999" stroke="#666666" points="167,-48 0,-48 0,-7 167,-7 167,-48"/>
<text text-anchor="start" x="8" y="-36" font-family="Helvetica,sans-Serif" font-size="10.00">cv::detail::tracking</text>
<text text-anchor="start" x="8" y="-25" font-family="Helvetica,sans-Serif" font-size="10.00">::tbm::ResizedImageDescriptor</text>
<text text-anchor="middle" x="83.5" y="-14" font-family="Helvetica,sans-Serif" font-size="10.00">::compute</text>
</a>
</g>
</g>
<!-- Node2 -->
<g id="Node000002" class="node">
<title>Node2</title>
<g id="a_Node000002"><a xlink:href="../../d3/d63/classcv_1_1Mat.html#abbec3525a852e77998aba034813fded4" target="_top" xlink:title="Returns true if the array has no elements.">
<polygon fill="white" stroke="#666666" points="292,-56 203,-56 203,-37 292,-37 292,-56"/>
<text text-anchor="middle" x="247.5" y="-44" font-family="Helvetica,sans-Serif" font-size="10.00">cv::Mat::empty</text>
</a>
</g>
</g>
<!-- Node1&#45;&gt;Node2 -->
<g id="edge1_Node000001_Node000002" class="edge">
<title>Node1&#45;&gt;Node2</title>
<g id="a_edge1_Node000001_Node000002"><a xlink:title=" ">
<path fill="none" stroke="#63b8ff" d="M167.4,-37.22C176.05,-38.24 184.67,-39.25 192.86,-40.21"/>
<polygon fill="#63b8ff" stroke="#63b8ff" points="192.65,-43.71 202.99,-41.4 193.46,-36.76 192.65,-43.71"/>
</a>
</g>
</g>
<!-- Node3 -->
<g id="Node000003" class="node">
<title>Node3</title>
<g id="a_Node000003"><a xlink:href="../../da/d54/group__imgproc__transform.html#ga47a974309e9102f5f08231edc7e7529d" target="_top" xlink:title="Resizes an image.">
<polygon fill="white" stroke="#666666" points="278.5,-19 216.5,-19 216.5,0 278.5,0 278.5,-19"/>
<text text-anchor="middle" x="247.5" y="-7" font-family="Helvetica,sans-Serif" font-size="10.00">cv::resize</text>
</a>
</g>
</g>
<!-- Node1&#45;&gt;Node3 -->
<g id="edge2_Node000001_Node000003" class="edge">
<title>Node1&#45;&gt;Node3</title>
<g id="a_edge2_Node000001_Node000003"><a xlink:title=" ">
<path fill="none" stroke="#63b8ff" d="M167.4,-18.29C181.01,-16.78 194.54,-15.27 206.47,-13.95"/>
<polygon fill="#63b8ff" stroke="#63b8ff" points="206.95,-17.42 216.5,-12.83 206.17,-10.46 206.95,-17.42"/>
</a>
</g>
</g>
</g>
</svg>
