<?xml version="1.0" encoding="UTF-8" standalone="no"?>
<!DOCTYPE svg PUBLIC "-//W3C//DTD SVG 1.1//EN"
 "http://www.w3.org/Graphics/SVG/1.1/DTD/svg11.dtd">
<!-- Generated by graphviz version 2.43.0 (0)
 -->
<!-- Title: cv::TrackerGOTURN::Params Pages: 1 -->
<svg width="121pt" height="272pt"
 viewBox="0.00 0.00 121.00 272.00" xmlns="http://www.w3.org/2000/svg" xmlns:xlink="http://www.w3.org/1999/xlink">
<g id="graph0" class="graph" transform="scale(1 1) rotate(0) translate(4 268)">
<title>cv::TrackerGOTURN::Params</title>
<!-- Node1 -->
<g id="Node000001" class="node">
<title>Node1</title>
<g id="a_Node000001"><a xlink:title=" ">
<polygon fill="#999999" stroke="transparent" points="110,-60 0,-60 0,0 110,0 110,-60"/>
<text text-anchor="start" x="5" y="-48" font-family="Helvetica,sans-Serif" font-size="10.00">cv::TrackerGOTURN::</text>
<text text-anchor="start" x="36.5" y="-37" font-family="Helvetica,sans-Serif" font-size="10.00">Params</text>
<text text-anchor="start" x="53" y="-22" font-family="Helvetica,sans-Serif" font-size="10.00"> </text>
<text text-anchor="start" x="15" y="-7" font-family="Helvetica,sans-Serif" font-size="10.00">+</text>
<text text-anchor="start" x="39" y="-7" font-family="Helvetica,sans-Serif" font-size="10.00">Params()</text>
<polygon fill="#666666" stroke="#666666" points="0,-32 0,-32 110,-32 110,-32 0,-32"/>
<polygon fill="#666666" stroke="#666666" points="0,-17 0,-17 110,-17 110,-17 0,-17"/>
<polygon fill="none" stroke="#666666" points="0,0 0,-60 110,-60 110,0 0,0"/>
</a>
</g>
</g>
<!-- Node2 -->
<g id="Node000002" class="node">
<title>Node2</title>
<g id="a_Node000002"><a xlink:title=" ">
<polygon fill="white" stroke="transparent" points="84.5,-167 25.5,-167 25.5,-118 84.5,-118 84.5,-167"/>
<text text-anchor="start" x="31" y="-154.5" font-family="Helvetica,sans-Serif" font-size="10.00">std::string</text>
<text text-anchor="start" x="53.5" y="-139.5" font-family="Helvetica,sans-Serif" font-size="10.00"> </text>
<text text-anchor="start" x="53.5" y="-124.5" font-family="Helvetica,sans-Serif" font-size="10.00"> </text>
<polygon fill="#666666" stroke="#666666" points="26,-149.5 26,-149.5 85,-149.5 85,-149.5 26,-149.5"/>
<polygon fill="#666666" stroke="#666666" points="26,-134.5 26,-134.5 85,-134.5 85,-134.5 26,-134.5"/>
<polygon fill="none" stroke="#666666" points="25.5,-118 25.5,-167 84.5,-167 84.5,-118 25.5,-118"/>
</a>
</g>
</g>
<!-- Node2&#45;&gt;Node1 -->
<g id="edge1_Node000001_Node000002" class="edge">
<title>Node2&#45;&gt;Node1</title>
<g id="a_edge1_Node000001_Node000002"><a xlink:title=" ">
<path fill="none" stroke="#63b8ff" d="M55,-117.79C55,-104.62 55,-87.84 55,-72.55"/>
<polygon fill="none" stroke="#63b8ff" points="55,-72.17 51,-66.17 55,-60.17 59,-66.17 55,-72.17"/>
</a>
</g>
<text text-anchor="middle" x="84" y="-92" font-family="Helvetica,sans-Serif" font-size="10.00" fill="grey"> +modelBin</text>
<text text-anchor="middle" x="84" y="-81" font-family="Helvetica,sans-Serif" font-size="10.00" fill="grey">+modelTxt</text>
</g>
<!-- Node3 -->
<g id="Node000003" class="node">
<title>Node3</title>
<g id="a_Node000003"><a xlink:title=" ">
<polygon fill="white" stroke="transparent" points="104,-264 6,-264 6,-204 104,-204 104,-264"/>
<text text-anchor="start" x="11" y="-252" font-family="Helvetica,sans-Serif" font-size="10.00">std::basic_string&lt;</text>
<text text-anchor="start" x="36.5" y="-241" font-family="Helvetica,sans-Serif" font-size="10.00"> Char &gt;</text>
<text text-anchor="start" x="53" y="-226" font-family="Helvetica,sans-Serif" font-size="10.00"> </text>
<text text-anchor="start" x="53" y="-211" font-family="Helvetica,sans-Serif" font-size="10.00"> </text>
<polygon fill="#666666" stroke="#666666" points="6,-236 6,-236 104,-236 104,-236 6,-236"/>
<polygon fill="#666666" stroke="#666666" points="6,-221 6,-221 104,-221 104,-221 6,-221"/>
<polygon fill="none" stroke="#666666" points="6,-204 6,-264 104,-264 104,-204 6,-204"/>
</a>
</g>
</g>
<!-- Node3&#45;&gt;Node2 -->
<g id="edge2_Node000002_Node000003" class="edge">
<title>Node3&#45;&gt;Node2</title>
<g id="a_edge2_Node000002_Node000003"><a xlink:title=" ">
<path fill="none" stroke="#63b8ff" d="M55,-193.41C55,-184.47 55,-175.25 55,-167.21"/>
<polygon fill="none" stroke="#63b8ff" points="51.5,-193.69 55,-203.69 58.5,-193.69 51.5,-193.69"/>
</a>
</g>
</g>
</g>
</svg>
