<?xml version="1.0" encoding="UTF-8" standalone="no"?>
<!DOCTYPE svg PUBLIC "-//W3C//DTD SVG 1.1//EN"
 "http://www.w3.org/Graphics/SVG/1.1/DTD/svg11.dtd">
<!-- Generated by graphviz version 2.43.0 (0)
 -->
<!-- Title: cv::detail::PlanePortraitProjector Pages: 1 -->
<svg width="136pt" height="320pt"
 viewBox="0.00 0.00 136.00 320.00" xmlns="http://www.w3.org/2000/svg" xmlns:xlink="http://www.w3.org/1999/xlink">
<g id="graph0" class="graph" transform="scale(1 1) rotate(0) translate(4 316)">
<title>cv::detail::PlanePortraitProjector</title>
<!-- Node1 -->
<g id="Node000001" class="node">
<title>Node1</title>
<g id="a_Node000001"><a xlink:title=" ">
<polygon fill="#999999" stroke="transparent" points="126,-75 2,-75 2,0 126,0 126,-75"/>
<text text-anchor="start" x="7" y="-62.5" font-family="Helvetica,sans-Serif" font-size="10.00">cv::detail::PlanePortrait</text>
<text text-anchor="start" x="42" y="-51.5" font-family="Helvetica,sans-Serif" font-size="10.00">Projector</text>
<text text-anchor="start" x="62" y="-36.5" font-family="Helvetica,sans-Serif" font-size="10.00"> </text>
<text text-anchor="start" x="12" y="-21.5" font-family="Helvetica,sans-Serif" font-size="10.00">+</text>
<text text-anchor="start" x="31" y="-21.5" font-family="Helvetica,sans-Serif" font-size="10.00">mapBackward()</text>
<text text-anchor="start" x="12" y="-6.5" font-family="Helvetica,sans-Serif" font-size="10.00">+</text>
<text text-anchor="start" x="31" y="-6.5" font-family="Helvetica,sans-Serif" font-size="10.00">mapForward()</text>
<polygon fill="#666666" stroke="#666666" points="2,-46.5 2,-46.5 126,-46.5 126,-46.5 2,-46.5"/>
<polygon fill="#666666" stroke="#666666" points="2,-31.5 2,-31.5 126,-31.5 126,-31.5 2,-31.5"/>
<polygon fill="none" stroke="#666666" points="2,0 2,-75 126,-75 126,0 2,0"/>
</a>
</g>
</g>
<!-- Node2 -->
<g id="Node000002" class="node">
<title>Node2</title>
<g id="a_Node000002"><a xlink:href="../../dc/d2c/structcv_1_1detail_1_1ProjectorBase.html" target="_top" xlink:title="Base class for warping logic implementation.">
<polygon fill="white" stroke="transparent" points="128,-161 0,-161 0,-112 128,-112 128,-161"/>
<text text-anchor="start" x="5" y="-148.5" font-family="Helvetica,sans-Serif" font-size="10.00">cv::detail::ProjectorBase</text>
<text text-anchor="start" x="62" y="-133.5" font-family="Helvetica,sans-Serif" font-size="10.00"> </text>
<text text-anchor="start" x="6.5" y="-118.5" font-family="Helvetica,sans-Serif" font-size="10.00">+</text>
<text text-anchor="start" x="22" y="-118.5" font-family="Helvetica,sans-Serif" font-size="10.00">setCameraParams()</text>
<polygon fill="#666666" stroke="#666666" points="0,-143.5 0,-143.5 128,-143.5 128,-143.5 0,-143.5"/>
<polygon fill="#666666" stroke="#666666" points="0,-128.5 0,-128.5 128,-128.5 128,-128.5 0,-128.5"/>
<polygon fill="none" stroke="#666666" points="0,-112 0,-161 128,-161 128,-112 0,-112"/>
</a>
</g>
</g>
<!-- Node2&#45;&gt;Node1 -->
<g id="edge1_Node000001_Node000002" class="edge">
<title>Node2&#45;&gt;Node1</title>
<g id="a_edge1_Node000001_Node000002"><a xlink:title=" ">
<path fill="none" stroke="#63b8ff" d="M64,-101.5C64,-92.94 64,-83.72 64,-75.05"/>
<polygon fill="none" stroke="#63b8ff" points="60.5,-101.52 64,-111.52 67.5,-101.52 60.5,-101.52"/>
</a>
</g>
</g>
<!-- Node3 -->
<g id="Node000003" class="node">
<title>Node3</title>
<g id="a_Node000003"><a xlink:title=" ">
<polygon fill="white" stroke="transparent" points="80,-312 48,-312 48,-263 80,-263 80,-312"/>
<text text-anchor="start" x="53" y="-299.5" font-family="Helvetica,sans-Serif" font-size="10.00">float</text>
<text text-anchor="start" x="62" y="-284.5" font-family="Helvetica,sans-Serif" font-size="10.00"> </text>
<text text-anchor="start" x="62" y="-269.5" font-family="Helvetica,sans-Serif" font-size="10.00"> </text>
<polygon fill="#666666" stroke="#666666" points="48,-294.5 48,-294.5 80,-294.5 80,-294.5 48,-294.5"/>
<polygon fill="#666666" stroke="#666666" points="48,-279.5 48,-279.5 80,-279.5 80,-279.5 48,-279.5"/>
<polygon fill="none" stroke="#666666" points="48,-263 48,-312 80,-312 80,-263 48,-263"/>
</a>
</g>
</g>
<!-- Node3&#45;&gt;Node2 -->
<g id="edge2_Node000002_Node000003" class="edge">
<title>Node3&#45;&gt;Node2</title>
<g id="a_edge2_Node000002_Node000003"><a xlink:title=" ">
<path fill="none" stroke="#63b8ff" d="M64,-262.89C64,-238.95 64,-201.57 64,-173.85"/>
<polygon fill="none" stroke="#63b8ff" points="64,-173.49 60,-167.49 64,-161.49 68,-167.49 64,-173.49"/>
</a>
</g>
<text text-anchor="middle" x="83.5" y="-237" font-family="Helvetica,sans-Serif" font-size="10.00" fill="grey"> +k</text>
<text text-anchor="middle" x="83.5" y="-226" font-family="Helvetica,sans-Serif" font-size="10.00" fill="grey">+k_rinv</text>
<text text-anchor="middle" x="83.5" y="-215" font-family="Helvetica,sans-Serif" font-size="10.00" fill="grey">+r_kinv</text>
<text text-anchor="middle" x="83.5" y="-204" font-family="Helvetica,sans-Serif" font-size="10.00" fill="grey">+rinv</text>
<text text-anchor="middle" x="83.5" y="-193" font-family="Helvetica,sans-Serif" font-size="10.00" fill="grey">+scale</text>
<text text-anchor="middle" x="83.5" y="-182" font-family="Helvetica,sans-Serif" font-size="10.00" fill="grey">+t</text>
</g>
</g>
</svg>
