<?xml version="1.0" encoding="UTF-8" standalone="no"?>
<!DOCTYPE svg PUBLIC "-//W3C//DTD SVG 1.1//EN"
 "http://www.w3.org/Graphics/SVG/1.1/DTD/svg11.dtd">
<!-- Generated by graphviz version 2.43.0 (0)
 -->
<!-- Title: cv::dnn::KeypointsModel Pages: 1 -->
<svg width="137pt" height="419pt"
 viewBox="0.00 0.00 137.00 419.00" xmlns="http://www.w3.org/2000/svg" xmlns:xlink="http://www.w3.org/1999/xlink">
<g id="graph0" class="graph" transform="scale(1 1) rotate(0) translate(4 415)">
<title>cv::dnn::KeypointsModel</title>
<!-- Node1 -->
<g id="Node000001" class="node">
<title>Node1</title>
<g id="a_Node000001"><a xlink:title="This class represents high&#45;level API for keypoints models.">
<polygon fill="#999999" stroke="transparent" points="129,-79 0,-79 0,0 129,0 129,-79"/>
<text text-anchor="start" x="5.5" y="-66.5" font-family="Helvetica,sans-Serif" font-size="10.00">cv::dnn::KeypointsModel</text>
<text text-anchor="start" x="63" y="-51.5" font-family="Helvetica,sans-Serif" font-size="10.00"> </text>
<text text-anchor="start" x="10" y="-36.5" font-family="Helvetica,sans-Serif" font-size="10.00">+</text>
<text text-anchor="start" x="28.5" y="-36.5" font-family="Helvetica,sans-Serif" font-size="10.00">KeypointsModel()</text>
<text text-anchor="start" x="10" y="-21.5" font-family="Helvetica,sans-Serif" font-size="10.00">+</text>
<text text-anchor="start" x="28.5" y="-21.5" font-family="Helvetica,sans-Serif" font-size="10.00">KeypointsModel()</text>
<text text-anchor="start" x="10" y="-6.5" font-family="Helvetica,sans-Serif" font-size="10.00">+</text>
<text text-anchor="start" x="28.5" y="-6.5" font-family="Helvetica,sans-Serif" font-size="10.00">estimate()</text>
<polygon fill="#666666" stroke="#666666" points="0.5,-61.5 0.5,-61.5 129.5,-61.5 129.5,-61.5 0.5,-61.5"/>
<polygon fill="#666666" stroke="#666666" points="0.5,-46.5 0.5,-46.5 129.5,-46.5 129.5,-46.5 0.5,-46.5"/>
<polygon fill="none" stroke="#666666" points="0,0 0,-79 129,-79 129,0 0,0"/>
</a>
</g>
</g>
<!-- Node2 -->
<g id="Node000002" class="node">
<title>Node2</title>
<g id="a_Node000002"><a xlink:href="../../d3/df0/classcv_1_1dnn_1_1Model.html" target="_top" xlink:title="This class is presented high&#45;level API for neural networks.">
<polygon fill="white" stroke="transparent" points="119,-315 10,-315 10,-116 119,-116 119,-315"/>
<text text-anchor="start" x="29.5" y="-302.5" font-family="Helvetica,sans-Serif" font-size="10.00">cv::dnn::Model</text>
<text text-anchor="start" x="63" y="-287.5" font-family="Helvetica,sans-Serif" font-size="10.00"> </text>
<text text-anchor="start" x="14.5" y="-272.5" font-family="Helvetica,sans-Serif" font-size="10.00">+</text>
<text text-anchor="start" x="27.5" y="-272.5" font-family="Helvetica,sans-Serif" font-size="10.00">Model()</text>
<text text-anchor="start" x="14.5" y="-257.5" font-family="Helvetica,sans-Serif" font-size="10.00">+</text>
<text text-anchor="start" x="27.5" y="-257.5" font-family="Helvetica,sans-Serif" font-size="10.00">Model()</text>
<text text-anchor="start" x="14.5" y="-242.5" font-family="Helvetica,sans-Serif" font-size="10.00">+</text>
<text text-anchor="start" x="27.5" y="-242.5" font-family="Helvetica,sans-Serif" font-size="10.00">Model()</text>
<text text-anchor="start" x="14.5" y="-227.5" font-family="Helvetica,sans-Serif" font-size="10.00">+</text>
<text text-anchor="start" x="27.5" y="-227.5" font-family="Helvetica,sans-Serif" font-size="10.00">Model()</text>
<text text-anchor="start" x="14.5" y="-212.5" font-family="Helvetica,sans-Serif" font-size="10.00">+</text>
<text text-anchor="start" x="27.5" y="-212.5" font-family="Helvetica,sans-Serif" font-size="10.00">Model()</text>
<text text-anchor="start" x="14.5" y="-197.5" font-family="Helvetica,sans-Serif" font-size="10.00">+</text>
<text text-anchor="start" x="27.5" y="-197.5" font-family="Helvetica,sans-Serif" font-size="10.00">enableWinograd()</text>
<text text-anchor="start" x="14.5" y="-182.5" font-family="Helvetica,sans-Serif" font-size="10.00">+</text>
<text text-anchor="start" x="27.5" y="-182.5" font-family="Helvetica,sans-Serif" font-size="10.00">getImpl()</text>
<text text-anchor="start" x="14.5" y="-167.5" font-family="Helvetica,sans-Serif" font-size="10.00">+</text>
<text text-anchor="start" x="27.5" y="-167.5" font-family="Helvetica,sans-Serif" font-size="10.00">getImplRef()</text>
<text text-anchor="start" x="14.5" y="-152.5" font-family="Helvetica,sans-Serif" font-size="10.00">+</text>
<text text-anchor="start" x="27.5" y="-152.5" font-family="Helvetica,sans-Serif" font-size="10.00">getNetwork_()</text>
<text text-anchor="start" x="14.5" y="-137.5" font-family="Helvetica,sans-Serif" font-size="10.00">+</text>
<text text-anchor="start" x="27.5" y="-137.5" font-family="Helvetica,sans-Serif" font-size="10.00">getNetwork_()</text>
<text text-anchor="start" x="27.5" y="-122.5" font-family="Helvetica,sans-Serif" font-size="10.00">and 14 more...</text>
<polygon fill="#666666" stroke="#666666" points="10.5,-297.5 10.5,-297.5 119.5,-297.5 119.5,-297.5 10.5,-297.5"/>
<polygon fill="#666666" stroke="#666666" points="10.5,-282.5 10.5,-282.5 119.5,-282.5 119.5,-282.5 10.5,-282.5"/>
<polygon fill="none" stroke="#666666" points="10,-116 10,-315 119,-315 119,-116 10,-116"/>
</a>
</g>
</g>
<!-- Node2&#45;&gt;Node1 -->
<g id="edge1_Node000001_Node000002" class="edge">
<title>Node2&#45;&gt;Node1</title>
<g id="a_edge1_Node000001_Node000002"><a xlink:title=" ">
<path fill="none" stroke="#63b8ff" d="M64.5,-105.63C64.5,-96.37 64.5,-87.45 64.5,-79.35"/>
<polygon fill="none" stroke="#63b8ff" points="61,-105.81 64.5,-115.81 68,-105.81 61,-105.81"/>
</a>
</g>
</g>
<!-- Node3 -->
<g id="Node000003" class="node">
<title>Node3</title>
<g id="a_Node000003"><a xlink:title=" ">
<polygon fill="white" stroke="transparent" points="98.5,-411 30.5,-411 30.5,-362 98.5,-362 98.5,-411"/>
<text text-anchor="start" x="35.5" y="-398.5" font-family="Helvetica,sans-Serif" font-size="10.00">Ptr&lt; Impl &gt;</text>
<text text-anchor="start" x="62.5" y="-383.5" font-family="Helvetica,sans-Serif" font-size="10.00"> </text>
<text text-anchor="start" x="62.5" y="-368.5" font-family="Helvetica,sans-Serif" font-size="10.00"> </text>
<polygon fill="#666666" stroke="#666666" points="30.5,-393.5 30.5,-393.5 98.5,-393.5 98.5,-393.5 30.5,-393.5"/>
<polygon fill="#666666" stroke="#666666" points="30.5,-378.5 30.5,-378.5 98.5,-378.5 98.5,-378.5 30.5,-378.5"/>
<polygon fill="none" stroke="#666666" points="30.5,-362 30.5,-411 98.5,-411 98.5,-362 30.5,-362"/>
</a>
</g>
</g>
<!-- Node3&#45;&gt;Node2 -->
<g id="edge2_Node000002_Node000003" class="edge">
<title>Node3&#45;&gt;Node2</title>
<g id="a_edge2_Node000002_Node000003"><a xlink:title=" ">
<path fill="none" stroke="#63b8ff" d="M64.5,-361.64C64.5,-352.06 64.5,-340.28 64.5,-327.6"/>
<polygon fill="none" stroke="#63b8ff" points="64.5,-327.22 60.5,-321.22 64.5,-315.22 68.5,-321.22 64.5,-327.22"/>
</a>
</g>
<text text-anchor="middle" x="81.5" y="-336" font-family="Helvetica,sans-Serif" font-size="10.00" fill="grey"> #impl</text>
</g>
</g>
</svg>
