<?xml version="1.0" encoding="UTF-8" standalone="no"?>
<!DOCTYPE svg PUBLIC "-//W3C//DTD SVG 1.1//EN"
 "http://www.w3.org/Graphics/SVG/1.1/DTD/svg11.dtd">
<!-- Generated by graphviz version 2.43.0 (0)
 -->
<!-- Title: cv::gapi::wip::IStreamSource Pages: 1 -->
<svg width="164pt" height="213pt"
 viewBox="0.00 0.00 164.00 213.00" xmlns="http://www.w3.org/2000/svg" xmlns:xlink="http://www.w3.org/1999/xlink">
<g id="graph0" class="graph" transform="scale(1 1) rotate(0) translate(4 209)">
<title>cv::gapi::wip::IStreamSource</title>
<!-- Node1 -->
<g id="Node000001" class="node">
<title>Node1</title>
<g id="a_Node000001"><a xlink:title="Abstract streaming pipeline source.">
<polygon fill="#999999" stroke="transparent" points="152.5,-109 3.5,-109 3.5,0 152.5,0 152.5,-109"/>
<text text-anchor="start" x="9" y="-96.5" font-family="Helvetica,sans-Serif" font-size="10.00">cv::gapi::wip::IStreamSource</text>
<text text-anchor="start" x="76.5" y="-81.5" font-family="Helvetica,sans-Serif" font-size="10.00"> </text>
<text text-anchor="start" x="18" y="-66.5" font-family="Helvetica,sans-Serif" font-size="10.00">+</text>
<text text-anchor="start" x="41" y="-66.5" font-family="Helvetica,sans-Serif" font-size="10.00">~IStreamSource()</text>
<text text-anchor="start" x="18" y="-51.5" font-family="Helvetica,sans-Serif" font-size="10.00">+</text>
<text text-anchor="start" x="41" y="-51.5" font-family="Helvetica,sans-Serif" font-size="10.00">descr_of()</text>
<text text-anchor="start" x="18" y="-36.5" font-family="Helvetica,sans-Serif" font-size="10.00">+</text>
<text text-anchor="start" x="41" y="-36.5" font-family="Helvetica,sans-Serif" font-size="10.00">halt()</text>
<text text-anchor="start" x="18" y="-21.5" font-family="Helvetica,sans-Serif" font-size="10.00">+</text>
<text text-anchor="start" x="41" y="-21.5" font-family="Helvetica,sans-Serif" font-size="10.00">ptr()</text>
<text text-anchor="start" x="18" y="-6.5" font-family="Helvetica,sans-Serif" font-size="10.00">+</text>
<text text-anchor="start" x="41" y="-6.5" font-family="Helvetica,sans-Serif" font-size="10.00">pull()</text>
<polygon fill="#666666" stroke="#666666" points="4,-91.5 4,-91.5 153,-91.5 153,-91.5 4,-91.5"/>
<polygon fill="#666666" stroke="#666666" points="4,-76.5 4,-76.5 153,-76.5 153,-76.5 4,-76.5"/>
<polygon fill="none" stroke="#666666" points="3.5,0 3.5,-109 152.5,-109 152.5,0 3.5,0"/>
</a>
</g>
</g>
<!-- Node2 -->
<g id="Node000002" class="node">
<title>Node2</title>
<g id="a_Node000002"><a xlink:title=" ">
<polygon fill="white" stroke="transparent" points="156,-205 0,-205 0,-145 156,-145 156,-205"/>
<text text-anchor="start" x="5" y="-193" font-family="Helvetica,sans-Serif" font-size="10.00">std::enable_shared</text>
<text text-anchor="start" x="5" y="-182" font-family="Helvetica,sans-Serif" font-size="10.00">_from_this&lt; IStreamSource &gt;</text>
<text text-anchor="start" x="76" y="-167" font-family="Helvetica,sans-Serif" font-size="10.00"> </text>
<text text-anchor="start" x="76" y="-152" font-family="Helvetica,sans-Serif" font-size="10.00"> </text>
<polygon fill="#666666" stroke="#666666" points="0,-177 0,-177 156,-177 156,-177 0,-177"/>
<polygon fill="#666666" stroke="#666666" points="0,-162 0,-162 156,-162 156,-162 0,-162"/>
<polygon fill="none" stroke="#666666" points="0,-145 0,-205 156,-205 156,-145 0,-145"/>
</a>
</g>
</g>
<!-- Node2&#45;&gt;Node1 -->
<g id="edge1_Node000001_Node000002" class="edge">
<title>Node2&#45;&gt;Node1</title>
<g id="a_edge1_Node000001_Node000002"><a xlink:title=" ">
<path fill="none" stroke="#63b8ff" d="M78,-134.5C78,-126.45 78,-117.85 78,-109.4"/>
<polygon fill="none" stroke="#63b8ff" points="74.5,-134.71 78,-144.71 81.5,-134.71 74.5,-134.71"/>
</a>
</g>
</g>
</g>
</svg>
