<?xml version="1.0" encoding="UTF-8" standalone="no"?>
<!DOCTYPE svg PUBLIC "-//W3C//DTD SVG 1.1//EN"
 "http://www.w3.org/Graphics/SVG/1.1/DTD/svg11.dtd">
<!-- Generated by graphviz version 2.43.0 (0)
 -->
<!-- Title: opencv2/face/facemark.hpp Pages: 1 -->
<svg width="635pt" height="258pt"
 viewBox="0.00 0.00 634.50 258.00" xmlns="http://www.w3.org/2000/svg" xmlns:xlink="http://www.w3.org/1999/xlink">
<g id="graph0" class="graph" transform="scale(1 1) rotate(0) translate(4 254)">
<title>opencv2/face/facemark.hpp</title>
<!-- Node1 -->
<g id="Node000001" class="node">
<title>Node1</title>
<g id="a_Node000001"><a xlink:title=" ">
<polygon fill="#999999" stroke="#666666" points="152,-250 0,-250 0,-231 152,-231 152,-250"/>
<text text-anchor="middle" x="76" y="-238" font-family="Helvetica,sans-Serif" font-size="10.00">opencv2/face/facemark.hpp</text>
</a>
</g>
</g>
<!-- Node2 -->
<g id="Node000002" class="node">
<title>Node2</title>
<g id="a_Node000002"><a xlink:href="../../d2/dc4/contrib_2modules_2face_2include_2opencv2_2face_8hpp.html" target="_top" xlink:title=" ">
<polygon fill="white" stroke="#666666" points="206.5,-74 103.5,-74 103.5,-55 206.5,-55 206.5,-74"/>
<text text-anchor="middle" x="155" y="-62" font-family="Helvetica,sans-Serif" font-size="10.00">opencv2/face.hpp</text>
</a>
</g>
</g>
<!-- Node1&#45;&gt;Node2 -->
<g id="edge1_Node000001_Node000002" class="edge">
<title>Node1&#45;&gt;Node2</title>
<g id="a_edge1_Node000001_Node000002"><a xlink:title=" ">
<path fill="none" stroke="#63b8ff" d="M64.44,-222.28C48.33,-195.92 23.6,-144.95 47,-110 59.75,-90.96 82.29,-80.06 103.49,-73.82"/>
<polygon fill="#63b8ff" stroke="#63b8ff" points="61.55,-224.26 69.88,-230.8 67.45,-220.49 61.55,-224.26"/>
</a>
</g>
</g>
<!-- Node4 -->
<g id="Node000004" class="node">
<title>Node4</title>
<g id="a_Node000004"><a xlink:href="../../dc/dd9/facemark__train_8hpp.html" target="_top" xlink:title=" ">
<polygon fill="white" stroke="#666666" points="220.5,-195 89.5,-195 89.5,-165 220.5,-165 220.5,-195"/>
<text text-anchor="start" x="97.5" y="-183" font-family="Helvetica,sans-Serif" font-size="10.00">opencv2/face/facemark</text>
<text text-anchor="middle" x="155" y="-172" font-family="Helvetica,sans-Serif" font-size="10.00">_train.hpp</text>
</a>
</g>
</g>
<!-- Node1&#45;&gt;Node4 -->
<g id="edge4_Node000001_Node000004" class="edge">
<title>Node1&#45;&gt;Node4</title>
<g id="a_edge4_Node000001_Node000004"><a xlink:title=" ">
<path fill="none" stroke="#63b8ff" d="M95.9,-224.77C108.17,-215.68 123.82,-204.09 135.94,-195.11"/>
<polygon fill="#63b8ff" stroke="#63b8ff" points="93.61,-222.1 87.66,-230.87 97.78,-227.73 93.61,-222.1"/>
</a>
</g>
</g>
<!-- Node3 -->
<g id="Node000003" class="node">
<title>Node3</title>
<g id="a_Node000003"><a xlink:href="../../dd/d81/facerec_8hpp.html" target="_top" xlink:title=" ">
<polygon fill="white" stroke="#666666" points="226,-19 84,-19 84,0 226,0 226,-19"/>
<text text-anchor="middle" x="155" y="-7" font-family="Helvetica,sans-Serif" font-size="10.00">opencv2/face/facerec.hpp</text>
</a>
</g>
</g>
<!-- Node2&#45;&gt;Node3 -->
<g id="edge2_Node000002_Node000003" class="edge">
<title>Node2&#45;&gt;Node3</title>
<g id="a_edge2_Node000002_Node000003"><a xlink:title=" ">
<path fill="none" stroke="#63b8ff" d="M148.51,-44.66C147.91,-35.93 148.36,-25.99 149.87,-19.09"/>
<polygon fill="#63b8ff" stroke="#63b8ff" points="145.06,-45.29 149.83,-54.75 152,-44.38 145.06,-45.29"/>
</a>
</g>
</g>
<!-- Node3&#45;&gt;Node2 -->
<g id="edge3_Node000003_Node000002" class="edge">
<title>Node3&#45;&gt;Node2</title>
<g id="a_edge3_Node000003_Node000002"><a xlink:title=" ">
<path fill="none" stroke="#63b8ff" d="M161.48,-29.13C162.1,-37.85 161.66,-47.8 160.17,-54.75"/>
<polygon fill="#63b8ff" stroke="#63b8ff" points="164.93,-28.53 160.13,-19.09 157.99,-29.47 164.93,-28.53"/>
</a>
</g>
</g>
<!-- Node4&#45;&gt;Node2 -->
<g id="edge5_Node000004_Node000002" class="edge">
<title>Node4&#45;&gt;Node2</title>
<g id="a_edge5_Node000004_Node000002"><a xlink:title=" ">
<path fill="none" stroke="#63b8ff" d="M93.76,-161.39C65.17,-149.81 40.33,-132.59 55,-110 67.16,-91.28 89.23,-80.36 109.54,-74.04"/>
<polygon fill="#63b8ff" stroke="#63b8ff" points="92.53,-164.67 103.12,-164.96 95.02,-158.13 92.53,-164.67"/>
</a>
</g>
</g>
<!-- Node5 -->
<g id="Node000005" class="node">
<title>Node5</title>
<g id="a_Node000005"><a xlink:href="../../d9/d91/face__alignment_8hpp.html" target="_top" xlink:title=" ">
<polygon fill="white" stroke="#666666" points="246,-129 64,-129 64,-110 246,-110 246,-129"/>
<text text-anchor="middle" x="155" y="-117" font-family="Helvetica,sans-Serif" font-size="10.00">opencv2/face/face_alignment.hpp</text>
</a>
</g>
</g>
<!-- Node4&#45;&gt;Node5 -->
<g id="edge6_Node000004_Node000005" class="edge">
<title>Node4&#45;&gt;Node5</title>
<g id="a_edge6_Node000004_Node000005"><a xlink:title=" ">
<path fill="none" stroke="#63b8ff" d="M155,-154.75C155,-145.72 155,-136.03 155,-129.27"/>
<polygon fill="#63b8ff" stroke="#63b8ff" points="151.5,-154.84 155,-164.84 158.5,-154.84 151.5,-154.84"/>
</a>
</g>
</g>
<!-- Node6 -->
<g id="Node000006" class="node">
<title>Node6</title>
<g id="a_Node000006"><a xlink:href="../../da/dc2/facemarkAAM_8hpp.html" target="_top" xlink:title=" ">
<polygon fill="white" stroke="#666666" points="439.5,-129 264.5,-129 264.5,-110 439.5,-110 439.5,-129"/>
<text text-anchor="middle" x="352" y="-117" font-family="Helvetica,sans-Serif" font-size="10.00">opencv2/face/facemarkAAM.hpp</text>
</a>
</g>
</g>
<!-- Node4&#45;&gt;Node6 -->
<g id="edge8_Node000004_Node000006" class="edge">
<title>Node4&#45;&gt;Node6</title>
<g id="a_edge8_Node000004_Node000006"><a xlink:title=" ">
<path fill="none" stroke="#63b8ff" d="M212.19,-162.02C248.58,-151.21 294.17,-137.67 323.2,-129.05"/>
<polygon fill="#63b8ff" stroke="#63b8ff" points="210.78,-158.79 202.19,-164.99 212.77,-165.5 210.78,-158.79"/>
</a>
</g>
</g>
<!-- Node7 -->
<g id="Node000007" class="node">
<title>Node7</title>
<g id="a_Node000007"><a xlink:href="../../db/dee/facemarkLBF_8hpp.html" target="_top" xlink:title=" ">
<polygon fill="white" stroke="#666666" points="626.5,-129 457.5,-129 457.5,-110 626.5,-110 626.5,-129"/>
<text text-anchor="middle" x="542" y="-117" font-family="Helvetica,sans-Serif" font-size="10.00">opencv2/face/facemarkLBF.hpp</text>
</a>
</g>
</g>
<!-- Node4&#45;&gt;Node7 -->
<g id="edge10_Node000004_Node000007" class="edge">
<title>Node4&#45;&gt;Node7</title>
<g id="a_edge10_Node000004_Node000007"><a xlink:title=" ">
<path fill="none" stroke="#63b8ff" d="M230.94,-167.52C305.73,-156.21 418.25,-139.21 485.48,-129.04"/>
<polygon fill="#63b8ff" stroke="#63b8ff" points="230.01,-164.12 220.65,-169.08 231.06,-171.04 230.01,-164.12"/>
</a>
</g>
</g>
<!-- Node5&#45;&gt;Node2 -->
<g id="edge7_Node000005_Node000002" class="edge">
<title>Node5&#45;&gt;Node2</title>
<g id="a_edge7_Node000005_Node000002"><a xlink:title=" ">
<path fill="none" stroke="#63b8ff" d="M155,-99.66C155,-90.93 155,-80.99 155,-74.09"/>
<polygon fill="#63b8ff" stroke="#63b8ff" points="151.5,-99.75 155,-109.75 158.5,-99.75 151.5,-99.75"/>
</a>
</g>
</g>
<!-- Node6&#45;&gt;Node2 -->
<g id="edge9_Node000006_Node000002" class="edge">
<title>Node6&#45;&gt;Node2</title>
<g id="a_edge9_Node000006_Node000002"><a xlink:title=" ">
<path fill="none" stroke="#63b8ff" d="M310.41,-107.31C273.55,-97.39 220.5,-83.12 186.9,-74.08"/>
<polygon fill="#63b8ff" stroke="#63b8ff" points="309.78,-110.77 320.35,-109.98 311.6,-104.01 309.78,-110.77"/>
</a>
</g>
</g>
<!-- Node7&#45;&gt;Node2 -->
<g id="edge11_Node000007_Node000002" class="edge">
<title>Node7&#45;&gt;Node2</title>
<g id="a_edge11_Node000007_Node000002"><a xlink:title=" ">
<path fill="none" stroke="#63b8ff" d="M469.78,-108.61C393.3,-98.14 274.47,-81.86 206.8,-72.59"/>
<polygon fill="#63b8ff" stroke="#63b8ff" points="469.44,-112.1 479.82,-109.98 470.39,-105.16 469.44,-112.1"/>
</a>
</g>
</g>
</g>
</svg>
