<?xml version="1.0" encoding="UTF-8" standalone="no"?>
<!DOCTYPE svg PUBLIC "-//W3C//DTD SVG 1.1//EN"
 "http://www.w3.org/Graphics/SVG/1.1/DTD/svg11.dtd">
<!-- Generated by graphviz version 2.43.0 (0)
 -->
<!-- Title: cv::AutoBuffer&lt; _Tp, fixed_size &gt; Pages: 1 -->
<svg width="136pt" height="355pt"
 viewBox="0.00 0.00 136.00 355.00" xmlns="http://www.w3.org/2000/svg" xmlns:xlink="http://www.w3.org/1999/xlink">
<g id="graph0" class="graph" transform="scale(1 1) rotate(0) translate(4 351)">
<title>cv::AutoBuffer&lt; _Tp, fixed_size &gt;</title>
<!-- Node1 -->
<g id="Node000001" class="node">
<title>Node1</title>
<g id="a_Node000001"><a xlink:title="Automatically Allocated Buffer Class.">
<polygon fill="#999999" stroke="transparent" points="128,-240 0,-240 0,0 128,0 128,-240"/>
<text text-anchor="start" x="14" y="-228" font-family="Helvetica,sans-Serif" font-size="10.00">cv::AutoBuffer&lt; _Tp,</text>
<text text-anchor="start" x="32.5" y="-217" font-family="Helvetica,sans-Serif" font-size="10.00"> fixed_size &gt;</text>
<text text-anchor="start" x="62" y="-202" font-family="Helvetica,sans-Serif" font-size="10.00"> </text>
<text text-anchor="start" x="4" y="-187" font-family="Helvetica,sans-Serif" font-size="10.00">+</text>
<text text-anchor="start" x="17" y="-187" font-family="Helvetica,sans-Serif" font-size="10.00">AutoBuffer()</text>
<text text-anchor="start" x="4" y="-172" font-family="Helvetica,sans-Serif" font-size="10.00">+</text>
<text text-anchor="start" x="17" y="-172" font-family="Helvetica,sans-Serif" font-size="10.00">AutoBuffer()</text>
<text text-anchor="start" x="4" y="-157" font-family="Helvetica,sans-Serif" font-size="10.00">+</text>
<text text-anchor="start" x="17" y="-157" font-family="Helvetica,sans-Serif" font-size="10.00">AutoBuffer()</text>
<text text-anchor="start" x="4" y="-142" font-family="Helvetica,sans-Serif" font-size="10.00">+</text>
<text text-anchor="start" x="17" y="-142" font-family="Helvetica,sans-Serif" font-size="10.00">~AutoBuffer()</text>
<text text-anchor="start" x="4" y="-127" font-family="Helvetica,sans-Serif" font-size="10.00">+</text>
<text text-anchor="start" x="17" y="-127" font-family="Helvetica,sans-Serif" font-size="10.00">allocate()</text>
<text text-anchor="start" x="4" y="-112" font-family="Helvetica,sans-Serif" font-size="10.00">+</text>
<text text-anchor="start" x="17" y="-112" font-family="Helvetica,sans-Serif" font-size="10.00">data()</text>
<text text-anchor="start" x="4" y="-97" font-family="Helvetica,sans-Serif" font-size="10.00">+</text>
<text text-anchor="start" x="17" y="-97" font-family="Helvetica,sans-Serif" font-size="10.00">data()</text>
<text text-anchor="start" x="4" y="-82" font-family="Helvetica,sans-Serif" font-size="10.00">+</text>
<text text-anchor="start" x="17" y="-82" font-family="Helvetica,sans-Serif" font-size="10.00">deallocate()</text>
<text text-anchor="start" x="4" y="-67" font-family="Helvetica,sans-Serif" font-size="10.00">+</text>
<text text-anchor="start" x="17" y="-67" font-family="Helvetica,sans-Serif" font-size="10.00">operator _Tp *()</text>
<text text-anchor="start" x="4" y="-52" font-family="Helvetica,sans-Serif" font-size="10.00">+</text>
<text text-anchor="start" x="17" y="-52" font-family="Helvetica,sans-Serif" font-size="10.00">operator const _Tp *()</text>
<text text-anchor="start" x="4" y="-37" font-family="Helvetica,sans-Serif" font-size="10.00">+</text>
<text text-anchor="start" x="17" y="-37" font-family="Helvetica,sans-Serif" font-size="10.00">operator=()</text>
<text text-anchor="start" x="4" y="-22" font-family="Helvetica,sans-Serif" font-size="10.00">+</text>
<text text-anchor="start" x="17" y="-22" font-family="Helvetica,sans-Serif" font-size="10.00">resize()</text>
<text text-anchor="start" x="4" y="-7" font-family="Helvetica,sans-Serif" font-size="10.00">+</text>
<text text-anchor="start" x="17" y="-7" font-family="Helvetica,sans-Serif" font-size="10.00">size()</text>
<polygon fill="#666666" stroke="#666666" points="0,-212 0,-212 128,-212 128,-212 0,-212"/>
<polygon fill="#666666" stroke="#666666" points="0,-197 0,-197 128,-197 128,-197 0,-197"/>
<polygon fill="none" stroke="#666666" points="0,0 0,-240 128,-240 128,0 0,0"/>
</a>
</g>
</g>
<!-- Node2 -->
<g id="Node000002" class="node">
<title>Node2</title>
<g id="a_Node000002"><a xlink:href="../../d1/dd7/class__Tp.html" target="_top" xlink:title=" ">
<polygon fill="white" stroke="transparent" points="52,-347 24,-347 24,-298 52,-298 52,-347"/>
<text text-anchor="start" x="29" y="-334.5" font-family="Helvetica,sans-Serif" font-size="10.00">_Tp</text>
<text text-anchor="start" x="36" y="-319.5" font-family="Helvetica,sans-Serif" font-size="10.00"> </text>
<text text-anchor="start" x="36" y="-304.5" font-family="Helvetica,sans-Serif" font-size="10.00"> </text>
<polygon fill="#666666" stroke="#666666" points="24,-329.5 24,-329.5 52,-329.5 52,-329.5 24,-329.5"/>
<polygon fill="#666666" stroke="#666666" points="24,-314.5 24,-314.5 52,-314.5 52,-314.5 24,-314.5"/>
<polygon fill="none" stroke="#666666" points="24,-298 24,-347 52,-347 52,-298 24,-298"/>
</a>
</g>
</g>
<!-- Node2&#45;&gt;Node1 -->
<g id="edge1_Node000001_Node000002" class="edge">
<title>Node2&#45;&gt;Node1</title>
<g id="a_edge1_Node000001_Node000002"><a xlink:title=" ">
<path fill="none" stroke="#63b8ff" d="M37.95,-297.92C38.12,-285.94 38.65,-271.17 40,-258 40.2,-256.07 40.41,-254.12 40.63,-252.17"/>
<polygon fill="none" stroke="#63b8ff" points="40.65,-251.95 37.41,-245.51 42.1,-240.04 45.35,-246.48 40.65,-251.95"/>
</a>
</g>
<text text-anchor="middle" x="54" y="-272" font-family="Helvetica,sans-Serif" font-size="10.00" fill="grey"> #buf</text>
<text text-anchor="middle" x="54" y="-261" font-family="Helvetica,sans-Serif" font-size="10.00" fill="grey">#ptr</text>
</g>
<!-- Node3 -->
<g id="Node000003" class="node">
<title>Node3</title>
<g id="a_Node000003"><a xlink:title=" ">
<polygon fill="white" stroke="transparent" points="109.5,-347 70.5,-347 70.5,-298 109.5,-298 109.5,-347"/>
<text text-anchor="start" x="76" y="-334.5" font-family="Helvetica,sans-Serif" font-size="10.00">size_t</text>
<text text-anchor="start" x="88.5" y="-319.5" font-family="Helvetica,sans-Serif" font-size="10.00"> </text>
<text text-anchor="start" x="88.5" y="-304.5" font-family="Helvetica,sans-Serif" font-size="10.00"> </text>
<polygon fill="#666666" stroke="#666666" points="71,-329.5 71,-329.5 110,-329.5 110,-329.5 71,-329.5"/>
<polygon fill="#666666" stroke="#666666" points="71,-314.5 71,-314.5 110,-314.5 110,-314.5 71,-314.5"/>
<polygon fill="none" stroke="#666666" points="70.5,-298 70.5,-347 109.5,-347 109.5,-298 70.5,-298"/>
</a>
</g>
</g>
<!-- Node3&#45;&gt;Node1 -->
<g id="edge2_Node000001_Node000003" class="edge">
<title>Node3&#45;&gt;Node1</title>
<g id="a_edge2_Node000001_Node000003"><a xlink:title=" ">
<path fill="none" stroke="#63b8ff" d="M86.92,-297.71C85.32,-285.43 83.24,-269.39 80.98,-251.97"/>
<polygon fill="none" stroke="#63b8ff" points="80.98,-251.94 76.24,-246.5 79.44,-240.04 84.17,-245.47 80.98,-251.94"/>
</a>
</g>
<text text-anchor="middle" x="95" y="-266.5" font-family="Helvetica,sans-Serif" font-size="10.00" fill="grey"> #sz</text>
</g>
</g>
</svg>
