<?xml version="1.0" encoding="UTF-8" standalone="no"?>
<!DOCTYPE svg PUBLIC "-//W3C//DTD SVG 1.1//EN"
 "http://www.w3.org/Graphics/SVG/1.1/DTD/svg11.dtd">
<!-- Generated by graphviz version 2.43.0 (0)
 -->
<!-- Title: opencv2/dnn/dict.hpp Pages: 1 -->
<svg width="935pt" height="269pt"
 viewBox="0.00 0.00 934.50 269.00" xmlns="http://www.w3.org/2000/svg" xmlns:xlink="http://www.w3.org/1999/xlink">
<g id="graph0" class="graph" transform="scale(1 1) rotate(0) translate(4 265)">
<title>opencv2/dnn/dict.hpp</title>
<!-- Node1 -->
<g id="Node000001" class="node">
<title>Node1</title>
<g id="a_Node000001"><a xlink:title=" ">
<polygon fill="#999999" stroke="#666666" points="814.5,-261 693.5,-261 693.5,-242 814.5,-242 814.5,-261"/>
<text text-anchor="middle" x="754" y="-249" font-family="Helvetica,sans-Serif" font-size="10.00">opencv2/dnn/dict.hpp</text>
</a>
</g>
</g>
<!-- Node2 -->
<g id="Node000002" class="node">
<title>Node2</title>
<g id="a_Node000002"><a xlink:href="../../db/ddc/dnn_2dnn_8hpp.html" target="_top" xlink:title=" ">
<polygon fill="white" stroke="#666666" points="814.5,-206 693.5,-206 693.5,-187 814.5,-187 814.5,-206"/>
<text text-anchor="middle" x="754" y="-194" font-family="Helvetica,sans-Serif" font-size="10.00">opencv2/dnn/dnn.hpp</text>
</a>
</g>
</g>
<!-- Node1&#45;&gt;Node2 -->
<g id="edge1_Node000001_Node000002" class="edge">
<title>Node1&#45;&gt;Node2</title>
<g id="a_edge1_Node000001_Node000002"><a xlink:title=" ">
<path fill="none" stroke="#63b8ff" d="M747.51,-231.66C746.91,-222.93 747.36,-212.99 748.87,-206.09"/>
<polygon fill="#63b8ff" stroke="#63b8ff" points="744.06,-232.29 748.83,-241.75 751,-231.38 744.06,-232.29"/>
</a>
</g>
</g>
<!-- Node2&#45;&gt;Node1 -->
<g id="edge11_Node000002_Node000001" class="edge">
<title>Node2&#45;&gt;Node1</title>
<g id="a_edge11_Node000002_Node000001"><a xlink:title=" ">
<path fill="none" stroke="#63b8ff" d="M760.48,-216.13C761.1,-224.85 760.66,-234.8 759.17,-241.75"/>
<polygon fill="#63b8ff" stroke="#63b8ff" points="763.93,-215.53 759.13,-206.09 756.99,-216.47 763.93,-215.53"/>
</a>
</g>
</g>
<!-- Node3 -->
<g id="Node000003" class="node">
<title>Node3</title>
<g id="a_Node000003"><a xlink:href="../../d9/d8c/dnn_8hpp.html" target="_top" xlink:title=" ">
<polygon fill="white" stroke="#666666" points="411,-145.5 311,-145.5 311,-126.5 411,-126.5 411,-145.5"/>
<text text-anchor="middle" x="361" y="-133.5" font-family="Helvetica,sans-Serif" font-size="10.00">opencv2/dnn.hpp</text>
</a>
</g>
</g>
<!-- Node2&#45;&gt;Node3 -->
<g id="edge2_Node000002_Node000003" class="edge">
<title>Node2&#45;&gt;Node3</title>
<g id="a_edge2_Node000002_Node000003"><a xlink:title=" ">
<path fill="none" stroke="#63b8ff" d="M683.23,-188.16C615.4,-180.63 510.28,-167.68 420,-151 411.61,-149.45 402.63,-147.48 394.26,-145.51"/>
<polygon fill="#63b8ff" stroke="#63b8ff" points="683.05,-191.66 693.37,-189.28 683.82,-184.7 683.05,-191.66"/>
</a>
</g>
</g>
<!-- Node11 -->
<g id="Node000011" class="node">
<title>Node11</title>
<g id="a_Node000011"><a xlink:href="../../d1/ddb/shape__utils_8hpp.html" target="_top" xlink:title=" ">
<polygon fill="white" stroke="#666666" points="587,-145.5 429,-145.5 429,-126.5 587,-126.5 587,-145.5"/>
<text text-anchor="middle" x="508" y="-133.5" font-family="Helvetica,sans-Serif" font-size="10.00">opencv2/dnn/shape_utils.hpp</text>
</a>
</g>
</g>
<!-- Node2&#45;&gt;Node11 -->
<g id="edge12_Node000002_Node000011" class="edge">
<title>Node2&#45;&gt;Node11</title>
<g id="a_edge12_Node000002_Node000011"><a xlink:title=" ">
<path fill="none" stroke="#63b8ff" d="M708.2,-184.61C660.66,-173.3 587.29,-155.85 543.81,-145.52"/>
<polygon fill="#63b8ff" stroke="#63b8ff" points="707.69,-188.09 718.23,-186.99 709.31,-181.27 707.69,-188.09"/>
</a>
</g>
</g>
<!-- Node12 -->
<g id="Node000012" class="node">
<title>Node12</title>
<g id="a_Node000012"><a xlink:href="../../d6/d32/debug__utils_8hpp.html" target="_top" xlink:title=" ">
<polygon fill="white" stroke="#666666" points="741,-151 605,-151 605,-121 741,-121 741,-151"/>
<text text-anchor="start" x="613" y="-139" font-family="Helvetica,sans-Serif" font-size="10.00">opencv2/dnn/utils/debug</text>
<text text-anchor="middle" x="673" y="-128" font-family="Helvetica,sans-Serif" font-size="10.00">_utils.hpp</text>
</a>
</g>
</g>
<!-- Node2&#45;&gt;Node12 -->
<g id="edge13_Node000002_Node000012" class="edge">
<title>Node2&#45;&gt;Node12</title>
<g id="a_edge13_Node000002_Node000012"><a xlink:title=" ">
<path fill="none" stroke="#63b8ff" d="M733.6,-180.77C721.02,-171.68 704.96,-160.09 692.54,-151.11"/>
<polygon fill="#63b8ff" stroke="#63b8ff" points="731.89,-183.85 742.05,-186.87 735.99,-178.18 731.89,-183.85"/>
</a>
</g>
</g>
<!-- Node13 -->
<g id="Node000013" class="node">
<title>Node13</title>
<g id="a_Node000013"><a xlink:href="../../d8/dcd/inference__engine_8hpp.html" target="_top" xlink:title=" ">
<polygon fill="white" stroke="#666666" points="911,-151 759,-151 759,-121 911,-121 911,-151"/>
<text text-anchor="start" x="767" y="-139" font-family="Helvetica,sans-Serif" font-size="10.00">opencv2/dnn/utils/inference</text>
<text text-anchor="middle" x="835" y="-128" font-family="Helvetica,sans-Serif" font-size="10.00">_engine.hpp</text>
</a>
</g>
</g>
<!-- Node2&#45;&gt;Node13 -->
<g id="edge14_Node000002_Node000013" class="edge">
<title>Node2&#45;&gt;Node13</title>
<g id="a_edge14_Node000002_Node000013"><a xlink:title=" ">
<path fill="none" stroke="#63b8ff" d="M768.79,-180.5C780.25,-171.45 796.15,-160 809.58,-151.11"/>
<polygon fill="#63b8ff" stroke="#63b8ff" points="766.52,-177.83 761,-186.87 770.95,-183.25 766.52,-177.83"/>
</a>
</g>
</g>
<!-- Node4 -->
<g id="Node000004" class="node">
<title>Node4</title>
<g id="a_Node000004"><a xlink:href="../../dd/d6b/all__layers_8hpp.html" target="_top" xlink:title=" ">
<polygon fill="white" stroke="#666666" points="520,-79.5 370,-79.5 370,-60.5 520,-60.5 520,-79.5"/>
<text text-anchor="middle" x="445" y="-67.5" font-family="Helvetica,sans-Serif" font-size="10.00">opencv2/dnn/all_layers.hpp</text>
</a>
</g>
</g>
<!-- Node3&#45;&gt;Node4 -->
<g id="edge3_Node000003_Node000004" class="edge">
<title>Node3&#45;&gt;Node4</title>
<g id="a_edge3_Node000003_Node000004"><a xlink:title=" ">
<path fill="none" stroke="#63b8ff" d="M380.7,-119.99C397.15,-107.46 420.01,-90.04 433.58,-79.7"/>
<polygon fill="#63b8ff" stroke="#63b8ff" points="378.16,-117.52 372.33,-126.37 382.4,-123.09 378.16,-117.52"/>
</a>
</g>
</g>
<!-- Node5 -->
<g id="Node000005" class="node">
<title>Node5</title>
<g id="a_Node000005"><a xlink:href="../../d4/db0/layer_8hpp.html" target="_top" xlink:title=" ">
<polygon fill="white" stroke="#666666" points="908.5,-79.5 781.5,-79.5 781.5,-60.5 908.5,-60.5 908.5,-79.5"/>
<text text-anchor="middle" x="845" y="-67.5" font-family="Helvetica,sans-Serif" font-size="10.00">opencv2/dnn/layer.hpp</text>
</a>
</g>
</g>
<!-- Node3&#45;&gt;Node5 -->
<g id="edge4_Node000003_Node000005" class="edge">
<title>Node3&#45;&gt;Node5</title>
<g id="a_edge4_Node000003_Node000005"><a xlink:title=" ">
<path fill="none" stroke="#63b8ff" d="M404.07,-124.17C409.41,-123.01 414.82,-121.92 420,-121 547.3,-98.49 697.89,-83.48 781.3,-76.17"/>
<polygon fill="#63b8ff" stroke="#63b8ff" points="402.91,-120.85 393.94,-126.47 404.46,-127.67 402.91,-120.85"/>
</a>
</g>
</g>
<!-- Node7 -->
<g id="Node000007" class="node">
<title>Node7</title>
<g id="a_Node000007"><a xlink:href="../../d0/d7e/layer__reg_8private_8hpp.html" target="_top" xlink:title=" ">
<polygon fill="white" stroke="#666666" points="186,-79.5 0,-79.5 0,-60.5 186,-60.5 186,-79.5"/>
<text text-anchor="middle" x="93" y="-67.5" font-family="Helvetica,sans-Serif" font-size="10.00">opencv2/dnn/layer_reg.private.hpp</text>
</a>
</g>
</g>
<!-- Node3&#45;&gt;Node7 -->
<g id="edge7_Node000003_Node000007" class="edge">
<title>Node3&#45;&gt;Node7</title>
<g id="a_edge7_Node000003_Node000007"><a xlink:title=" ">
<path fill="none" stroke="#63b8ff" d="M315.36,-124.1C262.57,-111.49 176.78,-91.01 128.65,-79.51"/>
<polygon fill="#63b8ff" stroke="#63b8ff" points="314.59,-127.52 325.13,-126.44 316.22,-120.71 314.59,-127.52"/>
</a>
</g>
</g>
<!-- Node8 -->
<g id="Node000008" class="node">
<title>Node8</title>
<g id="a_Node000008"><a xlink:href="../../d3/db0/dnn__superres_8hpp.html" target="_top" xlink:title=" ">
<polygon fill="white" stroke="#666666" points="351.5,-79.5 204.5,-79.5 204.5,-60.5 351.5,-60.5 351.5,-79.5"/>
<text text-anchor="middle" x="278" y="-67.5" font-family="Helvetica,sans-Serif" font-size="10.00">opencv2/dnn_superres.hpp</text>
</a>
</g>
</g>
<!-- Node3&#45;&gt;Node8 -->
<g id="edge8_Node000003_Node000008" class="edge">
<title>Node3&#45;&gt;Node8</title>
<g id="a_edge8_Node000003_Node000008"><a xlink:title=" ">
<path fill="none" stroke="#63b8ff" d="M341.53,-119.99C325.28,-107.46 302.69,-90.04 289.28,-79.7"/>
<polygon fill="#63b8ff" stroke="#63b8ff" points="339.75,-123.03 349.81,-126.37 344.02,-117.49 339.75,-123.03"/>
</a>
</g>
</g>
<!-- Node9 -->
<g id="Node000009" class="node">
<title>Node9</title>
<g id="a_Node000009"><a xlink:href="../../d1/d09/checker__detector_8hpp.html" target="_top" xlink:title=" ">
<polygon fill="white" stroke="#666666" points="660,-85 538,-85 538,-55 660,-55 660,-85"/>
<text text-anchor="start" x="546" y="-73" font-family="Helvetica,sans-Serif" font-size="10.00">opencv2/mcc/checker</text>
<text text-anchor="middle" x="599" y="-62" font-family="Helvetica,sans-Serif" font-size="10.00">_detector.hpp</text>
</a>
</g>
</g>
<!-- Node3&#45;&gt;Node9 -->
<g id="edge9_Node000003_Node000009" class="edge">
<title>Node3&#45;&gt;Node9</title>
<g id="a_edge9_Node000003_Node000009"><a xlink:title=" ">
<path fill="none" stroke="#63b8ff" d="M402.8,-123.76C442.81,-113 503.28,-96.74 546.51,-85.12"/>
<polygon fill="#63b8ff" stroke="#63b8ff" points="401.85,-120.39 393.1,-126.37 403.66,-127.15 401.85,-120.39"/>
</a>
</g>
</g>
<!-- Node5&#45;&gt;Node2 -->
<g id="edge5_Node000005_Node000002" class="edge">
<title>Node5&#45;&gt;Node2</title>
<g id="a_edge5_Node000005_Node000002"><a xlink:title=" ">
<path fill="none" stroke="#63b8ff" d="M873.32,-84.36C901.9,-99.67 939.26,-125.89 920,-151 907.01,-167.93 856.74,-179.83 814.89,-187.04"/>
<polygon fill="#63b8ff" stroke="#63b8ff" points="874.55,-81.05 864.05,-79.6 871.35,-87.28 874.55,-81.05"/>
</a>
</g>
</g>
<!-- Node6 -->
<g id="Node000006" class="node">
<title>Node6</title>
<g id="a_Node000006"><a xlink:href="../../df/d8c/layer_8details_8hpp.html" target="_top" xlink:title=" ">
<polygon fill="white" stroke="#666666" points="926.5,-19 763.5,-19 763.5,0 926.5,0 926.5,-19"/>
<text text-anchor="middle" x="845" y="-7" font-family="Helvetica,sans-Serif" font-size="10.00">opencv2/dnn/layer.details.hpp</text>
</a>
</g>
</g>
<!-- Node5&#45;&gt;Node6 -->
<g id="edge6_Node000005_Node000006" class="edge">
<title>Node5&#45;&gt;Node6</title>
<g id="a_edge6_Node000005_Node000006"><a xlink:title=" ">
<path fill="none" stroke="#63b8ff" d="M845,-50.16C845,-39.74 845,-27.3 845,-19.17"/>
<polygon fill="#63b8ff" stroke="#63b8ff" points="841.5,-50.37 845,-60.37 848.5,-50.37 841.5,-50.37"/>
</a>
</g>
</g>
<!-- Node10 -->
<g id="Node000010" class="node">
<title>Node10</title>
<g id="a_Node000010"><a xlink:href="../../df/d35/mcc_8hpp.html" target="_top" xlink:title=" ">
<polygon fill="white" stroke="#666666" points="650,-19 548,-19 548,0 650,0 650,-19"/>
<text text-anchor="middle" x="599" y="-7" font-family="Helvetica,sans-Serif" font-size="10.00">opencv2/mcc.hpp</text>
</a>
</g>
</g>
<!-- Node9&#45;&gt;Node10 -->
<g id="edge10_Node000009_Node000010" class="edge">
<title>Node9&#45;&gt;Node10</title>
<g id="a_edge10_Node000009_Node000010"><a xlink:title=" ">
<path fill="none" stroke="#63b8ff" d="M599,-44.75C599,-35.72 599,-26.03 599,-19.27"/>
<polygon fill="#63b8ff" stroke="#63b8ff" points="595.5,-44.84 599,-54.84 602.5,-44.84 595.5,-44.84"/>
</a>
</g>
</g>
<!-- Node13&#45;&gt;Node2 -->
<g id="edge15_Node000013_Node000002" class="edge">
<title>Node13&#45;&gt;Node2</title>
<g id="a_edge15_Node000013_Node000002"><a xlink:title=" ">
<path fill="none" stroke="#63b8ff" d="M813.14,-157.46C799.85,-167.54 783.26,-179.15 770.91,-186.87"/>
<polygon fill="#63b8ff" stroke="#63b8ff" points="815.57,-160.01 821.33,-151.11 811.28,-154.47 815.57,-160.01"/>
</a>
</g>
</g>
</g>
</svg>
