<?xml version="1.0" encoding="UTF-8" standalone="no"?>
<!DOCTYPE svg PUBLIC "-//W3C//DTD SVG 1.1//EN"
 "http://www.w3.org/Graphics/SVG/1.1/DTD/svg11.dtd">
<!-- Generated by graphviz version 2.43.0 (0)
 -->
<!-- Title: cv::gapi::s11n::operator&lt;&lt; Pages: 1 -->
<svg width="308pt" height="86pt"
 viewBox="0.00 0.00 308.00 86.00" xmlns="http://www.w3.org/2000/svg" xmlns:xlink="http://www.w3.org/1999/xlink">
<g id="graph0" class="graph" transform="scale(1 1) rotate(0) translate(4 82)">
<title>cv::gapi::s11n::operator&lt;&lt;</title>
<!-- Node1 -->
<g id="Node000001" class="node">
<title>Node1</title>
<g id="a_Node000001"><a xlink:title="This is an overloaded member function, provided for convenience. It differs from the above function o...">
<polygon fill="#999999" stroke="#666666" points="147,-48.5 0,-48.5 0,-29.5 147,-29.5 147,-48.5"/>
<text text-anchor="middle" x="73.5" y="-36.5" font-family="Helvetica,sans-Serif" font-size="10.00">cv::gapi::s11n::operator&lt;&lt;</text>
</a>
</g>
</g>
<!-- Node2 -->
<g id="Node000002" class="node">
<title>Node2</title>
<g id="a_Node000002"><a xlink:href="../../dc/d3e/classcv_1_1util_1_1variant.html#a6e86a7a617c062c8e36c3e991fa3fc1c" target="_top" xlink:title=" ">
<polygon fill="white" stroke="#666666" points="289,-78 194,-78 194,-48 289,-48 289,-78"/>
<text text-anchor="start" x="202" y="-66" font-family="Helvetica,sans-Serif" font-size="10.00">cv::util::variant::</text>
<text text-anchor="middle" x="241.5" y="-55" font-family="Helvetica,sans-Serif" font-size="10.00">index</text>
</a>
</g>
</g>
<!-- Node1&#45;&gt;Node2 -->
<g id="edge1_Node000001_Node000002" class="edge">
<title>Node1&#45;&gt;Node2</title>
<g id="a_edge1_Node000001_Node000002"><a xlink:title=" ">
<path fill="none" stroke="#63b8ff" d="M140.58,-48.55C154.92,-50.63 169.95,-52.8 183.88,-54.81"/>
<polygon fill="#63b8ff" stroke="#63b8ff" points="183.41,-58.28 193.8,-56.25 184.41,-51.35 183.41,-58.28"/>
</a>
</g>
</g>
<!-- Node3 -->
<g id="Node000003" class="node">
<title>Node3</title>
<g id="a_Node000003"><a xlink:href="../../d3/ded/namespacecv_1_1gapi_1_1s11n_1_1detail.html#aa29427b0adbd680130193d6e3831ae42" target="_top" xlink:title=" ">
<polygon fill="white" stroke="#666666" points="300,-30 183,-30 183,0 300,0 300,-30"/>
<text text-anchor="start" x="191" y="-18" font-family="Helvetica,sans-Serif" font-size="10.00">cv::gapi::s11n::detail</text>
<text text-anchor="middle" x="241.5" y="-7" font-family="Helvetica,sans-Serif" font-size="10.00">::put_v</text>
</a>
</g>
</g>
<!-- Node1&#45;&gt;Node3 -->
<g id="edge2_Node000001_Node000003" class="edge">
<title>Node1&#45;&gt;Node3</title>
<g id="a_edge2_Node000001_Node000003"><a xlink:title=" ">
<path fill="none" stroke="#63b8ff" d="M140.58,-29.45C151.2,-27.91 162.21,-26.32 172.87,-24.78"/>
<polygon fill="#63b8ff" stroke="#63b8ff" points="173.56,-28.22 182.95,-23.32 172.55,-21.29 173.56,-28.22"/>
</a>
</g>
</g>
</g>
</svg>
