<?xml version="1.0" encoding="UTF-8" standalone="no"?>
<!DOCTYPE svg PUBLIC "-//W3C//DTD SVG 1.1//EN"
 "http://www.w3.org/Graphics/SVG/1.1/DTD/svg11.dtd">
<!-- Generated by graphviz version 2.43.0 (0)
 -->
<!-- Title: cv::detail::tracking::TrackerSamplerCSC Pages: 1 -->
<svg width="168pt" height="224pt"
 viewBox="0.00 0.00 168.00 224.00" xmlns="http://www.w3.org/2000/svg" xmlns:xlink="http://www.w3.org/1999/xlink">
<g id="graph0" class="graph" transform="scale(1 1) rotate(0) translate(4 220)">
<title>cv::detail::tracking::TrackerSamplerCSC</title>
<!-- Node1 -->
<g id="Node000001" class="node">
<title>Node1</title>
<g id="a_Node000001"><a xlink:title="TrackerSampler based on CSC (current state centered), used by MIL algorithm TrackerMIL.">
<polygon fill="#999999" stroke="transparent" points="146,-105 14,-105 14,0 146,0 146,-105"/>
<text text-anchor="start" x="29.5" y="-92.5" font-family="Helvetica,sans-Serif" font-size="10.00">cv::detail::tracking</text>
<text text-anchor="start" x="29.5" y="-81.5" font-family="Helvetica,sans-Serif" font-size="10.00">::TrackerSamplerCSC</text>
<text text-anchor="start" x="78" y="-66.5" font-family="Helvetica,sans-Serif" font-size="10.00"> </text>
<text text-anchor="start" x="18" y="-51.5" font-family="Helvetica,sans-Serif" font-size="10.00">+</text>
<text text-anchor="start" x="31" y="-51.5" font-family="Helvetica,sans-Serif" font-size="10.00">TrackerSamplerCSC()</text>
<text text-anchor="start" x="18" y="-36.5" font-family="Helvetica,sans-Serif" font-size="10.00">+</text>
<text text-anchor="start" x="31" y="-36.5" font-family="Helvetica,sans-Serif" font-size="10.00">~TrackerSamplerCSC()</text>
<text text-anchor="start" x="18" y="-21.5" font-family="Helvetica,sans-Serif" font-size="10.00">+</text>
<text text-anchor="start" x="31" y="-21.5" font-family="Helvetica,sans-Serif" font-size="10.00">sampling()</text>
<text text-anchor="start" x="18" y="-6.5" font-family="Helvetica,sans-Serif" font-size="10.00">+</text>
<text text-anchor="start" x="31" y="-6.5" font-family="Helvetica,sans-Serif" font-size="10.00">setMode()</text>
<polygon fill="#666666" stroke="#666666" points="14,-76.5 14,-76.5 146,-76.5 146,-76.5 14,-76.5"/>
<polygon fill="#666666" stroke="#666666" points="14,-61.5 14,-61.5 146,-61.5 146,-61.5 14,-61.5"/>
<polygon fill="none" stroke="#666666" points="14,0 14,-105 146,-105 146,0 14,0"/>
</a>
</g>
</g>
<!-- Node2 -->
<g id="Node000002" class="node">
<title>Node2</title>
<g id="a_Node000002"><a xlink:href="../../de/d0a/classcv_1_1detail_1_1tracking_1_1TrackerSamplerAlgorithm.html" target="_top" xlink:title="Abstract base class for TrackerSamplerAlgorithm that represents the algorithm for the specific sample...">
<polygon fill="white" stroke="transparent" points="160,-216 0,-216 0,-141 160,-141 160,-216"/>
<text text-anchor="start" x="15" y="-203.5" font-family="Helvetica,sans-Serif" font-size="10.00">cv::detail::tracking</text>
<text text-anchor="start" x="15" y="-192.5" font-family="Helvetica,sans-Serif" font-size="10.00">::TrackerSamplerAlgorithm</text>
<text text-anchor="start" x="78" y="-177.5" font-family="Helvetica,sans-Serif" font-size="10.00"> </text>
<text text-anchor="start" x="4" y="-162.5" font-family="Helvetica,sans-Serif" font-size="10.00">+</text>
<text text-anchor="start" x="17" y="-162.5" font-family="Helvetica,sans-Serif" font-size="10.00">~TrackerSamplerAlgorithm()</text>
<text text-anchor="start" x="4" y="-147.5" font-family="Helvetica,sans-Serif" font-size="10.00">+</text>
<text text-anchor="start" x="17" y="-147.5" font-family="Helvetica,sans-Serif" font-size="10.00">sampling()</text>
<polygon fill="#666666" stroke="#666666" points="0,-187.5 0,-187.5 160,-187.5 160,-187.5 0,-187.5"/>
<polygon fill="#666666" stroke="#666666" points="0,-172.5 0,-172.5 160,-172.5 160,-172.5 0,-172.5"/>
<polygon fill="none" stroke="#666666" points="0,-141 0,-216 160,-216 160,-141 0,-141"/>
</a>
</g>
</g>
<!-- Node2&#45;&gt;Node1 -->
<g id="edge1_Node000001_Node000002" class="edge">
<title>Node2&#45;&gt;Node1</title>
<g id="a_edge1_Node000001_Node000002"><a xlink:title=" ">
<path fill="none" stroke="#63b8ff" d="M80,-130.74C80,-122.46 80,-113.8 80,-105.39"/>
<polygon fill="none" stroke="#63b8ff" points="76.5,-130.97 80,-140.97 83.5,-130.97 76.5,-130.97"/>
</a>
</g>
</g>
</g>
</svg>
