<?xml version="1.0" encoding="UTF-8" standalone="no"?>
<!DOCTYPE svg PUBLIC "-//W3C//DTD SVG 1.1//EN"
 "http://www.w3.org/Graphics/SVG/1.1/DTD/svg11.dtd">
<!-- Generated by graphviz version 2.43.0 (0)
 -->
<!-- Title: cv::cudacodec::EncodeQp Pages: 1 -->
<svg width="142pt" height="175pt"
 viewBox="0.00 0.00 142.00 175.00" xmlns="http://www.w3.org/2000/svg" xmlns:xlink="http://www.w3.org/1999/xlink">
<g id="graph0" class="graph" transform="scale(1 1) rotate(0) translate(4 171)">
<title>cv::cudacodec::EncodeQp</title>
<!-- Node1 -->
<g id="Node000001" class="node">
<title>Node1</title>
<g id="a_Node000001"><a xlink:title=" ">
<polygon fill="#999999" stroke="transparent" points="134,-49 0,-49 0,0 134,0 134,-49"/>
<text text-anchor="start" x="5" y="-36.5" font-family="Helvetica,sans-Serif" font-size="10.00">cv::cudacodec::EncodeQp</text>
<text text-anchor="start" x="65" y="-21.5" font-family="Helvetica,sans-Serif" font-size="10.00"> </text>
<text text-anchor="start" x="65" y="-6.5" font-family="Helvetica,sans-Serif" font-size="10.00"> </text>
<polygon fill="#666666" stroke="#666666" points="0,-31.5 0,-31.5 134,-31.5 134,-31.5 0,-31.5"/>
<polygon fill="#666666" stroke="#666666" points="0,-16.5 0,-16.5 134,-16.5 134,-16.5 0,-16.5"/>
<polygon fill="none" stroke="#666666" points="0,0 0,-49 134,-49 134,0 0,0"/>
</a>
</g>
</g>
<!-- Node2 -->
<g id="Node000002" class="node">
<title>Node2</title>
<g id="a_Node000002"><a xlink:title=" ">
<polygon fill="white" stroke="transparent" points="92,-167 42,-167 42,-118 92,-118 92,-167"/>
<text text-anchor="start" x="47" y="-154.5" font-family="Helvetica,sans-Serif" font-size="10.00">uint32_t</text>
<text text-anchor="start" x="65" y="-139.5" font-family="Helvetica,sans-Serif" font-size="10.00"> </text>
<text text-anchor="start" x="65" y="-124.5" font-family="Helvetica,sans-Serif" font-size="10.00"> </text>
<polygon fill="#666666" stroke="#666666" points="42,-149.5 42,-149.5 92,-149.5 92,-149.5 42,-149.5"/>
<polygon fill="#666666" stroke="#666666" points="42,-134.5 42,-134.5 92,-134.5 92,-134.5 42,-134.5"/>
<polygon fill="none" stroke="#666666" points="42,-118 42,-167 92,-167 92,-118 42,-118"/>
</a>
</g>
</g>
<!-- Node2&#45;&gt;Node1 -->
<g id="edge1_Node000001_Node000002" class="edge">
<title>Node2&#45;&gt;Node1</title>
<g id="a_edge1_Node000001_Node000002"><a xlink:title=" ">
<path fill="none" stroke="#63b8ff" d="M67,-117.75C67,-101.48 67,-79.62 67,-61.26"/>
<polygon fill="none" stroke="#63b8ff" points="67,-61.22 63,-55.22 67,-49.22 71,-55.22 67,-61.22"/>
</a>
</g>
<text text-anchor="middle" x="93.5" y="-92" font-family="Helvetica,sans-Serif" font-size="10.00" fill="grey"> +qpInterB</text>
<text text-anchor="middle" x="93.5" y="-81" font-family="Helvetica,sans-Serif" font-size="10.00" fill="grey">+qpInterP</text>
<text text-anchor="middle" x="93.5" y="-70" font-family="Helvetica,sans-Serif" font-size="10.00" fill="grey">+qpIntra</text>
</g>
</g>
</svg>
