<?xml version="1.0" encoding="UTF-8" standalone="no"?>
<!DOCTYPE svg PUBLIC "-//W3C//DTD SVG 1.1//EN"
 "http://www.w3.org/Graphics/SVG/1.1/DTD/svg11.dtd">
<!-- Generated by graphviz version 2.43.0 (0)
 -->
<!-- Title: cv::optflow::DualTVL1OpticalFlow Pages: 1 -->
<svg width="181pt" height="602pt"
 viewBox="0.00 0.00 181.00 602.00" xmlns="http://www.w3.org/2000/svg" xmlns:xlink="http://www.w3.org/1999/xlink">
<g id="graph0" class="graph" transform="scale(1 1) rotate(0) translate(4 598)">
<title>cv::optflow::DualTVL1OpticalFlow</title>
<!-- Node1 -->
<g id="Node000001" class="node">
<title>Node1</title>
<g id="a_Node000001"><a xlink:title="&quot;Dual TV L1&quot; Optical Flow Algorithm.">
<polygon fill="#999999" stroke="transparent" points="173,-214 0,-214 0,0 173,0 173,-214"/>
<text text-anchor="start" x="5.5" y="-202" font-family="Helvetica,sans-Serif" font-size="10.00">cv::optflow::DualTVL1OpticalFlow</text>
<text text-anchor="start" x="85" y="-187" font-family="Helvetica,sans-Serif" font-size="10.00"> </text>
<text text-anchor="start" x="17.5" y="-172" font-family="Helvetica,sans-Serif" font-size="10.00">+</text>
<text text-anchor="start" x="43.5" y="-172" font-family="Helvetica,sans-Serif" font-size="10.00">getEpsilon()</text>
<text text-anchor="start" x="17.5" y="-157" font-family="Helvetica,sans-Serif" font-size="10.00">+</text>
<text text-anchor="start" x="43.5" y="-157" font-family="Helvetica,sans-Serif" font-size="10.00">getGamma()</text>
<text text-anchor="start" x="17.5" y="-142" font-family="Helvetica,sans-Serif" font-size="10.00">+</text>
<text text-anchor="start" x="43.5" y="-142" font-family="Helvetica,sans-Serif" font-size="10.00">getInnerIterations()</text>
<text text-anchor="start" x="17.5" y="-127" font-family="Helvetica,sans-Serif" font-size="10.00">+</text>
<text text-anchor="start" x="43.5" y="-127" font-family="Helvetica,sans-Serif" font-size="10.00">getLambda()</text>
<text text-anchor="start" x="17.5" y="-112" font-family="Helvetica,sans-Serif" font-size="10.00">+</text>
<text text-anchor="start" x="43.5" y="-112" font-family="Helvetica,sans-Serif" font-size="10.00">getMedianFiltering()</text>
<text text-anchor="start" x="17.5" y="-97" font-family="Helvetica,sans-Serif" font-size="10.00">+</text>
<text text-anchor="start" x="43.5" y="-97" font-family="Helvetica,sans-Serif" font-size="10.00">getOuterIterations()</text>
<text text-anchor="start" x="17.5" y="-82" font-family="Helvetica,sans-Serif" font-size="10.00">+</text>
<text text-anchor="start" x="43.5" y="-82" font-family="Helvetica,sans-Serif" font-size="10.00">getScalesNumber()</text>
<text text-anchor="start" x="17.5" y="-67" font-family="Helvetica,sans-Serif" font-size="10.00">+</text>
<text text-anchor="start" x="43.5" y="-67" font-family="Helvetica,sans-Serif" font-size="10.00">getScaleStep()</text>
<text text-anchor="start" x="17.5" y="-52" font-family="Helvetica,sans-Serif" font-size="10.00">+</text>
<text text-anchor="start" x="43.5" y="-52" font-family="Helvetica,sans-Serif" font-size="10.00">getTau()</text>
<text text-anchor="start" x="17.5" y="-37" font-family="Helvetica,sans-Serif" font-size="10.00">+</text>
<text text-anchor="start" x="43.5" y="-37" font-family="Helvetica,sans-Serif" font-size="10.00">getTheta()</text>
<text text-anchor="start" x="43.5" y="-22" font-family="Helvetica,sans-Serif" font-size="10.00">and 14 more...</text>
<text text-anchor="start" x="17.5" y="-7" font-family="Helvetica,sans-Serif" font-size="10.00">+</text>
<text text-anchor="start" x="43.5" y="-7" font-family="Helvetica,sans-Serif" font-size="10.00">create()</text>
<polygon fill="#666666" stroke="#666666" points="0.5,-197 0.5,-197 173.5,-197 173.5,-197 0.5,-197"/>
<polygon fill="#666666" stroke="#666666" points="0.5,-182 0.5,-182 173.5,-182 173.5,-182 0.5,-182"/>
<polygon fill="none" stroke="#666666" points="0,0 0,-214 173,-214 173,0 0,0"/>
</a>
</g>
</g>
<!-- Node2 -->
<g id="Node000002" class="node">
<title>Node2</title>
<g id="a_Node000002"><a xlink:href="../../df/dde/classcv_1_1DenseOpticalFlow.html" target="_top" xlink:title=" ">
<polygon fill="white" stroke="transparent" points="144.5,-314 28.5,-314 28.5,-250 144.5,-250 144.5,-314"/>
<text text-anchor="start" x="33.5" y="-302" font-family="Helvetica,sans-Serif" font-size="10.00">cv::DenseOpticalFlow</text>
<text text-anchor="start" x="84.5" y="-287" font-family="Helvetica,sans-Serif" font-size="10.00"> </text>
<text text-anchor="start" x="35.5" y="-272" font-family="Helvetica,sans-Serif" font-size="10.00">+</text>
<text text-anchor="start" x="51.5" y="-272" font-family="Helvetica,sans-Serif" font-size="10.00">calc()</text>
<text text-anchor="start" x="35.5" y="-257" font-family="Helvetica,sans-Serif" font-size="10.00">+</text>
<text text-anchor="start" x="51.5" y="-257" font-family="Helvetica,sans-Serif" font-size="10.00">collectGarbage()</text>
<polygon fill="#666666" stroke="#666666" points="28.5,-297 28.5,-297 144.5,-297 144.5,-297 28.5,-297"/>
<polygon fill="#666666" stroke="#666666" points="28.5,-282 28.5,-282 144.5,-282 144.5,-282 28.5,-282"/>
<polygon fill="none" stroke="#666666" points="28.5,-250 28.5,-314 144.5,-314 144.5,-250 28.5,-250"/>
</a>
</g>
</g>
<!-- Node2&#45;&gt;Node1 -->
<g id="edge1_Node000001_Node000002" class="edge">
<title>Node2&#45;&gt;Node1</title>
<g id="a_edge1_Node000001_Node000002"><a xlink:title=" ">
<path fill="none" stroke="#63b8ff" d="M86.5,-239.4C86.5,-231.54 86.5,-222.98 86.5,-214.14"/>
<polygon fill="none" stroke="#63b8ff" points="83,-239.67 86.5,-249.67 90,-239.67 83,-239.67"/>
</a>
</g>
</g>
<!-- Node3 -->
<g id="Node000003" class="node">
<title>Node3</title>
<g id="a_Node000003"><a xlink:href="../../d3/d46/classcv_1_1Algorithm.html" target="_top" xlink:title="This is a base class for all more or less complex algorithms in OpenCV.">
<polygon fill="white" stroke="transparent" points="141.5,-594 31.5,-594 31.5,-350 141.5,-350 141.5,-594"/>
<text text-anchor="start" x="54" y="-582" font-family="Helvetica,sans-Serif" font-size="10.00">cv::Algorithm</text>
<text text-anchor="start" x="84.5" y="-567" font-family="Helvetica,sans-Serif" font-size="10.00"> </text>
<text text-anchor="start" x="35.5" y="-552" font-family="Helvetica,sans-Serif" font-size="10.00">+</text>
<text text-anchor="start" x="48.5" y="-552" font-family="Helvetica,sans-Serif" font-size="10.00">Algorithm()</text>
<text text-anchor="start" x="35.5" y="-537" font-family="Helvetica,sans-Serif" font-size="10.00">+</text>
<text text-anchor="start" x="48.5" y="-537" font-family="Helvetica,sans-Serif" font-size="10.00">~Algorithm()</text>
<text text-anchor="start" x="35.5" y="-522" font-family="Helvetica,sans-Serif" font-size="10.00">+</text>
<text text-anchor="start" x="48.5" y="-522" font-family="Helvetica,sans-Serif" font-size="10.00">clear()</text>
<text text-anchor="start" x="35.5" y="-507" font-family="Helvetica,sans-Serif" font-size="10.00">+</text>
<text text-anchor="start" x="48.5" y="-507" font-family="Helvetica,sans-Serif" font-size="10.00">empty()</text>
<text text-anchor="start" x="35.5" y="-492" font-family="Helvetica,sans-Serif" font-size="10.00">+</text>
<text text-anchor="start" x="48.5" y="-492" font-family="Helvetica,sans-Serif" font-size="10.00">getDefaultName()</text>
<text text-anchor="start" x="35.5" y="-477" font-family="Helvetica,sans-Serif" font-size="10.00">+</text>
<text text-anchor="start" x="48.5" y="-477" font-family="Helvetica,sans-Serif" font-size="10.00">read()</text>
<text text-anchor="start" x="35.5" y="-462" font-family="Helvetica,sans-Serif" font-size="10.00">+</text>
<text text-anchor="start" x="48.5" y="-462" font-family="Helvetica,sans-Serif" font-size="10.00">save()</text>
<text text-anchor="start" x="35.5" y="-447" font-family="Helvetica,sans-Serif" font-size="10.00">+</text>
<text text-anchor="start" x="48.5" y="-447" font-family="Helvetica,sans-Serif" font-size="10.00">write()</text>
<text text-anchor="start" x="35.5" y="-432" font-family="Helvetica,sans-Serif" font-size="10.00">+</text>
<text text-anchor="start" x="48.5" y="-432" font-family="Helvetica,sans-Serif" font-size="10.00">write()</text>
<text text-anchor="start" x="35.5" y="-417" font-family="Helvetica,sans-Serif" font-size="10.00">+</text>
<text text-anchor="start" x="48.5" y="-417" font-family="Helvetica,sans-Serif" font-size="10.00">write()</text>
<text text-anchor="start" x="35.5" y="-402" font-family="Helvetica,sans-Serif" font-size="10.00">+</text>
<text text-anchor="start" x="48.5" y="-402" font-family="Helvetica,sans-Serif" font-size="10.00">load()</text>
<text text-anchor="start" x="35.5" y="-387" font-family="Helvetica,sans-Serif" font-size="10.00">+</text>
<text text-anchor="start" x="48.5" y="-387" font-family="Helvetica,sans-Serif" font-size="10.00">loadFromString()</text>
<text text-anchor="start" x="35.5" y="-372" font-family="Helvetica,sans-Serif" font-size="10.00">+</text>
<text text-anchor="start" x="48.5" y="-372" font-family="Helvetica,sans-Serif" font-size="10.00">read()</text>
<text text-anchor="start" x="35.5" y="-357" font-family="Helvetica,sans-Serif" font-size="10.00">#</text>
<text text-anchor="start" x="48.5" y="-357" font-family="Helvetica,sans-Serif" font-size="10.00">writeFormat()</text>
<polygon fill="#666666" stroke="#666666" points="31.5,-577 31.5,-577 141.5,-577 141.5,-577 31.5,-577"/>
<polygon fill="#666666" stroke="#666666" points="31.5,-562 31.5,-562 141.5,-562 141.5,-562 31.5,-562"/>
<polygon fill="none" stroke="#666666" points="31.5,-350 31.5,-594 141.5,-594 141.5,-350 31.5,-350"/>
</a>
</g>
</g>
<!-- Node3&#45;&gt;Node2 -->
<g id="edge2_Node000002_Node000003" class="edge">
<title>Node3&#45;&gt;Node2</title>
<g id="a_edge2_Node000002_Node000003"><a xlink:title=" ">
<path fill="none" stroke="#63b8ff" d="M86.5,-339.58C86.5,-330.33 86.5,-321.67 86.5,-314.03"/>
<polygon fill="none" stroke="#63b8ff" points="83,-339.81 86.5,-349.81 90,-339.81 83,-339.81"/>
</a>
</g>
</g>
</g>
</svg>
