<?xml version="1.0" encoding="UTF-8" standalone="no"?>
<!DOCTYPE svg PUBLIC "-//W3C//DTD SVG 1.1//EN"
 "http://www.w3.org/Graphics/SVG/1.1/DTD/svg11.dtd">
<!-- Generated by graphviz version 2.43.0 (0)
 -->
<!-- Title: cv::detail::tracking::tbm::TrackedObject Pages: 1 -->
<svg width="404pt" height="529pt"
 viewBox="0.00 0.00 404.00 529.00" xmlns="http://www.w3.org/2000/svg" xmlns:xlink="http://www.w3.org/1999/xlink">
<g id="graph0" class="graph" transform="scale(1 1) rotate(0) translate(4 525)">
<title>cv::detail::tracking::tbm::TrackedObject</title>
<!-- Node1 -->
<g id="Node000001" class="node">
<title>Node1</title>
<g id="a_Node000001"><a xlink:title="The TrackedObject struct defines properties of detected object.">
<polygon fill="#999999" stroke="transparent" points="284,-75 174,-75 174,0 284,0 284,-75"/>
<text text-anchor="start" x="179" y="-62.5" font-family="Helvetica,sans-Serif" font-size="10.00">cv::detail::tracking</text>
<text text-anchor="start" x="179" y="-51.5" font-family="Helvetica,sans-Serif" font-size="10.00">::tbm::TrackedObject</text>
<text text-anchor="start" x="227" y="-36.5" font-family="Helvetica,sans-Serif" font-size="10.00"> </text>
<text text-anchor="start" x="181" y="-21.5" font-family="Helvetica,sans-Serif" font-size="10.00">+</text>
<text text-anchor="start" x="197" y="-21.5" font-family="Helvetica,sans-Serif" font-size="10.00">TrackedObject()</text>
<text text-anchor="start" x="181" y="-6.5" font-family="Helvetica,sans-Serif" font-size="10.00">+</text>
<text text-anchor="start" x="197" y="-6.5" font-family="Helvetica,sans-Serif" font-size="10.00">TrackedObject()</text>
<polygon fill="#666666" stroke="#666666" points="174,-46.5 174,-46.5 284,-46.5 284,-46.5 174,-46.5"/>
<polygon fill="#666666" stroke="#666666" points="174,-31.5 174,-31.5 284,-31.5 284,-31.5 174,-31.5"/>
<polygon fill="none" stroke="#666666" points="174,0 174,-75 284,-75 284,0 174,0"/>
</a>
</g>
</g>
<!-- Node2 -->
<g id="Node000002" class="node">
<title>Node2</title>
<g id="a_Node000002"><a xlink:href="../../d2/d44/classcv_1_1Rect__.html" target="_top" xlink:title="Template class for 2D rectangles.">
<polygon fill="white" stroke="transparent" points="146,-392 0,-392 0,-133 146,-133 146,-392"/>
<text text-anchor="start" x="31" y="-379.5" font-family="Helvetica,sans-Serif" font-size="10.00">cv::Rect_&lt; _Tp &gt;</text>
<text text-anchor="start" x="71" y="-364.5" font-family="Helvetica,sans-Serif" font-size="10.00"> </text>
<text text-anchor="start" x="4" y="-349.5" font-family="Helvetica,sans-Serif" font-size="10.00">+</text>
<text text-anchor="start" x="17" y="-349.5" font-family="Helvetica,sans-Serif" font-size="10.00">Rect_()</text>
<text text-anchor="start" x="4" y="-334.5" font-family="Helvetica,sans-Serif" font-size="10.00">+</text>
<text text-anchor="start" x="17" y="-334.5" font-family="Helvetica,sans-Serif" font-size="10.00">Rect_()</text>
<text text-anchor="start" x="4" y="-319.5" font-family="Helvetica,sans-Serif" font-size="10.00">+</text>
<text text-anchor="start" x="17" y="-319.5" font-family="Helvetica,sans-Serif" font-size="10.00">Rect_()</text>
<text text-anchor="start" x="4" y="-304.5" font-family="Helvetica,sans-Serif" font-size="10.00">+</text>
<text text-anchor="start" x="17" y="-304.5" font-family="Helvetica,sans-Serif" font-size="10.00">Rect_()</text>
<text text-anchor="start" x="4" y="-289.5" font-family="Helvetica,sans-Serif" font-size="10.00">+</text>
<text text-anchor="start" x="17" y="-289.5" font-family="Helvetica,sans-Serif" font-size="10.00">Rect_()</text>
<text text-anchor="start" x="4" y="-274.5" font-family="Helvetica,sans-Serif" font-size="10.00">+</text>
<text text-anchor="start" x="17" y="-274.5" font-family="Helvetica,sans-Serif" font-size="10.00">Rect_()</text>
<text text-anchor="start" x="4" y="-259.5" font-family="Helvetica,sans-Serif" font-size="10.00">+</text>
<text text-anchor="start" x="17" y="-259.5" font-family="Helvetica,sans-Serif" font-size="10.00">area()</text>
<text text-anchor="start" x="4" y="-244.5" font-family="Helvetica,sans-Serif" font-size="10.00">+</text>
<text text-anchor="start" x="17" y="-244.5" font-family="Helvetica,sans-Serif" font-size="10.00">br()</text>
<text text-anchor="start" x="4" y="-229.5" font-family="Helvetica,sans-Serif" font-size="10.00">+</text>
<text text-anchor="start" x="17" y="-229.5" font-family="Helvetica,sans-Serif" font-size="10.00">contains()</text>
<text text-anchor="start" x="4" y="-214.5" font-family="Helvetica,sans-Serif" font-size="10.00">+</text>
<text text-anchor="start" x="17" y="-214.5" font-family="Helvetica,sans-Serif" font-size="10.00">empty()</text>
<text text-anchor="start" x="4" y="-199.5" font-family="Helvetica,sans-Serif" font-size="10.00">+</text>
<text text-anchor="start" x="17" y="-199.5" font-family="Helvetica,sans-Serif" font-size="10.00">operator Rect_&lt; _Tp2 &gt;()</text>
<text text-anchor="start" x="4" y="-184.5" font-family="Helvetica,sans-Serif" font-size="10.00">+</text>
<text text-anchor="start" x="17" y="-184.5" font-family="Helvetica,sans-Serif" font-size="10.00">operator=()</text>
<text text-anchor="start" x="4" y="-169.5" font-family="Helvetica,sans-Serif" font-size="10.00">+</text>
<text text-anchor="start" x="17" y="-169.5" font-family="Helvetica,sans-Serif" font-size="10.00">operator=()</text>
<text text-anchor="start" x="4" y="-154.5" font-family="Helvetica,sans-Serif" font-size="10.00">+</text>
<text text-anchor="start" x="17" y="-154.5" font-family="Helvetica,sans-Serif" font-size="10.00">size()</text>
<text text-anchor="start" x="4" y="-139.5" font-family="Helvetica,sans-Serif" font-size="10.00">+</text>
<text text-anchor="start" x="17" y="-139.5" font-family="Helvetica,sans-Serif" font-size="10.00">tl()</text>
<polygon fill="#666666" stroke="#666666" points="0,-374.5 0,-374.5 146,-374.5 146,-374.5 0,-374.5"/>
<polygon fill="#666666" stroke="#666666" points="0,-359.5 0,-359.5 146,-359.5 146,-359.5 0,-359.5"/>
<polygon fill="none" stroke="#666666" points="0,-133 0,-392 146,-392 146,-133 0,-133"/>
</a>
</g>
</g>
<!-- Node2&#45;&gt;Node1 -->
<g id="edge1_Node000001_Node000002" class="edge">
<title>Node2&#45;&gt;Node1</title>
<g id="a_edge1_Node000001_Node000002"><a xlink:title=" ">
<path fill="none" stroke="#63b8ff" d="M119.28,-132.61C127.06,-118.51 135.94,-104.96 146,-93 151.29,-86.71 157.5,-80.87 164.08,-75.53"/>
<polygon fill="none" stroke="#63b8ff" points="164.38,-75.31 166.76,-68.5 173.95,-68.07 171.58,-74.88 164.38,-75.31"/>
</a>
</g>
<text text-anchor="middle" x="161.5" y="-101.5" font-family="Helvetica,sans-Serif" font-size="10.00" fill="grey"> +rect</text>
</g>
<!-- Node3 -->
<g id="Node000003" class="node">
<title>Node3</title>
<g id="a_Node000003"><a xlink:href="../../d1/dd7/class__Tp.html" target="_top" xlink:title=" ">
<polygon fill="white" stroke="transparent" points="87,-521 59,-521 59,-472 87,-472 87,-521"/>
<text text-anchor="start" x="64" y="-508.5" font-family="Helvetica,sans-Serif" font-size="10.00">_Tp</text>
<text text-anchor="start" x="71" y="-493.5" font-family="Helvetica,sans-Serif" font-size="10.00"> </text>
<text text-anchor="start" x="71" y="-478.5" font-family="Helvetica,sans-Serif" font-size="10.00"> </text>
<polygon fill="#666666" stroke="#666666" points="59,-503.5 59,-503.5 87,-503.5 87,-503.5 59,-503.5"/>
<polygon fill="#666666" stroke="#666666" points="59,-488.5 59,-488.5 87,-488.5 87,-488.5 59,-488.5"/>
<polygon fill="none" stroke="#666666" points="59,-472 59,-521 87,-521 87,-472 59,-472"/>
</a>
</g>
</g>
<!-- Node3&#45;&gt;Node2 -->
<g id="edge2_Node000002_Node000003" class="edge">
<title>Node3&#45;&gt;Node2</title>
<g id="a_edge2_Node000002_Node000003"><a xlink:title=" ">
<path fill="none" stroke="#63b8ff" d="M73,-471.98C73,-455 73,-430.51 73,-404.25"/>
<polygon fill="none" stroke="#63b8ff" points="73,-404.08 69,-398.08 73,-392.08 77,-398.08 73,-404.08"/>
</a>
</g>
<text text-anchor="middle" x="94.5" y="-446" font-family="Helvetica,sans-Serif" font-size="10.00" fill="grey"> +height</text>
<text text-anchor="middle" x="94.5" y="-435" font-family="Helvetica,sans-Serif" font-size="10.00" fill="grey">+width</text>
<text text-anchor="middle" x="94.5" y="-424" font-family="Helvetica,sans-Serif" font-size="10.00" fill="grey">+x</text>
<text text-anchor="middle" x="94.5" y="-413" font-family="Helvetica,sans-Serif" font-size="10.00" fill="grey">+y</text>
</g>
<!-- Node4 -->
<g id="Node000004" class="node">
<title>Node4</title>
<g id="a_Node000004"><a xlink:title=" ">
<polygon fill="white" stroke="transparent" points="208,-287 164,-287 164,-238 208,-238 208,-287"/>
<text text-anchor="start" x="169" y="-274.5" font-family="Helvetica,sans-Serif" font-size="10.00">double</text>
<text text-anchor="start" x="184" y="-259.5" font-family="Helvetica,sans-Serif" font-size="10.00"> </text>
<text text-anchor="start" x="184" y="-244.5" font-family="Helvetica,sans-Serif" font-size="10.00"> </text>
<polygon fill="#666666" stroke="#666666" points="164,-269.5 164,-269.5 208,-269.5 208,-269.5 164,-269.5"/>
<polygon fill="#666666" stroke="#666666" points="164,-254.5 164,-254.5 208,-254.5 208,-254.5 164,-254.5"/>
<polygon fill="none" stroke="#666666" points="164,-238 164,-287 208,-287 208,-238 164,-238"/>
</a>
</g>
</g>
<!-- Node4&#45;&gt;Node1 -->
<g id="edge3_Node000001_Node000004" class="edge">
<title>Node4&#45;&gt;Node1</title>
<g id="a_edge3_Node000001_Node000004"><a xlink:title=" ">
<path fill="none" stroke="#63b8ff" d="M181.51,-237.82C176.2,-204.47 170.06,-142.24 187,-93 187.87,-90.48 188.9,-87.98 190.07,-85.52"/>
<polygon fill="none" stroke="#63b8ff" points="190.08,-85.52 189.51,-78.33 195.93,-75.04 196.5,-82.23 190.08,-85.52"/>
</a>
</g>
<text text-anchor="middle" x="219" y="-101.5" font-family="Helvetica,sans-Serif" font-size="10.00" fill="grey"> +confidence</text>
</g>
<!-- Node5 -->
<g id="Node000005" class="node">
<title>Node5</title>
<g id="a_Node000005"><a xlink:title=" ">
<polygon fill="white" stroke="transparent" points="284.5,-287 261.5,-287 261.5,-238 284.5,-238 284.5,-287"/>
<text text-anchor="start" x="267" y="-274.5" font-family="Helvetica,sans-Serif" font-size="10.00">int</text>
<text text-anchor="start" x="271.5" y="-259.5" font-family="Helvetica,sans-Serif" font-size="10.00"> </text>
<text text-anchor="start" x="271.5" y="-244.5" font-family="Helvetica,sans-Serif" font-size="10.00"> </text>
<polygon fill="#666666" stroke="#666666" points="262,-269.5 262,-269.5 285,-269.5 285,-269.5 262,-269.5"/>
<polygon fill="#666666" stroke="#666666" points="262,-254.5 262,-254.5 285,-254.5 285,-254.5 262,-254.5"/>
<polygon fill="none" stroke="#666666" points="261.5,-238 261.5,-287 284.5,-287 284.5,-238 261.5,-238"/>
</a>
</g>
</g>
<!-- Node5&#45;&gt;Node1 -->
<g id="edge4_Node000001_Node000005" class="edge">
<title>Node5&#45;&gt;Node1</title>
<g id="a_edge4_Node000001_Node000005"><a xlink:title=" ">
<path fill="none" stroke="#63b8ff" d="M271.81,-237.97C269.73,-205.07 264.3,-143.65 251,-93 250.44,-90.87 249.82,-88.72 249.15,-86.55"/>
<polygon fill="none" stroke="#63b8ff" points="249.09,-86.36 243.36,-81.98 245.21,-75.01 250.93,-79.39 249.09,-86.36"/>
</a>
</g>
<text text-anchor="middle" x="285.5" y="-107" font-family="Helvetica,sans-Serif" font-size="10.00" fill="grey"> +frame_idx</text>
<text text-anchor="middle" x="285.5" y="-96" font-family="Helvetica,sans-Serif" font-size="10.00" fill="grey">+object_id</text>
</g>
<!-- Node6 -->
<g id="Node000006" class="node">
<title>Node6</title>
<g id="a_Node000006"><a xlink:title=" ">
<polygon fill="white" stroke="transparent" points="382,-287 332,-287 332,-238 382,-238 382,-287"/>
<text text-anchor="start" x="337" y="-274.5" font-family="Helvetica,sans-Serif" font-size="10.00">uint64_t</text>
<text text-anchor="start" x="355" y="-259.5" font-family="Helvetica,sans-Serif" font-size="10.00"> </text>
<text text-anchor="start" x="355" y="-244.5" font-family="Helvetica,sans-Serif" font-size="10.00"> </text>
<polygon fill="#666666" stroke="#666666" points="332,-269.5 332,-269.5 382,-269.5 382,-269.5 332,-269.5"/>
<polygon fill="#666666" stroke="#666666" points="332,-254.5 332,-254.5 382,-254.5 382,-254.5 332,-254.5"/>
<polygon fill="none" stroke="#666666" points="332,-238 332,-287 382,-287 382,-238 332,-238"/>
</a>
</g>
</g>
<!-- Node6&#45;&gt;Node1 -->
<g id="edge5_Node000001_Node000006" class="edge">
<title>Node6&#45;&gt;Node1</title>
<g id="a_edge5_Node000001_Node000006"><a xlink:title=" ">
<path fill="none" stroke="#63b8ff" d="M357.49,-237.92C357.05,-203.02 351.66,-137 320,-93 313.22,-83.57 304.25,-75.48 294.59,-68.64"/>
<polygon fill="none" stroke="#63b8ff" points="294.38,-68.51 287.17,-68.58 284.33,-61.96 291.54,-61.88 294.38,-68.51"/>
</a>
</g>
<text text-anchor="middle" x="363.5" y="-101.5" font-family="Helvetica,sans-Serif" font-size="10.00" fill="grey"> +timestamp</text>
</g>
</g>
</svg>
