<?xml version="1.0" encoding="UTF-8" standalone="no"?>
<!DOCTYPE svg PUBLIC "-//W3C//DTD SVG 1.1//EN"
 "http://www.w3.org/Graphics/SVG/1.1/DTD/svg11.dtd">
<!-- Generated by graphviz version 2.43.0 (0)
 -->
<!-- Title: cv::detail::ExtractMetaCallback Pages: 1 -->
<svg width="170pt" height="175pt"
 viewBox="0.00 0.00 170.00 175.00" xmlns="http://www.w3.org/2000/svg" xmlns:xlink="http://www.w3.org/1999/xlink">
<g id="graph0" class="graph" transform="scale(1 1) rotate(0) translate(4 171)">
<title>cv::detail::ExtractMetaCallback</title>
<!-- Node1 -->
<g id="Node000001" class="node">
<title>Node1</title>
<g id="a_Node000001"><a xlink:title=" ">
<polygon fill="#999999" stroke="transparent" points="162,-49 0,-49 0,0 162,0 162,-49"/>
<text text-anchor="start" x="5" y="-36.5" font-family="Helvetica,sans-Serif" font-size="10.00">cv::detail::ExtractMetaCallback</text>
<text text-anchor="start" x="79" y="-21.5" font-family="Helvetica,sans-Serif" font-size="10.00"> </text>
<text text-anchor="start" x="25" y="-6.5" font-family="Helvetica,sans-Serif" font-size="10.00">+</text>
<text text-anchor="start" x="59" y="-6.5" font-family="Helvetica,sans-Serif" font-size="10.00">operator()()</text>
<polygon fill="#666666" stroke="#666666" points="0,-31.5 0,-31.5 162,-31.5 162,-31.5 0,-31.5"/>
<polygon fill="#666666" stroke="#666666" points="0,-16.5 0,-16.5 162,-16.5 162,-16.5 0,-16.5"/>
<polygon fill="none" stroke="#666666" points="0,0 0,-49 162,-49 162,0 0,0"/>
</a>
</g>
</g>
<!-- Node2 -->
<g id="Node000002" class="node">
<title>Node2</title>
<g id="a_Node000002"><a xlink:title=" ">
<polygon fill="white" stroke="transparent" points="147,-167 15,-167 15,-96 147,-96 147,-167"/>
<text text-anchor="start" x="20" y="-154.5" font-family="Helvetica,sans-Serif" font-size="10.00">function&lt; cv::GMetaArgs</text>
<text text-anchor="start" x="20" y="-143.5" font-family="Helvetica,sans-Serif" font-size="10.00">(const cv::GTypesInfo</text>
<text text-anchor="start" x="60" y="-132.5" font-family="Helvetica,sans-Serif" font-size="10.00"> &amp;info)&gt;</text>
<text text-anchor="start" x="79" y="-117.5" font-family="Helvetica,sans-Serif" font-size="10.00"> </text>
<text text-anchor="start" x="79" y="-102.5" font-family="Helvetica,sans-Serif" font-size="10.00"> </text>
<polygon fill="#666666" stroke="#666666" points="15,-127.5 15,-127.5 147,-127.5 147,-127.5 15,-127.5"/>
<polygon fill="#666666" stroke="#666666" points="15,-112.5 15,-112.5 147,-112.5 147,-112.5 15,-112.5"/>
<polygon fill="none" stroke="#666666" points="15,-96 15,-167 147,-167 147,-96 15,-96"/>
</a>
</g>
</g>
<!-- Node2&#45;&gt;Node1 -->
<g id="edge1_Node000001_Node000002" class="edge">
<title>Node2&#45;&gt;Node1</title>
<g id="a_edge1_Node000001_Node000002"><a xlink:title=" ">
<path fill="none" stroke="#63b8ff" d="M81,-95.83C81,-84.72 81,-72.4 81,-61.21"/>
<polygon fill="none" stroke="#63b8ff" points="81,-61.19 77,-55.2 81,-49.19 85,-55.19 81,-61.19"/>
</a>
</g>
<text text-anchor="middle" x="89.5" y="-70" font-family="Helvetica,sans-Serif" font-size="10.00" fill="grey"> +c</text>
</g>
</g>
</svg>
