<?xml version="1.0" encoding="UTF-8" standalone="no"?>
<!DOCTYPE svg PUBLIC "-//W3C//DTD SVG 1.1//EN"
 "http://www.w3.org/Graphics/SVG/1.1/DTD/svg11.dtd">
<!-- Generated by graphviz version 2.43.0 (0)
 -->
<!-- Title: cv::datasets::TRACK_alov Pages: 1 -->
<svg width="571pt" height="743pt"
 viewBox="0.00 0.00 571.00 743.00" xmlns="http://www.w3.org/2000/svg" xmlns:xlink="http://www.w3.org/1999/xlink">
<g id="graph0" class="graph" transform="scale(1 1) rotate(0) translate(4 739)">
<title>cv::datasets::TRACK_alov</title>
<!-- Node1 -->
<g id="Node000001" class="node">
<title>Node1</title>
<g id="a_Node000001"><a xlink:title=" ">
<polygon fill="#999999" stroke="transparent" points="373,-184 239,-184 239,0 373,0 373,-184"/>
<text text-anchor="start" x="244" y="-172" font-family="Helvetica,sans-Serif" font-size="10.00">cv::datasets::TRACK_alov</text>
<text text-anchor="start" x="304" y="-157" font-family="Helvetica,sans-Serif" font-size="10.00"> </text>
<text text-anchor="start" x="245.5" y="-142" font-family="Helvetica,sans-Serif" font-size="10.00">+</text>
<text text-anchor="start" x="261" y="-142" font-family="Helvetica,sans-Serif" font-size="10.00">getDatasetLength()</text>
<text text-anchor="start" x="245.5" y="-127" font-family="Helvetica,sans-Serif" font-size="10.00">+</text>
<text text-anchor="start" x="261" y="-127" font-family="Helvetica,sans-Serif" font-size="10.00">getDatasetsNum()</text>
<text text-anchor="start" x="245.5" y="-112" font-family="Helvetica,sans-Serif" font-size="10.00">+</text>
<text text-anchor="start" x="261" y="-112" font-family="Helvetica,sans-Serif" font-size="10.00">getFrame()</text>
<text text-anchor="start" x="245.5" y="-97" font-family="Helvetica,sans-Serif" font-size="10.00">+</text>
<text text-anchor="start" x="261" y="-97" font-family="Helvetica,sans-Serif" font-size="10.00">getGT()</text>
<text text-anchor="start" x="245.5" y="-82" font-family="Helvetica,sans-Serif" font-size="10.00">+</text>
<text text-anchor="start" x="261" y="-82" font-family="Helvetica,sans-Serif" font-size="10.00">getNextFrame()</text>
<text text-anchor="start" x="245.5" y="-67" font-family="Helvetica,sans-Serif" font-size="10.00">+</text>
<text text-anchor="start" x="261" y="-67" font-family="Helvetica,sans-Serif" font-size="10.00">getNextGT()</text>
<text text-anchor="start" x="245.5" y="-52" font-family="Helvetica,sans-Serif" font-size="10.00">+</text>
<text text-anchor="start" x="261" y="-52" font-family="Helvetica,sans-Serif" font-size="10.00">initDataset()</text>
<text text-anchor="start" x="245.5" y="-37" font-family="Helvetica,sans-Serif" font-size="10.00">+</text>
<text text-anchor="start" x="261" y="-37" font-family="Helvetica,sans-Serif" font-size="10.00">load()</text>
<text text-anchor="start" x="245.5" y="-22" font-family="Helvetica,sans-Serif" font-size="10.00">+</text>
<text text-anchor="start" x="261" y="-22" font-family="Helvetica,sans-Serif" font-size="10.00">loadAnnotatedOnly()</text>
<text text-anchor="start" x="245.5" y="-7" font-family="Helvetica,sans-Serif" font-size="10.00">+</text>
<text text-anchor="start" x="261" y="-7" font-family="Helvetica,sans-Serif" font-size="10.00">create()</text>
<polygon fill="#666666" stroke="#666666" points="239,-167 239,-167 373,-167 373,-167 239,-167"/>
<polygon fill="#666666" stroke="#666666" points="239,-152 239,-152 373,-152 373,-152 239,-152"/>
<polygon fill="none" stroke="#666666" points="239,0 239,-184 373,-184 373,0 239,0"/>
</a>
</g>
</g>
<!-- Node2 -->
<g id="Node000002" class="node">
<title>Node2</title>
<g id="a_Node000002"><a xlink:href="../../d9/d2e/classcv_1_1datasets_1_1Dataset.html" target="_top" xlink:title=" ">
<polygon fill="white" stroke="transparent" points="260.5,-381 147.5,-381 147.5,-242 260.5,-242 260.5,-381"/>
<text text-anchor="start" x="153" y="-368.5" font-family="Helvetica,sans-Serif" font-size="10.00">cv::datasets::Dataset</text>
<text text-anchor="start" x="202.5" y="-353.5" font-family="Helvetica,sans-Serif" font-size="10.00"> </text>
<text text-anchor="start" x="156.5" y="-338.5" font-family="Helvetica,sans-Serif" font-size="10.00">+</text>
<text text-anchor="start" x="174" y="-338.5" font-family="Helvetica,sans-Serif" font-size="10.00">Dataset()</text>
<text text-anchor="start" x="156.5" y="-323.5" font-family="Helvetica,sans-Serif" font-size="10.00">+</text>
<text text-anchor="start" x="174" y="-323.5" font-family="Helvetica,sans-Serif" font-size="10.00">~Dataset()</text>
<text text-anchor="start" x="156.5" y="-308.5" font-family="Helvetica,sans-Serif" font-size="10.00">+</text>
<text text-anchor="start" x="174" y="-308.5" font-family="Helvetica,sans-Serif" font-size="10.00">getNumSplits()</text>
<text text-anchor="start" x="156.5" y="-293.5" font-family="Helvetica,sans-Serif" font-size="10.00">+</text>
<text text-anchor="start" x="174" y="-293.5" font-family="Helvetica,sans-Serif" font-size="10.00">getTest()</text>
<text text-anchor="start" x="156.5" y="-278.5" font-family="Helvetica,sans-Serif" font-size="10.00">+</text>
<text text-anchor="start" x="174" y="-278.5" font-family="Helvetica,sans-Serif" font-size="10.00">getTrain()</text>
<text text-anchor="start" x="156.5" y="-263.5" font-family="Helvetica,sans-Serif" font-size="10.00">+</text>
<text text-anchor="start" x="174" y="-263.5" font-family="Helvetica,sans-Serif" font-size="10.00">getValidation()</text>
<text text-anchor="start" x="156.5" y="-248.5" font-family="Helvetica,sans-Serif" font-size="10.00">+</text>
<text text-anchor="start" x="174" y="-248.5" font-family="Helvetica,sans-Serif" font-size="10.00">load()</text>
<polygon fill="#666666" stroke="#666666" points="148,-363.5 148,-363.5 261,-363.5 261,-363.5 148,-363.5"/>
<polygon fill="#666666" stroke="#666666" points="148,-348.5 148,-348.5 261,-348.5 261,-348.5 148,-348.5"/>
<polygon fill="none" stroke="#666666" points="147.5,-242 147.5,-381 260.5,-381 260.5,-242 147.5,-242"/>
</a>
</g>
</g>
<!-- Node2&#45;&gt;Node1 -->
<g id="edge1_Node000001_Node000002" class="edge">
<title>Node2&#45;&gt;Node1</title>
<g id="a_edge1_Node000001_Node000002"><a xlink:title=" ">
<path fill="none" stroke="#63b8ff" d="M240.42,-232.84C247.8,-217.11 255.62,-200.43 263.19,-184.28"/>
<polygon fill="none" stroke="#63b8ff" points="237.21,-231.44 236.13,-241.98 243.55,-234.41 237.21,-231.44"/>
</a>
</g>
</g>
<!-- Node3 -->
<g id="Node000003" class="node">
<title>Node3</title>
<g id="a_Node000003"><a xlink:title=" ">
<polygon fill="white" stroke="transparent" points="235,-515.5 59,-515.5 59,-455.5 235,-455.5 235,-515.5"/>
<text text-anchor="start" x="64" y="-503.5" font-family="Helvetica,sans-Serif" font-size="10.00">std::vector&lt; std::vector</text>
<text text-anchor="start" x="64" y="-492.5" font-family="Helvetica,sans-Serif" font-size="10.00">&lt; Ptr&lt; cv::datasets::Object &gt; &gt; &gt;</text>
<text text-anchor="start" x="145" y="-477.5" font-family="Helvetica,sans-Serif" font-size="10.00"> </text>
<text text-anchor="start" x="145" y="-462.5" font-family="Helvetica,sans-Serif" font-size="10.00"> </text>
<polygon fill="#666666" stroke="#666666" points="59,-487.5 59,-487.5 235,-487.5 235,-487.5 59,-487.5"/>
<polygon fill="#666666" stroke="#666666" points="59,-472.5 59,-472.5 235,-472.5 235,-472.5 59,-472.5"/>
<polygon fill="none" stroke="#666666" points="59,-455.5 59,-515.5 235,-515.5 235,-455.5 59,-455.5"/>
</a>
</g>
</g>
<!-- Node3&#45;&gt;Node2 -->
<g id="edge2_Node000002_Node000003" class="edge">
<title>Node3&#45;&gt;Node2</title>
<g id="a_edge2_Node000002_Node000003"><a xlink:title=" ">
<path fill="none" stroke="#63b8ff" d="M156.67,-455.32C162.4,-438.02 169.98,-415.16 177.38,-392.82"/>
<polygon fill="none" stroke="#63b8ff" points="177.45,-392.6 175.54,-385.65 181.23,-381.21 183.14,-388.17 177.45,-392.6"/>
</a>
</g>
<text text-anchor="middle" x="203" y="-424" font-family="Helvetica,sans-Serif" font-size="10.00" fill="grey"> #test</text>
<text text-anchor="middle" x="203" y="-413" font-family="Helvetica,sans-Serif" font-size="10.00" fill="grey">#train</text>
<text text-anchor="middle" x="203" y="-402" font-family="Helvetica,sans-Serif" font-size="10.00" fill="grey">#validation</text>
</g>
<!-- Node4 -->
<g id="Node000004" class="node">
<title>Node4</title>
<g id="a_Node000004"><a xlink:title=" ">
<polygon fill="white" stroke="transparent" points="136,-639 0,-639 0,-579 136,-579 136,-639"/>
<text text-anchor="start" x="5" y="-627" font-family="Helvetica,sans-Serif" font-size="10.00">vector&lt; Ptr&lt; cv::datasets</text>
<text text-anchor="start" x="37.5" y="-616" font-family="Helvetica,sans-Serif" font-size="10.00">::Object &gt; &gt;</text>
<text text-anchor="start" x="66" y="-601" font-family="Helvetica,sans-Serif" font-size="10.00"> </text>
<text text-anchor="start" x="66" y="-586" font-family="Helvetica,sans-Serif" font-size="10.00"> </text>
<polygon fill="#666666" stroke="#666666" points="0,-611 0,-611 136,-611 136,-611 0,-611"/>
<polygon fill="#666666" stroke="#666666" points="0,-596 0,-596 136,-596 136,-596 0,-596"/>
<polygon fill="none" stroke="#666666" points="0,-579 0,-639 136,-639 136,-579 0,-579"/>
</a>
</g>
</g>
<!-- Node4&#45;&gt;Node3 -->
<g id="edge3_Node000003_Node000004" class="edge">
<title>Node4&#45;&gt;Node3</title>
<g id="a_edge3_Node000003_Node000004"><a xlink:title=" ">
<path fill="none" stroke="#63b8ff" d="M62.58,-578.95C61.59,-566.01 62.49,-551.01 69,-539 71.98,-533.49 75.83,-528.45 80.21,-523.87"/>
<polygon fill="none" stroke="#63b8ff" points="80.36,-523.73 82.07,-516.72 89.2,-515.61 87.49,-522.61 80.36,-523.73"/>
</a>
</g>
<text text-anchor="middle" x="98" y="-547.5" font-family="Helvetica,sans-Serif" font-size="10.00" fill="grey"> +elements</text>
</g>
<!-- Node5 -->
<g id="Node000005" class="node">
<title>Node5</title>
<g id="a_Node000005"><a xlink:title=" ">
<polygon fill="white" stroke="transparent" points="302.5,-633.5 211.5,-633.5 211.5,-584.5 302.5,-584.5 302.5,-633.5"/>
<text text-anchor="start" x="217" y="-621" font-family="Helvetica,sans-Serif" font-size="10.00">std::vector&lt; T &gt;</text>
<text text-anchor="start" x="255.5" y="-606" font-family="Helvetica,sans-Serif" font-size="10.00"> </text>
<text text-anchor="start" x="255.5" y="-591" font-family="Helvetica,sans-Serif" font-size="10.00"> </text>
<polygon fill="#666666" stroke="#666666" points="212,-616 212,-616 303,-616 303,-616 212,-616"/>
<polygon fill="#666666" stroke="#666666" points="212,-601 212,-601 303,-601 303,-601 212,-601"/>
<polygon fill="none" stroke="#666666" points="211.5,-584.5 211.5,-633.5 302.5,-633.5 302.5,-584.5 211.5,-584.5"/>
</a>
</g>
</g>
<!-- Node5&#45;&gt;Node3 -->
<g id="edge4_Node000003_Node000005" class="edge">
<title>Node5&#45;&gt;Node3</title>
<g id="a_edge4_Node000003_Node000005"><a xlink:title=" ">
<path fill="none" stroke="orange" d="M201.85,-598.17C180.7,-591.41 158.63,-580.06 146,-561 137.28,-547.84 137.1,-530.31 139.3,-515.55"/>
<polygon fill="orange" stroke="orange" points="200.89,-601.53 211.47,-600.95 202.84,-594.81 200.89,-601.53"/>
</a>
</g>
<text text-anchor="start" x="146" y="-553" font-family="Helvetica,sans-Serif" font-size="10.00" fill="grey"> &lt; std::vector&lt; Ptr</text>
<text text-anchor="middle" x="217" y="-542" font-family="Helvetica,sans-Serif" font-size="10.00" fill="grey">&lt; cv::datasets::Object &gt; &gt; &gt;</text>
</g>
<!-- Node7 -->
<g id="Node000007" class="node">
<title>Node7</title>
<g id="a_Node000007"><a xlink:title=" ">
<polygon fill="white" stroke="transparent" points="379,-521 253,-521 253,-450 379,-450 379,-521"/>
<text text-anchor="start" x="258" y="-508.5" font-family="Helvetica,sans-Serif" font-size="10.00">std::vector&lt; vector</text>
<text text-anchor="start" x="258" y="-497.5" font-family="Helvetica,sans-Serif" font-size="10.00">&lt; Ptr&lt; cv::datasets</text>
<text text-anchor="start" x="258" y="-486.5" font-family="Helvetica,sans-Serif" font-size="10.00">::TRACK_alovObj &gt; &gt; &gt;</text>
<text text-anchor="start" x="314" y="-471.5" font-family="Helvetica,sans-Serif" font-size="10.00"> </text>
<text text-anchor="start" x="314" y="-456.5" font-family="Helvetica,sans-Serif" font-size="10.00"> </text>
<polygon fill="#666666" stroke="#666666" points="253,-481.5 253,-481.5 379,-481.5 379,-481.5 253,-481.5"/>
<polygon fill="#666666" stroke="#666666" points="253,-466.5 253,-466.5 379,-466.5 379,-466.5 253,-466.5"/>
<polygon fill="none" stroke="#666666" points="253,-450 253,-521 379,-521 379,-450 253,-450"/>
</a>
</g>
</g>
<!-- Node5&#45;&gt;Node7 -->
<g id="edge8_Node000007_Node000005" class="edge">
<title>Node5&#45;&gt;Node7</title>
<g id="a_edge8_Node000007_Node000005"><a xlink:title=" ">
<path fill="none" stroke="orange" d="M283.11,-575.77C286.36,-570.98 289.44,-565.97 292,-561 298.41,-548.56 303.55,-534.07 307.4,-521.19"/>
<polygon fill="orange" stroke="orange" points="280.11,-573.95 277.14,-584.12 285.8,-578.03 280.11,-573.95"/>
</a>
</g>
<text text-anchor="start" x="302" y="-553" font-family="Helvetica,sans-Serif" font-size="10.00" fill="grey"> &lt; vector&lt; Ptr&lt; cv::</text>
<text text-anchor="middle" x="381" y="-542" font-family="Helvetica,sans-Serif" font-size="10.00" fill="grey">datasets::TRACK_alovObj &gt; &gt; &gt;</text>
</g>
<!-- Node6 -->
<g id="Node000006" class="node">
<title>Node6</title>
<g id="a_Node000006"><a xlink:title=" ">
<polygon fill="white" stroke="transparent" points="265.5,-735 248.5,-735 248.5,-686 265.5,-686 265.5,-735"/>
<text text-anchor="start" x="254" y="-722.5" font-family="Helvetica,sans-Serif" font-size="10.00">T</text>
<text text-anchor="start" x="255.5" y="-707.5" font-family="Helvetica,sans-Serif" font-size="10.00"> </text>
<text text-anchor="start" x="255.5" y="-692.5" font-family="Helvetica,sans-Serif" font-size="10.00"> </text>
<polygon fill="#666666" stroke="#666666" points="249,-717.5 249,-717.5 266,-717.5 266,-717.5 249,-717.5"/>
<polygon fill="#666666" stroke="#666666" points="249,-702.5 249,-702.5 266,-702.5 266,-702.5 249,-702.5"/>
<polygon fill="none" stroke="#666666" points="248.5,-686 248.5,-735 265.5,-735 265.5,-686 248.5,-686"/>
</a>
</g>
</g>
<!-- Node6&#45;&gt;Node5 -->
<g id="edge5_Node000005_Node000006" class="edge">
<title>Node6&#45;&gt;Node5</title>
<g id="a_edge5_Node000005_Node000006"><a xlink:title=" ">
<path fill="none" stroke="#63b8ff" d="M257,-685.92C257,-673.99 257,-659.25 257,-645.94"/>
<polygon fill="none" stroke="#63b8ff" points="257,-645.76 253,-639.76 257,-633.76 261,-639.76 257,-645.76"/>
</a>
</g>
<text text-anchor="middle" x="286" y="-660" font-family="Helvetica,sans-Serif" font-size="10.00" fill="grey"> +elements</text>
</g>
<!-- Node7&#45;&gt;Node1 -->
<g id="edge6_Node000001_Node000007" class="edge">
<title>Node7&#45;&gt;Node1</title>
<g id="a_edge6_Node000001_Node000007"><a xlink:title=" ">
<path fill="none" stroke="#63b8ff" d="M315.11,-449.76C313.68,-393.48 310.78,-280.25 308.64,-196.37"/>
<polygon fill="none" stroke="#63b8ff" points="308.64,-196.22 304.48,-190.32 308.33,-184.22 312.48,-190.12 308.64,-196.22"/>
</a>
</g>
<text text-anchor="middle" x="330" y="-309" font-family="Helvetica,sans-Serif" font-size="10.00" fill="grey"> #data</text>
</g>
<!-- Node8 -->
<g id="Node000008" class="node">
<title>Node8</title>
<g id="a_Node000008"><a xlink:title=" ">
<polygon fill="white" stroke="transparent" points="563,-639 427,-639 427,-579 563,-579 563,-639"/>
<text text-anchor="start" x="432" y="-627" font-family="Helvetica,sans-Serif" font-size="10.00">vector&lt; Ptr&lt; cv::datasets</text>
<text text-anchor="start" x="442.5" y="-616" font-family="Helvetica,sans-Serif" font-size="10.00">::TRACK_alovObj &gt; &gt;</text>
<text text-anchor="start" x="493" y="-601" font-family="Helvetica,sans-Serif" font-size="10.00"> </text>
<text text-anchor="start" x="493" y="-586" font-family="Helvetica,sans-Serif" font-size="10.00"> </text>
<polygon fill="#666666" stroke="#666666" points="427,-611 427,-611 563,-611 563,-611 427,-611"/>
<polygon fill="#666666" stroke="#666666" points="427,-596 427,-596 563,-596 563,-596 427,-596"/>
<polygon fill="none" stroke="#666666" points="427,-579 427,-639 563,-639 563,-579 427,-579"/>
</a>
</g>
</g>
<!-- Node8&#45;&gt;Node7 -->
<g id="edge7_Node000007_Node000008" class="edge">
<title>Node8&#45;&gt;Node7</title>
<g id="a_edge7_Node000007_Node000008"><a xlink:title=" ">
<path fill="none" stroke="#63b8ff" d="M487.74,-578.97C483,-565.25 475.49,-549.59 464,-539 443.75,-520.33 416.43,-508.22 390.78,-500.4"/>
<polygon fill="none" stroke="#63b8ff" points="390.69,-500.38 383.82,-502.59 379.14,-497.1 386.01,-494.89 390.69,-500.38"/>
</a>
</g>
<text text-anchor="middle" x="508" y="-547.5" font-family="Helvetica,sans-Serif" font-size="10.00" fill="grey"> +elements</text>
</g>
<!-- Node9 -->
<g id="Node000009" class="node">
<title>Node9</title>
<g id="a_Node000009"><a xlink:title=" ">
<polygon fill="white" stroke="transparent" points="381.5,-336 358.5,-336 358.5,-287 381.5,-287 381.5,-336"/>
<text text-anchor="start" x="364" y="-323.5" font-family="Helvetica,sans-Serif" font-size="10.00">int</text>
<text text-anchor="start" x="368.5" y="-308.5" font-family="Helvetica,sans-Serif" font-size="10.00"> </text>
<text text-anchor="start" x="368.5" y="-293.5" font-family="Helvetica,sans-Serif" font-size="10.00"> </text>
<polygon fill="#666666" stroke="#666666" points="359,-318.5 359,-318.5 382,-318.5 382,-318.5 359,-318.5"/>
<polygon fill="#666666" stroke="#666666" points="359,-303.5 359,-303.5 382,-303.5 382,-303.5 359,-303.5"/>
<polygon fill="none" stroke="#666666" points="358.5,-287 358.5,-336 381.5,-336 381.5,-287 358.5,-287"/>
</a>
</g>
</g>
<!-- Node9&#45;&gt;Node1 -->
<g id="edge9_Node000001_Node000009" class="edge">
<title>Node9&#45;&gt;Node1</title>
<g id="a_edge9_Node000001_Node000009"><a xlink:title=" ">
<path fill="none" stroke="#63b8ff" d="M363.03,-286.81C356.51,-264.65 346.3,-229.96 336.31,-196.02"/>
<polygon fill="none" stroke="#63b8ff" points="336.18,-195.58 330.65,-190.95 332.8,-184.07 338.33,-188.7 336.18,-195.58"/>
</a>
</g>
<text text-anchor="middle" x="388.5" y="-216" font-family="Helvetica,sans-Serif" font-size="10.00" fill="grey"> #activeDatasetID</text>
<text text-anchor="middle" x="388.5" y="-205" font-family="Helvetica,sans-Serif" font-size="10.00" fill="grey">#frameCounter</text>
</g>
</g>
</svg>
