<?xml version="1.0" encoding="UTF-8" standalone="no"?>
<!DOCTYPE svg PUBLIC "-//W3C//DTD SVG 1.1//EN"
 "http://www.w3.org/Graphics/SVG/1.1/DTD/svg11.dtd">
<!-- Generated by graphviz version 2.43.0 (0)
 -->
<!-- Title: cv::NAryMatIterator Pages: 1 -->
<svg width="1055pt" height="1353pt"
 viewBox="0.00 0.00 1055.39 1353.00" xmlns="http://www.w3.org/2000/svg" xmlns:xlink="http://www.w3.org/1999/xlink">
<g id="graph0" class="graph" transform="scale(1 1) rotate(0) translate(4 1349)">
<title>cv::NAryMatIterator</title>
<!-- Node1 -->
<g id="Node000001" class="node">
<title>Node1</title>
<g id="a_Node000001"><a xlink:title="n&#45;ary multi&#45;dimensional array iterator.">
<polygon fill="#999999" stroke="transparent" points="988.89,-124 880.89,-124 880.89,0 988.89,0 988.89,-124"/>
<text text-anchor="start" x="886.89" y="-112" font-family="Helvetica,sans-Serif" font-size="10.00">cv::NAryMatIterator</text>
<text text-anchor="start" x="932.89" y="-97" font-family="Helvetica,sans-Serif" font-size="10.00"> </text>
<text text-anchor="start" x="884.89" y="-82" font-family="Helvetica,sans-Serif" font-size="10.00">+</text>
<text text-anchor="start" x="897.89" y="-82" font-family="Helvetica,sans-Serif" font-size="10.00">NAryMatIterator()</text>
<text text-anchor="start" x="884.89" y="-67" font-family="Helvetica,sans-Serif" font-size="10.00">+</text>
<text text-anchor="start" x="897.89" y="-67" font-family="Helvetica,sans-Serif" font-size="10.00">NAryMatIterator()</text>
<text text-anchor="start" x="884.89" y="-52" font-family="Helvetica,sans-Serif" font-size="10.00">+</text>
<text text-anchor="start" x="897.89" y="-52" font-family="Helvetica,sans-Serif" font-size="10.00">NAryMatIterator()</text>
<text text-anchor="start" x="884.89" y="-37" font-family="Helvetica,sans-Serif" font-size="10.00">+</text>
<text text-anchor="start" x="897.89" y="-37" font-family="Helvetica,sans-Serif" font-size="10.00">init()</text>
<text text-anchor="start" x="884.89" y="-22" font-family="Helvetica,sans-Serif" font-size="10.00">+</text>
<text text-anchor="start" x="897.89" y="-22" font-family="Helvetica,sans-Serif" font-size="10.00">operator++()</text>
<text text-anchor="start" x="884.89" y="-7" font-family="Helvetica,sans-Serif" font-size="10.00">+</text>
<text text-anchor="start" x="897.89" y="-7" font-family="Helvetica,sans-Serif" font-size="10.00">operator++()</text>
<polygon fill="#666666" stroke="#666666" points="880.89,-107 880.89,-107 988.89,-107 988.89,-107 880.89,-107"/>
<polygon fill="#666666" stroke="#666666" points="880.89,-92 880.89,-92 988.89,-92 988.89,-92 880.89,-92"/>
<polygon fill="none" stroke="#666666" points="880.89,0 880.89,-124 988.89,-124 988.89,0 880.89,0"/>
</a>
</g>
</g>
<!-- Node2 -->
<g id="Node000002" class="node">
<title>Node2</title>
<g id="a_Node000002"><a xlink:href="../../d3/d63/classcv_1_1Mat.html" target="_top" xlink:title="n&#45;dimensional dense array class">
<polygon fill="white" stroke="transparent" points="600.89,-576 476.89,-576 476.89,-182 600.89,-182 600.89,-576"/>
<text text-anchor="start" x="520.89" y="-564" font-family="Helvetica,sans-Serif" font-size="10.00">cv::Mat</text>
<text text-anchor="start" x="536.89" y="-549" font-family="Helvetica,sans-Serif" font-size="10.00"> </text>
<text text-anchor="start" x="480.89" y="-534" font-family="Helvetica,sans-Serif" font-size="10.00">+</text>
<text text-anchor="start" x="493.89" y="-534" font-family="Helvetica,sans-Serif" font-size="10.00">Mat()</text>
<text text-anchor="start" x="480.89" y="-519" font-family="Helvetica,sans-Serif" font-size="10.00">+</text>
<text text-anchor="start" x="493.89" y="-519" font-family="Helvetica,sans-Serif" font-size="10.00">Mat()</text>
<text text-anchor="start" x="480.89" y="-504" font-family="Helvetica,sans-Serif" font-size="10.00">+</text>
<text text-anchor="start" x="493.89" y="-504" font-family="Helvetica,sans-Serif" font-size="10.00">Mat()</text>
<text text-anchor="start" x="480.89" y="-489" font-family="Helvetica,sans-Serif" font-size="10.00">+</text>
<text text-anchor="start" x="493.89" y="-489" font-family="Helvetica,sans-Serif" font-size="10.00">Mat()</text>
<text text-anchor="start" x="480.89" y="-474" font-family="Helvetica,sans-Serif" font-size="10.00">+</text>
<text text-anchor="start" x="493.89" y="-474" font-family="Helvetica,sans-Serif" font-size="10.00">Mat()</text>
<text text-anchor="start" x="480.89" y="-459" font-family="Helvetica,sans-Serif" font-size="10.00">+</text>
<text text-anchor="start" x="493.89" y="-459" font-family="Helvetica,sans-Serif" font-size="10.00">Mat()</text>
<text text-anchor="start" x="480.89" y="-444" font-family="Helvetica,sans-Serif" font-size="10.00">+</text>
<text text-anchor="start" x="493.89" y="-444" font-family="Helvetica,sans-Serif" font-size="10.00">Mat()</text>
<text text-anchor="start" x="480.89" y="-429" font-family="Helvetica,sans-Serif" font-size="10.00">+</text>
<text text-anchor="start" x="493.89" y="-429" font-family="Helvetica,sans-Serif" font-size="10.00">Mat()</text>
<text text-anchor="start" x="480.89" y="-414" font-family="Helvetica,sans-Serif" font-size="10.00">+</text>
<text text-anchor="start" x="493.89" y="-414" font-family="Helvetica,sans-Serif" font-size="10.00">Mat()</text>
<text text-anchor="start" x="480.89" y="-399" font-family="Helvetica,sans-Serif" font-size="10.00">+</text>
<text text-anchor="start" x="493.89" y="-399" font-family="Helvetica,sans-Serif" font-size="10.00">Mat()</text>
<text text-anchor="start" x="493.89" y="-384" font-family="Helvetica,sans-Serif" font-size="10.00">and 129 more...</text>
<text text-anchor="start" x="480.89" y="-369" font-family="Helvetica,sans-Serif" font-size="10.00">+</text>
<text text-anchor="start" x="493.89" y="-369" font-family="Helvetica,sans-Serif" font-size="10.00">diag()</text>
<text text-anchor="start" x="480.89" y="-354" font-family="Helvetica,sans-Serif" font-size="10.00">+</text>
<text text-anchor="start" x="493.89" y="-354" font-family="Helvetica,sans-Serif" font-size="10.00">eye()</text>
<text text-anchor="start" x="480.89" y="-339" font-family="Helvetica,sans-Serif" font-size="10.00">+</text>
<text text-anchor="start" x="493.89" y="-339" font-family="Helvetica,sans-Serif" font-size="10.00">eye()</text>
<text text-anchor="start" x="480.89" y="-324" font-family="Helvetica,sans-Serif" font-size="10.00">+</text>
<text text-anchor="start" x="493.89" y="-324" font-family="Helvetica,sans-Serif" font-size="10.00">getDefaultAllocator()</text>
<text text-anchor="start" x="480.89" y="-309" font-family="Helvetica,sans-Serif" font-size="10.00">+</text>
<text text-anchor="start" x="493.89" y="-309" font-family="Helvetica,sans-Serif" font-size="10.00">getStdAllocator()</text>
<text text-anchor="start" x="480.89" y="-294" font-family="Helvetica,sans-Serif" font-size="10.00">+</text>
<text text-anchor="start" x="493.89" y="-294" font-family="Helvetica,sans-Serif" font-size="10.00">ones()</text>
<text text-anchor="start" x="480.89" y="-279" font-family="Helvetica,sans-Serif" font-size="10.00">+</text>
<text text-anchor="start" x="493.89" y="-279" font-family="Helvetica,sans-Serif" font-size="10.00">ones()</text>
<text text-anchor="start" x="480.89" y="-264" font-family="Helvetica,sans-Serif" font-size="10.00">+</text>
<text text-anchor="start" x="493.89" y="-264" font-family="Helvetica,sans-Serif" font-size="10.00">ones()</text>
<text text-anchor="start" x="480.89" y="-249" font-family="Helvetica,sans-Serif" font-size="10.00">+</text>
<text text-anchor="start" x="493.89" y="-249" font-family="Helvetica,sans-Serif" font-size="10.00">setDefaultAllocator()</text>
<text text-anchor="start" x="480.89" y="-234" font-family="Helvetica,sans-Serif" font-size="10.00">+</text>
<text text-anchor="start" x="493.89" y="-234" font-family="Helvetica,sans-Serif" font-size="10.00">zeros()</text>
<text text-anchor="start" x="480.89" y="-219" font-family="Helvetica,sans-Serif" font-size="10.00">+</text>
<text text-anchor="start" x="493.89" y="-219" font-family="Helvetica,sans-Serif" font-size="10.00">zeros()</text>
<text text-anchor="start" x="480.89" y="-204" font-family="Helvetica,sans-Serif" font-size="10.00">+</text>
<text text-anchor="start" x="493.89" y="-204" font-family="Helvetica,sans-Serif" font-size="10.00">zeros()</text>
<text text-anchor="start" x="480.89" y="-189" font-family="Helvetica,sans-Serif" font-size="10.00">#</text>
<text text-anchor="start" x="493.89" y="-189" font-family="Helvetica,sans-Serif" font-size="10.00">forEach_impl()</text>
<polygon fill="#666666" stroke="#666666" points="476.89,-559 476.89,-559 600.89,-559 600.89,-559 476.89,-559"/>
<polygon fill="#666666" stroke="#666666" points="476.89,-544 476.89,-544 600.89,-544 600.89,-544 476.89,-544"/>
<polygon fill="none" stroke="#666666" points="476.89,-182 476.89,-576 600.89,-576 600.89,-182 476.89,-182"/>
</a>
</g>
</g>
<!-- Node2&#45;&gt;Node1 -->
<g id="edge1_Node000001_Node000002" class="edge">
<title>Node2&#45;&gt;Node1</title>
<g id="a_edge1_Node000001_Node000002"><a xlink:title=" ">
<path fill="none" stroke="#63b8ff" d="M601.2,-328.43C674.89,-269.82 796.89,-172.78 871.18,-113.68"/>
<polygon fill="none" stroke="#63b8ff" points="871.5,-113.43 873.71,-106.56 880.89,-105.95 878.69,-112.82 871.5,-113.43"/>
</a>
</g>
<text text-anchor="middle" x="850.39" y="-156" font-family="Helvetica,sans-Serif" font-size="10.00" fill="grey"> +arrays</text>
<text text-anchor="middle" x="850.39" y="-145" font-family="Helvetica,sans-Serif" font-size="10.00" fill="grey">+planes</text>
</g>
<!-- Node3 -->
<g id="Node000003" class="node">
<title>Node3</title>
<g id="a_Node000003"><a xlink:title=" ">
<polygon fill="white" stroke="transparent" points="104.39,-1078 81.39,-1078 81.39,-1029 104.39,-1029 104.39,-1078"/>
<text text-anchor="start" x="86.89" y="-1065.5" font-family="Helvetica,sans-Serif" font-size="10.00">int</text>
<text text-anchor="start" x="91.39" y="-1050.5" font-family="Helvetica,sans-Serif" font-size="10.00"> </text>
<text text-anchor="start" x="91.39" y="-1035.5" font-family="Helvetica,sans-Serif" font-size="10.00"> </text>
<polygon fill="#666666" stroke="#666666" points="81.89,-1060.5 81.89,-1060.5 104.89,-1060.5 104.89,-1060.5 81.89,-1060.5"/>
<polygon fill="#666666" stroke="#666666" points="81.89,-1045.5 81.89,-1045.5 104.89,-1045.5 104.89,-1045.5 81.89,-1045.5"/>
<polygon fill="none" stroke="#666666" points="81.39,-1029 81.39,-1078 104.39,-1078 104.39,-1029 81.39,-1029"/>
</a>
</g>
</g>
<!-- Node3&#45;&gt;Node1 -->
<g id="edge23_Node000001_Node000003" class="edge">
<title>Node3&#45;&gt;Node1</title>
<g id="a_edge23_Node000001_Node000003"><a xlink:title=" ">
<path fill="none" stroke="#63b8ff" d="M81.37,-1030.65C46.61,-961.47 -49.85,-743.03 33.89,-594 164.17,-362.13 235.06,-310.55 467.89,-182 598.8,-109.73 774.54,-80.37 868.71,-69.23"/>
<polygon fill="none" stroke="#63b8ff" points="868.97,-69.2 874.48,-64.54 880.89,-67.83 875.38,-72.49 868.97,-69.2"/>
</a>
</g>
<text text-anchor="middle" x="61.89" y="-613.5" font-family="Helvetica,sans-Serif" font-size="10.00" fill="grey"> #iterdepth</text>
<text text-anchor="middle" x="61.89" y="-602.5" font-family="Helvetica,sans-Serif" font-size="10.00" fill="grey">+narrays</text>
</g>
<!-- Node3&#45;&gt;Node2 -->
<g id="edge2_Node000002_Node000003" class="edge">
<title>Node3&#45;&gt;Node2</title>
<g id="a_edge2_Node000002_Node000003"><a xlink:title=" ">
<path fill="none" stroke="#63b8ff" d="M98.23,-1028.75C115.8,-951.81 173.33,-710.56 217.89,-645 283.33,-548.73 393.5,-468.69 466.21,-422.57"/>
<polygon fill="none" stroke="#63b8ff" points="466.49,-422.4 469.45,-415.82 476.66,-416.02 473.7,-422.6 466.49,-422.4"/>
</a>
</g>
<text text-anchor="middle" x="234.39" y="-773.5" font-family="Helvetica,sans-Serif" font-size="10.00" fill="grey"> +cols</text>
<text text-anchor="middle" x="234.39" y="-762.5" font-family="Helvetica,sans-Serif" font-size="10.00" fill="grey">+dims</text>
<text text-anchor="middle" x="234.39" y="-751.5" font-family="Helvetica,sans-Serif" font-size="10.00" fill="grey">+flags</text>
<text text-anchor="middle" x="234.39" y="-740.5" font-family="Helvetica,sans-Serif" font-size="10.00" fill="grey">+rows</text>
</g>
<!-- Node7 -->
<g id="Node000007" class="node">
<title>Node7</title>
<g id="a_Node000007"><a xlink:href="../../db/d58/structcv_1_1UMatData.html" target="_top" xlink:title=" ">
<polygon fill="white" stroke="transparent" points="518.39,-874 361.39,-874 361.39,-645 518.39,-645 518.39,-874"/>
<text text-anchor="start" x="406.89" y="-861.5" font-family="Helvetica,sans-Serif" font-size="10.00">cv::UMatData</text>
<text text-anchor="start" x="438.39" y="-846.5" font-family="Helvetica,sans-Serif" font-size="10.00"> </text>
<text text-anchor="start" x="365.89" y="-831.5" font-family="Helvetica,sans-Serif" font-size="10.00">+</text>
<text text-anchor="start" x="378.89" y="-831.5" font-family="Helvetica,sans-Serif" font-size="10.00">UMatData()</text>
<text text-anchor="start" x="365.89" y="-816.5" font-family="Helvetica,sans-Serif" font-size="10.00">+</text>
<text text-anchor="start" x="378.89" y="-816.5" font-family="Helvetica,sans-Serif" font-size="10.00">~UMatData()</text>
<text text-anchor="start" x="365.89" y="-801.5" font-family="Helvetica,sans-Serif" font-size="10.00">+</text>
<text text-anchor="start" x="378.89" y="-801.5" font-family="Helvetica,sans-Serif" font-size="10.00">copyOnMap()</text>
<text text-anchor="start" x="365.89" y="-786.5" font-family="Helvetica,sans-Serif" font-size="10.00">+</text>
<text text-anchor="start" x="378.89" y="-786.5" font-family="Helvetica,sans-Serif" font-size="10.00">deviceCopyObsolete()</text>
<text text-anchor="start" x="365.89" y="-771.5" font-family="Helvetica,sans-Serif" font-size="10.00">+</text>
<text text-anchor="start" x="378.89" y="-771.5" font-family="Helvetica,sans-Serif" font-size="10.00">deviceMemMapped()</text>
<text text-anchor="start" x="365.89" y="-756.5" font-family="Helvetica,sans-Serif" font-size="10.00">+</text>
<text text-anchor="start" x="378.89" y="-756.5" font-family="Helvetica,sans-Serif" font-size="10.00">hostCopyObsolete()</text>
<text text-anchor="start" x="365.89" y="-741.5" font-family="Helvetica,sans-Serif" font-size="10.00">+</text>
<text text-anchor="start" x="378.89" y="-741.5" font-family="Helvetica,sans-Serif" font-size="10.00">lock()</text>
<text text-anchor="start" x="365.89" y="-726.5" font-family="Helvetica,sans-Serif" font-size="10.00">+</text>
<text text-anchor="start" x="378.89" y="-726.5" font-family="Helvetica,sans-Serif" font-size="10.00">markDeviceCopyObsolete()</text>
<text text-anchor="start" x="365.89" y="-711.5" font-family="Helvetica,sans-Serif" font-size="10.00">+</text>
<text text-anchor="start" x="378.89" y="-711.5" font-family="Helvetica,sans-Serif" font-size="10.00">markDeviceMemMapped()</text>
<text text-anchor="start" x="365.89" y="-696.5" font-family="Helvetica,sans-Serif" font-size="10.00">+</text>
<text text-anchor="start" x="378.89" y="-696.5" font-family="Helvetica,sans-Serif" font-size="10.00">markHostCopyObsolete()</text>
<text text-anchor="start" x="365.89" y="-681.5" font-family="Helvetica,sans-Serif" font-size="10.00">+</text>
<text text-anchor="start" x="378.89" y="-681.5" font-family="Helvetica,sans-Serif" font-size="10.00">tempCopiedUMat()</text>
<text text-anchor="start" x="365.89" y="-666.5" font-family="Helvetica,sans-Serif" font-size="10.00">+</text>
<text text-anchor="start" x="378.89" y="-666.5" font-family="Helvetica,sans-Serif" font-size="10.00">tempUMat()</text>
<text text-anchor="start" x="365.89" y="-651.5" font-family="Helvetica,sans-Serif" font-size="10.00">+</text>
<text text-anchor="start" x="378.89" y="-651.5" font-family="Helvetica,sans-Serif" font-size="10.00">unlock()</text>
<polygon fill="#666666" stroke="#666666" points="361.89,-856.5 361.89,-856.5 518.89,-856.5 518.89,-856.5 361.89,-856.5"/>
<polygon fill="#666666" stroke="#666666" points="361.89,-841.5 361.89,-841.5 518.89,-841.5 518.89,-841.5 361.89,-841.5"/>
<polygon fill="none" stroke="#666666" points="361.39,-645 361.39,-874 518.39,-874 518.39,-645 361.39,-645"/>
</a>
</g>
</g>
<!-- Node3&#45;&gt;Node7 -->
<g id="edge8_Node000007_Node000003" class="edge">
<title>Node3&#45;&gt;Node7</title>
<g id="a_edge8_Node000007_Node000003"><a xlink:title=" ">
<path fill="none" stroke="#63b8ff" d="M99,-1028.79C109.53,-993.03 134.64,-925.89 181.89,-892 218.23,-865.94 239.7,-891.41 280.89,-874 305.14,-863.75 329.3,-849.28 351.19,-834.1"/>
<polygon fill="none" stroke="#63b8ff" points="351.3,-834.03 353.88,-827.29 361.09,-827.08 358.51,-833.82 351.3,-834.03"/>
</a>
</g>
<text text-anchor="middle" x="224.89" y="-928" font-family="Helvetica,sans-Serif" font-size="10.00" fill="grey"> +allocatorFlags_</text>
<text text-anchor="middle" x="224.89" y="-917" font-family="Helvetica,sans-Serif" font-size="10.00" fill="grey">+mapcount</text>
<text text-anchor="middle" x="224.89" y="-906" font-family="Helvetica,sans-Serif" font-size="10.00" fill="grey">+refcount</text>
<text text-anchor="middle" x="224.89" y="-895" font-family="Helvetica,sans-Serif" font-size="10.00" fill="grey">+urefcount</text>
</g>
<!-- Node15 -->
<g id="Node000015" class="node">
<title>Node15</title>
<g id="a_Node000015"><a xlink:href="../../df/d63/structcv_1_1MatSize.html" target="_top" xlink:title=" ">
<polygon fill="white" stroke="transparent" points="119.39,-829 32.39,-829 32.39,-690 119.39,-690 119.39,-829"/>
<text text-anchor="start" x="48.39" y="-816.5" font-family="Helvetica,sans-Serif" font-size="10.00">cv::MatSize</text>
<text text-anchor="start" x="74.39" y="-801.5" font-family="Helvetica,sans-Serif" font-size="10.00"> </text>
<text text-anchor="start" x="36.89" y="-786.5" font-family="Helvetica,sans-Serif" font-size="10.00">+</text>
<text text-anchor="start" x="49.89" y="-786.5" font-family="Helvetica,sans-Serif" font-size="10.00">MatSize()</text>
<text text-anchor="start" x="36.89" y="-771.5" font-family="Helvetica,sans-Serif" font-size="10.00">+</text>
<text text-anchor="start" x="49.89" y="-771.5" font-family="Helvetica,sans-Serif" font-size="10.00">dims()</text>
<text text-anchor="start" x="36.89" y="-756.5" font-family="Helvetica,sans-Serif" font-size="10.00">+</text>
<text text-anchor="start" x="49.89" y="-756.5" font-family="Helvetica,sans-Serif" font-size="10.00">operator!=()</text>
<text text-anchor="start" x="36.89" y="-741.5" font-family="Helvetica,sans-Serif" font-size="10.00">+</text>
<text text-anchor="start" x="49.89" y="-741.5" font-family="Helvetica,sans-Serif" font-size="10.00">operator()()</text>
<text text-anchor="start" x="36.89" y="-726.5" font-family="Helvetica,sans-Serif" font-size="10.00">+</text>
<text text-anchor="start" x="49.89" y="-726.5" font-family="Helvetica,sans-Serif" font-size="10.00">operator==()</text>
<text text-anchor="start" x="36.89" y="-711.5" font-family="Helvetica,sans-Serif" font-size="10.00">+</text>
<text text-anchor="start" x="49.89" y="-711.5" font-family="Helvetica,sans-Serif" font-size="10.00">operator[]()</text>
<text text-anchor="start" x="36.89" y="-696.5" font-family="Helvetica,sans-Serif" font-size="10.00">+</text>
<text text-anchor="start" x="49.89" y="-696.5" font-family="Helvetica,sans-Serif" font-size="10.00">operator[]()</text>
<polygon fill="#666666" stroke="#666666" points="32.89,-811.5 32.89,-811.5 119.89,-811.5 119.89,-811.5 32.89,-811.5"/>
<polygon fill="#666666" stroke="#666666" points="32.89,-796.5 32.89,-796.5 119.89,-796.5 119.89,-796.5 32.89,-796.5"/>
<polygon fill="none" stroke="#666666" points="32.39,-690 32.39,-829 119.39,-829 119.39,-690 32.39,-690"/>
</a>
</g>
</g>
<!-- Node3&#45;&gt;Node15 -->
<g id="edge19_Node000015_Node000003" class="edge">
<title>Node3&#45;&gt;Node15</title>
<g id="a_edge19_Node000015_Node000003"><a xlink:title=" ">
<path fill="none" stroke="#63b8ff" d="M88.73,-1028.94C84.81,-1005.48 79.2,-968.38 76.89,-936 74.7,-905.15 74.08,-871.17 74.15,-841.39"/>
<polygon fill="none" stroke="#63b8ff" points="74.15,-841.34 70.18,-835.32 74.21,-829.34 78.18,-835.36 74.15,-841.34"/>
</a>
</g>
<text text-anchor="middle" x="85.89" y="-911.5" font-family="Helvetica,sans-Serif" font-size="10.00" fill="grey"> +p</text>
</g>
<!-- Node4 -->
<g id="Node000004" class="node">
<title>Node4</title>
<g id="a_Node000004"><a xlink:title=" ">
<polygon fill="white" stroke="transparent" points="263.89,-1078 217.89,-1078 217.89,-1029 263.89,-1029 263.89,-1078"/>
<text text-anchor="start" x="222.89" y="-1065.5" font-family="Helvetica,sans-Serif" font-size="10.00">uchar *</text>
<text text-anchor="start" x="238.89" y="-1050.5" font-family="Helvetica,sans-Serif" font-size="10.00"> </text>
<text text-anchor="start" x="238.89" y="-1035.5" font-family="Helvetica,sans-Serif" font-size="10.00"> </text>
<polygon fill="#666666" stroke="#666666" points="217.89,-1060.5 217.89,-1060.5 263.89,-1060.5 263.89,-1060.5 217.89,-1060.5"/>
<polygon fill="#666666" stroke="#666666" points="217.89,-1045.5 217.89,-1045.5 263.89,-1045.5 263.89,-1045.5 217.89,-1045.5"/>
<polygon fill="none" stroke="#666666" points="217.89,-1029 217.89,-1078 263.89,-1078 263.89,-1029 217.89,-1029"/>
</a>
</g>
</g>
<!-- Node4&#45;&gt;Node2 -->
<g id="edge3_Node000002_Node000004" class="edge">
<title>Node4&#45;&gt;Node2</title>
<g id="a_edge3_Node000002_Node000004"><a xlink:title=" ">
<path fill="none" stroke="#63b8ff" d="M241.18,-1028.67C242.81,-963.76 253.26,-779.69 317.89,-645 354.63,-568.45 418.43,-495.43 468.07,-445.5"/>
<polygon fill="none" stroke="#63b8ff" points="468.35,-445.22 469.77,-438.16 476.85,-436.76 475.42,-443.83 468.35,-445.22"/>
</a>
</g>
<text text-anchor="middle" x="334.89" y="-757" font-family="Helvetica,sans-Serif" font-size="10.00" fill="grey"> +data</text>
</g>
<!-- Node4&#45;&gt;Node7 -->
<g id="edge9_Node000007_Node000004" class="edge">
<title>Node4&#45;&gt;Node7</title>
<g id="a_edge9_Node000007_Node000004"><a xlink:title=" ">
<path fill="none" stroke="#63b8ff" d="M244.56,-1028.77C250.5,-995.88 264.52,-935.57 292.89,-892 308.75,-867.64 330.25,-844.98 351.91,-825.57"/>
<polygon fill="none" stroke="#63b8ff" points="352.16,-825.36 354.04,-818.4 361.19,-817.46 359.31,-824.42 352.16,-825.36"/>
</a>
</g>
<text text-anchor="middle" x="317.39" y="-917" font-family="Helvetica,sans-Serif" font-size="10.00" fill="grey"> +data</text>
<text text-anchor="middle" x="317.39" y="-906" font-family="Helvetica,sans-Serif" font-size="10.00" fill="grey">+origdata</text>
</g>
<!-- Node5 -->
<g id="Node000005" class="node">
<title>Node5</title>
<g id="a_Node000005"><a xlink:title=" ">
<polygon fill="white" stroke="transparent" points="939.39,-784 864.39,-784 864.39,-735 939.39,-735 939.39,-784"/>
<text text-anchor="start" x="869.89" y="-771.5" font-family="Helvetica,sans-Serif" font-size="10.00">const uchar *</text>
<text text-anchor="start" x="900.39" y="-756.5" font-family="Helvetica,sans-Serif" font-size="10.00"> </text>
<text text-anchor="start" x="900.39" y="-741.5" font-family="Helvetica,sans-Serif" font-size="10.00"> </text>
<polygon fill="#666666" stroke="#666666" points="864.89,-766.5 864.89,-766.5 939.89,-766.5 939.89,-766.5 864.89,-766.5"/>
<polygon fill="#666666" stroke="#666666" points="864.89,-751.5 864.89,-751.5 939.89,-751.5 939.89,-751.5 864.89,-751.5"/>
<polygon fill="none" stroke="#666666" points="864.39,-735 864.39,-784 939.39,-784 939.39,-735 864.39,-735"/>
</a>
</g>
</g>
<!-- Node5&#45;&gt;Node2 -->
<g id="edge4_Node000002_Node000005" class="edge">
<title>Node5&#45;&gt;Node2</title>
<g id="a_edge4_Node000002_Node000005"><a xlink:title=" ">
<path fill="none" stroke="#63b8ff" d="M895.67,-734.65C888.55,-710.44 875.2,-672.69 854.89,-645 787.39,-552.96 681.43,-472.79 611.08,-425.4"/>
<polygon fill="none" stroke="#63b8ff" points="610.94,-425.31 603.73,-425.31 600.96,-418.65 608.17,-418.65 610.94,-425.31"/>
</a>
</g>
<text text-anchor="middle" x="861.39" y="-619" font-family="Helvetica,sans-Serif" font-size="10.00" fill="grey"> +dataend</text>
<text text-anchor="middle" x="861.39" y="-608" font-family="Helvetica,sans-Serif" font-size="10.00" fill="grey">+datalimit</text>
<text text-anchor="middle" x="861.39" y="-597" font-family="Helvetica,sans-Serif" font-size="10.00" fill="grey">+datastart</text>
</g>
<!-- Node6 -->
<g id="Node000006" class="node">
<title>Node6</title>
<g id="a_Node000006"><a xlink:href="../../df/d4c/classcv_1_1MatAllocator.html" target="_top" xlink:title="Custom array allocator.">
<polygon fill="white" stroke="transparent" points="749.39,-1153 606.39,-1153 606.39,-954 749.39,-954 749.39,-1153"/>
<text text-anchor="start" x="638.89" y="-1140.5" font-family="Helvetica,sans-Serif" font-size="10.00">cv::MatAllocator</text>
<text text-anchor="start" x="676.39" y="-1125.5" font-family="Helvetica,sans-Serif" font-size="10.00"> </text>
<text text-anchor="start" x="610.89" y="-1110.5" font-family="Helvetica,sans-Serif" font-size="10.00">+</text>
<text text-anchor="start" x="623.89" y="-1110.5" font-family="Helvetica,sans-Serif" font-size="10.00">MatAllocator()</text>
<text text-anchor="start" x="610.89" y="-1095.5" font-family="Helvetica,sans-Serif" font-size="10.00">+</text>
<text text-anchor="start" x="623.89" y="-1095.5" font-family="Helvetica,sans-Serif" font-size="10.00">~MatAllocator()</text>
<text text-anchor="start" x="610.89" y="-1080.5" font-family="Helvetica,sans-Serif" font-size="10.00">+</text>
<text text-anchor="start" x="623.89" y="-1080.5" font-family="Helvetica,sans-Serif" font-size="10.00">allocate()</text>
<text text-anchor="start" x="610.89" y="-1065.5" font-family="Helvetica,sans-Serif" font-size="10.00">+</text>
<text text-anchor="start" x="623.89" y="-1065.5" font-family="Helvetica,sans-Serif" font-size="10.00">allocate()</text>
<text text-anchor="start" x="610.89" y="-1050.5" font-family="Helvetica,sans-Serif" font-size="10.00">+</text>
<text text-anchor="start" x="623.89" y="-1050.5" font-family="Helvetica,sans-Serif" font-size="10.00">copy()</text>
<text text-anchor="start" x="610.89" y="-1035.5" font-family="Helvetica,sans-Serif" font-size="10.00">+</text>
<text text-anchor="start" x="623.89" y="-1035.5" font-family="Helvetica,sans-Serif" font-size="10.00">deallocate()</text>
<text text-anchor="start" x="610.89" y="-1020.5" font-family="Helvetica,sans-Serif" font-size="10.00">+</text>
<text text-anchor="start" x="623.89" y="-1020.5" font-family="Helvetica,sans-Serif" font-size="10.00">download()</text>
<text text-anchor="start" x="610.89" y="-1005.5" font-family="Helvetica,sans-Serif" font-size="10.00">+</text>
<text text-anchor="start" x="623.89" y="-1005.5" font-family="Helvetica,sans-Serif" font-size="10.00">getBufferPoolController()</text>
<text text-anchor="start" x="610.89" y="-990.5" font-family="Helvetica,sans-Serif" font-size="10.00">+</text>
<text text-anchor="start" x="623.89" y="-990.5" font-family="Helvetica,sans-Serif" font-size="10.00">map()</text>
<text text-anchor="start" x="610.89" y="-975.5" font-family="Helvetica,sans-Serif" font-size="10.00">+</text>
<text text-anchor="start" x="623.89" y="-975.5" font-family="Helvetica,sans-Serif" font-size="10.00">unmap()</text>
<text text-anchor="start" x="610.89" y="-960.5" font-family="Helvetica,sans-Serif" font-size="10.00">+</text>
<text text-anchor="start" x="623.89" y="-960.5" font-family="Helvetica,sans-Serif" font-size="10.00">upload()</text>
<polygon fill="#666666" stroke="#666666" points="606.89,-1135.5 606.89,-1135.5 749.89,-1135.5 749.89,-1135.5 606.89,-1135.5"/>
<polygon fill="#666666" stroke="#666666" points="606.89,-1120.5 606.89,-1120.5 749.89,-1120.5 749.89,-1120.5 606.89,-1120.5"/>
<polygon fill="none" stroke="#666666" points="606.39,-954 606.39,-1153 749.39,-1153 749.39,-954 606.39,-954"/>
</a>
</g>
</g>
<!-- Node6&#45;&gt;Node2 -->
<g id="edge5_Node000002_Node000006" class="edge">
<title>Node6&#45;&gt;Node2</title>
<g id="a_edge5_Node000002_Node000006"><a xlink:title=" ">
<path fill="none" stroke="#63b8ff" d="M675.45,-953.97C674.59,-933.47 673.44,-912.02 671.89,-892 663.38,-781.8 669.75,-752.22 642.89,-645 633.34,-606.87 619.69,-566.86 605.41,-529.82"/>
<polygon fill="none" stroke="#63b8ff" points="605.32,-529.6 599.41,-525.47 600.96,-518.42 606.86,-522.56 605.32,-529.6"/>
</a>
</g>
<text text-anchor="middle" x="698.39" y="-757" font-family="Helvetica,sans-Serif" font-size="10.00" fill="grey"> +allocator</text>
</g>
<!-- Node6&#45;&gt;Node7 -->
<g id="edge7_Node000007_Node000006" class="edge">
<title>Node6&#45;&gt;Node7</title>
<g id="a_edge7_Node000007_Node000006"><a xlink:title=" ">
<path fill="none" stroke="#63b8ff" d="M609.45,-953.83C591.2,-928.04 573.81,-904.09 563.89,-892 552.3,-877.87 539.57,-863.36 526.81,-849.38"/>
<polygon fill="none" stroke="#63b8ff" points="526.56,-849.11 519.56,-847.4 518.44,-840.28 525.44,-841.98 526.56,-849.11"/>
</a>
</g>
<text text-anchor="middle" x="631.89" y="-917" font-family="Helvetica,sans-Serif" font-size="10.00" fill="grey"> +currAllocator</text>
<text text-anchor="middle" x="631.89" y="-906" font-family="Helvetica,sans-Serif" font-size="10.00" fill="grey">+prevAllocator</text>
</g>
<!-- Node7&#45;&gt;Node2 -->
<g id="edge6_Node000002_Node000007" class="edge">
<title>Node7&#45;&gt;Node2</title>
<g id="a_edge6_Node000002_Node000007"><a xlink:title=" ">
<path fill="none" stroke="#63b8ff" d="M469.6,-644.94C474.33,-626.82 479.36,-607.59 484.46,-588.1"/>
<polygon fill="none" stroke="#63b8ff" points="484.52,-587.88 482.17,-581.06 487.56,-576.27 489.91,-583.08 484.52,-587.88"/>
</a>
</g>
<text text-anchor="middle" x="489.89" y="-608" font-family="Helvetica,sans-Serif" font-size="10.00" fill="grey"> +u</text>
</g>
<!-- Node7&#45;&gt;Node7 -->
<g id="edge13_Node000007_Node000007" class="edge">
<title>Node7&#45;&gt;Node7</title>
<g id="a_edge13_Node000007_Node000007"><a xlink:title=" ">
<path fill="none" stroke="#63b8ff" d="M518.65,-784.12C529.3,-779.99 536.39,-771.79 536.39,-759.5 536.39,-751.82 533.62,-745.74 528.94,-741.25"/>
<polygon fill="none" stroke="#63b8ff" points="528.86,-741.19 521.65,-741.44 518.65,-734.88 525.85,-734.63 528.86,-741.19"/>
</a>
</g>
<text text-anchor="middle" x="585.39" y="-757" font-family="Helvetica,sans-Serif" font-size="10.00" fill="grey"> +originalUMatData</text>
</g>
<!-- Node8 -->
<g id="Node000008" class="node">
<title>Node8</title>
<g id="a_Node000008"><a xlink:title=" ">
<polygon fill="white" stroke="transparent" points="814.39,-1078 775.39,-1078 775.39,-1029 814.39,-1029 814.39,-1078"/>
<text text-anchor="start" x="780.89" y="-1065.5" font-family="Helvetica,sans-Serif" font-size="10.00">size_t</text>
<text text-anchor="start" x="793.39" y="-1050.5" font-family="Helvetica,sans-Serif" font-size="10.00"> </text>
<text text-anchor="start" x="793.39" y="-1035.5" font-family="Helvetica,sans-Serif" font-size="10.00"> </text>
<polygon fill="#666666" stroke="#666666" points="775.89,-1060.5 775.89,-1060.5 814.89,-1060.5 814.89,-1060.5 775.89,-1060.5"/>
<polygon fill="#666666" stroke="#666666" points="775.89,-1045.5 775.89,-1045.5 814.89,-1045.5 814.89,-1045.5 775.89,-1045.5"/>
<polygon fill="none" stroke="#666666" points="775.39,-1029 775.39,-1078 814.39,-1078 814.39,-1029 775.39,-1029"/>
</a>
</g>
</g>
<!-- Node8&#45;&gt;Node1 -->
<g id="edge24_Node000001_Node000008" class="edge">
<title>Node8&#45;&gt;Node1</title>
<g id="a_edge24_Node000001_Node000008"><a xlink:title=" ">
<path fill="none" stroke="#63b8ff" d="M814.52,-1037.75C849.37,-1010.16 920.92,-946.92 947.89,-874 997.42,-740.11 960.34,-309.56 942.77,-136.27"/>
<polygon fill="none" stroke="#63b8ff" points="942.76,-136.18 938.17,-130.62 941.54,-124.25 946.13,-129.81 942.76,-136.18"/>
</a>
</g>
<text text-anchor="middle" x="995.39" y="-619" font-family="Helvetica,sans-Serif" font-size="10.00" fill="grey"> #idx</text>
<text text-anchor="middle" x="995.39" y="-608" font-family="Helvetica,sans-Serif" font-size="10.00" fill="grey">+nplanes</text>
<text text-anchor="middle" x="995.39" y="-597" font-family="Helvetica,sans-Serif" font-size="10.00" fill="grey">+size</text>
</g>
<!-- Node8&#45;&gt;Node7 -->
<g id="edge10_Node000007_Node000008" class="edge">
<title>Node8&#45;&gt;Node7</title>
<g id="a_edge10_Node000007_Node000008"><a xlink:title=" ">
<path fill="none" stroke="#63b8ff" d="M790.06,-1028.72C784.85,-1007.49 774.92,-976.4 757.89,-954 729.6,-916.77 712.21,-917.31 672.89,-892 626.62,-862.21 573.27,-831.83 529.31,-807.78"/>
<polygon fill="none" stroke="#63b8ff" points="529.17,-807.71 521.99,-808.35 518.63,-801.97 525.81,-801.32 529.17,-807.71"/>
</a>
</g>
<text text-anchor="middle" x="758.39" y="-911.5" font-family="Helvetica,sans-Serif" font-size="10.00" fill="grey"> +size</text>
</g>
<!-- Node16 -->
<g id="Node000016" class="node">
<title>Node16</title>
<g id="a_Node000016"><a xlink:href="../../d4/d26/structcv_1_1MatStep.html" target="_top" xlink:title=" ">
<polygon fill="white" stroke="transparent" points="845.89,-829 743.89,-829 743.89,-690 845.89,-690 845.89,-829"/>
<text text-anchor="start" x="765.89" y="-816.5" font-family="Helvetica,sans-Serif" font-size="10.00">cv::MatStep</text>
<text text-anchor="start" x="792.89" y="-801.5" font-family="Helvetica,sans-Serif" font-size="10.00"> </text>
<text text-anchor="start" x="747.89" y="-786.5" font-family="Helvetica,sans-Serif" font-size="10.00">+</text>
<text text-anchor="start" x="760.89" y="-786.5" font-family="Helvetica,sans-Serif" font-size="10.00">MatStep()</text>
<text text-anchor="start" x="747.89" y="-771.5" font-family="Helvetica,sans-Serif" font-size="10.00">+</text>
<text text-anchor="start" x="760.89" y="-771.5" font-family="Helvetica,sans-Serif" font-size="10.00">MatStep()</text>
<text text-anchor="start" x="747.89" y="-756.5" font-family="Helvetica,sans-Serif" font-size="10.00">+</text>
<text text-anchor="start" x="760.89" y="-756.5" font-family="Helvetica,sans-Serif" font-size="10.00">operator size_t()</text>
<text text-anchor="start" x="747.89" y="-741.5" font-family="Helvetica,sans-Serif" font-size="10.00">+</text>
<text text-anchor="start" x="760.89" y="-741.5" font-family="Helvetica,sans-Serif" font-size="10.00">operator=()</text>
<text text-anchor="start" x="747.89" y="-726.5" font-family="Helvetica,sans-Serif" font-size="10.00">+</text>
<text text-anchor="start" x="760.89" y="-726.5" font-family="Helvetica,sans-Serif" font-size="10.00">operator[]()</text>
<text text-anchor="start" x="747.89" y="-711.5" font-family="Helvetica,sans-Serif" font-size="10.00">+</text>
<text text-anchor="start" x="760.89" y="-711.5" font-family="Helvetica,sans-Serif" font-size="10.00">operator[]()</text>
<text text-anchor="start" x="747.89" y="-696.5" font-family="Helvetica,sans-Serif" font-size="10.00">#</text>
<text text-anchor="start" x="760.89" y="-696.5" font-family="Helvetica,sans-Serif" font-size="10.00">operator=()</text>
<polygon fill="#666666" stroke="#666666" points="743.89,-811.5 743.89,-811.5 845.89,-811.5 845.89,-811.5 743.89,-811.5"/>
<polygon fill="#666666" stroke="#666666" points="743.89,-796.5 743.89,-796.5 845.89,-796.5 845.89,-796.5 743.89,-796.5"/>
<polygon fill="none" stroke="#666666" points="743.89,-690 743.89,-829 845.89,-829 845.89,-690 743.89,-690"/>
</a>
</g>
</g>
<!-- Node8&#45;&gt;Node16 -->
<g id="edge21_Node000016_Node000008" class="edge">
<title>Node8&#45;&gt;Node16</title>
<g id="a_edge21_Node000016_Node000008"><a xlink:title=" ">
<path fill="none" stroke="#63b8ff" d="M794.89,-1028.6C794.89,-988.19 794.89,-904.57 794.89,-841.4"/>
<polygon fill="none" stroke="#63b8ff" points="794.89,-841.06 790.89,-835.06 794.89,-829.06 798.89,-835.06 794.89,-841.06"/>
</a>
</g>
<text text-anchor="middle" x="808.89" y="-917" font-family="Helvetica,sans-Serif" font-size="10.00" fill="grey"> +buf</text>
<text text-anchor="middle" x="808.89" y="-906" font-family="Helvetica,sans-Serif" font-size="10.00" fill="grey">+p</text>
</g>
<!-- Node9 -->
<g id="Node000009" class="node">
<title>Node9</title>
<g id="a_Node000009"><a xlink:title=" ">
<polygon fill="white" stroke="transparent" points="499.89,-1078 427.89,-1078 427.89,-1029 499.89,-1029 499.89,-1078"/>
<text text-anchor="start" x="432.89" y="-1065.5" font-family="Helvetica,sans-Serif" font-size="10.00">MemoryFlag</text>
<text text-anchor="start" x="461.89" y="-1050.5" font-family="Helvetica,sans-Serif" font-size="10.00"> </text>
<text text-anchor="start" x="461.89" y="-1035.5" font-family="Helvetica,sans-Serif" font-size="10.00"> </text>
<polygon fill="#666666" stroke="#666666" points="427.89,-1060.5 427.89,-1060.5 499.89,-1060.5 499.89,-1060.5 427.89,-1060.5"/>
<polygon fill="#666666" stroke="#666666" points="427.89,-1045.5 427.89,-1045.5 499.89,-1045.5 499.89,-1045.5 427.89,-1045.5"/>
<polygon fill="none" stroke="#666666" points="427.89,-1029 427.89,-1078 499.89,-1078 499.89,-1029 427.89,-1029"/>
</a>
</g>
</g>
<!-- Node9&#45;&gt;Node7 -->
<g id="edge11_Node000007_Node000009" class="edge">
<title>Node9&#45;&gt;Node7</title>
<g id="a_edge11_Node000007_Node000009"><a xlink:title=" ">
<path fill="none" stroke="#63b8ff" d="M461.93,-1028.6C459.35,-997.26 454.64,-939.94 450.23,-886.33"/>
<polygon fill="none" stroke="#63b8ff" points="450.22,-886.2 445.75,-880.54 449.24,-874.24 453.72,-879.89 450.22,-886.2"/>
</a>
</g>
<text text-anchor="middle" x="472.39" y="-911.5" font-family="Helvetica,sans-Serif" font-size="10.00" fill="grey"> +flags</text>
</g>
<!-- Node10 -->
<g id="Node000010" class="node">
<title>Node10</title>
<g id="a_Node000010"><a xlink:title=" ">
<polygon fill="white" stroke="transparent" points="557.89,-1078 517.89,-1078 517.89,-1029 557.89,-1029 557.89,-1078"/>
<text text-anchor="start" x="522.89" y="-1065.5" font-family="Helvetica,sans-Serif" font-size="10.00">void *</text>
<text text-anchor="start" x="535.89" y="-1050.5" font-family="Helvetica,sans-Serif" font-size="10.00"> </text>
<text text-anchor="start" x="535.89" y="-1035.5" font-family="Helvetica,sans-Serif" font-size="10.00"> </text>
<polygon fill="#666666" stroke="#666666" points="517.89,-1060.5 517.89,-1060.5 557.89,-1060.5 557.89,-1060.5 517.89,-1060.5"/>
<polygon fill="#666666" stroke="#666666" points="517.89,-1045.5 517.89,-1045.5 557.89,-1045.5 557.89,-1045.5 517.89,-1045.5"/>
<polygon fill="none" stroke="#666666" points="517.89,-1029 517.89,-1078 557.89,-1078 557.89,-1029 517.89,-1029"/>
</a>
</g>
</g>
<!-- Node10&#45;&gt;Node7 -->
<g id="edge12_Node000007_Node000010" class="edge">
<title>Node10&#45;&gt;Node7</title>
<g id="a_edge12_Node000007_Node000010"><a xlink:title=" ">
<path fill="none" stroke="#63b8ff" d="M532.37,-1028.84C524.78,-997.29 510.21,-939.86 493.89,-892 493.18,-889.9 492.44,-887.79 491.7,-885.66"/>
<polygon fill="none" stroke="#63b8ff" points="491.64,-885.51 485.85,-881.22 487.58,-874.22 493.38,-878.51 491.64,-885.51"/>
</a>
</g>
<text text-anchor="middle" x="533.89" y="-917" font-family="Helvetica,sans-Serif" font-size="10.00" fill="grey"> +handle</text>
<text text-anchor="middle" x="533.89" y="-906" font-family="Helvetica,sans-Serif" font-size="10.00" fill="grey">+userdata</text>
</g>
<!-- Node11 -->
<g id="Node000011" class="node">
<title>Node11</title>
<g id="a_Node000011"><a xlink:title=" ">
<polygon fill="white" stroke="transparent" points="409.39,-1078 282.39,-1078 282.39,-1029 409.39,-1029 409.39,-1078"/>
<text text-anchor="start" x="287.89" y="-1065.5" font-family="Helvetica,sans-Serif" font-size="10.00">std::shared_ptr&lt; void &gt;</text>
<text text-anchor="start" x="344.39" y="-1050.5" font-family="Helvetica,sans-Serif" font-size="10.00"> </text>
<text text-anchor="start" x="344.39" y="-1035.5" font-family="Helvetica,sans-Serif" font-size="10.00"> </text>
<polygon fill="#666666" stroke="#666666" points="282.89,-1060.5 282.89,-1060.5 409.89,-1060.5 409.89,-1060.5 282.89,-1060.5"/>
<polygon fill="#666666" stroke="#666666" points="282.89,-1045.5 282.89,-1045.5 409.89,-1045.5 409.89,-1045.5 282.89,-1045.5"/>
<polygon fill="none" stroke="#666666" points="282.39,-1029 282.39,-1078 409.39,-1078 409.39,-1029 282.39,-1029"/>
</a>
</g>
</g>
<!-- Node11&#45;&gt;Node7 -->
<g id="edge14_Node000007_Node000011" class="edge">
<title>Node11&#45;&gt;Node7</title>
<g id="a_edge14_Node000007_Node000011"><a xlink:title=" ">
<path fill="none" stroke="#63b8ff" d="M343.52,-1028.96C341.13,-997.05 339.68,-938.7 354.89,-892 355.59,-889.86 356.33,-887.73 357.11,-885.6"/>
<polygon fill="none" stroke="#63b8ff" points="357.19,-885.38 355.7,-878.32 361.64,-874.23 363.13,-881.29 357.19,-885.38"/>
</a>
</g>
<text text-anchor="middle" x="401.39" y="-911.5" font-family="Helvetica,sans-Serif" font-size="10.00" fill="grey"> +allocatorContext</text>
</g>
<!-- Node12 -->
<g id="Node000012" class="node">
<title>Node12</title>
<g id="a_Node000012"><a xlink:title=" ">
<polygon fill="white" stroke="transparent" points="326.89,-1249 294.89,-1249 294.89,-1200 326.89,-1200 326.89,-1249"/>
<text text-anchor="start" x="299.89" y="-1236.5" font-family="Helvetica,sans-Serif" font-size="10.00">void</text>
<text text-anchor="start" x="308.89" y="-1221.5" font-family="Helvetica,sans-Serif" font-size="10.00"> </text>
<text text-anchor="start" x="308.89" y="-1206.5" font-family="Helvetica,sans-Serif" font-size="10.00"> </text>
<polygon fill="#666666" stroke="#666666" points="294.89,-1231.5 294.89,-1231.5 326.89,-1231.5 326.89,-1231.5 294.89,-1231.5"/>
<polygon fill="#666666" stroke="#666666" points="294.89,-1216.5 294.89,-1216.5 326.89,-1216.5 326.89,-1216.5 294.89,-1216.5"/>
<polygon fill="none" stroke="#666666" points="294.89,-1200 294.89,-1249 326.89,-1249 326.89,-1200 294.89,-1200"/>
</a>
</g>
</g>
<!-- Node12&#45;&gt;Node11 -->
<g id="edge15_Node000011_Node000012" class="edge">
<title>Node12&#45;&gt;Node11</title>
<g id="a_edge15_Node000011_Node000012"><a xlink:title=" ">
<path fill="none" stroke="#63b8ff" d="M315.83,-1199.64C321.75,-1171.08 331.71,-1122.99 338.53,-1090.05"/>
<polygon fill="none" stroke="#63b8ff" points="338.54,-1089.98 335.84,-1083.3 340.98,-1078.23 343.68,-1084.92 338.54,-1089.98"/>
</a>
</g>
<text text-anchor="middle" x="334.39" y="-1174" font-family="Helvetica,sans-Serif" font-size="10.00" fill="grey"> +ptr</text>
</g>
<!-- Node13 -->
<g id="Node000013" class="node">
<title>Node13</title>
<g id="a_Node000013"><a xlink:title=" ">
<polygon fill="white" stroke="transparent" points="456.89,-1249 344.89,-1249 344.89,-1200 456.89,-1200 456.89,-1249"/>
<text text-anchor="start" x="349.89" y="-1236.5" font-family="Helvetica,sans-Serif" font-size="10.00">std::shared_ptr&lt; T &gt;</text>
<text text-anchor="start" x="398.89" y="-1221.5" font-family="Helvetica,sans-Serif" font-size="10.00"> </text>
<text text-anchor="start" x="356.39" y="-1206.5" font-family="Helvetica,sans-Serif" font-size="10.00">+</text>
<text text-anchor="start" x="376.89" y="-1206.5" font-family="Helvetica,sans-Serif" font-size="10.00">operator&#45;&gt;()</text>
<polygon fill="#666666" stroke="#666666" points="344.89,-1231.5 344.89,-1231.5 456.89,-1231.5 456.89,-1231.5 344.89,-1231.5"/>
<polygon fill="#666666" stroke="#666666" points="344.89,-1216.5 344.89,-1216.5 456.89,-1216.5 456.89,-1216.5 344.89,-1216.5"/>
<polygon fill="none" stroke="#666666" points="344.89,-1200 344.89,-1249 456.89,-1249 456.89,-1200 344.89,-1200"/>
</a>
</g>
</g>
<!-- Node13&#45;&gt;Node11 -->
<g id="edge16_Node000011_Node000013" class="edge">
<title>Node13&#45;&gt;Node11</title>
<g id="a_edge16_Node000011_Node000013"><a xlink:title=" ">
<path fill="none" stroke="orange" d="M389.98,-1189.97C379.24,-1156.96 363.1,-1107.37 353.62,-1078.23"/>
<polygon fill="orange" stroke="orange" points="386.71,-1191.22 393.13,-1199.64 393.36,-1189.05 386.71,-1191.22"/>
</a>
</g>
<text text-anchor="middle" x="410.39" y="-1174" font-family="Helvetica,sans-Serif" font-size="10.00" fill="grey"> &lt; void &gt;</text>
</g>
<!-- Node14 -->
<g id="Node000014" class="node">
<title>Node14</title>
<g id="a_Node000014"><a xlink:title=" ">
<polygon fill="white" stroke="transparent" points="409.39,-1345 392.39,-1345 392.39,-1296 409.39,-1296 409.39,-1345"/>
<text text-anchor="start" x="397.89" y="-1332.5" font-family="Helvetica,sans-Serif" font-size="10.00">T</text>
<text text-anchor="start" x="399.39" y="-1317.5" font-family="Helvetica,sans-Serif" font-size="10.00"> </text>
<text text-anchor="start" x="399.39" y="-1302.5" font-family="Helvetica,sans-Serif" font-size="10.00"> </text>
<polygon fill="#666666" stroke="#666666" points="392.89,-1327.5 392.89,-1327.5 409.89,-1327.5 409.89,-1327.5 392.89,-1327.5"/>
<polygon fill="#666666" stroke="#666666" points="392.89,-1312.5 392.89,-1312.5 409.89,-1312.5 409.89,-1312.5 392.89,-1312.5"/>
<polygon fill="none" stroke="#666666" points="392.39,-1296 392.39,-1345 409.39,-1345 409.39,-1296 392.39,-1296"/>
</a>
</g>
</g>
<!-- Node14&#45;&gt;Node13 -->
<g id="edge17_Node000013_Node000014" class="edge">
<title>Node14&#45;&gt;Node13</title>
<g id="a_edge17_Node000013_Node000014"><a xlink:title=" ">
<path fill="none" stroke="#63b8ff" d="M400.89,-1295.78C400.89,-1285.32 400.89,-1272.79 400.89,-1261.23"/>
<polygon fill="none" stroke="#63b8ff" points="400.89,-1261.21 396.89,-1255.21 400.89,-1249.21 404.89,-1255.21 400.89,-1261.21"/>
</a>
</g>
<text text-anchor="middle" x="413.39" y="-1270" font-family="Helvetica,sans-Serif" font-size="10.00" fill="grey"> +ptr</text>
</g>
<!-- Node15&#45;&gt;Node2 -->
<g id="edge18_Node000002_Node000015" class="edge">
<title>Node15&#45;&gt;Node2</title>
<g id="a_edge18_Node000002_Node000015"><a xlink:title=" ">
<path fill="none" stroke="#63b8ff" d="M77.11,-689.98C80.81,-658.02 89.9,-621.14 110.89,-594 200.06,-478.72 368.02,-420.94 464.9,-395.99"/>
<polygon fill="none" stroke="#63b8ff" points="465,-395.97 469.84,-390.62 476.64,-393.04 471.79,-398.38 465,-395.97"/>
</a>
</g>
<text text-anchor="middle" x="126.39" y="-608" font-family="Helvetica,sans-Serif" font-size="10.00" fill="grey"> +size</text>
</g>
<!-- Node16&#45;&gt;Node2 -->
<g id="edge20_Node000002_Node000016" class="edge">
<title>Node16&#45;&gt;Node2</title>
<g id="a_edge20_Node000002_Node000016"><a xlink:title=" ">
<path fill="none" stroke="#63b8ff" d="M757.19,-689.99C748.51,-674.99 739.12,-659.32 729.89,-645 691.74,-585.78 645.64,-521.64 608.29,-471.29"/>
<polygon fill="none" stroke="#63b8ff" points="608.11,-471.04 601.32,-468.61 600.95,-461.41 607.74,-463.84 608.11,-471.04"/>
</a>
</g>
<text text-anchor="middle" x="732.39" y="-608" font-family="Helvetica,sans-Serif" font-size="10.00" fill="grey"> +step</text>
</g>
<!-- Node17 -->
<g id="Node000017" class="node">
<title>Node17</title>
<g id="a_Node000017"><a xlink:title=" ">
<polygon fill="white" stroke="transparent" points="1047.39,-403.5 996.39,-403.5 996.39,-354.5 1047.39,-354.5 1047.39,-403.5"/>
<text text-anchor="start" x="1001.89" y="-391" font-family="Helvetica,sans-Serif" font-size="10.00">uchar **</text>
<text text-anchor="start" x="1020.39" y="-376" font-family="Helvetica,sans-Serif" font-size="10.00"> </text>
<text text-anchor="start" x="1020.39" y="-361" font-family="Helvetica,sans-Serif" font-size="10.00"> </text>
<polygon fill="#666666" stroke="#666666" points="996.89,-386 996.89,-386 1047.89,-386 1047.89,-386 996.89,-386"/>
<polygon fill="#666666" stroke="#666666" points="996.89,-371 996.89,-371 1047.89,-371 1047.89,-371 996.89,-371"/>
<polygon fill="none" stroke="#666666" points="996.39,-354.5 996.39,-403.5 1047.39,-403.5 1047.39,-354.5 996.39,-354.5"/>
</a>
</g>
</g>
<!-- Node17&#45;&gt;Node1 -->
<g id="edge22_Node000001_Node000017" class="edge">
<title>Node17&#45;&gt;Node1</title>
<g id="a_edge22_Node000001_Node000017"><a xlink:title=" ">
<path fill="none" stroke="#63b8ff" d="M1020.76,-354.49C1018.07,-311.2 1009.28,-216.5 981.89,-142 981.03,-139.66 980.1,-137.31 979.11,-134.96"/>
<polygon fill="none" stroke="#63b8ff" points="979.1,-134.93 972.96,-131.14 974.1,-124.02 980.24,-127.81 979.1,-134.93"/>
</a>
</g>
<text text-anchor="middle" x="1003.39" y="-150.5" font-family="Helvetica,sans-Serif" font-size="10.00" fill="grey"> +ptrs</text>
</g>
</g>
</svg>
