<?xml version="1.0" encoding="UTF-8" standalone="no"?>
<!DOCTYPE svg PUBLIC "-//W3C//DTD SVG 1.1//EN"
 "http://www.w3.org/Graphics/SVG/1.1/DTD/svg11.dtd">
<!-- Generated by graphviz version 2.43.0 (0)
 -->
<!-- Title: cv::cudev::ZipPtr&lt; tuple&lt; Ptr0, Ptr1 &gt; &gt; Pages: 1 -->
<svg width="125pt" height="183pt"
 viewBox="0.00 0.00 125.00 183.00" xmlns="http://www.w3.org/2000/svg" xmlns:xlink="http://www.w3.org/1999/xlink">
<g id="graph0" class="graph" transform="scale(1 1) rotate(0) translate(4 179)">
<title>cv::cudev::ZipPtr&lt; tuple&lt; Ptr0, Ptr1 &gt; &gt;</title>
<!-- Node1 -->
<g id="Node000001" class="node">
<title>Node1</title>
<g id="a_Node000001"><a xlink:title=" ">
<polygon fill="#999999" stroke="transparent" points="117,-90 0,-90 0,0 117,0 117,-90"/>
<text text-anchor="start" x="5.5" y="-78" font-family="Helvetica,sans-Serif" font-size="10.00">cv::cudev::ZipPtr&lt;</text>
<text text-anchor="start" x="5.5" y="-67" font-family="Helvetica,sans-Serif" font-size="10.00"> tuple&lt; Ptr0, Ptr1 &gt; &gt;</text>
<text text-anchor="start" x="57" y="-52" font-family="Helvetica,sans-Serif" font-size="10.00"> </text>
<text text-anchor="start" x="14" y="-37" font-family="Helvetica,sans-Serif" font-size="10.00">+</text>
<text text-anchor="start" x="36.5" y="-37" font-family="Helvetica,sans-Serif" font-size="10.00">ZipPtr()</text>
<text text-anchor="start" x="14" y="-22" font-family="Helvetica,sans-Serif" font-size="10.00">+</text>
<text text-anchor="start" x="36.5" y="-22" font-family="Helvetica,sans-Serif" font-size="10.00">ZipPtr()</text>
<text text-anchor="start" x="14" y="-7" font-family="Helvetica,sans-Serif" font-size="10.00">+</text>
<text text-anchor="start" x="36.5" y="-7" font-family="Helvetica,sans-Serif" font-size="10.00">operator()()</text>
<polygon fill="#666666" stroke="#666666" points="0.5,-62 0.5,-62 117.5,-62 117.5,-62 0.5,-62"/>
<polygon fill="#666666" stroke="#666666" points="0.5,-47 0.5,-47 117.5,-47 117.5,-47 0.5,-47"/>
<polygon fill="none" stroke="#666666" points="0,0 0,-90 117,-90 117,0 0,0"/>
</a>
</g>
</g>
<!-- Node2 -->
<g id="Node000002" class="node">
<title>Node2</title>
<g id="a_Node000002"><a xlink:title=" ">
<polygon fill="white" stroke="transparent" points="110,-175 7,-175 7,-126 110,-126 110,-175"/>
<text text-anchor="start" x="12.5" y="-162.5" font-family="Helvetica,sans-Serif" font-size="10.00">tuple&lt; Ptr0, Ptr1 &gt;</text>
<text text-anchor="start" x="57" y="-147.5" font-family="Helvetica,sans-Serif" font-size="10.00"> </text>
<text text-anchor="start" x="57" y="-132.5" font-family="Helvetica,sans-Serif" font-size="10.00"> </text>
<polygon fill="#666666" stroke="#666666" points="7.5,-157.5 7.5,-157.5 110.5,-157.5 110.5,-157.5 7.5,-157.5"/>
<polygon fill="#666666" stroke="#666666" points="7.5,-142.5 7.5,-142.5 110.5,-142.5 110.5,-142.5 7.5,-142.5"/>
<polygon fill="none" stroke="#666666" points="7,-126 7,-175 110,-175 110,-126 7,-126"/>
</a>
</g>
</g>
<!-- Node2&#45;&gt;Node1 -->
<g id="edge1_Node000001_Node000002" class="edge">
<title>Node2&#45;&gt;Node1</title>
<g id="a_edge1_Node000001_Node000002"><a xlink:title=" ">
<path fill="none" stroke="#63b8ff" d="M58.5,-115.62C58.5,-107.56 58.5,-98.84 58.5,-90.39"/>
<polygon fill="none" stroke="#63b8ff" points="55,-115.75 58.5,-125.76 62,-115.76 55,-115.75"/>
</a>
</g>
</g>
</g>
</svg>
