<?xml version="1.0" encoding="UTF-8" standalone="no"?>
<!DOCTYPE svg PUBLIC "-//W3C//DTD SVG 1.1//EN"
 "http://www.w3.org/Graphics/SVG/1.1/DTD/svg11.dtd">
<!-- Generated by graphviz version 2.43.0 (0)
 -->
<!-- Title: cv::cudev::BrdBase&lt; BrdImpl, SrcPtr &gt; Pages: 1 -->
<svg width="114pt" height="205pt"
 viewBox="0.00 0.00 114.00 205.00" xmlns="http://www.w3.org/2000/svg" xmlns:xlink="http://www.w3.org/1999/xlink">
<g id="graph0" class="graph" transform="scale(1 1) rotate(0) translate(4 201)">
<title>cv::cudev::BrdBase&lt; BrdImpl, SrcPtr &gt;</title>
<!-- Node1 -->
<g id="Node000001" class="node">
<title>Node1</title>
<g id="a_Node000001"><a xlink:title=" ">
<polygon fill="#999999" stroke="transparent" points="106,-90 0,-90 0,0 106,0 106,-90"/>
<text text-anchor="start" x="5" y="-78" font-family="Helvetica,sans-Serif" font-size="10.00">cv::cudev::BrdBase</text>
<text text-anchor="start" x="5" y="-67" font-family="Helvetica,sans-Serif" font-size="10.00">&lt; BrdImpl, SrcPtr &gt;</text>
<text text-anchor="start" x="51" y="-52" font-family="Helvetica,sans-Serif" font-size="10.00"> </text>
<text text-anchor="start" x="11" y="-37" font-family="Helvetica,sans-Serif" font-size="10.00">+</text>
<text text-anchor="start" x="31" y="-37" font-family="Helvetica,sans-Serif" font-size="10.00">idx_col()</text>
<text text-anchor="start" x="11" y="-22" font-family="Helvetica,sans-Serif" font-size="10.00">+</text>
<text text-anchor="start" x="31" y="-22" font-family="Helvetica,sans-Serif" font-size="10.00">idx_row()</text>
<text text-anchor="start" x="11" y="-7" font-family="Helvetica,sans-Serif" font-size="10.00">+</text>
<text text-anchor="start" x="31" y="-7" font-family="Helvetica,sans-Serif" font-size="10.00">operator()()</text>
<polygon fill="#666666" stroke="#666666" points="0,-62 0,-62 106,-62 106,-62 0,-62"/>
<polygon fill="#666666" stroke="#666666" points="0,-47 0,-47 106,-47 106,-47 0,-47"/>
<polygon fill="none" stroke="#666666" points="0,0 0,-90 106,-90 106,0 0,0"/>
</a>
</g>
</g>
<!-- Node2 -->
<g id="Node000002" class="node">
<title>Node2</title>
<g id="a_Node000002"><a xlink:title=" ">
<polygon fill="white" stroke="transparent" points="48.5,-197 9.5,-197 9.5,-148 48.5,-148 48.5,-197"/>
<text text-anchor="start" x="15" y="-184.5" font-family="Helvetica,sans-Serif" font-size="10.00">SrcPtr</text>
<text text-anchor="start" x="27.5" y="-169.5" font-family="Helvetica,sans-Serif" font-size="10.00"> </text>
<text text-anchor="start" x="27.5" y="-154.5" font-family="Helvetica,sans-Serif" font-size="10.00"> </text>
<polygon fill="#666666" stroke="#666666" points="10,-179.5 10,-179.5 49,-179.5 49,-179.5 10,-179.5"/>
<polygon fill="#666666" stroke="#666666" points="10,-164.5 10,-164.5 49,-164.5 49,-164.5 10,-164.5"/>
<polygon fill="none" stroke="#666666" points="9.5,-148 9.5,-197 48.5,-197 48.5,-148 9.5,-148"/>
</a>
</g>
</g>
<!-- Node2&#45;&gt;Node1 -->
<g id="edge1_Node000001_Node000002" class="edge">
<title>Node2&#45;&gt;Node1</title>
<g id="a_edge1_Node000001_Node000002"><a xlink:title=" ">
<path fill="none" stroke="#63b8ff" d="M27.48,-147.79C27.19,-135.77 27.56,-121 30,-108 30.38,-105.98 30.82,-103.95 31.3,-101.9"/>
<polygon fill="none" stroke="#63b8ff" points="31.35,-101.75 29.1,-94.9 34.56,-90.19 36.81,-97.04 31.35,-101.75"/>
</a>
</g>
<text text-anchor="middle" x="43" y="-116.5" font-family="Helvetica,sans-Serif" font-size="10.00" fill="grey"> +src</text>
</g>
<!-- Node3 -->
<g id="Node000003" class="node">
<title>Node3</title>
<g id="a_Node000003"><a xlink:title=" ">
<polygon fill="white" stroke="transparent" points="89.5,-197 66.5,-197 66.5,-148 89.5,-148 89.5,-197"/>
<text text-anchor="start" x="72" y="-184.5" font-family="Helvetica,sans-Serif" font-size="10.00">int</text>
<text text-anchor="start" x="76.5" y="-169.5" font-family="Helvetica,sans-Serif" font-size="10.00"> </text>
<text text-anchor="start" x="76.5" y="-154.5" font-family="Helvetica,sans-Serif" font-size="10.00"> </text>
<polygon fill="#666666" stroke="#666666" points="67,-179.5 67,-179.5 90,-179.5 90,-179.5 67,-179.5"/>
<polygon fill="#666666" stroke="#666666" points="67,-164.5 67,-164.5 90,-164.5 90,-164.5 67,-164.5"/>
<polygon fill="none" stroke="#666666" points="66.5,-148 66.5,-197 89.5,-197 89.5,-148 66.5,-148"/>
</a>
</g>
</g>
<!-- Node3&#45;&gt;Node1 -->
<g id="edge2_Node000001_Node000003" class="edge">
<title>Node3&#45;&gt;Node1</title>
<g id="a_edge2_Node000001_Node000003"><a xlink:title=" ">
<path fill="none" stroke="#63b8ff" d="M73.3,-147.89C70.72,-134.94 67.4,-118.27 64.19,-102.19"/>
<polygon fill="none" stroke="#63b8ff" points="64.12,-101.84 59.03,-96.74 61.78,-90.07 66.87,-95.18 64.12,-101.84"/>
</a>
</g>
<text text-anchor="middle" x="85" y="-122" font-family="Helvetica,sans-Serif" font-size="10.00" fill="grey"> +cols</text>
<text text-anchor="middle" x="85" y="-111" font-family="Helvetica,sans-Serif" font-size="10.00" fill="grey">+rows</text>
</g>
</g>
</svg>
