<?xml version="1.0" encoding="UTF-8" standalone="no"?>
<!DOCTYPE svg PUBLIC "-//W3C//DTD SVG 1.1//EN"
 "http://www.w3.org/Graphics/SVG/1.1/DTD/svg11.dtd">
<!-- Generated by graphviz version 2.43.0 (0)
 -->
<!-- Title: cv::GInferList2&lt; Net, T, Args &gt; Pages: 1 -->
<svg width="342pt" height="331pt"
 viewBox="0.00 0.00 342.00 331.00" xmlns="http://www.w3.org/2000/svg" xmlns:xlink="http://www.w3.org/1999/xlink">
<g id="graph0" class="graph" transform="scale(1 1) rotate(0) translate(4 327)">
<title>cv::GInferList2&lt; Net, T, Args &gt;</title>
<!-- Node1 -->
<g id="Node000001" class="node">
<title>Node1</title>
<g id="a_Node000001"><a xlink:title=" ">
<polygon fill="#999999" stroke="transparent" points="120,-75 8,-75 8,0 120,0 120,-75"/>
<text text-anchor="start" x="13" y="-62.5" font-family="Helvetica,sans-Serif" font-size="10.00">cv::GInferList2&lt; Net,</text>
<text text-anchor="start" x="39.5" y="-51.5" font-family="Helvetica,sans-Serif" font-size="10.00"> T, Args &gt;</text>
<text text-anchor="start" x="62" y="-36.5" font-family="Helvetica,sans-Serif" font-size="10.00"> </text>
<text text-anchor="start" x="18" y="-21.5" font-family="Helvetica,sans-Serif" font-size="10.00">+</text>
<text text-anchor="start" x="37" y="-21.5" font-family="Helvetica,sans-Serif" font-size="10.00">getOutMeta()</text>
<text text-anchor="start" x="18" y="-6.5" font-family="Helvetica,sans-Serif" font-size="10.00">+</text>
<text text-anchor="start" x="37" y="-6.5" font-family="Helvetica,sans-Serif" font-size="10.00">tag()</text>
<polygon fill="#666666" stroke="#666666" points="8,-46.5 8,-46.5 120,-46.5 120,-46.5 8,-46.5"/>
<polygon fill="#666666" stroke="#666666" points="8,-31.5 8,-31.5 120,-31.5 120,-31.5 8,-31.5"/>
<polygon fill="none" stroke="#666666" points="8,0 8,-75 120,-75 120,0 8,0"/>
</a>
</g>
</g>
<!-- Node2 -->
<g id="Node000002" class="node">
<title>Node2</title>
<g id="a_Node000002"><a xlink:href="../../dc/d3f/structcv_1_1GInferList2Base.html" target="_top" xlink:title=" ">
<polygon fill="white" stroke="transparent" points="104,-185 0,-185 0,-121 104,-121 104,-185"/>
<text text-anchor="start" x="5" y="-173" font-family="Helvetica,sans-Serif" font-size="10.00">cv::GInferList2Base</text>
<text text-anchor="start" x="50" y="-158" font-family="Helvetica,sans-Serif" font-size="10.00"> </text>
<text text-anchor="start" x="8" y="-143" font-family="Helvetica,sans-Serif" font-size="10.00">+</text>
<text text-anchor="start" x="25" y="-143" font-family="Helvetica,sans-Serif" font-size="10.00">getOutMeta()</text>
<text text-anchor="start" x="8" y="-128" font-family="Helvetica,sans-Serif" font-size="10.00">+</text>
<text text-anchor="start" x="25" y="-128" font-family="Helvetica,sans-Serif" font-size="10.00">id()</text>
<polygon fill="#666666" stroke="#666666" points="0,-168 0,-168 104,-168 104,-168 0,-168"/>
<polygon fill="#666666" stroke="#666666" points="0,-153 0,-153 104,-153 104,-153 0,-153"/>
<polygon fill="none" stroke="#666666" points="0,-121 0,-185 104,-185 104,-121 0,-121"/>
</a>
</g>
</g>
<!-- Node2&#45;&gt;Node1 -->
<g id="edge1_Node000001_Node000002" class="edge">
<title>Node2&#45;&gt;Node1</title>
<g id="a_edge1_Node000001_Node000002"><a xlink:title=" ">
<path fill="none" stroke="#63b8ff" d="M56.34,-110.99C57.58,-99.26 58.92,-86.56 60.13,-75.12"/>
<polygon fill="none" stroke="#63b8ff" points="52.85,-110.67 55.28,-120.99 59.81,-111.41 52.85,-110.67"/>
</a>
</g>
</g>
<!-- Node3 -->
<g id="Node000003" class="node">
<title>Node3</title>
<g id="a_Node000003"><a xlink:href="../../d9/d5f/classcv_1_1detail_1_1KernelTypeMedium.html" target="_top" xlink:title=" ">
<polygon fill="white" stroke="transparent" points="289.5,-194 122.5,-194 122.5,-112 289.5,-112 289.5,-194"/>
<text text-anchor="start" x="128" y="-182" font-family="Helvetica,sans-Serif" font-size="10.00">cv::detail::KernelTypeMedium</text>
<text text-anchor="start" x="128" y="-171" font-family="Helvetica,sans-Serif" font-size="10.00">&lt; GInferList2&lt; Net, T, Args...</text>
<text text-anchor="start" x="128" y="-160" font-family="Helvetica,sans-Serif" font-size="10.00"> &gt;, InferAPIList2&lt; Net, T, Args...</text>
<text text-anchor="start" x="181" y="-149" font-family="Helvetica,sans-Serif" font-size="10.00"> &gt;::type &gt;</text>
<text text-anchor="start" x="204.5" y="-134" font-family="Helvetica,sans-Serif" font-size="10.00"> </text>
<text text-anchor="start" x="204.5" y="-119" font-family="Helvetica,sans-Serif" font-size="10.00"> </text>
<polygon fill="#666666" stroke="#666666" points="123,-144 123,-144 290,-144 290,-144 123,-144"/>
<polygon fill="#666666" stroke="#666666" points="123,-129 123,-129 290,-129 290,-129 123,-129"/>
<polygon fill="none" stroke="#666666" points="122.5,-112 122.5,-194 289.5,-194 289.5,-112 122.5,-112"/>
</a>
</g>
</g>
<!-- Node3&#45;&gt;Node1 -->
<g id="edge2_Node000001_Node000003" class="edge">
<title>Node3&#45;&gt;Node1</title>
<g id="a_edge2_Node000001_Node000003"><a xlink:title=" ">
<path fill="none" stroke="#63b8ff" d="M148.09,-105.71C135.34,-95.52 122.01,-84.87 109.82,-75.12"/>
<polygon fill="none" stroke="#63b8ff" points="145.94,-108.47 155.94,-111.98 150.31,-103.01 145.94,-108.47"/>
</a>
</g>
</g>
<!-- Node4 -->
<g id="Node000004" class="node">
<title>Node4</title>
<g id="a_Node000004"><a xlink:href="../../d9/d5f/classcv_1_1detail_1_1KernelTypeMedium.html" target="_top" xlink:title=" ">
<polygon fill="white" stroke="transparent" points="283,-323 129,-323 129,-263 283,-263 283,-323"/>
<text text-anchor="start" x="134" y="-311" font-family="Helvetica,sans-Serif" font-size="10.00">cv::detail::KernelTypeMedium</text>
<text text-anchor="start" x="142" y="-300" font-family="Helvetica,sans-Serif" font-size="10.00">&lt; typename, typename &gt;</text>
<text text-anchor="start" x="204" y="-285" font-family="Helvetica,sans-Serif" font-size="10.00"> </text>
<text text-anchor="start" x="204" y="-270" font-family="Helvetica,sans-Serif" font-size="10.00"> </text>
<polygon fill="#666666" stroke="#666666" points="129,-295 129,-295 283,-295 283,-295 129,-295"/>
<polygon fill="#666666" stroke="#666666" points="129,-280 129,-280 283,-280 283,-280 129,-280"/>
<polygon fill="none" stroke="#666666" points="129,-263 129,-323 283,-323 283,-263 129,-263"/>
</a>
</g>
</g>
<!-- Node4&#45;&gt;Node3 -->
<g id="edge3_Node000003_Node000004" class="edge">
<title>Node4&#45;&gt;Node3</title>
<g id="a_edge3_Node000003_Node000004"><a xlink:title=" ">
<path fill="none" stroke="orange" d="M206,-252.68C206,-234.38 206,-212.63 206,-194.22"/>
<polygon fill="orange" stroke="orange" points="202.5,-252.73 206,-262.73 209.5,-252.73 202.5,-252.73"/>
</a>
</g>
<text text-anchor="start" x="206" y="-237" font-family="Helvetica,sans-Serif" font-size="10.00" fill="grey"> &lt; GInferList2&lt; Net,</text>
<text text-anchor="start" x="206" y="-226" font-family="Helvetica,sans-Serif" font-size="10.00" fill="grey"> T, Args... &gt;, InferAPIList2</text>
<text text-anchor="middle" x="270" y="-215" font-family="Helvetica,sans-Serif" font-size="10.00" fill="grey">&lt; Net, T, Args... &gt;::type &gt;</text>
</g>
</g>
</svg>
