<?xml version="1.0" encoding="UTF-8" standalone="no"?>
<!DOCTYPE svg PUBLIC "-//W3C//DTD SVG 1.1//EN"
 "http://www.w3.org/Graphics/SVG/1.1/DTD/svg11.dtd">
<!-- Generated by graphviz version 2.43.0 (0)
 -->
<!-- Title: cv::reg::MapperGradEuclid Pages: 1 -->
<svg width="146pt" height="262pt"
 viewBox="0.00 0.00 146.00 262.00" xmlns="http://www.w3.org/2000/svg" xmlns:xlink="http://www.w3.org/1999/xlink">
<g id="graph0" class="graph" transform="scale(1 1) rotate(0) translate(4 258)">
<title>cv::reg::MapperGradEuclid</title>
<!-- Node1 -->
<g id="Node000001" class="node">
<title>Node1</title>
<g id="a_Node000001"><a xlink:title=" ">
<polygon fill="#999999" stroke="transparent" points="138,-94 0,-94 0,0 138,0 138,-94"/>
<text text-anchor="start" x="5" y="-82" font-family="Helvetica,sans-Serif" font-size="10.00">cv::reg::MapperGradEuclid</text>
<text text-anchor="start" x="67" y="-67" font-family="Helvetica,sans-Serif" font-size="10.00"> </text>
<text text-anchor="start" x="6.5" y="-52" font-family="Helvetica,sans-Serif" font-size="10.00">+</text>
<text text-anchor="start" x="22" y="-52" font-family="Helvetica,sans-Serif" font-size="10.00">MapperGradEuclid()</text>
<text text-anchor="start" x="6.5" y="-37" font-family="Helvetica,sans-Serif" font-size="10.00">+</text>
<text text-anchor="start" x="22" y="-37" font-family="Helvetica,sans-Serif" font-size="10.00">~MapperGradEuclid()</text>
<text text-anchor="start" x="6.5" y="-22" font-family="Helvetica,sans-Serif" font-size="10.00">+</text>
<text text-anchor="start" x="22" y="-22" font-family="Helvetica,sans-Serif" font-size="10.00">calculate()</text>
<text text-anchor="start" x="6.5" y="-7" font-family="Helvetica,sans-Serif" font-size="10.00">+</text>
<text text-anchor="start" x="22" y="-7" font-family="Helvetica,sans-Serif" font-size="10.00">getMap()</text>
<polygon fill="#666666" stroke="#666666" points="0,-77 0,-77 138,-77 138,-77 0,-77"/>
<polygon fill="#666666" stroke="#666666" points="0,-62 0,-62 138,-62 138,-62 0,-62"/>
<polygon fill="none" stroke="#666666" points="0,0 0,-94 138,-94 138,0 0,0"/>
</a>
</g>
</g>
<!-- Node2 -->
<g id="Node000002" class="node">
<title>Node2</title>
<g id="a_Node000002"><a xlink:href="../../d0/d6c/classcv_1_1reg_1_1Mapper.html" target="_top" xlink:title="Base class for modelling an algorithm for calculating a map.">
<polygon fill="white" stroke="transparent" points="112,-254 26,-254 26,-130 112,-130 112,-254"/>
<text text-anchor="start" x="31" y="-242" font-family="Helvetica,sans-Serif" font-size="10.00">cv::reg::Mapper</text>
<text text-anchor="start" x="67" y="-227" font-family="Helvetica,sans-Serif" font-size="10.00"> </text>
<text text-anchor="start" x="33" y="-212" font-family="Helvetica,sans-Serif" font-size="10.00">+</text>
<text text-anchor="start" x="49" y="-212" font-family="Helvetica,sans-Serif" font-size="10.00">~Mapper()</text>
<text text-anchor="start" x="33" y="-197" font-family="Helvetica,sans-Serif" font-size="10.00">+</text>
<text text-anchor="start" x="49" y="-197" font-family="Helvetica,sans-Serif" font-size="10.00">calculate()</text>
<text text-anchor="start" x="33" y="-182" font-family="Helvetica,sans-Serif" font-size="10.00">+</text>
<text text-anchor="start" x="49" y="-182" font-family="Helvetica,sans-Serif" font-size="10.00">getMap()</text>
<text text-anchor="start" x="33" y="-167" font-family="Helvetica,sans-Serif" font-size="10.00">#</text>
<text text-anchor="start" x="49" y="-167" font-family="Helvetica,sans-Serif" font-size="10.00">gradient()</text>
<text text-anchor="start" x="33" y="-152" font-family="Helvetica,sans-Serif" font-size="10.00">#</text>
<text text-anchor="start" x="49" y="-152" font-family="Helvetica,sans-Serif" font-size="10.00">grid()</text>
<text text-anchor="start" x="33" y="-137" font-family="Helvetica,sans-Serif" font-size="10.00">#</text>
<text text-anchor="start" x="49" y="-137" font-family="Helvetica,sans-Serif" font-size="10.00">sqr()</text>
<polygon fill="#666666" stroke="#666666" points="26,-237 26,-237 112,-237 112,-237 26,-237"/>
<polygon fill="#666666" stroke="#666666" points="26,-222 26,-222 112,-222 112,-222 26,-222"/>
<polygon fill="none" stroke="#666666" points="26,-130 26,-254 112,-254 112,-130 26,-130"/>
</a>
</g>
</g>
<!-- Node2&#45;&gt;Node1 -->
<g id="edge1_Node000001_Node000002" class="edge">
<title>Node2&#45;&gt;Node1</title>
<g id="a_edge1_Node000001_Node000002"><a xlink:title=" ">
<path fill="none" stroke="#63b8ff" d="M69,-119.76C69,-111.05 69,-102.34 69,-94.15"/>
<polygon fill="none" stroke="#63b8ff" points="65.5,-119.94 69,-129.94 72.5,-119.94 65.5,-119.94"/>
</a>
</g>
</g>
</g>
</svg>
