<?xml version="1.0" encoding="UTF-8" standalone="no"?>
<!DOCTYPE svg PUBLIC "-//W3C//DTD SVG 1.1//EN"
 "http://www.w3.org/Graphics/SVG/1.1/DTD/svg11.dtd">
<!-- Generated by graphviz version 2.43.0 (0)
 -->
<!-- Title: cv::cudev::cosh_func&lt; T &gt; Pages: 1 -->
<svg width="199pt" height="283pt"
 viewBox="0.00 0.00 198.50 283.00" xmlns="http://www.w3.org/2000/svg" xmlns:xlink="http://www.w3.org/1999/xlink">
<g id="graph0" class="graph" transform="scale(1 1) rotate(0) translate(4 279)">
<title>cv::cudev::cosh_func&lt; T &gt;</title>
<!-- Node1 -->
<g id="Node000001" class="node">
<title>Node1</title>
<g id="a_Node000001"><a xlink:title=" ">
<polygon fill="#999999" stroke="transparent" points="139,-49 0,-49 0,0 139,0 139,-49"/>
<text text-anchor="start" x="5.5" y="-36.5" font-family="Helvetica,sans-Serif" font-size="10.00">cv::cudev::cosh_func&lt; T &gt;</text>
<text text-anchor="start" x="68" y="-21.5" font-family="Helvetica,sans-Serif" font-size="10.00"> </text>
<text text-anchor="start" x="19.5" y="-6.5" font-family="Helvetica,sans-Serif" font-size="10.00">+</text>
<text text-anchor="start" x="47.5" y="-6.5" font-family="Helvetica,sans-Serif" font-size="10.00">operator()()</text>
<polygon fill="#666666" stroke="#666666" points="0.5,-31.5 0.5,-31.5 139.5,-31.5 139.5,-31.5 0.5,-31.5"/>
<polygon fill="#666666" stroke="#666666" points="0.5,-16.5 0.5,-16.5 139.5,-16.5 139.5,-16.5 0.5,-16.5"/>
<polygon fill="none" stroke="#666666" points="0,0 0,-49 139,-49 139,0 0,0"/>
</a>
</g>
</g>
<!-- Node2 -->
<g id="Node000002" class="node">
<title>Node2</title>
<g id="a_Node000002"><a xlink:title=" ">
<polygon fill="white" stroke="transparent" points="136.5,-157 2.5,-157 2.5,-86 136.5,-86 136.5,-157"/>
<text text-anchor="start" x="7.5" y="-144.5" font-family="Helvetica,sans-Serif" font-size="10.00">cv::cudev::unary_function</text>
<text text-anchor="start" x="7.5" y="-133.5" font-family="Helvetica,sans-Serif" font-size="10.00">&lt; T, functional_detail</text>
<text text-anchor="start" x="9" y="-122.5" font-family="Helvetica,sans-Serif" font-size="10.00">::FloatType&lt; T &gt;::type &gt;</text>
<text text-anchor="start" x="67.5" y="-107.5" font-family="Helvetica,sans-Serif" font-size="10.00"> </text>
<text text-anchor="start" x="67.5" y="-92.5" font-family="Helvetica,sans-Serif" font-size="10.00"> </text>
<polygon fill="#666666" stroke="#666666" points="2.5,-117.5 2.5,-117.5 136.5,-117.5 136.5,-117.5 2.5,-117.5"/>
<polygon fill="#666666" stroke="#666666" points="2.5,-102.5 2.5,-102.5 136.5,-102.5 136.5,-102.5 2.5,-102.5"/>
<polygon fill="none" stroke="#666666" points="2.5,-86 2.5,-157 136.5,-157 136.5,-86 2.5,-86"/>
</a>
</g>
</g>
<!-- Node2&#45;&gt;Node1 -->
<g id="edge1_Node000001_Node000002" class="edge">
<title>Node2&#45;&gt;Node1</title>
<g id="a_edge1_Node000001_Node000002"><a xlink:title=" ">
<path fill="none" stroke="#63b8ff" d="M69.5,-75.72C69.5,-66.56 69.5,-57.26 69.5,-49.2"/>
<polygon fill="none" stroke="#63b8ff" points="66,-75.93 69.5,-85.93 73,-75.93 66,-75.93"/>
</a>
</g>
</g>
<!-- Node3 -->
<g id="Node000003" class="node">
<title>Node3</title>
<g id="a_Node000003"><a xlink:href="../../df/d11/structcv_1_1cudev_1_1unary__function.html" target="_top" xlink:title=" ">
<polygon fill="white" stroke="transparent" points="136.5,-275 2.5,-275 2.5,-215 136.5,-215 136.5,-275"/>
<text text-anchor="start" x="7.5" y="-263" font-family="Helvetica,sans-Serif" font-size="10.00">cv::cudev::unary_function</text>
<text text-anchor="start" x="26" y="-252" font-family="Helvetica,sans-Serif" font-size="10.00">&lt; _Arg, _Result &gt;</text>
<text text-anchor="start" x="67.5" y="-237" font-family="Helvetica,sans-Serif" font-size="10.00"> </text>
<text text-anchor="start" x="67.5" y="-222" font-family="Helvetica,sans-Serif" font-size="10.00"> </text>
<polygon fill="#666666" stroke="#666666" points="2.5,-247 2.5,-247 136.5,-247 136.5,-247 2.5,-247"/>
<polygon fill="#666666" stroke="#666666" points="2.5,-232 2.5,-232 136.5,-232 136.5,-232 2.5,-232"/>
<polygon fill="none" stroke="#666666" points="2.5,-215 2.5,-275 136.5,-275 136.5,-215 2.5,-215"/>
</a>
</g>
</g>
<!-- Node3&#45;&gt;Node2 -->
<g id="edge2_Node000002_Node000003" class="edge">
<title>Node3&#45;&gt;Node2</title>
<g id="a_edge2_Node000002_Node000003"><a xlink:title=" ">
<path fill="none" stroke="orange" d="M69.5,-204.74C69.5,-189.51 69.5,-172.21 69.5,-157.42"/>
<polygon fill="orange" stroke="orange" points="66,-204.9 69.5,-214.9 73,-204.9 66,-204.9"/>
</a>
</g>
<text text-anchor="start" x="69.5" y="-189" font-family="Helvetica,sans-Serif" font-size="10.00" fill="grey"> &lt; T, functional_detail</text>
<text text-anchor="middle" x="130" y="-178" font-family="Helvetica,sans-Serif" font-size="10.00" fill="grey">::FloatType&lt; T &gt;::type &gt;</text>
</g>
</g>
</svg>
