<?xml version="1.0" encoding="UTF-8" standalone="no"?>
<!DOCTYPE svg PUBLIC "-//W3C//DTD SVG 1.1//EN"
 "http://www.w3.org/Graphics/SVG/1.1/DTD/svg11.dtd">
<!-- Generated by graphviz version 2.43.0 (0)
 -->
<!-- Title: cv::cuda::BroxOpticalFlow Pages: 1 -->
<svg width="201pt" height="602pt"
 viewBox="0.00 0.00 201.00 602.00" xmlns="http://www.w3.org/2000/svg" xmlns:xlink="http://www.w3.org/1999/xlink">
<g id="graph0" class="graph" transform="scale(1 1) rotate(0) translate(4 598)">
<title>cv::cuda::BroxOpticalFlow</title>
<!-- Node1 -->
<g id="Node000001" class="node">
<title>Node1</title>
<g id="a_Node000001"><a xlink:title="Class computing the optical flow for two images using Brox et al Optical Flow algorithm ().">
<polygon fill="#999999" stroke="transparent" points="193,-229 0,-229 0,0 193,0 193,-229"/>
<text text-anchor="start" x="33.5" y="-216.5" font-family="Helvetica,sans-Serif" font-size="10.00">cv::cuda::BroxOpticalFlow</text>
<text text-anchor="start" x="95" y="-201.5" font-family="Helvetica,sans-Serif" font-size="10.00"> </text>
<text text-anchor="start" x="4.5" y="-186.5" font-family="Helvetica,sans-Serif" font-size="10.00">+</text>
<text text-anchor="start" x="17.5" y="-186.5" font-family="Helvetica,sans-Serif" font-size="10.00">getFlowSmoothness()</text>
<text text-anchor="start" x="4.5" y="-171.5" font-family="Helvetica,sans-Serif" font-size="10.00">+</text>
<text text-anchor="start" x="17.5" y="-171.5" font-family="Helvetica,sans-Serif" font-size="10.00">getGradientConstancyImportance()</text>
<text text-anchor="start" x="4.5" y="-156.5" font-family="Helvetica,sans-Serif" font-size="10.00">+</text>
<text text-anchor="start" x="17.5" y="-156.5" font-family="Helvetica,sans-Serif" font-size="10.00">getInnerIterations()</text>
<text text-anchor="start" x="4.5" y="-141.5" font-family="Helvetica,sans-Serif" font-size="10.00">+</text>
<text text-anchor="start" x="17.5" y="-141.5" font-family="Helvetica,sans-Serif" font-size="10.00">getOuterIterations()</text>
<text text-anchor="start" x="4.5" y="-126.5" font-family="Helvetica,sans-Serif" font-size="10.00">+</text>
<text text-anchor="start" x="17.5" y="-126.5" font-family="Helvetica,sans-Serif" font-size="10.00">getPyramidScaleFactor()</text>
<text text-anchor="start" x="4.5" y="-111.5" font-family="Helvetica,sans-Serif" font-size="10.00">+</text>
<text text-anchor="start" x="17.5" y="-111.5" font-family="Helvetica,sans-Serif" font-size="10.00">getSolverIterations()</text>
<text text-anchor="start" x="4.5" y="-96.5" font-family="Helvetica,sans-Serif" font-size="10.00">+</text>
<text text-anchor="start" x="17.5" y="-96.5" font-family="Helvetica,sans-Serif" font-size="10.00">setFlowSmoothness()</text>
<text text-anchor="start" x="4.5" y="-81.5" font-family="Helvetica,sans-Serif" font-size="10.00">+</text>
<text text-anchor="start" x="17.5" y="-81.5" font-family="Helvetica,sans-Serif" font-size="10.00">setGradientConstancyImportance()</text>
<text text-anchor="start" x="4.5" y="-66.5" font-family="Helvetica,sans-Serif" font-size="10.00">+</text>
<text text-anchor="start" x="17.5" y="-66.5" font-family="Helvetica,sans-Serif" font-size="10.00">setInnerIterations()</text>
<text text-anchor="start" x="4.5" y="-51.5" font-family="Helvetica,sans-Serif" font-size="10.00">+</text>
<text text-anchor="start" x="17.5" y="-51.5" font-family="Helvetica,sans-Serif" font-size="10.00">setOuterIterations()</text>
<text text-anchor="start" x="4.5" y="-36.5" font-family="Helvetica,sans-Serif" font-size="10.00">+</text>
<text text-anchor="start" x="17.5" y="-36.5" font-family="Helvetica,sans-Serif" font-size="10.00">setPyramidScaleFactor()</text>
<text text-anchor="start" x="4.5" y="-21.5" font-family="Helvetica,sans-Serif" font-size="10.00">+</text>
<text text-anchor="start" x="17.5" y="-21.5" font-family="Helvetica,sans-Serif" font-size="10.00">setSolverIterations()</text>
<text text-anchor="start" x="4.5" y="-6.5" font-family="Helvetica,sans-Serif" font-size="10.00">+</text>
<text text-anchor="start" x="17.5" y="-6.5" font-family="Helvetica,sans-Serif" font-size="10.00">create()</text>
<polygon fill="#666666" stroke="#666666" points="0.5,-211.5 0.5,-211.5 193.5,-211.5 193.5,-211.5 0.5,-211.5"/>
<polygon fill="#666666" stroke="#666666" points="0.5,-196.5 0.5,-196.5 193.5,-196.5 193.5,-196.5 0.5,-196.5"/>
<polygon fill="none" stroke="#666666" points="0,0 0,-229 193,-229 193,0 0,0"/>
</a>
</g>
</g>
<!-- Node2 -->
<g id="Node000002" class="node">
<title>Node2</title>
<g id="a_Node000002"><a xlink:href="../../d6/d4a/classcv_1_1cuda_1_1DenseOpticalFlow.html" target="_top" xlink:title="Base interface for dense optical flow algorithms.">
<polygon fill="white" stroke="transparent" points="169,-314 24,-314 24,-265 169,-265 169,-314"/>
<text text-anchor="start" x="29.5" y="-301.5" font-family="Helvetica,sans-Serif" font-size="10.00">cv::cuda::DenseOpticalFlow</text>
<text text-anchor="start" x="95" y="-286.5" font-family="Helvetica,sans-Serif" font-size="10.00"> </text>
<text text-anchor="start" x="52.5" y="-271.5" font-family="Helvetica,sans-Serif" font-size="10.00">+</text>
<text text-anchor="start" x="89.5" y="-271.5" font-family="Helvetica,sans-Serif" font-size="10.00">calc()</text>
<polygon fill="#666666" stroke="#666666" points="24.5,-296.5 24.5,-296.5 169.5,-296.5 169.5,-296.5 24.5,-296.5"/>
<polygon fill="#666666" stroke="#666666" points="24.5,-281.5 24.5,-281.5 169.5,-281.5 169.5,-281.5 24.5,-281.5"/>
<polygon fill="none" stroke="#666666" points="24,-265 24,-314 169,-314 169,-265 24,-265"/>
</a>
</g>
</g>
<!-- Node2&#45;&gt;Node1 -->
<g id="edge1_Node000001_Node000002" class="edge">
<title>Node2&#45;&gt;Node1</title>
<g id="a_edge1_Node000001_Node000002"><a xlink:title=" ">
<path fill="none" stroke="#63b8ff" d="M96.5,-254.77C96.5,-246.96 96.5,-238.21 96.5,-229.01"/>
<polygon fill="none" stroke="#63b8ff" points="93,-254.81 96.5,-264.81 100,-254.81 93,-254.81"/>
</a>
</g>
</g>
<!-- Node3 -->
<g id="Node000003" class="node">
<title>Node3</title>
<g id="a_Node000003"><a xlink:href="../../d3/d46/classcv_1_1Algorithm.html" target="_top" xlink:title="This is a base class for all more or less complex algorithms in OpenCV.">
<polygon fill="white" stroke="transparent" points="151.5,-594 41.5,-594 41.5,-350 151.5,-350 151.5,-594"/>
<text text-anchor="start" x="64" y="-582" font-family="Helvetica,sans-Serif" font-size="10.00">cv::Algorithm</text>
<text text-anchor="start" x="94.5" y="-567" font-family="Helvetica,sans-Serif" font-size="10.00"> </text>
<text text-anchor="start" x="45.5" y="-552" font-family="Helvetica,sans-Serif" font-size="10.00">+</text>
<text text-anchor="start" x="58.5" y="-552" font-family="Helvetica,sans-Serif" font-size="10.00">Algorithm()</text>
<text text-anchor="start" x="45.5" y="-537" font-family="Helvetica,sans-Serif" font-size="10.00">+</text>
<text text-anchor="start" x="58.5" y="-537" font-family="Helvetica,sans-Serif" font-size="10.00">~Algorithm()</text>
<text text-anchor="start" x="45.5" y="-522" font-family="Helvetica,sans-Serif" font-size="10.00">+</text>
<text text-anchor="start" x="58.5" y="-522" font-family="Helvetica,sans-Serif" font-size="10.00">clear()</text>
<text text-anchor="start" x="45.5" y="-507" font-family="Helvetica,sans-Serif" font-size="10.00">+</text>
<text text-anchor="start" x="58.5" y="-507" font-family="Helvetica,sans-Serif" font-size="10.00">empty()</text>
<text text-anchor="start" x="45.5" y="-492" font-family="Helvetica,sans-Serif" font-size="10.00">+</text>
<text text-anchor="start" x="58.5" y="-492" font-family="Helvetica,sans-Serif" font-size="10.00">getDefaultName()</text>
<text text-anchor="start" x="45.5" y="-477" font-family="Helvetica,sans-Serif" font-size="10.00">+</text>
<text text-anchor="start" x="58.5" y="-477" font-family="Helvetica,sans-Serif" font-size="10.00">read()</text>
<text text-anchor="start" x="45.5" y="-462" font-family="Helvetica,sans-Serif" font-size="10.00">+</text>
<text text-anchor="start" x="58.5" y="-462" font-family="Helvetica,sans-Serif" font-size="10.00">save()</text>
<text text-anchor="start" x="45.5" y="-447" font-family="Helvetica,sans-Serif" font-size="10.00">+</text>
<text text-anchor="start" x="58.5" y="-447" font-family="Helvetica,sans-Serif" font-size="10.00">write()</text>
<text text-anchor="start" x="45.5" y="-432" font-family="Helvetica,sans-Serif" font-size="10.00">+</text>
<text text-anchor="start" x="58.5" y="-432" font-family="Helvetica,sans-Serif" font-size="10.00">write()</text>
<text text-anchor="start" x="45.5" y="-417" font-family="Helvetica,sans-Serif" font-size="10.00">+</text>
<text text-anchor="start" x="58.5" y="-417" font-family="Helvetica,sans-Serif" font-size="10.00">write()</text>
<text text-anchor="start" x="45.5" y="-402" font-family="Helvetica,sans-Serif" font-size="10.00">+</text>
<text text-anchor="start" x="58.5" y="-402" font-family="Helvetica,sans-Serif" font-size="10.00">load()</text>
<text text-anchor="start" x="45.5" y="-387" font-family="Helvetica,sans-Serif" font-size="10.00">+</text>
<text text-anchor="start" x="58.5" y="-387" font-family="Helvetica,sans-Serif" font-size="10.00">loadFromString()</text>
<text text-anchor="start" x="45.5" y="-372" font-family="Helvetica,sans-Serif" font-size="10.00">+</text>
<text text-anchor="start" x="58.5" y="-372" font-family="Helvetica,sans-Serif" font-size="10.00">read()</text>
<text text-anchor="start" x="45.5" y="-357" font-family="Helvetica,sans-Serif" font-size="10.00">#</text>
<text text-anchor="start" x="58.5" y="-357" font-family="Helvetica,sans-Serif" font-size="10.00">writeFormat()</text>
<polygon fill="#666666" stroke="#666666" points="41.5,-577 41.5,-577 151.5,-577 151.5,-577 41.5,-577"/>
<polygon fill="#666666" stroke="#666666" points="41.5,-562 41.5,-562 151.5,-562 151.5,-562 41.5,-562"/>
<polygon fill="none" stroke="#666666" points="41.5,-350 41.5,-594 151.5,-594 151.5,-350 41.5,-350"/>
</a>
</g>
</g>
<!-- Node3&#45;&gt;Node2 -->
<g id="edge2_Node000002_Node000003" class="edge">
<title>Node3&#45;&gt;Node2</title>
<g id="a_edge2_Node000002_Node000003"><a xlink:title=" ">
<path fill="none" stroke="#63b8ff" d="M96.5,-339.69C96.5,-330.18 96.5,-321.45 96.5,-314.06"/>
<polygon fill="none" stroke="#63b8ff" points="93,-339.85 96.5,-349.85 100,-339.85 93,-339.85"/>
</a>
</g>
</g>
</g>
</svg>
