<?xml version="1.0" encoding="UTF-8" standalone="no"?>
<!DOCTYPE svg PUBLIC "-//W3C//DTD SVG 1.1//EN"
 "http://www.w3.org/Graphics/SVG/1.1/DTD/svg11.dtd">
<!-- Generated by graphviz version 2.43.0 (0)
 -->
<!-- Title: cv::cudev::ThreshBinaryFunc&lt; T &gt; Pages: 1 -->
<svg width="211pt" height="282pt"
 viewBox="0.00 0.00 210.50 282.00" xmlns="http://www.w3.org/2000/svg" xmlns:xlink="http://www.w3.org/1999/xlink">
<g id="graph0" class="graph" transform="scale(1 1) rotate(0) translate(4 278)">
<title>cv::cudev::ThreshBinaryFunc&lt; T &gt;</title>
<!-- Node1 -->
<g id="Node000001" class="node">
<title>Node1</title>
<g id="a_Node000001"><a xlink:title=" ">
<polygon fill="#999999" stroke="transparent" points="202.5,-49 25.5,-49 25.5,0 202.5,0 202.5,-49"/>
<text text-anchor="start" x="31" y="-36.5" font-family="Helvetica,sans-Serif" font-size="10.00">cv::cudev::ThreshBinaryFunc&lt; T &gt;</text>
<text text-anchor="start" x="112.5" y="-21.5" font-family="Helvetica,sans-Serif" font-size="10.00"> </text>
<text text-anchor="start" x="54.5" y="-6.5" font-family="Helvetica,sans-Serif" font-size="10.00">+</text>
<text text-anchor="start" x="92" y="-6.5" font-family="Helvetica,sans-Serif" font-size="10.00">operator()()</text>
<polygon fill="#666666" stroke="#666666" points="26,-31.5 26,-31.5 203,-31.5 203,-31.5 26,-31.5"/>
<polygon fill="#666666" stroke="#666666" points="26,-16.5 26,-16.5 203,-16.5 203,-16.5 26,-16.5"/>
<polygon fill="none" stroke="#666666" points="25.5,0 25.5,-49 202.5,-49 202.5,0 25.5,0"/>
</a>
</g>
</g>
<!-- Node2 -->
<g id="Node000002" class="node">
<title>Node2</title>
<g id="a_Node000002"><a xlink:title=" ">
<polygon fill="white" stroke="transparent" points="134,-167 0,-167 0,-107 134,-107 134,-167"/>
<text text-anchor="start" x="5" y="-155" font-family="Helvetica,sans-Serif" font-size="10.00">cv::cudev::unary_function</text>
<text text-anchor="start" x="46.5" y="-144" font-family="Helvetica,sans-Serif" font-size="10.00">&lt; T, T &gt;</text>
<text text-anchor="start" x="65" y="-129" font-family="Helvetica,sans-Serif" font-size="10.00"> </text>
<text text-anchor="start" x="65" y="-114" font-family="Helvetica,sans-Serif" font-size="10.00"> </text>
<polygon fill="#666666" stroke="#666666" points="0,-139 0,-139 134,-139 134,-139 0,-139"/>
<polygon fill="#666666" stroke="#666666" points="0,-124 0,-124 134,-124 134,-124 0,-124"/>
<polygon fill="none" stroke="#666666" points="0,-107 0,-167 134,-167 134,-107 0,-107"/>
</a>
</g>
</g>
<!-- Node2&#45;&gt;Node1 -->
<g id="edge1_Node000001_Node000002" class="edge">
<title>Node2&#45;&gt;Node1</title>
<g id="a_edge1_Node000001_Node000002"><a xlink:title=" ">
<path fill="none" stroke="#63b8ff" d="M83.27,-97.75C90.14,-81.59 97.93,-63.28 103.95,-49.13"/>
<polygon fill="none" stroke="#63b8ff" points="80.04,-96.4 79.35,-106.97 86.48,-99.14 80.04,-96.4"/>
</a>
</g>
</g>
<!-- Node3 -->
<g id="Node000003" class="node">
<title>Node3</title>
<g id="a_Node000003"><a xlink:href="../../df/d11/structcv_1_1cudev_1_1unary__function.html" target="_top" xlink:title=" ">
<polygon fill="white" stroke="transparent" points="134,-274 0,-274 0,-214 134,-214 134,-274"/>
<text text-anchor="start" x="5" y="-262" font-family="Helvetica,sans-Serif" font-size="10.00">cv::cudev::unary_function</text>
<text text-anchor="start" x="23.5" y="-251" font-family="Helvetica,sans-Serif" font-size="10.00">&lt; _Arg, _Result &gt;</text>
<text text-anchor="start" x="65" y="-236" font-family="Helvetica,sans-Serif" font-size="10.00"> </text>
<text text-anchor="start" x="65" y="-221" font-family="Helvetica,sans-Serif" font-size="10.00"> </text>
<polygon fill="#666666" stroke="#666666" points="0,-246 0,-246 134,-246 134,-246 0,-246"/>
<polygon fill="#666666" stroke="#666666" points="0,-231 0,-231 134,-231 134,-231 0,-231"/>
<polygon fill="none" stroke="#666666" points="0,-214 0,-274 134,-274 134,-214 0,-214"/>
</a>
</g>
</g>
<!-- Node3&#45;&gt;Node2 -->
<g id="edge2_Node000002_Node000003" class="edge">
<title>Node3&#45;&gt;Node2</title>
<g id="a_edge2_Node000002_Node000003"><a xlink:title=" ">
<path fill="none" stroke="orange" d="M67,-203.46C67,-191.39 67,-178.34 67,-167.09"/>
<polygon fill="orange" stroke="orange" points="63.5,-203.75 67,-213.75 70.5,-203.75 63.5,-203.75"/>
</a>
</g>
<text text-anchor="middle" x="89" y="-188" font-family="Helvetica,sans-Serif" font-size="10.00" fill="grey"> &lt; T, T &gt;</text>
</g>
<!-- Node4 -->
<g id="Node000004" class="node">
<title>Node4</title>
<g id="a_Node000004"><a xlink:title=" ">
<polygon fill="white" stroke="transparent" points="169.5,-161.5 152.5,-161.5 152.5,-112.5 169.5,-112.5 169.5,-161.5"/>
<text text-anchor="start" x="158" y="-149" font-family="Helvetica,sans-Serif" font-size="10.00">T</text>
<text text-anchor="start" x="159.5" y="-134" font-family="Helvetica,sans-Serif" font-size="10.00"> </text>
<text text-anchor="start" x="159.5" y="-119" font-family="Helvetica,sans-Serif" font-size="10.00"> </text>
<polygon fill="#666666" stroke="#666666" points="153,-144 153,-144 170,-144 170,-144 153,-144"/>
<polygon fill="#666666" stroke="#666666" points="153,-129 153,-129 170,-129 170,-129 153,-129"/>
<polygon fill="none" stroke="#666666" points="152.5,-112.5 152.5,-161.5 169.5,-161.5 169.5,-112.5 152.5,-112.5"/>
</a>
</g>
</g>
<!-- Node4&#45;&gt;Node1 -->
<g id="edge3_Node000001_Node000004" class="edge">
<title>Node4&#45;&gt;Node1</title>
<g id="a_edge3_Node000001_Node000004"><a xlink:title=" ">
<path fill="none" stroke="#63b8ff" d="M152.49,-115.99C145.9,-100.51 136.62,-78.69 128.83,-60.36"/>
<polygon fill="none" stroke="#63b8ff" points="128.78,-60.24 122.75,-56.29 124.08,-49.2 130.11,-53.16 128.78,-60.24"/>
</a>
</g>
<text text-anchor="middle" x="164.5" y="-81" font-family="Helvetica,sans-Serif" font-size="10.00" fill="grey"> +maxVal</text>
<text text-anchor="middle" x="164.5" y="-70" font-family="Helvetica,sans-Serif" font-size="10.00" fill="grey">+thresh</text>
</g>
</g>
</svg>
