<?xml version="1.0" encoding="UTF-8" standalone="no"?>
<!DOCTYPE svg PUBLIC "-//W3C//DTD SVG 1.1//EN"
 "http://www.w3.org/Graphics/SVG/1.1/DTD/svg11.dtd">
<!-- Generated by graphviz version 2.43.0 (0)
 -->
<!-- Title: cv::dnn::DictValue Pages: 1 -->
<svg width="659pt" height="944pt"
 viewBox="0.00 0.00 659.15 944.00" xmlns="http://www.w3.org/2000/svg" xmlns:xlink="http://www.w3.org/1999/xlink">
<g id="graph0" class="graph" transform="scale(1 1) rotate(0) translate(4 940)">
<title>cv::dnn::DictValue</title>
<!-- Node1 -->
<g id="Node000001" class="node">
<title>Node1</title>
<g id="a_Node000001"><a xlink:title="This struct stores the scalar value (or array) of one of the following type: double,...">
<polygon fill="#999999" stroke="transparent" points="371.15,-244 273.15,-244 273.15,0 371.15,0 371.15,-244"/>
<text text-anchor="start" x="278.15" y="-232" font-family="Helvetica,sans-Serif" font-size="10.00">cv::dnn::DictValue</text>
<text text-anchor="start" x="320.15" y="-217" font-family="Helvetica,sans-Serif" font-size="10.00"> </text>
<text text-anchor="start" x="280.15" y="-202" font-family="Helvetica,sans-Serif" font-size="10.00">+</text>
<text text-anchor="start" x="296.15" y="-202" font-family="Helvetica,sans-Serif" font-size="10.00">DictValue()</text>
<text text-anchor="start" x="280.15" y="-187" font-family="Helvetica,sans-Serif" font-size="10.00">+</text>
<text text-anchor="start" x="296.15" y="-187" font-family="Helvetica,sans-Serif" font-size="10.00">DictValue()</text>
<text text-anchor="start" x="280.15" y="-172" font-family="Helvetica,sans-Serif" font-size="10.00">+</text>
<text text-anchor="start" x="296.15" y="-172" font-family="Helvetica,sans-Serif" font-size="10.00">DictValue()</text>
<text text-anchor="start" x="280.15" y="-157" font-family="Helvetica,sans-Serif" font-size="10.00">+</text>
<text text-anchor="start" x="296.15" y="-157" font-family="Helvetica,sans-Serif" font-size="10.00">DictValue()</text>
<text text-anchor="start" x="280.15" y="-142" font-family="Helvetica,sans-Serif" font-size="10.00">+</text>
<text text-anchor="start" x="296.15" y="-142" font-family="Helvetica,sans-Serif" font-size="10.00">DictValue()</text>
<text text-anchor="start" x="280.15" y="-127" font-family="Helvetica,sans-Serif" font-size="10.00">+</text>
<text text-anchor="start" x="296.15" y="-127" font-family="Helvetica,sans-Serif" font-size="10.00">DictValue()</text>
<text text-anchor="start" x="280.15" y="-112" font-family="Helvetica,sans-Serif" font-size="10.00">+</text>
<text text-anchor="start" x="296.15" y="-112" font-family="Helvetica,sans-Serif" font-size="10.00">DictValue()</text>
<text text-anchor="start" x="280.15" y="-97" font-family="Helvetica,sans-Serif" font-size="10.00">+</text>
<text text-anchor="start" x="296.15" y="-97" font-family="Helvetica,sans-Serif" font-size="10.00">DictValue()</text>
<text text-anchor="start" x="280.15" y="-82" font-family="Helvetica,sans-Serif" font-size="10.00">+</text>
<text text-anchor="start" x="296.15" y="-82" font-family="Helvetica,sans-Serif" font-size="10.00">~DictValue()</text>
<text text-anchor="start" x="280.15" y="-67" font-family="Helvetica,sans-Serif" font-size="10.00">+</text>
<text text-anchor="start" x="296.15" y="-67" font-family="Helvetica,sans-Serif" font-size="10.00">get()</text>
<text text-anchor="start" x="296.15" y="-52" font-family="Helvetica,sans-Serif" font-size="10.00">and 8 more...</text>
<text text-anchor="start" x="280.15" y="-37" font-family="Helvetica,sans-Serif" font-size="10.00">+</text>
<text text-anchor="start" x="296.15" y="-37" font-family="Helvetica,sans-Serif" font-size="10.00">arrayInt()</text>
<text text-anchor="start" x="280.15" y="-22" font-family="Helvetica,sans-Serif" font-size="10.00">+</text>
<text text-anchor="start" x="296.15" y="-22" font-family="Helvetica,sans-Serif" font-size="10.00">arrayReal()</text>
<text text-anchor="start" x="280.15" y="-7" font-family="Helvetica,sans-Serif" font-size="10.00">+</text>
<text text-anchor="start" x="296.15" y="-7" font-family="Helvetica,sans-Serif" font-size="10.00">arrayString()</text>
<polygon fill="#666666" stroke="#666666" points="273.15,-227 273.15,-227 371.15,-227 371.15,-227 273.15,-227"/>
<polygon fill="#666666" stroke="#666666" points="273.15,-212 273.15,-212 371.15,-212 371.15,-212 273.15,-212"/>
<polygon fill="none" stroke="#666666" points="273.15,0 273.15,-244 371.15,-244 371.15,0 273.15,0"/>
</a>
</g>
</g>
<!-- Node2 -->
<g id="Node000002" class="node">
<title>Node2</title>
<g id="a_Node000002"><a xlink:href="../../d8/dd0/classcv_1_1AutoBuffer.html" target="_top" xlink:title=" ">
<polygon fill="white" stroke="transparent" points="153.15,-520 15.15,-520 15.15,-291 153.15,-291 153.15,-520"/>
<text text-anchor="start" x="20.15" y="-507.5" font-family="Helvetica,sans-Serif" font-size="10.00">cv::AutoBuffer&lt; int64, 1 &gt;</text>
<text text-anchor="start" x="82.15" y="-492.5" font-family="Helvetica,sans-Serif" font-size="10.00"> </text>
<text text-anchor="start" x="19.65" y="-477.5" font-family="Helvetica,sans-Serif" font-size="10.00">+</text>
<text text-anchor="start" x="33.15" y="-477.5" font-family="Helvetica,sans-Serif" font-size="10.00">AutoBuffer()</text>
<text text-anchor="start" x="19.65" y="-462.5" font-family="Helvetica,sans-Serif" font-size="10.00">+</text>
<text text-anchor="start" x="33.15" y="-462.5" font-family="Helvetica,sans-Serif" font-size="10.00">AutoBuffer()</text>
<text text-anchor="start" x="19.65" y="-447.5" font-family="Helvetica,sans-Serif" font-size="10.00">+</text>
<text text-anchor="start" x="33.15" y="-447.5" font-family="Helvetica,sans-Serif" font-size="10.00">AutoBuffer()</text>
<text text-anchor="start" x="19.65" y="-432.5" font-family="Helvetica,sans-Serif" font-size="10.00">+</text>
<text text-anchor="start" x="33.15" y="-432.5" font-family="Helvetica,sans-Serif" font-size="10.00">~AutoBuffer()</text>
<text text-anchor="start" x="19.65" y="-417.5" font-family="Helvetica,sans-Serif" font-size="10.00">+</text>
<text text-anchor="start" x="33.15" y="-417.5" font-family="Helvetica,sans-Serif" font-size="10.00">allocate()</text>
<text text-anchor="start" x="19.65" y="-402.5" font-family="Helvetica,sans-Serif" font-size="10.00">+</text>
<text text-anchor="start" x="33.15" y="-402.5" font-family="Helvetica,sans-Serif" font-size="10.00">data()</text>
<text text-anchor="start" x="19.65" y="-387.5" font-family="Helvetica,sans-Serif" font-size="10.00">+</text>
<text text-anchor="start" x="33.15" y="-387.5" font-family="Helvetica,sans-Serif" font-size="10.00">data()</text>
<text text-anchor="start" x="19.65" y="-372.5" font-family="Helvetica,sans-Serif" font-size="10.00">+</text>
<text text-anchor="start" x="33.15" y="-372.5" font-family="Helvetica,sans-Serif" font-size="10.00">deallocate()</text>
<text text-anchor="start" x="19.65" y="-357.5" font-family="Helvetica,sans-Serif" font-size="10.00">+</text>
<text text-anchor="start" x="33.15" y="-357.5" font-family="Helvetica,sans-Serif" font-size="10.00">operator const int64 *()</text>
<text text-anchor="start" x="19.65" y="-342.5" font-family="Helvetica,sans-Serif" font-size="10.00">+</text>
<text text-anchor="start" x="33.15" y="-342.5" font-family="Helvetica,sans-Serif" font-size="10.00">operator int64 *()</text>
<text text-anchor="start" x="19.65" y="-327.5" font-family="Helvetica,sans-Serif" font-size="10.00">+</text>
<text text-anchor="start" x="33.15" y="-327.5" font-family="Helvetica,sans-Serif" font-size="10.00">operator=()</text>
<text text-anchor="start" x="19.65" y="-312.5" font-family="Helvetica,sans-Serif" font-size="10.00">+</text>
<text text-anchor="start" x="33.15" y="-312.5" font-family="Helvetica,sans-Serif" font-size="10.00">resize()</text>
<text text-anchor="start" x="19.65" y="-297.5" font-family="Helvetica,sans-Serif" font-size="10.00">+</text>
<text text-anchor="start" x="33.15" y="-297.5" font-family="Helvetica,sans-Serif" font-size="10.00">size()</text>
<polygon fill="#666666" stroke="#666666" points="15.15,-502.5 15.15,-502.5 153.15,-502.5 153.15,-502.5 15.15,-502.5"/>
<polygon fill="#666666" stroke="#666666" points="15.15,-487.5 15.15,-487.5 153.15,-487.5 153.15,-487.5 15.15,-487.5"/>
<polygon fill="none" stroke="#666666" points="15.15,-291 15.15,-520 153.15,-520 153.15,-291 15.15,-291"/>
</a>
</g>
</g>
<!-- Node2&#45;&gt;Node1 -->
<g id="edge1_Node000001_Node000002" class="edge">
<title>Node2&#45;&gt;Node1</title>
<g id="a_edge1_Node000001_Node000002"><a xlink:title=" ">
<path fill="none" stroke="#63b8ff" d="M153.34,-302.15C156.27,-298.35 159.21,-294.62 162.15,-291 193.93,-251.83 232.9,-210.78 264.43,-179.07"/>
<polygon fill="none" stroke="#63b8ff" points="264.63,-178.86 266.04,-171.79 273.11,-170.38 271.7,-177.45 264.63,-178.86"/>
</a>
</g>
<text text-anchor="middle" x="193.65" y="-265" font-family="Helvetica,sans-Serif" font-size="10.00" fill="grey"> +pi</text>
</g>
<!-- Node3 -->
<g id="Node000003" class="node">
<title>Node3</title>
<g id="a_Node000003"><a xlink:title=" ">
<polygon fill="white" stroke="transparent" points="106.15,-722.5 62.15,-722.5 62.15,-673.5 106.15,-673.5 106.15,-722.5"/>
<text text-anchor="start" x="67.15" y="-710" font-family="Helvetica,sans-Serif" font-size="10.00">int64_t</text>
<text text-anchor="start" x="82.15" y="-695" font-family="Helvetica,sans-Serif" font-size="10.00"> </text>
<text text-anchor="start" x="82.15" y="-680" font-family="Helvetica,sans-Serif" font-size="10.00"> </text>
<polygon fill="#666666" stroke="#666666" points="62.15,-705 62.15,-705 106.15,-705 106.15,-705 62.15,-705"/>
<polygon fill="#666666" stroke="#666666" points="62.15,-690 62.15,-690 106.15,-690 106.15,-690 62.15,-690"/>
<polygon fill="none" stroke="#666666" points="62.15,-673.5 62.15,-722.5 106.15,-722.5 106.15,-673.5 62.15,-673.5"/>
</a>
</g>
</g>
<!-- Node3&#45;&gt;Node2 -->
<g id="edge2_Node000002_Node000003" class="edge">
<title>Node3&#45;&gt;Node2</title>
<g id="a_edge2_Node000002_Node000003"><a xlink:title=" ">
<path fill="none" stroke="#63b8ff" d="M84.15,-673.23C84.15,-642.24 84.15,-585.72 84.15,-532.66"/>
<polygon fill="none" stroke="#63b8ff" points="84.15,-532.34 80.15,-526.34 84.15,-520.34 88.15,-526.34 84.15,-532.34"/>
</a>
</g>
<text text-anchor="middle" x="98.15" y="-552" font-family="Helvetica,sans-Serif" font-size="10.00" fill="grey"> #buf</text>
<text text-anchor="middle" x="98.15" y="-541" font-family="Helvetica,sans-Serif" font-size="10.00" fill="grey">#ptr</text>
</g>
<!-- Node4 -->
<g id="Node000004" class="node">
<title>Node4</title>
<g id="a_Node000004"><a xlink:title=" ">
<polygon fill="white" stroke="transparent" points="204.65,-930.5 165.65,-930.5 165.65,-881.5 204.65,-881.5 204.65,-930.5"/>
<text text-anchor="start" x="171.15" y="-918" font-family="Helvetica,sans-Serif" font-size="10.00">size_t</text>
<text text-anchor="start" x="183.65" y="-903" font-family="Helvetica,sans-Serif" font-size="10.00"> </text>
<text text-anchor="start" x="183.65" y="-888" font-family="Helvetica,sans-Serif" font-size="10.00"> </text>
<polygon fill="#666666" stroke="#666666" points="166.15,-913 166.15,-913 205.15,-913 205.15,-913 166.15,-913"/>
<polygon fill="#666666" stroke="#666666" points="166.15,-898 166.15,-898 205.15,-898 205.15,-898 166.15,-898"/>
<polygon fill="none" stroke="#666666" points="165.65,-881.5 165.65,-930.5 204.65,-930.5 204.65,-881.5 165.65,-881.5"/>
</a>
</g>
</g>
<!-- Node4&#45;&gt;Node2 -->
<g id="edge3_Node000002_Node000004" class="edge">
<title>Node4&#45;&gt;Node2</title>
<g id="a_edge3_Node000002_Node000004"><a xlink:title=" ">
<path fill="none" stroke="#63b8ff" d="M165.58,-900.68C131.14,-891.91 60.56,-868.39 31.15,-818 -19.32,-731.52 0.65,-617.63 29.44,-531.59"/>
<polygon fill="none" stroke="#63b8ff" points="29.46,-531.52 27.63,-524.55 33.36,-520.17 35.19,-527.15 29.46,-531.52"/>
</a>
</g>
<text text-anchor="middle" x="42.15" y="-695.5" font-family="Helvetica,sans-Serif" font-size="10.00" fill="grey"> #sz</text>
</g>
<!-- Node5 -->
<g id="Node000005" class="node">
<title>Node5</title>
<g id="a_Node000005"><a xlink:href="../../d8/dd0/classcv_1_1AutoBuffer.html" target="_top" xlink:title="Automatically Allocated Buffer Class.">
<polygon fill="white" stroke="transparent" points="376.15,-818 248.15,-818 248.15,-578 376.15,-578 376.15,-818"/>
<text text-anchor="start" x="262.15" y="-806" font-family="Helvetica,sans-Serif" font-size="10.00">cv::AutoBuffer&lt; _Tp,</text>
<text text-anchor="start" x="280.65" y="-795" font-family="Helvetica,sans-Serif" font-size="10.00"> fixed_size &gt;</text>
<text text-anchor="start" x="310.15" y="-780" font-family="Helvetica,sans-Serif" font-size="10.00"> </text>
<text text-anchor="start" x="252.15" y="-765" font-family="Helvetica,sans-Serif" font-size="10.00">+</text>
<text text-anchor="start" x="265.15" y="-765" font-family="Helvetica,sans-Serif" font-size="10.00">AutoBuffer()</text>
<text text-anchor="start" x="252.15" y="-750" font-family="Helvetica,sans-Serif" font-size="10.00">+</text>
<text text-anchor="start" x="265.15" y="-750" font-family="Helvetica,sans-Serif" font-size="10.00">AutoBuffer()</text>
<text text-anchor="start" x="252.15" y="-735" font-family="Helvetica,sans-Serif" font-size="10.00">+</text>
<text text-anchor="start" x="265.15" y="-735" font-family="Helvetica,sans-Serif" font-size="10.00">AutoBuffer()</text>
<text text-anchor="start" x="252.15" y="-720" font-family="Helvetica,sans-Serif" font-size="10.00">+</text>
<text text-anchor="start" x="265.15" y="-720" font-family="Helvetica,sans-Serif" font-size="10.00">~AutoBuffer()</text>
<text text-anchor="start" x="252.15" y="-705" font-family="Helvetica,sans-Serif" font-size="10.00">+</text>
<text text-anchor="start" x="265.15" y="-705" font-family="Helvetica,sans-Serif" font-size="10.00">allocate()</text>
<text text-anchor="start" x="252.15" y="-690" font-family="Helvetica,sans-Serif" font-size="10.00">+</text>
<text text-anchor="start" x="265.15" y="-690" font-family="Helvetica,sans-Serif" font-size="10.00">data()</text>
<text text-anchor="start" x="252.15" y="-675" font-family="Helvetica,sans-Serif" font-size="10.00">+</text>
<text text-anchor="start" x="265.15" y="-675" font-family="Helvetica,sans-Serif" font-size="10.00">data()</text>
<text text-anchor="start" x="252.15" y="-660" font-family="Helvetica,sans-Serif" font-size="10.00">+</text>
<text text-anchor="start" x="265.15" y="-660" font-family="Helvetica,sans-Serif" font-size="10.00">deallocate()</text>
<text text-anchor="start" x="252.15" y="-645" font-family="Helvetica,sans-Serif" font-size="10.00">+</text>
<text text-anchor="start" x="265.15" y="-645" font-family="Helvetica,sans-Serif" font-size="10.00">operator _Tp *()</text>
<text text-anchor="start" x="252.15" y="-630" font-family="Helvetica,sans-Serif" font-size="10.00">+</text>
<text text-anchor="start" x="265.15" y="-630" font-family="Helvetica,sans-Serif" font-size="10.00">operator const _Tp *()</text>
<text text-anchor="start" x="252.15" y="-615" font-family="Helvetica,sans-Serif" font-size="10.00">+</text>
<text text-anchor="start" x="265.15" y="-615" font-family="Helvetica,sans-Serif" font-size="10.00">operator=()</text>
<text text-anchor="start" x="252.15" y="-600" font-family="Helvetica,sans-Serif" font-size="10.00">+</text>
<text text-anchor="start" x="265.15" y="-600" font-family="Helvetica,sans-Serif" font-size="10.00">resize()</text>
<text text-anchor="start" x="252.15" y="-585" font-family="Helvetica,sans-Serif" font-size="10.00">+</text>
<text text-anchor="start" x="265.15" y="-585" font-family="Helvetica,sans-Serif" font-size="10.00">size()</text>
<polygon fill="#666666" stroke="#666666" points="248.15,-790 248.15,-790 376.15,-790 376.15,-790 248.15,-790"/>
<polygon fill="#666666" stroke="#666666" points="248.15,-775 248.15,-775 376.15,-775 376.15,-775 248.15,-775"/>
<polygon fill="none" stroke="#666666" points="248.15,-578 248.15,-818 376.15,-818 376.15,-578 248.15,-578"/>
</a>
</g>
</g>
<!-- Node4&#45;&gt;Node5 -->
<g id="edge6_Node000005_Node000004" class="edge">
<title>Node4&#45;&gt;Node5</title>
<g id="a_edge6_Node000005_Node000004"><a xlink:title=" ">
<path fill="none" stroke="#63b8ff" d="M199.72,-881.37C210.36,-864.11 225.65,-839.3 241.54,-813.52"/>
<polygon fill="none" stroke="#63b8ff" points="241.6,-813.44 241.34,-806.23 247.9,-803.22 248.15,-810.43 241.6,-813.44"/>
</a>
</g>
<text text-anchor="middle" x="238.15" y="-844.5" font-family="Helvetica,sans-Serif" font-size="10.00" fill="grey"> #sz</text>
</g>
<!-- Node7 -->
<g id="Node000007" class="node">
<title>Node7</title>
<g id="a_Node000007"><a xlink:href="../../d8/dd0/classcv_1_1AutoBuffer.html" target="_top" xlink:title=" ">
<polygon fill="white" stroke="transparent" points="317.15,-520 171.15,-520 171.15,-291 317.15,-291 317.15,-520"/>
<text text-anchor="start" x="176.15" y="-507.5" font-family="Helvetica,sans-Serif" font-size="10.00">cv::AutoBuffer&lt; double, 1 &gt;</text>
<text text-anchor="start" x="242.15" y="-492.5" font-family="Helvetica,sans-Serif" font-size="10.00"> </text>
<text text-anchor="start" x="175.65" y="-477.5" font-family="Helvetica,sans-Serif" font-size="10.00">+</text>
<text text-anchor="start" x="189.15" y="-477.5" font-family="Helvetica,sans-Serif" font-size="10.00">AutoBuffer()</text>
<text text-anchor="start" x="175.65" y="-462.5" font-family="Helvetica,sans-Serif" font-size="10.00">+</text>
<text text-anchor="start" x="189.15" y="-462.5" font-family="Helvetica,sans-Serif" font-size="10.00">AutoBuffer()</text>
<text text-anchor="start" x="175.65" y="-447.5" font-family="Helvetica,sans-Serif" font-size="10.00">+</text>
<text text-anchor="start" x="189.15" y="-447.5" font-family="Helvetica,sans-Serif" font-size="10.00">AutoBuffer()</text>
<text text-anchor="start" x="175.65" y="-432.5" font-family="Helvetica,sans-Serif" font-size="10.00">+</text>
<text text-anchor="start" x="189.15" y="-432.5" font-family="Helvetica,sans-Serif" font-size="10.00">~AutoBuffer()</text>
<text text-anchor="start" x="175.65" y="-417.5" font-family="Helvetica,sans-Serif" font-size="10.00">+</text>
<text text-anchor="start" x="189.15" y="-417.5" font-family="Helvetica,sans-Serif" font-size="10.00">allocate()</text>
<text text-anchor="start" x="175.65" y="-402.5" font-family="Helvetica,sans-Serif" font-size="10.00">+</text>
<text text-anchor="start" x="189.15" y="-402.5" font-family="Helvetica,sans-Serif" font-size="10.00">data()</text>
<text text-anchor="start" x="175.65" y="-387.5" font-family="Helvetica,sans-Serif" font-size="10.00">+</text>
<text text-anchor="start" x="189.15" y="-387.5" font-family="Helvetica,sans-Serif" font-size="10.00">data()</text>
<text text-anchor="start" x="175.65" y="-372.5" font-family="Helvetica,sans-Serif" font-size="10.00">+</text>
<text text-anchor="start" x="189.15" y="-372.5" font-family="Helvetica,sans-Serif" font-size="10.00">deallocate()</text>
<text text-anchor="start" x="175.65" y="-357.5" font-family="Helvetica,sans-Serif" font-size="10.00">+</text>
<text text-anchor="start" x="189.15" y="-357.5" font-family="Helvetica,sans-Serif" font-size="10.00">operator const double *()</text>
<text text-anchor="start" x="175.65" y="-342.5" font-family="Helvetica,sans-Serif" font-size="10.00">+</text>
<text text-anchor="start" x="189.15" y="-342.5" font-family="Helvetica,sans-Serif" font-size="10.00">operator double *()</text>
<text text-anchor="start" x="175.65" y="-327.5" font-family="Helvetica,sans-Serif" font-size="10.00">+</text>
<text text-anchor="start" x="189.15" y="-327.5" font-family="Helvetica,sans-Serif" font-size="10.00">operator=()</text>
<text text-anchor="start" x="175.65" y="-312.5" font-family="Helvetica,sans-Serif" font-size="10.00">+</text>
<text text-anchor="start" x="189.15" y="-312.5" font-family="Helvetica,sans-Serif" font-size="10.00">resize()</text>
<text text-anchor="start" x="175.65" y="-297.5" font-family="Helvetica,sans-Serif" font-size="10.00">+</text>
<text text-anchor="start" x="189.15" y="-297.5" font-family="Helvetica,sans-Serif" font-size="10.00">size()</text>
<polygon fill="#666666" stroke="#666666" points="171.15,-502.5 171.15,-502.5 317.15,-502.5 317.15,-502.5 171.15,-502.5"/>
<polygon fill="#666666" stroke="#666666" points="171.15,-487.5 171.15,-487.5 317.15,-487.5 317.15,-487.5 171.15,-487.5"/>
<polygon fill="none" stroke="#666666" points="171.15,-291 171.15,-520 317.15,-520 317.15,-291 171.15,-291"/>
</a>
</g>
</g>
<!-- Node4&#45;&gt;Node7 -->
<g id="edge9_Node000007_Node000004" class="edge">
<title>Node4&#45;&gt;Node7</title>
<g id="a_edge9_Node000007_Node000004"><a xlink:title=" ">
<path fill="none" stroke="#63b8ff" d="M173.12,-881.34C165.13,-864.24 155.35,-840.31 151.15,-818 131.39,-713.18 128.76,-682.29 151.15,-578 154.52,-562.28 159.85,-546.49 166.28,-531.2"/>
<polygon fill="none" stroke="#63b8ff" points="166.3,-531.14 165.06,-524.04 171.14,-520.16 172.38,-527.26 166.3,-531.14"/>
</a>
</g>
<text text-anchor="middle" x="162.15" y="-695.5" font-family="Helvetica,sans-Serif" font-size="10.00" fill="grey"> #sz</text>
</g>
<!-- Node9 -->
<g id="Node000009" class="node">
<title>Node9</title>
<g id="a_Node000009"><a xlink:href="../../d8/dd0/classcv_1_1AutoBuffer.html" target="_top" xlink:title=" ">
<polygon fill="white" stroke="transparent" points="477.15,-520 335.15,-520 335.15,-291 477.15,-291 477.15,-520"/>
<text text-anchor="start" x="340.15" y="-507.5" font-family="Helvetica,sans-Serif" font-size="10.00">cv::AutoBuffer&lt; String, 1 &gt;</text>
<text text-anchor="start" x="404.15" y="-492.5" font-family="Helvetica,sans-Serif" font-size="10.00"> </text>
<text text-anchor="start" x="339.65" y="-477.5" font-family="Helvetica,sans-Serif" font-size="10.00">+</text>
<text text-anchor="start" x="353.15" y="-477.5" font-family="Helvetica,sans-Serif" font-size="10.00">AutoBuffer()</text>
<text text-anchor="start" x="339.65" y="-462.5" font-family="Helvetica,sans-Serif" font-size="10.00">+</text>
<text text-anchor="start" x="353.15" y="-462.5" font-family="Helvetica,sans-Serif" font-size="10.00">AutoBuffer()</text>
<text text-anchor="start" x="339.65" y="-447.5" font-family="Helvetica,sans-Serif" font-size="10.00">+</text>
<text text-anchor="start" x="353.15" y="-447.5" font-family="Helvetica,sans-Serif" font-size="10.00">AutoBuffer()</text>
<text text-anchor="start" x="339.65" y="-432.5" font-family="Helvetica,sans-Serif" font-size="10.00">+</text>
<text text-anchor="start" x="353.15" y="-432.5" font-family="Helvetica,sans-Serif" font-size="10.00">~AutoBuffer()</text>
<text text-anchor="start" x="339.65" y="-417.5" font-family="Helvetica,sans-Serif" font-size="10.00">+</text>
<text text-anchor="start" x="353.15" y="-417.5" font-family="Helvetica,sans-Serif" font-size="10.00">allocate()</text>
<text text-anchor="start" x="339.65" y="-402.5" font-family="Helvetica,sans-Serif" font-size="10.00">+</text>
<text text-anchor="start" x="353.15" y="-402.5" font-family="Helvetica,sans-Serif" font-size="10.00">data()</text>
<text text-anchor="start" x="339.65" y="-387.5" font-family="Helvetica,sans-Serif" font-size="10.00">+</text>
<text text-anchor="start" x="353.15" y="-387.5" font-family="Helvetica,sans-Serif" font-size="10.00">data()</text>
<text text-anchor="start" x="339.65" y="-372.5" font-family="Helvetica,sans-Serif" font-size="10.00">+</text>
<text text-anchor="start" x="353.15" y="-372.5" font-family="Helvetica,sans-Serif" font-size="10.00">deallocate()</text>
<text text-anchor="start" x="339.65" y="-357.5" font-family="Helvetica,sans-Serif" font-size="10.00">+</text>
<text text-anchor="start" x="353.15" y="-357.5" font-family="Helvetica,sans-Serif" font-size="10.00">operator const String *()</text>
<text text-anchor="start" x="339.65" y="-342.5" font-family="Helvetica,sans-Serif" font-size="10.00">+</text>
<text text-anchor="start" x="353.15" y="-342.5" font-family="Helvetica,sans-Serif" font-size="10.00">operator String *()</text>
<text text-anchor="start" x="339.65" y="-327.5" font-family="Helvetica,sans-Serif" font-size="10.00">+</text>
<text text-anchor="start" x="353.15" y="-327.5" font-family="Helvetica,sans-Serif" font-size="10.00">operator=()</text>
<text text-anchor="start" x="339.65" y="-312.5" font-family="Helvetica,sans-Serif" font-size="10.00">+</text>
<text text-anchor="start" x="353.15" y="-312.5" font-family="Helvetica,sans-Serif" font-size="10.00">resize()</text>
<text text-anchor="start" x="339.65" y="-297.5" font-family="Helvetica,sans-Serif" font-size="10.00">+</text>
<text text-anchor="start" x="353.15" y="-297.5" font-family="Helvetica,sans-Serif" font-size="10.00">size()</text>
<polygon fill="#666666" stroke="#666666" points="335.15,-502.5 335.15,-502.5 477.15,-502.5 477.15,-502.5 335.15,-502.5"/>
<polygon fill="#666666" stroke="#666666" points="335.15,-487.5 335.15,-487.5 477.15,-487.5 477.15,-487.5 335.15,-487.5"/>
<polygon fill="none" stroke="#666666" points="335.15,-291 335.15,-520 477.15,-520 477.15,-291 335.15,-291"/>
</a>
</g>
</g>
<!-- Node4&#45;&gt;Node9 -->
<g id="edge14_Node000009_Node000004" class="edge">
<title>Node4&#45;&gt;Node9</title>
<g id="a_edge14_Node000009_Node000004"><a xlink:title=" ">
<path fill="none" stroke="#63b8ff" d="M204.79,-902.32C245.08,-895.75 337.32,-875 385.15,-818 467.08,-720.36 466.34,-664.01 447.15,-538 446.84,-535.97 446.5,-533.92 446.15,-531.87"/>
<polygon fill="none" stroke="#63b8ff" points="446.14,-531.83 441.07,-526.7 443.85,-520.05 448.92,-525.17 446.14,-531.83"/>
</a>
</g>
<text text-anchor="middle" x="468.15" y="-695.5" font-family="Helvetica,sans-Serif" font-size="10.00" fill="grey"> #sz</text>
</g>
<!-- Node5&#45;&gt;Node2 -->
<g id="edge4_Node000002_Node000005" class="edge">
<title>Node5&#45;&gt;Node2</title>
<g id="a_edge4_Node000002_Node000005"><a xlink:title=" ">
<path fill="none" stroke="orange" d="M242.4,-588.35C239.97,-584.85 237.55,-581.39 235.15,-578 228.64,-568.83 213.05,-544.88 204.15,-538 188.08,-525.58 177.85,-532.88 162.15,-520 159.1,-517.5 156.12,-514.85 153.21,-512.08"/>
<polygon fill="orange" stroke="orange" points="239.51,-590.33 248.06,-596.6 245.28,-586.37 239.51,-590.33"/>
</a>
</g>
<text text-anchor="middle" x="253.65" y="-546.5" font-family="Helvetica,sans-Serif" font-size="10.00" fill="grey"> &lt; int64, 1 &gt;</text>
</g>
<!-- Node5&#45;&gt;Node7 -->
<g id="edge10_Node000007_Node000005" class="edge">
<title>Node5&#45;&gt;Node7</title>
<g id="a_edge10_Node000007_Node000005"><a xlink:title=" ">
<path fill="none" stroke="orange" d="M296.55,-568.15C294.63,-557.9 292.5,-547.75 290.15,-538 288.73,-532.12 287.15,-526.14 285.45,-520.13"/>
<polygon fill="orange" stroke="orange" points="293.11,-568.78 298.32,-578 299.99,-567.53 293.11,-568.78"/>
</a>
</g>
<text text-anchor="middle" x="330.65" y="-546.5" font-family="Helvetica,sans-Serif" font-size="10.00" fill="grey"> &lt; double, 1 &gt;</text>
</g>
<!-- Node5&#45;&gt;Node9 -->
<g id="edge15_Node000009_Node000005" class="edge">
<title>Node5&#45;&gt;Node9</title>
<g id="a_edge15_Node000009_Node000005"><a xlink:title=" ">
<path fill="none" stroke="orange" d="M367.35,-568.35C368.31,-565.55 369.25,-562.76 370.15,-560 374.31,-547.25 378.2,-533.76 381.76,-520.27"/>
<polygon fill="orange" stroke="orange" points="364,-567.31 363.98,-577.91 370.61,-569.64 364,-567.31"/>
</a>
</g>
<text text-anchor="middle" x="409.65" y="-546.5" font-family="Helvetica,sans-Serif" font-size="10.00" fill="grey"> &lt; String, 1 &gt;</text>
</g>
<!-- Node6 -->
<g id="Node000006" class="node">
<title>Node6</title>
<g id="a_Node000006"><a xlink:href="../../d1/dd7/class__Tp.html" target="_top" xlink:title=" ">
<polygon fill="white" stroke="transparent" points="535.15,-930.5 507.15,-930.5 507.15,-881.5 535.15,-881.5 535.15,-930.5"/>
<text text-anchor="start" x="512.15" y="-918" font-family="Helvetica,sans-Serif" font-size="10.00">_Tp</text>
<text text-anchor="start" x="519.15" y="-903" font-family="Helvetica,sans-Serif" font-size="10.00"> </text>
<text text-anchor="start" x="519.15" y="-888" font-family="Helvetica,sans-Serif" font-size="10.00"> </text>
<polygon fill="#666666" stroke="#666666" points="507.15,-913 507.15,-913 535.15,-913 535.15,-913 507.15,-913"/>
<polygon fill="#666666" stroke="#666666" points="507.15,-898 507.15,-898 535.15,-898 535.15,-898 507.15,-898"/>
<polygon fill="none" stroke="#666666" points="507.15,-881.5 507.15,-930.5 535.15,-930.5 535.15,-881.5 507.15,-881.5"/>
</a>
</g>
</g>
<!-- Node6&#45;&gt;Node5 -->
<g id="edge5_Node000005_Node000006" class="edge">
<title>Node6&#45;&gt;Node5</title>
<g id="a_edge5_Node000005_Node000006"><a xlink:title=" ">
<path fill="none" stroke="#63b8ff" d="M507.11,-891.16C482.4,-866.81 429.53,-814.7 385.08,-770.88"/>
<polygon fill="none" stroke="#63b8ff" points="384.86,-770.67 377.78,-769.3 376.31,-762.24 383.39,-763.6 384.86,-770.67"/>
</a>
</g>
<text text-anchor="middle" x="484.15" y="-850" font-family="Helvetica,sans-Serif" font-size="10.00" fill="grey"> #buf</text>
<text text-anchor="middle" x="484.15" y="-839" font-family="Helvetica,sans-Serif" font-size="10.00" fill="grey">#ptr</text>
</g>
<!-- Node7&#45;&gt;Node1 -->
<g id="edge7_Node000001_Node000007" class="edge">
<title>Node7&#45;&gt;Node1</title>
<g id="a_edge7_Node000001_Node000007"><a xlink:title=" ">
<path fill="none" stroke="#63b8ff" d="M275.65,-290.81C278.85,-279.26 282.13,-267.44 285.38,-255.71"/>
<polygon fill="none" stroke="#63b8ff" points="285.42,-255.57 283.16,-248.72 288.62,-244.01 290.87,-250.86 285.42,-255.57"/>
</a>
</g>
<text text-anchor="middle" x="295.15" y="-265" font-family="Helvetica,sans-Serif" font-size="10.00" fill="grey"> +pd</text>
</g>
<!-- Node8 -->
<g id="Node000008" class="node">
<title>Node8</title>
<g id="a_Node000008"><a xlink:title=" ">
<polygon fill="white" stroke="transparent" points="226.15,-722.5 182.15,-722.5 182.15,-673.5 226.15,-673.5 226.15,-722.5"/>
<text text-anchor="start" x="187.15" y="-710" font-family="Helvetica,sans-Serif" font-size="10.00">double</text>
<text text-anchor="start" x="202.15" y="-695" font-family="Helvetica,sans-Serif" font-size="10.00"> </text>
<text text-anchor="start" x="202.15" y="-680" font-family="Helvetica,sans-Serif" font-size="10.00"> </text>
<polygon fill="#666666" stroke="#666666" points="182.15,-705 182.15,-705 226.15,-705 226.15,-705 182.15,-705"/>
<polygon fill="#666666" stroke="#666666" points="182.15,-690 182.15,-690 226.15,-690 226.15,-690 182.15,-690"/>
<polygon fill="none" stroke="#666666" points="182.15,-673.5 182.15,-722.5 226.15,-722.5 226.15,-673.5 182.15,-673.5"/>
</a>
</g>
</g>
<!-- Node8&#45;&gt;Node7 -->
<g id="edge8_Node000007_Node000008" class="edge">
<title>Node8&#45;&gt;Node7</title>
<g id="a_edge8_Node000007_Node000008"><a xlink:title=" ">
<path fill="none" stroke="#63b8ff" d="M193.93,-673.37C181.8,-642.14 164.59,-585.52 176.15,-538 176.64,-535.98 177.17,-533.96 177.73,-531.94"/>
<polygon fill="none" stroke="#63b8ff" points="177.76,-531.83 175.71,-524.91 181.3,-520.36 183.35,-527.27 177.76,-531.83"/>
</a>
</g>
<text text-anchor="middle" x="190.15" y="-552" font-family="Helvetica,sans-Serif" font-size="10.00" fill="grey"> #buf</text>
<text text-anchor="middle" x="190.15" y="-541" font-family="Helvetica,sans-Serif" font-size="10.00" fill="grey">#ptr</text>
</g>
<!-- Node9&#45;&gt;Node1 -->
<g id="edge11_Node000001_Node000009" class="edge">
<title>Node9&#45;&gt;Node1</title>
<g id="a_edge11_Node000001_Node000009"><a xlink:title=" ">
<path fill="none" stroke="#63b8ff" d="M372.23,-290.81C368.78,-279.26 365.25,-267.44 361.75,-255.71"/>
<polygon fill="none" stroke="#63b8ff" points="361.69,-255.51 356.14,-250.9 358.26,-244.01 363.81,-248.61 361.69,-255.51"/>
</a>
</g>
<text text-anchor="middle" x="378.65" y="-265" font-family="Helvetica,sans-Serif" font-size="10.00" fill="grey"> +ps</text>
</g>
<!-- Node10 -->
<g id="Node000010" class="node">
<title>Node10</title>
<g id="a_Node000010"><a xlink:title=" ">
<polygon fill="white" stroke="transparent" points="611.65,-722.5 552.65,-722.5 552.65,-673.5 611.65,-673.5 611.65,-722.5"/>
<text text-anchor="start" x="558.15" y="-710" font-family="Helvetica,sans-Serif" font-size="10.00">std::string</text>
<text text-anchor="start" x="580.65" y="-695" font-family="Helvetica,sans-Serif" font-size="10.00"> </text>
<text text-anchor="start" x="580.65" y="-680" font-family="Helvetica,sans-Serif" font-size="10.00"> </text>
<polygon fill="#666666" stroke="#666666" points="553.15,-705 553.15,-705 612.15,-705 612.15,-705 553.15,-705"/>
<polygon fill="#666666" stroke="#666666" points="553.15,-690 553.15,-690 612.15,-690 612.15,-690 553.15,-690"/>
<polygon fill="none" stroke="#666666" points="552.65,-673.5 552.65,-722.5 611.65,-722.5 611.65,-673.5 552.65,-673.5"/>
</a>
</g>
</g>
<!-- Node10&#45;&gt;Node9 -->
<g id="edge12_Node000009_Node000010" class="edge">
<title>Node10&#45;&gt;Node9</title>
<g id="a_edge12_Node000009_Node000010"><a xlink:title=" ">
<path fill="none" stroke="#63b8ff" d="M572.54,-673.31C559.05,-641.28 532.7,-583 502.15,-538 496.14,-529.14 492.8,-528.39 486.15,-520 485.69,-519.42 485.24,-518.85 484.78,-518.27"/>
<polygon fill="none" stroke="#63b8ff" points="484.71,-518.17 477.87,-515.89 477.35,-508.69 484.19,-510.98 484.71,-518.17"/>
</a>
</g>
<text text-anchor="middle" x="529.15" y="-552" font-family="Helvetica,sans-Serif" font-size="10.00" fill="grey"> #buf</text>
<text text-anchor="middle" x="529.15" y="-541" font-family="Helvetica,sans-Serif" font-size="10.00" fill="grey">#ptr</text>
</g>
<!-- Node11 -->
<g id="Node000011" class="node">
<title>Node11</title>
<g id="a_Node000011"><a xlink:title=" ">
<polygon fill="white" stroke="transparent" points="651.15,-936 553.15,-936 553.15,-876 651.15,-876 651.15,-936"/>
<text text-anchor="start" x="558.15" y="-924" font-family="Helvetica,sans-Serif" font-size="10.00">std::basic_string&lt;</text>
<text text-anchor="start" x="583.65" y="-913" font-family="Helvetica,sans-Serif" font-size="10.00"> Char &gt;</text>
<text text-anchor="start" x="600.15" y="-898" font-family="Helvetica,sans-Serif" font-size="10.00"> </text>
<text text-anchor="start" x="600.15" y="-883" font-family="Helvetica,sans-Serif" font-size="10.00"> </text>
<polygon fill="#666666" stroke="#666666" points="553.15,-908 553.15,-908 651.15,-908 651.15,-908 553.15,-908"/>
<polygon fill="#666666" stroke="#666666" points="553.15,-893 553.15,-893 651.15,-893 651.15,-893 553.15,-893"/>
<polygon fill="none" stroke="#666666" points="553.15,-876 553.15,-936 651.15,-936 651.15,-876 553.15,-876"/>
</a>
</g>
</g>
<!-- Node11&#45;&gt;Node10 -->
<g id="edge13_Node000010_Node000011" class="edge">
<title>Node11&#45;&gt;Node10</title>
<g id="a_edge13_Node000010_Node000011"><a xlink:title=" ">
<path fill="none" stroke="#63b8ff" d="M598.33,-865.7C594.22,-823.37 587.82,-757.41 584.43,-722.5"/>
<polygon fill="none" stroke="#63b8ff" points="594.88,-866.31 599.33,-875.92 601.84,-865.63 594.88,-866.31"/>
</a>
</g>
</g>
<!-- Node12 -->
<g id="Node000012" class="node">
<title>Node12</title>
<g id="a_Node000012"><a xlink:title=" ">
<polygon fill="white" stroke="transparent" points="527.15,-430 495.15,-430 495.15,-381 527.15,-381 527.15,-430"/>
<text text-anchor="start" x="500.15" y="-417.5" font-family="Helvetica,sans-Serif" font-size="10.00">void</text>
<text text-anchor="start" x="509.15" y="-402.5" font-family="Helvetica,sans-Serif" font-size="10.00"> </text>
<text text-anchor="start" x="509.15" y="-387.5" font-family="Helvetica,sans-Serif" font-size="10.00"> </text>
<polygon fill="#666666" stroke="#666666" points="495.15,-412.5 495.15,-412.5 527.15,-412.5 527.15,-412.5 495.15,-412.5"/>
<polygon fill="#666666" stroke="#666666" points="495.15,-397.5 495.15,-397.5 527.15,-397.5 527.15,-397.5 495.15,-397.5"/>
<polygon fill="none" stroke="#666666" points="495.15,-381 495.15,-430 527.15,-430 527.15,-381 495.15,-381"/>
</a>
</g>
</g>
<!-- Node12&#45;&gt;Node1 -->
<g id="edge16_Node000001_Node000012" class="edge">
<title>Node12&#45;&gt;Node1</title>
<g id="a_edge16_Node000001_Node000012"><a xlink:title=" ">
<path fill="none" stroke="#63b8ff" d="M509.71,-380.57C507.42,-356.64 501.49,-319.41 486.15,-291 460.2,-242.93 416.47,-199.15 380.69,-168.34"/>
<polygon fill="none" stroke="#63b8ff" points="380.46,-168.15 373.3,-167.32 371.31,-160.39 378.47,-161.22 380.46,-168.15"/>
</a>
</g>
<text text-anchor="middle" x="484.15" y="-265" font-family="Helvetica,sans-Serif" font-size="10.00" fill="grey"> +pv</text>
</g>
</g>
</svg>
