<?xml version="1.0" encoding="UTF-8" standalone="no"?>
<!DOCTYPE svg PUBLIC "-//W3C//DTD SVG 1.1//EN"
 "http://www.w3.org/Graphics/SVG/1.1/DTD/svg11.dtd">
<!-- Generated by graphviz version 2.43.0 (0)
 -->
<!-- Title: cv::CascadeClassifier Pages: 1 -->
<svg width="181pt" height="378pt"
 viewBox="0.00 0.00 181.00 378.00" xmlns="http://www.w3.org/2000/svg" xmlns:xlink="http://www.w3.org/1999/xlink">
<g id="graph0" class="graph" transform="scale(1 1) rotate(0) translate(4 374)">
<title>cv::CascadeClassifier</title>
<!-- Node1 -->
<g id="Node000001" class="node">
<title>Node1</title>
<g id="a_Node000001"><a xlink:title="Cascade classifier class for object detection.">
<polygon fill="#999999" stroke="transparent" points="157.5,-274 15.5,-274 15.5,0 157.5,0 157.5,-274"/>
<text text-anchor="start" x="35" y="-262" font-family="Helvetica,sans-Serif" font-size="10.00">cv::CascadeClassifier</text>
<text text-anchor="start" x="84.5" y="-247" font-family="Helvetica,sans-Serif" font-size="10.00"> </text>
<text text-anchor="start" x="19.5" y="-232" font-family="Helvetica,sans-Serif" font-size="10.00">+</text>
<text text-anchor="start" x="32.5" y="-232" font-family="Helvetica,sans-Serif" font-size="10.00">CascadeClassifier()</text>
<text text-anchor="start" x="19.5" y="-217" font-family="Helvetica,sans-Serif" font-size="10.00">+</text>
<text text-anchor="start" x="32.5" y="-217" font-family="Helvetica,sans-Serif" font-size="10.00">CascadeClassifier()</text>
<text text-anchor="start" x="19.5" y="-202" font-family="Helvetica,sans-Serif" font-size="10.00">+</text>
<text text-anchor="start" x="32.5" y="-202" font-family="Helvetica,sans-Serif" font-size="10.00">~CascadeClassifier()</text>
<text text-anchor="start" x="19.5" y="-187" font-family="Helvetica,sans-Serif" font-size="10.00">+</text>
<text text-anchor="start" x="32.5" y="-187" font-family="Helvetica,sans-Serif" font-size="10.00">detectMultiScale()</text>
<text text-anchor="start" x="19.5" y="-172" font-family="Helvetica,sans-Serif" font-size="10.00">+</text>
<text text-anchor="start" x="32.5" y="-172" font-family="Helvetica,sans-Serif" font-size="10.00">detectMultiScale()</text>
<text text-anchor="start" x="19.5" y="-157" font-family="Helvetica,sans-Serif" font-size="10.00">+</text>
<text text-anchor="start" x="32.5" y="-157" font-family="Helvetica,sans-Serif" font-size="10.00">detectMultiScale()</text>
<text text-anchor="start" x="19.5" y="-142" font-family="Helvetica,sans-Serif" font-size="10.00">+</text>
<text text-anchor="start" x="32.5" y="-142" font-family="Helvetica,sans-Serif" font-size="10.00">empty()</text>
<text text-anchor="start" x="19.5" y="-127" font-family="Helvetica,sans-Serif" font-size="10.00">+</text>
<text text-anchor="start" x="32.5" y="-127" font-family="Helvetica,sans-Serif" font-size="10.00">getFeatureType()</text>
<text text-anchor="start" x="19.5" y="-112" font-family="Helvetica,sans-Serif" font-size="10.00">+</text>
<text text-anchor="start" x="32.5" y="-112" font-family="Helvetica,sans-Serif" font-size="10.00">getMaskGenerator()</text>
<text text-anchor="start" x="19.5" y="-97" font-family="Helvetica,sans-Serif" font-size="10.00">+</text>
<text text-anchor="start" x="32.5" y="-97" font-family="Helvetica,sans-Serif" font-size="10.00">getOldCascade()</text>
<text text-anchor="start" x="19.5" y="-82" font-family="Helvetica,sans-Serif" font-size="10.00">+</text>
<text text-anchor="start" x="32.5" y="-82" font-family="Helvetica,sans-Serif" font-size="10.00">getOriginalWindowSize()</text>
<text text-anchor="start" x="19.5" y="-67" font-family="Helvetica,sans-Serif" font-size="10.00">+</text>
<text text-anchor="start" x="32.5" y="-67" font-family="Helvetica,sans-Serif" font-size="10.00">isOldFormatCascade()</text>
<text text-anchor="start" x="19.5" y="-52" font-family="Helvetica,sans-Serif" font-size="10.00">+</text>
<text text-anchor="start" x="32.5" y="-52" font-family="Helvetica,sans-Serif" font-size="10.00">load()</text>
<text text-anchor="start" x="19.5" y="-37" font-family="Helvetica,sans-Serif" font-size="10.00">+</text>
<text text-anchor="start" x="32.5" y="-37" font-family="Helvetica,sans-Serif" font-size="10.00">read()</text>
<text text-anchor="start" x="19.5" y="-22" font-family="Helvetica,sans-Serif" font-size="10.00">+</text>
<text text-anchor="start" x="32.5" y="-22" font-family="Helvetica,sans-Serif" font-size="10.00">setMaskGenerator()</text>
<text text-anchor="start" x="19.5" y="-7" font-family="Helvetica,sans-Serif" font-size="10.00">+</text>
<text text-anchor="start" x="32.5" y="-7" font-family="Helvetica,sans-Serif" font-size="10.00">convert()</text>
<polygon fill="#666666" stroke="#666666" points="15.5,-257 15.5,-257 157.5,-257 157.5,-257 15.5,-257"/>
<polygon fill="#666666" stroke="#666666" points="15.5,-242 15.5,-242 157.5,-242 157.5,-242 15.5,-242"/>
<polygon fill="none" stroke="#666666" points="15.5,0 15.5,-274 157.5,-274 157.5,0 15.5,0"/>
</a>
</g>
</g>
<!-- Node2 -->
<g id="Node000002" class="node">
<title>Node2</title>
<g id="a_Node000002"><a xlink:title=" ">
<polygon fill="white" stroke="transparent" points="173,-370 0,-370 0,-321 173,-321 173,-370"/>
<text text-anchor="start" x="5.5" y="-357.5" font-family="Helvetica,sans-Serif" font-size="10.00">Ptr&lt; cv::BaseCascadeClassifier &gt;</text>
<text text-anchor="start" x="85" y="-342.5" font-family="Helvetica,sans-Serif" font-size="10.00"> </text>
<text text-anchor="start" x="85" y="-327.5" font-family="Helvetica,sans-Serif" font-size="10.00"> </text>
<polygon fill="#666666" stroke="#666666" points="0.5,-352.5 0.5,-352.5 173.5,-352.5 173.5,-352.5 0.5,-352.5"/>
<polygon fill="#666666" stroke="#666666" points="0.5,-337.5 0.5,-337.5 173.5,-337.5 173.5,-337.5 0.5,-337.5"/>
<polygon fill="none" stroke="#666666" points="0,-321 0,-370 173,-370 173,-321 0,-321"/>
</a>
</g>
</g>
<!-- Node2&#45;&gt;Node1 -->
<g id="edge1_Node000001_Node000002" class="edge">
<title>Node2&#45;&gt;Node1</title>
<g id="a_edge1_Node000001_Node000002"><a xlink:title=" ">
<path fill="none" stroke="#63b8ff" d="M86.5,-320.81C86.5,-311.32 86.5,-299.56 86.5,-286.6"/>
<polygon fill="none" stroke="#63b8ff" points="86.5,-286.4 82.5,-280.4 86.5,-274.4 90.5,-280.4 86.5,-286.4"/>
</a>
</g>
<text text-anchor="middle" x="97.5" y="-295" font-family="Helvetica,sans-Serif" font-size="10.00" fill="grey"> +cc</text>
</g>
</g>
</svg>
