<?xml version="1.0" encoding="UTF-8" standalone="no"?>
<!DOCTYPE svg PUBLIC "-//W3C//DTD SVG 1.1//EN"
 "http://www.w3.org/Graphics/SVG/1.1/DTD/svg11.dtd">
<!-- Generated by graphviz version 2.43.0 (0)
 -->
<!-- Title: cv::detail::GTypeTraits&lt; cv::GOpaque&lt; T &gt; &gt; Pages: 1 -->
<svg width="398pt" height="205pt"
 viewBox="0.00 0.00 398.00 205.00" xmlns="http://www.w3.org/2000/svg" xmlns:xlink="http://www.w3.org/1999/xlink">
<g id="graph0" class="graph" transform="scale(1 1) rotate(0) translate(4 201)">
<title>cv::detail::GTypeTraits&lt; cv::GOpaque&lt; T &gt; &gt;</title>
<!-- Node1 -->
<g id="Node000001" class="node">
<title>Node1</title>
<g id="a_Node000001"><a xlink:title=" ">
<polygon fill="#999999" stroke="transparent" points="256.5,-90 133.5,-90 133.5,0 256.5,0 256.5,-90"/>
<text text-anchor="start" x="139" y="-78" font-family="Helvetica,sans-Serif" font-size="10.00">cv::detail::GTypeTraits</text>
<text text-anchor="start" x="139" y="-67" font-family="Helvetica,sans-Serif" font-size="10.00">&lt; cv::GOpaque&lt; T &gt; &gt;</text>
<text text-anchor="start" x="193.5" y="-52" font-family="Helvetica,sans-Serif" font-size="10.00"> </text>
<text text-anchor="start" x="147.5" y="-37" font-family="Helvetica,sans-Serif" font-size="10.00">+</text>
<text text-anchor="start" x="170" y="-37" font-family="Helvetica,sans-Serif" font-size="10.00">wrap_in()</text>
<text text-anchor="start" x="147.5" y="-22" font-family="Helvetica,sans-Serif" font-size="10.00">+</text>
<text text-anchor="start" x="170" y="-22" font-family="Helvetica,sans-Serif" font-size="10.00">wrap_out()</text>
<text text-anchor="start" x="147.5" y="-7" font-family="Helvetica,sans-Serif" font-size="10.00">+</text>
<text text-anchor="start" x="170" y="-7" font-family="Helvetica,sans-Serif" font-size="10.00">wrap_value()</text>
<polygon fill="#666666" stroke="#666666" points="134,-62 134,-62 257,-62 257,-62 134,-62"/>
<polygon fill="#666666" stroke="#666666" points="134,-47 134,-47 257,-47 257,-47 134,-47"/>
<polygon fill="none" stroke="#666666" points="133.5,0 133.5,-90 256.5,-90 256.5,0 133.5,0"/>
</a>
</g>
</g>
<!-- Node2 -->
<g id="Node000002" class="node">
<title>Node2</title>
<g id="a_Node000002"><a xlink:title=" ">
<polygon fill="white" stroke="transparent" points="118,-197 0,-197 0,-137 118,-137 118,-197"/>
<text text-anchor="start" x="5" y="-185" font-family="Helvetica,sans-Serif" font-size="10.00">static constexpr const</text>
<text text-anchor="start" x="38" y="-174" font-family="Helvetica,sans-Serif" font-size="10.00"> ArgKind</text>
<text text-anchor="start" x="57" y="-159" font-family="Helvetica,sans-Serif" font-size="10.00"> </text>
<text text-anchor="start" x="57" y="-144" font-family="Helvetica,sans-Serif" font-size="10.00"> </text>
<polygon fill="#666666" stroke="#666666" points="0,-169 0,-169 118,-169 118,-169 0,-169"/>
<polygon fill="#666666" stroke="#666666" points="0,-154 0,-154 118,-154 118,-154 0,-154"/>
<polygon fill="none" stroke="#666666" points="0,-137 0,-197 118,-197 118,-137 0,-137"/>
</a>
</g>
</g>
<!-- Node2&#45;&gt;Node1 -->
<g id="edge1_Node000001_Node000002" class="edge">
<title>Node2&#45;&gt;Node1</title>
<g id="a_edge1_Node000001_Node000002"><a xlink:title=" ">
<path fill="none" stroke="#63b8ff" d="M91.92,-136.95C105.14,-125.29 120.79,-111.48 135.85,-98.19"/>
<polygon fill="none" stroke="#63b8ff" points="136.12,-97.95 137.98,-90.98 145.12,-90.01 143.27,-96.98 136.12,-97.95"/>
</a>
</g>
<text text-anchor="middle" x="139.5" y="-111" font-family="Helvetica,sans-Serif" font-size="10.00" fill="grey"> +kind</text>
</g>
<!-- Node3 -->
<g id="Node000003" class="node">
<title>Node3</title>
<g id="a_Node000003"><a xlink:title=" ">
<polygon fill="white" stroke="transparent" points="254,-197 136,-197 136,-137 254,-137 254,-197"/>
<text text-anchor="start" x="141" y="-185" font-family="Helvetica,sans-Serif" font-size="10.00">static constexpr const</text>
<text text-anchor="start" x="174.5" y="-174" font-family="Helvetica,sans-Serif" font-size="10.00"> GShape</text>
<text text-anchor="start" x="193" y="-159" font-family="Helvetica,sans-Serif" font-size="10.00"> </text>
<text text-anchor="start" x="193" y="-144" font-family="Helvetica,sans-Serif" font-size="10.00"> </text>
<polygon fill="#666666" stroke="#666666" points="136,-169 136,-169 254,-169 254,-169 136,-169"/>
<polygon fill="#666666" stroke="#666666" points="136,-154 136,-154 254,-154 254,-154 136,-154"/>
<polygon fill="none" stroke="#666666" points="136,-137 136,-197 254,-197 254,-137 136,-137"/>
</a>
</g>
</g>
<!-- Node3&#45;&gt;Node1 -->
<g id="edge2_Node000001_Node000003" class="edge">
<title>Node3&#45;&gt;Node1</title>
<g id="a_edge2_Node000001_Node000003"><a xlink:title=" ">
<path fill="none" stroke="#63b8ff" d="M195,-136.95C195,-126.55 195,-114.44 195,-102.52"/>
<polygon fill="none" stroke="#63b8ff" points="195,-102.24 191,-96.24 195,-90.24 199,-96.24 195,-102.24"/>
</a>
</g>
<text text-anchor="middle" x="215.5" y="-111" font-family="Helvetica,sans-Serif" font-size="10.00" fill="grey"> +shape</text>
</g>
<!-- Node4 -->
<g id="Node000004" class="node">
<title>Node4</title>
<g id="a_Node000004"><a xlink:title=" ">
<polygon fill="white" stroke="transparent" points="390,-197 272,-197 272,-137 390,-137 390,-197"/>
<text text-anchor="start" x="277" y="-185" font-family="Helvetica,sans-Serif" font-size="10.00">static constexpr const</text>
<text text-anchor="start" x="299.5" y="-174" font-family="Helvetica,sans-Serif" font-size="10.00"> OpaqueKind</text>
<text text-anchor="start" x="329" y="-159" font-family="Helvetica,sans-Serif" font-size="10.00"> </text>
<text text-anchor="start" x="329" y="-144" font-family="Helvetica,sans-Serif" font-size="10.00"> </text>
<polygon fill="#666666" stroke="#666666" points="272,-169 272,-169 390,-169 390,-169 272,-169"/>
<polygon fill="#666666" stroke="#666666" points="272,-154 272,-154 390,-154 390,-154 272,-154"/>
<polygon fill="none" stroke="#666666" points="272,-137 272,-197 390,-197 390,-137 272,-137"/>
</a>
</g>
</g>
<!-- Node4&#45;&gt;Node1 -->
<g id="edge3_Node000001_Node000004" class="edge">
<title>Node4&#45;&gt;Node1</title>
<g id="a_edge3_Node000001_Node000004"><a xlink:title=" ">
<path fill="none" stroke="#63b8ff" d="M298.08,-136.95C284.86,-125.29 269.21,-111.48 254.15,-98.19"/>
<polygon fill="none" stroke="#63b8ff" points="253.88,-97.95 246.73,-96.98 244.88,-90.01 252.02,-90.98 253.88,-97.95"/>
</a>
</g>
<text text-anchor="middle" x="300" y="-111" font-family="Helvetica,sans-Serif" font-size="10.00" fill="grey"> +op_kind</text>
</g>
</g>
</svg>
