<?xml version="1.0" encoding="UTF-8" standalone="no"?>
<!DOCTYPE svg PUBLIC "-//W3C//DTD SVG 1.1//EN"
 "http://www.w3.org/Graphics/SVG/1.1/DTD/svg11.dtd">
<!-- Generated by graphviz version 2.43.0 (0)
 -->
<!-- Title: CvAbstractCamera Pages: 1 -->
<svg width="1607pt" height="377pt"
 viewBox="0.00 0.00 1607.00 377.00" xmlns="http://www.w3.org/2000/svg" xmlns:xlink="http://www.w3.org/1999/xlink">
<g id="graph0" class="graph" transform="scale(1 1) rotate(0) translate(4 373)">
<title>CvAbstractCamera</title>
<!-- Node1 -->
<g id="Node000001" class="node">
<title>Node1</title>
<g id="a_Node000001"><a xlink:title=" ">
<polygon fill="#999999" stroke="transparent" points="776.5,-229 659.5,-229 659.5,0 776.5,0 776.5,-229"/>
<text text-anchor="start" x="672.5" y="-216.5" font-family="Helvetica,sans-Serif" font-size="10.00">CvAbstractCamera</text>
<text text-anchor="start" x="716.5" y="-201.5" font-family="Helvetica,sans-Serif" font-size="10.00"> </text>
<text text-anchor="start" x="664" y="-186.5" font-family="Helvetica,sans-Serif" font-size="10.00">+</text>
<text text-anchor="start" x="677" y="-186.5" font-family="Helvetica,sans-Serif" font-size="10.00">CV_UNUSED</text>
<text text-anchor="start" x="664" y="-171.5" font-family="Helvetica,sans-Serif" font-size="10.00">+</text>
<text text-anchor="start" x="677" y="-171.5" font-family="Helvetica,sans-Serif" font-size="10.00">CV_UNUSED</text>
<text text-anchor="start" x="664" y="-156.5" font-family="Helvetica,sans-Serif" font-size="10.00">+</text>
<text text-anchor="start" x="677" y="-156.5" font-family="Helvetica,sans-Serif" font-size="10.00">CV_UNUSED</text>
<text text-anchor="start" x="664" y="-141.5" font-family="Helvetica,sans-Serif" font-size="10.00">+</text>
<text text-anchor="start" x="677" y="-141.5" font-family="Helvetica,sans-Serif" font-size="10.00">CV_UNUSED</text>
<text text-anchor="start" x="664" y="-126.5" font-family="Helvetica,sans-Serif" font-size="10.00">+</text>
<text text-anchor="start" x="677" y="-126.5" font-family="Helvetica,sans-Serif" font-size="10.00">CV_UNUSED</text>
<text text-anchor="start" x="664" y="-111.5" font-family="Helvetica,sans-Serif" font-size="10.00">+</text>
<text text-anchor="start" x="677" y="-111.5" font-family="Helvetica,sans-Serif" font-size="10.00">CV_UNUSED</text>
<text text-anchor="start" x="664" y="-96.5" font-family="Helvetica,sans-Serif" font-size="10.00">+</text>
<text text-anchor="start" x="677" y="-96.5" font-family="Helvetica,sans-Serif" font-size="10.00">CV_UNUSED</text>
<text text-anchor="start" x="664" y="-81.5" font-family="Helvetica,sans-Serif" font-size="10.00">+</text>
<text text-anchor="start" x="677" y="-81.5" font-family="Helvetica,sans-Serif" font-size="10.00">CV_UNUSED</text>
<text text-anchor="start" x="664" y="-66.5" font-family="Helvetica,sans-Serif" font-size="10.00">+</text>
<text text-anchor="start" x="677" y="-66.5" font-family="Helvetica,sans-Serif" font-size="10.00">CV_UNUSED</text>
<text text-anchor="start" x="664" y="-51.5" font-family="Helvetica,sans-Serif" font-size="10.00">+</text>
<text text-anchor="start" x="677" y="-51.5" font-family="Helvetica,sans-Serif" font-size="10.00">CV_UNUSED</text>
<text text-anchor="start" x="664" y="-36.5" font-family="Helvetica,sans-Serif" font-size="10.00">+</text>
<text text-anchor="start" x="677" y="-36.5" font-family="Helvetica,sans-Serif" font-size="10.00">CV_UNUSED</text>
<text text-anchor="start" x="664" y="-21.5" font-family="Helvetica,sans-Serif" font-size="10.00">+</text>
<text text-anchor="start" x="677" y="-21.5" font-family="Helvetica,sans-Serif" font-size="10.00">CV_UNUSED</text>
<text text-anchor="start" x="664" y="-6.5" font-family="Helvetica,sans-Serif" font-size="10.00">+</text>
<text text-anchor="start" x="677" y="-6.5" font-family="Helvetica,sans-Serif" font-size="10.00">initWithParentView:</text>
<polygon fill="#666666" stroke="#666666" points="660,-211.5 660,-211.5 777,-211.5 777,-211.5 660,-211.5"/>
<polygon fill="#666666" stroke="#666666" points="660,-196.5 660,-196.5 777,-196.5 777,-196.5 660,-196.5"/>
<polygon fill="none" stroke="#666666" points="659.5,0 659.5,-229 776.5,-229 776.5,0 659.5,0"/>
</a>
</g>
</g>
<!-- Node2 -->
<g id="Node000002" class="node">
<title>Node2</title>
<g id="a_Node000002"><a xlink:href="../../d4/d19/classNSObject.html" target="_top" xlink:title=" ">
<polygon fill="white" stroke="transparent" points="56,-369 0,-369 0,-320 56,-320 56,-369"/>
<text text-anchor="start" x="5" y="-356.5" font-family="Helvetica,sans-Serif" font-size="10.00">NSObject</text>
<text text-anchor="start" x="26" y="-341.5" font-family="Helvetica,sans-Serif" font-size="10.00"> </text>
<text text-anchor="start" x="26" y="-326.5" font-family="Helvetica,sans-Serif" font-size="10.00"> </text>
<polygon fill="#666666" stroke="#666666" points="0,-351.5 0,-351.5 56,-351.5 56,-351.5 0,-351.5"/>
<polygon fill="#666666" stroke="#666666" points="0,-336.5 0,-336.5 56,-336.5 56,-336.5 0,-336.5"/>
<polygon fill="none" stroke="#666666" points="0,-320 0,-369 56,-369 56,-320 0,-320"/>
</a>
</g>
</g>
<!-- Node2&#45;&gt;Node1 -->
<g id="edge1_Node000001_Node000002" class="edge">
<title>Node2&#45;&gt;Node1</title>
<g id="a_edge1_Node000001_Node000002"><a xlink:title=" ">
<path fill="none" stroke="#63b8ff" d="M50.75,-311.87C67.92,-290.33 93.37,-262.93 122,-247 300.23,-147.81 547.42,-123.44 659.08,-117.45"/>
<polygon fill="none" stroke="#63b8ff" points="47.96,-309.76 44.58,-319.8 53.48,-314.06 47.96,-309.76"/>
</a>
</g>
</g>
<!-- Node3 -->
<g id="Node000003" class="node">
<title>Node3</title>
<g id="a_Node000003"><a xlink:title=" ">
<polygon fill="white" stroke="transparent" points="184,-369 74,-369 74,-320 184,-320 184,-369"/>
<text text-anchor="start" x="79" y="-356.5" font-family="Helvetica,sans-Serif" font-size="10.00">UIDeviceOrientation</text>
<text text-anchor="start" x="127" y="-341.5" font-family="Helvetica,sans-Serif" font-size="10.00"> </text>
<text text-anchor="start" x="127" y="-326.5" font-family="Helvetica,sans-Serif" font-size="10.00"> </text>
<polygon fill="#666666" stroke="#666666" points="74,-351.5 74,-351.5 184,-351.5 184,-351.5 74,-351.5"/>
<polygon fill="#666666" stroke="#666666" points="74,-336.5 74,-336.5 184,-336.5 184,-336.5 74,-336.5"/>
<polygon fill="none" stroke="#666666" points="74,-320 74,-369 184,-369 184,-320 74,-320"/>
</a>
</g>
</g>
<!-- Node3&#45;&gt;Node1 -->
<g id="edge2_Node000001_Node000003" class="edge">
<title>Node3&#45;&gt;Node1</title>
<g id="a_edge2_Node000001_Node000003"><a xlink:title=" ">
<path fill="none" stroke="#63b8ff" d="M125.83,-319.69C124.35,-297.95 125.97,-266.35 144,-247 211.89,-174.11 509.02,-135.99 647.05,-121.94"/>
<polygon fill="none" stroke="#63b8ff" points="647.17,-121.93 652.74,-117.36 659.11,-120.74 653.53,-125.32 647.17,-121.93"/>
</a>
</g>
<text text-anchor="middle" x="211.5" y="-272" font-family="Helvetica,sans-Serif" font-size="10.00" fill="grey"> #currentDeviceOrientation</text>
</g>
<!-- Node4 -->
<g id="Node000004" class="node">
<title>Node4</title>
<g id="a_Node000004"><a xlink:title=" ">
<polygon fill="white" stroke="transparent" points="306,-369 268,-369 268,-320 306,-320 306,-369"/>
<text text-anchor="start" x="273" y="-356.5" font-family="Helvetica,sans-Serif" font-size="10.00">BOOL</text>
<text text-anchor="start" x="285" y="-341.5" font-family="Helvetica,sans-Serif" font-size="10.00"> </text>
<text text-anchor="start" x="285" y="-326.5" font-family="Helvetica,sans-Serif" font-size="10.00"> </text>
<polygon fill="#666666" stroke="#666666" points="268,-351.5 268,-351.5 306,-351.5 306,-351.5 268,-351.5"/>
<polygon fill="#666666" stroke="#666666" points="268,-336.5 268,-336.5 306,-336.5 306,-336.5 268,-336.5"/>
<polygon fill="none" stroke="#666666" points="268,-320 268,-369 306,-369 306,-320 268,-320"/>
</a>
</g>
</g>
<!-- Node4&#45;&gt;Node1 -->
<g id="edge3_Node000001_Node000004" class="edge">
<title>Node4&#45;&gt;Node1</title>
<g id="a_edge3_Node000001_Node000004"><a xlink:title=" ">
<path fill="none" stroke="#63b8ff" d="M283.01,-319.7C280.83,-298.28 281.35,-267.15 298,-247 384.13,-142.74 551.92,-119.79 647.29,-115.55"/>
<polygon fill="none" stroke="#63b8ff" points="647.41,-115.55 653.25,-111.33 659.4,-115.1 653.55,-119.32 647.41,-115.55"/>
</a>
</g>
<text text-anchor="middle" x="370" y="-294" font-family="Helvetica,sans-Serif" font-size="10.00" fill="grey"> #cameraAvailable</text>
<text text-anchor="middle" x="370" y="-283" font-family="Helvetica,sans-Serif" font-size="10.00" fill="grey">+captureSessionLoaded</text>
<text text-anchor="middle" x="370" y="-272" font-family="Helvetica,sans-Serif" font-size="10.00" fill="grey">+running</text>
<text text-anchor="start" x="298" y="-261" font-family="Helvetica,sans-Serif" font-size="10.00" fill="grey">+useAVCaptureVideoPreview</text>
<text text-anchor="middle" x="370" y="-250" font-family="Helvetica,sans-Serif" font-size="10.00" fill="grey">Layer</text>
</g>
<!-- Node5 -->
<g id="Node000005" class="node">
<title>Node5</title>
<g id="a_Node000005"><a xlink:title=" ">
<polygon fill="white" stroke="transparent" points="494.5,-369 387.5,-369 387.5,-320 494.5,-320 494.5,-369"/>
<text text-anchor="start" x="393" y="-356.5" font-family="Helvetica,sans-Serif" font-size="10.00">AVCaptureSession *</text>
<text text-anchor="start" x="439.5" y="-341.5" font-family="Helvetica,sans-Serif" font-size="10.00"> </text>
<text text-anchor="start" x="439.5" y="-326.5" font-family="Helvetica,sans-Serif" font-size="10.00"> </text>
<polygon fill="#666666" stroke="#666666" points="388,-351.5 388,-351.5 495,-351.5 495,-351.5 388,-351.5"/>
<polygon fill="#666666" stroke="#666666" points="388,-336.5 388,-336.5 495,-336.5 495,-336.5 388,-336.5"/>
<polygon fill="none" stroke="#666666" points="387.5,-320 387.5,-369 494.5,-369 494.5,-320 387.5,-320"/>
</a>
</g>
</g>
<!-- Node5&#45;&gt;Node1 -->
<g id="edge4_Node000001_Node000005" class="edge">
<title>Node5&#45;&gt;Node1</title>
<g id="a_edge4_Node000001_Node000005"><a xlink:title=" ">
<path fill="none" stroke="#63b8ff" d="M443.29,-319.66C446.41,-298.51 453.77,-267.81 471,-247 516.91,-191.54 592.45,-156.22 647.92,-136.31"/>
<polygon fill="none" stroke="#63b8ff" points="648.11,-136.25 652.46,-130.49 659.44,-132.29 655.09,-138.05 648.11,-136.25"/>
</a>
</g>
<text text-anchor="middle" x="514" y="-272" font-family="Helvetica,sans-Serif" font-size="10.00" fill="grey"> +captureSession</text>
</g>
<!-- Node6 -->
<g id="Node000006" class="node">
<title>Node6</title>
<g id="a_Node000006"><a xlink:title=" ">
<polygon fill="white" stroke="transparent" points="637.5,-369 512.5,-369 512.5,-320 637.5,-320 637.5,-369"/>
<text text-anchor="start" x="518" y="-356.5" font-family="Helvetica,sans-Serif" font-size="10.00">AVCaptureConnection *</text>
<text text-anchor="start" x="573.5" y="-341.5" font-family="Helvetica,sans-Serif" font-size="10.00"> </text>
<text text-anchor="start" x="573.5" y="-326.5" font-family="Helvetica,sans-Serif" font-size="10.00"> </text>
<polygon fill="#666666" stroke="#666666" points="513,-351.5 513,-351.5 638,-351.5 638,-351.5 513,-351.5"/>
<polygon fill="#666666" stroke="#666666" points="513,-336.5 513,-336.5 638,-336.5 638,-336.5 513,-336.5"/>
<polygon fill="none" stroke="#666666" points="512.5,-320 512.5,-369 637.5,-369 637.5,-320 512.5,-320"/>
</a>
</g>
</g>
<!-- Node6&#45;&gt;Node1 -->
<g id="edge5_Node000001_Node000006" class="edge">
<title>Node6&#45;&gt;Node1</title>
<g id="a_edge5_Node000001_Node000006"><a xlink:title=" ">
<path fill="none" stroke="#63b8ff" d="M567.15,-319.77C561.85,-299.53 557.53,-270.1 568,-247 584.96,-209.57 618.43,-178.59 649.45,-156.12"/>
<polygon fill="none" stroke="#63b8ff" points="649.59,-156.02 652.2,-149.3 659.41,-149.12 656.8,-155.84 649.59,-156.02"/>
</a>
</g>
<text text-anchor="middle" x="634" y="-272" font-family="Helvetica,sans-Serif" font-size="10.00" fill="grey"> +videoCaptureConnection</text>
</g>
<!-- Node7 -->
<g id="Node000007" class="node">
<title>Node7</title>
<g id="a_Node000007"><a xlink:title=" ">
<polygon fill="white" stroke="transparent" points="712.5,-369 689.5,-369 689.5,-320 712.5,-320 712.5,-369"/>
<text text-anchor="start" x="695" y="-356.5" font-family="Helvetica,sans-Serif" font-size="10.00">int</text>
<text text-anchor="start" x="699.5" y="-341.5" font-family="Helvetica,sans-Serif" font-size="10.00"> </text>
<text text-anchor="start" x="699.5" y="-326.5" font-family="Helvetica,sans-Serif" font-size="10.00"> </text>
<polygon fill="#666666" stroke="#666666" points="690,-351.5 690,-351.5 713,-351.5 713,-351.5 690,-351.5"/>
<polygon fill="#666666" stroke="#666666" points="690,-336.5 690,-336.5 713,-336.5 713,-336.5 690,-336.5"/>
<polygon fill="none" stroke="#666666" points="689.5,-320 689.5,-369 712.5,-369 712.5,-320 689.5,-320"/>
</a>
</g>
</g>
<!-- Node7&#45;&gt;Node1 -->
<g id="edge6_Node000001_Node000007" class="edge">
<title>Node7&#45;&gt;Node1</title>
<g id="a_edge6_Node000001_Node000007"><a xlink:title=" ">
<path fill="none" stroke="#63b8ff" d="M702.76,-319.96C704.2,-300.57 706.37,-271.45 708.63,-241.21"/>
<polygon fill="none" stroke="#63b8ff" points="708.64,-241.1 705.09,-234.82 709.53,-229.13 713.07,-235.41 708.64,-241.1"/>
</a>
</g>
<text text-anchor="middle" x="743" y="-283" font-family="Helvetica,sans-Serif" font-size="10.00" fill="grey"> +defaultFPS</text>
<text text-anchor="middle" x="743" y="-272" font-family="Helvetica,sans-Serif" font-size="10.00" fill="grey">+imageHeight</text>
<text text-anchor="middle" x="743" y="-261" font-family="Helvetica,sans-Serif" font-size="10.00" fill="grey">+imageWidth</text>
</g>
<!-- Node8 -->
<g id="Node000008" class="node">
<title>Node8</title>
<g id="a_Node000008"><a xlink:title=" ">
<polygon fill="white" stroke="transparent" points="895,-369 731,-369 731,-320 895,-320 895,-369"/>
<text text-anchor="start" x="736" y="-356.5" font-family="Helvetica,sans-Serif" font-size="10.00">AVCaptureVideoPreviewLayer *</text>
<text text-anchor="start" x="811" y="-341.5" font-family="Helvetica,sans-Serif" font-size="10.00"> </text>
<text text-anchor="start" x="811" y="-326.5" font-family="Helvetica,sans-Serif" font-size="10.00"> </text>
<polygon fill="#666666" stroke="#666666" points="731,-351.5 731,-351.5 895,-351.5 895,-351.5 731,-351.5"/>
<polygon fill="#666666" stroke="#666666" points="731,-336.5 731,-336.5 895,-336.5 895,-336.5 731,-336.5"/>
<polygon fill="none" stroke="#666666" points="731,-320 731,-369 895,-369 895,-320 731,-320"/>
</a>
</g>
</g>
<!-- Node8&#45;&gt;Node1 -->
<g id="edge7_Node000001_Node000008" class="edge">
<title>Node8&#45;&gt;Node1</title>
<g id="a_edge7_Node000001_Node000008"><a xlink:title=" ">
<path fill="none" stroke="#63b8ff" d="M806.74,-319.74C801.27,-299.98 792.7,-271.27 783,-247 782.11,-244.78 781.21,-242.55 780.28,-240.31"/>
<polygon fill="none" stroke="#63b8ff" points="780.18,-240.09 774.15,-236.13 775.49,-229.04 781.52,-233 780.18,-240.09"/>
</a>
</g>
<text text-anchor="middle" x="872" y="-272" font-family="Helvetica,sans-Serif" font-size="10.00" fill="grey"> +captureVideoPreviewLayer</text>
</g>
<!-- Node9 -->
<g id="Node000009" class="node">
<title>Node9</title>
<g id="a_Node000009"><a xlink:title=" ">
<polygon fill="white" stroke="transparent" points="1047,-369 913,-369 913,-320 1047,-320 1047,-369"/>
<text text-anchor="start" x="918" y="-356.5" font-family="Helvetica,sans-Serif" font-size="10.00">AVCaptureDevicePosition</text>
<text text-anchor="start" x="978" y="-341.5" font-family="Helvetica,sans-Serif" font-size="10.00"> </text>
<text text-anchor="start" x="978" y="-326.5" font-family="Helvetica,sans-Serif" font-size="10.00"> </text>
<polygon fill="#666666" stroke="#666666" points="913,-351.5 913,-351.5 1047,-351.5 1047,-351.5 913,-351.5"/>
<polygon fill="#666666" stroke="#666666" points="913,-336.5 913,-336.5 1047,-336.5 1047,-336.5 913,-336.5"/>
<polygon fill="none" stroke="#666666" points="913,-320 913,-369 1047,-369 1047,-320 913,-320"/>
</a>
</g>
</g>
<!-- Node9&#45;&gt;Node1 -->
<g id="edge8_Node000001_Node000009" class="edge">
<title>Node9&#45;&gt;Node1</title>
<g id="a_edge8_Node000001_Node000009"><a xlink:title=" ">
<path fill="none" stroke="#63b8ff" d="M976.72,-319.77C972.76,-298.69 964.35,-268.04 947,-247 905.24,-196.36 838.57,-161.23 787.9,-140.1"/>
<polygon fill="none" stroke="#63b8ff" points="787.82,-140.07 780.75,-141.51 776.7,-135.55 783.77,-134.1 787.82,-140.07"/>
</a>
</g>
<text text-anchor="middle" x="1057" y="-272" font-family="Helvetica,sans-Serif" font-size="10.00" fill="grey"> +defaultAVCaptureDevicePosition</text>
</g>
<!-- Node10 -->
<g id="Node000010" class="node">
<title>Node10</title>
<g id="a_Node000010"><a xlink:title=" ">
<polygon fill="white" stroke="transparent" points="1243,-369 1099,-369 1099,-320 1243,-320 1243,-369"/>
<text text-anchor="start" x="1104" y="-356.5" font-family="Helvetica,sans-Serif" font-size="10.00">AVCaptureVideoOrientation</text>
<text text-anchor="start" x="1169" y="-341.5" font-family="Helvetica,sans-Serif" font-size="10.00"> </text>
<text text-anchor="start" x="1169" y="-326.5" font-family="Helvetica,sans-Serif" font-size="10.00"> </text>
<polygon fill="#666666" stroke="#666666" points="1099,-351.5 1099,-351.5 1243,-351.5 1243,-351.5 1099,-351.5"/>
<polygon fill="#666666" stroke="#666666" points="1099,-336.5 1099,-336.5 1243,-336.5 1243,-336.5 1099,-336.5"/>
<polygon fill="none" stroke="#666666" points="1099,-320 1099,-369 1243,-369 1243,-320 1099,-320"/>
</a>
</g>
</g>
<!-- Node10&#45;&gt;Node1 -->
<g id="edge9_Node000001_Node000010" class="edge">
<title>Node10&#45;&gt;Node1</title>
<g id="a_edge9_Node000001_Node000010"><a xlink:title=" ">
<path fill="none" stroke="#63b8ff" d="M1171.08,-319.76C1169.86,-298.08 1164.66,-266.51 1146,-247 1051.17,-147.84 883.63,-122.9 788.74,-116.98"/>
<polygon fill="none" stroke="#63b8ff" points="788.67,-116.98 782.46,-120.64 776.69,-116.31 782.9,-112.65 788.67,-116.98"/>
</a>
</g>
<text text-anchor="middle" x="1258" y="-272" font-family="Helvetica,sans-Serif" font-size="10.00" fill="grey"> +defaultAVCaptureVideoOrientation</text>
</g>
<!-- Node11 -->
<g id="Node000011" class="node">
<title>Node11</title>
<g id="a_Node000011"><a xlink:title=" ">
<polygon fill="white" stroke="transparent" points="1417.5,-369 1330.5,-369 1330.5,-320 1417.5,-320 1417.5,-369"/>
<text text-anchor="start" x="1336" y="-356.5" font-family="Helvetica,sans-Serif" font-size="10.00">NSString *const</text>
<text text-anchor="start" x="1372.5" y="-341.5" font-family="Helvetica,sans-Serif" font-size="10.00"> </text>
<text text-anchor="start" x="1372.5" y="-326.5" font-family="Helvetica,sans-Serif" font-size="10.00"> </text>
<polygon fill="#666666" stroke="#666666" points="1331,-351.5 1331,-351.5 1418,-351.5 1418,-351.5 1331,-351.5"/>
<polygon fill="#666666" stroke="#666666" points="1331,-336.5 1331,-336.5 1418,-336.5 1418,-336.5 1331,-336.5"/>
<polygon fill="none" stroke="#666666" points="1330.5,-320 1330.5,-369 1417.5,-369 1417.5,-320 1330.5,-320"/>
</a>
</g>
</g>
<!-- Node11&#45;&gt;Node1 -->
<g id="edge10_Node000001_Node000011" class="edge">
<title>Node11&#45;&gt;Node1</title>
<g id="a_edge10_Node000001_Node000011"><a xlink:title=" ">
<path fill="none" stroke="#63b8ff" d="M1375.32,-319.84C1375.17,-297.9 1371.26,-265.89 1352,-247 1272.56,-169.11 936.95,-133.05 788.79,-120.7"/>
<polygon fill="none" stroke="#63b8ff" points="788.71,-120.7 782.41,-124.2 776.75,-119.72 783.06,-116.22 788.71,-120.7"/>
</a>
</g>
<text text-anchor="start" x="1374" y="-277.5" font-family="Helvetica,sans-Serif" font-size="10.00" fill="grey"> +defaultAVCaptureSession</text>
<text text-anchor="middle" x="1441.5" y="-266.5" font-family="Helvetica,sans-Serif" font-size="10.00" fill="grey">Preset</text>
</g>
<!-- Node12 -->
<g id="Node000012" class="node">
<title>Node12</title>
<g id="a_Node000012"><a xlink:title=" ">
<polygon fill="white" stroke="transparent" points="1558.5,-369 1505.5,-369 1505.5,-320 1558.5,-320 1558.5,-369"/>
<text text-anchor="start" x="1511" y="-356.5" font-family="Helvetica,sans-Serif" font-size="10.00">UIView *</text>
<text text-anchor="start" x="1530.5" y="-341.5" font-family="Helvetica,sans-Serif" font-size="10.00"> </text>
<text text-anchor="start" x="1530.5" y="-326.5" font-family="Helvetica,sans-Serif" font-size="10.00"> </text>
<polygon fill="#666666" stroke="#666666" points="1506,-351.5 1506,-351.5 1559,-351.5 1559,-351.5 1506,-351.5"/>
<polygon fill="#666666" stroke="#666666" points="1506,-336.5 1506,-336.5 1559,-336.5 1559,-336.5 1506,-336.5"/>
<polygon fill="none" stroke="#666666" points="1505.5,-320 1505.5,-369 1558.5,-369 1558.5,-320 1505.5,-320"/>
</a>
</g>
</g>
<!-- Node12&#45;&gt;Node1 -->
<g id="edge11_Node000001_Node000012" class="edge">
<title>Node12&#45;&gt;Node1</title>
<g id="a_edge11_Node000001_Node000012"><a xlink:title=" ">
<path fill="none" stroke="#63b8ff" d="M1533.48,-319.67C1533.46,-297.6 1529.64,-265.5 1510,-247 1406.28,-149.29 963.01,-123.77 788.75,-117.46"/>
<polygon fill="none" stroke="#63b8ff" points="788.67,-117.46 782.53,-121.25 776.68,-117.04 782.81,-113.25 788.67,-117.46"/>
</a>
</g>
<text text-anchor="middle" x="1565.5" y="-272" font-family="Helvetica,sans-Serif" font-size="10.00" fill="grey"> +parentView</text>
</g>
</g>
</svg>
