<?xml version="1.0" encoding="UTF-8" standalone="no"?>
<!DOCTYPE svg PUBLIC "-//W3C//DTD SVG 1.1//EN"
 "http://www.w3.org/Graphics/SVG/1.1/DTD/svg11.dtd">
<!-- Generated by graphviz version 2.43.0 (0)
 -->
<!-- Title: cv::util::bad_optional_access Pages: 1 -->
<svg width="120pt" height="153pt"
 viewBox="0.00 0.00 120.00 153.00" xmlns="http://www.w3.org/2000/svg" xmlns:xlink="http://www.w3.org/1999/xlink">
<g id="graph0" class="graph" transform="scale(1 1) rotate(0) translate(4 149)">
<title>cv::util::bad_optional_access</title>
<!-- Node1 -->
<g id="Node000001" class="node">
<title>Node1</title>
<g id="a_Node000001"><a xlink:title=" ">
<polygon fill="#999999" stroke="transparent" points="112,-60 0,-60 0,0 112,0 112,-60"/>
<text text-anchor="start" x="5" y="-48" font-family="Helvetica,sans-Serif" font-size="10.00">cv::util::bad_optional</text>
<text text-anchor="start" x="36.5" y="-37" font-family="Helvetica,sans-Serif" font-size="10.00">_access</text>
<text text-anchor="start" x="54" y="-22" font-family="Helvetica,sans-Serif" font-size="10.00"> </text>
<text text-anchor="start" x="18.5" y="-7" font-family="Helvetica,sans-Serif" font-size="10.00">+</text>
<text text-anchor="start" x="46" y="-7" font-family="Helvetica,sans-Serif" font-size="10.00">what()</text>
<polygon fill="#666666" stroke="#666666" points="0,-32 0,-32 112,-32 112,-32 0,-32"/>
<polygon fill="#666666" stroke="#666666" points="0,-17 0,-17 112,-17 112,-17 0,-17"/>
<polygon fill="none" stroke="#666666" points="0,0 0,-60 112,-60 112,0 0,0"/>
</a>
</g>
</g>
<!-- Node2 -->
<g id="Node000002" class="node">
<title>Node2</title>
<g id="a_Node000002"><a xlink:title=" ">
<polygon fill="white" stroke="transparent" points="96,-145 16,-145 16,-96 96,-96 96,-145"/>
<text text-anchor="start" x="21" y="-132.5" font-family="Helvetica,sans-Serif" font-size="10.00">std::exception</text>
<text text-anchor="start" x="54" y="-117.5" font-family="Helvetica,sans-Serif" font-size="10.00"> </text>
<text text-anchor="start" x="54" y="-102.5" font-family="Helvetica,sans-Serif" font-size="10.00"> </text>
<polygon fill="#666666" stroke="#666666" points="16,-127.5 16,-127.5 96,-127.5 96,-127.5 16,-127.5"/>
<polygon fill="#666666" stroke="#666666" points="16,-112.5 16,-112.5 96,-112.5 96,-112.5 16,-112.5"/>
<polygon fill="none" stroke="#666666" points="16,-96 16,-145 96,-145 96,-96 16,-96"/>
</a>
</g>
</g>
<!-- Node2&#45;&gt;Node1 -->
<g id="edge1_Node000001_Node000002" class="edge">
<title>Node2&#45;&gt;Node1</title>
<g id="a_edge1_Node000001_Node000002"><a xlink:title=" ">
<path fill="none" stroke="#63b8ff" d="M56,-85.55C56,-77.18 56,-68.28 56,-60.16"/>
<polygon fill="none" stroke="#63b8ff" points="52.5,-85.78 56,-95.78 59.5,-85.78 52.5,-85.78"/>
</a>
</g>
</g>
</g>
</svg>
