<?xml version="1.0" encoding="UTF-8" standalone="no"?>
<!DOCTYPE svg PUBLIC "-//W3C//DTD SVG 1.1//EN"
 "http://www.w3.org/Graphics/SVG/1.1/DTD/svg11.dtd">
<!-- Generated by graphviz version 2.43.0 (0)
 -->
<!-- Title: cv::gapi::onnx::ep::CoreML Pages: 1 -->
<svg width="203pt" height="231pt"
 viewBox="0.00 0.00 202.50 231.00" xmlns="http://www.w3.org/2000/svg" xmlns:xlink="http://www.w3.org/1999/xlink">
<g id="graph0" class="graph" transform="scale(1 1) rotate(0) translate(4 227)">
<title>cv::gapi::onnx::ep::CoreML</title>
<!-- Node1 -->
<g id="Node000001" class="node">
<title>Node1</title>
<g id="a_Node000001"><a xlink:title="This structure provides functions that fill inference options for ONNX CoreML Execution Provider....">
<polygon fill="#999999" stroke="transparent" points="165,-105 0,-105 0,0 165,0 165,-105"/>
<text text-anchor="start" x="40" y="-92.5" font-family="Helvetica,sans-Serif" font-size="10.00">cv::gapi::onnx::ep</text>
<text text-anchor="start" x="61.5" y="-81.5" font-family="Helvetica,sans-Serif" font-size="10.00">::CoreML</text>
<text text-anchor="start" x="81" y="-66.5" font-family="Helvetica,sans-Serif" font-size="10.00"> </text>
<text text-anchor="start" x="4.5" y="-51.5" font-family="Helvetica,sans-Serif" font-size="10.00">+</text>
<text text-anchor="start" x="17.5" y="-51.5" font-family="Helvetica,sans-Serif" font-size="10.00">CoreML()</text>
<text text-anchor="start" x="4.5" y="-36.5" font-family="Helvetica,sans-Serif" font-size="10.00">+</text>
<text text-anchor="start" x="17.5" y="-36.5" font-family="Helvetica,sans-Serif" font-size="10.00">cfgEnableOnlyNeuralEngine()</text>
<text text-anchor="start" x="4.5" y="-21.5" font-family="Helvetica,sans-Serif" font-size="10.00">+</text>
<text text-anchor="start" x="17.5" y="-21.5" font-family="Helvetica,sans-Serif" font-size="10.00">cfgEnableOnSubgraph()</text>
<text text-anchor="start" x="4.5" y="-6.5" font-family="Helvetica,sans-Serif" font-size="10.00">+</text>
<text text-anchor="start" x="17.5" y="-6.5" font-family="Helvetica,sans-Serif" font-size="10.00">cfgUseCPUOnly()</text>
<polygon fill="#666666" stroke="#666666" points="0.5,-76.5 0.5,-76.5 165.5,-76.5 165.5,-76.5 0.5,-76.5"/>
<polygon fill="#666666" stroke="#666666" points="0.5,-61.5 0.5,-61.5 165.5,-61.5 165.5,-61.5 0.5,-61.5"/>
<polygon fill="none" stroke="#666666" points="0,0 0,-105 165,-105 165,0 0,0"/>
</a>
</g>
</g>
<!-- Node2 -->
<g id="Node000002" class="node">
<title>Node2</title>
<g id="a_Node000002"><a xlink:title=" ">
<polygon fill="white" stroke="transparent" points="98.5,-223 66.5,-223 66.5,-174 98.5,-174 98.5,-223"/>
<text text-anchor="start" x="71.5" y="-210.5" font-family="Helvetica,sans-Serif" font-size="10.00">bool</text>
<text text-anchor="start" x="80.5" y="-195.5" font-family="Helvetica,sans-Serif" font-size="10.00"> </text>
<text text-anchor="start" x="80.5" y="-180.5" font-family="Helvetica,sans-Serif" font-size="10.00"> </text>
<polygon fill="#666666" stroke="#666666" points="66.5,-205.5 66.5,-205.5 98.5,-205.5 98.5,-205.5 66.5,-205.5"/>
<polygon fill="#666666" stroke="#666666" points="66.5,-190.5 66.5,-190.5 98.5,-190.5 98.5,-190.5 66.5,-190.5"/>
<polygon fill="none" stroke="#666666" points="66.5,-174 66.5,-223 98.5,-223 98.5,-174 66.5,-174"/>
</a>
</g>
</g>
<!-- Node2&#45;&gt;Node1 -->
<g id="edge1_Node000001_Node000002" class="edge">
<title>Node2&#45;&gt;Node1</title>
<g id="a_edge1_Node000001_Node000002"><a xlink:title=" ">
<path fill="none" stroke="#63b8ff" d="M82.5,-173.72C82.5,-158.23 82.5,-137.24 82.5,-117.13"/>
<polygon fill="none" stroke="#63b8ff" points="82.5,-117.11 78.5,-111.11 82.5,-105.11 86.5,-111.11 82.5,-117.11"/>
</a>
</g>
<text text-anchor="middle" x="138.5" y="-148" font-family="Helvetica,sans-Serif" font-size="10.00" fill="grey"> +enable_on_subgraph</text>
<text text-anchor="middle" x="138.5" y="-137" font-family="Helvetica,sans-Serif" font-size="10.00" fill="grey">+enable_only_ane</text>
<text text-anchor="middle" x="138.5" y="-126" font-family="Helvetica,sans-Serif" font-size="10.00" fill="grey">+use_cpu_only</text>
</g>
</g>
</svg>
