<?xml version="1.0" encoding="UTF-8" standalone="no"?>
<!DOCTYPE svg PUBLIC "-//W3C//DTD SVG 1.1//EN"
 "http://www.w3.org/Graphics/SVG/1.1/DTD/svg11.dtd">
<!-- Generated by graphviz version 2.43.0 (0)
 -->
<!-- Title: cv::ximgproc::segmentation::SelectiveSearchSegmentationStrategyTexture Pages: 1 -->
<svg width="212pt" height="485pt"
 viewBox="0.00 0.00 212.00 485.00" xmlns="http://www.w3.org/2000/svg" xmlns:xlink="http://www.w3.org/1999/xlink">
<g id="graph0" class="graph" transform="scale(1 1) rotate(0) translate(4 481)">
<title>cv::ximgproc::segmentation::SelectiveSearchSegmentationStrategyTexture</title>
<!-- Node1 -->
<g id="Node000001" class="node">
<title>Node1</title>
<g id="a_Node000001"><a xlink:title="Texture&#45;based strategy for the selective search segmentation algorithm The class is implemented from ...">
<polygon fill="#999999" stroke="transparent" points="204,-71 0,-71 0,0 204,0 204,-71"/>
<text text-anchor="start" x="5" y="-58.5" font-family="Helvetica,sans-Serif" font-size="10.00">cv::ximgproc::segmentation</text>
<text text-anchor="start" x="5" y="-47.5" font-family="Helvetica,sans-Serif" font-size="10.00">::SelectiveSearchSegmentationStrategy</text>
<text text-anchor="start" x="83.5" y="-36.5" font-family="Helvetica,sans-Serif" font-size="10.00">Texture</text>
<text text-anchor="start" x="100" y="-21.5" font-family="Helvetica,sans-Serif" font-size="10.00"> </text>
<text text-anchor="start" x="100" y="-6.5" font-family="Helvetica,sans-Serif" font-size="10.00"> </text>
<polygon fill="#666666" stroke="#666666" points="0,-31.5 0,-31.5 204,-31.5 204,-31.5 0,-31.5"/>
<polygon fill="#666666" stroke="#666666" points="0,-16.5 0,-16.5 204,-16.5 204,-16.5 0,-16.5"/>
<polygon fill="none" stroke="#666666" points="0,0 0,-71 204,-71 204,0 0,0"/>
</a>
</g>
</g>
<!-- Node2 -->
<g id="Node000002" class="node">
<title>Node2</title>
<g id="a_Node000002"><a xlink:href="../../dc/d7a/classcv_1_1ximgproc_1_1segmentation_1_1SelectiveSearchSegmentationStrategy.html" target="_top" xlink:title="Strategie for the selective search segmentation algorithm The class implements a generic stragery for...">
<polygon fill="white" stroke="transparent" points="204,-197 0,-197 0,-107 204,-107 204,-197"/>
<text text-anchor="start" x="5" y="-185" font-family="Helvetica,sans-Serif" font-size="10.00">cv::ximgproc::segmentation</text>
<text text-anchor="start" x="5" y="-174" font-family="Helvetica,sans-Serif" font-size="10.00">::SelectiveSearchSegmentationStrategy</text>
<text text-anchor="start" x="100" y="-159" font-family="Helvetica,sans-Serif" font-size="10.00"> </text>
<text text-anchor="start" x="36" y="-144" font-family="Helvetica,sans-Serif" font-size="10.00">+</text>
<text text-anchor="start" x="81" y="-144" font-family="Helvetica,sans-Serif" font-size="10.00">get()</text>
<text text-anchor="start" x="36" y="-129" font-family="Helvetica,sans-Serif" font-size="10.00">+</text>
<text text-anchor="start" x="81" y="-129" font-family="Helvetica,sans-Serif" font-size="10.00">merge()</text>
<text text-anchor="start" x="36" y="-114" font-family="Helvetica,sans-Serif" font-size="10.00">+</text>
<text text-anchor="start" x="81" y="-114" font-family="Helvetica,sans-Serif" font-size="10.00">setImage()</text>
<polygon fill="#666666" stroke="#666666" points="0,-169 0,-169 204,-169 204,-169 0,-169"/>
<polygon fill="#666666" stroke="#666666" points="0,-154 0,-154 204,-154 204,-154 0,-154"/>
<polygon fill="none" stroke="#666666" points="0,-107 0,-197 204,-197 204,-107 0,-107"/>
</a>
</g>
</g>
<!-- Node2&#45;&gt;Node1 -->
<g id="edge1_Node000001_Node000002" class="edge">
<title>Node2&#45;&gt;Node1</title>
<g id="a_edge1_Node000001_Node000002"><a xlink:title=" ">
<path fill="none" stroke="#63b8ff" d="M102,-96.61C102,-87.92 102,-79.13 102,-71.06"/>
<polygon fill="none" stroke="#63b8ff" points="98.5,-96.73 102,-106.73 105.5,-96.73 98.5,-96.73"/>
</a>
</g>
</g>
<!-- Node3 -->
<g id="Node000003" class="node">
<title>Node3</title>
<g id="a_Node000003"><a xlink:href="../../d3/d46/classcv_1_1Algorithm.html" target="_top" xlink:title="This is a base class for all more or less complex algorithms in OpenCV.">
<polygon fill="white" stroke="transparent" points="157,-477 47,-477 47,-233 157,-233 157,-477"/>
<text text-anchor="start" x="69.5" y="-465" font-family="Helvetica,sans-Serif" font-size="10.00">cv::Algorithm</text>
<text text-anchor="start" x="100" y="-450" font-family="Helvetica,sans-Serif" font-size="10.00"> </text>
<text text-anchor="start" x="51" y="-435" font-family="Helvetica,sans-Serif" font-size="10.00">+</text>
<text text-anchor="start" x="64" y="-435" font-family="Helvetica,sans-Serif" font-size="10.00">Algorithm()</text>
<text text-anchor="start" x="51" y="-420" font-family="Helvetica,sans-Serif" font-size="10.00">+</text>
<text text-anchor="start" x="64" y="-420" font-family="Helvetica,sans-Serif" font-size="10.00">~Algorithm()</text>
<text text-anchor="start" x="51" y="-405" font-family="Helvetica,sans-Serif" font-size="10.00">+</text>
<text text-anchor="start" x="64" y="-405" font-family="Helvetica,sans-Serif" font-size="10.00">clear()</text>
<text text-anchor="start" x="51" y="-390" font-family="Helvetica,sans-Serif" font-size="10.00">+</text>
<text text-anchor="start" x="64" y="-390" font-family="Helvetica,sans-Serif" font-size="10.00">empty()</text>
<text text-anchor="start" x="51" y="-375" font-family="Helvetica,sans-Serif" font-size="10.00">+</text>
<text text-anchor="start" x="64" y="-375" font-family="Helvetica,sans-Serif" font-size="10.00">getDefaultName()</text>
<text text-anchor="start" x="51" y="-360" font-family="Helvetica,sans-Serif" font-size="10.00">+</text>
<text text-anchor="start" x="64" y="-360" font-family="Helvetica,sans-Serif" font-size="10.00">read()</text>
<text text-anchor="start" x="51" y="-345" font-family="Helvetica,sans-Serif" font-size="10.00">+</text>
<text text-anchor="start" x="64" y="-345" font-family="Helvetica,sans-Serif" font-size="10.00">save()</text>
<text text-anchor="start" x="51" y="-330" font-family="Helvetica,sans-Serif" font-size="10.00">+</text>
<text text-anchor="start" x="64" y="-330" font-family="Helvetica,sans-Serif" font-size="10.00">write()</text>
<text text-anchor="start" x="51" y="-315" font-family="Helvetica,sans-Serif" font-size="10.00">+</text>
<text text-anchor="start" x="64" y="-315" font-family="Helvetica,sans-Serif" font-size="10.00">write()</text>
<text text-anchor="start" x="51" y="-300" font-family="Helvetica,sans-Serif" font-size="10.00">+</text>
<text text-anchor="start" x="64" y="-300" font-family="Helvetica,sans-Serif" font-size="10.00">write()</text>
<text text-anchor="start" x="51" y="-285" font-family="Helvetica,sans-Serif" font-size="10.00">+</text>
<text text-anchor="start" x="64" y="-285" font-family="Helvetica,sans-Serif" font-size="10.00">load()</text>
<text text-anchor="start" x="51" y="-270" font-family="Helvetica,sans-Serif" font-size="10.00">+</text>
<text text-anchor="start" x="64" y="-270" font-family="Helvetica,sans-Serif" font-size="10.00">loadFromString()</text>
<text text-anchor="start" x="51" y="-255" font-family="Helvetica,sans-Serif" font-size="10.00">+</text>
<text text-anchor="start" x="64" y="-255" font-family="Helvetica,sans-Serif" font-size="10.00">read()</text>
<text text-anchor="start" x="51" y="-240" font-family="Helvetica,sans-Serif" font-size="10.00">#</text>
<text text-anchor="start" x="64" y="-240" font-family="Helvetica,sans-Serif" font-size="10.00">writeFormat()</text>
<polygon fill="#666666" stroke="#666666" points="47,-460 47,-460 157,-460 157,-460 47,-460"/>
<polygon fill="#666666" stroke="#666666" points="47,-445 47,-445 157,-445 157,-445 47,-445"/>
<polygon fill="none" stroke="#666666" points="47,-233 47,-477 157,-477 157,-233 47,-233"/>
</a>
</g>
</g>
<!-- Node3&#45;&gt;Node2 -->
<g id="edge2_Node000002_Node000003" class="edge">
<title>Node3&#45;&gt;Node2</title>
<g id="a_edge2_Node000002_Node000003"><a xlink:title=" ">
<path fill="none" stroke="#63b8ff" d="M102,-222.51C102,-213.58 102,-205.01 102,-197.13"/>
<polygon fill="none" stroke="#63b8ff" points="98.5,-222.73 102,-232.73 105.5,-222.73 98.5,-222.73"/>
</a>
</g>
</g>
</g>
</svg>
