<?xml version="1.0" encoding="UTF-8" standalone="no"?>
<!DOCTYPE svg PUBLIC "-//W3C//DTD SVG 1.1//EN"
 "http://www.w3.org/Graphics/SVG/1.1/DTD/svg11.dtd">
<!-- Generated by graphviz version 2.43.0 (0)
 -->
<!-- Title: cv::detail::tracking::TrackerStateEstimatorAdaBoosting::TrackerAdaBoostingTargetState Pages: 1 -->
<svg width="245pt" height="1096pt"
 viewBox="0.00 0.00 245.00 1096.00" xmlns="http://www.w3.org/2000/svg" xmlns:xlink="http://www.w3.org/1999/xlink">
<g id="graph0" class="graph" transform="scale(1 1) rotate(0) translate(4 1092)">
<title>cv::detail::tracking::TrackerStateEstimatorAdaBoosting::TrackerAdaBoostingTargetState</title>
<!-- Node1 -->
<g id="Node000001" class="node">
<title>Node1</title>
<g id="a_Node000001"><a xlink:title="Implementation of the target state for TrackerAdaBoostingTargetState.">
<polygon fill="#999999" stroke="transparent" points="219,-168 34,-168 34,0 219,0 219,-168"/>
<text text-anchor="start" x="39.5" y="-156" font-family="Helvetica,sans-Serif" font-size="10.00">cv::detail::tracking</text>
<text text-anchor="start" x="39.5" y="-145" font-family="Helvetica,sans-Serif" font-size="10.00">::TrackerStateEstimatorAdaBoosting</text>
<text text-anchor="start" x="48" y="-134" font-family="Helvetica,sans-Serif" font-size="10.00">::TrackerAdaBoostingTargetState</text>
<text text-anchor="start" x="125" y="-119" font-family="Helvetica,sans-Serif" font-size="10.00"> </text>
<text text-anchor="start" x="45.5" y="-104" font-family="Helvetica,sans-Serif" font-size="10.00">+</text>
<text text-anchor="start" x="65.5" y="-104" font-family="Helvetica,sans-Serif" font-size="10.00">TrackerAdaBoostingTarget</text>
<text text-anchor="start" x="65.5" y="-93" font-family="Helvetica,sans-Serif" font-size="10.00">State()</text>
<text text-anchor="start" x="45.5" y="-78" font-family="Helvetica,sans-Serif" font-size="10.00">+</text>
<text text-anchor="start" x="65.5" y="-78" font-family="Helvetica,sans-Serif" font-size="10.00">~TrackerAdaBoostingTarget</text>
<text text-anchor="start" x="65.5" y="-67" font-family="Helvetica,sans-Serif" font-size="10.00">State()</text>
<text text-anchor="start" x="45.5" y="-52" font-family="Helvetica,sans-Serif" font-size="10.00">+</text>
<text text-anchor="start" x="65.5" y="-52" font-family="Helvetica,sans-Serif" font-size="10.00">getTargetResponses()</text>
<text text-anchor="start" x="45.5" y="-37" font-family="Helvetica,sans-Serif" font-size="10.00">+</text>
<text text-anchor="start" x="65.5" y="-37" font-family="Helvetica,sans-Serif" font-size="10.00">isTargetFg()</text>
<text text-anchor="start" x="45.5" y="-22" font-family="Helvetica,sans-Serif" font-size="10.00">+</text>
<text text-anchor="start" x="65.5" y="-22" font-family="Helvetica,sans-Serif" font-size="10.00">setTargetFg()</text>
<text text-anchor="start" x="45.5" y="-7" font-family="Helvetica,sans-Serif" font-size="10.00">+</text>
<text text-anchor="start" x="65.5" y="-7" font-family="Helvetica,sans-Serif" font-size="10.00">setTargetResponses()</text>
<polygon fill="#666666" stroke="#666666" points="34.5,-129 34.5,-129 219.5,-129 219.5,-129 34.5,-129"/>
<polygon fill="#666666" stroke="#666666" points="34.5,-114 34.5,-114 219.5,-114 219.5,-114 34.5,-114"/>
<polygon fill="none" stroke="#666666" points="34,0 34,-168 219,-168 219,0 34,0"/>
</a>
</g>
</g>
<!-- Node2 -->
<g id="Node000002" class="node">
<title>Node2</title>
<g id="a_Node000002"><a xlink:href="../../da/d1b/classcv_1_1detail_1_1tracking_1_1TrackerTargetState.html" target="_top" xlink:title="Abstract base class for TrackerTargetState that represents a possible state of the target.">
<polygon fill="white" stroke="transparent" points="190,-355 63,-355 63,-205 190,-205 190,-355"/>
<text text-anchor="start" x="78.5" y="-343" font-family="Helvetica,sans-Serif" font-size="10.00">cv::detail::tracking</text>
<text text-anchor="start" x="78.5" y="-332" font-family="Helvetica,sans-Serif" font-size="10.00">::TrackerTargetState</text>
<text text-anchor="start" x="125" y="-317" font-family="Helvetica,sans-Serif" font-size="10.00"> </text>
<text text-anchor="start" x="67.5" y="-302" font-family="Helvetica,sans-Serif" font-size="10.00">+</text>
<text text-anchor="start" x="80.5" y="-302" font-family="Helvetica,sans-Serif" font-size="10.00">~TrackerTargetState()</text>
<text text-anchor="start" x="67.5" y="-287" font-family="Helvetica,sans-Serif" font-size="10.00">+</text>
<text text-anchor="start" x="80.5" y="-287" font-family="Helvetica,sans-Serif" font-size="10.00">getTargetHeight()</text>
<text text-anchor="start" x="67.5" y="-272" font-family="Helvetica,sans-Serif" font-size="10.00">+</text>
<text text-anchor="start" x="80.5" y="-272" font-family="Helvetica,sans-Serif" font-size="10.00">getTargetPosition()</text>
<text text-anchor="start" x="67.5" y="-257" font-family="Helvetica,sans-Serif" font-size="10.00">+</text>
<text text-anchor="start" x="80.5" y="-257" font-family="Helvetica,sans-Serif" font-size="10.00">getTargetWidth()</text>
<text text-anchor="start" x="67.5" y="-242" font-family="Helvetica,sans-Serif" font-size="10.00">+</text>
<text text-anchor="start" x="80.5" y="-242" font-family="Helvetica,sans-Serif" font-size="10.00">setTargetHeight()</text>
<text text-anchor="start" x="67.5" y="-227" font-family="Helvetica,sans-Serif" font-size="10.00">+</text>
<text text-anchor="start" x="80.5" y="-227" font-family="Helvetica,sans-Serif" font-size="10.00">setTargetPosition()</text>
<text text-anchor="start" x="67.5" y="-212" font-family="Helvetica,sans-Serif" font-size="10.00">+</text>
<text text-anchor="start" x="80.5" y="-212" font-family="Helvetica,sans-Serif" font-size="10.00">setTargetWidth()</text>
<polygon fill="#666666" stroke="#666666" points="63.5,-327 63.5,-327 190.5,-327 190.5,-327 63.5,-327"/>
<polygon fill="#666666" stroke="#666666" points="63.5,-312 63.5,-312 190.5,-312 190.5,-312 63.5,-312"/>
<polygon fill="none" stroke="#666666" points="63,-205 63,-355 190,-355 190,-205 63,-205"/>
</a>
</g>
</g>
<!-- Node2&#45;&gt;Node1 -->
<g id="edge1_Node000001_Node000002" class="edge">
<title>Node2&#45;&gt;Node1</title>
<g id="a_edge1_Node000001_Node000002"><a xlink:title=" ">
<path fill="none" stroke="#63b8ff" d="M126.5,-194.62C126.5,-185.85 126.5,-176.95 126.5,-168.2"/>
<polygon fill="none" stroke="#63b8ff" points="123,-194.83 126.5,-204.83 130,-194.83 123,-194.83"/>
</a>
</g>
</g>
<!-- Node3 -->
<g id="Node000003" class="node">
<title>Node3</title>
<g id="a_Node000003"><a xlink:href="../../db/d4e/classcv_1_1Point__.html" target="_top" xlink:title=" ">
<polygon fill="white" stroke="transparent" points="149,-668 0,-668 0,-413 149,-413 149,-668"/>
<text text-anchor="start" x="29.5" y="-655.5" font-family="Helvetica,sans-Serif" font-size="10.00">cv::Point_&lt; float &gt;</text>
<text text-anchor="start" x="73" y="-640.5" font-family="Helvetica,sans-Serif" font-size="10.00"> </text>
<text text-anchor="start" x="4.5" y="-625.5" font-family="Helvetica,sans-Serif" font-size="10.00">+</text>
<text text-anchor="start" x="17.5" y="-625.5" font-family="Helvetica,sans-Serif" font-size="10.00">Point_()</text>
<text text-anchor="start" x="4.5" y="-610.5" font-family="Helvetica,sans-Serif" font-size="10.00">+</text>
<text text-anchor="start" x="17.5" y="-610.5" font-family="Helvetica,sans-Serif" font-size="10.00">Point_()</text>
<text text-anchor="start" x="4.5" y="-595.5" font-family="Helvetica,sans-Serif" font-size="10.00">+</text>
<text text-anchor="start" x="17.5" y="-595.5" font-family="Helvetica,sans-Serif" font-size="10.00">Point_()</text>
<text text-anchor="start" x="4.5" y="-580.5" font-family="Helvetica,sans-Serif" font-size="10.00">+</text>
<text text-anchor="start" x="17.5" y="-580.5" font-family="Helvetica,sans-Serif" font-size="10.00">Point_()</text>
<text text-anchor="start" x="4.5" y="-565.5" font-family="Helvetica,sans-Serif" font-size="10.00">+</text>
<text text-anchor="start" x="17.5" y="-565.5" font-family="Helvetica,sans-Serif" font-size="10.00">Point_()</text>
<text text-anchor="start" x="4.5" y="-550.5" font-family="Helvetica,sans-Serif" font-size="10.00">+</text>
<text text-anchor="start" x="17.5" y="-550.5" font-family="Helvetica,sans-Serif" font-size="10.00">Point_()</text>
<text text-anchor="start" x="4.5" y="-535.5" font-family="Helvetica,sans-Serif" font-size="10.00">+</text>
<text text-anchor="start" x="17.5" y="-535.5" font-family="Helvetica,sans-Serif" font-size="10.00">cross()</text>
<text text-anchor="start" x="4.5" y="-520.5" font-family="Helvetica,sans-Serif" font-size="10.00">+</text>
<text text-anchor="start" x="17.5" y="-520.5" font-family="Helvetica,sans-Serif" font-size="10.00">ddot()</text>
<text text-anchor="start" x="4.5" y="-505.5" font-family="Helvetica,sans-Serif" font-size="10.00">+</text>
<text text-anchor="start" x="17.5" y="-505.5" font-family="Helvetica,sans-Serif" font-size="10.00">dot()</text>
<text text-anchor="start" x="4.5" y="-490.5" font-family="Helvetica,sans-Serif" font-size="10.00">+</text>
<text text-anchor="start" x="17.5" y="-490.5" font-family="Helvetica,sans-Serif" font-size="10.00">inside()</text>
<text text-anchor="start" x="4.5" y="-475.5" font-family="Helvetica,sans-Serif" font-size="10.00">+</text>
<text text-anchor="start" x="17.5" y="-475.5" font-family="Helvetica,sans-Serif" font-size="10.00">operator Point_&lt; _Tp2 &gt;()</text>
<text text-anchor="start" x="4.5" y="-460.5" font-family="Helvetica,sans-Serif" font-size="10.00">+</text>
<text text-anchor="start" x="17.5" y="-460.5" font-family="Helvetica,sans-Serif" font-size="10.00">operator Vec&lt; float,</text>
<text text-anchor="start" x="17.5" y="-449.5" font-family="Helvetica,sans-Serif" font-size="10.00"> 2 &gt;()</text>
<text text-anchor="start" x="4.5" y="-434.5" font-family="Helvetica,sans-Serif" font-size="10.00">+</text>
<text text-anchor="start" x="17.5" y="-434.5" font-family="Helvetica,sans-Serif" font-size="10.00">operator=()</text>
<text text-anchor="start" x="4.5" y="-419.5" font-family="Helvetica,sans-Serif" font-size="10.00">+</text>
<text text-anchor="start" x="17.5" y="-419.5" font-family="Helvetica,sans-Serif" font-size="10.00">operator=()</text>
<polygon fill="#666666" stroke="#666666" points="0.5,-650.5 0.5,-650.5 149.5,-650.5 149.5,-650.5 0.5,-650.5"/>
<polygon fill="#666666" stroke="#666666" points="0.5,-635.5 0.5,-635.5 149.5,-635.5 149.5,-635.5 0.5,-635.5"/>
<polygon fill="none" stroke="#666666" points="0,-413 0,-668 149,-668 149,-413 0,-413"/>
</a>
</g>
</g>
<!-- Node3&#45;&gt;Node2 -->
<g id="edge2_Node000002_Node000003" class="edge">
<title>Node3&#45;&gt;Node2</title>
<g id="a_edge2_Node000002_Node000003"><a xlink:title=" ">
<path fill="none" stroke="#63b8ff" d="M69.61,-412.73C70.98,-399.19 73.18,-385.73 76.5,-373 77.06,-370.85 77.68,-368.7 78.35,-366.54"/>
<polygon fill="none" stroke="#63b8ff" points="78.41,-366.38 76.65,-359.39 82.43,-355.07 84.19,-362.06 78.41,-366.38"/>
</a>
</g>
<text text-anchor="middle" x="116.5" y="-381.5" font-family="Helvetica,sans-Serif" font-size="10.00" fill="grey"> #targetPosition</text>
</g>
<!-- Node4 -->
<g id="Node000004" class="node">
<title>Node4</title>
<g id="a_Node000004"><a xlink:title=" ">
<polygon fill="white" stroke="transparent" points="70.5,-878 38.5,-878 38.5,-829 70.5,-829 70.5,-878"/>
<text text-anchor="start" x="43.5" y="-865.5" font-family="Helvetica,sans-Serif" font-size="10.00">float</text>
<text text-anchor="start" x="52.5" y="-850.5" font-family="Helvetica,sans-Serif" font-size="10.00"> </text>
<text text-anchor="start" x="52.5" y="-835.5" font-family="Helvetica,sans-Serif" font-size="10.00"> </text>
<polygon fill="#666666" stroke="#666666" points="38.5,-860.5 38.5,-860.5 70.5,-860.5 70.5,-860.5 38.5,-860.5"/>
<polygon fill="#666666" stroke="#666666" points="38.5,-845.5 38.5,-845.5 70.5,-845.5 70.5,-845.5 38.5,-845.5"/>
<polygon fill="none" stroke="#666666" points="38.5,-829 38.5,-878 70.5,-878 70.5,-829 38.5,-829"/>
</a>
</g>
</g>
<!-- Node4&#45;&gt;Node3 -->
<g id="edge3_Node000003_Node000004" class="edge">
<title>Node4&#45;&gt;Node3</title>
<g id="a_edge3_Node000003_Node000004"><a xlink:title=" ">
<path fill="none" stroke="#63b8ff" d="M56.02,-828.87C58.08,-796.84 61.92,-737.13 65.57,-680.39"/>
<polygon fill="none" stroke="#63b8ff" points="65.57,-680.32 61.97,-674.07 66.34,-668.34 69.95,-674.59 65.57,-680.32"/>
</a>
</g>
<text text-anchor="middle" x="74.5" y="-700" font-family="Helvetica,sans-Serif" font-size="10.00" fill="grey"> +x</text>
<text text-anchor="middle" x="74.5" y="-689" font-family="Helvetica,sans-Serif" font-size="10.00" fill="grey">+y</text>
</g>
<!-- Node5 -->
<g id="Node000005" class="node">
<title>Node5</title>
<g id="a_Node000005"><a xlink:href="../../db/d4e/classcv_1_1Point__.html" target="_top" xlink:title="Template class for 2D points specified by its coordinates x and y.">
<polygon fill="white" stroke="transparent" points="237,-981 88,-981 88,-726 237,-726 237,-981"/>
<text text-anchor="start" x="119.5" y="-968.5" font-family="Helvetica,sans-Serif" font-size="10.00">cv::Point_&lt; _Tp &gt;</text>
<text text-anchor="start" x="161" y="-953.5" font-family="Helvetica,sans-Serif" font-size="10.00"> </text>
<text text-anchor="start" x="92.5" y="-938.5" font-family="Helvetica,sans-Serif" font-size="10.00">+</text>
<text text-anchor="start" x="105.5" y="-938.5" font-family="Helvetica,sans-Serif" font-size="10.00">Point_()</text>
<text text-anchor="start" x="92.5" y="-923.5" font-family="Helvetica,sans-Serif" font-size="10.00">+</text>
<text text-anchor="start" x="105.5" y="-923.5" font-family="Helvetica,sans-Serif" font-size="10.00">Point_()</text>
<text text-anchor="start" x="92.5" y="-908.5" font-family="Helvetica,sans-Serif" font-size="10.00">+</text>
<text text-anchor="start" x="105.5" y="-908.5" font-family="Helvetica,sans-Serif" font-size="10.00">Point_()</text>
<text text-anchor="start" x="92.5" y="-893.5" font-family="Helvetica,sans-Serif" font-size="10.00">+</text>
<text text-anchor="start" x="105.5" y="-893.5" font-family="Helvetica,sans-Serif" font-size="10.00">Point_()</text>
<text text-anchor="start" x="92.5" y="-878.5" font-family="Helvetica,sans-Serif" font-size="10.00">+</text>
<text text-anchor="start" x="105.5" y="-878.5" font-family="Helvetica,sans-Serif" font-size="10.00">Point_()</text>
<text text-anchor="start" x="92.5" y="-863.5" font-family="Helvetica,sans-Serif" font-size="10.00">+</text>
<text text-anchor="start" x="105.5" y="-863.5" font-family="Helvetica,sans-Serif" font-size="10.00">Point_()</text>
<text text-anchor="start" x="92.5" y="-848.5" font-family="Helvetica,sans-Serif" font-size="10.00">+</text>
<text text-anchor="start" x="105.5" y="-848.5" font-family="Helvetica,sans-Serif" font-size="10.00">cross()</text>
<text text-anchor="start" x="92.5" y="-833.5" font-family="Helvetica,sans-Serif" font-size="10.00">+</text>
<text text-anchor="start" x="105.5" y="-833.5" font-family="Helvetica,sans-Serif" font-size="10.00">ddot()</text>
<text text-anchor="start" x="92.5" y="-818.5" font-family="Helvetica,sans-Serif" font-size="10.00">+</text>
<text text-anchor="start" x="105.5" y="-818.5" font-family="Helvetica,sans-Serif" font-size="10.00">dot()</text>
<text text-anchor="start" x="92.5" y="-803.5" font-family="Helvetica,sans-Serif" font-size="10.00">+</text>
<text text-anchor="start" x="105.5" y="-803.5" font-family="Helvetica,sans-Serif" font-size="10.00">inside()</text>
<text text-anchor="start" x="92.5" y="-788.5" font-family="Helvetica,sans-Serif" font-size="10.00">+</text>
<text text-anchor="start" x="105.5" y="-788.5" font-family="Helvetica,sans-Serif" font-size="10.00">operator Point_&lt; _Tp2 &gt;()</text>
<text text-anchor="start" x="92.5" y="-773.5" font-family="Helvetica,sans-Serif" font-size="10.00">+</text>
<text text-anchor="start" x="105.5" y="-773.5" font-family="Helvetica,sans-Serif" font-size="10.00">operator Vec&lt; _Tp,</text>
<text text-anchor="start" x="105.5" y="-762.5" font-family="Helvetica,sans-Serif" font-size="10.00"> 2 &gt;()</text>
<text text-anchor="start" x="92.5" y="-747.5" font-family="Helvetica,sans-Serif" font-size="10.00">+</text>
<text text-anchor="start" x="105.5" y="-747.5" font-family="Helvetica,sans-Serif" font-size="10.00">operator=()</text>
<text text-anchor="start" x="92.5" y="-732.5" font-family="Helvetica,sans-Serif" font-size="10.00">+</text>
<text text-anchor="start" x="105.5" y="-732.5" font-family="Helvetica,sans-Serif" font-size="10.00">operator=()</text>
<polygon fill="#666666" stroke="#666666" points="88.5,-963.5 88.5,-963.5 237.5,-963.5 237.5,-963.5 88.5,-963.5"/>
<polygon fill="#666666" stroke="#666666" points="88.5,-948.5 88.5,-948.5 237.5,-948.5 237.5,-948.5 88.5,-948.5"/>
<polygon fill="none" stroke="#666666" points="88,-726 88,-981 237,-981 237,-726 88,-726"/>
</a>
</g>
</g>
<!-- Node5&#45;&gt;Node3 -->
<g id="edge4_Node000003_Node000005" class="edge">
<title>Node5&#45;&gt;Node3</title>
<g id="a_edge4_Node000003_Node000005"><a xlink:title=" ">
<path fill="none" stroke="orange" d="M123.8,-715.72C119.31,-699.87 114.75,-683.75 110.31,-668.04"/>
<polygon fill="orange" stroke="orange" points="120.49,-716.89 126.58,-725.56 127.23,-714.98 120.49,-716.89"/>
</a>
</g>
<text text-anchor="middle" x="144.5" y="-694.5" font-family="Helvetica,sans-Serif" font-size="10.00" fill="grey"> &lt; float &gt;</text>
</g>
<!-- Node6 -->
<g id="Node000006" class="node">
<title>Node6</title>
<g id="a_Node000006"><a xlink:href="../../d1/dd7/class__Tp.html" target="_top" xlink:title=" ">
<polygon fill="white" stroke="transparent" points="176.5,-1088 148.5,-1088 148.5,-1039 176.5,-1039 176.5,-1088"/>
<text text-anchor="start" x="153.5" y="-1075.5" font-family="Helvetica,sans-Serif" font-size="10.00">_Tp</text>
<text text-anchor="start" x="160.5" y="-1060.5" font-family="Helvetica,sans-Serif" font-size="10.00"> </text>
<text text-anchor="start" x="160.5" y="-1045.5" font-family="Helvetica,sans-Serif" font-size="10.00"> </text>
<polygon fill="#666666" stroke="#666666" points="148.5,-1070.5 148.5,-1070.5 176.5,-1070.5 176.5,-1070.5 148.5,-1070.5"/>
<polygon fill="#666666" stroke="#666666" points="148.5,-1055.5 148.5,-1055.5 176.5,-1055.5 176.5,-1055.5 148.5,-1055.5"/>
<polygon fill="none" stroke="#666666" points="148.5,-1039 148.5,-1088 176.5,-1088 176.5,-1039 148.5,-1039"/>
</a>
</g>
</g>
<!-- Node6&#45;&gt;Node5 -->
<g id="edge5_Node000005_Node000006" class="edge">
<title>Node6&#45;&gt;Node5</title>
<g id="a_edge5_Node000005_Node000006"><a xlink:title=" ">
<path fill="none" stroke="#63b8ff" d="M162.5,-1038.64C162.5,-1026.5 162.5,-1010.67 162.5,-993.38"/>
<polygon fill="none" stroke="#63b8ff" points="162.5,-993.21 158.5,-987.21 162.5,-981.21 166.5,-987.21 162.5,-993.21"/>
</a>
</g>
<text text-anchor="middle" x="171.5" y="-1013" font-family="Helvetica,sans-Serif" font-size="10.00" fill="grey"> +x</text>
<text text-anchor="middle" x="171.5" y="-1002" font-family="Helvetica,sans-Serif" font-size="10.00" fill="grey">+y</text>
</g>
<!-- Node7 -->
<g id="Node000007" class="node">
<title>Node7</title>
<g id="a_Node000007"><a xlink:title=" ">
<polygon fill="white" stroke="transparent" points="190,-565 167,-565 167,-516 190,-516 190,-565"/>
<text text-anchor="start" x="172.5" y="-552.5" font-family="Helvetica,sans-Serif" font-size="10.00">int</text>
<text text-anchor="start" x="177" y="-537.5" font-family="Helvetica,sans-Serif" font-size="10.00"> </text>
<text text-anchor="start" x="177" y="-522.5" font-family="Helvetica,sans-Serif" font-size="10.00"> </text>
<polygon fill="#666666" stroke="#666666" points="167.5,-547.5 167.5,-547.5 190.5,-547.5 190.5,-547.5 167.5,-547.5"/>
<polygon fill="#666666" stroke="#666666" points="167.5,-532.5 167.5,-532.5 190.5,-532.5 190.5,-532.5 167.5,-532.5"/>
<polygon fill="none" stroke="#666666" points="167,-516 167,-565 190,-565 190,-516 167,-516"/>
</a>
</g>
</g>
<!-- Node7&#45;&gt;Node2 -->
<g id="edge6_Node000002_Node000007" class="edge">
<title>Node7&#45;&gt;Node2</title>
<g id="a_edge6_Node000002_Node000007"><a xlink:title=" ">
<path fill="none" stroke="#63b8ff" d="M176.75,-515.82C174.04,-483.31 167.9,-423.19 156.5,-373 156.05,-371 155.57,-368.98 155.07,-366.95"/>
<polygon fill="none" stroke="#63b8ff" points="155.04,-366.85 149.65,-362.06 151.99,-355.24 157.38,-360.03 155.04,-366.85"/>
</a>
</g>
<text text-anchor="middle" x="196" y="-387" font-family="Helvetica,sans-Serif" font-size="10.00" fill="grey"> #targetHeight</text>
<text text-anchor="middle" x="196" y="-376" font-family="Helvetica,sans-Serif" font-size="10.00" fill="grey">#targetWidth</text>
</g>
</g>
</svg>
