<?xml version="1.0" encoding="UTF-8" standalone="no"?>
<!DOCTYPE svg PUBLIC "-//W3C//DTD SVG 1.1//EN"
 "http://www.w3.org/Graphics/SVG/1.1/DTD/svg11.dtd">
<!-- Generated by graphviz version 2.43.0 (0)
 -->
<!-- Title: cv::cudev::PtrTraits&lt; PerspectiveMapPtrSz &gt; Pages: 1 -->
<svg width="197pt" height="354pt"
 viewBox="0.00 0.00 197.00 354.00" xmlns="http://www.w3.org/2000/svg" xmlns:xlink="http://www.w3.org/1999/xlink">
<g id="graph0" class="graph" transform="scale(1 1) rotate(0) translate(4 350)">
<title>cv::cudev::PtrTraits&lt; PerspectiveMapPtrSz &gt;</title>
<!-- Node1 -->
<g id="Node000001" class="node">
<title>Node1</title>
<g id="a_Node000001"><a xlink:title=" ">
<polygon fill="#999999" stroke="transparent" points="136,-60 0,-60 0,0 136,0 136,-60"/>
<text text-anchor="start" x="5" y="-48" font-family="Helvetica,sans-Serif" font-size="10.00">cv::cudev::PtrTraits</text>
<text text-anchor="start" x="5" y="-37" font-family="Helvetica,sans-Serif" font-size="10.00">&lt; PerspectiveMapPtrSz &gt;</text>
<text text-anchor="start" x="66" y="-22" font-family="Helvetica,sans-Serif" font-size="10.00"> </text>
<text text-anchor="start" x="66" y="-7" font-family="Helvetica,sans-Serif" font-size="10.00"> </text>
<polygon fill="#666666" stroke="#666666" points="0,-32 0,-32 136,-32 136,-32 0,-32"/>
<polygon fill="#666666" stroke="#666666" points="0,-17 0,-17 136,-17 136,-17 0,-17"/>
<polygon fill="none" stroke="#666666" points="0,0 0,-60 136,-60 136,0 0,0"/>
</a>
</g>
</g>
<!-- Node2 -->
<g id="Node000002" class="node">
<title>Node2</title>
<g id="a_Node000002"><a xlink:href="../../db/d3c/structcv_1_1cudev_1_1PtrTraitsBase.html" target="_top" xlink:title=" ">
<polygon fill="white" stroke="transparent" points="132,-198 4,-198 4,-97 132,-97 132,-198"/>
<text text-anchor="start" x="9" y="-185.5" font-family="Helvetica,sans-Serif" font-size="10.00">cv::cudev::PtrTraitsBase</text>
<text text-anchor="start" x="9" y="-174.5" font-family="Helvetica,sans-Serif" font-size="10.00">&lt; PerspectiveMapPtrSz,</text>
<text text-anchor="start" x="15" y="-163.5" font-family="Helvetica,sans-Serif" font-size="10.00"> PerspectiveMapPtr &gt;</text>
<text text-anchor="start" x="66" y="-148.5" font-family="Helvetica,sans-Serif" font-size="10.00"> </text>
<text text-anchor="start" x="21.5" y="-133.5" font-family="Helvetica,sans-Serif" font-size="10.00">+</text>
<text text-anchor="start" x="48" y="-133.5" font-family="Helvetica,sans-Serif" font-size="10.00">getCols()</text>
<text text-anchor="start" x="21.5" y="-118.5" font-family="Helvetica,sans-Serif" font-size="10.00">+</text>
<text text-anchor="start" x="48" y="-118.5" font-family="Helvetica,sans-Serif" font-size="10.00">getRows()</text>
<text text-anchor="start" x="21.5" y="-103.5" font-family="Helvetica,sans-Serif" font-size="10.00">+</text>
<text text-anchor="start" x="48" y="-103.5" font-family="Helvetica,sans-Serif" font-size="10.00">shrinkPtr()</text>
<polygon fill="#666666" stroke="#666666" points="4,-158.5 4,-158.5 132,-158.5 132,-158.5 4,-158.5"/>
<polygon fill="#666666" stroke="#666666" points="4,-143.5 4,-143.5 132,-143.5 132,-143.5 4,-143.5"/>
<polygon fill="none" stroke="#666666" points="4,-97 4,-198 132,-198 132,-97 4,-97"/>
</a>
</g>
</g>
<!-- Node2&#45;&gt;Node1 -->
<g id="edge1_Node000001_Node000002" class="edge">
<title>Node2&#45;&gt;Node1</title>
<g id="a_edge1_Node000001_Node000002"><a xlink:title=" ">
<path fill="none" stroke="#63b8ff" d="M68,-86.84C68,-77.61 68,-68.44 68,-60.28"/>
<polygon fill="none" stroke="#63b8ff" points="64.5,-86.85 68,-96.85 71.5,-86.85 64.5,-86.85"/>
</a>
</g>
</g>
<!-- Node3 -->
<g id="Node000003" class="node">
<title>Node3</title>
<g id="a_Node000003"><a xlink:href="../../db/d3c/structcv_1_1cudev_1_1PtrTraitsBase.html" target="_top" xlink:title=" ">
<polygon fill="white" stroke="transparent" points="130.5,-346 5.5,-346 5.5,-256 130.5,-256 130.5,-346"/>
<text text-anchor="start" x="11" y="-334" font-family="Helvetica,sans-Serif" font-size="10.00">cv::cudev::PtrTraitsBase</text>
<text text-anchor="start" x="21.5" y="-323" font-family="Helvetica,sans-Serif" font-size="10.00">&lt; Ptr2DSz, Ptr2D &gt;</text>
<text text-anchor="start" x="66.5" y="-308" font-family="Helvetica,sans-Serif" font-size="10.00"> </text>
<text text-anchor="start" x="23" y="-293" font-family="Helvetica,sans-Serif" font-size="10.00">+</text>
<text text-anchor="start" x="49" y="-293" font-family="Helvetica,sans-Serif" font-size="10.00">getCols()</text>
<text text-anchor="start" x="23" y="-278" font-family="Helvetica,sans-Serif" font-size="10.00">+</text>
<text text-anchor="start" x="49" y="-278" font-family="Helvetica,sans-Serif" font-size="10.00">getRows()</text>
<text text-anchor="start" x="23" y="-263" font-family="Helvetica,sans-Serif" font-size="10.00">+</text>
<text text-anchor="start" x="49" y="-263" font-family="Helvetica,sans-Serif" font-size="10.00">shrinkPtr()</text>
<polygon fill="#666666" stroke="#666666" points="6,-318 6,-318 131,-318 131,-318 6,-318"/>
<polygon fill="#666666" stroke="#666666" points="6,-303 6,-303 131,-303 131,-303 6,-303"/>
<polygon fill="none" stroke="#666666" points="5.5,-256 5.5,-346 130.5,-346 130.5,-256 5.5,-256"/>
</a>
</g>
</g>
<!-- Node3&#45;&gt;Node2 -->
<g id="edge2_Node000002_Node000003" class="edge">
<title>Node3&#45;&gt;Node2</title>
<g id="a_edge2_Node000002_Node000003"><a xlink:title=" ">
<path fill="none" stroke="orange" d="M68,-245.33C68,-229.9 68,-213.21 68,-198.1"/>
<polygon fill="orange" stroke="orange" points="64.5,-245.77 68,-255.77 71.5,-245.77 64.5,-245.77"/>
</a>
</g>
<text text-anchor="start" x="68" y="-230" font-family="Helvetica,sans-Serif" font-size="10.00" fill="grey"> &lt; PerspectiveMapPtrSz,</text>
<text text-anchor="middle" x="128.5" y="-219" font-family="Helvetica,sans-Serif" font-size="10.00" fill="grey"> PerspectiveMapPtr &gt;</text>
</g>
</g>
</svg>
