<?xml version="1.0" encoding="UTF-8" standalone="no"?>
<!DOCTYPE svg PUBLIC "-//W3C//DTD SVG 1.1//EN"
 "http://www.w3.org/Graphics/SVG/1.1/DTD/svg11.dtd">
<!-- Generated by graphviz version 2.43.0 (0)
 -->
<!-- Title: cv::gapi::wip::onevpl::DataProviderUnsupportedException Pages: 1 -->
<svg width="211pt" height="320pt"
 viewBox="0.00 0.00 211.00 320.00" xmlns="http://www.w3.org/2000/svg" xmlns:xlink="http://www.w3.org/1999/xlink">
<g id="graph0" class="graph" transform="scale(1 1) rotate(0) translate(4 316)">
<title>cv::gapi::wip::onevpl::DataProviderUnsupportedException</title>
<!-- Node1 -->
<g id="Node000001" class="node">
<title>Node1</title>
<g id="a_Node000001"><a xlink:title=" ">
<polygon fill="#999999" stroke="transparent" points="203,-86 0,-86 0,0 203,0 203,-86"/>
<text text-anchor="start" x="11.5" y="-74" font-family="Helvetica,sans-Serif" font-size="10.00">cv::gapi::wip::onevpl</text>
<text text-anchor="start" x="11.5" y="-63" font-family="Helvetica,sans-Serif" font-size="10.00">::DataProviderUnsupportedException</text>
<text text-anchor="start" x="100" y="-48" font-family="Helvetica,sans-Serif" font-size="10.00"> </text>
<text text-anchor="start" x="4.5" y="-33" font-family="Helvetica,sans-Serif" font-size="10.00">+</text>
<text text-anchor="start" x="17.5" y="-33" font-family="Helvetica,sans-Serif" font-size="10.00">DataProviderUnsupportedException()</text>
<text text-anchor="start" x="4.5" y="-18" font-family="Helvetica,sans-Serif" font-size="10.00">+</text>
<text text-anchor="start" x="17.5" y="-18" font-family="Helvetica,sans-Serif" font-size="10.00">~DataProviderUnsupported</text>
<text text-anchor="start" x="17.5" y="-7" font-family="Helvetica,sans-Serif" font-size="10.00">Exception()</text>
<polygon fill="#666666" stroke="#666666" points="0.5,-58 0.5,-58 203.5,-58 203.5,-58 0.5,-58"/>
<polygon fill="#666666" stroke="#666666" points="0.5,-43 0.5,-43 203.5,-43 203.5,-43 0.5,-43"/>
<polygon fill="none" stroke="#666666" points="0,0 0,-86 203,-86 203,0 0,0"/>
</a>
</g>
</g>
<!-- Node2 -->
<g id="Node000002" class="node">
<title>Node2</title>
<g id="a_Node000002"><a xlink:href="../../d5/ded/structcv_1_1gapi_1_1wip_1_1onevpl_1_1DataProviderException.html" target="_top" xlink:title=" ">
<polygon fill="white" stroke="transparent" points="176,-227 27,-227 27,-122 176,-122 176,-227"/>
<text text-anchor="start" x="43" y="-214.5" font-family="Helvetica,sans-Serif" font-size="10.00">cv::gapi::wip::onevpl</text>
<text text-anchor="start" x="43" y="-203.5" font-family="Helvetica,sans-Serif" font-size="10.00">::DataProviderException</text>
<text text-anchor="start" x="100" y="-188.5" font-family="Helvetica,sans-Serif" font-size="10.00"> </text>
<text text-anchor="start" x="31.5" y="-173.5" font-family="Helvetica,sans-Serif" font-size="10.00">+</text>
<text text-anchor="start" x="44.5" y="-173.5" font-family="Helvetica,sans-Serif" font-size="10.00">DataProviderException()</text>
<text text-anchor="start" x="31.5" y="-158.5" font-family="Helvetica,sans-Serif" font-size="10.00">+</text>
<text text-anchor="start" x="44.5" y="-158.5" font-family="Helvetica,sans-Serif" font-size="10.00">DataProviderException()</text>
<text text-anchor="start" x="31.5" y="-143.5" font-family="Helvetica,sans-Serif" font-size="10.00">+</text>
<text text-anchor="start" x="44.5" y="-143.5" font-family="Helvetica,sans-Serif" font-size="10.00">~DataProviderException()</text>
<text text-anchor="start" x="31.5" y="-128.5" font-family="Helvetica,sans-Serif" font-size="10.00">+</text>
<text text-anchor="start" x="44.5" y="-128.5" font-family="Helvetica,sans-Serif" font-size="10.00">what()</text>
<polygon fill="#666666" stroke="#666666" points="27.5,-198.5 27.5,-198.5 176.5,-198.5 176.5,-198.5 27.5,-198.5"/>
<polygon fill="#666666" stroke="#666666" points="27.5,-183.5 27.5,-183.5 176.5,-183.5 176.5,-183.5 27.5,-183.5"/>
<polygon fill="none" stroke="#666666" points="27,-122 27,-227 176,-227 176,-122 27,-122"/>
</a>
</g>
</g>
<!-- Node2&#45;&gt;Node1 -->
<g id="edge1_Node000001_Node000002" class="edge">
<title>Node2&#45;&gt;Node1</title>
<g id="a_edge1_Node000001_Node000002"><a xlink:title=" ">
<path fill="none" stroke="#63b8ff" d="M101.5,-111.84C101.5,-103.17 101.5,-94.42 101.5,-86.23"/>
<polygon fill="none" stroke="#63b8ff" points="98,-111.95 101.5,-121.95 105,-111.95 98,-111.95"/>
</a>
</g>
</g>
<!-- Node3 -->
<g id="Node000003" class="node">
<title>Node3</title>
<g id="a_Node000003"><a xlink:title=" ">
<polygon fill="white" stroke="transparent" points="141.5,-312 61.5,-312 61.5,-263 141.5,-263 141.5,-312"/>
<text text-anchor="start" x="66.5" y="-299.5" font-family="Helvetica,sans-Serif" font-size="10.00">std::exception</text>
<text text-anchor="start" x="99.5" y="-284.5" font-family="Helvetica,sans-Serif" font-size="10.00"> </text>
<text text-anchor="start" x="99.5" y="-269.5" font-family="Helvetica,sans-Serif" font-size="10.00"> </text>
<polygon fill="#666666" stroke="#666666" points="61.5,-294.5 61.5,-294.5 141.5,-294.5 141.5,-294.5 61.5,-294.5"/>
<polygon fill="#666666" stroke="#666666" points="61.5,-279.5 61.5,-279.5 141.5,-279.5 141.5,-279.5 61.5,-279.5"/>
<polygon fill="none" stroke="#666666" points="61.5,-263 61.5,-312 141.5,-312 141.5,-263 61.5,-263"/>
</a>
</g>
</g>
<!-- Node3&#45;&gt;Node2 -->
<g id="edge2_Node000002_Node000003" class="edge">
<title>Node3&#45;&gt;Node2</title>
<g id="a_edge2_Node000002_Node000003"><a xlink:title=" ">
<path fill="none" stroke="#63b8ff" d="M101.5,-252.85C101.5,-244.79 101.5,-236 101.5,-227.32"/>
<polygon fill="none" stroke="#63b8ff" points="98,-252.96 101.5,-262.96 105,-252.96 98,-252.96"/>
</a>
</g>
</g>
</g>
</svg>
