<?xml version="1.0" encoding="UTF-8" standalone="no"?>
<!DOCTYPE svg PUBLIC "-//W3C//DTD SVG 1.1//EN"
 "http://www.w3.org/Graphics/SVG/1.1/DTD/svg11.dtd">
<!-- Generated by graphviz version 2.43.0 (0)
 -->
<!-- Title: cv::_InputOutputArray Pages: 1 -->
<svg width="257pt" height="1137pt"
 viewBox="0.00 0.00 257.00 1137.00" xmlns="http://www.w3.org/2000/svg" xmlns:xlink="http://www.w3.org/1999/xlink">
<g id="graph0" class="graph" transform="scale(1 1) rotate(0) translate(4 1133)">
<title>cv::_InputOutputArray</title>
<!-- Node1 -->
<g id="Node000001" class="node">
<title>Node1</title>
<g id="a_Node000001"><a xlink:title=" ">
<polygon fill="#999999" stroke="transparent" points="128.5,-214 10.5,-214 10.5,0 128.5,0 128.5,-214"/>
<text text-anchor="start" x="16.5" y="-202" font-family="Helvetica,sans-Serif" font-size="10.00">cv::_InputOutputArray</text>
<text text-anchor="start" x="67.5" y="-187" font-family="Helvetica,sans-Serif" font-size="10.00"> </text>
<text text-anchor="start" x="14.5" y="-172" font-family="Helvetica,sans-Serif" font-size="10.00">+</text>
<text text-anchor="start" x="27.5" y="-172" font-family="Helvetica,sans-Serif" font-size="10.00">_InputOutputArray()</text>
<text text-anchor="start" x="14.5" y="-157" font-family="Helvetica,sans-Serif" font-size="10.00">+</text>
<text text-anchor="start" x="27.5" y="-157" font-family="Helvetica,sans-Serif" font-size="10.00">_InputOutputArray()</text>
<text text-anchor="start" x="14.5" y="-142" font-family="Helvetica,sans-Serif" font-size="10.00">+</text>
<text text-anchor="start" x="27.5" y="-142" font-family="Helvetica,sans-Serif" font-size="10.00">_InputOutputArray()</text>
<text text-anchor="start" x="14.5" y="-127" font-family="Helvetica,sans-Serif" font-size="10.00">+</text>
<text text-anchor="start" x="27.5" y="-127" font-family="Helvetica,sans-Serif" font-size="10.00">_InputOutputArray()</text>
<text text-anchor="start" x="14.5" y="-112" font-family="Helvetica,sans-Serif" font-size="10.00">+</text>
<text text-anchor="start" x="27.5" y="-112" font-family="Helvetica,sans-Serif" font-size="10.00">_InputOutputArray()</text>
<text text-anchor="start" x="14.5" y="-97" font-family="Helvetica,sans-Serif" font-size="10.00">+</text>
<text text-anchor="start" x="27.5" y="-97" font-family="Helvetica,sans-Serif" font-size="10.00">_InputOutputArray()</text>
<text text-anchor="start" x="14.5" y="-82" font-family="Helvetica,sans-Serif" font-size="10.00">+</text>
<text text-anchor="start" x="27.5" y="-82" font-family="Helvetica,sans-Serif" font-size="10.00">_InputOutputArray()</text>
<text text-anchor="start" x="14.5" y="-67" font-family="Helvetica,sans-Serif" font-size="10.00">+</text>
<text text-anchor="start" x="27.5" y="-67" font-family="Helvetica,sans-Serif" font-size="10.00">_InputOutputArray()</text>
<text text-anchor="start" x="14.5" y="-52" font-family="Helvetica,sans-Serif" font-size="10.00">+</text>
<text text-anchor="start" x="27.5" y="-52" font-family="Helvetica,sans-Serif" font-size="10.00">_InputOutputArray()</text>
<text text-anchor="start" x="14.5" y="-37" font-family="Helvetica,sans-Serif" font-size="10.00">+</text>
<text text-anchor="start" x="27.5" y="-37" font-family="Helvetica,sans-Serif" font-size="10.00">_InputOutputArray()</text>
<text text-anchor="start" x="27.5" y="-22" font-family="Helvetica,sans-Serif" font-size="10.00">and 27 more...</text>
<text text-anchor="start" x="14.5" y="-7" font-family="Helvetica,sans-Serif" font-size="10.00">+</text>
<text text-anchor="start" x="27.5" y="-7" font-family="Helvetica,sans-Serif" font-size="10.00">rawInOut()</text>
<polygon fill="#666666" stroke="#666666" points="10.5,-197 10.5,-197 128.5,-197 128.5,-197 10.5,-197"/>
<polygon fill="#666666" stroke="#666666" points="10.5,-182 10.5,-182 128.5,-182 128.5,-182 10.5,-182"/>
<polygon fill="none" stroke="#666666" points="10.5,0 10.5,-214 128.5,-214 128.5,0 10.5,0"/>
</a>
</g>
</g>
<!-- Node2 -->
<g id="Node000002" class="node">
<title>Node2</title>
<g id="a_Node000002"><a xlink:href="../../d2/d9e/classcv_1_1__OutputArray.html" target="_top" xlink:title="This type is very similar to InputArray except that it is used for input/output and output function p...">
<polygon fill="white" stroke="transparent" points="116.5,-480 22.5,-480 22.5,-251 116.5,-251 116.5,-480"/>
<text text-anchor="start" x="28.5" y="-467.5" font-family="Helvetica,sans-Serif" font-size="10.00">cv::_OutputArray</text>
<text text-anchor="start" x="67.5" y="-452.5" font-family="Helvetica,sans-Serif" font-size="10.00"> </text>
<text text-anchor="start" x="26.5" y="-437.5" font-family="Helvetica,sans-Serif" font-size="10.00">+</text>
<text text-anchor="start" x="39.5" y="-437.5" font-family="Helvetica,sans-Serif" font-size="10.00">_OutputArray()</text>
<text text-anchor="start" x="26.5" y="-422.5" font-family="Helvetica,sans-Serif" font-size="10.00">+</text>
<text text-anchor="start" x="39.5" y="-422.5" font-family="Helvetica,sans-Serif" font-size="10.00">_OutputArray()</text>
<text text-anchor="start" x="26.5" y="-407.5" font-family="Helvetica,sans-Serif" font-size="10.00">+</text>
<text text-anchor="start" x="39.5" y="-407.5" font-family="Helvetica,sans-Serif" font-size="10.00">_OutputArray()</text>
<text text-anchor="start" x="26.5" y="-392.5" font-family="Helvetica,sans-Serif" font-size="10.00">+</text>
<text text-anchor="start" x="39.5" y="-392.5" font-family="Helvetica,sans-Serif" font-size="10.00">_OutputArray()</text>
<text text-anchor="start" x="26.5" y="-377.5" font-family="Helvetica,sans-Serif" font-size="10.00">+</text>
<text text-anchor="start" x="39.5" y="-377.5" font-family="Helvetica,sans-Serif" font-size="10.00">_OutputArray()</text>
<text text-anchor="start" x="26.5" y="-362.5" font-family="Helvetica,sans-Serif" font-size="10.00">+</text>
<text text-anchor="start" x="39.5" y="-362.5" font-family="Helvetica,sans-Serif" font-size="10.00">_OutputArray()</text>
<text text-anchor="start" x="26.5" y="-347.5" font-family="Helvetica,sans-Serif" font-size="10.00">+</text>
<text text-anchor="start" x="39.5" y="-347.5" font-family="Helvetica,sans-Serif" font-size="10.00">_OutputArray()</text>
<text text-anchor="start" x="26.5" y="-332.5" font-family="Helvetica,sans-Serif" font-size="10.00">+</text>
<text text-anchor="start" x="39.5" y="-332.5" font-family="Helvetica,sans-Serif" font-size="10.00">_OutputArray()</text>
<text text-anchor="start" x="26.5" y="-317.5" font-family="Helvetica,sans-Serif" font-size="10.00">+</text>
<text text-anchor="start" x="39.5" y="-317.5" font-family="Helvetica,sans-Serif" font-size="10.00">_OutputArray()</text>
<text text-anchor="start" x="26.5" y="-302.5" font-family="Helvetica,sans-Serif" font-size="10.00">+</text>
<text text-anchor="start" x="39.5" y="-302.5" font-family="Helvetica,sans-Serif" font-size="10.00">_OutputArray()</text>
<text text-anchor="start" x="39.5" y="-287.5" font-family="Helvetica,sans-Serif" font-size="10.00">and 50 more...</text>
<text text-anchor="start" x="26.5" y="-272.5" font-family="Helvetica,sans-Serif" font-size="10.00">+</text>
<text text-anchor="start" x="39.5" y="-272.5" font-family="Helvetica,sans-Serif" font-size="10.00">rawOut()</text>
<text text-anchor="start" x="26.5" y="-257.5" font-family="Helvetica,sans-Serif" font-size="10.00">+</text>
<text text-anchor="start" x="39.5" y="-257.5" font-family="Helvetica,sans-Serif" font-size="10.00">rawOut()</text>
<polygon fill="#666666" stroke="#666666" points="22.5,-462.5 22.5,-462.5 116.5,-462.5 116.5,-462.5 22.5,-462.5"/>
<polygon fill="#666666" stroke="#666666" points="22.5,-447.5 22.5,-447.5 116.5,-447.5 116.5,-447.5 22.5,-447.5"/>
<polygon fill="none" stroke="#666666" points="22.5,-251 22.5,-480 116.5,-480 116.5,-251 22.5,-251"/>
</a>
</g>
</g>
<!-- Node2&#45;&gt;Node1 -->
<g id="edge1_Node000001_Node000002" class="edge">
<title>Node2&#45;&gt;Node1</title>
<g id="a_edge1_Node000001_Node000002"><a xlink:title=" ">
<path fill="none" stroke="#63b8ff" d="M69.5,-240.84C69.5,-231.93 69.5,-223 69.5,-214.21"/>
<polygon fill="none" stroke="#63b8ff" points="66,-240.88 69.5,-250.88 73,-240.88 66,-240.88"/>
</a>
</g>
</g>
<!-- Node3 -->
<g id="Node000003" class="node">
<title>Node3</title>
<g id="a_Node000003"><a xlink:href="../../d4/d32/classcv_1_1__InputArray.html" target="_top" xlink:title="This is the proxy class for passing read&#45;only input arrays into OpenCV functions.">
<polygon fill="white" stroke="transparent" points="115.5,-776 23.5,-776 23.5,-517 115.5,-517 115.5,-776"/>
<text text-anchor="start" x="33" y="-763.5" font-family="Helvetica,sans-Serif" font-size="10.00">cv::_InputArray</text>
<text text-anchor="start" x="67.5" y="-748.5" font-family="Helvetica,sans-Serif" font-size="10.00"> </text>
<text text-anchor="start" x="27.5" y="-733.5" font-family="Helvetica,sans-Serif" font-size="10.00">+</text>
<text text-anchor="start" x="40.5" y="-733.5" font-family="Helvetica,sans-Serif" font-size="10.00">_InputArray()</text>
<text text-anchor="start" x="27.5" y="-718.5" font-family="Helvetica,sans-Serif" font-size="10.00">+</text>
<text text-anchor="start" x="40.5" y="-718.5" font-family="Helvetica,sans-Serif" font-size="10.00">_InputArray()</text>
<text text-anchor="start" x="27.5" y="-703.5" font-family="Helvetica,sans-Serif" font-size="10.00">+</text>
<text text-anchor="start" x="40.5" y="-703.5" font-family="Helvetica,sans-Serif" font-size="10.00">_InputArray()</text>
<text text-anchor="start" x="27.5" y="-688.5" font-family="Helvetica,sans-Serif" font-size="10.00">+</text>
<text text-anchor="start" x="40.5" y="-688.5" font-family="Helvetica,sans-Serif" font-size="10.00">_InputArray()</text>
<text text-anchor="start" x="27.5" y="-673.5" font-family="Helvetica,sans-Serif" font-size="10.00">+</text>
<text text-anchor="start" x="40.5" y="-673.5" font-family="Helvetica,sans-Serif" font-size="10.00">_InputArray()</text>
<text text-anchor="start" x="27.5" y="-658.5" font-family="Helvetica,sans-Serif" font-size="10.00">+</text>
<text text-anchor="start" x="40.5" y="-658.5" font-family="Helvetica,sans-Serif" font-size="10.00">_InputArray()</text>
<text text-anchor="start" x="27.5" y="-643.5" font-family="Helvetica,sans-Serif" font-size="10.00">+</text>
<text text-anchor="start" x="40.5" y="-643.5" font-family="Helvetica,sans-Serif" font-size="10.00">_InputArray()</text>
<text text-anchor="start" x="27.5" y="-628.5" font-family="Helvetica,sans-Serif" font-size="10.00">+</text>
<text text-anchor="start" x="40.5" y="-628.5" font-family="Helvetica,sans-Serif" font-size="10.00">_InputArray()</text>
<text text-anchor="start" x="27.5" y="-613.5" font-family="Helvetica,sans-Serif" font-size="10.00">+</text>
<text text-anchor="start" x="40.5" y="-613.5" font-family="Helvetica,sans-Serif" font-size="10.00">_InputArray()</text>
<text text-anchor="start" x="27.5" y="-598.5" font-family="Helvetica,sans-Serif" font-size="10.00">+</text>
<text text-anchor="start" x="40.5" y="-598.5" font-family="Helvetica,sans-Serif" font-size="10.00">_InputArray()</text>
<text text-anchor="start" x="40.5" y="-583.5" font-family="Helvetica,sans-Serif" font-size="10.00">and 51 more...</text>
<text text-anchor="start" x="27.5" y="-568.5" font-family="Helvetica,sans-Serif" font-size="10.00">+</text>
<text text-anchor="start" x="40.5" y="-568.5" font-family="Helvetica,sans-Serif" font-size="10.00">rawIn()</text>
<text text-anchor="start" x="27.5" y="-553.5" font-family="Helvetica,sans-Serif" font-size="10.00">+</text>
<text text-anchor="start" x="40.5" y="-553.5" font-family="Helvetica,sans-Serif" font-size="10.00">rawIn()</text>
<text text-anchor="start" x="27.5" y="-538.5" font-family="Helvetica,sans-Serif" font-size="10.00">#</text>
<text text-anchor="start" x="40.5" y="-538.5" font-family="Helvetica,sans-Serif" font-size="10.00">init()</text>
<text text-anchor="start" x="27.5" y="-523.5" font-family="Helvetica,sans-Serif" font-size="10.00">#</text>
<text text-anchor="start" x="40.5" y="-523.5" font-family="Helvetica,sans-Serif" font-size="10.00">init()</text>
<polygon fill="#666666" stroke="#666666" points="23.5,-758.5 23.5,-758.5 115.5,-758.5 115.5,-758.5 23.5,-758.5"/>
<polygon fill="#666666" stroke="#666666" points="23.5,-743.5 23.5,-743.5 115.5,-743.5 115.5,-743.5 23.5,-743.5"/>
<polygon fill="none" stroke="#666666" points="23.5,-517 23.5,-776 115.5,-776 115.5,-517 23.5,-517"/>
</a>
</g>
</g>
<!-- Node3&#45;&gt;Node2 -->
<g id="edge2_Node000002_Node000003" class="edge">
<title>Node3&#45;&gt;Node2</title>
<g id="a_edge2_Node000002_Node000003"><a xlink:title=" ">
<path fill="none" stroke="#63b8ff" d="M69.5,-506.36C69.5,-497.61 69.5,-488.87 69.5,-480.26"/>
<polygon fill="none" stroke="#63b8ff" points="66,-506.62 69.5,-516.62 73,-506.62 66,-506.62"/>
</a>
</g>
</g>
<!-- Node4 -->
<g id="Node000004" class="node">
<title>Node4</title>
<g id="a_Node000004"><a xlink:title=" ">
<polygon fill="white" stroke="transparent" points="23,-947 0,-947 0,-898 23,-898 23,-947"/>
<text text-anchor="start" x="5.5" y="-934.5" font-family="Helvetica,sans-Serif" font-size="10.00">int</text>
<text text-anchor="start" x="10" y="-919.5" font-family="Helvetica,sans-Serif" font-size="10.00"> </text>
<text text-anchor="start" x="10" y="-904.5" font-family="Helvetica,sans-Serif" font-size="10.00"> </text>
<polygon fill="#666666" stroke="#666666" points="0.5,-929.5 0.5,-929.5 23.5,-929.5 23.5,-929.5 0.5,-929.5"/>
<polygon fill="#666666" stroke="#666666" points="0.5,-914.5 0.5,-914.5 23.5,-914.5 23.5,-914.5 0.5,-914.5"/>
<polygon fill="none" stroke="#666666" points="0,-898 0,-947 23,-947 23,-898 0,-898"/>
</a>
</g>
</g>
<!-- Node4&#45;&gt;Node3 -->
<g id="edge3_Node000003_Node000004" class="edge">
<title>Node4&#45;&gt;Node3</title>
<g id="a_edge3_Node000003_Node000004"><a xlink:title=" ">
<path fill="none" stroke="#63b8ff" d="M14.22,-897.86C17.36,-872.16 23.06,-829.94 30.5,-794 30.89,-792.1 31.3,-790.18 31.71,-788.26"/>
<polygon fill="none" stroke="#63b8ff" points="31.76,-788.05 29.15,-781.33 34.35,-776.33 36.96,-783.05 31.76,-788.05"/>
</a>
</g>
<text text-anchor="middle" x="48" y="-797" font-family="Helvetica,sans-Serif" font-size="10.00" fill="grey"> #flags</text>
</g>
<!-- Node5 -->
<g id="Node000005" class="node">
<title>Node5</title>
<g id="a_Node000005"><a xlink:title=" ">
<polygon fill="white" stroke="transparent" points="85.5,-947 53.5,-947 53.5,-898 85.5,-898 85.5,-947"/>
<text text-anchor="start" x="58.5" y="-934.5" font-family="Helvetica,sans-Serif" font-size="10.00">void</text>
<text text-anchor="start" x="67.5" y="-919.5" font-family="Helvetica,sans-Serif" font-size="10.00"> </text>
<text text-anchor="start" x="67.5" y="-904.5" font-family="Helvetica,sans-Serif" font-size="10.00"> </text>
<polygon fill="#666666" stroke="#666666" points="53.5,-929.5 53.5,-929.5 85.5,-929.5 85.5,-929.5 53.5,-929.5"/>
<polygon fill="#666666" stroke="#666666" points="53.5,-914.5 53.5,-914.5 85.5,-914.5 85.5,-914.5 53.5,-914.5"/>
<polygon fill="none" stroke="#666666" points="53.5,-898 53.5,-947 85.5,-947 85.5,-898 53.5,-898"/>
</a>
</g>
</g>
<!-- Node5&#45;&gt;Node3 -->
<g id="edge4_Node000003_Node000005" class="edge">
<title>Node5&#45;&gt;Node3</title>
<g id="a_edge4_Node000003_Node000005"><a xlink:title=" ">
<path fill="none" stroke="#63b8ff" d="M69.5,-897.66C69.5,-872.49 69.5,-830.65 69.5,-788.32"/>
<polygon fill="none" stroke="#63b8ff" points="69.5,-788.08 65.5,-782.08 69.5,-776.08 73.5,-782.08 69.5,-788.08"/>
</a>
</g>
<text text-anchor="middle" x="83" y="-797" font-family="Helvetica,sans-Serif" font-size="10.00" fill="grey"> #obj</text>
</g>
<!-- Node6 -->
<g id="Node000006" class="node">
<title>Node6</title>
<g id="a_Node000006"><a xlink:href="../../d6/d50/classcv_1_1Size__.html" target="_top" xlink:title="Template class for specifying the size of an image or rectangle.">
<polygon fill="white" stroke="transparent" points="249,-1022 104,-1022 104,-823 249,-823 249,-1022"/>
<text text-anchor="start" x="136" y="-1009.5" font-family="Helvetica,sans-Serif" font-size="10.00">cv::Size_&lt; _Tp &gt;</text>
<text text-anchor="start" x="175" y="-994.5" font-family="Helvetica,sans-Serif" font-size="10.00"> </text>
<text text-anchor="start" x="108.5" y="-979.5" font-family="Helvetica,sans-Serif" font-size="10.00">+</text>
<text text-anchor="start" x="121.5" y="-979.5" font-family="Helvetica,sans-Serif" font-size="10.00">Size_()</text>
<text text-anchor="start" x="108.5" y="-964.5" font-family="Helvetica,sans-Serif" font-size="10.00">+</text>
<text text-anchor="start" x="121.5" y="-964.5" font-family="Helvetica,sans-Serif" font-size="10.00">Size_()</text>
<text text-anchor="start" x="108.5" y="-949.5" font-family="Helvetica,sans-Serif" font-size="10.00">+</text>
<text text-anchor="start" x="121.5" y="-949.5" font-family="Helvetica,sans-Serif" font-size="10.00">Size_()</text>
<text text-anchor="start" x="108.5" y="-934.5" font-family="Helvetica,sans-Serif" font-size="10.00">+</text>
<text text-anchor="start" x="121.5" y="-934.5" font-family="Helvetica,sans-Serif" font-size="10.00">Size_()</text>
<text text-anchor="start" x="108.5" y="-919.5" font-family="Helvetica,sans-Serif" font-size="10.00">+</text>
<text text-anchor="start" x="121.5" y="-919.5" font-family="Helvetica,sans-Serif" font-size="10.00">Size_()</text>
<text text-anchor="start" x="108.5" y="-904.5" font-family="Helvetica,sans-Serif" font-size="10.00">+</text>
<text text-anchor="start" x="121.5" y="-904.5" font-family="Helvetica,sans-Serif" font-size="10.00">area()</text>
<text text-anchor="start" x="108.5" y="-889.5" font-family="Helvetica,sans-Serif" font-size="10.00">+</text>
<text text-anchor="start" x="121.5" y="-889.5" font-family="Helvetica,sans-Serif" font-size="10.00">aspectRatio()</text>
<text text-anchor="start" x="108.5" y="-874.5" font-family="Helvetica,sans-Serif" font-size="10.00">+</text>
<text text-anchor="start" x="121.5" y="-874.5" font-family="Helvetica,sans-Serif" font-size="10.00">empty()</text>
<text text-anchor="start" x="108.5" y="-859.5" font-family="Helvetica,sans-Serif" font-size="10.00">+</text>
<text text-anchor="start" x="121.5" y="-859.5" font-family="Helvetica,sans-Serif" font-size="10.00">operator Size_&lt; _Tp2 &gt;()</text>
<text text-anchor="start" x="108.5" y="-844.5" font-family="Helvetica,sans-Serif" font-size="10.00">+</text>
<text text-anchor="start" x="121.5" y="-844.5" font-family="Helvetica,sans-Serif" font-size="10.00">operator=()</text>
<text text-anchor="start" x="108.5" y="-829.5" font-family="Helvetica,sans-Serif" font-size="10.00">+</text>
<text text-anchor="start" x="121.5" y="-829.5" font-family="Helvetica,sans-Serif" font-size="10.00">operator=()</text>
<polygon fill="#666666" stroke="#666666" points="104.5,-1004.5 104.5,-1004.5 249.5,-1004.5 249.5,-1004.5 104.5,-1004.5"/>
<polygon fill="#666666" stroke="#666666" points="104.5,-989.5 104.5,-989.5 249.5,-989.5 249.5,-989.5 104.5,-989.5"/>
<polygon fill="none" stroke="#666666" points="104,-823 104,-1022 249,-1022 249,-823 104,-823"/>
</a>
</g>
</g>
<!-- Node6&#45;&gt;Node3 -->
<g id="edge5_Node000003_Node000006" class="edge">
<title>Node6&#45;&gt;Node3</title>
<g id="a_edge5_Node000003_Node000006"><a xlink:title=" ">
<path fill="none" stroke="#63b8ff" d="M138.02,-822.97C132.19,-808.03 126.1,-792.43 120.05,-776.95"/>
<polygon fill="none" stroke="#63b8ff" points="120.03,-776.9 114.12,-772.76 115.67,-765.72 121.57,-769.85 120.03,-776.9"/>
</a>
</g>
<text text-anchor="middle" x="140.5" y="-797" font-family="Helvetica,sans-Serif" font-size="10.00" fill="grey"> #sz</text>
</g>
<!-- Node7 -->
<g id="Node000007" class="node">
<title>Node7</title>
<g id="a_Node000007"><a xlink:href="../../d1/dd7/class__Tp.html" target="_top" xlink:title=" ">
<polygon fill="white" stroke="transparent" points="190.5,-1129 162.5,-1129 162.5,-1080 190.5,-1080 190.5,-1129"/>
<text text-anchor="start" x="167.5" y="-1116.5" font-family="Helvetica,sans-Serif" font-size="10.00">_Tp</text>
<text text-anchor="start" x="174.5" y="-1101.5" font-family="Helvetica,sans-Serif" font-size="10.00"> </text>
<text text-anchor="start" x="174.5" y="-1086.5" font-family="Helvetica,sans-Serif" font-size="10.00"> </text>
<polygon fill="#666666" stroke="#666666" points="162.5,-1111.5 162.5,-1111.5 190.5,-1111.5 190.5,-1111.5 162.5,-1111.5"/>
<polygon fill="#666666" stroke="#666666" points="162.5,-1096.5 162.5,-1096.5 190.5,-1096.5 190.5,-1096.5 162.5,-1096.5"/>
<polygon fill="none" stroke="#666666" points="162.5,-1080 162.5,-1129 190.5,-1129 190.5,-1080 162.5,-1080"/>
</a>
</g>
</g>
<!-- Node7&#45;&gt;Node6 -->
<g id="edge6_Node000006_Node000007" class="edge">
<title>Node7&#45;&gt;Node6</title>
<g id="a_edge6_Node000006_Node000007"><a xlink:title=" ">
<path fill="none" stroke="#63b8ff" d="M176.5,-1079.97C176.5,-1067.58 176.5,-1051.4 176.5,-1034.14"/>
<polygon fill="none" stroke="#63b8ff" points="176.5,-1034.06 172.5,-1028.06 176.5,-1022.06 180.5,-1028.06 176.5,-1034.06"/>
</a>
</g>
<text text-anchor="middle" x="198" y="-1054" font-family="Helvetica,sans-Serif" font-size="10.00" fill="grey"> +height</text>
<text text-anchor="middle" x="198" y="-1043" font-family="Helvetica,sans-Serif" font-size="10.00" fill="grey">+width</text>
</g>
</g>
</svg>
