<?xml version="1.0" encoding="UTF-8" standalone="no"?>
<!DOCTYPE svg PUBLIC "-//W3C//DTD SVG 1.1//EN"
 "http://www.w3.org/Graphics/SVG/1.1/DTD/svg11.dtd">
<!-- Generated by graphviz version 2.43.0 (0)
 -->
<!-- Title: cv::viz::WGrid Pages: 1 -->
<svg width="113pt" height="482pt"
 viewBox="0.00 0.00 113.00 482.00" xmlns="http://www.w3.org/2000/svg" xmlns:xlink="http://www.w3.org/1999/xlink">
<g id="graph0" class="graph" transform="scale(1 1) rotate(0) translate(4 478)">
<title>cv::viz::WGrid</title>
<!-- Node1 -->
<g id="Node000001" class="node">
<title>Node1</title>
<g id="a_Node000001"><a xlink:title="This 3D Widget defines a grid. :">
<polygon fill="#999999" stroke="transparent" points="91,-64 14,-64 14,0 91,0 91,-64"/>
<text text-anchor="start" x="19.5" y="-52" font-family="Helvetica,sans-Serif" font-size="10.00">cv::viz::WGrid</text>
<text text-anchor="start" x="51" y="-37" font-family="Helvetica,sans-Serif" font-size="10.00"> </text>
<text text-anchor="start" x="23" y="-22" font-family="Helvetica,sans-Serif" font-size="10.00">+</text>
<text text-anchor="start" x="40.5" y="-22" font-family="Helvetica,sans-Serif" font-size="10.00">WGrid()</text>
<text text-anchor="start" x="23" y="-7" font-family="Helvetica,sans-Serif" font-size="10.00">+</text>
<text text-anchor="start" x="40.5" y="-7" font-family="Helvetica,sans-Serif" font-size="10.00">WGrid()</text>
<polygon fill="#666666" stroke="#666666" points="14.5,-47 14.5,-47 91.5,-47 91.5,-47 14.5,-47"/>
<polygon fill="#666666" stroke="#666666" points="14.5,-32 14.5,-32 91.5,-32 91.5,-32 14.5,-32"/>
<polygon fill="none" stroke="#666666" points="14,0 14,-64 91,-64 91,0 14,0"/>
</a>
</g>
</g>
<!-- Node2 -->
<g id="Node000002" class="node">
<title>Node2</title>
<g id="a_Node000002"><a xlink:href="../../d9/d26/classcv_1_1viz_1_1Widget3D.html" target="_top" xlink:title="Base class of all 3D widgets.">
<polygon fill="white" stroke="transparent" points="105,-224 0,-224 0,-100 105,-100 105,-224"/>
<text text-anchor="start" x="10.5" y="-212" font-family="Helvetica,sans-Serif" font-size="10.00">cv::viz::Widget3D</text>
<text text-anchor="start" x="51" y="-197" font-family="Helvetica,sans-Serif" font-size="10.00"> </text>
<text text-anchor="start" x="4.5" y="-182" font-family="Helvetica,sans-Serif" font-size="10.00">+</text>
<text text-anchor="start" x="17.5" y="-182" font-family="Helvetica,sans-Serif" font-size="10.00">Widget3D()</text>
<text text-anchor="start" x="4.5" y="-167" font-family="Helvetica,sans-Serif" font-size="10.00">+</text>
<text text-anchor="start" x="17.5" y="-167" font-family="Helvetica,sans-Serif" font-size="10.00">applyTransform()</text>
<text text-anchor="start" x="4.5" y="-152" font-family="Helvetica,sans-Serif" font-size="10.00">+</text>
<text text-anchor="start" x="17.5" y="-152" font-family="Helvetica,sans-Serif" font-size="10.00">getPose()</text>
<text text-anchor="start" x="4.5" y="-137" font-family="Helvetica,sans-Serif" font-size="10.00">+</text>
<text text-anchor="start" x="17.5" y="-137" font-family="Helvetica,sans-Serif" font-size="10.00">setColor()</text>
<text text-anchor="start" x="4.5" y="-122" font-family="Helvetica,sans-Serif" font-size="10.00">+</text>
<text text-anchor="start" x="17.5" y="-122" font-family="Helvetica,sans-Serif" font-size="10.00">setPose()</text>
<text text-anchor="start" x="4.5" y="-107" font-family="Helvetica,sans-Serif" font-size="10.00">+</text>
<text text-anchor="start" x="17.5" y="-107" font-family="Helvetica,sans-Serif" font-size="10.00">updatePose()</text>
<polygon fill="#666666" stroke="#666666" points="0.5,-207 0.5,-207 105.5,-207 105.5,-207 0.5,-207"/>
<polygon fill="#666666" stroke="#666666" points="0.5,-192 0.5,-192 105.5,-192 105.5,-192 0.5,-192"/>
<polygon fill="none" stroke="#666666" points="0,-100 0,-224 105,-224 105,-100 0,-100"/>
</a>
</g>
</g>
<!-- Node2&#45;&gt;Node1 -->
<g id="edge1_Node000001_Node000002" class="edge">
<title>Node2&#45;&gt;Node1</title>
<g id="a_edge1_Node000001_Node000002"><a xlink:title=" ">
<path fill="none" stroke="#63b8ff" d="M52.5,-89.86C52.5,-80.92 52.5,-72.17 52.5,-64.31"/>
<polygon fill="none" stroke="#63b8ff" points="49,-90 52.5,-100 56,-90 49,-90"/>
</a>
</g>
</g>
<!-- Node3 -->
<g id="Node000003" class="node">
<title>Node3</title>
<g id="a_Node000003"><a xlink:href="../../d7/dcd/classcv_1_1viz_1_1Widget.html" target="_top" xlink:title="Base class of all widgets. Widget is implicitly shared.">
<polygon fill="white" stroke="transparent" points="98.5,-474 6.5,-474 6.5,-260 98.5,-260 98.5,-474"/>
<text text-anchor="start" x="16.5" y="-462" font-family="Helvetica,sans-Serif" font-size="10.00">cv::viz::Widget</text>
<text text-anchor="start" x="50.5" y="-447" font-family="Helvetica,sans-Serif" font-size="10.00"> </text>
<text text-anchor="start" x="10.5" y="-432" font-family="Helvetica,sans-Serif" font-size="10.00">+</text>
<text text-anchor="start" x="23.5" y="-432" font-family="Helvetica,sans-Serif" font-size="10.00">Widget()</text>
<text text-anchor="start" x="10.5" y="-417" font-family="Helvetica,sans-Serif" font-size="10.00">+</text>
<text text-anchor="start" x="23.5" y="-417" font-family="Helvetica,sans-Serif" font-size="10.00">Widget()</text>
<text text-anchor="start" x="10.5" y="-402" font-family="Helvetica,sans-Serif" font-size="10.00">+</text>
<text text-anchor="start" x="23.5" y="-402" font-family="Helvetica,sans-Serif" font-size="10.00">~Widget()</text>
<text text-anchor="start" x="10.5" y="-387" font-family="Helvetica,sans-Serif" font-size="10.00">+</text>
<text text-anchor="start" x="23.5" y="-387" font-family="Helvetica,sans-Serif" font-size="10.00">cast()</text>
<text text-anchor="start" x="10.5" y="-372" font-family="Helvetica,sans-Serif" font-size="10.00">+</text>
<text text-anchor="start" x="23.5" y="-372" font-family="Helvetica,sans-Serif" font-size="10.00">cast()</text>
<text text-anchor="start" x="10.5" y="-357" font-family="Helvetica,sans-Serif" font-size="10.00">+</text>
<text text-anchor="start" x="23.5" y="-357" font-family="Helvetica,sans-Serif" font-size="10.00">cast()</text>
<text text-anchor="start" x="10.5" y="-342" font-family="Helvetica,sans-Serif" font-size="10.00">+</text>
<text text-anchor="start" x="23.5" y="-342" font-family="Helvetica,sans-Serif" font-size="10.00">cast()</text>
<text text-anchor="start" x="10.5" y="-327" font-family="Helvetica,sans-Serif" font-size="10.00">+</text>
<text text-anchor="start" x="23.5" y="-327" font-family="Helvetica,sans-Serif" font-size="10.00">cast()</text>
<text text-anchor="start" x="10.5" y="-312" font-family="Helvetica,sans-Serif" font-size="10.00">+</text>
<text text-anchor="start" x="23.5" y="-312" font-family="Helvetica,sans-Serif" font-size="10.00">cast()</text>
<text text-anchor="start" x="10.5" y="-297" font-family="Helvetica,sans-Serif" font-size="10.00">+</text>
<text text-anchor="start" x="23.5" y="-297" font-family="Helvetica,sans-Serif" font-size="10.00">cast()</text>
<text text-anchor="start" x="23.5" y="-282" font-family="Helvetica,sans-Serif" font-size="10.00">and 24 more...</text>
<text text-anchor="start" x="10.5" y="-267" font-family="Helvetica,sans-Serif" font-size="10.00">+</text>
<text text-anchor="start" x="23.5" y="-267" font-family="Helvetica,sans-Serif" font-size="10.00">fromPlyFile()</text>
<polygon fill="#666666" stroke="#666666" points="6.5,-457 6.5,-457 98.5,-457 98.5,-457 6.5,-457"/>
<polygon fill="#666666" stroke="#666666" points="6.5,-442 6.5,-442 98.5,-442 98.5,-442 6.5,-442"/>
<polygon fill="none" stroke="#666666" points="6.5,-260 6.5,-474 98.5,-474 98.5,-260 6.5,-260"/>
</a>
</g>
</g>
<!-- Node3&#45;&gt;Node2 -->
<g id="edge2_Node000002_Node000003" class="edge">
<title>Node3&#45;&gt;Node2</title>
<g id="a_edge2_Node000002_Node000003"><a xlink:title=" ">
<path fill="none" stroke="#63b8ff" d="M52.5,-249.5C52.5,-240.82 52.5,-232.29 52.5,-224.17"/>
<polygon fill="none" stroke="#63b8ff" points="49,-249.74 52.5,-259.74 56,-249.74 49,-249.74"/>
</a>
</g>
</g>
</g>
</svg>
