<?xml version="1.0" encoding="UTF-8" standalone="no"?>
<!DOCTYPE svg PUBLIC "-//W3C//DTD SVG 1.1//EN"
 "http://www.w3.org/Graphics/SVG/1.1/DTD/svg11.dtd">
<!-- Generated by graphviz version 2.43.0 (0)
 -->
<!-- Title: cv::cudev::PtrTraits&lt; SobelXPtrSz&lt; SrcPtr &gt; &gt; Pages: 1 -->
<svg width="207pt" height="354pt"
 viewBox="0.00 0.00 206.50 354.00" xmlns="http://www.w3.org/2000/svg" xmlns:xlink="http://www.w3.org/1999/xlink">
<g id="graph0" class="graph" transform="scale(1 1) rotate(0) translate(4 350)">
<title>cv::cudev::PtrTraits&lt; SobelXPtrSz&lt; SrcPtr &gt; &gt;</title>
<!-- Node1 -->
<g id="Node000001" class="node">
<title>Node1</title>
<g id="a_Node000001"><a xlink:title=" ">
<polygon fill="#999999" stroke="transparent" points="143,-60 0,-60 0,0 143,0 143,-60"/>
<text text-anchor="start" x="5.5" y="-48" font-family="Helvetica,sans-Serif" font-size="10.00">cv::cudev::PtrTraits</text>
<text text-anchor="start" x="5.5" y="-37" font-family="Helvetica,sans-Serif" font-size="10.00">&lt; SobelXPtrSz&lt; SrcPtr &gt; &gt;</text>
<text text-anchor="start" x="70" y="-22" font-family="Helvetica,sans-Serif" font-size="10.00"> </text>
<text text-anchor="start" x="70" y="-7" font-family="Helvetica,sans-Serif" font-size="10.00"> </text>
<polygon fill="#666666" stroke="#666666" points="0.5,-32 0.5,-32 143.5,-32 143.5,-32 0.5,-32"/>
<polygon fill="#666666" stroke="#666666" points="0.5,-17 0.5,-17 143.5,-17 143.5,-17 0.5,-17"/>
<polygon fill="none" stroke="#666666" points="0,0 0,-60 143,-60 143,0 0,0"/>
</a>
</g>
</g>
<!-- Node2 -->
<g id="Node000002" class="node">
<title>Node2</title>
<g id="a_Node000002"><a xlink:href="../../db/d3c/structcv_1_1cudev_1_1PtrTraitsBase.html" target="_top" xlink:title=" ">
<polygon fill="white" stroke="transparent" points="137,-198 6,-198 6,-97 137,-97 137,-198"/>
<text text-anchor="start" x="11.5" y="-185.5" font-family="Helvetica,sans-Serif" font-size="10.00">cv::cudev::PtrTraitsBase</text>
<text text-anchor="start" x="11.5" y="-174.5" font-family="Helvetica,sans-Serif" font-size="10.00">&lt; SobelXPtrSz&lt; SrcPtr &gt;</text>
<text text-anchor="start" x="14" y="-163.5" font-family="Helvetica,sans-Serif" font-size="10.00">, SobelXPtr&lt; SrcPtr &gt; &gt;</text>
<text text-anchor="start" x="70" y="-148.5" font-family="Helvetica,sans-Serif" font-size="10.00"> </text>
<text text-anchor="start" x="25" y="-133.5" font-family="Helvetica,sans-Serif" font-size="10.00">+</text>
<text text-anchor="start" x="52.5" y="-133.5" font-family="Helvetica,sans-Serif" font-size="10.00">getCols()</text>
<text text-anchor="start" x="25" y="-118.5" font-family="Helvetica,sans-Serif" font-size="10.00">+</text>
<text text-anchor="start" x="52.5" y="-118.5" font-family="Helvetica,sans-Serif" font-size="10.00">getRows()</text>
<text text-anchor="start" x="25" y="-103.5" font-family="Helvetica,sans-Serif" font-size="10.00">+</text>
<text text-anchor="start" x="52.5" y="-103.5" font-family="Helvetica,sans-Serif" font-size="10.00">shrinkPtr()</text>
<polygon fill="#666666" stroke="#666666" points="6.5,-158.5 6.5,-158.5 137.5,-158.5 137.5,-158.5 6.5,-158.5"/>
<polygon fill="#666666" stroke="#666666" points="6.5,-143.5 6.5,-143.5 137.5,-143.5 137.5,-143.5 6.5,-143.5"/>
<polygon fill="none" stroke="#666666" points="6,-97 6,-198 137,-198 137,-97 6,-97"/>
</a>
</g>
</g>
<!-- Node2&#45;&gt;Node1 -->
<g id="edge1_Node000001_Node000002" class="edge">
<title>Node2&#45;&gt;Node1</title>
<g id="a_edge1_Node000001_Node000002"><a xlink:title=" ">
<path fill="none" stroke="#63b8ff" d="M71.5,-86.84C71.5,-77.61 71.5,-68.44 71.5,-60.28"/>
<polygon fill="none" stroke="#63b8ff" points="68,-86.85 71.5,-96.85 75,-86.85 68,-86.85"/>
</a>
</g>
</g>
<!-- Node3 -->
<g id="Node000003" class="node">
<title>Node3</title>
<g id="a_Node000003"><a xlink:href="../../db/d3c/structcv_1_1cudev_1_1PtrTraitsBase.html" target="_top" xlink:title=" ">
<polygon fill="white" stroke="transparent" points="134,-346 9,-346 9,-256 134,-256 134,-346"/>
<text text-anchor="start" x="14.5" y="-334" font-family="Helvetica,sans-Serif" font-size="10.00">cv::cudev::PtrTraitsBase</text>
<text text-anchor="start" x="25" y="-323" font-family="Helvetica,sans-Serif" font-size="10.00">&lt; Ptr2DSz, Ptr2D &gt;</text>
<text text-anchor="start" x="70" y="-308" font-family="Helvetica,sans-Serif" font-size="10.00"> </text>
<text text-anchor="start" x="26.5" y="-293" font-family="Helvetica,sans-Serif" font-size="10.00">+</text>
<text text-anchor="start" x="52.5" y="-293" font-family="Helvetica,sans-Serif" font-size="10.00">getCols()</text>
<text text-anchor="start" x="26.5" y="-278" font-family="Helvetica,sans-Serif" font-size="10.00">+</text>
<text text-anchor="start" x="52.5" y="-278" font-family="Helvetica,sans-Serif" font-size="10.00">getRows()</text>
<text text-anchor="start" x="26.5" y="-263" font-family="Helvetica,sans-Serif" font-size="10.00">+</text>
<text text-anchor="start" x="52.5" y="-263" font-family="Helvetica,sans-Serif" font-size="10.00">shrinkPtr()</text>
<polygon fill="#666666" stroke="#666666" points="9.5,-318 9.5,-318 134.5,-318 134.5,-318 9.5,-318"/>
<polygon fill="#666666" stroke="#666666" points="9.5,-303 9.5,-303 134.5,-303 134.5,-303 9.5,-303"/>
<polygon fill="none" stroke="#666666" points="9,-256 9,-346 134,-346 134,-256 9,-256"/>
</a>
</g>
</g>
<!-- Node3&#45;&gt;Node2 -->
<g id="edge2_Node000002_Node000003" class="edge">
<title>Node3&#45;&gt;Node2</title>
<g id="a_edge2_Node000002_Node000003"><a xlink:title=" ">
<path fill="none" stroke="orange" d="M71.5,-245.33C71.5,-229.9 71.5,-213.21 71.5,-198.1"/>
<polygon fill="orange" stroke="orange" points="68,-245.77 71.5,-255.77 75,-245.77 68,-245.77"/>
</a>
</g>
<text text-anchor="start" x="71.5" y="-230" font-family="Helvetica,sans-Serif" font-size="10.00" fill="grey"> &lt; SobelXPtrSz&lt; SrcPtr</text>
<text text-anchor="middle" x="135" y="-219" font-family="Helvetica,sans-Serif" font-size="10.00" fill="grey"> &gt;, SobelXPtr&lt; SrcPtr &gt; &gt;</text>
</g>
</g>
</svg>
