<?xml version="1.0" encoding="UTF-8" standalone="no"?>
<!DOCTYPE svg PUBLIC "-//W3C//DTD SVG 1.1//EN"
 "http://www.w3.org/Graphics/SVG/1.1/DTD/svg11.dtd">
<!-- Generated by graphviz version 2.43.0 (0)
 -->
<!-- Title: cv::reg::MapperGradProj Pages: 1 -->
<svg width="136pt" height="262pt"
 viewBox="0.00 0.00 136.00 262.00" xmlns="http://www.w3.org/2000/svg" xmlns:xlink="http://www.w3.org/1999/xlink">
<g id="graph0" class="graph" transform="scale(1 1) rotate(0) translate(4 258)">
<title>cv::reg::MapperGradProj</title>
<!-- Node1 -->
<g id="Node000001" class="node">
<title>Node1</title>
<g id="a_Node000001"><a xlink:title=" ">
<polygon fill="#999999" stroke="transparent" points="128,-94 0,-94 0,0 128,0 128,-94"/>
<text text-anchor="start" x="5" y="-82" font-family="Helvetica,sans-Serif" font-size="10.00">cv::reg::MapperGradProj</text>
<text text-anchor="start" x="62" y="-67" font-family="Helvetica,sans-Serif" font-size="10.00"> </text>
<text text-anchor="start" x="7" y="-52" font-family="Helvetica,sans-Serif" font-size="10.00">+</text>
<text text-anchor="start" x="23" y="-52" font-family="Helvetica,sans-Serif" font-size="10.00">MapperGradProj()</text>
<text text-anchor="start" x="7" y="-37" font-family="Helvetica,sans-Serif" font-size="10.00">+</text>
<text text-anchor="start" x="23" y="-37" font-family="Helvetica,sans-Serif" font-size="10.00">~MapperGradProj()</text>
<text text-anchor="start" x="7" y="-22" font-family="Helvetica,sans-Serif" font-size="10.00">+</text>
<text text-anchor="start" x="23" y="-22" font-family="Helvetica,sans-Serif" font-size="10.00">calculate()</text>
<text text-anchor="start" x="7" y="-7" font-family="Helvetica,sans-Serif" font-size="10.00">+</text>
<text text-anchor="start" x="23" y="-7" font-family="Helvetica,sans-Serif" font-size="10.00">getMap()</text>
<polygon fill="#666666" stroke="#666666" points="0,-77 0,-77 128,-77 128,-77 0,-77"/>
<polygon fill="#666666" stroke="#666666" points="0,-62 0,-62 128,-62 128,-62 0,-62"/>
<polygon fill="none" stroke="#666666" points="0,0 0,-94 128,-94 128,0 0,0"/>
</a>
</g>
</g>
<!-- Node2 -->
<g id="Node000002" class="node">
<title>Node2</title>
<g id="a_Node000002"><a xlink:href="../../d0/d6c/classcv_1_1reg_1_1Mapper.html" target="_top" xlink:title="Base class for modelling an algorithm for calculating a map.">
<polygon fill="white" stroke="transparent" points="107,-254 21,-254 21,-130 107,-130 107,-254"/>
<text text-anchor="start" x="26" y="-242" font-family="Helvetica,sans-Serif" font-size="10.00">cv::reg::Mapper</text>
<text text-anchor="start" x="62" y="-227" font-family="Helvetica,sans-Serif" font-size="10.00"> </text>
<text text-anchor="start" x="28" y="-212" font-family="Helvetica,sans-Serif" font-size="10.00">+</text>
<text text-anchor="start" x="44" y="-212" font-family="Helvetica,sans-Serif" font-size="10.00">~Mapper()</text>
<text text-anchor="start" x="28" y="-197" font-family="Helvetica,sans-Serif" font-size="10.00">+</text>
<text text-anchor="start" x="44" y="-197" font-family="Helvetica,sans-Serif" font-size="10.00">calculate()</text>
<text text-anchor="start" x="28" y="-182" font-family="Helvetica,sans-Serif" font-size="10.00">+</text>
<text text-anchor="start" x="44" y="-182" font-family="Helvetica,sans-Serif" font-size="10.00">getMap()</text>
<text text-anchor="start" x="28" y="-167" font-family="Helvetica,sans-Serif" font-size="10.00">#</text>
<text text-anchor="start" x="44" y="-167" font-family="Helvetica,sans-Serif" font-size="10.00">gradient()</text>
<text text-anchor="start" x="28" y="-152" font-family="Helvetica,sans-Serif" font-size="10.00">#</text>
<text text-anchor="start" x="44" y="-152" font-family="Helvetica,sans-Serif" font-size="10.00">grid()</text>
<text text-anchor="start" x="28" y="-137" font-family="Helvetica,sans-Serif" font-size="10.00">#</text>
<text text-anchor="start" x="44" y="-137" font-family="Helvetica,sans-Serif" font-size="10.00">sqr()</text>
<polygon fill="#666666" stroke="#666666" points="21,-237 21,-237 107,-237 107,-237 21,-237"/>
<polygon fill="#666666" stroke="#666666" points="21,-222 21,-222 107,-222 107,-222 21,-222"/>
<polygon fill="none" stroke="#666666" points="21,-130 21,-254 107,-254 107,-130 21,-130"/>
</a>
</g>
</g>
<!-- Node2&#45;&gt;Node1 -->
<g id="edge1_Node000001_Node000002" class="edge">
<title>Node2&#45;&gt;Node1</title>
<g id="a_edge1_Node000001_Node000002"><a xlink:title=" ">
<path fill="none" stroke="#63b8ff" d="M64,-119.76C64,-111.05 64,-102.34 64,-94.15"/>
<polygon fill="none" stroke="#63b8ff" points="60.5,-119.94 64,-129.94 67.5,-119.94 60.5,-119.94"/>
</a>
</g>
</g>
</g>
</svg>
