<?xml version="1.0" encoding="UTF-8" standalone="no"?>
<!DOCTYPE svg PUBLIC "-//W3C//DTD SVG 1.1//EN"
 "http://www.w3.org/Graphics/SVG/1.1/DTD/svg11.dtd">
<!-- Generated by graphviz version 2.43.0 (0)
 -->
<!-- Title: opencv2/cudev/functional/color_cvt.hpp Pages: 1 -->
<svg width="180pt" height="159pt"
 viewBox="0.00 0.00 179.50 159.00" xmlns="http://www.w3.org/2000/svg" xmlns:xlink="http://www.w3.org/1999/xlink">
<g id="graph0" class="graph" transform="scale(1 1) rotate(0) translate(4 155)">
<title>opencv2/cudev/functional/color_cvt.hpp</title>
<!-- Node1 -->
<g id="Node000001" class="node">
<title>Node1</title>
<g id="a_Node000001"><a xlink:title=" ">
<polygon fill="#999999" stroke="#666666" points="142,-151 0,-151 0,-121 142,-121 142,-151"/>
<text text-anchor="start" x="8" y="-139" font-family="Helvetica,sans-Serif" font-size="10.00">opencv2/cudev/functional</text>
<text text-anchor="middle" x="71" y="-128" font-family="Helvetica,sans-Serif" font-size="10.00">/color_cvt.hpp</text>
</a>
</g>
</g>
<!-- Node2 -->
<g id="Node000002" class="node">
<title>Node2</title>
<g id="a_Node000002"><a xlink:href="../../d6/d38/cudev_8hpp.html" target="_top" xlink:title=" ">
<polygon fill="white" stroke="#666666" points="126,-19 16,-19 16,0 126,0 126,-19"/>
<text text-anchor="middle" x="71" y="-7" font-family="Helvetica,sans-Serif" font-size="10.00">opencv2/cudev.hpp</text>
</a>
</g>
</g>
<!-- Node1&#45;&gt;Node2 -->
<g id="edge1_Node000001_Node000002" class="edge">
<title>Node1&#45;&gt;Node2</title>
<g id="a_edge1_Node000001_Node000002"><a xlink:title=" ">
<path fill="none" stroke="#63b8ff" d="M57.79,-111.76C53.82,-103.57 50,-94.12 48,-85 45.15,-71.98 44.85,-67.96 48,-55 51.25,-41.65 59.25,-27.83 64.9,-19.2"/>
<polygon fill="#63b8ff" stroke="#63b8ff" points="54.71,-113.43 62.41,-120.71 60.93,-110.22 54.71,-113.43"/>
</a>
</g>
</g>
<!-- Node3 -->
<g id="Node000003" class="node">
<title>Node3</title>
<g id="a_Node000003"><a xlink:href="../../dc/d7a/contrib_2modules_2cudev_2include_2opencv2_2cudev_2expr_2color_8hpp.html" target="_top" xlink:title=" ">
<polygon fill="white" stroke="#666666" points="171.5,-85 56.5,-85 56.5,-55 171.5,-55 171.5,-85"/>
<text text-anchor="start" x="64.5" y="-73" font-family="Helvetica,sans-Serif" font-size="10.00">opencv2/cudev/expr</text>
<text text-anchor="middle" x="114" y="-62" font-family="Helvetica,sans-Serif" font-size="10.00">/color.hpp</text>
</a>
</g>
</g>
<!-- Node1&#45;&gt;Node3 -->
<g id="edge2_Node000001_Node000003" class="edge">
<title>Node1&#45;&gt;Node3</title>
<g id="a_edge2_Node000001_Node000003"><a xlink:title=" ">
<path fill="none" stroke="#63b8ff" d="M86.29,-112.24C92.36,-103.21 99.14,-93.11 104.48,-85.16"/>
<polygon fill="#63b8ff" stroke="#63b8ff" points="83.21,-110.54 80.54,-120.8 89.03,-114.45 83.21,-110.54"/>
</a>
</g>
</g>
<!-- Node3&#45;&gt;Node2 -->
<g id="edge3_Node000003_Node000002" class="edge">
<title>Node3&#45;&gt;Node2</title>
<g id="a_edge3_Node000003_Node000002"><a xlink:title=" ">
<path fill="none" stroke="#63b8ff" d="M97.47,-46.51C90.47,-36.99 82.74,-26.47 77.44,-19.27"/>
<polygon fill="#63b8ff" stroke="#63b8ff" points="94.85,-48.85 103.59,-54.84 100.49,-44.71 94.85,-48.85"/>
</a>
</g>
</g>
</g>
</svg>
