<?xml version="1.0" encoding="UTF-8" standalone="no"?>
<!DOCTYPE svg PUBLIC "-//W3C//DTD SVG 1.1//EN"
 "http://www.w3.org/Graphics/SVG/1.1/DTD/svg11.dtd">
<!-- Generated by graphviz version 2.43.0 (0)
 -->
<!-- Title: opencv2/gapi/gcomputation.hpp Pages: 1 -->
<svg width="4494pt" height="390pt"
 viewBox="0.00 0.00 4494.00 390.00" xmlns="http://www.w3.org/2000/svg" xmlns:xlink="http://www.w3.org/1999/xlink">
<g id="graph0" class="graph" transform="scale(1 1) rotate(0) translate(4 386)">
<title>opencv2/gapi/gcomputation.hpp</title>
<!-- Node1 -->
<g id="Node000001" class="node">
<title>Node1</title>
<g id="a_Node000001"><a xlink:title=" ">
<polygon fill="#999999" stroke="#666666" points="397,-382 224,-382 224,-363 397,-363 397,-382"/>
<text text-anchor="middle" x="310.5" y="-370" font-family="Helvetica,sans-Serif" font-size="10.00">opencv2/gapi/gcomputation.hpp</text>
</a>
</g>
</g>
<!-- Node2 -->
<g id="Node000002" class="node">
<title>Node2</title>
<g id="a_Node000002"><a xlink:href="../../d7/d20/gapi_8hpp.html" target="_top" xlink:title=" ">
<polygon fill="white" stroke="#666666" points="120,-145.5 17,-145.5 17,-126.5 120,-126.5 120,-145.5"/>
<text text-anchor="middle" x="68.5" y="-133.5" font-family="Helvetica,sans-Serif" font-size="10.00">opencv2/gapi.hpp</text>
</a>
</g>
</g>
<!-- Node1&#45;&gt;Node2 -->
<g id="edge1_Node000001_Node000002" class="edge">
<title>Node1&#45;&gt;Node2</title>
<g id="a_edge1_Node000001_Node000002"><a xlink:title=" ">
<path fill="none" stroke="#63b8ff" d="M213.95,-365.34C151,-359.39 76.27,-348.07 52.5,-327 4.65,-284.6 -4.67,-246.18 19.5,-187 26.76,-169.22 43.72,-154.34 55.65,-145.56"/>
<polygon fill="#63b8ff" stroke="#63b8ff" points="213.67,-368.83 223.94,-366.25 214.3,-361.86 213.67,-368.83"/>
</a>
</g>
</g>
<!-- Node6 -->
<g id="Node000006" class="node">
<title>Node6</title>
<g id="a_Node000006"><a xlink:href="../../d7/ded/gtransform_8hpp.html" target="_top" xlink:title=" ">
<polygon fill="white" stroke="#666666" points="1457.5,-327 1297.5,-327 1297.5,-308 1457.5,-308 1457.5,-327"/>
<text text-anchor="middle" x="1377.5" y="-315" font-family="Helvetica,sans-Serif" font-size="10.00">opencv2/gapi/gtransform.hpp</text>
</a>
</g>
</g>
<!-- Node1&#45;&gt;Node6 -->
<g id="edge5_Node000001_Node000006" class="edge">
<title>Node1&#45;&gt;Node6</title>
<g id="a_edge5_Node000001_Node000006"><a xlink:title=" ">
<path fill="none" stroke="#63b8ff" d="M407.39,-366.69C616.07,-356.32 1104.67,-332.05 1297.34,-322.48"/>
<polygon fill="#63b8ff" stroke="#63b8ff" points="407.18,-363.19 397.36,-367.19 407.53,-370.18 407.18,-363.19"/>
</a>
</g>
</g>
<!-- Node46 -->
<g id="Node000046" class="node">
<title>Node46</title>
<g id="a_Node000046"><a xlink:href="../../dd/d07/gtyped_8hpp.html" target="_top" xlink:title=" ">
<polygon fill="white" stroke="#666666" points="201.5,-327 61.5,-327 61.5,-308 201.5,-308 201.5,-327"/>
<text text-anchor="middle" x="131.5" y="-315" font-family="Helvetica,sans-Serif" font-size="10.00">opencv2/gapi/gtyped.hpp</text>
</a>
</g>
</g>
<!-- Node1&#45;&gt;Node46 -->
<g id="edge57_Node000001_Node000046" class="edge">
<title>Node1&#45;&gt;Node46</title>
<g id="a_edge57_Node000001_Node000046"><a xlink:title=" ">
<path fill="none" stroke="#63b8ff" d="M271.85,-360.06C238.39,-350.15 190.75,-336.04 160.48,-327.08"/>
<polygon fill="#63b8ff" stroke="#63b8ff" points="271.16,-363.5 281.74,-362.98 273.15,-356.79 271.16,-363.5"/>
</a>
</g>
</g>
<!-- Node47 -->
<g id="Node000047" class="node">
<title>Node47</title>
<g id="a_Node000047"><a xlink:href="../../d3/dc7/s11n_8hpp.html" target="_top" xlink:title=" ">
<polygon fill="white" stroke="#666666" points="420,-272 291,-272 291,-253 420,-253 420,-272"/>
<text text-anchor="middle" x="355.5" y="-260" font-family="Helvetica,sans-Serif" font-size="10.00">opencv2/gapi/s11n.hpp</text>
</a>
</g>
</g>
<!-- Node1&#45;&gt;Node47 -->
<g id="edge59_Node000001_Node000047" class="edge">
<title>Node1&#45;&gt;Node47</title>
<g id="a_edge59_Node000001_Node000047"><a xlink:title=" ">
<path fill="none" stroke="#63b8ff" d="M318.16,-353.12C327.97,-329.56 344.6,-289.66 351.89,-272.16"/>
<polygon fill="#63b8ff" stroke="#63b8ff" points="314.8,-352.08 314.18,-362.66 321.26,-354.78 314.8,-352.08"/>
</a>
</g>
</g>
<!-- Node3 -->
<g id="Node000003" class="node">
<title>Node3</title>
<g id="a_Node000003"><a xlink:href="../../d4/d80/ot_8hpp.html" target="_top" xlink:title=" ">
<polygon fill="white" stroke="#666666" points="420.5,-79.5 304.5,-79.5 304.5,-60.5 420.5,-60.5 420.5,-79.5"/>
<text text-anchor="middle" x="362.5" y="-67.5" font-family="Helvetica,sans-Serif" font-size="10.00">opencv2/gapi/ot.hpp</text>
</a>
</g>
</g>
<!-- Node2&#45;&gt;Node3 -->
<g id="edge2_Node000002_Node000003" class="edge">
<title>Node2&#45;&gt;Node3</title>
<g id="a_edge2_Node000002_Node000003"><a xlink:title=" ">
<path fill="none" stroke="#63b8ff" d="M117.85,-124.26C175.69,-111.67 270.37,-91.06 323.39,-79.51"/>
<polygon fill="#63b8ff" stroke="#63b8ff" points="116.87,-120.89 107.85,-126.44 118.36,-127.73 116.87,-120.89"/>
</a>
</g>
</g>
<!-- Node4 -->
<g id="Node000004" class="node">
<title>Node4</title>
<g id="a_Node000004"><a xlink:href="../../d1/dda/render_2render_8hpp.html" target="_top" xlink:title=" ">
<polygon fill="white" stroke="#666666" points="126.5,-85 10.5,-85 10.5,-55 126.5,-55 126.5,-85"/>
<text text-anchor="start" x="18.5" y="-73" font-family="Helvetica,sans-Serif" font-size="10.00">opencv2/gapi/render</text>
<text text-anchor="middle" x="68.5" y="-62" font-family="Helvetica,sans-Serif" font-size="10.00">/render.hpp</text>
</a>
</g>
</g>
<!-- Node2&#45;&gt;Node4 -->
<g id="edge3_Node000002_Node000004" class="edge">
<title>Node2&#45;&gt;Node4</title>
<g id="a_edge3_Node000002_Node000004"><a xlink:title=" ">
<path fill="none" stroke="#63b8ff" d="M68.5,-116.35C68.5,-106.47 68.5,-94.51 68.5,-85.36"/>
<polygon fill="#63b8ff" stroke="#63b8ff" points="65,-116.37 68.5,-126.37 72,-116.37 65,-116.37"/>
</a>
</g>
</g>
<!-- Node5 -->
<g id="Node000005" class="node">
<title>Node5</title>
<g id="a_Node000005"><a xlink:href="../../d6/d4b/render_8hpp.html" target="_top" xlink:title=" ">
<polygon fill="white" stroke="#666666" points="137,-19 0,-19 0,0 137,0 137,-19"/>
<text text-anchor="middle" x="68.5" y="-7" font-family="Helvetica,sans-Serif" font-size="10.00">opencv2/gapi/render.hpp</text>
</a>
</g>
</g>
<!-- Node4&#45;&gt;Node5 -->
<g id="edge4_Node000004_Node000005" class="edge">
<title>Node4&#45;&gt;Node5</title>
<g id="a_edge4_Node000004_Node000005"><a xlink:title=" ">
<path fill="none" stroke="#63b8ff" d="M68.5,-44.75C68.5,-35.72 68.5,-26.03 68.5,-19.27"/>
<polygon fill="#63b8ff" stroke="#63b8ff" points="65,-44.84 68.5,-54.84 72,-44.84 65,-44.84"/>
</a>
</g>
</g>
<!-- Node7 -->
<g id="Node000007" class="node">
<title>Node7</title>
<g id="a_Node000007"><a xlink:href="../../de/d7f/gkernel_8hpp.html" target="_top" xlink:title=" ">
<polygon fill="white" stroke="#666666" points="2362.5,-272 2220.5,-272 2220.5,-253 2362.5,-253 2362.5,-272"/>
<text text-anchor="middle" x="2291.5" y="-260" font-family="Helvetica,sans-Serif" font-size="10.00">opencv2/gapi/gkernel.hpp</text>
</a>
</g>
</g>
<!-- Node6&#45;&gt;Node7 -->
<g id="edge6_Node000006_Node000007" class="edge">
<title>Node6&#45;&gt;Node7</title>
<g id="a_edge6_Node000006_Node000007"><a xlink:title=" ">
<path fill="none" stroke="#63b8ff" d="M1467.87,-311.26C1649.57,-300.72 2055.79,-277.17 2220.29,-267.63"/>
<polygon fill="#63b8ff" stroke="#63b8ff" points="1467.59,-307.77 1457.81,-311.84 1468,-314.76 1467.59,-307.77"/>
</a>
</g>
</g>
<!-- Node7&#45;&gt;Node2 -->
<g id="edge7_Node000007_Node000002" class="edge">
<title>Node7&#45;&gt;Node2</title>
<g id="a_edge7_Node000007_Node000002"><a xlink:title=" ">
<path fill="none" stroke="#63b8ff" d="M2210.47,-261.44C1812.05,-260.95 78.26,-256.54 39.5,-217 19.64,-196.75 45.88,-161.87 60.25,-145.7"/>
<polygon fill="#63b8ff" stroke="#63b8ff" points="2210.47,-264.94 2220.48,-261.45 2210.48,-257.94 2210.47,-264.94"/>
</a>
</g>
</g>
<!-- Node7&#45;&gt;Node3 -->
<g id="edge43_Node000007_Node000003" class="edge">
<title>Node7&#45;&gt;Node3</title>
<g id="a_edge43_Node000007_Node000003"><a xlink:title=" ">
<path fill="none" stroke="#63b8ff" d="M2210.08,-261.75C1863.25,-262.53 523.18,-262.59 446.5,-217 393.21,-185.32 370.58,-105.98 364.37,-79.65"/>
<polygon fill="#63b8ff" stroke="#63b8ff" points="2210.3,-265.25 2220.3,-261.73 2210.29,-258.25 2210.3,-265.25"/>
</a>
</g>
</g>
<!-- Node8 -->
<g id="Node000008" class="node">
<title>Node8</title>
<g id="a_Node000008"><a xlink:href="../../d4/df9/gapi_2include_2opencv2_2gapi_2core_8hpp.html" target="_top" xlink:title=" ">
<polygon fill="white" stroke="#666666" points="556,-145.5 429,-145.5 429,-126.5 556,-126.5 556,-145.5"/>
<text text-anchor="middle" x="492.5" y="-133.5" font-family="Helvetica,sans-Serif" font-size="10.00">opencv2/gapi/core.hpp</text>
</a>
</g>
</g>
<!-- Node7&#45;&gt;Node8 -->
<g id="edge8_Node000007_Node000008" class="edge">
<title>Node7&#45;&gt;Node8</title>
<g id="a_edge8_Node000007_Node000008"><a xlink:title=" ">
<path fill="none" stroke="#63b8ff" d="M2210.3,-261.06C1859.28,-258.97 488.53,-248.79 457.5,-217 437.17,-196.17 467.02,-161.59 483.22,-145.59"/>
<polygon fill="#63b8ff" stroke="#63b8ff" points="2210.37,-264.56 2220.39,-261.12 2210.41,-257.56 2210.37,-264.56"/>
</a>
</g>
</g>
<!-- Node9 -->
<g id="Node000009" class="node">
<title>Node9</title>
<g id="a_Node000009"><a xlink:href="../../d4/df2/gapi_2include_2opencv2_2gapi_2cpu_2core_8hpp.html" target="_top" xlink:title=" ">
<polygon fill="white" stroke="#666666" points="778,-211.5 631,-211.5 631,-192.5 778,-192.5 778,-211.5"/>
<text text-anchor="middle" x="704.5" y="-199.5" font-family="Helvetica,sans-Serif" font-size="10.00">opencv2/gapi/cpu/core.hpp</text>
</a>
</g>
</g>
<!-- Node7&#45;&gt;Node9 -->
<g id="edge9_Node000007_Node000009" class="edge">
<title>Node7&#45;&gt;Node9</title>
<g id="a_edge9_Node000007_Node000009"><a xlink:title=" ">
<path fill="none" stroke="#63b8ff" d="M2210.04,-260.57C1938.73,-257.23 1067.1,-244.59 787.5,-217 774.7,-215.74 760.9,-213.69 748.29,-211.54"/>
<polygon fill="#63b8ff" stroke="#63b8ff" points="2210.17,-264.07 2220.21,-260.69 2210.25,-257.07 2210.17,-264.07"/>
</a>
</g>
</g>
<!-- Node10 -->
<g id="Node000010" class="node">
<title>Node10</title>
<g id="a_Node000010"><a xlink:href="../../da/d73/gcpukernel_8hpp.html" target="_top" xlink:title=" ">
<polygon fill="white" stroke="#666666" points="975,-211.5 796,-211.5 796,-192.5 975,-192.5 975,-211.5"/>
<text text-anchor="middle" x="885.5" y="-199.5" font-family="Helvetica,sans-Serif" font-size="10.00">opencv2/gapi/cpu/gcpukernel.hpp</text>
</a>
</g>
</g>
<!-- Node7&#45;&gt;Node10 -->
<g id="edge10_Node000007_Node000010" class="edge">
<title>Node7&#45;&gt;Node10</title>
<g id="a_edge10_Node000007_Node000010"><a xlink:title=" ">
<path fill="none" stroke="#63b8ff" d="M2210.03,-261.73C2004.21,-261.67 1446.86,-257.45 984.5,-217 969.46,-215.68 953.2,-213.65 938.3,-211.53"/>
<polygon fill="#63b8ff" stroke="#63b8ff" points="2210.15,-265.23 2220.15,-261.73 2210.15,-258.23 2210.15,-265.23"/>
</a>
</g>
</g>
<!-- Node11 -->
<g id="Node000011" class="node">
<title>Node11</title>
<g id="a_Node000011"><a xlink:href="../../d0/d08/gapi_2include_2opencv2_2gapi_2cpu_2imgproc_8hpp.html" target="_top" xlink:title=" ">
<polygon fill="white" stroke="#666666" points="1159.5,-211.5 993.5,-211.5 993.5,-192.5 1159.5,-192.5 1159.5,-211.5"/>
<text text-anchor="middle" x="1076.5" y="-199.5" font-family="Helvetica,sans-Serif" font-size="10.00">opencv2/gapi/cpu/imgproc.hpp</text>
</a>
</g>
</g>
<!-- Node7&#45;&gt;Node11 -->
<g id="edge11_Node000007_Node000011" class="edge">
<title>Node7&#45;&gt;Node11</title>
<g id="a_edge11_Node000007_Node000011"><a xlink:title=" ">
<path fill="none" stroke="#63b8ff" d="M2210.16,-261.38C2024.88,-260.42 1557.38,-254.18 1168.5,-217 1154.67,-215.68 1139.75,-213.66 1126.03,-211.57"/>
<polygon fill="#63b8ff" stroke="#63b8ff" points="2210.35,-264.88 2220.36,-261.43 2210.38,-257.88 2210.35,-264.88"/>
</a>
</g>
</g>
<!-- Node12 -->
<g id="Node000012" class="node">
<title>Node12</title>
<g id="a_Node000012"><a xlink:href="../../d1/dca/cpu_2ot_8hpp.html" target="_top" xlink:title=" ">
<polygon fill="white" stroke="#666666" points="1313.5,-211.5 1177.5,-211.5 1177.5,-192.5 1313.5,-192.5 1313.5,-211.5"/>
<text text-anchor="middle" x="1245.5" y="-199.5" font-family="Helvetica,sans-Serif" font-size="10.00">opencv2/gapi/cpu/ot.hpp</text>
</a>
</g>
</g>
<!-- Node7&#45;&gt;Node12 -->
<g id="edge12_Node000007_Node000012" class="edge">
<title>Node7&#45;&gt;Node12</title>
<g id="a_edge12_Node000007_Node000012"><a xlink:title=" ">
<path fill="none" stroke="#63b8ff" d="M2210.02,-261.37C2043.13,-260.3 1650.6,-253.71 1323.5,-217 1311.61,-215.66 1298.79,-213.62 1287.05,-211.5"/>
<polygon fill="#63b8ff" stroke="#63b8ff" points="2210.18,-264.87 2220.2,-261.43 2210.22,-257.87 2210.18,-264.87"/>
</a>
</g>
</g>
<!-- Node13 -->
<g id="Node000013" class="node">
<title>Node13</title>
<g id="a_Node000013"><a xlink:href="../../d1/ddf/modules_2gapi_2include_2opencv2_2gapi_2cpu_2stereo_8hpp.html" target="_top" xlink:title=" ">
<polygon fill="white" stroke="#666666" points="1489,-211.5 1332,-211.5 1332,-192.5 1489,-192.5 1489,-211.5"/>
<text text-anchor="middle" x="1410.5" y="-199.5" font-family="Helvetica,sans-Serif" font-size="10.00">opencv2/gapi/cpu/stereo.hpp</text>
</a>
</g>
</g>
<!-- Node7&#45;&gt;Node13 -->
<g id="edge13_Node000007_Node000013" class="edge">
<title>Node7&#45;&gt;Node13</title>
<g id="a_edge13_Node000007_Node000013"><a xlink:title=" ">
<path fill="none" stroke="#63b8ff" d="M2210.42,-259.67C2066.65,-255.82 1757.74,-244.82 1498.5,-217 1485.43,-215.6 1471.33,-213.58 1458.34,-211.52"/>
<polygon fill="#63b8ff" stroke="#63b8ff" points="2210.4,-263.17 2220.49,-259.94 2210.58,-256.17 2210.4,-263.17"/>
</a>
</g>
</g>
<!-- Node14 -->
<g id="Node000014" class="node">
<title>Node14</title>
<g id="a_Node000014"><a xlink:href="../../d3/d41/gapi_2include_2opencv2_2gapi_2cpu_2video_8hpp.html" target="_top" xlink:title=" ">
<polygon fill="white" stroke="#666666" points="1660,-211.5 1507,-211.5 1507,-192.5 1660,-192.5 1660,-211.5"/>
<text text-anchor="middle" x="1583.5" y="-199.5" font-family="Helvetica,sans-Serif" font-size="10.00">opencv2/gapi/cpu/video.hpp</text>
</a>
</g>
</g>
<!-- Node7&#45;&gt;Node14 -->
<g id="edge14_Node000007_Node000014" class="edge">
<title>Node7&#45;&gt;Node14</title>
<g id="a_edge14_Node000007_Node000014"><a xlink:title=" ">
<path fill="none" stroke="#63b8ff" d="M2210.29,-258.02C2091.32,-252.4 1862.8,-239.6 1669.5,-217 1657.03,-215.54 1643.61,-213.56 1631.16,-211.54"/>
<polygon fill="#63b8ff" stroke="#63b8ff" points="2210.26,-261.53 2220.41,-258.5 2210.59,-254.53 2210.26,-261.53"/>
</a>
</g>
</g>
<!-- Node15 -->
<g id="Node000015" class="node">
<title>Node15</title>
<g id="a_Node000015"><a xlink:href="../../d3/d81/gapi_2include_2opencv2_2gapi_2fluid_2core_8hpp.html" target="_top" xlink:title=" ">
<polygon fill="white" stroke="#666666" points="1784.5,-217 1678.5,-217 1678.5,-187 1784.5,-187 1784.5,-217"/>
<text text-anchor="start" x="1686.5" y="-205" font-family="Helvetica,sans-Serif" font-size="10.00">opencv2/gapi/fluid</text>
<text text-anchor="middle" x="1731.5" y="-194" font-family="Helvetica,sans-Serif" font-size="10.00">/core.hpp</text>
</a>
</g>
</g>
<!-- Node7&#45;&gt;Node15 -->
<g id="edge15_Node000007_Node000015" class="edge">
<title>Node7&#45;&gt;Node15</title>
<g id="a_edge15_Node000007_Node000015"><a xlink:title=" ">
<path fill="none" stroke="#63b8ff" d="M2209.99,-257.55C2111.02,-251.99 1939.27,-239.87 1793.5,-217 1790.56,-216.54 1787.54,-216.02 1784.51,-215.46"/>
<polygon fill="#63b8ff" stroke="#63b8ff" points="2210.04,-261.06 2220.21,-258.12 2210.42,-254.07 2210.04,-261.06"/>
</a>
</g>
</g>
<!-- Node16 -->
<g id="Node000016" class="node">
<title>Node16</title>
<g id="a_Node000016"><a xlink:href="../../d3/d53/gfluidkernel_8hpp.html" target="_top" xlink:title=" ">
<polygon fill="white" stroke="#666666" points="1908.5,-217 1802.5,-217 1802.5,-187 1908.5,-187 1908.5,-217"/>
<text text-anchor="start" x="1810.5" y="-205" font-family="Helvetica,sans-Serif" font-size="10.00">opencv2/gapi/fluid</text>
<text text-anchor="middle" x="1855.5" y="-194" font-family="Helvetica,sans-Serif" font-size="10.00">/gfluidkernel.hpp</text>
</a>
</g>
</g>
<!-- Node7&#45;&gt;Node16 -->
<g id="edge16_Node000007_Node000016" class="edge">
<title>Node7&#45;&gt;Node16</title>
<g id="a_edge16_Node000007_Node000016"><a xlink:title=" ">
<path fill="none" stroke="#63b8ff" d="M2210.19,-254.28C2134.2,-246.95 2017.72,-234.23 1917.5,-217 1914.56,-216.5 1911.56,-215.94 1908.53,-215.35"/>
<polygon fill="#63b8ff" stroke="#63b8ff" points="2209.89,-257.76 2220.18,-255.23 2210.56,-250.8 2209.89,-257.76"/>
</a>
</g>
</g>
<!-- Node17 -->
<g id="Node000017" class="node">
<title>Node17</title>
<g id="a_Node000017"><a xlink:href="../../de/da0/gapi_2include_2opencv2_2gapi_2fluid_2imgproc_8hpp.html" target="_top" xlink:title=" ">
<polygon fill="white" stroke="#666666" points="2032.5,-217 1926.5,-217 1926.5,-187 2032.5,-187 2032.5,-217"/>
<text text-anchor="start" x="1934.5" y="-205" font-family="Helvetica,sans-Serif" font-size="10.00">opencv2/gapi/fluid</text>
<text text-anchor="middle" x="1979.5" y="-194" font-family="Helvetica,sans-Serif" font-size="10.00">/imgproc.hpp</text>
</a>
</g>
</g>
<!-- Node7&#45;&gt;Node17 -->
<g id="edge17_Node000007_Node000017" class="edge">
<title>Node7&#45;&gt;Node17</title>
<g id="a_edge17_Node000007_Node000017"><a xlink:title=" ">
<path fill="none" stroke="#63b8ff" d="M2229.78,-251.21C2179.31,-242.62 2106.15,-229.75 2042.5,-217 2039.31,-216.36 2036.04,-215.69 2032.74,-215"/>
<polygon fill="#63b8ff" stroke="#63b8ff" points="2229.43,-254.7 2239.88,-252.92 2230.6,-247.8 2229.43,-254.7"/>
</a>
</g>
</g>
<!-- Node18 -->
<g id="Node000018" class="node">
<title>Node18</title>
<g id="a_Node000018"><a xlink:href="../../da/dc1/gcompoundkernel_8hpp.html" target="_top" xlink:title=" ">
<polygon fill="white" stroke="#666666" points="2244,-211.5 2051,-211.5 2051,-192.5 2244,-192.5 2244,-211.5"/>
<text text-anchor="middle" x="2147.5" y="-199.5" font-family="Helvetica,sans-Serif" font-size="10.00">opencv2/gapi/gcompoundkernel.hpp</text>
</a>
</g>
</g>
<!-- Node7&#45;&gt;Node18 -->
<g id="edge18_Node000007_Node000018" class="edge">
<title>Node7&#45;&gt;Node18</title>
<g id="a_edge18_Node000007_Node000018"><a xlink:title=" ">
<path fill="none" stroke="#63b8ff" d="M2260.93,-249.08C2233.11,-237.78 2192.79,-221.4 2168.46,-211.52"/>
<polygon fill="#63b8ff" stroke="#63b8ff" points="2259.98,-252.47 2270.56,-252.99 2262.61,-245.99 2259.98,-252.47"/>
</a>
</g>
</g>
<!-- Node19 -->
<g id="Node000019" class="node">
<title>Node19</title>
<g id="a_Node000019"><a xlink:href="../../d4/d75/gapi_2include_2opencv2_2gapi_2imgproc_8hpp.html" target="_top" xlink:title=" ">
<polygon fill="white" stroke="#666666" points="612.5,-211.5 466.5,-211.5 466.5,-192.5 612.5,-192.5 612.5,-211.5"/>
<text text-anchor="middle" x="539.5" y="-199.5" font-family="Helvetica,sans-Serif" font-size="10.00">opencv2/gapi/imgproc.hpp</text>
</a>
</g>
</g>
<!-- Node7&#45;&gt;Node19 -->
<g id="edge19_Node000007_Node000019" class="edge">
<title>Node7&#45;&gt;Node19</title>
<g id="a_edge19_Node000007_Node000019"><a xlink:title=" ">
<path fill="none" stroke="#63b8ff" d="M2210.09,-260.85C1919.79,-258.27 935.95,-247.46 622.5,-217 609.7,-215.76 595.89,-213.71 583.28,-211.57"/>
<polygon fill="#63b8ff" stroke="#63b8ff" points="2210.09,-264.35 2220.12,-260.93 2210.15,-257.35 2210.09,-264.35"/>
</a>
</g>
</g>
<!-- Node20 -->
<g id="Node000020" class="node">
<title>Node20</title>
<g id="a_Node000020"><a xlink:href="../../d6/d32/infer_8hpp.html" target="_top" xlink:title=" ">
<polygon fill="white" stroke="#666666" points="2504.5,-211.5 2376.5,-211.5 2376.5,-192.5 2504.5,-192.5 2504.5,-211.5"/>
<text text-anchor="middle" x="2440.5" y="-199.5" font-family="Helvetica,sans-Serif" font-size="10.00">opencv2/gapi/infer.hpp</text>
</a>
</g>
</g>
<!-- Node7&#45;&gt;Node20 -->
<g id="edge21_Node000007_Node000020" class="edge">
<title>Node7&#45;&gt;Node20</title>
<g id="a_edge21_Node000007_Node000020"><a xlink:title=" ">
<path fill="none" stroke="#63b8ff" d="M2322.75,-249.23C2351.55,-237.92 2393.53,-221.44 2418.81,-211.52"/>
<polygon fill="#63b8ff" stroke="#63b8ff" points="2321.2,-246.08 2313.17,-252.99 2323.75,-252.6 2321.2,-246.08"/>
</a>
</g>
</g>
<!-- Node21 -->
<g id="Node000021" class="node">
<title>Node21</title>
<g id="a_Node000021"><a xlink:href="../../df/d70/ie_8hpp.html" target="_top" xlink:title=" ">
<polygon fill="white" stroke="#666666" points="2371,-151 2264,-151 2264,-121 2371,-121 2371,-151"/>
<text text-anchor="start" x="2272" y="-139" font-family="Helvetica,sans-Serif" font-size="10.00">opencv2/gapi/infer</text>
<text text-anchor="middle" x="2317.5" y="-128" font-family="Helvetica,sans-Serif" font-size="10.00">/ie.hpp</text>
</a>
</g>
</g>
<!-- Node7&#45;&gt;Node21 -->
<g id="edge31_Node000007_Node000021" class="edge">
<title>Node7&#45;&gt;Node21</title>
<g id="a_edge31_Node000007_Node000021"><a xlink:title=" ">
<path fill="none" stroke="#63b8ff" d="M2295.38,-242.91C2300.62,-217.83 2309.83,-173.72 2314.54,-151.16"/>
<polygon fill="#63b8ff" stroke="#63b8ff" points="2291.91,-242.44 2293.29,-252.94 2298.76,-243.87 2291.91,-242.44"/>
</a>
</g>
</g>
<!-- Node22 -->
<g id="Node000022" class="node">
<title>Node22</title>
<g id="a_Node000022"><a xlink:href="../../d5/d51/bindings__ie_8hpp.html" target="_top" xlink:title=" ">
<polygon fill="white" stroke="#666666" points="2307,-85 2200,-85 2200,-55 2307,-55 2307,-85"/>
<text text-anchor="start" x="2208" y="-73" font-family="Helvetica,sans-Serif" font-size="10.00">opencv2/gapi/infer</text>
<text text-anchor="middle" x="2253.5" y="-62" font-family="Helvetica,sans-Serif" font-size="10.00">/bindings_ie.hpp</text>
</a>
</g>
</g>
<!-- Node7&#45;&gt;Node22 -->
<g id="edge28_Node000007_Node000022" class="edge">
<title>Node7&#45;&gt;Node22</title>
<g id="a_edge28_Node000007_Node000022"><a xlink:title=" ">
<path fill="none" stroke="#63b8ff" d="M2283.78,-243.35C2275.03,-221.79 2261.25,-184.51 2255.5,-151 2251.6,-128.27 2251.92,-101.38 2252.62,-85.28"/>
<polygon fill="#63b8ff" stroke="#63b8ff" points="2280.65,-244.95 2287.72,-252.84 2287.12,-242.26 2280.65,-244.95"/>
</a>
</g>
</g>
<!-- Node23 -->
<g id="Node000023" class="node">
<title>Node23</title>
<g id="a_Node000023"><a xlink:href="../../d6/d71/onnx_8hpp.html" target="_top" xlink:title=" ">
<polygon fill="white" stroke="#666666" points="2535,-151 2428,-151 2428,-121 2535,-121 2535,-151"/>
<text text-anchor="start" x="2436" y="-139" font-family="Helvetica,sans-Serif" font-size="10.00">opencv2/gapi/infer</text>
<text text-anchor="middle" x="2481.5" y="-128" font-family="Helvetica,sans-Serif" font-size="10.00">/onnx.hpp</text>
</a>
</g>
</g>
<!-- Node7&#45;&gt;Node23 -->
<g id="edge32_Node000007_Node000023" class="edge">
<title>Node7&#45;&gt;Node23</title>
<g id="a_edge32_Node000007_Node000023"><a xlink:title=" ">
<path fill="none" stroke="#63b8ff" d="M2372.83,-255.83C2428.64,-250.05 2495.7,-238.72 2513.5,-217 2529.71,-197.21 2509.99,-168.17 2495.1,-151.06"/>
<polygon fill="#63b8ff" stroke="#63b8ff" points="2372.16,-252.38 2362.56,-256.85 2372.85,-259.35 2372.16,-252.38"/>
</a>
</g>
</g>
<!-- Node24 -->
<g id="Node000024" class="node">
<title>Node24</title>
<g id="a_Node000024"><a xlink:href="../../d0/d47/bindings__onnx_8hpp.html" target="_top" xlink:title=" ">
<polygon fill="white" stroke="#666666" points="2477,-85 2366,-85 2366,-55 2477,-55 2477,-85"/>
<text text-anchor="start" x="2374" y="-73" font-family="Helvetica,sans-Serif" font-size="10.00">opencv2/gapi/infer</text>
<text text-anchor="middle" x="2421.5" y="-62" font-family="Helvetica,sans-Serif" font-size="10.00">/bindings_onnx.hpp</text>
</a>
</g>
</g>
<!-- Node7&#45;&gt;Node24 -->
<g id="edge29_Node000007_Node000024" class="edge">
<title>Node7&#45;&gt;Node24</title>
<g id="a_edge29_Node000007_Node000024"><a xlink:title=" ">
<path fill="none" stroke="#63b8ff" d="M2306.42,-245.19C2325.08,-224.32 2357.39,-186.59 2380.5,-151 2394.78,-129.01 2407.97,-101.43 2415.36,-85.06"/>
<polygon fill="#63b8ff" stroke="#63b8ff" points="2303.65,-243.04 2299.54,-252.81 2308.84,-247.73 2303.65,-243.04"/>
</a>
</g>
</g>
<!-- Node25 -->
<g id="Node000025" class="node">
<title>Node25</title>
<g id="a_Node000025"><a xlink:href="../../da/d96/ov_8hpp.html" target="_top" xlink:title=" ">
<polygon fill="white" stroke="#666666" points="2706,-151 2599,-151 2599,-121 2706,-121 2706,-151"/>
<text text-anchor="start" x="2607" y="-139" font-family="Helvetica,sans-Serif" font-size="10.00">opencv2/gapi/infer</text>
<text text-anchor="middle" x="2652.5" y="-128" font-family="Helvetica,sans-Serif" font-size="10.00">/ov.hpp</text>
</a>
</g>
</g>
<!-- Node7&#45;&gt;Node25 -->
<g id="edge33_Node000007_Node000025" class="edge">
<title>Node7&#45;&gt;Node25</title>
<g id="a_edge33_Node000007_Node000025"><a xlink:title=" ">
<path fill="none" stroke="#63b8ff" d="M2372.75,-255.55C2446.56,-249 2549.14,-236.71 2584.5,-217 2612.36,-201.47 2633.91,-169.79 2644.75,-151.29"/>
<polygon fill="#63b8ff" stroke="#63b8ff" points="2372.19,-252.08 2362.53,-256.43 2372.8,-259.06 2372.19,-252.08"/>
</a>
</g>
</g>
<!-- Node26 -->
<g id="Node000026" class="node">
<title>Node26</title>
<g id="a_Node000026"><a xlink:href="../../d8/d97/bindings__ov_8hpp.html" target="_top" xlink:title=" ">
<polygon fill="white" stroke="#666666" points="2665,-85 2558,-85 2558,-55 2665,-55 2665,-85"/>
<text text-anchor="start" x="2566" y="-73" font-family="Helvetica,sans-Serif" font-size="10.00">opencv2/gapi/infer</text>
<text text-anchor="middle" x="2611.5" y="-62" font-family="Helvetica,sans-Serif" font-size="10.00">/bindings_ov.hpp</text>
</a>
</g>
</g>
<!-- Node7&#45;&gt;Node26 -->
<g id="edge30_Node000007_Node000026" class="edge">
<title>Node7&#45;&gt;Node26</title>
<g id="a_edge30_Node000007_Node000026"><a xlink:title=" ">
<path fill="none" stroke="#63b8ff" d="M2372.62,-253.83C2431.71,-246.88 2505.57,-234.95 2530.5,-217 2554.26,-199.89 2590.95,-118.88 2605.38,-85.46"/>
<polygon fill="#63b8ff" stroke="#63b8ff" points="2372.07,-250.37 2362.53,-254.98 2372.86,-257.32 2372.07,-250.37"/>
</a>
</g>
</g>
<!-- Node27 -->
<g id="Node000027" class="node">
<title>Node27</title>
<g id="a_Node000027"><a xlink:href="../../de/db3/parsers_8hpp.html" target="_top" xlink:title=" ">
<polygon fill="white" stroke="#666666" points="2744,-217 2637,-217 2637,-187 2744,-187 2744,-217"/>
<text text-anchor="start" x="2645" y="-205" font-family="Helvetica,sans-Serif" font-size="10.00">opencv2/gapi/infer</text>
<text text-anchor="middle" x="2690.5" y="-194" font-family="Helvetica,sans-Serif" font-size="10.00">/parsers.hpp</text>
</a>
</g>
</g>
<!-- Node7&#45;&gt;Node27 -->
<g id="edge34_Node000007_Node000027" class="edge">
<title>Node7&#45;&gt;Node27</title>
<g id="a_edge34_Node000007_Node000027"><a xlink:title=" ">
<path fill="none" stroke="#63b8ff" d="M2372.83,-252.16C2439.98,-244.07 2537.68,-231.42 2622.5,-217 2627.13,-216.21 2631.93,-215.34 2636.74,-214.43"/>
<polygon fill="#63b8ff" stroke="#63b8ff" points="2372.25,-248.71 2362.74,-253.37 2373.09,-255.66 2372.25,-248.71"/>
</a>
</g>
</g>
<!-- Node28 -->
<g id="Node000028" class="node">
<title>Node28</title>
<g id="a_Node000028"><a xlink:href="../../d8/db1/oak_2infer_8hpp.html" target="_top" xlink:title=" ">
<polygon fill="white" stroke="#666666" points="2911,-211.5 2762,-211.5 2762,-192.5 2911,-192.5 2911,-211.5"/>
<text text-anchor="middle" x="2836.5" y="-199.5" font-family="Helvetica,sans-Serif" font-size="10.00">opencv2/gapi/oak/infer.hpp</text>
</a>
</g>
</g>
<!-- Node7&#45;&gt;Node28 -->
<g id="edge35_Node000007_Node000028" class="edge">
<title>Node7&#45;&gt;Node28</title>
<g id="a_edge35_Node000007_Node000028"><a xlink:title=" ">
<path fill="none" stroke="#63b8ff" d="M2372.64,-255.44C2465.06,-248.13 2620.49,-234.6 2753.5,-217 2765.23,-215.45 2777.85,-213.48 2789.62,-211.51"/>
<polygon fill="#63b8ff" stroke="#63b8ff" points="2372.21,-251.96 2362.52,-256.24 2372.76,-258.94 2372.21,-251.96"/>
</a>
</g>
</g>
<!-- Node29 -->
<g id="Node000029" class="node">
<title>Node29</title>
<g id="a_Node000029"><a xlink:href="../../de/d62/oak_8hpp.html" target="_top" xlink:title=" ">
<polygon fill="white" stroke="#666666" points="3074,-211.5 2929,-211.5 2929,-192.5 3074,-192.5 3074,-211.5"/>
<text text-anchor="middle" x="3001.5" y="-199.5" font-family="Helvetica,sans-Serif" font-size="10.00">opencv2/gapi/oak/oak.hpp</text>
</a>
</g>
</g>
<!-- Node7&#45;&gt;Node29 -->
<g id="edge36_Node000007_Node000029" class="edge">
<title>Node7&#45;&gt;Node29</title>
<g id="a_edge36_Node000007_Node000029"><a xlink:title=" ">
<path fill="none" stroke="#63b8ff" d="M2373.17,-258.35C2493.38,-253.11 2724.88,-240.76 2920.5,-217 2932.4,-215.55 2945.21,-213.55 2957.06,-211.51"/>
<polygon fill="#63b8ff" stroke="#63b8ff" points="2372.78,-254.86 2362.94,-258.79 2373.08,-261.85 2372.78,-254.86"/>
</a>
</g>
</g>
<!-- Node30 -->
<g id="Node000030" class="node">
<title>Node30</title>
<g id="a_Node000030"><a xlink:href="../../dd/db3/gapi_2include_2opencv2_2gapi_2ocl_2core_8hpp.html" target="_top" xlink:title=" ">
<polygon fill="white" stroke="#666666" points="3236.5,-211.5 3092.5,-211.5 3092.5,-192.5 3236.5,-192.5 3236.5,-211.5"/>
<text text-anchor="middle" x="3164.5" y="-199.5" font-family="Helvetica,sans-Serif" font-size="10.00">opencv2/gapi/ocl/core.hpp</text>
</a>
</g>
</g>
<!-- Node7&#45;&gt;Node30 -->
<g id="edge37_Node000007_Node000030" class="edge">
<title>Node7&#45;&gt;Node30</title>
<g id="a_edge37_Node000007_Node000030"><a xlink:title=" ">
<path fill="none" stroke="#63b8ff" d="M2372.79,-260.01C2516.56,-256.7 2824.94,-246.51 3083.5,-217 3095.55,-215.62 3108.53,-213.62 3120.49,-211.55"/>
<polygon fill="#63b8ff" stroke="#63b8ff" points="2372.65,-256.52 2362.73,-260.24 2372.8,-263.51 2372.65,-256.52"/>
</a>
</g>
</g>
<!-- Node32 -->
<g id="Node000032" class="node">
<title>Node32</title>
<g id="a_Node000032"><a xlink:href="../../d4/d96/goclkernel_8hpp.html" target="_top" xlink:title=" ">
<polygon fill="white" stroke="#666666" points="3428,-211.5 3255,-211.5 3255,-192.5 3428,-192.5 3428,-211.5"/>
<text text-anchor="middle" x="3341.5" y="-199.5" font-family="Helvetica,sans-Serif" font-size="10.00">opencv2/gapi/ocl/goclkernel.hpp</text>
</a>
</g>
</g>
<!-- Node7&#45;&gt;Node32 -->
<g id="edge39_Node000007_Node000032" class="edge">
<title>Node7&#45;&gt;Node32</title>
<g id="a_edge39_Node000007_Node000032"><a xlink:title=" ">
<path fill="none" stroke="#63b8ff" d="M2372.64,-260.4C2537.47,-257.57 2923.19,-247.94 3245.5,-217 3259.75,-215.63 3275.12,-213.63 3289.3,-211.56"/>
<polygon fill="#63b8ff" stroke="#63b8ff" points="2372.52,-256.9 2362.58,-260.57 2372.64,-263.9 2372.52,-256.9"/>
</a>
</g>
</g>
<!-- Node34 -->
<g id="Node000034" class="node">
<title>Node34</title>
<g id="a_Node000034"><a xlink:href="../../d9/dca/gapi_2include_2opencv2_2gapi_2ocl_2imgproc_8hpp.html" target="_top" xlink:title=" ">
<polygon fill="white" stroke="#666666" points="3609,-211.5 3446,-211.5 3446,-192.5 3609,-192.5 3609,-211.5"/>
<text text-anchor="middle" x="3527.5" y="-199.5" font-family="Helvetica,sans-Serif" font-size="10.00">opencv2/gapi/ocl/imgproc.hpp</text>
</a>
</g>
</g>
<!-- Node7&#45;&gt;Node34 -->
<g id="edge41_Node000007_Node000034" class="edge">
<title>Node7&#45;&gt;Node34</title>
<g id="a_edge41_Node000007_Node000034"><a xlink:title=" ">
<path fill="none" stroke="#63b8ff" d="M2372.85,-261.56C2560.79,-261 3039.54,-255.55 3437.5,-217 3451.19,-215.67 3465.97,-213.63 3479.52,-211.51"/>
<polygon fill="#63b8ff" stroke="#63b8ff" points="2372.76,-258.06 2362.77,-261.59 2372.78,-265.06 2372.76,-258.06"/>
</a>
</g>
</g>
<!-- Node36 -->
<g id="Node000036" class="node">
<title>Node36</title>
<g id="a_Node000036"><a xlink:href="../../dc/d2d/gapi_2include_2opencv2_2gapi_2plaidml_2core_8hpp.html" target="_top" xlink:title=" ">
<polygon fill="white" stroke="#666666" points="3749.5,-217 3627.5,-217 3627.5,-187 3749.5,-187 3749.5,-217"/>
<text text-anchor="start" x="3635.5" y="-205" font-family="Helvetica,sans-Serif" font-size="10.00">opencv2/gapi/plaidml</text>
<text text-anchor="middle" x="3688.5" y="-194" font-family="Helvetica,sans-Serif" font-size="10.00">/core.hpp</text>
</a>
</g>
</g>
<!-- Node7&#45;&gt;Node36 -->
<g id="edge44_Node000007_Node000036" class="edge">
<title>Node7&#45;&gt;Node36</title>
<g id="a_edge44_Node000007_Node000036"><a xlink:title=" ">
<path fill="none" stroke="#63b8ff" d="M2372.6,-260.52C2621.97,-257.24 3375.29,-245.21 3618.5,-217 3621.33,-216.67 3624.22,-216.29 3627.13,-215.87"/>
<polygon fill="#63b8ff" stroke="#63b8ff" points="2372.47,-257.02 2362.52,-260.65 2372.56,-264.02 2372.47,-257.02"/>
</a>
</g>
</g>
<!-- Node37 -->
<g id="Node000037" class="node">
<title>Node37</title>
<g id="a_Node000037"><a xlink:href="../../d9/dae/gplaidmlkernel_8hpp.html" target="_top" xlink:title=" ">
<polygon fill="white" stroke="#666666" points="3889.5,-217 3767.5,-217 3767.5,-187 3889.5,-187 3889.5,-217"/>
<text text-anchor="start" x="3775.5" y="-205" font-family="Helvetica,sans-Serif" font-size="10.00">opencv2/gapi/plaidml</text>
<text text-anchor="middle" x="3828.5" y="-194" font-family="Helvetica,sans-Serif" font-size="10.00">/gplaidmlkernel.hpp</text>
</a>
</g>
</g>
<!-- Node7&#45;&gt;Node37 -->
<g id="edge45_Node000007_Node000037" class="edge">
<title>Node7&#45;&gt;Node37</title>
<g id="a_edge45_Node000007_Node000037"><a xlink:title=" ">
<path fill="none" stroke="#63b8ff" d="M2372.82,-260.82C2639.64,-258.32 3486.85,-248.06 3758.5,-217 3761.33,-216.68 3764.22,-216.3 3767.13,-215.88"/>
<polygon fill="#63b8ff" stroke="#63b8ff" points="2372.79,-257.32 2362.82,-260.92 2372.85,-264.32 2372.79,-257.32"/>
</a>
</g>
</g>
<!-- Node38 -->
<g id="Node000038" class="node">
<title>Node38</title>
<g id="a_Node000038"><a xlink:href="../../d4/d44/python_8hpp.html" target="_top" xlink:title=" ">
<polygon fill="white" stroke="#666666" points="4027,-217 3908,-217 3908,-187 4027,-187 4027,-217"/>
<text text-anchor="start" x="3916" y="-205" font-family="Helvetica,sans-Serif" font-size="10.00">opencv2/gapi/python</text>
<text text-anchor="middle" x="3967.5" y="-194" font-family="Helvetica,sans-Serif" font-size="10.00">/python.hpp</text>
</a>
</g>
</g>
<!-- Node7&#45;&gt;Node38 -->
<g id="edge46_Node000007_Node000038" class="edge">
<title>Node7&#45;&gt;Node38</title>
<g id="a_edge46_Node000007_Node000038"><a xlink:title=" ">
<path fill="none" stroke="#63b8ff" d="M2372.74,-261.1C2655.88,-259.43 3598.23,-251.36 3898.5,-217 3901.54,-216.65 3904.64,-216.24 3907.76,-215.78"/>
<polygon fill="#63b8ff" stroke="#63b8ff" points="2372.53,-257.6 2362.55,-261.16 2372.57,-264.6 2372.53,-257.6"/>
</a>
</g>
</g>
<!-- Node39 -->
<g id="Node000039" class="node">
<title>Node39</title>
<g id="a_Node000039"><a xlink:href="../../d4/def/modules_2gapi_2include_2opencv2_2gapi_2stereo_8hpp.html" target="_top" xlink:title=" ">
<polygon fill="white" stroke="#666666" points="4182,-211.5 4045,-211.5 4045,-192.5 4182,-192.5 4182,-211.5"/>
<text text-anchor="middle" x="4113.5" y="-199.5" font-family="Helvetica,sans-Serif" font-size="10.00">opencv2/gapi/stereo.hpp</text>
</a>
</g>
</g>
<!-- Node7&#45;&gt;Node39 -->
<g id="edge47_Node000007_Node000039" class="edge">
<title>Node7&#45;&gt;Node39</title>
<g id="a_edge47_Node000007_Node000039"><a xlink:title=" ">
<path fill="none" stroke="#63b8ff" d="M2373.04,-261.09C2672,-259.33 3707.67,-250.88 4036.5,-217 4048.53,-215.76 4061.5,-213.69 4073.31,-211.52"/>
<polygon fill="#63b8ff" stroke="#63b8ff" points="2372.7,-257.59 2362.72,-261.15 2372.74,-264.59 2372.7,-257.59"/>
</a>
</g>
</g>
<!-- Node40 -->
<g id="Node000040" class="node">
<title>Node40</title>
<g id="a_Node000040"><a xlink:href="../../dd/d25/desync_8hpp.html" target="_top" xlink:title=" ">
<polygon fill="white" stroke="#666666" points="182.5,-217 48.5,-217 48.5,-187 182.5,-187 182.5,-217"/>
<text text-anchor="start" x="56.5" y="-205" font-family="Helvetica,sans-Serif" font-size="10.00">opencv2/gapi/streaming</text>
<text text-anchor="middle" x="115.5" y="-194" font-family="Helvetica,sans-Serif" font-size="10.00">/desync.hpp</text>
</a>
</g>
</g>
<!-- Node7&#45;&gt;Node40 -->
<g id="edge48_Node000007_Node000040" class="edge">
<title>Node7&#45;&gt;Node40</title>
<g id="a_edge48_Node000007_Node000040"><a xlink:title=" ">
<path fill="none" stroke="#63b8ff" d="M2210.18,-261.53C1874.26,-261.37 593.65,-258.03 191.5,-217 188.56,-216.7 185.57,-216.35 182.55,-215.96"/>
<polygon fill="#63b8ff" stroke="#63b8ff" points="2210.31,-265.03 2220.31,-261.53 2210.31,-258.03 2210.31,-265.03"/>
</a>
</g>
</g>
<!-- Node41 -->
<g id="Node000041" class="node">
<title>Node41</title>
<g id="a_Node000041"><a xlink:href="../../d4/d0a/format_8hpp.html" target="_top" xlink:title=" ">
<polygon fill="white" stroke="#666666" points="334.5,-217 200.5,-217 200.5,-187 334.5,-187 334.5,-217"/>
<text text-anchor="start" x="208.5" y="-205" font-family="Helvetica,sans-Serif" font-size="10.00">opencv2/gapi/streaming</text>
<text text-anchor="middle" x="267.5" y="-194" font-family="Helvetica,sans-Serif" font-size="10.00">/format.hpp</text>
</a>
</g>
</g>
<!-- Node7&#45;&gt;Node41 -->
<g id="edge50_Node000007_Node000041" class="edge">
<title>Node7&#45;&gt;Node41</title>
<g id="a_edge50_Node000007_Node000041"><a xlink:title=" ">
<path fill="none" stroke="#63b8ff" d="M2210.24,-261.25C1890.49,-260 718.41,-253 348.5,-217 343.95,-216.56 339.28,-216.01 334.58,-215.38"/>
<polygon fill="#63b8ff" stroke="#63b8ff" points="2210.34,-264.75 2220.35,-261.28 2210.37,-257.75 2210.34,-264.75"/>
</a>
</g>
</g>
<!-- Node42 -->
<g id="Node000042" class="node">
<title>Node42</title>
<g id="a_Node000042"><a xlink:href="../../d7/de1/meta_8hpp.html" target="_top" xlink:title=" ">
<polygon fill="white" stroke="#666666" points="4334.5,-217 4200.5,-217 4200.5,-187 4334.5,-187 4334.5,-217"/>
<text text-anchor="start" x="4208.5" y="-205" font-family="Helvetica,sans-Serif" font-size="10.00">opencv2/gapi/streaming</text>
<text text-anchor="middle" x="4267.5" y="-194" font-family="Helvetica,sans-Serif" font-size="10.00">/meta.hpp</text>
</a>
</g>
</g>
<!-- Node7&#45;&gt;Node42 -->
<g id="edge53_Node000007_Node000042" class="edge">
<title>Node7&#45;&gt;Node42</title>
<g id="a_edge53_Node000007_Node000042"><a xlink:title=" ">
<path fill="none" stroke="#63b8ff" d="M2373.03,-261.31C2688.68,-260.33 3830.77,-254.21 4191.5,-217 4194.44,-216.7 4197.43,-216.34 4200.45,-215.95"/>
<polygon fill="#63b8ff" stroke="#63b8ff" points="2372.58,-257.82 2362.59,-261.35 2372.6,-264.82 2372.58,-257.82"/>
</a>
</g>
</g>
<!-- Node45 -->
<g id="Node000045" class="node">
<title>Node45</title>
<g id="a_Node000045"><a xlink:href="../../d6/deb/gapi_2include_2opencv2_2gapi_2video_8hpp.html" target="_top" xlink:title=" ">
<polygon fill="white" stroke="#666666" points="4486,-211.5 4353,-211.5 4353,-192.5 4486,-192.5 4486,-211.5"/>
<text text-anchor="middle" x="4419.5" y="-199.5" font-family="Helvetica,sans-Serif" font-size="10.00">opencv2/gapi/video.hpp</text>
</a>
</g>
</g>
<!-- Node7&#45;&gt;Node45 -->
<g id="edge56_Node000007_Node000045" class="edge">
<title>Node7&#45;&gt;Node45</title>
<g id="a_edge56_Node000007_Node000045"><a xlink:title=" ">
<path fill="none" stroke="#63b8ff" d="M2373.11,-261.48C2704.62,-261.13 3951.4,-257.1 4343.5,-217 4355.38,-215.79 4368.18,-213.72 4379.84,-211.55"/>
<polygon fill="#63b8ff" stroke="#63b8ff" points="2372.63,-257.98 2362.64,-261.49 2372.64,-264.98 2372.63,-257.98"/>
</a>
</g>
</g>
<!-- Node19&#45;&gt;Node8 -->
<g id="edge20_Node000019_Node000008" class="edge">
<title>Node19&#45;&gt;Node8</title>
<g id="a_edge20_Node000019_Node000008"><a xlink:title=" ">
<path fill="none" stroke="#63b8ff" d="M527.21,-184.27C518.2,-171.99 506.3,-155.8 499.04,-145.91"/>
<polygon fill="#63b8ff" stroke="#63b8ff" points="524.42,-186.38 533.16,-192.37 530.06,-182.24 524.42,-186.38"/>
</a>
</g>
</g>
<!-- Node20&#45;&gt;Node21 -->
<g id="edge22_Node000020_Node000021" class="edge">
<title>Node20&#45;&gt;Node21</title>
<g id="a_edge22_Node000020_Node000021"><a xlink:title=" ">
<path fill="none" stroke="#63b8ff" d="M2414.83,-187.64C2394.29,-176.95 2365.55,-162 2344.63,-151.12"/>
<polygon fill="#63b8ff" stroke="#63b8ff" points="2413.43,-190.86 2423.91,-192.37 2416.66,-184.65 2413.43,-190.86"/>
</a>
</g>
</g>
<!-- Node20&#45;&gt;Node23 -->
<g id="edge24_Node000020_Node000023" class="edge">
<title>Node20&#45;&gt;Node23</title>
<g id="a_edge24_Node000020_Node000023"><a xlink:title=" ">
<path fill="none" stroke="#63b8ff" d="M2451.44,-183.92C2457.95,-173.76 2466.12,-161.01 2472.3,-151.36"/>
<polygon fill="#63b8ff" stroke="#63b8ff" points="2448.48,-182.06 2446.03,-192.37 2454.37,-185.84 2448.48,-182.06"/>
</a>
</g>
</g>
<!-- Node20&#45;&gt;Node25 -->
<g id="edge26_Node000020_Node000025" class="edge">
<title>Node20&#45;&gt;Node25</title>
<g id="a_edge26_Node000020_Node000025"><a xlink:title=" ">
<path fill="none" stroke="#63b8ff" d="M2479.1,-189.35C2514.74,-178.59 2567.73,-162.59 2605.74,-151.12"/>
<polygon fill="#63b8ff" stroke="#63b8ff" points="2477.65,-186.13 2469.09,-192.37 2479.68,-192.83 2477.65,-186.13"/>
</a>
</g>
</g>
<!-- Node21&#45;&gt;Node22 -->
<g id="edge23_Node000021_Node000022" class="edge">
<title>Node21&#45;&gt;Node22</title>
<g id="a_edge23_Node000021_Node000022"><a xlink:title=" ">
<path fill="none" stroke="#63b8ff" d="M2296.15,-113.65C2286.77,-104.27 2276.03,-93.53 2267.66,-85.16"/>
<polygon fill="#63b8ff" stroke="#63b8ff" points="2293.75,-116.2 2303.3,-120.8 2298.7,-111.25 2293.75,-116.2"/>
</a>
</g>
</g>
<!-- Node23&#45;&gt;Node24 -->
<g id="edge25_Node000023_Node000024" class="edge">
<title>Node23&#45;&gt;Node24</title>
<g id="a_edge25_Node000023_Node000024"><a xlink:title=" ">
<path fill="none" stroke="#63b8ff" d="M2461.22,-113.37C2452.49,-104.06 2442.54,-93.44 2434.78,-85.16"/>
<polygon fill="#63b8ff" stroke="#63b8ff" points="2458.79,-115.89 2468.18,-120.8 2463.9,-111.11 2458.79,-115.89"/>
</a>
</g>
</g>
<!-- Node25&#45;&gt;Node26 -->
<g id="edge27_Node000025_Node000026" class="edge">
<title>Node25&#45;&gt;Node26</title>
<g id="a_edge27_Node000025_Node000026"><a xlink:title=" ">
<path fill="none" stroke="#63b8ff" d="M2637.92,-112.24C2632.14,-103.21 2625.66,-93.11 2620.57,-85.16"/>
<polygon fill="#63b8ff" stroke="#63b8ff" points="2635.06,-114.26 2643.4,-120.8 2640.95,-110.49 2635.06,-114.26"/>
</a>
</g>
</g>
<!-- Node31 -->
<g id="Node000031" class="node">
<title>Node31</title>
<g id="a_Node000031"><a xlink:href="../../d9/d1a/gapi_2include_2opencv2_2gapi_2gpu_2core_8hpp.html" target="_top" xlink:title=" ">
<polygon fill="white" stroke="#666666" points="3232.5,-145.5 3084.5,-145.5 3084.5,-126.5 3232.5,-126.5 3232.5,-145.5"/>
<text text-anchor="middle" x="3158.5" y="-133.5" font-family="Helvetica,sans-Serif" font-size="10.00">opencv2/gapi/gpu/core.hpp</text>
</a>
</g>
</g>
<!-- Node30&#45;&gt;Node31 -->
<g id="edge38_Node000030_Node000031" class="edge">
<title>Node30&#45;&gt;Node31</title>
<g id="a_edge38_Node000030_Node000031"><a xlink:title=" ">
<path fill="none" stroke="#63b8ff" d="M3162.73,-182.08C3161.61,-170.13 3160.21,-155.22 3159.33,-145.91"/>
<polygon fill="#63b8ff" stroke="#63b8ff" points="3159.27,-182.74 3163.69,-192.37 3166.24,-182.09 3159.27,-182.74"/>
</a>
</g>
</g>
<!-- Node33 -->
<g id="Node000033" class="node">
<title>Node33</title>
<g id="a_Node000033"><a xlink:href="../../de/d7f/ggpukernel_8hpp.html" target="_top" xlink:title=" ">
<polygon fill="white" stroke="#666666" points="3432,-145.5 3251,-145.5 3251,-126.5 3432,-126.5 3432,-145.5"/>
<text text-anchor="middle" x="3341.5" y="-133.5" font-family="Helvetica,sans-Serif" font-size="10.00">opencv2/gapi/gpu/ggpukernel.hpp</text>
</a>
</g>
</g>
<!-- Node32&#45;&gt;Node33 -->
<g id="edge40_Node000032_Node000033" class="edge">
<title>Node32&#45;&gt;Node33</title>
<g id="a_edge40_Node000032_Node000033"><a xlink:title=" ">
<path fill="none" stroke="#63b8ff" d="M3341.5,-182.08C3341.5,-170.13 3341.5,-155.22 3341.5,-145.91"/>
<polygon fill="#63b8ff" stroke="#63b8ff" points="3338,-182.37 3341.5,-192.37 3345,-182.37 3338,-182.37"/>
</a>
</g>
</g>
<!-- Node35 -->
<g id="Node000035" class="node">
<title>Node35</title>
<g id="a_Node000035"><a xlink:href="../../d8/d8e/gapi_2include_2opencv2_2gapi_2gpu_2imgproc_8hpp.html" target="_top" xlink:title=" ">
<polygon fill="white" stroke="#666666" points="3617,-145.5 3450,-145.5 3450,-126.5 3617,-126.5 3617,-145.5"/>
<text text-anchor="middle" x="3533.5" y="-133.5" font-family="Helvetica,sans-Serif" font-size="10.00">opencv2/gapi/gpu/imgproc.hpp</text>
</a>
</g>
</g>
<!-- Node34&#45;&gt;Node35 -->
<g id="edge42_Node000034_Node000035" class="edge">
<title>Node34&#45;&gt;Node35</title>
<g id="a_edge42_Node000034_Node000035"><a xlink:title=" ">
<path fill="none" stroke="#63b8ff" d="M3529.27,-182.08C3530.39,-170.13 3531.79,-155.22 3532.67,-145.91"/>
<polygon fill="#63b8ff" stroke="#63b8ff" points="3525.76,-182.09 3528.31,-192.37 3532.73,-182.74 3525.76,-182.09"/>
</a>
</g>
</g>
<!-- Node40&#45;&gt;Node2 -->
<g id="edge49_Node000040_Node000002" class="edge">
<title>Node40&#45;&gt;Node2</title>
<g id="a_edge49_Node000040_Node000002"><a xlink:title=" ">
<path fill="none" stroke="#63b8ff" d="M99.06,-178.61C90.77,-167.32 81.19,-154.28 75,-145.84"/>
<polygon fill="#63b8ff" stroke="#63b8ff" points="96.33,-180.81 105.07,-186.8 101.97,-176.66 96.33,-180.81"/>
</a>
</g>
</g>
<!-- Node41&#45;&gt;Node2 -->
<g id="edge51_Node000041_Node000002" class="edge">
<title>Node41&#45;&gt;Node2</title>
<g id="a_edge51_Node000041_Node000002"><a xlink:title=" ">
<path fill="none" stroke="#63b8ff" d="M214.31,-183.89C175.77,-171.5 125.31,-155.27 94.98,-145.52"/>
<polygon fill="#63b8ff" stroke="#63b8ff" points="213.24,-187.23 223.83,-186.95 215.38,-180.56 213.24,-187.23"/>
</a>
</g>
</g>
<!-- Node41&#45;&gt;Node8 -->
<g id="edge52_Node000041_Node000008" class="edge">
<title>Node41&#45;&gt;Node8</title>
<g id="a_edge52_Node000041_Node000008"><a xlink:title=" ">
<path fill="none" stroke="#63b8ff" d="M326.54,-184.21C370.24,-171.78 427.97,-155.35 462.56,-145.52"/>
<polygon fill="#63b8ff" stroke="#63b8ff" points="325.54,-180.85 316.88,-186.95 327.45,-187.59 325.54,-180.85"/>
</a>
</g>
</g>
<!-- Node43 -->
<g id="Node000043" class="node">
<title>Node43</title>
<g id="a_Node000043"><a xlink:href="../../d8/dd3/cap_8hpp.html" target="_top" xlink:title=" ">
<polygon fill="white" stroke="#666666" points="4258.5,-151 4124.5,-151 4124.5,-121 4258.5,-121 4258.5,-151"/>
<text text-anchor="start" x="4132.5" y="-139" font-family="Helvetica,sans-Serif" font-size="10.00">opencv2/gapi/streaming</text>
<text text-anchor="middle" x="4191.5" y="-128" font-family="Helvetica,sans-Serif" font-size="10.00">/cap.hpp</text>
</a>
</g>
</g>
<!-- Node42&#45;&gt;Node43 -->
<g id="edge54_Node000042_Node000043" class="edge">
<title>Node42&#45;&gt;Node43</title>
<g id="a_edge54_Node000042_Node000043"><a xlink:title=" ">
<path fill="none" stroke="#63b8ff" d="M4242.8,-180.2C4231.52,-170.7 4218.45,-159.69 4208.32,-151.16"/>
<polygon fill="#63b8ff" stroke="#63b8ff" points="4240.73,-183.03 4250.63,-186.8 4245.24,-177.68 4240.73,-183.03"/>
</a>
</g>
</g>
<!-- Node44 -->
<g id="Node000044" class="node">
<title>Node44</title>
<g id="a_Node000044"><a xlink:href="../../de/d43/onevpl_2source_8hpp.html" target="_top" xlink:title=" ">
<polygon fill="white" stroke="#666666" points="4410.5,-151 4276.5,-151 4276.5,-121 4410.5,-121 4410.5,-151"/>
<text text-anchor="start" x="4284.5" y="-139" font-family="Helvetica,sans-Serif" font-size="10.00">opencv2/gapi/streaming</text>
<text text-anchor="middle" x="4343.5" y="-128" font-family="Helvetica,sans-Serif" font-size="10.00">/onevpl/source.hpp</text>
</a>
</g>
</g>
<!-- Node42&#45;&gt;Node44 -->
<g id="edge55_Node000042_Node000044" class="edge">
<title>Node42&#45;&gt;Node44</title>
<g id="a_edge55_Node000042_Node000044"><a xlink:title=" ">
<path fill="none" stroke="#63b8ff" d="M4292.2,-180.2C4303.48,-170.7 4316.55,-159.69 4326.68,-151.16"/>
<polygon fill="#63b8ff" stroke="#63b8ff" points="4289.76,-177.68 4284.37,-186.8 4294.27,-183.03 4289.76,-177.68"/>
</a>
</g>
</g>
<!-- Node46&#45;&gt;Node2 -->
<g id="edge58_Node000046_Node000002" class="edge">
<title>Node46&#45;&gt;Node2</title>
<g id="a_edge58_Node000046_Node000002"><a xlink:title=" ">
<path fill="none" stroke="#63b8ff" d="M107.86,-302.29C82.53,-285.53 43.76,-255.07 27.5,-217 22.26,-204.74 23.01,-199.55 27.5,-187 33.55,-170.09 48.05,-154.78 58.08,-145.69"/>
<polygon fill="#63b8ff" stroke="#63b8ff" points="106.21,-305.39 116.52,-307.84 109.99,-299.5 106.21,-305.39"/>
</a>
</g>
</g>
<!-- Node47&#45;&gt;Node3 -->
<g id="edge60_Node000047_Node000003" class="edge">
<title>Node47&#45;&gt;Node3</title>
<g id="a_edge60_Node000047_Node000003"><a xlink:title=" ">
<path fill="none" stroke="#63b8ff" d="M356.19,-242.75C357.67,-202.43 361.11,-108.75 362.18,-79.73"/>
<polygon fill="#63b8ff" stroke="#63b8ff" points="352.69,-242.7 355.82,-252.82 359.68,-242.95 352.69,-242.7"/>
</a>
</g>
</g>
</g>
</svg>
