<?xml version="1.0" encoding="UTF-8" standalone="no"?>
<!DOCTYPE svg PUBLIC "-//W3C//DTD SVG 1.1//EN"
 "http://www.w3.org/Graphics/SVG/1.1/DTD/svg11.dtd">
<!-- Generated by graphviz version 2.43.0 (0)
 -->
<!-- Title: cv::detail::CameraParams Pages: 1 -->
<svg width="917pt" height="1345pt"
 viewBox="0.00 0.00 916.80 1345.00" xmlns="http://www.w3.org/2000/svg" xmlns:xlink="http://www.w3.org/1999/xlink">
<g id="graph0" class="graph" transform="scale(1 1) rotate(0) translate(4 1341)">
<title>cv::detail::CameraParams</title>
<!-- Node1 -->
<g id="Node000001" class="node">
<title>Node1</title>
<g id="a_Node000001"><a xlink:title="Describes camera parameters.">
<polygon fill="#999999" stroke="transparent" points="363.8,-94 228.8,-94 228.8,0 363.8,0 363.8,-94"/>
<text text-anchor="start" x="234.3" y="-82" font-family="Helvetica,sans-Serif" font-size="10.00">cv::detail::CameraParams</text>
<text text-anchor="start" x="294.8" y="-67" font-family="Helvetica,sans-Serif" font-size="10.00"> </text>
<text text-anchor="start" x="241.3" y="-52" font-family="Helvetica,sans-Serif" font-size="10.00">+</text>
<text text-anchor="start" x="262.3" y="-52" font-family="Helvetica,sans-Serif" font-size="10.00">CameraParams()</text>
<text text-anchor="start" x="241.3" y="-37" font-family="Helvetica,sans-Serif" font-size="10.00">+</text>
<text text-anchor="start" x="262.3" y="-37" font-family="Helvetica,sans-Serif" font-size="10.00">CameraParams()</text>
<text text-anchor="start" x="241.3" y="-22" font-family="Helvetica,sans-Serif" font-size="10.00">+</text>
<text text-anchor="start" x="262.3" y="-22" font-family="Helvetica,sans-Serif" font-size="10.00">K()</text>
<text text-anchor="start" x="241.3" y="-7" font-family="Helvetica,sans-Serif" font-size="10.00">+</text>
<text text-anchor="start" x="262.3" y="-7" font-family="Helvetica,sans-Serif" font-size="10.00">operator=()</text>
<polygon fill="#666666" stroke="#666666" points="229.3,-77 229.3,-77 364.3,-77 364.3,-77 229.3,-77"/>
<polygon fill="#666666" stroke="#666666" points="229.3,-62 229.3,-62 364.3,-62 364.3,-62 229.3,-62"/>
<polygon fill="none" stroke="#666666" points="228.8,0 228.8,-94 363.8,-94 363.8,0 228.8,0"/>
</a>
</g>
</g>
<!-- Node2 -->
<g id="Node000002" class="node">
<title>Node2</title>
<g id="a_Node000002"><a xlink:title=" ">
<polygon fill="white" stroke="transparent" points="285.3,-395.5 241.3,-395.5 241.3,-346.5 285.3,-346.5 285.3,-395.5"/>
<text text-anchor="start" x="246.3" y="-383" font-family="Helvetica,sans-Serif" font-size="10.00">double</text>
<text text-anchor="start" x="261.3" y="-368" font-family="Helvetica,sans-Serif" font-size="10.00"> </text>
<text text-anchor="start" x="261.3" y="-353" font-family="Helvetica,sans-Serif" font-size="10.00"> </text>
<polygon fill="#666666" stroke="#666666" points="241.3,-378 241.3,-378 285.3,-378 285.3,-378 241.3,-378"/>
<polygon fill="#666666" stroke="#666666" points="241.3,-363 241.3,-363 285.3,-363 285.3,-363 241.3,-363"/>
<polygon fill="none" stroke="#666666" points="241.3,-346.5 241.3,-395.5 285.3,-395.5 285.3,-346.5 241.3,-346.5"/>
</a>
</g>
</g>
<!-- Node2&#45;&gt;Node1 -->
<g id="edge1_Node000001_Node000002" class="edge">
<title>Node2&#45;&gt;Node1</title>
<g id="a_edge1_Node000001_Node000002"><a xlink:title=" ">
<path fill="none" stroke="#63b8ff" d="M263.69,-346.38C264.7,-300.81 268.36,-197.69 281.3,-112 281.59,-110.11 281.9,-108.2 282.24,-106.27"/>
<polygon fill="none" stroke="#63b8ff" points="282.27,-106.11 279.47,-99.46 284.53,-94.32 287.32,-100.97 282.27,-106.11"/>
</a>
</g>
<text text-anchor="middle" x="303.3" y="-148" font-family="Helvetica,sans-Serif" font-size="10.00" fill="grey"> +aspect</text>
<text text-anchor="middle" x="303.3" y="-137" font-family="Helvetica,sans-Serif" font-size="10.00" fill="grey">+focal</text>
<text text-anchor="middle" x="303.3" y="-126" font-family="Helvetica,sans-Serif" font-size="10.00" fill="grey">+ppx</text>
<text text-anchor="middle" x="303.3" y="-115" font-family="Helvetica,sans-Serif" font-size="10.00" fill="grey">+ppy</text>
</g>
<!-- Node3 -->
<g id="Node000003" class="node">
<title>Node3</title>
<g id="a_Node000003"><a xlink:href="../../d3/d63/classcv_1_1Mat.html" target="_top" xlink:title="n&#45;dimensional dense array class">
<polygon fill="white" stroke="transparent" points="427.3,-568 303.3,-568 303.3,-174 427.3,-174 427.3,-568"/>
<text text-anchor="start" x="347.3" y="-556" font-family="Helvetica,sans-Serif" font-size="10.00">cv::Mat</text>
<text text-anchor="start" x="363.3" y="-541" font-family="Helvetica,sans-Serif" font-size="10.00"> </text>
<text text-anchor="start" x="307.3" y="-526" font-family="Helvetica,sans-Serif" font-size="10.00">+</text>
<text text-anchor="start" x="320.3" y="-526" font-family="Helvetica,sans-Serif" font-size="10.00">Mat()</text>
<text text-anchor="start" x="307.3" y="-511" font-family="Helvetica,sans-Serif" font-size="10.00">+</text>
<text text-anchor="start" x="320.3" y="-511" font-family="Helvetica,sans-Serif" font-size="10.00">Mat()</text>
<text text-anchor="start" x="307.3" y="-496" font-family="Helvetica,sans-Serif" font-size="10.00">+</text>
<text text-anchor="start" x="320.3" y="-496" font-family="Helvetica,sans-Serif" font-size="10.00">Mat()</text>
<text text-anchor="start" x="307.3" y="-481" font-family="Helvetica,sans-Serif" font-size="10.00">+</text>
<text text-anchor="start" x="320.3" y="-481" font-family="Helvetica,sans-Serif" font-size="10.00">Mat()</text>
<text text-anchor="start" x="307.3" y="-466" font-family="Helvetica,sans-Serif" font-size="10.00">+</text>
<text text-anchor="start" x="320.3" y="-466" font-family="Helvetica,sans-Serif" font-size="10.00">Mat()</text>
<text text-anchor="start" x="307.3" y="-451" font-family="Helvetica,sans-Serif" font-size="10.00">+</text>
<text text-anchor="start" x="320.3" y="-451" font-family="Helvetica,sans-Serif" font-size="10.00">Mat()</text>
<text text-anchor="start" x="307.3" y="-436" font-family="Helvetica,sans-Serif" font-size="10.00">+</text>
<text text-anchor="start" x="320.3" y="-436" font-family="Helvetica,sans-Serif" font-size="10.00">Mat()</text>
<text text-anchor="start" x="307.3" y="-421" font-family="Helvetica,sans-Serif" font-size="10.00">+</text>
<text text-anchor="start" x="320.3" y="-421" font-family="Helvetica,sans-Serif" font-size="10.00">Mat()</text>
<text text-anchor="start" x="307.3" y="-406" font-family="Helvetica,sans-Serif" font-size="10.00">+</text>
<text text-anchor="start" x="320.3" y="-406" font-family="Helvetica,sans-Serif" font-size="10.00">Mat()</text>
<text text-anchor="start" x="307.3" y="-391" font-family="Helvetica,sans-Serif" font-size="10.00">+</text>
<text text-anchor="start" x="320.3" y="-391" font-family="Helvetica,sans-Serif" font-size="10.00">Mat()</text>
<text text-anchor="start" x="320.3" y="-376" font-family="Helvetica,sans-Serif" font-size="10.00">and 129 more...</text>
<text text-anchor="start" x="307.3" y="-361" font-family="Helvetica,sans-Serif" font-size="10.00">+</text>
<text text-anchor="start" x="320.3" y="-361" font-family="Helvetica,sans-Serif" font-size="10.00">diag()</text>
<text text-anchor="start" x="307.3" y="-346" font-family="Helvetica,sans-Serif" font-size="10.00">+</text>
<text text-anchor="start" x="320.3" y="-346" font-family="Helvetica,sans-Serif" font-size="10.00">eye()</text>
<text text-anchor="start" x="307.3" y="-331" font-family="Helvetica,sans-Serif" font-size="10.00">+</text>
<text text-anchor="start" x="320.3" y="-331" font-family="Helvetica,sans-Serif" font-size="10.00">eye()</text>
<text text-anchor="start" x="307.3" y="-316" font-family="Helvetica,sans-Serif" font-size="10.00">+</text>
<text text-anchor="start" x="320.3" y="-316" font-family="Helvetica,sans-Serif" font-size="10.00">getDefaultAllocator()</text>
<text text-anchor="start" x="307.3" y="-301" font-family="Helvetica,sans-Serif" font-size="10.00">+</text>
<text text-anchor="start" x="320.3" y="-301" font-family="Helvetica,sans-Serif" font-size="10.00">getStdAllocator()</text>
<text text-anchor="start" x="307.3" y="-286" font-family="Helvetica,sans-Serif" font-size="10.00">+</text>
<text text-anchor="start" x="320.3" y="-286" font-family="Helvetica,sans-Serif" font-size="10.00">ones()</text>
<text text-anchor="start" x="307.3" y="-271" font-family="Helvetica,sans-Serif" font-size="10.00">+</text>
<text text-anchor="start" x="320.3" y="-271" font-family="Helvetica,sans-Serif" font-size="10.00">ones()</text>
<text text-anchor="start" x="307.3" y="-256" font-family="Helvetica,sans-Serif" font-size="10.00">+</text>
<text text-anchor="start" x="320.3" y="-256" font-family="Helvetica,sans-Serif" font-size="10.00">ones()</text>
<text text-anchor="start" x="307.3" y="-241" font-family="Helvetica,sans-Serif" font-size="10.00">+</text>
<text text-anchor="start" x="320.3" y="-241" font-family="Helvetica,sans-Serif" font-size="10.00">setDefaultAllocator()</text>
<text text-anchor="start" x="307.3" y="-226" font-family="Helvetica,sans-Serif" font-size="10.00">+</text>
<text text-anchor="start" x="320.3" y="-226" font-family="Helvetica,sans-Serif" font-size="10.00">zeros()</text>
<text text-anchor="start" x="307.3" y="-211" font-family="Helvetica,sans-Serif" font-size="10.00">+</text>
<text text-anchor="start" x="320.3" y="-211" font-family="Helvetica,sans-Serif" font-size="10.00">zeros()</text>
<text text-anchor="start" x="307.3" y="-196" font-family="Helvetica,sans-Serif" font-size="10.00">+</text>
<text text-anchor="start" x="320.3" y="-196" font-family="Helvetica,sans-Serif" font-size="10.00">zeros()</text>
<text text-anchor="start" x="307.3" y="-181" font-family="Helvetica,sans-Serif" font-size="10.00">#</text>
<text text-anchor="start" x="320.3" y="-181" font-family="Helvetica,sans-Serif" font-size="10.00">forEach_impl()</text>
<polygon fill="#666666" stroke="#666666" points="303.3,-551 303.3,-551 427.3,-551 427.3,-551 303.3,-551"/>
<polygon fill="#666666" stroke="#666666" points="303.3,-536 303.3,-536 427.3,-536 427.3,-536 303.3,-536"/>
<polygon fill="none" stroke="#666666" points="303.3,-174 303.3,-568 427.3,-568 427.3,-174 303.3,-174"/>
</a>
</g>
</g>
<!-- Node3&#45;&gt;Node1 -->
<g id="edge2_Node000001_Node000003" class="edge">
<title>Node3&#45;&gt;Node1</title>
<g id="a_edge2_Node000001_Node000003"><a xlink:title=" ">
<path fill="none" stroke="#63b8ff" d="M340.66,-173.99C336.31,-152.88 331.23,-131.87 325.3,-112 324.68,-109.9 324,-107.78 323.27,-105.65"/>
<polygon fill="none" stroke="#63b8ff" points="323.22,-105.52 317.38,-101.29 319.03,-94.27 324.88,-98.5 323.22,-105.52"/>
</a>
</g>
<text text-anchor="middle" x="345.8" y="-137" font-family="Helvetica,sans-Serif" font-size="10.00" fill="grey"> +R</text>
<text text-anchor="middle" x="345.8" y="-126" font-family="Helvetica,sans-Serif" font-size="10.00" fill="grey">+t</text>
</g>
<!-- Node4 -->
<g id="Node000004" class="node">
<title>Node4</title>
<g id="a_Node000004"><a xlink:title=" ">
<polygon fill="white" stroke="transparent" points="71.8,-1070 48.8,-1070 48.8,-1021 71.8,-1021 71.8,-1070"/>
<text text-anchor="start" x="54.3" y="-1057.5" font-family="Helvetica,sans-Serif" font-size="10.00">int</text>
<text text-anchor="start" x="58.8" y="-1042.5" font-family="Helvetica,sans-Serif" font-size="10.00"> </text>
<text text-anchor="start" x="58.8" y="-1027.5" font-family="Helvetica,sans-Serif" font-size="10.00"> </text>
<polygon fill="#666666" stroke="#666666" points="49.3,-1052.5 49.3,-1052.5 72.3,-1052.5 72.3,-1052.5 49.3,-1052.5"/>
<polygon fill="#666666" stroke="#666666" points="49.3,-1037.5 49.3,-1037.5 72.3,-1037.5 72.3,-1037.5 49.3,-1037.5"/>
<polygon fill="none" stroke="#666666" points="48.8,-1021 48.8,-1070 71.8,-1070 71.8,-1021 48.8,-1021"/>
</a>
</g>
</g>
<!-- Node4&#45;&gt;Node3 -->
<g id="edge3_Node000003_Node000004" class="edge">
<title>Node4&#45;&gt;Node3</title>
<g id="a_edge3_Node000003_Node000004"><a xlink:title=" ">
<path fill="none" stroke="#63b8ff" d="M50.3,-1020.72C24.08,-954.37 -39.55,-763.81 36.3,-637 60.9,-595.87 85.54,-600.22 131.3,-586 163.32,-576.05 250.13,-588.24 293.12,-566.63"/>
<polygon fill="none" stroke="#63b8ff" points="293.15,-566.61 296.07,-560.02 303.28,-560.18 300.36,-566.77 293.15,-566.61"/>
</a>
</g>
<text text-anchor="middle" x="52.8" y="-765.5" font-family="Helvetica,sans-Serif" font-size="10.00" fill="grey"> +cols</text>
<text text-anchor="middle" x="52.8" y="-754.5" font-family="Helvetica,sans-Serif" font-size="10.00" fill="grey">+dims</text>
<text text-anchor="middle" x="52.8" y="-743.5" font-family="Helvetica,sans-Serif" font-size="10.00" fill="grey">+flags</text>
<text text-anchor="middle" x="52.8" y="-732.5" font-family="Helvetica,sans-Serif" font-size="10.00" fill="grey">+rows</text>
</g>
<!-- Node8 -->
<g id="Node000008" class="node">
<title>Node8</title>
<g id="a_Node000008"><a xlink:href="../../db/d58/structcv_1_1UMatData.html" target="_top" xlink:title=" ">
<polygon fill="white" stroke="transparent" points="443.8,-866 286.8,-866 286.8,-637 443.8,-637 443.8,-866"/>
<text text-anchor="start" x="332.3" y="-853.5" font-family="Helvetica,sans-Serif" font-size="10.00">cv::UMatData</text>
<text text-anchor="start" x="363.8" y="-838.5" font-family="Helvetica,sans-Serif" font-size="10.00"> </text>
<text text-anchor="start" x="291.3" y="-823.5" font-family="Helvetica,sans-Serif" font-size="10.00">+</text>
<text text-anchor="start" x="304.3" y="-823.5" font-family="Helvetica,sans-Serif" font-size="10.00">UMatData()</text>
<text text-anchor="start" x="291.3" y="-808.5" font-family="Helvetica,sans-Serif" font-size="10.00">+</text>
<text text-anchor="start" x="304.3" y="-808.5" font-family="Helvetica,sans-Serif" font-size="10.00">~UMatData()</text>
<text text-anchor="start" x="291.3" y="-793.5" font-family="Helvetica,sans-Serif" font-size="10.00">+</text>
<text text-anchor="start" x="304.3" y="-793.5" font-family="Helvetica,sans-Serif" font-size="10.00">copyOnMap()</text>
<text text-anchor="start" x="291.3" y="-778.5" font-family="Helvetica,sans-Serif" font-size="10.00">+</text>
<text text-anchor="start" x="304.3" y="-778.5" font-family="Helvetica,sans-Serif" font-size="10.00">deviceCopyObsolete()</text>
<text text-anchor="start" x="291.3" y="-763.5" font-family="Helvetica,sans-Serif" font-size="10.00">+</text>
<text text-anchor="start" x="304.3" y="-763.5" font-family="Helvetica,sans-Serif" font-size="10.00">deviceMemMapped()</text>
<text text-anchor="start" x="291.3" y="-748.5" font-family="Helvetica,sans-Serif" font-size="10.00">+</text>
<text text-anchor="start" x="304.3" y="-748.5" font-family="Helvetica,sans-Serif" font-size="10.00">hostCopyObsolete()</text>
<text text-anchor="start" x="291.3" y="-733.5" font-family="Helvetica,sans-Serif" font-size="10.00">+</text>
<text text-anchor="start" x="304.3" y="-733.5" font-family="Helvetica,sans-Serif" font-size="10.00">lock()</text>
<text text-anchor="start" x="291.3" y="-718.5" font-family="Helvetica,sans-Serif" font-size="10.00">+</text>
<text text-anchor="start" x="304.3" y="-718.5" font-family="Helvetica,sans-Serif" font-size="10.00">markDeviceCopyObsolete()</text>
<text text-anchor="start" x="291.3" y="-703.5" font-family="Helvetica,sans-Serif" font-size="10.00">+</text>
<text text-anchor="start" x="304.3" y="-703.5" font-family="Helvetica,sans-Serif" font-size="10.00">markDeviceMemMapped()</text>
<text text-anchor="start" x="291.3" y="-688.5" font-family="Helvetica,sans-Serif" font-size="10.00">+</text>
<text text-anchor="start" x="304.3" y="-688.5" font-family="Helvetica,sans-Serif" font-size="10.00">markHostCopyObsolete()</text>
<text text-anchor="start" x="291.3" y="-673.5" font-family="Helvetica,sans-Serif" font-size="10.00">+</text>
<text text-anchor="start" x="304.3" y="-673.5" font-family="Helvetica,sans-Serif" font-size="10.00">tempCopiedUMat()</text>
<text text-anchor="start" x="291.3" y="-658.5" font-family="Helvetica,sans-Serif" font-size="10.00">+</text>
<text text-anchor="start" x="304.3" y="-658.5" font-family="Helvetica,sans-Serif" font-size="10.00">tempUMat()</text>
<text text-anchor="start" x="291.3" y="-643.5" font-family="Helvetica,sans-Serif" font-size="10.00">+</text>
<text text-anchor="start" x="304.3" y="-643.5" font-family="Helvetica,sans-Serif" font-size="10.00">unlock()</text>
<polygon fill="#666666" stroke="#666666" points="287.3,-848.5 287.3,-848.5 444.3,-848.5 444.3,-848.5 287.3,-848.5"/>
<polygon fill="#666666" stroke="#666666" points="287.3,-833.5 287.3,-833.5 444.3,-833.5 444.3,-833.5 287.3,-833.5"/>
<polygon fill="none" stroke="#666666" points="286.8,-637 286.8,-866 443.8,-866 443.8,-637 286.8,-637"/>
</a>
</g>
</g>
<!-- Node4&#45;&gt;Node8 -->
<g id="edge9_Node000008_Node000004" class="edge">
<title>Node4&#45;&gt;Node8</title>
<g id="a_edge9_Node000008_Node000004"><a xlink:title=" ">
<path fill="none" stroke="#63b8ff" d="M67.27,-1020.92C79.06,-985.33 106.47,-918.42 154.3,-884 186,-861.19 205.52,-883.75 240.3,-866 252.95,-859.55 265.29,-851.47 276.98,-842.62"/>
<polygon fill="none" stroke="#63b8ff" points="277.21,-842.44 279.45,-835.59 286.64,-835.02 284.4,-841.88 277.21,-842.44"/>
</a>
</g>
<text text-anchor="middle" x="197.3" y="-920" font-family="Helvetica,sans-Serif" font-size="10.00" fill="grey"> +allocatorFlags_</text>
<text text-anchor="middle" x="197.3" y="-909" font-family="Helvetica,sans-Serif" font-size="10.00" fill="grey">+mapcount</text>
<text text-anchor="middle" x="197.3" y="-898" font-family="Helvetica,sans-Serif" font-size="10.00" fill="grey">+refcount</text>
<text text-anchor="middle" x="197.3" y="-887" font-family="Helvetica,sans-Serif" font-size="10.00" fill="grey">+urefcount</text>
</g>
<!-- Node16 -->
<g id="Node000016" class="node">
<title>Node16</title>
<g id="a_Node000016"><a xlink:href="../../df/d63/structcv_1_1MatSize.html" target="_top" xlink:title=" ">
<polygon fill="white" stroke="transparent" points="165.8,-821 78.8,-821 78.8,-682 165.8,-682 165.8,-821"/>
<text text-anchor="start" x="94.8" y="-808.5" font-family="Helvetica,sans-Serif" font-size="10.00">cv::MatSize</text>
<text text-anchor="start" x="120.8" y="-793.5" font-family="Helvetica,sans-Serif" font-size="10.00"> </text>
<text text-anchor="start" x="83.3" y="-778.5" font-family="Helvetica,sans-Serif" font-size="10.00">+</text>
<text text-anchor="start" x="96.3" y="-778.5" font-family="Helvetica,sans-Serif" font-size="10.00">MatSize()</text>
<text text-anchor="start" x="83.3" y="-763.5" font-family="Helvetica,sans-Serif" font-size="10.00">+</text>
<text text-anchor="start" x="96.3" y="-763.5" font-family="Helvetica,sans-Serif" font-size="10.00">dims()</text>
<text text-anchor="start" x="83.3" y="-748.5" font-family="Helvetica,sans-Serif" font-size="10.00">+</text>
<text text-anchor="start" x="96.3" y="-748.5" font-family="Helvetica,sans-Serif" font-size="10.00">operator!=()</text>
<text text-anchor="start" x="83.3" y="-733.5" font-family="Helvetica,sans-Serif" font-size="10.00">+</text>
<text text-anchor="start" x="96.3" y="-733.5" font-family="Helvetica,sans-Serif" font-size="10.00">operator()()</text>
<text text-anchor="start" x="83.3" y="-718.5" font-family="Helvetica,sans-Serif" font-size="10.00">+</text>
<text text-anchor="start" x="96.3" y="-718.5" font-family="Helvetica,sans-Serif" font-size="10.00">operator==()</text>
<text text-anchor="start" x="83.3" y="-703.5" font-family="Helvetica,sans-Serif" font-size="10.00">+</text>
<text text-anchor="start" x="96.3" y="-703.5" font-family="Helvetica,sans-Serif" font-size="10.00">operator[]()</text>
<text text-anchor="start" x="83.3" y="-688.5" font-family="Helvetica,sans-Serif" font-size="10.00">+</text>
<text text-anchor="start" x="96.3" y="-688.5" font-family="Helvetica,sans-Serif" font-size="10.00">operator[]()</text>
<polygon fill="#666666" stroke="#666666" points="79.3,-803.5 79.3,-803.5 166.3,-803.5 166.3,-803.5 79.3,-803.5"/>
<polygon fill="#666666" stroke="#666666" points="79.3,-788.5 79.3,-788.5 166.3,-788.5 166.3,-788.5 79.3,-788.5"/>
<polygon fill="none" stroke="#666666" points="78.8,-682 78.8,-821 165.8,-821 165.8,-682 78.8,-682"/>
</a>
</g>
</g>
<!-- Node4&#45;&gt;Node16 -->
<g id="edge20_Node000016_Node000004" class="edge">
<title>Node4&#45;&gt;Node16</title>
<g id="a_edge20_Node000016_Node000004"><a xlink:title=" ">
<path fill="none" stroke="#63b8ff" d="M57.34,-1020.76C54.09,-989.11 50.65,-931.59 61.3,-884 65.17,-866.74 71.51,-849.05 78.67,-832.46"/>
<polygon fill="none" stroke="#63b8ff" points="78.83,-832.11 77.64,-825 83.75,-821.17 84.94,-828.28 78.83,-832.11"/>
</a>
</g>
<text text-anchor="middle" x="70.3" y="-903.5" font-family="Helvetica,sans-Serif" font-size="10.00" fill="grey"> +p</text>
</g>
<!-- Node5 -->
<g id="Node000005" class="node">
<title>Node5</title>
<g id="a_Node000005"><a xlink:title=" ">
<polygon fill="white" stroke="transparent" points="231.3,-1070 185.3,-1070 185.3,-1021 231.3,-1021 231.3,-1070"/>
<text text-anchor="start" x="190.3" y="-1057.5" font-family="Helvetica,sans-Serif" font-size="10.00">uchar *</text>
<text text-anchor="start" x="206.3" y="-1042.5" font-family="Helvetica,sans-Serif" font-size="10.00"> </text>
<text text-anchor="start" x="206.3" y="-1027.5" font-family="Helvetica,sans-Serif" font-size="10.00"> </text>
<polygon fill="#666666" stroke="#666666" points="185.3,-1052.5 185.3,-1052.5 231.3,-1052.5 231.3,-1052.5 185.3,-1052.5"/>
<polygon fill="#666666" stroke="#666666" points="185.3,-1037.5 185.3,-1037.5 231.3,-1037.5 231.3,-1037.5 185.3,-1037.5"/>
<polygon fill="none" stroke="#666666" points="185.3,-1021 185.3,-1070 231.3,-1070 231.3,-1021 185.3,-1021"/>
</a>
</g>
</g>
<!-- Node5&#45;&gt;Node3 -->
<g id="edge4_Node000003_Node000005" class="edge">
<title>Node5&#45;&gt;Node3</title>
<g id="a_edge4_Node000003_Node000005"><a xlink:title=" ">
<path fill="none" stroke="#63b8ff" d="M205.95,-1020.54C200.54,-956.07 191.37,-774.51 243.3,-637 256.78,-601.32 276.29,-601.61 294.3,-568 295.51,-565.76 296.7,-563.49 297.87,-561.2"/>
<polygon fill="none" stroke="#63b8ff" points="297.93,-561.08 297.03,-553.93 303.29,-550.34 304.19,-557.5 297.93,-561.08"/>
</a>
</g>
<text text-anchor="middle" x="260.3" y="-749" font-family="Helvetica,sans-Serif" font-size="10.00" fill="grey"> +data</text>
</g>
<!-- Node5&#45;&gt;Node8 -->
<g id="edge10_Node000008_Node000005" class="edge">
<title>Node5&#45;&gt;Node8</title>
<g id="a_edge10_Node000008_Node000005"><a xlink:title=" ">
<path fill="none" stroke="#63b8ff" d="M213.78,-1020.91C221.82,-988.71 238.61,-929.75 263.3,-884 268.29,-874.76 273.91,-865.5 279.9,-856.4"/>
<polygon fill="none" stroke="#63b8ff" points="280.06,-856.16 280.11,-848.94 286.79,-846.22 286.74,-853.43 280.06,-856.16"/>
</a>
</g>
<text text-anchor="middle" x="287.8" y="-909" font-family="Helvetica,sans-Serif" font-size="10.00" fill="grey"> +data</text>
<text text-anchor="middle" x="287.8" y="-898" font-family="Helvetica,sans-Serif" font-size="10.00" fill="grey">+origdata</text>
</g>
<!-- Node6 -->
<g id="Node000006" class="node">
<title>Node6</title>
<g id="a_Node000006"><a xlink:title=" ">
<polygon fill="white" stroke="transparent" points="908.8,-776 833.8,-776 833.8,-727 908.8,-727 908.8,-776"/>
<text text-anchor="start" x="839.3" y="-763.5" font-family="Helvetica,sans-Serif" font-size="10.00">const uchar *</text>
<text text-anchor="start" x="869.8" y="-748.5" font-family="Helvetica,sans-Serif" font-size="10.00"> </text>
<text text-anchor="start" x="869.8" y="-733.5" font-family="Helvetica,sans-Serif" font-size="10.00"> </text>
<polygon fill="#666666" stroke="#666666" points="834.3,-758.5 834.3,-758.5 909.3,-758.5 909.3,-758.5 834.3,-758.5"/>
<polygon fill="#666666" stroke="#666666" points="834.3,-743.5 834.3,-743.5 909.3,-743.5 909.3,-743.5 834.3,-743.5"/>
<polygon fill="none" stroke="#666666" points="833.8,-727 833.8,-776 908.8,-776 908.8,-727 833.8,-727"/>
</a>
</g>
</g>
<!-- Node6&#45;&gt;Node3 -->
<g id="edge5_Node000003_Node000006" class="edge">
<title>Node6&#45;&gt;Node3</title>
<g id="a_edge5_Node000003_Node000006"><a xlink:title=" ">
<path fill="none" stroke="#63b8ff" d="M866.28,-726.79C860.01,-702 847.22,-663.14 824.3,-637 716.93,-514.55 538.62,-434.75 438.79,-397.15"/>
<polygon fill="none" stroke="#63b8ff" points="438.56,-397.07 431.54,-398.73 427.31,-392.89 434.33,-391.23 438.56,-397.07"/>
</a>
</g>
<text text-anchor="middle" x="830.8" y="-611" font-family="Helvetica,sans-Serif" font-size="10.00" fill="grey"> +dataend</text>
<text text-anchor="middle" x="830.8" y="-600" font-family="Helvetica,sans-Serif" font-size="10.00" fill="grey">+datalimit</text>
<text text-anchor="middle" x="830.8" y="-589" font-family="Helvetica,sans-Serif" font-size="10.00" fill="grey">+datastart</text>
</g>
<!-- Node7 -->
<g id="Node000007" class="node">
<title>Node7</title>
<g id="a_Node000007"><a xlink:href="../../df/d4c/classcv_1_1MatAllocator.html" target="_top" xlink:title="Custom array allocator.">
<polygon fill="white" stroke="transparent" points="703.8,-1145 560.8,-1145 560.8,-946 703.8,-946 703.8,-1145"/>
<text text-anchor="start" x="593.3" y="-1132.5" font-family="Helvetica,sans-Serif" font-size="10.00">cv::MatAllocator</text>
<text text-anchor="start" x="630.8" y="-1117.5" font-family="Helvetica,sans-Serif" font-size="10.00"> </text>
<text text-anchor="start" x="565.3" y="-1102.5" font-family="Helvetica,sans-Serif" font-size="10.00">+</text>
<text text-anchor="start" x="578.3" y="-1102.5" font-family="Helvetica,sans-Serif" font-size="10.00">MatAllocator()</text>
<text text-anchor="start" x="565.3" y="-1087.5" font-family="Helvetica,sans-Serif" font-size="10.00">+</text>
<text text-anchor="start" x="578.3" y="-1087.5" font-family="Helvetica,sans-Serif" font-size="10.00">~MatAllocator()</text>
<text text-anchor="start" x="565.3" y="-1072.5" font-family="Helvetica,sans-Serif" font-size="10.00">+</text>
<text text-anchor="start" x="578.3" y="-1072.5" font-family="Helvetica,sans-Serif" font-size="10.00">allocate()</text>
<text text-anchor="start" x="565.3" y="-1057.5" font-family="Helvetica,sans-Serif" font-size="10.00">+</text>
<text text-anchor="start" x="578.3" y="-1057.5" font-family="Helvetica,sans-Serif" font-size="10.00">allocate()</text>
<text text-anchor="start" x="565.3" y="-1042.5" font-family="Helvetica,sans-Serif" font-size="10.00">+</text>
<text text-anchor="start" x="578.3" y="-1042.5" font-family="Helvetica,sans-Serif" font-size="10.00">copy()</text>
<text text-anchor="start" x="565.3" y="-1027.5" font-family="Helvetica,sans-Serif" font-size="10.00">+</text>
<text text-anchor="start" x="578.3" y="-1027.5" font-family="Helvetica,sans-Serif" font-size="10.00">deallocate()</text>
<text text-anchor="start" x="565.3" y="-1012.5" font-family="Helvetica,sans-Serif" font-size="10.00">+</text>
<text text-anchor="start" x="578.3" y="-1012.5" font-family="Helvetica,sans-Serif" font-size="10.00">download()</text>
<text text-anchor="start" x="565.3" y="-997.5" font-family="Helvetica,sans-Serif" font-size="10.00">+</text>
<text text-anchor="start" x="578.3" y="-997.5" font-family="Helvetica,sans-Serif" font-size="10.00">getBufferPoolController()</text>
<text text-anchor="start" x="565.3" y="-982.5" font-family="Helvetica,sans-Serif" font-size="10.00">+</text>
<text text-anchor="start" x="578.3" y="-982.5" font-family="Helvetica,sans-Serif" font-size="10.00">map()</text>
<text text-anchor="start" x="565.3" y="-967.5" font-family="Helvetica,sans-Serif" font-size="10.00">+</text>
<text text-anchor="start" x="578.3" y="-967.5" font-family="Helvetica,sans-Serif" font-size="10.00">unmap()</text>
<text text-anchor="start" x="565.3" y="-952.5" font-family="Helvetica,sans-Serif" font-size="10.00">+</text>
<text text-anchor="start" x="578.3" y="-952.5" font-family="Helvetica,sans-Serif" font-size="10.00">upload()</text>
<polygon fill="#666666" stroke="#666666" points="561.3,-1127.5 561.3,-1127.5 704.3,-1127.5 704.3,-1127.5 561.3,-1127.5"/>
<polygon fill="#666666" stroke="#666666" points="561.3,-1112.5 561.3,-1112.5 704.3,-1112.5 704.3,-1112.5 561.3,-1112.5"/>
<polygon fill="none" stroke="#666666" points="560.8,-946 560.8,-1145 703.8,-1145 703.8,-946 560.8,-946"/>
</a>
</g>
</g>
<!-- Node7&#45;&gt;Node3 -->
<g id="edge6_Node000003_Node000007" class="edge">
<title>Node7&#45;&gt;Node3</title>
<g id="a_edge6_Node000003_Node000007"><a xlink:title=" ">
<path fill="none" stroke="#63b8ff" d="M635.47,-945.79C635.06,-925.3 633.86,-903.9 631.3,-884 616.84,-771.63 617.76,-738.93 568.3,-637 534.13,-566.56 479.49,-496.67 435.51,-446.36"/>
<polygon fill="none" stroke="#63b8ff" points="435.36,-446.2 428.4,-444.35 427.43,-437.2 434.39,-439.05 435.36,-446.2"/>
</a>
</g>
<text text-anchor="middle" x="656.8" y="-749" font-family="Helvetica,sans-Serif" font-size="10.00" fill="grey"> +allocator</text>
</g>
<!-- Node7&#45;&gt;Node8 -->
<g id="edge8_Node000008_Node000007" class="edge">
<title>Node7&#45;&gt;Node8</title>
<g id="a_edge8_Node000008_Node000007"><a xlink:title=" ">
<path fill="none" stroke="#63b8ff" d="M568.53,-945.76C564.72,-939.76 560.95,-933.8 557.3,-928 545.09,-908.58 545.5,-901.19 530.3,-884 507.83,-858.59 480.01,-834.35 453.67,-813.76"/>
<polygon fill="none" stroke="#63b8ff" points="453.55,-813.67 446.36,-813.18 444.04,-806.35 451.24,-806.84 453.55,-813.67"/>
</a>
</g>
<text text-anchor="middle" x="594.3" y="-909" font-family="Helvetica,sans-Serif" font-size="10.00" fill="grey"> +currAllocator</text>
<text text-anchor="middle" x="594.3" y="-898" font-family="Helvetica,sans-Serif" font-size="10.00" fill="grey">+prevAllocator</text>
</g>
<!-- Node8&#45;&gt;Node3 -->
<g id="edge7_Node000003_Node000008" class="edge">
<title>Node8&#45;&gt;Node3</title>
<g id="a_edge7_Node000003_Node000008"><a xlink:title=" ">
<path fill="none" stroke="#63b8ff" d="M365.3,-636.94C365.3,-618.9 365.3,-599.77 365.3,-580.37"/>
<polygon fill="none" stroke="#63b8ff" points="365.3,-580.27 361.3,-574.27 365.3,-568.27 369.3,-574.27 365.3,-580.27"/>
</a>
</g>
<text text-anchor="middle" x="374.3" y="-600" font-family="Helvetica,sans-Serif" font-size="10.00" fill="grey"> +u</text>
</g>
<!-- Node8&#45;&gt;Node8 -->
<g id="edge14_Node000008_Node000008" class="edge">
<title>Node8&#45;&gt;Node8</title>
<g id="a_edge14_Node000008_Node000008"><a xlink:title=" ">
<path fill="none" stroke="#63b8ff" d="M444.06,-776.12C454.71,-771.99 461.8,-763.79 461.8,-751.5 461.8,-743.82 459.03,-737.74 454.35,-733.25"/>
<polygon fill="none" stroke="#63b8ff" points="454.27,-733.19 447.06,-733.44 444.06,-726.88 451.27,-726.63 454.27,-733.19"/>
</a>
</g>
<text text-anchor="middle" x="510.8" y="-749" font-family="Helvetica,sans-Serif" font-size="10.00" fill="grey"> +originalUMatData</text>
</g>
<!-- Node9 -->
<g id="Node000009" class="node">
<title>Node9</title>
<g id="a_Node000009"><a xlink:title=" ">
<polygon fill="white" stroke="transparent" points="769.8,-1070 730.8,-1070 730.8,-1021 769.8,-1021 769.8,-1070"/>
<text text-anchor="start" x="736.3" y="-1057.5" font-family="Helvetica,sans-Serif" font-size="10.00">size_t</text>
<text text-anchor="start" x="748.8" y="-1042.5" font-family="Helvetica,sans-Serif" font-size="10.00"> </text>
<text text-anchor="start" x="748.8" y="-1027.5" font-family="Helvetica,sans-Serif" font-size="10.00"> </text>
<polygon fill="#666666" stroke="#666666" points="731.3,-1052.5 731.3,-1052.5 770.3,-1052.5 770.3,-1052.5 731.3,-1052.5"/>
<polygon fill="#666666" stroke="#666666" points="731.3,-1037.5 731.3,-1037.5 770.3,-1037.5 770.3,-1037.5 731.3,-1037.5"/>
<polygon fill="none" stroke="#666666" points="730.8,-1021 730.8,-1070 769.8,-1070 769.8,-1021 730.8,-1021"/>
</a>
</g>
</g>
<!-- Node9&#45;&gt;Node8 -->
<g id="edge11_Node000008_Node000009" class="edge">
<title>Node9&#45;&gt;Node8</title>
<g id="a_edge11_Node000008_Node000009"><a xlink:title=" ">
<path fill="none" stroke="#63b8ff" d="M745.25,-1020.88C739.89,-999.77 729.86,-968.74 713.3,-946 687.24,-910.2 672.77,-907.61 635.3,-884 577.86,-847.79 508.98,-814.39 455.18,-790.31"/>
<polygon fill="none" stroke="#63b8ff" points="454.9,-790.19 447.79,-791.41 443.93,-785.32 451.04,-784.1 454.9,-790.19"/>
</a>
</g>
<text text-anchor="middle" x="712.8" y="-903.5" font-family="Helvetica,sans-Serif" font-size="10.00" fill="grey"> +size</text>
</g>
<!-- Node17 -->
<g id="Node000017" class="node">
<title>Node17</title>
<g id="a_Node000017"><a xlink:href="../../d4/d26/structcv_1_1MatStep.html" target="_top" xlink:title=" ">
<polygon fill="white" stroke="transparent" points="815.3,-821 713.3,-821 713.3,-682 815.3,-682 815.3,-821"/>
<text text-anchor="start" x="735.3" y="-808.5" font-family="Helvetica,sans-Serif" font-size="10.00">cv::MatStep</text>
<text text-anchor="start" x="762.3" y="-793.5" font-family="Helvetica,sans-Serif" font-size="10.00"> </text>
<text text-anchor="start" x="717.3" y="-778.5" font-family="Helvetica,sans-Serif" font-size="10.00">+</text>
<text text-anchor="start" x="730.3" y="-778.5" font-family="Helvetica,sans-Serif" font-size="10.00">MatStep()</text>
<text text-anchor="start" x="717.3" y="-763.5" font-family="Helvetica,sans-Serif" font-size="10.00">+</text>
<text text-anchor="start" x="730.3" y="-763.5" font-family="Helvetica,sans-Serif" font-size="10.00">MatStep()</text>
<text text-anchor="start" x="717.3" y="-748.5" font-family="Helvetica,sans-Serif" font-size="10.00">+</text>
<text text-anchor="start" x="730.3" y="-748.5" font-family="Helvetica,sans-Serif" font-size="10.00">operator size_t()</text>
<text text-anchor="start" x="717.3" y="-733.5" font-family="Helvetica,sans-Serif" font-size="10.00">+</text>
<text text-anchor="start" x="730.3" y="-733.5" font-family="Helvetica,sans-Serif" font-size="10.00">operator=()</text>
<text text-anchor="start" x="717.3" y="-718.5" font-family="Helvetica,sans-Serif" font-size="10.00">+</text>
<text text-anchor="start" x="730.3" y="-718.5" font-family="Helvetica,sans-Serif" font-size="10.00">operator[]()</text>
<text text-anchor="start" x="717.3" y="-703.5" font-family="Helvetica,sans-Serif" font-size="10.00">+</text>
<text text-anchor="start" x="730.3" y="-703.5" font-family="Helvetica,sans-Serif" font-size="10.00">operator[]()</text>
<text text-anchor="start" x="717.3" y="-688.5" font-family="Helvetica,sans-Serif" font-size="10.00">#</text>
<text text-anchor="start" x="730.3" y="-688.5" font-family="Helvetica,sans-Serif" font-size="10.00">operator=()</text>
<polygon fill="#666666" stroke="#666666" points="713.3,-803.5 713.3,-803.5 815.3,-803.5 815.3,-803.5 713.3,-803.5"/>
<polygon fill="#666666" stroke="#666666" points="713.3,-788.5 713.3,-788.5 815.3,-788.5 815.3,-788.5 713.3,-788.5"/>
<polygon fill="none" stroke="#666666" points="713.3,-682 713.3,-821 815.3,-821 815.3,-682 713.3,-682"/>
</a>
</g>
</g>
<!-- Node9&#45;&gt;Node17 -->
<g id="edge22_Node000017_Node000009" class="edge">
<title>Node9&#45;&gt;Node17</title>
<g id="a_edge22_Node000017_Node000009"><a xlink:title=" ">
<path fill="none" stroke="#63b8ff" d="M751.45,-1020.6C753.39,-980.19 757.4,-896.57 760.42,-833.4"/>
<polygon fill="none" stroke="#63b8ff" points="760.44,-833.05 756.73,-826.86 761.02,-821.06 764.72,-827.25 760.44,-833.05"/>
</a>
</g>
<text text-anchor="middle" x="771.3" y="-909" font-family="Helvetica,sans-Serif" font-size="10.00" fill="grey"> +buf</text>
<text text-anchor="middle" x="771.3" y="-898" font-family="Helvetica,sans-Serif" font-size="10.00" fill="grey">+p</text>
</g>
<!-- Node10 -->
<g id="Node000010" class="node">
<title>Node10</title>
<g id="a_Node000010"><a xlink:title=" ">
<polygon fill="white" stroke="transparent" points="327.3,-1070 255.3,-1070 255.3,-1021 327.3,-1021 327.3,-1070"/>
<text text-anchor="start" x="260.3" y="-1057.5" font-family="Helvetica,sans-Serif" font-size="10.00">MemoryFlag</text>
<text text-anchor="start" x="289.3" y="-1042.5" font-family="Helvetica,sans-Serif" font-size="10.00"> </text>
<text text-anchor="start" x="289.3" y="-1027.5" font-family="Helvetica,sans-Serif" font-size="10.00"> </text>
<polygon fill="#666666" stroke="#666666" points="255.3,-1052.5 255.3,-1052.5 327.3,-1052.5 327.3,-1052.5 255.3,-1052.5"/>
<polygon fill="#666666" stroke="#666666" points="255.3,-1037.5 255.3,-1037.5 327.3,-1037.5 327.3,-1037.5 255.3,-1037.5"/>
<polygon fill="none" stroke="#666666" points="255.3,-1021 255.3,-1070 327.3,-1070 327.3,-1021 255.3,-1021"/>
</a>
</g>
</g>
<!-- Node10&#45;&gt;Node8 -->
<g id="edge12_Node000008_Node000010" class="edge">
<title>Node10&#45;&gt;Node8</title>
<g id="a_edge12_Node000008_Node000010"><a xlink:title=" ">
<path fill="none" stroke="#63b8ff" d="M295.87,-1020.98C302.09,-989.59 313.88,-932.34 326.3,-884 326.82,-881.98 327.35,-879.94 327.89,-877.89"/>
<polygon fill="none" stroke="#63b8ff" points="327.96,-877.63 325.65,-870.8 331.06,-866.04 333.38,-872.87 327.96,-877.63"/>
</a>
</g>
<text text-anchor="middle" x="343.8" y="-903.5" font-family="Helvetica,sans-Serif" font-size="10.00" fill="grey"> +flags</text>
</g>
<!-- Node11 -->
<g id="Node000011" class="node">
<title>Node11</title>
<g id="a_Node000011"><a xlink:title=" ">
<polygon fill="white" stroke="transparent" points="385.3,-1070 345.3,-1070 345.3,-1021 385.3,-1021 385.3,-1070"/>
<text text-anchor="start" x="350.3" y="-1057.5" font-family="Helvetica,sans-Serif" font-size="10.00">void *</text>
<text text-anchor="start" x="363.3" y="-1042.5" font-family="Helvetica,sans-Serif" font-size="10.00"> </text>
<text text-anchor="start" x="363.3" y="-1027.5" font-family="Helvetica,sans-Serif" font-size="10.00"> </text>
<polygon fill="#666666" stroke="#666666" points="345.3,-1052.5 345.3,-1052.5 385.3,-1052.5 385.3,-1052.5 345.3,-1052.5"/>
<polygon fill="#666666" stroke="#666666" points="345.3,-1037.5 345.3,-1037.5 385.3,-1037.5 385.3,-1037.5 345.3,-1037.5"/>
<polygon fill="none" stroke="#666666" points="345.3,-1021 345.3,-1070 385.3,-1070 385.3,-1021 345.3,-1021"/>
</a>
</g>
</g>
<!-- Node11&#45;&gt;Node8 -->
<g id="edge13_Node000008_Node000011" class="edge">
<title>Node11&#45;&gt;Node8</title>
<g id="a_edge13_Node000008_Node000011"><a xlink:title=" ">
<path fill="none" stroke="#63b8ff" d="M365.3,-1020.6C365.3,-989.26 365.3,-931.94 365.3,-878.33"/>
<polygon fill="none" stroke="#63b8ff" points="365.3,-878.24 361.3,-872.24 365.3,-866.24 369.3,-872.24 365.3,-878.24"/>
</a>
</g>
<text text-anchor="middle" x="391.3" y="-909" font-family="Helvetica,sans-Serif" font-size="10.00" fill="grey"> +handle</text>
<text text-anchor="middle" x="391.3" y="-898" font-family="Helvetica,sans-Serif" font-size="10.00" fill="grey">+userdata</text>
</g>
<!-- Node12 -->
<g id="Node000012" class="node">
<title>Node12</title>
<g id="a_Node000012"><a xlink:title=" ">
<polygon fill="white" stroke="transparent" points="530.8,-1070 403.8,-1070 403.8,-1021 530.8,-1021 530.8,-1070"/>
<text text-anchor="start" x="409.3" y="-1057.5" font-family="Helvetica,sans-Serif" font-size="10.00">std::shared_ptr&lt; void &gt;</text>
<text text-anchor="start" x="465.8" y="-1042.5" font-family="Helvetica,sans-Serif" font-size="10.00"> </text>
<text text-anchor="start" x="465.8" y="-1027.5" font-family="Helvetica,sans-Serif" font-size="10.00"> </text>
<polygon fill="#666666" stroke="#666666" points="404.3,-1052.5 404.3,-1052.5 531.3,-1052.5 531.3,-1052.5 404.3,-1052.5"/>
<polygon fill="#666666" stroke="#666666" points="404.3,-1037.5 404.3,-1037.5 531.3,-1037.5 531.3,-1037.5 404.3,-1037.5"/>
<polygon fill="none" stroke="#666666" points="403.8,-1021 403.8,-1070 530.8,-1070 530.8,-1021 403.8,-1021"/>
</a>
</g>
</g>
<!-- Node12&#45;&gt;Node8 -->
<g id="edge15_Node000008_Node000012" class="edge">
<title>Node12&#45;&gt;Node8</title>
<g id="a_edge15_Node000008_Node000012"><a xlink:title=" ">
<path fill="none" stroke="#63b8ff" d="M460.79,-1020.9C451.95,-989.42 435.29,-932.07 418.3,-884 417.57,-881.91 416.82,-879.81 416.05,-877.7"/>
<polygon fill="none" stroke="#63b8ff" points="416.01,-877.58 410.19,-873.32 411.88,-866.31 417.7,-870.57 416.01,-877.58"/>
</a>
</g>
<text text-anchor="middle" x="479.8" y="-903.5" font-family="Helvetica,sans-Serif" font-size="10.00" fill="grey"> +allocatorContext</text>
</g>
<!-- Node13 -->
<g id="Node000013" class="node">
<title>Node13</title>
<g id="a_Node000013"><a xlink:title=" ">
<polygon fill="white" stroke="transparent" points="448.3,-1241 416.3,-1241 416.3,-1192 448.3,-1192 448.3,-1241"/>
<text text-anchor="start" x="421.3" y="-1228.5" font-family="Helvetica,sans-Serif" font-size="10.00">void</text>
<text text-anchor="start" x="430.3" y="-1213.5" font-family="Helvetica,sans-Serif" font-size="10.00"> </text>
<text text-anchor="start" x="430.3" y="-1198.5" font-family="Helvetica,sans-Serif" font-size="10.00"> </text>
<polygon fill="#666666" stroke="#666666" points="416.3,-1223.5 416.3,-1223.5 448.3,-1223.5 448.3,-1223.5 416.3,-1223.5"/>
<polygon fill="#666666" stroke="#666666" points="416.3,-1208.5 416.3,-1208.5 448.3,-1208.5 448.3,-1208.5 416.3,-1208.5"/>
<polygon fill="none" stroke="#666666" points="416.3,-1192 416.3,-1241 448.3,-1241 448.3,-1192 416.3,-1192"/>
</a>
</g>
</g>
<!-- Node13&#45;&gt;Node12 -->
<g id="edge16_Node000012_Node000013" class="edge">
<title>Node13&#45;&gt;Node12</title>
<g id="a_edge16_Node000012_Node000013"><a xlink:title=" ">
<path fill="none" stroke="#63b8ff" d="M437.24,-1191.64C443.16,-1163.08 453.12,-1114.99 459.94,-1082.05"/>
<polygon fill="none" stroke="#63b8ff" points="459.95,-1081.98 457.25,-1075.3 462.39,-1070.23 465.09,-1076.92 459.95,-1081.98"/>
</a>
</g>
<text text-anchor="middle" x="455.8" y="-1166" font-family="Helvetica,sans-Serif" font-size="10.00" fill="grey"> +ptr</text>
</g>
<!-- Node14 -->
<g id="Node000014" class="node">
<title>Node14</title>
<g id="a_Node000014"><a xlink:title=" ">
<polygon fill="white" stroke="transparent" points="578.3,-1241 466.3,-1241 466.3,-1192 578.3,-1192 578.3,-1241"/>
<text text-anchor="start" x="471.3" y="-1228.5" font-family="Helvetica,sans-Serif" font-size="10.00">std::shared_ptr&lt; T &gt;</text>
<text text-anchor="start" x="520.3" y="-1213.5" font-family="Helvetica,sans-Serif" font-size="10.00"> </text>
<text text-anchor="start" x="477.8" y="-1198.5" font-family="Helvetica,sans-Serif" font-size="10.00">+</text>
<text text-anchor="start" x="498.3" y="-1198.5" font-family="Helvetica,sans-Serif" font-size="10.00">operator&#45;&gt;()</text>
<polygon fill="#666666" stroke="#666666" points="466.3,-1223.5 466.3,-1223.5 578.3,-1223.5 578.3,-1223.5 466.3,-1223.5"/>
<polygon fill="#666666" stroke="#666666" points="466.3,-1208.5 466.3,-1208.5 578.3,-1208.5 578.3,-1208.5 466.3,-1208.5"/>
<polygon fill="none" stroke="#666666" points="466.3,-1192 466.3,-1241 578.3,-1241 578.3,-1192 466.3,-1192"/>
</a>
</g>
</g>
<!-- Node14&#45;&gt;Node12 -->
<g id="edge17_Node000012_Node000014" class="edge">
<title>Node14&#45;&gt;Node12</title>
<g id="a_edge17_Node000012_Node000014"><a xlink:title=" ">
<path fill="none" stroke="orange" d="M511.39,-1181.97C500.65,-1148.96 484.51,-1099.37 475.03,-1070.23"/>
<polygon fill="orange" stroke="orange" points="508.12,-1183.22 514.54,-1191.64 514.77,-1181.05 508.12,-1183.22"/>
</a>
</g>
<text text-anchor="middle" x="531.8" y="-1166" font-family="Helvetica,sans-Serif" font-size="10.00" fill="grey"> &lt; void &gt;</text>
</g>
<!-- Node15 -->
<g id="Node000015" class="node">
<title>Node15</title>
<g id="a_Node000015"><a xlink:title=" ">
<polygon fill="white" stroke="transparent" points="530.8,-1337 513.8,-1337 513.8,-1288 530.8,-1288 530.8,-1337"/>
<text text-anchor="start" x="519.3" y="-1324.5" font-family="Helvetica,sans-Serif" font-size="10.00">T</text>
<text text-anchor="start" x="520.8" y="-1309.5" font-family="Helvetica,sans-Serif" font-size="10.00"> </text>
<text text-anchor="start" x="520.8" y="-1294.5" font-family="Helvetica,sans-Serif" font-size="10.00"> </text>
<polygon fill="#666666" stroke="#666666" points="514.3,-1319.5 514.3,-1319.5 531.3,-1319.5 531.3,-1319.5 514.3,-1319.5"/>
<polygon fill="#666666" stroke="#666666" points="514.3,-1304.5 514.3,-1304.5 531.3,-1304.5 531.3,-1304.5 514.3,-1304.5"/>
<polygon fill="none" stroke="#666666" points="513.8,-1288 513.8,-1337 530.8,-1337 530.8,-1288 513.8,-1288"/>
</a>
</g>
</g>
<!-- Node15&#45;&gt;Node14 -->
<g id="edge18_Node000014_Node000015" class="edge">
<title>Node15&#45;&gt;Node14</title>
<g id="a_edge18_Node000014_Node000015"><a xlink:title=" ">
<path fill="none" stroke="#63b8ff" d="M522.3,-1287.78C522.3,-1277.32 522.3,-1264.79 522.3,-1253.23"/>
<polygon fill="none" stroke="#63b8ff" points="522.3,-1253.21 518.3,-1247.21 522.3,-1241.21 526.3,-1247.21 522.3,-1253.21"/>
</a>
</g>
<text text-anchor="middle" x="534.8" y="-1262" font-family="Helvetica,sans-Serif" font-size="10.00" fill="grey"> +ptr</text>
</g>
<!-- Node16&#45;&gt;Node3 -->
<g id="edge19_Node000003_Node000016" class="edge">
<title>Node16&#45;&gt;Node3</title>
<g id="a_edge19_Node000003_Node000016"><a xlink:title=" ">
<path fill="none" stroke="#63b8ff" d="M119.56,-681.93C122.04,-648.35 131.25,-610.08 157.3,-586 199.77,-546.77 241.27,-599.54 293.36,-567.17"/>
<polygon fill="none" stroke="#63b8ff" points="293.47,-567.09 296.01,-560.34 303.21,-560.09 300.67,-566.84 293.47,-567.09"/>
</a>
</g>
<text text-anchor="middle" x="172.8" y="-600" font-family="Helvetica,sans-Serif" font-size="10.00" fill="grey"> +size</text>
</g>
<!-- Node17&#45;&gt;Node3 -->
<g id="edge21_Node000003_Node000017" class="edge">
<title>Node17&#45;&gt;Node3</title>
<g id="a_edge21_Node000003_Node000017"><a xlink:title=" ">
<path fill="none" stroke="#63b8ff" d="M727.99,-681.88C719.16,-666.73 709.35,-651.03 699.3,-637 629.12,-539.01 513.08,-458.46 437.92,-412.81"/>
<polygon fill="none" stroke="#63b8ff" points="437.88,-412.78 430.68,-413.12 427.59,-406.6 434.8,-406.26 437.88,-412.78"/>
</a>
</g>
<text text-anchor="middle" x="701.8" y="-600" font-family="Helvetica,sans-Serif" font-size="10.00" fill="grey"> +step</text>
</g>
</g>
</svg>
