<?xml version="1.0" encoding="UTF-8" standalone="no"?>
<!DOCTYPE svg PUBLIC "-//W3C//DTD SVG 1.1//EN"
 "http://www.w3.org/Graphics/SVG/1.1/DTD/svg11.dtd">
<!-- Generated by graphviz version 2.43.0 (0)
 -->
<!-- Title: cv::videostab::MotionEstimatorRansacL2 Pages: 1 -->
<svg width="194pt" height="288pt"
 viewBox="0.00 0.00 194.00 288.00" xmlns="http://www.w3.org/2000/svg" xmlns:xlink="http://www.w3.org/1999/xlink">
<g id="graph0" class="graph" transform="scale(1 1) rotate(0) translate(4 284)">
<title>cv::videostab::MotionEstimatorRansacL2</title>
<!-- Node1 -->
<g id="Node000001" class="node">
<title>Node1</title>
<g id="a_Node000001"><a xlink:title="Describes a robust RANSAC&#45;based global 2D motion estimation method which minimizes L2 error.">
<polygon fill="#999999" stroke="transparent" points="174,-135 12,-135 12,0 174,0 174,-135"/>
<text text-anchor="start" x="17" y="-122.5" font-family="Helvetica,sans-Serif" font-size="10.00">cv::videostab::MotionEstimator</text>
<text text-anchor="start" x="69.5" y="-111.5" font-family="Helvetica,sans-Serif" font-size="10.00">RansacL2</text>
<text text-anchor="start" x="91" y="-96.5" font-family="Helvetica,sans-Serif" font-size="10.00"> </text>
<text text-anchor="start" x="17" y="-81.5" font-family="Helvetica,sans-Serif" font-size="10.00">+</text>
<text text-anchor="start" x="31" y="-81.5" font-family="Helvetica,sans-Serif" font-size="10.00">MotionEstimatorRansacL2()</text>
<text text-anchor="start" x="17" y="-66.5" font-family="Helvetica,sans-Serif" font-size="10.00">+</text>
<text text-anchor="start" x="31" y="-66.5" font-family="Helvetica,sans-Serif" font-size="10.00">estimate()</text>
<text text-anchor="start" x="17" y="-51.5" font-family="Helvetica,sans-Serif" font-size="10.00">+</text>
<text text-anchor="start" x="31" y="-51.5" font-family="Helvetica,sans-Serif" font-size="10.00">minInlierRatio()</text>
<text text-anchor="start" x="17" y="-36.5" font-family="Helvetica,sans-Serif" font-size="10.00">+</text>
<text text-anchor="start" x="31" y="-36.5" font-family="Helvetica,sans-Serif" font-size="10.00">ransacParams()</text>
<text text-anchor="start" x="17" y="-21.5" font-family="Helvetica,sans-Serif" font-size="10.00">+</text>
<text text-anchor="start" x="31" y="-21.5" font-family="Helvetica,sans-Serif" font-size="10.00">setMinInlierRatio()</text>
<text text-anchor="start" x="17" y="-6.5" font-family="Helvetica,sans-Serif" font-size="10.00">+</text>
<text text-anchor="start" x="31" y="-6.5" font-family="Helvetica,sans-Serif" font-size="10.00">setRansacParams()</text>
<polygon fill="#666666" stroke="#666666" points="12,-106.5 12,-106.5 174,-106.5 174,-106.5 12,-106.5"/>
<polygon fill="#666666" stroke="#666666" points="12,-91.5 12,-91.5 174,-91.5 174,-91.5 12,-91.5"/>
<polygon fill="none" stroke="#666666" points="12,0 12,-135 174,-135 174,0 12,0"/>
</a>
</g>
</g>
<!-- Node2 -->
<g id="Node000002" class="node">
<title>Node2</title>
<g id="a_Node000002"><a xlink:href="../../db/df1/classcv_1_1videostab_1_1MotionEstimatorBase.html" target="_top" xlink:title="Base class for all global motion estimation methods.">
<polygon fill="white" stroke="transparent" points="186,-280 0,-280 0,-171 186,-171 186,-280"/>
<text text-anchor="start" x="5" y="-267.5" font-family="Helvetica,sans-Serif" font-size="10.00">cv::videostab::MotionEstimatorBase</text>
<text text-anchor="start" x="91" y="-252.5" font-family="Helvetica,sans-Serif" font-size="10.00"> </text>
<text text-anchor="start" x="15" y="-237.5" font-family="Helvetica,sans-Serif" font-size="10.00">+</text>
<text text-anchor="start" x="39" y="-237.5" font-family="Helvetica,sans-Serif" font-size="10.00">~MotionEstimatorBase()</text>
<text text-anchor="start" x="15" y="-222.5" font-family="Helvetica,sans-Serif" font-size="10.00">+</text>
<text text-anchor="start" x="39" y="-222.5" font-family="Helvetica,sans-Serif" font-size="10.00">estimate()</text>
<text text-anchor="start" x="15" y="-207.5" font-family="Helvetica,sans-Serif" font-size="10.00">+</text>
<text text-anchor="start" x="39" y="-207.5" font-family="Helvetica,sans-Serif" font-size="10.00">motionModel()</text>
<text text-anchor="start" x="15" y="-192.5" font-family="Helvetica,sans-Serif" font-size="10.00">+</text>
<text text-anchor="start" x="39" y="-192.5" font-family="Helvetica,sans-Serif" font-size="10.00">setMotionModel()</text>
<text text-anchor="start" x="15" y="-177.5" font-family="Helvetica,sans-Serif" font-size="10.00">#</text>
<text text-anchor="start" x="39" y="-177.5" font-family="Helvetica,sans-Serif" font-size="10.00">MotionEstimatorBase()</text>
<polygon fill="#666666" stroke="#666666" points="0,-262.5 0,-262.5 186,-262.5 186,-262.5 0,-262.5"/>
<polygon fill="#666666" stroke="#666666" points="0,-247.5 0,-247.5 186,-247.5 186,-247.5 0,-247.5"/>
<polygon fill="none" stroke="#666666" points="0,-171 0,-280 186,-280 186,-171 0,-171"/>
</a>
</g>
</g>
<!-- Node2&#45;&gt;Node1 -->
<g id="edge1_Node000001_Node000002" class="edge">
<title>Node2&#45;&gt;Node1</title>
<g id="a_edge1_Node000001_Node000002"><a xlink:title=" ">
<path fill="none" stroke="#63b8ff" d="M93,-160.71C93,-152.31 93,-143.69 93,-135.24"/>
<polygon fill="none" stroke="#63b8ff" points="89.5,-160.81 93,-170.81 96.5,-160.81 89.5,-160.81"/>
</a>
</g>
</g>
</g>
</svg>
